<?xml version="1.0" encoding="UTF-8"?>
<svg id="uuid-698dbdc7-8df5-4e94-8245-b291fb4de5b2" data-name="圖層 2" xmlns="http://www.w3.org/2000/svg" width="376.73" height="100.92" viewBox="0 0 376.73 100.92">
  <defs>
    <style>
      .uuid-e0a3d147-ce51-46c3-8c50-e64661ceef03 {
        fill: #e8b356;
      }

      .uuid-78bf7a28-f29b-4a12-bd66-aae5da513712 {
        opacity: .18;
      }

      .uuid-3788825d-5599-46aa-ac93-bb2cda074204 {
        fill: #ca954a;
      }
    </style>
  </defs>
  <g id="uuid-42281547-d501-41ef-ab8b-0fa28d0ea8a9" data-name="圖層 1">
    <g>
      <path class="uuid-3788825d-5599-46aa-ac93-bb2cda074204" d="M148,86.86c-.12-.34-.29-.72-.46-1.12-2.24,.14-3.67,.26-4.62,.37,2.44,1.43,5.42,2.64,8.46,3.3-.75,.63-1.66,1.84-2.15,2.64-4.56-1.32-8.89-3.73-11.99-6.77-1.78,2.01-3.99,3.64-6.51,4.93,2.61-.69,5.62-1.81,7.32-2.95l2.38,1.23c-2.38,1.72-6.02,3.18-9.01,4.02-.4-.54-.98-1.29-1.61-1.86-1.26,.6-2.58,1.12-3.96,1.58-.34-.69-1.23-2.04-1.84-2.7,3.01-.8,5.79-2.01,8.03-3.59-4.16,.29-4.99,.43-5.56,.66-.2-.63-.72-1.92-1.09-2.67,.34-.09,.75-.37,1.06-.75,.29-.37,1.23-1.61,1.72-2.96l.09,.03c-.17-.63-.6-1.84-.89-2.55,.57-.12,1.18-.34,1.89-.72,.8-.37,3.21-1.61,4.93-3.1l2.98,1.46c-1.03,.72-2.21,1.46-3.41,2.09l7.49-.17c-.72-.6-1.43-1.18-2.12-1.64l2.58-1.2c1.98,1.43,4.59,3.53,5.88,4.99l-2.73,1.32c-.29-.32-.63-.72-1.03-1.15-11.99,.43-14.11,.46-15.32,.78l2.67,1.06c-.43,.75-1.03,1.52-1.66,2.24l2.07-.09c-.2-.43-.4-.83-.63-1.18l2.44-.69c.34,.66,.75,1.41,1.09,2.12,.77-.8,1.43-1.66,1.92-2.64l3.13,.89c-.17,.32-.37,.6-.52,.89,.23,.29,.52,.57,.8,.86v-.03c.32-.09,.69-.34,.98-.75,.23-.34,1-1.55,1.38-2.84l3.01,1.21c-.37,.66-.83,1.43-1.38,2.12l2.41-.12c-.29-.43-.57-.83-.86-1.2l2.35-.92c1.15,1.32,2.35,3.18,2.81,4.45l-2.52,1.09Zm-1.06,7.2c-3.79,3.99-10.38,5.88-17.73,6.86-.29-.83-.92-1.98-1.52-2.72,6.86-.66,13.31-2.24,16.5-5.45l2.75,1.32Zm-3.33-2.9c-3.1,2.58-8.09,4.39-12.79,5.37-.34-.72-1.06-1.72-1.69-2.41,4.39-.72,9.38-2.18,11.93-4.22l2.55,1.26Z"/>
      <path class="uuid-3788825d-5599-46aa-ac93-bb2cda074204" d="M182.43,95.44h-5.48v5.45h-3.44v-5.45h-6v-3.39h6v-2.35h-4.85v-3.33h4.85v-2.29h-4.76v-3.3h4.76v-2.15h-5.57v-1.52c-1.29,.46-2.78,.86-4.33,1.2v3.87h3.44v3.24h-3.44v.37c0,1.09-.03,2.21-.09,3.33h3.79v3.33h-4.22c-.57,3.07-1.81,6.02-4.36,8.43-.66-.69-2.07-1.78-2.98-2.29,2.01-1.84,3.07-3.93,3.7-6.14h-3.73v-3.33h4.3c.09-1.12,.12-2.27,.12-3.39v-.31h-3.82v-3.24h3.82v-3.27c-1.29,.2-2.52,.34-3.73,.46-.14-.8-.57-2.09-.95-2.84,3.64-.46,7.69-1.26,10.27-2.29l2.21,2.73v-1.72h14.11v3.38h-5.11v2.15h4.42v3.3h-4.42v2.29h4.47v3.33h-4.47v2.35h5.48v3.39Z"/>
      <path class="uuid-3788825d-5599-46aa-ac93-bb2cda074204" d="M192.02,85.86v15.03h-3.38v-25.7h10.96v10.67h-7.57Zm0-8.06v1.55h4.39v-1.55h-4.39Zm4.39,5.48v-1.63h-4.39v1.63h4.39Zm1.75,13.57v1.61h-3.18v-10.61h11.1v9.01h-7.92Zm0-6.2v3.38h4.73v-3.38h-4.73Zm14.66,6.17c0,1.89-.4,2.87-1.61,3.41-1.18,.57-2.98,.66-5.62,.66-.11-.97-.66-2.58-1.15-3.5,1.66,.11,3.62,.09,4.16,.06,.54,0,.75-.17,.75-.69v-10.87h-7.77v-10.7h11.25v21.63Zm-8-19.05v1.58h4.53v-1.58h-4.53Zm4.53,5.54v-1.66h-4.53v1.66h4.53Z"/>
      <path class="uuid-3788825d-5599-46aa-ac93-bb2cda074204" d="M234.68,82.04c-.2,.29-.43,.55-.63,.83,2.84,1.84,7.8,3.99,11.93,5.08-.75,.69-1.81,2.09-2.35,2.98-1.84-.63-3.82-1.52-5.65-2.5v1.58h-11.5v-1.18c-1.75,.98-3.67,1.81-5.65,2.5-.43-.77-1.43-2.18-2.12-2.78,5.42-1.64,10.44-4.5,12.97-7.83l1.92,.83c-.63-.72-1.72-1.72-2.38-2.21l.26-.23h-4.65c.95,.83,2.01,1.84,2.55,2.58l-2.5,2.12c-.54-.86-1.81-2.21-2.84-3.16l1.95-1.55h-1.81c-1,1.49-2.09,2.87-3.21,3.93-.43-.72-1.58-2.27-2.24-2.93,1.75-1.52,3.44-3.9,4.36-6.25l3.33,1c-.17,.43-.37,.86-.57,1.29h6.17v2.38c1.18-1.26,2.09-2.98,2.67-4.65l3.47,.89c-.17,.46-.34,.92-.54,1.38h7.6v2.95h-5.68c.92,.77,1.87,1.66,2.35,2.35l-2.44,2.09c-.54-.83-1.78-2.18-2.81-3.1l1.63-1.35h-2.24c-.6,1-1.32,1.89-2.04,2.61l.69,.32Zm-11.02,9.52h17.1v9.27h-3.41v-.77h-10.41v.86h-3.27v-9.35Zm3.27,2.93v2.61h10.41v-2.61h-10.41Zm8.83-7.29c-1.35-.8-2.58-1.61-3.61-2.35-.92,.86-1.89,1.61-2.95,2.35h6.57Z"/>
    </g>
    <g class="uuid-78bf7a28-f29b-4a12-bd66-aae5da513712">
      <g>
        <path class="uuid-e0a3d147-ce51-46c3-8c50-e64661ceef03" d="M16.38,30.25L0,.96H12.91l13.82,27.23-4.35,.09L35.33,.96h13.82l12.95,27.32-4.35-.09L71.58,.96h12.72l-16.2,29.29h-15.47L40,5.58h4.48l-12.63,24.67h-15.47Z"/>
        <path class="uuid-e0a3d147-ce51-46c3-8c50-e64661ceef03" d="M112.44,31.17c-6.65,0-12.01-.59-16.06-1.76-4.06-1.17-7.01-2.91-8.86-5.22-1.85-2.3-2.77-5.16-2.77-8.58s.92-6.28,2.77-8.58c1.85-2.3,4.8-4.04,8.86-5.22C100.44,.63,105.79,.05,112.44,.05s12,.59,16.06,1.76c4.06,1.17,7.01,2.91,8.86,5.22,1.85,2.3,2.77,5.16,2.77,8.58s-.92,6.28-2.77,8.58c-1.85,2.3-4.8,4.04-8.86,5.22-4.06,1.17-9.41,1.76-16.06,1.76Zm0-8.7c3.14,0,5.86-.19,8.15-.57,2.29-.38,4.06-1.07,5.31-2.06,1.25-.99,1.88-2.4,1.88-4.23s-.63-3.24-1.88-4.23c-1.25-.99-3.02-1.68-5.31-2.06-2.29-.38-5-.57-8.15-.57s-5.9,.19-8.26,.57c-2.36,.38-4.21,1.07-5.54,2.06-1.33,.99-1.99,2.4-1.99,4.23s.66,3.24,1.99,4.23,3.17,1.68,5.54,2.06c2.36,.38,5.12,.57,8.26,.57Z"/>
        <path class="uuid-e0a3d147-ce51-46c3-8c50-e64661ceef03" d="M146.08,30.25V.96h35.38c2.78,0,5.27,.31,7.48,.94,2.21,.62,3.96,1.67,5.26,3.13,1.29,1.46,1.94,3.46,1.94,6,0,1.68-.3,3.07-.91,4.16-.61,1.1-1.45,1.95-2.52,2.56-1.07,.61-2.29,1.05-3.66,1.33-1.37,.28-2.81,.44-4.3,.5l-3.34-.64c3.63,.03,6.43,.18,8.4,.46,1.97,.27,3.34,.77,4.12,1.49s1.17,1.75,1.17,3.09v6.27h-11.44v-4.9c0-.92-.18-1.61-.53-2.08-.35-.47-1.11-.8-2.29-.98-1.17-.18-2.98-.27-5.42-.27h-17.89v8.24h-11.44Zm11.44-15.88h23.94c.92,0,1.69-.15,2.31-.46,.62-.3,.94-.88,.94-1.74,0-.79-.31-1.33-.94-1.62-.63-.29-1.4-.44-2.31-.44h-23.94v4.26Z"/>
        <path class="uuid-e0a3d147-ce51-46c3-8c50-e64661ceef03" d="M200.86,19.5h12.49c.21,.64,.84,1.18,1.88,1.62s2.43,.78,4.19,1.01c1.75,.23,3.79,.34,6.11,.34s4.1-.07,5.42-.21c1.33-.14,2.27-.38,2.82-.73,.55-.35,.82-.83,.82-1.44,0-.58-.44-1.03-1.33-1.35s-2.46-.54-4.71-.66c-2.26-.12-5.43-.18-9.52-.18-3.05,0-5.68-.14-7.89-.43-2.21-.29-4.03-.75-5.45-1.37-1.42-.62-2.46-1.42-3.13-2.38s-1.01-2.11-1.01-3.46c0-2.32,.79-4.23,2.36-5.74,1.57-1.51,3.95-2.64,7.14-3.39,3.19-.75,7.18-1.12,11.97-1.12,7.02,0,12.38,1.01,16.09,3.04,3.71,2.03,5.56,4.95,5.56,8.76h-11.85c-.15-1.01-1.1-1.78-2.84-2.31s-4.21-.8-7.41-.8-5.53,.18-7.07,.55c-1.54,.37-2.31,.99-2.31,1.88,0,.46,.21,.82,.64,1.1s1.17,.5,2.22,.66,2.54,.28,4.46,.34c1.92,.06,4.36,.09,7.32,.09,3.26,0,6.04,.16,8.33,.48,2.29,.32,4.14,.8,5.56,1.44s2.45,1.46,3.09,2.45c.64,.99,.96,2.16,.96,3.5,0,2.32-.73,4.21-2.2,5.67-1.46,1.46-3.78,2.55-6.96,3.25-3.17,.7-7.32,1.05-12.45,1.05-2.9,0-5.56-.17-7.99-.5-2.43-.34-4.58-.83-6.48-1.49-1.89-.66-3.49-1.46-4.81-2.43-1.31-.96-2.31-2.04-3-3.25s-1.03-2.54-1.03-4Z"/>
        <path class="uuid-e0a3d147-ce51-46c3-8c50-e64661ceef03" d="M250.79,.96h11.44V30.25h-11.44V.96Zm9.79,10.11h32.22v8.7h-32.22V11.07ZM291.52,.96h11.44V30.25h-11.44V.96Z"/>
        <path class="uuid-e0a3d147-ce51-46c3-8c50-e64661ceef03" d="M310.05,.96h11.44V30.25h-11.44V.96Z"/>
        <path class="uuid-e0a3d147-ce51-46c3-8c50-e64661ceef03" d="M339.2,22.7V14.69h22.84c.92,0,1.69-.14,2.31-.44,.62-.29,.94-.91,.94-1.85s-.31-1.6-.94-1.88c-.63-.27-1.4-.41-2.31-.41h-22.1V30.25h-11.44V.96h31.76c2.29,0,4.43,.16,6.43,.48,2,.32,3.74,.89,5.24,1.72,1.5,.82,2.67,1.98,3.52,3.48,.85,1.5,1.28,3.42,1.28,5.77s-.43,4.21-1.28,5.58c-.85,1.37-2.03,2.4-3.52,3.07s-3.24,1.11-5.24,1.33c-2,.21-4.14,.32-6.43,.32h-21.05Z"/>
        <path class="uuid-e0a3d147-ce51-46c3-8c50-e64661ceef03" d="M160.06,47.88v8.7h-34.69v3.89h28.37v7.78h-28.37v8.92h-11.44v-29.29h46.13Z"/>
        <path class="uuid-e0a3d147-ce51-46c3-8c50-e64661ceef03" d="M156.86,77.17l19.63-29.29h12.72l19.82,29.29h-12.58l-16.98-26.22h6.82l-16.84,26.22h-12.59Zm10.25-4.44v-6.86h31.3v6.86h-31.3Z"/>
        <path class="uuid-e0a3d147-ce51-46c3-8c50-e64661ceef03" d="M237.17,78.08c-6.65,0-12.01-.59-16.06-1.76s-7.01-2.91-8.86-5.22c-1.85-2.3-2.77-5.16-2.77-8.58s.92-6.28,2.77-8.58c1.85-2.3,4.8-4.04,8.86-5.22s9.41-1.76,16.06-1.76,12,.59,16.06,1.76c4.06,1.17,7.01,2.91,8.86,5.22,1.84,2.3,2.77,5.16,2.77,8.58s-.92,6.28-2.77,8.58c-1.85,2.3-4.8,4.04-8.86,5.22-4.06,1.17-9.41,1.76-16.06,1.76Zm0-8.7c3.14,0,5.86-.19,8.15-.57s4.06-1.07,5.31-2.06,1.88-2.4,1.88-4.23-.63-3.24-1.88-4.23c-1.25-.99-3.02-1.68-5.31-2.06-2.29-.38-5-.57-8.15-.57s-5.9,.19-8.26,.57c-2.36,.38-4.21,1.07-5.54,2.06-1.33,.99-1.99,2.4-1.99,4.23s.66,3.24,1.99,4.23,3.17,1.68,5.54,2.06,5.12,.57,8.26,.57Zm-5.49,5.81h10.98v11.12h-10.98v-11.12Z"/>
      </g>
    </g>
  </g>
</svg>