<svg height="70.31" viewBox="0 0 225.69 70.31" width="225.69" xmlns="http://www.w3.org/2000/svg"><path d="m195.14 70.31 30.55-27.56a10.75 10.75 0 0 1 0-15.19l-30.55-27.56h-164.59l-30.55 27.56a10.75 10.75 0 0 1 0 15.19l30.55 27.56z" fill="#ec6531"/><g fill="#fff"><path d="m57.17 27.55s0 .85 0 1.19c-.46 11.1-.84 15-1.75 16.23a2.44 2.44 0 0 1 -1.79 1.14 16.48 16.48 0 0 1 -2.8 0 6.54 6.54 0 0 0 -.68-2.47c1 .08 1.87.11 2.32.11a1 1 0 0 0 .88-.47c.63-.78 1.06-4.21 1.42-13.42h-3.1c-.31 6.5-1.21 12.77-4.3 16.8a7.26 7.26 0 0 0 -1.86-1.66c2.82-3.53 3.61-9.2 3.83-15.08h-3.23v-2.37h3.31c0-1.54 0-3.1 0-4.58h2.37v4.58zm10.53-1.55v20.11h-2.42v-1.66h-4.22v1.87h-2.32v-20.32zm-2.42 16.13v-13.8h-4.22v13.8z"/><path d="m86.52 24.4c0 4.71.58 14.35 10.21 20.2a12.49 12.49 0 0 0 -1.9 2.06 22.09 22.09 0 0 1 -9.67-13.66c-1.87 6.26-5 10.81-9.7 13.7a17.22 17.22 0 0 0 -2.17-2c5.43-2.89 8.49-8 9.95-15.06l1.29.24a28.55 28.55 0 0 1 -.33-3.1h-6v-2.38z"/><path d="m123.8 26.87a35.2 35.2 0 0 1 -3.3 2.68 18 18 0 0 0 4 1.64 10.27 10.27 0 0 0 -1.42 1.89 15.35 15.35 0 0 1 -3.28-1.45v2.94c0 .59.08.78.43.78h1.56a6 6 0 0 0 1.24-.11c0 .5.08 1.2.15 1.69a4.51 4.51 0 0 1 -1.34.13h-1.84c-1.77 0-2.12-.73-2.12-2.52v-2h-3v.1a5.68 5.68 0 0 1 -2.73 5.17 8.2 8.2 0 0 0 -1.42-1.4v.42h-5.15c-.1.75-.2 1.53-.33 2.23h5.53s0 .63-.07.94c-.3 3.56-.58 5.12-1.21 5.8a2.47 2.47 0 0 1 -1.8.7 27.79 27.79 0 0 1 -3.33 0 4.88 4.88 0 0 0 -.71-2.06c1.34.13 2.65.16 3.16.16a1.24 1.24 0 0 0 .91-.23c.33-.32.58-1.3.78-3.49h-5.51c.33-1.58.71-4 .91-5.9h4.75v-2.39h-3.92v-.36a21.85 21.85 0 0 1 -2.6 1.14 8.62 8.62 0 0 0 -1.26-1.79 17.94 17.94 0 0 0 4.62-2.24 20.74 20.74 0 0 0 -2.6-1.95l1.34-1.3a22.54 22.54 0 0 1 2.85 2 11.5 11.5 0 0 0 2-2.26h-5.46v-1.92h6.69l.38-.08 1.49.73a14.9 14.9 0 0 1 -5 6.13h3.56v5.49a3.79 3.79 0 0 0 2.15-3.64v-1.95h5.25a17.32 17.32 0 0 1 -5.55-7l1.87-.57a15.88 15.88 0 0 0 1.66 2.8 20.31 20.31 0 0 0 2.87-2.75l1.69 1.25a29.8 29.8 0 0 1 -3.39 2.78 14.48 14.48 0 0 0 1.62 1.41 30.07 30.07 0 0 0 3.16-2.86zm-1.8 11.62a11.49 11.49 0 0 1 -3 4.68c1.24.76 2.37 1.48 3.18 2.06l-1.21 1.58c-.88-.67-2.15-1.51-3.56-2.39a17.88 17.88 0 0 1 -5.68 2.37 6.7 6.7 0 0 0 -1-1.77 16.24 16.24 0 0 0 4.88-1.74c-1.29-.81-2.6-1.59-3.77-2.27l1.06-1.24h-.88v-1.72h8.38.36zm-8.91 1.28c1.26.7 2.72 1.5 4.14 2.36a11.37 11.37 0 0 0 2-2.36z"/><path d="m134.09 41.22a16.39 16.39 0 0 1 -3.43 5.57 20.5 20.5 0 0 0 -1.87-1.43 11.49 11.49 0 0 0 3.05-4.71zm5.13-1h-9v-16.34h9zm-2.3-14.37h-4.5v2.86h4.5zm0 4.73h-4.5v2.92h4.5zm0 4.73h-4.5v3h4.5zm.33 5.3a19.3 19.3 0 0 1 2.75 4.15l-2 1.06a22.15 22.15 0 0 0 -2.65-4.31zm14.95-9.38h-3v12.64c0 1.3-.3 2-1.06 2.42a9.74 9.74 0 0 1 -3.84.47 9 9 0 0 0 -.83-2.37c1.31.06 2.5.06 2.85 0s.56-.13.56-.55v-9.51a25.19 25.19 0 0 1 -6 8.32 10.56 10.56 0 0 0 -1.61-1.74c2.7-2 5.2-5.8 6.74-9.67h-6.09v-2.24h7v-6h2.32v6h3z"/><path d="m179.71 43.12h-10.23v3.69h-2.43v-3.69h-10v-2.18h10v-1.8h-7.4v-10.14h7.4v-1.66h-9.24v-2.21h9.24v-2.24h2.43v2.24h9.39v2.21h-9.39v1.66h7.57v10.14h-7.57v1.8h10.23zm-17.78-10h5.12v-2.12h-5.12zm5.12 4.06v-2.18h-5.12v2.21zm2.43-6.18v2.16h5.23v-2.16zm5.23 4h-5.23v2.21h5.23z"/></g></svg>