<svg xmlns="http://www.w3.org/2000/svg" width="100.82" height="134.8" viewBox="0 0 100.82 134.8">
  <defs>
    <style>
      .cls-1, .cls-2, .cls-3 {
        fill: none;
      }

      .cls-1 {
        opacity: 0.6;
      }

      .cls-2, .cls-3 {
        stroke: #ca954a;
        stroke-width: 1.32px;
      }

      .cls-2 {
        stroke-miterlimit: 10;
      }

      .cls-3 {
        stroke-linejoin: round;
      }

      .cls-4 {
        fill: #e8b356;
      }
    </style>
  </defs>
  <g id="圖層_2" data-name="圖層 2">
    <g id="圖層_2-2" data-name="圖層 2">
      <g>
        <circle class="cls-1" cx="50.41" cy="50.41" r="49.75"/>
        <circle class="cls-2" cx="50.41" cy="50.41" r="49.75"/>
        <path class="cls-3" d="M59.62,20.34,34.71,45.25a7.29,7.29,0,0,1,0,10.33l24.91,24.9"/>
      </g>
      <g>
        <path class="cls-4" d="M14.31,132v-3h8.48a2,2,0,0,0,.86-.16.69.69,0,0,0,.35-.69.67.67,0,0,0-.35-.69,2,2,0,0,0-.86-.16H14.58v7.48H10.33V123.92h11.8a15.07,15.07,0,0,1,2.39.18,5.83,5.83,0,0,1,1.94.64A3.32,3.32,0,0,1,27.77,126a4.26,4.26,0,0,1,.48,2.14,3.88,3.88,0,0,1-.48,2.08,2.91,2.91,0,0,1-1.31,1.14,6.34,6.34,0,0,1-1.94.49,22.48,22.48,0,0,1-2.39.12Z"/>
        <path class="cls-4" d="M31.73,134.8V123.92H44.87a10.31,10.31,0,0,1,2.78.35,4,4,0,0,1,2,1.17,3.22,3.22,0,0,1,.72,2.22,3.12,3.12,0,0,1-.34,1.55,2.5,2.5,0,0,1-.93.95,4.39,4.39,0,0,1-1.36.49,9.21,9.21,0,0,1-1.6.19l-1.24-.24a28,28,0,0,1,3.12.17,2.91,2.91,0,0,1,1.53.56,1.46,1.46,0,0,1,.43,1.14v2.33H45.69V133a1.29,1.29,0,0,0-.2-.77,1.27,1.27,0,0,0-.85-.37,15.62,15.62,0,0,0-2-.1H36v3.06ZM36,128.9h8.89a1.86,1.86,0,0,0,.86-.17.64.64,0,0,0,.35-.64.61.61,0,0,0-.35-.61,2.16,2.16,0,0,0-.86-.16H36Z"/>
        <path class="cls-4" d="M58.29,130.21v1.36H71.21v3.23H54V123.92H71.17v3.23H58.29v1.36H68.83v1.7Z"/>
        <path class="cls-4" d="M80.52,134.8l-6.59-10.88h4.79l5.63,10.46H82.61l5.63-10.46H93L86.44,134.8Z"/>
      </g>
    </g>
  </g>
</svg>
