<svg xmlns="http://www.w3.org/2000/svg" width="100.82" height="134.8" viewBox="0 0 100.82 134.8">
  <defs>
    <style>
      .cls-1, .cls-2, .cls-3 {
        fill: none;
      }

      .cls-1 {
        opacity: 0.6;
      }

      .cls-2, .cls-3 {
        stroke: #ca954a;
        stroke-width: 1.32px;
      }

      .cls-2 {
        stroke-miterlimit: 10;
      }

      .cls-3 {
        stroke-linejoin: round;
      }

      .cls-4 {
        fill: #e8b356;
      }
    </style>
  </defs>
  <g id="圖層_2" data-name="圖層 2">
    <g id="圖層_2-2" data-name="圖層 2">
      <g>
        <circle class="cls-1" cx="50.41" cy="50.41" r="49.75"/>
        <circle class="cls-2" cx="50.41" cy="50.41" r="49.75"/>
        <path class="cls-3" d="M41.21,80.48l24.9-24.9a7.31,7.31,0,0,1,0-10.33L41.21,20.34"/>
      </g>
      <g>
        <path class="cls-4" d="M27.41,131.47l-1.58.9v-8.45h4.25V134.8H25.83L13,127.39l1.58-.92v8.33H10.36V123.92h4.25Z"/>
        <path class="cls-4" d="M38.07,130.21v1.36H51v3.23H33.82V123.92H51v3.23H38.07v1.36H48.61v1.7Z"/>
        <path class="cls-4" d="M66.63,123.92h5.44l-7.65,6.46-.17.14-4.93,4.28H53.88l8-6.7L62,128Zm-7.14,0,4.78,4.2.1.1,7.87,6.58H66.8l-5.13-4.43-.07-.07-7.55-6.38Z"/>
        <path class="cls-4" d="M74.62,123.92H92.3v3.23H74.62Zm6.72,3h4.25v7.87H81.34Z"/>
      </g>
    </g>
  </g>
</svg>
