<svg height="45.82" viewBox="0 0 147.08 45.82" width="147.08" xmlns="http://www.w3.org/2000/svg"><path d="m127.17 45.82 19.91-18a7 7 0 0 1 0-9.9l-19.91-17.92h-107.26l-19.91 18a7 7 0 0 1 0 9.9l19.91 18z" fill="#ec6531"/><g fill="#fff"><path d="m39.09 17.82s0 .57 0 .79c-.3 7.32-.55 9.89-1.14 10.69a1.64 1.64 0 0 1 -1.19.76 9.8 9.8 0 0 1 -1.84 0 4.39 4.39 0 0 0 -.45-1.63c.65.06 1.23.07 1.53.07a.63.63 0 0 0 .58-.31c.42-.51.7-2.77.93-8.84h-2c-.2 4.29-.8 8.42-2.83 11.07a4.92 4.92 0 0 0 -1.23-1.13c1.86-2.33 2.38-6.07 2.53-9.94h-2.18v-1.53h2.2c0-1 0-2 0-3h1.56v3zm6.94-1v13.24h-1.6v-1.06h-2.78v1.23h-1.53v-13.44zm-1.6 10.65v-9.1h-2.78v9.1z"/><path d="m58.43 15.75c0 3.1.38 9.46 6.73 13.31a7.74 7.74 0 0 0 -1.25 1.36 14.57 14.57 0 0 1 -6.38-9c-1.23 4.13-3.31 7.13-6.39 9a12.84 12.84 0 0 0 -1.43-1.28c3.58-1.91 5.59-5.28 6.56-9.93l.85.16a17.8 17.8 0 0 1 -.22-2h-4v-1.62z"/><path d="m83 17.38a23.34 23.34 0 0 1 -2.18 1.76 11.62 11.62 0 0 0 2.63 1.08 6.77 6.77 0 0 0 -.93 1.25 10.08 10.08 0 0 1 -2.17-1v1.94c0 .39.05.51.28.51h1a3.44 3.44 0 0 0 .81-.07c0 .33 0 .79.1 1.12a3.09 3.09 0 0 1 -.88.08h-1.18c-1.16 0-1.39-.48-1.39-1.66v-1.31h-2v.07a3.73 3.73 0 0 1 -1.8 3.41 5.11 5.11 0 0 0 -.93-.93v.28h-3.36c-.06.49-.13 1-.21 1.47h3.64s0 .41 0 .62c-.2 2.34-.38 3.37-.8 3.82a1.6 1.6 0 0 1 -1.18.46 19.71 19.71 0 0 1 -2.2 0 3.11 3.11 0 0 0 -.46-1.35c.88.08 1.74.1 2.08.1a.83.83 0 0 0 .6-.15c.21-.21.38-.86.51-2.3h-3.68c.21-1 .46-2.62.6-3.89h3.1v-1.54h-2.55v-.24a14.24 14.24 0 0 1 -1.72.75 5.71 5.71 0 0 0 -.83-1.18 12.07 12.07 0 0 0 3.1-1.48 13.3 13.3 0 0 0 -1.72-1.29l.88-.86a14 14 0 0 1 1.84 1.33 7.71 7.71 0 0 0 1.32-1.49h-3.6v-1.27h4.41l.25-.05 1 .48a9.88 9.88 0 0 1 -3.3 4h2.35v3.61a2.48 2.48 0 0 0 1.41-2.4v-1.23h3.47a11.42 11.42 0 0 1 -3.67-4.63l1.23-.38a10.5 10.5 0 0 0 1.13 1.85 13.55 13.55 0 0 0 1.88-1.79l1.12.82a21.12 21.12 0 0 1 -2.23 1.83 8.7 8.7 0 0 0 1.07.93 20.6 20.6 0 0 0 2.08-1.89zm-1.22 7.62a7.65 7.65 0 0 1 -2 3.08c.81.5 1.56 1 2.09 1.35l-.8 1.05c-.58-.45-1.41-1-2.34-1.58a11.78 11.78 0 0 1 -3.73 1.6 4.36 4.36 0 0 0 -.68-1.16 10.83 10.83 0 0 0 3.21-1.15c-.85-.53-1.71-1.05-2.48-1.49l.7-.82h-.58v-1.13h5.52.24zm-5.87.84c.83.46 1.79 1 2.73 1.56a7.91 7.91 0 0 0 1.36-1.52z"/><path d="m89.77 26.84a10.83 10.83 0 0 1 -2.26 3.66 14.92 14.92 0 0 0 -1.24-.94 7.57 7.57 0 0 0 2-3.1zm3.38-.66h-5.94v-10.77h5.94zm-1.52-9.47h-3v1.88h3zm0 3.12h-3v1.92h3zm0 3.12h-3v1.95h3zm.22 3.49a12.68 12.68 0 0 1 1.8 2.73l-1.32.7a13.81 13.81 0 0 0 -1.75-2.87zm9.86-6.18h-2v8.32c0 .86-.2 1.32-.69 1.6a6.54 6.54 0 0 1 -2.53.31 5.94 5.94 0 0 0 -.49-1.56h1.88s.36-.08.36-.36v-6.27a16.56 16.56 0 0 1 -3.94 5.48 6.83 6.83 0 0 0 -1.07-1.15 15.37 15.37 0 0 0 4.45-6.37h-4v-1.5h4.57v-4h1.53v4h2z"/><path d="m119.83 28.09h-6.74v2.43h-1.6v-2.43h-6.58v-1.44h6.58v-1.18h-4.88v-6.72h4.88v-1.06h-6.09v-1.46h6.09v-1.47h1.6v1.47h6.19v1.46h-6.19v1.06h5v6.72h-5v1.18h6.74zm-11.72-6.6h3.38v-1.42h-3.38zm3.38 2.67v-1.45h-3.38v1.45zm1.6-4.09v1.42h3.44v-1.42zm3.44 2.64h-3.44v1.45h3.44z"/></g></svg>