<svg height="20.93" viewBox="0 0 40.69 20.93" width="40.69" xmlns="http://www.w3.org/2000/svg"><path d="m40.69 13.25v16.75h-6.24v-9.34a4.21 4.21 0 0 0 -1.45.34c-.59.22-1.25.49-2 .79a18 18 0 0 1 -2.35.79 9.9 9.9 0 0 1 -2.54.34 4.06 4.06 0 0 1 -3.33-1.73 12.17 12.17 0 0 1 -2-4.54 31.65 31.65 0 0 1 -.87-6.13h.83a29.57 29.57 0 0 1 -.83 6.13 12.17 12.17 0 0 1 -2 4.54 4.1 4.1 0 0 1 -3.37 1.73 9.9 9.9 0 0 1 -2.54-.35 18 18 0 0 1 -2.35-.79c-.73-.3-1.39-.57-2-.79a4.31 4.31 0 0 0 -1.42-.33v9.34h-6.23v-16.75a11.24 11.24 0 0 1 4 .08 27.68 27.68 0 0 1 4.07 1.15l3.66 1.31a8.67 8.67 0 0 0 2.75.58 3.06 3.06 0 0 0 2.79-1.6c.64-1.07 1-3 1-5.68h4.17c0 2.72.31 4.61.95 5.68a3.06 3.06 0 0 0 2.79 1.6 8.67 8.67 0 0 0 2.75-.58l3.66-1.31a27.38 27.38 0 0 1 4.1-1.15 11.09 11.09 0 0 1 4-.08z" fill="#e8b356" transform="translate(0 -9.09)"/></svg>