<svg height="20.93" viewBox="0 0 40.69 20.93" width="40.69" xmlns="http://www.w3.org/2000/svg"><path d="m26.17 25.24a3.06 3.06 0 0 0 -2.79 1.62c-.64 1.08-.95 3-.95 5.66h-4.17c0-2.69-.31-4.58-1-5.66a3.06 3.06 0 0 0 -2.79-1.62 8.51 8.51 0 0 0 -2.75.6l-3.61 1.31a28.86 28.86 0 0 1 -4.11 1.12 11 11 0 0 1 -4 .09v-16.77h6.24v9.41a4.31 4.31 0 0 0 1.42-.33l2-.79a18 18 0 0 1 2.34-.88 9.48 9.48 0 0 1 2.54-.34 4.1 4.1 0 0 1 3.37 1.73 12.19 12.19 0 0 1 2 4.56 29.65 29.65 0 0 1 .83 6.11h-.83a31.78 31.78 0 0 1 .89-6.06 12.19 12.19 0 0 1 2-4.56 4.06 4.06 0 0 1 3.33-1.73 9.48 9.48 0 0 1 2.54.34 18 18 0 0 1 2.35.79l2 .79a4.21 4.21 0 0 0 1.41.33v-9.37h6.24v16.77a10.88 10.88 0 0 1 -4-.09 28.53 28.53 0 0 1 -4.1-1.12l-3.66-1.31a8.51 8.51 0 0 0 -2.74-.6z" fill="#e8b356" transform="translate(0 -11.59)"/></svg>