<svg height="96.91" viewBox="0 0 852.08 96.91" width="852.08" xmlns="http://www.w3.org/2000/svg"><g fill="#da4e36"><path d="m0 94.06 61.14-91.21h39.62l61.7 91.21h-39.19l-52.87-81.66h21.24l-52.45 81.66zm31.92-13.83v-21.37h97.48v21.37z"/><path d="m173.86 94.06v-91.21h89.79q27.64 0 40.76 5.42t13.11 18.81q0 8.55-5.63 13.11t-16.11 6.34a185.12 185.12 0 0 1 -25.15 2.21l1.14-1.14q10.69 0 19.81.57a74.44 74.44 0 0 1 16 2.56 23.2 23.2 0 0 1 10.69 6.13q3.84 4.14 3.85 11.4a18.77 18.77 0 0 1 -6.27 14.54q-6.29 5.7-17.82 8.48a117.49 117.49 0 0 1 -27.22 2.78zm35.63-52.45h55.3q7.54 0 10.9-1.42t3.31-4.56a4.72 4.72 0 0 0 -3.31-4.63q-3.35-1.37-10.9-1.36h-55.3zm0 25.66h61.28q7.56 0 10.9-1.43c2.24-1 3.35-2.47 3.35-4.56a4.31 4.31 0 0 0 -1.49-3.42 10.32 10.32 0 0 0 -4.63-1.92 41.7 41.7 0 0 0 -8.13-.65h-61.28z"/><path d="m421.12 96.91q-31.06 0-50-5.49t-27.59-16.24q-8.62-10.77-8.63-26.73t8.63-26.72q8.61-10.73 27.57-16.24t50-5.49q31.06 0 50 5.49t27.57 16.24q8.63 10.77 8.62 26.72t-8.62 26.73q-8.62 10.75-27.57 16.24t-49.98 5.49zm0-27.08a156.27 156.27 0 0 0 25.37-1.78q10.69-1.78 16.53-6.41t5.85-13.19q0-8.55-5.85-13.18t-16.53-6.41a156.27 156.27 0 0 0 -25.37-1.78 163.11 163.11 0 0 0 -25.72 1.78q-11 1.79-17.24 6.41t-6.16 13.18q0 8.55 6.2 13.19t17.24 6.41a163.11 163.11 0 0 0 25.68 1.78z"/><path d="m654 42v-39.15h35.63v45.6q0 12.12-4.49 20.6a38.71 38.71 0 0 1 -12.47 14 62.64 62.64 0 0 1 -18.39 8.48 126.88 126.88 0 0 1 -22.28 4.17 240.66 240.66 0 0 1 -24.16 1.21q-13 0-25.08-1.21a125.07 125.07 0 0 1 -22.44-4.21 58.91 58.91 0 0 1 -18-8.48 38.41 38.41 0 0 1 -12-14q-4.34-8.47-4.34-20.6v-45.56h35.52v39.15q0 11.4 5.55 17.39t15.95 8.23a120.06 120.06 0 0 0 24.86 2.21 118.87 118.87 0 0 0 24.52-2.21q10.39-2.2 16-8.19t5.62-17.43z"/><path d="m703.87 2.85h148.21v27.08h-148.21zm56.29 25.23h35.63v66h-35.63z"/></g></svg>