<svg height="169.51" viewBox="0 0 105.49 169.51" width="105.49" xmlns="http://www.w3.org/2000/svg"><g fill="#fff"><path d="m71.4 31.2v.09.39.22.26s-.06.38-.11.58v.09c0 .13-.06.26-.1.39v.06a10.24 10.24 0 0 1 -.4 1.18.37.37 0 0 1 -.05.11c0 .11-.09.22-.14.33l-.18.34a.41.41 0 0 0 0 .09c-.51-1.06-1.73-4.13-2.36-5.73a14.5 14.5 0 0 0 3.58-.52 17.82 17.82 0 0 1 -.24 2.12z"/><path d="m44.86 29.6c-.63 1.6-1.85 4.67-2.35 5.73a1 1 0 0 1 -.08-.14l-.17-.31a2.56 2.56 0 0 0 -.11-.24l-.15-.27a2.34 2.34 0 0 1 -.09-.24c-.06-.15-.11-.3-.16-.45s0-.18-.07-.27a1.82 1.82 0 0 1 -.07-.25c0-.09 0-.19-.07-.29s0-.14 0-.21-.07-.39-.1-.58a.69.69 0 0 1 0-.13c0-.12 0-.24-.05-.36a.28.28 0 0 0 0-.09 16.1 16.1 0 0 1 -.07-2.42 14.34 14.34 0 0 0 3.54.52z"/><path d="m82.53 10.52c.09.38.17.77.23 1.16v.14c.18 1.18.43 2.49.69 3.87.11.57.22 1.16.33 1.76l.08-.09c.13-.15.27-.3.39-.46s.09-.11.14-.17l.31-.41.13-.2c.09-.14.19-.28.27-.42l.13-.2.25-.45a1.74 1.74 0 0 1 .1-.19l.24-.5a1 1 0 0 1 .07-.15c.09-.21.17-.43.25-.64a10.69 10.69 0 0 0 .4-1.38.13.13 0 0 0 0-.06c0-.2.08-.4.11-.6 0 0 0-.09 0-.13s0-.35.05-.52v-.18a4 4 0 0 0 0-.49v-.14c0-.17 0-.33-.05-.48s0-.08 0-.12-.07-.34-.11-.5a.13.13 0 0 1 0-.06c-.06-.18-.12-.36-.19-.53l-.07-.11a1.56 1.56 0 0 1 -.27-.4 4 4 0 0 0 -2.15-1.12h-.08l-.3-.06h-.13l-.46-.06h-.21-.23-.35-1a18.36 18.36 0 0 1 1.37 3.84c.03-.08.05-.01.06.05z"/><path d="m25.44 11.08v.2s0 .3.07.45v.19c0 .16.07.32.11.48s0 .12 0 .18.09.33.14.49l.06.16c.05.17.12.34.18.51l.06.14c.07.18.14.35.22.53l.05.09c.09.19.18.38.28.57a11 11 0 0 0 2.12 2.79c.14-.75.27-1.49.41-2.2.26-1.38.51-2.69.69-3.87a18.4 18.4 0 0 1 1.77-5.26h-.07-.31-.88-.43-.14-.33-.06a5 5 0 0 0 -3.25 1.32 1.22 1.22 0 0 1 -.26.38l-.07.11a4.37 4.37 0 0 0 -.27.91.8.8 0 0 0 0 .15 2.7 2.7 0 0 0 0 .41 1.1 1.1 0 0 0 0 .18v.42.19z"/><path d="m80.73 16.21c-.27-1.41-.52-2.73-.71-4-.07-.45-.16-.89-.26-1.32a2 2 0 0 1 -.07-.26c-.09-.34-.19-.68-.3-1 0-.09 0-.18-.08-.27-.14-.39-.29-.78-.46-1.16-.16-.35-.33-.68-.51-1-.06-.1-.12-.21-.19-.31s-.29-.48-.45-.71l-.2-.3c-.21-.29-.43-.58-.67-.85l-.06.09a6.23 6.23 0 0 1 -4.47 2.33 4.74 4.74 0 0 1 -2.19-.45 4 4 0 0 1 -1.06-.72 1.71 1.71 0 0 0 -.84-.46 1 1 0 0 0 -.93.28 4.23 4.23 0 0 1 -3.28 1.35 4.11 4.11 0 0 1 -2-.78 2.16 2.16 0 0 0 -1.05-.45.66.66 0 0 0 -.25 0 .46.46 0 0 0 -.26.28 1.3 1.3 0 0 0 .63 1.13c.89.67 1.57 2-.27 4.64-.13.18-.23.36-.34.54v.05a4.93 4.93 0 0 0 -.23.46c0 .05 0 .09-.07.14a4.68 4.68 0 0 0 -.18.48.36.36 0 0 0 0 .11 3.07 3.07 0 0 0 -.13.5s0 0 0 .06c0 .17 0 .34-.07.51a2.29 2.29 0 0 0 .26 1.32 4.71 4.71 0 0 1 2 1.09v.05a3.07 3.07 0 0 1 .25.26 1.14 1.14 0 0 1 .11.11l.18.22.13.17.12.19a1.43 1.43 0 0 1 .14.2 3.64 3.64 0 0 1 .51 2.94 2.74 2.74 0 0 1 -3.72 1.81 4 4 0 0 1 -.8-.44 3.14 3.14 0 0 0 -.54.21l-.29.13-.21.08a5.6 5.6 0 0 1 -.57.17v3.1h.06l.14.05a17.66 17.66 0 0 0 5.61 1.22h.1.7l1.91-.07c3-.09 5.21-.16 6.33-1.23a12.21 12.21 0 0 0 1.1-1.3 5.6 5.6 0 0 1 2.81-2.31 4.12 4.12 0 0 1 1.25-.09h.24l.48.08a3.49 3.49 0 0 1 2.41 1.92 4.58 4.58 0 0 1 -.71 4.56 3 3 0 0 1 -.32.39v.05c-.1.1-.2.2-.32.3l-.09.07-.32.23-.12.08-.32.19-.13.07-.36.17-.12.05-.42.16h-.07a11.3 11.3 0 0 1 -1.59.42l-.46.07h-.1l-.4.05h-.11-.37-.16-.36-.09-.35-.09a13 13 0 0 1 -.35 1.78v.11c0 .17-.1.34-.15.51a.88.88 0 0 0 -.05.15c0 .14-.11.29-.17.43a.87.87 0 0 1 -.07.17 2.87 2.87 0 0 1 -.18.4l-.08.18-.24.44s-.07.11-.11.17-.16.26-.25.39v.05a1.39 1.39 0 0 1 -1.13.63c-.58 0-1.06-.42-1.44-1.17s-1.06-2.44-1.7-4h-.19l-.37.09h-.12l-.41.09h-.1l-.44.08h-.06c-.63.1-1.28.19-1.93.25h-.22-.28-.3-.24-.32-.21-.35-2-.32-5.83-.32-.72c-.52 0-1.11 0-1.73 0h-.09l-.79-.06h-.34-.54l-.5-.06-.38-.05-.61-.09h-.26l-.66-.12h-.15l-.7-.15c-.64 1.6-1.38 3.39-1.7 4s-.86 1.15-1.44 1.17h-.27-.16l-.14.06a1.48 1.48 0 0 1 -.57-.5c-.12-.17-.23-.35-.34-.52l-.09-.11-.22-.41a2.59 2.59 0 0 1 -.14-.29.3.3 0 0 1 0-.1c-.1-.21-.19-.43-.27-.64-.13-.36-.24-.72-.34-1.09-.05-.2-.1-.41-.14-.62s0-.14 0-.21a2 2 0 0 1 0-.24c0-.16-.05-.32-.07-.47a.13.13 0 0 1 0-.06h-.1-.33-.29-.3-.17-.29-.19-.29-.21l-.3-.05h-.21l-.34-.07h-.17l-.5-.13-.13-.34-.32-.1-.22-.08-.27-.1-.22-.1-.3-.08-.22-.12-.23-.13-.22-.18-.2-.14-.2-.16-.18-.17-.18-.17-.16-.21a1.07 1.07 0 0 1 -.14-.16 4.58 4.58 0 0 1 -.7-4.56 3.51 3.51 0 0 1 2.89-2 4.17 4.17 0 0 1 1.49.11 5.6 5.6 0 0 1 2.81 2.31 12.31 12.31 0 0 0 1.11 1.3 3.64 3.64 0 0 0 1.69.84 23.85 23.85 0 0 0 4.63.39l1.91.07h.71.09a17.86 17.86 0 0 0 5.92-1.19v-3.1a6.58 6.58 0 0 1 -1.15-.41 2.72 2.72 0 0 0 -.55-.2 3.24 3.24 0 0 1 -2 .65 2.93 2.93 0 0 1 -1.17-.32 2.76 2.76 0 0 1 -1.36-1.71 3.64 3.64 0 0 1 .51-2.94 3.3 3.3 0 0 1 .3-.43c.1-.14.21-.26.31-.38a4.65 4.65 0 0 1 2.39-1.46 2.17 2.17 0 0 0 .15-.35v-.05a2.24 2.24 0 0 0 .08-.43.28.28 0 0 1 0-.09 2.54 2.54 0 0 0 0-.39c0-.05 0-.11 0-.16s0-.24 0-.36a2 2 0 0 0 -.06-.26c0-.1 0-.2-.08-.3s-.08-.26-.13-.38l-.08-.21c-.08-.19-.18-.37-.28-.56v-.05a7.33 7.33 0 0 0 -.4-.63c-1.84-2.63-1.16-4-.27-4.64a1.3 1.3 0 0 0 .63-1.13.41.41 0 0 0 -.33-.28 1.59 1.59 0 0 0 -1.27.41 3.86 3.86 0 0 1 -2.67.77 4.48 4.48 0 0 1 -2.62-1.32 1 1 0 0 0 -.68-.3 1.56 1.56 0 0 0 -1.09.48 4.48 4.48 0 0 1 -3.25 1.15 6.23 6.23 0 0 1 -4.42-2.31.94.94 0 0 1 -.08-.14c-.06.07-.1.14-.16.2s-.32.39-.47.6l-.29.47c-.11.17-.22.34-.32.51s-.19.32-.28.48-.23.43-.33.65l-.27.58c-.11.28-.22.55-.32.84s-.11.32-.16.49-.15.47-.21.72-.09.33-.13.5c-.08.32-.14.64-.2 1a1.84 1.84 0 0 1 0 .25c-.19 1.22-.44 2.54-.71 4-1.36 7.2-3.22 17.06 1.06 23.06a14 14 0 0 0 6.53 5h.08l.59.2.29.08a3 3 0 0 0 .32.09 12.66 12.66 0 0 0 2.36.4h1.13.53a28.87 28.87 0 0 0 4.62-1c.39-.12.8-.23 1.21-.34l.48-.13.21-.05.44-.11.28-.06.43-.08.31-.06.42-.07h.36l.42-.06h.43.37v-5.4a1.41 1.41 0 0 1 1.41-1.4 1.4 1.4 0 0 1 1.4 1.4v5.4h.29.53.35c.14 0 .29 0 .43.06h.35l.4.07.34.07.4.09.31.07.42.11.26.06.5.14.16.05.67.19c.87.25 1.76.5 2.74.71h.2l.4.08.4.07h.22l.38.05h.28.59 1.13a12.13 12.13 0 0 0 2.44-.42l.21-.06.38-.11.47-.09.19-.07a13.92 13.92 0 0 0 5.72-4c.26-.31.51-.62.75-1 4.34-5.96 2.43-15.82 1.07-23.02zm-10.31 6.08a6.81 6.81 0 1 1 6.8-6.8 6.81 6.81 0 0 1 -6.8 6.8zm-28.1-13.61a6.81 6.81 0 1 1 -6.81 6.81 6.81 6.81 0 0 1 6.81-6.81z"/><path d="m37.31 4a4.65 4.65 0 0 0 3.18 1.7 2.81 2.81 0 0 0 2-.66 2.94 2.94 0 0 1 4.19-.19c1.38 1.31 2.42.85 3.08.38a3 3 0 0 1 3-.57 2.18 2.18 0 0 1 1.24 1.63 2.73 2.73 0 0 1 -.46 1.88 3.84 3.84 0 0 1 -.86.9.43.43 0 0 0 -.15.2c-.18.5.4 1.46.81 2a6.68 6.68 0 0 1 1.31 5.18 4.36 4.36 0 0 1 .58.19.87.87 0 0 1 .48 1.14.78.78 0 0 1 -.11.18.87.87 0 0 1 -1 .3 2.74 2.74 0 0 0 -3.32 1.38.2.2 0 0 1 0 .08 1.94 1.94 0 0 0 -.28 1.52 1 1 0 0 0 .45.63 1.28 1.28 0 0 0 1.4-.22 2.15 2.15 0 0 1 2.24.05 2.82 2.82 0 0 0 1.31.35 2.78 2.78 0 0 0 1.3-.35 2.17 2.17 0 0 1 2.25-.05 1.26 1.26 0 0 0 1.39.22 1 1 0 0 0 .29-.29 1.2 1.2 0 0 0 .16-.34 2 2 0 0 0 -.32-1.56 2.74 2.74 0 0 0 -3.32-1.38.88.88 0 0 1 -1.15-1.19.84.84 0 0 1 .46-.43 3 3 0 0 1 .48-.16h.11a6.25 6.25 0 0 1 .89-4.52c.13-.22.27-.44.41-.65s.21-.3.32-.48c.39-.65.75-1.45.34-1.76a3 3 0 0 1 -1.32-2.78 2 2 0 0 1 .22-.63 2.19 2.19 0 0 1 1.07-1 3 3 0 0 1 3 .57c.66.47 1.7.93 3.08-.38a2.94 2.94 0 0 1 4.2.11 2.79 2.79 0 0 0 2 .66 4.65 4.65 0 0 0 3.16-1.66l.06-.05.13-.1c-2.8-2.51-6.76-3.85-11.61-3.85h-15.22c-4.9 0-8.86 1.34-11.66 3.82h.05a.53.53 0 0 1 .14.18z"/><circle cx="42.32" cy="15.49" r="4.59"/><path d="m70.42 10.9a4.59 4.59 0 1 0 4.58 4.59 4.58 4.58 0 0 0 -4.58-4.59z"/><path d="m83.54 35.43s-2 18.8-26.63 10c0 0-3.45 6.4-2.54 12.78s-7.29 37.39-6.37 48.32c0 0-6.38-4.55-13.67 3.65s5.47 32.82 17.32 39.2 33.73.91 36.46 0 21.88-26.44 16.41-35.55-14.59-4.56-14.59-4.56 2.74-41.93 0-49.23-3.65-15.49-6.39-24.61z"/><path d="m89 44.55a151.47 151.47 0 0 0 3.66 15.45c1.82 5.47.91 30.09 0 37.38 0 0 7.29 1.82 7.29-9.12s4.56-25.48-10.95-43.71z"/><path d="m55 45.44c-.5.23-11.08 4.92-15 2 0 0 4 6 7 7a1.33 1.33 0 0 1 .73.61c-23.87 25.6-5.73 48.38-5.73 48.38h4s0-9 3-25c.55-3 4-18 3-24a9.42 9.42 0 0 1 3-8.99zm-8.48 7a1.5 1.5 0 1 1 1.5-1.5 1.5 1.5 0 0 1 -1.55 1.49zm3 3a1.5 1.5 0 1 1 1.5-1.5 1.5 1.5 0 0 1 -1.55 1.49z"/><path d="m61 153.43c-1.54 6.94-7.25 7.93-13.46 6.18l-8-5.88c-7.09-5.68-16.44-9.69-22-12.09-2.08-.9-3.71-1.6-4.72-2.16-5-2.76-5.69-7.11-4.08-10.18a8.07 8.07 0 0 1 4.4-3.84 8.24 8.24 0 0 1 6.5.41 6.2 6.2 0 0 0 5.24.41 1.11 1.11 0 0 0 .27-.12 4.53 4.53 0 0 0 2.3-3.44c.13-1-1.85-3.79-6.1-5.48a14.91 14.91 0 0 0 -16.65 3.94 23.17 23.17 0 0 0 -2.05 2.51s-3.65 5.4-2.39 11.53c.81 4.05 3.56 7.61 8.15 10.59a58.18 58.18 0 0 0 11.32 5.19c1.93.72 3.82 1.45 5.63 2.25l.43.21a1.09 1.09 0 0 1 .23.09 31.42 31.42 0 0 1 3.66 2 .34.34 0 0 0 .1.06 34.27 34.27 0 0 1 6.22 4.96l.17.17a34.57 34.57 0 0 0 4 3.2c.47.33 1 .68 1.56 1a64.47 64.47 0 0 0 6 3.4h.14c20 6 23-15 23-15-2.87 1.09-9.87.09-9.87.09z"/></g></svg>