<?xml version="1.0" encoding="UTF-8"?>
<svg id="uuid-d4b0b8f9-fe39-4693-8efd-6495f692ab48" data-name="圖層 2" xmlns="http://www.w3.org/2000/svg" width="51.49" height="82.74" viewBox="0 0 51.49 82.74">
  <g id="uuid-11de0790-5c65-4b2c-bbf3-b0812624da00" data-name="圖層 1">
    <g>
      <g>
        <path d="M34.85,15.23v.04c-.01,.06-.02,.13-.02,.19,0,.03,0,.07-.01,.11,0,.04-.01,.08-.02,.13-.01,.09-.03,.19-.05,.29v.04c-.02,.06-.04,.13-.05,.19v.03c-.06,.19-.12,.39-.2,.58,0,.02-.02,.04-.02,.06-.02,.05-.05,.1-.07,.16-.03,.06-.06,.11-.09,.17,0,.02-.02,.03-.02,.05-.24-.52-.84-2.02-1.15-2.8,.68-.03,1.26-.1,1.75-.26,.01,.27,.01,.63-.02,1.04Z" style="fill: #fff;"/>
        <path d="M21.9,14.45c-.31,.78-.91,2.28-1.15,2.8-.01-.02-.03-.05-.04-.07-.03-.05-.05-.1-.08-.15-.02-.04-.04-.08-.05-.12-.02-.04-.04-.09-.06-.13-.02-.04-.03-.08-.05-.12-.03-.07-.05-.15-.07-.22-.01-.04-.03-.09-.04-.13-.01-.04-.02-.08-.03-.12-.01-.05-.02-.09-.03-.14,0-.03-.01-.07-.02-.1-.02-.1-.04-.19-.05-.28,0-.02,0-.04,0-.06,0-.06-.02-.12-.02-.17v-.05c-.05-.46-.05-.88-.04-1.18,.49,.16,1.07,.22,1.75,.26Z" style="fill: #fff;"/>
        <path d="M40.28,5.14c.04,.19,.08,.37,.11,.57,0,.02,0,.05,.01,.07,.09,.57,.21,1.21,.34,1.89,.05,.28,.11,.57,.16,.86h.01s.02-.04,.04-.05c.07-.07,.13-.15,.19-.23,.02-.03,.04-.06,.07-.08,.05-.07,.1-.13,.15-.2,.02-.03,.04-.07,.07-.1,.05-.07,.09-.13,.13-.2,.02-.03,.04-.07,.06-.1,.04-.07,.08-.14,.12-.22,.02-.03,.03-.06,.05-.09,.04-.08,.08-.16,.12-.24,.01-.02,.02-.05,.03-.07,.05-.1,.09-.21,.13-.31h0c.08-.23,.15-.46,.2-.68v-.03c.03-.1,.04-.2,.06-.29,0-.02,0-.04,0-.06,.01-.09,.02-.17,.02-.26,0-.02,0-.05,0-.07,0-.08,0-.16,0-.24,0-.02,0-.05,0-.07,0-.08-.01-.16-.02-.23,0-.02,0-.04,0-.06-.01-.08-.03-.17-.05-.25v-.03c-.03-.09-.06-.18-.1-.26,0-.02-.02-.04-.03-.06-.05-.06-.1-.12-.13-.19h0c-.24-.28-.62-.46-1.05-.56h-.04s-.1-.03-.15-.04h-.06c-.07-.02-.15-.03-.23-.04-.03,0-.07,0-.1-.01-.04,0-.08,0-.11-.01-.06,0-.11,0-.17-.01-.03,0-.07,0-.1,0-.05,0-.09,0-.14,0-.03,0-.06,0-.09,0-.06,0-.12,0-.18,0,.29,.58,.51,1.2,.67,1.87,0,.03,.01,.06,.02,.1Z" style="fill: #fff;"/>
        <path d="M12.42,5.41s0,.06,0,.1c0,.07,.02,.15,.03,.22,0,.03,.01,.06,.02,.09,.01,.08,.03,.15,.05,.23,0,.03,.01,.06,.02,.09,.02,.08,.04,.16,.07,.24,0,.03,.02,.05,.03,.08,.03,.08,.06,.17,.09,.25,0,.02,.02,.04,.03,.06,.04,.09,.07,.17,.11,.26l.02,.05c.04,.09,.09,.18,.14,.27v.02c.28,.51,.63,.98,1.04,1.36h0c.07-.37,.14-.73,.2-1.08,.13-.68,.25-1.31,.34-1.89,.15-.95,.42-1.81,.81-2.59h-.03s-.1-.01-.15-.01c-.03,0-.06,0-.09,0-.04,0-.08,0-.12,0-.03,0-.07,0-.1,0-.04,0-.08,0-.12,0-.07,0-.14,0-.21,0h-.07c-.05,0-.11,.01-.16,.02h-.03c-.63,.07-1.25,.26-1.59,.65h0c-.03,.07-.08,.14-.13,.19h0s-.02,.04-.03,.06c-.06,.14-.1,.29-.13,.44,0,.02-.01,.05-.02,.07-.01,.06-.02,.13-.02,.2,0,.03,0,.06,0,.09,0,.07,0,.14,0,.21,0,.03,0,.06,0,.09,0,.07,0,.14,.01,.21Z" style="fill: #fff;"/>
        <path d="M39.4,7.91c-.13-.69-.25-1.33-.35-1.93-.03-.22-.08-.43-.13-.64-.01-.04-.02-.09-.03-.13-.04-.17-.09-.33-.14-.49-.01-.04-.03-.09-.04-.13-.07-.19-.14-.38-.22-.57v-.02c-.09-.17-.17-.33-.26-.49-.03-.05-.06-.1-.09-.15-.07-.12-.14-.23-.22-.35-.03-.05-.07-.1-.1-.15-.1-.14-.21-.28-.33-.41,0,.01-.02,.03-.03,.04v.02c-.82,.9-1.63,1.11-2.17,1.13h0c-.38,.01-.75-.06-1.07-.21-.19-.09-.37-.21-.52-.35-.12-.11-.26-.2-.41-.23-.15-.03-.31,0-.45,.14-.51,.48-1.06,.7-1.6,.65-.33-.03-.66-.16-.98-.38-.2-.14-.38-.21-.51-.22-.05,0-.09,0-.12,.02-.09,.03-.12,.11-.13,.14-.03,.18,.09,.39,.31,.55,.43,.33,.76,.98-.13,2.27-.06,.09-.11,.17-.16,.26l-.02,.02c-.04,.07-.08,.15-.11,.23-.01,.02-.02,.05-.03,.07-.03,.08-.06,.15-.09,.23,0,.02-.01,.04-.02,.05-.03,.08-.05,.16-.06,.24v.03c-.02,.09-.03,.17-.04,.25h0c-.02,.26,.02,.48,.12,.65h0c.36,.09,.69,.27,.98,.53l.03,.03s.08,.08,.12,.12c.02,.02,.04,.04,.05,.06,.03,.03,.06,.07,.09,.11,.02,.03,.04,.05,.06,.08,.02,.03,.04,.06,.06,.09,.02,.03,.04,.06,.06,.1,.37,.61,.34,1.12,.25,1.44-.11,.37-.35,.68-.66,.83-.37,.19-.76,.2-1.15,.05-.13-.05-.26-.12-.39-.21h0s-.17,.06-.26,.1c-.04,.02-.09,.04-.14,.06-.03,.01-.07,.03-.1,.04h-.02c-.08,.04-.18,.07-.28,.09h-.02v1.52h.03s.04,.03,.07,.04c.58,.22,1.62,.53,2.79,.55h.05c.11,0,.23,0,.34,0,.33-.01,.64-.02,.94-.03,1.47-.05,2.54-.08,3.09-.6,.2-.19,.37-.42,.54-.63,.35-.45,.73-.95,1.37-1.13,.18-.05,.38-.07,.61-.06,.04,0,.08,0,.12,0,.08,0,.16,.02,.23,.04,.52,.12,.95,.46,1.18,.95,.31,.67,.18,1.48-.34,2.23-.05,.07-.1,.13-.16,.19,0,0-.01,.01-.02,.02-.05,.05-.1,.1-.16,.15-.02,.01-.03,.02-.05,.04-.05,.04-.1,.08-.15,.11-.02,.01-.04,.02-.06,.04-.05,.03-.11,.06-.16,.09l-.06,.03c-.06,.03-.12,.06-.18,.08-.02,0-.04,.02-.06,.02-.07,.03-.14,.05-.2,.08h-.04c-.25,.1-.52,.17-.77,.22h-.02c-.08,.02-.15,.03-.22,.04h-.05c-.07,.02-.13,.03-.19,.03h-.05c-.06,.01-.12,.02-.18,.02h-.05c-.06,0-.12,.01-.17,.02h-.04c-.06,0-.12,0-.17,.01h-.04c-.04,.28-.09,.57-.17,.87v.05c-.04,.08-.06,.17-.09,.25,0,.02-.02,.05-.02,.07-.02,.07-.05,.14-.08,.21l-.03,.08c-.03,.07-.06,.13-.09,.19-.01,.03-.03,.06-.04,.09-.04,.07-.07,.14-.12,.21-.02,.03-.03,.06-.05,.08-.04,.06-.08,.13-.13,.19l-.02,.02c-.1,.15-.3,.31-.55,.31h-.03c-.28-.01-.52-.21-.7-.57-.16-.32-.52-1.19-.83-1.97h-.04c-.06,.02-.12,.04-.18,.05-.02,0-.04,0-.06,.01-.06,.01-.13,.03-.2,.04h-.05c-.07,.02-.14,.03-.21,.05h-.03c-.31,.06-.63,.1-.95,.13h-.11s-.09,.02-.14,.02c-.05,0-.1,0-.14,.01h-.12c-.05,.01-.11,.02-.16,.02-.03,0-.07,0-.1,0-.06,0-.11,0-.17,0h-.08c-.06,0-.12,0-.18,.01h-.07c-.06,0-.12,0-.17,0h-.06c-.06,0-.12,0-.17,0h-.05c-.06,0-.11,0-.16,0h-.04c-.05,0-.11,0-.15,0h-2.81s-.1,0-.16,0c-.11,0-.22,0-.35,0-.25,0-.54,0-.85-.03h-.04c-.13-.01-.25-.02-.39-.03-.05,0-.11,0-.17-.02-.09,0-.18-.02-.27-.03-.08,0-.16-.02-.24-.03-.06,0-.12-.02-.19-.02-.1-.01-.2-.03-.29-.04-.04,0-.08-.01-.13-.02-.11-.02-.22-.04-.32-.06h-.07c-.12-.04-.23-.06-.35-.09h0c-.32,.78-.67,1.65-.83,1.97-.18,.37-.42,.56-.7,.57h-.03s-.06,0-.09,0h-.01s-.05-.01-.08-.02h0s-.05-.02-.08-.03h0c-.12-.06-.22-.16-.28-.25-.06-.08-.11-.17-.16-.25-.01-.02-.02-.04-.03-.05-.04-.07-.07-.13-.11-.2-.02-.05-.05-.09-.07-.14l-.02-.05c-.05-.1-.09-.21-.13-.32h0c-.06-.18-.12-.36-.16-.54h0c-.03-.1-.05-.2-.07-.31,0-.04-.01-.07-.02-.11,0-.04-.01-.08-.02-.12-.01-.08-.02-.15-.03-.23v-.03h-.05c-.05,0-.1,0-.16-.01-.02,0-.04,0-.07,0-.05,0-.09,0-.14-.01h-.08s-.09-.02-.14-.02c-.03,0-.06,0-.09-.01-.05,0-.09-.01-.14-.02-.03,0-.07,0-.1-.01-.05,0-.1-.02-.15-.03-.03,0-.07-.01-.1-.02-.06-.01-.11-.02-.17-.04-.03,0-.06-.01-.08-.02-.08-.02-.16-.04-.24-.06-.03,0-.06-.02-.09-.03-.05-.02-.1-.03-.16-.05-.04-.01-.07-.03-.11-.04-.04-.02-.09-.03-.13-.05-.04-.02-.07-.03-.11-.05-.04-.02-.08-.04-.12-.06-.04-.02-.07-.04-.11-.06-.04-.02-.07-.04-.11-.06-.03-.02-.07-.04-.1-.07-.03-.02-.07-.05-.1-.07-.03-.02-.07-.05-.1-.08-.03-.03-.06-.05-.09-.08-.03-.03-.06-.05-.09-.08-.03-.03-.05-.07-.08-.1-.02-.03-.05-.05-.07-.08-.52-.74-.65-1.55-.34-2.23,.25-.56,.78-.93,1.41-.99,.28-.03,.52,0,.73,.05,.64,.17,1.02,.67,1.37,1.13,.17,.22,.34,.44,.54,.63,.2,.2,.48,.32,.83,.41,.58,.14,1.34,.17,2.26,.19,.3,0,.61,.02,.94,.03,.12,0,.23,0,.34,0h.04c1.24-.02,2.33-.37,2.89-.58v-1.51c-.22-.05-.41-.13-.56-.2-.09-.04-.23-.1-.27-.1h0c-.32,.22-.65,.33-.96,.32-.19,0-.38-.06-.57-.15-.31-.15-.55-.47-.66-.84-.09-.32-.12-.82,.25-1.44,.04-.07,.09-.14,.14-.21h0c.05-.07,.1-.13,.15-.19h0c.33-.37,.73-.61,1.16-.72h0c.03-.05,.05-.11,.07-.17v-.02c.02-.06,.04-.12,.04-.19v-.05c0-.06,0-.12,0-.19,0-.03,0-.05,0-.08,0-.06-.01-.12-.02-.18,0-.04-.02-.08-.03-.13-.01-.05-.02-.1-.04-.15-.02-.06-.04-.12-.07-.19-.01-.03-.02-.07-.04-.1-.04-.09-.08-.18-.13-.27v-.02c-.07-.1-.13-.21-.2-.31-.9-1.28-.57-1.94-.13-2.27,.22-.16,.34-.37,.31-.55,0-.02-.04-.1-.13-.14h-.02c-.14-.05-.36,.02-.62,.2-.43,.3-.87,.42-1.31,.38-.44-.05-.87-.26-1.28-.65-.11-.1-.22-.14-.33-.15-.19,0-.39,.1-.53,.24-.39,.37-.98,.58-1.59,.56h0c-.54-.02-1.35-.23-2.16-1.13-.02-.02-.03-.04-.04-.06h0s-.05,.07-.08,.1c-.08,.1-.16,.19-.23,.29-.05,.07-.1,.15-.15,.22-.05,.08-.11,.16-.16,.25-.05,.08-.09,.15-.14,.23-.06,.1-.11,.21-.16,.32-.05,.09-.09,.19-.13,.28-.06,.13-.11,.27-.16,.41-.03,.08-.05,.16-.08,.24-.04,.12-.07,.23-.1,.35-.02,.08-.04,.16-.06,.24-.04,.16-.07,.31-.1,.48,0,.04-.02,.08-.02,.12-.09,.59-.22,1.24-.35,1.93-.66,3.51-1.57,8.33,.51,11.25,.89,1.25,2.07,2.02,3.19,2.43,.01,0,.03,.01,.04,.01,.1,.04,.19,.07,.29,.1,.05,.01,.09,.03,.14,.04,.05,.02,.11,.03,.16,.04,.41,.11,.8,.17,1.15,.2h.05c.07,0,.14,0,.21,.01,.02,0,.04,0,.06,0,.02,0,.05,0,.07,0,.05,0,.1,0,.15,0,.09,0,.17-.01,.26-.02h.02c.87-.11,1.57-.31,2.25-.51,.19-.06,.39-.11,.59-.17h.02c.08-.03,.16-.05,.24-.07l.11-.03c.07-.02,.14-.03,.21-.05l.13-.03c.07-.01,.14-.03,.21-.04,.05,0,.1-.02,.15-.03,.07-.01,.14-.02,.21-.03,.06,0,.11-.02,.17-.02,.07,0,.14-.02,.21-.03,.07,0,.14-.01,.21-.02,.06,0,.12-.01,.18-.01v-2.64c0-.38,.31-.68,.68-.68h0c.38,0,.68,.31,.68,.68v2.64h0s.1,0,.14,.01c.09,0,.17,.01,.26,.02,.06,0,.12,.01,.17,.02,.07,0,.14,.02,.21,.03,.06,0,.12,.02,.17,.03,.07,.01,.13,.02,.2,.04,.06,.01,.11,.02,.16,.03,.07,.01,.13,.03,.19,.04,.05,.01,.1,.02,.15,.03,.07,.02,.14,.03,.2,.05,.04,.01,.09,.02,.13,.03,.08,.02,.16,.04,.24,.07l.08,.02c.11,.03,.22,.06,.32,.09,.43,.12,.86,.25,1.34,.35l.1,.02c.06,.01,.13,.03,.2,.04,.06,.01,.13,.02,.2,.03,.04,0,.07,.01,.11,.02,.06,0,.12,.02,.19,.03,.04,0,.09,.01,.13,.02h0c.09,.01,.19,.02,.29,.02,.04,0,.09,0,.14,0,.03,0,.05,0,.08,0,.02,0,.05,0,.07,0,.07,0,.14,0,.21,0,.02,0,.03,0,.05,0,.37-.02,.77-.09,1.19-.2,.04,0,.07-.02,.11-.03,.06-.02,.12-.04,.19-.06,.08-.02,.15-.05,.23-.08,.03-.01,.06-.02,.09-.03,.97-.36,1.97-.99,2.79-1.95,.13-.15,.25-.3,.37-.47,2.09-2.93,1.18-7.74,.52-11.25Zm-5.03,2.97c-1.83,0-3.32-1.49-3.32-3.32s1.49-3.32,3.32-3.32,3.32,1.49,3.32,3.32-1.49,3.32-3.32,3.32Zm-13.72-6.64c1.83,0,3.32,1.49,3.32,3.32s-1.49,3.32-3.32,3.32-3.32-1.49-3.32-3.32,1.49-3.32,3.32-3.32Z" style="fill: #fff;"/>
        <path d="M18.21,1.94c.48,.53,1.02,.83,1.55,.85,.44,.01,.79-.16,.97-.32,.63-.6,1.47-.64,2.04-.09,.67,.64,1.18,.41,1.5,.19,.67-.47,1.17-.41,1.47-.28,.41,.18,.59,.54,.63,.8,.04,.31-.04,.63-.22,.92-.11,.16-.25,.31-.42,.44-.03,.03-.06,.06-.07,.1-.09,.25,.19,.71,.39,.99,.52,.75,.85,1.72,.64,2.53,.1,.02,.19,.05,.28,.09,.22,.09,.32,.34,.24,.56-.01,.03-.03,.06-.05,.09-.11,.15-.32,.22-.5,.14-.57-.23-1.24,.05-1.62,.68,0,.01-.01,.03-.02,.04-.15,.26-.2,.51-.14,.72,.05,.18,.17,.28,.22,.31,.22,.11,.41,.08,.68-.11,.41-.28,.8-.1,1.09,.03,.21,.09,.4,.18,.64,.17,.24,0,.43-.08,.64-.17,.29-.13,.69-.31,1.09-.03,.27,.18,.46,.21,.68,.11,.03-.02,.09-.06,.14-.14,.03-.05,.06-.1,.08-.17,.06-.22,0-.48-.16-.76-.38-.63-1.05-.91-1.62-.68-.22,.09-.47-.02-.56-.24-.05-.12-.04-.24,.01-.34,.04-.09,.12-.17,.22-.21,.08-.03,.16-.06,.23-.08h.05c-.18-.71,.04-1.53,.44-2.22,.06-.11,.13-.22,.2-.32,.05-.07,.1-.15,.15-.23,.19-.32,.37-.71,.17-.86-.47-.36-.71-.86-.64-1.36,.01-.09,.05-.2,.1-.31,.1-.19,.27-.38,.53-.49,.3-.13,.8-.19,1.47,.28,.32,.23,.83,.45,1.5-.19,.58-.55,1.42-.51,2.04,.09,.18,.17,.52,.34,.97,.32,.53-.02,1.07-.31,1.55-.85,0,0,.02-.02,.03-.02,.02-.02,.04-.04,.06-.05-1.36-1.21-3.3-1.86-5.69-1.86h-7.41c-2.39,0-4.32,.65-5.69,1.86,0,0,.02,0,.02,.01,.02,.02,.05,.04,.07,.06Z" style="fill: #fff;"/>
        <circle cx="20.65" cy="7.56" r="2.24" style="fill: #fff;"/>
        <path d="M34.37,5.32c-1.24,0-2.24,1-2.24,2.24s1,2.24,2.24,2.24,2.24-1,2.24-2.24-1-2.24-2.24-2.24Z" style="fill: #fff;"/>
      </g>
      <path d="M40.78,17.29s-.95,9.18-13,4.89c0,0-1.68,3.12-1.24,6.24s-3.56,18.24-3.11,23.58c0,0-3.11-2.22-6.67,1.78-3.56,4,2.67,16.02,8.45,19.13,5.78,3.11,16.46,.44,17.8,0,1.33-.44,10.68-12.9,8.01-17.35-2.67-4.45-7.12-2.22-7.12-2.22,0,0,1.33-20.47,0-24.03-1.33-3.56-1.78-7.56-3.11-12.01Z" style="fill: #fff;"/>
      <path d="M43.45,21.74s.89,4.89,1.78,7.56c.89,2.67,.44,14.68,0,18.24,0,0,3.56,.89,3.56-4.45s2.22-12.46-5.34-21.36Z" style="fill: #fff;"/>
      <path d="M26.82,22.18c-.24,.11-5.41,2.4-7.31,.97,0,0,1.95,2.93,3.42,3.42,.16,.05,.27,.16,.36,.3-11.64,12.5-2.8,23.62-2.8,23.62h1.95s0-4.39,1.46-12.2c.27-1.44,1.95-8.79,1.46-11.71-.47-2.8,1.29-4.26,1.45-4.39Zm-4.14,3.41c-.41,0-.73-.33-.73-.73s.33-.73,.73-.73,.73,.33,.73,.73-.33,.73-.73,.73Zm1.46,1.46c-.41,0-.73-.33-.73-.73s.33-.73,.73-.73,.73,.33,.73,.73-.33,.73-.73,.73Z" style="fill: #fff;"/>
      <path d="M29.76,74.89c-.75,3.39-3.54,3.87-6.57,3.02l-3.89-2.87h0c-3.46-2.77-8.02-4.72-10.74-5.9-1.02-.44-1.81-.78-2.3-1.05-2.46-1.35-2.78-3.47-1.99-4.97,.42-.84,1.21-1.53,2.15-1.87,.94-.34,2.06-.34,3.17,.2,.94,.45,1.85,.52,2.56,.2,.04-.01,.1-.03,.13-.06,.61-.33,1.02-.94,1.12-1.68,.06-.5-.9-1.85-2.98-2.67-1.15-.45-4.87-1.51-8.13,1.92-.34,.37-.68,.77-1,1.23-.01,.01-1.77,2.64-1.17,5.63,.4,1.98,1.74,3.71,3.98,5.17,1.76,1.14,3.68,1.85,5.53,2.55,.94,.35,1.86,.71,2.75,1.1,.08,.03,.14,.07,.21,.1,.04,0,.07,.02,.11,.04,.62,.29,1.22,.61,1.79,.97,0,0,.01,.01,.05,.03,.28,.17,1.61,.99,3.04,2.41l.08,.08c.22,.21,.86,.79,1.98,1.56,.23,.16,.48,.33,.76,.51,.8,.51,1.78,1.08,2.94,1.66,0,0,0,0,0,0,.02,0,.04,.01,.07,.02,9.76,2.93,11.23-7.32,11.23-7.32-1.46,.49-4.88,0-4.88,0Z" style="fill: #fff;"/>
    </g>
  </g>
</svg>