<svg xmlns="http://www.w3.org/2000/svg" width="86.81" height="86.8" viewBox="0 0 86.81 86.8">
  <defs>
    <style>
      .cls-1, .cls-2 {
        fill: #fff;
      }

      .cls-1 {
        fill-rule: evenodd;
      }
    </style>
  </defs>
  <g id="圖層_2" data-name="圖層 2">
    <g id="圖層_2-2" data-name="圖層 2">
      <g>
        <path class="cls-1" d="M53.23,6.73a5,5,0,0,1-3-2.28C48.93,2.16,47,0,43.4,0c-2.48,0-5.35.88-6.86,2.82a.46.46,0,0,0,0,.58,1.39,1.39,0,0,1,.26,1.23c-.2.74-1,1.14-1.72,1.52a7.38,7.38,0,0,1-1.51.58,5,5,0,0,1-3.7-.49c-2.31-1.31-5.08-2.17-8.17-.42C19.54,7,17.51,9.26,17.16,11.69a.48.48,0,0,0,.3.5,1.39,1.39,0,0,1,.84.94,3,3,0,0,1-.73,2.16,7.61,7.61,0,0,1-1,1.27A5,5,0,0,1,13.11,18c-2.67,0-5.49.65-7.29,3.72-1.26,2.13-1.92,5.07-1,7.35a.5.5,0,0,0,.51.29,1.34,1.34,0,0,1,1.19.38A3,3,0,0,1,7,32a6.83,6.83,0,0,1-.25,1.6,5,5,0,0,1-2.28,3C2.16,37.88,0,39.86,0,43.41c0,2.48.89,5.35,2.82,6.86a.48.48,0,0,0,.58,0A1.36,1.36,0,0,1,4.63,50c.74.19,1.14,1,1.52,1.71a7.25,7.25,0,0,1,.58,1.51,5,5,0,0,1-.49,3.71c-1.31,2.3-2.17,5.08-.42,8.17C7,67.27,9.26,69.3,11.69,69.64a.49.49,0,0,0,.51-.29,1.33,1.33,0,0,1,.93-.84,2.89,2.89,0,0,1,2.16.73,6.48,6.48,0,0,1,1.27,1A5,5,0,0,1,18,73.71c0,2.65.65,5.48,3.72,7.28,2.13,1.26,5.07,1.91,7.35,1a.5.5,0,0,0,.29-.51,1.34,1.34,0,0,1,.38-1.19A3,3,0,0,1,32,79.83a7.37,7.37,0,0,1,1.6.24,5.1,5.1,0,0,1,3,2.28c1.33,2.3,3.31,4.43,6.86,4.45,2.48,0,5.35-.88,6.86-2.81a.49.49,0,0,0,0-.59A1.37,1.37,0,0,1,50,82.18c.2-.74,1-1.14,1.71-1.52a7.51,7.51,0,0,1,1.51-.59,5,5,0,0,1,3.71.49c2.31,1.32,5.08,2.18,8.17.43,2.16-1.22,4.19-3.44,4.53-5.87a.47.47,0,0,0-.29-.51,1.4,1.4,0,0,1-.84-.93,3,3,0,0,1,.73-2.17,6.73,6.73,0,0,1,1-1.26,5,5,0,0,1,3.46-1.43c2.65,0,5.48-.66,7.29-3.72C82.25,63,82.9,60,82,57.75a.5.5,0,0,0-.51-.29,1.35,1.35,0,0,1-1.19-.39,3,3,0,0,1-.46-2.24,6.83,6.83,0,0,1,.25-1.6,5,5,0,0,1,2.27-3c2.3-1.33,4.43-3.31,4.46-6.86,0-2.48-.89-5.35-2.81-6.86a.48.48,0,0,0-.59,0,1.39,1.39,0,0,1-1.23.26c-.74-.2-1.14-1-1.51-1.72a7.07,7.07,0,0,1-.59-1.51,4.93,4.93,0,0,1,.49-3.7c1.32-2.31,2.17-5.08.42-8.17-1.22-2.16-3.44-4.2-5.87-4.54a.5.5,0,0,0-.51.3,1.32,1.32,0,0,1-.92.83,2.94,2.94,0,0,1-2.18-.72,7.16,7.16,0,0,1-1.26-1,5,5,0,0,1-1.43-3.46c0-2.66-.66-5.48-3.72-7.28C63,4.56,60,3.9,57.75,4.82a.49.49,0,0,0-.29.51,1.35,1.35,0,0,1-.39,1.19A2.9,2.9,0,0,1,54.83,7a6.81,6.81,0,0,1-1.6-.24Zm-1.06,3.94A34,34,0,0,1,72.74,26.46a33.92,33.92,0,0,1,3.39,25.71,33.35,33.35,0,0,1-3.39,8.17A33.84,33.84,0,0,1,43.41,77.28a34.52,34.52,0,0,1-8.77-1.14,34.18,34.18,0,0,1-15.19-8.78,33.93,33.93,0,0,1-8.78-15.19,33.87,33.87,0,0,1,3.39-25.71,34.48,34.48,0,0,1,5.39-7,34,34,0,0,1,7-5.39,34.69,34.69,0,0,1,8.17-3.39,34,34,0,0,1,17.54,0Z"/>
        <g>
          <path class="cls-2" d="M68.85,59.43c-.23,0-.47.08-.7.13-1.38.29-3.06.79-4.58.95a54.37,54.37,0,0,1-12.43.26c-4.53-.44-7.06-.94-13.61-3.28-1.69-.6-3.12-.9-5-1.58a29.84,29.84,0,0,0-3.82-1,14.74,14.74,0,0,0-2.23-.15,27.61,27.61,0,0,0,3.33-2,18.11,18.11,0,0,0,3.87-3.16,19.81,19.81,0,0,0,1.53-1.77,1.45,1.45,0,0,0,.3-1.31,1.83,1.83,0,0,0-.88-.92,2.42,2.42,0,0,0-2,.08c-.68.33-.61.94-1.1,1.37a15.08,15.08,0,0,1-2.83,1c.56-.61,1-1,1.63-1.77a24.16,24.16,0,0,0,1.78-2.23c.63-.91,1.1-1.58.49-2.09,1.25-.61,3.34-1.57,4.63-2.06s2.18-.88,3.42-1.3l1.26-.45a27.38,27.38,0,0,0-4,6.5,17.41,17.41,0,0,0-1.46,8.85A2.49,2.49,0,0,0,37.6,55.1a1.26,1.26,0,0,0,1.3,0,2.31,2.31,0,0,0,.72-.85l.19.19a1,1,0,0,0,.76.19c.79-.14,1.56-.31,2.34-.44a.43.43,0,0,1,.37.2,14,14,0,0,0,1.4,2.19,2,2,0,0,0,1,.68.92.92,0,0,0,1-.48A6.46,6.46,0,0,0,47.47,54c.06-.64-.17-1.3-.16-1.93,0-.4,0-.81,0-1.21,0-.92,0-1.84.05-2.75a22.25,22.25,0,0,1,.35-3,2.37,2.37,0,0,0,0-1.49A4.22,4.22,0,0,0,47,42.54a5.66,5.66,0,0,0-1.27-1,2.07,2.07,0,0,0-2.34-.06,9.83,9.83,0,0,1-2,1.17c-.14.06-.53.26-.71.21a10.64,10.64,0,0,1,2.14-2.62,27,27,0,0,1,4.58-3.05c.88-.51,3.52-1,4.45-1.36a1.22,1.22,0,0,0,0-2.26c-.89-.42-2.35-.62-3.27-.94a2.7,2.7,0,0,0-2.4.12c-1.44,1.07-4.74,3.32-4.7,2.91s.57-2.28,1.56-2.85a21,21,0,0,0,3.19-3.22c.63-.68.53-.59.79-.87a3.94,3.94,0,0,0,.55-.62,25.72,25.72,0,0,0,2.24-1.85c.35-.29.06-1.26.11-1.45s-.62-.7-1.81-.76a3,3,0,0,0-2,.81,14.19,14.19,0,0,0-2,3.09A5.85,5.85,0,0,1,43,30.57c-.24.25-.32,1-.79.69a4.61,4.61,0,0,1,0-1.33c.11-.66,0-1.42.1-2.07a5.82,5.82,0,0,1,.11-1.45,2.43,2.43,0,0,0,0-1.6c-.13-.4-1.13-.82-1.54-1.11a8.31,8.31,0,0,0-1.22-.5c-.42-.13-1,.1-1.12,0s-.23,1-.23,1a3,3,0,0,1,1,1.92A21.65,21.65,0,0,1,39,30.4c-.22,1.49-.49,2.85-.81,4.19a9.46,9.46,0,0,1-.44,2.33c-.28.13-.47.51-.75.64-1.22.55-1.3.83-2.7,1.46-1.91.84-2.7,1.16-4.82,2.08-.05-.72-.22-4.14-.22-4.79,2.2-1.62,3.45-2.51,5.51-4.31a1,1,0,0,0,.24-.91c-.08-.36-.48-.66-.6-.91-.53-1.22-1-1.21-2-2a13.56,13.56,0,0,1-2-1.9,23.8,23.8,0,0,1-1.61-2,5.51,5.51,0,0,1,0-.77c0-.3,0-.52,0-.83,0-1.54.06-1.87.44-2.21s-.2-1-1.14-1.35a1.35,1.35,0,0,0-1.39.18,2.65,2.65,0,0,0-1.13,1.58,2.55,2.55,0,0,0,0,1.5A3,3,0,0,1,26,23.4c.08,1.08.18,1.52.26,2.6a55.06,55.06,0,0,1,.22,6,29.28,29.28,0,0,1-8,3.86A2.64,2.64,0,0,1,17,36l-.64-.13a1.74,1.74,0,0,1-.46-.13s-.07,0,0,0,.17.27.27.42c.69,1.07,1.17,1,2.21,1.6a11.62,11.62,0,0,0,3.17,1.49,5.85,5.85,0,0,0,3.71-.35c.43-.24,1.19-.8,1.62-1,.06.64.15,4,.13,4.51-.78.53-1.87,1.09-2.71,1.55-1.35.73-2.55,1.34-4,2a.73.73,0,0,1-1-.37,2.65,2.65,0,0,1,0-1.19,5,5,0,0,1,.1-.56c0-.06-.05-.08-.1,0a4.89,4.89,0,0,0-.39.4A5.92,5.92,0,0,0,17.78,46,.86.86,0,0,0,18.13,47a3.37,3.37,0,0,0,2.13.75c.56,0,1.26.13,1.82.14a2.24,2.24,0,0,0,1.54-.58c2-1.48,3.9-2.73,5.74-4a13.57,13.57,0,0,1-2.15,3.72,9.94,9.94,0,0,1-1.82,1.78,4.82,4.82,0,0,1-.84.45,2.75,2.75,0,0,0-.91.36.81.81,0,0,0-.29,1.09,3.4,3.4,0,0,0,.53.6c.39.35,1.08.52,1.38.24.54-.49,1.13-.48,1.79-.76.13-.06,1.45-.45,1.58-.49a8,8,0,0,1-2,1.83c-.31.22-1.11.8-1.43,1A12.18,12.18,0,0,1,23,54.39a4.93,4.93,0,0,1-1.62-.19,8.67,8.67,0,0,0-2-.31,1.18,1.18,0,0,0-1.23.86,3.27,3.27,0,0,0-.2,2.69c.29.5.4.89,1,1a1.91,1.91,0,0,0,1.37-.15,8,8,0,0,1,3.26-.93,9,9,0,0,1,2.37,0,23.08,23.08,0,0,1,3.42.6,19.92,19.92,0,0,1,2.63.91c.7.3,4.09,1.65,4.79,2,3.92,2,5.44,2.6,7.68,3.6,1.92.85,7.15,3,10.37,1.61S60.76,64.88,65.81,62a6,6,0,0,0,2.71-1.56L69,59.7C69.08,59.47,69.24,59.37,68.85,59.43ZM44.61,51.88a2.38,2.38,0,0,1-.12.69,5.14,5.14,0,0,0-1.08-.68,1,1,0,0,0-.67,0c-.37.11-.55.15-.82.24a14.16,14.16,0,0,1-1.61.45.88.88,0,0,1-.53,0,.4.4,0,0,0-.24,0,.81.81,0,0,1-.17-.31,5.06,5.06,0,0,1,0-1c0-.32,0-.64,0-1a3.93,3.93,0,0,1-.19-.77c0-.73.08-1.46.17-2.17l.15.25a2.9,2.9,0,0,0,1.44,1.17c.27.11.54.18.8.27s.59.09.61.33a.4.4,0,0,1-.16.34,1.19,1.19,0,0,1-.54.32c-.08,0-.07.07.06,0a4.55,4.55,0,0,0,.7-.19c.14,0,.24,0,.53-.12l.56-.17a3.66,3.66,0,0,0,.68,0,1.86,1.86,0,0,0,.54-.14A20.6,20.6,0,0,1,44.61,51.88Zm-3.68-8a3.68,3.68,0,0,0,1,.4,2.69,2.69,0,0,0,1.32-.07A3.41,3.41,0,0,1,44.33,44c.4,0,.57.27.57.64,0,1,0,2,0,3a4.51,4.51,0,0,0-.54-.35,6.51,6.51,0,0,0-2.49-.64,1.64,1.64,0,0,0-1.16.23,2.42,2.42,0,0,1-1,.43l-.3.05a12.57,12.57,0,0,1,.79-3.21,6.88,6.88,0,0,1,.32-.74A1.16,1.16,0,0,0,40.93,43.85ZM28.76,29.43c0-.69,0-2.68.06-3.37a19.52,19.52,0,0,0,1.55,2.73,1.8,1.8,0,0,1,.43,1,.67.67,0,0,1-.37.61A9.24,9.24,0,0,1,29,31C28.88,30.51,28.78,30,28.76,29.43Z"/>
          <path class="cls-2" d="M51.83,31.18a3.83,3.83,0,0,0,3,.91,8.36,8.36,0,0,0,3.27-1.34,20.08,20.08,0,0,1,0,2.45,1.57,1.57,0,0,1,0,.3,7.81,7.81,0,0,1-1.92-.4c-.26-.11-.52-.2-.77-.32-.09,0-.1,0,0,.08.19.21.38.39.57.58.4.42,1.16,1.09,1.58,1.48a9.46,9.46,0,0,0-1.33,2.18c-.73,1.49-1.32,2.92-1.92,4.5-.51,1.32-1,2.63-1.57,4a49.39,49.39,0,0,0-1.83,5.51,3.49,3.49,0,0,0-.28,1.22A3,3,0,0,0,51,53.92a6.87,6.87,0,0,1,.51.81.8.8,0,0,0,.33.56c.23.19,1.2.25,1.43-.41a27.85,27.85,0,0,0,.92-3.48,65.88,65.88,0,0,1,1.64-6.47,1.48,1.48,0,0,0,1.37.1,3.86,3.86,0,0,0,.86-.59s.11-.12.16-.12a.86.86,0,0,1,.14.13.8.8,0,0,1,.1.69,6,6,0,0,1-1.07,1.8A7.51,7.51,0,0,1,56.44,48a5.53,5.53,0,0,0-.9.91.58.58,0,0,0,.15.82,1.74,1.74,0,0,0,.67.13,2.09,2.09,0,0,1,.5.08L57,50a1.56,1.56,0,0,1,.72.9,1.41,1.41,0,0,1-.31,1,2.36,2.36,0,0,1-.71.53,8,8,0,0,0-.7.41s-.08.06,0,.05l.83-.16c.57-.1,1,.13,1.57,0a3.77,3.77,0,0,0,2.13-1.47,1.85,1.85,0,0,0-.32-1.84,3,3,0,0,0-1.5-.88,3.2,3.2,0,0,0-2,.29,15.4,15.4,0,0,0,2.89-2.73,4.16,4.16,0,0,0,.77-2.59,2.27,2.27,0,0,0-1.12-1.79c-.58-.28-1.24.17-1.68.49a6,6,0,0,1-1.31.68c.15-.47.31-1,.49-1.44a3.91,3.91,0,0,1,1-1.38,4.44,4.44,0,0,1,.8-.63,4.32,4.32,0,0,1,2-.7c.44,0,.5.69.5,1.06,0,2.28.11,4.57.12,6.85a67.41,67.41,0,0,1-.33,7.65,4.86,4.86,0,0,1-3,3.62,2.71,2.71,0,0,1-2.19-.07,2.07,2.07,0,0,1-1.16-1.11.37.37,0,0,0-.15-.17.46.46,0,0,1-.08-.29c0-.06-.09,0-.08,0s0,.24,0,.34A2.31,2.31,0,0,0,54,57a2.39,2.39,0,0,0,.39.8,4.11,4.11,0,0,0,3.17,1.53A5.32,5.32,0,0,0,61,58.64c1.1-.68,2.43-1.71,2.6-3.09a52.51,52.51,0,0,0,.53-5.6,67.2,67.2,0,0,0-.22-11.08A2.81,2.81,0,0,0,62,36.67a3.57,3.57,0,0,0-2.39,0,8,8,0,0,0-1.32.82,16.36,16.36,0,0,0-3,3.2,33.84,33.84,0,0,1,1.75-3.36,10.22,10.22,0,0,1,1.66-1.73c1.4,0,1.39-.95,1.44-1.69.77-1,1.74-2.09,2.55-3a37.89,37.89,0,0,0,3.13-3.55,6.54,6.54,0,0,0,.54-.93c.22-.54-.43-1.3-.79-1.58A3.84,3.84,0,0,0,64.11,24a1.33,1.33,0,0,0-1.19.23,1.79,1.79,0,0,0-.41.69c-.06.17-.11.37-.18.54A9,9,0,0,1,60,27.65c0-1.42,0-2.84.05-4.26a4.58,4.58,0,0,1,.26-1.68A1.65,1.65,0,0,0,60.24,20c-.15-.16-.35-.27-.51-.42s-.35-.53-.67-.76a11.54,11.54,0,0,1-1.26-1l-.39-.37s0,0,0,0a4.73,4.73,0,0,1,0,.52,2.93,2.93,0,0,0,.11.67A6.91,6.91,0,0,1,57.63,20a29.46,29.46,0,0,0,.27,3.51,21.75,21.75,0,0,1,.36,3.21c0,.59,0,1.18,0,1.77a5.44,5.44,0,0,1-2.83.74,6.06,6.06,0,0,1-2.27-.42,5.82,5.82,0,0,1-1.78-1.12,2.11,2.11,0,0,1-.69-1.08c-.09-.33-.17-.64-.25-1,0-.16-.12-.16-.14,0,0,.35-.07.65-.1,1a9.19,9.19,0,0,0,0,1.66A4.28,4.28,0,0,0,51.83,31.18Zm8.24-1.26a18.19,18.19,0,0,0,2.3-3.07c.1-.15.1-.07.07,0A12.55,12.55,0,0,1,60,32.09C60,31.68,60.06,30.34,60.07,29.92Z"/>
        </g>
      </g>
    </g>
  </g>
</svg>
