<?xml version="1.0" encoding="UTF-8"?>
<svg id="_圖層_2" data-name="圖層 2" xmlns="http://www.w3.org/2000/svg" width="352.14" height="87.8" viewBox="0 0 352.14 87.8">
  <defs>
    <style>
      .cls-1 {
        fill: #e8b356;
      }

      .cls-2 {
        fill: #ca954a;
      }

      .cls-3 {
        opacity: .2;
      }
    </style>
  </defs>
  <g id="_圖層_2-2" data-name="圖層 2">
    <g>
      <g class="cls-3">
        <g>
          <path class="cls-1" d="M0,31.11L19.72,.94h12.78l19.9,30.17h-12.64L22.71,4.1h6.85L12.64,31.11H0Zm10.3-4.57v-7.07h31.44v7.07H10.3Z"/>
          <path class="cls-1" d="M107.79,18.52c-.15,2.99-1.21,5.48-3.17,7.49-1.96,2.01-4.85,3.52-8.66,4.53-3.82,1.01-8.63,1.51-14.46,1.51-4.44,0-8.43-.24-11.95-.73-3.52-.49-6.53-1.32-9.01-2.5s-4.38-2.79-5.7-4.83c-1.32-2.04-1.98-4.62-1.98-7.73s.66-5.71,1.98-7.8c1.32-2.09,3.22-3.75,5.7-5,2.48-1.24,5.48-2.13,9.01-2.66,3.52-.53,7.51-.8,11.95-.8,5.82,0,10.65,.54,14.48,1.63,3.83,1.08,6.73,2.68,8.69,4.78,1.96,2.11,3.02,4.67,3.17,7.68h-11.95c-.37-1.01-1.04-1.89-2.02-2.66-.98-.77-2.45-1.37-4.41-1.81-1.96-.44-4.61-.66-7.95-.66-3.92,0-7.11,.24-9.56,.73-2.45,.49-4.24,1.27-5.38,2.33-1.13,1.07-1.7,2.48-1.7,4.24,0,1.6,.57,2.91,1.7,3.91,1.13,1.01,2.93,1.74,5.38,2.22,2.45,.47,5.64,.71,9.56,.71,3.34,0,5.98-.2,7.93-.61,1.95-.41,3.41-.97,4.39-1.67,.98-.71,1.65-1.47,2.02-2.29h11.95Z"/>
          <path class="cls-1" d="M111.05,.94h47.8V9.9h-47.8V.94Zm18.16,8.34h11.49V31.11h-11.49V9.29Z"/>
          <path class="cls-1" d="M164.14,.94h11.49V31.11h-11.49V.94Z"/>
          <path class="cls-1" d="M198.3,31.11L180.46,.94h12.96l15.21,28.99h-4.69L219.16,.94h12.78l-17.65,30.17h-16Z"/>
          <path class="cls-1" d="M236.77,.94h11.49V31.11h-11.49V.94Z"/>
          <path class="cls-1" d="M253.55,.94h47.8V9.9h-47.8V.94Zm18.16,8.34h11.49V31.11h-11.49V9.29Z"/>
          <path class="cls-1" d="M352.14,.94l-18.62,22.48v7.68h-11.49v-7.68L303.42,.94h13.56l15.12,19.56h-8.5L338.58,.94h13.56Z"/>
        </g>
      </g>
      <g class="cls-3">
        <g>
          <path class="cls-1" d="M34.77,77.84l19.72-30.17h12.78l19.9,30.17h-12.64l-17.05-27.01h6.85l-16.92,27.01h-12.64Zm10.3-4.57v-7.07h31.44v7.07h-31.44Z"/>
          <path class="cls-1" d="M102.34,47.68v21.21h26.8v8.96h-38.29v-30.17h11.49Z"/>
          <path class="cls-1" d="M134.19,77.84v-30.17h28.96c5.94,0,10.33,.6,13.15,1.79,2.82,1.19,4.23,3.27,4.23,6.22,0,1.89-.61,3.33-1.82,4.34-1.21,1.01-2.94,1.7-5.19,2.1-2.25,.39-4.96,.64-8.11,.73l.37-.38c2.3,0,4.43,.06,6.39,.19,1.96,.13,3.68,.41,5.15,.85,1.47,.44,2.62,1.12,3.45,2.03,.83,.91,1.24,2.17,1.24,3.77,0,1.95-.67,3.55-2.02,4.81-1.35,1.26-3.26,2.19-5.75,2.8-2.48,.61-5.41,.92-8.78,.92h-31.26Zm11.49-17.35h17.83c1.62,0,2.8-.16,3.52-.47,.72-.31,1.08-.82,1.08-1.51s-.36-1.23-1.08-1.53c-.72-.3-1.89-.45-3.52-.45h-17.83v3.96Zm0,8.48h19.77c1.62,0,2.8-.16,3.52-.47,.72-.31,1.08-.82,1.08-1.51,0-.47-.16-.85-.48-1.13-.32-.28-.82-.49-1.49-.64-.67-.14-1.55-.21-2.62-.21h-19.77v3.96Z"/>
          <path class="cls-1" d="M227.91,60.64v-12.96h11.49v15.08c0,2.67-.48,4.94-1.45,6.81-.97,1.87-2.31,3.41-4.02,4.62-1.72,1.21-3.69,2.14-5.93,2.8-2.24,.66-4.64,1.12-7.19,1.39-2.56,.27-5.16,.4-7.79,.4-2.79,0-5.49-.13-8.09-.4-2.6-.27-5.02-.73-7.24-1.39-2.22-.66-4.16-1.59-5.81-2.8-1.65-1.21-2.95-2.75-3.88-4.62-.94-1.87-1.4-4.14-1.4-6.81v-15.08h11.49v12.96c0,2.51,.6,4.43,1.79,5.75s2.9,2.22,5.13,2.71c2.22,.49,4.9,.73,8.02,.73s5.67-.24,7.91-.73c2.24-.49,3.96-1.39,5.17-2.71,1.21-1.32,1.82-3.24,1.82-5.75Z"/>
          <path class="cls-1" d="M282.34,74.26h-6.89l25.1-26.58h11.49v30.17h-11.49v-20.55l3.45,1.46-18.16,19.09h-13.79l-18.2-19.04,3.49-1.46v20.5h-11.49v-30.17h11.49l25.01,26.58Z"/>
        </g>
      </g>
    </g>
    <g>
      <path class="cls-2" d="M120.94,74.63c-1.18-.83-3.64-2.18-5.34-3.1l1.84-2.52c1.58,.77,4.13,2.01,5.39,2.78l-1.89,2.84Zm-4.93,10.33c1.52-2.15,3.73-5.71,5.45-9.04l2.5,2.29c-1.52,3.01-3.33,6.28-5.08,9.06l-2.87-2.32Zm6.17-18.16c-1.12-.86-3.56-2.21-5.22-3.16l1.92-2.47c1.61,.8,4.1,2.07,5.34,2.87l-2.04,2.75Zm12.71,5.59v3.61h5.85v11.45h-3.24v-1.03h-8.63v1.18h-3.07v-11.59h5.85v-3.61h-7.63v-3.27h7.63v-3.36c-1.89,.29-3.79,.49-5.59,.66-.11-.83-.57-2.15-.95-2.93,4.88-.49,10.24-1.43,13.4-2.7l2.64,2.7c-1.86,.72-3.99,1.26-6.25,1.69v3.93h7.29v3.27h-7.29Zm2.61,6.71h-8.63v4.22h8.63v-4.22Z"/>
      <path class="cls-2" d="M173.21,67.26s-.03,1.12-.03,1.52c-.26,11.73-.49,15.89-1.41,17.21-.66,.95-1.32,1.23-2.27,1.43-.86,.17-2.18,.14-3.56,.11-.06-.95-.43-2.32-1-3.27,1.26,.11,2.35,.14,2.9,.14,.43,0,.72-.11,.98-.49,.6-.77,.89-4.27,1.06-13.54h-2.58c-.37,7.69-1.69,13.6-6.51,17.41-.43-.69-1.26-1.64-2.01-2.27-4.13,.43-8.26,.86-11.36,1.12l-.4-2.87c1.61-.11,3.61-.26,5.82-.4v-1.72h-5.05v-2.41h5.05v-1.12h-4.93v-8.86h4.93v-1.12h-5.65v-2.47h5.65v-1.15c-1.66,.11-3.3,.2-4.85,.23-.11-.69-.43-1.75-.75-2.41,4.25-.23,9.21-.72,12.36-1.41l1.49,2.55c-1.52,.32-3.3,.57-5.16,.77v1.41h5.51v1.58h2.7c.03-1.89,.03-3.87,.03-6h3.27c0,2.09,0,4.1-.06,6h5.82Zm-22.6,5.42h2.24v-1.26h-2.24v1.26Zm2.24,3.33v-1.29h-2.24v1.29h2.24Zm3.1,7.11c1.64-.11,3.33-.26,4.99-.4,2.24-3.1,2.93-7.2,3.13-12.34h-2.61v-2.24h-5.51v1.12h5.08v8.86h-5.08v1.12h5.19v2.41h-5.19v1.46Zm2.24-10.44v-1.26h-2.24v1.26h2.24Zm-2.24,2.04v1.29h2.24v-1.29h-2.24Z"/>
      <path class="cls-2" d="M182.26,69.38c-.52,.46-1.03,.89-1.55,1.32-.55-.72-1.64-1.81-2.41-2.24,3.18-2.27,5.51-5.22,6.8-7.69l3.47,.66c-.43,.72-.89,1.43-1.38,2.15h4.42c-.26-.72-.57-1.43-.89-2.07l3.21-.89c.52,.89,1.03,2.01,1.38,2.95h8.15v2.61h-8.75v1.2h7.46v2.21h-7.46v1.15h7.49v2.21h-7.49v1.26h9.44v2.58h-18.5v.77h-3.39v-8.2Zm7.03,13.6c-2.04,1.64-5.54,3.16-8.55,3.84-.49-.77-1.43-1.98-2.12-2.61,2.93-.4,6.34-1.35,8.12-2.41l2.55,1.18Zm4.33-1.72v6.28h-3.39v-6.28h-11.13v-2.73h11.13v-1.46h3.39v1.46h11.25v2.73h-11.25Zm-2.18-15.06h-5.79v1.2h5.79v-1.2Zm0,3.41h-5.79v1.15h5.79v-1.15Zm0,3.36h-5.79v1.26h5.79v-1.26Zm5.19,8.58c2.52,.83,6.31,2.18,8.29,3.1l-2.09,2.24c-1.84-.89-5.54-2.38-8.18-3.36l1.98-1.98Z"/>
      <path class="cls-2" d="M218.23,61.49c-.14,.32-.29,.63-.46,.95,1.61,1,3.59,2.35,4.53,3.39l-1.75,2.07h.34v2.84h-3.04v2.09h3.7v2.9h-3.7v7.11l3.93-.6,.17,2.87c-3.73,.69-7.77,1.38-10.76,1.86l-.69-3.04c1.23-.17,2.75-.4,4.39-.66v-7.54h-3.84v-2.9h3.84v-2.09h-2.7v-.77c-.34,.32-.66,.6-1,.86-.17-.75-.83-2.58-1.29-3.39,2.18-1.64,4.27-4.19,5.51-6.88l2.81,.95Zm-5.05,15.32c.52,1.55,.98,3.59,1.12,4.91l-2.35,.66c-.09-1.38-.52-3.41-.98-4.99l2.21-.57Zm7.03-8.92c-.89-.95-2.35-2.15-3.76-3.13-.69,1.12-1.46,2.15-2.27,3.13h6.02Zm-1.78,13.43c.37-1.29,.8-3.36,.95-4.76l2.58,.63c-.55,1.66-1.06,3.53-1.49,4.73l-2.04-.6Zm18.1,1.12c0,1.29-.17,2.12-1.03,2.61-.8,.49-1.81,.55-3.21,.55-.09-.89-.49-2.12-.89-2.93,.75,.03,1.46,.03,1.75,.03,.23,0,.32-.09,.32-.34v-4.16h-2.55v9.38h-3.16v-9.38h-2.21v7.2h-3.07v-10.13h5.28v-1.64h-4.85v-10.1h4.3c.26-.95,.49-1.98,.6-2.78l3.7,.49c-.34,.8-.69,1.58-1.03,2.29h5.59v10.1h-5.16v1.64h5.62v7.17Zm-10.56-15.03h6.88v-1.41h-6.88v1.41Zm0,3.76h6.88v-1.46h-6.88v1.46Z"/>
    </g>
  </g>
</svg>