<svg xmlns="http://www.w3.org/2000/svg" width="1328.07" height="85.84" viewBox="0 0 1328.07 85.84">
  <defs>
    <style>
      .cls-1 {
        opacity: 0.2;
      }

      .cls-2 {
        fill: #e8b356;
      }

      .cls-3 {
        fill: #ca954a;
      }
    </style>
  </defs>
  <g id="圖層_2" data-name="圖層 2">
    <g id="圖層_2-2" data-name="圖層 2">
      <g class="cls-1">
        <g>
          <path class="cls-2" d="M0,62.53,40.64,1.9H67l41,60.63H82L46.8,8.24H60.92L26.05,62.53Zm21.22-9.19V39.13H86V53.34Z"/>
          <path class="cls-2" d="M222.17,37.23a22.24,22.24,0,0,1-6.54,15.07q-6.06,6.06-17.86,9.09t-29.8,3A187.49,187.49,0,0,1,143.34,63a65,65,0,0,1-18.57-5A27.39,27.39,0,0,1,113,48.22Q109,42.07,109,32.69T113,17A28.41,28.41,0,0,1,124.77,7a64,64,0,0,1,18.57-5.35A170.21,170.21,0,0,1,168,0q18,0,29.85,3.27t17.9,9.61a23.39,23.39,0,0,1,6.54,15.45H197.63A12.2,12.2,0,0,0,193.46,23q-3-2.31-9.1-3.64A79.58,79.58,0,0,0,168,18a107,107,0,0,0-19.7,1.47q-7.59,1.47-11.09,4.69a11.05,11.05,0,0,0-3.5,8.53,9.92,9.92,0,0,0,3.5,7.86q3.51,3,11.09,4.45A110.4,110.4,0,0,0,168,46.42a85.45,85.45,0,0,0,16.35-1.23,24.65,24.65,0,0,0,9.05-3.36,11.83,11.83,0,0,0,4.16-4.6Z"/>
          <path class="cls-2" d="M228.89,1.9h98.53v18H228.89Zm37.43,16.76H290V62.53H266.32Z"/>
          <path class="cls-2" d="M338.32,1.9H362V62.53H338.32Z"/>
          <path class="cls-2" d="M408.71,62.53,372,1.9h26.72L430,60.16h-9.67L451.72,1.9h26.34L441.68,62.53Z"/>
          <path class="cls-2" d="M488,1.9h23.68V62.53H488Z"/>
          <path class="cls-2" d="M522.59,1.9h98.53v18H522.59ZM560,18.66H583.7V62.53H560Z"/>
          <path class="cls-2" d="M725.8,1.9,687.43,47.09V62.53H663.75V47.09L625.38,1.9h28L684.5,41.21H667L697.86,1.9Z"/>
          <path class="cls-2" d="M756.59,62.53,797.24,1.9h26.34l41,60.63H838.55L803.4,8.24h14.11L782.65,62.53Zm21.23-9.19V39.13h64.8V53.34Z"/>
          <path class="cls-2" d="M895.86,1.9V44.53H951.1v18H872.18V1.9Z"/>
          <path class="cls-2" d="M961.52,62.53V1.9h59.68q18.39,0,27.1,3.6T1057,18q0,5.68-3.75,8.72t-10.7,4.21a122.81,122.81,0,0,1-16.72,1.47l.75-.76q7.11,0,13.17.38a49.14,49.14,0,0,1,10.61,1.71,15.29,15.29,0,0,1,7.11,4.07,10.72,10.72,0,0,1,2.56,7.58,12.46,12.46,0,0,1-4.17,9.66q-4.17,3.8-11.84,5.64a78.16,78.16,0,0,1-18.1,1.85ZM985.2,27.66H1022a20.12,20.12,0,0,0,7.25-.94,3.21,3.21,0,0,0,0-6.11,21,21,0,0,0-7.25-.9H985.2Zm0,17.06h40.74a20.07,20.07,0,0,0,7.25-.95,3.16,3.16,0,0,0,2.22-3,2.86,2.86,0,0,0-1-2.28,6.88,6.88,0,0,0-3.08-1.27,27.35,27.35,0,0,0-5.4-.43H985.2Z"/>
          <path class="cls-2" d="M1154.69,28V1.9h23.69V32.21a28.91,28.91,0,0,1-3,13.69,25.69,25.69,0,0,1-8.29,9.29,41.57,41.57,0,0,1-12.22,5.63,84.48,84.48,0,0,1-14.82,2.8,160.65,160.65,0,0,1-16.06.8q-8.62,0-16.68-.8a83.39,83.39,0,0,1-14.92-2.8,39.12,39.12,0,0,1-12-5.63,25.58,25.58,0,0,1-8-9.29,29.66,29.66,0,0,1-2.89-13.69V1.9h23.69V28q0,7.57,3.69,11.56T1107.46,45A80.2,80.2,0,0,0,1124,46.42,79.19,79.19,0,0,0,1140.29,45q6.92-1.46,10.66-5.44T1154.69,28Z"/>
          <path class="cls-2" d="M1266.86,55.33h-14.21L1304.38,1.9h23.69V62.53h-23.69V21.22l7.11,2.94-37.42,38.37h-28.43l-37.51-38.28,7.2-2.93V62.53h-23.69V1.9h23.69Z"/>
        </g>
      </g>
      <g>
        <path class="cls-3" d="M556.76,62.43c-2.09-1.48-6.48-3.88-9.49-5.51l3.27-4.49c2.8,1.38,7.34,3.57,9.58,5ZM548,80.79a151.45,151.45,0,0,0,9.69-16.07l4.43,4.08c-2.7,5.36-5.91,11.17-9,16.12Zm11-32.28a104.61,104.61,0,0,0-9.28-5.61l3.42-4.39c2.85,1.43,7.29,3.67,9.48,5.1Zm22.59,9.94v6.43h10.4V85.22h-5.76V83.39H570.83v2.09h-5.45V64.88h10.4V58.45H562.21V52.64h13.57v-6c-3.37.51-6.73.87-9.95,1.18a21.41,21.41,0,0,0-1.68-5.21c8.67-.86,18.21-2.55,23.82-4.79l4.69,4.79a64.4,64.4,0,0,1-11.12,3v7h13v5.81Zm4.64,11.93H570.83v7.5h15.35Z"/>
        <path class="cls-3" d="M653.76,49.32s-.06,2-.06,2.71c-.45,20.85-.86,28.25-2.49,30.59a5.67,5.67,0,0,1-4,2.55,33.94,33.94,0,0,1-6.33.21,14.18,14.18,0,0,0-1.78-5.82c2.24.21,4.18.26,5.15.26A1.84,1.84,0,0,0,646,79c1.07-1.37,1.58-7.6,1.89-24.07h-4.59c-.66,13.67-3,24.17-11.58,31a19.63,19.63,0,0,0-3.56-4c-7.35.76-14.69,1.53-20.2,2l-.71-5.1c2.85-.21,6.42-.46,10.35-.72V74.92h-9V70.64h9v-2h-8.77V52.89h8.77v-2h-10V46.52h10v-2c-3,.2-5.86.36-8.62.41a18.78,18.78,0,0,0-1.32-4.29,157.48,157.48,0,0,0,22-2.49l2.66,4.53c-2.71.57-5.87,1-9.18,1.38v2.5h9.79v2.8h4.79c.05-3.36.05-6.88.05-10.65h5.82c0,3.72,0,7.29-.11,10.65ZM613.57,59h4V56.72h-4Zm4,5.92v-2.3h-4v2.3Zm5.51,12.64c2.9-.2,5.91-.45,8.87-.71,4-5.51,5.2-12.8,5.56-21.93h-4.64v-4h-9.79v2h9V68.65h-9v2h9.23v4.28h-9.23ZM627,59V56.72h-4V59Zm-4,3.62v2.3h4v-2.3Z"/>
        <path class="cls-3" d="M673.9,53.1c-.91.81-1.83,1.58-2.75,2.34a17.71,17.71,0,0,0-4.28-4A40.5,40.5,0,0,0,679,37.8L685.12,39c-.76,1.28-1.58,2.55-2.44,3.83h7.85A35.41,35.41,0,0,0,689,39.12l5.71-1.58a34.34,34.34,0,0,1,2.45,5.26h14.48v4.64H696v2.14H709.3v3.93H696v2h13.31v3.92H696v2.25h16.77v4.59H679.92v1.37h-6Zm12.5,24.17c-3.62,2.91-9.84,5.61-15.2,6.83a27.34,27.34,0,0,0-3.77-4.64c5.2-.71,11.27-2.39,14.43-4.28Zm7.7-3.06V85.38h-6V74.21H668.3V69.37h19.78V66.76h6v2.61h20v4.84Zm-3.88-26.77h-10.3v2.14h10.3Zm0,6.07h-10.3v2h10.3Zm0,6h-10.3v2.25h10.3Zm9.23,15.25c4.49,1.48,11.22,3.88,14.74,5.51l-3.72,4c-3.27-1.58-9.84-4.23-14.54-6Z"/>
        <path class="cls-3" d="M741.94,39.07c-.26.57-.51,1.13-.82,1.69a45.13,45.13,0,0,1,8.06,6l-3.11,3.68h.61v5h-5.4v3.73h6.57v5.15h-6.57V77l7-1.07.31,5.1c-6.63,1.23-13.82,2.45-19.13,3.32L728.22,79c2.19-.3,4.9-.71,7.8-1.17V64.37h-6.83V59.22H736V55.49h-4.79V54.12a22.41,22.41,0,0,1-1.79,1.53,30.75,30.75,0,0,0-2.29-6,33.29,33.29,0,0,0,9.79-12.24Zm-9,27.24A47.27,47.27,0,0,1,735,75l-4.18,1.17A46.91,46.91,0,0,0,729,67.33Zm12.5-15.86a45.06,45.06,0,0,0-6.68-5.56,51,51,0,0,1-4,5.56ZM742.3,74.31A57.31,57.31,0,0,0,744,65.85L748.57,67c-1,3-1.89,6.27-2.65,8.41Zm32.17,2c0,2.3-.3,3.77-1.83,4.64s-3.22,1-5.71,1a17.12,17.12,0,0,0-1.59-5.2c1.33.05,2.61.05,3.12.05s.56-.15.56-.61v-7.4h-4.54V85.43h-5.61V68.75h-3.93v12.8h-5.45v-18h9.38v-2.9h-8.62v-18h7.65A42.28,42.28,0,0,0,759,37.75l6.58.87c-.61,1.42-1.23,2.8-1.84,4.07h9.95v18h-9.18v2.9h10ZM755.71,49.58H768v-2.5H755.71Zm0,6.68H768v-2.6H755.71Z"/>
      </g>
    </g>
  </g>
</svg>
