<svg height="41.82" viewBox="0 0 134.25 41.82" width="134.25" xmlns="http://www.w3.org/2000/svg"><path d="m116.08 41.82 18.17-16.39a6.4 6.4 0 0 1 0-9l-18.17-16.43h-97.91l-18.17 16.39a6.4 6.4 0 0 1 0 9l18.17 16.43z" fill="#e8b356"/><g fill="#fff"><path d="m46 26v1.33h-13.72v-1.33h2.07v-8.93h3.54c.06-.33.12-.69.17-1.07h-5.37v-1.28h5.52c.06-.44.09-.89.12-1.27l1.57.15-.2 1.12h5.87v1.28h-6.1c-.06.38-.14.72-.21 1.07h4.74v8.93zm-10.28-7.73v1.1h6.84v-1.1zm6.84 2.19h-6.84v1.05h6.84zm-6.84 3.27h6.84v-1.13h-6.84zm0 2.25h6.84v-1.15h-6.84z"/><path d="m54.72 21.49c-.48.18-1 .33-1.5.49v4.17c0 .74-.15 1.12-.55 1.35a4.16 4.16 0 0 1 -1.94.27 5.71 5.71 0 0 0 -.4-1.35h1.32s.26-.07.26-.29v-3.73l-1.67.6-.32-1.41 2-.56v-3.16h-1.8v-1.35h1.79v-3h1.31v3h1.52v1.35h-1.52v2.72l1.31-.41zm7.74 1.16a6.94 6.94 0 0 1 -1.46 2.61 25.69 25.69 0 0 1 2.78 1.47l-1 1.07a21.58 21.58 0 0 0 -2.89-1.61 11.8 11.8 0 0 1 -4.56 1.62 4 4 0 0 0 -.62-1.22 11.55 11.55 0 0 0 3.72-1.06c-1-.44-1.93-.81-2.83-1.13a18.29 18.29 0 0 0 1.17-1.75h-1.91v-1.23h2.66a15.53 15.53 0 0 0 .71-1.52l1.34.28c-.18.39-.38.83-.61 1.24h2.39c.06-.3.12-.6.18-.93l1.37.24c0 .23-.08.45-.12.69h1.27v1.23zm1.38-2.81h-8.84v-1.24h2.42a9.11 9.11 0 0 0 -1-1.89l1.17-.44a8.63 8.63 0 0 1 1 1.86l-1.16.47h2.54a14.93 14.93 0 0 0 1-2.28l1.34.37c-.34.66-.69 1.35-1 1.91h2.4zm-.29-3.6h-8.14v-1.24h3.51a9.64 9.64 0 0 0 -.58-1.31l1.55-.28a12.05 12.05 0 0 1 .74 1.59h2.92zm-5.27 6.41c-.23.42-.49.83-.73 1.21.67.23 1.38.51 2.1.81a5.58 5.58 0 0 0 1.32-2z"/><path d="m72.15 23.56h2.58v1.23h-2.58v3h-1.31v-3h-2.72v-1.23h2.72v-1.5h-2.4v-1.24h1.28a7.73 7.73 0 0 0 -.66-1.73l1-.3h-1.94v-1.24h2.72v-1.34h-2.28v-1.21h2.28v-1.48h1.31v1.48h2.2v1.22h-2.2v1.34h2.57v1.24h-1.67l1 .26c-.29.58-.6 1.24-.89 1.77h1.29v1.24h-2.3zm-2-4.77a7.16 7.16 0 0 1 .71 1.78l-.73.25h1.8a16.74 16.74 0 0 0 .89-2zm11.46.94a15.08 15.08 0 0 1 -1.74 5 7.93 7.93 0 0 0 2.27 1.84 4.83 4.83 0 0 0 -.94 1.16 7.87 7.87 0 0 1 -2.1-1.83 8.37 8.37 0 0 1 -2 1.95 4.25 4.25 0 0 0 -.58-.67v.63h-1.3v-13.64h6v3c0 .67-.13 1.05-.65 1.24a6.9 6.9 0 0 1 -2.42.22 4.79 4.79 0 0 0 -.42-1.26h1.88s.3-.06.3-.24v-1.67h-3.4v4h4l.24-.06zm-5.08 6.88a8.42 8.42 0 0 0 1.76-1.86 15.93 15.93 0 0 1 -1.76-4zm1.16-6a12.88 12.88 0 0 0 1.31 2.93 11.28 11.28 0 0 0 1.07-2.91z"/><path d="m98.22 27.81h-1.46v-.75h-6.26v.75h-1.41v-5c-.79.27-1.6.5-2.39.71a5.85 5.85 0 0 0 -.7-1.34 20.71 20.71 0 0 0 5.52-2 27.21 27.21 0 0 0 -2.66-2.3 16.71 16.71 0 0 1 -1.57.94 4.51 4.51 0 0 0 -1-1.16 11.74 11.74 0 0 0 5-4.27l1.61.34a15.55 15.55 0 0 1 -.9 1.27h5l.23-.07 1 .59a13.5 13.5 0 0 1 -5.45 5.61h5.51zm-7.44-11.48c-.28.25-.55.49-.83.72a29.78 29.78 0 0 1 2.85 2.35 11.86 11.86 0 0 0 3.2-3.07zm6 9.4v-3.28h-6.28v3.28z"/></g></svg>