<svg height="41.82" viewBox="0 0 134.25 41.82" width="134.25" xmlns="http://www.w3.org/2000/svg"><path d="m116.08 41.82 18.17-16.39a6.4 6.4 0 0 1 0-9l-18.17-16.43h-97.91l-18.17 16.39a6.4 6.4 0 0 1 0 9l18.17 16.43z" fill="#ec6531"/><g fill="#fff"><path d="m31.26 16.27s0 .52 0 .72c-.27 6.68-.5 9-1 9.76a1.5 1.5 0 0 1 -1.08.69 10 10 0 0 1 -1.69 0 4 4 0 0 0 -.49-1.44c.59.05 1.12.07 1.4.07a.59.59 0 0 0 .53-.29c.38-.47.64-2.53.85-8.07h-1.78c-.19 3.91-.73 7.68-2.59 10.11a4.62 4.62 0 0 0 -1.12-1c1.7-2.12 2.17-5.53 2.31-9.07h-2v-1.48h2c0-.92 0-1.86 0-2.75h1.4v2.75zm6.34-.94v12.11h-1.46v-1h-2.54v1.12h-1.4v-12.23zm-1.46 9.67v-8.3h-2.54v8.3z"/><path d="m50.13 14.38c0 2.83.35 8.63 6.14 12.15a7.12 7.12 0 0 0 -1.14 1.24 13.28 13.28 0 0 1 -5.82-8.21 13.84 13.84 0 0 1 -5.84 8.24 10.7 10.7 0 0 0 -1.3-1.18c3.26-1.73 5.1-4.81 6-9l.78.14a16.92 16.92 0 0 1 -.2-1.86h-3.64v-1.52z"/><path d="m73.77 15.86a19.49 19.49 0 0 1 -2 1.61 10.26 10.26 0 0 0 2.4 1 6.9 6.9 0 0 0 -.85 1.14 9.51 9.51 0 0 1 -2-.87v1.76c0 .36.05.47.26.47h.94a3.51 3.51 0 0 0 .75-.06 8.78 8.78 0 0 0 .09 1 3 3 0 0 1 -.81.07h-1.1c-1.07 0-1.28-.43-1.28-1.51v-1.23h-1.75v.06a3.42 3.42 0 0 1 -1.64 3.12 5.25 5.25 0 0 0 -.85-.85v.25h-3.1c-.06.46-.12.93-.2 1.35h3.37s0 .37 0 .56c-.18 2.14-.35 3.08-.73 3.49a1.45 1.45 0 0 1 -1.08.42 16.29 16.29 0 0 1 -2 0 2.88 2.88 0 0 0 -.43-1.23c.81.07 1.6.09 1.9.09a.75.75 0 0 0 .55-.14c.2-.19.35-.78.47-2.1h-3.42c.2-1 .43-2.39.55-3.55h2.86v-1.41h-2.36v-.21a13.93 13.93 0 0 1 -1.56.68 5.83 5.83 0 0 0 -.75-1.08 10.48 10.48 0 0 0 2.78-1.34 12.56 12.56 0 0 0 -1.57-1.17l.81-.79a13 13 0 0 1 1.71 1.21 6.93 6.93 0 0 0 1.2-1.36h-3.29v-1.16h4l.26-.08.89.44a9 9 0 0 1 -3 3.69h2.14v3.3a2.27 2.27 0 0 0 1.29-2.19v-1.14h3.16a10.38 10.38 0 0 1 -3.38-4.22l1.12-.35a9.89 9.89 0 0 0 1 1.69 12.35 12.35 0 0 0 1.72-1.64l1 .75a18.72 18.72 0 0 1 -2 1.67 8.78 8.78 0 0 0 1 .85 18.12 18.12 0 0 0 1.9-1.72zm-1.11 7a7 7 0 0 1 -1.82 2.82c.74.45 1.43.89 1.91 1.24l-.73.95c-.53-.41-1.29-.91-2.14-1.44a10.6 10.6 0 0 1 -3.42 1.42 4.2 4.2 0 0 0 -.62-1.06 9.45 9.45 0 0 0 2.93-1.05c-.77-.48-1.56-.95-2.26-1.36l.63-.75h-.53v-1h5 .21zm-5.36.77c.76.42 1.64.91 2.49 1.42a6.55 6.55 0 0 0 1.21-1.43z"/><path d="m81.16 24.5a9.81 9.81 0 0 1 -2.06 3.34c-.26-.23-.82-.65-1.13-.86a6.76 6.76 0 0 0 1.84-2.83zm3.09-.6h-5.43v-9.84h5.43zm-1.38-8.65h-2.71v1.75h2.71zm0 2.85h-2.71v1.75h2.71zm0 2.85h-2.71v1.78h2.71zm.19 3.19a12 12 0 0 1 1.65 2.48l-1.2.65a13.37 13.37 0 0 0 -1.6-2.6zm9-5.65h-1.81v7.6c0 .78-.18 1.21-.63 1.46a6 6 0 0 1 -2.32.28 5 5 0 0 0 -.5-1.42h1.72s.34-.08.34-.33v-5.73a15.19 15.19 0 0 1 -3.61 5 5.65 5.65 0 0 0 -1-1.05 14 14 0 0 0 4.06-5.82h-3.63v-1.35h4.18v-3.61h1.39v3.61h1.81z"/><path d="m109.82 25.64h-6.15v2.22h-1.46v-2.22h-6v-1.31h6v-1.08h-4.46v-6.14h4.46v-1h-5.56v-1.29h5.56v-1.35h1.46v1.35h5.65v1.32h-5.65v1h4.56v6.14h-4.56v1.08h6.15zm-10.7-6h3.09v-1.3h-3.09zm3.09 2.44v-1.35h-3.09v1.33zm1.46-3.74v1.3h3.14v-1.3zm3.14 2.41h-3.14v1.33h3.14z"/></g></svg>