<?xml version="1.0" encoding="UTF-8"?>
<svg id="_圖層_2" data-name="圖層 2" xmlns="http://www.w3.org/2000/svg" width="371.2" height="41.05" viewBox="0 0 371.2 41.05">
  <defs>
    <style>
      .cls-1 {
        fill: #e8b356;
      }

      .cls-2 {
        opacity: .2;
      }
    </style>
  </defs>
  <g id="_圖層_2-2" data-name="圖層 2">
    <g>
      <g class="cls-2">
        <g>
          <path class="cls-1" d="M23.03,16.97h-4.35L34.52,.61h7.25V19.17h-7.25V6.53l2.18,.9-11.46,11.75h-8.7L5.05,7.46l2.2-.9v12.62H0V.61H7.25l15.78,16.36Z"/>
          <path class="cls-1" d="M53.09,11.34v2.32h22.05v5.51h-29.3V.61h29.24V6.12h-21.99v2.32h17.99v2.9h-17.99Z"/>
          <path class="cls-1" d="M78.9,19.17V.61h22.42c1.76,0,3.34,.2,4.74,.59,1.4,.4,2.51,1.06,3.34,1.99,.82,.93,1.23,2.2,1.23,3.8,0,1.06-.19,1.94-.58,2.64-.39,.7-.92,1.24-1.6,1.62-.68,.39-1.45,.67-2.32,.84-.87,.17-1.78,.28-2.73,.32l-2.12-.41c2.3,.02,4.08,.12,5.32,.29,1.25,.17,2.12,.49,2.61,.94,.49,.46,.74,1.11,.74,1.96v3.97h-7.25v-3.1c0-.58-.11-1.02-.33-1.32-.22-.3-.71-.51-1.45-.62-.74-.12-1.89-.17-3.44-.17h-11.34v5.22h-7.25Zm7.25-10.07h15.17c.58,0,1.07-.1,1.47-.29,.4-.19,.59-.56,.59-1.1,0-.5-.2-.85-.59-1.03-.4-.18-.88-.28-1.47-.28h-15.17v2.7Z"/>
          <path class="cls-1" d="M149.02,11.43c-.1,1.84-.76,3.38-2,4.61-1.24,1.24-3.06,2.17-5.47,2.79-2.41,.62-5.45,.93-9.12,.93-2.8,0-5.32-.15-7.54-.45-2.22-.3-4.12-.81-5.69-1.54-1.57-.72-2.77-1.72-3.6-2.97-.83-1.26-1.25-2.84-1.25-4.76s.42-3.51,1.25-4.8,2.03-2.31,3.6-3.08,3.46-1.31,5.69-1.64c2.22-.33,4.74-.49,7.54-.49,3.67,0,6.72,.33,9.14,1,2.42,.67,4.24,1.65,5.48,2.94,1.24,1.3,1.9,2.87,2,4.73h-7.54c-.23-.62-.66-1.16-1.28-1.64-.62-.47-1.55-.85-2.79-1.12-1.24-.27-2.91-.41-5.02-.41-2.48,0-4.49,.15-6.03,.45-1.55,.3-2.68,.78-3.39,1.44-.72,.66-1.07,1.53-1.07,2.61,0,.99,.36,1.79,1.07,2.41,.72,.62,1.85,1.07,3.39,1.36,1.55,.29,3.56,.43,6.03,.43,2.11,0,3.78-.12,5-.38,1.23-.25,2.15-.59,2.77-1.03,.62-.43,1.04-.9,1.28-1.41h7.54Z"/>
          <path class="cls-1" d="M152.82,.61h7.25V19.17h-7.25V.61Zm6.21,6.41h20.42v5.51h-20.42V7.02ZM178.64,.61h7.25V19.17h-7.25V.61Z"/>
          <path class="cls-1" d="M188.21,19.17L200.65,.61h8.06l12.56,18.57h-7.98l-10.76-16.62h4.32l-10.68,16.62h-7.98Zm6.5-2.81v-4.35h19.84v4.35h-19.84Z"/>
          <path class="cls-1" d="M252.7,13.49l-2.7,1.54V.61h7.25V19.17h-7.25l-21.84-12.65,2.7-1.57v14.21h-7.25V.61h7.25l21.84,12.88Z"/>
          <path class="cls-1" d="M282.2,.61c2.61,0,4.77,.25,6.47,.75,1.7,.5,3.04,1.19,4,2.06,.97,.87,1.65,1.86,2.04,2.97s.59,2.28,.59,3.5-.22,2.38-.67,3.5c-.45,1.11-1.17,2.1-2.19,2.97-1.02,.87-2.36,1.56-4.03,2.06s-3.75,.75-6.22,.75h-20.89V.61h20.89Zm-13.63,12.76h13.34c1.08,0,2-.07,2.76-.22,.75-.14,1.36-.36,1.81-.65,.45-.29,.78-.65,.99-1.09,.2-.44,.3-.94,.3-1.52s-.1-1.09-.3-1.52c-.2-.44-.53-.8-.99-1.09-.45-.29-1.06-.51-1.81-.65-.75-.14-1.67-.22-2.76-.22h-13.34v6.96Z"/>
          <path class="cls-1" d="M299.52,.61h7.25V19.17h-7.25V.61Z"/>
          <path class="cls-1" d="M310.25,12.36h7.92c.13,.41,.53,.75,1.19,1.03,.66,.28,1.54,.49,2.65,.64,1.11,.15,2.4,.22,3.87,.22s2.6-.04,3.44-.13c.84-.09,1.44-.24,1.78-.46,.35-.22,.52-.53,.52-.91,0-.37-.28-.65-.84-.86s-1.56-.34-2.99-.42c-1.43-.08-3.44-.12-6.03-.12-1.93,0-3.6-.09-5-.28-1.4-.18-2.55-.47-3.45-.87-.9-.4-1.56-.9-1.99-1.51-.43-.61-.64-1.34-.64-2.19,0-1.47,.5-2.68,1.49-3.64,1-.96,2.5-1.67,4.53-2.15,2.02-.47,4.55-.71,7.59-.71,4.45,0,7.85,.64,10.2,1.93s3.52,3.14,3.52,5.56h-7.51c-.1-.64-.7-1.13-1.8-1.46-1.1-.34-2.67-.51-4.7-.51s-3.51,.12-4.48,.35c-.98,.23-1.46,.63-1.46,1.19,0,.29,.14,.52,.41,.7,.27,.17,.74,.31,1.41,.42,.67,.11,1.61,.18,2.83,.22,1.22,.04,2.77,.06,4.64,.06,2.07,0,3.83,.1,5.28,.3s2.63,.51,3.52,.91c.9,.41,1.55,.92,1.96,1.55,.41,.63,.61,1.37,.61,2.22,0,1.47-.46,2.67-1.39,3.6s-2.4,1.62-4.41,2.06c-2.01,.44-4.64,.67-7.89,.67-1.84,0-3.52-.11-5.06-.32-1.54-.21-2.91-.53-4.1-.94-1.2-.42-2.21-.93-3.05-1.54-.83-.61-1.47-1.3-1.9-2.06-.44-.76-.65-1.61-.65-2.54Z"/>
          <path class="cls-1" d="M349.15,11.34v2.32h22.05v5.51h-29.3V.61h29.24V6.12h-21.99v2.32h17.99v2.9h-17.99Z"/>
        </g>
      </g>
      <g>
        <path class="cls-1" d="M75.38,24.79v2.75h-26.11v-2.75h4.27c-.32-1.15-1.03-2.67-1.75-3.82l2.24-.83h-3.24v-2.75h4.96c-.4-.75-.95-1.61-1.46-2.27l3.01-1.09c.8,.86,1.61,2.01,1.95,2.84l-1.23,.52h7.03c.69-1,1.46-2.35,1.92-3.36l3.36,.98c-.49,.86-1,1.66-1.52,2.38h5.16v2.75h-3.73l2.41,.66c-.72,1.46-1.46,2.93-2.09,3.99h4.82Zm-22.55,4.02h19.02v11.99h-3.5v-.75h-12.19v.86h-3.33v-12.11Zm1.86-8.66c.83,1.15,1.55,2.67,1.84,3.7l-2.29,.95h3.61v-4.65h-3.16Zm1.46,11.25v1.75h12.19v-1.75h-12.19Zm12.19,6.02v-1.78h-12.19v1.78h12.19Zm-4.99-17.27h-2.32v4.65h2.32v-4.65Zm4.45,3.99c.57-1.09,1.26-2.78,1.66-3.99h-2.87v4.65h3.41l-2.21-.66Z"/>
        <path class="cls-1" d="M93.05,24.18c0,4.82-.37,11.99-2.75,16.67-.69-.49-2.24-1.21-3.13-1.46,2.29-4.42,2.5-10.82,2.5-15.18v-7.63h10.7c-.2-.66-.43-1.35-.69-1.89l3.47-.77c.4,.8,.8,1.78,1.09,2.67h9.47v3.18h-20.65v4.42Zm18.96,7.4c-1.21,2.24-2.93,3.96-5.05,5.31,2.18,.52,4.59,.83,7.2,1.03-.66,.72-1.52,2.09-1.95,2.96-3.5-.34-6.6-1-9.29-2.09-2.73,.97-5.82,1.58-9.07,1.92-.26-.8-.89-2.09-1.41-2.84,2.38-.2,4.68-.49,6.77-1-1.32-.89-2.5-1.95-3.47-3.13l1.15-.46h-3.04v-2.67h15.43l.6-.12,2.12,1.09Zm-14.52-2.12v-4.48h-3.87v-2.67h3.87v-1.89h3.21v1.89h5.22v-1.89h3.39v1.89h4.13v2.67h-4.13v4.48h-11.82Zm1.81,3.82c1,.92,2.29,1.69,3.79,2.32,1.46-.63,2.73-1.38,3.79-2.32h-7.57Zm1.41-8.29v1.89h5.22v-1.89h-5.22Z"/>
        <path class="cls-1" d="M129.32,13.97h9.5v3.1h-6.11v15.23h-3.39V13.97Z"/>
        <path class="cls-1" d="M155.03,20.14c-1.09,1.21-2.21,2.32-3.36,3.18-.37-.63-1.35-2.12-1.95-2.75,2.35-1.61,4.62-4.13,5.94-6.8l2.95,.97c-.37,.8-.83,1.58-1.35,2.38h18.04v3.01h-20.28Zm-4.76,19.54c1.03-1.35,2.41-3.64,3.21-5.59l3.3,.86c-.8,2.01-2.12,4.5-3.18,6.08l-3.33-1.35Zm22.4-12.85v3.64h3.44v3.04h-25.59v-3.04h3.93v-3.64h-3.07v-3.04h3.07v-2.58h3.04v2.58h1.95v-2.58h2.84v2.58h2.24v-2.58h2.84v2.58h2.15v-2.58h3.16v2.58h2.81v3.04h-2.81Zm-15.17,3.64h1.95v-3.64h-1.95v3.64Zm4.02,4.42c.37,1.72,.69,3.99,.72,5.36l-3.36,.49c0-1.38-.2-3.73-.54-5.51l3.18-.34Zm.77-8.06v3.64h2.24v-3.64h-2.24Zm5.08,7.83c.72,1.66,1.43,3.87,1.69,5.31l-3.41,.66c-.17-1.38-.83-3.67-1.49-5.45l3.21-.52Zm2.15-7.83h-2.15v3.64h2.15v-3.64Zm3.59,7.03c1.2,1.72,2.67,4.1,3.36,5.65l-3.36,1.46c-.57-1.49-1.95-3.99-3.13-5.85l3.13-1.26Z"/>
        <path class="cls-1" d="M214.65,36.66v3.36h-25.67v-3.36h10.9v-5.54h-8.18v-3.3h8.18v-4.96h-9.7v-3.33h11.47c-1.2-1.18-2.93-2.5-4.3-3.5l2.81-1.95c1.84,1.18,4.3,3.01,5.51,4.33l-1.52,1.12h9.09v3.33h-9.61v4.96h8.23v3.3h-8.23v5.54h11.02Z"/>
        <path class="cls-1" d="M236.97,29.15c-1.15,.37-2.29,.75-3.44,1.09v6.68c0,1.55-.26,2.44-1.21,3.01-.92,.54-2.18,.63-3.93,.63-.11-.95-.54-2.35-.97-3.3,1.06,.06,2.07,.03,2.41,.03s.46-.09,.46-.4v-5.71c-1.03,.32-1.98,.6-2.87,.86l-.75-3.3c1.03-.23,2.24-.54,3.61-.86v-5.59c.86-.92,1.75-2.15,2.52-3.41h-5.31v-3.16h7.4l.63-.2,2.24,1.55c-1.12,2.04-2.67,4.33-4.25,6.08v3.84l3.07-.83,.37,2.98Zm3.93-7.57c0,5.19-.54,13.63-3.76,19.08-.54-.57-1.84-1.58-2.52-1.84,3.01-5.13,3.3-12.42,3.3-17.24v-5.25c4.59-.52,9.67-1.38,12.85-2.41l2.35,2.7c-3.47,1.03-8.03,1.78-12.22,2.24v2.73Zm6.71,10.01c.89,2.52,1.72,5.77,2.07,7.95l-2.41,.72c-.09-.6-.17-1.26-.32-1.98-3.64,1.09-4.45,1.43-4.91,1.78-.37-.63-1.52-1.89-2.09-2.35,3.13-3.93,3.24-9.7,3.24-13.77v-3.58h2.87v3.67c0,2.27-.06,5.25-.69,8.23l2.24-.66Zm-1.26,4.04c-.32-1.18-.63-2.32-.98-3.38-.26,1.32-.66,2.64-1.15,3.9l2.12-.52Zm4.68-16.04c.29,7.23,.92,14.75,2.87,18.7-.8,.57-1.89,1.69-2.44,2.55-2.21-4.79-2.84-12.71-3.16-21l2.72-.26Z"/>
        <path class="cls-1" d="M274.13,36.4c-.14-.6-.32-1.29-.52-2.04-5.71,1.29-6.74,1.66-7.4,2.04-.17-.6-.66-2.07-1.03-2.9,.52-.12,.92-.72,1.38-1.69,.34-.72,1.23-3.07,1.86-5.65h-3.18v-3.01h10.61v3.01h-4.25c-.57,2.07-1.41,4.3-2.32,6.22l3.41-.66c-.37-1.09-.8-2.18-1.21-3.16l2.58-.89c1.06,2.47,2.27,5.59,2.84,7.66l-2.78,1.06Zm.95-16.9h-8.75v-2.96h8.75v2.96Zm15.46,16.72c.6,.34,1.38,.72,1.98,.89-.06,.89-.23,1.78-.52,2.18-.26,.43-.69,.72-1.35,.89-.49,.14-1.41,.23-2.01,.23h-2.41c-.86,0-1.89-.2-2.47-.63-.6-.46-.92-1.06-.92-2.96v-7.86h-.89c-.2,6.14-1.06,9.96-6.25,12.05-.34-.77-1.15-1.95-1.81-2.55,4.39-1.64,4.91-4.45,5.08-9.5h-2.12v-11.99h2.73c.26-1,.52-2.09,.66-2.96l3.36,.4c-.32,.86-.66,1.75-1,2.55h7.86v11.99h-4.62v5.31c.23-.12,.43-.43,.57-.86,.17-.4,.77-2.24,.86-3.93l2.12,.6c-.29,1.35-.77,2.75-1.26,3.87l1.41-.2c-.2-.57-.4-1.21-.6-1.75l1.55-.46c.52,1.35,1.15,3.13,1.38,4.16l-1.32,.52Zm-10.64-14.54h2.24v-2.01h-2.24v2.01Zm0,4.59h2.24v-2.04h-2.24v2.04Zm7.4-6.6h-2.35v2.01h2.35v-2.01Zm0,4.56h-2.35v2.04h2.35v-2.04Zm1.15,13.63c.32,0,.72-.03,.89-.06,.2-.06,.43-.14,.52-.4,.12-.23,.17-.8,.2-1.52l.11,.09-.17-.6c-2.61,.52-3.21,.72-3.56,.92-.11-.4-.37-1.18-.6-1.69v2.32c0,.46,.03,.72,.26,.83,.14,.09,.43,.12,.77,.12h1.58Z"/>
        <path class="cls-1" d="M312.63,41.05h-9.52v-3.1h6.11v-15.23h3.41v18.33Z"/>
      </g>
    </g>
  </g>
</svg>