<?xml version="1.0" encoding="UTF-8"?>
<svg id="_圖層_2" data-name="圖層 2" xmlns="http://www.w3.org/2000/svg" width="228.48" height="50.65" viewBox="0 0 228.48 50.65">
  <defs>
    <style>
      .cls-1 {
        fill: #e8b356;
      }

      .cls-2 {
        opacity: .2;
      }
    </style>
  </defs>
  <g id="_圖層_2-2" data-name="圖層 2">
    <g>
      <g class="cls-2">
        <g>
          <path class="cls-1" d="M33.12,0c4.14,0,7.56,.4,10.26,1.2,2.7,.8,4.81,1.89,6.35,3.27,1.53,1.38,2.61,2.95,3.24,4.71,.63,1.76,.94,3.61,.94,5.54s-.35,3.78-1.06,5.54c-.71,1.76-1.86,3.33-3.47,4.72-1.61,1.38-3.74,2.47-6.39,3.27-2.65,.8-5.94,1.2-9.87,1.2H0V0H33.12ZM11.5,20.24h21.16c1.72,0,3.17-.12,4.37-.35s2.15-.58,2.88-1.04c.72-.46,1.24-1.03,1.56-1.73,.32-.69,.48-1.5,.48-2.42s-.16-1.72-.48-2.42c-.32-.69-.84-1.26-1.56-1.72-.72-.46-1.68-.81-2.88-1.04s-2.65-.34-4.37-.34H11.5v11.04Z"/>
          <path class="cls-1" d="M71.39,17.02v3.68h34.96v8.74H59.89V0h46.37V8.74h-34.87v3.68h28.52v4.6h-28.52Z"/>
          <path class="cls-1" d="M113.02,0h11.5V29.44h-11.5V0Z"/>
          <path class="cls-1" d="M129.81,0h47.84V8.74h-47.84V0Zm18.17,8.14h11.5V29.44h-11.5V8.14Z"/>
          <path class="cls-1" d="M228.48,0l-18.63,21.94v7.5h-11.5v-7.5L179.72,0h13.57l15.13,19.09h-8.51L214.91,0h13.57Z"/>
        </g>
      </g>
      <g>
        <path class="cls-1" d="M69.35,35.68c1.61,1.81,4.04,3.36,6.63,4.16-.69,.63-1.69,1.86-2.15,2.7-1.21-.49-2.38-1.09-3.44-1.86,1.35,1.92,2.58,4.07,3.21,5.68l-2.96,1.32c-.63-1.95-2.35-4.96-3.93-7.14l2.32-.95c-1.29-1.12-2.41-2.47-3.3-3.9h-6.43c-1.09,1.78-2.55,3.38-4.22,4.68l2.55,1.06c-.92,2.12-2.18,4.56-3.79,6.14l-2.84-1.66c1.43-1.29,2.7-3.24,3.5-5.08-1.06,.77-2.21,1.43-3.33,2.01-.52-.69-1.72-2.01-2.41-2.61,2.58-1,4.93-2.55,6.51-4.53h-5.59v-3.13h6.48v-2.75h-4.73v-3.13h4.73v-3.04h3.39v3.04h5.62v-3.04h3.44v3.04h4.82v3.13h-4.82v2.75h6.68v3.13h-5.97Zm-10.33,2.12h3.24v9.12c0,1.58-.26,2.44-1.35,2.95-1,.52-2.47,.54-4.36,.54-.14-.95-.54-2.27-.97-3.18,1.23,.06,2.52,.06,2.95,.06,.37,0,.49-.09,.49-.43v-9.06Zm.55-5.25h5.62v-2.75h-5.62v2.75Zm6.17,8.2c.77,1.92,1.41,4.42,1.64,6.11l-2.93,.66c-.14-1.66-.77-4.25-1.46-6.2l2.75-.57Z"/>
        <path class="cls-1" d="M90.96,31h-10.15v-2.7h4.36c-.26-1.09-.86-2.58-1.35-3.76l2.87-.83c.57,1.2,1.23,2.81,1.55,3.82l-2.27,.77h4.99v2.7Zm-.8,7.72h-8.61v-2.58h8.61v2.58Zm.03,10.13h-5.74v1.15h-2.9v-9.81h8.63v8.66Zm-8.61-16.61h8.61v2.58h-8.61v-2.58Zm2.87,10.64v3.3h2.78v-3.3h-2.78Zm21.57,4.45c0,1.43-.26,2.18-1.26,2.61-.95,.43-2.29,.49-4.1,.46-.11-.8-.52-1.95-.89-2.7,1.06,.03,2.27,.03,2.61,.03,.37,0,.49-.11,.49-.43v-1.21h-7.77c-.34,1.66-1,3.3-2.09,4.56-.49-.6-1.75-1.78-2.41-2.15,1.69-2.01,1.86-4.7,1.86-6.94v-5.11h13.57v10.87Zm1.38-14.49v2.44h-16.29v-2.44h6.37v-1.26h-5.22v-2.27h5.22v-1.15h-5.94v-2.44h5.94v-2.09h3.3v2.09h6.25v2.44h-6.25v1.15h5.68v2.27h-5.68v1.26h6.63Zm-4.53,11.04v-1.38h-7.34c-.03,.46-.06,.92-.09,1.38h7.43Zm-7.34-4.93v1.35h7.34v-1.35h-7.34Z"/>
        <path class="cls-1" d="M122.63,29.57c-.77,2.15-1.84,4.19-3.1,6.05,1.12,1,3.04,2.98,3.56,3.56l-1.92,2.84c-.49-.75-1.26-1.78-2.04-2.81v11.19h-3.13v-10.5c-1,.95-1.98,1.81-3.01,2.5-.17-.98-.8-2.84-1.21-3.5,2.67-1.55,5.25-4.36,6.88-7.4h-6.14v-3.07h4.73c-.54-1.03-1.41-2.38-2.12-3.38l2.67-1.43c.89,1.12,1.92,2.61,2.41,3.59l-2.01,1.23h2.21l.54-.14,1.66,1.29Zm15.4-1.84v15.63h-3.21v-1.03h-2.61v8.06h-3.33v-8.06h-2.58v1.32h-3.1v-15.92h5.68v-4.13h3.33v4.13h5.82Zm-11.73,3.04v2.75h2.58v-2.75h-2.58Zm2.58,8.55v-2.81h-2.58v2.81h2.58Zm3.33-8.55v2.75h2.61v-2.75h-2.61Zm2.61,8.55v-2.81h-2.61v2.81h2.61Z"/>
        <path class="cls-1" d="M153.19,42.02c-.52-.72-1.32-1.78-2.12-2.78v11.19h-3.27v-10.59c-1.06,1-2.15,1.86-3.24,2.55-.2-.95-.86-2.84-1.23-3.47,2.78-1.58,5.51-4.39,7.23-7.43h-6.43v-3.07h4.82c-.52-1-1.32-2.18-2.09-3.1l2.55-1.58c1,1.06,2.07,2.55,2.55,3.59l-1.61,1.09h2.04l.57-.14,1.78,1.32c-.8,2.12-1.92,4.16-3.27,6.02,1.18,1,3.21,3.01,3.76,3.56l-2.04,2.84Zm12.45-4.3c.32,5.34,1.03,9.09,1.89,9.09,.37,0,.57-1.43,.63-4.3,.72,.69,1.81,1.41,2.67,1.75-.4,4.7-1.41,5.85-3.64,5.85-3.04,0-4.27-5.31-4.79-12.39h-3.7v8.26l3.7-1.12c.06,.92,.23,2.24,.4,2.95-5.45,1.86-6.45,2.35-7.08,2.78-.34-.75-1.35-2.29-1.89-2.93,.66-.46,1.61-1.61,1.61-2.93V26.53c4.3-.6,9.15-1.58,12.22-2.58l2.32,2.78c-1.38,.37-2.93,.75-4.5,1.09-.06,2.32-.03,4.62,.03,6.74h4.68v3.16h-4.53Zm-3.41-3.16c-.09-1.95-.12-4.04-.14-6.11-1.12,.2-2.27,.37-3.38,.52v5.59h3.53Z"/>
      </g>
    </g>
  </g>
</svg>