<?xml version="1.0" encoding="UTF-8"?>
<svg id="_圖層_2" data-name="圖層 2" xmlns="http://www.w3.org/2000/svg" width="377.15" height="91.51" viewBox="0 0 377.15 91.51">
  <g id="_圖層_2-2" data-name="圖層 2">
    <g style="opacity: .2;">
      <g>
        <path d="M10.76,22.82V14.77h22.95c.92,0,1.69-.15,2.32-.44,.63-.29,.94-.91,.94-1.86s-.31-1.61-.94-1.89c-.63-.28-1.4-.41-2.32-.41H11.5V30.41H0V.97H31.92c2.3,0,4.45,.16,6.46,.48,2.01,.32,3.76,.9,5.27,1.72,1.5,.83,2.68,1.99,3.54,3.5,.86,1.5,1.29,3.44,1.29,5.8s-.43,4.23-1.29,5.61c-.86,1.38-2.04,2.41-3.54,3.08-1.5,.67-3.26,1.12-5.27,1.33-2.01,.21-4.16,.32-6.46,.32H10.76Z" style="fill: #fff;"/>
        <path d="M54.23,30.41V.97h35.56c2.79,0,5.3,.32,7.52,.94,2.22,.63,3.99,1.68,5.29,3.15,1.3,1.47,1.95,3.48,1.95,6.03,0,1.69-.31,3.08-.92,4.19-.61,1.1-1.46,1.96-2.53,2.58-1.07,.61-2.3,1.06-3.68,1.33-1.38,.28-2.82,.44-4.32,.51l-3.36-.64c3.65,.03,6.46,.18,8.44,.46,1.98,.28,3.36,.78,4.14,1.5,.78,.72,1.17,1.76,1.17,3.11v6.3h-11.5v-4.92c0-.92-.18-1.62-.53-2.09-.35-.48-1.12-.81-2.3-.99-1.18-.18-3-.28-5.45-.28h-17.99v8.28h-11.5Zm11.5-15.96h24.06c.92,0,1.69-.15,2.32-.46,.63-.31,.94-.89,.94-1.75,0-.8-.31-1.34-.94-1.63-.63-.29-1.4-.44-2.32-.44h-24.06v4.28Z" style="fill: #fff;"/>
        <path d="M138.28,31.33c-6.69,0-12.07-.59-16.15-1.77-4.08-1.18-7.05-2.93-8.9-5.24-1.86-2.32-2.78-5.19-2.78-8.62s.93-6.31,2.78-8.62c1.85-2.32,4.82-4.06,8.9-5.24C126.21,.64,131.59,.05,138.28,.05s12.07,.59,16.15,1.77c4.08,1.18,7.05,2.93,8.9,5.24,1.85,2.32,2.78,5.19,2.78,8.62s-.93,6.31-2.78,8.62c-1.86,2.32-4.82,4.06-8.9,5.24-4.08,1.18-9.46,1.77-16.15,1.77Zm0-8.74c3.16,0,5.89-.19,8.19-.58,2.3-.38,4.08-1.07,5.34-2.07,1.26-1,1.89-2.42,1.89-4.25s-.63-3.26-1.89-4.25c-1.26-1-3.04-1.69-5.34-2.07-2.3-.38-5.03-.58-8.19-.58s-5.93,.19-8.3,.58c-2.38,.38-4.23,1.07-5.57,2.07-1.33,1-2,2.42-2,4.25s.67,3.26,2,4.25c1.33,1,3.19,1.69,5.57,2.07,2.38,.38,5.14,.58,8.3,.58Z" style="fill: #fff;"/>
        <path d="M226.59,18.12c-.15,2.91-1.21,5.35-3.17,7.31-1.96,1.96-4.85,3.43-8.67,4.42-3.82,.98-8.64,1.47-14.47,1.47-4.45,0-8.43-.24-11.96-.71-3.53-.48-6.53-1.29-9.02-2.44-2.48-1.15-4.39-2.72-5.7-4.71-1.32-1.99-1.98-4.51-1.98-7.54s.66-5.57,1.98-7.61c1.32-2.04,3.22-3.67,5.7-4.88,2.48-1.21,5.49-2.08,9.02-2.6,3.53-.52,7.51-.78,11.96-.78,5.83,0,10.66,.53,14.49,1.59,3.83,1.06,6.73,2.61,8.69,4.67,1.96,2.06,3.02,4.55,3.17,7.5h-11.96c-.37-.98-1.04-1.85-2.02-2.6-.98-.75-2.45-1.34-4.42-1.77-1.96-.43-4.62-.64-7.96-.64-3.93,0-7.11,.24-9.57,.71-2.45,.48-4.25,1.24-5.38,2.28-1.13,1.04-1.7,2.42-1.7,4.14,0,1.56,.57,2.84,1.7,3.82,1.13,.98,2.93,1.7,5.38,2.16,2.45,.46,5.64,.69,9.57,.69,3.34,0,5.99-.2,7.94-.6,1.95-.4,3.41-.94,4.39-1.63,.98-.69,1.66-1.43,2.02-2.23h11.96Z" style="fill: #fff;"/>
        <path d="M244.12,17.99v3.68h34.96v8.74h-46.46V.97h46.37V9.71h-34.87v3.68h28.52v4.6h-28.52Z" style="fill: #fff;"/>
        <path d="M283.45,19.6h12.56c.21,.64,.84,1.19,1.89,1.63,1.04,.44,2.45,.78,4.21,1.01,1.76,.23,3.81,.34,6.14,.34s4.12-.07,5.45-.21c1.33-.14,2.28-.38,2.83-.74s.83-.84,.83-1.45-.44-1.04-1.33-1.36c-.89-.32-2.47-.54-4.74-.67-2.27-.12-5.46-.18-9.57-.18-3.07,0-5.71-.15-7.93-.44-2.22-.29-4.05-.75-5.47-1.38-1.43-.63-2.48-1.43-3.15-2.39-.68-.97-1.01-2.12-1.01-3.47,0-2.33,.79-4.25,2.37-5.77,1.58-1.52,3.97-2.65,7.18-3.4,3.2-.75,7.21-1.13,12.03-1.13,7.05,0,12.44,1.02,16.17,3.06s5.59,4.98,5.59,8.81h-11.91c-.15-1.01-1.1-1.79-2.85-2.32-1.75-.54-4.23-.8-7.45-.8s-5.56,.18-7.11,.55c-1.55,.37-2.32,1-2.32,1.89,0,.46,.21,.83,.64,1.1,.43,.28,1.17,.5,2.23,.67,1.06,.17,2.55,.28,4.48,.34,1.93,.06,4.39,.09,7.36,.09,3.28,0,6.07,.16,8.37,.48s4.16,.8,5.59,1.45c1.43,.64,2.46,1.46,3.1,2.46,.64,1,.97,2.17,.97,3.52,0,2.33-.74,4.23-2.21,5.7-1.47,1.47-3.8,2.56-6.99,3.27-3.19,.71-7.36,1.06-12.51,1.06-2.91,0-5.59-.17-8.03-.51-2.44-.34-4.61-.83-6.51-1.5-1.9-.66-3.51-1.47-4.83-2.44-1.32-.97-2.32-2.05-3.01-3.27-.69-1.21-1.04-2.55-1.04-4.02Z" style="fill: #fff;"/>
        <path d="M332.03,19.6h12.56c.21,.64,.84,1.19,1.89,1.63,1.04,.44,2.45,.78,4.21,1.01,1.76,.23,3.81,.34,6.14,.34s4.12-.07,5.45-.21c1.33-.14,2.28-.38,2.83-.74,.55-.35,.83-.84,.83-1.45s-.44-1.04-1.33-1.36c-.89-.32-2.47-.54-4.74-.67-2.27-.12-5.46-.18-9.57-.18-3.07,0-5.71-.15-7.93-.44-2.22-.29-4.05-.75-5.47-1.38-1.43-.63-2.48-1.43-3.15-2.39-.68-.97-1.01-2.12-1.01-3.47,0-2.33,.79-4.25,2.37-5.77,1.58-1.52,3.97-2.65,7.18-3.4,3.2-.75,7.21-1.13,12.03-1.13,7.05,0,12.44,1.02,16.17,3.06,3.73,2.04,5.59,4.98,5.59,8.81h-11.91c-.15-1.01-1.1-1.79-2.85-2.32-1.75-.54-4.23-.8-7.45-.8s-5.56,.18-7.11,.55c-1.55,.37-2.32,1-2.32,1.89,0,.46,.21,.83,.64,1.1,.43,.28,1.17,.5,2.23,.67,1.06,.17,2.55,.28,4.48,.34,1.93,.06,4.39,.09,7.36,.09,3.28,0,6.07,.16,8.37,.48,2.3,.32,4.16,.8,5.59,1.45,1.43,.64,2.46,1.46,3.1,2.46,.64,1,.97,2.17,.97,3.52,0,2.33-.74,4.23-2.21,5.7-1.47,1.47-3.8,2.56-6.99,3.27-3.19,.71-7.36,1.06-12.51,1.06-2.91,0-5.59-.17-8.03-.51-2.44-.34-4.61-.83-6.51-1.5-1.9-.66-3.51-1.47-4.83-2.44-1.32-.97-2.32-2.05-3.01-3.27-.69-1.21-1.03-2.55-1.03-4.02Z" style="fill: #fff;"/>
      </g>
    </g>
    <g>
      <path d="M69.18,41.79c-.92,2.38-2.52,4.79-4.1,6.25-.6-.57-1.95-1.49-2.73-1.92,1.52-1.26,2.87-3.21,3.59-5.13l3.24,.8Zm5.59-1.03h-10.61V22.34h10.61v18.42Zm-3.33-15.72h-4.07v2.61h4.07v-2.61Zm0,5.14h-4.07v2.67h4.07v-2.67Zm0,5.19h-4.07v2.67h4.07v-2.67Zm1.12,5.56c1.26,1.41,2.55,3.27,3.16,4.59l-2.87,1.46c-.55-1.35-1.84-3.36-3.04-4.85l2.75-1.21Zm16.9-9.81h-3.1v13.02c0,1.72-.34,2.64-1.32,3.18-1,.55-2.41,.72-4.5,.72-.14-.95-.66-2.44-1.15-3.36,1.32,.06,2.58,.06,3.01,.06,.43-.03,.6-.17,.6-.6v-8.75c-1.69,3.27-3.79,6.14-6.05,8.12-.57-.77-1.61-1.92-2.32-2.5,2.87-2.15,5.54-5.99,7.2-9.9h-6.31v-3.16h7.49v-6.66h3.36v6.66h3.1v3.16Z" style="fill: #302725;"/>
      <path d="M110.38,27.16c-.77,2.15-1.84,4.19-3.1,6.05,1.12,1,3.04,2.98,3.56,3.56l-1.92,2.84c-.49-.75-1.26-1.78-2.04-2.81v11.19h-3.13v-10.5c-1,.95-1.98,1.81-3.01,2.5-.17-.98-.8-2.84-1.2-3.5,2.67-1.55,5.25-4.36,6.88-7.4h-6.14v-3.07h4.73c-.55-1.03-1.41-2.38-2.12-3.38l2.67-1.44c.89,1.12,1.92,2.61,2.41,3.59l-2.01,1.23h2.21l.55-.14,1.66,1.29Zm15.4-1.84v15.63h-3.21v-1.03h-2.61v8.06h-3.33v-8.06h-2.58v1.32h-3.1v-15.92h5.68v-4.13h3.33v4.13h5.82Zm-11.73,3.04v2.75h2.58v-2.75h-2.58Zm2.58,8.55v-2.81h-2.58v2.81h2.58Zm3.33-8.55v2.75h2.61v-2.75h-2.61Zm2.61,8.55v-2.81h-2.61v2.81h2.61Z" style="fill: #302725;"/>
      <path d="M146.7,34.47c-3.24,.26-6.45,.46-8.95,.63l-.23-2.58c.69-.03,1.46-.06,2.29-.09v-7.63h-2.07v-2.41h13.71v2.41h-1.72v10.76h-3.04v-1.09Zm17.01,9.93v2.7h-25.76v-2.7h10.9v-1.46h-9.55v-2.78h9.55v-1.44c-2.73,.14-5.45,.2-7.97,.2-.06-.77-.4-1.89-.69-2.61,6.77-.06,14.72-.52,19.42-1.38l1.89,2.52c-2.64,.46-5.82,.83-9.18,1.06v1.64h9.84v2.78h-9.84v1.46h11.39Zm-20.88-19.59v1.23h3.87v-1.23h-3.87Zm0,4.33h3.87v-1.26h-3.87v1.26Zm0,3.15c1.23-.06,2.55-.11,3.87-.2v-1.12h-3.87v1.32Zm19.94,1.72h-10.56v-10.73h10.56v10.73Zm-3.3-7.86h-4.13v4.99h4.13v-4.99Z" style="fill: #302725;"/>
      <path d="M183.63,28.68h-9.09v-2.67h3.5c-.26-1.09-.83-2.7-1.26-3.96l2.73-.83c.54,1.26,1.2,3.04,1.49,4.07l-2.07,.72h4.7v2.67Zm7,2.55c-.26,4.19-.8,7.66-1.75,10.47,2.01,2.27,4.65,2.72,7.49,2.72,.95,0,4.04,0,5.22-.03-.43,.72-.83,2.15-.98,3.04h-4.42c-3.33,0-6.22-.6-8.52-3.01-.8,1.43-1.72,2.67-2.9,3.62-.37-.75-1.15-2.01-1.78-2.64v1.06h-4.88v1.18h-2.58v-9.81h7.46v7.52c1.15-.83,2.04-2.09,2.78-3.7-.75-1.43-1.38-3.21-1.86-5.39l2.04-.77c.29,1.12,.6,2.09,.92,2.98,.4-1.46,.69-3.04,.86-4.73h-2.24v-.03h-1.86c.89-2.18,2.01-5.25,2.93-8.18h-2.58v-3.04h6.66c-.83,2.7-1.89,5.88-2.84,8.49h.66l.49-.06,1.69,.32Zm-7.6,1.32h-7.37v-2.58h7.37v2.58Zm-7.37,1.32h7.37v2.55h-7.37v-2.55Zm4.7,6.63h-2.24v3.3h2.24v-3.3Zm14.6-14.57c-1.26,.2-2.52,.34-3.7,.46-.11-.75-.52-1.87-.8-2.58,3.16-.4,6.71-1.12,8.95-2.07l1.84,2.61c-1.06,.4-2.24,.75-3.5,1.03v5.05h3.01v3.1h-3.01v5.88h3.18v3.1h-10.79v-3.1h1.32v-11.13h2.29v11.13h1.2v-13.48Z" style="fill: #302725;"/>
      <path d="M227.87,32.43c1.89,5.59,5.36,10.1,10.73,12.28-.86,.72-1.98,2.24-2.52,3.21-5.19-2.44-8.52-6.63-10.76-12.16-1.55,4.79-4.65,9.27-10.73,12.19-.54-.95-1.55-2.18-2.55-2.9,6.57-2.93,9.29-7.69,10.41-12.62h-9.87v-3.53h10.44c.29-2.7,.26-5.31,.29-7.66h3.73c-.03,2.35-.06,4.99-.34,7.66h11.27v3.53h-10.1Z" style="fill: #302725;"/>
      <path d="M254.61,34.82c-1.12-.95-3.53-2.29-5.36-3.1l1.81-2.55c1.78,.69,4.22,1.87,5.45,2.81l-1.89,2.84Zm-4.36,10.58c1.55-2.18,3.73-5.71,5.42-9.04l2.52,2.29c-1.52,2.98-3.36,6.25-5.05,9.04l-2.9-2.29Zm6.02-18.19c-1.15-.98-3.5-2.35-5.34-3.19l1.86-2.52c1.81,.72,4.25,1.98,5.45,2.9l-1.98,2.81Zm16.35,20.8c-.2-.75-.55-1.63-1-2.52-9.55,1.15-11.02,1.38-11.96,1.86-.2-.75-.77-2.44-1.21-3.41,.66-.2,1.21-.8,1.86-1.84,.52-.77,1.89-3.3,3.04-6.14h-5.39v-3.21h6.8v-4.04h-5.65v-3.24h5.65v-4.28h3.47v4.28h5.85v3.24h-5.85v4.04h6.91v3.21h-7.8c-1.15,2.61-2.58,5.19-3.99,7.37l6.74-.69c-.6-1.03-1.26-2.07-1.92-2.95l2.78-1.38c1.89,2.5,3.99,5.82,4.73,8.15l-3.07,1.55Z" style="fill: #302725;"/>
      <path d="M302.27,22.05c-.14,.17-.29,.37-.43,.54,2.64,2.29,7.34,4.27,11.9,5.16-.72,.6-1.69,1.81-2.15,2.61-.57-.14-1.18-.34-1.78-.52v7.4h-19.94v-7.23c-.6,.2-1.2,.4-1.78,.54-.34-.63-1.26-2.01-1.84-2.64,5.28-1.23,10.38-3.62,12.99-6.94l3.01,1.06Zm6.51,7.43c-1.35-.49-2.64-1.09-3.9-1.75v.75h-10.07v-.57c-1.12,.57-2.27,1.12-3.47,1.58h17.44Zm-17.3,8.72h16.87v9.7h-3.5v-.69h-10.01v.77h-3.36v-9.78Zm3.24-3.01c-.14-.89-.52-2.07-.98-2.98l2.21-.63h-3.24v3.62h2.01Zm.11,5.25v1.15h10.01v-1.15h-10.01Zm10.01,4.53v-1.15h-10.01v1.15h10.01Zm-6.51-13.4h-2.24c.52,.98,.98,2.21,1.15,3.04l-1.84,.57h2.93v-3.62Zm4.13-5.31c-.86-.6-1.69-1.23-2.41-1.87-.75,.63-1.58,1.26-2.44,1.87h4.85Zm-1.38,5.31v3.62h2.67l-1.72-.49c.4-.86,.86-2.18,1.12-3.13h-2.07Zm5.68,0h-2.98l2.24,.54c-.57,1.15-1.12,2.27-1.58,3.07h2.32v-3.62Z" style="fill: #302725;"/>
      <path d="M123.92,78.52c-1.12-.97-3.47-2.32-5.31-3.1l1.78-2.61c1.81,.69,4.25,1.89,5.42,2.87l-1.89,2.84Zm3.13,3.59c-1.52,2.98-3.33,6.25-5.02,9.04l-2.9-2.29c1.52-2.15,3.7-5.71,5.42-9.04l2.5,2.29Zm-2.15-11.25c-1.03-1.06-3.3-2.5-5.14-3.36l1.92-2.5c1.75,.78,4.1,2.04,5.22,3.13l-2.01,2.73Zm4.39,7.63h3.07v2.78c0,3.18-.46,7.2-4.25,10.1-.49-.69-1.64-1.78-2.41-2.24,3.21-2.35,3.59-5.48,3.59-7.98v-2.67Zm13.37,.12c-.32-.49-.75-1.15-1.23-1.84-10.64,.75-12.19,.89-13.25,1.29-.17-.66-.69-2.29-1.06-3.13,.72-.2,1.32-.8,2.18-1.81,.34-.34,.89-1.03,1.55-1.95h-3.76v-3.04h5.74c.66-1.15,1.35-2.35,1.92-3.59l3.33,1.29c-.4,.78-.86,1.52-1.35,2.29h8.15v3.04h-3.96c1.49,1.81,3.5,4.19,4.53,5.68l-2.78,1.75Zm-8.03-7.43c-.86,1.18-1.75,2.27-2.64,3.3l7.43-.4c-.49-.6-.95-1.2-1.38-1.72l2.01-1.18h-5.42Zm-.52,7.57h2.98v11.47h-2.98v-11.47Zm9.5,9.47c.4,0,1-.06,1.38-.17,.06,.8,.14,1.87,.26,2.58-.43,.17-1.03,.2-1.61,.2h-1.43c-2.7,0-3.21-1.15-3.21-3.87v-8.46h3.13v8.49c0,.92,.03,1.23,.4,1.23h1.09Z" style="fill: #302725;"/>
      <path d="M164.89,83.74c-.37-.95-1.09-2.35-1.78-3.64v11.42h-3.24v-10.67c-.83,2.38-1.78,4.62-2.84,6.2-.29-1.03-1-2.52-1.46-3.38,1.35-1.89,2.7-4.93,3.53-7.69h-3.16v-3.18h3.93v-3.44c-.92,.17-1.84,.34-2.7,.46-.14-.77-.54-1.92-.92-2.64,2.93-.52,6.17-1.38,8.29-2.38l1.81,2.81c-1,.4-2.09,.75-3.24,1.03v4.16h3.21v3.18h-3.21v.46c.75,.83,3.07,3.81,3.59,4.53l-1.81,2.78Zm17.56,4.16v3.04h-16.58v-3.04h6.91v-2.61h-5.45v-2.93h5.45v-2.32c-1.52,.11-3.07,.2-4.5,.26-.11-.75-.49-1.89-.83-2.58,4.13-.26,8.81-.8,11.7-1.55l2.09,2.58c-1.52,.37-3.27,.66-5.08,.92v2.7h5.14v2.93h-5.14v2.61h6.28Zm-1.38-12.11h-13.6v-9.87h13.6v9.87Zm-3.3-7h-7.14v4.13h7.14v-4.13Z" style="fill: #302725;"/>
      <path d="M209.19,66.27c-.17,.26-.34,.52-.55,.77,2.55,3.01,7.03,5.57,11.91,6.71-.83,.75-1.95,2.24-2.44,3.21-4.59-1.38-8.63-4.04-11.56-7.43-3.16,3.3-7.49,6.2-11.7,7.83-.46-.95-1.32-2.38-2.09-3.3,5.48-1.64,11.02-5.59,13.65-9.75l2.78,1.95Zm-9.61,10.24h3.61v3.24c0,3.81-.63,8.55-6.31,11.76-.6-.8-1.95-1.98-2.87-2.55,5.02-2.67,5.56-6.31,5.56-9.29v-3.16Zm10.79-.06h3.64v15.03h-3.64v-15.03Z" style="fill: #302725;"/>
      <path d="M239.43,82.59c-.06-.4-.14-.89-.26-1.41-5.97,.89-7,1.15-7.66,1.46-.17-.63-.72-2.21-1.09-3.07,.75-.2,1.41-.83,2.32-1.89,.34-.37,1.06-1.21,1.86-2.29-2.24,.26-2.9,.43-3.33,.63-.17-.63-.66-2.12-1.03-2.93,.57-.17,1.09-.72,1.66-1.58,.63-.8,2.52-4.02,3.59-7.03l3.1,1.26c-1.12,2.38-2.58,4.88-4.1,6.91l2.09-.14c.72-1.2,1.46-2.44,2.07-3.7l2.87,1.86c-1.72,2.93-3.87,5.88-6.14,8.32l3.1-.37c-.2-.78-.46-1.49-.69-2.18l2.47-.8c.75,1.92,1.52,4.48,1.84,6l-2.67,.95Zm-5.08,1.4c-.2,2.55-.66,5.28-1.26,7.03-.63-.32-1.98-.78-2.7-.95,.66-1.66,1-4.22,1.18-6.51l2.78,.43Zm3.21-.54c.37,1.95,.69,4.48,.8,6.14l-2.73,.57c-.03-1.66-.34-4.25-.66-6.25l2.58-.46Zm3.07-.89c.63,1.63,1.26,3.73,1.52,5.13l-2.61,.92c-.2-1.43-.83-3.59-1.38-5.25l2.47-.8Zm16.06-16.55s-.03,.89-.06,1.29c-.29,6.05-.6,8.58-1.38,9.47-.57,.75-1.18,1-2.07,1.12-.72,.12-1.95,.14-3.27,.09-.03-.97-.4-2.27-.89-3.13,1.06,.09,2.04,.12,2.55,.12,.37,0,.63-.06,.89-.34,.37-.43,.63-1.95,.83-5.62h-3.67c-.52,4.07-1.81,7.57-6,9.78-.4-.83-1.32-2.01-2.04-2.58,3.3-1.63,4.27-4.24,4.68-7.2h-4.39v-2.98h14.8Zm-14,13.4h13.17v11.99h-3.53v-1.18h-6.31v1.29h-3.33v-12.11Zm3.33,2.98v4.85h6.31v-4.85h-6.31Z" style="fill: #302725;"/>
    </g>
  </g>
</svg>