<svg height="117.29" viewBox="0 0 410.62 117.29" width="410.62" xmlns="http://www.w3.org/2000/svg"><g fill="#e8b356"><g opacity=".2"><path d="m125.5 2.49v23.66h-94.37v10.58h77.19v21.17h-77.19v24.27h-31.13v-79.68z"/><path d="m116.79 82.17 53.41-79.68h34.61l53.92 79.68h-34.24l-46.2-71.34h18.56l-45.85 71.34zm27.89-12.07v-18.68h85.16v18.68z"/><path d="m335.3 84.67q-27.15 0-43.71-4.8t-24.09-14.19q-7.5-9.41-7.5-23.35t7.5-23.33q7.53-9.4 24.09-14.2t43.71-4.8q27.13 0 43.7 4.79t24.09 14.21q7.53 9.41 7.53 23.34t-7.53 23.35q-7.53 9.4-24.09 14.18t-43.7 4.8zm0-23.66a136.57 136.57 0 0 0 22.16-1.56q9.33-1.55 14.44-5.6t5.1-11.52q0-7.47-5.11-11.51t-14.44-5.61a137.82 137.82 0 0 0 -22.16-1.55 143.8 143.8 0 0 0 -22.48 1.55q-9.65 1.56-15.06 5.61t-5.42 11.51q0 7.47 5.42 11.52t15.06 5.6a142.49 142.49 0 0 0 22.49 1.55zm-14.95 15.81h29.89v30.26h-29.89z"/></g><path d="m130.66 77.08v12h-5.92v-6.9h-31.17v6.9h-5.68v-12h6.72a28 28 0 0 0 -2.78-4.35l5.37-2.2a24.19 24.19 0 0 1 3.64 5.35l-2.69 1.2h7.91v-6.85h6.13v6.85h7.81l-2.79-1a34.09 34.09 0 0 0 3.58-5.45l6.38 1.9c-1.45 1.75-2.84 3.3-4.09 4.55zm-2.89 32.31c0 2.75-.54 4.2-2.54 5.1s-4.68.85-8.21.85a21.4 21.4 0 0 0 -1.89-5.4c2.24.1 4.88.1 5.57.1s1-.2 1-.75v-4.85h-9v12.56h-6.13v-12.6h-9.32v10.35h-6v-15.61h15.38v-3h-10.63v-11.51h26.49v11.51h-9.71v3h15zm-26.14-17.45h14.79v-3.1h-14.79z"/><path d="m186.57 110.94c1.69 0 2-.85 2.24-6.65a18.82 18.82 0 0 0 5.43 2.35c-.65 7.9-2.19 10-7.12 10h-6.57c-5.93 0-7.32-1.8-7.32-7.4v-8h-6c-1 8-4 13.2-16.28 16a18.81 18.81 0 0 0 -3.29-5.3c10.21-1.9 12.35-5.25 13.2-10.7h-6.08v-29.41h32.57v29.36h-8.15v8c0 1.6.3 1.8 2.19 1.8zm-26.09-30.81h20.81v-3.13h-20.81zm0 7.91h20.81v-3.1h-20.81zm0 7.95h20.81v-3.1h-20.81z"/><path d="m217.68 90.79v26.21h-5.87v-44.82h19v18.61zm0-14.06v2.7h7.62v-2.7zm7.62 9.56v-2.85h-7.62v2.85zm3 23.65v2.8h-5.53v-18.5h19.27v15.7zm0-10.8v5.86h8.21v-5.9zm25.44 10.75c0 3.3-.7 5-2.79 6s-5.17 1.15-9.76 1.15a21 21 0 0 0 -2-6.1c2.89.2 6.28.15 7.22.1s1.3-.3 1.3-1.2v-19h-13.5v-18.66h19.52zm-13.85-33.21v2.75h7.87v-2.75zm7.87 9.65v-2.89h-7.87v2.89z"/><path d="m285.94 110.19c3 .9 6.62 1.1 11.06 1.1 3.38 0 17 0 21.06-.2a16.13 16.13 0 0 0 -1.9 4.9h-19.16c-9.37 0-15.54-.95-19.52-6.4a18.5 18.5 0 0 1 -3.49 7.7 16.59 16.59 0 0 0 -3.43-4.05c2.79-3.45 3.28-9.35 3.43-15.35h4.73c-.05 1.85-.15 3.65-.3 5.45a13.65 13.65 0 0 0 2.54 4v-11.45h-9.21v-4.3h22.31v4.3h-8.12v4.11h7.17v4.3h-7.17zm5.93-21.45h-17.87v-16.51h17.88zm-5.48-12.56h-7.12v2.36h7.12zm0 6.11h-7.12v2.44h7.12zm17.87 21.55a29.14 29.14 0 0 1 -8.71 7.3 35.59 35.59 0 0 0 -3.78-3.45 22.79 22.79 0 0 0 7.67-5.4zm-2.48-24.61c.29-.85.54-1.8.84-2.69h-8.76v-4.16h22.8v4.16h-8.66l-1.2 2.69h8.47v22.71h-19.87v-22.71zm8 4h-9.06v2.31h9.06zm0 6.15h-9.06v2.31h9.06zm0 6.11h-9.06v2.4h9.06zm.75 6.5a37.33 37.33 0 0 1 7.27 6.3l-4.23 2.5a40.24 40.24 0 0 0 -7.12-6.65z"/></g></svg>