<svg xmlns="http://www.w3.org/2000/svg" width="410.62" height="117.29" viewBox="0 0 410.62 117.29">
  <defs>
    <style>
      .cls-1 {
        opacity: 0.2;
      }

      .cls-2 {
        fill: #fff;
      }

      .cls-3 {
        fill: #302725;
      }
    </style>
  </defs>
  <g id="圖層_2" data-name="圖層 2">
    <g id="圖層_1-2" data-name="圖層 1">
      <g class="cls-1">
        <g>
          <path class="cls-2" d="M125.5,2.49V26.15H31.13V36.73h77.19V57.9H31.13V82.17H0V2.49Z"/>
          <path class="cls-2" d="M116.79,82.17,170.2,2.49h34.61l53.92,79.68H224.49l-46.2-71.34h18.56L151,82.17ZM144.68,70.1V51.42h85.16V70.1Z"/>
          <path class="cls-2" d="M335.3,84.66q-27.15,0-43.71-4.79T267.5,65.68Q260,56.27,260,42.33T267.5,19q7.53-9.4,24.09-14.2T335.3,0Q362.43,0,379,4.79T403.09,19q7.53,9.41,7.53,23.34t-7.53,23.35Q395.56,75.09,379,79.87T335.3,84.66Zm0-23.65a136.57,136.57,0,0,0,22.16-1.56q9.33-1.55,14.44-5.6T377,42.33q0-7.47-5.11-11.51t-14.44-5.61a137.82,137.82,0,0,0-22.16-1.55,143.8,143.8,0,0,0-22.48,1.55q-9.65,1.56-15.06,5.61t-5.42,11.51q0,7.47,5.42,11.52t15.06,5.6A142.49,142.49,0,0,0,335.3,61ZM320.36,76.82h29.88v30.26H320.36Z"/>
        </g>
      </g>
      <g>
        <path class="cls-3" d="M130.66,77.09v12h-5.92v-6.9H93.57v6.9H87.89v-12h6.72a28,28,0,0,0-2.78-4.35l5.37-2.2a24.19,24.19,0,0,1,3.64,5.35l-2.69,1.2h7.91V70.24h6.13v6.85H120l-2.79-1a34.09,34.09,0,0,0,3.58-5.45l6.38,1.9c-1.45,1.75-2.84,3.3-4.09,4.55Zm-2.89,32.3c0,2.75-.54,4.2-2.54,5.1s-4.68.85-8.21.85a21.4,21.4,0,0,0-1.89-5.4c2.24.1,4.88.1,5.57.1s1-.2,1-.75v-4.85h-9V117h-6.13v-12.6H97.25v10.35h-6V99.14h15.38v-3H96V84.64h26.49v11.5h-9.71v3h15ZM101.63,91.94h14.79v-3.1H101.63Z"/>
        <path class="cls-3" d="M186.57,110.94c1.69,0,2-.85,2.24-6.65a18.82,18.82,0,0,0,5.43,2.35c-.65,7.9-2.19,10-7.12,10h-6.57c-5.93,0-7.32-1.8-7.32-7.4v-8h-6c-1,8-4,13.2-16.28,16a18.81,18.81,0,0,0-3.29-5.3c10.21-1.9,12.35-5.25,13.2-10.7h-6.08V71.84h32.57v29.35H179.2v8c0,1.6.3,1.8,2.19,1.8Zm-26.09-30.8h20.81V77H160.48Zm0,7.9h20.81v-3.1H160.48Zm0,7.95h20.81v-3.1H160.48Z"/>
        <path class="cls-3" d="M217.69,90.79V117h-5.88V72.19h19v18.6Zm0-14.05v2.7h7.61v-2.7Zm7.61,9.55V83.44h-7.61v2.85Zm3,23.65v2.8h-5.53V94.24h19.27v15.7Zm0-10.8V105h8.22v-5.9Zm25.44,10.75c0,3.3-.69,5-2.79,6s-5.17,1.15-9.75,1.15a21.29,21.29,0,0,0-2-6.1c2.89.2,6.28.15,7.22.1s1.3-.3,1.3-1.2v-19H234.27V72.19h19.51Zm-13.89-33.2v2.75h7.87V76.69Zm7.87,9.65v-2.9h-7.87v2.9Z"/>
        <path class="cls-3" d="M285.94,110.19c3,.9,6.63,1.1,11.06,1.1,3.38,0,17,0,21.06-.2a15.86,15.86,0,0,0-1.89,4.9H297c-9.36,0-15.54-.95-19.52-6.4a18.5,18.5,0,0,1-3.49,7.7,16.59,16.59,0,0,0-3.43-4.05c2.79-3.45,3.28-9.35,3.43-15.35h4.73c-.05,1.85-.15,3.65-.3,5.45a13.65,13.65,0,0,0,2.54,4V95.89h-9.21v-4.3h22.31v4.3h-8.12V100h7.17v4.3h-7.17Zm5.93-21.45H274V72.24h17.88Zm-5.48-12.55h-7.12v2.35h7.12Zm0,6.1h-7.12v2.45h7.12Zm17.88,21.55a29.3,29.3,0,0,1-8.72,7.3,35.59,35.59,0,0,0-3.78-3.45,22.79,22.79,0,0,0,7.67-5.4Zm-2.49-24.6c.3-.85.54-1.8.84-2.7h-8.76V72.39h22.8v4.15H308l-1.2,2.7h8.47v22.7H295.4V79.24Zm8,4h-9.06v2.3h9.06Zm0,6.15h-9.06v2.3h9.06Zm0,6.1h-9.06v2.4h9.06Zm.75,6.5a37.33,37.33,0,0,1,7.27,6.3l-4.23,2.5a40.24,40.24,0,0,0-7.12-6.65Z"/>
      </g>
    </g>
  </g>
</svg>
