<svg height="37.5" viewBox="0 0 120.39 37.5" width="120.39" xmlns="http://www.w3.org/2000/svg"><path d="m104.09 37.5 16.3-14.7a5.72 5.72 0 0 1 0-8.1l-16.3-14.7h-87.79l-16.3 14.7a5.72 5.72 0 0 1 0 8.1l16.3 14.7z" fill="#ec6531"/><g fill="#fff"><path d="m24.66 15.43h-4.66v-1h4.7zm-.38 1.8h-4v-1h4zm-4 .88h4v1h-4zm4 6.06h-2.87v.59h-1.08v-4.71h3.94zm-2.86-3.09v2h1.77v-2zm.73-6.73a14 14 0 0 0 -.65-1.91l1.06-.32a13.46 13.46 0 0 1 .72 1.88zm9.53 9.34c0 .58-.12.88-.52 1a4.51 4.51 0 0 1 -1.84.19 4.25 4.25 0 0 0 -.32-1.01h1.29s.23-.06.23-.21v-.93h-4a4.81 4.81 0 0 1 -1 2.34 4.42 4.42 0 0 0 -.89-.84 5.48 5.48 0 0 0 .89-3.48v-2.5h6.16zm.72-7.14v1h-7.6v-1h3.1v-.78h-2.6v-.93h2.6v-.71h-2.9v-1h2.93v-1.04h1.23v1.08h3.12v1h-3.16v.71h2.88v.93h-2.88v.78zm-1.91 5.32v-.87h-3.84v.87zm-3.83-2.62v.85h3.83v-.85z"/><path d="m47.57 20.14c-.43-.47-1.22-1.17-2-1.82a6.5 6.5 0 0 1 -1.07 1.44 6.62 6.62 0 0 0 -1-.65 12 12 0 0 0 5.29 4.09 5.22 5.22 0 0 0 -1 1.18 13.15 13.15 0 0 1 -4.74-3.9v4.46h-1.27v-4.42a13.71 13.71 0 0 1 -4.71 3.84 5.5 5.5 0 0 0 -.89-1.1 12.74 12.74 0 0 0 5.6-4.73v-3.34h-5.09v-1.26h5.09v-1.85h1.33v1.85h5.25v1.26h-5.25v3.27c.12.21.25.41.38.6a6.63 6.63 0 0 0 1.87-3.63l1.23.23a11 11 0 0 1 -.48 1.57 28.72 28.72 0 0 1 2.36 2zm-7.36-4.47a10.82 10.82 0 0 1 -.51 1.58c.55.48 1.12 1 1.45 1.39l-.86.93a11.37 11.37 0 0 0 -1.12-1.19 7.25 7.25 0 0 1 -1.65 2.07 5.76 5.76 0 0 0 -1-.85 7.08 7.08 0 0 0 2.48-4.17z"/><path d="m54.23 17.31h-1.23v-3.06h5.14v-.74h-4.53v-.91h10.39v.91h-4.6v.74h5.25v3.06h-1.25v-2.17h-4v3.05h-1.23v-3.05h-3.94zm8.92 6.44c.7 0 .83-.23.91-1.53a3 3 0 0 0 1.07.42c-.16 1.68-.52 2.13-1.9 2.13h-3c-1.68 0-2.14-.34-2.14-1.6v-.26h-2.65v.67h-1.21v-4.94h9.24v4.27h-4.15v.25c0 .49.17.59 1 .59zm-8.83-6.4c.86-.11 2-.29 3.23-.47v.77c-1 .25-2 .47-2.93.64zm.75-2.07a13.4 13.4 0 0 1 2.5.69l-.35.74a15.88 15.88 0 0 0 -2.52-.71zm.37 4.28v.79h2.67v-.79zm2.67 2.44v-.81h-2.67v.81zm4.12-2.43h-2.91v.79h2.91zm0 2.43v-.81h-2.91v.81zm.77-3.69a19 19 0 0 0 -3.16-.77l.27-.75a15.51 15.51 0 0 1 3.15.68zm0-2.4a17 17 0 0 1 -2.56.73l-.44-.64c.73-.19 1.81-.58 2.45-.82z"/><path d="m71.39 18.6a13.9 13.9 0 0 0 -2.39-1.6l.72-.92a13.11 13.11 0 0 1 2.45 1.46zm-2 5.3a39.17 39.17 0 0 0 2.61-4.43l.94.86c-.71 1.45-1.62 3.12-2.42 4.44zm2.86-9.06a12.67 12.67 0 0 0 -2.56-1.74l.74-.92a14.65 14.65 0 0 1 2.61 1.61zm5.56-2.38a3.3 3.3 0 0 1 -.19.43 12.62 12.62 0 0 0 3.94 4 5.14 5.14 0 0 0 -.94 1.08 15.3 15.3 0 0 1 -1.31-1.1v1h-4.61v-.87a10.66 10.66 0 0 1 -1.36 1.07 6.11 6.11 0 0 0 -.91-1 10.39 10.39 0 0 0 4.18-5zm-3.91 6.72h6.13v5.82h-1.28v-.68h-3.54v.68h-1.27zm5.21-2.56a15.25 15.25 0 0 1 -2.02-2.62 12 12 0 0 1 -1.94 2.58zm-3.94 3.71v2.77h3.54v-2.77z"/><path d="m90.33 15.46h-5v-1h2.36a14.08 14.08 0 0 0 -1-1.89l.9-.53a12.76 12.76 0 0 1 1 1.81l-.9.61h2.56zm-4.41 1.85v-1h3.84v1zm0 .83h3.85v1h-3.85zm3.85 6h-2.86v.63h-1v-4.77h3.85zm-2.86-3.06v2h1.84v-2zm10.67-6.95s0 .46 0 .63c-.18 6.52-.32 8.78-.84 9.46a1.37 1.37 0 0 1 -1.07.66 11.12 11.12 0 0 1 -1.86 0 3.15 3.15 0 0 0 -.39-1.29c.73.07 1.42.07 1.72.07a.55.55 0 0 0 .51-.24c.39-.48.56-2.6.7-8.13h-4.1c-.23.43-.47.85-.71 1.22h3.36v5.62h-2.83v.64h-1v-5.6l-.18.2a12.08 12.08 0 0 0 -1.08-.79 10.43 10.43 0 0 0 2.29-4.46l1.27.28a13 13 0 0 1 -.6 1.73zm-5.51 3.43v1.27h1.79v-1.27zm1.79 3.55v-1.26h-1.79v1.26z"/></g></svg>