<?xml version="1.0" encoding="UTF-8"?>
<svg id="b" data-name="圖層 2" xmlns="http://www.w3.org/2000/svg" width="258.4" height="42.8" viewBox="0 0 258.4 42.8">
  <defs>
    <style>
      .e {
        fill: #c54d36;
      }

      .f {
        fill: #fff;
      }
    </style>
  </defs>
  <g id="c" data-name="b">
    <g id="d" data-name="c">
      <g>
        <g>
          <path class="e" d="M258.4,42.8H0V4.5C2.49,4.5,4.5,2.49,4.5,0H253.9c0,2.49,2.02,4.5,4.5,4.5V42.8Z"/>
          <g>
            <path class="f" d="M41.38,22.73c-.08,1.58-.66,2.9-1.72,3.96s-2.63,1.86-4.7,2.39c-2.07,.53-4.68,.8-7.84,.8-2.41,0-4.57-.13-6.48-.39s-3.54-.7-4.88-1.32-2.37-1.47-3.09-2.55c-.71-1.08-1.07-2.44-1.07-4.09s.36-3.02,1.07-4.12c.71-1.1,1.74-1.98,3.09-2.64,1.35-.66,2.97-1.13,4.88-1.41s4.07-.42,6.48-.42c3.16,0,5.77,.29,7.85,.86,2.08,.57,3.65,1.42,4.71,2.53,1.06,1.11,1.64,2.47,1.72,4.06h-6.48c-.2-.53-.56-1-1.1-1.41-.53-.41-1.33-.73-2.39-.96-1.06-.23-2.5-.35-4.31-.35-2.13,0-3.85,.13-5.18,.39s-2.3,.67-2.91,1.23c-.62,.56-.92,1.31-.92,2.24,0,.85,.31,1.54,.92,2.07,.62,.53,1.59,.92,2.91,1.17s3.06,.37,5.18,.37c1.81,0,3.24-.11,4.3-.32,1.05-.22,1.85-.51,2.38-.89,.53-.38,.9-.78,1.1-1.21h6.48Z"/>
            <path class="f" d="M41.66,29.38l10.69-15.95h6.93l10.79,15.95h-6.85l-9.24-14.28h3.71l-9.17,14.28h-6.86Zm5.58-2.42v-3.74h17.04v3.74h-17.04Z"/>
            <path class="f" d="M72.06,29.38V13.43h19.26c1.51,0,2.87,.17,4.07,.51s2.16,.91,2.87,1.71,1.06,1.89,1.06,3.26c0,.91-.17,1.67-.5,2.27s-.79,1.06-1.37,1.4-1.25,.57-1.99,.72-1.53,.24-2.34,.27l-1.82-.35c1.98,.02,3.5,.1,4.57,.25s1.82,.42,2.24,.81,.64,.95,.64,1.68v3.41h-6.23v-2.67c0-.5-.1-.88-.29-1.13-.19-.26-.61-.44-1.25-.53-.64-.1-1.62-.15-2.95-.15h-9.74v4.48h-6.23Zm6.23-8.64h13.03c.5,0,.92-.08,1.26-.25,.34-.17,.51-.48,.51-.95,0-.43-.17-.73-.51-.89s-.76-.24-1.26-.24h-13.03v2.32h0Z"/>
            <path class="f" d="M101.75,13.43h25.91v4.73h-25.91v-4.73Zm9.84,4.41h6.23v11.54h-6.23v-11.54Z"/>
          </g>
        </g>
        <g>
          <path class="f" d="M164.19,21.5c-.77,1.39-1.73,2.64-2.84,3.75,.46,1.32,.99,2.11,1.51,2.11,.36,0,.57-.82,.65-2.84,.44,.48,1.13,.94,1.68,1.16-.32,3-.96,3.75-2.51,3.75-1.25,0-2.21-1.03-2.94-2.7-.99,.82-2.07,1.52-3.16,2.09-.29-.48-.86-1.18-1.35-1.64,1.32-.6,2.64-1.44,3.82-2.41-.38-1.35-.67-2.91-.87-4.59h-3.48v1.95c.87-.15,1.76-.32,2.64-.48l.15,1.85-2.79,.57v2.93c0,1.11-.24,1.66-.93,1.98-.67,.32-1.69,.41-3.08,.39-.09-.57-.43-1.49-.72-2.05,.96,.05,1.95,.04,2.26,.02,.31,0,.41-.08,.41-.36v-2.48c-1.1,.22-2.15,.44-3.06,.61l-.5-2.05c.97-.15,2.21-.34,3.56-.58v-2.3h-3.23v-1.94h3.23v-1.95c-.93,.15-1.87,.27-2.74,.38-.09-.5-.36-1.25-.58-1.71,2.4-.32,5.05-.87,6.79-1.44l1.37,1.73c-.86,.25-1.8,.48-2.79,.68v2.31h3.29c-.14-1.54-.19-3.13-.21-4.69h2.14c-.04,1.59,.04,3.18,.17,4.69h4.66v1.94h-4.45c.14,1.03,.31,2.02,.5,2.89,.61-.74,1.18-1.51,1.63-2.33l1.8,.77h-.03Zm-1.25-3.78c-.44-.79-1.51-2-2.43-2.83l1.54-1.04c.91,.79,2.04,1.92,2.53,2.72l-1.64,1.15h0Z"/>
          <path class="f" d="M184.46,16.02s0,.68-.02,.93c-.22,7.65-.41,10.37-1.11,11.28-.48,.63-.96,.82-1.64,.94-.65,.08-1.68,.07-2.69,.04-.04-.57-.31-1.42-.67-1.98,1.1,.1,2.11,.1,2.55,.1,.34,0,.53-.07,.75-.29,.5-.55,.72-3.12,.91-9.16h-3.66c-.44,1.03-.97,1.97-1.51,2.7-.27-.25-.86-.65-1.32-.96v7.99h-4.57v1.25h-1.85v-12.72h1.94c.22-.86,.43-1.95,.5-2.76l2.22,.31c-.29,.86-.6,1.71-.89,2.45h2.65v2.77c.99-1.44,1.81-3.51,2.31-5.51l1.94,.44c-.17,.74-.41,1.45-.67,2.17h4.83Zm-10.25,1.91h-2.72v2.77h2.72v-2.77Zm0,7.89v-3.35h-2.72v3.35h2.72Zm5.68-.93c-.48-1.03-1.54-2.7-2.38-3.95l1.59-.91c.86,1.18,1.98,2.81,2.51,3.8l-1.73,1.06h.01Z"/>
          <path class="f" d="M204.43,16.23c-.65,.58-1.39,1.13-2.02,1.58,.75,.39,1.58,.72,2.45,.96-.43,.39-.94,1.11-1.22,1.61-.7-.22-1.33-.5-1.95-.82v1.47c0,.41,.04,.55,.25,.55h.84c.24,0,.65-.02,.87-.08,.04,.41,.07,.99,.14,1.39-.24,.08-.63,.1-.99,.1h-1.06c-1.44,0-1.71-.58-1.71-1.97v-.99h-1.58c-.05,1.2-.46,2.48-1.88,3.39-.19-.29-.68-.79-1.03-1.1v.51h-3.39c-.07,.39-.12,.8-.17,1.18h3.56s-.02,.46-.04,.7c-.19,2.31-.39,3.42-.84,3.87-.36,.39-.77,.53-1.37,.57-.46,.05-1.35,.05-2.26,.02-.04-.53-.27-1.23-.58-1.69,.86,.07,1.69,.09,2.07,.09,.27,0,.46-.02,.61-.17,.21-.19,.36-.74,.48-1.9h-3.59c.24-1.11,.51-2.81,.67-4.16h3.03v-1.2h-2.48v-.27c-.51,.25-1.03,.48-1.56,.67-.24-.44-.74-1.13-1.1-1.49,1.01-.29,1.98-.75,2.87-1.32-.46-.34-1.08-.74-1.59-1.03l1.16-1.08c.58,.29,1.3,.7,1.8,1.08,.36-.34,.7-.7,.99-1.1h-3.37v-1.59h4.47l.34-.08,1.25,.61c-.68,1.68-1.83,3.01-3.22,4.05h2.24v3.41c1.06-.7,1.22-1.52,1.22-2.3v-1.22h3.27c-1.49-1.18-2.64-2.7-3.46-4.54l1.63-.48c.26,.58,.58,1.13,.97,1.61,.57-.48,1.2-1.1,1.61-1.58l1.46,1.04c-.7,.58-1.44,1.2-2.09,1.66,.29,.27,.6,.53,.91,.77,.65-.51,1.44-1.23,1.9-1.78l1.47,1.04h.02Zm-1.25,7.58c-.43,1.25-1.06,2.24-1.88,3.05,.77,.43,1.47,.86,1.99,1.2l-1.03,1.35c-.58-.41-1.4-.94-2.33-1.49-1.08,.67-2.4,1.15-3.82,1.47-.17-.44-.53-1.1-.86-1.47,1.11-.19,2.15-.51,3.05-.96-.84-.46-1.64-.93-2.38-1.32l.68-.82h-.41v-1.35h5.56l.31-.05,1.11,.39h.01Zm-5.68,1c.72,.38,1.51,.77,2.28,1.2,.41-.36,.77-.75,1.08-1.2h-3.36Z"/>
          <path class="f" d="M212.5,25.66c-.55,1.42-1.51,2.86-2.45,3.73-.36-.34-1.16-.89-1.63-1.15,.91-.75,1.71-1.92,2.14-3.06l1.94,.48h0Zm3.34-.61h-6.33V14.05h6.33v10.99h0Zm-1.99-9.37h-2.43v1.56h2.43v-1.56Zm0,3.06h-2.43v1.59h2.43v-1.59Zm0,3.1h-2.43v1.59h2.43v-1.59Zm.67,3.32c.75,.84,1.52,1.95,1.88,2.74l-1.71,.87c-.32-.8-1.1-2-1.81-2.89l1.64-.72h0Zm10.08-5.85h-1.85v7.77c0,1.03-.21,1.58-.79,1.9-.6,.32-1.44,.43-2.69,.43-.09-.57-.39-1.46-.68-2,.79,.04,1.54,.04,1.8,.04,.26-.02,.36-.1,.36-.36v-5.22c-1.01,1.95-2.26,3.66-3.61,4.84-.34-.46-.96-1.15-1.39-1.49,1.71-1.28,3.3-3.58,4.3-5.91h-3.77v-1.88h4.47v-3.97h2v3.97h1.85v1.88h0Z"/>
          <path class="f" d="M244.24,27.08h-6.83v2.31h-2.09v-2.31h-6.62v-1.83h6.62v-.93h-4.93v-6.86h4.93v-.82h-6.21v-1.85h6.21v-1.39h2.09v1.39h6.33v1.85h-6.33v.82h5.05v6.86h-5.05v.93h6.83v1.83Zm-11.9-6.95h2.98v-1.04h-2.98v1.04Zm2.98,2.57v-1.04h-2.98v1.04h2.98Zm2.09-3.61v1.04h3v-1.04h-3Zm3,2.57h-3v1.04h3v-1.04Z"/>
        </g>
      </g>
    </g>
  </g>
</svg>