<svg height="23.66" viewBox="0 0 31.73 23.66" width="31.73" xmlns="http://www.w3.org/2000/svg"><path d="m26.45 14.65h-16.45a3.44 3.44 0 0 1 -3.44-3.44v-8.94h-5.31" fill="none" stroke="#fff" stroke-linecap="square" stroke-miterlimit="10" stroke-width="2.5"/><g fill="#fff"><path d="m28.41 10.42h-15.95a1.13 1.13 0 0 1 -1.13-1.12v-8.12a1.14 1.14 0 0 1 1.13-1.13h17.3a1.14 1.14 0 0 1 1.12 1.32l-1.35 8.11a1.13 1.13 0 0 1 -1.12.94z"/><circle cx="12.22" cy="21.07" r="2.59"/><circle cx="21.8" cy="21.07" r="2.59"/><path d="m11.33.05v10.37h18.19l2.21-10.42z"/></g></svg>