<?xml version="1.0" encoding="UTF-8"?>
<svg id="b" data-name="圖層 2" xmlns="http://www.w3.org/2000/svg" width="860.91" height="84.52" viewBox="0 0 860.91 84.52">
  <defs>
    <style>
      .d {
        fill: #fff;
      }

      .e {
        opacity: .2;
      }

      .f {
        fill: #cf4d36;
      }
    </style>
  </defs>
  <g id="c" data-name="layoyt">
    <g>
      <g>
        <path class="f" d="M860.91,84.52H0V15c8.28,0,15-6.72,15-15H845.91c0,8.28,6.72,15,15,15V84.52Z"/>
        <g class="e">
          <g>
            <path class="d" d="M137.89,47.76c-.28,5.26-2.19,9.66-5.73,13.2s-8.76,6.2-15.65,7.97c-6.89,1.77-15.59,2.66-26.1,2.66-8.02,0-15.22-.43-21.58-1.29-6.36-.86-11.79-2.32-16.27-4.4-4.48-2.08-7.91-4.91-10.29-8.51-2.38-3.6-3.57-8.13-3.57-13.61s1.19-10.06,3.57-13.74c2.38-3.68,5.81-6.61,10.29-8.8,4.48-2.19,9.9-3.75,16.27-4.69,6.36-.94,13.56-1.41,21.58-1.41,10.51,0,19.23,.95,26.14,2.86,6.92,1.91,12.15,4.72,15.69,8.42,3.54,3.71,5.45,8.22,5.73,13.53h-21.58c-.66-1.77-1.88-3.33-3.65-4.69-1.77-1.36-4.43-2.42-7.97-3.2-3.54-.77-8.33-1.16-14.36-1.16-7.08,0-12.84,.43-17.26,1.29-4.43,.86-7.66,2.23-9.71,4.11-2.05,1.88-3.07,4.37-3.07,7.47,0,2.82,1.02,5.12,3.07,6.89,2.05,1.77,5.28,3.07,9.71,3.9,4.43,.83,10.18,1.24,17.26,1.24,6.03,0,10.8-.36,14.32-1.08,3.51-.72,6.15-1.7,7.93-2.95,1.77-1.25,2.99-2.59,3.65-4.03h21.58Z"/>
            <path class="d" d="M138.8,69.92l35.61-53.12h23.07l35.94,53.12h-22.83l-30.79-47.56h12.37l-30.54,47.56h-22.83Zm18.59-8.05v-12.45h56.77v12.45h-56.77Z"/>
            <path class="d" d="M240.06,69.92V16.8h64.16c5.04,0,9.56,.57,13.57,1.7,4.01,1.13,7.19,3.03,9.55,5.69,2.35,2.66,3.53,6.28,3.53,10.87,0,3.04-.55,5.56-1.66,7.55-1.11,1.99-2.63,3.54-4.57,4.65-1.94,1.11-4.15,1.91-6.64,2.41s-5.09,.8-7.8,.91l-6.06-1.16c6.58,.06,11.66,.33,15.23,.83,3.57,.5,6.06,1.4,7.47,2.7,1.41,1.3,2.12,3.17,2.12,5.6v11.37h-20.75v-8.88c0-1.66-.32-2.92-.96-3.78-.64-.86-2.02-1.45-4.15-1.78-2.13-.33-5.41-.5-9.84-.5h-32.45v14.94h-20.75Zm20.75-28.8h43.41c1.66,0,3.06-.28,4.19-.83,1.13-.55,1.7-1.6,1.7-3.15,0-1.44-.57-2.42-1.7-2.95-1.13-.53-2.53-.79-4.19-.79h-43.41v7.72Z"/>
            <path class="d" d="M339,16.8h86.32v15.77h-86.32v-15.77Zm32.79,14.69h20.75v38.43h-20.75V31.49Z"/>
          </g>
        </g>
      </g>
      <g>
        <path class="d" d="M625.73,41.06c-1.76,3.16-3.94,6.01-6.47,8.54,1.05,3,2.26,4.8,3.43,4.8,.82,0,1.29-1.87,1.48-6.47,1.01,1.09,2.57,2.15,3.82,2.65-.74,6.83-2.18,8.54-5.73,8.54-2.85,0-5.03-2.34-6.71-6.16-2.26,1.87-4.72,3.47-7.21,4.76-.66-1.09-1.95-2.69-3.08-3.74,3-1.37,6.01-3.28,8.7-5.5-.86-3.08-1.52-6.63-1.99-10.45h-7.92v4.45c1.99-.35,4.02-.74,6.01-1.09l.35,4.21-6.36,1.29v6.67c0,2.54-.55,3.78-2.11,4.52-1.52,.74-3.86,.94-7.02,.9-.2-1.29-.97-3.39-1.64-4.68,2.18,.12,4.45,.08,5.15,.04,.7,0,.94-.19,.94-.82v-5.66c-2.5,.51-4.91,1.01-6.98,1.4l-1.13-4.68c2.22-.35,5.03-.78,8.11-1.33v-5.23h-7.37v-4.41h7.37v-4.45c-2.11,.35-4.25,.62-6.24,.86-.2-1.13-.82-2.85-1.33-3.9,5.46-.74,11.51-1.99,15.48-3.28l3.12,3.94c-1.95,.58-4.1,1.09-6.36,1.56v5.27h7.49c-.31-3.51-.43-7.14-.47-10.69h4.88c-.08,3.63,.08,7.25,.39,10.69h10.61v4.41h-10.14c.31,2.34,.7,4.6,1.13,6.59,1.4-1.68,2.69-3.43,3.71-5.3l4.1,1.76Zm-2.85-8.58c-1.01-1.79-3.43-4.56-5.54-6.44l3.51-2.38c2.07,1.79,4.64,4.37,5.77,6.2l-3.74,2.61Z"/>
        <path class="d" d="M671.91,28.58s0,1.56-.04,2.11c-.51,17.43-.94,23.63-2.54,25.7-1.09,1.44-2.18,1.87-3.74,2.15-1.48,.19-3.82,.16-6.12,.08-.08-1.29-.7-3.24-1.52-4.52,2.5,.23,4.8,.23,5.81,.23,.78,0,1.21-.16,1.72-.66,1.13-1.25,1.64-7.1,2.07-20.87h-8.35c-1.01,2.34-2.22,4.49-3.43,6.16-.62-.58-1.95-1.48-3-2.18v18.21h-10.41v2.85h-4.21V28.85h4.41c.51-1.95,.98-4.45,1.13-6.28l5.07,.7c-.66,1.95-1.37,3.9-2.03,5.58h6.04v6.32c2.26-3.28,4.13-8,5.27-12.56l4.41,1.01c-.39,1.68-.94,3.31-1.52,4.95h11Zm-23.36,4.33h-6.2v6.32h6.2v-6.32Zm0,17.98v-7.64h-6.2v7.64h6.2Zm12.95-2.11c-1.09-2.34-3.51-6.16-5.42-9.01l3.63-2.07c1.95,2.69,4.52,6.4,5.73,8.66l-3.94,2.42Z"/>
        <path class="d" d="M717.42,29.04c-1.48,1.33-3.16,2.57-4.6,3.59,1.72,.9,3.59,1.64,5.58,2.18-.97,.9-2.14,2.54-2.77,3.67-1.6-.51-3.04-1.13-4.45-1.87v3.35c0,.94,.08,1.25,.58,1.25h1.91c.54,0,1.48-.04,1.99-.19,.08,.94,.16,2.26,.31,3.16-.55,.19-1.44,.23-2.26,.23h-2.42c-3.28,0-3.9-1.33-3.9-4.49v-2.26h-3.59c-.12,2.73-1.05,5.66-4.29,7.72-.43-.66-1.56-1.79-2.34-2.5v1.17h-7.72c-.16,.9-.27,1.83-.39,2.69h8.11s-.04,1.05-.08,1.6c-.43,5.27-.9,7.8-1.91,8.81-.82,.9-1.75,1.21-3.12,1.29-1.05,.12-3.08,.12-5.15,.04-.08-1.21-.62-2.81-1.33-3.86,1.95,.16,3.86,.2,4.72,.2,.62,0,1.05-.04,1.4-.39,.47-.43,.82-1.68,1.09-4.33h-8.19c.54-2.53,1.17-6.4,1.52-9.48h6.9v-2.73h-5.65v-.62c-1.17,.58-2.34,1.09-3.55,1.52-.55-1.01-1.68-2.57-2.5-3.39,2.3-.66,4.52-1.72,6.55-3-1.05-.78-2.46-1.68-3.63-2.34l2.65-2.46c1.33,.66,2.96,1.6,4.1,2.46,.82-.78,1.6-1.6,2.26-2.5h-7.68v-3.63h10.18l.78-.19,2.85,1.4c-1.56,3.82-4.17,6.86-7.33,9.24h5.11v7.76c2.42-1.6,2.77-3.47,2.77-5.23v-2.77h7.45c-3.39-2.69-6.01-6.16-7.88-10.34l3.71-1.09c.59,1.33,1.33,2.57,2.22,3.67,1.29-1.09,2.73-2.5,3.67-3.59l3.32,2.38c-1.6,1.33-3.28,2.73-4.76,3.78,.66,.62,1.37,1.21,2.07,1.76,1.48-1.17,3.28-2.81,4.33-4.06l3.36,2.38Zm-2.85,17.24c-.97,2.85-2.42,5.11-4.29,6.94,1.76,.98,3.36,1.95,4.53,2.73l-2.34,3.08c-1.33-.94-3.2-2.15-5.3-3.39-2.46,1.52-5.46,2.61-8.7,3.35-.39-1.01-1.21-2.5-1.95-3.35,2.54-.43,4.91-1.17,6.94-2.18-1.91-1.05-3.74-2.11-5.42-3l1.56-1.87h-.94v-3.08h12.67l.7-.12,2.54,.9Zm-12.95,2.3c1.64,.86,3.43,1.75,5.19,2.73,.94-.82,1.76-1.72,2.46-2.73h-7.64Z"/>
        <path class="d" d="M735.82,50.53c-1.25,3.24-3.43,6.51-5.58,8.5-.82-.78-2.65-2.03-3.71-2.61,2.07-1.72,3.9-4.37,4.88-6.98l4.41,1.09Zm7.61-1.4h-14.43V24.09h14.43v25.04Zm-4.53-21.37h-5.54v3.55h5.54v-3.55Zm0,6.98h-5.54v3.63h5.54v-3.63Zm0,7.06h-5.54v3.63h5.54v-3.63Zm1.52,7.57c1.72,1.91,3.47,4.45,4.29,6.24l-3.9,1.99c-.74-1.83-2.5-4.56-4.13-6.59l3.74-1.64Zm22.97-13.34h-4.21v17.71c0,2.34-.47,3.59-1.79,4.33-1.37,.74-3.28,.98-6.12,.98-.2-1.29-.9-3.32-1.56-4.56,1.79,.08,3.51,.08,4.1,.08,.59-.04,.82-.23,.82-.82v-11.9c-2.3,4.45-5.15,8.35-8.23,11.04-.78-1.05-2.18-2.61-3.16-3.39,3.9-2.92,7.53-8.15,9.79-13.46h-8.58v-4.29h10.18v-9.05h4.56v9.05h4.21v4.29Z"/>
        <path class="d" d="M808.17,53.77h-15.56v5.27h-4.76v-5.27h-15.09v-4.17h15.09v-2.11h-11.23v-15.64h11.23v-1.87h-14.16v-4.21h14.16v-3.16h4.76v3.16h14.43v4.21h-14.43v1.87h11.51v15.64h-11.51v2.11h15.56v4.17Zm-27.11-15.83h6.79v-2.38h-6.79v2.38Zm6.79,5.85v-2.38h-6.79v2.38h6.79Zm4.76-8.23v2.38h6.83v-2.38h-6.83Zm6.83,5.85h-6.83v2.38h6.83v-2.38Z"/>
      </g>
    </g>
  </g>
</svg>