<svg xmlns="http://www.w3.org/2000/svg" width="85.43" height="150.69" viewBox="0 0 85.43 150.69">
  <g id="圖層_2" data-name="圖層 2">
    <g id="圖層_1-2" data-name="圖層 1">
      <g>
        <path d="M.75,149.94H84.68V14.15A13.4,13.4,0,0,1,71.28.75H14.15A13.4,13.4,0,0,1,.75,14.15Z" style="fill: #fffbf3;stroke: #f4cfb0;stroke-miterlimit: 10;stroke-width: 0.75px"/>
        <path d="M.75,149.94H84.68V14.15A13.4,13.4,0,0,1,71.28.75H14.15A13.4,13.4,0,0,1,.75,14.15Z" style="fill: none;stroke: #f4cfb0;stroke-miterlimit: 10;stroke-width: 1.5px"/>
      </g>
      <g>
        <path d="M37.63,41.21h3.66v2.3H39.05l1.37.34c-.39.81-.8,1.59-1.17,2.33h1.58v2.3h-3.2v1.83h3.66v2.3H37.63v4.1H35.11v-4.1h-4v-2.3h4V48.48H31.7v-2.3h1.62a15.53,15.53,0,0,0-.8-2.28l1.28-.39H31.17v-2.3h3.94V39.62H31.79V37.37h3.32v-2h2.52v2h3.13v2.25H37.63Zm-.64,5a23.45,23.45,0,0,0,1.09-2.67h-3.5a10.06,10.06,0,0,1,.89,2.32l-1,.35Zm14.92-1.52A23.84,23.84,0,0,1,49.53,52a10.82,10.82,0,0,0,3.13,2.46,11.32,11.32,0,0,0-1.78,2.16,12.19,12.19,0,0,1-2.82-2.39,12.61,12.61,0,0,1-2.61,2.6,8.31,8.31,0,0,0-1.07-1.25v1.15H41.91V36.29h9.45v4.32c0,1.17-.25,1.84-1.15,2.21a10.45,10.45,0,0,1-3.77.39,9.69,9.69,0,0,0-.78-2.35c1.12,0,2.38,0,2.72,0s.46-.09.46-.35V38.68H44.38v5.5h5.45l.43-.12Zm-7.53,9.77a11.75,11.75,0,0,0,2.13-2.32,22.08,22.08,0,0,1-2.13-4.74Zm1.9-8.09a17.73,17.73,0,0,0,1.58,3.42,18.65,18.65,0,0,0,1.19-3.42Z" style="fill: #fc462d"/>
        <path d="M49.85,83H47V82H38.45v1H35.73V75.88a35,35,0,0,1-3.39,1,9.92,9.92,0,0,0-1.4-2.52,32.57,32.57,0,0,0,8-2.7c-1-1-2.36-2.13-3.6-3.1a17,17,0,0,1-2.06,1.17,10,10,0,0,0-1.87-2.18A17.12,17.12,0,0,0,39,61.42l3,.64c-.42.57-.83,1.15-1.29,1.72h6.69l.46-.13,1.87,1.12a19.47,19.47,0,0,1-7.34,7.94h7.39ZM38.38,66.27c-.3.25-.57.48-.87.71a43.77,43.77,0,0,1,3.92,3.17,17.22,17.22,0,0,0,4.28-3.88ZM47,79.54V75.19H38.45v4.35Z" style="fill: #fc462d"/>
        <path d="M35.36,98.64a21.39,21.39,0,0,0-4.28-2.49l1.44-2a20.6,20.6,0,0,1,4.35,2.25Zm-3.48,8.48a61.66,61.66,0,0,0,4.33-7.24l2,1.84c-1.21,2.39-2.68,5-4,7.24Zm4.81-14.58A21.79,21.79,0,0,0,32.43,90l1.49-2a21.57,21.57,0,0,1,4.35,2.32Zm13,16.68a10.23,10.23,0,0,0-.8-2c-7.62.92-8.79,1.11-9.54,1.5a25.39,25.39,0,0,0-1-2.74c.52-.16,1-.64,1.48-1.47a32.66,32.66,0,0,0,2.43-4.92H38V97h5.42V93.74H39v-2.6h4.51V87.72h2.77v3.42H50.9v2.6H46.23V97h5.52v2.58H45.52a43.43,43.43,0,0,1-3.18,5.91l5.38-.55a26.88,26.88,0,0,0-1.53-2.37l2.22-1.11A26.13,26.13,0,0,1,52.18,108Z" style="fill: #fc462d"/>
        <path d="M43.62,114.61l-.34.44a21.94,21.94,0,0,0,9.5,4.14,9.58,9.58,0,0,0-1.72,2.09c-.46-.11-.94-.27-1.42-.41v5.93H33.74V121c-.49.16-1,.32-1.42.43a14.94,14.94,0,0,0-1.47-2.11c4.21-1,8.29-2.9,10.37-5.57Zm5.2,6a25.64,25.64,0,0,1-3.11-1.4v.59h-8v-.46a27.91,27.91,0,0,1-2.77,1.27Zm-13.8,7H48.48v7.77h-2.8v-.55h-8v.62H35Zm2.58-2.42a9.22,9.22,0,0,0-.77-2.39l1.76-.5H36v2.89Zm.09,4.21v.92h8v-.92Zm8,3.64v-.92h-8V133Zm-5.19-10.74H38.7a10.72,10.72,0,0,1,.92,2.43l-1.47.46h2.34ZM43.78,118a23.66,23.66,0,0,1-1.92-1.49c-.59.5-1.26,1-2,1.49Zm-1.1,4.26v2.89h2.13l-1.37-.39a17.22,17.22,0,0,0,.89-2.5Zm4.54,0H44.84l1.78.43c-.46.92-.89,1.82-1.26,2.46h1.86Z" style="fill: #fc462d"/>
      </g>
      <g>
        <path d="M40.21,24.24v1.08H26.06V24.24h7.75a52.74,52.74,0,0,0,2.43-7.81l1.22.23c-.7,2.41-1.65,5.52-2.51,7.58Zm-.62-8.74H26.74V14.45H39.59Zm-9.05,8A54.16,54.16,0,0,0,29,16.69l1.06-.24a55.64,55.64,0,0,1,1.6,6.79Zm2.29-9.3a15.73,15.73,0,0,0-.78-2.58l1-.29a18.42,18.42,0,0,1,.84,2.55Z" style="fill: #9d7c52"/>
        <path d="M47.52,20.61a31.86,31.86,0,0,1,2.24,4.07l-.94.52c-.18-.44-.45-1-.77-1.64C44,25,43.46,25.25,43.14,25.49a4.77,4.77,0,0,0-.45-1.07,1.09,1.09,0,0,0,.65-1V12.27h6v7.44H44.42V23.8l3.18-1.08c-.3-.59-.65-1.18-1-1.69Zm-3.1-7.38v2.21h3.87V13.23Zm3.87,5.52V16.4H44.42v2.35Zm7.79,2.77c0,.63-.14.95-.56,1.12a6.74,6.74,0,0,1-2.33.18,4,4,0,0,0-.32-1c.88,0,1.65,0,1.85,0s.31-.08.31-.31V13.36H52V26H50.9V12.37h5.18Z" style="fill: #9d7c52"/>
      </g>
    </g>
  </g>
</svg>
