<svg xmlns="http://www.w3.org/2000/svg" width="46.57" height="46.57" viewBox="0 0 46.57 46.57">
  <g id="圖層_2" data-name="圖層 2">
    <g id="圖層_1-2" data-name="圖層 1">
      <circle cx="23.28" cy="23.28" r="23.28" style="fill: #fff"/>
      <path d="M26,15.27c.1-.11.46-.35,1.49-.35a11.38,11.38,0,0,1,1.86.17l1,.18.88-4.94-1-.19c-3.28-.61-5.91-.4-7.5.62a5.27,5.27,0,0,0-2.17,2.6,9.73,9.73,0,0,0-.43,3.31v1H17.07v4.67h3.05V36.77h5.52V22.38h4V17.71h-4V17C25.64,15.67,25.92,15.32,26,15.27Z" style="fill: #ec6531"/>
    </g>
  </g>
</svg>
