<svg height="82.17" viewBox="0 0 1907.43 82.17" width="1907.43" xmlns="http://www.w3.org/2000/svg"><g fill="#e8b356" opacity=".2"><path d="m31.13 0v56h72.58v23.68h-103.71v-79.68z"/><path d="m228.1 34.24v-34.24h31.12v39.84q0 10.59-3.92 18a33.88 33.88 0 0 1 -10.89 12.16 55.09 55.09 0 0 1 -16.06 7.4 111 111 0 0 1 -19.49 3.68 209.94 209.94 0 0 1 -21.1 1q-11.34 0-21.92-1a109.6 109.6 0 0 1 -19.61-3.68 51.73 51.73 0 0 1 -15.75-7.4 33.63 33.63 0 0 1 -10.48-12.17q-3.79-7.39-3.8-18v-39.83h31.13v34.24q0 10 4.86 15.19t13.81 7.16a105.25 105.25 0 0 0 21.73 1.93 104 104 0 0 0 21.41-1.93q9.09-1.94 14-7.16t4.96-15.19z"/><path d="m401.53 55.28-11.53 6.6v-61.88h31.13v79.68h-31.13l-93.8-54.28 11.58-6.72v61h-31.13v-79.68h31.13z"/><path d="m431 79.68 53.45-79.68h34.62l53.93 79.68h-34.26l-46.19-71.34h18.55l-45.82 71.34zm27.89-12.07v-18.68h85.16v18.68z"/><path d="m582.94 79.68v-79.68h96.24a75 75 0 0 1 20.36 2.55 29.17 29.17 0 0 1 14.31 8.53q5.29 6 5.3 16.31a23.12 23.12 0 0 1 -2.49 11.33 17.86 17.86 0 0 1 -6.85 7 32.61 32.61 0 0 1 -10 3.61 74.31 74.31 0 0 1 -11.71 1.37l-9.08-1.74a186.48 186.48 0 0 1 22.84 1.25q8 1.11 11.21 4c2.11 2 3.17 4.76 3.17 8.41v17.06h-31.08v-13.32a9.36 9.36 0 0 0 -1.44-5.66c-1-1.29-3-2.18-6.22-2.68a104.87 104.87 0 0 0 -14.75-.75h-48.69v22.41zm31.12-43.2h65.12a14.28 14.28 0 0 0 6.29-1.24q2.53-1.24 2.53-4.74a4.43 4.43 0 0 0 -2.55-4.42 15.06 15.06 0 0 0 -6.29-1.18h-65.1z"/><path d="m899.81 55.28-11.58 6.6v-61.88h31.12v79.68h-31.12l-93.76-54.28 11.58-6.72v61h-31.13v-79.68h31.13z"/><path d="m967.91 46.07v9.93h94.62v23.68h-125.75v-79.68h125.51v23.66h-94.38v10h77.19v12.41z"/><path d="m1117.07 79.68-44.58-79.68h35.12l37.6 74.08-11.83.25 35.23-74.33h37.6l35.24 74.33-11.83-.25 37.6-74.08h34.62l-44.08 79.68h-42.08l-34.37-67.1h12.21l-34.37 67.1z"/><path d="m1475.52 0-50.42 59.39v20.29h-31.1v-20.29l-50.46-59.39h36.73l41 51.67h-23l40.52-51.67z"/><path d="m1516 46.07v9.93h94.63v23.68h-125.77v-79.68h125.5v23.66h-94.36v10h77.2v12.41z"/><path d="m1619.33 79.68 53.41-79.68h34.61l53.91 79.68h-34.26l-46.17-71.34h18.55l-45.82 71.34zm27.88-12.07v-18.68h85.17v18.68z"/><path d="m1771.22 79.68v-79.68h96.25a74.88 74.88 0 0 1 20.35 2.55 29.2 29.2 0 0 1 14.32 8.53q5.29 6 5.29 16.31a23.12 23.12 0 0 1 -2.49 11.33 17.8 17.8 0 0 1 -6.85 7 32.42 32.42 0 0 1 -10 3.61 74 74 0 0 1 -11.7 1.37l-9.09-1.74a186.67 186.67 0 0 1 22.85 1.25q8 1.11 11.2 4c2.12 2 3.18 4.76 3.18 8.41v17.06h-31.13v-13.32a9.43 9.43 0 0 0 -1.4-5.66c-1-1.29-3-2.18-6.23-2.68a104.67 104.67 0 0 0 -14.75-.75h-48.68v22.41zm31.13-43.2h65.12a14.23 14.23 0 0 0 6.28-1.24c1.7-.83 2.56-2.41 2.56-4.74a4.44 4.44 0 0 0 -2.56-4.42 15 15 0 0 0 -6.28-1.18h-65.12z"/></g></svg>