<svg xmlns="http://www.w3.org/2000/svg" width="45.95" height="45.95" viewBox="0 0 45.95 45.95">
  <g id="圖層_2" data-name="圖層 2">
    <g id="圖層_1-2" data-name="圖層 1">
      <circle cx="22.98" cy="22.98" r="22.98" transform="translate(-9.52 22.98) rotate(-45)" style="fill: #fff"/>
      <g>
        <path d="M18.68,17.73H17.13a.43.43,0,0,0-.43.43v9.63a.43.43,0,0,0,.43.43h1.55a.43.43,0,0,0,.43-.43V18.16a.43.43,0,0,0-.43-.43" style="fill: #ec6531"/>
        <path d="M29.34,17.73H27.79a.44.44,0,0,0-.43.43v5.72L23,17.93l0-.05h0l0,0h0a0,0,0,0,0,0,0h0l0,0H21.05a.43.43,0,0,0-.43.43v9.63a.43.43,0,0,0,.43.43H22.6a.44.44,0,0,0,.43-.43V22.07l4.41,6a.38.38,0,0,0,.11.11h0l0,0h.1l.11,0h1.55a.43.43,0,0,0,.43-.43V18.16a.43.43,0,0,0-.43-.43" style="fill: #ec6531"/>
        <path d="M15,25.81H10.74V18.16a.44.44,0,0,0-.43-.43H8.76a.43.43,0,0,0-.43.43v9.63h0a.38.38,0,0,0,.12.29h0a.45.45,0,0,0,.3.12H15a.44.44,0,0,0,.43-.43V26.24a.43.43,0,0,0-.43-.43" style="fill: #ec6531"/>
        <path d="M37.9,20.14a.43.43,0,0,0,.43-.43V18.16a.43.43,0,0,0-.43-.43H31.71a.42.42,0,0,0-.3.13h0a.38.38,0,0,0-.12.29h0v9.63h0a.43.43,0,0,0,.12.29h0a.45.45,0,0,0,.3.12H37.9a.43.43,0,0,0,.43-.43V26.24a.43.43,0,0,0-.43-.43H33.69V24.18H37.9a.43.43,0,0,0,.43-.43V22.2a.43.43,0,0,0-.43-.43H33.69V20.14Z" style="fill: #ec6531"/>
      </g>
    </g>
  </g>
</svg>
