<svg xmlns="http://www.w3.org/2000/svg" width="72.07" height="21.31" viewBox="0 0 72.07 21.31">
  <g id="圖層_2" data-name="圖層 2">
    <g id="圖層_1-2" data-name="圖層 1">
      <g>
        <path d="M9.71,14.8a1.5,1.5,0,0,0-1-1,7.65,7.65,0,0,0-2.31-.1,15.43,15.43,0,0,1-2.6,0A3.93,3.93,0,0,1,.25,11.3,3.45,3.45,0,0,1,.11,9.15a4.19,4.19,0,0,1,1.22-2A7.07,7.07,0,0,1,3.69,5.69a6.42,6.42,0,0,1,2.73-.48A4.28,4.28,0,0,1,8.71,6a4.14,4.14,0,0,1,1.45,1.88L7.43,8.94A2,2,0,0,0,6.3,7.75a2.58,2.58,0,0,0-1.81.13,2.71,2.71,0,0,0-1.39,1A1.4,1.4,0,0,0,3,10.24a1.35,1.35,0,0,0,1.07.83,8.11,8.11,0,0,0,2.23.07,8.83,8.83,0,0,1,4.08.41,3.68,3.68,0,0,1,2.07,2.16,3.43,3.43,0,0,1-.24,3.21,6.18,6.18,0,0,1-3.12,2.35,7.33,7.33,0,0,1-3,.53A4.76,4.76,0,0,1,3.56,19,4.24,4.24,0,0,1,2,17L4.76,16c.57,1.46,1.73,1.84,3.47,1.16a2.7,2.7,0,0,0,1.37-1A1.37,1.37,0,0,0,9.71,14.8Z" style="fill: #fff"/>
        <path d="M27.63,14.38l-2.88.53-1.1-6L18,10l1.1,6-2.88.53-2.57-14L16.56,2l1,5.67,5.62-1-1-5.66L25.06.4Z" style="fill: #fff"/>
        <path d="M39,11.35l-5.14-.08-1,2.91-3.12,0L35.25,0,38,.05,43,14.35l-3.11,0Zm-4.3-2.44L38.24,9l-1.7-5.35Z" style="fill: #fff"/>
        <path d="M51.15,10.69l-2.28-.48-1.07,5.1-2.86-.6L47.84.79,53,1.87a6,6,0,0,1,3.57,1.89,3.89,3.89,0,0,1,.7,3.38,4.36,4.36,0,0,1-1.12,2.25A4.33,4.33,0,0,1,54,10.52l1.83,6.31,0,.14-3.08-.65Zm-1.8-2.8,2.31.48a2.45,2.45,0,0,0,1.79-.2,2,2,0,0,0,.91-1.4,2.1,2.1,0,0,0-.24-1.66,2.38,2.38,0,0,0-1.6-.92l-2.3-.48Z" style="fill: #fff"/>
        <path d="M68.19,15.23,63,13.14l-1.41,3.53,6.13,2.46-.88,2.18L58,17.77l5.29-13.2,8.83,3.54-.88,2.2L65.08,7.86,63.82,11,69,13.1Z" style="fill: #fff"/>
      </g>
    </g>
  </g>
</svg>
