<?xml version="1.0" encoding="UTF-8"?>
<svg id="b" data-name="圖層 2" xmlns="http://www.w3.org/2000/svg" width="378.6" height="48.38" viewBox="0 0 378.6 48.38">
  <defs>
    <style>
      .d {
        fill: #e8b356;
      }

      .e {
        fill: #ca954a;
      }

      .f {
        opacity: .2;
      }
    </style>
  </defs>
  <g id="c" data-name="圖層 2">
    <g>
      <path class="e" d="M102.85,28.73h4.59v2.87h-2.81l1.72,.43c-.49,1-1,1.98-1.46,2.9h1.98v2.87h-4.02v2.29h4.59v2.87h-4.59v5.11h-3.16v-5.11h-4.96v-2.87h4.96v-2.29h-4.27v-2.87h2.04c-.2-.86-.63-1.95-1-2.84l1.61-.49h-3.3v-2.87h4.93v-1.98h-4.16v-2.81h4.16v-2.47h3.16v2.47h3.93v2.81h-3.93v1.98Zm-.8,6.2c.52-1.06,1.03-2.29,1.38-3.33h-4.39c.49,.98,.98,2.12,1.12,2.9l-1.29,.43h3.18Zm18.7-1.89c-.55,3.39-1.55,6.51-2.98,9.18,1.15,1.29,2.47,2.32,3.93,3.07-.72,.63-1.72,1.86-2.24,2.7-1.29-.77-2.47-1.78-3.53-2.98-.95,1.26-2.04,2.32-3.27,3.24-.32-.49-.83-1.03-1.35-1.55v1.43h-3.1V22.59h11.85v5.39c0,1.46-.32,2.29-1.43,2.75-1.09,.46-2.64,.49-4.73,.49-.14-.92-.57-2.09-.98-2.93,1.41,.06,2.98,.06,3.41,.06,.43-.03,.57-.11,.57-.43v-2.35h-5.59v6.86h6.83l.55-.14,2.07,.75Zm-9.44,12.19c1.03-.83,1.89-1.81,2.67-2.9-1.09-1.75-1.95-3.76-2.67-5.91v8.81Zm2.38-10.1c.52,1.49,1.18,2.95,1.98,4.27,.63-1.32,1.12-2.78,1.49-4.27h-3.47Z"/>
      <path class="e" d="M149.73,48.18h-3.53v-1.26h-10.76v1.26h-3.41v-8.89c-1.41,.49-2.81,.86-4.25,1.2-.32-.92-1.12-2.38-1.75-3.16,3.47-.69,6.91-1.84,9.98-3.36-1.23-1.2-2.95-2.67-4.5-3.87-.8,.52-1.66,1.03-2.58,1.46-.52-.83-1.58-2.12-2.35-2.73,4.68-2.04,7.83-4.91,9.58-7.6l3.82,.8c-.52,.72-1.03,1.43-1.61,2.15h8.38l.57-.17,2.35,1.41c-1.98,4.13-5.25,7.4-9.21,9.9h9.27v12.85Zm-14.37-20.88c-.37,.32-.72,.6-1.09,.89,1.66,1.2,3.64,2.75,4.91,3.96,2.12-1.38,3.96-3.01,5.36-4.85h-9.18Zm10.84,16.55v-5.42h-10.76v5.42h10.76Z"/>
      <path class="e" d="M163.13,34.99c-1.12-.95-3.53-2.29-5.36-3.1l1.81-2.55c1.78,.69,4.22,1.86,5.45,2.81l-1.89,2.84Zm-4.36,10.59c1.55-2.18,3.73-5.71,5.42-9.04l2.52,2.29c-1.52,2.98-3.36,6.25-5.05,9.04l-2.9-2.29Zm6.02-18.19c-1.15-.98-3.5-2.35-5.34-3.18l1.86-2.52c1.81,.72,4.25,1.98,5.45,2.9l-1.98,2.81Zm16.35,20.8c-.2-.75-.55-1.64-1-2.52-9.55,1.15-11.02,1.38-11.96,1.86-.2-.75-.77-2.44-1.2-3.41,.66-.2,1.2-.8,1.86-1.84,.52-.77,1.89-3.3,3.04-6.14h-5.39v-3.21h6.8v-4.04h-5.65v-3.24h5.65v-4.27h3.47v4.27h5.85v3.24h-5.85v4.04h6.91v3.21h-7.8c-1.15,2.61-2.58,5.19-3.99,7.37l6.74-.69c-.6-1.03-1.26-2.07-1.92-2.95l2.78-1.38c1.89,2.5,3.99,5.82,4.73,8.15l-3.07,1.55Z"/>
      <path class="e" d="M205.05,22.22c-.14,.17-.29,.37-.43,.55,2.64,2.29,7.34,4.27,11.91,5.16-.72,.6-1.69,1.81-2.15,2.61-.57-.14-1.18-.34-1.78-.52v7.4h-19.94v-7.23c-.6,.2-1.2,.4-1.78,.55-.34-.63-1.26-2.01-1.84-2.64,5.28-1.23,10.38-3.61,12.99-6.94l3.01,1.06Zm6.51,7.43c-1.35-.49-2.64-1.09-3.9-1.75v.75h-10.07v-.57c-1.12,.57-2.27,1.12-3.47,1.58h17.44Zm-17.3,8.72h16.87v9.7h-3.5v-.69h-10.01v.77h-3.36v-9.78Zm3.24-3.01c-.14-.89-.52-2.07-.98-2.98l2.21-.63h-3.24v3.61h2.01Zm.11,5.25v1.15h10.01v-1.15h-10.01Zm10.01,4.53v-1.15h-10.01v1.15h10.01Zm-6.51-13.4h-2.24c.52,.98,.98,2.21,1.15,3.04l-1.84,.57h2.93v-3.61Zm4.13-5.31c-.86-.6-1.69-1.23-2.41-1.86-.75,.63-1.58,1.26-2.44,1.86h4.85Zm-1.38,5.31v3.61h2.67l-1.72-.49c.4-.86,.86-2.18,1.12-3.13h-2.07Zm5.68,0h-2.98l2.24,.55c-.57,1.15-1.12,2.27-1.58,3.07h2.32v-3.61Z"/>
      <path class="e" d="M226.26,35.22c-1.18-.83-3.64-2.18-5.34-3.1l1.84-2.52c1.58,.77,4.13,2.01,5.39,2.78l-1.89,2.84Zm-4.93,10.33c1.52-2.15,3.73-5.71,5.45-9.04l2.5,2.29c-1.52,3.01-3.33,6.28-5.08,9.06l-2.87-2.32Zm6.17-18.16c-1.12-.86-3.56-2.21-5.22-3.16l1.92-2.47c1.61,.8,4.1,2.07,5.34,2.87l-2.04,2.75Zm12.71,5.59v3.61h5.85v11.45h-3.24v-1.03h-8.63v1.18h-3.07v-11.59h5.85v-3.61h-7.63v-3.27h7.63v-3.36c-1.89,.29-3.79,.49-5.59,.66-.11-.83-.57-2.15-.95-2.93,4.88-.49,10.24-1.43,13.4-2.7l2.64,2.7c-1.86,.72-3.99,1.26-6.25,1.69v3.93h7.29v3.27h-7.29Zm2.61,6.71h-8.63v4.22h8.63v-4.22Z"/>
      <path class="e" d="M278.53,27.84s-.03,1.12-.03,1.52c-.26,11.73-.49,15.89-1.41,17.21-.66,.95-1.32,1.23-2.27,1.43-.86,.17-2.18,.14-3.56,.11-.06-.95-.43-2.32-1-3.27,1.26,.11,2.35,.14,2.9,.14,.43,0,.72-.11,.98-.49,.6-.77,.89-4.27,1.06-13.54h-2.58c-.37,7.69-1.69,13.6-6.51,17.41-.43-.69-1.26-1.64-2.01-2.27-4.13,.43-8.26,.86-11.36,1.12l-.4-2.87c1.61-.11,3.61-.26,5.82-.4v-1.72h-5.05v-2.41h5.05v-1.12h-4.93v-8.86h4.93v-1.12h-5.65v-2.47h5.65v-1.15c-1.66,.11-3.3,.2-4.85,.23-.11-.69-.43-1.75-.75-2.41,4.25-.23,9.21-.72,12.36-1.41l1.49,2.55c-1.52,.32-3.3,.57-5.16,.77v1.41h5.51v1.58h2.7c.03-1.89,.03-3.87,.03-6h3.27c0,2.09,0,4.1-.06,6h5.82Zm-22.6,5.42h2.24v-1.26h-2.24v1.26Zm2.24,3.33v-1.29h-2.24v1.29h2.24Zm3.1,7.11c1.64-.11,3.33-.26,4.99-.4,2.24-3.1,2.93-7.2,3.13-12.34h-2.61v-2.24h-5.51v1.12h5.08v8.86h-5.08v1.12h5.19v2.41h-5.19v1.46Zm2.24-10.44v-1.26h-2.24v1.26h2.24Zm-2.24,2.04v1.29h2.24v-1.29h-2.24Z"/>
    </g>
    <g class="f">
      <g>
        <path class="d" d="M45.05,14.82c-.13,2.39-.99,4.39-2.6,5.99-1.61,1.61-3.98,2.82-7.11,3.62-3.13,.8-7.08,1.21-11.86,1.21-3.64,0-6.91-.19-9.8-.58-2.89-.39-5.35-1.06-7.39-2-2.04-.94-3.59-2.23-4.67-3.86-1.08-1.63-1.62-3.69-1.62-6.18s.54-4.57,1.62-6.24c1.08-1.67,2.64-3,4.67-4,2.04-.99,4.5-1.7,7.39-2.13,2.89-.43,6.16-.64,9.8-.64,4.77,0,8.73,.43,11.87,1.3,3.14,.87,5.52,2.14,7.12,3.83,1.61,1.68,2.48,3.73,2.6,6.14h-9.8c-.3-.8-.85-1.51-1.66-2.13-.8-.62-2.01-1.1-3.62-1.45-1.61-.35-3.78-.53-6.52-.53-3.22,0-5.83,.19-7.84,.58-2.01,.39-3.48,1.01-4.41,1.87-.93,.85-1.4,1.99-1.4,3.39,0,1.28,.46,2.32,1.4,3.13,.93,.8,2.4,1.39,4.41,1.77,2.01,.38,4.62,.57,7.84,.57,2.74,0,4.91-.16,6.5-.49,1.6-.33,2.8-.77,3.6-1.34,.8-.57,1.36-1.17,1.66-1.83h9.8Z"/>
        <path class="d" d="M59.41,14.7v3.02h28.65v7.16H49.99V.75h38V7.92h-28.57v3.02h23.37v3.77h-23.37Z"/>
        <path class="d" d="M92.96,24.88V.75h29.14c2.29,0,4.34,.26,6.16,.77,1.82,.52,3.27,1.38,4.34,2.58,1.07,1.21,1.6,2.85,1.6,4.94,0,1.38-.25,2.53-.75,3.43-.5,.9-1.19,1.61-2.07,2.11-.88,.5-1.88,.87-3.02,1.09-1.13,.23-2.31,.36-3.54,.41l-2.75-.53c2.99,.03,5.3,.15,6.92,.38,1.62,.23,2.75,.64,3.39,1.23,.64,.59,.96,1.44,.96,2.54v5.16h-9.42v-4.03c0-.75-.15-1.33-.43-1.72-.29-.39-.92-.66-1.88-.81-.97-.15-2.46-.23-4.47-.23h-14.74v6.79h-9.42Zm9.42-13.08h19.72c.75,0,1.39-.13,1.9-.38,.51-.25,.77-.73,.77-1.43,0-.65-.26-1.1-.77-1.34-.52-.24-1.15-.36-1.9-.36h-19.72v3.51Z"/>
        <path class="d" d="M148.83,14.7v3.02h28.65v7.16h-38.07V.75h38V7.92h-28.57v3.02h23.37v3.77h-23.37Z"/>
        <path class="d" d="M212.31,22.02h-5.65L227.24,.75h9.42V24.88h-9.42V8.44l2.83,1.17-14.89,15.27h-11.31l-14.93-15.23,2.87-1.17V24.88h-9.42V.75h9.42l20.51,21.26Z"/>
        <path class="d" d="M264.37,25.63c-5.48,0-9.89-.48-13.23-1.45-3.34-.97-5.77-2.4-7.29-4.3-1.52-1.9-2.28-4.25-2.28-7.07s.76-5.17,2.28-7.07c1.52-1.9,3.95-3.33,7.29-4.3,3.34-.97,7.75-1.45,13.23-1.45s9.89,.48,13.23,1.45c3.34,.97,5.77,2.4,7.29,4.3,1.52,1.9,2.28,4.25,2.28,7.07s-.76,5.17-2.28,7.07c-1.52,1.9-3.95,3.33-7.29,4.3-3.34,.97-7.75,1.45-13.23,1.45Zm0-7.16c2.59,0,4.83-.16,6.71-.47,1.88-.31,3.34-.88,4.37-1.7,1.03-.82,1.55-1.98,1.55-3.49s-.52-2.67-1.55-3.49c-1.03-.82-2.49-1.38-4.37-1.7-1.89-.31-4.12-.47-6.71-.47s-4.86,.16-6.8,.47c-1.95,.31-3.47,.88-4.56,1.7-1.09,.82-1.64,1.98-1.64,3.49s.55,2.67,1.64,3.49c1.09,.82,2.61,1.38,4.56,1.7,1.95,.31,4.22,.47,6.8,.47Z"/>
        <path class="d" d="M329.89,17.49l-3.51,2V.75h9.42V24.88h-9.42l-28.39-16.44,3.51-2.04V24.88h-9.42V.75h9.42l28.39,16.74Z"/>
        <path class="d" d="M378.6,.75l-15.27,17.98v6.14h-9.42v-6.14L338.64,.75h11.12l12.4,15.64h-6.97l12.29-15.64h11.12Z"/>
      </g>
    </g>
  </g>
</svg>