<?xml version="1.0" encoding="UTF-8"?>
<svg id="b" data-name="圖層 2" xmlns="http://www.w3.org/2000/svg" width="1408.79" height="99.78" viewBox="0 0 1408.79 99.78">
  <defs>
    <style>
      .d {
        fill: #fff;
      }

      .e {
        opacity: .2;
      }
    </style>
  </defs>
  <g id="c" data-name="圖層 1">
    <g class="e">
      <g>
        <path class="d" d="M48.31,82.17L0,2.49H35.11l41.21,76.57h-12.7L104.83,2.49h34.61l-47.81,79.68H48.31Z"/>
        <path class="d" d="M216.02,84.66c-18.1,0-32.66-1.6-43.7-4.79-11.04-3.19-19.07-7.93-24.09-14.19-5.02-6.27-7.53-14.05-7.53-23.34s2.51-17.08,7.53-23.35c5.02-6.27,13.05-11,24.09-14.19,11.04-3.19,25.61-4.79,43.7-4.79s32.66,1.6,43.7,4.79c11.04,3.2,19.07,7.93,24.09,14.19,5.02,6.27,7.53,14.05,7.53,23.35s-2.51,17.08-7.53,23.34c-5.02,6.27-13.05,11-24.09,14.19-11.04,3.19-25.61,4.79-43.7,4.79Zm0-23.66c8.55,0,15.94-.52,22.16-1.56,6.23-1.04,11.04-2.9,14.44-5.6,3.4-2.7,5.1-6.54,5.1-11.52s-1.7-8.82-5.1-11.52c-3.41-2.7-8.22-4.56-14.44-5.6-6.23-1.04-13.61-1.56-22.16-1.56s-16.04,.52-22.47,1.56c-6.43,1.04-11.45,2.91-15.07,5.6-3.61,2.7-5.42,6.54-5.42,11.52s1.81,8.82,5.42,11.52c3.61,2.7,8.63,4.57,15.07,5.6,6.43,1.04,13.92,1.56,22.47,1.56Z"/>
        <path class="d" d="M300.06,2.49h129.49V26.15h-129.49V2.49Zm49.18,22.04h31.13v57.65h-31.13V24.53Z"/>
        <path class="d" d="M443.86,2.49h31.13V82.17h-31.13V2.49Z"/>
        <path class="d" d="M536.37,82.17L488.06,2.49h35.11l41.21,76.57h-12.7L592.9,2.49h34.61l-47.81,79.68h-43.33Z"/>
        <path class="d" d="M669.84,48.56v9.96h94.62v23.66h-125.75V2.49h125.5V26.15h-94.38v9.96h77.19v12.45h-77.19Z"/>
        <path class="d" d="M850.38,2.49V58.52h72.59v23.66h-103.71V2.49h31.13Z"/>
        <path class="d" d="M929.19,82.17L982.6,2.49h34.61l53.91,79.68h-34.24l-46.19-71.34h18.55l-45.82,71.34h-34.24Zm27.89-12.08v-18.68h85.16v18.68h-85.16Z"/>
        <path class="d" d="M1179.94,72.71h-18.68L1229.25,2.49h31.13V82.17h-31.13V27.89l9.34,3.86-49.18,50.42h-37.35l-49.3-50.3,9.46-3.86v54.16h-31.13V2.49h31.13l67.73,70.22Z"/>
        <path class="d" d="M1306.69,61.63v-21.79h62.13c2.49,0,4.59-.39,6.29-1.18,1.7-.79,2.55-2.47,2.55-5.04s-.85-4.36-2.55-5.1c-1.7-.75-3.8-1.12-6.29-1.12h-60.14v54.78h-31.13V2.49h86.41c6.23,0,12.06,.44,17.49,1.31,5.44,.87,10.19,2.43,14.26,4.67,4.07,2.24,7.26,5.4,9.59,9.46,2.32,4.07,3.49,9.3,3.49,15.69s-1.16,11.46-3.49,15.19c-2.32,3.74-5.52,6.52-9.59,8.34-4.07,1.83-8.82,3.03-14.26,3.61-5.44,.58-11.27,.87-17.49,.87h-57.27Z"/>
      </g>
    </g>
    <g>
      <path class="d" d="M325.07,73.68c2.8,3.15,7.05,5.85,11.55,7.25-1.2,1.1-2.95,3.25-3.75,4.7-2.1-.85-4.15-1.9-6-3.25,2.35,3.35,4.5,7.1,5.6,9.9l-5.15,2.3c-1.1-3.4-4.1-8.65-6.85-12.45l4.05-1.65c-2.25-1.95-4.2-4.3-5.75-6.8h-11.2c-1.9,3.1-4.45,5.9-7.35,8.15l4.45,1.85c-1.6,3.7-3.8,7.95-6.6,10.7l-4.95-2.9c2.5-2.25,4.7-5.65,6.1-8.85-1.85,1.35-3.85,2.5-5.8,3.5-.9-1.2-3-3.5-4.2-4.55,4.5-1.75,8.6-4.45,11.35-7.9h-9.75v-5.45h11.3v-4.8h-8.25v-5.45h8.25v-5.3h5.9v5.3h9.8v-5.3h6v5.3h8.4v5.45h-8.4v4.8h11.65v5.45h-10.4Zm-18,3.7h5.65v15.9c0,2.75-.45,4.25-2.35,5.15-1.75,.9-4.3,.95-7.6,.95-.25-1.65-.95-3.95-1.7-5.55,2.15,.1,4.4,.1,5.15,.1,.65,0,.85-.15,.85-.75v-15.8Zm.95-9.15h9.8v-4.8h-9.8v4.8Zm10.75,14.3c1.35,3.35,2.45,7.7,2.85,10.65l-5.1,1.15c-.25-2.9-1.35-7.4-2.55-10.8l4.8-1Z"/>
      <path class="d" d="M369.72,65.53h-17.7v-4.7h7.6c-.45-1.9-1.5-4.5-2.35-6.55l5-1.45c1,2.1,2.15,4.9,2.7,6.65l-3.95,1.35h8.7v4.7Zm-1.4,13.45h-15v-4.5h15v4.5Zm.05,17.65h-10v2h-5.05v-17.1h15.05v15.1Zm-15-28.95h15v4.5h-15v-4.5Zm5,18.55v5.75h4.85v-5.75h-4.85Zm37.6,7.75c0,2.5-.45,3.8-2.2,4.55-1.65,.75-4,.85-7.15,.8-.2-1.4-.9-3.4-1.55-4.7,1.85,.05,3.95,.05,4.55,.05,.65,0,.85-.2,.85-.75v-2.1h-13.55c-.6,2.9-1.75,5.75-3.65,7.95-.85-1.05-3.05-3.1-4.2-3.75,2.95-3.5,3.25-8.2,3.25-12.1v-8.9h23.65v18.95Zm2.4-25.25v4.25h-28.4v-4.25h11.1v-2.2h-9.1v-3.95h9.1v-2h-10.35v-4.25h10.35v-3.65h5.75v3.65h10.9v4.25h-10.9v2h9.9v3.95h-9.9v2.2h11.55Zm-7.9,19.25v-2.4h-12.8c-.05,.8-.1,1.6-.15,2.4h12.95Zm-12.8-8.6v2.35h12.8v-2.35h-12.8Z"/>
      <path class="d" d="M454.92,59.93c-2.85,4.55-6.85,8.4-11.55,11.6,5.3,2.35,11.35,4.1,17.7,5.1-1.3,1.35-3,3.9-3.85,5.55-1.6-.3-3.1-.7-4.65-1.1v18.2h-6.4v-1.65h-18.1v1.85h-6.05v-18.45c-1.9,.55-3.8,1.05-5.7,1.45-.6-1.6-1.85-4-2.9-5.35,6.2-1.15,12.65-3.1,18.4-5.7-2.15-1.6-4.15-3.35-6-5.25-2.25,2.05-4.65,3.8-7,5.3-.95-1.2-3.15-3.45-4.4-4.45,6.35-3.3,12.45-8.8,15.9-14.85l5.65,1.95c-.7,1.1-1.4,2.25-2.2,3.35h15.85l1-.3,4.3,2.75Zm-3.7,20.8c-4.95-1.45-9.6-3.3-13.8-5.7-4.45,2.4-9.35,4.25-14.3,5.7h28.1Zm-5.05,11.65v-6.25h-18.1v6.25h18.1Zm-16.4-29.8c2.1,2.15,4.75,4.1,7.65,5.9,2.95-1.8,5.55-3.7,7.65-5.9h-15.3Z"/>
      <path class="d" d="M519.82,58.83c-1.55,5.25-3.9,9.7-6.95,13.45,2.9,2.3,6.35,4.3,10.35,5.55-1.2,1.15-2.9,3.45-3.7,5l-.1-.05v16.35h-5.7v-1.55h-9.4v1.7h-5.5v-16.25l-1.15,.5c-.4-.8-1.1-1.9-1.85-2.85v1.45h-5.5v6.65l5.9-1.35,.55,5.25c-7,1.75-14.6,3.5-20.25,4.8l-1.05-5.7,2.25-.4v-16.8h4.85v15.8l2.5-.5v-18.8h-7v-16.55h17.25v12.4c3.65-3.5,6.65-8.8,8.3-14.25l5.65,1.4c-.4,1.1-.8,2.25-1.25,3.35h7l1.05-.2,3.75,1.6Zm-36.55,7.15h6.6v-6.35h-6.65l.05,6.35Zm12.55,12.5c3.45-1.5,6.75-3.65,9.55-6.25-1.2-1.45-2.2-2.95-3.1-4.4-.95,1.25-1.95,2.4-2.95,3.45-.85-.9-2.65-2.5-4-3.4v3.2h-5v5.85h5.5v1.55Zm19.55,2.35c-2.3-1.35-4.35-2.85-6.25-4.55-1.9,1.75-3.95,3.2-6.15,4.55h12.4Zm-1.65,11.65v-6.65h-9.4v6.65h9.4Zm-8.1-30l-.4,.75c1,1.7,2.25,3.45,3.65,5.15,1.45-1.85,2.65-3.8,3.65-5.9h-6.9Z"/>
      <path class="d" d="M555.92,63.03c-1.35,3.75-3.2,7.3-5.4,10.55,1.95,1.75,5.3,5.2,6.2,6.2l-3.35,4.95c-.85-1.3-2.2-3.1-3.55-4.9v19.5h-5.45v-18.3c-1.75,1.65-3.45,3.15-5.25,4.35-.3-1.7-1.4-4.95-2.1-6.1,4.65-2.7,9.15-7.6,12-12.9h-10.7v-5.35h8.25c-.95-1.8-2.45-4.15-3.7-5.9l4.65-2.5c1.55,1.95,3.35,4.55,4.2,6.25l-3.5,2.15h3.85l.95-.25,2.9,2.25Zm26.85-3.2v27.25h-5.6v-1.8h-4.55v14.05h-5.8v-14.05h-4.5v2.3h-5.4v-27.75h9.9v-7.2h5.8v7.2h10.15Zm-20.45,5.3v4.8h4.5v-4.8h-4.5Zm4.5,14.9v-4.9h-4.5v4.9h4.5Zm5.8-14.9v4.8h4.55v-4.8h-4.55Zm4.55,14.9v-4.9h-4.55v4.9h4.55Z"/>
      <path class="d" d="M607.12,85.93v4.3h-5.5V55.38h16.65v30.55h-11.15Zm0-25.15v7.1h5.65v-7.1h-5.65Zm5.65,19.75v-7.35h-5.65v7.35h5.65Zm31.8,12c0,3.15-.65,4.7-2.6,5.7-1.95,.95-4.85,1.1-9.05,1.1-.25-1.65-1.2-4.25-2.05-5.75,2.7,.15,5.7,.1,6.55,.05,.95,0,1.25-.3,1.25-1.15v-8.8h-10.75c-1.15,5.9-3.55,11.85-8.6,15.95-.9-1.15-3.25-3.15-4.55-3.85,7.55-6.2,8.2-15.55,8.2-23.05v-18.05h21.6v37.85Zm-5.9-14.2v-6.4h-9.85v.8c0,1.75-.05,3.65-.2,5.6h10.05Zm-9.85-18.15v6.4h9.85v-6.4h-9.85Z"/>
      <path class="d" d="M679.87,56.68c-1.5,4.2-3.35,9.15-4.95,12.95,3.5,4,4.2,7.5,4.25,10.4,0,3.25-.75,5.4-2.45,6.65-.8,.6-1.75,.9-2.95,1.1-1,.15-2.25,.15-3.45,.1-.05-1.45-.55-3.65-1.4-5.1,1,.1,1.85,.1,2.45,.1s1.15-.15,1.55-.45c.7-.45,1-1.55,.95-3,0-2.4-.8-5.6-4.15-9.15,1.2-3,2.4-7.1,3.35-10.35h-4.45v39.35h-5.2V54.63h11.65l.85-.2,3.95,2.25Zm26.6,1.75c-1.85,4.05-4.55,7.35-7.9,10,3.1,1.3,6.65,2.25,10.55,2.85-1.15,1.15-2.7,3.4-3.45,4.8-4.6-.9-8.6-2.35-12.1-4.4-3.85,2.1-8.1,3.55-12.6,4.6-.6-1.4-1.85-3.6-2.9-4.8,3.85-.7,7.45-1.8,10.75-3.2-1.1-1-2.15-2.1-3.05-3.25-1.25,1.1-2.55,2.1-3.9,3.1-.8-1.25-2.55-3.25-3.8-4.15,5.2-3.15,8.8-7.5,10.85-11.2l5.8,1.15c-.5,.95-1.15,1.95-1.8,2.95h8.95l.95-.2,3.65,1.75Zm-9,29h10.65v5.1h-10.65v6.85h-5.75v-6.85h-7.1v.05h-5.5c.9-2.7,1.9-6.7,2.65-10.1h-1.5v-5.1h11.45v-2.7h5.75v2.7h9.2v5.1h-9.2v4.95Zm-5.75,0v-4.95h-4.5c-.35,1.6-.75,3.3-1.2,4.95h5.7Zm-2.2-26.15l-.35,.4c1.15,1.5,2.6,2.8,4.35,4,1.9-1.3,3.6-2.75,5-4.4h-9Z"/>
      <path class="d" d="M738.87,90.53h5.15v5.3h-18.8V55.48h18.65v5.35h-5v5.95h4.5v16.3h-4.5v7.45Zm-8.55-29.7v5.95h3.4v-5.95h-3.4Zm0,11.2v5.85h7.9v-5.85h-7.9Zm0,18.5h3.4v-7.4h-3.4v7.4Zm18.95-27.85c-1.3,1.95-2.65,3.65-4.05,5.05-.85-1-2.85-3-4-3.8,3.05-2.75,5.75-7.05,7.35-11.3l5.2,1.45c-.45,1.1-.95,2.25-1.5,3.4h17.1v5.2h-20.1Zm-4.4,17.5h11.4v18.45h-4.35v-2.15h-2.85v2.7h-4.2v-19Zm3.25-2.15v-12.95h18.75v12.95h-18.75Zm.95,6.8v6.95h2.85v-6.95h-2.85Zm4-11.35h8.6v-3.9h-8.6v3.9Zm16.65,6.7v18.65h-4.45v-2.35h-3v2.85h-4.25v-19.15h11.7Zm-4.45,11.6v-6.95h-3v6.95h3Z"/>
      <path class="d" d="M790.77,82.98c3.9-1.25,6.15-3.4,6.45-6.05-.15,.05-.35,.05-.55,.05-2.5,0-4.75-1.6-4.75-4.45s2.25-4.5,4.9-4.5c3.55,0,5.4,2.65,5.4,6.85,0,5.65-3.65,10.3-9.85,12.1l-1.6-4Z"/>
      <path class="d" d="M841.27,65.63h-18.55v-4.7h8.4c-.75-1.9-2-4.4-3.15-6.3l4.45-2.15c1.35,2.05,2.85,4.8,3.65,6.65l-3.25,1.8h8.45v4.7Zm26.3,19.9c-1.65,3-3.95,5.4-6.85,7.45,2.75,.8,5.95,1.35,9.25,1.65-1.15,1.15-2.6,3.35-3.25,4.7-4.4-.6-8.3-1.7-11.65-3.3-3.9,1.6-8.25,2.7-12.8,3.4-.4-1.3-1.5-3.4-2.45-4.6v1.8h-10.2v2.1h-4.85v-17.25h15.05v13.3c3.5-.4,7-1,10.05-1.95-1.5-1.2-2.8-2.6-3.95-4.15l1.9-.6h-5.45v-4h20.8l.9-.2,3.5,1.65Zm-19.3-26h-6.9v-4.4h6.9v-2.45h5.2v9.2h-4.3l1.2,.3c-.3,.75-.6,1.55-.95,2.3h4.4c-.25-.8-.5-1.65-.75-2.35l4.15-1v-8.45h5.25v2.4h6.6v4.4h-6.6v2.4h-3.7c.3,.8,.6,1.75,.85,2.6h8.2v3.55h-8.55v1.7h7.2v2.95h-7.2v1.7h7.2v2.95h-7.2v1.8h9.55v3.45h-19.75v.75h-4.9v-10.2c-.55,.7-1.15,1.35-1.75,1.9-.55-.95-1.95-3.2-2.85-4.3v1.65h-14.7v-4.5h14.7v2.65c2.45-2.4,4.75-6,6.05-9.7l2.6,.8,.05-2.1Zm-23.4,15.05h14.7v4.5h-14.7v-4.5Zm10,11.65h-5.25v5.6h5.25v-5.6Zm19.45-18.2h-5.25v1.7h5.25v-1.7Zm0,4.65h-5.25v1.7h5.25v-1.7Zm0,4.65h-5.25v1.8h5.25v-1.8Zm-2.75,10.75c.95,1,2.2,1.9,3.65,2.65,1.55-.75,2.9-1.65,4.05-2.65h-7.7Z"/>
      <path class="d" d="M900.72,60.78l3.2,2.25c-1.3,3.5-3.15,6.9-5.25,10.05,1.75,1.45,4.3,3.65,5.1,4.4l-3.2,4.15c-.6-.9-1.65-2.2-2.8-3.5v21.2h-5.85v-18.2c-1.75,1.7-3.45,3.1-5.25,4.3-.35-1.7-1.55-5-2.2-6.15,4.7-2.75,9.3-7.65,12.1-12.9h-11.15v-5.35h8.5c-.95-1.75-2.35-3.8-3.65-5.4l4.55-2.75c1.7,1.85,3.6,4.45,4.45,6.25l-2.8,1.9h3.25l1-.25Zm16.1,5.45c-.8,3.3-1.85,6.4-3.05,9.2h15.6v23.75h-5.9v-2.55h-9.45v2.55h-5.65v-14.6c-1.5,1.85-3.1,3.55-5,5-.8-1.2-3.05-3.75-4.3-4.85,5.85-4.2,9.4-10.55,11.55-18.5h-6.7v-5.4h7.95c.5-2.55,.9-5.3,1.2-8.15l6.1,.6c-.35,2.6-.7,5.1-1.2,7.55h13.25v5.4h-14.4Zm-2.8,14.55v10.5h9.45v-10.5h-9.45Z"/>
      <path class="d" d="M987.92,59.93c-2.85,4.55-6.85,8.4-11.55,11.6,5.3,2.35,11.35,4.1,17.7,5.1-1.3,1.35-3,3.9-3.85,5.55-1.6-.3-3.1-.7-4.65-1.1v18.2h-6.4v-1.65h-18.1v1.85h-6.05v-18.45c-1.9,.55-3.8,1.05-5.7,1.45-.6-1.6-1.85-4-2.9-5.35,6.2-1.15,12.65-3.1,18.4-5.7-2.15-1.6-4.15-3.35-6-5.25-2.25,2.05-4.65,3.8-7,5.3-.95-1.2-3.15-3.45-4.4-4.45,6.35-3.3,12.45-8.8,15.9-14.85l5.65,1.95c-.7,1.1-1.4,2.25-2.2,3.35h15.85l1-.3,4.3,2.75Zm-3.7,20.8c-4.95-1.45-9.6-3.3-13.8-5.7-4.45,2.4-9.35,4.25-14.3,5.7h28.1Zm-5.05,11.65v-6.25h-18.1v6.25h18.1Zm-16.4-29.8c2.1,2.15,4.75,4.1,7.65,5.9,2.95-1.8,5.55-3.7,7.65-5.9h-15.3Z"/>
      <path class="d" d="M1043.37,85.98v13.4h-6.3v-12.55l-26.75,3.85-.8-5.9,27.55-3.85v-28.25h6.3v27.35l10.55-1.5,.75,5.8-11.3,1.65Zm-18.45-7.05c-2.65-2.3-8.3-5.5-12.5-7.6l3.55-4.45c4.05,1.85,9.9,4.8,12.8,7l-3.85,5.05Zm4.95-12.05c-2.4-2.05-7.6-5.15-11.4-7.1l3.4-4.55c3.7,1.7,9.05,4.55,11.7,6.6l-3.7,5.05Z"/>
      <path class="d" d="M1097.72,64.83c-.45,1.1-.95,2.15-1.4,3.15h15.1v31.45h-6.2v-2.35h-22.8v2.35h-5.9v-31.45h13.2c.35-1.05,.6-2.1,.85-3.15h-19v-5.5h11.45c-1-1.55-2.4-3.25-3.6-4.65l5.3-2.4c1.85,1.8,3.85,4.25,4.85,5.9l-2.2,1.15h11.45c1.45-2.05,3-4.75,3.85-6.8l6.85,1.5c-1.3,1.9-2.7,3.75-4,5.3h11.2v5.5h-19Zm7.5,8.3h-22.8v3.05h22.8v-3.05Zm0,7.55h-22.8v3.25h22.8v-3.25Zm0,11.2v-3.4h-22.8v3.4h22.8Z"/>
    </g>
  </g>
</svg>