<?xml version="1.0" encoding="UTF-8"?>
<svg id="b" data-name="圖層 2" xmlns="http://www.w3.org/2000/svg" width="373.19" height="37.85" viewBox="0 0 373.19 37.85">
  <defs>
    <style>
      .d {
        fill: #fff;
      }

      .e {
        opacity: .2;
      }
    </style>
  </defs>
  <g id="c" data-name="圖層 1">
    <g class="e">
      <g>
        <path class="d" d="M23.16,17.06h-4.37L34.71,.61h7.29V19.28h-7.29V6.56l2.19,.9-11.52,11.81h-8.75L5.07,7.5l2.22-.9v12.69H0V.61H7.29l15.87,16.45Z"/>
        <path class="d" d="M53.37,11.4v2.33h22.17v5.54h-29.46V.61h29.4V6.15h-22.11v2.33h18.08v2.92h-18.08Z"/>
        <path class="d" d="M79.33,19.28V.61h22.54c1.77,0,3.36,.2,4.77,.6,1.41,.4,2.53,1.06,3.35,2,.83,.93,1.24,2.21,1.24,3.82,0,1.07-.19,1.95-.58,2.65-.39,.7-.92,1.24-1.6,1.63-.68,.39-1.46,.67-2.33,.85-.87,.18-1.79,.28-2.74,.32l-2.13-.41c2.31,.02,4.1,.12,5.35,.29,1.25,.17,2.13,.49,2.62,.95,.5,.46,.74,1.11,.74,1.97v4h-7.29v-3.12c0-.58-.11-1.03-.34-1.33-.22-.3-.71-.51-1.46-.63-.75-.12-1.9-.17-3.46-.17h-11.4v5.25h-7.29Zm7.29-10.12h15.25c.58,0,1.07-.1,1.47-.29,.4-.19,.6-.56,.6-1.11,0-.51-.2-.85-.6-1.04-.4-.18-.89-.28-1.47-.28h-15.25v2.71Z"/>
        <path class="d" d="M149.82,11.49c-.1,1.85-.77,3.39-2.01,4.64s-3.08,2.18-5.5,2.8c-2.42,.62-5.48,.93-9.17,.93-2.82,0-5.35-.15-7.58-.45-2.24-.3-4.14-.82-5.72-1.55-1.57-.73-2.78-1.73-3.62-2.99-.84-1.26-1.25-2.86-1.25-4.78s.42-3.53,1.25-4.83c.84-1.29,2.04-2.32,3.62-3.09,1.57-.77,3.48-1.32,5.72-1.65,2.24-.33,4.76-.5,7.58-.5,3.69,0,6.76,.34,9.19,1.01,2.43,.67,4.27,1.66,5.51,2.96,1.24,1.3,1.91,2.89,2.01,4.75h-7.58c-.23-.62-.66-1.17-1.28-1.65-.62-.48-1.56-.85-2.8-1.12-1.24-.27-2.93-.41-5.05-.41-2.49,0-4.51,.15-6.07,.45-1.56,.3-2.69,.78-3.41,1.44-.72,.66-1.08,1.54-1.08,2.62,0,.99,.36,1.8,1.08,2.42,.72,.62,1.86,1.08,3.41,1.37,1.56,.29,3.58,.44,6.07,.44,2.12,0,3.8-.13,5.03-.38,1.23-.25,2.16-.6,2.79-1.04,.62-.44,1.05-.91,1.28-1.41h7.58Z"/>
        <path class="d" d="M153.64,.61h7.29V19.28h-7.29V.61Zm6.24,6.45h20.53v5.54h-20.53V7.06ZM179.59,.61h7.29V19.28h-7.29V.61Z"/>
        <path class="d" d="M189.22,19.28L201.73,.61h8.11l12.63,18.67h-8.02l-10.82-16.71h4.35l-10.73,16.71h-8.02Zm6.53-2.83v-4.37h19.95v4.37h-19.95Z"/>
        <path class="d" d="M254.05,13.56l-2.71,1.55V.61h7.29V19.28h-7.29l-21.96-12.72,2.71-1.57v14.29h-7.29V.61h7.29l21.96,12.95Z"/>
        <path class="d" d="M283.71,.61c2.62,0,4.79,.25,6.5,.76,1.71,.51,3.05,1.2,4.02,2.07,.97,.87,1.66,1.87,2.06,2.99,.4,1.12,.6,2.29,.6,3.51s-.22,2.4-.67,3.51c-.45,1.12-1.18,2.11-2.2,2.99-1.02,.87-2.37,1.57-4.05,2.07-1.68,.51-3.77,.76-6.26,.76h-21V.61h21Zm-13.71,12.83h13.42c1.09,0,2.01-.07,2.77-.22,.76-.15,1.37-.36,1.82-.66,.46-.29,.79-.66,.99-1.09s.31-.95,.31-1.53-.1-1.09-.31-1.53-.53-.8-.99-1.09c-.46-.29-1.06-.51-1.82-.66-.76-.15-1.68-.22-2.77-.22h-13.42v7Z"/>
        <path class="d" d="M301.12,.61h7.29V19.28h-7.29V.61Z"/>
        <path class="d" d="M311.91,12.42h7.96c.14,.41,.53,.75,1.2,1.04,.66,.28,1.55,.5,2.67,.64,1.12,.15,2.42,.22,3.89,.22s2.61-.04,3.46-.13c.85-.09,1.44-.24,1.79-.47,.35-.22,.52-.53,.52-.92,0-.37-.28-.66-.85-.86-.56-.2-1.57-.34-3-.42-1.44-.08-3.46-.12-6.07-.12-1.94,0-3.62-.09-5.03-.28-1.41-.18-2.57-.48-3.47-.88-.9-.4-1.57-.9-2-1.52-.43-.61-.64-1.35-.64-2.2,0-1.48,.5-2.7,1.5-3.66,1-.96,2.52-1.68,4.55-2.16,2.03-.48,4.57-.71,7.63-.71,4.47,0,7.89,.65,10.25,1.94,2.36,1.29,3.54,3.15,3.54,5.58h-7.55c-.1-.64-.7-1.13-1.81-1.47-1.11-.34-2.68-.51-4.72-.51s-3.52,.12-4.51,.35c-.98,.23-1.47,.63-1.47,1.2,0,.29,.14,.52,.41,.7,.27,.18,.74,.32,1.41,.42,.67,.11,1.62,.18,2.84,.22,1.22,.04,2.78,.06,4.67,.06,2.08,0,3.85,.1,5.31,.31,1.46,.2,2.64,.51,3.54,.92s1.56,.93,1.97,1.56c.41,.63,.61,1.38,.61,2.23,0,1.48-.47,2.68-1.4,3.62s-2.41,1.62-4.43,2.07c-2.02,.45-4.67,.67-7.93,.67-1.85,0-3.54-.11-5.09-.32-1.55-.21-2.92-.53-4.13-.95-1.21-.42-2.23-.93-3.06-1.55-.84-.61-1.47-1.3-1.91-2.07-.44-.77-.66-1.62-.66-2.55Z"/>
        <path class="d" d="M351.02,11.4v2.33h22.17v5.54h-29.46V.61h29.4V6.15h-22.11v2.33h18.08v2.92h-18.08Z"/>
      </g>
    </g>
    <g>
      <path class="d" d="M37.67,29.31c-.49-.75-1.29-1.81-2.09-2.78v11.16h-3.36v-10.5c-1.06,.95-2.09,1.81-3.18,2.5-.23-.98-.89-2.84-1.29-3.5,2.81-1.55,5.57-4.39,7.29-7.4h-6.45v-3.07h4.91c-.52-1.03-1.41-2.32-2.21-3.3l2.7-1.43c1.06,1.09,2.12,2.61,2.64,3.61l-1.89,1.12h2.15l.6-.14,1.81,1.32c-.83,2.09-1.98,4.13-3.3,6,1.15,1.03,3.24,3.01,3.79,3.59l-2.09,2.84Zm17.13-6.08h-3.21v14.4h-3.5v-14.4h-4.07c-.09,4.53-.66,10.5-3.13,14.46-.66-.57-2.24-1.55-3.1-1.84,2.52-4.02,2.73-9.81,2.73-13.97v-7.86c4.02-.66,8.43-1.78,11.16-2.96l2.84,2.84c-3.07,1.15-6.88,2.04-10.5,2.7v3.33h10.79v3.3Z"/>
      <path class="d" d="M80.36,25.52c-.66,2.09-1.55,3.87-2.67,5.34,3.07,1.29,5.91,2.64,7.92,3.9l-2.52,3.01c-1.95-1.32-4.85-2.81-8.06-4.27-2.95,2.27-7,3.53-12.42,4.3-.32-.92-1.41-2.58-2.12-3.44,4.53-.4,7.97-1.18,10.53-2.55-2.47-1.03-5.02-1.95-7.29-2.67,.75-1.03,1.55-2.27,2.32-3.61h-5.59v-3.21h7.32c.77-1.52,1.41-3.04,1.89-4.45l3.99,.75c-.46,1.18-1,2.44-1.61,3.7h5.05c.14-.8,.23-1.69,.32-2.61l4.13,.26v-2.78h-17.07v3.21h-3.47v-6.37h10.18c-.32-.83-.69-1.72-1-2.5l3.84-.89c.49,1.03,1.09,2.32,1.49,3.39h9.67v6.37h-3.61c-.12,.66-.23,1.29-.34,1.92h4.5v3.21h-5.36Zm-9.95,0c-.43,.75-.83,1.43-1.26,2.12,1.61,.52,3.24,1.12,4.93,1.75,.92-1.06,1.63-2.35,2.18-3.87h-5.85Z"/>
      <path class="d" d="M99.67,29.56c-.46-.77-1.18-1.81-1.89-2.81v10.93h-3.07v-10.13c-.8,.83-1.58,1.58-2.38,2.18-.2-1-.89-2.9-1.29-3.56,2.41-1.61,4.73-4.42,6.17-7.4h-5.54v-3.07h3.84c-.49-1-1.26-2.18-2.01-3.1l2.55-1.58c.95,1.06,1.95,2.55,2.41,3.59l-1.58,1.09h1.95l.6-.14,1.72,1.26c-.72,2.15-1.69,4.25-2.9,6.17,1.12,1.09,2.98,3.13,3.5,3.73l-2.09,2.84Zm18.27,5.13v2.52h-17.36v-2.52h4.53c-.26-.72-.57-1.49-.83-2.12l1.84-.57h-3.33v-5.77h13.08v5.77h-3.36l2.24,.63c-.43,.72-.92,1.41-1.35,2.07h4.53Zm-17.01-11.88h16.72v2.41h-16.72v-2.41Zm15.83-1h-14.89V13.16h3.96v-2.24h2.64v2.24h1.61v-2.24h2.64v2.24h4.04v8.66Zm-12.13-5.31h1.69v-1.38h-1.69v1.38Zm0,3.27h1.69v-1.38h-1.69v1.38Zm.95,10.18h7.37v-1.72h-7.37v1.72Zm1.38,2.04c.4,.89,.83,1.89,1.09,2.7h2.55c.4-.86,.8-1.86,1.06-2.7h-4.71Zm3.13-15.49v-1.38h-1.61v1.38h1.61Zm-1.61,1.89v1.38h1.61v-1.38h-1.61Zm5.45-3.27h-1.69v1.38h1.69v-1.38Zm0,3.27h-1.69v1.38h1.69v-1.38Z"/>
      <path class="d" d="M142.65,30.02v7.69h-3.61v-7.2l-15.35,2.21-.46-3.39,15.81-2.21V10.92h3.61v15.69l6.05-.86,.43,3.33-6.48,.95Zm-10.58-4.04c-1.52-1.32-4.76-3.16-7.17-4.36l2.04-2.55c2.32,1.06,5.68,2.75,7.34,4.02l-2.21,2.9Zm2.84-6.91c-1.38-1.18-4.36-2.96-6.54-4.07l1.95-2.61c2.12,.98,5.19,2.61,6.71,3.79l-2.12,2.9Z"/>
      <path class="d" d="M174.62,22.97c1.61,1.81,4.04,3.36,6.63,4.16-.69,.63-1.69,1.86-2.15,2.7-1.21-.49-2.38-1.09-3.44-1.86,1.35,1.92,2.58,4.07,3.21,5.68l-2.96,1.32c-.63-1.95-2.35-4.96-3.93-7.14l2.32-.95c-1.29-1.12-2.41-2.47-3.3-3.9h-6.43c-1.09,1.78-2.55,3.38-4.22,4.68l2.55,1.06c-.92,2.12-2.18,4.56-3.79,6.14l-2.84-1.66c1.43-1.29,2.7-3.24,3.5-5.08-1.06,.77-2.21,1.43-3.33,2.01-.52-.69-1.72-2.01-2.41-2.61,2.58-1,4.93-2.55,6.51-4.53h-5.59v-3.13h6.48v-2.75h-4.73v-3.13h4.73v-3.04h3.39v3.04h5.62v-3.04h3.44v3.04h4.82v3.13h-4.82v2.75h6.68v3.13h-5.97Zm-10.33,2.12h3.24v9.12c0,1.58-.26,2.44-1.35,2.95-1,.52-2.47,.54-4.36,.54-.14-.95-.54-2.27-.97-3.18,1.23,.06,2.52,.06,2.95,.06,.37,0,.49-.09,.49-.43v-9.06Zm.55-5.25h5.62v-2.75h-5.62v2.75Zm6.17,8.2c.77,1.92,1.41,4.42,1.64,6.11l-2.93,.66c-.14-1.66-.77-4.25-1.46-6.2l2.75-.57Z"/>
      <path class="d" d="M209.16,31.14c-.98,1.2-2.32,2.24-3.87,3.04,2.21,.4,4.59,.66,7.09,.8-.6,.66-1.29,1.84-1.64,2.64-3.53-.29-6.77-.83-9.67-1.66-3.1,.95-6.57,1.55-9.93,1.89-.26-.69-.83-1.69-1.29-2.29,2.47-.2,5.02-.54,7.34-1.06-.77-.37-1.55-.77-2.29-1.2-.83,.46-1.78,.89-2.81,1.32-.34-.63-1.18-1.52-1.75-1.95,.86-.29,1.63-.6,2.38-.95-.6-.52-1.18-1.03-1.66-1.63l2.5-1.06c.46,.49,.97,.98,1.61,1.43,.75-.49,1.41-.98,1.92-1.43-1.09-.29-1.41-1-1.41-2.38v-1.29h2.58l.72-.83h-7.89c-.03,.98-.11,1.95-.2,2.96,.77-.72,1.66-1.92,2.24-2.84l2.24,1.26c-.63,.95-1.49,2.24-2.27,3.1l-2.21-1.46c-.37,3.56-1.15,7.31-2.73,10.1-.54-.57-1.89-1.55-2.61-1.89,2.32-4.22,2.52-10.27,2.52-14.6V12.61h10.76c-.11-.49-.26-.98-.37-1.41l3.38-.6c.23,.57,.49,1.32,.69,2.01h9.61v2.55h-7.75v1.18h6.74v5.19h-19.97v.92h18.99l.49-.11,2.21,.49c-.52,1.43-1.21,3.1-1.81,4.16l-2.7-.57c.26-.52,.54-1.18,.8-1.89h-7.75c.72,.34,1.38,.69,1.81,.98l-1.32,1.78h.6c.66,0,.8-.17,.92-1.2,.46,.29,1.29,.54,1.95,.69l-.8-.86,1.95-1.23c1.03,1,2.44,2.38,3.13,3.27l-2.07,1.41c-.46-.63-1.23-1.49-1.98-2.32-.26,1.69-.98,2.18-2.73,2.18h-2.44c-.29,.29-.57,.57-.86,.86h7.17l.52-.11,1.89,1.21Zm-17.99-15.98v1.18h3.7v-1.18h-3.7Zm3.7,3.16h-3.7v1.23h3.7v-1.23Zm2.75,13.57c1.15,.54,2.41,1.03,3.79,1.43,1.12-.43,2.12-.89,2.98-1.43h-6.77Zm3.76-16.72h-3.56v1.18h3.56v-1.18Zm-3.56,4.39h3.56v-1.23h-3.56v1.23Zm3.93,7.72c-.89-.54-2.32-1.38-3.41-1.89v1.2c0,.6,.2,.69,1.12,.69h2.29Zm2.64-8.95v1.23h3.59v-1.23h-3.59Z"/>
      <path class="d" d="M222.94,24.52c-1.12-.95-3.53-2.29-5.36-3.1l1.81-2.55c1.78,.69,4.22,1.86,5.45,2.81l-1.89,2.84Zm-4.36,10.59c1.55-2.18,3.73-5.71,5.42-9.04l2.52,2.29c-1.52,2.98-3.36,6.25-5.05,9.04l-2.9-2.29Zm6.02-18.19c-1.15-.98-3.5-2.35-5.34-3.18l1.86-2.52c1.81,.72,4.25,1.98,5.45,2.9l-1.98,2.81Zm16.35,20.8c-.2-.75-.55-1.64-1-2.52-9.55,1.15-11.02,1.38-11.96,1.86-.2-.75-.77-2.44-1.21-3.41,.66-.2,1.21-.8,1.87-1.84,.52-.77,1.89-3.3,3.04-6.14h-5.39v-3.21h6.8v-4.04h-5.65v-3.24h5.65v-4.27h3.47v4.27h5.85v3.24h-5.85v4.04h6.91v3.21h-7.8c-1.15,2.61-2.58,5.19-3.99,7.37l6.74-.69c-.6-1.03-1.26-2.07-1.92-2.95l2.78-1.38c1.89,2.5,3.99,5.82,4.73,8.15l-3.07,1.55Z"/>
      <path class="d" d="M264.85,11.75c-.14,.17-.29,.37-.43,.55,2.64,2.29,7.34,4.27,11.9,5.16-.72,.6-1.69,1.81-2.15,2.61-.57-.14-1.18-.34-1.78-.52v7.4h-19.94v-7.23c-.6,.2-1.2,.4-1.78,.54-.34-.63-1.26-2.01-1.84-2.64,5.28-1.23,10.38-3.61,13-6.94l3.01,1.06Zm6.51,7.43c-1.35-.49-2.64-1.09-3.9-1.75v.75h-10.07v-.57c-1.12,.57-2.27,1.12-3.47,1.58h17.44Zm-17.3,8.72h16.87v9.7h-3.5v-.69h-10.01v.77h-3.36v-9.78Zm3.24-3.01c-.14-.89-.52-2.07-.98-2.98l2.21-.63h-3.24v3.61h2.01Zm.11,5.25v1.15h10.01v-1.15h-10.01Zm10.01,4.53v-1.15h-10.01v1.15h10.01Zm-6.51-13.4h-2.24c.52,.98,.97,2.21,1.15,3.04l-1.84,.57h2.93v-3.61Zm4.13-5.31c-.86-.6-1.69-1.23-2.41-1.86-.75,.63-1.58,1.26-2.44,1.86h4.85Zm-1.38,5.31v3.61h2.67l-1.72-.49c.4-.86,.86-2.18,1.12-3.13h-2.07Zm5.68,0h-2.98l2.24,.54c-.57,1.15-1.12,2.27-1.58,3.07h2.32v-3.61Z"/>
      <path class="d" d="M299.48,33.49c2.75,.86,5.68,1.86,7.49,2.61l-3.7,1.66c-1.69-.86-4.7-2.09-7.72-2.98l2.12-1.29h-7.52l2.24,.98c-2.35,1.38-6.11,2.61-9.09,3.3-.57-.63-1.72-1.86-2.47-2.41,2.67-.43,5.62-1.06,7.63-1.86h-3.84v-11.07h10.33c-.26-.57-.86-1.46-1.38-1.98v.49c-4.19,.98-5.11,1.21-5.56,1.46l-.06,.03-.03-.29c-.17-.57-.57-1.35-.86-1.69,.49-.23,1.12-.77,1.12-1.92v-.46h-1.38c-.46,2.32-1.61,4.04-4.59,5.19-.29-.63-1.03-1.69-1.58-2.15,2.18-.66,3.07-1.69,3.44-3.04h-2.95v-2.12h2.24c-.54-.46-1.41-.95-2.07-1.18,.92-1.09,1.55-2.44,1.89-3.59l2.29,.37c-.11,.37-.23,.75-.37,1.09h1.43v-1.75h2.73v1.75h3.67v2.07h-3.67v1.23h4.22v2.12h-2.61v1.38l2.84-.57c-.09,.43-.11,.95-.14,1.43,1.98-.49,2.84-1.18,3.24-2.24h-2.61v-2.12h1.64c-.54-.46-1.38-.95-2.01-1.18,.97-1.09,1.61-2.44,1.98-3.59l2.32,.37c-.12,.37-.26,.75-.4,1.12h1.38v-1.78h2.75v1.78h4.04v2.07h-4.04v1.21h4.91v2.12h-3.39v1.43c0,.6,.06,.63,.37,.63h.83c.37,0,.46-.17,.54-1.38,.46,.37,1.46,.72,2.18,.86-.26,2.12-.89,2.7-2.35,2.7h-1.63c-2.15,0-2.58-.66-2.58-2.78v-1.46h-1.23c-.43,2.07-1.55,3.44-4.36,4.36h8.61v11.07h-4.27Zm-15.26-18.79c-.23,.43-.52,.83-.8,1.23h3.13v-1.23h-2.32Zm3.73,10.81h12.33v-1.15h-12.33v1.15Zm0,3.01h12.33v-1.18h-12.33v1.18Zm0,3.01h12.33v-1.18h-12.33v1.18Zm8.81-16.81c-.23,.4-.52,.8-.8,1.21h3.16v-1.21h-2.35Z"/>
      <path class="d" d="M338.62,21.59v2.75h-26.1v-2.75h4.27c-.32-1.15-1.03-2.67-1.75-3.82l2.24-.83h-3.24v-2.75h4.96c-.4-.75-.95-1.61-1.46-2.27l3.01-1.09c.8,.86,1.61,2.01,1.95,2.84l-1.23,.52h7.03c.69-1,1.46-2.35,1.92-3.36l3.36,.98c-.49,.86-1,1.66-1.52,2.38h5.16v2.75h-3.73l2.41,.66c-.72,1.46-1.46,2.93-2.09,3.99h4.82Zm-22.55,4.02h19.02v11.99h-3.5v-.75h-12.19v.86h-3.33v-12.11Zm1.86-8.66c.83,1.15,1.55,2.67,1.84,3.7l-2.29,.95h3.61v-4.65h-3.16Zm1.46,11.25v1.75h12.19v-1.75h-12.19Zm12.19,6.02v-1.78h-12.19v1.78h12.19Zm-4.99-17.27h-2.32v4.65h2.32v-4.65Zm4.45,3.99c.57-1.09,1.26-2.78,1.66-3.99h-2.87v4.65h3.41l-2.21-.66Z"/>
    </g>
  </g>
</svg>