<?xml version="1.0" encoding="UTF-8"?>
<svg xmlns="http://www.w3.org/2000/svg" width="314" height="438.37" xmlns:xlink="http://www.w3.org/1999/xlink" viewBox="0 0 314 438.37">
  <defs>
    <style>
      .d {
        fill: #fff;
      }

      .e {
        stroke-width: .83px;
      }

      .e, .f {
        stroke: #fff;
      }

      .e, .f, .g, .h {
        stroke-miterlimit: 10;
      }

      .e, .h {
        fill: none;
      }

      .i, .f {
        fill: #fc462d;
      }

      .j {
        isolation: isolate;
      }

      .f {
        stroke-width: .48px;
      }

      .k {
        opacity: .35;
      }

      .l, .g {
        fill: #595757;
      }

      .m {
        mix-blend-mode: multiply;
        opacity: .14;
      }

      .g {
        stroke-width: .83px;
      }

      .g, .h {
        stroke: #9fa0a0;
      }

      .h {
        stroke-width: .82px;
      }
    </style>
  </defs>
  <g class="j">
    <g id="b" data-name="圖層 2">
      <g id="c" data-name="圖層 1">
        <rect class="f" x="181.57" y="1.79" width="22.45" height="115.69"/>
        <g>
          <path class="d" d="M198.52,17.79c-.74,.29-1.5,.6-2.2,.83,.81,.29,1.76,.48,2.86,.57-.29,.29-.67,.91-.85,1.32-2.91-.39-4.72-1.44-5.8-3.36h-1.26v1.68l2.12-.41c-.03,.39-.03,.97,0,1.29-3,.66-3.49,.76-3.77,.92-.06-.36-.28-1.02-.46-1.3,.25-.11,.57-.38,.57-.99v-1.19h-.9c-.2,1.22-.6,2.45-1.34,3.42-.31-.25-1.01-.69-1.4-.85,1.22-1.5,1.36-3.6,1.36-5.06v-1.81h11.08v1.18h-9.5v.43h8.95v1.04h-8.96c-.01,.15-.03,.31-.03,.48h9.9v1.18h-1.12l.76,.64Zm-.56-5.38h-10.42v-4.1h2.83v-.85h1.62v.85h1.34v-.85h1.64v.85h2.98v4.1Zm-8.89-2.54h1.3v-.56h-1.3v.56Zm0,1.51h1.3v-.56h-1.3v.56Zm2.93-2.07v.56h1.34v-.56h-1.34Zm0,1.51v.56h1.34v-.56h-1.34Zm2.12,6.32c.24,.31,.56,.59,.92,.81,.55-.2,1.18-.52,1.72-.81h-2.65Zm2.25-7.83h-1.39v.56h1.39v-.56Zm0,1.51h-1.39v.56h1.39v-.56Z"/>
          <path class="d" d="M198.97,24.29h-1.51l.67,.88c-.43,.14-.95,.27-1.51,.36v.74h2v1.05h-1.99c.62,.35,1.98,1.25,2.33,1.5l-.71,1.08c-.35-.34-1.02-.88-1.62-1.34v1.42h-1.39v-1.58c-.42,.63-.91,1.18-1.42,1.55-.21-.32-.62-.77-.91-1.01,.63-.35,1.29-.95,1.75-1.61h-1.11v-1.05h1.68v-.56c-.43,.04-.85,.07-1.25,.08-.04-.27-.18-.64-.32-.91,1.25-.1,2.73-.29,3.66-.6h-8.92v2.82c0,.53,0,1.11-.03,1.72,.59-.35,1.18-.92,1.61-1.53h-1.19v-1.04h1.61v-.5c-.42,.04-.84,.07-1.2,.1-.04-.25-.18-.63-.32-.9,1.2-.11,2.65-.32,3.46-.64l.74,.9c-.38,.14-.83,.25-1.32,.34v.71h1.36v1.04h-1.36v.03c.36,.21,1.23,.76,1.47,.94l-.8,1.01c-.14-.17-.41-.41-.67-.66v1.36h-1.36v-1.39c-.36,.52-.78,.97-1.19,1.29-.2-.29-.56-.67-.84-.92-.07,2.12-.31,4.64-.97,6.42-.32-.24-1.04-.62-1.43-.76,.81-2.16,.87-5.31,.87-7.49v-4.33h12.13v1.5Zm-9.51,6h8.33v5.07h-1.72v-.43h-4.97v.45h-1.64v-5.08Zm1.64,1.15v.66h4.97v-.66h-4.97Zm4.97,2.33v-.64h-4.97v.64h4.97Z"/>
          <path class="d" d="M198.98,47.91h-5.48v6.32h-1.82v-6.32h-5.39v-1.74h5.39v-5.01h1.82v5.01h5.48v1.74Z"/>
          <path class="d" d="M198.8,65.99v1.92h-12.44v-1.92h12.44Zm-1.16-8.08v1.83h-10.11v-1.83h10.11Z"/>
          <path class="d" d="M197.33,81.78c0,1.01-.24,1.48-.88,1.76-.67,.29-1.65,.32-3.1,.32-.1-.49-.43-1.29-.7-1.75,.98,.06,2.16,.04,2.46,.04,.34,0,.45-.11,.45-.41v-2.03h-6c-.36,1.57-1.06,3.1-2.37,4.19-.25-.35-.92-.97-1.29-1.21,2.12-1.81,2.31-4.48,2.31-6.61v-4.61h9.1v10.3Zm-1.76-3.67v-1.71h-5.62c-.01,.53-.04,1.12-.1,1.71h5.71Zm-5.62-5v1.71h5.62v-1.71h-5.62Z"/>
          <path class="d" d="M198.98,92.43h-5.48v6.32h-1.82v-6.32h-5.39v-1.74h5.39v-5.01h1.82v5.01h5.48v1.74Z"/>
          <path class="d" d="M198.8,110.51v1.92h-12.44v-1.92h12.44Zm-1.16-8.08v1.83h-10.11v-1.83h10.11Z"/>
        </g>
        <g class="k">
          <g>
            <path class="d" d="M127.82,18.7c0,2.34-.22,4.27-.67,5.79-.45,1.52-1.06,2.72-1.84,3.58-.78,.87-1.67,1.48-2.66,1.83-1,.36-2.04,.53-3.13,.53s-2.13-.2-3.13-.6c-1-.4-1.88-1.05-2.66-1.96-.78-.91-1.39-2.11-1.84-3.61-.45-1.5-.67-3.35-.67-5.57V0h16.62V18.7Zm-11.42-12.2v11.94c0,.97,.07,1.79,.2,2.47,.13,.67,.32,1.22,.58,1.62,.26,.41,.58,.7,.97,.88,.39,.18,.84,.27,1.36,.27s.97-.09,1.36-.27c.39-.18,.71-.48,.97-.88,.26-.41,.45-.95,.58-1.62,.13-.68,.2-1.5,.2-2.47V6.49h-6.23Z"/>
            <path class="d" d="M111.2,30.69l16.62,11.14v7.22l-16.62,11.24v-7.14l14.88-9.63v3.87l-14.88-9.55v-7.14Zm2.52,5.82h3.89v17.76h-3.89v-17.76Z"/>
            <path class="d" d="M127.82,83.79l-12.38-10.52h-4.23v-6.49h4.23l12.38-10.52v7.66l-10.78,8.54v-4.8l10.78,8.46v7.66Z"/>
            <path class="d" d="M115.64,107.08l.13-.05c0,1.66-.03,3.19-.1,4.58s-.22,2.6-.47,3.62c-.24,1.02-.62,1.81-1.14,2.38-.52,.56-1.24,.84-2.16,.84-1.14,0-2.09-.52-2.86-1.57-.76-1.05-1.33-2.54-1.71-4.48-.38-1.94-.57-4.24-.57-6.91s.25-4.99,.74-6.87c.49-1.88,1.22-3.31,2.17-4.28,.95-.98,2.13-1.47,3.53-1.47v6.52c-.38,.04-.68,.33-.9,.87-.22,.54-.37,1.28-.47,2.19-.09,.92-.14,1.93-.14,3.04,0,2.06,.08,3.59,.25,4.58,.16,1,.58,1.49,1.26,1.49s1.06-.61,1.22-1.82c.16-1.21,.23-2.99,.23-5.32v-3.87h1.82v3.87c0,1.71,.05,3.06,.14,4.05,.1,.99,.26,1.68,.49,2.09,.23,.41,.54,.61,.92,.61,.55,0,.94-.45,1.16-1.34,.22-.89,.32-2.3,.32-4.22s-.15-3.31-.45-4.43-.74-1.71-1.31-1.78v-6.47c1.16,0,2.16,.33,3.01,.99,.85,.66,1.54,1.57,2.09,2.74,.54,1.17,.95,2.52,1.21,4.05,.26,1.53,.39,3.16,.39,4.89,0,2.63-.17,4.86-.51,6.69-.34,1.83-.84,3.22-1.52,4.18-.67,.96-1.53,1.44-2.57,1.44-.85,0-1.54-.27-2.08-.8s-.96-1.29-1.26-2.26c-.3-.97-.52-2.12-.64-3.44-.12-1.32-.2-2.77-.23-4.35Z"/>
          </g>
        </g>
        <g>
          <path class="d" d="M164,5.84h-5.27c.79,.64,1.61,1.37,2.1,1.92l-2.19,1.92h2.5v7.71h-9.66v1.8h11.15s-.03,.88-.09,1.31c-.3,4.05-.67,6.03-1.46,6.83-.64,.73-1.37,.97-2.32,1.07-.85,.09-2.29,.12-3.87,.06-.06-1.07-.43-2.41-1.01-3.29,1.28,.12,2.56,.15,3.11,.12,.46,0,.76-.03,1.04-.27,.3-.3,.55-1.13,.73-2.8h-7.28v7.53h-3.57v-5.94c-2.56,2.5-5.94,4.57-9.26,5.82-.52-.88-1.52-2.19-2.29-2.86,3.17-.94,6.46-2.62,8.84-4.54h-6.55c.46-2.07,.91-5.24,1.13-7.8h8.14v-1.74h-9.26v-2.99h6.22c-.67-.85-1.86-1.98-2.8-2.8l1.16-1.01h-1.8c-.97,1.52-2.07,2.89-3.11,3.93-.52-.61-1.74-1.89-2.44-2.44,1.8-1.58,3.47-3.99,4.42-6.4l3.2,.91c-.15,.4-.33,.82-.55,1.22h6.7v2.77h-4.36c.82,.7,1.62,1.46,2.07,2.01l-1.95,1.8h12.86c-.67-.82-1.98-1.92-2.96-2.71l1.31-1.13h-2.5c-.73,1.16-1.55,2.16-2.38,2.96-.61-.61-1.92-1.65-2.71-2.1,1.68-1.43,3.05-3.56,3.81-5.73l3.29,.82c-.15,.43-.33,.88-.52,1.31h8.38v2.74Zm-16.09,11.55h-4.97c-.09,.61-.15,1.22-.24,1.8h5.21v-1.8Zm9.63-4.72h-6.06v1.74h6.06v-1.74Z"/>
          <path class="d" d="M163.2,66.83v3.72h-26.45v-3.72h26.45Zm-1.64-19.99v3.66h-23.1v-3.66h23.1Zm-2.41,9.72v3.69h-18.59v-3.69h18.59Z"/>
          <path class="d" d="M152.6,101.48c2.13,4.85,6.03,8.41,11.98,9.96-.88,.76-1.98,2.35-2.5,3.38-5.73-1.83-9.42-5.36-11.98-10.36-1.68,4.05-5.12,7.89-11.98,10.45-.49-.91-1.58-2.44-2.38-3.14,7.04-2.5,10.03-6.43,11.28-10.3h-10.21v-3.72h10.97c.06-.82,.09-1.58,.09-2.35v-3.08h-9.96v-3.72h24.13v3.72h-10.36v3.14c0,.73-.03,1.49-.06,2.29h11.61v3.72h-10.63Z"/>
        </g>
        <g>
          <image class="m" width="314" height="90" transform="translate(0 135.37)" xlink:href="資產 31.png"/>
          <path class="i" d="M303.51,214.96H5.11v-63.57c0-6.08,4.93-11.01,11.01-11.01H292.5c6.08,0,11.01,4.93,11.01,11.01v63.57Z"/>
        </g>
        <g>
          <image class="m" width="314" height="228" transform="translate(0 210.37)" xlink:href="資產 32.png"/>
          <path class="d" d="M5.11,215.66H303.51v201.23c0,6.08-4.93,11.01-11.01,11.01H16.12c-6.08,0-11.01-4.93-11.01-11.01V215.66Z"/>
        </g>
        <g>
          <path class="d" d="M63.48,184.43h-3.67v1.42h-1.52v-12.49h5.18v11.06Zm-3.67-9.66v3.36h2.13v-3.36h-2.13Zm2.13,8.27v-3.53h-2.13v3.53h2.13Zm7.65-7.45v1.91h3.68v1.36h-1.43v1.61h1.89v1.37h-1.89v4.12c0,.8-.19,1.22-.78,1.44-.62,.25-1.53,.27-2.89,.27-.07-.42-.32-1.04-.55-1.46,.99,.03,1.96,.03,2.24,.03,.28-.02,.37-.08,.37-.32v-4.08h-6.4v-1.37h6.4v-1.61h-5.76v-1.36h3.49v-1.91h-4.18v-1.39h4.18v-1.91h1.62v1.91h4.21v1.39h-4.21Zm-3.49,6.66c.78,.84,1.74,1.99,2.2,2.76l-1.44,.82c-.41-.75-1.34-1.99-2.12-2.88l1.36-.7Z"/>
          <path class="d" d="M82.02,178.81v8.87h-1.62v-14.7h6.5v5.83h-4.88Zm0-4.65v1.16h3.33v-1.16h-3.33Zm3.33,3.5v-1.24h-3.33v1.24h3.33Zm9.61,8.08c0,.89-.19,1.39-.83,1.66-.62,.25-1.59,.27-3.07,.27-.07-.42-.3-1.09-.51-1.52h-4.76v.84h-1.5v-7.01h6.61v6.13c.86,.03,1.71,.02,1.99,.02,.32-.02,.41-.1,.41-.38v-6.88h-5.01v-5.86h6.66v12.75Zm-9.16-4.6v1.31h3.58v-1.31h-3.58Zm3.58,3.83v-1.39h-3.58v1.39h3.58Zm.49-10.81v1.16h3.44v-1.16h-3.44Zm3.44,3.53v-1.27h-3.44v1.27h3.44Z"/>
        </g>
        <g>
          <path class="d" d="M177.78,180.05c-.67-.6-2.08-1.37-3.23-1.84l.86-1.17c1.13,.42,2.56,1.14,3.28,1.69l-.92,1.32Zm1.69,2.11c-.93,1.74-2.1,3.73-3.15,5.32l-1.38-1.05c.93-1.27,2.29-3.4,3.31-5.31l1.22,1.04Zm-1.13-6.46c-.6-.64-1.94-1.51-3.01-2.04l.92-1.14c1.08,.5,2.43,1.32,3.08,1.94l-.99,1.24Zm2.64,4.52h1.48v1.69c0,1.84-.28,4.07-2.54,5.71-.25-.32-.79-.82-1.15-1.02,1.99-1.41,2.2-3.25,2.2-4.72v-1.66Zm8.32,0c-.21-.32-.51-.72-.85-1.14-6.86,.43-7.7,.5-8.27,.72-.09-.32-.35-1.05-.53-1.46,.39-.08,.79-.47,1.3-1.05,.25-.25,.69-.77,1.2-1.47h-2.64v-1.41h3.67c.42-.67,.88-1.39,1.23-2.09l1.6,.6c-.3,.5-.63,1-.95,1.49h5.34v1.41h-6.36c-.65,.84-1.3,1.61-1.96,2.31l5.38-.3c-.39-.43-.76-.87-1.07-1.27l1.23-.67c.99,1.1,2.34,2.63,3.01,3.53l-1.34,.8Zm-5.27,.13h1.44v6.61h-1.44v-6.61Zm5.71,5.76c.21,0,.58-.03,.79-.1,.02,.38,.07,.89,.12,1.21-.23,.08-.58,.1-.9,.1h-1.04c-1.38,0-1.64-.55-1.64-1.89v-5.21h1.52v5.24c0,.49,.04,.65,.26,.65h.88Z"/>
          <path class="d" d="M201.81,182.79c-.23-.52-.76-1.44-1.23-2.24v7.15h-1.55v-6.95c-.58,1.61-1.3,3.16-2.08,4.17-.12-.44-.51-1.12-.76-1.52,.92-1.14,1.89-3.13,2.45-4.9h-2.19v-1.44h2.57v-2.38c-.65,.12-1.3,.22-1.92,.3-.07-.33-.25-.87-.44-1.21,1.76-.32,3.75-.79,4.97-1.34l.92,1.27c-.58,.23-1.27,.42-1.97,.6v2.75h2.13v1.44h-2.13v.35c.48,.54,1.85,2.26,2.15,2.68l-.92,1.27Zm10.66,3.13v1.39h-10.08v-1.39h4.37v-1.92h-3.44v-1.34h3.44v-1.72c-.99,.1-1.99,.17-2.91,.2-.02-.33-.23-.87-.39-1.21,2.47-.15,5.38-.45,7.05-.92l1.04,1.17c-.9,.23-2.01,.42-3.17,.57v1.91h3.38v1.34h-3.38v1.92h4.09Zm-.9-7.35h-8.12v-5.46h8.12v5.46Zm-1.59-4.13h-5v2.81h5v-2.81Z"/>
          <path class="d" d="M233.33,185.77c0,.89-.19,1.37-.85,1.62s-1.71,.27-3.19,.27c-.07-.45-.33-1.16-.58-1.59,1.07,.05,2.22,.03,2.54,.03,.32-.02,.42-.1,.42-.35v-3.31c-.37,.3-.9,.92-1.16,1.34-2.08-1.07-3.37-2.79-4.12-5-.76,2.33-2.12,4.03-4.28,5.11-.19-.33-.65-.87-1-1.19v4.99h-1.66v-11.67h6.31c-.07-.52-.12-1.07-.18-1.62h-3.05v-1.37h4.48c.05,1.07,.14,2.08,.32,3h6.01v9.76Zm-12.23-3.18c2.13-1.02,3.45-2.69,4.07-5.05h-4.07v5.05Zm6.57-5.05c.67,2.28,1.89,3.95,4,4.89v-4.89h-4Z"/>
          <path class="d" d="M249.39,177.85c-.09,.15-.19,.28-.3,.42,1.97,2.04,4.39,3.31,7.17,4.3-.39,.33-.83,.85-1.06,1.29-.71-.28-1.39-.62-2.04-.94v4.7h-1.67v-.47h-6.66v.52h-1.6v-4.55c-.69,.35-1.41,.69-2.13,.95-.23-.38-.67-.92-1.04-1.26,3.22-1.09,6.27-3.08,7.91-5.56l1.43,.59Zm-6.96-.84h-1.6v-3.25h6.64c-.18-.42-.39-.85-.6-1.24l1.69-.35c.3,.47,.63,1.09,.85,1.59h6.12v3.25h-1.66v-1.84h-11.44v1.84Zm4.25-.75c-1.13,1.46-2.91,2.85-4.51,3.7-.23-.28-.79-.9-1.13-1.17,1.55-.7,3.15-1.84,4.11-3.03l1.53,.5Zm4.81,9.52v-2.34h-6.66v2.34h6.66Zm.16-3.72c-1.23-.75-2.34-1.62-3.42-2.71-.92,1-2.01,1.92-3.19,2.71h6.61Zm-1.04-6.29c1.53,.87,3.52,2.21,4.49,3.15l-1.18,1c-.92-.92-2.85-2.33-4.44-3.26l1.13-.89Z"/>
        </g>
        <g>
          <line class="e" x1="145.78" y1="151.03" x2="145.78" y2="208.71"/>
          <line class="h" x1="145.78" y1="218.93" x2="145.78" y2="415.79"/>
        </g>
        <line class="g" x1="160.87" y1="268.33" x2="270.3" y2="268.33"/>
        <line class="g" x1="160.87" y1="320.89" x2="270.3" y2="320.89"/>
        <line class="g" x1="160.87" y1="374.17" x2="270.3" y2="374.17"/>
        <g>
          <path class="l" d="M190.87,251.53c-.25-.4-.74-1.01-1.17-1.58v5.74h-1.26v-5.39c-.48,.51-.99,.96-1.49,1.33-.09-.38-.39-1.08-.57-1.33,1.33-.9,2.68-2.46,3.46-4.09h-3.17v-1.2h2.21c-.23-.5-.71-1.21-1.14-1.74l1-.61c.53,.54,1.04,1.28,1.28,1.78l-.88,.57h1.38l.24-.06,.72,.47c-.38,1.08-.93,2.11-1.58,3.06,.55,.53,1.54,1.64,1.83,1.94l-.87,1.1Zm9.36,2.89v1.01h-8.95v-1.01h2.58c-.15-.4-.34-.86-.51-1.24l1.07-.3c.25,.48,.51,1.11,.64,1.54h1.53c.22-.48,.53-1.11,.66-1.55l1.25,.33c-.25,.43-.53,.86-.77,1.23h2.5Zm-.17-4.92h-8.52v-.98h8.52v.98Zm-.45-1.6h-7.57v-4.16h2.1v-1.13h1.11v1.13h1.09v-1.13h1.11v1.13h2.16v4.16Zm-7.12,4.95v-2.72h6.67v2.72h-6.67Zm.69-7.44h1.14v-.84h-1.14v.84Zm0,1.65h1.14v-.86h-1.14v.86Zm.48,4.95h4.3v-1.05h-4.3v1.05Zm2.68-6.6v-.84h-1.09v.84h1.09Zm-1.09,.8v.86h1.09v-.86h-1.09Zm3.19-1.64h-1.17v.84h1.17v-.84Zm0,1.64h-1.17v.86h1.17v-.86Z"/>
          <path class="l" d="M205.76,243.28c-.48,2.12-1.3,4.2-2.32,5.56-.21-.23-.71-.7-.99-.91,.96-1.17,1.67-3.02,2.07-4.9l1.24,.26Zm2.4,10.9c-.04-.24-.12-.51-.2-.81-3.55,.67-4.11,.83-4.45,1.01h-.02v-.07c-.09-.3-.3-.85-.43-1.17,.29-.07,.5-.49,.76-1.1,.3-.6,1.14-2.88,1.54-4.99l1.37,.36c-.45,1.87-1.16,3.82-1.86,5.39l2.78-.5c-.25-.8-.57-1.68-.88-2.42l1.14-.37c.6,1.37,1.25,3.15,1.5,4.23l-1.25,.44Zm.21-5.9c-.3-1.24-1.11-3.29-1.86-4.83l1.16-.44c.79,1.53,1.65,3.52,1.95,4.76l-1.25,.51Zm3.96,5.32c-.75,.77-1.96,1.54-3.04,2-.15-.29-.45-.7-.69-.97,.96-.4,2.08-1.14,2.62-1.75l1.11,.73Zm-.78-7.92c.18-.37,.34-.8,.5-1.17h-2.94v-1.18h7.17v1.18h-2.75c-.23,.38-.44,.8-.65,1.17h2.83v7.11h-5.94v-7.11h1.77Zm2.87,1.04h-3.39v1.03h3.39v-1.03Zm0,1.98h-3.39v1.04h3.39v-1.04Zm0,2.01h-3.39v1.05h3.39v-1.05Zm-.54,2.09c.87,.51,2.08,1.28,2.67,1.81l-.75,.97c-.55-.56-1.74-1.37-2.66-1.92l.74-.86Z"/>
          <path class="l" d="M224.02,246.67c-.02,1.51-.2,3.33-.99,5.12,.63,.53,1.18,1.04,1.56,1.45l-.85,1.04c-.33-.38-.81-.84-1.33-1.34-.63,.97-1.5,1.91-2.68,2.72-.21-.27-.66-.68-.96-.87,1.2-.83,2.06-1.75,2.66-2.69-.75-.63-1.53-1.27-2.22-1.78,.31-.91,.63-2.12,.93-3.41l-1.15,.07-.14-1.2,1.54-.07c.2-1.04,.38-2.11,.48-3.05l1.29,.09c-.12,.91-.3,1.9-.5,2.91l1.12-.04v-1.01h1.25v.94l.55-.03-.02,1.11-.54,.04Zm-2.62,.17c-.25,1.1-.51,2.17-.78,3.06,.43,.33,.92,.7,1.37,1.05,.63-1.48,.76-2.96,.79-4.2l-1.38,.08Zm10.62,3.04c-1.12,3.15-3.43,4.83-7.17,5.76-.13-.38-.46-.9-.75-1.18,3.44-.7,5.6-2.18,6.62-4.93l1.3,.36Zm-5.11-4.62c-.25,1.62-.69,3.38-1.19,4.49-.27-.17-.85-.41-1.18-.54,.52-1.05,.88-2.67,1.09-4.18l1.28,.23Zm2.19,5.63h-1.32v-8.28h1.32v8.28Zm2.22-1.84c-.24-1.07-.88-2.68-1.54-3.89l1.2-.38c.71,1.21,1.38,2.78,1.63,3.85l-1.29,.43Z"/>
          <path class="l" d="M239.56,251.26c-.03-.21-.09-.44-.15-.71-3.09,.43-3.58,.54-3.88,.7-.08-.26-.27-.87-.42-1.2,.33-.07,.66-.41,1.11-.93,.21-.23,.63-.74,1.1-1.42-1.33,.16-1.68,.24-1.89,.33-.07-.24-.25-.81-.4-1.14,.27-.06,.51-.34,.83-.77,.31-.41,1.32-2.01,1.87-3.53l1.25,.48c-.6,1.25-1.39,2.55-2.19,3.61l1.32-.1c.38-.58,.75-1.23,1.05-1.85l1.17,.66c-.9,1.55-2.04,3.14-3.19,4.4l2.01-.24c-.13-.43-.29-.87-.45-1.27l1.04-.27c.39,.93,.79,2.17,.96,2.89l-1.11,.37Zm-2.7,.7c-.15,1.28-.41,2.67-.74,3.56-.24-.14-.79-.31-1.09-.4,.34-.85,.55-2.17,.67-3.35l1.16,.18Zm1.48-.2c.18,.94,.36,2.15,.41,2.95l-1.09,.21c-.03-.81-.2-2.04-.36-2.98l1.05-.19Zm1.41-.4c.29,.73,.6,1.67,.74,2.29l-1,.33c-.12-.63-.42-1.6-.69-2.34l.96-.29Zm9.03,2.79v1.21h-8.5v-1.21h3.6v-2.39h-2.85v-1.18h7.15v1.18h-2.91v2.39h3.51Zm-6.51-3.95c-.32-.74-1-1.82-1.77-2.79,.6-.86,1.21-1.9,1.56-2.59l1.2,.29c-.4,.73-.97,1.6-1.46,2.28,.65,.78,1.28,1.75,1.61,2.37l-1.14,.46Zm6.34-5.74h-7.94v-1.18h7.94v1.18Zm-2.82,.66c-.42,.73-.97,1.58-1.47,2.25,.64,.77,1.32,1.71,1.63,2.32l-1.11,.47c-.34-.74-1.05-1.81-1.86-2.77,.62-.84,1.26-1.88,1.6-2.57l1.2,.29Zm1.68,5.09c-.36-.74-1.12-1.84-1.98-2.79,.63-.86,1.29-1.9,1.65-2.59l1.21,.3c-.45,.73-1.02,1.58-1.51,2.27,.69,.77,1.4,1.71,1.74,2.32l-1.11,.5Z"/>
        </g>
        <g>
          <path class="l" d="M177.43,292.64c-.3,2.42-.84,4.42-1.71,6.03,.71,1.07,1.6,1.91,2.77,2.45-.31,.26-.76,.79-.97,1.14-1.07-.58-1.92-1.38-2.61-2.37-.75,.97-1.72,1.78-2.92,2.44-.12-.26-.46-.75-.72-1.05-.21,.24-.46,.34-.78,.38-.34,.06-.85,.04-1.36,.04-.03-.34-.18-.85-.38-1.18,.45,.04,.87,.04,1.09,.04,.18,0,.27-.03,.38-.2,.18-.28,.22-1.67,.22-5.64h-3.57c-.15,.3-.32,.57-.48,.84h3.32v4.43h-1.05v-.6h-1.74v1.08h-1.04v-4.18c-.2,.26-.38,.48-.58,.68-.12-.27-.48-.91-.71-1.2,.81-.78,1.46-1.97,1.82-3.19l1.21,.31c-.08,.23-.17,.46-.26,.7h4.38v.3c.94-1.18,1.51-2.88,1.83-4.7l1.41,.21c-.13,.69-.3,1.36-.51,2h3.87v1.23h-.92Zm-10.47-1.04h-1.92v-1.11h1.92v-1.2h1.17v3.18h-1.17v-.87Zm-.04,4.97v1.74h1.74v-1.74h-1.74Zm3.43-3.85h-1.2v-3.43h1.2v1.2h1.89v1.11h-1.89v1.12Zm3.81,5.9c-.57-1.12-.97-2.42-1.3-3.83-.15,.23-.33,.44-.53,.64-.12-.19-.34-.46-.58-.73-.03,4.16-.06,5.73-.32,6.31,1.17-.61,2.05-1.41,2.73-2.39Zm-.1-5.98c-.11,.23-.2,.46-.3,.65,.25,1.44,.63,2.78,1.17,3.93,.55-1.28,.88-2.81,1.09-4.59h-1.96Z"/>
          <path class="l" d="M186.55,296.19c-.39,.16-.76,.31-1.16,.47v4.25c0,.6-.12,.91-.46,1.11-.39,.2-.9,.24-1.74,.24-.03-.31-.18-.83-.33-1.14,.49,.01,.94,.01,1.11,0,.17,0,.21-.04,.21-.21v-3.78l-1.2,.46-.39-1.24c.45-.14,.99-.31,1.59-.54v-2.54h-1.39v-1.2h1.39v-2.79h1.21v2.79h.98v1.21h-.98v2.08l.89-.33,.27,1.15Zm3.3,1.51c-.01,.26-.03,.5-.06,.73h2.29v1h-2.48l-.04,.23c.87,.44,1.92,1.07,2.46,1.54l-.75,.87c-.46-.41-1.33-1-2.16-1.47-.48,.76-1.27,1.28-2.56,1.68-.12-.29-.41-.7-.66-.91,1.53-.38,2.24-.97,2.57-1.94h-2.17v-1h2.4c.03-.23,.06-.47,.08-.73h-2.12v-4.8h1.61v-.81h-1.8v-1h1.44c-.15-.38-.45-.93-.74-1.34l.93-.33c.31,.46,.66,1.04,.81,1.41l-.64,.26h1.6c.27-.46,.65-1.14,.83-1.62l1,.34c-.25,.44-.51,.91-.76,1.28h1.15v1h-1.77v.81h1.57v4.8h-2.02Zm-2.31-.81h3.38v-1.84h-.68c-.55,0-.73-.12-.73-.73v-.61h-.54v.26c0,.44-.18,.98-.88,1.37-.11-.12-.33-.31-.47-.37,.63-.33,.75-.66,.75-1v-.26h-.82v3.18Zm.43-1.17h2.57v.64h-2.57v-.64Zm1.04-2.82h.54v-.81h-.54v.81Zm1.91,.81h-.79v.61c0,.17,.03,.2,.18,.2h.45c.09,0,.13,0,.17-.02v-.8Zm5.5-3.46c-.39,1.37-.87,3.18-1.29,4.46,.88,1.27,1.08,2.39,1.08,3.38,0,.9-.18,1.55-.55,1.85-.21,.14-.45,.23-.75,.28-.22,.03-.52,.03-.83,.03,0-.31-.07-.81-.25-1.14,.24,.03,.44,.03,.63,.03,.14-.01,.27-.06,.38-.16,.18-.16,.24-.57,.24-1.07,0-.84-.17-1.89-1.05-3.12,.36-1.12,.74-2.71,.99-3.82h-1.4v11.39h-1.17v-12.54h2.94l.18-.06,.85,.48Z"/>
          <path class="l" d="M205.18,289.68c-.42,1.07-.95,2.15-1.51,3.15v9.52h-1.29v-7.53c-.36,.48-.72,.91-1.09,1.31-.11-.33-.5-1.03-.74-1.35,1.33-1.33,2.59-3.39,3.34-5.47l1.29,.37Zm9.22,11.2v1.13h-9.99v-1.13h1.38v-7.91h2.56c.08-.34,.17-.75,.24-1.17h-3.52v-1.14h3.7c.08-.48,.14-.96,.17-1.37l1.47,.06c-.08,.41-.17,.87-.26,1.31h3.86v1.14h-4.09c-.09,.41-.2,.83-.3,1.17h3.56v7.91h1.23Zm-7.36-6.91v1.01h4.84v-1.01h-4.84Zm4.84,1.97h-4.84v1.01h4.84v-1.01Zm-4.84,1.94v1.04h4.84v-1.04h-4.84Zm0,3.01h4.84v-1.03h-4.84v1.03Z"/>
          <path class="l" d="M232.33,299.2h-5.26v3.15h-1.44v-3.15h-6.83v-1.28h2.42v-3.76h4.41v-1.97h-3.44c-.64,1.05-1.39,2-2.16,2.71-.27-.23-.87-.65-1.21-.85,1.38-1.13,2.58-2.94,3.27-4.83l1.41,.36c-.18,.44-.39,.91-.58,1.34h8.68v1.28h-4.53v1.97h4.18v1.24h-4.18v2.52h5.26v1.28Zm-6.7-1.28v-2.52h-3.02v2.52h3.02Z"/>
          <path class="l" d="M243.01,295.69c0,1.98-.17,4.8-1.23,6.66-.22-.2-.75-.53-1.05-.64,.29-.5,.5-1.04,.65-1.62l-.86,.83c-.24-.48-.73-1.28-1.17-1.98-.34,1.24-.88,2.38-1.83,3.41-.18-.29-.61-.7-.87-.9,1.76-1.97,1.94-4.55,1.94-7.03v-5.02h1.2v5.02c0,1.05-.03,2.14-.18,3.16,.5,.63,1.52,2.07,1.77,2.48,.39-1.45,.43-3.08,.43-4.36v-4.38h3v-2.07h1.3v.73h3.72v.83h-3.72v.51h3.13l.2-.03,.86,.14c-.12,.74-.3,1.6-.47,2.14l-1.03-.16c.04-.3,.1-.71,.16-1.13h-2.68v.58l1.98-.14,.04,.73-2.03,.16c0,.31,.04,.44,.38,.44h1.47c.27,0,.83-.03,1.05-.09,.04,.31,.06,.56,.12,.84-.24,.07-.72,.08-1.12,.08h-1.87c-.95,0-1.2-.37-1.25-1.05l-1.61,.14-.06-.9,1.65-.12v-.68h-2.02v3.41Zm-5.73,.16c-.08-.97-.33-2.66-.6-3.96l.93-.16c.28,1.28,.58,2.95,.67,3.89l-1,.23Zm4.42-3.93c-.38,1.03-.77,2.34-1.11,3.14l-.75-.27c.29-.86,.63-2.25,.78-3.21l1.08,.34Zm8.74,9.15v.93h-8.02v-.93h.92v-2.2h6.39v2.2h.72Zm-6.79-5.76h5.78v3.08h-5.78v-3.08Zm.71,5.76h.87v-1.35h-.87v1.35Zm.38-4.55h1.26v-.54h-1.26v.54Zm0,1.2h1.26v-.55h-1.26v.55Zm1.33,2v1.35h.86v-1.35h-.86Zm2.25-3.73h-1.32v.54h1.32v-.54Zm0,1.18h-1.32v.55h1.32v-.55Zm-.55,2.55v1.35h.9v-1.35h-.9Z"/>
          <path class="l" d="M268.24,300.58v1.3h-13.29v-1.3h5.85v-3.15h-4.46v-1.28h4.46v-2.84h-5.17v-1.3h6.3c-.62-.63-1.59-1.42-2.42-1.98l1.14-.76c.96,.61,2.19,1.57,2.8,2.24l-.73,.5h4.77v1.3h-5.16v2.84h4.5v1.28h-4.5v3.15h5.91Z"/>
        </g>
        <g>
          <path class="l" d="M191.78,336.67v1.1h-13.41v-1.1h4.54v-2.58h-3.72v-1.08h2.7c-.21-.4-.54-.9-.87-1.27l1.22-.44c.43,.44,.87,1.03,1.03,1.45l-.61,.26h4.03c.35-.5,.78-1.2,1.01-1.71l1.38,.41c-.27,.46-.57,.91-.87,1.3h2.83v1.08h-3.9v2.58h4.63Zm-10.84-2.52c.5,.61,.95,1.45,1.11,2.04l-1.2,.46c-.17-.57-.58-1.44-1.05-2.08l1.14-.41Zm-.61,4.38h9.55v5.83h-1.42v-.4h-6.76v.46h-1.36v-5.89Zm1.36,1.03v1.17h6.76v-1.17h-6.76Zm6.76,3.36v-1.18h-6.76v1.18h6.76Zm-4.24-6.24h1.62v-2.58h-1.62v2.58Zm3.72-.38c.36-.58,.84-1.51,1.08-2.17l1.27,.37c-.41,.78-.87,1.6-1.27,2.14l-1.08-.34Z"/>
          <path class="l" d="M197,336.47c0,2.31-.18,5.69-1.42,7.94-.29-.2-.92-.48-1.26-.6,1.2-2.14,1.32-5.2,1.32-7.34v-3.79h5.66c-.15-.37-.32-.78-.5-1.1l1.39-.31c.25,.43,.51,.97,.69,1.41h5.07v1.23h-10.95v2.57Zm9.88,3.38c-.66,1.17-1.67,2.05-2.9,2.71,1.23,.37,2.66,.58,4.17,.71-.29,.29-.63,.81-.81,1.14-1.84-.18-3.53-.57-4.96-1.14-1.51,.54-3.22,.87-5.02,1.07-.09-.33-.35-.83-.57-1.13,1.44-.11,2.85-.31,4.11-.67-.85-.5-1.57-1.1-2.16-1.81l.59-.21h-1.82v-1.05h8.26l.24-.04,.87,.43Zm-7.32-1.14v-2.28h-2.22v-1.07h2.22v-1.1h1.32v1.1h3.24v-1.1h1.36v1.1h2.29v1.07h-2.29v2.28h-5.92Zm.58,1.81c.57,.6,1.35,1.1,2.29,1.51,.95-.4,1.77-.9,2.37-1.51h-4.67Zm.74-4.09v1.25h3.24v-1.25h-3.24Z"/>
          <path class="l" d="M216.22,336.58s0,.37-.01,.54c-.09,4.62-.17,6.24-.54,6.73-.25,.34-.51,.47-.92,.51-.38,.06-.96,.06-1.56,.04-.03-.36-.16-.85-.36-1.18,.54,.04,1.04,.04,1.26,.04,.2,.01,.33-.03,.45-.2,.22-.28,.31-1.61,.39-5.29h-1.53c-.19,2.64-.66,5.02-1.9,6.63-.23-.3-.66-.7-1.02-.9,1.5-1.95,1.67-5.3,1.73-8.71h-1.54v-1.23h5.94v1.23h-3.08c-.01,.6-.03,1.2-.06,1.78h2.76Zm-2.24-5.23c.27,.58,.6,1.37,.75,1.85l-1.27,.37c-.13-.51-.43-1.33-.72-1.92l1.24-.3Zm8.45,11.9c.63,0,.75-.26,.82-1.57,.29,.2,.8,.4,1.14,.47-.17,1.72-.54,2.22-1.88,2.22h-2.83c-1.62,0-2.04-.37-2.04-1.8v-3.15l-.78,.34-.5-1.08,1.27-.57v-2.01c-.15,.2-.3,.37-.45,.54-.22-.24-.75-.71-1.06-.94,1.04-1.03,1.79-2.67,2.17-4.38l1.38,.26c-.15,.57-.32,1.12-.51,1.65h5.04v1.2h-5.58c-.25,.56-.57,1.07-.88,1.53h1.14v1.6l1.16-.51v-2.15h1.17v1.64l1.38-.63,.25-.18,.93,.26-.06,.19c-.03,1.54-.14,3.61-.33,4.89l-1.02-.19c.09-.91,.15-2.32,.17-3.63l-1.32,.6v4.12h-1.17v-3.61l-1.16,.53v3.72c0,.56,.12,.66,.92,.66h2.62Z"/>
          <path class="l" d="M234.7,331.78c-.09,.11-.19,.23-.3,.34,1.5,1.24,4.08,2.41,6.3,2.96-.31,.26-.72,.8-.92,1.11-1.32-.38-2.76-1.01-4.05-1.78v.64h-4.08v-.68c-.72,.44-1.5,.84-2.29,1.18h8.58v4.52h-7.23v2.72l3.57-.5c-.04,.34-.04,.86-.01,1.13-3.96,.61-4.54,.74-4.92,.91-.1-.27-.41-.75-.62-.97,.25-.16,.62-.5,.62-1.1v-6.7c-.54,.23-1.09,.44-1.65,.61-.2-.31-.54-.78-.87-1.07,2.58-.74,5.25-2.14,6.61-3.91l1.26,.57Zm-3.99,4.76v.84h5.82v-.84h-5.82Zm5.82,2.55v-.83h-5.82v.83h5.82Zm-1.26-4.96c-.62-.37-1.18-.78-1.68-1.2-.48,.43-1.02,.83-1.58,1.2h3.25Zm4.39,6.43c-.78,.56-1.72,1.1-2.59,1.54,.9,.48,1.73,.98,2.31,1.38l-.99,.9c-1.2-.88-3.66-2.28-5.57-3.21l.92-.76c.67,.3,1.44,.68,2.21,1.07,.95-.5,2.01-1.17,2.68-1.71l1.04,.78Z"/>
          <path class="l" d="M245.41,341.48c-.41,.94-1.02,2.02-1.53,2.74-.2-.19-.67-.47-.95-.61,.53-.66,1.05-1.61,1.41-2.44l1.07,.31Zm2.41-.67h-4.24v-8.81h4.24v8.81Zm-1.15-7.74h-1.98v1.51h1.98v-1.51Zm0,2.52h-1.98v1.55h1.98v-1.55Zm0,2.58h-1.98v1.57h1.98v-1.57Zm.17,2.94c.45,.64,.94,1.47,1.2,2.01l-.96,.51c-.23-.54-.74-1.44-1.14-2.08l.9-.44Zm9.78-2.07c-.62,.58-1.3,1.18-1.89,1.62,.55,1.07,1.25,1.95,2.1,2.51-.29,.21-.67,.67-.85,.98-1.65-1.23-2.64-3.55-3.2-6.17h-.66v4.73l1.49-.58c.01,.33,.09,.77,.15,1.03-2.12,.93-2.49,1.14-2.71,1.35-.08-.3-.33-.83-.53-1.1,.22-.13,.48-.37,.48-.91v-4.52h-.81c-.04,2.07-.29,4.63-1.2,6.4-.24-.2-.81-.51-1.14-.64,.99-1.91,1.06-4.59,1.06-6.61v-5.07h7.44v1.13h-6.15v1.23h5.87v1.11h-5.87v1.31h6.45v1.15h-2.88c.15,.63,.33,1.23,.57,1.81,.5-.46,1.07-1.07,1.41-1.51l.87,.75Z"/>
          <path class="l" d="M180.34,355.82c-.46-.48-1.47-1.15-2.25-1.62l.67-.78c.78,.41,1.79,1.07,2.29,1.52l-.72,.88Zm-2.07,5.74c.54-1.07,1.32-2.88,1.91-4.43l.9,.64c-.51,1.45-1.19,3.14-1.77,4.43l-1.04-.64Zm2.38-9.43c-.43-.54-1.39-1.34-2.16-1.88l.73-.76c.78,.51,1.74,1.28,2.21,1.81l-.78,.83Zm8.38,4.28h1.31v6.03h-1.31v-2.1h-5.19c-.25,.78-.75,1.54-1.62,2.11-.24-.21-.72-.54-1.03-.7,1.47-.98,1.68-2.47,1.68-3.49v-1.85h1.3v.86h4.86v-.86Zm-5.46-2.78c-.21,1.25-.74,2.19-1.71,2.81-.09-.19-.38-.56-.57-.7,.76-.47,1.17-1.17,1.33-2.11h-.76v-.87h3.36v.38c-.06,1.75-.1,2.47-.33,2.72-.15,.19-.33,.27-.63,.3-.2,.03-.51,.03-.83,.03-.03-.27-.1-.63-.24-.85,.3,.04,.52,.04,.64,.04,.11,0,.18-.03,.25-.11,.09-.11,.12-.54,.17-1.64h-.69Zm2.14-1.87h-3.93v-1.07h4.14c-.08-.4-.18-.9-.32-1.28l1.29-.16c.18,.44,.33,1.04,.41,1.44h4.41v1.07h-4.04l.86,.27c-.47,.47-.99,.96-1.46,1.34h.01v2.95h-1.04v-2.94h0c.51-.46,1.11-1.14,1.47-1.62h-1.78c.28,.34,.55,.78,.66,1.1l-.79,.36c-.1-.33-.36-.81-.61-1.17l.72-.29Zm3.31,7.52v-.98h-4.86c0,.3-.01,.64-.06,.98h4.92Zm2.25-6.41c-.29,.14-.58,.27-.92,.4,.3,.96,.78,1.87,1.47,2.32-.21,.14-.47,.44-.62,.67-.75-.58-1.26-1.64-1.56-2.76-.24,.06-.48,.13-.72,.19v1.58l.99-.27c.03,.21,.11,.54,.13,.7-1.42,.47-1.74,.6-1.92,.73h0c-.08-.23-.27-.64-.42-.83,.17-.1,.36-.34,.36-.9v-1.57h0c.87-.23,1.84-.57,2.37-.9l.82,.64Z"/>
          <path class="l" d="M199.61,356.4c-.64,.21-1.3,.44-1.93,.64v3.76c0,.64-.12,1.01-.55,1.21-.42,.21-1.04,.26-1.96,.26-.04-.36-.24-.91-.42-1.27,.61,.01,1.2,.01,1.36,.01,.2-.01,.25-.06,.25-.23v-3.32c-.6,.2-1.18,.38-1.71,.54l-.32-1.28c.55-.16,1.26-.36,2.02-.56v-2.92c.53-.47,1.08-1.18,1.53-1.85h-3.18v-1.23h4.06l.25-.09,.92,.58c-.58,1.01-1.44,2.14-2.26,2.98v2.12c.57-.17,1.17-.34,1.75-.53l.18,1.15Zm1.75-3.29c0,2.52-.27,6.53-1.88,9.21-.21-.24-.75-.61-1.03-.74,1.53-2.52,1.67-6.09,1.67-8.47v-2.68c2.4-.26,5.13-.66,6.75-1.16l1,1.04c-1.78,.48-4.24,.85-6.51,1.08v1.71Zm3.5,4.72c.53,1.28,1.05,2.89,1.26,3.99l-1.02,.3c-.04-.31-.12-.68-.23-1.07-2.16,.6-2.55,.74-2.8,.91-.17-.24-.61-.74-.85-.93,1.54-1.84,1.59-4.45,1.59-6.4v-2.47h1.2v2.48c0,1.61-.06,3.82-.95,5.74l1.51-.37c-.21-.67-.42-1.33-.66-1.91l.94-.29Zm1.74-6.01c.18,3.81,.55,7.67,1.67,9.59-.33,.21-.78,.66-1.02,1-1.21-2.28-1.57-6.26-1.78-10.49l1.14-.1Z"/>
          <path class="l" d="M223.66,350.85v11.47h-1.29v-.43h-11.08v-11.06h1.29v3.81c.18-.11,.34-.38,.51-.71,.21-.41,.87-2,1.16-3.45l1.23,.37c-.42,1.3-1.05,2.67-1.68,3.75l1.23-.1c.17-.43,.33-.88,.45-1.31l1.14,.38c-.69,1.82-1.63,3.69-2.62,5.16l1.54-.19c-.16-.51-.33-1.03-.49-1.5l.78-.31c.35,.93,.72,2.09,.93,2.95v-10.09h1.31v9.29c.29-.09,.52-.49,.85-1.01,.23-.33,.75-1.35,1.25-2.57-1.2,.14-1.5,.23-1.69,.31-.06-.23-.24-.8-.41-1.11,.21-.06,.41-.34,.61-.73,.21-.38,.84-1.91,1.14-3.31l1.23,.37c-.4,1.23-1.03,2.54-1.65,3.56l1.17-.08c.12-.38,.25-.77,.36-1.14l1.14,.38c-.67,1.8-1.61,3.65-2.59,5.09l1.67-.19c-.18-.53-.39-1.05-.57-1.52l.76-.34c.42,.91,.83,2.07,1.05,2.94v-8.69h1.29Zm-11.08,8.11c.28-.09,.52-.49,.87-1.03,.19-.31,.72-1.3,1.2-2.45-1.27,.14-1.59,.21-1.77,.31-.03-.17-.17-.58-.3-.88v4.05Zm0,1.71h4.17v-.68l-.78,.33c-.04-.26-.12-.54-.2-.84-2.21,.31-2.59,.4-2.83,.53-.04-.21-.22-.71-.36-1.01v1.68Zm9.79,0v-.71l-.75,.33c-.04-.27-.13-.57-.22-.88-2.34,.31-2.75,.38-2.98,.53-.05-.21-.23-.73-.36-1.01v1.75h4.32Z"/>
          <path class="l" d="M239.14,362.23c-.23-.41-.54-.93-.9-1.48-8.23,.6-9.16,.66-9.78,.9-.09-.26-.33-.96-.51-1.33,.52-.1,1.11-.44,2.07-1.05,.58-.36,1.86-1.25,3.25-2.41-3.54,.23-4.09,.3-4.45,.43-.08-.27-.3-.94-.48-1.31,.36-.07,.67-.33,1.09-.67,.42-.34,1.62-1.45,2.54-2.68h-4.84v-1.3h6.01c-.29-.51-.66-1.13-.99-1.61l1.29-.43c.48,.64,1.02,1.47,1.29,2.02h5.5v1.31h-7.21l.63,.31c-.88,1.07-1.92,2.09-2.96,2.95l3.96-.2c.68-.61,1.35-1.27,1.95-1.92l1.3,.84c-2.14,2.15-4.53,3.99-6.85,5.43l6.4-.38c-.43-.6-.91-1.18-1.35-1.7l1.2-.6c1.18,1.28,2.47,3.01,3.1,4.13l-1.27,.74Z"/>
          <path class="l" d="M247.95,358.06c-.21-.43-.72-1.23-1.17-1.88v6.23h-1.35v-5.77c-.55,1.3-1.23,2.51-1.92,3.32-.13-.36-.46-.9-.67-1.23,.88-.97,1.84-2.67,2.4-4.18h-2.2v-1.24h2.4v-1.91c-.64,.11-1.29,.2-1.89,.29-.04-.29-.24-.76-.39-1.03,1.68-.26,3.6-.67,4.77-1.15l.79,1.08c-.57,.21-1.23,.38-1.94,.54v2.18h2.1v1.24h-2.1v.2c.45,.44,1.73,1.9,2.01,2.27l-.84,1.04Zm7.03,.7v3.65h-1.38v-3.42l-4.72,.75-.21-1.27,4.93-.78v-8.35h1.38v8.14l1.63-.26,.21,1.24-1.84,.3Zm-3.27-1.92c-.5-.61-1.59-1.52-2.5-2.12l.88-.77c.9,.57,2.04,1.42,2.56,2.02l-.94,.87Zm.38-3.75c-.45-.6-1.47-1.47-2.33-2.07l.92-.76c.85,.56,1.89,1.38,2.38,1.98l-.97,.84Z"/>
        </g>
        <line class="g" x1="29.8" y1="268.33" x2="125.39" y2="268.33"/>
        <line class="g" x1="29.8" y1="320.89" x2="125.39" y2="320.89"/>
        <line class="g" x1="29.8" y1="374.17" x2="125.39" y2="374.17"/>
        <g>
          <path class="l" d="M54.64,247.88c0-3.63,1.39-5.4,3.57-5.4s3.57,1.78,3.57,5.4-1.41,5.47-3.57,5.47-3.57-1.82-3.57-5.47Zm5.49,0c0-3.01-.79-4.1-1.92-4.1s-1.92,1.1-1.92,4.1,.79,4.18,1.92,4.18,1.92-1.14,1.92-4.18Z"/>
          <path class="l" d="M65.44,251.23c.44,.47,1.11,.78,1.82,.78,1.33,0,2.49-1.03,2.59-4.02-.65,.76-1.59,1.23-2.43,1.23-1.85,0-3.09-1.1-3.09-3.29,0-2.08,1.5-3.45,3.28-3.45,2.12,0,3.83,1.62,3.83,5.09,0,4.13-1.98,5.79-4.11,5.79-1.27,0-2.17-.48-2.82-1.11l.93-1.01Zm4.38-4.47c-.17-2.07-.99-3.01-2.19-3.01-.95,0-1.7,.81-1.7,2.18s.63,2.11,1.79,2.11c.67,0,1.44-.37,2.1-1.28Z"/>
          <path class="l" d="M79.09,246.62c0-.67,.51-1.17,1.16-1.17s1.16,.5,1.16,1.17-.51,1.14-1.16,1.14-1.16-.48-1.16-1.14Zm0,5.6c0-.67,.51-1.17,1.16-1.17s1.16,.5,1.16,1.17-.51,1.14-1.16,1.14-1.16-.47-1.16-1.14Z"/>
          <path class="l" d="M88.96,247.88c0-3.63,1.4-5.4,3.57-5.4s3.57,1.78,3.57,5.4-1.41,5.47-3.57,5.47-3.57-1.82-3.57-5.47Zm5.49,0c0-3.01-.79-4.1-1.92-4.1s-1.92,1.1-1.92,4.1,.79,4.18,1.92,4.18,1.92-1.14,1.92-4.18Z"/>
          <path class="l" d="M98.71,247.88c0-3.63,1.4-5.4,3.57-5.4s3.57,1.78,3.57,5.4-1.41,5.47-3.57,5.47-3.57-1.82-3.57-5.47Zm5.49,0c0-3.01-.79-4.1-1.92-4.1s-1.92,1.1-1.92,4.1,.8,4.18,1.92,4.18,1.92-1.14,1.92-4.18Z"/>
        </g>
        <g>
          <path class="l" d="M55.22,299.87h2.42v-7.3h-1.98v-1.04c1.03-.18,1.77-.43,2.4-.8h1.3v9.13h2.16v1.35h-6.3v-1.35Z"/>
          <path class="l" d="M64.39,295.93c0-3.63,1.39-5.4,3.57-5.4s3.57,1.78,3.57,5.4-1.41,5.47-3.57,5.47-3.57-1.82-3.57-5.47Zm5.49,0c0-3.01-.79-4.1-1.92-4.1s-1.92,1.1-1.92,4.1,.79,4.18,1.92,4.18,1.92-1.14,1.92-4.18Z"/>
          <path class="l" d="M79.09,294.67c0-.67,.51-1.17,1.16-1.17s1.16,.5,1.16,1.17-.51,1.14-1.16,1.14-1.16-.48-1.16-1.14Zm0,5.6c0-.67,.51-1.17,1.16-1.17s1.16,.5,1.16,1.17-.51,1.14-1.16,1.14-1.16-.47-1.16-1.14Z"/>
          <path class="l" d="M88.96,295.93c0-3.63,1.4-5.4,3.57-5.4s3.57,1.78,3.57,5.4-1.41,5.47-3.57,5.47-3.57-1.82-3.57-5.47Zm5.49,0c0-3.01-.79-4.1-1.92-4.1s-1.92,1.1-1.92,4.1,.79,4.18,1.92,4.18,1.92-1.14,1.92-4.18Z"/>
          <path class="l" d="M98.71,295.93c0-3.63,1.4-5.4,3.57-5.4s3.57,1.78,3.57,5.4-1.41,5.47-3.57,5.47-3.57-1.82-3.57-5.47Zm5.49,0c0-3.01-.79-4.1-1.92-4.1s-1.92,1.1-1.92,4.1,.8,4.18,1.92,4.18,1.92-1.14,1.92-4.18Z"/>
        </g>
        <g>
          <path class="l" d="M55.22,351.94h2.42v-7.3h-1.98v-1.04c1.03-.18,1.77-.43,2.4-.8h1.3v9.14h2.16v1.35h-6.3v-1.35Z"/>
          <path class="l" d="M71.78,350.47h-1.41v2.82h-1.62v-2.82h-4.77v-1.1l4.4-6.57h1.99v6.4h1.41v1.27Zm-3.03-1.27v-2.75c0-.57,.06-1.45,.09-2.02h-.06c-.27,.53-.57,1.07-.88,1.61l-2.17,3.16h3.03Z"/>
          <path class="l" d="M79.09,346.74c0-.67,.51-1.17,1.16-1.17s1.16,.5,1.16,1.17-.51,1.14-1.16,1.14-1.16-.48-1.16-1.14Zm0,5.6c0-.67,.51-1.17,1.16-1.17s1.16,.5,1.16,1.17-.51,1.14-1.16,1.14-1.16-.47-1.16-1.14Z"/>
          <path class="l" d="M88.67,352.04l.84-1.05c.64,.63,1.47,1.15,2.61,1.15,1.25,0,2.1-.66,2.1-1.74,0-1.17-.78-1.92-3.27-1.92v-1.21c2.17,0,2.89-.78,2.89-1.84,0-.93-.64-1.51-1.69-1.52-.86,.01-1.58,.41-2.21,1l-.9-1.03c.87-.74,1.89-1.27,3.17-1.27,1.98,0,3.38,.97,3.38,2.71,0,1.21-.74,2.05-1.91,2.46v.07c1.28,.3,2.28,1.21,2.28,2.62,0,1.9-1.67,3.01-3.69,3.01-1.74,0-2.87-.66-3.6-1.44Z"/>
          <path class="l" d="M98.71,348c0-3.63,1.4-5.4,3.57-5.4s3.57,1.78,3.57,5.4-1.41,5.47-3.57,5.47-3.57-1.82-3.57-5.47Zm5.49,0c0-3.01-.79-4.1-1.92-4.1s-1.92,1.1-1.92,4.1,.8,4.18,1.92,4.18,1.92-1.14,1.92-4.18Z"/>
        </g>
        <g>
          <path class="l" d="M190.76,395.78h-4.05v-1.07h4.05v1.07Zm-.39,8.84h-2.16v.63h-1.04v-4.79h3.2v4.16Zm-3.15-8h3.17v1.04h-3.17v-1.04Zm0,1.9h3.17v1.04h-3.17v-1.04Zm1.35-3.83c-.1-.5-.43-1.33-.76-1.92l1-.36c.33,.58,.71,1.37,.83,1.88l-1.07,.4Zm-.36,6.81v2.08h1.11v-2.08h-1.11Zm8.16-2.01c-.34,.53-.72,1.01-1.17,1.48v3.06c0,.57-.12,.9-.51,1.1-.39,.19-1,.21-1.89,.21-.04-.3-.22-.81-.41-1.1,.62,.03,1.23,.01,1.4,.01,.19,0,.25-.06,.25-.24v-1.92c-.92,.8-1.91,1.5-2.9,2.04-.1-.24-.4-.78-.58-1.04,1.19-.57,2.4-1.4,3.41-2.35-1.11,.13-2.19,.24-3.11,.33l-.1-1.04,.55-.04v-6.07h1.11c.17-.53,.33-1.13,.41-1.6l1.36,.21c-.19,.46-.4,.96-.58,1.38h1.59v5.4l.14-.2,1.03,.37Zm-2.32-4.53h-1.59v1h1.59v-1Zm0,1.95h-1.59v.98h1.59v-.98Zm-1.59,2.96l1.59-.13v-.9h-1.59v1.03Zm7.77-3.29h-.78v7.31c0,.67-.15,1-.57,1.2-.43,.2-1.09,.24-2.07,.24-.08-.31-.29-.85-.45-1.18,.67,.03,1.33,.03,1.54,.03,.21-.01,.29-.07,.29-.3v-7.3h-2.61v-1.21h2.61v-2.94h1.26v2.94h.78v1.21Zm-3.39,4.62c-.14-.84-.57-2.24-1.05-3.32l1.04-.27c.51,1.03,.97,2.41,1.12,3.25l-1.11,.34Z"/>
          <path class="l" d="M207.35,401.98c-1.47,.57-3.03,1.2-4.27,1.65l-.46-1.35c.51-.16,1.12-.36,1.78-.57v-4.7h-1.53v-1.25h1.53v-3.26h1.31v3.26h1.21v1.25h-1.21v4.25l1.38-.47,.27,1.2Zm8.97,2.14v1.01h-10.03v-1.01h10.03Zm-.11-9.59h-9.55v-1h4.03c-.18-.31-.4-.63-.62-.88l1.12-.5c.38,.41,.78,.97,.95,1.38h4.06v1Zm-.66,4.99h-8.19v-4.47h8.19v4.47Zm-7.74,4.06v-3.55h7.18v3.55h-7.18Zm6.54-7.72h-5.85v2.85h5.85v-2.85Zm-5.26,5.59h4.57v-.66h-4.57v.66Zm0,1.38h4.57v-.67h-4.57v.67Zm4.36-4.6h-4.08v-1.85h4.08v1.85Zm-.97-1.23h-2.17v.6h2.17v-.6Z"/>
          <path class="l" d="M231.23,405.23c-.22-.41-.54-.93-.9-1.48-8.23,.6-9.16,.66-9.78,.9-.09-.26-.33-.96-.51-1.33,.53-.1,1.11-.44,2.07-1.05,.58-.36,1.86-1.25,3.25-2.41-3.54,.23-4.09,.3-4.45,.43-.08-.27-.3-.94-.48-1.31,.36-.07,.67-.33,1.09-.67,.42-.34,1.62-1.45,2.54-2.68h-4.84v-1.3h6.01c-.29-.51-.66-1.13-.99-1.61l1.29-.43c.48,.64,1.02,1.47,1.29,2.02h5.5v1.31h-7.21l.63,.31c-.88,1.07-1.92,2.09-2.95,2.95l3.96-.2c.67-.61,1.35-1.27,1.95-1.92l1.3,.84c-2.14,2.15-4.53,3.99-6.85,5.43l6.41-.38c-.44-.6-.92-1.18-1.35-1.7l1.2-.6c1.19,1.28,2.47,3.01,3.11,4.13l-1.28,.74Z"/>
          <path class="l" d="M240.04,401.06c-.21-.43-.72-1.23-1.17-1.88v6.23h-1.35v-5.77c-.55,1.3-1.23,2.51-1.92,3.32-.13-.36-.46-.9-.67-1.23,.88-.97,1.84-2.67,2.4-4.18h-2.2v-1.24h2.4v-1.91c-.64,.11-1.29,.2-1.89,.29-.04-.29-.24-.76-.39-1.03,1.68-.26,3.6-.67,4.77-1.15l.79,1.08c-.57,.21-1.23,.38-1.94,.54v2.18h2.1v1.24h-2.1v.2c.45,.44,1.73,1.9,2.01,2.27l-.84,1.04Zm7.04,.7v3.65h-1.38v-3.42l-4.72,.75-.21-1.27,4.93-.78v-8.35h1.38v8.14l1.63-.26,.21,1.24-1.84,.3Zm-3.27-1.92c-.5-.61-1.59-1.52-2.5-2.12l.88-.77c.9,.57,2.04,1.42,2.56,2.02l-.94,.87Zm.38-3.75c-.45-.6-1.47-1.47-2.33-2.07l.92-.76c.86,.56,1.89,1.38,2.38,1.98l-.97,.84Z"/>
        </g>
        <g>
          <path class="l" d="M55.22,402.94h2.42v-7.3h-1.98v-1.04c1.03-.18,1.77-.43,2.4-.8h1.3v9.14h2.16v1.35h-6.3v-1.35Z"/>
          <path class="l" d="M69.61,395.19h-5.19v-1.38h7.11v1c-2.59,3.08-3,5.39-3.18,9.49h-1.77c.2-3.83,.9-6.29,3.03-9.11Z"/>
          <path class="l" d="M79.09,397.74c0-.67,.51-1.17,1.16-1.17s1.16,.5,1.16,1.17-.51,1.14-1.16,1.14-1.16-.48-1.16-1.14Zm0,5.6c0-.67,.51-1.17,1.16-1.17s1.16,.5,1.16,1.17-.51,1.14-1.16,1.14-1.16-.47-1.16-1.14Z"/>
          <path class="l" d="M88.67,403.04l.84-1.05c.64,.63,1.47,1.15,2.61,1.15,1.25,0,2.1-.66,2.1-1.74,0-1.17-.78-1.92-3.27-1.92v-1.21c2.17,0,2.89-.78,2.89-1.84,0-.93-.64-1.51-1.69-1.52-.86,.01-1.58,.41-2.21,1l-.9-1.03c.87-.74,1.89-1.27,3.17-1.27,1.98,0,3.38,.97,3.38,2.71,0,1.21-.74,2.05-1.91,2.46v.07c1.28,.3,2.28,1.21,2.28,2.62,0,1.9-1.67,3.01-3.69,3.01-1.74,0-2.87-.66-3.6-1.44Z"/>
          <path class="l" d="M98.71,399c0-3.63,1.4-5.4,3.57-5.4s3.57,1.78,3.57,5.4-1.41,5.47-3.57,5.47-3.57-1.82-3.57-5.47Zm5.49,0c0-3.01-.79-4.1-1.92-4.1s-1.92,1.1-1.92,4.1,.8,4.18,1.92,4.18,1.92-1.14,1.92-4.18Z"/>
        </g>
      </g>
    </g>
  </g>
</svg>