<?xml version="1.0" encoding="UTF-8"?>
<svg id="b" data-name="圖層 2" xmlns="http://www.w3.org/2000/svg" width="352.4" height="54.29" viewBox="0 0 352.4 54.29">
  <defs>
    <style>
      .d {
        fill: #fff;
      }

      .e {
        opacity: .2;
      }
    </style>
  </defs>
  <g id="c" data-name="圖層 1">
    <g class="e">
      <g>
        <path class="d" d="M0,30.36L19.73,.92h12.79l19.92,29.44h-12.65L22.72,4h6.85L12.65,30.36H0Zm10.3-4.46v-6.9h31.46v6.9H10.3Z"/>
        <path class="d" d="M107.87,18.08c-.15,2.91-1.21,5.35-3.17,7.31-1.96,1.96-4.85,3.43-8.67,4.42-3.82,.98-8.64,1.47-14.47,1.47-4.45,0-8.43-.24-11.96-.71-3.53-.48-6.53-1.29-9.02-2.44-2.48-1.15-4.39-2.72-5.7-4.71-1.32-1.99-1.98-4.51-1.98-7.54s.66-5.57,1.98-7.61c1.32-2.04,3.22-3.67,5.7-4.88,2.48-1.21,5.49-2.08,9.02-2.6,3.53-.52,7.51-.78,11.96-.78,5.83,0,10.66,.53,14.49,1.59,3.83,1.06,6.73,2.62,8.69,4.67,1.96,2.05,3.02,4.55,3.17,7.5h-11.96c-.37-.98-1.04-1.85-2.02-2.6-.98-.75-2.45-1.34-4.42-1.77-1.96-.43-4.62-.64-7.96-.64-3.93,0-7.11,.24-9.57,.71-2.45,.48-4.25,1.24-5.38,2.28-1.14,1.04-1.7,2.42-1.7,4.14,0,1.56,.57,2.84,1.7,3.82,1.13,.98,2.93,1.7,5.38,2.16,2.45,.46,5.64,.69,9.57,.69,3.34,0,5.99-.2,7.94-.6,1.95-.4,3.41-.94,4.39-1.63,.98-.69,1.66-1.43,2.02-2.23h11.96Z"/>
        <path class="d" d="M111.14,.92h47.84V9.66h-47.84V.92Zm18.17,8.14h11.5V30.36h-11.5V9.06Z"/>
        <path class="d" d="M164.27,.92h11.5V30.36h-11.5V.92Z"/>
        <path class="d" d="M198.44,30.36L180.6,.92h12.97l15.23,28.29h-4.69L219.33,.92h12.79l-17.66,29.44h-16.01Z"/>
        <path class="d" d="M236.95,.92h11.5V30.36h-11.5V.92Z"/>
        <path class="d" d="M253.73,.92h47.84V9.66h-47.84V.92Zm18.17,8.14h11.5V30.36h-11.5V9.06Z"/>
        <path class="d" d="M352.4,.92l-18.63,21.94v7.5h-11.5v-7.5L303.64,.92h13.57l15.13,19.09h-8.51L338.83,.92h13.57Z"/>
      </g>
    </g>
    <g>
      <path class="d" d="M117.89,41.13c-1.18-.83-3.64-2.18-5.34-3.1l1.84-2.52c1.58,.77,4.13,2.01,5.39,2.78l-1.89,2.84Zm-4.93,10.33c1.52-2.15,3.73-5.71,5.45-9.04l2.5,2.29c-1.52,3.01-3.33,6.28-5.08,9.06l-2.87-2.32Zm6.17-18.16c-1.12-.86-3.56-2.21-5.22-3.16l1.92-2.47c1.61,.8,4.1,2.07,5.34,2.87l-2.04,2.75Zm12.71,5.59v3.61h5.85v11.45h-3.24v-1.03h-8.63v1.18h-3.07v-11.59h5.85v-3.61h-7.63v-3.27h7.63v-3.36c-1.89,.29-3.79,.49-5.59,.66-.12-.83-.57-2.15-.95-2.93,4.88-.49,10.24-1.43,13.4-2.7l2.64,2.7c-1.86,.72-3.99,1.26-6.25,1.69v3.93h7.29v3.27h-7.29Zm2.61,6.71h-8.63v4.22h8.63v-4.22Z"/>
      <path class="d" d="M170.16,33.75s-.03,1.12-.03,1.52c-.26,11.73-.49,15.89-1.41,17.21-.66,.95-1.32,1.23-2.27,1.43-.86,.17-2.18,.14-3.56,.11-.06-.95-.43-2.32-1-3.27,1.26,.11,2.35,.14,2.9,.14,.43,0,.72-.11,.97-.49,.6-.77,.89-4.27,1.06-13.54h-2.58c-.37,7.69-1.69,13.6-6.51,17.41-.43-.69-1.26-1.63-2.01-2.27-4.13,.43-8.26,.86-11.36,1.12l-.4-2.87c1.61-.12,3.62-.26,5.82-.4v-1.72h-5.05v-2.41h5.05v-1.12h-4.93v-8.86h4.93v-1.12h-5.65v-2.47h5.65v-1.15c-1.66,.11-3.3,.2-4.85,.23-.11-.69-.43-1.75-.75-2.41,4.25-.23,9.21-.72,12.36-1.41l1.49,2.55c-1.52,.32-3.3,.57-5.16,.77v1.41h5.51v1.58h2.7c.03-1.89,.03-3.87,.03-6h3.27c0,2.09,0,4.1-.06,6h5.82Zm-22.61,5.42h2.24v-1.26h-2.24v1.26Zm2.24,3.33v-1.29h-2.24v1.29h2.24Zm3.1,7.11c1.63-.11,3.33-.26,4.99-.4,2.24-3.1,2.93-7.2,3.13-12.34h-2.61v-2.24h-5.51v1.12h5.08v8.86h-5.08v1.12h5.19v2.41h-5.19v1.46Zm2.24-10.44v-1.26h-2.24v1.26h2.24Zm-2.24,2.04v1.29h2.24v-1.29h-2.24Z"/>
      <path class="d" d="M186.67,45.29c-3.47,1.32-7.2,2.67-10.07,3.7l-1.41-3.27c1.09-.32,2.47-.72,3.96-1.18v-11.02h-3.18v-3.16h9.81v3.16h-3.18v9.95l3.53-1.15,.54,2.95Zm3.79,3.16l2.64,1.86c-1.89,1.46-4.91,2.96-7.43,3.76-.46-.66-1.38-1.69-2.07-2.32,2.32-.72,5.16-2.12,6.63-3.3h-2.9v-15.15h4.5c.14-.66,.26-1.35,.37-1.98h-6.05v-2.87h16.24v2.87h-6.34c-.23,.69-.49,1.35-.72,1.98h6v15.15h-10.87Zm.03-10.81h7.52v-1.81h-7.52v1.81Zm0,4.13h7.52v-1.84h-7.52v1.84Zm0,4.19h7.52v-1.84h-7.52v1.84Zm6.68,2.58c1.81,.98,4.39,2.5,5.71,3.59l-2.7,2.01c-1.18-1.06-3.67-2.7-5.54-3.79l2.52-1.81Z"/>
      <path class="d" d="M230.59,28.85v24.93h-3.61v-1.78h-13.28v1.78h-3.44V28.85h20.34Zm-16.9,3.33v3.3h13.28v-3.3h-13.28Zm0,6.51v3.39h13.28v-3.39h-13.28Zm13.28,9.98v-3.39h-13.28v3.39h13.28Z"/>
    </g>
  </g>
</svg>