<?xml version="1.0" encoding="UTF-8"?>
<svg xmlns="http://www.w3.org/2000/svg" width="314" height="437.69" xmlns:xlink="http://www.w3.org/1999/xlink" viewBox="0 0 314 437.69">
  <defs>
    <style>
      .d {
        fill: #fff;
      }

      .e {
        stroke-width: .83px;
      }

      .e, .f {
        stroke: #fff;
      }

      .e, .f, .g, .h {
        stroke-miterlimit: 10;
      }

      .e, .h {
        fill: none;
      }

      .i, .f {
        fill: #fc462d;
      }

      .j {
        isolation: isolate;
      }

      .f {
        stroke-width: .48px;
      }

      .k {
        opacity: .35;
      }

      .l, .g {
        fill: #595757;
      }

      .m {
        mix-blend-mode: multiply;
        opacity: .14;
      }

      .g {
        stroke-width: .83px;
      }

      .g, .h {
        stroke: #9fa0a0;
      }

      .h {
        stroke-width: .82px;
      }
    </style>
  </defs>
  <g class="j">
    <g id="b" data-name="圖層 2">
      <g id="c" data-name="圖層 1">
        <rect class="f" x="181.57" y="1.12" width="22.45" height="114.69"/>
        <g>
          <path class="d" d="M198.52,17.11c-.74,.29-1.5,.6-2.2,.83,.81,.29,1.76,.48,2.86,.57-.29,.29-.67,.91-.85,1.32-2.91-.39-4.72-1.44-5.8-3.36h-1.26v1.68l2.12-.41c-.03,.39-.03,.97,0,1.29-3,.66-3.49,.76-3.77,.92-.06-.36-.28-1.02-.46-1.3,.25-.11,.57-.38,.57-.99v-1.19h-.9c-.2,1.22-.6,2.45-1.34,3.42-.31-.25-1.01-.69-1.4-.85,1.22-1.5,1.36-3.6,1.36-5.06v-1.81h11.08v1.18h-9.5v.43h8.95v1.04h-8.96c-.01,.15-.03,.31-.03,.48h9.9v1.18h-1.12l.76,.64Zm-.56-5.38h-10.42V7.63h2.83v-.85h1.62v.85h1.34v-.85h1.64v.85h2.98v4.1Zm-8.89-2.54h1.3v-.56h-1.3v.56Zm0,1.51h1.3v-.56h-1.3v.56Zm2.93-2.07v.56h1.34v-.56h-1.34Zm0,1.51v.56h1.34v-.56h-1.34Zm2.12,6.32c.24,.31,.56,.59,.92,.81,.55-.2,1.18-.52,1.72-.81h-2.65Zm2.25-7.83h-1.39v.56h1.39v-.56Zm0,1.51h-1.39v.56h1.39v-.56Z"/>
          <path class="d" d="M198.97,23.62h-1.51l.67,.88c-.43,.14-.95,.27-1.51,.36v.74h2v1.05h-1.99c.62,.35,1.98,1.25,2.33,1.5l-.71,1.08c-.35-.34-1.02-.88-1.62-1.34v1.42h-1.39v-1.58c-.42,.63-.91,1.18-1.42,1.55-.21-.32-.62-.77-.91-1.01,.63-.35,1.29-.95,1.75-1.61h-1.11v-1.05h1.68v-.56c-.43,.04-.85,.07-1.25,.08-.04-.27-.18-.64-.32-.91,1.25-.1,2.73-.29,3.66-.6h-8.92v2.82c0,.53,0,1.11-.03,1.72,.59-.35,1.18-.92,1.61-1.53h-1.19v-1.04h1.61v-.5c-.42,.04-.84,.07-1.2,.1-.04-.25-.18-.63-.32-.9,1.2-.11,2.65-.32,3.46-.64l.74,.9c-.38,.14-.83,.25-1.32,.34v.71h1.36v1.04h-1.36v.03c.36,.21,1.23,.76,1.47,.94l-.8,1.01c-.14-.17-.41-.41-.67-.66v1.36h-1.36v-1.39c-.36,.52-.78,.97-1.19,1.29-.2-.29-.56-.67-.84-.92-.07,2.12-.31,4.64-.97,6.42-.32-.24-1.04-.62-1.43-.76,.81-2.16,.87-5.31,.87-7.49v-4.33h12.13v1.5Zm-9.51,6h8.33v5.07h-1.72v-.43h-4.97v.45h-1.64v-5.08Zm1.64,1.15v.66h4.97v-.66h-4.97Zm4.97,2.33v-.64h-4.97v.64h4.97Z"/>
          <path class="d" d="M198.98,47.24h-5.48v6.32h-1.82v-6.32h-5.39v-1.74h5.39v-5.01h1.82v5.01h5.48v1.74Z"/>
          <path class="d" d="M198.8,65.31v1.92h-12.44v-1.92h12.44Zm-1.16-8.08v1.83h-10.11v-1.83h10.11Z"/>
          <path class="d" d="M197.33,81.11c0,1.01-.24,1.48-.88,1.76-.67,.29-1.65,.32-3.1,.32-.1-.49-.43-1.29-.7-1.75,.98,.06,2.16,.04,2.46,.04,.34,0,.45-.11,.45-.41v-2.03h-6c-.36,1.57-1.06,3.1-2.37,4.19-.25-.35-.92-.97-1.29-1.21,2.12-1.81,2.31-4.48,2.31-6.61v-4.61h9.1v10.3Zm-1.76-3.67v-1.71h-5.62c-.01,.53-.04,1.12-.1,1.71h5.71Zm-5.62-5v1.71h5.62v-1.71h-5.62Z"/>
          <path class="d" d="M198.98,91.76h-5.48v6.32h-1.82v-6.32h-5.39v-1.74h5.39v-5.01h1.82v5.01h5.48v1.74Z"/>
          <path class="d" d="M199.04,105.34v1.81h-12.89v-1.81h12.89Z"/>
        </g>
        <g class="k">
          <g>
            <path class="d" d="M127.82,18.7c0,2.34-.22,4.27-.67,5.79-.45,1.52-1.06,2.72-1.84,3.58-.78,.87-1.67,1.48-2.66,1.83-1,.36-2.04,.53-3.13,.53s-2.13-.2-3.13-.6c-1-.4-1.88-1.05-2.66-1.96-.78-.91-1.39-2.11-1.84-3.61-.45-1.5-.67-3.35-.67-5.57V0h16.62V18.7Zm-11.42-12.2v11.94c0,.97,.07,1.79,.2,2.47,.13,.67,.32,1.22,.58,1.62,.26,.41,.58,.7,.97,.88,.39,.18,.84,.27,1.36,.27s.97-.09,1.36-.27c.39-.18,.71-.48,.97-.88,.26-.41,.45-.95,.58-1.62,.13-.68,.2-1.5,.2-2.47V6.49h-6.23Z"/>
            <path class="d" d="M111.2,30.69l16.62,11.14v7.22l-16.62,11.24v-7.14l14.88-9.63v3.87l-14.88-9.55v-7.14Zm2.52,5.82h3.89v17.76h-3.89v-17.76Z"/>
            <path class="d" d="M127.82,83.79l-12.38-10.52h-4.23v-6.49h4.23l12.38-10.52v7.66l-10.78,8.54v-4.8l10.78,8.46v7.66Z"/>
            <path class="d" d="M115.09,105.03l-.73-5.63,.26-.03,.6,17.58h-4.02v-23.11h3.25c.48,2.75,.92,5.17,1.31,7.24s.75,3.8,1.09,5.18,.67,2.41,1.01,3.1c.34,.69,.71,1.04,1.1,1.04,.28,0,.48-.15,.61-.44,.13-.29,.22-.83,.27-1.6s.08-1.87,.08-3.31c0-1.83-.14-3.22-.43-4.15-.29-.93-.73-1.45-1.34-1.53v-6.49c1.28,0,2.38,.47,3.3,1.4,.92,.94,1.62,2.32,2.12,4.17s.74,4.12,.74,6.84c0,1.61-.07,3.12-.2,4.53-.13,1.41-.36,2.65-.69,3.73-.33,1.07-.78,1.91-1.36,2.52-.58,.61-1.32,.91-2.22,.91-.8,0-1.45-.29-1.97-.88-.52-.59-.94-1.42-1.27-2.49s-.61-2.34-.83-3.79-.45-3.05-.67-4.78Z"/>
          </g>
        </g>
        <g>
          <path class="d" d="M164,5.17h-5.27c.79,.64,1.61,1.37,2.1,1.92l-2.19,1.92h2.5v7.71h-9.66v1.8h11.15s-.03,.88-.09,1.31c-.3,4.05-.67,6.03-1.46,6.83-.64,.73-1.37,.97-2.32,1.07-.85,.09-2.29,.12-3.87,.06-.06-1.07-.43-2.41-1.01-3.29,1.28,.12,2.56,.15,3.11,.12,.46,0,.76-.03,1.04-.27,.3-.3,.55-1.13,.73-2.8h-7.28v7.53h-3.57v-5.94c-2.56,2.5-5.94,4.57-9.26,5.82-.52-.88-1.52-2.19-2.29-2.86,3.17-.94,6.46-2.62,8.84-4.54h-6.55c.46-2.07,.91-5.24,1.13-7.8h8.14v-1.74h-9.26v-2.99h6.22c-.67-.85-1.86-1.98-2.8-2.8l1.16-1.01h-1.8c-.97,1.52-2.07,2.89-3.11,3.93-.52-.61-1.74-1.89-2.44-2.44,1.8-1.58,3.47-3.99,4.42-6.4l3.2,.91c-.15,.4-.33,.82-.55,1.22h6.7v2.77h-4.36c.82,.7,1.62,1.46,2.07,2.01l-1.95,1.8h12.86c-.67-.82-1.98-1.92-2.96-2.71l1.31-1.13h-2.5c-.73,1.16-1.55,2.16-2.38,2.96-.61-.61-1.92-1.65-2.71-2.1,1.68-1.43,3.05-3.56,3.81-5.73l3.29,.82c-.15,.43-.33,.88-.52,1.31h8.38v2.74Zm-16.09,11.55h-4.97c-.09,.61-.15,1.22-.24,1.8h5.21v-1.8Zm9.63-4.72h-6.06v1.74h6.06v-1.74Z"/>
          <path class="d" d="M163.54,64.99v4.17h-27.06v-4.17h27.06Zm-2.53-17.58v3.99h-22v-3.99h22Z"/>
          <path class="d" d="M152.6,100.81c2.13,4.85,6.03,8.41,11.98,9.96-.88,.76-1.98,2.35-2.5,3.38-5.73-1.83-9.42-5.36-11.98-10.36-1.68,4.05-5.12,7.89-11.98,10.45-.49-.91-1.58-2.44-2.38-3.14,7.04-2.5,10.03-6.43,11.28-10.3h-10.21v-3.72h10.97c.06-.82,.09-1.58,.09-2.35v-3.08h-9.96v-3.72h24.13v3.72h-10.36v3.14c0,.73-.03,1.49-.06,2.29h11.61v3.72h-10.63Z"/>
        </g>
        <g>
          <image class="m" width="314" height="90" transform="translate(0 134.69)" xlink:href="資產 21.png"/>
          <path class="i" d="M303.51,214.29H5.11v-63.57c0-6.08,4.93-11.01,11.01-11.01H292.5c6.08,0,11.01,4.93,11.01,11.01v63.57Z"/>
        </g>
        <g>
          <image class="m" width="314" height="228" transform="translate(0 209.69)" xlink:href="資產 22.png"/>
          <path class="d" d="M5.11,214.99H303.51v201.23c0,6.08-4.93,11.01-11.01,11.01H16.12c-6.08,0-11.01-4.93-11.01-11.01V214.99Z"/>
        </g>
        <g>
          <path class="d" d="M63.48,183.76h-3.67v1.42h-1.52v-12.49h5.18v11.06Zm-3.67-9.66v3.36h2.13v-3.36h-2.13Zm2.13,8.27v-3.53h-2.13v3.53h2.13Zm7.65-7.45v1.91h3.68v1.36h-1.43v1.61h1.89v1.37h-1.89v4.12c0,.8-.19,1.22-.78,1.44-.62,.25-1.53,.27-2.89,.27-.07-.42-.32-1.04-.55-1.46,.99,.03,1.96,.03,2.24,.03,.28-.02,.37-.08,.37-.32v-4.08h-6.4v-1.37h6.4v-1.61h-5.76v-1.36h3.49v-1.91h-4.18v-1.39h4.18v-1.91h1.62v1.91h4.21v1.39h-4.21Zm-3.49,6.66c.78,.84,1.74,1.99,2.2,2.76l-1.44,.82c-.41-.75-1.34-1.99-2.12-2.88l1.36-.7Z"/>
          <path class="d" d="M82.02,178.13v8.87h-1.62v-14.7h6.5v5.83h-4.88Zm0-4.65v1.16h3.33v-1.16h-3.33Zm3.33,3.5v-1.24h-3.33v1.24h3.33Zm9.61,8.08c0,.89-.19,1.39-.83,1.66-.62,.25-1.59,.27-3.07,.27-.07-.42-.3-1.09-.51-1.52h-4.76v.84h-1.5v-7.01h6.61v6.13c.86,.03,1.71,.02,1.99,.02,.32-.02,.41-.1,.41-.38v-6.88h-5.01v-5.86h6.66v12.75Zm-9.16-4.6v1.31h3.58v-1.31h-3.58Zm3.58,3.83v-1.39h-3.58v1.39h3.58Zm.49-10.81v1.16h3.44v-1.16h-3.44Zm3.44,3.53v-1.27h-3.44v1.27h3.44Z"/>
        </g>
        <g>
          <path class="d" d="M177.78,179.37c-.67-.6-2.08-1.37-3.23-1.84l.86-1.17c1.13,.42,2.56,1.14,3.28,1.69l-.92,1.32Zm1.69,2.11c-.93,1.74-2.1,3.73-3.15,5.32l-1.38-1.05c.93-1.27,2.29-3.4,3.31-5.31l1.22,1.04Zm-1.13-6.46c-.6-.64-1.94-1.51-3.01-2.04l.92-1.14c1.08,.5,2.43,1.32,3.08,1.94l-.99,1.24Zm2.64,4.52h1.48v1.69c0,1.84-.28,4.07-2.54,5.71-.25-.32-.79-.82-1.15-1.02,1.99-1.41,2.2-3.25,2.2-4.72v-1.66Zm8.32,0c-.21-.32-.51-.72-.85-1.14-6.86,.43-7.7,.5-8.27,.72-.09-.32-.35-1.05-.53-1.46,.39-.08,.79-.47,1.3-1.05,.25-.25,.69-.77,1.2-1.47h-2.64v-1.41h3.67c.42-.67,.88-1.39,1.23-2.09l1.6,.6c-.3,.5-.63,1-.95,1.49h5.34v1.41h-6.36c-.65,.84-1.3,1.61-1.96,2.31l5.38-.3c-.39-.43-.76-.87-1.07-1.27l1.23-.67c.99,1.1,2.34,2.63,3.01,3.53l-1.34,.8Zm-5.27,.13h1.44v6.61h-1.44v-6.61Zm5.71,5.76c.21,0,.58-.03,.79-.1,.02,.38,.07,.89,.12,1.21-.23,.08-.58,.1-.9,.1h-1.04c-1.38,0-1.64-.55-1.64-1.89v-5.21h1.52v5.24c0,.49,.04,.65,.26,.65h.88Z"/>
          <path class="d" d="M201.81,182.12c-.23-.52-.76-1.44-1.23-2.24v7.15h-1.55v-6.95c-.58,1.61-1.3,3.16-2.08,4.17-.12-.44-.51-1.12-.76-1.52,.92-1.14,1.89-3.13,2.45-4.9h-2.19v-1.44h2.57v-2.38c-.65,.12-1.3,.22-1.92,.3-.07-.33-.25-.87-.44-1.21,1.76-.32,3.75-.79,4.97-1.34l.92,1.27c-.58,.23-1.27,.42-1.97,.6v2.75h2.13v1.44h-2.13v.35c.48,.54,1.85,2.26,2.15,2.68l-.92,1.27Zm10.66,3.13v1.39h-10.08v-1.39h4.37v-1.92h-3.44v-1.34h3.44v-1.72c-.99,.1-1.99,.17-2.91,.2-.02-.33-.23-.87-.39-1.21,2.47-.15,5.38-.45,7.05-.92l1.04,1.17c-.9,.23-2.01,.42-3.17,.57v1.91h3.38v1.34h-3.38v1.92h4.09Zm-.9-7.35h-8.12v-5.46h8.12v5.46Zm-1.59-4.13h-5v2.81h5v-2.81Z"/>
          <path class="d" d="M233.33,185.1c0,.89-.19,1.37-.85,1.62s-1.71,.27-3.19,.27c-.07-.45-.33-1.16-.58-1.59,1.07,.05,2.22,.03,2.54,.03,.32-.02,.42-.1,.42-.35v-3.31c-.37,.3-.9,.92-1.16,1.34-2.08-1.07-3.37-2.79-4.12-5-.76,2.33-2.12,4.03-4.28,5.11-.19-.33-.65-.87-1-1.19v4.99h-1.66v-11.67h6.31c-.07-.52-.12-1.07-.18-1.62h-3.05v-1.37h4.48c.05,1.07,.14,2.08,.32,3h6.01v9.76Zm-12.23-3.18c2.13-1.02,3.45-2.69,4.07-5.05h-4.07v5.05Zm6.57-5.05c.67,2.28,1.89,3.95,4,4.89v-4.89h-4Z"/>
          <path class="d" d="M249.39,177.18c-.09,.15-.19,.28-.3,.42,1.97,2.04,4.39,3.31,7.17,4.3-.39,.33-.83,.85-1.06,1.29-.71-.28-1.39-.62-2.04-.94v4.7h-1.67v-.47h-6.66v.52h-1.6v-4.55c-.69,.35-1.41,.69-2.13,.95-.23-.38-.67-.92-1.04-1.26,3.22-1.09,6.27-3.08,7.91-5.56l1.43,.59Zm-6.96-.84h-1.6v-3.25h6.64c-.18-.42-.39-.85-.6-1.24l1.69-.35c.3,.47,.63,1.09,.85,1.59h6.12v3.25h-1.66v-1.84h-11.44v1.84Zm4.25-.75c-1.13,1.46-2.91,2.85-4.51,3.7-.23-.28-.79-.9-1.13-1.17,1.55-.7,3.15-1.84,4.11-3.03l1.53,.5Zm4.81,9.52v-2.34h-6.66v2.34h6.66Zm.16-3.72c-1.23-.75-2.34-1.62-3.42-2.71-.92,1-2.01,1.92-3.19,2.71h6.61Zm-1.04-6.29c1.53,.87,3.52,2.21,4.49,3.15l-1.18,1c-.92-.92-2.85-2.33-4.44-3.26l1.13-.89Z"/>
        </g>
        <g>
          <line class="e" x1="145.78" y1="150.35" x2="145.78" y2="208.04"/>
          <line class="h" x1="145.78" y1="218.25" x2="145.78" y2="415.12"/>
        </g>
        <line class="g" x1="160.87" y1="296.65" x2="270.3" y2="296.65"/>
        <line class="g" x1="160.87" y1="373.5" x2="270.3" y2="373.5"/>
        <g>
          <path class="l" d="M190.87,264.86c-.25-.4-.74-1.01-1.17-1.58v5.74h-1.26v-5.39c-.48,.51-.99,.96-1.49,1.33-.09-.38-.39-1.08-.57-1.33,1.33-.9,2.68-2.46,3.46-4.09h-3.17v-1.2h2.21c-.23-.5-.71-1.21-1.14-1.74l1-.61c.53,.54,1.04,1.28,1.28,1.78l-.88,.57h1.38l.24-.06,.72,.47c-.38,1.08-.93,2.11-1.58,3.06,.55,.53,1.54,1.64,1.83,1.94l-.87,1.1Zm9.36,2.89v1.01h-8.95v-1.01h2.58c-.15-.4-.34-.86-.51-1.24l1.07-.3c.25,.48,.51,1.11,.64,1.54h1.53c.22-.48,.53-1.11,.66-1.55l1.25,.33c-.25,.43-.53,.86-.77,1.23h2.5Zm-.17-4.92h-8.52v-.98h8.52v.98Zm-.45-1.6h-7.57v-4.16h2.1v-1.13h1.11v1.13h1.09v-1.13h1.11v1.13h2.16v4.16Zm-7.12,4.95v-2.72h6.67v2.72h-6.67Zm.69-7.44h1.14v-.84h-1.14v.84Zm0,1.65h1.14v-.86h-1.14v.86Zm.48,4.95h4.3v-1.05h-4.3v1.05Zm2.68-6.6v-.84h-1.09v.84h1.09Zm-1.09,.8v.86h1.09v-.86h-1.09Zm3.19-1.64h-1.17v.84h1.17v-.84Zm0,1.64h-1.17v.86h1.17v-.86Z"/>
          <path class="l" d="M205.76,256.61c-.48,2.12-1.3,4.2-2.32,5.56-.21-.23-.71-.7-.99-.91,.96-1.17,1.67-3.02,2.07-4.9l1.24,.26Zm2.4,10.9c-.04-.24-.12-.51-.2-.81-3.55,.67-4.11,.83-4.45,1.01h-.02v-.07c-.09-.3-.3-.85-.43-1.17,.29-.07,.5-.49,.76-1.1,.3-.6,1.14-2.88,1.54-4.99l1.37,.36c-.45,1.87-1.16,3.82-1.86,5.39l2.78-.5c-.25-.8-.57-1.68-.88-2.42l1.14-.37c.6,1.37,1.25,3.15,1.5,4.23l-1.25,.44Zm.21-5.9c-.3-1.24-1.11-3.29-1.86-4.83l1.16-.44c.79,1.53,1.65,3.52,1.95,4.76l-1.25,.51Zm3.96,5.32c-.75,.77-1.96,1.54-3.04,2-.15-.29-.45-.7-.69-.97,.96-.4,2.08-1.14,2.62-1.75l1.11,.73Zm-.78-7.92c.18-.37,.34-.8,.5-1.17h-2.94v-1.18h7.17v1.18h-2.75c-.23,.38-.44,.8-.65,1.17h2.83v7.11h-5.94v-7.11h1.77Zm2.87,1.04h-3.39v1.03h3.39v-1.03Zm0,1.98h-3.39v1.04h3.39v-1.04Zm0,2.01h-3.39v1.05h3.39v-1.05Zm-.54,2.09c.87,.51,2.08,1.28,2.67,1.81l-.75,.97c-.55-.56-1.74-1.37-2.66-1.92l.74-.86Z"/>
          <path class="l" d="M224.02,260c-.02,1.51-.2,3.33-.99,5.12,.63,.53,1.18,1.04,1.56,1.45l-.85,1.04c-.33-.38-.81-.84-1.33-1.34-.63,.97-1.5,1.91-2.68,2.72-.21-.27-.66-.68-.96-.87,1.2-.83,2.06-1.75,2.66-2.69-.75-.63-1.53-1.27-2.22-1.78,.31-.91,.63-2.12,.93-3.41l-1.15,.07-.14-1.2,1.54-.07c.2-1.04,.38-2.11,.48-3.05l1.29,.09c-.12,.91-.3,1.9-.5,2.91l1.12-.04v-1.01h1.25v.94l.55-.03-.02,1.11-.54,.04Zm-2.62,.17c-.25,1.1-.51,2.17-.78,3.06,.43,.33,.92,.7,1.37,1.05,.63-1.48,.76-2.96,.79-4.2l-1.38,.08Zm10.62,3.04c-1.12,3.15-3.43,4.83-7.17,5.76-.13-.38-.46-.9-.75-1.18,3.44-.7,5.6-2.18,6.62-4.93l1.3,.36Zm-5.11-4.62c-.25,1.62-.69,3.38-1.19,4.49-.27-.17-.85-.41-1.18-.54,.52-1.05,.88-2.67,1.09-4.18l1.28,.23Zm2.19,5.63h-1.32v-8.28h1.32v8.28Zm2.22-1.84c-.24-1.07-.88-2.68-1.54-3.89l1.2-.38c.71,1.21,1.38,2.78,1.63,3.85l-1.29,.43Z"/>
          <path class="l" d="M239.56,264.59c-.03-.21-.09-.44-.15-.71-3.09,.43-3.58,.54-3.88,.7-.08-.26-.27-.87-.42-1.2,.33-.07,.66-.41,1.11-.93,.21-.23,.63-.74,1.1-1.42-1.33,.16-1.68,.24-1.89,.33-.07-.24-.25-.81-.4-1.14,.27-.06,.51-.34,.83-.77,.31-.41,1.32-2.01,1.87-3.53l1.25,.48c-.6,1.25-1.39,2.55-2.19,3.61l1.32-.1c.38-.58,.75-1.23,1.05-1.85l1.17,.66c-.9,1.55-2.04,3.14-3.19,4.4l2.01-.24c-.13-.43-.29-.87-.45-1.27l1.04-.27c.39,.93,.79,2.17,.96,2.89l-1.11,.37Zm-2.7,.7c-.15,1.28-.41,2.67-.74,3.56-.24-.14-.79-.31-1.09-.4,.34-.85,.55-2.17,.67-3.35l1.16,.18Zm1.48-.2c.18,.94,.36,2.15,.41,2.95l-1.09,.21c-.03-.81-.2-2.04-.36-2.98l1.05-.19Zm1.41-.4c.29,.73,.6,1.67,.74,2.29l-1,.33c-.12-.63-.42-1.6-.69-2.34l.96-.29Zm9.03,2.79v1.21h-8.5v-1.21h3.6v-2.39h-2.85v-1.18h7.15v1.18h-2.91v2.39h3.51Zm-6.51-3.95c-.32-.74-1-1.82-1.77-2.79,.6-.86,1.21-1.9,1.56-2.59l1.2,.29c-.4,.73-.97,1.6-1.46,2.28,.65,.78,1.28,1.75,1.61,2.37l-1.14,.46Zm6.34-5.74h-7.94v-1.18h7.94v1.18Zm-2.82,.66c-.42,.73-.97,1.58-1.47,2.25,.64,.77,1.32,1.71,1.63,2.32l-1.11,.47c-.34-.74-1.05-1.81-1.86-2.77,.62-.84,1.26-1.88,1.6-2.57l1.2,.29Zm1.68,5.09c-.36-.74-1.12-1.84-1.98-2.79,.63-.86,1.29-1.9,1.65-2.59l1.21,.3c-.45,.73-1.02,1.58-1.51,2.27,.69,.77,1.4,1.71,1.74,2.32l-1.11,.5Z"/>
        </g>
        <g>
          <path class="l" d="M190.37,335.37c-.29,1.27-.69,2.61-1.21,3.68,.27,.14,.6,.38,1.08,.67,1.05,.6,2.41,.68,4.17,.68s4.35-.13,6.01-.33c-.16,.36-.39,1.01-.4,1.37-1.17,.07-3.92,.16-5.67,.16-1.96,0-3.25-.16-4.35-.75-.6-.33-1.14-.83-1.47-.83s-.84,.93-1.26,1.8l-.94-1.23c.52-.64,1.05-1.2,1.51-1.48,.41-.77,.75-1.8,.99-2.76h-1.92c.36-.84,.81-2,1.18-3.11h-1.51v-1.2h3.24c-.33,1.01-.75,2.18-1.12,3.16h.84l.21-.06,.63,.23Zm-2.24-3.93c-.18-.63-.54-1.62-.78-2.38l1.21-.36c.29,.74,.63,1.7,.83,2.31l-1.26,.43Zm5.97,1.04c.09-.3,.17-.63,.24-.94h-3.78v-1.08h2.27c-.2-.4-.54-.94-.84-1.33l1.1-.43c.39,.46,.82,1.1,1,1.5l-.6,.26h2.54c.38-.53,.81-1.25,1.04-1.78l1.37,.36c-.35,.48-.69,1-1.02,1.43h2.62v1.08h-4.17c-.13,.33-.3,.64-.45,.94h3.41v6.73h-7.06v-6.73h2.35Zm3.34,.98h-4.39v.98h4.39v-.98Zm0,1.87h-4.39v1h4.39v-1Zm0,1.9h-4.39v1.01h4.39v-1.01Z"/>
          <path class="l" d="M207.49,337.21c-1.5,.73-3.12,1.5-4.38,2.07l-.54-1.33c.54-.2,1.21-.47,1.95-.77v-4.25h-1.65v-1.25h1.65v-2.88h1.29v2.88h1.51v1.25h-1.51v3.71c.45-.2,.92-.4,1.38-.6l.3,1.17Zm2.91-1.68c-.17,.3-.34,.58-.55,.86h6.27s-.01,.33-.03,.5c-.24,2.85-.46,3.96-.87,4.39-.25,.27-.54,.36-.9,.4-.34,.03-.9,.04-1.5,.01-.02-.31-.13-.78-.32-1.07,.51,.06,.98,.06,1.17,.06,.23,0,.35-.01,.47-.16,.22-.24,.42-1.05,.6-3.06h-.9c-.6,1.65-1.77,3.43-3.01,4.33-.22-.24-.66-.56-1-.74,1.17-.74,2.22-2.15,2.85-3.59h-1.18c-.81,1.41-2.24,2.92-3.57,3.72-.21-.27-.6-.6-.93-.8,1.18-.6,2.42-1.74,3.24-2.92h-1.26c-.57,.6-1.2,1.11-1.84,1.53-.19-.21-.67-.64-.94-.83,1.12-.61,2.14-1.54,2.83-2.62h-1.92v-1.13h9.37v1.13h-6.06Zm5.01-1.81h-6.93v-4.67h6.93v4.67Zm-1.29-3.72h-4.38v.93h4.38v-.93Zm0,1.82h-4.38v.94h4.38v-.94Z"/>
          <path class="l" d="M223.91,329.16c-.44,1.03-.98,2.05-1.59,3.02v9.52h-1.38v-7.62c-.48,.6-1.01,1.14-1.53,1.61-.15-.33-.57-1.05-.83-1.37,1.59-1.33,3.06-3.41,3.95-5.57l1.38,.41Zm5.17,4.32c.9,2.14,2.34,4.28,3.82,5.44-.34,.26-.81,.71-1.05,1.07-1.33-1.2-2.56-3.14-3.5-5.2v6.96h-1.38v-6.6c-.96,1.98-2.22,3.76-3.58,4.93-.22-.33-.72-.8-1.03-1.05,1.59-1.17,3.07-3.35,3.99-5.54h-3.38v-1.3h4v-3.31h1.38v3.31h4.12v1.3h-3.4Z"/>
          <path class="l" d="M235.12,340.49c.55-.78,1.12-2,1.47-2.91l1.21,.48c-.36,.93-.87,2.18-1.41,3.01l-1.27-.58Zm6.39-3.72h-4.19v-6.83h3.46c.18-.44,.39-1.03,.48-1.44l1.67,.24c-.21,.43-.46,.84-.66,1.2h4.27v6.83h-4.57c.69,.61,1.44,1.44,1.8,2.01l-1.16,.66c-.33-.63-1.15-1.57-1.9-2.22l.79-.44Zm2.29,3.52c.75,0,.88-.2,.96-1.6,.31,.21,.9,.41,1.29,.48-.2,1.88-.62,2.32-2.16,2.32h-3.15c-1.89,0-2.37-.37-2.37-1.65v-2.17h1.39v2.14c0,.4,.17,.47,1.08,.47h2.96Zm-5.13-8.38h6.48v-.93h-6.48v.93Zm0,1.9h6.48v-.93h-6.48v.93Zm0,1.92h6.48v-.94h-6.48v.94Zm8.29,1.61c.67,.88,1.41,2.08,1.67,2.89l-1.32,.56c-.22-.81-.92-2.04-1.58-2.96l1.23-.49Z"/>
        </g>
        <line class="g" x1="29.8" y1="296.65" x2="125.39" y2="296.65"/>
        <line class="g" x1="29.8" y1="373.5" x2="125.39" y2="373.5"/>
        <g>
          <path class="l" d="M54.64,261.21c0-3.63,1.39-5.4,3.57-5.4s3.57,1.78,3.57,5.4-1.41,5.47-3.57,5.47-3.57-1.82-3.57-5.47Zm5.49,0c0-3.01-.79-4.1-1.92-4.1s-1.92,1.1-1.92,4.1,.79,4.18,1.92,4.18,1.92-1.14,1.92-4.18Z"/>
          <path class="l" d="M65.44,264.56c.44,.47,1.11,.78,1.82,.78,1.33,0,2.49-1.03,2.59-4.02-.65,.76-1.59,1.23-2.43,1.23-1.85,0-3.09-1.1-3.09-3.29,0-2.08,1.5-3.45,3.28-3.45,2.12,0,3.83,1.62,3.83,5.09,0,4.13-1.98,5.79-4.11,5.79-1.27,0-2.17-.48-2.82-1.11l.93-1.01Zm4.38-4.47c-.17-2.07-.99-3.01-2.19-3.01-.95,0-1.7,.81-1.7,2.18s.63,2.11,1.79,2.11c.67,0,1.44-.37,2.1-1.28Z"/>
          <path class="l" d="M79.09,259.94c0-.67,.51-1.17,1.16-1.17s1.16,.5,1.16,1.17-.51,1.14-1.16,1.14-1.16-.48-1.16-1.14Zm0,5.6c0-.67,.51-1.17,1.16-1.17s1.16,.5,1.16,1.17-.51,1.14-1.16,1.14-1.16-.47-1.16-1.14Z"/>
          <path class="l" d="M88.96,261.21c0-3.63,1.4-5.4,3.57-5.4s3.57,1.78,3.57,5.4-1.41,5.47-3.57,5.47-3.57-1.82-3.57-5.47Zm5.49,0c0-3.01-.79-4.1-1.92-4.1s-1.92,1.1-1.92,4.1,.79,4.18,1.92,4.18,1.92-1.14,1.92-4.18Z"/>
          <path class="l" d="M98.71,261.21c0-3.63,1.4-5.4,3.57-5.4s3.57,1.78,3.57,5.4-1.41,5.47-3.57,5.47-3.57-1.82-3.57-5.47Zm5.49,0c0-3.01-.79-4.1-1.92-4.1s-1.92,1.1-1.92,4.1,.8,4.18,1.92,4.18,1.92-1.14,1.92-4.18Z"/>
        </g>
        <g>
          <path class="l" d="M54.59,339.66c3.25-2.74,4.93-4.77,4.93-6.5,0-1.14-.64-1.92-1.88-1.92-.87,0-1.59,.53-2.17,1.17l-.97-.91c.95-.97,1.92-1.57,3.36-1.57,2.03,0,3.33,1.25,3.33,3.15,0,2.02-1.69,4.12-4.04,6.24,.57-.06,1.26-.1,1.8-.1h2.76v1.4h-7.12v-.96Z"/>
          <path class="l" d="M64.39,335.33c0-3.63,1.39-5.4,3.57-5.4s3.57,1.78,3.57,5.4-1.41,5.47-3.57,5.47-3.57-1.82-3.57-5.47Zm5.49,0c0-3.01-.79-4.1-1.92-4.1s-1.92,1.1-1.92,4.1,.79,4.18,1.92,4.18,1.92-1.14,1.92-4.18Z"/>
          <path class="l" d="M79.09,334.06c0-.67,.51-1.17,1.16-1.17s1.16,.5,1.16,1.17-.51,1.14-1.16,1.14-1.16-.48-1.16-1.14Zm0,5.6c0-.67,.51-1.17,1.16-1.17s1.16,.5,1.16,1.17-.51,1.14-1.16,1.14-1.16-.47-1.16-1.14Z"/>
          <path class="l" d="M88.96,335.33c0-3.63,1.4-5.4,3.57-5.4s3.57,1.78,3.57,5.4-1.41,5.47-3.57,5.47-3.57-1.82-3.57-5.47Zm5.49,0c0-3.01-.79-4.1-1.92-4.1s-1.92,1.1-1.92,4.1,.79,4.18,1.92,4.18,1.92-1.14,1.92-4.18Z"/>
          <path class="l" d="M98.71,335.33c0-3.63,1.4-5.4,3.57-5.4s3.57,1.78,3.57,5.4-1.41,5.47-3.57,5.47-3.57-1.82-3.57-5.47Zm5.49,0c0-3.01-.79-4.1-1.92-4.1s-1.92,1.1-1.92,4.1,.8,4.18,1.92,4.18,1.92-1.14,1.92-4.18Z"/>
        </g>
      </g>
    </g>
  </g>
</svg>