<?xml version="1.0" encoding="UTF-8"?>
<svg id="b" data-name="圖層 2" xmlns="http://www.w3.org/2000/svg" width="287.47" height="100.88" viewBox="0 0 287.47 100.88">
  <defs>
    <style>
      .d {
        fill: #fff;
      }

      .e {
        opacity: .2;
      }
    </style>
  </defs>
  <g id="c" data-name="圖層 1">
    <g class="e">
      <g>
        <path class="d" d="M22.88,30.36L5.03,.92h12.97l15.23,28.29h-4.69L43.76,.92h12.79l-17.66,29.44H22.88Z"/>
        <path class="d" d="M84.84,31.28c-6.69,0-12.07-.59-16.15-1.77-4.08-1.18-7.05-2.93-8.9-5.24-1.86-2.32-2.78-5.19-2.78-8.62s.93-6.31,2.78-8.62c1.85-2.32,4.82-4.06,8.9-5.24,4.08-1.18,9.46-1.77,16.15-1.77s12.07,.59,16.15,1.77c4.08,1.18,7.05,2.93,8.9,5.24,1.86,2.32,2.78,5.19,2.78,8.62s-.93,6.31-2.78,8.62c-1.86,2.32-4.82,4.06-8.9,5.24-4.08,1.18-9.46,1.77-16.15,1.77Zm0-8.74c3.16,0,5.89-.19,8.19-.57,2.3-.38,4.08-1.07,5.34-2.07,1.26-1,1.89-2.41,1.89-4.25s-.63-3.26-1.89-4.26c-1.26-1-3.04-1.69-5.34-2.07-2.3-.38-5.03-.58-8.19-.58s-5.93,.19-8.3,.58c-2.38,.38-4.23,1.07-5.57,2.07-1.33,1-2,2.42-2,4.26s.67,3.26,2,4.25c1.33,1,3.19,1.69,5.57,2.07,2.38,.38,5.14,.57,8.3,.57Z"/>
        <path class="d" d="M115.89,.92h47.84V9.66h-47.84V.92Zm18.17,8.14h11.5V30.36h-11.5V9.06Z"/>
        <path class="d" d="M169.02,.92h11.5V30.36h-11.5V.92Z"/>
        <path class="d" d="M203.2,30.36L185.35,.92h12.97l15.23,28.29h-4.69L224.08,.92h12.79l-17.66,29.44h-16.01Z"/>
        <path class="d" d="M252.51,17.94v3.68h34.96v8.74h-46.46V.92h46.37V9.66h-34.87v3.68h28.52v4.6h-28.52Z"/>
        <path class="d" d="M50.11,56.12v20.7h26.82v8.74H38.61v-29.44h11.5Z"/>
        <path class="d" d="M79.23,85.56l19.73-29.44h12.79l19.92,29.44h-12.65l-17.07-26.36h6.85l-16.93,26.36h-12.65Zm10.3-4.46v-6.9h31.46v6.9h-31.46Z"/>
        <path class="d" d="M171.87,82.06h-6.9l25.12-25.94h11.5v29.44h-11.5v-20.06l3.45,1.43-18.17,18.63h-13.8l-18.22-18.58,3.5-1.43v20.01h-11.5v-29.44h11.5l25.02,25.94Z"/>
        <path class="d" d="M218.7,77.97v-8.05h22.95c.92,0,1.69-.15,2.32-.44,.63-.29,.94-.91,.94-1.86s-.31-1.61-.94-1.89c-.63-.28-1.4-.41-2.32-.41h-22.22v20.24h-11.5v-29.44h31.92c2.3,0,4.45,.16,6.46,.48,2.01,.32,3.76,.9,5.27,1.73,1.5,.83,2.68,1.99,3.54,3.5,.86,1.5,1.29,3.44,1.29,5.8s-.43,4.23-1.29,5.61c-.86,1.38-2.04,2.41-3.54,3.08-1.5,.68-3.26,1.12-5.27,1.33-2.01,.22-4.16,.32-6.46,.32h-21.16Z"/>
      </g>
    </g>
    <g>
      <path class="d" d="M20.57,44.6c1.61,1.81,4.04,3.36,6.63,4.16-.69,.63-1.69,1.86-2.15,2.7-1.21-.49-2.38-1.09-3.44-1.86,1.35,1.92,2.58,4.07,3.21,5.68l-2.96,1.32c-.63-1.95-2.35-4.96-3.93-7.14l2.32-.95c-1.29-1.12-2.41-2.47-3.3-3.9h-6.43c-1.09,1.78-2.55,3.38-4.22,4.68l2.55,1.06c-.92,2.12-2.18,4.56-3.79,6.14l-2.84-1.66c1.43-1.29,2.7-3.24,3.5-5.08-1.06,.77-2.21,1.43-3.33,2.01-.52-.69-1.72-2.01-2.41-2.61,2.58-1,4.93-2.55,6.51-4.53H.92v-3.13H7.4v-2.75H2.67v-3.13H7.4v-3.04h3.39v3.04h5.62v-3.04h3.44v3.04h4.82v3.13h-4.82v2.75h6.68v3.13h-5.97Zm-10.33,2.12h3.24v9.12c0,1.58-.26,2.44-1.35,2.95-1,.52-2.47,.54-4.36,.54-.14-.95-.54-2.27-.97-3.18,1.23,.06,2.52,.06,2.95,.06,.37,0,.49-.09,.49-.43v-9.06Zm.55-5.25h5.62v-2.75h-5.62v2.75Zm6.17,8.2c.77,1.92,1.41,4.42,1.64,6.11l-2.93,.66c-.14-1.66-.77-4.25-1.46-6.2l2.75-.57Z"/>
      <path class="d" d="M45.04,39.92h-10.15v-2.7h4.36c-.26-1.09-.86-2.58-1.35-3.76l2.87-.83c.57,1.2,1.23,2.81,1.55,3.82l-2.27,.77h4.99v2.7Zm-.8,7.72h-8.61v-2.58h8.61v2.58Zm.03,10.13h-5.74v1.15h-2.9v-9.81h8.63v8.66Zm-8.61-16.61h8.61v2.58h-8.61v-2.58Zm2.87,10.64v3.3h2.78v-3.3h-2.78Zm21.57,4.45c0,1.43-.26,2.18-1.26,2.61-.95,.43-2.29,.49-4.1,.46-.11-.8-.52-1.95-.89-2.7,1.06,.03,2.27,.03,2.61,.03,.37,0,.49-.11,.49-.43v-1.21h-7.77c-.34,1.66-1,3.3-2.09,4.56-.49-.6-1.75-1.78-2.41-2.15,1.69-2.01,1.86-4.7,1.86-6.94v-5.11h13.57v10.87Zm1.38-14.49v2.44h-16.29v-2.44h6.37v-1.26h-5.22v-2.27h5.22v-1.15h-5.94v-2.44h5.94v-2.09h3.3v2.09h6.25v2.44h-6.25v1.15h5.68v2.27h-5.68v1.26h6.63Zm-4.53,11.04v-1.38h-7.34c-.03,.46-.06,.92-.09,1.38h7.43Zm-7.34-4.93v1.35h7.34v-1.35h-7.34Z"/>
      <path class="d" d="M92.79,36.71c-1.63,2.61-3.93,4.82-6.63,6.66,3.04,1.35,6.51,2.35,10.16,2.93-.75,.77-1.72,2.24-2.21,3.18-.92-.17-1.78-.4-2.67-.63v10.44h-3.67v-.95h-10.38v1.06h-3.47v-10.59c-1.09,.32-2.18,.6-3.27,.83-.34-.92-1.06-2.29-1.66-3.07,3.56-.66,7.26-1.78,10.56-3.27-1.23-.92-2.38-1.92-3.44-3.01-1.29,1.18-2.67,2.18-4.02,3.04-.54-.69-1.81-1.98-2.52-2.55,3.64-1.89,7.14-5.05,9.12-8.52l3.24,1.12c-.4,.63-.8,1.29-1.26,1.92h9.09l.57-.17,2.47,1.58Zm-2.12,11.93c-2.84-.83-5.51-1.89-7.92-3.27-2.55,1.38-5.36,2.44-8.2,3.27h16.12Zm-2.9,6.68v-3.59h-10.38v3.59h10.38Zm-9.41-17.1c1.2,1.23,2.72,2.35,4.39,3.39,1.69-1.03,3.18-2.12,4.39-3.39h-8.78Z"/>
      <path class="d" d="M128.88,36.08c-.89,3.01-2.24,5.56-3.99,7.72,1.66,1.32,3.64,2.47,5.94,3.18-.69,.66-1.66,1.98-2.12,2.87l-.06-.03v9.38h-3.27v-.89h-5.39v.98h-3.16v-9.32l-.66,.29c-.23-.46-.63-1.09-1.06-1.64v.83h-3.16v3.82l3.38-.77,.32,3.01c-4.02,1-8.38,2.01-11.62,2.75l-.6-3.27,1.29-.23v-9.64h2.78v9.06l1.43-.29v-10.79h-4.02v-9.5h9.9v7.11c2.09-2.01,3.82-5.05,4.76-8.18l3.24,.8c-.23,.63-.46,1.29-.72,1.92h4.02l.6-.11,2.15,.92Zm-20.97,4.1h3.79v-3.64h-3.82l.03,3.64Zm7.2,7.17c1.98-.86,3.87-2.09,5.48-3.59-.69-.83-1.26-1.69-1.78-2.52-.54,.72-1.12,1.38-1.69,1.98-.49-.52-1.52-1.43-2.29-1.95v1.84h-2.87v3.36h3.16v.89Zm11.22,1.35c-1.32-.77-2.5-1.64-3.59-2.61-1.09,1-2.27,1.84-3.53,2.61h7.11Zm-.95,6.68v-3.82h-5.39v3.82h5.39Zm-4.65-17.21l-.23,.43c.57,.98,1.29,1.98,2.09,2.95,.83-1.06,1.52-2.18,2.09-3.38h-3.96Z"/>
      <path class="d" d="M148.45,38.49c-.77,2.15-1.84,4.19-3.1,6.05,1.12,1,3.04,2.98,3.56,3.56l-1.92,2.84c-.49-.75-1.26-1.78-2.04-2.81v11.19h-3.13v-10.5c-1,.95-1.98,1.81-3.01,2.5-.17-.98-.8-2.84-1.21-3.5,2.67-1.55,5.25-4.36,6.88-7.4h-6.14v-3.07h4.73c-.54-1.03-1.41-2.38-2.12-3.38l2.67-1.43c.89,1.12,1.92,2.61,2.41,3.59l-2.01,1.23h2.21l.54-.14,1.66,1.29Zm15.4-1.84v15.63h-3.21v-1.03h-2.61v8.06h-3.33v-8.06h-2.58v1.32h-3.1v-15.92h5.68v-4.13h3.33v4.13h5.82Zm-11.73,3.04v2.75h2.58v-2.75h-2.58Zm2.58,8.55v-2.81h-2.58v2.81h2.58Zm3.33-8.55v2.75h2.61v-2.75h-2.61Zm2.61,8.55v-2.81h-2.61v2.81h2.61Z"/>
      <path class="d" d="M176.69,51.63v2.47h-3.16v-19.99h9.55v17.53h-6.4Zm0-14.43v4.07h3.24v-4.07h-3.24Zm3.24,11.33v-4.22h-3.24v4.22h3.24Zm18.25,6.88c0,1.81-.37,2.7-1.49,3.27-1.12,.54-2.78,.63-5.19,.63-.14-.95-.69-2.44-1.18-3.3,1.55,.09,3.27,.06,3.76,.03,.54,0,.72-.17,.72-.66v-5.05h-6.17c-.66,3.38-2.04,6.8-4.93,9.15-.52-.66-1.86-1.81-2.61-2.21,4.33-3.56,4.71-8.92,4.71-13.22v-10.36h12.39v21.72Zm-3.39-8.15v-3.67h-5.65v.46c0,1-.03,2.09-.12,3.21h5.77Zm-5.65-10.41v3.67h5.65v-3.67h-5.65Z"/>
      <path class="d" d="M217.29,34.85c-.86,2.41-1.92,5.25-2.84,7.43,2.01,2.29,2.41,4.3,2.44,5.97,0,1.86-.43,3.1-1.41,3.82-.46,.34-1,.52-1.69,.63-.57,.09-1.29,.09-1.98,.06-.03-.83-.32-2.09-.8-2.93,.57,.06,1.06,.06,1.41,.06s.66-.09,.89-.26c.4-.26,.57-.89,.54-1.72,0-1.38-.46-3.21-2.38-5.25,.69-1.72,1.38-4.07,1.92-5.94h-2.55v22.58h-2.98v-25.62h6.68l.49-.11,2.27,1.29Zm15.26,1c-1.06,2.32-2.61,4.22-4.53,5.74,1.78,.75,3.82,1.29,6.05,1.64-.66,.66-1.55,1.95-1.98,2.75-2.64-.52-4.93-1.35-6.94-2.52-2.21,1.2-4.65,2.04-7.23,2.64-.34-.8-1.06-2.07-1.66-2.75,2.21-.4,4.27-1.03,6.17-1.84-.63-.57-1.23-1.21-1.75-1.86-.72,.63-1.46,1.21-2.24,1.78-.46-.72-1.46-1.86-2.18-2.38,2.98-1.81,5.05-4.3,6.22-6.43l3.33,.66c-.29,.54-.66,1.12-1.03,1.69h5.13l.55-.11,2.09,1Zm-5.16,16.64h6.11v2.93h-6.11v3.93h-3.3v-3.93h-4.07v.03h-3.16c.52-1.55,1.09-3.84,1.52-5.79h-.86v-2.93h6.57v-1.55h3.3v1.55h5.28v2.93h-5.28v2.84Zm-3.3,0v-2.84h-2.58c-.2,.92-.43,1.89-.69,2.84h3.27Zm-1.26-15l-.2,.23c.66,.86,1.49,1.61,2.5,2.29,1.09-.75,2.07-1.58,2.87-2.52h-5.16Z"/>
      <path class="d" d="M249.99,54.27h2.96v3.04h-10.79v-23.15h10.7v3.07h-2.87v3.41h2.58v9.35h-2.58v4.27Zm-4.91-17.04v3.41h1.95v-3.41h-1.95Zm0,6.43v3.36h4.53v-3.36h-4.53Zm0,10.61h1.95v-4.25h-1.95v4.25Zm10.87-15.98c-.75,1.12-1.52,2.09-2.32,2.9-.49-.57-1.64-1.72-2.29-2.18,1.75-1.58,3.3-4.04,4.22-6.48l2.98,.83c-.26,.63-.54,1.29-.86,1.95h9.81v2.98h-11.53Zm-2.52,10.04h6.54v10.59h-2.5v-1.23h-1.64v1.55h-2.41v-10.9Zm1.86-1.23v-7.43h10.76v7.43h-10.76Zm.54,3.9v3.99h1.64v-3.99h-1.64Zm2.29-6.51h4.93v-2.24h-4.93v2.24Zm9.55,3.84v10.7h-2.55v-1.35h-1.72v1.63h-2.44v-10.99h6.71Zm-2.55,6.66v-3.99h-1.72v3.99h1.72Z"/>
      <path class="d" d="M278.63,49.93c2.24-.72,3.53-1.95,3.7-3.47-.09,.03-.2,.03-.32,.03-1.43,0-2.72-.92-2.72-2.55s1.29-2.58,2.81-2.58c2.04,0,3.1,1.52,3.1,3.93,0,3.24-2.09,5.91-5.65,6.94l-.92-2.29Z"/>
      <path class="d" d="M72.62,81.45h-10.64v-2.7h4.82c-.43-1.09-1.15-2.52-1.81-3.61l2.55-1.23c.77,1.18,1.63,2.75,2.09,3.81l-1.86,1.03h4.85v2.7Zm15.09,11.42c-.95,1.72-2.27,3.1-3.93,4.27,1.58,.46,3.41,.77,5.31,.95-.66,.66-1.49,1.92-1.87,2.7-2.52-.34-4.76-.98-6.68-1.89-2.24,.92-4.73,1.55-7.34,1.95-.23-.75-.86-1.95-1.41-2.64v1.03h-5.85v1.2h-2.78v-9.9h8.63v7.63c2.01-.23,4.02-.57,5.77-1.12-.86-.69-1.61-1.49-2.27-2.38l1.09-.34h-3.13v-2.29h11.93l.52-.11,2.01,.95Zm-11.07-14.92h-3.96v-2.52h3.96v-1.41h2.98v5.28h-2.47l.69,.17c-.17,.43-.34,.89-.54,1.32h2.52c-.14-.46-.29-.95-.43-1.35l2.38-.57v-4.85h3.01v1.38h3.79v2.52h-3.79v1.38h-2.12c.17,.46,.34,1,.49,1.49h4.71v2.04h-4.91v.98h4.13v1.69h-4.13v.98h4.13v1.69h-4.13v1.03h5.48v1.98h-11.33v.43h-2.81v-5.85c-.32,.4-.66,.77-1,1.09-.32-.54-1.12-1.84-1.63-2.47v.95h-8.43v-2.58h8.43v1.52c1.41-1.38,2.72-3.44,3.47-5.57l1.49,.46,.03-1.21Zm-13.43,8.63h8.43v2.58h-8.43v-2.58Zm5.74,6.68h-3.01v3.21h3.01v-3.21Zm11.16-10.44h-3.01v.98h3.01v-.98Zm0,2.67h-3.01v.98h3.01v-.98Zm0,2.67h-3.01v1.03h3.01v-1.03Zm-1.58,6.17c.54,.57,1.26,1.09,2.09,1.52,.89-.43,1.66-.95,2.32-1.52h-4.42Z"/>
      <path class="d" d="M105.96,75.11c-.75,1.84-1.63,3.7-2.67,5.54v20.08h-3.24v-15.18c-.77,.98-1.58,1.92-2.38,2.73-.32-.83-1.23-2.67-1.81-3.5,2.75-2.58,5.39-6.63,6.94-10.7l3.16,1.03Zm7.4,7.69c-.52,1.58-1.09,3.13-1.78,4.59h10.64v13.02h-3.44v-1.35h-6.74v1.58h-3.27v-8.52c-.92,1.2-1.92,2.29-3.07,3.21-.52-.77-1.52-2.04-2.21-2.73,3.01-2.38,4.96-5.94,6.28-9.81h-5.28v-3.27h6.17c.46-1.78,.77-3.61,1-5.36l3.59,.52c-.29,1.61-.6,3.24-1,4.85h9.06v3.27h-9.95Zm-1.32,7.75v5.36h6.74v-5.36h-6.74Z"/>
      <path class="d" d="M154.47,78.18c-1.63,2.61-3.93,4.82-6.63,6.66,3.04,1.35,6.51,2.35,10.16,2.93-.75,.77-1.72,2.24-2.21,3.18-.92-.17-1.78-.4-2.67-.63v10.44h-3.67v-.95h-10.38v1.06h-3.47v-10.59c-1.09,.32-2.18,.6-3.27,.83-.34-.92-1.06-2.29-1.66-3.07,3.56-.66,7.26-1.78,10.56-3.27-1.23-.92-2.38-1.92-3.44-3.01-1.29,1.18-2.67,2.18-4.02,3.04-.54-.69-1.81-1.98-2.52-2.55,3.64-1.89,7.14-5.05,9.12-8.52l3.24,1.12c-.4,.63-.8,1.29-1.26,1.92h9.09l.57-.17,2.47,1.58Zm-2.12,11.93c-2.84-.83-5.51-1.89-7.92-3.27-2.55,1.38-5.36,2.44-8.2,3.27h16.12Zm-2.9,6.68v-3.59h-10.38v3.59h10.38Zm-9.41-17.1c1.2,1.23,2.72,2.35,4.39,3.39,1.69-1.03,3.18-2.12,4.39-3.39h-8.78Z"/>
      <path class="d" d="M185.15,93.13v7.69h-3.61v-7.2l-15.35,2.21-.46-3.39,15.81-2.21v-16.21h3.61v15.69l6.05-.86,.43,3.33-6.48,.95Zm-10.58-4.04c-1.52-1.32-4.76-3.16-7.17-4.36l2.04-2.55c2.32,1.06,5.68,2.75,7.34,4.02l-2.21,2.9Zm2.84-6.91c-1.38-1.18-4.36-2.95-6.54-4.07l1.95-2.61c2.12,.98,5.19,2.61,6.71,3.79l-2.12,2.9Z"/>
      <path class="d" d="M215.19,81c-.26,.63-.54,1.23-.8,1.81h8.66v18.04h-3.56v-1.35h-13.08v1.35h-3.38v-18.04h7.57c.2-.6,.34-1.2,.49-1.81h-10.9v-3.16h6.57c-.57-.89-1.38-1.86-2.07-2.67l3.04-1.38c1.06,1.03,2.21,2.44,2.78,3.38l-1.26,.66h6.57c.83-1.18,1.72-2.73,2.21-3.9l3.93,.86c-.75,1.09-1.55,2.15-2.29,3.04h6.43v3.16h-10.9Zm4.3,4.76h-13.08v1.75h13.08v-1.75Zm0,4.33h-13.08v1.86h13.08v-1.86Zm0,6.43v-1.95h-13.08v1.95h13.08Z"/>
    </g>
  </g>
</svg>