<?xml version="1.0" encoding="UTF-8"?>
<svg id="b" data-name="圖層 2" xmlns="http://www.w3.org/2000/svg" width="1082.53" height="382.11" xmlns:xlink="http://www.w3.org/1999/xlink" viewBox="0 0 1082.53 382.11">
  <defs>
    <style>
      .f {
        fill: #fff;
      }

      .g {
        stroke-width: 1.03px;
      }

      .g, .h {
        fill: none;
      }

      .g, .h, .i, .j {
        stroke-miterlimit: 10;
      }

      .g, .j {
        stroke: #9fa0a0;
      }

      .k, .i {
        fill: #fc462d;
      }

      .l {
        opacity: .35;
      }

      .h {
        stroke-width: 1.04px;
      }

      .h, .i {
        stroke: #fff;
      }

      .i {
        stroke-width: .75px;
      }

      .m, .j {
        fill: #595757;
      }

      .j {
        stroke-width: 1.04px;
      }

      .n {
        filter: url(#d);
      }
    </style>
    <filter id="d" data-name="drop-shadow-1" filterUnits="userSpaceOnUse">
      <feOffset dx="6" dy="6"/>
      <feGaussianBlur result="e" stdDeviation="2"/>
      <feFlood flood-color="#000" flood-opacity=".1"/>
      <feComposite in2="e" operator="in"/>
      <feComposite in="SourceGraphic"/>
    </filter>
  </defs>
  <g id="c" data-name="圖層 1">
    <g class="n">
      <path class="f" d="M1082.53,96.82v251.04c0,7.73-6.27,14-14,14H198.41c-7.73,0-14-6.27-14-14V96.82"/>
      <path class="k" d="M1082.53,96.17V14c0-7.73-6.27-14-14-14H198.41c-7.73,0-14,6.27-14,14V96.17"/>
    </g>
    <g>
      <path class="f" d="M328.7,55h-4.58v1.78h-1.89v-15.6h6.47v13.82Zm-4.58-12.06v4.2h2.66v-4.2h-2.66Zm2.66,10.33v-4.41h-2.66v4.41h2.66Zm9.55-9.3v2.38h4.6v1.69h-1.78v2.01h2.36v1.71h-2.36v5.14c0,1-.24,1.53-.97,1.8-.77,.31-1.91,.33-3.61,.33-.09-.52-.4-1.3-.68-1.82,1.23,.04,2.44,.04,2.79,.04,.35-.02,.46-.1,.46-.4v-5.1h-7.99v-1.71h7.99v-2.01h-7.2v-1.69h4.36v-2.38h-5.21v-1.73h5.21v-2.38h2.02v2.38h5.26v1.73h-5.26Zm-4.36,8.32c.97,1.04,2.18,2.49,2.75,3.45l-1.8,1.02c-.51-.94-1.67-2.49-2.64-3.6l1.7-.88Z"/>
      <path class="f" d="M351.85,47.98v11.08h-2.02v-18.36h8.12v7.28h-6.1Zm0-5.81v1.44h4.16v-1.44h-4.16Zm4.16,4.37v-1.55h-4.16v1.55h4.16Zm11.99,10.1c0,1.11-.24,1.73-1.03,2.07-.77,.31-1.98,.33-3.83,.33-.09-.52-.38-1.36-.64-1.9h-5.94v1.04h-1.87v-8.76h8.25v7.65c1.08,.04,2.13,.02,2.49,.02,.4-.02,.51-.12,.51-.48v-8.59h-6.25v-7.32h8.32v15.93Zm-11.44-5.75v1.63h4.47v-1.63h-4.47Zm4.47,4.79v-1.74h-4.47v1.74h4.47Zm.62-13.51v1.44h4.29v-1.44h-4.29Zm4.29,4.41v-1.59h-4.29v1.59h4.29Z"/>
    </g>
    <g>
      <path class="f" d="M729.52,49.52c-.84-.75-2.6-1.71-4.03-2.3l1.08-1.46c1.41,.52,3.19,1.42,4.09,2.11l-1.14,1.65Zm2.11,2.63c-1.17,2.17-2.62,4.66-3.94,6.65l-1.71-1.32c1.17-1.59,2.86-4.24,4.14-6.63l1.52,1.3Zm-1.41-8.07c-.75-.79-2.42-1.88-3.76-2.55l1.14-1.42c1.34,.63,3.04,1.65,3.85,2.42l-1.23,1.55Zm3.3,5.64h1.85v2.11c0,2.3-.35,5.08-3.17,7.13-.31-.4-.99-1.03-1.43-1.28,2.49-1.76,2.75-4.06,2.75-5.89v-2.07Zm10.38,0c-.26-.4-.64-.9-1.06-1.42-8.56,.54-9.62,.63-10.32,.9-.11-.4-.44-1.32-.66-1.82,.48-.1,.99-.58,1.63-1.32,.31-.31,.86-.96,1.5-1.84h-3.3v-1.76h4.58c.53-.84,1.1-1.73,1.54-2.61l2,.75c-.38,.63-.79,1.26-1.19,1.86h6.67v1.76h-7.94c-.81,1.04-1.63,2.01-2.44,2.88l6.71-.38c-.48-.54-.95-1.09-1.34-1.59l1.54-.84c1.23,1.38,2.93,3.28,3.76,4.41l-1.67,1Zm-6.58,.17h1.8v8.26h-1.8v-8.26Zm7.13,7.19c.26,0,.73-.04,.99-.12,.02,.48,.09,1.11,.15,1.51-.29,.1-.73,.12-1.12,.12h-1.3c-1.71,0-2.04-.69-2.04-2.36v-6.5h1.89v6.54c0,.61,.04,.81,.33,.81h1.1Z"/>
      <path class="f" d="M759.53,52.95c-.29-.65-.95-1.8-1.54-2.8v8.93h-1.94v-8.68c-.72,2.01-1.63,3.95-2.6,5.21-.15-.54-.64-1.4-.95-1.9,1.14-1.42,2.35-3.91,3.06-6.12h-2.73v-1.8h3.21v-2.97c-.81,.15-1.63,.27-2.4,.38-.09-.42-.31-1.09-.55-1.51,2.2-.4,4.69-.98,6.21-1.67l1.14,1.59c-.73,.29-1.59,.52-2.46,.75v3.43h2.66v1.8h-2.66v.44c.59,.67,2.31,2.82,2.68,3.35l-1.14,1.59Zm13.31,3.91v1.73h-12.59v-1.73h5.46v-2.4h-4.29v-1.67h4.29v-2.15c-1.23,.12-2.49,.21-3.63,.25-.02-.42-.29-1.09-.48-1.51,3.08-.19,6.71-.56,8.8-1.15l1.3,1.46c-1.12,.29-2.51,.52-3.96,.71v2.38h4.22v1.67h-4.22v2.4h5.1Zm-1.12-9.18h-10.14v-6.81h10.14v6.81Zm-1.98-5.16h-6.25v3.51h6.25v-3.51Z"/>
      <path class="f" d="M798.89,56.67c0,1.11-.24,1.71-1.05,2.03-.81,.31-2.13,.33-3.98,.33-.09-.56-.42-1.44-.72-1.99,1.34,.06,2.77,.04,3.17,.04,.4-.02,.53-.12,.53-.44v-4.14c-.46,.38-1.12,1.15-1.45,1.67-2.6-1.34-4.2-3.49-5.15-6.25-.95,2.91-2.64,5.04-5.35,6.38-.24-.42-.81-1.09-1.25-1.48v6.23h-2.07v-14.57h7.88c-.09-.65-.15-1.34-.22-2.03h-3.81v-1.71h5.59c.07,1.34,.18,2.59,.4,3.74h7.5v12.19Zm-15.27-3.97c2.66-1.28,4.31-3.37,5.08-6.31h-5.08v6.31Zm8.21-6.31c.84,2.84,2.35,4.93,4.99,6.11v-6.11h-4.99Z"/>
      <path class="f" d="M818.95,46.78c-.11,.19-.24,.36-.37,.52,2.46,2.55,5.48,4.14,8.96,5.37-.48,.42-1.04,1.07-1.32,1.61-.88-.36-1.74-.77-2.55-1.17v5.87h-2.09v-.58h-8.32v.65h-2v-5.69c-.86,.44-1.76,.86-2.66,1.19-.29-.48-.84-1.15-1.3-1.57,4.03-1.36,7.83-3.85,9.88-6.94l1.78,.73Zm-8.69-1.04h-2v-4.06h8.29c-.22-.52-.48-1.07-.75-1.55l2.11-.44c.37,.59,.79,1.36,1.05,1.99h7.64v4.06h-2.07v-2.3h-14.28v2.3Zm5.3-.94c-1.41,1.82-3.63,3.55-5.63,4.62-.29-.36-.99-1.13-1.41-1.46,1.94-.88,3.94-2.3,5.13-3.78l1.91,.63Zm6.01,11.89v-2.93h-8.32v2.93h8.32Zm.2-4.64c-1.54-.94-2.93-2.03-4.27-3.39-1.14,1.25-2.51,2.4-3.98,3.39h8.25Zm-1.3-7.86c1.92,1.09,4.4,2.76,5.61,3.93l-1.47,1.25c-1.14-1.15-3.56-2.91-5.54-4.08l1.41-1.11Z"/>
    </g>
    <g>
      <line class="h" x1="500.33" y1="13.29" x2="500.33" y2="85.32"/>
      <line class="g" x1="500.33" y1="98.08" x2="500.33" y2="343.92"/>
    </g>
    <line class="j" x1="519.18" y1="159.76" x2="1017.7" y2="159.76"/>
    <line class="j" x1="519.18" y1="223.53" x2="1017.7" y2="223.53"/>
    <line class="j" x1="519.18" y1="287.06" x2="1017.7" y2="287.06"/>
    <g>
      <path class="m" d="M627.81,134.75v9.18h-1.66v-15h6.68v5.83h-5.02Zm0-4.65v1.15h3.46v-1.15h-3.46Zm3.46,3.49v-1.25h-3.46v1.25h3.46Zm4.77,6.36v3.68h-1.5v-3.68h-2.18c-.14,1.15-.72,2.89-2.36,3.93-.23-.29-.74-.72-1.08-.94,1.33-.77,1.84-2.05,1.98-2.99h-2.05v-1.31h2.11v-1.62h-1.78v-1.27h8.73v1.27h-1.87v1.62h2.23v1.31h-2.23Zm-1.5-1.31v-1.62h-2.14v1.62h2.14Zm6.5,3.35c0,.87-.18,1.33-.77,1.61-.58,.26-1.48,.31-2.83,.29-.05-.43-.29-1.14-.54-1.57,.92,.02,1.84,.02,2.12,.02,.27-.02,.36-.1,.36-.36v-7.18h-5.17v-5.86h6.82v13.06Zm-5.22-11.88v1.15h3.56v-1.15h-3.56Zm3.56,3.52v-1.28h-3.56v1.28h3.56Z"/>
      <path class="m" d="M660.57,133.56c2.02,1.04,4.12,2.29,5.31,3.21l-.97,1.23c-1.35-1.16-4.05-2.77-6.37-3.96v2.73h-1.73v-2.79c-1.69,1.67-4.07,3.08-6.34,3.85-.25-.39-.78-1.01-1.15-1.35,2.09-.58,4.29-1.66,5.85-2.92h-5.42v-1.44h7.06v-1.52c-1.75,.15-3.51,.26-5.17,.31-.04-.38-.25-.99-.41-1.33,3.98-.17,8.62-.58,11.25-1.25l1.22,1.28c-1.48,.34-3.26,.62-5.17,.84v1.67h7.08v1.44h-5.04Zm-8.21,3.62h10.91v6.73h-1.73v-.55h-7.53v.56h-1.66v-6.75Zm1.66,1.25v1.26h7.53v-1.26h-7.53Zm7.53,3.69v-1.3h-7.53v1.3h7.53Z"/>
      <path class="m" d="M680.05,137.49l-1.53,1.25c-1.13-1.31-2.68-2.79-3.94-3.79l1.48-1.21c1.3,.99,2.97,2.6,4,3.76Z"/>
      <path class="m" d="M692.01,136c-.7-.56-2.16-1.35-3.31-1.85l.88-1.2c1.13,.43,2.61,1.16,3.35,1.73l-.92,1.31Zm-2.72,6.65c.97-1.28,2.36-3.47,3.4-5.42l1.22,1.06c-.94,1.78-2.12,3.83-3.19,5.43l-1.44-1.08Zm1.33-14.22c1.13,.44,2.63,1.2,3.38,1.74l-.97,1.31c-.7-.6-2.18-1.4-3.35-1.9l.94-1.16Zm12.78,15.48c-.14-.46-.39-1.01-.74-1.61-6.36,.73-7.17,.87-7.71,1.11-.09-.34-.38-1.15-.58-1.59,.38-.09,.72-.48,1.15-1.11,.38-.48,1.4-2.14,2.21-3.95h-3.71v-1.5h4.45v-2.77h-3.69v-1.5h3.69v-2.75h1.71v2.75h3.84v1.5h-3.84v2.77h4.52v1.5h-4.97c-.83,1.69-1.86,3.37-2.86,4.73l5.01-.51c-.43-.68-.94-1.37-1.4-2l1.35-.61c1.24,1.49,2.56,3.47,3.08,4.82l-1.51,.72Z"/>
      <path class="m" d="M722.27,128.65c-.09,.1-.16,.22-.27,.32,1.68,1.47,4.72,2.77,7.53,3.33-.34,.27-.81,.84-1.06,1.21-.43-.12-.9-.26-1.35-.41v4.43h-12.17v-4.31c-.45,.15-.88,.29-1.33,.41-.14-.29-.61-.94-.9-1.21,3.26-.79,6.45-2.27,8.09-4.27l1.47,.5Zm4.77,4.44c-.97-.32-1.96-.72-2.88-1.21v.5h-6.23v-.41c-.83,.45-1.71,.8-2.61,1.13h11.72Zm-11.07,5.13h10.26v5.62h-1.71v-.46h-6.9v.53h-1.66v-5.69Zm2.45-3.98c.39,.58,.79,1.37,.92,1.88l-1.19,.38h2.12v-2.36h-3.91v2.36h1.73c-.13-.53-.47-1.32-.85-1.91l1.17-.34Zm-.79,5.08v.94h6.9v-.94h-6.9Zm6.9,2.99v-.96h-6.9v.96h6.9Zm-1.42-11.02c-.74-.43-1.41-.92-1.98-1.44-.58,.51-1.26,1.01-1.96,1.44h3.94Zm2.54,2.86h-4v2.36h2.02l-1.12-.32c.32-.55,.7-1.42,.9-2l1.4,.38c-.4,.73-.79,1.45-1.12,1.95h1.91v-2.36Z"/>
      <path class="m" d="M739.41,134.75v9.18h-1.66v-15h6.68v5.83h-5.02Zm0-4.65v1.15h3.46v-1.15h-3.46Zm3.46,3.49v-1.25h-3.46v1.25h3.46Zm4.77,6.36v3.68h-1.5v-3.68h-2.18c-.14,1.15-.72,2.89-2.36,3.93-.23-.29-.74-.72-1.08-.94,1.33-.77,1.84-2.05,1.98-2.99h-2.05v-1.31h2.11v-1.62h-1.78v-1.27h8.73v1.27h-1.87v1.62h2.23v1.31h-2.23Zm-1.5-1.31v-1.62h-2.14v1.62h2.14Zm6.5,3.35c0,.87-.18,1.33-.77,1.61-.58,.26-1.48,.31-2.83,.29-.05-.43-.29-1.14-.54-1.57,.92,.02,1.84,.02,2.12,.02,.27-.02,.36-.1,.36-.36v-7.18h-5.17v-5.86h6.82v13.06Zm-5.22-11.88v1.15h3.56v-1.15h-3.56Zm3.56,3.52v-1.28h-3.56v1.28h3.56Z"/>
      <path class="m" d="M766.97,138.7c-.25-.51-.86-1.47-1.4-2.26v7.47h-1.62v-6.92c-.67,1.55-1.48,3.01-2.3,3.98-.16-.43-.56-1.08-.81-1.47,1.06-1.16,2.21-3.2,2.88-5.01h-2.65v-1.49h2.88v-2.29c-.78,.14-1.55,.24-2.27,.34-.05-.34-.29-.9-.47-1.23,2.02-.31,4.32-.8,5.73-1.38l.96,1.3c-.69,.26-1.48,.46-2.32,.65v2.62h2.52v1.49h-2.52v.24c.54,.53,2.07,2.27,2.41,2.72l-1.01,1.25Zm8.45,.84v4.38h-1.66v-4.1l-5.67,.91-.25-1.52,5.92-.94v-10.01h1.66v9.76l1.96-.31,.25,1.49-2.21,.36Zm-3.93-2.31c-.59-.73-1.91-1.83-3.01-2.54l1.06-.92c1.08,.68,2.45,1.71,3.08,2.43l-1.13,1.04Zm.45-4.49c-.54-.72-1.77-1.76-2.79-2.48l1.1-.9c1.03,.67,2.27,1.66,2.86,2.38l-1.17,1.01Z"/>
    </g>
    <g>
      <path class="m" d="M640.92,196.9c-.34,2.48-.97,4.72-1.95,6.58,.79,1.28,1.78,2.29,2.97,2.99-.41,.32-.97,.96-1.26,1.42-1.06-.72-1.95-1.69-2.68-2.84-.88,1.18-1.96,2.15-3.31,2.84-.21-.34-.58-.75-.95-1.09h-1.39v-.72h-3.04v1.04h-1.44v-4.19c-.29,1.5-.76,2.99-1.49,4.2-.27-.29-.92-.77-1.28-.92,1.49-2.46,1.64-5.93,1.64-8.41v-4.38c2.16-.22,4.7-.62,6.14-1.08l1.28,1.15c-1.62,.49-3.84,.84-5.87,1.06v.94h5.55v3.93c1.15-1.78,1.78-4.44,2.12-7.2l1.68,.22c-.14,1.01-.32,2-.56,2.96h4.77v1.49h-.92Zm-7.08,9.48c1.35-.67,2.43-1.67,3.28-2.94-.58-1.21-1.04-2.56-1.4-4-.27,.56-.56,1.08-.9,1.54-.25-.31-.9-.89-1.28-1.16l.02-.03h-5.33c-.04,.46-.07,.9-.13,1.38h5.74v5.21Zm-5.56-9.6v1.71h4.05v-1.71h-4.05Zm4.07,8.01v-2.34h-3.04v2.34h3.04Zm4.34-7.89l-.07,.22c.32,1.64,.81,3.21,1.42,4.61,.65-1.4,1.08-3.04,1.39-4.84h-2.74Z"/>
      <path class="m" d="M655.73,196.29h-6.21v-1.26h6.21v1.26Zm-.5,2.19h-5.28v-1.23h5.28v1.23Zm-5.26,1.08h5.28v1.23h-5.28v-1.23Zm5.24,7.38h-3.78v.72h-1.42v-5.74h5.2v5.02Zm-3.78-3.76v2.48h2.34v-2.48h-2.34Zm.97-8.2c-.14-.62-.54-1.59-.86-2.32l1.4-.39c.36,.7,.77,1.64,.95,2.24l-1.49,.48Zm12.59,11.38c0,.7-.16,1.08-.68,1.28-.5,.22-1.31,.24-2.43,.22-.07-.38-.27-.92-.47-1.28,.76,.04,1.49,.04,1.71,.02,.23,0,.31-.07,.31-.26v-1.13h-5.28c-.18,1.04-.58,2.07-1.3,2.86-.23-.29-.85-.86-1.17-1.03,1.06-1.23,1.17-2.91,1.17-4.24v-3.08h8.14v6.63Zm.96-8.7v1.2h-10.05v-1.2h4.11v-.96h-3.44v-1.13h3.44v-.87h-3.87v-1.16h3.87v-1.32h1.62v1.32h4.12v1.16h-4.12v.87h3.78v1.13h-3.78v.96h4.32Zm-2.52,6.48v-1.06h-5.06c0,.32-.02,.7-.05,1.06h5.11Zm-5.06-3.2v1.04h5.06v-1.04h-5.06Z"/>
      <path class="m" d="M679.96,195.62c-.52,1.26-1.22,2.51-2.07,3.62,.7,.63,1.98,1.88,2.3,2.22l-.97,1.33c-.34-.5-.99-1.27-1.58-1.93v7.01h-1.55v-6.58c-.68,.67-1.39,1.25-2.09,1.69-.11-.44-.41-1.26-.65-1.57,1.78-1.06,3.56-2.91,4.63-4.89h-4.21v-1.44h3.26c-.32-.61-.95-1.52-1.49-2.19l1.3-.7c.58,.67,1.26,1.57,1.58,2.15l-1.24,.73h1.66l.27-.07,.86,.6Zm9.47-.86v9.02h-1.58v-.65h-2.14v4.72h-1.64v-4.72h-2.11v.8h-1.53v-9.18h3.64v-2.58h1.64v2.58h3.73Zm-7.47,1.42v2.05h2.11v-2.05h-2.11Zm2.11,5.55v-2.1h-2.11v2.1h2.11Zm1.64-5.55v2.05h2.14v-2.05h-2.14Zm2.14,5.55v-2.1h-2.14v2.1h2.14Z"/>
      <path class="m" d="M703.55,202.8c-.34-.48-1.01-1.27-1.62-1.95v7.04h-1.6v-6.65c-.74,.68-1.51,1.28-2.27,1.76-.11-.45-.45-1.28-.68-1.57,1.87-1.04,3.76-2.92,4.9-4.9h-4.39v-1.44h3.29c-.32-.61-.92-1.45-1.49-2.08l1.22-.75c.65,.65,1.35,1.54,1.64,2.14l-1.06,.7h1.67l.27-.07,.9,.6c-.52,1.28-1.28,2.51-2.14,3.61,.7,.63,2.04,1.9,2.39,2.26l-1.03,1.32Zm7.36-2.53c.29,3.54,.85,5.91,1.58,5.91,.29,0,.43-.84,.49-2.63,.32,.34,.9,.65,1.31,.82-.21,2.63-.72,3.33-1.94,3.33-1.86,0-2.68-3.11-3.03-7.43h-2.81v5.48l2.66-.77c.02,.43,.11,1.03,.2,1.38-3.51,1.11-4.09,1.37-4.43,1.64-.2-.39-.67-1.09-.94-1.4,.36-.22,.88-.79,.88-1.54v-11.19h.02c2.68-.32,5.74-.89,7.6-1.45l1.17,1.3c-.87,.24-1.87,.46-2.94,.67-.02,1.54,0,3.02,.07,4.39h3.08v1.49h-2.99Zm-1.69-1.49c-.07-1.31-.11-2.68-.13-4.12-.86,.14-1.73,.26-2.57,.36v3.76h2.7Z"/>
      <path class="m" d="M736.6,207.67c-.27-.49-.65-1.11-1.08-1.78-9.88,.72-11,.79-11.74,1.08-.11-.31-.39-1.14-.61-1.59,.63-.12,1.33-.53,2.48-1.27,.7-.43,2.23-1.5,3.91-2.89-4.25,.27-4.92,.36-5.35,.51-.09-.32-.36-1.13-.58-1.57,.43-.08,.81-.39,1.31-.8s1.94-1.74,3.04-3.21h-5.82v-1.55h7.22c-.34-.62-.79-1.35-1.19-1.93l1.55-.51c.58,.77,1.22,1.76,1.55,2.43l-.05,.02h6.66v1.55h-8.66l.76,.38c-1.06,1.28-2.3,2.51-3.55,3.54l4.75-.24c.81-.73,1.62-1.52,2.34-2.31l1.57,1.01c-2.57,2.58-5.44,4.79-8.23,6.51l7.69-.46c-.52-.72-1.1-1.42-1.62-2.03l1.44-.72c1.42,1.54,2.97,3.61,3.73,4.96l-1.53,.89Z"/>
      <path class="m" d="M751.85,202.66c-.25-.51-.86-1.47-1.4-2.26v7.47h-1.62v-6.92c-.67,1.55-1.48,3.01-2.3,3.98-.16-.43-.56-1.08-.81-1.47,1.06-1.16,2.21-3.2,2.88-5.01h-2.65v-1.49h2.88v-2.29c-.78,.14-1.55,.24-2.27,.34-.05-.34-.29-.91-.47-1.23,2.02-.31,4.32-.8,5.73-1.38l.96,1.3c-.69,.26-1.48,.46-2.32,.65v2.62h2.52v1.49h-2.52v.24c.54,.53,2.07,2.27,2.41,2.72l-1.01,1.25Zm8.45,.84v4.38h-1.66v-4.1l-5.67,.9-.25-1.52,5.92-.94v-10.01h1.66v9.76l1.96-.31,.25,1.49-2.21,.36Zm-3.93-2.31c-.59-.73-1.91-1.83-3.01-2.55l1.06-.92c1.08,.68,2.45,1.71,3.08,2.43l-1.13,1.04Zm.45-4.49c-.54-.72-1.77-1.76-2.79-2.48l1.1-.91c1.03,.67,2.27,1.66,2.86,2.38l-1.17,1.01Z"/>
    </g>
    <g>
      <path class="m" d="M629.97,264.22c-.34,1.52-.83,3.13-1.46,4.41,.32,.17,.72,.46,1.3,.8,1.26,.72,2.9,.82,5.01,.82s5.22-.15,7.22-.39c-.2,.43-.47,1.21-.49,1.64-1.4,.08-4.7,.19-6.8,.19-2.36,0-3.91-.19-5.22-.91-.72-.39-1.37-.99-1.76-.99s-1.01,1.11-1.51,2.15l-1.13-1.47c.63-.77,1.26-1.43,1.82-1.78,.49-.92,.9-2.15,1.19-3.31h-2.3c.43-1.01,.97-2.39,1.42-3.72h-1.82v-1.44h3.89c-.4,1.21-.9,2.62-1.35,3.79h1.01l.25-.07,.76,.27Zm-2.68-4.72c-.21-.75-.65-1.95-.94-2.85l1.46-.43c.34,.89,.76,2.03,.99,2.77l-1.51,.51Zm7.17,1.25c.11-.36,.2-.75,.29-1.13h-4.54v-1.3h2.72c-.23-.48-.65-1.13-1.01-1.59l1.31-.51c.47,.55,.99,1.32,1.21,1.79l-.72,.31h3.04c.45-.63,.97-1.5,1.24-2.13l1.64,.43c-.41,.58-.83,1.2-1.22,1.71h3.15v1.3h-5.01c-.16,.39-.36,.77-.54,1.13h4.09v8.07h-8.48v-8.07h2.83Zm4.02,1.18h-5.28v1.18h5.28v-1.18Zm0,2.24h-5.28v1.2h5.28v-1.2Zm0,2.27h-5.28v1.21h5.28v-1.21Z"/>
      <path class="m" d="M655.19,266.42c-1.8,.87-3.74,1.79-5.26,2.48l-.65-1.59c.65-.24,1.46-.56,2.34-.92v-5.09h-1.98v-1.5h1.98v-3.45h1.55v3.45h1.82v1.5h-1.82v4.44c.54-.24,1.1-.48,1.66-.72l.36,1.4Zm3.49-2.02c-.2,.36-.41,.7-.67,1.03h7.53s-.02,.39-.04,.6c-.29,3.42-.56,4.75-1.04,5.26-.31,.33-.65,.43-1.08,.48-.41,.03-1.08,.05-1.8,.02-.02-.38-.16-.94-.38-1.28,.61,.07,1.17,.07,1.4,.07,.27,0,.41-.02,.56-.19,.27-.29,.5-1.27,.72-3.67h-1.08c-.72,1.98-2.12,4.12-3.62,5.2-.27-.29-.79-.67-1.21-.89,1.4-.89,2.66-2.58,3.42-4.3h-1.42c-.97,1.69-2.68,3.5-4.29,4.46-.25-.32-.72-.72-1.12-.96,1.42-.72,2.9-2.08,3.89-3.5h-1.51c-.69,.72-1.44,1.33-2.21,1.83-.23-.26-.81-.77-1.13-.99,1.35-.73,2.57-1.85,3.4-3.14h-2.3v-1.35h11.25v1.35h-7.27Zm6.01-2.17h-8.32v-5.61h8.32v5.61Zm-1.55-4.46h-5.26v1.11h5.26v-1.11Zm0,2.19h-5.26v1.13h5.26v-1.13Z"/>
      <path class="m" d="M679.58,256.76c-.52,1.23-1.17,2.46-1.91,3.62v11.42h-1.66v-9.14c-.58,.72-1.21,1.37-1.84,1.93-.18-.39-.68-1.26-.99-1.64,1.91-1.59,3.67-4.08,4.73-6.68l1.66,.5Zm6.21,5.18c1.08,2.56,2.81,5.13,4.59,6.53-.41,.31-.97,.85-1.26,1.28-1.6-1.44-3.08-3.76-4.2-6.24v8.34h-1.66v-7.91c-1.15,2.38-2.66,4.51-4.3,5.91-.27-.39-.86-.96-1.24-1.27,1.91-1.4,3.69-4.02,4.79-6.65h-4.05v-1.55h4.81v-3.96h1.66v3.96h4.95v1.55h-4.09Z"/>
      <path class="m" d="M697.7,270.35c.67-.94,1.35-2.39,1.76-3.49l1.46,.58c-.43,1.11-1.04,2.61-1.69,3.61l-1.53-.7Zm7.67-4.46h-5.02v-8.19h4.16c.22-.53,.47-1.23,.58-1.73l2,.29c-.25,.51-.56,1.01-.79,1.44h5.13v8.19h-5.49c.83,.73,1.73,1.72,2.16,2.41l-1.39,.79c-.4-.75-1.39-1.88-2.29-2.67l.96-.53Zm2.75,4.22c.9,0,1.06-.24,1.15-1.91,.38,.26,1.08,.49,1.55,.58-.23,2.26-.74,2.79-2.59,2.79h-3.78c-2.27,0-2.85-.44-2.85-1.98v-2.6h1.67v2.56c0,.48,.2,.56,1.3,.56h3.55Zm-6.16-10.05h7.78v-1.11h-7.78v1.11Zm0,2.27h7.78v-1.11h-7.78v1.11Zm0,2.31h7.78v-1.13h-7.78v1.13Zm9.96,1.93c.81,1.06,1.69,2.49,2,3.47l-1.59,.67c-.27-.97-1.1-2.44-1.89-3.55l1.48-.58Z"/>
    </g>
    <line class="j" x1="227.36" y1="159.76" x2="474.86" y2="159.76"/>
    <line class="j" x1="227.36" y1="223.53" x2="474.86" y2="223.53"/>
    <line class="j" x1="227.36" y1="287.06" x2="474.86" y2="287.06"/>
    <g>
      <path class="m" d="M321.41,136.24c0-4.36,1.68-6.48,4.29-6.48s4.29,2.13,4.29,6.48-1.69,6.56-4.29,6.56-4.29-2.19-4.29-6.56Zm6.59,0c0-3.61-.95-4.92-2.3-4.92s-2.3,1.32-2.3,4.92,.96,5.01,2.3,5.01,2.3-1.37,2.3-5.01Z"/>
      <path class="m" d="M334.37,140.26c.52,.56,1.33,.94,2.18,.94,1.6,0,2.99-1.23,3.12-4.82-.77,.91-1.91,1.47-2.92,1.47-2.21,0-3.71-1.32-3.71-3.95,0-2.49,1.8-4.13,3.94-4.13,2.54,0,4.59,1.95,4.59,6.1,0,4.96-2.38,6.94-4.93,6.94-1.53,0-2.61-.58-3.38-1.33l1.12-1.21Zm5.26-5.37c-.2-2.48-1.19-3.61-2.63-3.61-1.13,0-2.04,.97-2.04,2.62s.76,2.53,2.14,2.53c.81,0,1.73-.45,2.52-1.54Z"/>
      <path class="m" d="M350.75,134.72c0-.8,.61-1.4,1.39-1.4s1.38,.6,1.38,1.4-.61,1.37-1.38,1.37-1.39-.58-1.39-1.37Zm0,6.72c0-.8,.61-1.4,1.39-1.4s1.38,.6,1.38,1.4-.61,1.37-1.38,1.37-1.39-.56-1.39-1.37Z"/>
      <path class="m" d="M362.59,136.24c0-4.36,1.68-6.48,4.29-6.48s4.29,2.13,4.29,6.48-1.69,6.56-4.29,6.56-4.29-2.19-4.29-6.56Zm6.59,0c0-3.61-.95-4.92-2.3-4.92s-2.3,1.32-2.3,4.92,.96,5.01,2.3,5.01,2.3-1.37,2.3-5.01Z"/>
      <path class="m" d="M374.29,136.24c0-4.36,1.68-6.48,4.29-6.48s4.29,2.13,4.29,6.48-1.69,6.56-4.29,6.56-4.29-2.19-4.29-6.56Zm6.59,0c0-3.61-.95-4.92-2.3-4.92s-2.3,1.32-2.3,4.92,.96,5.01,2.3,5.01,2.3-1.37,2.3-5.01Z"/>
    </g>
    <g>
      <path class="m" d="M322.11,204.92h2.9v-8.75h-2.38v-1.25c1.24-.22,2.12-.51,2.88-.96h1.57v10.96h2.59v1.62h-7.56v-1.62Z"/>
      <path class="m" d="M333.81,204.92h2.9v-8.75h-2.38v-1.25c1.24-.22,2.12-.51,2.88-.96h1.57v10.96h2.59v1.62h-7.56v-1.62Z"/>
      <path class="m" d="M350.75,198.68c0-.8,.61-1.4,1.39-1.4s1.38,.6,1.38,1.4-.61,1.37-1.38,1.37-1.39-.58-1.39-1.37Zm0,6.72c0-.8,.61-1.4,1.39-1.4s1.38,.6,1.38,1.4-.61,1.37-1.38,1.37-1.39-.56-1.39-1.37Z"/>
      <path class="m" d="M362.59,200.2c0-4.36,1.68-6.48,4.29-6.48s4.29,2.14,4.29,6.48-1.69,6.56-4.29,6.56-4.29-2.19-4.29-6.56Zm6.59,0c0-3.61-.95-4.92-2.3-4.92s-2.3,1.31-2.3,4.92,.96,5.01,2.3,5.01,2.3-1.37,2.3-5.01Z"/>
      <path class="m" d="M374.29,200.2c0-4.36,1.68-6.48,4.29-6.48s4.29,2.14,4.29,6.48-1.69,6.56-4.29,6.56-4.29-2.19-4.29-6.56Zm6.59,0c0-3.61-.95-4.92-2.3-4.92s-2.3,1.31-2.3,4.92,.96,5.01,2.3,5.01,2.3-1.37,2.3-5.01Z"/>
    </g>
    <g>
      <path class="m" d="M321.36,269.36c3.91-3.28,5.92-5.73,5.92-7.79,0-1.37-.78-2.31-2.25-2.31-1.04,0-1.91,.63-2.61,1.4l-1.17-1.09c1.13-1.16,2.3-1.88,4.03-1.88,2.43,0,4,1.5,4,3.78,0,2.43-2.04,4.94-4.84,7.49,.68-.07,1.51-.12,2.16-.12h3.31v1.68h-8.55v-1.14Z"/>
      <path class="m" d="M333.11,264.16c0-4.36,1.68-6.48,4.29-6.48s4.29,2.13,4.29,6.48-1.69,6.56-4.29,6.56-4.29-2.19-4.29-6.56Zm6.59,0c0-3.61-.95-4.92-2.3-4.92s-2.3,1.32-2.3,4.92,.96,5.01,2.3,5.01,2.3-1.37,2.3-5.01Z"/>
      <path class="m" d="M350.75,262.64c0-.8,.61-1.4,1.39-1.4s1.38,.6,1.38,1.4-.61,1.37-1.38,1.37-1.39-.58-1.39-1.37Zm0,6.72c0-.8,.61-1.4,1.39-1.4s1.38,.6,1.38,1.4-.61,1.37-1.38,1.37-1.39-.56-1.39-1.37Z"/>
      <path class="m" d="M362.59,264.16c0-4.36,1.68-6.48,4.29-6.48s4.29,2.13,4.29,6.48-1.69,6.56-4.29,6.56-4.29-2.19-4.29-6.56Zm6.59,0c0-3.61-.95-4.92-2.3-4.92s-2.3,1.32-2.3,4.92,.96,5.01,2.3,5.01,2.3-1.37,2.3-5.01Z"/>
      <path class="m" d="M374.29,264.16c0-4.36,1.68-6.48,4.29-6.48s4.29,2.13,4.29,6.48-1.69,6.56-4.29,6.56-4.29-2.19-4.29-6.56Zm6.59,0c0-3.61-.95-4.92-2.3-4.92s-2.3,1.32-2.3,4.92,.96,5.01,2.3,5.01,2.3-1.37,2.3-5.01Z"/>
    </g>
    <rect class="i" x="29.03" y="187.07" width="37.14" height="194.66"/>
    <g>
      <path class="f" d="M56.25,212.08c-1.13,.45-2.28,.91-3.34,1.25,1.23,.45,2.68,.72,4.34,.87-.45,.45-1.02,1.38-1.3,2-4.42-.6-7.17-2.19-8.8-5.11h-1.91v2.55l3.21-.62c-.04,.6-.04,1.47,0,1.96-4.55,1-5.3,1.15-5.72,1.4-.08-.55-.42-1.55-.7-1.98,.38-.17,.87-.57,.87-1.51v-1.81h-1.36c-.3,1.85-.92,3.72-2.04,5.19-.47-.38-1.53-1.04-2.13-1.3,1.85-2.28,2.06-5.47,2.06-7.68v-2.74h16.83v1.79h-14.42v.66h13.59v1.57h-13.61c-.02,.23-.04,.47-.04,.72h15.04v1.79h-1.7l1.15,.98Zm-.85-8.17h-15.82v-6.23h4.3v-1.3h2.47v1.3h2.04v-1.3h2.49v1.3h4.53v6.23Zm-13.51-3.85h1.98v-.85h-1.98v.85Zm0,2.3h1.98v-.85h-1.98v.85Zm4.45-3.15v.85h2.04v-.85h-2.04Zm0,2.3v.85h2.04v-.85h-2.04Zm3.21,9.59c.36,.47,.85,.89,1.4,1.23,.83-.3,1.79-.79,2.62-1.23h-4.02Zm3.43-11.89h-2.11v.85h2.11v-.85Zm0,2.3h-2.11v.85h2.11v-.85Z"/>
      <path class="f" d="M56.93,224.1h-2.3l1.02,1.34c-.66,.21-1.45,.4-2.3,.55v1.13h3.04v1.6h-3.02c.94,.53,3,1.89,3.53,2.28l-1.09,1.64c-.53-.51-1.55-1.34-2.47-2.04v2.15h-2.11v-2.4c-.64,.96-1.38,1.79-2.15,2.36-.32-.49-.94-1.17-1.38-1.53,.96-.53,1.96-1.45,2.66-2.45h-1.68v-1.6h2.55v-.85c-.66,.06-1.3,.11-1.89,.13-.06-.4-.28-.98-.49-1.38,1.89-.15,4.15-.45,5.55-.91h-13.55v4.28c0,.81,0,1.68-.04,2.62,.89-.53,1.79-1.4,2.45-2.32h-1.81v-1.57h2.45v-.77c-.64,.06-1.28,.11-1.83,.15-.06-.38-.28-.96-.49-1.36,1.83-.17,4.02-.49,5.25-.98l1.13,1.36c-.57,.21-1.25,.38-2,.51v1.09h2.06v1.57h-2.06v.04c.55,.32,1.87,1.15,2.23,1.43l-1.21,1.53c-.21-.26-.62-.62-1.02-1v2.06h-2.06v-2.11c-.55,.79-1.19,1.47-1.81,1.96-.3-.45-.85-1.02-1.28-1.4-.11,3.21-.47,7.04-1.47,9.74-.49-.36-1.57-.94-2.17-1.15,1.23-3.28,1.32-8.06,1.32-11.38v-6.57h18.42v2.28Zm-14.44,9.1h12.66v7.7h-2.62v-.66h-7.55v.68h-2.49v-7.72Zm2.49,1.74v1h7.55v-1h-7.55Zm7.55,3.53v-.98h-7.55v.98h7.55Z"/>
      <path class="f" d="M56.96,264.24h-8.32v9.59h-2.77v-9.59h-8.19v-2.64h8.19v-7.61h2.77v7.61h8.32v2.64Z"/>
      <path class="f" d="M56.68,293.83v2.91h-18.89v-2.91h18.89Zm-1.77-12.27v2.79h-15.36v-2.79h15.36Z"/>
      <path class="f" d="M54.45,319.95c0,1.53-.36,2.26-1.34,2.68-1.02,.45-2.51,.49-4.7,.49-.15-.74-.66-1.96-1.06-2.66,1.49,.09,3.28,.06,3.74,.06,.51,0,.68-.17,.68-.62v-3.08h-9.1c-.55,2.38-1.62,4.7-3.6,6.36-.38-.53-1.4-1.47-1.96-1.83,3.21-2.74,3.51-6.81,3.51-10.04v-7h13.83v15.63Zm-2.68-5.57v-2.6h-8.53c-.02,.81-.06,1.7-.15,2.6h8.68Zm-8.53-7.59v2.59h8.53v-2.59h-8.53Z"/>
      <path class="f" d="M56.96,338.26h-8.32v9.59h-2.77v-9.59h-8.19v-2.64h8.19v-7.61h2.77v7.61h8.32v2.64Z"/>
      <path class="f" d="M54.68,353.94v18.29h-2.72v-1.34h-9.44v1.38h-2.62v-18.34h14.78Zm-12.17,2.55v4.57h9.44v-4.57h-9.44Zm9.44,11.85v-4.76h-9.44v4.76h9.44Z"/>
    </g>
    <g class="l">
      <g>
        <path class="f" d="M20.65,23.98c0,2.9-.28,5.3-.84,7.2-.56,1.89-1.32,3.38-2.29,4.45-.97,1.07-2.07,1.83-3.31,2.27-1.24,.44-2.53,.66-3.89,.66s-2.65-.25-3.89-.74-2.34-1.31-3.31-2.44c-.97-1.13-1.73-2.62-2.29-4.49-.56-1.86-.84-4.17-.84-6.92V.74H20.65V23.98ZM6.45,8.81v14.84c0,1.21,.08,2.23,.24,3.07,.16,.84,.4,1.51,.73,2.02s.73,.87,1.21,1.1c.48,.23,1.05,.34,1.69,.34s1.21-.11,1.69-.34c.48-.23,.89-.59,1.21-1.1s.56-1.18,.73-2.02c.16-.84,.24-1.86,.24-3.07V8.81H6.45Z"/>
        <path class="f" d="M0,38.89l20.65,13.84v8.97L0,75.67v-8.87l18.49-11.97v4.81L0,47.76v-8.88Zm3.13,7.23H7.97v22.07H3.13v-22.07Z"/>
        <path class="f" d="M20.65,104.88l-15.39-13.07H0v-8.07H5.26l15.39-13.07v9.52l-13.39,10.62v-5.97l13.39,10.52v9.52Z"/>
        <path class="f" d="M9.68,115.85h6.13v14.01H0v-7.75H9.68v-6.26Z"/>
      </g>
    </g>
    <g>
      <path class="f" d="M65.62,6.97h-6.55c.98,.79,2.01,1.71,2.61,2.39l-2.73,2.38h3.11v9.58h-12.01v2.23h13.86s-.04,1.1-.11,1.63c-.38,5.04-.83,7.5-1.82,8.48-.79,.91-1.7,1.21-2.88,1.32-1.06,.11-2.84,.15-4.81,.08-.08-1.33-.53-2.99-1.25-4.09,1.59,.15,3.18,.19,3.86,.15,.57,0,.95-.04,1.29-.34,.38-.38,.68-1.4,.91-3.48h-9.05v9.35h-4.43v-7.38c-3.18,3.11-7.38,5.68-11.51,7.23-.64-1.1-1.89-2.73-2.84-3.56,3.94-1.17,8.03-3.26,10.98-5.64h-8.14c.57-2.58,1.13-6.51,1.4-9.7h10.11v-2.16h-11.51v-3.71h7.72c-.83-1.06-2.31-2.46-3.48-3.48l1.44-1.25h-2.23c-1.21,1.89-2.57,3.6-3.86,4.88-.64-.76-2.16-2.35-3.03-3.03,2.23-1.97,4.32-4.96,5.49-7.95l3.98,1.13c-.19,.49-.42,1.02-.68,1.52h8.33v3.45h-5.42c1.02,.87,2.01,1.82,2.57,2.5l-2.42,2.23h15.98c-.83-1.02-2.46-2.38-3.67-3.37l1.63-1.4h-3.11c-.91,1.44-1.93,2.69-2.95,3.67-.76-.76-2.39-2.04-3.37-2.61,2.08-1.78,3.79-4.43,4.73-7.12l4.09,1.02c-.19,.53-.42,1.1-.64,1.63h10.42v3.41Zm-20,14.35h-6.17c-.11,.76-.19,1.52-.3,2.23h6.47v-2.23Zm11.97-5.87h-7.54v2.16h7.54v-2.16Z"/>
      <path class="f" d="M65.69,62.35v4.88H30.85v-4.88h34.84Z"/>
      <path class="f" d="M51.45,112.2c2.65,6.02,7.5,10.45,14.88,12.38-1.1,.95-2.46,2.92-3.11,4.2-7.12-2.27-11.7-6.66-14.88-12.88-2.08,5.04-6.36,9.81-14.88,12.99-.61-1.13-1.97-3.03-2.95-3.9,8.75-3.11,12.46-7.99,14.01-12.8h-12.69v-4.62h13.63c.08-1.02,.11-1.97,.11-2.92v-3.82h-12.38v-4.62h30v4.62h-12.88v3.9c0,.91-.04,1.86-.08,2.84h14.43v4.62h-13.22Z"/>
    </g>
  </g>
</svg>