<?xml version="1.0" encoding="UTF-8"?>
<svg id="b" data-name="圖層 2" xmlns="http://www.w3.org/2000/svg" width="1086.54" height="405.96" xmlns:xlink="http://www.w3.org/1999/xlink" viewBox="0 0 1086.54 405.96">
  <defs>
    <style>
      .f {
        fill: #fff;
      }

      .g {
        stroke-width: 1.03px;
      }

      .g, .h {
        fill: none;
      }

      .g, .h, .i, .j {
        stroke-miterlimit: 10;
      }

      .g, .j {
        stroke: #9fa0a0;
      }

      .k, .i {
        fill: #fc462d;
      }

      .l {
        opacity: .35;
      }

      .h {
        stroke-width: 1.04px;
      }

      .h, .i {
        stroke: #fff;
      }

      .i {
        stroke-width: .75px;
      }

      .m, .j {
        fill: #595757;
      }

      .j {
        stroke-width: 1.04px;
      }

      .n {
        filter: url(#d);
      }
    </style>
    <filter id="d" data-name="drop-shadow-1" filterUnits="userSpaceOnUse">
      <feOffset dx="6" dy="6"/>
      <feGaussianBlur result="e" stdDeviation="2"/>
      <feFlood flood-color="#000" flood-opacity=".1"/>
      <feComposite in2="e" operator="in"/>
      <feComposite in="SourceGraphic"/>
    </filter>
  </defs>
  <g id="c" data-name="圖層 1">
    <g class="n">
      <path class="f" d="M1086.54,96.82v251.04c0,7.73-6.27,14-14,14H202.42c-7.73,0-14-6.27-14-14V96.82"/>
      <path class="k" d="M1086.54,96.17V14c0-7.73-6.27-14-14-14H202.42c-7.73,0-14,6.27-14,14V96.17"/>
    </g>
    <g>
      <path class="f" d="M334.22,55h-4.58v1.78h-1.89v-15.6h6.47v13.82Zm-4.58-12.06v4.2h2.66v-4.2h-2.66Zm2.66,10.33v-4.41h-2.66v4.41h2.66Zm9.55-9.3v2.38h4.6v1.69h-1.78v2.01h2.36v1.71h-2.36v5.14c0,1-.24,1.53-.97,1.8-.77,.31-1.91,.33-3.61,.33-.09-.52-.4-1.3-.68-1.82,1.23,.04,2.44,.04,2.79,.04,.35-.02,.46-.1,.46-.4v-5.1h-7.99v-1.71h7.99v-2.01h-7.2v-1.69h4.36v-2.38h-5.21v-1.73h5.21v-2.38h2.02v2.38h5.26v1.73h-5.26Zm-4.36,8.32c.97,1.04,2.18,2.49,2.75,3.45l-1.8,1.02c-.51-.94-1.67-2.49-2.64-3.6l1.7-.88Z"/>
      <path class="f" d="M357.36,47.98v11.08h-2.02v-18.36h8.12v7.28h-6.1Zm0-5.81v1.44h4.16v-1.44h-4.16Zm4.16,4.37v-1.55h-4.16v1.55h4.16Zm11.99,10.1c0,1.11-.24,1.73-1.03,2.07-.77,.31-1.98,.33-3.83,.33-.09-.52-.38-1.36-.64-1.9h-5.94v1.04h-1.87v-8.76h8.25v7.65c1.08,.04,2.13,.02,2.49,.02,.4-.02,.51-.12,.51-.48v-8.59h-6.25v-7.32h8.32v15.93Zm-11.44-5.75v1.63h4.47v-1.63h-4.47Zm4.47,4.79v-1.74h-4.47v1.74h4.47Zm.62-13.51v1.44h4.29v-1.44h-4.29Zm4.29,4.41v-1.59h-4.29v1.59h4.29Z"/>
    </g>
    <g>
      <path class="f" d="M735.04,49.52c-.84-.75-2.6-1.71-4.03-2.3l1.08-1.46c1.41,.52,3.19,1.42,4.09,2.11l-1.14,1.65Zm2.11,2.63c-1.17,2.17-2.62,4.66-3.94,6.65l-1.71-1.32c1.17-1.59,2.86-4.24,4.14-6.63l1.52,1.3Zm-1.41-8.07c-.75-.79-2.42-1.88-3.76-2.55l1.14-1.42c1.34,.63,3.04,1.65,3.85,2.42l-1.23,1.55Zm3.3,5.64h1.85v2.11c0,2.3-.35,5.08-3.17,7.13-.31-.4-.99-1.03-1.43-1.28,2.49-1.76,2.75-4.06,2.75-5.89v-2.07Zm10.38,0c-.26-.4-.64-.9-1.06-1.42-8.56,.54-9.62,.63-10.32,.9-.11-.4-.44-1.32-.66-1.82,.48-.1,.99-.58,1.63-1.32,.31-.31,.86-.96,1.5-1.84h-3.3v-1.76h4.58c.53-.84,1.1-1.73,1.54-2.61l2,.75c-.38,.63-.79,1.26-1.19,1.86h6.67v1.76h-7.94c-.81,1.04-1.63,2.01-2.44,2.88l6.71-.38c-.48-.54-.95-1.09-1.34-1.59l1.54-.84c1.23,1.38,2.93,3.28,3.76,4.41l-1.67,1Zm-6.58,.17h1.8v8.26h-1.8v-8.26Zm7.13,7.19c.26,0,.73-.04,.99-.12,.02,.48,.09,1.11,.15,1.51-.29,.1-.73,.12-1.12,.12h-1.3c-1.71,0-2.04-.69-2.04-2.36v-6.5h1.89v6.54c0,.61,.04,.81,.33,.81h1.1Z"/>
      <path class="f" d="M765.04,52.95c-.29-.65-.95-1.8-1.54-2.8v8.93h-1.94v-8.68c-.72,2.01-1.63,3.95-2.6,5.21-.15-.54-.64-1.4-.95-1.9,1.14-1.42,2.35-3.91,3.06-6.12h-2.73v-1.8h3.21v-2.97c-.81,.15-1.63,.27-2.4,.38-.09-.42-.31-1.09-.55-1.51,2.2-.4,4.69-.98,6.21-1.67l1.14,1.59c-.73,.29-1.59,.52-2.46,.75v3.43h2.66v1.8h-2.66v.44c.59,.67,2.31,2.82,2.68,3.35l-1.14,1.59Zm13.31,3.91v1.73h-12.59v-1.73h5.46v-2.4h-4.29v-1.67h4.29v-2.15c-1.23,.12-2.49,.21-3.63,.25-.02-.42-.29-1.09-.48-1.51,3.08-.19,6.71-.56,8.8-1.15l1.3,1.46c-1.12,.29-2.51,.52-3.96,.71v2.38h4.22v1.67h-4.22v2.4h5.1Zm-1.12-9.18h-10.14v-6.81h10.14v6.81Zm-1.98-5.16h-6.25v3.51h6.25v-3.51Z"/>
      <path class="f" d="M804.41,56.67c0,1.11-.24,1.71-1.05,2.03-.81,.31-2.13,.33-3.98,.33-.09-.56-.42-1.44-.72-1.99,1.34,.06,2.77,.04,3.17,.04,.4-.02,.53-.12,.53-.44v-4.14c-.46,.38-1.12,1.15-1.45,1.67-2.6-1.34-4.2-3.49-5.15-6.25-.95,2.91-2.64,5.04-5.35,6.38-.24-.42-.81-1.09-1.25-1.48v6.23h-2.07v-14.57h7.88c-.09-.65-.15-1.34-.22-2.03h-3.81v-1.71h5.59c.07,1.34,.18,2.59,.4,3.74h7.5v12.19Zm-15.27-3.97c2.66-1.28,4.31-3.37,5.08-6.31h-5.08v6.31Zm8.21-6.31c.84,2.84,2.35,4.93,4.99,6.11v-6.11h-4.99Z"/>
      <path class="f" d="M824.47,46.79c-.11,.19-.24,.36-.37,.52,2.46,2.55,5.48,4.14,8.96,5.37-.48,.42-1.04,1.07-1.32,1.61-.88-.36-1.74-.77-2.55-1.17v5.87h-2.09v-.58h-8.32v.65h-2v-5.69c-.86,.44-1.76,.86-2.66,1.19-.29-.48-.84-1.15-1.3-1.57,4.03-1.36,7.83-3.85,9.88-6.94l1.78,.73Zm-8.69-1.04h-2v-4.06h8.29c-.22-.52-.48-1.07-.75-1.55l2.11-.44c.37,.59,.79,1.36,1.05,1.99h7.64v4.06h-2.07v-2.3h-14.28v2.3Zm5.3-.94c-1.41,1.82-3.63,3.55-5.63,4.62-.29-.36-.99-1.13-1.41-1.46,1.94-.88,3.94-2.3,5.13-3.78l1.91,.63Zm6.01,11.89v-2.93h-8.32v2.93h8.32Zm.2-4.64c-1.54-.94-2.93-2.03-4.27-3.39-1.14,1.25-2.51,2.4-3.98,3.39h8.25Zm-1.3-7.86c1.92,1.09,4.4,2.76,5.61,3.93l-1.47,1.25c-1.14-1.15-3.56-2.91-5.54-4.08l1.41-1.11Z"/>
    </g>
    <g>
      <line class="h" x1="505.85" y1="13.29" x2="505.85" y2="85.32"/>
      <line class="g" x1="505.85" y1="98.08" x2="505.85" y2="343.92"/>
    </g>
    <line class="j" x1="524.69" y1="147.93" x2="1023.22" y2="147.93"/>
    <line class="j" x1="524.69" y1="211.08" x2="1023.22" y2="211.08"/>
    <line class="j" x1="524.69" y1="274.23" x2="1023.22" y2="274.23"/>
    <g>
      <path class="m" d="M636.08,127.11c-.31-.48-.88-1.21-1.4-1.9v6.89h-1.51v-6.46c-.58,.62-1.19,1.14-1.78,1.59-.11-.46-.47-1.3-.68-1.59,1.6-1.08,3.22-2.96,4.16-4.91h-3.8v-1.43h2.65c-.27-.6-.85-1.45-1.37-2.09l1.21-.73c.63,.65,1.24,1.54,1.53,2.14l-1.06,.68h1.66l.29-.07,.86,.56c-.45,1.3-1.12,2.53-1.89,3.67,.67,.63,1.86,1.97,2.2,2.32l-1.04,1.32Zm11.24,3.47v1.21h-10.75v-1.21h3.1c-.18-.48-.41-1.02-.61-1.49l1.28-.36c.3,.58,.61,1.33,.77,1.84h1.84c.27-.58,.63-1.33,.79-1.86l1.49,.39c-.31,.51-.63,1.03-.92,1.47h3.01Zm-.2-5.89h-10.23v-1.18h10.23v1.18Zm-.54-1.91h-9.09v-4.99h2.52v-1.35h1.33v1.35h1.31v-1.35h1.33v1.35h2.59v4.99Zm-8.55,5.93v-3.26h8.01v3.26h-8.01Zm.83-8.92h1.37v-1.01h-1.37v1.01Zm0,1.98h1.37v-1.03h-1.37v1.03Zm.58,5.93h5.17v-1.27h-5.17v1.27Zm3.22-7.91v-1.01h-1.31v1.01h1.31Zm-1.31,.96v1.03h1.31v-1.03h-1.31Zm3.84-1.96h-1.41v1.01h1.41v-1.01Zm0,1.96h-1.41v1.03h1.41v-1.03Z"/>
      <path class="m" d="M658.63,117.22c-.58,2.55-1.57,5.04-2.79,6.66-.25-.27-.85-.84-1.19-1.09,1.15-1.4,2-3.62,2.48-5.88l1.49,.31Zm2.88,13.07c-.05-.29-.14-.62-.23-.97-4.27,.8-4.93,.99-5.35,1.21v0l-.02,.02v-.1c-.11-.36-.36-1.02-.52-1.4,.34-.09,.59-.58,.92-1.32,.36-.72,1.37-3.45,1.85-5.98l1.64,.43c-.54,2.24-1.39,4.58-2.23,6.46l3.33-.6c-.31-.96-.69-2.02-1.06-2.91l1.37-.44c.72,1.64,1.49,3.78,1.8,5.07l-1.49,.53Zm.25-7.08c-.36-1.49-1.33-3.95-2.23-5.79l1.39-.53c.95,1.83,1.98,4.22,2.34,5.71l-1.49,.62Zm4.75,6.38c-.9,.92-2.36,1.85-3.66,2.39-.18-.34-.54-.84-.83-1.16,1.15-.48,2.5-1.37,3.15-2.1l1.33,.87Zm-.94-9.5c.22-.45,.41-.96,.6-1.4h-3.53v-1.42h8.61v1.42h-3.29c-.27,.46-.52,.96-.77,1.4h3.4v8.53h-7.13v-8.53h2.12Zm3.44,1.25h-4.07v1.23h4.07v-1.23Zm0,2.38h-4.07v1.25h4.07v-1.25Zm0,2.41h-4.07v1.26h4.07v-1.26Zm-.65,2.51c1.04,.62,2.5,1.54,3.21,2.17l-.9,1.16c-.67-.67-2.09-1.64-3.19-2.31l.88-1.03Z"/>
      <path class="m" d="M685.22,121.28c-.02,1.81-.23,4-1.19,6.14,.76,.63,1.42,1.25,1.87,1.74l-1.03,1.25c-.4-.46-.97-1.01-1.6-1.61-.76,1.16-1.8,2.29-3.22,3.27-.25-.32-.79-.82-1.15-1.04,1.44-.99,2.47-2.1,3.19-3.23-.9-.75-1.84-1.52-2.66-2.14,.38-1.09,.76-2.54,1.12-4.08l-1.39,.09-.16-1.44,1.86-.09c.23-1.25,.45-2.53,.58-3.66l1.55,.1c-.14,1.09-.36,2.27-.6,3.49l1.35-.05v-1.21h1.49v1.13l.67-.03-.02,1.33-.65,.05Zm-3.15,.21c-.31,1.31-.61,2.6-.94,3.67,.52,.39,1.1,.84,1.64,1.26,.76-1.78,.92-3.55,.96-5.04l-1.66,.1Zm12.75,3.64c-1.35,3.78-4.12,5.79-8.61,6.9-.16-.46-.56-1.08-.9-1.42,4.12-.84,6.72-2.62,7.94-5.91l1.57,.43Zm-6.14-5.54c-.31,1.95-.83,4.05-1.42,5.38-.32-.2-1.03-.49-1.42-.65,.63-1.27,1.06-3.2,1.31-5.01l1.53,.27Zm2.63,6.75h-1.58v-9.93h1.58v9.93Zm2.66-2.2c-.29-1.28-1.06-3.21-1.85-4.67l1.44-.46c.85,1.45,1.66,3.33,1.96,4.61l-1.55,.51Z"/>
      <path class="m" d="M708.55,126.79c-.04-.26-.11-.53-.18-.86-3.71,.51-4.3,.65-4.66,.84-.09-.31-.32-1.04-.51-1.44,.4-.09,.79-.5,1.33-1.11,.25-.27,.76-.89,1.31-1.71-1.6,.19-2.02,.29-2.27,.39-.09-.29-.31-.97-.49-1.37,.32-.07,.61-.41,.99-.92,.38-.49,1.58-2.41,2.25-4.24l1.5,.58c-.72,1.5-1.68,3.06-2.63,4.32l1.58-.12c.45-.7,.9-1.47,1.26-2.22l1.4,.79c-1.08,1.86-2.45,3.76-3.83,5.28l2.41-.29c-.16-.51-.34-1.04-.54-1.52l1.24-.32c.47,1.11,.95,2.6,1.15,3.47l-1.33,.45Zm-3.24,.84c-.18,1.54-.49,3.2-.88,4.27-.29-.17-.95-.38-1.31-.48,.41-1.03,.67-2.6,.81-4.02l1.39,.22Zm1.78-.24c.21,1.13,.43,2.58,.49,3.54l-1.31,.26c-.04-.97-.23-2.44-.43-3.57l1.26-.22Zm1.69-.48c.34,.87,.72,2,.88,2.75l-1.21,.39c-.14-.75-.5-1.91-.83-2.8l1.15-.34Zm10.84,3.35v1.45h-10.21v-1.45h4.32v-2.87h-3.42v-1.42h8.59v1.42h-3.49v2.87h4.21Zm-7.81-4.73c-.38-.89-1.21-2.19-2.12-3.35,.72-1.03,1.46-2.27,1.87-3.11l1.44,.34c-.49,.87-1.17,1.91-1.75,2.73,.78,.94,1.53,2.1,1.93,2.84l-1.37,.55Zm7.62-6.89h-9.52v-1.42h9.52v1.42Zm-3.38,.79c-.5,.87-1.17,1.9-1.76,2.7,.77,.92,1.58,2.05,1.96,2.79l-1.33,.56c-.41-.89-1.26-2.17-2.23-3.31,.74-1.01,1.51-2.26,1.93-3.08l1.44,.34Zm2.02,6.1c-.43-.89-1.35-2.2-2.38-3.35,.76-1.03,1.55-2.27,1.98-3.11l1.46,.36c-.54,.87-1.22,1.9-1.82,2.72,.83,.92,1.67,2.05,2.09,2.79l-1.33,.6Z"/>
    </g>
    <g>
      <path class="m" d="M646.11,184.42c-.36,2.91-1.01,5.3-2.05,7.23,.85,1.28,1.93,2.29,3.33,2.94-.38,.31-.92,.94-1.17,1.37-1.28-.7-2.3-1.66-3.13-2.84-.9,1.16-2.07,2.14-3.51,2.92-.14-.31-.56-.9-.87-1.26-.25,.29-.56,.41-.94,.46-.41,.07-1.03,.05-1.64,.05-.04-.41-.22-1.03-.45-1.42,.54,.05,1.04,.05,1.31,.05,.22,0,.32-.04,.45-.24,.21-.34,.27-2,.27-6.77h-4.29c-.18,.36-.38,.68-.58,1.01h3.98v5.32h-1.26v-.72h-2.09v1.3h-1.24v-5.01c-.23,.31-.45,.58-.7,.82-.14-.32-.58-1.09-.85-1.44,.97-.94,1.75-2.36,2.18-3.83l1.46,.38c-.09,.27-.2,.55-.31,.84h5.26v.36c1.13-1.42,1.82-3.45,2.2-5.64l1.69,.26c-.16,.82-.36,1.62-.61,2.39h4.64v1.47h-1.1Zm-12.57-1.25h-2.3v-1.33h2.3v-1.44h1.4v3.81h-1.4v-1.04Zm-.05,5.96v2.08h2.09v-2.08h-2.09Zm4.12-4.62h-1.44v-4.12h1.44v1.44h2.27v1.33h-2.27v1.35Zm4.57,7.08c-.68-1.35-1.17-2.91-1.57-4.6-.18,.27-.4,.53-.63,.77-.14-.22-.41-.55-.7-.87-.04,4.99-.07,6.87-.38,7.57,1.4-.74,2.47-1.69,3.28-2.87Zm-.12-7.18c-.13,.27-.23,.55-.36,.79,.31,1.73,.76,3.33,1.4,4.72,.67-1.54,1.06-3.37,1.31-5.5h-2.36Z"/>
      <path class="m" d="M659.57,188.68c-.47,.19-.92,.38-1.38,.56v5.09c0,.72-.14,1.09-.56,1.33-.47,.24-1.08,.29-2.09,.29-.04-.38-.21-.99-.39-1.37,.59,.02,1.13,.02,1.33,0,.2,0,.25-.05,.25-.26v-4.53l-1.44,.55-.47-1.49c.54-.17,1.19-.38,1.91-.65v-3.04h-1.67v-1.44h1.67v-3.35h1.46v3.35h1.17v1.45h-1.17v2.5l1.06-.39,.32,1.38Zm3.96,1.81c-.02,.31-.04,.6-.07,.87h2.75v1.2h-2.97l-.05,.27c1.04,.53,2.3,1.28,2.95,1.84l-.9,1.04c-.56-.5-1.6-1.2-2.59-1.76-.58,.91-1.53,1.54-3.08,2.02-.14-.34-.49-.84-.79-1.09,1.84-.46,2.68-1.16,3.08-2.32h-2.61v-1.2h2.88c.04-.27,.07-.56,.09-.87h-2.54v-5.76h1.93v-.97h-2.16v-1.2h1.73c-.18-.46-.54-1.11-.88-1.61l1.12-.39c.38,.55,.79,1.25,.97,1.69l-.78,.31h1.93c.32-.55,.77-1.37,.99-1.95l1.21,.41c-.3,.53-.61,1.09-.92,1.54h1.39v1.2h-2.12v.97h1.89v5.76h-2.43Zm-2.77-.97h4.05v-2.21h-.81c-.67,0-.88-.14-.88-.87v-.73h-.65v.31c0,.53-.22,1.18-1.06,1.64-.13-.14-.4-.38-.56-.44,.76-.39,.9-.79,.9-1.2v-.31h-.99v3.81Zm.52-1.4h3.08v.77h-3.08v-.77Zm1.24-3.38h.65v-.97h-.65v.97Zm2.29,.97h-.96v.73c0,.21,.04,.24,.22,.24h.54c.11,0,.16,0,.2-.02v-.96Zm6.61-4.15c-.47,1.64-1.04,3.81-1.55,5.35,1.06,1.52,1.29,2.87,1.29,4.05,0,1.08-.21,1.86-.67,2.22-.25,.17-.54,.27-.9,.34-.27,.03-.63,.03-.99,.03,0-.38-.09-.97-.31-1.37,.29,.03,.52,.03,.76,.03,.16-.02,.32-.07,.45-.19,.22-.19,.29-.68,.29-1.28,0-1.01-.2-2.27-1.26-3.74,.43-1.35,.88-3.25,1.19-4.58h-1.68v13.65h-1.4v-15.04h3.53l.22-.07,1.03,.58Z"/>
      <path class="m" d="M684.45,180.87c-.51,1.28-1.13,2.58-1.82,3.78v11.42h-1.55v-9.02c-.43,.58-.87,1.09-1.31,1.57-.13-.39-.59-1.23-.88-1.62,1.6-1.59,3.12-4.07,4.02-6.56l1.55,.44Zm11.07,13.43v1.35h-11.99v-1.35h1.66v-9.48h3.08c.09-.41,.2-.91,.29-1.4h-4.23v-1.37h4.45c.09-.58,.16-1.14,.2-1.64l1.77,.07c-.09,.5-.2,1.04-.31,1.57h4.63v1.37h-4.91c-.11,.5-.23,.99-.36,1.4h4.27v9.48h1.48Zm-8.84-8.29v1.21h5.81v-1.21h-5.81Zm5.81,2.36h-5.81v1.21h5.81v-1.21Zm-5.81,2.32v1.25h5.81v-1.25h-5.81Zm0,3.61h5.81v-1.23h-5.81v1.23Z"/>
      <path class="m" d="M719.55,192.28h-6.32v3.78h-1.73v-3.78h-8.19v-1.54h2.9v-4.51h5.29v-2.36h-4.12c-.77,1.27-1.67,2.39-2.59,3.25-.32-.27-1.04-.79-1.46-1.03,1.66-1.35,3.1-3.52,3.93-5.79l1.69,.43c-.21,.53-.47,1.09-.7,1.61h10.42v1.54h-5.44v2.36h5.02v1.49h-5.02v3.03h6.32v1.54Zm-8.05-1.54v-3.03h-3.62v3.03h3.62Z"/>
      <path class="m" d="M734.88,188.08c0,2.38-.2,5.76-1.48,7.98-.27-.24-.9-.63-1.26-.77,.34-.6,.59-1.25,.77-1.95l-1.03,.99c-.29-.58-.88-1.54-1.4-2.38-.41,1.49-1.06,2.85-2.2,4.08-.21-.34-.74-.84-1.04-1.08,2.11-2.36,2.32-5.45,2.32-8.42v-6.02h1.44v6.02c0,1.26-.04,2.56-.21,3.79,.59,.75,1.82,2.48,2.12,2.97,.47-1.74,.52-3.69,.52-5.23v-5.25h3.6v-2.48h1.57v.87h4.46v.99h-4.46v.62h3.76l.23-.04,1.03,.17c-.14,.89-.36,1.91-.56,2.56l-1.24-.19c.05-.36,.12-.85,.2-1.35h-3.22v.7l2.38-.17,.05,.87-2.43,.19c0,.38,.05,.53,.45,.53h1.77c.32,0,.99-.04,1.26-.1,.05,.38,.07,.67,.14,1.01-.29,.09-.87,.1-1.35,.1h-2.25c-1.13,0-1.44-.44-1.49-1.26l-1.93,.17-.07-1.08,1.98-.14v-.82h-2.43v4.08Zm-6.88,.19c-.09-1.16-.4-3.2-.72-4.75l1.12-.19c.34,1.54,.7,3.54,.81,4.67l-1.21,.27Zm5.31-4.72c-.45,1.23-.92,2.8-1.33,3.76l-.9-.32c.34-1.03,.76-2.7,.94-3.85l1.3,.41Zm10.5,10.97v1.11h-9.63v-1.11h1.1v-2.63h7.67v2.63h.87Zm-8.16-6.9h6.93v3.69h-6.93v-3.69Zm.85,6.9h1.04v-1.62h-1.04v1.62Zm.45-5.45h1.51v-.65h-1.51v.65Zm0,1.44h1.51v-.67h-1.51v.67Zm1.6,2.39v1.62h1.03v-1.62h-1.03Zm2.7-4.48h-1.59v.65h1.59v-.65Zm0,1.42h-1.59v.67h1.59v-.67Zm-.67,3.06v1.62h1.08v-1.62h-1.08Z"/>
      <path class="m" d="M767.68,193.94v1.55h-15.95v-1.55h7.02v-3.78h-5.35v-1.54h5.35v-3.4h-6.21v-1.55h7.56c-.74-.75-1.91-1.71-2.9-2.38l1.37-.9c1.15,.73,2.63,1.88,3.37,2.68l-.88,.6h5.73v1.55h-6.19v3.4h5.4v1.54h-5.4v3.78h7.09Z"/>
    </g>
    <g>
      <path class="m" d="M647.13,250.73v1.32h-16.1v-1.32h5.46v-3.09h-4.46v-1.3h3.24c-.25-.48-.65-1.08-1.04-1.52l1.46-.53c.52,.53,1.04,1.23,1.24,1.74l-.74,.31h4.84c.41-.6,.94-1.43,1.21-2.05l1.66,.5c-.32,.55-.68,1.09-1.04,1.55h3.4v1.3h-4.68v3.09h5.56Zm-13.02-3.03c.59,.74,1.13,1.74,1.33,2.45l-1.44,.55c-.2-.68-.7-1.73-1.26-2.5l1.37-.5Zm-.74,5.25h11.47v6.99h-1.71v-.48h-8.12v.55h-1.64v-7.06Zm1.64,1.23v1.4h8.12v-1.4h-8.12Zm8.12,4.03v-1.42h-8.12v1.42h8.12Zm-5.1-7.49h1.95v-3.09h-1.95v3.09Zm4.46-.46c.43-.7,1.01-1.81,1.3-2.6l1.53,.44c-.49,.94-1.04,1.91-1.53,2.56l-1.3-.41Z"/>
      <path class="m" d="M658.07,250.49c0,2.77-.21,6.82-1.71,9.52-.34-.24-1.1-.58-1.51-.72,1.44-2.56,1.58-6.24,1.58-8.8v-4.55h6.79c-.18-.44-.38-.94-.59-1.31l1.67-.38c.31,.51,.61,1.16,.83,1.69h6.09v1.47h-13.14v3.08Zm11.87,4.05c-.79,1.4-2,2.46-3.47,3.25,1.48,.44,3.19,.7,5.01,.85-.34,.34-.76,.97-.97,1.37-2.21-.22-4.23-.68-5.96-1.37-1.82,.65-3.87,1.04-6.03,1.28-.11-.39-.42-.99-.69-1.35,1.73-.14,3.42-.38,4.93-.8-1.03-.6-1.89-1.32-2.59-2.17l.7-.26h-2.18v-1.27h9.92l.29-.05,1.04,.51Zm-8.79-1.37v-2.73h-2.67v-1.28h2.67v-1.32h1.58v1.32h3.89v-1.32h1.64v1.32h2.76v1.28h-2.76v2.73h-7.11Zm.7,2.17c.68,.72,1.62,1.32,2.76,1.81,1.13-.48,2.12-1.08,2.84-1.81h-5.6Zm.88-4.91v1.5h3.89v-1.5h-3.89Z"/>
      <path class="m" d="M685.81,250.63s0,.44-.02,.65c-.11,5.54-.2,7.49-.65,8.07-.31,.41-.61,.56-1.1,.62-.45,.07-1.15,.07-1.87,.05-.04-.43-.2-1.02-.43-1.42,.65,.05,1.24,.05,1.51,.05,.23,.02,.4-.03,.54-.24,.27-.34,.38-1.93,.47-6.34h-1.84c-.23,3.16-.79,6.02-2.29,7.95-.27-.36-.79-.84-1.22-1.08,1.8-2.34,2-6.36,2.07-10.44h-1.86v-1.47h7.13v1.47h-3.69c-.02,.72-.04,1.44-.07,2.14h3.31Zm-2.68-6.27c.32,.7,.72,1.64,.9,2.22l-1.53,.44c-.16-.61-.52-1.59-.87-2.31l1.5-.36Zm10.14,14.27c.76,0,.9-.31,.99-1.88,.34,.24,.95,.48,1.37,.56-.2,2.07-.65,2.67-2.25,2.67h-3.4c-1.95,0-2.45-.44-2.45-2.15v-3.78l-.94,.41-.6-1.3,1.53-.68v-2.41c-.18,.24-.36,.45-.54,.65-.27-.29-.9-.85-1.28-1.13,1.24-1.23,2.14-3.2,2.61-5.25l1.66,.31c-.18,.68-.38,1.35-.61,1.98h6.05v1.44h-6.7c-.3,.67-.68,1.28-1.06,1.83h1.37v1.91l1.39-.61v-2.58h1.4v1.96l1.66-.75,.31-.22,1.12,.31-.07,.22c-.04,1.85-.16,4.32-.4,5.86l-1.22-.22c.11-1.09,.18-2.79,.2-4.36l-1.58,.72v4.94h-1.4v-4.32l-1.39,.63v4.46c0,.67,.14,.79,1.1,.79h3.15Z"/>
      <path class="m" d="M712.67,244.87c-.11,.14-.23,.27-.36,.41,1.8,1.49,4.9,2.89,7.56,3.55-.38,.31-.87,.96-1.1,1.33-1.59-.46-3.31-1.21-4.86-2.13v.77h-4.9v-.82c-.86,.53-1.8,1.01-2.75,1.42h10.3v5.42h-8.68v3.27l4.29-.6c-.05,.41-.05,1.02-.02,1.35-4.75,.73-5.46,.89-5.91,1.09-.12-.33-.49-.91-.74-1.16,.31-.19,.74-.6,.74-1.32v-8.03c-.65,.27-1.31,.53-1.98,.73-.23-.38-.65-.94-1.04-1.28,3.1-.89,6.3-2.56,7.94-4.68l1.51,.68Zm-4.79,5.71v1.01h6.99v-1.01h-6.99Zm6.99,3.06v-.99h-6.99v.99h6.99Zm-1.51-5.95c-.74-.45-1.42-.94-2.02-1.44-.58,.51-1.22,.99-1.89,1.44h3.91Zm5.28,7.71c-.94,.67-2.07,1.32-3.12,1.85,1.08,.58,2.07,1.18,2.77,1.66l-1.19,1.08c-1.44-1.06-4.39-2.73-6.68-3.85l1.1-.91c.81,.36,1.73,.82,2.65,1.28,1.13-.6,2.41-1.4,3.22-2.05l1.24,.94Z"/>
      <path class="m" d="M730.2,256.5c-.49,1.13-1.22,2.43-1.84,3.28-.23-.22-.81-.56-1.13-.74,.63-.79,1.26-1.93,1.69-2.92l1.28,.38Zm2.9-.8h-5.1v-10.56h5.1v10.56Zm-1.39-9.28h-2.38v1.81h2.38v-1.81Zm0,3.03h-2.38v1.86h2.38v-1.86Zm0,3.09h-2.38v1.88h2.38v-1.88Zm.2,3.52c.54,.77,1.13,1.76,1.44,2.41l-1.15,.62c-.27-.65-.88-1.73-1.37-2.5l1.08-.53Zm11.74-2.48c-.74,.7-1.57,1.42-2.27,1.95,.67,1.28,1.49,2.34,2.52,3.01-.34,.26-.81,.8-1.03,1.18-1.98-1.47-3.17-4.26-3.83-7.4h-.79v5.67l1.78-.7c.02,.39,.11,.92,.18,1.23-2.54,1.11-2.99,1.37-3.26,1.62-.09-.36-.39-.99-.63-1.31,.27-.15,.58-.45,.58-1.09v-5.42h-.97c-.05,2.48-.34,5.55-1.44,7.67-.29-.24-.97-.62-1.37-.77,1.19-2.29,1.28-5.5,1.28-7.93v-6.08h8.93v1.35h-7.38v1.47h7.04v1.33h-7.04v1.57h7.74v1.38h-3.46c.18,.75,.4,1.47,.69,2.17,.59-.55,1.28-1.28,1.69-1.81l1.04,.9Z"/>
      <path class="m" d="M754,252.11c-.56-.58-1.76-1.38-2.7-1.95l.81-.94c.94,.5,2.14,1.28,2.76,1.83l-.87,1.06Zm-2.48,6.89c.65-1.28,1.59-3.45,2.29-5.31l1.08,.77c-.61,1.74-1.42,3.76-2.12,5.31l-1.24-.77Zm2.86-11.31c-.52-.65-1.67-1.61-2.59-2.26l.88-.91c.94,.62,2.09,1.54,2.65,2.17l-.94,.99Zm10.06,5.13h1.57v7.23h-1.57v-2.51h-6.23c-.31,.94-.9,1.85-1.95,2.53-.29-.26-.86-.65-1.24-.84,1.76-1.18,2.02-2.96,2.02-4.19v-2.22h1.57v1.03h5.83v-1.03Zm-6.55-3.33c-.25,1.5-.88,2.63-2.05,3.37-.11-.22-.45-.67-.69-.84,.92-.56,1.41-1.4,1.6-2.53h-.92v-1.04h4.03v.46c-.07,2.1-.13,2.96-.4,3.26-.18,.22-.4,.32-.76,.36-.23,.04-.61,.04-.99,.04-.04-.33-.13-.75-.29-1.03,.36,.05,.63,.05,.78,.05,.12,0,.21-.04,.3-.14,.11-.14,.14-.65,.2-1.97h-.83Zm2.57-2.24h-4.72v-1.28h4.97c-.09-.48-.22-1.08-.38-1.54l1.55-.19c.22,.53,.4,1.25,.49,1.73h5.29v1.28h-4.84l1.03,.32c-.56,.56-1.19,1.15-1.75,1.61h.02v3.54h-1.24v-3.52h-.02l.02-.02c.61-.53,1.33-1.35,1.76-1.93h-2.14c.34,.41,.67,.94,.79,1.32l-.96,.43c-.12-.39-.43-.97-.74-1.4l.86-.34Zm3.98,9.02v-1.18h-5.83c0,.36-.02,.77-.07,1.18h5.9Zm2.7-7.69c-.34,.17-.7,.32-1.1,.48,.36,1.14,.94,2.24,1.76,2.79-.25,.17-.56,.53-.74,.8-.9-.7-1.51-1.96-1.87-3.31-.29,.07-.58,.15-.87,.22v1.9l1.19-.33c.04,.26,.13,.65,.16,.84-1.71,.56-2.09,.72-2.3,.87v-.02c-.09-.26-.32-.75-.5-.97,.2-.12,.43-.41,.43-1.08v-1.88h.02l-.02-.02c1.04-.26,2.21-.67,2.84-1.06l.99,.77Z"/>
      <path class="m" d="M781.81,252.81c-.77,.26-1.57,.53-2.32,.77v4.51c0,.77-.14,1.21-.67,1.45-.5,.26-1.24,.31-2.36,.31-.05-.43-.29-1.09-.5-1.52,.74,.02,1.44,.02,1.64,.02,.23-.02,.31-.07,.31-.27v-3.98c-.72,.24-1.42,.46-2.05,.65l-.38-1.54c.67-.19,1.51-.43,2.43-.67v-3.5c.63-.56,1.3-1.42,1.84-2.22h-3.82v-1.47h4.88l.31-.1,1.1,.7c-.7,1.21-1.73,2.56-2.72,3.57v2.55c.68-.21,1.4-.41,2.11-.63l.21,1.38Zm2.11-3.95c0,3.02-.32,7.83-2.25,11.04-.25-.29-.9-.73-1.24-.89,1.84-3.03,2-7.3,2-10.15v-3.21c2.88-.31,6.16-.79,8.1-1.38l1.21,1.25c-2.14,.58-5.1,1.03-7.81,1.3v2.05Zm4.2,5.66c.63,1.54,1.26,3.47,1.51,4.79l-1.22,.36c-.05-.38-.14-.82-.27-1.28-2.59,.72-3.06,.89-3.37,1.09-.2-.29-.74-.89-1.03-1.11,1.85-2.2,1.91-5.33,1.91-7.67v-2.96h1.44v2.97c0,1.93-.07,4.58-1.13,6.89l1.82-.45c-.25-.8-.5-1.59-.79-2.29l1.13-.34Zm2.09-7.21c.22,4.56,.67,9.2,2,11.5-.4,.26-.94,.79-1.22,1.2-1.46-2.73-1.89-7.5-2.14-12.58l1.37-.12Z"/>
      <path class="m" d="M815.35,246.15v13.76h-1.55v-.51h-13.31v-13.26h1.55v4.56c.22-.14,.41-.46,.61-.86,.25-.5,1.04-2.39,1.38-4.13l1.48,.44c-.5,1.55-1.26,3.2-2.02,4.5l1.48-.12c.2-.51,.4-1.06,.54-1.57l1.37,.46c-.83,2.19-1.96,4.43-3.15,6.19l1.85-.22c-.2-.62-.4-1.23-.59-1.79l.94-.38c.41,1.11,.87,2.51,1.12,3.54v-12.1h1.57v11.14c.34-.1,.63-.58,1.03-1.21,.27-.39,.9-1.62,1.5-3.08-1.44,.17-1.8,.27-2.04,.38-.07-.27-.29-.96-.49-1.33,.25-.07,.49-.41,.74-.87,.25-.46,1.01-2.29,1.37-3.96l1.47,.44c-.48,1.47-1.24,3.04-1.98,4.27l1.4-.1c.14-.46,.31-.92,.43-1.37l1.37,.46c-.81,2.15-1.93,4.38-3.12,6.1l2-.22c-.22-.63-.47-1.27-.69-1.83l.92-.41c.5,1.09,.99,2.48,1.26,3.52v-10.43h1.55Zm-13.31,9.72c.34-.1,.63-.58,1.04-1.23,.23-.38,.86-1.55,1.44-2.94-1.53,.17-1.91,.26-2.12,.38-.04-.2-.2-.7-.36-1.06v4.85Zm0,2.05h5.01v-.82l-.94,.39c-.05-.31-.14-.65-.23-1.01-2.65,.38-3.12,.48-3.4,.63-.05-.26-.27-.86-.43-1.21v2.02Zm11.76,0v-.85l-.9,.39c-.05-.33-.16-.68-.27-1.06-2.81,.38-3.29,.46-3.58,.63-.05-.26-.27-.87-.43-1.21v2.1h5.19Z"/>
      <path class="m" d="M838.6,259.8c-.27-.5-.65-1.11-1.08-1.78-9.88,.72-11,.79-11.74,1.08-.11-.31-.39-1.15-.61-1.59,.63-.12,1.33-.53,2.48-1.26,.7-.43,2.23-1.5,3.91-2.89-4.25,.27-4.92,.36-5.35,.51-.09-.32-.36-1.13-.58-1.57,.43-.09,.81-.39,1.31-.8s1.94-1.74,3.04-3.21h-5.82v-1.55h7.22c-.34-.62-.79-1.35-1.19-1.93l1.55-.51c.58,.77,1.22,1.76,1.55,2.43l-.05,.02h6.66v1.55h-8.66l.76,.38c-1.06,1.28-2.3,2.51-3.55,3.54l4.75-.24c.81-.73,1.62-1.52,2.34-2.31l1.57,1.01c-2.57,2.58-5.44,4.79-8.23,6.51l7.69-.46c-.52-.72-1.1-1.42-1.62-2.04l1.44-.72c1.42,1.54,2.97,3.61,3.73,4.96l-1.53,.89Z"/>
      <path class="m" d="M853.84,254.8c-.25-.51-.86-1.47-1.4-2.26v7.47h-1.62v-6.92c-.67,1.55-1.48,3.01-2.3,3.98-.16-.43-.56-1.08-.81-1.47,1.06-1.16,2.21-3.2,2.88-5.01h-2.65v-1.49h2.88v-2.29c-.78,.14-1.55,.24-2.27,.34-.05-.34-.29-.9-.47-1.23,2.02-.31,4.32-.8,5.73-1.38l.96,1.3c-.69,.26-1.48,.46-2.32,.65v2.62h2.52v1.49h-2.52v.24c.54,.53,2.07,2.27,2.41,2.72l-1.01,1.25Zm8.45,.84v4.38h-1.66v-4.1l-5.67,.91-.25-1.52,5.92-.94v-10.01h1.66v9.76l1.96-.31,.25,1.49-2.21,.36Zm-3.93-2.31c-.59-.73-1.91-1.83-3.01-2.54l1.06-.92c1.08,.68,2.45,1.71,3.08,2.43l-1.13,1.04Zm.45-4.49c-.54-.72-1.77-1.76-2.79-2.48l1.1-.9c1.03,.67,2.27,1.66,2.86,2.38l-1.17,1.01Z"/>
    </g>
    <line class="j" x1="232.88" y1="147.93" x2="480.38" y2="147.93"/>
    <line class="j" x1="232.88" y1="211.08" x2="480.38" y2="211.08"/>
    <line class="j" x1="232.88" y1="274.23" x2="480.38" y2="274.23"/>
    <g>
      <path class="m" d="M326.93,124.41c0-4.36,1.68-6.48,4.29-6.48s4.29,2.13,4.29,6.48-1.69,6.56-4.29,6.56-4.29-2.19-4.29-6.56Zm6.59,0c0-3.61-.95-4.92-2.3-4.92s-2.3,1.32-2.3,4.92,.96,5.01,2.3,5.01,2.3-1.37,2.3-5.01Z"/>
      <path class="m" d="M339.89,128.43c.52,.56,1.33,.94,2.18,.94,1.6,0,2.99-1.23,3.12-4.82-.77,.91-1.91,1.47-2.92,1.47-2.21,0-3.71-1.32-3.71-3.95,0-2.49,1.8-4.13,3.94-4.13,2.54,0,4.59,1.95,4.59,6.1,0,4.96-2.38,6.94-4.93,6.94-1.53,0-2.61-.58-3.38-1.33l1.12-1.21Zm5.26-5.37c-.2-2.48-1.19-3.61-2.63-3.61-1.13,0-2.04,.97-2.04,2.62s.76,2.53,2.14,2.53c.81,0,1.73-.45,2.52-1.54Z"/>
      <path class="m" d="M356.27,122.89c0-.8,.61-1.4,1.39-1.4s1.38,.6,1.38,1.4-.61,1.37-1.38,1.37-1.39-.58-1.39-1.37Zm0,6.72c0-.8,.61-1.4,1.39-1.4s1.38,.6,1.38,1.4-.61,1.37-1.38,1.37-1.39-.56-1.39-1.37Z"/>
      <path class="m" d="M368.11,124.41c0-4.36,1.68-6.48,4.29-6.48s4.29,2.13,4.29,6.48-1.69,6.56-4.29,6.56-4.29-2.19-4.29-6.56Zm6.59,0c0-3.61-.95-4.92-2.3-4.92s-2.3,1.32-2.3,4.92,.96,5.01,2.3,5.01,2.3-1.37,2.3-5.01Z"/>
      <path class="m" d="M379.81,124.41c0-4.36,1.68-6.48,4.29-6.48s4.29,2.13,4.29,6.48-1.69,6.56-4.29,6.56-4.29-2.19-4.29-6.56Zm6.59,0c0-3.61-.95-4.92-2.3-4.92s-2.3,1.32-2.3,4.92,.96,5.01,2.3,5.01,2.3-1.37,2.3-5.01Z"/>
    </g>
    <g>
      <path class="m" d="M327.63,193.09h2.9v-8.75h-2.38v-1.25c1.24-.22,2.12-.51,2.88-.96h1.57v10.96h2.59v1.62h-7.56v-1.62Z"/>
      <path class="m" d="M338.62,188.37c0-4.36,1.68-6.48,4.29-6.48s4.29,2.13,4.29,6.48-1.69,6.56-4.29,6.56-4.29-2.19-4.29-6.56Zm6.59,0c0-3.61-.95-4.92-2.3-4.92s-2.3,1.32-2.3,4.92,.96,5.01,2.3,5.01,2.3-1.37,2.3-5.01Z"/>
      <path class="m" d="M356.27,186.85c0-.8,.61-1.4,1.39-1.4s1.38,.6,1.38,1.4-.61,1.37-1.38,1.37-1.39-.58-1.39-1.37Zm0,6.72c0-.8,.61-1.4,1.39-1.4s1.38,.6,1.38,1.4-.61,1.37-1.38,1.37-1.39-.56-1.39-1.37Z"/>
      <path class="m" d="M368.11,188.37c0-4.36,1.68-6.48,4.29-6.48s4.29,2.13,4.29,6.48-1.69,6.56-4.29,6.56-4.29-2.19-4.29-6.56Zm6.59,0c0-3.61-.95-4.92-2.3-4.92s-2.3,1.32-2.3,4.92,.96,5.01,2.3,5.01,2.3-1.37,2.3-5.01Z"/>
      <path class="m" d="M379.81,188.37c0-4.36,1.68-6.48,4.29-6.48s4.29,2.13,4.29,6.48-1.69,6.56-4.29,6.56-4.29-2.19-4.29-6.56Zm6.59,0c0-3.61-.95-4.92-2.3-4.92s-2.3,1.32-2.3,4.92,.96,5.01,2.3,5.01,2.3-1.37,2.3-5.01Z"/>
    </g>
    <g>
      <path class="m" d="M327.63,257.05h2.9v-8.75h-2.38v-1.25c1.24-.22,2.12-.51,2.88-.96h1.57v10.96h2.59v1.62h-7.56v-1.62Z"/>
      <path class="m" d="M347.5,255.29h-1.69v3.38h-1.95v-3.38h-5.73v-1.32l5.28-7.88h2.4v7.67h1.69v1.52Zm-3.64-1.52v-3.3c0-.68,.07-1.74,.11-2.43h-.07c-.32,.63-.68,1.28-1.06,1.93l-2.61,3.79h3.64Z"/>
      <path class="m" d="M356.27,250.81c0-.8,.61-1.4,1.39-1.4s1.38,.6,1.38,1.4-.61,1.37-1.38,1.37-1.39-.58-1.39-1.37Zm0,6.72c0-.8,.61-1.4,1.39-1.4s1.38,.6,1.38,1.4-.61,1.37-1.38,1.37-1.39-.56-1.39-1.37Z"/>
      <path class="m" d="M367.77,257.17l1.01-1.27c.78,.75,1.77,1.38,3.13,1.38,1.5,0,2.52-.79,2.52-2.08,0-1.4-.94-2.31-3.93-2.31v-1.45c2.61,0,3.48-.94,3.48-2.21,0-1.11-.78-1.81-2.04-1.83-1.03,.02-1.89,.5-2.65,1.2l-1.08-1.23c1.04-.89,2.27-1.52,3.8-1.52,2.38,0,4.05,1.16,4.05,3.25,0,1.45-.88,2.46-2.29,2.96v.09c1.53,.36,2.74,1.45,2.74,3.14,0,2.27-2,3.61-4.43,3.61-2.09,0-3.44-.79-4.32-1.73Z"/>
      <path class="m" d="M379.81,252.33c0-4.36,1.68-6.48,4.29-6.48s4.29,2.13,4.29,6.48-1.69,6.56-4.29,6.56-4.29-2.19-4.29-6.56Zm6.59,0c0-3.61-.95-4.92-2.3-4.92s-2.3,1.32-2.3,4.92,.96,5.01,2.3,5.01,2.3-1.37,2.3-5.01Z"/>
    </g>
    <line class="j" x1="524.69" y1="337.38" x2="1023.22" y2="337.38"/>
    <g>
      <path class="m" d="M635.96,310.62h-4.86v-1.28h4.86v1.28Zm-.47,10.6h-2.59v.75h-1.24v-5.74h3.84v4.99Zm-3.78-9.59h3.8v1.25h-3.8v-1.25Zm0,2.27h3.8v1.25h-3.8v-1.25Zm1.62-4.6c-.13-.6-.52-1.59-.92-2.31l1.21-.43c.4,.7,.85,1.64,.99,2.25l-1.28,.48Zm-.43,8.17v2.5h1.33v-2.5h-1.33Zm9.79-2.41c-.41,.63-.86,1.21-1.4,1.78v3.68c0,.68-.14,1.08-.61,1.31-.47,.22-1.21,.26-2.27,.26-.05-.36-.27-.97-.49-1.31,.74,.03,1.48,.02,1.68,.02,.23,0,.3-.07,.3-.29v-2.31c-1.1,.96-2.29,1.79-3.47,2.44-.12-.29-.49-.94-.7-1.25,1.42-.68,2.88-1.68,4.09-2.82-1.33,.15-2.63,.29-3.73,.39l-.12-1.25,.67-.05v-7.28h1.33c.2-.63,.4-1.35,.49-1.91l1.64,.26c-.23,.55-.49,1.14-.7,1.66h1.91v6.48l.16-.24,1.24,.44Zm-2.79-5.43h-1.91v1.2h1.91v-1.2Zm0,2.34h-1.91v1.18h1.91v-1.18Zm-1.91,3.55l1.91-.15v-1.08h-1.91v1.23Zm9.33-3.95h-.94v8.77c0,.8-.18,1.2-.68,1.44-.52,.24-1.31,.29-2.48,.29-.09-.38-.34-1.03-.54-1.42,.81,.03,1.6,.03,1.86,.03,.25-.02,.34-.09,.34-.36v-8.75h-3.13v-1.45h3.13v-3.52h1.51v3.52h.94v1.45Zm-4.07,5.54c-.16-1.01-.68-2.68-1.26-3.98l1.24-.33c.61,1.23,1.17,2.89,1.35,3.9l-1.33,.41Z"/>
      <path class="m" d="M660.54,318.05c-1.76,.68-3.64,1.43-5.13,1.98l-.56-1.62c.61-.19,1.35-.43,2.14-.68v-5.64h-1.84v-1.5h1.84v-3.91h1.57v3.91h1.46v1.5h-1.46v5.09l1.66-.56,.32,1.44Zm10.77,2.56v1.21h-12.04v-1.21h12.04Zm-.12-11.5h-11.47v-1.2h4.84c-.22-.38-.49-.75-.74-1.06l1.35-.6c.45,.5,.94,1.16,1.13,1.66h4.88v1.2Zm-.79,5.98h-9.83v-5.37h9.83v5.37Zm-9.29,4.87v-4.26h8.62v4.26h-8.62Zm7.85-9.26h-7.02v3.42h7.02v-3.42Zm-6.32,6.7h5.49v-.79h-5.49v.79Zm0,1.66h5.49v-.8h-5.49v.8Zm5.24-5.52h-4.9v-2.22h4.9v2.22Zm-1.17-1.47h-2.61v.72h2.61v-.72Z"/>
      <path class="m" d="M693.88,321.95c-.27-.49-.65-1.11-1.08-1.78-9.88,.72-11,.79-11.74,1.08-.11-.31-.39-1.14-.61-1.59,.63-.12,1.33-.53,2.48-1.27,.7-.43,2.23-1.5,3.91-2.89-4.25,.27-4.92,.36-5.35,.51-.09-.32-.36-1.13-.58-1.57,.43-.08,.81-.39,1.31-.8s1.94-1.74,3.04-3.21h-5.82v-1.55h7.22c-.34-.62-.79-1.35-1.19-1.93l1.55-.51c.58,.77,1.22,1.76,1.55,2.43l-.05,.02h6.66v1.55h-8.66l.76,.38c-1.06,1.28-2.3,2.51-3.55,3.54l4.75-.24c.81-.73,1.62-1.52,2.34-2.31l1.57,1.01c-2.57,2.58-5.44,4.79-8.23,6.51l7.69-.46c-.52-.72-1.1-1.42-1.62-2.03l1.44-.72c1.42,1.54,2.97,3.61,3.73,4.96l-1.53,.89Z"/>
      <path class="m" d="M709.12,316.94c-.25-.51-.86-1.47-1.4-2.26v7.47h-1.62v-6.92c-.67,1.55-1.48,3.01-2.3,3.98-.16-.43-.56-1.08-.81-1.47,1.06-1.16,2.21-3.2,2.88-5.01h-2.65v-1.49h2.88v-2.29c-.78,.14-1.55,.24-2.27,.34-.05-.34-.29-.91-.47-1.23,2.02-.31,4.32-.8,5.73-1.38l.96,1.3c-.69,.26-1.48,.46-2.32,.65v2.62h2.52v1.49h-2.52v.24c.54,.53,2.07,2.27,2.41,2.72l-1.01,1.25Zm8.45,.84v4.38h-1.66v-4.1l-5.67,.9-.25-1.52,5.92-.94v-10.01h1.66v9.76l1.96-.31,.25,1.49-2.21,.36Zm-3.93-2.31c-.59-.73-1.91-1.83-3.01-2.55l1.06-.92c1.08,.68,2.45,1.71,3.08,2.43l-1.13,1.04Zm.45-4.49c-.54-.72-1.77-1.76-2.79-2.48l1.1-.91c1.03,.67,2.27,1.66,2.86,2.38l-1.17,1.01Z"/>
    </g>
    <line class="j" x1="232.88" y1="337.38" x2="480.38" y2="337.38"/>
    <g>
      <path class="m" d="M327.63,319.2h2.9v-8.75h-2.38v-1.25c1.24-.22,2.12-.51,2.88-.96h1.57v10.96h2.59v1.62h-7.56v-1.62Z"/>
      <path class="m" d="M344.89,309.9h-6.23v-1.66h8.53v1.2c-3.11,3.69-3.6,6.46-3.82,11.38h-2.12c.23-4.6,1.08-7.54,3.64-10.92Z"/>
      <path class="m" d="M356.27,312.96c0-.8,.61-1.4,1.39-1.4s1.38,.6,1.38,1.4-.61,1.37-1.38,1.37-1.39-.58-1.39-1.37Zm0,6.72c0-.8,.61-1.4,1.39-1.4s1.38,.6,1.38,1.4-.61,1.37-1.38,1.37-1.39-.56-1.39-1.37Z"/>
      <path class="m" d="M367.77,319.32l1.01-1.26c.78,.75,1.77,1.38,3.13,1.38,1.5,0,2.52-.79,2.52-2.08,0-1.4-.94-2.31-3.93-2.31v-1.45c2.61,0,3.48-.94,3.48-2.21,0-1.11-.78-1.81-2.04-1.83-1.03,.02-1.89,.49-2.65,1.2l-1.08-1.23c1.04-.89,2.27-1.52,3.8-1.52,2.38,0,4.05,1.16,4.05,3.25,0,1.45-.88,2.46-2.29,2.96v.08c1.53,.36,2.74,1.45,2.74,3.14,0,2.27-2,3.61-4.43,3.61-2.09,0-3.44-.79-4.32-1.73Z"/>
      <path class="m" d="M379.81,314.48c0-4.36,1.68-6.48,4.29-6.48s4.29,2.14,4.29,6.48-1.69,6.56-4.29,6.56-4.29-2.19-4.29-6.56Zm6.59,0c0-3.61-.95-4.92-2.3-4.92s-2.3,1.31-2.3,4.92,.96,5.01,2.3,5.01,2.3-1.37,2.3-5.01Z"/>
    </g>
    <rect class="i" x="34.55" y="187.07" width="37.14" height="218.51"/>
    <g>
      <path class="f" d="M61.77,212.08c-1.13,.45-2.28,.91-3.34,1.25,1.23,.45,2.68,.72,4.34,.87-.45,.45-1.02,1.38-1.3,2-4.42-.6-7.17-2.19-8.8-5.11h-1.91v2.55l3.21-.62c-.04,.6-.04,1.47,0,1.96-4.55,1-5.3,1.15-5.72,1.4-.08-.55-.42-1.55-.7-1.98,.38-.17,.87-.57,.87-1.51v-1.81h-1.36c-.3,1.85-.92,3.72-2.04,5.19-.47-.38-1.53-1.04-2.13-1.3,1.85-2.28,2.06-5.47,2.06-7.68v-2.74h16.83v1.79h-14.42v.66h13.59v1.57h-13.61c-.02,.23-.04,.47-.04,.72h15.04v1.79h-1.7l1.15,.98Zm-.85-8.17h-15.82v-6.23h4.3v-1.3h2.47v1.3h2.04v-1.3h2.49v1.3h4.53v6.23Zm-13.51-3.85h1.98v-.85h-1.98v.85Zm0,2.3h1.98v-.85h-1.98v.85Zm4.45-3.15v.85h2.04v-.85h-2.04Zm0,2.3v.85h2.04v-.85h-2.04Zm3.21,9.59c.36,.47,.85,.89,1.4,1.23,.83-.3,1.79-.79,2.62-1.23h-4.02Zm3.43-11.89h-2.11v.85h2.11v-.85Zm0,2.3h-2.11v.85h2.11v-.85Z"/>
      <path class="f" d="M62.45,224.1h-2.3l1.02,1.34c-.66,.21-1.45,.4-2.3,.55v1.13h3.04v1.6h-3.02c.94,.53,3,1.89,3.53,2.28l-1.09,1.64c-.53-.51-1.55-1.34-2.47-2.04v2.15h-2.11v-2.4c-.64,.96-1.38,1.79-2.15,2.36-.32-.49-.94-1.17-1.38-1.53,.96-.53,1.96-1.45,2.66-2.45h-1.68v-1.6h2.55v-.85c-.66,.06-1.3,.11-1.89,.13-.06-.4-.28-.98-.49-1.38,1.89-.15,4.15-.45,5.55-.91h-13.55v4.28c0,.81,0,1.68-.04,2.62,.89-.53,1.79-1.4,2.45-2.32h-1.81v-1.57h2.45v-.77c-.64,.06-1.28,.11-1.83,.15-.06-.38-.28-.96-.49-1.36,1.83-.17,4.02-.49,5.25-.98l1.13,1.36c-.57,.21-1.25,.38-2,.51v1.09h2.06v1.57h-2.06v.04c.55,.32,1.87,1.15,2.23,1.43l-1.21,1.53c-.21-.26-.62-.62-1.02-1v2.06h-2.06v-2.11c-.55,.79-1.19,1.47-1.81,1.96-.3-.45-.85-1.02-1.28-1.4-.11,3.21-.47,7.04-1.47,9.74-.49-.36-1.57-.94-2.17-1.15,1.23-3.28,1.32-8.06,1.32-11.38v-6.57h18.42v2.28Zm-14.44,9.1h12.66v7.7h-2.62v-.66h-7.55v.68h-2.49v-7.72Zm2.49,1.74v1h7.55v-1h-7.55Zm7.55,3.53v-.98h-7.55v.98h7.55Z"/>
      <path class="f" d="M62.47,264.24h-8.32v9.59h-2.77v-9.59h-8.19v-2.64h8.19v-7.61h2.77v7.61h8.32v2.64Z"/>
      <path class="f" d="M62.2,293.83v2.91h-18.89v-2.91h18.89Zm-1.77-12.27v2.79h-15.36v-2.79h15.36Z"/>
      <path class="f" d="M59.96,319.95c0,1.53-.36,2.26-1.34,2.68-1.02,.45-2.51,.49-4.7,.49-.15-.74-.66-1.96-1.06-2.66,1.49,.09,3.28,.06,3.74,.06,.51,0,.68-.17,.68-.62v-3.08h-9.1c-.55,2.38-1.62,4.7-3.6,6.36-.38-.53-1.4-1.47-1.96-1.83,3.21-2.74,3.51-6.81,3.51-10.04v-7h13.83v15.63Zm-2.68-5.57v-2.6h-8.53c-.02,.81-.06,1.7-.15,2.6h8.68Zm-8.53-7.59v2.59h8.53v-2.59h-8.53Z"/>
      <path class="f" d="M62.47,338.26h-8.32v9.59h-2.77v-9.59h-8.19v-2.64h8.19v-7.61h2.77v7.61h8.32v2.64Z"/>
      <path class="f" d="M62.2,367.85v2.91h-18.89v-2.91h18.89Zm-1.77-12.27v2.79h-15.36v-2.79h15.36Z"/>
      <path class="f" d="M60.2,378.61v18.29h-2.72v-1.34h-9.44v1.38h-2.62v-18.34h14.78Zm-12.17,2.55v4.57h9.44v-4.57h-9.44Zm9.44,11.85v-4.76h-9.44v4.76h9.44Z"/>
    </g>
    <g class="l">
      <g>
        <path class="f" d="M26.17,24.87c0,2.9-.28,5.3-.84,7.2-.56,1.89-1.32,3.38-2.29,4.45-.97,1.07-2.07,1.83-3.31,2.27-1.24,.44-2.53,.66-3.89,.66s-2.65-.25-3.89-.74-2.34-1.31-3.31-2.44c-.97-1.13-1.73-2.62-2.29-4.49-.56-1.86-.84-4.17-.84-6.92V1.64H26.17V24.87ZM11.97,9.7v14.84c0,1.21,.08,2.23,.24,3.07,.16,.84,.4,1.51,.73,2.02s.73,.87,1.21,1.1c.48,.23,1.05,.34,1.69,.34s1.21-.11,1.69-.34c.48-.23,.89-.59,1.21-1.1s.56-1.18,.73-2.02c.16-.84,.24-1.86,.24-3.07V9.7h-7.75Z"/>
        <path class="f" d="M5.52,39.78l20.65,13.84v8.97l-20.65,13.97v-8.87l18.49-11.97v4.81L5.52,48.65v-8.88Zm3.13,7.23h4.84v22.07h-4.84v-22.07Z"/>
        <path class="f" d="M26.17,105.77l-15.39-13.07H5.52v-8.07h5.26l15.39-13.07v9.52l-13.39,10.62v-5.97l13.39,10.52v9.52Z"/>
        <path class="f" d="M11.04,134.71l.16-.06c0,2.06-.04,3.96-.13,5.7-.09,1.73-.28,3.23-.58,4.5-.3,1.27-.77,2.25-1.42,2.95-.64,.7-1.54,1.05-2.68,1.05-1.42,0-2.6-.65-3.55-1.95-.95-1.3-1.66-3.16-2.13-5.57-.47-2.41-.71-5.27-.71-8.58s.31-6.2,.92-8.54,1.51-4.11,2.69-5.32c1.18-1.22,2.65-1.82,4.39-1.82v8.1c-.47,.04-.84,.4-1.11,1.08s-.46,1.59-.58,2.73c-.12,1.14-.18,2.4-.18,3.78,0,2.56,.1,4.46,.31,5.7,.2,1.24,.73,1.86,1.56,1.86s1.32-.75,1.52-2.26,.29-3.71,.29-6.62v-4.81h2.26v4.81c0,2.13,.06,3.81,.18,5.04,.12,1.23,.32,2.09,.61,2.6,.29,.51,.67,.76,1.14,.76,.69,0,1.17-.55,1.44-1.66,.27-1.11,.4-2.86,.4-5.24s-.19-4.12-.56-5.5c-.38-1.39-.92-2.12-1.63-2.21v-8.04c1.44,0,2.69,.41,3.74,1.23,1.05,.82,1.92,1.95,2.6,3.4,.68,1.45,1.18,3.13,1.5,5.03,.32,1.9,.48,3.93,.48,6.08,0,3.27-.21,6.04-.63,8.31s-1.05,4-1.89,5.2c-.84,1.19-1.9,1.79-3.19,1.79-1.05,0-1.92-.33-2.58-1s-1.19-1.6-1.56-2.81c-.38-1.21-.64-2.63-.79-4.28-.15-1.64-.25-3.45-.29-5.4Z"/>
      </g>
    </g>
    <g>
      <path class="f" d="M71.13,6.97h-6.55c.98,.79,2.01,1.71,2.61,2.39l-2.73,2.38h3.11v9.58h-12.01v2.23h13.86s-.04,1.1-.11,1.63c-.38,5.04-.83,7.5-1.82,8.48-.79,.91-1.7,1.21-2.88,1.32-1.06,.11-2.84,.15-4.81,.08-.08-1.33-.53-2.99-1.25-4.09,1.59,.15,3.18,.19,3.86,.15,.57,0,.95-.04,1.29-.34,.38-.38,.68-1.4,.91-3.48h-9.05v9.35h-4.43v-7.38c-3.18,3.11-7.38,5.68-11.51,7.23-.64-1.1-1.89-2.73-2.84-3.56,3.94-1.17,8.03-3.26,10.98-5.64h-8.14c.57-2.58,1.13-6.51,1.4-9.7h10.11v-2.16h-11.51v-3.71h7.72c-.83-1.06-2.31-2.46-3.48-3.48l1.44-1.25h-2.23c-1.21,1.89-2.57,3.6-3.86,4.88-.64-.76-2.16-2.35-3.03-3.03,2.23-1.97,4.32-4.96,5.49-7.95l3.98,1.13c-.19,.49-.42,1.02-.68,1.52h8.33v3.45h-5.42c1.02,.87,2.01,1.82,2.57,2.5l-2.42,2.23h15.98c-.83-1.02-2.46-2.38-3.67-3.37l1.63-1.4h-3.11c-.91,1.44-1.93,2.69-2.95,3.67-.76-.76-2.39-2.04-3.37-2.61,2.08-1.78,3.79-4.43,4.73-7.12l4.09,1.02c-.19,.53-.42,1.1-.64,1.63h10.42v3.41Zm-20,14.35h-6.17c-.11,.76-.19,1.52-.3,2.23h6.47v-2.23Zm11.97-5.87h-7.54v2.16h7.54v-2.16Z"/>
      <path class="f" d="M70.15,75.95v4.62H37.28v-4.62h32.87Zm-2.04-24.84v4.54h-28.71v-4.54h28.71Zm-2.99,12.08v4.58h-23.1v-4.58h23.1Z"/>
      <path class="f" d="M56.97,112.2c2.65,6.02,7.5,10.45,14.88,12.38-1.1,.95-2.46,2.92-3.11,4.2-7.12-2.27-11.7-6.66-14.88-12.88-2.08,5.04-6.36,9.81-14.88,12.99-.61-1.13-1.97-3.03-2.95-3.9,8.75-3.11,12.46-7.99,14.01-12.8h-12.69v-4.62h13.63c.08-1.02,.11-1.97,.11-2.92v-3.82h-12.38v-4.62h30v4.62h-12.88v3.9c0,.91-.04,1.86-.08,2.84h14.43v4.62h-13.22Z"/>
    </g>
  </g>
</svg>