<?xml version="1.0" encoding="UTF-8"?>
<svg id="b" data-name="圖層 2" xmlns="http://www.w3.org/2000/svg" width="53.14" height="85.38" viewBox="0 0 53.14 85.38">
  <defs>
    <style>
      .d {
        fill: #fff;
      }
    </style>
  </defs>
  <g id="c" data-name="圖層 1">
    <g>
      <g>
        <path class="d" d="M35.97,15.71v.05c-.01,.06-.02,.13-.03,.2,0,.04,0,.07-.01,.11,0,.04-.01,.09-.02,.13-.02,.1-.03,.2-.05,.29v.04c-.02,.07-.04,.13-.06,.2v.03c-.06,.2-.13,.4-.21,.6,0,.02-.02,.04-.02,.06-.02,.05-.05,.11-.07,.16-.03,.06-.06,.12-.09,.17,0,.02-.02,.03-.03,.05-.25-.54-.87-2.08-1.19-2.89,.7-.04,1.3-.1,1.8-.26,.01,.28,.01,.65-.02,1.07Z"/>
        <path class="d" d="M22.6,14.91c-.32,.8-.94,2.35-1.19,2.89-.01-.02-.03-.05-.04-.07-.03-.05-.06-.1-.08-.16-.02-.04-.04-.08-.06-.12-.02-.04-.04-.09-.06-.14-.02-.04-.03-.08-.05-.12-.03-.07-.05-.15-.08-.23-.01-.05-.03-.09-.04-.14-.01-.04-.02-.08-.03-.12-.01-.05-.02-.1-.03-.15,0-.04-.02-.07-.02-.11-.02-.1-.04-.2-.05-.29,0-.02,0-.04-.01-.07,0-.06-.02-.12-.02-.18v-.05c-.06-.48-.06-.91-.04-1.22,.51,.16,1.11,.23,1.8,.26Z"/>
        <path class="d" d="M41.57,5.3c.04,.19,.08,.39,.12,.59,0,.02,0,.05,.01,.07,.09,.59,.22,1.25,.35,1.95,.05,.29,.11,.58,.17,.89h.01s.02-.04,.04-.05c.07-.08,.14-.15,.2-.23,.02-.03,.05-.06,.07-.09,.05-.07,.1-.14,.15-.21,.02-.03,.05-.07,.07-.1,.05-.07,.09-.14,.14-.21,.02-.03,.04-.07,.06-.1,.04-.07,.09-.15,.13-.22,.02-.03,.03-.06,.05-.1,.04-.08,.08-.17,.12-.25,.01-.03,.02-.05,.03-.08,.05-.11,.09-.21,.13-.32h0c.08-.24,.15-.48,.2-.71v-.03c.03-.1,.04-.2,.06-.3,0-.02,0-.04,0-.06,.01-.09,.02-.18,.02-.26,0-.02,0-.05,0-.07,0-.08,0-.17,0-.25,0-.02,0-.05,0-.07,0-.08-.01-.16-.02-.24,0-.02,0-.04,0-.06-.01-.09-.03-.17-.05-.25v-.03c-.03-.09-.06-.18-.1-.27,0-.02-.02-.04-.03-.06-.05-.06-.1-.12-.14-.2h0c-.25-.29-.64-.47-1.08-.58h-.04s-.1-.03-.15-.04c-.02,0-.04,0-.06-.01-.08-.01-.15-.02-.23-.03-.03,0-.07,0-.1-.01-.04,0-.08,0-.12-.01-.06,0-.12,0-.18-.01-.04,0-.07,0-.11,0-.05,0-.1,0-.14,0-.03,0-.06,0-.09,0-.06,0-.12,0-.18,0,.3,.59,.53,1.24,.69,1.93,0,.03,.01,.07,.02,.1Z"/>
        <path class="d" d="M12.82,5.58s0,.07,0,.1c0,.08,.02,.15,.03,.23,0,.03,.01,.06,.02,.1,.02,.08,.03,.16,.05,.24,0,.03,.02,.06,.02,.09,.02,.08,.05,.17,.07,.25,0,.03,.02,.05,.03,.08,.03,.09,.06,.17,.09,.26,0,.02,.02,.04,.03,.07,.04,.09,.07,.18,.12,.27l.02,.05c.05,.1,.09,.19,.14,.28v.02c.29,.52,.65,1.01,1.08,1.41h0c.07-.38,.14-.75,.21-1.11,.13-.7,.26-1.36,.35-1.95,.15-.98,.44-1.87,.83-2.67h-.03c-.05,0-.1-.01-.16-.01-.03,0-.06,0-.09,0-.04,0-.08,0-.12,0-.03,0-.07,0-.11,0-.04,0-.08,0-.12,0-.07,0-.14,0-.22,0h-.07c-.05,0-.11,.01-.16,.02h-.03c-.65,.07-1.29,.27-1.64,.67h0c-.03,.08-.08,.14-.13,.19h0s-.02,.04-.03,.06c-.06,.14-.11,.3-.14,.46,0,.02-.01,.05-.02,.07-.01,.07-.02,.14-.02,.21,0,.03,0,.06,0,.09,0,.07,0,.14,0,.21,0,.03,0,.06,0,.1,0,.07,0,.15,.01,.22Z"/>
        <path class="d" d="M40.66,8.17c-.13-.71-.26-1.38-.36-1.99-.04-.23-.08-.45-.13-.66-.01-.04-.02-.09-.03-.13-.04-.17-.09-.34-.15-.51-.01-.05-.03-.09-.04-.13-.07-.2-.15-.4-.23-.59v-.02c-.09-.17-.18-.34-.27-.51-.03-.05-.06-.11-.09-.16-.07-.12-.15-.24-.23-.36-.03-.05-.07-.1-.1-.15-.11-.15-.22-.29-.34-.43-.01,.01-.02,.03-.03,.04v.02c-.85,.93-1.68,1.14-2.24,1.16h0c-.39,.01-.77-.06-1.11-.22-.2-.09-.38-.21-.53-.36-.12-.11-.27-.21-.42-.24-.16-.03-.32,0-.47,.14-.52,.5-1.09,.72-1.66,.67-.34-.03-.68-.16-1.01-.39-.2-.14-.39-.22-.53-.22-.05,0-.09,0-.13,.02-.09,.04-.13,.12-.13,.14-.03,.18,.1,.4,.32,.57,.45,.34,.79,1.02-.14,2.34-.06,.09-.12,.18-.17,.27,0,0-.01,.02-.02,.02-.04,.08-.08,.16-.12,.23-.01,.02-.02,.05-.03,.07-.04,.08-.06,.16-.09,.24,0,.02-.01,.04-.02,.06-.03,.09-.05,.17-.07,.25v.03c-.02,.09-.04,.17-.04,.26h0c-.02,.27,.02,.5,.13,.67h0c.37,.09,.71,.28,1.02,.55l.03,.03s.09,.08,.13,.13c.02,.02,.04,.04,.05,.06,.03,.03,.06,.07,.09,.11,.02,.03,.05,.06,.07,.09,.02,.03,.04,.06,.06,.09,.02,.03,.05,.07,.07,.1,.38,.63,.35,1.16,.26,1.48-.11,.38-.37,.7-.68,.86-.39,.19-.78,.21-1.19,.05-.13-.05-.27-.13-.41-.22h0s-.18,.06-.27,.11c-.04,.02-.09,.04-.14,.06-.03,.01-.07,.03-.11,.04h-.02c-.09,.04-.18,.07-.28,.09h-.02v1.57h.03s.04,.03,.07,.04c.6,.22,1.68,.55,2.88,.57h.05c.12,0,.23,0,.35,0,.34-.01,.66-.02,.97-.03,1.52-.05,2.62-.08,3.18-.62,.21-.2,.39-.43,.56-.65,.36-.47,.76-.98,1.41-1.16,.19-.05,.39-.07,.63-.06,.04,0,.08,0,.12,0,.08,0,.16,.02,.24,.04,.54,.12,.99,.48,1.21,.98,.32,.69,.19,1.53-.35,2.3-.05,.07-.1,.14-.16,.2,0,0-.02,.02-.02,.02-.05,.05-.1,.1-.16,.15-.02,.01-.03,.03-.05,.04-.05,.04-.1,.08-.16,.12-.02,.01-.04,.03-.06,.04-.05,.03-.11,.07-.17,.1-.02,.01-.04,.02-.06,.03-.06,.03-.12,.06-.18,.09-.02,0-.04,.02-.06,.03-.07,.03-.14,.06-.21,.08h-.04c-.26,.11-.53,.17-.8,.22h-.03c-.08,.02-.16,.03-.23,.04h-.05c-.07,.02-.14,.03-.2,.03h-.06c-.06,.01-.13,.02-.19,.03h-.05c-.06,.01-.12,.01-.18,.02h-.05c-.06,0-.12,0-.18,.01h-.04c-.04,.29-.09,.59-.18,.89,0,.02,0,.04-.01,.06-.02,.09-.05,.17-.08,.26,0,.02-.02,.05-.03,.07-.03,.07-.05,.15-.08,.22-.01,.03-.02,.06-.04,.09-.03,.07-.06,.13-.09,.2-.01,.03-.03,.06-.04,.09-.04,.07-.08,.15-.12,.22-.02,.03-.03,.06-.05,.09-.04,.07-.08,.13-.13,.2l-.02,.02c-.1,.15-.31,.32-.57,.32h-.03c-.29-.01-.53-.21-.72-.59-.16-.33-.53-1.23-.86-2.04h-.04c-.06,.02-.12,.04-.19,.05-.02,0-.04,0-.06,.01-.07,.01-.13,.03-.2,.04-.02,0-.04,0-.05,0-.07,.01-.15,.03-.22,.04h-.03c-.32,.06-.65,.1-.98,.13h-.11s-.09,.02-.14,.02c-.05,0-.1,0-.15,.01h-.12c-.06,.01-.11,.02-.16,.02-.04,0-.07,0-.11,0-.06,0-.12,0-.17,0h-.09c-.06,0-.12,0-.18,.01h-.07c-.06,0-.12,0-.18,0h-.06c-.06,0-.12,0-.18,0h-.05c-.06,0-.11,0-.17,0h-.04c-.06,0-.11,0-.16,0h-2.9s-.11,0-.16,0c-.11,0-.23,0-.36,0-.26,0-.56,0-.87-.03h-.04c-.13-.01-.26-.02-.4-.03-.06,0-.11-.01-.17-.02-.09,0-.18-.02-.28-.03-.08,0-.17-.02-.25-.03-.06,0-.13-.02-.19-.03-.1-.01-.2-.03-.3-.04-.04,0-.09-.01-.13-.02-.11-.02-.23-.04-.34-.06l-.07-.02c-.12-.02-.24-.05-.36-.08h0c-.33,.81-.69,1.71-.86,2.04-.19,.38-.43,.58-.72,.59h-.04s-.06,0-.09,0h-.01s-.06-.01-.08-.02h0s-.05-.02-.08-.03h0c-.13-.06-.23-.16-.29-.26-.06-.08-.12-.17-.17-.26-.01-.02-.02-.04-.03-.06-.04-.07-.08-.14-.11-.2-.02-.05-.05-.1-.07-.15l-.02-.05c-.05-.11-.09-.22-.13-.33h0c-.07-.18-.12-.37-.17-.55h0c-.03-.11-.05-.21-.07-.32,0-.04-.01-.07-.02-.11,0-.04-.01-.08-.02-.12-.01-.08-.02-.16-.04-.24v-.03h-.05c-.05,0-.11,0-.17-.01-.02,0-.05,0-.07,0-.05,0-.1,0-.15-.01h-.09s-.1-.02-.15-.02c-.03,0-.06,0-.1-.01-.05,0-.1-.01-.15-.02-.03,0-.07,0-.1-.02-.05,0-.1-.02-.15-.03-.03,0-.07-.01-.1-.02-.06-.01-.11-.02-.17-.04-.03,0-.06-.01-.09-.02-.08-.02-.17-.04-.25-.07-.03,0-.06-.02-.09-.03-.05-.02-.11-.03-.16-.05-.04-.01-.07-.03-.11-.04-.05-.02-.09-.03-.14-.05-.04-.02-.08-.03-.11-.05-.04-.02-.08-.04-.12-.06-.04-.02-.07-.04-.11-.06-.04-.02-.08-.04-.11-.07-.04-.02-.07-.04-.11-.07-.03-.02-.07-.05-.1-.07-.03-.03-.07-.05-.1-.08-.03-.03-.06-.06-.09-.08-.03-.03-.06-.06-.09-.09-.03-.03-.06-.07-.08-.1-.02-.03-.05-.05-.07-.08-.54-.77-.67-1.6-.35-2.3,.26-.57,.8-.96,1.45-1.02,.29-.03,.53,0,.75,.05,.66,.18,1.05,.69,1.41,1.16,.17,.22,.35,.46,.56,.65,.21,.2,.5,.34,.85,.42,.59,.15,1.38,.17,2.33,.2,.31,0,.63,.02,.97,.03,.12,0,.24,0,.35,0h.04c1.28-.02,2.41-.38,2.98-.6v-1.56c-.23-.05-.42-.13-.58-.2-.09-.04-.24-.1-.28-.1h0c-.33,.23-.67,.34-1,.33-.2,0-.39-.06-.59-.16-.32-.16-.57-.48-.68-.86-.09-.33-.13-.85,.26-1.48,.05-.08,.1-.15,.15-.22h0c.05-.07,.1-.13,.16-.2h0c.34-.38,.76-.63,1.2-.74h0c.03-.06,.06-.11,.08-.18v-.02c.03-.06,.04-.13,.05-.2v-.05c0-.06,0-.13,0-.2,0-.03,0-.05,0-.08,0-.06-.01-.12-.02-.18,0-.04-.02-.09-.03-.13-.01-.05-.02-.1-.04-.15-.02-.06-.04-.13-.07-.19-.01-.03-.02-.07-.04-.1-.04-.09-.09-.19-.14-.28v-.02c-.07-.11-.14-.21-.21-.32-.93-1.32-.59-2-.14-2.34,.22-.17,.35-.39,.32-.57,0-.02-.05-.1-.13-.14,0,0-.01,0-.02,0-.15-.05-.38,.02-.64,.21-.44,.31-.9,.44-1.35,.39-.45-.05-.9-.27-1.32-.67-.11-.1-.23-.15-.34-.15-.2,0-.4,.1-.55,.25-.4,.39-1.01,.6-1.64,.58h0c-.55-.02-1.39-.24-2.23-1.16-.02-.02-.03-.04-.04-.06h0s-.05,.07-.08,.1c-.08,.1-.16,.2-.24,.3-.05,.07-.11,.15-.16,.23-.06,.08-.11,.17-.16,.26-.05,.08-.09,.16-.14,.24-.06,.11-.11,.22-.17,.33-.05,.1-.09,.19-.13,.29-.06,.14-.11,.28-.16,.42-.03,.08-.05,.16-.08,.25-.04,.12-.07,.24-.11,.36-.02,.08-.05,.17-.06,.25-.04,.16-.07,.32-.1,.49,0,.04-.02,.08-.03,.13-.1,.61-.22,1.28-.36,1.99-.69,3.63-1.62,8.59,.53,11.61,.92,1.29,2.13,2.08,3.29,2.51,.01,0,.03,.01,.04,.02,.1,.04,.2,.07,.3,.1,.05,.01,.1,.03,.14,.04,.06,.02,.11,.03,.16,.04,.42,.11,.82,.18,1.19,.2h.06c.08,0,.15,0,.22,.01,.02,0,.04,0,.06,0,.03,0,.05,0,.07,0,.05,0,.1,0,.15,0,.09,0,.18-.01,.27-.02h.02c.9-.11,1.62-.32,2.33-.52,.2-.06,.4-.12,.61-.17h.02c.08-.03,.16-.05,.24-.07l.11-.03c.07-.02,.15-.03,.22-.05l.14-.03c.07-.02,.14-.03,.22-.04,.05,0,.1-.02,.16-.03,.07-.01,.14-.02,.21-.03,.06,0,.12-.02,.18-.02,.07,0,.14-.02,.21-.03,.07,0,.14-.01,.22-.02,.06,0,.12-.01,.19-.01v-2.72c0-.39,.32-.71,.71-.71h0c.39,0,.7,.32,.7,.71v2.72h0c.05,0,.1,0,.15,.01,.09,0,.18,.01,.26,.02,.06,0,.12,.01,.18,.02,.07,0,.15,.02,.22,.03,.06,0,.12,.02,.18,.03,.07,.01,.14,.02,.2,.04,.06,.01,.11,.02,.17,.03,.07,.01,.13,.03,.2,.04,.05,.01,.1,.02,.15,.04,.07,.02,.14,.03,.21,.05,.04,.01,.09,.02,.13,.03,.08,.02,.17,.05,.25,.07l.08,.02c.11,.03,.22,.06,.33,.1,.44,.13,.89,.26,1.38,.36l.1,.02c.07,.01,.13,.03,.2,.04,.07,.01,.13,.02,.2,.03,.04,0,.07,.01,.11,.02,.06,0,.13,.02,.19,.03,.05,0,.09,.01,.14,.02h0c.1,.01,.19,.02,.3,.02,.05,0,.09,0,.14,0,.03,0,.05,0,.08,0,.02,0,.05,0,.07,0,.07,0,.14,0,.22,0,.02,0,.04,0,.05,0,.38-.03,.8-.09,1.23-.21,.04-.01,.07-.02,.11-.03,.06-.02,.13-.04,.19-.06,.08-.03,.16-.05,.24-.08,.03-.01,.06-.02,.1-.04,1-.38,2.03-1.02,2.88-2.02,.13-.15,.26-.31,.38-.48,2.16-3.02,1.22-7.99,.53-11.61Zm-5.2,3.06c-1.89,0-3.43-1.54-3.43-3.43s1.54-3.43,3.43-3.43,3.43,1.54,3.43,3.43-1.54,3.43-3.43,3.43Zm-14.15-6.85c1.89,0,3.43,1.54,3.43,3.43s-1.54,3.43-3.43,3.43-3.43-1.54-3.43-3.43,1.54-3.43,3.43-3.43Z"/>
        <path class="d" d="M18.79,2c.5,.55,1.05,.85,1.6,.87,.46,.02,.82-.16,1-.34,.65-.62,1.51-.66,2.11-.1,.7,.66,1.22,.43,1.55,.19,.69-.48,1.2-.42,1.52-.29,.42,.18,.61,.56,.65,.82,.05,.32-.04,.65-.23,.95-.11,.17-.25,.32-.43,.45-.04,.03-.06,.06-.07,.1-.09,.25,.2,.74,.4,1.03,.54,.77,.88,1.78,.66,2.61,.1,.02,.2,.05,.29,.09,.23,.09,.33,.35,.24,.57-.01,.03-.03,.07-.05,.09-.12,.16-.33,.23-.52,.15-.59-.24-1.28,.05-1.67,.7,0,.01-.01,.03-.02,.04-.15,.27-.2,.53-.14,.74,.05,.19,.17,.29,.23,.32,.22,.11,.43,.08,.7-.11,.42-.29,.83-.11,1.13,.03,.21,.09,.41,.18,.66,.18,.25,0,.45-.08,.66-.18,.3-.13,.71-.32,1.13-.03,.28,.19,.48,.22,.7,.11,.03-.02,.09-.07,.14-.14,.03-.05,.06-.1,.09-.18,.07-.23,0-.5-.16-.78-.39-.65-1.08-.94-1.67-.7-.23,.09-.48-.02-.57-.24-.05-.12-.04-.25,.01-.35,.05-.1,.12-.18,.23-.22,.08-.03,.16-.06,.24-.08,.02,0,.03,0,.05-.01-.19-.72,.04-1.57,.45-2.28,.07-.11,.13-.22,.21-.33,.05-.07,.1-.15,.16-.24,.2-.33,.38-.73,.17-.89-.49-.37-.74-.89-.66-1.4,.01-.1,.05-.21,.11-.32,.1-.19,.28-.39,.54-.5,.31-.13,.83-.19,1.52,.29,.33,.23,.86,.47,1.55-.19,.59-.56,1.46-.52,2.11,.1,.18,.17,.53,.35,1,.34,.55-.02,1.11-.32,1.6-.87,0,0,.02-.02,.03-.02,.02-.02,.04-.04,.07-.05-1.41-1.25-3.4-1.92-5.87-1.92h-7.65c-2.47,0-4.46,.68-5.87,1.92,0,0,.02,0,.02,.01,.02,.02,.05,.04,.07,.06Z"/>
        <path class="d" d="M21.32,10.11c1.28,0,2.31-1.03,2.31-2.31s-1.03-2.31-2.31-2.31-2.31,1.03-2.31,2.31,1.03,2.31,2.31,2.31Z"/>
        <path class="d" d="M35.47,5.49c-1.28,0-2.31,1.03-2.31,2.31s1.03,2.31,2.31,2.31,2.31-1.03,2.31-2.31-1.03-2.31-2.31-2.31Z"/>
      </g>
      <path class="d" d="M42.08,17.85s-.98,9.47-13.41,5.04c0,0-1.74,3.22-1.28,6.44,.46,3.21-3.67,18.83-3.21,24.34,0,0-3.21-2.3-6.89,1.84s2.76,16.53,8.72,19.74c5.97,3.21,16.99,.46,18.37,0,1.38-.46,11.02-13.32,8.27-17.91-2.76-4.59-7.35-2.3-7.35-2.3,0,0,1.38-21.12,0-24.8-1.38-3.67-1.84-7.81-3.21-12.4Z"/>
      <path class="d" d="M44.84,22.44s.92,5.05,1.84,7.81,.46,15.15,0,18.83c0,0,3.67,.92,3.67-4.59s2.3-12.86-5.51-22.04Z"/>
      <path class="d" d="M27.68,22.89c-.25,.12-5.58,2.48-7.55,1,0,0,2.01,3.02,3.53,3.53,.16,.06,.28,.16,.37,.31-12.01,12.9-2.89,24.37-2.89,24.37h2.01s0-4.53,1.51-12.59c.28-1.49,2.01-9.07,1.51-12.09-.48-2.89,1.33-4.4,1.5-4.53Zm-4.27,3.52c-.42,0-.76-.34-.76-.76s.34-.76,.76-.76,.76,.34,.76,.76-.34,.76-.76,.76Zm1.51,1.51c-.42,0-.76-.34-.76-.76s.34-.76,.76-.76,.76,.34,.76,.76-.34,.76-.76,.76Z"/>
      <path class="d" d="M30.71,77.28c-.78,3.5-3.65,3.99-6.78,3.11l-4.01-2.96h0c-3.57-2.86-8.28-4.88-11.08-6.08-1.05-.45-1.87-.81-2.38-1.09-2.54-1.39-2.87-3.58-2.06-5.13,.44-.87,1.24-1.58,2.22-1.93,.97-.35,2.13-.35,3.27,.21,.97,.47,1.9,.54,2.64,.21,.05-.02,.1-.04,.14-.06,.63-.34,1.05-.97,1.16-1.73,.07-.51-.93-1.91-3.07-2.76-1.18-.47-5.02-1.56-8.39,1.98-.35,.38-.7,.79-1.03,1.26-.02,.02-1.83,2.72-1.2,5.81,.41,2.04,1.79,3.83,4.11,5.33,1.82,1.17,3.79,1.91,5.7,2.63,.97,.36,1.92,.73,2.84,1.13,.08,.04,.15,.07,.22,.11,.04,.01,.08,.03,.12,.05,.64,.3,1.26,.62,1.84,1,0,0,.02,.02,.05,.03,.29,.17,1.66,1.02,3.13,2.49l.09,.09c.23,.22,.89,.82,2.04,1.61,.24,.17,.5,.34,.79,.52,.83,.53,1.83,1.11,3.04,1.71,0,0,0,0,0,0,.03,0,.05,.02,.07,.02,10.07,3.02,11.59-7.56,11.59-7.56-1.51,.5-5.04,0-5.04,0Z"/>
    </g>
  </g>
</svg>