<?xml version="1.0" encoding="UTF-8"?>
<svg id="b" data-name="圖層 2" xmlns="http://www.w3.org/2000/svg" width="618.42" height="102.92" viewBox="0 0 618.42 102.92">
  <defs>
    <style>
      .d {
        fill: #fff;
      }

      .e {
        opacity: .2;
      }
    </style>
  </defs>
  <g id="c" data-name="圖層 1">
    <g class="e">
      <g>
        <path class="d" d="M89.64,0c11.21,0,20.46,1.08,27.77,3.24,7.3,2.16,13.03,5.11,17.18,8.84,4.15,3.73,7.08,7.99,8.78,12.76,1.7,4.77,2.55,9.77,2.55,15s-.96,10.23-2.86,15c-1.91,4.77-5.04,9.03-9.4,12.76-4.36,3.74-10.13,6.68-17.31,8.84-7.18,2.16-16.08,3.24-26.71,3.24H0V0H89.64ZM31.13,54.78h57.27c4.65,0,8.59-.31,11.83-.93,3.24-.62,5.83-1.56,7.78-2.8,1.95-1.25,3.36-2.8,4.23-4.67,.87-1.87,1.31-4.05,1.31-6.54s-.44-4.67-1.31-6.54c-.87-1.87-2.28-3.42-4.23-4.67-1.95-1.25-4.54-2.18-7.78-2.8-3.24-.62-7.18-.93-11.83-.93H31.13v29.88Z"/>
        <path class="d" d="M193.23,46.07v9.96h94.62v23.66h-125.75V0h125.5V23.66h-94.38v9.96h77.19v12.45h-77.19Z"/>
        <path class="d" d="M305.91,0h31.13V79.68h-31.13V0Z"/>
        <path class="d" d="M351.36,0h129.49V23.66h-129.49V0Zm49.18,22.04h31.13v57.65h-31.13V22.04Z"/>
        <path class="d" d="M618.42,0l-50.43,59.39v20.29h-31.13v-20.29L486.44,0h36.73l40.96,51.67h-23.03L581.69,0h36.73Z"/>
      </g>
    </g>
    <g>
      <path class="d" d="M221.58,76.82c2.79,3.15,7.02,5.85,11.5,7.25-1.2,1.1-2.94,3.25-3.73,4.7-2.09-.85-4.13-1.9-5.97-3.25,2.34,3.35,4.48,7.1,5.58,9.9l-5.13,2.3c-1.1-3.4-4.08-8.65-6.82-12.45l4.03-1.65c-2.24-1.95-4.18-4.3-5.73-6.8h-11.15c-1.89,3.1-4.43,5.9-7.32,8.15l4.43,1.85c-1.59,3.7-3.78,7.95-6.57,10.7l-4.93-2.9c2.49-2.25,4.68-5.65,6.08-8.85-1.84,1.35-3.83,2.5-5.78,3.5-.9-1.2-2.99-3.5-4.18-4.55,4.48-1.75,8.56-4.45,11.3-7.9h-9.71v-5.45h11.25v-4.8h-8.22v-5.45h8.22v-5.3h5.88v5.3h9.76v-5.3h5.97v5.3h8.36v5.45h-8.36v4.8h11.6v5.45h-10.36Zm-17.92,3.7h5.63v15.9c0,2.75-.45,4.25-2.34,5.15-1.74,.9-4.28,.95-7.57,.95-.25-1.65-.95-3.95-1.69-5.55,2.14,.1,4.38,.1,5.13,.1,.65,0,.85-.15,.85-.75v-15.8Zm.95-9.15h9.76v-4.8h-9.76v4.8Zm10.7,14.3c1.34,3.35,2.44,7.7,2.84,10.65l-5.08,1.15c-.25-2.9-1.34-7.4-2.54-10.8l4.78-1Z"/>
      <path class="d" d="M266.04,68.67h-17.63v-4.7h7.57c-.45-1.9-1.49-4.5-2.34-6.55l4.98-1.45c1,2.1,2.14,4.9,2.69,6.65l-3.93,1.35h8.66v4.7Zm-1.39,13.45h-14.94v-4.5h14.94v4.5Zm.05,17.65h-9.96v2h-5.03v-17.1h14.99v15.1Zm-14.94-28.95h14.94v4.5h-14.94v-4.5Zm4.98,18.55v5.75h4.83v-5.75h-4.83Zm37.44,7.75c0,2.5-.45,3.8-2.19,4.55-1.64,.75-3.98,.85-7.12,.8-.2-1.4-.9-3.4-1.54-4.7,1.84,.05,3.93,.05,4.53,.05,.65,0,.85-.2,.85-.75v-2.1h-13.49c-.6,2.9-1.74,5.75-3.63,7.95-.85-1.05-3.04-3.1-4.18-3.75,2.94-3.5,3.24-8.2,3.24-12.1v-8.9h23.55v18.95Zm2.39-25.25v4.25h-28.28v-4.25h11.05v-2.2h-9.06v-3.95h9.06v-2h-10.31v-4.25h10.31v-3.65h5.73v3.65h10.85v4.25h-10.85v2h9.86v3.95h-9.86v2.2h11.5Zm-7.87,19.25v-2.4h-12.75c-.05,.8-.1,1.6-.15,2.4h12.9Zm-12.75-8.6v2.35h12.75v-2.35h-12.75Z"/>
      <path class="d" d="M327.97,66.17c-1.34,3.75-3.19,7.3-5.38,10.55,1.94,1.75,5.28,5.2,6.17,6.2l-3.34,4.95c-.85-1.3-2.19-3.1-3.54-4.9v19.5h-5.43v-18.3c-1.74,1.65-3.44,3.15-5.23,4.35-.3-1.7-1.39-4.95-2.09-6.1,4.63-2.7,9.11-7.6,11.95-12.9h-10.66v-5.35h8.22c-.95-1.8-2.44-4.15-3.68-5.9l4.63-2.5c1.54,1.95,3.34,4.55,4.18,6.25l-3.49,2.15h3.83l.95-.25,2.89,2.25Zm26.74-3.2v27.25h-5.58v-1.8h-4.53v14.05h-5.78v-14.05h-4.48v2.3h-5.38v-27.75h9.86v-7.2h5.78v7.2h10.11Zm-20.36,5.3v4.8h4.48v-4.8h-4.48Zm4.48,14.9v-4.9h-4.48v4.9h4.48Zm5.78-14.9v4.8h4.53v-4.8h-4.53Zm4.53,14.9v-4.9h-4.53v4.9h4.53Z"/>
      <path class="d" d="M387.96,87.87c-.9-1.25-2.29-3.1-3.68-4.85v19.5h-5.68v-18.45c-1.84,1.75-3.73,3.25-5.63,4.45-.35-1.65-1.49-4.95-2.14-6.05,4.83-2.75,9.56-7.65,12.55-12.95h-11.15v-5.35h8.37c-.9-1.75-2.29-3.8-3.63-5.4l4.43-2.75c1.74,1.85,3.58,4.45,4.43,6.25l-2.79,1.9h3.54l1-.25,3.09,2.3c-1.39,3.7-3.33,7.25-5.68,10.5,2.04,1.75,5.58,5.25,6.52,6.2l-3.54,4.95Zm21.61-7.5c.55,9.3,1.79,15.85,3.29,15.85,.65,0,1-2.5,1.09-7.5,1.25,1.2,3.14,2.45,4.63,3.05-.7,8.2-2.44,10.2-6.32,10.2-5.28,0-7.42-9.25-8.32-21.6h-6.42v14.4l6.42-1.95c.1,1.6,.4,3.9,.7,5.15-9.46,3.25-11.2,4.1-12.3,4.85-.6-1.3-2.34-4-3.29-5.1,1.15-.8,2.79-2.8,2.79-5.1v-31.75c7.47-1.05,15.88-2.75,21.21-4.5l4.03,4.85c-2.39,.65-5.08,1.3-7.82,1.9-.1,4.05-.05,8.05,.05,11.75h8.12v5.5h-7.87Zm-5.93-5.5c-.15-3.4-.2-7.05-.25-10.65-1.94,.35-3.93,.65-5.88,.9v9.75h6.12Z"/>
    </g>
  </g>
</svg>