<?xml version="1.0" encoding="UTF-8"?>
<svg id="b" data-name="圖層 2" xmlns="http://www.w3.org/2000/svg" width="82.98" height="76.04" viewBox="0 0 82.98 76.04">
  <defs>
    <style>
      .d {
        fill: #fff;
      }
    </style>
  </defs>
  <g id="c" data-name="圖層 1">
    <g>
      <path class="d" d="M32.9,.04c1.35-.13,5.52-.2,6.75,3.81,.13,.42,.22,.88,.28,1.39,0,.02,.23,2.89-2.01,5.52-1.48,1.74-3.74,3.02-6.7,3.81-2.32,.62-4.56,.81-6.72,1-1.1,.1-2.19,.19-3.26,.34-.09,.01-.17,.02-.26,.04l-.13,.02c-3.04,.46-5.93,1.42-8.62,4.16h0c-.07,.04-.14,.07-.22,.11-.17,.08-.35,.17-.53,.26-.12,.06-.24,.12-.36,.18-.16,.08-.32,.17-.48,.26-.11,.06-.22,.12-.34,.18-.25,.14-.51,.29-.77,.44-.11,.06-.22,.13-.33,.2-.18,.11-.37,.23-.55,.34-.11,.07-.23,.14-.35,.22-.24,.15-.47,.31-.71,.47-.09,.06-.18,.12-.27,.18-.26,.18-.52,.36-.78,.55-.11,.08-.22,.15-.33,.23-.22,.16-.45,.33-.68,.49-.1,.07-.19,.14-.29,.21-.31,.23-.62,.47-.94,.72l-.07,.06h0s0-.05,0-.07c0-.13,0-.27,.02-.4,0-.02,0-.04,0-.06,.05-.73,.18-1.43,.38-2.1,.01-.04,.03-.09,.04-.13,.03-.09,.06-.18,.09-.27,.02-.06,.04-.12,.07-.18,.03-.08,.06-.15,.09-.23,.03-.07,.06-.14,.09-.21,.03-.07,.06-.14,.1-.21,.04-.08,.07-.15,.11-.23,.03-.06,.06-.12,.1-.18,.04-.08,.09-.16,.14-.24,.03-.05,.06-.11,.1-.16,.05-.09,.11-.18,.17-.26,.03-.05,.06-.09,.09-.14,.07-.1,.13-.19,.2-.29,.03-.04,.05-.07,.08-.1,.08-.11,.17-.22,.26-.33,.02-.02,.03-.04,.05-.06,.22-.26,.45-.52,.7-.77,5.05-5.02,15.79-6.38,20.95-7.03,1.21-.15,2.17-.27,2.8-.4,3.11-.64,5.68-3.55,5.77-5.14,.05-.89-.31-1.72-1.03-2.27-.72-.55-2.88,.18-4.25,.41-1.16,.19-2.06,.03-2.57-.45-.03-.03-.07-.06-.1-.09-.4-.46-.45-1.13-.13-1.84,.21-.48,1.89-1.5,4.34-1.74"/>
      <path class="d" d="M71.83,61.17s-.01,.03-.02,.04c-.03,.06-.05,.13-.08,.19l-.05,.1s-.04,.08-.06,.12c-.05,.09-.09,.18-.15,.28l-.02,.04c-.03,.06-.07,.12-.11,.18l-.02,.03c-.12,.18-.24,.36-.38,.53-.01,.02-.03,.03-.04,.05-.04,.05-.08,.09-.12,.14-.05,.05-.09,.1-.14,.14l-.04,.04c-.08-.61-.21-2.34-.27-3.24,.7,.18,1.32,.31,1.87,.3-.08,.28-.19,.65-.36,1.05"/>
      <path class="d" d="M58.8,56.17c-.57,.7-1.67,2.04-2.09,2.5,0-.03-.01-.06-.02-.09-.01-.06-.02-.12-.03-.18,0-.05-.01-.09-.02-.14,0-.05-.01-.1-.01-.15,0-.04,0-.09,0-.13,0-.08,0-.17,0-.25,0-.05,0-.1,0-.15,0-.04,0-.09,0-.13,0-.05,0-.1,.01-.16,0-.04,0-.08,.01-.11,.01-.1,.03-.21,.04-.31,0-.02,0-.05,.01-.07,.01-.06,.02-.12,.03-.19,0-.02,0-.03,0-.05,.1-.49,.24-.92,.35-1.22,.45,.32,1.03,.57,1.71,.83"/>
      <path class="d" d="M80.68,52.58c-.02,.2-.04,.41-.07,.62,0,.02,0,.05,0,.07-.09,.62-.18,1.31-.26,2.05-.04,.3-.07,.62-.11,.93h.01s.03-.03,.05-.04c.09-.05,.18-.11,.27-.17,.03-.02,.06-.04,.09-.07,.07-.05,.15-.1,.22-.16,.03-.03,.07-.05,.1-.08,.07-.05,.13-.11,.2-.17,.03-.03,.06-.06,.1-.08,.07-.06,.13-.12,.2-.18,.03-.03,.05-.05,.08-.08,.07-.07,.13-.14,.2-.21,.02-.02,.04-.04,.06-.06,.08-.09,.16-.18,.23-.28h0c.16-.21,.3-.42,.42-.64v-.03c.07-.09,.12-.19,.16-.28,.01-.02,.02-.04,.03-.06,.04-.08,.08-.17,.11-.25,0-.02,.02-.05,.03-.07,.03-.08,.06-.16,.08-.24,0-.02,.01-.05,.02-.07,.02-.08,.04-.17,.05-.25,0-.02,0-.04,.01-.06,.01-.09,.02-.18,.03-.27,0,0,0-.02,0-.03,0-.1,0-.2-.01-.3,0-.02-.01-.05-.02-.07-.04-.07-.06-.15-.07-.24h0c-.16-.37-.49-.67-.9-.92l-.04-.02s-.09-.05-.14-.08l-.06-.03c-.07-.04-.15-.07-.22-.11-.03-.02-.07-.03-.1-.04-.04-.02-.08-.03-.11-.05-.06-.02-.11-.05-.17-.07-.04-.01-.07-.02-.1-.04-.05-.02-.1-.03-.14-.05-.03,0-.06-.02-.09-.03-.06-.02-.12-.04-.18-.05,.11,.68,.13,1.4,.08,2.14,0,.03,0,.07,0,.1"/>
      <path class="d" d="M52.01,43.82s-.02,.07-.02,.1c-.01,.08-.03,.16-.04,.24,0,.03-.01,.07-.01,.1,0,.08-.02,.17-.02,.25,0,.03,0,.07,0,.1,0,.09,0,.18,0,.27,0,.03,0,.06,0,.09,0,.09,0,.19,.01,.29,0,.02,0,.05,0,.07,0,.1,.02,.2,.03,.3v.05c.02,.11,.04,.22,.06,.33v.02c.12,.61,.33,1.21,.62,1.73h0c.19-.36,.37-.7,.55-1.04,.35-.65,.68-1.27,.96-1.83,.46-.92,1.02-1.72,1.67-2.39h-.03s-.1-.05-.15-.07c-.03-.01-.06-.02-.09-.03-.04-.01-.08-.03-.12-.04-.03-.01-.07-.02-.1-.03-.04-.01-.08-.02-.12-.04-.07-.02-.14-.04-.22-.06l-.07-.02c-.06-.01-.11-.03-.17-.04h-.04c-.66-.14-1.37-.15-1.84,.14h0c-.06,.07-.12,.11-.19,.15h0s-.04,.03-.05,.05c-.11,.12-.2,.26-.28,.41-.01,.02-.03,.04-.04,.07-.03,.06-.06,.13-.09,.2-.01,.03-.03,.06-.04,.09-.03,.07-.05,.14-.07,.21,0,.03-.02,.06-.03,.1-.02,.07-.04,.15-.05,.22"/>
      <path class="d" d="M78.88,55.15c.09-.75,.17-1.45,.27-2.09,.04-.24,.06-.47,.08-.7,0-.05,0-.09,0-.14,.01-.19,.01-.37,.01-.55,0-.05,0-.1,0-.15,0-.22-.02-.44-.04-.65v-.03c-.03-.2-.06-.39-.1-.59-.01-.06-.03-.12-.04-.19-.03-.14-.07-.29-.11-.43-.02-.06-.04-.12-.06-.18-.06-.18-.12-.36-.2-.53-.01,.01-.03,.02-.05,.03h-.02c-1.12,.67-2.02,.62-2.58,.47h0c-.39-.11-.75-.31-1.03-.57-.17-.16-.31-.33-.42-.52-.08-.15-.2-.29-.35-.37-.15-.08-.32-.1-.51,0-.68,.33-1.31,.37-1.86,.14-.33-.14-.62-.37-.88-.71-.16-.2-.32-.34-.45-.39-.05-.02-.09-.02-.13-.02-.1,0-.16,.08-.18,.1-.08,.17-.03,.43,.14,.67,.34,.48,.46,1.26-.87,2.28-.09,.07-.17,.14-.25,.22l-.02,.02c-.07,.06-.13,.13-.19,.19-.02,.02-.04,.04-.06,.06-.06,.07-.11,.14-.17,.21-.01,.02-.03,.03-.04,.05-.05,.08-.1,.15-.14,.23,0,0-.01,.02-.02,.03-.04,.08-.08,.16-.11,.24h0c-.1,.26-.13,.5-.08,.71h0c.34,.2,.62,.5,.84,.87l.02,.04c.03,.05,.06,.11,.09,.17,.01,.03,.02,.05,.04,.08,.02,.04,.04,.09,.05,.14,.01,.04,.03,.07,.04,.11,.01,.04,.02,.08,.03,.11,.01,.04,.02,.08,.03,.12,.18,.75-.01,1.26-.21,1.55-.23,.34-.58,.58-.95,.64-.44,.07-.85-.04-1.2-.33-.12-.1-.23-.21-.33-.35h0s-.2,0-.3,.02c-.05,0-.11,.01-.16,.02-.04,0-.08,0-.12,0h-.03c-.1,0-.2,0-.31,0h-.02l-.49,1.55h0l.03,.02,.06,.05c.53,.41,1.49,1.07,2.69,1.47l.05,.02c.12,.04,.23,.07,.35,.1,.34,.09,.66,.18,.97,.27,1.53,.43,2.63,.74,3.36,.38,.27-.13,.52-.31,.76-.48,.51-.35,1.06-.74,1.77-.71,.2,0,.42,.05,.64,.14,.04,.01,.08,.03,.12,.05,.08,.03,.15,.07,.22,.11,.5,.29,.83,.79,.9,1.36,.1,.79-.3,1.58-1.07,2.17-.07,.05-.15,.1-.22,.15,0,0-.02,.01-.03,.02-.07,.04-.14,.07-.21,.1-.02,0-.04,.02-.06,.02-.06,.02-.13,.05-.19,.06-.02,0-.05,.01-.07,.02-.06,.02-.13,.03-.2,.04-.02,0-.05,.01-.07,.01-.07,.01-.14,.02-.21,.03-.02,0-.04,0-.07,0-.08,0-.16,.01-.24,.01-.01,0-.03,0-.04,0-.29,0-.58,0-.86-.04h-.03c-.08-.01-.16-.03-.24-.04h-.05c-.07-.02-.14-.03-.21-.05h-.06c-.07-.02-.13-.04-.19-.05h-.05c-.06-.03-.12-.04-.18-.05h-.05c-.06-.03-.12-.04-.18-.06h-.04c-.13,.26-.28,.55-.46,.82-.01,.02-.02,.03-.03,.05-.05,.08-.11,.16-.16,.23-.02,.02-.03,.04-.05,.07-.05,.06-.1,.13-.15,.19-.02,.03-.04,.05-.06,.08-.05,.06-.1,.11-.15,.17-.02,.03-.05,.05-.07,.08-.06,.06-.12,.12-.19,.18-.03,.02-.05,.05-.08,.07-.06,.05-.13,.11-.19,.15l-.02,.02c-.15,.12-.4,.22-.67,.14h-.03c-.28-.11-.46-.39-.53-.82-.06-.38-.14-1.39-.21-2.29h-.04c-.07,0-.13-.01-.2-.02-.02,0-.04,0-.06,0-.07,0-.14-.01-.21-.02h-.06c-.08-.02-.15-.03-.23-.04h-.03c-.33-.05-.67-.11-1.01-.18l-.11-.02s-.1-.02-.15-.03c-.05-.01-.1-.02-.15-.03-.04-.01-.08-.02-.12-.03-.06-.01-.11-.03-.17-.04-.04,0-.07-.02-.11-.03-.06-.02-.12-.03-.18-.05-.03,0-.06-.02-.09-.02-.06-.02-.12-.03-.18-.05-.02,0-.05-.01-.07-.02-.06-.02-.12-.04-.18-.05-.02,0-.04-.01-.06-.02-.06-.02-.12-.04-.17-.06-.02,0-.03-.01-.05-.02-.06-.02-.11-.04-.17-.06h-.04c-.06-.03-.11-.05-.16-.07h-.02l-2.86-.91h0c-.05-.01-.11-.03-.16-.04-.11-.03-.23-.06-.36-.11-.26-.08-.55-.18-.86-.3l-.04-.02c-.13-.05-.26-.1-.39-.15-.06-.02-.11-.05-.17-.07-.09-.04-.18-.08-.26-.11-.08-.04-.16-.07-.24-.11-.06-.03-.12-.06-.18-.09-.1-.05-.19-.09-.29-.14-.04-.02-.08-.04-.12-.06-.11-.06-.21-.11-.31-.17l-.07-.04c-.11-.06-.22-.13-.33-.19h0c-.58,.7-1.23,1.48-1.49,1.75-.31,.32-.61,.44-.9,.36h-.04s-.06-.03-.09-.05h-.01s-.05-.03-.08-.05h0s-.05-.04-.07-.06h0c-.11-.11-.18-.23-.21-.35-.03-.1-.06-.21-.09-.31l-.02-.07c-.02-.08-.03-.16-.05-.24,0-.06-.02-.11-.02-.17v-.06c-.02-.12-.03-.24-.04-.37h0c0-.2,0-.4,0-.6h0c0-.12,.02-.23,.03-.34,0-.04,0-.08,.01-.11,0-.04,.01-.08,.02-.13,.01-.08,.03-.17,.04-.25v-.03h-.01l-.03-.02c-.05-.02-.11-.04-.16-.06-.02,0-.04-.02-.07-.03-.05-.02-.09-.04-.14-.06-.03-.01-.05-.02-.08-.03-.05-.02-.09-.04-.14-.06-.03-.01-.06-.03-.09-.04-.05-.02-.09-.04-.14-.07-.03-.02-.07-.03-.1-.05-.05-.02-.1-.05-.15-.08-.03-.02-.06-.03-.1-.05-.05-.03-.11-.06-.16-.09-.03-.02-.05-.03-.08-.05-.08-.05-.15-.09-.23-.14-.03-.02-.05-.04-.08-.06-.05-.03-.1-.07-.14-.1-.03-.02-.06-.05-.1-.08-.04-.03-.08-.06-.12-.1-.03-.03-.07-.06-.1-.09-.04-.03-.07-.06-.1-.1-.03-.03-.06-.06-.09-.09-.03-.03-.06-.07-.09-.1-.03-.03-.06-.07-.09-.1-.03-.03-.05-.07-.08-.11-.03-.04-.05-.07-.07-.11-.02-.04-.04-.07-.06-.11-.02-.04-.04-.08-.06-.11-.02-.04-.03-.09-.05-.13-.01-.03-.03-.07-.04-.1-.3-.93-.16-1.8,.37-2.39,.44-.49,1.1-.7,1.77-.56,.29,.06,.53,.16,.73,.29,.6,.38,.83,1.02,1.04,1.6,.1,.28,.21,.56,.35,.83,.15,.27,.39,.49,.72,.69,.54,.33,1.32,.6,2.25,.93,.3,.11,.62,.22,.95,.34,.12,.04,.23,.08,.35,.12,.01,0,.03,0,.04,.01,1.28,.38,2.52,.38,3.16,.34l.49-1.55c-.21-.12-.38-.26-.51-.38-.08-.07-.21-.18-.25-.19h0c-.4,.13-.77,.13-1.09,.01-.19-.07-.37-.18-.54-.34-.27-.26-.42-.66-.41-1.07,0-.35,.14-.88,.72-1.39,.07-.06,.14-.12,.21-.17h0c.07-.05,.14-.1,.22-.14h0c.45-.27,.95-.39,1.42-.35h0s.09-.1,.13-.15v-.02c.05-.06,.08-.12,.11-.18,0-.01,.01-.03,.02-.05,.02-.06,.05-.13,.06-.19,0-.03,.01-.06,.02-.08,.01-.06,.03-.12,.03-.19,0-.05,0-.09,.01-.14,0-.05,0-.11,0-.16,0-.07,0-.14,0-.21,0-.04,0-.08,0-.12-.01-.11-.03-.21-.05-.32v-.03c-.03-.12-.06-.25-.1-.38-.5-1.61,.05-2.17,.6-2.37,.27-.1,.46-.27,.5-.46,0-.03-.01-.12-.09-.18h-.01c-.13-.1-.38-.1-.7,0-.53,.17-1.03,.15-1.46-.03-.43-.19-.81-.55-1.1-1.08-.08-.14-.18-.22-.29-.26-.2-.07-.43-.02-.62,.07-.52,.26-1.2,.28-1.81,.06h0c-.54-.19-1.31-.67-1.85-1.86-.01-.02-.02-.05-.02-.07h0s-.07,.05-.11,.07c-.11,.07-.22,.15-.33,.22-.08,.06-.15,.12-.23,.18-.08,.07-.16,.13-.24,.2-.07,.06-.14,.13-.21,.19-.09,.09-.18,.18-.27,.27-.08,.08-.15,.16-.23,.25-.1,.12-.2,.24-.3,.37-.05,.07-.11,.15-.16,.22-.07,.11-.15,.22-.22,.33-.05,.08-.1,.15-.14,.23-.09,.15-.17,.3-.25,.46-.02,.04-.04,.08-.06,.12-.29,.58-.63,1.2-.98,1.86-1.82,3.39-4.32,8.03-3.12,11.71,.51,1.57,1.47,2.74,2.48,3.53,.01,0,.02,.02,.04,.03,.09,.07,.17,.13,.26,.19,.04,.03,.08,.06,.13,.09,.05,.03,.1,.06,.15,.1,.38,.24,.76,.43,1.12,.57l.05,.02c.07,.03,.15,.05,.22,.08,.02,0,.04,.02,.06,.02,.03,0,.05,.01,.08,.02,.05,.02,.1,.03,.15,.04,.09,.02,.18,.05,.27,.06h.02c.93,.18,1.71,.2,2.48,.22,.22,0,.44,.01,.66,.02h.02c.09,0,.17,0,.26,.01,.04,0,.08,0,.12,0,.08,0,.16,.01,.24,.02,.05,0,.1,0,.15,.01,.07,0,.15,.02,.23,.02,.05,0,.11,.01,.16,.02,.07,.01,.15,.02,.22,.03,.06,0,.12,.02,.18,.03,.07,.01,.15,.03,.22,.04,.07,.02,.15,.03,.22,.05,.06,.01,.13,.03,.19,.04l.86-2.7c.12-.39,.54-.6,.92-.48h0c.39,.12,.6,.54,.48,.92l-.86,2.7h0s.1,.04,.14,.06c.09,.03,.17,.07,.26,.1,.06,.03,.11,.05,.17,.08,.07,.03,.14,.06,.21,.1,.06,.03,.11,.06,.17,.08,.06,.03,.13,.07,.19,.1,.05,.03,.11,.06,.16,.09,.06,.04,.13,.07,.19,.11,.05,.03,.1,.06,.14,.08,.07,.04,.13,.08,.19,.12,.04,.03,.08,.05,.12,.08,.08,.05,.15,.1,.23,.15,.02,.02,.05,.03,.07,.05,.1,.07,.2,.13,.3,.2,.4,.26,.8,.53,1.26,.79,.03,.02,.06,.03,.09,.05,.06,.03,.12,.07,.19,.1,.06,.03,.13,.07,.19,.1,.04,.02,.07,.04,.11,.06,.06,.03,.12,.06,.18,.09,.04,.02,.09,.04,.13,.06h0c.09,.04,.19,.08,.29,.12,.05,.02,.09,.03,.14,.05,.03,0,.05,.02,.08,.03,.02,0,.05,.01,.07,.02,.07,.02,.14,.04,.22,.06,.02,0,.04,0,.05,.01,.39,.09,.82,.16,1.29,.18,.04,0,.08,0,.12,0,.07,0,.14,0,.21,0,.09,0,.17,0,.26,0,.04,0,.07,0,.11,0,1.11-.06,2.34-.38,3.5-1.1,.18-.11,.36-.23,.53-.36,3.09-2.33,3.72-7.56,4.18-11.38m-6.13,1.41c-1.88-.59-2.92-2.61-2.33-4.48,.59-1.88,2.61-2.92,4.48-2.33,1.88,.59,2.92,2.61,2.33,4.48-.59,1.88-2.61,2.92-4.48,2.33m-11.91-11.26c1.88,.59,2.92,2.61,2.33,4.48-.59,1.88-2.61,2.92-4.48,2.33-1.88-.59-2.92-2.61-2.33-4.48,.59-1.88,2.61-2.92,4.48-2.33"/>
      <path class="d" d="M59.08,42.14c.32,.71,.78,1.18,1.32,1.37,.45,.16,.86,.1,1.1-.02,.84-.41,1.71-.18,2.12,.57,.48,.87,1.08,.81,1.48,.68,.84-.26,1.33-.04,1.6,.19,.36,.31,.43,.75,.39,1.02-.06,.34-.24,.64-.53,.87-.16,.13-.35,.24-.57,.32-.04,.02-.08,.04-.11,.08-.17,.22-.03,.79,.08,1.15,.29,.93,.31,2.04-.17,2.8,.09,.05,.18,.11,.26,.18,.2,.16,.22,.45,.06,.65-.03,.03-.05,.05-.08,.08-.17,.12-.4,.12-.56-.02-.51-.42-1.28-.35-1.88,.17-.01,.01-.02,.02-.03,.03-.24,.22-.37,.46-.37,.69,0,.2,.08,.34,.13,.39,.19,.18,.4,.21,.73,.11,.51-.15,.86,.16,1.11,.38,.18,.16,.35,.31,.6,.38,.24,.09,.47,.06,.71,.03,.34-.04,.8-.09,1.13,.33,.21,.27,.41,.37,.66,.33,.04,0,.11-.04,.19-.1,.05-.04,.1-.08,.14-.15,.14-.2,.17-.49,.08-.83-.19-.77-.78-1.27-1.44-1.22-.25,.02-.47-.17-.49-.42-.01-.13,.04-.26,.12-.35,.08-.08,.18-.14,.3-.15,.09,0,.18,0,.26,0,.02,0,.04,0,.06,0,.04-.77,.53-1.55,1.17-2.13,.1-.09,.2-.18,.31-.26,.07-.05,.15-.12,.23-.19,.3-.26,.61-.61,.45-.83-.37-.52-.45-1.12-.22-1.6,.04-.09,.11-.19,.21-.28,.16-.16,.4-.3,.7-.33,.35-.04,.88,.07,1.41,.76,.26,.34,.71,.73,1.6,.3,.77-.37,1.62-.06,2.07,.76,.13,.23,.42,.52,.89,.65,.55,.15,1.2,.03,1.87-.37,.01,0,.02,0,.03-.02,.03-.01,.05-.02,.08-.03-1.01-1.68-2.78-2.98-5.23-3.76l-7.6-2.4c-2.45-.78-4.65-.73-6.44,.07,0,0,.01,.01,.02,.02,.02,.03,.04,.05,.05,.08"/>
      <path class="d" d="M59.64,51c1.27,.4,2.62-.3,3.02-1.57,.4-1.27-.3-2.62-1.57-3.02-1.27-.4-2.62,.3-3.02,1.57-.4,1.27,.3,2.62,1.57,3.02"/>
      <path class="d" d="M75.16,50.85c-1.27-.4-2.62,.3-3.02,1.57-.4,1.27,.3,2.62,1.57,3.02,1.27,.4,2.62-.3,3.02-1.57,.4-1.27-.3-2.62-1.57-3.02"/>
      <path class="d" d="M31.8,50.93c2.46-5.01,11.32-3.35,13.69,0,2.38,3.34,3.07,8.13,3.23,12.89,.16,4.75,4.39,4.55,7.41,6.36,0,0-3.67-.28-5.52,3.27-1.75,3.36-7.25-1.61-8.7-3.3-1.45-1.69,.84-4.15-1.57-6.97-2.42-2.82-11.04-7.16-8.55-12.24"/>
      <path class="d" d="M2.15,34.1c5.4-4.34,14.69,1.09,15.4,6.04,.81,5.66-.61,12.29-4.92,17.07-3.98,4.43,2.04,7.35,4.19,10.93,0,0-3.68-2.2-7.62,.82-3.73,2.85-6.69-5.53-7.26-8.16-.57-2.64,3.22-4.21,2.28-8.6-.95-4.39-7.53-13.69-2.06-18.08"/>
      <path class="d" d="M50.98,75.56s.84-4.15,2.94-3.99c2.09,.16,3.43,3.42,3.35,4.47l-6.28-.48Z"/>
      <path class="d" d="M55.53,71.17s2.25-1.93,4.19,.32c1.93,2.25,1.25,4.31,1.25,4.31l-3.14-.24s.68-2.05-2.3-4.39"/>
      <path class="d" d="M60.28,71.01s3.66,.28,3.91,3.99l-2.09-.16s.12-1.57-1.81-3.83"/>
      <path class="d" d="M7.44,73.29s.84-4.15,2.94-3.99c2.09,.16,3.43,3.42,3.35,4.47l-6.28-.48Z"/>
      <path class="d" d="M11.99,68.9s2.25-1.93,4.19,.32c1.93,2.25,1.25,4.31,1.25,4.31l-3.14-.24s.68-2.05-2.3-4.39"/>
      <path class="d" d="M16.74,68.74s3.67,.28,3.91,3.98l-2.09-.16s.12-1.57-1.81-3.83"/>
      <path class="d" d="M28.97,63.25c-1.33-.05-3,.27-4.71,1.58-3.73,2.85-6.69-5.53-7.26-8.16-.55-2.57,3.03-4.12,2.34-8.27,2.36,3.24,5.35,10.28,7.43,13.21,.49,.7,1.28,1.23,2.2,1.64"/>
      <path class="d" d="M22.5,69.18s.84-4.15,2.94-3.99c2.09,.16,3.43,3.42,3.35,4.47l-6.28-.48Z"/>
      <path class="d" d="M27.05,64.78s2.25-1.93,4.19,.32c1.93,2.25,1.25,4.31,1.25,4.31l-3.14-.24s.68-2.05-2.3-4.39"/>
      <path class="d" d="M31.8,64.62s3.67,.28,3.91,3.99l-2.09-.16s.12-1.57-1.81-3.83"/>
      <path class="d" d="M68.46,74.26s.84-4.15,2.94-3.99c2.09,.16,3.43,3.42,3.35,4.47l-6.28-.48Z"/>
      <path class="d" d="M73.01,69.87s2.25-1.93,4.19,.32c1.93,2.25,1.25,4.31,1.25,4.31l-3.14-.24s.68-2.05-2.3-4.39"/>
      <path class="d" d="M77.76,69.71s3.66,.28,3.91,3.99l-2.09-.16s.12-1.57-1.81-3.83"/>
      <path class="d" d="M49.07,38.55c-3.63-.8-7.69-2.69-11.04-7.16-3.35-4.47-10.24-10.79-19.14-11.47C9.99,19.24-.28,29.52,.97,33.83c6.68-4.76,13.25-1.1,16.68,2.33,3.43,3.42-.16,8.94,2.3,11.24,2.46,2.29,6.01,10.99,8.39,14.33,2.38,3.34,11.36,2.97,11.36,2.97,.08-1.05-2.42-2.82-4.92-4.59-2.5-1.77-5.44-4.63-5.2-7.77,.24-3.14,3.18-7.13,10.47-6.05,7.06,1.05,9.14,9.13,9.27,9.63-.19-4.22,2.13-7.18,2.13-7.18,0,0-2.3-4.39-.53-6.89,1.77-2.5,5.84-.61,5.84-.61,.6-1.01-4.07-1.89-7.69-2.69m-12.61,23.79c.43,.03,.76,.41,.73,.85-.03,.43-.41,.76-.85,.73-.43-.03-.76-.41-.73-.85,.03-.44,.41-.76,.85-.73m-3.1-.76c.43,.03,.76,.41,.73,.85-.03,.43-.41,.76-.85,.73-.43-.03-.76-.41-.73-.85,.03-.43,.41-.76,.85-.72m-2.54-1.25c.43,.03,.76,.41,.73,.85-.03,.43-.41,.76-.85,.73-.43-.03-.76-.41-.73-.85,.03-.44,.41-.76,.85-.73m-1.21-1.41c-.03,.43-.41,.76-.85,.73-.43-.03-.76-.41-.73-.85,.03-.43,.41-.76,.85-.73,.43,.03,.76,.41,.73,.85"/>
    </g>
  </g>
</svg>