<?xml version="1.0" encoding="UTF-8"?>
<svg id="b" data-name="圖層 2" xmlns="http://www.w3.org/2000/svg" width="146.4" height="104.39" viewBox="0 0 146.4 104.39">
  <defs>
    <style>
      .d, .e {
        fill: #fff;
      }

      .f {
        fill: none;
        stroke: #ec6531;
        stroke-width: .57px;
      }

      .f, .e {
        stroke-miterlimit: 10;
      }

      .g {
        fill: #ec6531;
      }

      .e {
        stroke: #dbdcdc;
        stroke-width: 1.4px;
      }
    </style>
  </defs>
  <g id="c" data-name="圖層 1">
    <g>
      <path class="d" d="M125.03,30.49C125,9.83,98.47-.04,73.08,0,47.7,.04,21.21,10.01,21.24,30.67c-14.66,5.39-49.8,59.46,24.41,69.97-.03,.21,55.25,.12,55.22-.1,74.17-10.77,38.85-64.72,24.16-70.06Z"/>
      <g>
        <path class="f" d="M98.5,28.37c.01,6.68-2.56,12.11-5.74,12.11s-5.77-5.41-5.78-12.09c-.01-6.68,2.56-12.11,5.74-12.11,3.18,0,5.77,5.41,5.78,12.09Z"/>
        <path class="g" d="M93.39,28.38c0,3.72-1.42,6.74-3.19,6.75-1.77,0-3.21-3.01-3.22-6.74,0-3.72,1.43-6.74,3.19-6.74,.64,0,1.22,.38,1.71,1.04l-1.7,5.7,3.2-.43c0,.14,0,.28,0,.42Z"/>
      </g>
      <g>
        <path class="f" d="M59.29,28.44c.01,6.68-2.56,12.11-5.74,12.11-3.18,0-5.77-5.41-5.78-12.09-.01-6.68,2.56-12.11,5.74-12.11,3.18,0,5.77,5.41,5.78,12.09Z"/>
        <path class="g" d="M54.18,28.45c0,3.72-1.42,6.74-3.19,6.75-1.77,0-3.21-3.01-3.22-6.74,0-3.72,1.43-6.74,3.19-6.74,.64,0,1.22,.38,1.71,1.04l-1.7,5.7,3.2-.43c0,.14,0,.28,0,.42Z"/>
      </g>
      <path class="f" d="M70.77,47.33s.56-1.76,2.39-1.77c1.84,0,2.4,1.76,2.4,1.76"/>
      <path class="g" d="M75.57,53c0,3.14-1.06,5.68-2.39,5.69-1.32,0-2.4-2.54-2.41-5.68,0-3.14,1.06-5.68,2.39-5.69s2.4,2.54,2.41,5.68Z"/>
      <path class="e" d="M76.09,71.58s1.02-43.92,46.08-43.73"/>
      <path class="e" d="M74.92,65.51s-2.32-37.85-47.38-37.49"/>
      <path class="e" d="M104.94,68.4s-2.66-11.72,9.17-15.46"/>
      <path class="e" d="M41.43,68.51s2.62-11.73-9.22-15.43"/>
      <path class="d" d="M104.12,100.54c0,2.1-13.04,3.82-29.13,3.85-16.09,.03-29.14-1.65-29.14-3.75,0-2.1,13.04-3.82,29.13-3.85,16.09-.03,29.14,1.65,29.14,3.75Z"/>
    </g>
  </g>
</svg>