<?xml version="1.0" encoding="UTF-8"?>
<svg id="b" data-name="圖層 2" xmlns="http://www.w3.org/2000/svg" width="1593.18" height="105.07" viewBox="0 0 1593.18 105.07">
  <defs>
    <style>
      .d {
        fill: #fff;
      }

      .e {
        opacity: .2;
      }
    </style>
  </defs>
  <g id="c" data-name="圖層 1">
    <g class="e">
      <g>
        <path class="d" d="M98.86,72.84h-18.68L148.16,2.61h31.13V82.3h-31.13V28.01l9.34,3.86-49.18,50.42h-37.35L21.66,32l9.46-3.86v54.16H0V2.61H31.13L98.86,72.84Z"/>
        <path class="d" d="M227.85,48.68v9.96h94.62v23.66h-125.75V2.61h125.5V26.27h-94.38v9.96h77.19v12.45h-77.19Z"/>
        <path class="d" d="M338.66,82.3V2.61h96.24c7.55,0,14.34,.85,20.36,2.55,6.02,1.7,10.79,4.54,14.32,8.53,3.53,3.98,5.29,9.42,5.29,16.31,0,4.57-.83,8.34-2.49,11.33-1.66,2.99-3.94,5.31-6.85,6.97-2.91,1.66-6.22,2.86-9.96,3.61s-7.64,1.2-11.7,1.37l-9.09-1.74c9.88,.08,17.49,.5,22.85,1.25,5.35,.75,9.09,2.1,11.21,4.05,2.12,1.95,3.17,4.75,3.17,8.4v17.06h-31.13v-13.32c0-2.49-.48-4.38-1.43-5.67-.96-1.29-3.03-2.18-6.22-2.68-3.2-.5-8.12-.75-14.75-.75h-48.68v22.41h-31.13Zm31.13-43.2h65.12c2.49,0,4.58-.41,6.29-1.25,1.7-.83,2.55-2.41,2.55-4.73,0-2.16-.85-3.63-2.55-4.42-1.7-.79-3.8-1.18-6.29-1.18h-65.12v11.58Z"/>
        <path class="d" d="M639.59,49.06c-.42,7.89-3.28,14.49-8.59,19.8s-13.13,9.3-23.47,11.95-23.39,3.98-39.16,3.98c-12.04,0-22.83-.64-32.37-1.93-9.55-1.29-17.68-3.49-24.4-6.6-6.72-3.11-11.87-7.37-15.44-12.76-3.57-5.39-5.35-12.2-5.35-20.42s1.78-15.08,5.35-20.61c3.57-5.52,8.71-9.92,15.44-13.2,6.72-3.28,14.86-5.62,24.4-7.03,9.54-1.41,20.34-2.12,32.37-2.12,15.77,0,28.84,1.43,39.22,4.3,10.38,2.86,18.22,7.08,23.53,12.64,5.31,5.56,8.17,12.33,8.59,20.29h-32.37c-1-2.66-2.82-5-5.48-7.03-2.66-2.03-6.64-3.63-11.95-4.79-5.31-1.16-12.49-1.74-21.54-1.74-10.62,0-19.26,.64-25.9,1.93-6.64,1.29-11.5,3.34-14.57,6.16-3.07,2.82-4.61,6.56-4.61,11.21,0,4.23,1.53,7.68,4.61,10.33,3.07,2.66,7.92,4.61,14.57,5.85,6.64,1.25,15.27,1.87,25.9,1.87,9.05,0,16.21-.54,21.48-1.62,5.27-1.08,9.23-2.55,11.89-4.42,2.66-1.87,4.48-3.88,5.48-6.04h32.37Z"/>
        <path class="d" d="M655.9,2.61h31.13V82.3h-31.13V2.61Zm26.64,27.52h87.65v23.66h-87.65V30.13ZM766.71,2.61h31.13V82.3h-31.13V2.61Z"/>
        <path class="d" d="M807.8,82.3L861.21,2.61h34.61l53.91,79.68h-34.24l-46.19-71.34h18.55l-45.82,71.34h-34.24Zm27.89-12.08v-18.68h85.16v18.68h-85.16Z"/>
        <path class="d" d="M1084.57,57.9l-11.58,6.6V2.61h31.13V82.3h-31.13l-93.75-54.29,11.58-6.72v61.01h-31.13V2.61h31.13l93.75,55.28Z"/>
        <path class="d" d="M1211.2,2.61c11.21,0,20.46,1.08,27.77,3.24,7.3,2.16,13.03,5.1,17.18,8.84,4.15,3.74,7.08,7.99,8.78,12.76,1.7,4.77,2.55,9.77,2.55,15s-.96,10.23-2.86,15c-1.91,4.77-5.04,9.03-9.4,12.76-4.36,3.74-10.13,6.68-17.31,8.84-7.18,2.16-16.08,3.24-26.71,3.24h-89.64V2.61h89.64Zm-58.52,54.78h57.27c4.65,0,8.59-.31,11.83-.93,3.24-.62,5.83-1.56,7.78-2.8,1.95-1.25,3.36-2.8,4.23-4.67,.87-1.87,1.31-4.05,1.31-6.54s-.44-4.67-1.31-6.54c-.87-1.87-2.28-3.42-4.23-4.67-1.95-1.25-4.54-2.18-7.78-2.8-3.24-.62-7.18-.93-11.83-.93h-57.27v29.88Z"/>
        <path class="d" d="M1285.52,2.61h31.13V82.3h-31.13V2.61Z"/>
        <path class="d" d="M1331.59,53.04h33.99c.58,1.74,2.28,3.22,5.1,4.42,2.82,1.2,6.62,2.12,11.39,2.74,4.77,.62,10.31,.93,16.62,.93s11.14-.19,14.75-.56c3.61-.37,6.16-1.04,7.66-1.99,1.49-.95,2.24-2.26,2.24-3.92,0-1.58-1.2-2.8-3.61-3.67-2.41-.87-6.68-1.47-12.82-1.81-6.14-.33-14.78-.5-25.9-.5-8.3,0-15.46-.39-21.48-1.18-6.02-.79-10.96-2.03-14.82-3.74-3.86-1.7-6.7-3.86-8.53-6.47-1.83-2.62-2.74-5.75-2.74-9.4,0-6.31,2.14-11.52,6.41-15.63,4.27-4.11,10.75-7.18,19.42-9.21,8.67-2.03,19.53-3.05,32.56-3.05,19.09,0,33.68,2.76,43.76,8.28,10.08,5.52,15.13,13.47,15.13,23.84h-32.25c-.42-2.74-2.99-4.83-7.72-6.29-4.73-1.45-11.46-2.18-20.17-2.18s-15.05,.5-19.24,1.49c-4.19,1-6.29,2.7-6.29,5.1,0,1.25,.58,2.24,1.74,2.99,1.16,.75,3.17,1.35,6.04,1.81,2.86,.46,6.91,.77,12.14,.93,5.23,.17,11.87,.25,19.92,.25,8.88,0,16.44,.44,22.66,1.31,6.22,.87,11.27,2.18,15.13,3.92s6.66,3.96,8.4,6.66c1.74,2.7,2.62,5.87,2.62,9.52,0,6.31-1.99,11.45-5.98,15.44s-10.29,6.93-18.93,8.84c-8.63,1.91-19.92,2.86-33.87,2.86-7.89,0-15.13-.46-21.73-1.37-6.6-.91-12.47-2.26-17.62-4.05-5.15-1.78-9.5-3.98-13.07-6.6-3.57-2.62-6.29-5.56-8.15-8.84-1.87-3.28-2.8-6.91-2.8-10.89Z"/>
        <path class="d" d="M1498.56,48.68v9.96h94.62v23.66h-125.75V2.61h125.5V26.27h-94.38v9.96h77.19v12.45h-77.19Z"/>
      </g>
    </g>
    <g>
      <path class="d" d="M507.38,90.17c-.85-1.3-2.25-3.15-3.65-4.85v19.45h-5.85v-18.3c-1.85,1.65-3.65,3.15-5.55,4.35-.4-1.7-1.55-4.95-2.25-6.1,4.9-2.7,9.7-7.65,12.7-12.9h-11.25v-5.35h8.55c-.9-1.8-2.45-4.05-3.85-5.75l4.7-2.5c1.85,1.9,3.7,4.55,4.6,6.3l-3.3,1.95h3.75l1.05-.25,3.15,2.3c-1.45,3.65-3.45,7.2-5.75,10.45,2,1.8,5.65,5.25,6.6,6.25l-3.65,4.95Zm29.85-10.6h-5.6v25.1h-6.1v-25.1h-7.1c-.15,7.9-1.15,18.3-5.45,25.2-1.15-1-3.9-2.7-5.4-3.2,4.4-7,4.75-17.1,4.75-24.35v-13.7c7-1.15,14.7-3.1,19.45-5.15l4.95,4.95c-5.35,2-12,3.55-18.3,4.7v5.8h18.8v5.75Z"/>
      <path class="d" d="M588.78,83.57c-1.15,3.65-2.7,6.75-4.65,9.3,5.35,2.25,10.3,4.6,13.8,6.8l-4.4,5.25c-3.4-2.3-8.45-4.9-14.05-7.45-5.15,3.95-12.2,6.15-21.65,7.5-.55-1.6-2.45-4.5-3.7-6,7.9-.7,13.9-2.05,18.35-4.45-4.3-1.8-8.75-3.4-12.7-4.65,1.3-1.8,2.7-3.95,4.05-6.3h-9.75v-5.6h12.75c1.35-2.65,2.45-5.3,3.3-7.75l6.95,1.3c-.8,2.05-1.75,4.25-2.8,6.45h8.8c.25-1.4,.4-2.95,.55-4.55l7.2,.45v-4.85h-29.75v5.6h-6.05v-11.1h17.75c-.55-1.45-1.2-3-1.75-4.35l6.7-1.55c.85,1.8,1.9,4.05,2.6,5.9h16.85v11.1h-6.3c-.2,1.15-.4,2.25-.6,3.35h7.85v5.6h-9.35Zm-17.35,0c-.75,1.3-1.45,2.5-2.2,3.7,2.8,.9,5.65,1.95,8.6,3.05,1.6-1.85,2.85-4.1,3.8-6.75h-10.2Z"/>
      <path class="d" d="M629.43,90.62c-.8-1.35-2.05-3.15-3.3-4.9v19.05h-5.35v-17.65c-1.4,1.45-2.75,2.75-4.15,3.8-.35-1.75-1.55-5.05-2.25-6.2,4.2-2.8,8.25-7.7,10.75-12.9h-9.65v-5.35h6.7c-.85-1.75-2.2-3.8-3.5-5.4l4.45-2.75c1.65,1.85,3.4,4.45,4.2,6.25l-2.75,1.9h3.4l1.05-.25,3,2.2c-1.25,3.75-2.95,7.4-5.05,10.75,1.95,1.9,5.2,5.45,6.1,6.5l-3.65,4.95Zm31.85,8.95v4.4h-30.25v-4.4h7.9c-.45-1.25-1-2.6-1.45-3.7l3.2-1h-5.8v-10.05h22.8v10.05h-5.85l3.9,1.1c-.75,1.25-1.6,2.45-2.35,3.6h7.9Zm-29.65-20.7h29.15v4.2h-29.15v-4.2Zm27.6-1.75h-25.95v-15.1h6.9v-3.9h4.6v3.9h2.8v-3.9h4.6v3.9h7.05v15.1Zm-21.15-9.25h2.95v-2.4h-2.95v2.4Zm0,5.7h2.95v-2.4h-2.95v2.4Zm1.65,17.75h12.85v-3h-12.85v3Zm2.4,3.55c.7,1.55,1.45,3.3,1.9,4.7h4.45c.7-1.5,1.4-3.25,1.85-4.7h-8.2Zm5.45-27v-2.4h-2.8v2.4h2.8Zm-2.8,3.3v2.4h2.8v-2.4h-2.8Zm9.5-5.7h-2.95v2.4h2.95v-2.4Zm0,5.7h-2.95v2.4h2.95v-2.4Z"/>
      <path class="d" d="M711.33,91.42v13.4h-6.3v-12.55l-26.75,3.85-.8-5.9,27.55-3.85v-28.25h6.3v27.35l10.55-1.5,.75,5.8-11.3,1.65Zm-18.45-7.05c-2.65-2.3-8.3-5.5-12.5-7.6l3.55-4.45c4.05,1.85,9.9,4.8,12.8,7l-3.85,5.05Zm4.95-12.05c-2.4-2.05-7.6-5.15-11.4-7.1l3.4-4.55c3.7,1.7,9.05,4.55,11.7,6.6l-3.7,5.05Z"/>
      <path class="d" d="M783.53,62.27v12.5h-6.1v-7.1h-30.95v7.1h-5.8v-12.5h17.75c-.4-1-.8-2-1.25-2.85l6.1-1.8c.8,1.4,1.65,3.1,2.2,4.65h18.05Zm-18.55,22.15c-.55,1.05-1.1,2.1-1.7,3.1h16.4v17.15h-6.2v-1.8h-22.6v1.85h-5.95v-17.2h11.85c.4-1,.8-2.05,1.15-3.1h-9v-13.85h26v13.85h-9.95Zm8.5,8.25h-22.6v5.1h22.6v-5.1Zm-18.95-13h14.5v-4.4h-14.5v4.4Z"/>
      <path class="d" d="M841.23,93.37c-1.7,2.1-4.05,3.9-6.75,5.3,3.85,.7,8,1.15,12.35,1.4-1.05,1.15-2.25,3.2-2.85,4.6-6.15-.5-11.8-1.45-16.85-2.9-5.4,1.65-11.45,2.7-17.3,3.3-.45-1.2-1.45-2.95-2.25-4,4.3-.35,8.75-.95,12.8-1.85-1.35-.65-2.7-1.35-4-2.1-1.45,.8-3.1,1.55-4.9,2.3-.6-1.1-2.05-2.65-3.05-3.4,1.5-.5,2.85-1.05,4.15-1.65-1.05-.9-2.05-1.8-2.9-2.85l4.35-1.85c.8,.85,1.7,1.7,2.8,2.5,1.3-.85,2.45-1.7,3.35-2.5-1.9-.5-2.45-1.75-2.45-4.15v-2.25h4.5l1.25-1.45h-13.75c-.05,1.7-.2,3.4-.35,5.15,1.35-1.25,2.9-3.35,3.9-4.95l3.9,2.2c-1.1,1.65-2.6,3.9-3.95,5.4l-3.85-2.55c-.65,6.2-2,12.75-4.75,17.6-.95-1-3.3-2.7-4.55-3.3,4.05-7.35,4.4-17.9,4.4-25.45v-14.85h18.75c-.2-.85-.45-1.7-.65-2.45l5.9-1.05c.4,1,.85,2.3,1.2,3.5h16.75v4.45h-13.5v2.05h11.75v9.05h-34.8v1.6h33.1l.85-.2,3.85,.85c-.9,2.5-2.1,5.4-3.15,7.25l-4.7-1c.45-.9,.95-2.05,1.4-3.3h-13.5c1.25,.6,2.4,1.2,3.15,1.7l-2.3,3.1h1.05c1.15,0,1.4-.3,1.6-2.1,.8,.5,2.25,.95,3.4,1.2l-1.4-1.5,3.4-2.15c1.8,1.75,4.25,4.15,5.45,5.7l-3.6,2.45c-.8-1.1-2.15-2.6-3.45-4.05-.45,2.95-1.7,3.8-4.75,3.8h-4.25l-1.5,1.5h12.5l.9-.2,3.3,2.1Zm-31.35-27.85v2.05h6.45v-2.05h-6.45Zm6.45,5.5h-6.45v2.15h6.45v-2.15Zm4.8,23.65c2,.95,4.2,1.8,6.6,2.5,1.95-.75,3.7-1.55,5.2-2.5h-11.8Zm6.55-29.15h-6.2v2.05h6.2v-2.05Zm-6.2,7.65h6.2v-2.15h-6.2v2.15Zm6.85,13.45c-1.55-.95-4.05-2.4-5.95-3.3v2.1c0,1.05,.35,1.2,1.95,1.2h4Zm4.6-15.6v2.15h6.25v-2.15h-6.25Z"/>
      <path class="d" d="M872.23,81.82c-1.95-1.65-6.15-4-9.35-5.4l3.15-4.45c3.1,1.2,7.35,3.25,9.5,4.9l-3.3,4.95Zm-7.6,18.45c2.7-3.8,6.5-9.95,9.45-15.75l4.4,4c-2.65,5.2-5.85,10.9-8.8,15.75l-5.05-4Zm10.5-31.7c-2-1.7-6.1-4.1-9.3-5.55l3.25-4.4c3.15,1.25,7.4,3.45,9.5,5.05l-3.45,4.9Zm28.5,36.25c-.35-1.3-.95-2.85-1.75-4.4-16.65,2-19.2,2.4-20.85,3.25-.35-1.3-1.35-4.25-2.1-5.95,1.15-.35,2.1-1.4,3.25-3.2,.9-1.35,3.3-5.75,5.3-10.7h-9.4v-5.6h11.85v-7.05h-9.85v-5.65h9.85v-7.45h6.05v7.45h10.2v5.65h-10.2v7.05h12.05v5.6h-13.6c-2,4.55-4.5,9.05-6.95,12.85l11.75-1.2c-1.05-1.8-2.2-3.6-3.35-5.15l4.85-2.4c3.3,4.35,6.95,10.15,8.25,14.2l-5.35,2.7Z"/>
      <path class="d" d="M952.28,59.57c-.25,.3-.5,.65-.75,.95,4.6,4,12.8,7.45,20.75,9-1.25,1.05-2.95,3.15-3.75,4.55-1-.25-2.05-.6-3.1-.9v12.9h-34.75v-12.6c-1.05,.35-2.1,.7-3.1,.95-.6-1.1-2.2-3.5-3.2-4.6,9.2-2.15,18.1-6.3,22.65-12.1l5.25,1.85Zm11.35,12.95c-2.35-.85-4.6-1.9-6.8-3.05v1.3h-17.55v-1c-1.95,1-3.95,1.95-6.05,2.75h30.4Zm-30.15,15.2h29.4v16.9h-6.1v-1.2h-17.45v1.35h-5.85v-17.05Zm5.65-5.25c-.25-1.55-.9-3.6-1.7-5.2l3.85-1.1h-5.65v6.3h3.5Zm.2,9.15v2h17.45v-2h-17.45Zm17.45,7.9v-2h-17.45v2h17.45Zm-11.35-23.35h-3.9c.9,1.7,1.7,3.85,2,5.3l-3.2,1h5.1v-6.3Zm7.2-9.25c-1.5-1.05-2.95-2.15-4.2-3.25-1.3,1.1-2.75,2.2-4.25,3.25h8.45Zm-2.4,9.25v6.3h4.65l-3-.85c.7-1.5,1.5-3.8,1.95-5.45h-3.6Zm9.9,0h-5.2l3.9,.95c-1,2-1.95,3.95-2.75,5.35h4.05v-6.3Z"/>
      <path class="d" d="M1002.78,71.07h-16.1v-4.7h7.4c-.8-1.9-2.1-4.4-3.2-6.3l4.6-2.15c1.4,2.05,2.95,4.8,3.7,6.65l-3.3,1.8h6.9v4.7Zm-.8,31h-8.2v2.1h-5v-17.25h13.2v15.15Zm-.15-24.25h-12.95v-4.5h12.95v4.5Zm-12.95,2.2h12.75v4.5h-12.75v-4.5Zm8.25,11.65h-3.35v5.6h3.35v-5.6Zm28.4,6.05c2.95,1.45,6.15,3,8.1,4.2l-5,2.9c-2-1.35-5.65-3.5-8.9-5.15l2.5-1.95h-8.55l2.95,1.9c-2.75,2.1-7.3,4.25-11.1,5.25-.85-1-2.4-2.55-3.55-3.45,3.15-.8,6.75-2.2,9.05-3.7h-4.05v-18.65h4.6c-.4-.85-1.15-2.1-1.65-2.65,.7-.5,1.55-1.65,1.55-3.85v-1.45h-1.55c-.55,4-1.8,7.1-5.45,9.15-.45-.95-1.6-2.45-2.45-3.1,2.7-1.4,3.7-3.4,4.1-6.05h-2.8v-3.65h5.85v-2.1h-2.45c-.25,.7-.55,1.4-.9,1.95-.65-.55-2.15-1.55-3-2,1.05-1.8,1.6-4.15,1.9-6.45l3.55,.8c-.15,.7-.25,1.35-.45,2.05h1.35v-3.4h4v3.4h3.3v3.65h-3.3v2.1h3.8v3.65h-1.95v2.9l2.1-.8c.15,.8,.45,2,.7,2.7,1.55-1.2,2.15-2.8,2.45-4.8h-2.5v-3.65h2.05c-.75-.55-2.15-1.45-2.95-1.9,1.1-1.85,1.6-4.25,1.95-6.55l3.45,.75c-.1,.65-.25,1.3-.4,1.95h1.4v-3.4h4.05v3.4h4.5v3.65h-4.5v2.1h5.7v3.65h-3.8v3.05c0,.55,.05,.9,.1,1.05,.1,.1,.25,.15,.45,.15h.6c.15,0,.4,0,.5-.05,.15-.05,.2-.2,.3-.45,.15-.3,.2-.95,.25-1.7,.55,.45,1.55,.95,2.4,1.25-.1,1.15-.25,2.3-.5,2.75-.3,.5-.7,.85-1.2,1.1-.45,.2-1.2,.35-1.75,.35h-1.7c-.95,0-1.85-.3-2.45-.9-.6-.65-.75-1.4-.75-3.65v-2.95h-1.35c-.4,3.35-1.35,6-3.9,7.95h9.4v18.65h-4.1Zm-1.25-14.8h-12.25v1.6h12.25v-1.6Zm-12.25,6.25h12.25v-1.65h-12.25v1.65Zm0,4.7h12.25v-1.65h-12.25v1.65Zm6.8-14.8c-.55-.9-1.4-1.95-2.05-2.45l.25-.1c-2.95,1.35-4.2,2.05-4.85,2.55h6.65Zm2-13.7c-.3,.75-.6,1.5-.9,2.1h3.35v-2.1h-2.45Z"/>
      <path class="d" d="M1094.83,76.72v4.8h-45.5v-4.8h7.45c-.55-2-1.8-4.65-3.05-6.65l3.9-1.45h-5.65v-4.8h8.65c-.7-1.3-1.65-2.8-2.55-3.95l5.25-1.9c1.4,1.5,2.8,3.5,3.4,4.95l-2.15,.9h12.25c1.2-1.75,2.55-4.1,3.35-5.85l5.85,1.7c-.85,1.5-1.75,2.9-2.65,4.15h9v4.8h-6.5l4.2,1.15c-1.25,2.55-2.55,5.1-3.65,6.95h8.4Zm-39.3,7h33.15v20.9h-6.1v-1.3h-21.25v1.5h-5.8v-21.1Zm3.25-15.1c1.45,2,2.7,4.65,3.2,6.45l-4,1.65h6.3v-8.1h-5.5Zm2.55,19.6v3.05h21.25v-3.05h-21.25Zm21.25,10.5v-3.1h-21.25v3.1h21.25Zm-8.7-30.1h-4.05v8.1h4.05v-8.1Zm7.75,6.95c1-1.9,2.2-4.85,2.9-6.95h-5v8.1h5.95l-3.85-1.15Z"/>
    </g>
  </g>
</svg>