<?xml version="1.0" encoding="UTF-8"?>
<svg id="b" data-name="圖層 2" xmlns="http://www.w3.org/2000/svg" width="953.84" height="99.73" viewBox="0 0 953.84 99.73">
  <defs>
    <style>
      .d {
        fill: #fff;
      }

      .e {
        opacity: .2;
      }
    </style>
  </defs>
  <g id="c" data-name="圖層 1">
    <g class="e">
      <g>
        <path class="d" d="M0,82.17L53.41,2.49h34.61l53.91,79.68h-34.24L61.51,10.83h18.55L34.24,82.17H0Zm27.89-12.08v-18.68H113.05v18.68H27.89Z"/>
        <path class="d" d="M291.97,48.93c-.42,7.89-3.28,14.49-8.59,19.8s-13.14,9.3-23.47,11.95c-10.33,2.66-23.39,3.98-39.16,3.98-12.04,0-22.83-.64-32.37-1.93-9.55-1.29-17.68-3.49-24.4-6.6-6.72-3.11-11.87-7.37-15.44-12.76-3.57-5.39-5.35-12.2-5.35-20.42s1.78-15.08,5.35-20.61c3.57-5.52,8.72-9.92,15.44-13.2,6.72-3.28,14.86-5.62,24.4-7.03,9.54-1.41,20.34-2.12,32.37-2.12,15.77,0,28.84,1.43,39.22,4.3,10.38,2.86,18.22,7.08,23.53,12.64,5.31,5.56,8.17,12.33,8.59,20.29h-32.37c-1-2.66-2.82-5-5.48-7.03-2.66-2.03-6.64-3.63-11.95-4.79-5.31-1.16-12.49-1.74-21.54-1.74-10.63,0-19.26,.64-25.9,1.93-6.64,1.29-11.5,3.34-14.57,6.16-3.07,2.82-4.61,6.56-4.61,11.21,0,4.23,1.54,7.68,4.61,10.33,3.07,2.66,7.93,4.61,14.57,5.85,6.64,1.25,15.27,1.87,25.9,1.87,9.05,0,16.21-.54,21.48-1.62,5.27-1.08,9.23-2.55,11.89-4.42,2.66-1.87,4.48-3.88,5.48-6.04h32.37Z"/>
        <path class="d" d="M300.81,2.49h129.49V26.15h-129.49V2.49Zm49.18,22.04h31.13v57.65h-31.13V24.53Z"/>
        <path class="d" d="M444.61,2.49h31.13V82.17h-31.13V2.49Z"/>
        <path class="d" d="M537.12,82.17L488.81,2.49h35.11l41.21,76.57h-12.7L593.65,2.49h34.61l-47.81,79.68h-43.33Z"/>
        <path class="d" d="M641.33,2.49h31.13V82.17h-31.13V2.49Z"/>
        <path class="d" d="M686.78,2.49h129.49V26.15h-129.49V2.49Zm49.18,22.04h31.13v57.65h-31.13V24.53Z"/>
        <path class="d" d="M953.84,2.49l-50.43,59.39v20.29h-31.13v-20.29L821.86,2.49h36.73l40.96,51.67h-23.03L917.11,2.49h36.73Z"/>
      </g>
    </g>
    <g>
      <path class="d" d="M366.81,76.78c-2.05-1.45-6.35-3.8-9.3-5.4l3.2-4.4c2.75,1.35,7.2,3.5,9.4,4.85l-3.3,4.95Zm-8.6,18c2.65-3.75,6.5-9.95,9.5-15.75l4.35,4c-2.65,5.25-5.8,10.95-8.85,15.8l-5-4.05Zm10.75-31.65c-1.95-1.5-6.2-3.85-9.1-5.5l3.35-4.3c2.8,1.4,7.15,3.6,9.3,5l-3.55,4.8Zm22.15,9.75v6.3h10.2v19.95h-5.65v-1.8h-15.05v2.05h-5.35v-20.2h10.2v-6.3h-13.3v-5.7h13.3v-5.85c-3.3,.5-6.6,.85-9.75,1.15-.2-1.45-1-3.75-1.65-5.1,8.5-.85,17.85-2.5,23.35-4.7l4.6,4.7c-3.25,1.25-6.95,2.2-10.9,2.95v6.85h12.7v5.7h-12.7Zm4.55,11.7h-15.05v7.35h15.05v-7.35Z"/>
      <path class="d" d="M464.91,63.93s-.05,1.95-.05,2.65c-.45,20.45-.85,27.7-2.45,30-1.15,1.65-2.3,2.15-3.95,2.5-1.5,.3-3.8,.25-6.2,.2-.1-1.65-.75-4.05-1.75-5.7,2.2,.2,4.1,.25,5.05,.25,.75,0,1.25-.2,1.7-.85,1.05-1.35,1.55-7.45,1.85-23.6h-4.5c-.65,13.4-2.95,23.7-11.35,30.35-.75-1.2-2.2-2.85-3.5-3.95-7.2,.75-14.4,1.5-19.8,1.95l-.7-5c2.8-.2,6.3-.45,10.15-.7v-3h-8.8v-4.2h8.8v-1.95h-8.6v-15.45h8.6v-1.95h-9.85v-4.3h9.85v-2c-2.9,.2-5.75,.35-8.45,.4-.2-1.2-.75-3.05-1.3-4.2,7.4-.4,16.05-1.25,21.55-2.45l2.6,4.45c-2.65,.55-5.75,1-9,1.35v2.45h9.6v2.75h4.7c.05-3.3,.05-6.75,.05-10.45h5.7c0,3.65,0,7.15-.1,10.45h10.15Zm-39.4,9.45h3.9v-2.2h-3.9v2.2Zm3.9,5.8v-2.25h-3.9v2.25h3.9Zm5.4,12.4c2.85-.2,5.8-.45,8.7-.7,3.9-5.4,5.1-12.55,5.45-21.5h-4.55v-3.9h-9.6v1.95h8.85v15.45h-8.85v1.95h9.05v4.2h-9.05v2.55Zm3.9-18.2v-2.2h-3.9v2.2h3.9Zm-3.9,3.55v2.25h3.9v-2.25h-3.9Z"/>
      <path class="d" d="M500.66,84.03c-6.05,2.3-12.55,4.65-17.55,6.45l-2.45-5.7c1.9-.55,4.3-1.25,6.9-2.05v-19.2h-5.55v-5.5h17.1v5.5h-5.55v17.35l6.15-2,.95,5.15Zm6.6,5.5l4.6,3.25c-3.3,2.55-8.55,5.15-12.95,6.55-.8-1.15-2.4-2.95-3.6-4.05,4.05-1.25,9-3.7,11.55-5.75h-5.05v-26.4h7.85c.25-1.15,.45-2.35,.65-3.45h-10.55v-5h28.3v5h-11.05c-.4,1.2-.85,2.35-1.25,3.45h10.45v26.4h-18.95Zm.05-18.85h13.1v-3.15h-13.1v3.15Zm0,7.2h13.1v-3.2h-13.1v3.2Zm0,7.3h13.1v-3.2h-13.1v3.2Zm11.65,4.5c3.15,1.7,7.65,4.35,9.95,6.25l-4.7,3.5c-2.05-1.85-6.4-4.7-9.65-6.6l4.4-3.15Z"/>
      <path class="d" d="M584.21,55.38v43.45h-6.3v-3.1h-23.15v3.1h-6V55.38h35.45Zm-29.45,5.8v5.75h23.15v-5.75h-23.15Zm0,11.35v5.9h23.15v-5.9h-23.15Zm23.15,17.4v-5.9h-23.15v5.9h23.15Z"/>
    </g>
  </g>
</svg>