<?xml version="1.0" encoding="UTF-8"?>
<svg xmlns="http://www.w3.org/2000/svg" width="314" height="437.54" xmlns:xlink="http://www.w3.org/1999/xlink" viewBox="0 0 314 437.54">
  <defs>
    <style>
      .d {
        fill: #fff;
      }

      .e {
        stroke-width: .45px;
      }

      .e, .f {
        stroke: #fff;
      }

      .e, .f, .g, .h {
        stroke-miterlimit: 10;
      }

      .e, .i {
        fill: #fc462d;
      }

      .f {
        stroke-width: .83px;
      }

      .f, .h {
        fill: none;
      }

      .j {
        isolation: isolate;
      }

      .k {
        opacity: .35;
      }

      .l, .g {
        fill: #595757;
      }

      .m {
        mix-blend-mode: multiply;
        opacity: .14;
      }

      .g {
        stroke-width: .83px;
      }

      .g, .h {
        stroke: #9fa0a0;
      }

      .h {
        stroke-width: .82px;
      }
    </style>
  </defs>
  <g class="j">
    <g id="b" data-name="圖層 2">
      <g id="c" data-name="圖層 1">
        <rect class="e" x="181.57" y=".96" width="22.45" height="103.96"/>
        <g>
          <path class="d" d="M198.52,16.96c-.74,.29-1.5,.6-2.2,.83,.81,.29,1.76,.48,2.86,.57-.29,.29-.67,.91-.85,1.32-2.91-.39-4.72-1.44-5.8-3.36h-1.26v1.68l2.12-.41c-.03,.39-.03,.97,0,1.29-3,.66-3.49,.76-3.77,.92-.06-.36-.28-1.02-.46-1.3,.25-.11,.57-.38,.57-.99v-1.19h-.9c-.2,1.22-.6,2.45-1.34,3.42-.31-.25-1.01-.69-1.4-.85,1.22-1.5,1.36-3.6,1.36-5.06v-1.81h11.08v1.18h-9.5v.43h8.95v1.04h-8.96c-.01,.15-.03,.31-.03,.48h9.9v1.18h-1.12l.76,.64Zm-.56-5.38h-10.42V7.47h2.83v-.85h1.62v.85h1.34v-.85h1.64v.85h2.98v4.1Zm-8.89-2.54h1.3v-.56h-1.3v.56Zm0,1.51h1.3v-.56h-1.3v.56Zm2.93-2.07v.56h1.34v-.56h-1.34Zm0,1.51v.56h1.34v-.56h-1.34Zm2.12,6.32c.24,.31,.56,.59,.92,.81,.55-.2,1.18-.52,1.72-.81h-2.65Zm2.25-7.83h-1.39v.56h1.39v-.56Zm0,1.51h-1.39v.56h1.39v-.56Z"/>
          <path class="d" d="M198.97,23.46h-1.51l.67,.88c-.43,.14-.95,.27-1.51,.36v.74h2v1.05h-1.99c.62,.35,1.98,1.25,2.33,1.5l-.71,1.08c-.35-.34-1.02-.88-1.62-1.34v1.42h-1.39v-1.58c-.42,.63-.91,1.18-1.42,1.55-.21-.32-.62-.77-.91-1.01,.63-.35,1.29-.95,1.75-1.61h-1.11v-1.05h1.68v-.56c-.43,.04-.85,.07-1.25,.08-.04-.27-.18-.64-.32-.91,1.25-.1,2.73-.29,3.66-.6h-8.92v2.82c0,.53,0,1.11-.03,1.72,.59-.35,1.18-.92,1.61-1.53h-1.19v-1.04h1.61v-.5c-.42,.04-.84,.07-1.2,.1-.04-.25-.18-.63-.32-.9,1.2-.11,2.65-.32,3.46-.64l.74,.9c-.38,.14-.83,.25-1.32,.34v.71h1.36v1.04h-1.36v.03c.36,.21,1.23,.76,1.47,.94l-.8,1.01c-.14-.17-.41-.41-.67-.66v1.36h-1.36v-1.39c-.36,.52-.78,.97-1.19,1.29-.2-.29-.56-.67-.84-.92-.07,2.12-.31,4.64-.97,6.42-.32-.24-1.04-.62-1.43-.76,.81-2.16,.87-5.31,.87-7.49v-4.33h12.13v1.5Zm-9.51,6h8.33v5.07h-1.72v-.43h-4.97v.45h-1.64v-5.08Zm1.64,1.15v.66h4.97v-.66h-4.97Zm4.97,2.33v-.64h-4.97v.64h4.97Z"/>
          <path class="d" d="M198.98,47.08h-5.48v6.32h-1.82v-6.32h-5.39v-1.74h5.39v-5.01h1.82v5.01h5.48v1.74Z"/>
          <path class="d" d="M198.8,65.16v1.92h-12.44v-1.92h12.44Zm-1.16-8.08v1.83h-10.11v-1.83h10.11Z"/>
          <path class="d" d="M197.33,80.95c0,1.01-.24,1.48-.88,1.76-.67,.29-1.65,.32-3.1,.32-.1-.49-.43-1.29-.7-1.75,.98,.06,2.16,.04,2.46,.04,.34,0,.45-.11,.45-.41v-2.03h-6c-.36,1.57-1.06,3.1-2.37,4.19-.25-.35-.92-.97-1.29-1.21,2.12-1.81,2.31-4.48,2.31-6.61v-4.61h9.1v10.3Zm-1.76-3.67v-1.71h-5.62c-.01,.53-.04,1.12-.1,1.71h5.71Zm-5.62-5v1.71h5.62v-1.71h-5.62Z"/>
          <path class="d" d="M198.98,91.6h-5.48v6.32h-1.82v-6.32h-5.39v-1.74h5.39v-5.01h1.82v5.01h5.48v1.74Z"/>
        </g>
        <g class="k">
          <g>
            <path class="d" d="M127.82,18.7c0,2.34-.22,4.27-.67,5.79-.45,1.52-1.06,2.72-1.84,3.58-.78,.87-1.67,1.48-2.66,1.83-1,.36-2.04,.53-3.13,.53s-2.13-.2-3.13-.6c-1-.4-1.88-1.05-2.66-1.96-.78-.91-1.39-2.11-1.84-3.61-.45-1.5-.67-3.35-.67-5.57V0h16.62V18.7Zm-11.42-12.2v11.94c0,.97,.06,1.79,.19,2.47,.13,.67,.32,1.22,.58,1.62,.26,.41,.58,.7,.97,.88,.39,.18,.84,.27,1.36,.27s.97-.09,1.36-.27c.39-.18,.71-.48,.97-.88,.26-.41,.45-.95,.58-1.62,.13-.68,.19-1.5,.19-2.47V6.49h-6.23Z"/>
            <path class="d" d="M111.2,30.69l16.62,11.14v7.22l-16.62,11.24v-7.14l14.88-9.63v3.87l-14.88-9.55v-7.14Zm2.52,5.82h3.89v17.76h-3.89v-17.76Z"/>
            <path class="d" d="M127.82,83.79l-12.38-10.52h-4.23v-6.49h4.23l12.38-10.52v7.66l-10.78,8.54v-4.8l10.78,8.46v7.66Z"/>
            <path class="d" d="M118.99,92.62h4.93v11.27h-12.72v-6.23h7.79v-5.04Z"/>
          </g>
        </g>
        <g>
          <path class="d" d="M164,5.01h-5.27c.79,.64,1.61,1.37,2.1,1.92l-2.19,1.92h2.5v7.71h-9.66v1.8h11.15s-.03,.88-.09,1.31c-.3,4.05-.67,6.03-1.46,6.83-.64,.73-1.37,.97-2.32,1.07-.85,.09-2.29,.12-3.87,.06-.06-1.07-.43-2.41-1.01-3.29,1.28,.12,2.56,.15,3.11,.12,.46,0,.76-.03,1.04-.27,.3-.3,.55-1.13,.73-2.8h-7.28v7.53h-3.56v-5.94c-2.56,2.5-5.94,4.57-9.26,5.82-.52-.88-1.52-2.19-2.29-2.86,3.17-.94,6.46-2.62,8.84-4.54h-6.55c.46-2.07,.91-5.24,1.13-7.8h8.14v-1.74h-9.26v-2.99h6.22c-.67-.85-1.86-1.98-2.8-2.8l1.16-1.01h-1.8c-.97,1.52-2.07,2.89-3.11,3.93-.52-.61-1.74-1.89-2.44-2.44,1.8-1.58,3.47-3.99,4.42-6.4l3.2,.91c-.15,.4-.33,.82-.55,1.22h6.7v2.77h-4.36c.82,.7,1.62,1.46,2.07,2.01l-1.95,1.8h12.86c-.67-.82-1.98-1.92-2.96-2.71l1.31-1.13h-2.5c-.73,1.16-1.55,2.16-2.38,2.96-.61-.61-1.92-1.65-2.71-2.1,1.68-1.43,3.05-3.56,3.81-5.73l3.29,.82c-.15,.43-.33,.88-.52,1.31h8.38v2.74Zm-16.09,11.55h-4.97c-.09,.61-.15,1.22-.24,1.8h5.21v-1.8Zm9.63-4.72h-6.06v1.74h6.06v-1.74Z"/>
          <path class="d" d="M164.06,49.57v3.93h-28.03v-3.93h28.03Z"/>
          <path class="d" d="M152.6,89.68c2.13,4.85,6.03,8.41,11.98,9.96-.88,.76-1.98,2.35-2.5,3.38-5.73-1.83-9.42-5.36-11.98-10.36-1.68,4.05-5.12,7.89-11.98,10.45-.49-.91-1.58-2.44-2.38-3.14,7.04-2.5,10.03-6.43,11.27-10.3h-10.21v-3.72h10.97c.06-.82,.09-1.58,.09-2.35v-3.08h-9.96v-3.72h24.13v3.72h-10.36v3.14c0,.73-.03,1.49-.06,2.29h11.61v3.72h-10.63Z"/>
        </g>
        <g>
          <image class="m" width="314" height="90" transform="translate(0 134.54)" xlink:href="資產 11.png"/>
          <path class="i" d="M303.51,214.13H5.11v-63.57c0-6.08,4.93-11.01,11.01-11.01H292.5c6.08,0,11.01,4.93,11.01,11.01v63.57Z"/>
        </g>
        <g>
          <image class="m" width="314" height="228" transform="translate(0 209.54)" xlink:href="資產 12.png"/>
          <path class="d" d="M5.11,214.84H303.51v201.23c0,6.08-4.93,11.01-11.01,11.01H16.12c-6.08,0-11.01-4.93-11.01-11.01V214.84Z"/>
        </g>
        <g>
          <path class="d" d="M63.48,183.6h-3.67v1.42h-1.52v-12.49h5.18v11.06Zm-3.67-9.66v3.36h2.13v-3.36h-2.13Zm2.13,8.27v-3.53h-2.13v3.53h2.13Zm7.65-7.45v1.91h3.68v1.36h-1.43v1.61h1.89v1.37h-1.89v4.12c0,.8-.19,1.22-.78,1.44-.62,.25-1.53,.27-2.89,.27-.07-.42-.32-1.04-.55-1.46,.99,.03,1.96,.03,2.24,.03,.28-.02,.37-.08,.37-.32v-4.08h-6.4v-1.37h6.4v-1.61h-5.76v-1.36h3.49v-1.91h-4.18v-1.39h4.18v-1.91h1.62v1.91h4.21v1.39h-4.21Zm-3.49,6.66c.78,.84,1.74,1.99,2.2,2.76l-1.44,.82c-.41-.75-1.34-1.99-2.11-2.88l1.36-.7Z"/>
          <path class="d" d="M82.02,177.98v8.87h-1.62v-14.7h6.5v5.83h-4.88Zm0-4.65v1.16h3.33v-1.16h-3.33Zm3.33,3.5v-1.24h-3.33v1.24h3.33Zm9.6,8.08c0,.89-.19,1.39-.83,1.66-.62,.25-1.59,.27-3.07,.27-.07-.42-.3-1.09-.51-1.52h-4.76v.84h-1.5v-7.01h6.61v6.13c.86,.03,1.71,.02,1.99,.02,.32-.02,.41-.1,.41-.38v-6.88h-5.01v-5.86h6.66v12.75Zm-9.16-4.6v1.31h3.58v-1.31h-3.58Zm3.58,3.83v-1.39h-3.58v1.39h3.58Zm.49-10.81v1.16h3.44v-1.16h-3.44Zm3.44,3.53v-1.27h-3.44v1.27h3.44Z"/>
        </g>
        <g>
          <path class="d" d="M177.78,179.22c-.67-.6-2.08-1.37-3.23-1.84l.86-1.17c1.13,.42,2.56,1.14,3.28,1.69l-.92,1.32Zm1.69,2.11c-.93,1.74-2.1,3.73-3.15,5.32l-1.38-1.05c.93-1.27,2.29-3.4,3.31-5.31l1.22,1.04Zm-1.13-6.46c-.6-.64-1.94-1.51-3.01-2.04l.92-1.14c1.08,.5,2.43,1.32,3.08,1.94l-.99,1.24Zm2.64,4.52h1.48v1.69c0,1.84-.28,4.07-2.54,5.71-.25-.32-.79-.82-1.15-1.02,1.99-1.41,2.2-3.25,2.2-4.72v-1.66Zm8.32,0c-.21-.32-.51-.72-.85-1.14-6.86,.43-7.7,.5-8.27,.72-.09-.32-.35-1.05-.53-1.46,.39-.08,.79-.47,1.3-1.05,.25-.25,.69-.77,1.2-1.47h-2.64v-1.41h3.67c.42-.67,.88-1.39,1.23-2.09l1.6,.6c-.3,.5-.63,1-.95,1.49h5.34v1.41h-6.36c-.65,.84-1.3,1.61-1.96,2.31l5.38-.3c-.39-.43-.76-.87-1.07-1.27l1.23-.67c.99,1.1,2.34,2.63,3.01,3.53l-1.34,.8Zm-5.27,.13h1.44v6.61h-1.44v-6.61Zm5.71,5.76c.21,0,.58-.03,.79-.1,.02,.38,.07,.89,.12,1.21-.23,.08-.58,.1-.9,.1h-1.04c-1.38,0-1.64-.55-1.64-1.89v-5.21h1.52v5.24c0,.49,.04,.65,.26,.65h.88Z"/>
          <path class="d" d="M201.81,181.96c-.23-.52-.76-1.44-1.23-2.24v7.15h-1.55v-6.95c-.58,1.61-1.3,3.16-2.08,4.17-.12-.44-.51-1.12-.76-1.52,.92-1.14,1.89-3.13,2.45-4.9h-2.19v-1.44h2.57v-2.38c-.65,.12-1.3,.22-1.92,.3-.07-.33-.25-.87-.44-1.21,1.76-.32,3.75-.79,4.97-1.34l.92,1.27c-.58,.23-1.27,.42-1.97,.6v2.75h2.13v1.44h-2.13v.35c.48,.54,1.85,2.26,2.15,2.68l-.92,1.27Zm10.66,3.13v1.39h-10.08v-1.39h4.37v-1.92h-3.44v-1.34h3.44v-1.72c-.99,.1-1.99,.17-2.91,.2-.02-.33-.23-.87-.39-1.21,2.47-.15,5.38-.45,7.05-.92l1.04,1.17c-.9,.23-2.01,.42-3.17,.57v1.91h3.38v1.34h-3.38v1.92h4.09Zm-.9-7.35h-8.12v-5.46h8.12v5.46Zm-1.59-4.13h-5v2.81h5v-2.81Z"/>
          <path class="d" d="M233.33,184.94c0,.89-.19,1.37-.85,1.62s-1.71,.27-3.19,.27c-.07-.45-.33-1.16-.58-1.59,1.07,.05,2.22,.03,2.54,.03,.32-.02,.42-.1,.42-.35v-3.31c-.37,.3-.9,.92-1.16,1.34-2.08-1.07-3.37-2.79-4.12-5-.76,2.33-2.12,4.03-4.28,5.11-.19-.33-.65-.87-1-1.19v4.99h-1.66v-11.67h6.31c-.07-.52-.12-1.07-.18-1.62h-3.05v-1.37h4.48c.05,1.07,.14,2.08,.32,3h6.01v9.76Zm-12.23-3.18c2.13-1.02,3.45-2.69,4.07-5.05h-4.07v5.05Zm6.57-5.05c.67,2.28,1.89,3.95,4,4.89v-4.89h-4Z"/>
          <path class="d" d="M249.39,177.02c-.09,.15-.19,.28-.3,.42,1.97,2.04,4.39,3.31,7.17,4.3-.39,.33-.83,.85-1.06,1.29-.71-.28-1.39-.62-2.04-.94v4.7h-1.67v-.47h-6.66v.52h-1.6v-4.55c-.69,.35-1.41,.69-2.13,.95-.23-.38-.67-.92-1.04-1.26,3.22-1.09,6.27-3.08,7.91-5.56l1.43,.59Zm-6.96-.84h-1.6v-3.25h6.64c-.18-.42-.39-.85-.6-1.24l1.69-.35c.3,.47,.63,1.09,.85,1.59h6.12v3.25h-1.66v-1.84h-11.44v1.84Zm4.25-.75c-1.13,1.46-2.91,2.85-4.51,3.7-.23-.28-.79-.9-1.13-1.17,1.55-.7,3.15-1.84,4.11-3.03l1.53,.5Zm4.81,9.52v-2.34h-6.66v2.34h6.66Zm.16-3.72c-1.23-.75-2.34-1.62-3.42-2.71-.92,1-2.01,1.92-3.19,2.71h6.61Zm-1.04-6.29c1.53,.87,3.52,2.21,4.49,3.15l-1.18,1c-.92-.92-2.85-2.33-4.44-3.26l1.13-.89Z"/>
        </g>
        <g>
          <line class="f" x1="145.78" y1="150.2" x2="145.78" y2="207.88"/>
          <line class="h" x1="145.78" y1="218.1" x2="145.78" y2="414.96"/>
        </g>
        <line class="g" x1="160.87" y1="267.5" x2="270.3" y2="267.5"/>
        <line class="g" x1="160.87" y1="320.06" x2="270.3" y2="320.06"/>
        <line class="g" x1="160.87" y1="373.34" x2="270.3" y2="373.34"/>
        <g>
          <path class="l" d="M166.78,247.21v7.65h-1.38v-12.51h5.57v4.86h-4.18Zm0-3.88v.95h2.88v-.95h-2.88Zm2.88,2.91v-1.04h-2.88v1.04h2.88Zm3.98,5.3v3.06h-1.25v-3.06h-1.81c-.12,.95-.6,2.41-1.97,3.28-.19-.24-.61-.6-.9-.78,1.11-.64,1.53-1.71,1.65-2.49h-1.71v-1.1h1.76v-1.35h-1.49v-1.05h7.27v1.05h-1.56v1.35h1.86v1.1h-1.86Zm-1.25-1.1v-1.35h-1.79v1.35h1.79Zm5.42,2.79c0,.73-.15,1.11-.65,1.34-.48,.21-1.23,.26-2.35,.24-.04-.36-.24-.96-.45-1.31,.76,.01,1.53,.01,1.77,.01,.23-.01,.3-.08,.3-.3v-5.99h-4.3v-4.89h5.68v10.89Zm-4.35-9.9v.95h2.97v-.95h-2.97Zm2.97,2.94v-1.07h-2.97v1.07h2.97Z"/>
          <path class="l" d="M191.98,246.21c1.68,.87,3.43,1.91,4.42,2.68l-.81,1.03c-1.12-.97-3.38-2.31-5.31-3.31v2.28h-1.44v-2.32c-1.41,1.4-3.39,2.57-5.28,3.21-.21-.33-.65-.84-.96-1.13,1.74-.48,3.57-1.38,4.88-2.44h-4.51v-1.2h5.88v-1.27c-1.46,.13-2.92,.21-4.3,.26-.03-.31-.21-.83-.35-1.11,3.32-.14,7.19-.48,9.38-1.04l1.02,1.07c-1.23,.29-2.72,.51-4.31,.7v1.4h5.9v1.2h-4.2Zm-6.84,3.02h9.09v5.62h-1.44v-.46h-6.27v.47h-1.38v-5.63Zm1.38,1.04v1.05h6.27v-1.05h-6.27Zm6.27,3.08v-1.08h-6.27v1.08h6.27Z"/>
          <path class="l" d="M206.11,249.49l-1.27,1.04c-.95-1.1-2.24-2.32-3.29-3.16l1.23-1.01c1.08,.83,2.48,2.17,3.33,3.14Z"/>
          <path class="l" d="M213.98,248.25c-.59-.47-1.8-1.12-2.76-1.54l.74-1c.95,.36,2.17,.97,2.79,1.44l-.76,1.1Zm-2.27,5.54c.81-1.07,1.96-2.89,2.83-4.52l1.02,.88c-.78,1.48-1.77,3.19-2.66,4.53l-1.2-.9Zm1.11-11.86c.94,.37,2.19,1,2.82,1.45l-.81,1.1c-.58-.5-1.82-1.17-2.79-1.58l.78-.97Zm10.65,12.91c-.12-.38-.33-.84-.62-1.34-5.29,.61-5.97,.73-6.42,.93-.07-.29-.31-.96-.48-1.33,.31-.07,.6-.4,.96-.93,.31-.4,1.17-1.78,1.84-3.29h-3.09v-1.25h3.71v-2.31h-3.08v-1.25h3.08v-2.29h1.42v2.29h3.2v1.25h-3.2v2.31h3.76v1.25h-4.14c-.69,1.41-1.54,2.81-2.38,3.95l4.17-.43c-.36-.57-.78-1.14-1.17-1.67l1.12-.51c1.04,1.24,2.13,2.89,2.56,4.02l-1.26,.6Z"/>
          <path class="l" d="M237.1,242.12c-.08,.09-.13,.19-.22,.27,1.39,1.23,3.93,2.31,6.27,2.78-.29,.23-.67,.7-.88,1.01-.36-.1-.75-.21-1.12-.34v3.69h-10.14v-3.59c-.38,.13-.74,.24-1.11,.34-.12-.24-.51-.78-.75-1.01,2.71-.66,5.37-1.9,6.74-3.56l1.23,.41Zm3.97,3.71c-.81-.27-1.63-.6-2.4-1.01v.41h-5.19v-.34c-.69,.37-1.42,.67-2.17,.94h9.76Zm-9.22,4.28h8.55v4.69h-1.42v-.38h-5.75v.44h-1.38v-4.75Zm2.04-3.32c.33,.48,.66,1.14,.76,1.57l-.99,.31h1.77v-1.97h-3.25v1.97h1.44c-.11-.44-.39-1.1-.71-1.6l.97-.29Zm-.66,4.23v.78h5.75v-.78h-5.75Zm5.75,2.49v-.8h-5.75v.8h5.75Zm-1.18-9.19c-.62-.36-1.17-.77-1.65-1.2-.48,.43-1.05,.84-1.63,1.2h3.29Zm2.11,2.38h-3.33v1.97h1.68l-.93-.27c.27-.46,.58-1.18,.75-1.67l1.17,.31c-.33,.61-.66,1.21-.93,1.62h1.59v-1.97Z"/>
          <path class="l" d="M249.28,247.21v7.65h-1.38v-12.51h5.57v4.86h-4.18Zm0-3.88v.95h2.88v-.95h-2.88Zm2.88,2.91v-1.04h-2.88v1.04h2.88Zm3.98,5.3v3.06h-1.25v-3.06h-1.81c-.12,.95-.6,2.41-1.97,3.28-.19-.24-.61-.6-.9-.78,1.11-.64,1.53-1.71,1.65-2.49h-1.71v-1.1h1.76v-1.35h-1.49v-1.05h7.27v1.05h-1.56v1.35h1.86v1.1h-1.86Zm-1.25-1.1v-1.35h-1.79v1.35h1.79Zm5.42,2.79c0,.73-.15,1.11-.65,1.34-.48,.21-1.23,.26-2.35,.24-.04-.36-.24-.96-.45-1.31,.76,.01,1.53,.01,1.77,.01,.23-.01,.3-.08,.3-.3v-5.99h-4.3v-4.89h5.68v10.89Zm-4.35-9.9v.95h2.97v-.95h-2.97Zm2.97,2.94v-1.07h-2.97v1.07h2.97Z"/>
          <path class="l" d="M270.14,250.5c-.21-.43-.72-1.23-1.17-1.88v6.23h-1.35v-5.77c-.56,1.3-1.23,2.51-1.92,3.32-.14-.36-.46-.9-.67-1.23,.88-.97,1.84-2.67,2.4-4.18h-2.21v-1.24h2.4v-1.91c-.65,.11-1.29,.2-1.89,.29-.04-.29-.24-.76-.39-1.03,1.68-.26,3.6-.67,4.77-1.15l.79,1.08c-.57,.21-1.23,.38-1.93,.54v2.18h2.1v1.24h-2.1v.2c.45,.44,1.73,1.9,2.01,2.27l-.84,1.04Zm7.04,.7v3.65h-1.38v-3.42l-4.72,.75-.21-1.27,4.94-.78v-8.35h1.38v8.14l1.63-.26,.21,1.24-1.84,.3Zm-3.27-1.92c-.49-.61-1.59-1.52-2.5-2.12l.88-.77c.9,.57,2.04,1.42,2.56,2.02l-.95,.87Zm.38-3.75c-.45-.6-1.47-1.47-2.32-2.07l.91-.76c.86,.56,1.89,1.38,2.39,1.98l-.98,.84Z"/>
        </g>
        <g>
          <path class="l" d="M177.7,292.35c-.29,2.07-.81,3.93-1.62,5.49,.66,1.07,1.49,1.91,2.48,2.49-.35,.27-.81,.8-1.05,1.18-.89-.6-1.62-1.41-2.24-2.37-.74,.98-1.63,1.8-2.76,2.37-.18-.29-.48-.63-.79-.91h-1.16v-.6h-2.54v.87h-1.2v-3.49c-.24,1.25-.63,2.49-1.25,3.51-.23-.24-.76-.64-1.07-.77,1.25-2.05,1.37-4.95,1.37-7.01v-3.65c1.8-.19,3.92-.51,5.12-.9l1.06,.96c-1.35,.41-3.2,.7-4.89,.88v.78h4.62v3.28c.96-1.48,1.48-3.71,1.77-6l1.39,.19c-.12,.84-.27,1.67-.46,2.46h3.97v1.24h-.76Zm-5.89,7.91c1.12-.56,2.02-1.4,2.73-2.45-.48-1.01-.87-2.14-1.17-3.34-.22,.47-.46,.9-.75,1.28-.21-.26-.75-.74-1.06-.97v-.03h-4.42c-.03,.38-.06,.76-.11,1.15h4.79v4.35Zm-4.63-8.01v1.42h3.38v-1.42h-3.38Zm3.39,6.68v-1.95h-2.54v1.95h2.54Zm3.62-6.58l-.06,.19c.27,1.37,.68,2.68,1.19,3.85,.54-1.17,.9-2.54,1.15-4.03h-2.28Z"/>
          <path class="l" d="M187.94,291.84h-5.17v-1.05h5.17v1.05Zm-.42,1.82h-4.39v-1.03h4.39v1.03Zm-4.38,.9h4.4v1.03h-4.4v-1.03Zm4.37,6.16h-3.15v.6h-1.19v-4.79h4.33v4.19Zm-3.15-3.13v2.07h1.95v-2.07h-1.95Zm.81-6.84c-.12-.51-.45-1.32-.72-1.94l1.17-.33c.3,.58,.64,1.37,.79,1.87l-1.25,.4Zm10.48,9.49c0,.58-.13,.9-.57,1.07-.42,.19-1.1,.2-2.03,.19-.06-.31-.22-.77-.39-1.07,.63,.03,1.24,.03,1.42,.01,.19,0,.25-.06,.25-.21v-.94h-4.4c-.15,.87-.48,1.72-1.08,2.38-.2-.24-.71-.71-.98-.86,.88-1.03,.98-2.42,.98-3.54v-2.56h6.78v5.53Zm.79-7.25v1h-8.37v-1h3.42v-.8h-2.86v-.94h2.86v-.73h-3.22v-.97h3.22v-1.1h1.35v1.1h3.43v.97h-3.43v.73h3.15v.94h-3.15v.8h3.6Zm-2.1,5.4v-.88h-4.21c0,.27-.01,.58-.04,.88h4.26Zm-4.21-2.66v.87h4.21v-.87h-4.21Z"/>
          <path class="l" d="M206.03,291.29c-.43,1.05-1.02,2.09-1.72,3.02,.58,.53,1.65,1.57,1.92,1.85l-.81,1.11c-.29-.41-.83-1.05-1.32-1.61v5.84h-1.29v-5.49c-.57,.56-1.15,1.04-1.74,1.41-.09-.37-.35-1.05-.54-1.31,1.48-.88,2.97-2.42,3.85-4.08h-3.51v-1.2h2.71c-.27-.51-.79-1.27-1.25-1.82l1.08-.58c.48,.56,1.05,1.31,1.32,1.8l-1.04,.61h1.38l.22-.06,.72,.5Zm7.89-.71v7.52h-1.32v-.54h-1.79v3.93h-1.37v-3.93h-1.75v.67h-1.27v-7.65h3.03v-2.15h1.37v2.15h3.11Zm-6.23,1.18v1.71h1.75v-1.71h-1.75Zm1.75,4.63v-1.75h-1.75v1.75h1.75Zm1.37-4.63v1.71h1.79v-1.71h-1.79Zm1.79,4.63v-1.75h-1.79v1.75h1.79Z"/>
          <path class="l" d="M223.6,297.27c-.29-.4-.84-1.05-1.35-1.62v5.87h-1.33v-5.54c-.62,.57-1.26,1.07-1.89,1.47-.09-.37-.38-1.07-.57-1.31,1.56-.87,3.13-2.44,4.08-4.09h-3.66v-1.2h2.75c-.27-.51-.77-1.21-1.25-1.74l1.02-.63c.54,.54,1.12,1.28,1.37,1.78l-.88,.58h1.39l.23-.06,.75,.5c-.44,1.07-1.07,2.09-1.79,3.01,.58,.53,1.69,1.58,2,1.88l-.86,1.1Zm6.13-2.11c.24,2.95,.71,4.93,1.32,4.93,.24,0,.36-.7,.4-2.2,.27,.29,.75,.54,1.1,.69-.18,2.19-.6,2.78-1.62,2.78-1.54,0-2.24-2.59-2.52-6.2h-2.34v4.58l2.22-.64c.01,.36,.09,.86,.17,1.15-2.93,.93-3.41,1.14-3.69,1.37-.17-.33-.55-.91-.78-1.17,.3-.18,.74-.65,.74-1.28v-9.34h.01c2.24-.27,4.79-.74,6.33-1.21l.97,1.08c-.72,.2-1.56,.38-2.44,.55-.01,1.28,0,2.52,.06,3.66h2.57v1.24h-2.49Zm-1.41-1.24c-.06-1.1-.09-2.24-.1-3.43-.72,.11-1.44,.21-2.15,.3v3.13h2.25Z"/>
          <path class="l" d="M249.04,301.33c-.22-.41-.54-.93-.9-1.48-8.23,.6-9.17,.66-9.78,.9-.09-.26-.33-.96-.51-1.33,.53-.1,1.11-.44,2.07-1.05,.58-.36,1.86-1.25,3.25-2.41-3.54,.23-4.09,.3-4.46,.43-.08-.27-.3-.94-.48-1.31,.36-.07,.67-.33,1.09-.67,.42-.34,1.62-1.46,2.54-2.68h-4.85v-1.3h6.02c-.29-.51-.66-1.13-.99-1.61l1.29-.43c.48,.64,1.02,1.47,1.29,2.02l-.04,.02h5.55v1.3h-7.21l.63,.31c-.88,1.07-1.92,2.1-2.96,2.95l3.96-.2c.67-.61,1.35-1.27,1.95-1.92l1.3,.84c-2.14,2.15-4.53,3.99-6.85,5.43l6.4-.38c-.43-.6-.92-1.18-1.35-1.7l1.2-.6c1.18,1.28,2.47,3.01,3.1,4.13l-1.28,.74Z"/>
          <path class="l" d="M259.64,297.16c-.21-.43-.72-1.23-1.17-1.88v6.23h-1.35v-5.77c-.56,1.3-1.23,2.51-1.92,3.32-.14-.36-.46-.9-.67-1.22,.88-.97,1.84-2.67,2.4-4.18h-2.21v-1.24h2.4v-1.91c-.65,.12-1.29,.2-1.89,.29-.04-.29-.24-.76-.39-1.03,1.68-.26,3.6-.67,4.77-1.15l.79,1.08c-.57,.21-1.23,.38-1.93,.54v2.18h2.1v1.24h-2.1v.2c.45,.44,1.73,1.89,2.01,2.27l-.84,1.04Zm7.04,.7v3.65h-1.38v-3.42l-4.72,.76-.21-1.27,4.94-.78v-8.35h1.38v8.14l1.63-.26,.21,1.24-1.84,.3Zm-3.27-1.92c-.49-.61-1.59-1.52-2.5-2.12l.88-.77c.9,.57,2.04,1.43,2.56,2.02l-.95,.87Zm.38-3.75c-.45-.6-1.47-1.47-2.32-2.07l.91-.76c.86,.56,1.89,1.38,2.39,1.98l-.98,.84Z"/>
        </g>
        <g>
          <path class="l" d="M190.37,347.22c-.29,1.27-.69,2.61-1.21,3.68,.27,.14,.6,.38,1.08,.67,1.05,.6,2.41,.68,4.17,.68s4.35-.13,6.01-.33c-.16,.36-.39,1.01-.4,1.37-1.17,.07-3.92,.16-5.67,.16-1.96,0-3.25-.16-4.35-.75-.6-.33-1.14-.83-1.47-.83s-.84,.93-1.26,1.8l-.94-1.23c.52-.64,1.05-1.2,1.51-1.48,.41-.77,.75-1.8,.99-2.76h-1.92c.36-.84,.81-2,1.18-3.11h-1.51v-1.2h3.24c-.33,1.01-.75,2.18-1.12,3.16h.84l.21-.06,.63,.23Zm-2.24-3.93c-.18-.63-.54-1.62-.78-2.38l1.21-.36c.29,.74,.63,1.7,.83,2.31l-1.26,.43Zm5.97,1.04c.09-.3,.17-.63,.24-.94h-3.78v-1.08h2.27c-.2-.4-.54-.94-.84-1.33l1.1-.43c.39,.46,.82,1.1,1,1.5l-.6,.26h2.54c.38-.53,.81-1.25,1.04-1.78l1.37,.36c-.35,.48-.69,1-1.02,1.43h2.62v1.08h-4.17c-.13,.33-.3,.64-.45,.94h3.41v6.73h-7.06v-6.73h2.35Zm3.34,.98h-4.39v.98h4.39v-.98Zm0,1.87h-4.39v1h4.39v-1Zm0,1.9h-4.39v1.01h4.39v-1.01Z"/>
          <path class="l" d="M207.49,349.06c-1.5,.73-3.12,1.5-4.38,2.07l-.54-1.33c.54-.2,1.21-.47,1.95-.77v-4.25h-1.65v-1.25h1.65v-2.88h1.29v2.88h1.51v1.25h-1.51v3.71c.45-.2,.92-.4,1.38-.6l.3,1.17Zm2.91-1.68c-.17,.3-.34,.58-.55,.86h6.27s-.01,.33-.03,.5c-.24,2.85-.46,3.96-.87,4.39-.25,.27-.54,.36-.9,.4-.34,.03-.9,.04-1.5,.01-.02-.31-.13-.78-.32-1.07,.51,.06,.98,.06,1.17,.06,.23,0,.35-.01,.47-.16,.22-.24,.42-1.05,.6-3.06h-.9c-.6,1.65-1.77,3.43-3.01,4.33-.22-.24-.66-.56-1-.74,1.17-.74,2.22-2.15,2.85-3.59h-1.18c-.81,1.41-2.24,2.92-3.57,3.72-.21-.27-.6-.6-.93-.8,1.18-.6,2.42-1.74,3.24-2.92h-1.26c-.57,.6-1.2,1.11-1.84,1.53-.19-.21-.67-.64-.94-.83,1.12-.61,2.14-1.54,2.83-2.62h-1.92v-1.13h9.37v1.13h-6.06Zm5.01-1.81h-6.93v-4.67h6.93v4.67Zm-1.29-3.72h-4.38v.93h4.38v-.93Zm0,1.82h-4.38v.94h4.38v-.94Z"/>
          <path class="l" d="M223.91,341c-.44,1.03-.98,2.05-1.59,3.02v9.52h-1.38v-7.62c-.48,.6-1.01,1.14-1.53,1.61-.15-.33-.57-1.05-.83-1.37,1.59-1.33,3.06-3.41,3.95-5.57l1.38,.41Zm5.17,4.32c.9,2.14,2.34,4.28,3.82,5.44-.34,.26-.81,.71-1.05,1.07-1.33-1.2-2.56-3.14-3.5-5.2v6.96h-1.38v-6.6c-.96,1.98-2.22,3.76-3.58,4.93-.22-.33-.72-.8-1.03-1.05,1.59-1.17,3.07-3.35,3.99-5.54h-3.38v-1.3h4v-3.31h1.38v3.31h4.12v1.3h-3.4Z"/>
          <path class="l" d="M235.12,352.33c.55-.78,1.12-2,1.47-2.91l1.21,.48c-.36,.93-.87,2.18-1.41,3.01l-1.27-.58Zm6.39-3.72h-4.19v-6.83h3.46c.18-.44,.39-1.03,.48-1.44l1.67,.24c-.21,.43-.46,.84-.66,1.2h4.27v6.83h-4.57c.69,.61,1.44,1.44,1.8,2.01l-1.16,.66c-.33-.63-1.15-1.57-1.9-2.22l.79-.44Zm2.29,3.52c.75,0,.88-.2,.96-1.6,.31,.21,.9,.41,1.29,.48-.2,1.88-.62,2.32-2.16,2.32h-3.15c-1.89,0-2.37-.37-2.37-1.65v-2.17h1.39v2.14c0,.4,.17,.47,1.08,.47h2.96Zm-5.13-8.38h6.48v-.93h-6.48v.93Zm0,1.9h6.48v-.93h-6.48v.93Zm0,1.92h6.48v-.94h-6.48v.94Zm8.29,1.61c.67,.88,1.41,2.08,1.67,2.89l-1.32,.56c-.22-.81-.92-2.04-1.58-2.96l1.23-.49Z"/>
        </g>
        <line class="g" x1="29.8" y1="267.5" x2="125.39" y2="267.5"/>
        <line class="g" x1="29.8" y1="320.06" x2="125.39" y2="320.06"/>
        <line class="g" x1="29.8" y1="373.34" x2="125.39" y2="373.34"/>
        <g>
          <path class="l" d="M54.64,247.06c0-3.63,1.4-5.4,3.57-5.4s3.57,1.78,3.57,5.4-1.41,5.47-3.57,5.47-3.57-1.82-3.57-5.47Zm5.49,0c0-3.01-.79-4.1-1.92-4.1s-1.92,1.1-1.92,4.1,.8,4.18,1.92,4.18,1.92-1.14,1.92-4.18Z"/>
          <path class="l" d="M65.44,250.4c.44,.47,1.11,.78,1.81,.78,1.33,0,2.49-1.03,2.6-4.02-.65,.76-1.59,1.23-2.43,1.23-1.84,0-3.09-1.1-3.09-3.29,0-2.08,1.5-3.45,3.28-3.45,2.12,0,3.83,1.62,3.83,5.09,0,4.13-1.98,5.79-4.11,5.79-1.27,0-2.17-.48-2.82-1.11l.93-1.01Zm4.38-4.47c-.17-2.07-.99-3.01-2.19-3.01-.94,0-1.69,.81-1.69,2.18s.63,2.11,1.79,2.11c.67,0,1.44-.37,2.1-1.28Z"/>
          <path class="l" d="M79.09,245.79c0-.67,.51-1.17,1.15-1.17s1.16,.5,1.16,1.17-.51,1.14-1.16,1.14-1.15-.48-1.15-1.14Zm0,5.6c0-.67,.51-1.17,1.15-1.17s1.16,.5,1.16,1.17-.51,1.14-1.16,1.14-1.15-.47-1.15-1.14Z"/>
          <path class="l" d="M88.96,247.06c0-3.63,1.4-5.4,3.57-5.4s3.57,1.78,3.57,5.4-1.41,5.47-3.57,5.47-3.57-1.82-3.57-5.47Zm5.49,0c0-3.01-.79-4.1-1.92-4.1s-1.92,1.1-1.92,4.1,.8,4.18,1.92,4.18,1.92-1.14,1.92-4.18Z"/>
          <path class="l" d="M98.71,247.06c0-3.63,1.4-5.4,3.57-5.4s3.57,1.78,3.57,5.4-1.41,5.47-3.57,5.47-3.57-1.82-3.57-5.47Zm5.49,0c0-3.01-.79-4.1-1.92-4.1s-1.92,1.1-1.92,4.1,.79,4.18,1.92,4.18,1.92-1.14,1.92-4.18Z"/>
        </g>
        <g>
          <path class="l" d="M55.22,299.04h2.42v-7.3h-1.98v-1.04c1.04-.18,1.77-.43,2.4-.8h1.31v9.13h2.16v1.35h-6.3v-1.35Z"/>
          <path class="l" d="M64.97,299.04h2.42v-7.3h-1.98v-1.04c1.03-.18,1.77-.43,2.4-.8h1.3v9.13h2.16v1.35h-6.3v-1.35Z"/>
          <path class="l" d="M79.09,293.84c0-.67,.51-1.17,1.15-1.17s1.16,.5,1.16,1.17-.51,1.14-1.16,1.14-1.15-.48-1.15-1.14Zm0,5.6c0-.67,.51-1.17,1.15-1.17s1.16,.5,1.16,1.17-.51,1.14-1.16,1.14-1.15-.47-1.15-1.14Z"/>
          <path class="l" d="M88.96,295.1c0-3.63,1.4-5.4,3.57-5.4s3.57,1.78,3.57,5.4-1.41,5.47-3.57,5.47-3.57-1.82-3.57-5.47Zm5.49,0c0-3.01-.79-4.1-1.92-4.1s-1.92,1.1-1.92,4.1,.8,4.18,1.92,4.18,1.92-1.14,1.92-4.18Z"/>
          <path class="l" d="M98.71,295.1c0-3.63,1.4-5.4,3.57-5.4s3.57,1.78,3.57,5.4-1.41,5.47-3.57,5.47-3.57-1.82-3.57-5.47Zm5.49,0c0-3.01-.79-4.1-1.92-4.1s-1.92,1.1-1.92,4.1,.79,4.18,1.92,4.18,1.92-1.14,1.92-4.18Z"/>
        </g>
        <g>
          <path class="l" d="M54.59,351.51c3.25-2.74,4.93-4.77,4.93-6.5,0-1.14-.64-1.92-1.87-1.92-.87,0-1.59,.53-2.18,1.17l-.97-.91c.94-.97,1.92-1.57,3.36-1.57,2.02,0,3.33,1.25,3.33,3.15,0,2.02-1.69,4.12-4.03,6.24,.57-.06,1.26-.1,1.8-.1h2.76v1.4h-7.12v-.96Z"/>
          <path class="l" d="M64.39,347.18c0-3.63,1.4-5.4,3.57-5.4s3.57,1.78,3.57,5.4-1.41,5.47-3.57,5.47-3.57-1.82-3.57-5.47Zm5.49,0c0-3.01-.79-4.1-1.92-4.1s-1.92,1.1-1.92,4.1,.79,4.18,1.92,4.18,1.92-1.14,1.92-4.18Z"/>
          <path class="l" d="M79.09,345.91c0-.67,.51-1.17,1.15-1.17s1.16,.5,1.16,1.17-.51,1.14-1.16,1.14-1.15-.48-1.15-1.14Zm0,5.6c0-.67,.51-1.17,1.15-1.17s1.16,.5,1.16,1.17-.51,1.14-1.16,1.14-1.15-.47-1.15-1.14Z"/>
          <path class="l" d="M88.96,347.18c0-3.63,1.4-5.4,3.57-5.4s3.57,1.78,3.57,5.4-1.41,5.47-3.57,5.47-3.57-1.82-3.57-5.47Zm5.49,0c0-3.01-.79-4.1-1.92-4.1s-1.92,1.1-1.92,4.1,.8,4.18,1.92,4.18,1.92-1.14,1.92-4.18Z"/>
          <path class="l" d="M98.71,347.18c0-3.63,1.4-5.4,3.57-5.4s3.57,1.78,3.57,5.4-1.41,5.47-3.57,5.47-3.57-1.82-3.57-5.47Zm5.49,0c0-3.01-.79-4.1-1.92-4.1s-1.92,1.1-1.92,4.1,.79,4.18,1.92,4.18,1.92-1.14,1.92-4.18Z"/>
        </g>
      </g>
    </g>
  </g>
</svg>