<svg height="42.01" viewBox="0 0 274.68 42.01" width="274.68" xmlns="http://www.w3.org/2000/svg"><g fill="#ca954a" transform="translate(-1.77 -1.1)"><path d="m15.67 33.28 4.21 3.32a78.44 78.44 0 0 1 -14.7 6.16 27.77 27.77 0 0 0 -3.41-3.9 59.4 59.4 0 0 0 13.5-5.58h-12.92v-4.82h7.48v-17.75h-6.16v-4.83h6.16v-4.29h5.22v4.29h13.95v-4.29h5.36v4.29h6.46v4.83h-6.47v17.75h7.57v4.82zm-.62-22.57v2.74h13.95v-2.74zm0 10.09h13.95v-3h-13.95zm0 7.66h13.95v-3.23h-13.95zm13.06 5.13a128.89 128.89 0 0 1 14 5.76l-5 3.32a83.43 83.43 0 0 0 -12.74-5.85z"/><path d="m62.67 3.18a78.2 78.2 0 0 1 -4.38 9.43v30.1h-5v-22.31c-.93 1.2-1.86 2.26-2.75 3.23a33.33 33.33 0 0 0 -2.88-5.49 45.69 45.69 0 0 0 10.06-16.55zm19.17 34.49c2.61 0 3.1-1.11 3.41-6.07a16.35 16.35 0 0 0 4.65 1.95c-.67 6.59-2.22 8.81-7.66 8.81h-10c-6.15 0-7.92-1.6-7.92-7.75v-12.39l-3.42 1.32-2-4.64 5.36-2.08v-10.45h5v8.45l4.42-1.72v-11.47h4.74v9.61l5.93-2.3.44-.31 3.91 1.19-.17.84a166 166 0 0 1 -1.78 20.14l-4.33-1.24c.48-3.71.79-9.56 1-15l-5 2v15.75h-4.77v-13.86l-4.42 1.82v14.34c0 2.61.44 3.06 3.36 3.06z"/><path d="m103.75 22.44a41.11 41.11 0 0 0 -8.28-4.78l2.79-3.94a40.14 40.14 0 0 1 8.41 4.34zm-6.75 16.33a121.48 121.48 0 0 0 8.36-13.94l3.9 3.54c-2.35 4.6-5.18 9.65-7.79 13.94zm9.29-28.06a41.8 41.8 0 0 0 -8.23-4.92l2.94-3.89a42.07 42.07 0 0 1 8.41 4.47zm25.25 32.09a20.35 20.35 0 0 0 -1.54-3.9c-14.74 1.78-17 2.13-18.46 2.88a49.38 49.38 0 0 0 -1.86-5.27c1-.31 1.86-1.24 2.88-2.83a65.58 65.58 0 0 0 4.69-9.47h-8.32v-5h10.49v-6.21h-8.72v-5h8.72v-6.59h5.35v6.59h9v5h-9v6.24h10.67v5h-12a83.14 83.14 0 0 1 -6.15 11.37l10.4-1.06a50.52 50.52 0 0 0 -3-4.56l4.3-2.12c2.92 3.85 6.15 9 7.3 12.57z"/><path d="m166.64 2.74c-.22.26-.44.57-.66.84 4.07 3.54 11.33 6.6 18.37 8a18.06 18.06 0 0 0 -3.32 4c-.89-.23-1.82-.53-2.75-.8v11.42h-30.76v-11.15c-.93.3-1.86.62-2.75.84a27.81 27.81 0 0 0 -2.83-4.08c8.15-1.9 16.06-5.57 20.06-10.71zm10.05 11.46a48.49 48.49 0 0 1 -6-2.7v1.15h-15.56v-.88a51.93 51.93 0 0 1 -5.35 2.43zm-26.69 13.46h26v15h-5.4v-1.1h-15.42v1.2h-5.18zm5-4.66a17.43 17.43 0 0 0 -1.51-4.6l3.41-1h-5v5.6zm.18 8.1v1.77h15.45v-1.76zm15.45 7v-1.76h-15.45v1.77zm-10-20.67h-3.46a19.94 19.94 0 0 1 1.78 4.69l-2.84.88h4.52zm6.37-8.18a44.37 44.37 0 0 1 -3.72-2.88c-1.15 1-2.43 2-3.76 2.88zm-2.12 8.19v5.56h4.11l-2.65-.75a33.58 33.58 0 0 0 1.66-4.81zm8.76 0h-4.64l3.45.84c-.88 1.77-1.73 3.49-2.43 4.73h3.58z"/><path d="m197.58 22.79c-1.82-1.28-5.62-3.36-8.24-4.78l2.84-3.89c2.43 1.19 6.37 3.09 8.32 4.29zm-7.58 15.94a128.86 128.86 0 0 0 8.41-13.95l3.86 3.54c-2.35 4.65-5.14 9.7-7.84 14zm9.52-28a91.18 91.18 0 0 0 -8.06-4.87l3-3.81c2.48 1.24 6.33 3.19 8.23 4.43zm19.61 8.63v5.58h9v17.64h-5v-1.58h-13.34v1.8h-4.73v-17.88h9v-5.58h-11.75v-5.05h11.78v-5.18c-2.92.45-5.84.76-8.63 1a18.86 18.86 0 0 0 -1.46-4.49c7.52-.76 15.8-2.22 20.67-4.16l4.07 4.16a57.77 57.77 0 0 1 -9.65 2.61v6.06h11.24v5.05zm4 10.36h-13.34v6.5h13.33z"/><path d="m276.45 11.42s0 1.72 0 2.34c-.4 18.11-.75 24.52-2.17 26.56a5 5 0 0 1 -3.5 2.21 28.79 28.79 0 0 1 -5.49.18 12.25 12.25 0 0 0 -1.55-5c1.95.17 3.63.22 4.47.22a1.61 1.61 0 0 0 1.51-.76c.93-1.19 1.37-6.59 1.64-20.89h-4c-.57 11.86-2.61 21-10 26.87a17.72 17.72 0 0 0 -3.1-3.5c-6.38.67-12.75 1.33-17.53 1.73l-.73-4.47c2.48-.17 5.57-.4 9-.62v-2.65h-7.79v-3.72h7.79v-1.73h-7.61v-13.68h7.61v-1.72h-8.7v-3.79h8.7v-1.79c-2.56.18-5.09.31-7.48.35a15.75 15.75 0 0 0 -1.15-3.71 138.47 138.47 0 0 0 19.08-2.17l2.3 3.94c-2.34.48-5.09.88-8 1.19v2.19h8.5v2.44h4.16c.05-2.93.05-6 .05-9.26h5c0 3.24 0 6.33-.08 9.26zm-34.88 8.36h3.43v-2h-3.45zm3.43 5.14v-2h-3.45v2zm4.78 11c2.53-.17 5.14-.39 7.71-.62 3.45-4.78 4.51-11.11 4.82-19h-4v-3.51h-8.5v1.72h7.84v13.68h-7.85v1.73h8v3.72h-8zm3.46-16.11v-2h-3.44v2zm-3.46 3.14v2h3.46v-2z"/></g></svg>