<svg height="84.67" viewBox="0 0 738.82 84.67" width="738.82" xmlns="http://www.w3.org/2000/svg"><g fill="#e8b356" opacity=".2" transform="translate(-7.47 -20.54)"><path d="m82.8 105.21q-27.15 0-43.7-4.8t-24.1-14.19q-7.53-9.4-7.53-23.34t7.53-23.35q7.53-9.41 24.1-14.19t43.7-4.8q27.14 0 43.7 4.8t24.09 14.19q7.53 9.4 7.53 23.35t-7.53 23.34q-7.53 9.41-24.09 14.19t-43.7 4.8zm0-23.66a137.73 137.73 0 0 0 22.2-1.55q9.33-1.56 14.44-5.61t5.11-11.51q0-7.47-5.11-11.52t-14.44-5.6a136.49 136.49 0 0 0 -22.2-1.56 142.58 142.58 0 0 0 -22.48 1.56q-9.65 1.55-15.06 5.6t-5.42 11.52q0 7.47 5.42 11.51t15.06 5.61a143.89 143.89 0 0 0 22.48 1.55z"/><path d="m166.84 23h129.49v23.69h-129.49zm49.18 22h31.13v57.65h-31.15z"/><path d="m308.78 23h31.12v79.69h-31.12zm26.64 27.52h87.65v23.69h-87.65zm84.17-27.52h31.12v79.69h-31.12z"/><path d="m499.27 69.1v10h94.63v23.66h-125.76v-79.76h125.51v23.69h-94.38v10h77.19v12.41z"/><path d="m610.08 102.72v-79.72h96.25a74.86 74.86 0 0 1 20.35 2.56 29.18 29.18 0 0 1 14.32 8.55q5.29 6 5.29 16.31a23.09 23.09 0 0 1 -2.49 11.33 17.82 17.82 0 0 1 -6.85 7 32.94 32.94 0 0 1 -10 3.61 76.46 76.46 0 0 1 -11.7 1.37l-9.05-1.73a188.72 188.72 0 0 1 22.85 1.25q8 1.13 11.2 4.05t3.18 8.4v17.06h-31.13v-13.36a9.48 9.48 0 0 0 -1.43-5.67q-1.43-1.94-6.23-2.68a106.6 106.6 0 0 0 -14.75-.74h-48.68v22.41zm31.13-43.21h65.12a14.23 14.23 0 0 0 6.28-1.24c1.7-.83 2.56-2.41 2.56-4.73a4.43 4.43 0 0 0 -2.56-4.42 14.84 14.84 0 0 0 -6.28-1.19h-65.12z"/></g></svg>