<svg height="99.2" viewBox="0 0 418.56 99.2" width="418.56" xmlns="http://www.w3.org/2000/svg"><g fill="#ffddb0"><path d="m14.08 52.11a54.93 54.93 0 0 1 -4.16 12 23.45 23.45 0 0 0 2 1.37c3 1.82 7.17 2.08 12.31 2.08a149.7 149.7 0 0 0 17.93-1.15 19 19 0 0 0 -1.51 5.4c-3.72.22-11.46.53-16.6.53-5.89 0-9.56-.48-12.79-2.34-1.79-1-3.38-2.44-4.26-2.44s-2.47 3-3.49 5.53l-3.5-5a16.5 16.5 0 0 1 5.49-4.7 45.74 45.74 0 0 0 2.66-7.48h-5.95c1-2.48 2.22-6 3.32-9.29h-4.69v-4.73h10.85c-.93 3-2 6.46-3.15 9.47h2.53l.75-.22zm-8.33-11.29c-.57-2-1.68-5.09-2.47-7.43l4.82-1.39c.84 2.35 2 5.27 2.57 7.13zm16.6 8c-.35 5.46-1.55 11.75-4.6 16.18a22.31 22.31 0 0 0 -4.56-3.19c3.63-5.18 4-12.66 4-18.06v-9.61c6.78-.22 14.39-1.06 18.77-2.44l4.3 3.86c-4.94 1.59-11.58 2.44-17.73 2.78v5.58h18.47v4.87h-6.9v16.82h-5.4v-16.82z"/><path d="m59.62 64.2a31.17 31.17 0 0 1 -6.55 8.85 29.16 29.16 0 0 0 -4.21-3.14 20.55 20.55 0 0 0 5.85-7.18zm11.38-1.78h-21.78v-4.6h4v-16.42h-3.47v-4.6h3.45v-4.7h4.74v4.7h5.49v-4.7h4.82v4.7h3v4.6h-3v16.42h2.75zm-13-21v2.58h5.49v-2.6zm0 9.38h5.49v-2.8h-5.55zm0 7h5.49v-3h-5.55zm31.2 9.25c0 2.61-.48 4-2 4.83s-3.81 1-7.08.93a19.27 19.27 0 0 0 -1.51-5c1.9.13 4 .08 4.65.08s.88-.22.88-.93v-8.7h-6.81c-.49 5.23-1.6 10.76-4 14.74a15.12 15.12 0 0 0 -4.16-3c.13-.27.31-.49.44-.75l-3.61 2.12a44.16 44.16 0 0 0 -4.74-6.69l4-2.17a49.19 49.19 0 0 1 4.78 6c2.56-5.53 2.79-13 2.79-18.76v-16.23h16.31zm-5.09-13.5v-5.42h-6.43v1.64 3.8zm-6.43-15.25v5.18h6.37v-5.18z"/><path d="m337.92 52.91c-1.82-1.29-5.63-3.37-8.24-4.78l2.83-3.9c2.44 1.2 6.38 3.1 8.33 4.3zm-7.62 15.93a129.61 129.61 0 0 0 8.41-13.94l3.85 3.54c-2.34 4.65-5.13 9.7-7.83 14zm9.52-28a93.65 93.65 0 0 0 -8.06-4.84l3-3.8c2.48 1.24 6.33 3.18 8.23 4.42zm19.61 8.64v5.52h9v17.69h-5v-1.59h-13.3v1.82h-4.73v-17.92h9v-5.54h-11.75v-5.05h11.78v-5.18c-2.93.44-5.85.75-8.64 1a18.08 18.08 0 0 0 -1.46-4.52c7.53-.75 15.81-2.21 20.68-4.16l4.07 4.16a55.91 55.91 0 0 1 -9.65 2.61v6.07h11.24v5.05zm4 10.35h-13.3v6.51h13.33z"/><path d="m418.56 41.53s0 1.73 0 2.35c-.4 18.1-.76 24.52-2.17 26.56a5 5 0 0 1 -3.5 2.21 29.65 29.65 0 0 1 -5.49.18 12.29 12.29 0 0 0 -1.55-5c1.95.18 3.63.22 4.47.22a1.6 1.6 0 0 0 1.51-.75c.93-1.2 1.37-6.6 1.64-20.89h-4c-.57 11.86-2.61 21-10.05 26.87a16.82 16.82 0 0 0 -3.09-3.5c-6.38.66-12.75 1.33-17.53 1.73l-.65-4.51c2.47-.18 5.57-.4 9-.62v-2.63h-7.79v-3.75h7.79v-1.69h-7.61v-13.68h7.61v-1.73h-8.72v-3.8h8.72v-1.77c-2.57.17-5.09.31-7.48.35a16.46 16.46 0 0 0 -1.17-3.68 135.44 135.44 0 0 0 19.08-2.17l2.3 3.94c-2.35.49-5.09.89-8 1.2v2.13h8.5v2.43h4.16c.05-2.92.05-6 .05-9.25h5c0 3.23 0 6.33-.08 9.25zm-34.88 8.37h3.45v-1.9h-3.45zm3.45 5.1v-2h-3.45v2zm4.78 11c2.53-.18 5.14-.4 7.71-.62 3.45-4.78 4.51-11.11 4.82-19h-4v-3.48h-8.5v1.73h7.84v13.68h-7.84v1.69h8v3.72h-8zm3.46-16.11v-1.89h-3.46v1.9zm-3.46 3.11v2h3.46v-2z"/></g><circle cx="162.04" cy="49.6" fill="#fff" r="44.32" stroke="#e8b356" stroke-miterlimit="10" stroke-width="3.39"/><path d="m173.18 8a5.67 5.67 0 0 1 -3.36-2.59c-1.52-2.6-3.75-5-7.78-5-2.81 0-6.07 1-7.78 3.19a.55.55 0 0 0 0 .66 1.59 1.59 0 0 1 .3 1.39c-.22.84-1.14 1.3-1.95 1.72a8.22 8.22 0 0 1 -1.71.63 5.7 5.7 0 0 1 -4.2-.56c-2.61-1.44-5.76-2.44-9.25-.44-2.45 1.38-4.76 3.9-5.15 6.65a.56.56 0 0 0 .33.58 1.56 1.56 0 0 1 1 1 3.36 3.36 0 0 1 -.83 2.46 7.44 7.44 0 0 1 -1.15 1.43 5.66 5.66 0 0 1 -3.91 1.62c-3 0-6.22.75-8.26 4.22-1.43 2.42-2.17 5.75-1.13 8.33a.56.56 0 0 0 .58.34 1.53 1.53 0 0 1 1.35.42 3.39 3.39 0 0 1 .51 2.56 8 8 0 0 1 -.27 1.8 5.72 5.72 0 0 1 -2.59 3.37c-2.6 1.51-5 3.75-5 7.78 0 2.81 1 6.07 3.19 7.78a.55.55 0 0 0 .66 0 1.53 1.53 0 0 1 1.39-.3c.84.22 1.3 1.13 1.72 1.94a8.44 8.44 0 0 1 .67 1.71 5.69 5.69 0 0 1 -.56 4.2c-1.49 2.62-2.46 5.76-.48 9.26 1.38 2.45 3.9 4.76 6.65 5.14a.55.55 0 0 0 .58-.33 1.54 1.54 0 0 1 1-1 3.35 3.35 0 0 1 2.46.82 8.29 8.29 0 0 1 1.4 1.22 5.7 5.7 0 0 1 1.63 4c0 3 .74 6.21 4.21 8.26 2.42 1.42 5.76 2.16 8.33 1.13a.58.58 0 0 0 .34-.58 1.49 1.49 0 0 1 .43-1.35 3.35 3.35 0 0 1 2.55-.52 7.57 7.57 0 0 1 1.81.28 5.75 5.75 0 0 1 3.36 2.58c1.51 2.6 3.76 5 7.78 5 2.81 0 6.07-1 7.78-3.19a.57.57 0 0 0 0-.67 1.53 1.53 0 0 1 -.3-1.39c.22-.84 1.13-1.29 1.94-1.71a7.78 7.78 0 0 1 1.71-.67 5.67 5.67 0 0 1 4.21.55c2.61 1.5 5.75 2.47 9.26.48 2.44-1.38 4.75-3.9 5.14-6.65a.58.58 0 0 0 -.34-.58 1.57 1.57 0 0 1 -.95-1 3.38 3.38 0 0 1 .83-2.47 8.2 8.2 0 0 1 1.15-1.5 5.65 5.65 0 0 1 3.91-1.62c3 0 6.22-.74 8.26-4.21 1.42-2.43 2.16-5.76 1.13-8.34a.55.55 0 0 0 -.58-.32 1.58 1.58 0 0 1 -1.35-.44 3.35 3.35 0 0 1 -.52-2.55 8.73 8.73 0 0 1 .28-1.81 5.74 5.74 0 0 1 2.58-3.37c2.6-1.51 5-3.74 5.05-7.77 0-2.81-1-6.07-3.19-7.78a.52.52 0 0 0 -.66 0 1.59 1.59 0 0 1 -1.39.3c-.84-.23-1.3-1.14-1.72-1.95a8.44 8.44 0 0 1 -.67-1.71 5.65 5.65 0 0 1 .56-4.2c1.49-2.62 2.46-5.76.48-9.26-1.39-2.45-3.9-4.76-6.66-5.14a.54.54 0 0 0 -.57.33 1.54 1.54 0 0 1 -1 .95 3.38 3.38 0 0 1 -2.47-.82 7.45 7.45 0 0 1 -1.42-1.15 5.58 5.58 0 0 1 -1.62-3.92c0-3-.75-6.21-4.22-8.25-2.43-1.43-5.76-2.17-8.34-1.14a.56.56 0 0 0 -.32.59 1.54 1.54 0 0 1 -.44 1.35 3.35 3.35 0 0 1 -2.55.51 8.09 8.09 0 0 1 -1.86-.28z" fill="none" stroke="#f4cfb0" stroke-miterlimit="10" stroke-width=".81"/><path d="m143.9 50.06c-2.56-2.17-8.08-5.26-12.29-7.1l4.14-5.84c4.08 1.57 9.66 4.27 12.49 6.44zm-10 24.25a179.26 179.26 0 0 0 12.42-20.7l5.79 5.26c-3.49 6.83-7.69 14.33-11.57 20.7zm13.8-41.66a62 62 0 0 0 -12.22-7.3l4.27-5.78a62.78 62.78 0 0 1 12.49 6.64zm37.46 47.64a30.23 30.23 0 0 0 -2.3-5.78c-21.88 2.63-25.23 3.15-27.4 4.27a72.8 72.8 0 0 0 -2.75-7.78c1.51-.46 2.76-1.84 4.27-4.2a97.27 97.27 0 0 0 7-14.07h-12.39v-7.4h15.58v-9.27h-12.95v-7.42h12.95v-9.79h8v9.79h13.4v7.42h-13.4v9.27h15.83v7.36h-17.92a124.26 124.26 0 0 1 -9.08 16.89l15.39-1.58a76.71 76.71 0 0 0 -4.4-6.77l6.37-3.15c4.34 5.72 9.14 13.34 10.84 18.66z" fill="#ca954a"/><circle cx="260.44" cy="49.6" fill="#fff" r="44.32" stroke="#e8b356" stroke-miterlimit="10" stroke-width="3.39"/><path d="m266 20.82c-.33.39-.66.85-1 1.25 6.05 5.25 16.83 9.79 27.28 11.83a26.91 26.91 0 0 0 -4.93 6c-1.32-.33-2.69-.79-4.08-1.19v17h-45.64v-16.62c-1.38.46-2.76.92-4.07 1.25a42.47 42.47 0 0 0 -4.21-6.05c12.09-2.83 23.79-8.28 29.77-15.9zm14.92 17a73.19 73.19 0 0 1 -8.94-4v1.71h-23.05v-1.31a77.46 77.46 0 0 1 -8 3.62zm-39.63 20h38.71v22.18h-8v-1.55h-23v1.78h-7.69zm7.43-6.9a26 26 0 0 0 -2.24-6.84l5.06-1.44h-7.42v8.28zm.26 12v2.63h22.94v-2.61zm22.94 10.39v-2.61h-22.92v2.63zm-14.92-30.67h-5.13a29.66 29.66 0 0 1 2.63 7l-4.21 1.32h6.71zm9.46-12.16a65.11 65.11 0 0 1 -5.46-4.27c-1.71 1.44-3.61 2.89-5.59 4.27zm-3.15 12.16v8.28h6.11l-3.92-1.12a51.5 51.5 0 0 0 2.56-7.16zm13 0h-6.81l5.13 1.24c-1.31 2.63-2.56 5.2-3.61 7h5.32z" fill="#ca954a"/><path d="m271.57 8a5.73 5.73 0 0 1 -3.36-2.59c-1.51-2.6-3.75-5-7.77-5-2.81 0-6.07 1-7.78 3.19a.52.52 0 0 0 0 .66 1.55 1.55 0 0 1 .34 1.39c-.22.84-1.13 1.3-1.94 1.72a8.44 8.44 0 0 1 -1.76.63 5.73 5.73 0 0 1 -4.21-.56c-2.61-1.44-5.75-2.44-9.25-.44-2.45 1.38-4.76 3.9-5.15 6.65a.57.57 0 0 0 .34.58 1.54 1.54 0 0 1 .95 1 3.31 3.31 0 0 1 -.83 2.46 7.78 7.78 0 0 1 -1.15 1.48 5.69 5.69 0 0 1 -3.92 1.62c-3 0-6.22.75-8.25 4.22-1.43 2.42-2.17 5.75-1.14 8.33a.58.58 0 0 0 .59.34 1.5 1.5 0 0 1 1.34.42 3.39 3.39 0 0 1 .52 2.56 8 8 0 0 1 -.28 1.8 5.74 5.74 0 0 1 -2.58 3.37c-2.6 1.51-5 3.75-5 7.78 0 2.81 1 6.07 3.19 7.78a.55.55 0 0 0 .66 0 1.55 1.55 0 0 1 1.4-.3c.83.22 1.29 1.13 1.72 1.94a8.41 8.41 0 0 1 .66 1.71 5.6 5.6 0 0 1 -.56 4.2c-1.48 2.62-2.45 5.76-.47 9.26 1.38 2.45 3.89 4.76 6.65 5.14a.54.54 0 0 0 .57-.33 1.57 1.57 0 0 1 1.06-1 3.37 3.37 0 0 1 2.46.82 8.69 8.69 0 0 1 1.38 1.17 5.69 5.69 0 0 1 1.63 4c0 3 .74 6.21 4.22 8.26 2.42 1.42 5.75 2.16 8.33 1.13a.57.57 0 0 0 .33-.58 1.54 1.54 0 0 1 .43-1.35 3.37 3.37 0 0 1 2.55-.52 7.57 7.57 0 0 1 1.81.28 5.74 5.74 0 0 1 3.37 2.58c1.51 2.6 3.75 5 7.77 5 2.82 0 6.07-1 7.78-3.19a.55.55 0 0 0 0-.67 1.59 1.59 0 0 1 -.3-1.39c.23-.84 1.14-1.29 1.95-1.71a7.41 7.41 0 0 1 1.71-.67 5.64 5.64 0 0 1 4.2.55c2.62 1.5 5.76 2.47 9.26.48 2.45-1.38 4.75-3.9 5.14-6.65a.55.55 0 0 0 -.33-.58 1.55 1.55 0 0 1 -1-1 3.33 3.33 0 0 1 .82-2.47 8.2 8.2 0 0 1 1.2-1.5 5.69 5.69 0 0 1 3.92-1.62c3 0 6.21-.74 8.26-4.21 1.42-2.43 2.16-5.76 1.13-8.34a.55.55 0 0 0 -.58-.32 1.58 1.58 0 0 1 -1.35-.44 3.31 3.31 0 0 1 -.52-2.55 8.09 8.09 0 0 1 .27-1.81 5.76 5.76 0 0 1 2.59-3.37c2.6-1.51 5-3.74 5-7.77 0-2.81-1-6.07-3.18-7.78a.54.54 0 0 0 -.67 0 1.59 1.59 0 0 1 -1.39.3c-.84-.23-1.29-1.14-1.71-1.95a7.92 7.92 0 0 1 -.68-1.71 5.75 5.75 0 0 1 .56-4.2c1.5-2.62 2.47-5.76.48-9.26-1.38-2.45-3.9-4.76-6.65-5.14a.55.55 0 0 0 -.58.33 1.52 1.52 0 0 1 -1.05.95 3.35 3.35 0 0 1 -2.46-.82 7.84 7.84 0 0 1 -1.43-1.15 5.67 5.67 0 0 1 -1.62-3.92c0-3-.75-6.21-4.21-8.25-2.43-1.43-5.77-2.17-8.34-1.14a.57.57 0 0 0 -.33.59 1.54 1.54 0 0 1 -.44 1.35 3.33 3.33 0 0 1 -2.54.51 8.26 8.26 0 0 1 -1.78-.28z" fill="none" stroke="#f4cfb0" stroke-miterlimit="10" stroke-width=".81"/></svg>