<svg height="84.66" viewBox="0 0 1250.42 84.66" width="1250.42" xmlns="http://www.w3.org/2000/svg"><g fill="#fff" opacity=".2" transform="translate(-7.47 -20.54)"><path d="m156.26 69.47a29.19 29.19 0 0 1 -8.59 19.8q-8 8-23.47 12t-39.16 4a245.21 245.21 0 0 1 -32.37-1.93 85.59 85.59 0 0 1 -24.41-6.6 36.19 36.19 0 0 1 -15.44-12.82q-5.35-8.1-5.35-20.42t5.35-20.61a37.34 37.34 0 0 1 15.44-13.2 83.9 83.9 0 0 1 24.41-7 223 223 0 0 1 32.33-2.15q23.65 0 39.22 4.3t23.53 12.64a30.75 30.75 0 0 1 8.59 20.29h-32.34a16 16 0 0 0 -5.48-7c-2.66-2-6.64-3.63-12-4.8s-12.44-1.77-21.52-1.77q-15.95 0-25.9 1.93t-14.53 6.16a14.51 14.51 0 0 0 -4.57 11.21 13 13 0 0 0 4.6 10.33q4.6 4 14.57 5.85t25.83 1.87q13.56 0 21.48-1.62t11.89-4.42a15.63 15.63 0 0 0 5.47-6z"/><path d="m203.69 69.1v10h94.63v23.66h-125.75v-79.76h125.5v23.69h-94.38v10h77.2v12.41z"/><path d="m314.5 102.72v-79.72h96.25a74.86 74.86 0 0 1 20.35 2.56 29.18 29.18 0 0 1 14.32 8.52q5.29 6 5.29 16.31a23.16 23.16 0 0 1 -2.49 11.34 17.91 17.91 0 0 1 -6.84 7 33.14 33.14 0 0 1 -10 3.61 75.51 75.51 0 0 1 -11.71 1.37l-9.05-1.71a188.59 188.59 0 0 1 22.85 1.25q8 1.13 11.21 4.05t3.17 8.4v17.06h-31.13v-13.36a9.48 9.48 0 0 0 -1.43-5.67c-1-1.29-3-2.18-6.22-2.68a106.87 106.87 0 0 0 -14.76-.74h-48.68v22.41zm31.13-43.21h65.12a14.23 14.23 0 0 0 6.25-1.24c1.7-.83 2.56-2.41 2.56-4.73a4.43 4.43 0 0 0 -2.56-4.42 14.84 14.84 0 0 0 -6.28-1.19h-65.09z"/><path d="m499 69.1v10h94.63v23.66h-125.73v-79.76h125.5v23.69h-94.4v10h77.2v12.41z"/><path d="m708.69 93.26h-18.69l68-70.26h31.12v79.69h-31.12v-54.26l9.33 3.86-49.18 50.43h-37.35l-49.3-50.3 9.5-3.86v54.16h-31.17v-79.72h31.17z"/><path d="m880.63 105.21q-27.14 0-43.7-4.8t-24.09-14.19q-7.53-9.41-7.53-23.34t7.53-23.35q7.53-9.41 24.09-14.19t43.7-4.8q27.15 0 43.71 4.8t24.09 14.19q7.57 9.4 7.57 23.35t-7.53 23.34q-7.54 9.41-24.09 14.19t-43.75 4.8zm0-23.66a137.86 137.86 0 0 0 22.17-1.55q9.33-1.56 14.44-5.61t5.1-11.51q0-7.47-5.1-11.52t-14.44-5.6a136.62 136.62 0 0 0 -22.17-1.56 142.35 142.35 0 0 0 -22.47 1.56q-9.64 1.55-15.07 5.6t-5.41 11.52q0 7.47 5.41 11.51t15.07 5.61a143.66 143.66 0 0 0 22.47 1.55z"/><path d="m1097 78.31-11.57 6.6v-61.91h31.12v79.69h-31.12l-93.74-54.26 11.58-6.72v61h-31.13v-79.71h31.13z"/><path d="m1257.89 23-50.43 59.39v20.3h-31.13v-20.27l-50.42-59.42h36.73l41 51.67h-23l40.52-51.67z"/></g></svg>