<svg xmlns="http://www.w3.org/2000/svg" width="1250.42" height="115.2" viewBox="0 0 1250.42 115.2">
  <defs>
    <style>
      .cls-1 {
        opacity: 0.2;
      }

      .cls-2, .cls-3 {
        fill: #fff;
      }

      .cls-3 {
        stroke: #e8b356;
        stroke-width: 3.17px;
      }

      .cls-3, .cls-4 {
        stroke-miterlimit: 10;
      }

      .cls-4 {
        fill: none;
        stroke: #f4cfb0;
        stroke-width: 0.76px;
      }

      .cls-5 {
        fill: #ca954a;
      }
    </style>
  </defs>
  <g id="圖層_2" data-name="圖層 2">
    <g id="圖層_2-2" data-name="圖層 2">
      <g class="cls-1">
        <g>
          <path class="cls-2" d="M148.79,48.93a29.16,29.16,0,0,1-8.6,19.8q-8,8-23.46,12t-39.16,4A243.51,243.51,0,0,1,45.2,82.73a85.27,85.27,0,0,1-24.41-6.59A36.21,36.21,0,0,1,5.35,63.37Q0,55.29,0,43t5.35-20.6A37.34,37.34,0,0,1,20.79,9.15q10.09-4.92,24.41-7A223,223,0,0,1,77.57,0q23.66,0,39.22,4.3t23.53,12.63a30.78,30.78,0,0,1,8.59,20.3H116.54a16,16,0,0,0-5.48-7q-4-3-12-4.79T77.57,23.66q-15.94,0-25.9,1.93T37.1,31.75A14.49,14.49,0,0,0,32.5,43a13,13,0,0,0,4.6,10.34q4.6,4,14.57,5.85T77.57,61q13.56,0,21.48-1.62T110.94,55a15.7,15.7,0,0,0,5.47-6Z"/>
          <path class="cls-2" d="M196.22,48.56v10h94.63V82.17H165.1V2.49H290.6V26.15H196.22v10h77.2V48.56Z"/>
          <path class="cls-2" d="M307,82.17V2.49h96.25A74.88,74.88,0,0,1,423.63,5,29.2,29.2,0,0,1,438,13.57q5.3,6,5.29,16.31a23.12,23.12,0,0,1-2.49,11.33,17.84,17.84,0,0,1-6.84,7,32.61,32.61,0,0,1-10,3.61,74.31,74.31,0,0,1-11.71,1.37l-9.09-1.74A188.59,188.59,0,0,1,426,52.67q8,1.11,11.21,4c2.11,1.95,3.17,4.76,3.17,8.41v17H409.25V68.85a9.45,9.45,0,0,0-1.43-5.66c-.95-1.29-3-2.18-6.22-2.68a104.93,104.93,0,0,0-14.76-.75H338.16V82.17ZM338.16,39h65.12a14.23,14.23,0,0,0,6.28-1.24c1.7-.83,2.56-2.41,2.56-4.74a4.44,4.44,0,0,0-2.56-4.42,15,15,0,0,0-6.28-1.18H338.16Z"/>
          <path class="cls-2" d="M491.55,48.56v10h94.63V82.17H460.43V2.49h125.5V26.15H491.55v10h77.2V48.56Z"/>
          <path class="cls-2" d="M701.22,72.71H682.55l68-70.22h31.12V82.17H750.53V27.89l9.33,3.86L710.68,82.17H673.33L624,31.87,633.49,28V82.17H602.36V2.49h31.13Z"/>
          <path class="cls-2" d="M873.16,84.66q-27.13,0-43.7-4.79T805.37,65.68q-7.53-9.41-7.53-23.35T805.37,19q7.53-9.4,24.09-14.2T873.16,0q27.15,0,43.71,4.79T941,19q7.53,9.41,7.53,23.34T941,65.68q-7.55,9.41-24.09,14.19T873.16,84.66Zm0-23.65a136.62,136.62,0,0,0,22.17-1.56q9.33-1.55,14.44-5.6t5.1-11.52q0-7.47-5.1-11.51t-14.44-5.61a137.86,137.86,0,0,0-22.17-1.55,143.66,143.66,0,0,0-22.47,1.55q-9.65,1.56-15.07,5.61t-5.41,11.51q0,7.47,5.41,11.52t15.07,5.6A142.35,142.35,0,0,0,873.16,61Z"/>
          <path class="cls-2" d="M1089.55,57.77,1078,64.37V2.49h31.12V82.17H1078L984.22,27.89l11.58-6.72v61H964.67V2.49H995.8Z"/>
          <path class="cls-2" d="M1250.42,2.49,1200,61.88V82.17h-31.13V61.88L1118.44,2.49h36.73l41,51.67h-23l40.59-51.67Z"/>
        </g>
      </g>
      <g>
        <circle class="cls-3" cx="529.9" cy="68.88" r="41.39"/>
        <path class="cls-4" d="M540.3,30.06a5.35,5.35,0,0,1-3.14-2.41c-1.41-2.43-3.5-4.68-7.26-4.71-2.63,0-5.67.93-7.26,3a.49.49,0,0,0,0,.62,1.45,1.45,0,0,1,.27,1.29c-.21.79-1.06,1.21-1.82,1.61a7.83,7.83,0,0,1-1.59.62,5.34,5.34,0,0,1-3.93-.52c-2.44-1.39-5.37-2.3-8.64-.45-2.29,1.29-4.44,3.64-4.81,6.22a.52.52,0,0,0,.32.53,1.47,1.47,0,0,1,.89,1,3.18,3.18,0,0,1-.78,2.3,7.1,7.1,0,0,1-1.07,1.33A5.36,5.36,0,0,1,497.83,42c-2.82,0-5.81.69-7.71,3.93-1.34,2.26-2,5.38-1.06,7.78a.52.52,0,0,0,.54.31,1.4,1.4,0,0,1,1.26.41,3.11,3.11,0,0,1,.48,2.38,7.15,7.15,0,0,1-.26,1.69,5.34,5.34,0,0,1-2.41,3.14C486.24,63,484,65.12,484,68.88c0,2.63.94,5.67,3,7.27a.52.52,0,0,0,.62,0,1.42,1.42,0,0,1,1.3-.28c.78.2,1.21,1,1.61,1.81a7.55,7.55,0,0,1,.61,1.6,5.22,5.22,0,0,1-.52,3.92c-1.39,2.44-2.29,5.38-.44,8.65,1.29,2.29,3.64,4.44,6.21,4.8a.51.51,0,0,0,.54-.31,1.44,1.44,0,0,1,1-.89,3.11,3.11,0,0,1,2.3.77,7.17,7.17,0,0,1,1.33,1.07A5.31,5.31,0,0,1,503,101c0,2.81.69,5.8,3.94,7.71,2.26,1.33,5.37,2,7.78,1.06a.54.54,0,0,0,.31-.54,1.43,1.43,0,0,1,.4-1.26,3.14,3.14,0,0,1,2.38-.49,7.61,7.61,0,0,1,1.69.26,5.35,5.35,0,0,1,3.14,2.41c1.41,2.43,3.51,4.69,7.27,4.72,2.62,0,5.66-.94,7.26-3a.52.52,0,0,0,0-.62,1.45,1.45,0,0,1-.28-1.3c.21-.78,1.06-1.21,1.82-1.6a7.53,7.53,0,0,1,1.59-.63,5.28,5.28,0,0,1,3.93.52c2.44,1.4,5.37,2.3,8.65.45,2.28-1.29,4.43-3.64,4.8-6.21a.53.53,0,0,0-.32-.54,1.44,1.44,0,0,1-.88-1,3.11,3.11,0,0,1,.77-2.3,7.58,7.58,0,0,1,1.07-1.34A5.31,5.31,0,0,1,562,95.78c2.81,0,5.8-.7,7.71-3.93,1.33-2.27,2-5.38,1-7.79a.5.5,0,0,0-.54-.3,1.46,1.46,0,0,1-1.26-.41,3.11,3.11,0,0,1-.48-2.38,7.07,7.07,0,0,1,.26-1.69,5.28,5.28,0,0,1,2.41-3.14c2.43-1.42,4.68-3.51,4.71-7.26,0-2.63-.94-5.67-3-7.27a.52.52,0,0,0-.63,0,1.47,1.47,0,0,1-1.3.28c-.78-.21-1.2-1.06-1.6-1.82a7.58,7.58,0,0,1-.62-1.6,5.31,5.31,0,0,1,.52-3.92c1.39-2.44,2.3-5.38.44-8.65-1.29-2.28-3.64-4.44-6.21-4.8a.54.54,0,0,0-.54.31,1.42,1.42,0,0,1-1,.89,3.11,3.11,0,0,1-2.3-.77,7.17,7.17,0,0,1-1.33-1.07,5.24,5.24,0,0,1-1.51-3.66c0-2.81-.7-5.8-3.94-7.71-2.27-1.33-5.38-2-7.79-1.06a.53.53,0,0,0-.3.55,1.48,1.48,0,0,1-.41,1.26,3.16,3.16,0,0,1-2.38.48,7.61,7.61,0,0,1-1.69-.26Z"/>
        <path class="cls-5" d="M551.81,49.12a48.9,48.9,0,0,1-14.18,14.23,87.2,87.2,0,0,0,21.73,6.26,34.34,34.34,0,0,0-4.73,6.82c-2-.37-3.81-.86-5.71-1.35V97.41h-7.85v-2H518.85v2.27h-7.42V75c-2.34.68-4.67,1.29-7,1.78a29.53,29.53,0,0,0-3.56-6.56,100.18,100.18,0,0,0,22.58-7,61.16,61.16,0,0,1-7.36-6.44,63.84,63.84,0,0,1-8.59,6.5,46.36,46.36,0,0,0-5.4-5.46c7.79-4,15.28-10.8,19.51-18.23l6.94,2.4c-.86,1.35-1.72,2.76-2.7,4.11H545.3l1.23-.37Zm-4.54,25.53a78.21,78.21,0,0,1-16.94-7,90.89,90.89,0,0,1-17.55,7ZM541.07,89V81.27H518.85V89ZM520.94,52.37a50,50,0,0,0,9.39,7.24,46,46,0,0,0,9.39-7.24Z"/>
        <g>
          <circle class="cls-3" cx="621.78" cy="68.88" r="41.39"/>
          <path class="cls-5" d="M616.93,78.7c-7.42,2.82-15.4,5.7-21.54,7.91l-3-7c2.34-.68,5.28-1.54,8.47-2.52V53.53H594V46.78h21v6.75h-6.81v21.3l7.55-2.45Zm8.1,6.75,5.65,4a56.84,56.84,0,0,1-15.9,8,35.74,35.74,0,0,0-4.41-5c5-1.53,11-4.54,14.17-7h-6.2V53H628c.31-1.41.55-2.88.8-4.23H615.83V42.67h34.73v6.14H637c-.49,1.47-1,2.88-1.53,4.23h12.82V85.45Zm.06-23.14h16.08V58.44H625.09Zm0,8.84h16.08V67.22H625.09Zm0,9h16.08V76.18H625.09Zm14.3,5.52a91.76,91.76,0,0,1,12.22,7.67l-5.77,4.3A87.82,87.82,0,0,0,634,89.5Z"/>
        </g>
        <path class="cls-4" d="M632.18,30.06A5.38,5.38,0,0,1,629,27.65c-1.41-2.43-3.5-4.68-7.26-4.71-2.62,0-5.66.93-7.26,3a.49.49,0,0,0,0,.62,1.42,1.42,0,0,1,.27,1.29c-.2.79-1.06,1.21-1.81,1.61a8.16,8.16,0,0,1-1.6.62,5.31,5.31,0,0,1-3.92-.52c-2.45-1.39-5.38-2.3-8.65-.45-2.28,1.29-4.44,3.64-4.8,6.22a.5.5,0,0,0,.31.53,1.47,1.47,0,0,1,.89,1,3.13,3.13,0,0,1-.77,2.3,7.52,7.52,0,0,1-1.07,1.33A5.38,5.38,0,0,1,589.71,42c-2.81,0-5.81.69-7.71,3.93-1.34,2.26-2,5.38-1.06,7.78a.53.53,0,0,0,.55.31,1.42,1.42,0,0,1,1.26.41,3.16,3.16,0,0,1,.47,2.38,7.12,7.12,0,0,1-.25,1.69,5.38,5.38,0,0,1-2.41,3.14c-2.43,1.41-4.69,3.5-4.72,7.26,0,2.63.94,5.67,3,7.27a.52.52,0,0,0,.62,0,1.42,1.42,0,0,1,1.3-.28c.78.2,1.21,1,1.61,1.81a8.16,8.16,0,0,1,.62,1.6,5.31,5.31,0,0,1-.52,3.92c-1.39,2.44-2.3,5.38-.45,8.65,1.29,2.29,3.64,4.44,6.21,4.8a.51.51,0,0,0,.54-.31,1.47,1.47,0,0,1,1-.89,3.1,3.1,0,0,1,2.29.77,7.58,7.58,0,0,1,1.34,1.07,5.34,5.34,0,0,1,1.51,3.66c0,2.81.7,5.8,3.94,7.71,2.26,1.33,5.37,2,7.78,1.06a.54.54,0,0,0,.31-.54,1.43,1.43,0,0,1,.4-1.26,3.15,3.15,0,0,1,2.39-.49,7.52,7.52,0,0,1,1.68.26,5.37,5.37,0,0,1,3.15,2.41c1.41,2.43,3.5,4.69,7.26,4.72,2.63,0,5.67-.94,7.26-3a.52.52,0,0,0,0-.62,1.48,1.48,0,0,1-.28-1.3c.21-.78,1.06-1.21,1.82-1.6a7.61,7.61,0,0,1,1.6-.63,5.26,5.26,0,0,1,3.92.52c2.44,1.4,5.38,2.3,8.65.45,2.28-1.29,4.44-3.64,4.8-6.21a.52.52,0,0,0-.31-.54,1.46,1.46,0,0,1-.89-1,3.11,3.11,0,0,1,.77-2.3,7.58,7.58,0,0,1,1.07-1.34,5.33,5.33,0,0,1,3.66-1.51c2.81,0,5.8-.7,7.71-3.93,1.33-2.27,2-5.38,1.06-7.79a.51.51,0,0,0-.54-.3,1.45,1.45,0,0,1-1.26-.41,3.07,3.07,0,0,1-.49-2.38,7.61,7.61,0,0,1,.26-1.69A5.28,5.28,0,0,1,663,76.14c2.43-1.42,4.68-3.51,4.71-7.26,0-2.63-.93-5.67-3-7.27a.51.51,0,0,0-.62,0,1.48,1.48,0,0,1-1.3.28c-.79-.21-1.21-1.06-1.6-1.82a7.61,7.61,0,0,1-.63-1.6,5.31,5.31,0,0,1,.52-3.92c1.4-2.44,2.3-5.38.45-8.65-1.3-2.28-3.65-4.44-6.22-4.8a.52.52,0,0,0-.53.31,1.44,1.44,0,0,1-1,.89,3.14,3.14,0,0,1-2.31-.77,7.52,7.52,0,0,1-1.33-1.07,5.28,5.28,0,0,1-1.51-3.66c0-2.81-.7-5.8-3.94-7.71-2.26-1.33-5.38-2-7.78-1.06a.54.54,0,0,0-.31.55,1.42,1.42,0,0,1-.41,1.26,3.13,3.13,0,0,1-2.37.48,7.7,7.7,0,0,1-1.7-.26Z"/>
        <circle class="cls-3" cx="713.67" cy="68.88" r="41.39"/>
        <path class="cls-4" d="M724.07,30.06a5.32,5.32,0,0,1-3.14-2.41c-1.42-2.43-3.51-4.68-7.26-4.71-2.63,0-5.67.93-7.27,3a.51.51,0,0,0,0,.62,1.46,1.46,0,0,1,.28,1.29c-.21.79-1.06,1.21-1.82,1.61a7.7,7.7,0,0,1-1.6.62,5.32,5.32,0,0,1-3.92-.52c-2.44-1.39-5.38-2.3-8.64-.45-2.29,1.29-4.45,3.64-4.81,6.22a.52.52,0,0,0,.31.53,1.45,1.45,0,0,1,.89,1,3.13,3.13,0,0,1-.77,2.3,7.1,7.1,0,0,1-1.07,1.33A5.36,5.36,0,0,1,681.6,42c-2.82,0-5.81.69-7.72,3.93-1.33,2.26-2,5.38-1,7.78a.51.51,0,0,0,.54.31,1.42,1.42,0,0,1,1.26.41,3.16,3.16,0,0,1,.48,2.38,7.7,7.7,0,0,1-.26,1.69,5.38,5.38,0,0,1-2.41,3.14c-2.43,1.41-4.68,3.5-4.72,7.26,0,2.63.94,5.67,3,7.27a.51.51,0,0,0,.61,0,1.42,1.42,0,0,1,1.3-.28c.79.2,1.21,1,1.61,1.81a8.16,8.16,0,0,1,.62,1.6,5.26,5.26,0,0,1-.52,3.92c-1.39,2.44-2.29,5.38-.45,8.65,1.29,2.29,3.64,4.44,6.22,4.8a.5.5,0,0,0,.53-.31,1.47,1.47,0,0,1,1-.89,3.09,3.09,0,0,1,2.29.77,7.24,7.24,0,0,1,1.34,1.07,5.35,5.35,0,0,1,1.52,3.66c0,2.81.69,5.8,3.93,7.71,2.26,1.33,5.38,2,7.78,1.06a.53.53,0,0,0,.31-.54,1.4,1.4,0,0,1,.41-1.26,3.12,3.12,0,0,1,2.38-.49,7.61,7.61,0,0,1,1.69.26,5.38,5.38,0,0,1,3.14,2.41c1.41,2.43,3.51,4.69,7.26,4.72,2.63,0,5.67-.94,7.27-3a.52.52,0,0,0,0-.62,1.42,1.42,0,0,1-.28-1.3c.21-.78,1.06-1.21,1.81-1.6a7.83,7.83,0,0,1,1.6-.63,5.25,5.25,0,0,1,3.92.52c2.45,1.4,5.38,2.3,8.65.45,2.29-1.29,4.44-3.64,4.8-6.21a.51.51,0,0,0-.31-.54,1.46,1.46,0,0,1-.89-1,3.11,3.11,0,0,1,.77-2.3,7.21,7.21,0,0,1,1.08-1.34,5.3,5.3,0,0,1,3.65-1.51c2.81,0,5.81-.7,7.72-3.93,1.32-2.27,2-5.38,1-7.79a.5.5,0,0,0-.54-.3,1.46,1.46,0,0,1-1.26-.41,3.07,3.07,0,0,1-.48-2.38,7.59,7.59,0,0,1,.25-1.69,5.3,5.3,0,0,1,2.42-3.14c2.42-1.42,4.68-3.51,4.71-7.26,0-2.63-.94-5.67-3-7.27a.51.51,0,0,0-.62,0,1.48,1.48,0,0,1-1.3.28c-.78-.21-1.21-1.06-1.6-1.82a7.61,7.61,0,0,1-.63-1.6,5.31,5.31,0,0,1,.52-3.92c1.4-2.44,2.31-5.38.45-8.65-1.29-2.28-3.64-4.44-6.21-4.8a.53.53,0,0,0-.54.31,1.44,1.44,0,0,1-1,.89,3.1,3.1,0,0,1-2.3-.77,7.17,7.17,0,0,1-1.33-1.07,5.29,5.29,0,0,1-1.52-3.66c0-2.81-.7-5.8-3.93-7.71-2.27-1.33-5.38-2-7.79-1.06a.53.53,0,0,0-.3.55,1.48,1.48,0,0,1-.41,1.26,3.16,3.16,0,0,1-2.38.48,7.61,7.61,0,0,1-1.69-.26Z"/>
        <path class="cls-5" d="M719.31,64.21c4.05,12,11.48,21.61,23,26.27a29.53,29.53,0,0,0-5.4,6.87c-11.11-5.21-18.22-14.17-23-26-3.32,10.25-9.94,19.82-23,26.08a21.67,21.67,0,0,0-5.47-6.19c14.06-6.26,19.89-16.45,22.28-27H686.6V56.66h22.34c.61-5.76.55-11.35.61-16.38h8c-.06,5-.12,10.68-.74,16.38h24.12v7.55Z"/>
        <g>
          <circle class="cls-3" cx="805.55" cy="68.88" r="41.39"/>
          <path class="cls-5" d="M788.61,69.31a56.35,56.35,0,0,0-11.48-6.63L781,57.22a56.3,56.3,0,0,1,11.66,6ZM779.28,92a168.63,168.63,0,0,0,11.6-19.33l5.4,4.91c-3.25,6.38-7.18,13.38-10.8,19.33ZM792.17,53a58.28,58.28,0,0,0-11.42-6.81l4-5.4A58.74,58.74,0,0,1,796.4,47Zm35,44.5a28.12,28.12,0,0,0-2.15-5.4c-20.43,2.45-23.56,2.94-25.59,4a66.81,66.81,0,0,0-2.58-7.31c1.41-.43,2.58-1.72,4-3.93a89.4,89.4,0,0,0,6.51-13.13H795.79V64.89h14.54V56.23H798.24V49.3h12.09V40.16h7.43V49.3h12.52v6.93H817.76v8.66h14.79v6.87H815.86a116.9,116.9,0,0,1-8.53,15.77l14.42-1.47a70.29,70.29,0,0,0-4.11-6.32l6-2.95c4,5.34,8.53,12.46,10.13,17.43Z"/>
        </g>
        <path class="cls-4" d="M816,30.06a5.35,5.35,0,0,1-3.14-2.41c-1.41-2.43-3.5-4.68-7.26-4.71-2.63,0-5.67.93-7.26,3a.49.49,0,0,0,0,.62,1.45,1.45,0,0,1,.27,1.29c-.21.79-1.06,1.21-1.82,1.61a7.7,7.7,0,0,1-1.6.62,5.32,5.32,0,0,1-3.92-.52c-2.44-1.39-5.37-2.3-8.64-.45-2.29,1.29-4.44,3.64-4.81,6.22a.52.52,0,0,0,.32.53,1.47,1.47,0,0,1,.89,1,3.18,3.18,0,0,1-.78,2.3,7.1,7.1,0,0,1-1.07,1.33A5.36,5.36,0,0,1,773.48,42c-2.82,0-5.81.69-7.71,3.93-1.34,2.26-2,5.38-1.06,7.78a.52.52,0,0,0,.54.31,1.4,1.4,0,0,1,1.26.41,3.11,3.11,0,0,1,.48,2.38,7.15,7.15,0,0,1-.26,1.69,5.34,5.34,0,0,1-2.41,3.14c-2.43,1.41-4.68,3.5-4.71,7.26,0,2.63.94,5.67,3,7.27a.52.52,0,0,0,.62,0,1.42,1.42,0,0,1,1.3-.28c.78.2,1.21,1,1.61,1.81a7.55,7.55,0,0,1,.61,1.6,5.22,5.22,0,0,1-.52,3.92c-1.39,2.44-2.29,5.38-.44,8.65,1.29,2.29,3.64,4.44,6.21,4.8a.51.51,0,0,0,.54-.31,1.44,1.44,0,0,1,1-.89,3.11,3.11,0,0,1,2.3.77,7.52,7.52,0,0,1,1.33,1.07,5.31,5.31,0,0,1,1.52,3.66c0,2.81.69,5.8,3.94,7.71,2.26,1.33,5.37,2,7.78,1.06a.54.54,0,0,0,.31-.54,1.43,1.43,0,0,1,.4-1.26,3.14,3.14,0,0,1,2.38-.49,7.61,7.61,0,0,1,1.69.26,5.35,5.35,0,0,1,3.14,2.41c1.41,2.43,3.51,4.69,7.27,4.72,2.62,0,5.66-.94,7.26-3a.52.52,0,0,0,0-.62,1.45,1.45,0,0,1-.28-1.3c.21-.78,1.06-1.21,1.82-1.6a7.53,7.53,0,0,1,1.59-.63,5.28,5.28,0,0,1,3.93.52c2.44,1.4,5.37,2.3,8.64.45,2.29-1.29,4.44-3.64,4.8-6.21a.51.51,0,0,0-.31-.54,1.48,1.48,0,0,1-.89-1,3.2,3.2,0,0,1,.77-2.3A8.13,8.13,0,0,1,834,97.29a5.31,5.31,0,0,1,3.66-1.51c2.81,0,5.8-.7,7.71-3.93,1.33-2.27,2-5.38,1-7.79a.5.5,0,0,0-.54-.3,1.46,1.46,0,0,1-1.26-.41,3.11,3.11,0,0,1-.48-2.38,7.07,7.07,0,0,1,.26-1.69,5.28,5.28,0,0,1,2.41-3.14c2.43-1.42,4.68-3.51,4.71-7.26,0-2.63-.94-5.67-3-7.27a.52.52,0,0,0-.63,0,1.47,1.47,0,0,1-1.3.28c-.78-.21-1.2-1.06-1.6-1.82a7.58,7.58,0,0,1-.62-1.6,5.31,5.31,0,0,1,.52-3.92c1.39-2.44,2.3-5.38.44-8.65-1.29-2.28-3.64-4.44-6.21-4.8a.54.54,0,0,0-.54.31,1.42,1.42,0,0,1-1,.89,3.11,3.11,0,0,1-2.3-.77A7.17,7.17,0,0,1,834,40.46a5.24,5.24,0,0,1-1.51-3.66c0-2.81-.7-5.8-3.94-7.71-2.27-1.33-5.38-2-7.79-1.06a.53.53,0,0,0-.3.55,1.48,1.48,0,0,1-.41,1.26,3.16,3.16,0,0,1-2.38.48,7.61,7.61,0,0,1-1.69-.26Z"/>
        <g>
          <circle class="cls-3" cx="897.43" cy="68.88" r="41.39"/>
          <path class="cls-5" d="M902.65,42c-.31.36-.62.79-.92,1.16,5.64,4.91,15.71,9.15,25.47,11.05a25.11,25.11,0,0,0-4.61,5.58c-1.22-.3-2.51-.73-3.8-1.1V74.52H876.14V59.06c-1.29.43-2.58.86-3.81,1.16a39.22,39.22,0,0,0-3.93-5.64c11.29-2.64,22.22-7.74,27.8-14.85Zm13.93,15.89a67.26,67.26,0,0,1-8.35-3.74v1.59H886.69V54.52a75.62,75.62,0,0,1-7.42,3.37Zm-37,18.66h36.09V97.29h-7.49V95.82H886.75v1.66h-7.18Zm6.94-6.45a24.53,24.53,0,0,0-2.09-6.38l4.73-1.35h-6.94V70.1Zm.24,11.24v2.45h21.42V81.34ZM908.17,91V88.58H886.75V91ZM894.24,62.37h-4.79a27.72,27.72,0,0,1,2.46,6.51L888,70.1h6.26ZM903.08,51a61.41,61.41,0,0,1-5.16-4c-1.59,1.35-3.37,2.7-5.21,4Zm-3,11.35V70.1h5.71l-3.68-1a47.34,47.34,0,0,0,2.39-6.69Zm12.15,0H905.9l4.79,1.17c-1.23,2.45-2.4,4.85-3.38,6.56h5Z"/>
        </g>
        <path class="cls-4" d="M907.83,30.06a5.38,5.38,0,0,1-3.14-2.41c-1.41-2.43-3.5-4.68-7.26-4.71-2.62,0-5.67.93-7.26,3a.49.49,0,0,0,0,.62,1.42,1.42,0,0,1,.27,1.29c-.2.79-1.06,1.21-1.81,1.61a8.16,8.16,0,0,1-1.6.62,5.34,5.34,0,0,1-3.93-.52c-2.44-1.39-5.37-2.3-8.64-.45-2.28,1.29-4.44,3.64-4.8,6.22a.5.5,0,0,0,.31.53,1.47,1.47,0,0,1,.89,1,3.13,3.13,0,0,1-.77,2.3A7.15,7.15,0,0,1,869,40.46,5.34,5.34,0,0,1,865.36,42c-2.81,0-5.81.69-7.71,3.93-1.34,2.26-2,5.38-1.06,7.78a.53.53,0,0,0,.55.31,1.42,1.42,0,0,1,1.26.41,3.16,3.16,0,0,1,.47,2.38,7.12,7.12,0,0,1-.25,1.69,5.38,5.38,0,0,1-2.41,3.14c-2.43,1.41-4.69,3.5-4.72,7.26,0,2.63.94,5.67,3,7.27a.52.52,0,0,0,.62,0,1.42,1.42,0,0,1,1.3-.28c.78.2,1.21,1,1.61,1.81a8.16,8.16,0,0,1,.62,1.6,5.31,5.31,0,0,1-.52,3.92c-1.39,2.44-2.3,5.38-.45,8.65,1.29,2.29,3.64,4.44,6.21,4.8a.51.51,0,0,0,.54-.31,1.47,1.47,0,0,1,1-.89,3.1,3.1,0,0,1,2.29.77A7.17,7.17,0,0,1,869,97.29a5.31,5.31,0,0,1,1.52,3.66c0,2.81.69,5.8,3.94,7.71,2.26,1.33,5.37,2,7.78,1.06a.54.54,0,0,0,.31-.54,1.43,1.43,0,0,1,.4-1.26,3.15,3.15,0,0,1,2.39-.49,7.52,7.52,0,0,1,1.68.26,5.37,5.37,0,0,1,3.15,2.41c1.41,2.43,3.5,4.69,7.26,4.72,2.63,0,5.67-.94,7.26-3a.52.52,0,0,0,0-.62,1.48,1.48,0,0,1-.28-1.3c.21-.78,1.06-1.21,1.82-1.6a7.61,7.61,0,0,1,1.6-.63,5.26,5.26,0,0,1,3.92.52c2.44,1.4,5.37,2.3,8.65.45,2.28-1.29,4.44-3.64,4.8-6.21a.52.52,0,0,0-.31-.54,1.46,1.46,0,0,1-.89-1,3.11,3.11,0,0,1,.77-2.3,7.58,7.58,0,0,1,1.07-1.34,5.33,5.33,0,0,1,3.66-1.51c2.81,0,5.8-.7,7.71-3.93,1.33-2.27,2-5.38,1.06-7.79a.51.51,0,0,0-.54-.3,1.45,1.45,0,0,1-1.26-.41A3.07,3.07,0,0,1,936,81a7.61,7.61,0,0,1,.26-1.69,5.28,5.28,0,0,1,2.41-3.14c2.43-1.42,4.68-3.51,4.71-7.26,0-2.63-.93-5.67-3-7.27a.51.51,0,0,0-.62,0,1.48,1.48,0,0,1-1.3.28c-.79-.21-1.21-1.06-1.6-1.82a7.61,7.61,0,0,1-.63-1.6,5.31,5.31,0,0,1,.52-3.92c1.39-2.44,2.3-5.38.45-8.65-1.3-2.28-3.65-4.44-6.22-4.8a.54.54,0,0,0-.54.31,1.4,1.4,0,0,1-1,.89,3.14,3.14,0,0,1-2.31-.77,7.52,7.52,0,0,1-1.33-1.07,5.28,5.28,0,0,1-1.51-3.66c0-2.81-.7-5.8-3.94-7.71-2.26-1.33-5.38-2-7.78-1.06a.54.54,0,0,0-.31.55,1.42,1.42,0,0,1-.41,1.26,3.14,3.14,0,0,1-2.37.48,7.7,7.7,0,0,1-1.7-.26Z"/>
        <circle class="cls-3" cx="346.13" cy="68.88" r="41.39"/>
        <path class="cls-4" d="M356.53,30.06a5.38,5.38,0,0,1-3.14-2.41c-1.41-2.43-3.5-4.68-7.26-4.71-2.62,0-5.66.93-7.26,3a.49.49,0,0,0,0,.62,1.42,1.42,0,0,1,.27,1.29c-.2.79-1.06,1.21-1.81,1.61a8.16,8.16,0,0,1-1.6.62,5.31,5.31,0,0,1-3.92-.52c-2.45-1.39-5.38-2.3-8.65-.45-2.28,1.29-4.44,3.64-4.8,6.22a.52.52,0,0,0,.31.53,1.47,1.47,0,0,1,.89,1,3.13,3.13,0,0,1-.77,2.3,7.52,7.52,0,0,1-1.07,1.33A5.38,5.38,0,0,1,314.06,42c-2.81,0-5.81.69-7.71,3.93-1.33,2.26-2,5.38-1.06,7.78a.53.53,0,0,0,.55.31,1.42,1.42,0,0,1,1.26.41,3.11,3.11,0,0,1,.47,2.38,7.12,7.12,0,0,1-.25,1.69,5.38,5.38,0,0,1-2.41,3.14c-2.43,1.41-4.69,3.5-4.72,7.26,0,2.63.94,5.67,3,7.27a.52.52,0,0,0,.62,0,1.42,1.42,0,0,1,1.3-.28c.78.2,1.21,1,1.61,1.81a8.16,8.16,0,0,1,.62,1.6,5.31,5.31,0,0,1-.52,3.92c-1.39,2.44-2.3,5.38-.45,8.65,1.29,2.29,3.64,4.44,6.21,4.8a.51.51,0,0,0,.54-.31,1.47,1.47,0,0,1,1-.89,3.09,3.09,0,0,1,2.29.77,7.58,7.58,0,0,1,1.34,1.07,5.4,5.4,0,0,1,1.52,3.66c0,2.81.69,5.8,3.93,7.71,2.26,1.33,5.37,2,7.78,1.06a.54.54,0,0,0,.31-.54,1.43,1.43,0,0,1,.4-1.26,3.15,3.15,0,0,1,2.39-.49,7.7,7.7,0,0,1,1.69.26,5.38,5.38,0,0,1,3.14,2.41c1.41,2.43,3.5,4.69,7.26,4.72,2.63,0,5.67-.94,7.26-3a.52.52,0,0,0,0-.62,1.48,1.48,0,0,1-.28-1.3c.21-.78,1.06-1.21,1.82-1.6a7.61,7.61,0,0,1,1.6-.63,5.26,5.26,0,0,1,3.92.52c2.44,1.4,5.38,2.3,8.65.45,2.28-1.29,4.44-3.64,4.8-6.21a.52.52,0,0,0-.31-.54,1.46,1.46,0,0,1-.89-1,3.11,3.11,0,0,1,.77-2.3,7.58,7.58,0,0,1,1.07-1.34,5.33,5.33,0,0,1,3.66-1.51c2.81,0,5.8-.7,7.71-3.93,1.33-2.27,2-5.38,1.06-7.79a.51.51,0,0,0-.54-.3,1.45,1.45,0,0,1-1.26-.41,3.12,3.12,0,0,1-.49-2.38,7.61,7.61,0,0,1,.26-1.69,5.28,5.28,0,0,1,2.41-3.14c2.43-1.42,4.68-3.51,4.71-7.26,0-2.63-.93-5.67-3-7.27a.51.51,0,0,0-.62,0,1.48,1.48,0,0,1-1.3.28c-.79-.21-1.21-1.06-1.6-1.82a7.61,7.61,0,0,1-.63-1.6,5.31,5.31,0,0,1,.52-3.92c1.4-2.44,2.3-5.38.45-8.65-1.3-2.28-3.65-4.44-6.22-4.8a.52.52,0,0,0-.53.31,1.44,1.44,0,0,1-1,.89,3.1,3.1,0,0,1-2.3-.77,7.24,7.24,0,0,1-1.34-1.07A5.28,5.28,0,0,1,373,36.8c0-2.81-.7-5.8-3.94-7.71-2.26-1.33-5.38-2-7.78-1.06a.54.54,0,0,0-.31.55,1.42,1.42,0,0,1-.41,1.26,3.13,3.13,0,0,1-2.37.48,7.79,7.79,0,0,1-1.7-.26Z"/>
        <path class="cls-5" d="M374.24,84.47h-21V97.6H345.7V84.47H318.08v-7h9.7V61.39H345.7V54H332.57a55.1,55.1,0,0,1-8.35,11.16,56.78,56.78,0,0,0-6.32-4.72C323.42,55.81,328.15,48,330.79,40l7.42,1.91a39.12,39.12,0,0,1-2,5h34.67V54H353.25v7.36h16.2v6.75h-16.2v9.33h21Zm-28.54-7V68.14H335.08v9.33Z"/>
        <g>
          <circle class="cls-3" cx="438.02" cy="68.88" r="41.39"/>
          <path class="cls-5" d="M421.57,61.76c0,10.31-.8,25.65-5.89,35.65A29.78,29.78,0,0,0,409,94.28c4.91-9.45,5.34-23.13,5.34-32.46V45.49h22.89a30.32,30.32,0,0,0-1.48-4.05l7.43-1.65a41.73,41.73,0,0,1,2.33,5.7h20.25v6.82H421.57Zm40.56,15.83a30.33,30.33,0,0,1-10.8,11.35,100.51,100.51,0,0,0,15.41,2.21,33,33,0,0,0-4.18,6.32A71.32,71.32,0,0,1,442.68,93a84.77,84.77,0,0,1-19.39,4.12,28.66,28.66,0,0,0-3-6.08,93.8,93.8,0,0,0,14.48-2.15,35,35,0,0,1-7.42-6.69l2.45-1h-6.5V75.5h33l1.29-.24Zm-31.05-4.54V63.48h-8.29V57.77h8.29V53.72H438v4.05h11.17V53.72h7.24v4.05h8.84v5.71h-8.84v9.57ZM435,81.21a28.08,28.08,0,0,0,8.1,5,29.41,29.41,0,0,0,8.1-5Zm3-17.73v4.05h11.17V63.48Z"/>
        </g>
        <path class="cls-4" d="M448.42,30.06a5.32,5.32,0,0,1-3.14-2.41c-1.42-2.43-3.51-4.68-7.26-4.71-2.63,0-5.67.93-7.27,3a.51.51,0,0,0,0,.62,1.46,1.46,0,0,1,.28,1.29c-.21.79-1.06,1.21-1.82,1.61a7.7,7.7,0,0,1-1.6.62,5.32,5.32,0,0,1-3.92-.52c-2.44-1.39-5.38-2.3-8.64-.45-2.29,1.29-4.45,3.64-4.81,6.22a.52.52,0,0,0,.31.53,1.45,1.45,0,0,1,.89,1,3.13,3.13,0,0,1-.77,2.3,7.1,7.1,0,0,1-1.07,1.33A5.36,5.36,0,0,1,406,42c-2.82,0-5.81.69-7.72,3.93-1.33,2.26-2,5.38-1.05,7.78a.51.51,0,0,0,.54.31,1.42,1.42,0,0,1,1.26.41,3.16,3.16,0,0,1,.48,2.38,7.7,7.7,0,0,1-.26,1.69,5.38,5.38,0,0,1-2.41,3.14c-2.43,1.41-4.68,3.5-4.71,7.26,0,2.63.93,5.67,3,7.27a.51.51,0,0,0,.61,0,1.42,1.42,0,0,1,1.3-.28c.79.2,1.21,1,1.61,1.81a7.58,7.58,0,0,1,.62,1.6,5.26,5.26,0,0,1-.52,3.92c-1.39,2.44-2.29,5.38-.45,8.65,1.3,2.29,3.64,4.44,6.22,4.8a.5.5,0,0,0,.53-.31,1.47,1.47,0,0,1,1-.89,3.09,3.09,0,0,1,2.29.77,7.24,7.24,0,0,1,1.34,1.07,5.35,5.35,0,0,1,1.52,3.66c0,2.81.69,5.8,3.93,7.71,2.26,1.33,5.38,2,7.78,1.06a.53.53,0,0,0,.31-.54,1.4,1.4,0,0,1,.41-1.26,3.12,3.12,0,0,1,2.38-.49,7.61,7.61,0,0,1,1.69.26,5.38,5.38,0,0,1,3.14,2.41c1.41,2.43,3.51,4.69,7.26,4.72,2.63,0,5.67-.94,7.27-3a.52.52,0,0,0,0-.62,1.42,1.42,0,0,1-.28-1.3c.21-.78,1.06-1.21,1.81-1.6a7.83,7.83,0,0,1,1.6-.63,5.25,5.25,0,0,1,3.92.52c2.45,1.4,5.38,2.3,8.65.45,2.29-1.29,4.44-3.64,4.8-6.21a.51.51,0,0,0-.31-.54,1.46,1.46,0,0,1-.89-1,3.11,3.11,0,0,1,.77-2.3,7.64,7.64,0,0,1,1.08-1.34,5.3,5.3,0,0,1,3.65-1.51c2.81,0,5.81-.7,7.72-3.93,1.32-2.27,2-5.38,1.05-7.79a.5.5,0,0,0-.54-.3,1.46,1.46,0,0,1-1.26-.41,3.07,3.07,0,0,1-.48-2.38,7.59,7.59,0,0,1,.25-1.69,5.3,5.3,0,0,1,2.42-3.14c2.42-1.42,4.68-3.51,4.71-7.26,0-2.63-.94-5.67-3-7.27a.51.51,0,0,0-.62,0,1.48,1.48,0,0,1-1.3.28c-.78-.21-1.21-1.06-1.6-1.82a7.61,7.61,0,0,1-.63-1.6,5.31,5.31,0,0,1,.52-3.92c1.4-2.44,2.31-5.38.45-8.65-1.29-2.28-3.64-4.44-6.21-4.8a.53.53,0,0,0-.54.31,1.44,1.44,0,0,1-1,.89,3.11,3.11,0,0,1-2.3-.77,7.17,7.17,0,0,1-1.33-1.07,5.29,5.29,0,0,1-1.52-3.66c0-2.81-.7-5.8-3.93-7.71-2.27-1.33-5.38-2-7.79-1.06a.53.53,0,0,0-.3.55,1.48,1.48,0,0,1-.41,1.26,3.16,3.16,0,0,1-2.38.48,7.61,7.61,0,0,1-1.69-.26Z"/>
      </g>
    </g>
  </g>
</svg>
