<?xml version="1.0" encoding="UTF-8"?>
<svg id="_圖層_2" data-name="圖層 2" xmlns="http://www.w3.org/2000/svg" width="378.6" height="50.5" viewBox="0 0 378.6 50.5">
  <defs>
    <style>
      .cls-1, .cls-2 {
        fill: #fff;
      }

      .cls-3 {
        fill: #ca954a;
      }

      .cls-2 {
        stroke: #e8b356;
        stroke-width: 2.2px;
      }

      .cls-2, .cls-4 {
        stroke-miterlimit: 10;
      }

      .cls-4 {
        fill: none;
        stroke: #f4cfb0;
        stroke-width: .52px;
      }

      .cls-5 {
        opacity: .2;
      }
    </style>
  </defs>
  <g id="_圖層_2-2" data-name="圖層 2">
    <g class="cls-5">
      <g>
        <path class="cls-1" d="M45.05,14.82c-.13,2.39-.99,4.39-2.6,5.99-1.61,1.61-3.98,2.82-7.11,3.62-3.13,.8-7.08,1.21-11.86,1.21-3.64,0-6.91-.19-9.8-.58-2.89-.39-5.35-1.06-7.39-2-2.04-.94-3.59-2.23-4.67-3.86-1.08-1.63-1.62-3.69-1.62-6.18s.54-4.57,1.62-6.24c1.08-1.67,2.64-3,4.67-4,2.04-.99,4.5-1.7,7.39-2.13,2.89-.43,6.16-.64,9.8-.64,4.77,0,8.73,.43,11.87,1.3,3.14,.87,5.52,2.14,7.12,3.83,1.61,1.68,2.48,3.73,2.6,6.14h-9.8c-.3-.8-.85-1.51-1.66-2.13-.8-.62-2.01-1.1-3.62-1.45-1.61-.35-3.78-.53-6.52-.53-3.22,0-5.83,.19-7.84,.58-2.01,.39-3.48,1.01-4.41,1.87-.93,.85-1.39,1.99-1.39,3.39,0,1.28,.46,2.32,1.39,3.13,.93,.8,2.4,1.39,4.41,1.77,2.01,.38,4.62,.57,7.84,.57,2.74,0,4.91-.16,6.5-.49,1.6-.33,2.8-.77,3.6-1.34,.8-.57,1.36-1.17,1.66-1.83h9.8Z"/>
        <path class="cls-1" d="M59.41,14.7v3.02h28.65v7.16H49.99V.75h38V7.92h-28.57v3.02h23.37v3.77h-23.37Z"/>
        <path class="cls-1" d="M92.96,24.88V.75h29.14c2.29,0,4.34,.26,6.16,.77,1.82,.52,3.27,1.38,4.34,2.58,1.07,1.21,1.6,2.85,1.6,4.94,0,1.38-.25,2.53-.75,3.43-.5,.9-1.19,1.61-2.07,2.11-.88,.5-1.88,.87-3.02,1.09-1.13,.23-2.31,.36-3.54,.41l-2.75-.53c2.99,.03,5.3,.15,6.92,.38,1.62,.23,2.75,.64,3.39,1.23,.64,.59,.96,1.44,.96,2.54v5.16h-9.42v-4.03c0-.75-.14-1.33-.43-1.72-.29-.39-.92-.66-1.88-.81-.97-.15-2.46-.23-4.47-.23h-14.74v6.79h-9.42Zm9.42-13.08h19.72c.75,0,1.39-.13,1.9-.38,.51-.25,.77-.73,.77-1.43,0-.65-.26-1.1-.77-1.34-.52-.24-1.15-.36-1.9-.36h-19.72v3.51Z"/>
        <path class="cls-1" d="M148.83,14.7v3.02h28.65v7.16h-38.07V.75h38V7.92h-28.57v3.02h23.37v3.77h-23.37Z"/>
        <path class="cls-1" d="M212.31,22.02h-5.65L227.24,.75h9.42V24.88h-9.42V8.44l2.83,1.17-14.89,15.27h-11.31l-14.93-15.23,2.87-1.17V24.88h-9.42V.75h9.42l20.51,21.26Z"/>
        <path class="cls-1" d="M264.37,25.63c-5.48,0-9.89-.48-13.23-1.45-3.34-.97-5.77-2.4-7.29-4.3-1.52-1.9-2.28-4.25-2.28-7.07s.76-5.17,2.28-7.07c1.52-1.9,3.95-3.33,7.29-4.3,3.34-.97,7.75-1.45,13.23-1.45s9.89,.48,13.23,1.45c3.34,.97,5.77,2.4,7.29,4.3,1.52,1.9,2.28,4.25,2.28,7.07s-.76,5.17-2.28,7.07c-1.52,1.9-3.95,3.33-7.29,4.3-3.34,.97-7.75,1.45-13.23,1.45Zm0-7.16c2.59,0,4.83-.16,6.71-.47,1.88-.31,3.34-.88,4.37-1.7,1.03-.82,1.55-1.98,1.55-3.49s-.52-2.67-1.55-3.49c-1.03-.82-2.49-1.38-4.37-1.7-1.88-.31-4.12-.47-6.71-.47s-4.86,.16-6.8,.47c-1.95,.31-3.47,.88-4.56,1.7-1.09,.82-1.64,1.98-1.64,3.49s.55,2.67,1.64,3.49c1.09,.82,2.61,1.38,4.56,1.7,1.95,.31,4.22,.47,6.8,.47Z"/>
        <path class="cls-1" d="M329.89,17.49l-3.51,2V.75h9.42V24.88h-9.42l-28.39-16.44,3.51-2.04V24.88h-9.42V.75h9.42l28.39,16.74Z"/>
        <path class="cls-1" d="M378.6,.75l-15.27,17.98v6.14h-9.42v-6.14L338.64,.75h11.12l12.4,15.64h-6.97l12.29-15.64h11.12Z"/>
      </g>
    </g>
    <g>
      <g>
        <circle class="cls-2" cx="153.19" cy="32.11" r="16.33"/>
        <path class="cls-4" d="M157.29,16.79c-.51-.13-.98-.5-1.24-.95-.56-.96-1.38-1.85-2.86-1.86-1.04,0-2.24,.37-2.87,1.18-.05,.06-.07,.16,0,.24,.13,.18,.15,.34,.11,.51-.08,.31-.42,.48-.72,.63-.2,.1-.41,.19-.63,.24-.5,.14-1.1,.05-1.55-.21-.96-.55-2.12-.91-3.41-.18-.9,.51-1.75,1.44-1.9,2.45,0,.07,.02,.17,.12,.21,.2,.09,.3,.22,.35,.39,.08,.31-.12,.62-.3,.91-.12,.19-.26,.37-.42,.53-.36,.38-.92,.59-1.44,.6-1.11,0-2.29,.27-3.04,1.55-.53,.89-.8,2.12-.42,3.07,.03,.07,.11,.13,.22,.12,.21-.02,.37,.03,.5,.16,.22,.23,.2,.6,.19,.94,0,.22-.04,.44-.1,.67-.13,.51-.5,.98-.95,1.24-.96,.56-1.85,1.38-1.86,2.87,0,1.04,.37,2.24,1.18,2.87,.06,.04,.16,.06,.24,0,.18-.13,.34-.16,.51-.11,.31,.08,.48,.42,.64,.72,.1,.2,.19,.41,.24,.63,.14,.5,.05,1.1-.21,1.55-.55,.96-.91,2.12-.18,3.41,.51,.9,1.44,1.75,2.45,1.89,.07,.01,.17-.02,.21-.12,.09-.2,.22-.3,.39-.35,.31-.08,.62,.12,.91,.3,.19,.12,.37,.26,.53,.42,.38,.37,.6,.92,.6,1.44,0,1.11,.27,2.29,1.55,3.04,.89,.52,2.12,.8,3.07,.42,.07-.03,.13-.11,.12-.21-.02-.22,.03-.37,.16-.5,.23-.23,.6-.21,.94-.19,.22,0,.44,.04,.67,.1,.51,.13,.98,.5,1.24,.95,.56,.96,1.38,1.85,2.87,1.86,1.04,0,2.24-.37,2.87-1.17,.04-.06,.06-.16,0-.25-.13-.18-.16-.34-.11-.51,.08-.31,.42-.48,.72-.63,.2-.11,.41-.19,.63-.25,.51-.15,1.1-.05,1.55,.2,.96,.55,2.12,.91,3.41,.18,.9-.51,1.75-1.44,1.89-2.45,0-.07-.02-.17-.12-.21-.2-.09-.3-.21-.35-.39-.08-.31,.12-.62,.3-.91,.12-.19,.26-.37,.42-.53,.36-.38,.92-.59,1.44-.6,1.11,0,2.29-.27,3.04-1.55,.52-.89,.8-2.12,.42-3.07-.03-.07-.11-.13-.21-.12-.22,.02-.37-.03-.5-.16-.23-.22-.21-.6-.19-.94,0-.22,.04-.45,.1-.67,.13-.51,.5-.98,.95-1.24,.96-.56,1.85-1.38,1.86-2.86,.01-1.04-.37-2.24-1.17-2.87-.06-.05-.16-.07-.25,0-.18,.13-.34,.15-.51,.11-.31-.08-.48-.42-.63-.72-.1-.2-.19-.41-.25-.63-.14-.5-.05-1.1,.21-1.55,.55-.96,.91-2.12,.18-3.41-.51-.9-1.44-1.75-2.45-1.9-.07-.01-.17,.02-.21,.12-.09,.2-.21,.3-.39,.35-.31,.08-.62-.12-.91-.3-.19-.12-.37-.26-.53-.42-.38-.36-.59-.93-.6-1.44,0-1.11-.28-2.29-1.55-3.04-.89-.53-2.12-.8-3.07-.42-.07,.03-.13,.11-.12,.22,.02,.21-.03,.37-.16,.5-.22,.22-.6,.2-.94,.19-.22,0-.45-.04-.67-.1h0Z"/>
        <path class="cls-3" d="M161.83,24.31c-1.38,2.2-3.32,4.07-5.59,5.62,2.57,1.14,5.5,1.99,8.57,2.47-.63,.65-1.45,1.89-1.86,2.69-.77-.15-1.5-.34-2.25-.53v8.81h-3.1v-.8h-8.77v.9h-2.93v-8.94c-.92,.27-1.84,.51-2.76,.7-.29-.77-.9-1.94-1.4-2.59,3-.56,6.13-1.5,8.91-2.76-1.04-.77-2.01-1.62-2.91-2.54-1.09,.99-2.25,1.84-3.39,2.57-.46-.58-1.53-1.67-2.13-2.16,3.08-1.6,6.03-4.26,7.7-7.19l2.74,.94c-.34,.53-.68,1.09-1.07,1.62h7.68l.48-.15,2.08,1.33Zm-1.79,10.07c-2.4-.7-4.65-1.6-6.68-2.76-2.16,1.16-4.53,2.06-6.93,2.76h13.61Zm-2.45,5.64v-3.03h-8.77v3.03h8.77Zm-7.94-14.43c1.02,1.04,2.3,1.99,3.7,2.86,1.43-.87,2.69-1.79,3.71-2.86h-7.41Z"/>
        <g>
          <circle class="cls-2" cx="189.45" cy="32.11" r="16.33"/>
          <path class="cls-3" d="M187.53,35.98c-2.93,1.11-6.08,2.25-8.5,3.12l-1.19-2.76c.92-.27,2.08-.61,3.34-.99v-9.3h-2.69v-2.66h8.28v2.66h-2.69v8.4l2.98-.97,.46,2.49Zm3.2,2.66l2.23,1.57c-1.6,1.23-4.14,2.49-6.27,3.17-.39-.56-1.16-1.43-1.74-1.96,1.96-.61,4.36-1.79,5.59-2.78h-2.45v-12.79h3.8c.12-.56,.22-1.14,.31-1.67h-5.11v-2.42h13.71v2.42h-5.35c-.19,.58-.41,1.14-.61,1.67h5.06v12.79h-9.18Zm.02-9.13h6.34v-1.53h-6.34v1.53Zm0,3.49h6.34v-1.55h-6.34v1.55Zm0,3.54h6.34v-1.55h-6.34v1.55Zm5.64,2.18c1.53,.82,3.7,2.11,4.82,3.03l-2.28,1.7c-.99-.9-3.1-2.28-4.67-3.2l2.13-1.53Z"/>
        </g>
        <path class="cls-4" d="M193.55,16.79c-.51-.13-.98-.5-1.24-.95-.56-.96-1.38-1.85-2.86-1.86-1.04,0-2.24,.37-2.87,1.18-.05,.06-.07,.16,0,.24,.13,.18,.15,.34,.11,.51-.08,.31-.42,.48-.72,.63-.2,.1-.41,.19-.63,.24-.5,.14-1.1,.05-1.55-.21-.96-.55-2.12-.91-3.41-.18-.9,.51-1.75,1.44-1.9,2.45,0,.07,.02,.17,.12,.21,.2,.09,.3,.22,.35,.39,.08,.31-.12,.62-.3,.91-.12,.19-.26,.37-.42,.53-.36,.38-.92,.59-1.44,.6-1.11,0-2.29,.27-3.04,1.55-.53,.89-.8,2.12-.42,3.07,.03,.07,.11,.13,.22,.12,.21-.02,.37,.03,.5,.16,.22,.23,.2,.6,.19,.94,0,.22-.04,.44-.1,.67-.13,.51-.5,.98-.95,1.24-.96,.56-1.85,1.38-1.86,2.87,0,1.04,.37,2.24,1.18,2.87,.06,.04,.16,.06,.24,0,.18-.13,.34-.16,.51-.11,.31,.08,.48,.42,.64,.72,.1,.2,.19,.41,.24,.63,.14,.5,.05,1.1-.21,1.55-.55,.96-.91,2.12-.18,3.41,.51,.9,1.44,1.75,2.45,1.89,.07,.01,.17-.02,.21-.12,.09-.2,.22-.3,.39-.35,.31-.08,.62,.12,.91,.3,.19,.12,.37,.26,.53,.42,.38,.37,.6,.92,.6,1.44,0,1.11,.27,2.29,1.55,3.04,.89,.52,2.12,.8,3.07,.42,.07-.03,.13-.11,.12-.21-.02-.22,.03-.37,.16-.5,.23-.23,.6-.21,.94-.19,.22,0,.44,.04,.67,.1,.51,.13,.98,.5,1.24,.95,.56,.96,1.38,1.85,2.87,1.86,1.04,0,2.24-.37,2.87-1.17,.04-.06,.06-.16,0-.25-.13-.18-.16-.34-.11-.51,.08-.31,.42-.48,.72-.63,.2-.11,.41-.19,.63-.25,.51-.15,1.1-.05,1.55,.2,.96,.55,2.12,.91,3.41,.18,.9-.51,1.75-1.44,1.89-2.45,0-.07-.02-.17-.12-.21-.2-.09-.3-.21-.35-.39-.08-.31,.12-.62,.3-.91,.12-.19,.26-.37,.42-.53,.36-.38,.92-.59,1.44-.6,1.11,0,2.29-.27,3.04-1.55,.52-.89,.8-2.12,.42-3.07-.03-.07-.11-.13-.21-.12-.22,.02-.37-.03-.5-.16-.23-.22-.21-.6-.19-.94,0-.22,.04-.45,.1-.67,.13-.51,.5-.98,.95-1.24,.96-.56,1.85-1.38,1.86-2.86,.01-1.04-.37-2.24-1.17-2.87-.06-.05-.16-.07-.25,0-.18,.13-.34,.15-.51,.11-.31-.08-.48-.42-.63-.72-.1-.2-.19-.41-.25-.63-.14-.5-.05-1.1,.21-1.55,.55-.96,.91-2.12,.18-3.41-.51-.9-1.44-1.75-2.45-1.9-.07-.01-.17,.02-.21,.12-.09,.2-.21,.3-.39,.35-.31,.08-.62-.12-.91-.3-.19-.12-.37-.26-.53-.42-.38-.36-.59-.93-.6-1.44,0-1.11-.28-2.29-1.55-3.04-.89-.53-2.12-.8-3.07-.42-.07,.03-.13,.11-.12,.22,.02,.21-.03,.37-.16,.5-.22,.22-.6,.2-.94,.19-.22,0-.45-.04-.67-.1h0Z"/>
      </g>
      <circle class="cls-2" cx="225.76" cy="32.11" r="16.33"/>
      <path class="cls-4" d="M229.87,16.79c-.51-.13-.98-.5-1.24-.95-.56-.96-1.38-1.85-2.86-1.86-1.04,0-2.24,.37-2.87,1.18-.05,.06-.07,.16,0,.24,.13,.18,.15,.34,.11,.51-.08,.31-.42,.48-.72,.63-.2,.1-.41,.19-.63,.24-.5,.14-1.1,.05-1.55-.21-.96-.55-2.12-.91-3.41-.18-.9,.51-1.75,1.44-1.9,2.45,0,.07,.02,.17,.12,.21,.2,.09,.3,.22,.35,.39,.08,.31-.12,.62-.3,.91-.12,.19-.26,.37-.42,.53-.36,.38-.92,.59-1.44,.6-1.11,0-2.29,.27-3.04,1.55-.53,.89-.8,2.12-.42,3.07,.03,.07,.11,.13,.22,.12,.21-.02,.37,.03,.5,.16,.22,.23,.2,.6,.19,.94,0,.22-.04,.44-.1,.67-.13,.51-.5,.98-.95,1.24-.96,.56-1.85,1.38-1.86,2.87,0,1.04,.37,2.24,1.18,2.87,.06,.04,.16,.06,.24,0,.18-.13,.34-.16,.51-.11,.31,.08,.48,.42,.64,.72,.1,.2,.19,.41,.24,.63,.14,.5,.05,1.1-.21,1.55-.55,.96-.91,2.12-.18,3.41,.51,.9,1.44,1.75,2.45,1.89,.07,.01,.17-.02,.21-.12,.09-.2,.22-.3,.39-.35,.31-.08,.62,.12,.91,.3,.19,.12,.37,.26,.53,.42,.38,.37,.6,.92,.6,1.44,0,1.11,.27,2.29,1.55,3.04,.89,.52,2.12,.8,3.07,.42,.07-.03,.13-.11,.12-.21-.02-.22,.03-.37,.16-.5,.23-.23,.6-.21,.94-.19,.22,0,.44,.04,.67,.1,.51,.13,.98,.5,1.24,.95,.56,.96,1.38,1.85,2.87,1.86,1.04,0,2.24-.37,2.87-1.17,.04-.06,.06-.16,0-.25-.13-.18-.16-.34-.11-.51,.08-.31,.42-.48,.72-.63,.2-.11,.41-.19,.63-.25,.51-.15,1.1-.05,1.55,.2,.96,.55,2.12,.91,3.41,.18,.9-.51,1.75-1.44,1.89-2.45,0-.07-.02-.17-.12-.21-.2-.09-.3-.21-.35-.39-.08-.31,.12-.62,.3-.91,.12-.19,.26-.37,.42-.53,.36-.38,.92-.59,1.44-.6,1.11,0,2.29-.27,3.04-1.55,.52-.89,.8-2.12,.42-3.07-.03-.07-.11-.13-.21-.12-.22,.02-.37-.03-.5-.16-.23-.22-.21-.6-.19-.94,0-.22,.04-.45,.1-.67,.13-.51,.5-.98,.95-1.24,.96-.56,1.85-1.38,1.86-2.86,.01-1.04-.37-2.24-1.17-2.87-.06-.05-.16-.07-.25,0-.18,.13-.34,.15-.51,.11-.31-.08-.48-.42-.63-.72-.1-.2-.19-.41-.25-.63-.14-.5-.05-1.1,.21-1.55,.55-.96,.91-2.12,.18-3.41-.51-.9-1.44-1.75-2.45-1.9-.07-.01-.17,.02-.21,.12-.09,.2-.21,.3-.39,.35-.31,.08-.62-.12-.91-.3-.19-.12-.37-.26-.53-.42-.38-.36-.59-.93-.6-1.44,0-1.11-.28-2.29-1.55-3.04-.89-.53-2.12-.8-3.07-.42-.07,.03-.13,.11-.12,.22,.02,.21-.03,.37-.16,.5-.22,.22-.6,.2-.94,.19-.22,0-.45-.04-.67-.1h0Z"/>
      <path class="cls-3" d="M227.99,30.27c1.6,4.72,4.53,8.52,9.06,10.36-.73,.61-1.67,1.89-2.13,2.71-4.38-2.06-7.19-5.59-9.08-10.27-1.31,4.04-3.92,7.82-9.06,10.29-.46-.8-1.31-1.84-2.16-2.45,5.55-2.47,7.85-6.49,8.79-10.65h-8.33v-2.98h8.81c.24-2.28,.22-4.48,.24-6.47h3.15c-.02,1.99-.05,4.21-.29,6.47h9.52v2.98h-8.52Z"/>
      <g>
        <circle class="cls-2" cx="262.02" cy="32.11" r="16.33"/>
        <path class="cls-3" d="M255.33,32.28c-.94-.8-2.98-1.94-4.53-2.62l1.53-2.16c1.5,.58,3.56,1.57,4.6,2.37l-1.6,2.4Zm-3.68,8.94c1.31-1.84,3.15-4.82,4.58-7.63l2.13,1.94c-1.28,2.52-2.83,5.28-4.26,7.63l-2.45-1.94Zm5.09-15.35c-.97-.82-2.95-1.99-4.5-2.69l1.57-2.13c1.53,.61,3.58,1.67,4.6,2.45l-1.67,2.37Zm13.8,17.56c-.17-.63-.46-1.38-.85-2.13-8.06,.97-9.3,1.16-10.1,1.57-.17-.63-.65-2.06-1.02-2.88,.56-.17,1.02-.68,1.57-1.55,.44-.65,1.6-2.78,2.57-5.18h-4.55v-2.71h5.74v-3.41h-4.77v-2.74h4.77v-3.61h2.93v3.61h4.94v2.74h-4.94v3.41h5.84v2.71h-6.59c-.97,2.2-2.18,4.38-3.37,6.22l5.69-.58c-.51-.87-1.07-1.74-1.62-2.49l2.35-1.16c1.6,2.11,3.37,4.92,4,6.88l-2.59,1.31Z"/>
      </g>
      <path class="cls-4" d="M266.12,16.79c-.51-.13-.98-.5-1.24-.95-.56-.96-1.38-1.85-2.86-1.86-1.04,0-2.24,.37-2.87,1.18-.05,.06-.07,.16,0,.24,.13,.18,.15,.34,.11,.51-.08,.31-.42,.48-.72,.63-.2,.1-.41,.19-.63,.24-.5,.14-1.1,.05-1.55-.21-.96-.55-2.12-.91-3.41-.18-.9,.51-1.75,1.44-1.9,2.45,0,.07,.02,.17,.12,.21,.2,.09,.3,.22,.35,.39,.08,.31-.12,.62-.3,.91-.12,.19-.26,.37-.42,.53-.36,.38-.92,.59-1.44,.6-1.11,0-2.29,.27-3.04,1.55-.53,.89-.8,2.12-.42,3.07,.03,.07,.11,.13,.22,.12,.21-.02,.37,.03,.5,.16,.22,.23,.2,.6,.19,.94,0,.22-.04,.44-.1,.67-.13,.51-.5,.98-.95,1.24-.96,.56-1.85,1.38-1.86,2.87,0,1.04,.37,2.24,1.18,2.87,.06,.04,.16,.06,.24,0,.18-.13,.34-.16,.51-.11,.31,.08,.48,.42,.64,.72,.1,.2,.19,.41,.24,.63,.14,.5,.05,1.1-.21,1.55-.55,.96-.91,2.12-.18,3.41,.51,.9,1.44,1.75,2.45,1.89,.07,.01,.17-.02,.21-.12,.09-.2,.22-.3,.39-.35,.31-.08,.62,.12,.91,.3,.19,.12,.37,.26,.53,.42,.38,.37,.6,.92,.6,1.44,0,1.11,.27,2.29,1.55,3.04,.89,.52,2.12,.8,3.07,.42,.07-.03,.13-.11,.12-.21-.02-.22,.03-.37,.16-.5,.23-.23,.6-.21,.94-.19,.22,0,.44,.04,.67,.1,.51,.13,.98,.5,1.24,.95,.56,.96,1.38,1.85,2.87,1.86,1.04,0,2.24-.37,2.87-1.17,.04-.06,.06-.16,0-.25-.13-.18-.16-.34-.11-.51,.08-.31,.42-.48,.72-.63,.2-.11,.41-.19,.63-.25,.51-.15,1.1-.05,1.55,.2,.96,.55,2.12,.91,3.41,.18,.9-.51,1.75-1.44,1.89-2.45,0-.07-.02-.17-.12-.21-.2-.09-.3-.21-.35-.39-.08-.31,.12-.62,.3-.91,.12-.19,.26-.37,.42-.53,.36-.38,.92-.59,1.44-.6,1.11,0,2.29-.27,3.04-1.55,.52-.89,.8-2.12,.42-3.07-.03-.07-.11-.13-.21-.12-.22,.02-.37-.03-.5-.16-.23-.22-.21-.6-.19-.94,0-.22,.04-.45,.1-.67,.13-.51,.5-.98,.95-1.24,.96-.56,1.85-1.38,1.86-2.86,.01-1.04-.37-2.24-1.17-2.87-.06-.05-.16-.07-.25,0-.18,.13-.34,.15-.51,.11-.31-.08-.48-.42-.63-.72-.1-.2-.19-.41-.25-.63-.14-.5-.05-1.1,.21-1.55,.55-.96,.91-2.12,.18-3.41-.51-.9-1.44-1.75-2.45-1.9-.07-.01-.17,.02-.21,.12-.09,.2-.21,.3-.39,.35-.31,.08-.62-.12-.91-.3-.19-.12-.37-.26-.53-.42-.38-.36-.59-.93-.6-1.44,0-1.11-.28-2.29-1.55-3.04-.89-.53-2.12-.8-3.07-.42-.07,.03-.13,.11-.12,.22,.02,.21-.03,.37-.16,.5-.22,.22-.6,.2-.94,.19-.22,0-.45-.04-.67-.1h0Z"/>
      <g>
        <circle class="cls-2" cx="298.27" cy="32.11" r="16.33"/>
        <path class="cls-3" d="M300.33,21.5c-.12,.15-.24,.31-.36,.46,2.23,1.94,6.2,3.61,10.05,4.36-.61,.51-1.43,1.53-1.82,2.2-.48-.12-.99-.29-1.5-.44v6.25h-16.83v-6.1c-.51,.17-1.02,.34-1.5,.46-.29-.53-1.07-1.7-1.55-2.23,4.46-1.04,8.77-3.05,10.97-5.86l2.54,.9Zm5.5,6.27c-1.14-.41-2.23-.92-3.29-1.48v.63h-8.5v-.48c-.94,.48-1.91,.94-2.93,1.33h14.72Zm-14.6,7.36h14.24v8.18h-2.95v-.58h-8.45v.65h-2.83v-8.26Zm2.74-2.54c-.12-.75-.44-1.74-.82-2.52l1.86-.53h-2.74v3.05h1.7Zm.1,4.43v.97h8.45v-.97h-8.45Zm8.45,3.83v-.97h-8.45v.97h8.45Zm-5.5-11.31h-1.89c.44,.82,.82,1.86,.97,2.57l-1.55,.48h2.47v-3.05Zm3.49-4.48c-.73-.51-1.43-1.04-2.03-1.57-.63,.53-1.33,1.07-2.06,1.57h4.09Zm-1.16,4.48v3.05h2.25l-1.45-.41c.34-.73,.73-1.84,.94-2.64h-1.74Zm4.79,0h-2.52l1.89,.46c-.48,.97-.94,1.91-1.33,2.59h1.96v-3.05Z"/>
      </g>
      <path class="cls-4" d="M302.38,16.79c-.51-.13-.98-.5-1.24-.95-.56-.96-1.38-1.85-2.86-1.86-1.04,0-2.24,.37-2.87,1.18-.05,.06-.07,.16,0,.24,.13,.18,.15,.34,.11,.51-.08,.31-.42,.48-.72,.63-.2,.1-.41,.19-.63,.24-.5,.14-1.1,.05-1.55-.21-.96-.55-2.12-.91-3.41-.18-.9,.51-1.75,1.44-1.9,2.45,0,.07,.02,.17,.12,.21,.2,.09,.3,.22,.35,.39,.08,.31-.12,.62-.3,.91-.12,.19-.26,.37-.42,.53-.36,.38-.92,.59-1.44,.6-1.11,0-2.29,.27-3.04,1.55-.53,.89-.8,2.12-.42,3.07,.03,.07,.11,.13,.22,.12,.21-.02,.37,.03,.5,.16,.22,.23,.2,.6,.19,.94,0,.22-.04,.44-.1,.67-.13,.51-.5,.98-.95,1.24-.96,.56-1.85,1.38-1.86,2.87,0,1.04,.37,2.24,1.18,2.87,.06,.04,.16,.06,.24,0,.18-.13,.34-.16,.51-.11,.31,.08,.48,.42,.64,.72,.1,.2,.19,.41,.24,.63,.14,.5,.05,1.1-.21,1.55-.55,.96-.91,2.12-.18,3.41,.51,.9,1.44,1.75,2.45,1.89,.07,.01,.17-.02,.21-.12,.09-.2,.22-.3,.39-.35,.31-.08,.62,.12,.91,.3,.19,.12,.37,.26,.53,.42,.38,.37,.6,.92,.6,1.44,0,1.11,.27,2.29,1.55,3.04,.89,.52,2.12,.8,3.07,.42,.07-.03,.13-.11,.12-.21-.02-.22,.03-.37,.16-.5,.23-.23,.6-.21,.94-.19,.22,0,.44,.04,.67,.1,.51,.13,.98,.5,1.24,.95,.56,.96,1.38,1.85,2.87,1.86,1.04,0,2.24-.37,2.87-1.17,.04-.06,.06-.16,0-.25-.13-.18-.16-.34-.11-.51,.08-.31,.42-.48,.72-.63,.2-.11,.41-.19,.63-.25,.51-.15,1.1-.05,1.55,.2,.96,.55,2.12,.91,3.41,.18,.9-.51,1.75-1.44,1.89-2.45,0-.07-.02-.17-.12-.21-.2-.09-.3-.21-.35-.39-.08-.31,.12-.62,.3-.91,.12-.19,.26-.37,.42-.53,.36-.38,.92-.59,1.44-.6,1.11,0,2.29-.27,3.04-1.55,.52-.89,.8-2.12,.42-3.07-.03-.07-.11-.13-.21-.12-.22,.02-.37-.03-.5-.16-.23-.22-.21-.6-.19-.94,0-.22,.04-.45,.1-.67,.13-.51,.5-.98,.95-1.24,.96-.56,1.85-1.38,1.86-2.86,.01-1.04-.37-2.24-1.17-2.87-.06-.05-.16-.07-.25,0-.18,.13-.34,.15-.51,.11-.31-.08-.48-.42-.63-.72-.1-.2-.19-.41-.25-.63-.14-.5-.05-1.1,.21-1.55,.55-.96,.91-2.12,.18-3.41-.51-.9-1.44-1.75-2.45-1.9-.07-.01-.17,.02-.21,.12-.09,.2-.21,.3-.39,.35-.31,.08-.62-.12-.91-.3-.19-.12-.37-.26-.53-.42-.38-.36-.59-.93-.6-1.44,0-1.11-.28-2.29-1.55-3.04-.89-.53-2.12-.8-3.07-.42-.07,.03-.13,.11-.12,.22,.02,.21-.03,.37-.16,.5-.22,.22-.6,.2-.94,.19-.22,0-.45-.04-.67-.1h0Z"/>
      <g>
        <circle class="cls-2" cx="80.18" cy="32.11" r="16.33"/>
        <path class="cls-4" d="M84.29,16.79c-.51-.13-.98-.5-1.24-.95-.56-.96-1.38-1.85-2.86-1.86-1.04,0-2.24,.37-2.87,1.18-.05,.06-.07,.16,0,.24,.13,.18,.15,.34,.11,.51-.08,.31-.42,.48-.72,.63-.2,.1-.41,.19-.63,.24-.5,.14-1.1,.05-1.55-.21-.96-.55-2.12-.91-3.41-.18-.9,.51-1.75,1.44-1.9,2.45,0,.07,.02,.17,.12,.21,.2,.09,.3,.22,.35,.39,.08,.31-.12,.62-.3,.91-.12,.19-.26,.37-.42,.53-.36,.38-.92,.59-1.44,.6-1.11,0-2.29,.27-3.04,1.55-.53,.89-.8,2.12-.42,3.07,.03,.07,.11,.13,.22,.12,.21-.02,.37,.03,.5,.16,.22,.23,.2,.6,.19,.94,0,.22-.04,.44-.1,.67-.13,.51-.5,.98-.95,1.24-.96,.56-1.85,1.38-1.86,2.87,0,1.04,.37,2.24,1.18,2.87,.06,.04,.16,.06,.24,0,.18-.13,.34-.16,.51-.11,.31,.08,.48,.42,.64,.72,.1,.2,.19,.41,.24,.63,.14,.5,.05,1.1-.21,1.55-.55,.96-.91,2.12-.18,3.41,.51,.9,1.44,1.75,2.45,1.89,.07,.01,.17-.02,.21-.12,.09-.2,.22-.3,.39-.35,.31-.08,.62,.12,.91,.3,.19,.12,.37,.26,.53,.42,.38,.37,.6,.92,.6,1.44,0,1.11,.27,2.29,1.55,3.04,.89,.52,2.12,.8,3.07,.42,.07-.03,.13-.11,.12-.21-.02-.22,.03-.37,.16-.5,.23-.23,.6-.21,.94-.19,.22,0,.44,.04,.67,.1,.51,.13,.98,.5,1.24,.95,.56,.96,1.38,1.85,2.87,1.86,1.04,0,2.24-.37,2.87-1.17,.04-.06,.06-.16,0-.25-.13-.18-.16-.34-.11-.51,.08-.31,.42-.48,.72-.63,.2-.11,.41-.19,.63-.25,.51-.15,1.1-.05,1.55,.2,.96,.55,2.12,.91,3.41,.18,.9-.51,1.75-1.44,1.89-2.45,0-.07-.02-.17-.12-.21-.2-.09-.3-.21-.35-.39-.08-.31,.12-.62,.3-.91,.12-.19,.26-.37,.42-.53,.36-.38,.92-.59,1.44-.6,1.11,0,2.29-.27,3.04-1.55,.52-.89,.8-2.12,.42-3.07-.03-.07-.11-.13-.21-.12-.22,.02-.37-.03-.5-.16-.23-.22-.21-.6-.19-.94,0-.22,.04-.45,.1-.67,.13-.51,.5-.98,.95-1.24,.96-.56,1.85-1.38,1.86-2.86,.01-1.04-.37-2.24-1.17-2.87-.06-.05-.16-.07-.25,0-.18,.13-.34,.15-.51,.11-.31-.08-.48-.42-.63-.72-.1-.2-.19-.41-.25-.63-.14-.5-.05-1.1,.21-1.55,.55-.96,.91-2.12,.18-3.41-.51-.9-1.44-1.75-2.45-1.9-.07-.01-.17,.02-.21,.12-.09,.2-.21,.3-.39,.35-.31,.08-.62-.12-.91-.3-.19-.12-.37-.26-.53-.42-.38-.36-.59-.93-.6-1.44,0-1.11-.28-2.29-1.55-3.04-.89-.53-2.12-.8-3.07-.42-.07,.03-.13,.11-.12,.22,.02,.21-.03,.37-.16,.5-.22,.22-.6,.2-.94,.19-.22,0-.45-.04-.67-.1h0Z"/>
        <path class="cls-3" d="M91.27,38.26h-8.28v5.18h-2.98v-5.18h-10.9v-2.76h3.83v-6.34h7.07v-2.91h-5.18c-.99,1.72-2.16,3.27-3.29,4.41-.56-.48-1.79-1.45-2.49-1.86,2.18-1.84,4.04-4.94,5.09-8.06l2.93,.75c-.22,.68-.48,1.33-.8,1.99h13.68v2.78h-6.95v2.91h6.39v2.66h-6.39v3.68h8.28v2.76Zm-11.26-2.76v-3.68h-4.19v3.68h4.19Z"/>
        <g>
          <circle class="cls-2" cx="116.44" cy="32.11" r="16.33"/>
          <path class="cls-3" d="M109.95,29.3c0,4.07-.31,10.12-2.32,14.07-.58-.41-1.89-1.02-2.64-1.24,1.94-3.73,2.11-9.13,2.11-12.81v-6.44h9.03c-.17-.56-.36-1.14-.58-1.6l2.93-.65c.34,.68,.68,1.5,.92,2.25h7.99v2.69h-17.44v3.73Zm16.01,6.25c-1.02,1.89-2.47,3.34-4.26,4.48,1.84,.44,3.87,.7,6.08,.87-.56,.61-1.28,1.77-1.65,2.49-2.95-.29-5.57-.85-7.85-1.77-2.3,.82-4.92,1.33-7.65,1.62-.22-.68-.75-1.77-1.19-2.4,2.01-.17,3.95-.41,5.71-.85-1.11-.75-2.11-1.65-2.93-2.64l.97-.39h-2.57v-2.25h13.03l.51-.1,1.79,.92Zm-12.25-1.79v-3.78h-3.27v-2.25h3.27v-1.6h2.71v1.6h4.41v-1.6h2.86v1.6h3.49v2.25h-3.49v3.78h-9.98Zm1.53,3.22c.85,.77,1.94,1.43,3.2,1.96,1.23-.53,2.3-1.16,3.2-1.96h-6.39Zm1.19-7v1.6h4.41v-1.6h-4.41Z"/>
        </g>
        <path class="cls-4" d="M120.54,16.79c-.51-.13-.98-.5-1.24-.95-.56-.96-1.38-1.85-2.86-1.86-1.04,0-2.24,.37-2.87,1.18-.05,.06-.07,.16,0,.24,.13,.18,.15,.34,.11,.51-.08,.31-.42,.48-.72,.63-.2,.1-.41,.19-.63,.24-.5,.14-1.1,.05-1.55-.21-.96-.55-2.12-.91-3.41-.18-.9,.51-1.75,1.44-1.9,2.45,0,.07,.02,.17,.12,.21,.2,.09,.3,.22,.35,.39,.08,.31-.12,.62-.3,.91-.12,.19-.26,.37-.42,.53-.36,.38-.92,.59-1.44,.6-1.11,0-2.29,.27-3.04,1.55-.53,.89-.8,2.12-.42,3.07,.03,.07,.11,.13,.22,.12,.21-.02,.37,.03,.5,.16,.22,.23,.2,.6,.19,.94,0,.22-.04,.44-.1,.67-.13,.51-.5,.98-.95,1.24-.96,.56-1.85,1.38-1.86,2.87,0,1.04,.37,2.24,1.18,2.87,.06,.04,.16,.06,.24,0,.18-.13,.34-.16,.51-.11,.31,.08,.48,.42,.64,.72,.1,.2,.19,.41,.24,.63,.14,.5,.05,1.1-.21,1.55-.55,.96-.91,2.12-.18,3.41,.51,.9,1.44,1.75,2.45,1.89,.07,.01,.17-.02,.21-.12,.09-.2,.22-.3,.39-.35,.31-.08,.62,.12,.91,.3,.19,.12,.37,.26,.53,.42,.38,.37,.6,.92,.6,1.44,0,1.11,.27,2.29,1.55,3.04,.89,.52,2.12,.8,3.07,.42,.07-.03,.13-.11,.12-.21-.02-.22,.03-.37,.16-.5,.23-.23,.6-.21,.94-.19,.22,0,.44,.04,.67,.1,.51,.13,.98,.5,1.24,.95,.56,.96,1.38,1.85,2.87,1.86,1.04,0,2.24-.37,2.87-1.17,.04-.06,.06-.16,0-.25-.13-.18-.16-.34-.11-.51,.08-.31,.42-.48,.72-.63,.2-.11,.41-.19,.63-.25,.51-.15,1.1-.05,1.55,.2,.96,.55,2.12,.91,3.41,.18,.9-.51,1.75-1.44,1.89-2.45,0-.07-.02-.17-.12-.21-.2-.09-.3-.21-.35-.39-.08-.31,.12-.62,.3-.91,.12-.19,.26-.37,.42-.53,.36-.38,.92-.59,1.44-.6,1.11,0,2.29-.27,3.04-1.55,.52-.89,.8-2.12,.42-3.07-.03-.07-.11-.13-.21-.12-.22,.02-.37-.03-.5-.16-.23-.22-.21-.6-.19-.94,0-.22,.04-.45,.1-.67,.13-.51,.5-.98,.95-1.24,.96-.56,1.85-1.38,1.86-2.86,.01-1.04-.37-2.24-1.17-2.87-.06-.05-.16-.07-.25,0-.18,.13-.34,.15-.51,.11-.31-.08-.48-.42-.63-.72-.1-.2-.19-.41-.25-.63-.14-.5-.05-1.1,.21-1.55,.55-.96,.91-2.12,.18-3.41-.51-.9-1.44-1.75-2.45-1.9-.07-.01-.17,.02-.21,.12-.09,.2-.21,.3-.39,.35-.31,.08-.62-.12-.91-.3-.19-.12-.37-.26-.53-.42-.38-.36-.59-.93-.6-1.44,0-1.11-.28-2.29-1.55-3.04-.89-.53-2.12-.8-3.07-.42-.07,.03-.13,.11-.12,.22,.02,.21-.03,.37-.16,.5-.22,.22-.6,.2-.94,.19-.22,0-.45-.04-.67-.1h0Z"/>
      </g>
    </g>
  </g>
</svg>