<svg height="37.5" viewBox="0 0 120.39 37.5" width="120.39" xmlns="http://www.w3.org/2000/svg"><path d="m104.09 37.5 16.3-14.7a5.72 5.72 0 0 1 0-8.1l-16.3-14.7h-87.79l-16.3 14.7a5.72 5.72 0 0 1 0 8.1l16.3 14.7z" fill="#ec6531"/><g fill="#fff"><path d="m38.76 23.76c.21 0 .25-.18.28-1.84a2.72 2.72 0 0 0 .92.45c-.08 2-.34 2.44-1.07 2.44h-.7c-.86 0-1-.32-1-1.4v-3h-.73c-.19 2-.68 3.59-2.38 4.56a4 4 0 0 0 -.45-.69h-4.14v.72h-1v-4.58a7.94 7.94 0 0 1 -.61.8c-.11-.21-.4-.68-.55-.89a8.71 8.71 0 0 0 1.76-2.91h-1.09v-2.55h2.53v2.55h-1.36l.79.27a7.52 7.52 0 0 1 -.32.78h1.43c-.11-.23-.24-.47-.36-.68l.79-.34a5.24 5.24 0 0 1 .53 1h1.73v.92h-1.76v.7h1.56v.93h-1.56v.73h1.64v.85h-1.64v.83h1.77v.41a4.1 4.1 0 0 0 1.62-3.36h-1.11v-7.87h5.07v7.83h-1.2v3c0 .32 0 .36.21.36zm-9.48-9.91h-1.85v-1h1.85v-.8h1v2.54h-1zm-.6 2.86h1v-1.12h-1zm2.32 2.68h-1.51v.7h1.51zm0 1.61h-1.51v.73h1.51zm-1.47 2.41h1.47v-.83h-1.51zm4.18-5.95h-2.59v-2.59h2.55zm-1.31-2.79h-1v-2.59h1v.8h1.6v.95h-1.64zm.53 1h-1v1.09h1zm2.45-.74h2.89v-1.18h-2.93zm0 2.2h2.89v-1.22h-2.93zm0 2.2h2.89v-1.22h-2.93z"/><path d="m49.69 17.42c-.15.28-.29.55-.45.82h6.57v6.76h-1.27v-.54h-5.45v.54h-1.21v-4.93a10.22 10.22 0 0 1 -2.29 1.93 5.2 5.2 0 0 0 -.78-1 9.72 9.72 0 0 0 3.44-3.51h-3.07v-1h3.61c.14-.27.26-.57.38-.85h-3v-1h3.36a6 6 0 0 0 .23-.8c-1.2 0-2.39.07-3.53.07a3.06 3.06 0 0 0 -.24-1 62.5 62.5 0 0 0 9.52-.64l.77.94a43.75 43.75 0 0 1 -5.11.55c-.08.3-.18.58-.27.87h5.47v1h-5.84c-.1.28-.23.58-.35.85h6.94v1zm4.85 1.83h-5.45v.8h5.45zm-5.45 2.46h5.45v-.8h-5.45zm5.45 1.73v-.86h-5.45v.86z"/><path d="m69.17 20.49a4.35 4.35 0 0 1 -1.17 2.21 19.93 19.93 0 0 0 6.92.88 3.32 3.32 0 0 0 -.53 1.29c-3.05-.11-5.53-.35-7.44-1.32a11.44 11.44 0 0 1 -3.75 1.45 5.64 5.64 0 0 0 -.77-1.15 12.62 12.62 0 0 0 3.38-1 6.52 6.52 0 0 1 -1.59-1.85l1.11-.44a5.57 5.57 0 0 0 1.52 1.54 3.28 3.28 0 0 0 1-1.59h-3.95v-5.51h4.1v-1h-5.3v-1.22h11.79v1.22h-5.14v1h4.28v5.52zm-4.07-3.26h2.9v-1.23h-2.9zm2.9 2.2a5.23 5.23 0 0 0 0-.69v-.5h-2.9v1.19zm4.37-1.19h-3v.52a5 5 0 0 1 0 .67h3.05zm-3-2.21v1.2h3v-1.23z"/><path d="m92.07 18.73c-1.89 4.16-6.43 5.72-11.39 6.27a4.55 4.55 0 0 0 -.5-1.27 21.17 21.17 0 0 0 6.14-1.34 17.49 17.49 0 0 0 -1.7-1.56c-.6.32-1.25.63-2 .93a3.77 3.77 0 0 0 -.79-1 12 12 0 0 0 5.71-3.76l1.39.32c-.28.35-.55.67-.86 1h2.93l.22-.05zm-1.9-5c-1.73 3.16-5.65 5-9.31 5.71a5.25 5.25 0 0 0 -.6-1.15 18.53 18.53 0 0 0 4.3-1.29 10.52 10.52 0 0 0 -1.62-1.46c-.45.25-.92.52-1.43.76a3.86 3.86 0 0 0 -.86-.94 11.58 11.58 0 0 0 4.68-3.3l1.37.32a7.8 7.8 0 0 1 -.84.9h3.26l.21-.07zm-5.62.7a5.75 5.75 0 0 1 -.64.46 16.07 16.07 0 0 1 1.79 1.51 9.24 9.24 0 0 0 2.5-2zm2.21 5c-.33.26-.7.52-1.06.77a16.46 16.46 0 0 1 1.82 1.6 7.82 7.82 0 0 0 2.66-2.37z"/></g></svg>