<svg height="84.67" viewBox="0 0 738.82 84.67" width="738.82" xmlns="http://www.w3.org/2000/svg"><g fill="#e8b356" opacity=".2"><path d="m75.33 84.67q-27.15 0-43.71-4.8t-24.09-14.19q-7.53-9.41-7.53-23.35t7.53-23.33q7.53-9.4 24.09-14.2t43.71-4.8q27.14 0 43.67 4.79t24.12 14.21q7.53 9.41 7.53 23.34t-7.53 23.35q-7.53 9.4-24.12 14.18t-43.67 4.8zm0-23.66a136.57 136.57 0 0 0 22.16-1.56q9.33-1.55 14.44-5.6t5.07-11.52q0-7.47-5.11-11.51t-14.4-5.61a137.82 137.82 0 0 0 -22.16-1.55 143.8 143.8 0 0 0 -22.48 1.55q-9.65 1.56-15.06 5.61t-5.42 11.51q0 7.47 5.42 11.52t15.06 5.6a142.49 142.49 0 0 0 22.48 1.55z"/><path d="m159.37 2.49h129.49v23.66h-129.49zm49.18 22h31.13v57.68h-31.13z"/><path d="m301.31 2.49h31.12v79.68h-31.12zm26.69 27.51h87.6v23.66h-87.6zm84.12-27.51h31.12v79.68h-31.12z"/><path d="m491.8 48.56v10h94.63v23.61h-125.76v-79.68h125.51v23.66h-94.38v10h77.2v12.41z"/><path d="m602.61 82.17v-79.68h96.25a74.88 74.88 0 0 1 20.35 2.51 29.27 29.27 0 0 1 14.32 8.53q5.29 6 5.29 16.31a23.12 23.12 0 0 1 -2.49 11.33 17.8 17.8 0 0 1 -6.85 7 32.42 32.42 0 0 1 -10 3.61 74 74 0 0 1 -11.7 1.37l-9.09-1.74a188.72 188.72 0 0 1 22.85 1.25q8 1.11 11.2 4c2.12 1.95 3.18 4.76 3.18 8.41v17h-31.09v-13.22a9.45 9.45 0 0 0 -1.43-5.66c-1-1.29-3-2.18-6.23-2.68a104.67 104.67 0 0 0 -14.75-.75h-48.68v22.41zm31.13-43.17h65.12a14.23 14.23 0 0 0 6.28-1.24c1.7-.83 2.56-2.41 2.56-4.74a4.44 4.44 0 0 0 -2.56-4.42 15 15 0 0 0 -6.28-1.18h-65.12z"/></g><g fill="#ca954a"><path d="m242.39 72.47 4.2 3.32a78 78 0 0 1 -14.69 6.15 27.77 27.77 0 0 0 -3.41-3.9 59.86 59.86 0 0 0 13.51-5.57h-12.94v-4.83h7.49v-17.75h-6.16v-4.82h6.16v-4.3h5.22v4.3h13.94v-4.3h5.36v4.3h6.46v4.82h-6.46v17.75h7.57v4.83zm-.62-22.58v2.75h13.94v-2.75zm0 10.09h13.94v-2.98h-13.94zm0 7.66h13.94v-3.23h-13.94zm13.06 5.14a127.05 127.05 0 0 1 14 5.75l-5.05 3.32a84.67 84.67 0 0 0 -12.72-5.85z"/><path d="m289.39 42.37a77.37 77.37 0 0 1 -4.39 9.42v30.11h-5v-22.31c-.93 1.19-1.86 2.25-2.74 3.23a32.55 32.55 0 0 0 -2.88-5.49 45.82 45.82 0 0 0 10.1-16.56zm19.17 34.48c2.61 0 3.1-1.11 3.41-6.07a16.23 16.23 0 0 0 4.65 2c-.67 6.6-2.22 8.81-7.66 8.81h-10c-6.15 0-7.92-1.59-7.92-7.75v-12.44l-3.37 1.33-2-4.65 5.33-2.08v-10.45h4.95v8.45l4.43-1.73v-11.45h4.74v9.6l5.93-2.3.44-.31 3.94 1.2-.18.84a164.06 164.06 0 0 1 -1.78 20.15l-4.33-1.24c.48-3.72.79-9.56 1-15l-5 2v15.73h-4.74v-13.85l-4.43 1.81v14.34c0 2.62.45 3.06 3.37 3.06z"/><path d="m330.46 61.62a40.73 40.73 0 0 0 -8.27-4.78l2.81-3.94a40.62 40.62 0 0 1 8.41 4.34zm-6.72 16.38a121.7 121.7 0 0 0 8.36-14l3.9 3.54c-2.35 4.61-5.18 9.65-7.79 14zm9.26-28.11a41.8 41.8 0 0 0 -8.2-4.89l2.88-3.9a43.41 43.41 0 0 1 8.41 4.47zm25.26 32.11a20.12 20.12 0 0 0 -1.55-3.89c-14.74 1.77-17 2.12-18.45 2.88a47.88 47.88 0 0 0 -1.86-5.27c1-.31 1.86-1.24 2.87-2.84a64.25 64.25 0 0 0 4.7-9.47h-8.33v-5h10.49v-6.22h-8.72v-5h8.72v-6.59h5.36v6.59h9v5h-9v6.24h10.67v5h-12a85 85 0 0 1 -6.16 11.34l10.4-1.06a49.15 49.15 0 0 0 -3-4.56l4.3-2.15c2.92 3.85 6.15 9 7.3 12.57z"/><path d="m393.36 41.92c-.22.27-.44.58-.66.84 4.07 3.55 11.33 6.6 18.37 8a18.06 18.06 0 0 0 -3.32 4c-.89-.22-1.82-.53-2.75-.8v11.42h-30.76v-11.15c-.93.31-1.86.62-2.75.84a27.74 27.74 0 0 0 -2.83-4.07c8.14-1.91 16-5.58 20-10.71zm10.05 11.47a48.49 48.49 0 0 1 -6-2.7v1.15h-15.56v-.84a54 54 0 0 1 -5.35 2.44zm-26.69 13.45h26v15h-5.4v-1.1h-15.42v1.2h-5.18zm5-4.64a17.38 17.38 0 0 0 -1.51-4.61l3.41-1h-5v5.61zm.18 8.1v1.77h15.44v-1.77zm15.44 7v-1.78h-15.44v1.77zm-10-20.67h-3.46a19.6 19.6 0 0 1 1.77 4.69l-2.83.89h4.52zm6.37-8.19a42.36 42.36 0 0 1 -3.71-2.89c-1.15 1-2.43 2-3.76 2.88zm-2.12 8.19v5.57h4.11l-2.7-.76a34.38 34.38 0 0 0 1.72-4.82zm8.76 0h-4.6l3.45.84c-.89 1.77-1.73 3.5-2.44 4.74h3.59z"/><path d="m424.3 62c-1.82-1.29-5.63-3.37-8.24-4.79l2.84-3.89c2.43 1.19 6.37 3.1 8.32 4.29zm-7.62 15.93a129.61 129.61 0 0 0 8.41-13.93l3.85 3.54c-2.34 4.65-5.13 9.69-7.83 14zm9.52-28a91.18 91.18 0 0 0 -8.06-4.93l3-3.81c2.48 1.24 6.33 3.19 8.23 4.43zm19.61 8.63v5.54h9v17.66h-5v-1.59h-13.3v1.83h-4.73v-17.9h9v-5.58h-11.78v-5h11.78v-5.22c-2.92.44-5.85.75-8.63 1a18.52 18.52 0 0 0 -1.47-4.52c7.53-.75 15.81-2.21 20.68-4.16l4.07 4.16a55.91 55.91 0 0 1 -9.65 2.61v6.07h11.24v5zm4 10.36h-13.3v6.51h13.33z"/><path d="m503.17 50.6s0 1.73 0 2.35c-.4 18.1-.76 24.52-2.17 26.55a4.93 4.93 0 0 1 -3.5 2.22 30.55 30.55 0 0 1 -5.49.18 12.25 12.25 0 0 0 -1.55-5.05c1.95.18 3.63.22 4.47.22a1.62 1.62 0 0 0 1.51-.75c.93-1.2 1.37-6.6 1.64-20.9h-4c-.57 11.87-2.61 21-10.05 26.87a17 17 0 0 0 -3.09-3.49c-6.38.66-12.75 1.32-17.53 1.72l-.62-4.42c2.47-.18 5.57-.4 9-.62v-2.66h-7.79v-3.72h7.79v-1.72h-7.61v-13.68h7.61v-1.7h-8.79v-3.84h8.72v-1.77c-2.57.18-5.09.31-7.48.36a16.46 16.46 0 0 0 -1.13-3.75 136.93 136.93 0 0 0 19.08-2.17l2.3 3.94c-2.35.49-5.09.89-8 1.2v2.16h8.51v2.47h4.16c.05-2.92.05-6 .05-9.25h5c0 3.23 0 6.33-.08 9.25zm-34.88 8.4h3.45v-2h-3.45zm3.45 5.13v-2h-3.45v2zm4.78 11c2.53-.18 5.14-.4 7.71-.62 3.45-4.78 4.51-11.11 4.82-19h-4v-3.51h-8.5v1.7h7.84v13.68h-7.84v1.72h8v3.72h-8zm3.48-16.13v-2h-3.46v2zm-3.46 3.14v2h3.46v-2z"/></g></svg>