<svg height="96.91" viewBox="0 0 852.08 96.91" width="852.08" xmlns="http://www.w3.org/2000/svg"><path d="m61.14 2.85-61.14 91.21h39.19l8.88-13.83h66.25l9 13.83h39.19l-61.75-91.21zm.66 56 19.26-30 19.42 30z" fill="#fff"/><path d="m61.14 2.85-61.14 91.21h39.19l8.88-13.83h66.25l9 13.83h39.19l-61.75-91.21zm.66 56 19.26-30 19.42 30z" fill="#e8b356" opacity=".75"/><path d="m318.23 56.87a23 23 0 0 0 -10.69-6.13 74.4 74.4 0 0 0 -16-2.57c-2-.12-4.07-.22-6.19-.3 3.75-.35 7.23-.79 10.4-1.33q10.47-1.78 16.1-6.35t5.63-13.11q0-13.39-13.11-18.81t-40.72-5.41h-89.78v91.2h96.91a116.85 116.85 0 0 0 27.22-2.78q11.55-2.77 17.82-8.47a18.78 18.78 0 0 0 6.27-14.54q-.01-7.27-3.86-11.4zm-108.74-27.22h55.3q7.54 0 10.9 1.35a4.74 4.74 0 0 1 3.31 4.63q0 3.13-3.35 4.56t-10.9 1.43h-55.3zm72.19 36.2q-3.36 1.43-10.9 1.42h-61.29v-12h61.29a41.69 41.69 0 0 1 8.12.64 10.27 10.27 0 0 1 4.63 1.93 4.26 4.26 0 0 1 1.5 3.42q-.03 3.17-3.35 4.59z" fill="#fff"/><path d="m318.23 56.87a23 23 0 0 0 -10.69-6.13 74.4 74.4 0 0 0 -16-2.57c-2-.12-4.07-.22-6.19-.3 3.75-.35 7.23-.79 10.4-1.33q10.47-1.78 16.1-6.35t5.63-13.11q0-13.39-13.11-18.81t-40.72-5.41h-89.78v91.2h96.91a116.85 116.85 0 0 0 27.22-2.78q11.55-2.77 17.82-8.47a18.78 18.78 0 0 0 6.27-14.54q-.01-7.27-3.86-11.4zm-108.74-27.22h55.3q7.54 0 10.9 1.35a4.74 4.74 0 0 1 3.31 4.63q0 3.13-3.35 4.56t-10.9 1.43h-55.3zm72.19 36.2q-3.36 1.43-10.9 1.42h-61.29v-12h61.29a41.69 41.69 0 0 1 8.12.64 10.27 10.27 0 0 1 4.63 1.93 4.26 4.26 0 0 1 1.5 3.42q-.03 3.17-3.35 4.59z" fill="#e8b356" opacity=".75"/><path d="m471.15 5.49q-19-5.49-50-5.49t-50 5.49q-19 5.49-27.57 16.24t-8.68 26.72q0 16 8.63 26.73t27.57 16.24q19 5.49 50 5.49t50-5.49q18.94-5.48 27.57-16.24t8.62-26.73q0-15.95-8.62-26.72t-27.52-16.24zm-8.15 56.15q-5.83 4.64-16.53 6.41a156.27 156.27 0 0 1 -25.37 1.78 163.11 163.11 0 0 1 -25.72-1.78q-11-1.78-17.24-6.41t-6.14-13.19q0-8.55 6.2-13.18t17.24-6.41a163.11 163.11 0 0 1 25.72-1.78 156.27 156.27 0 0 1 25.37 1.78q10.69 1.79 16.53 6.41t5.85 13.18q-.04 8.55-5.91 13.19z" fill="#fff"/><path d="m471.15 5.49q-19-5.49-50-5.49t-50 5.49q-19 5.49-27.57 16.24t-8.68 26.72q0 16 8.63 26.73t27.57 16.24q19 5.49 50 5.49t50-5.49q18.94-5.48 27.57-16.24t8.62-26.73q0-15.95-8.62-26.72t-27.52-16.24zm-8.15 56.15q-5.83 4.64-16.53 6.41a156.27 156.27 0 0 1 -25.37 1.78 163.11 163.11 0 0 1 -25.72-1.78q-11-1.78-17.24-6.41t-6.14-13.19q0-8.55 6.2-13.18t17.24-6.41a163.11 163.11 0 0 1 25.72-1.78 156.27 156.27 0 0 1 25.37 1.78q10.69 1.79 16.53 6.41t5.85 13.18q-.04 8.55-5.91 13.19z" fill="#e8b356" opacity=".75"/><path d="m654 42q0 11.4-5.63 17.39t-16 8.19a118.87 118.87 0 0 1 -24.52 2.21 120.06 120.06 0 0 1 -24.85-2.17q-10.34-2.2-15.9-8.19t-5.6-17.43v-39.15h-35.63v45.6q0 12.12 4.34 20.6a38.41 38.41 0 0 0 12 14 58.91 58.91 0 0 0 18 8.48 125.07 125.07 0 0 0 22.44 4.21q12.12 1.2 25.08 1.21a240.66 240.66 0 0 0 24.27-1.25 126.88 126.88 0 0 0 22.3-4.21 62.76 62.76 0 0 0 18.36-8.49 38.71 38.71 0 0 0 12.47-14q4.49-8.47 4.49-20.6v-45.55h-35.62z" fill="#fff"/><path d="m654 42q0 11.4-5.63 17.39t-16 8.19a118.87 118.87 0 0 1 -24.52 2.21 120.06 120.06 0 0 1 -24.85-2.17q-10.34-2.2-15.9-8.19t-5.6-17.43v-39.15h-35.63v45.6q0 12.12 4.34 20.6a38.41 38.41 0 0 0 12 14 58.91 58.91 0 0 0 18 8.48 125.07 125.07 0 0 0 22.44 4.21q12.12 1.2 25.08 1.21a240.66 240.66 0 0 0 24.27-1.25 126.88 126.88 0 0 0 22.3-4.21 62.76 62.76 0 0 0 18.36-8.49 38.71 38.71 0 0 0 12.47-14q4.49-8.47 4.49-20.6v-45.55h-35.62z" fill="#e8b356" opacity=".75"/><path d="m703.87 29.93h56.29v64.13h35.63v-64.13h56.29v-27.08h-148.21z" fill="#fff"/><path d="m703.87 29.93h56.29v64.13h35.63v-64.13h56.29v-27.08h-148.21z" fill="#e8b356" opacity=".75"/></svg>