<?xml version="1.0" encoding="UTF-8"?>
<svg id="_層_2" data-name="圖層 2" xmlns="http://www.w3.org/2000/svg" width="95.25" height="102.91" viewBox="0 0 95.25 102.91">
  <defs>
    <style>
      .cls-1 {
        fill: #fff;
      }
    </style>
  </defs>
  <g id="_層_1-2" data-name="圖層 1">
    <g>
      <path class="cls-1" d="M87.21,2.74l.6-.03v.83l-.6,.04c-.03,1.44-.2,3.15-.9,4.81,.55,.53,1.03,1.05,1.34,1.48l-.64,.73c-.26-.39-.66-.86-1.12-1.34-.48,.87-1.16,1.74-2.07,2.52-.14-.21-.46-.48-.66-.61,.95-.81,1.61-1.69,2.08-2.57-.56-.56-1.16-1.11-1.69-1.59,.23-.84,.48-2.01,.7-3.26l-.97,.07-.1-.88,1.22-.05c.16-1,.27-2,.35-2.89l.9,.05c-.08,.87-.21,1.82-.36,2.79l1.08-.05V1.78h.84v.96Zm-2.07,.97c-.19,1.09-.4,2.16-.62,3.03,.38,.31,.75,.65,1.13,1,.55-1.43,.68-2.87,.71-4.11l-1.22,.08Zm9.58-3.18V11.74h-.9v-.68h-4.86v.78h-.86V.53h6.62Zm-.9,9.66V1.42h-4.86V10.19h4.86Zm-.83-.64c-.33-.77-.92-1.95-1.55-3.03-.27,1.13-.82,2.26-1.83,3.28-.14-.17-.42-.43-.61-.55,1.39-1.33,1.79-2.91,1.92-4.38h-1.68v-.81h1.72V1.86h.78v2.21h1.81v.81h-1.85c-.01,.2-.04,.39-.06,.6,.77,1.22,1.61,2.77,2,3.69l-.65,.39Z"/>
      <path class="cls-1" d="M84.51,22.42c-.13,1.12-.38,2.34-.65,3.13-.16-.08-.52-.21-.7-.26,.29-.81,.49-1.95,.61-2.99l.74,.12Zm-1.07-3.65c-.06-.19-.18-.56-.26-.78,.21-.05,.43-.31,.68-.71,.29-.38,1.17-1.87,1.69-3.28l.81,.36c-.56,1.22-1.25,2.5-1.96,3.47l1.38-.12c.34-.57,.68-1.2,.96-1.81l.75,.44c-.85,1.56-1.85,3.11-2.89,4.34l2.29-.31c-.14-.46-.33-.91-.49-1.3l.66-.25c.38,.81,.75,1.85,.88,2.48l-.72,.29c-.03-.16-.08-.34-.13-.53-2.94,.46-3.33,.56-3.56,.68h0c-.04-.21-.18-.62-.27-.84,.26-.05,.56-.39,.94-.87,.21-.23,.61-.81,1.07-1.52-1.34,.16-1.62,.23-1.81,.31h-.01v-.05Zm2.37,3.48c.17,.86,.31,1.98,.35,2.73l-.73,.18c-.03-.77-.17-1.9-.31-2.78l.69-.13Zm1.37-.34c.31,.81,.64,1.83,.78,2.5l-.69,.25c-.13-.69-.44-1.74-.74-2.52l.65-.22Zm7.75-1.82c-.4,.29-.88,.56-1.38,.83,.3,1.47,.85,2.85,1.7,3.51-.21,.16-.47,.47-.6,.69-.91-.78-1.47-2.24-1.78-3.85-.23,.13-.48,.25-.71,.35,.68,1.6,.43,3.32-.25,3.86-.33,.3-.61,.38-1.09,.38-.23,.01-.53,0-.82-.01-.01-.23-.08-.57-.22-.83,.35,.04,.62,.06,.87,.06,.27,0,.48-.03,.66-.25,.29-.26,.45-.99,.34-1.86-.92,.9-2.28,1.78-3.45,2.26-.12-.21-.35-.51-.55-.68,1.34-.44,2.95-1.48,3.8-2.44-.08-.26-.18-.52-.33-.78-.73,.62-1.75,1.26-2.61,1.64-.12-.2-.33-.49-.51-.66,.91-.31,2.05-.95,2.74-1.57-.16-.21-.35-.4-.56-.6-.57,.38-1.2,.73-1.78,.99-.09-.16-.36-.49-.52-.65,.98-.38,2-.94,2.77-1.59h-2.77v-.81h4.55c.05-.25,.1-.51,.17-.78h-3.86c.27-.88,.61-2.29,.82-3.37l.91,.1-.2,.78h2.86l.16-.05,.62,.1c-.14,.95-.39,2.17-.61,3.21h1.87v.81h-3.46c-.29,.29-.59,.56-.92,.82,.44,.36,.78,.79,1.04,1.25,.85-.43,1.83-1,2.44-1.44l.64,.57Zm-2.18-3.48c.08-.38,.14-.75,.2-1.08h-2.82c-.09,.38-.2,.75-.29,1.08h2.91Z"/>
      <path class="cls-1" d="M89.88,33.98c.91,2.46,2.68,4.26,5.3,5.02-.22,.21-.51,.61-.65,.87-2.59-.86-4.32-2.64-5.34-5.16-.59,1.9-2,3.81-5.3,5.17-.12-.25-.42-.61-.62-.81,3.34-1.37,4.6-3.28,5.06-5.1h-4.73v-.98h4.93c.07-.51,.08-1.01,.08-1.47v-1.52h-4.55v-.97h10.22v.97h-4.67v1.53c0,.46-.01,.96-.06,1.46h5.29v.98h-4.94Z"/>
      <path class="cls-1" d="M85.65,47.91c-.52-.42-1.57-1.01-2.39-1.42l.52-.71c.81,.36,1.87,.94,2.42,1.31l-.55,.82Zm1.16,1.72c-.69,1.37-1.6,2.98-2.35,4.19l-.81-.66c.7-.98,1.7-2.69,2.46-4.16l.7,.64Zm-.43-5.25c-.53-.42-1.6-1.04-2.43-1.44l.53-.7c.81,.36,1.9,.95,2.46,1.35l-.56,.79Zm8.74,8.25v.92h-8.49v-.92h3.8v-3.34h-2.89v-.92h2.89v-2.9h-3.41v-.92h7.8v.92h-3.39v2.9h2.93v.92h-2.93v3.34h3.69Zm-4.25-8.14c-.18-.56-.64-1.48-1.07-2.16l.87-.31c.44,.66,.94,1.55,1.12,2.11l-.92,.36Z"/>
      <path class="cls-1" d="M89.66,66.65c.65,.13,1.37,.17,2.13,.17,.47,0,2.69,0,3.32-.03-.16,.25-.31,.69-.36,.98h-3c-2.7,0-4.64-.47-5.82-2.68-.44,1.21-1.08,2.2-1.94,2.94-.16-.18-.55-.52-.78-.66,1.44-1.1,2.15-2.95,2.43-5.29l.96,.1c-.08,.6-.18,1.16-.3,1.68,.49,1.38,1.33,2.13,2.38,2.54v-5.37h-3.22v-.92h7.53v.92h-3.32v2.12h3.85v.91h-3.85v2.6Zm-4.93-6.25h-.95v-2.82h5.04c-.16-.4-.39-.9-.6-1.27l.94-.27c.29,.48,.61,1.12,.77,1.55h4.63v2.82h-.98v-1.9h-8.85v1.9Z"/>
      <path class="cls-1" d="M87.83,74.65c1-.42,1.57-1.03,1.64-1.91-.08,.01-.14,.01-.22,.01-.53,0-.98-.31-.98-.92s.46-.94,.99-.94c.71,0,1.11,.58,1.11,1.5,0,1.4-.88,2.47-2.25,2.95l-.29-.69Z"/>
      <path class="cls-1" d="M62.89,1.83c-.29,.48-.6,.95-.92,1.43V11.79h-1.03V4.56c-1.31,1.5-2.9,2.83-4.71,3.78-.14-.25-.46-.62-.65-.84,2.56-1.29,4.78-3.45,6.07-5.67h-5.75V.87h11.1v.96h-4.12Zm.05,2.17c1.51,.97,3.48,2.43,4.43,3.42l-.77,.74c-.92-.99-2.85-2.52-4.38-3.54l.71-.62Z"/>
      <path class="cls-1" d="M62.04,24.62c.47,.05,.99,.08,1.53,.08,.48,0,3.17,0,3.83-.01-.13,.22-.29,.64-.34,.92h-3.54c-2.61,0-4.26-.42-5.32-2.17-.51,1.01-1.18,1.82-2.03,2.44-.13-.17-.51-.53-.71-.69,1.35-.87,2.17-2.33,2.52-4.23l.98,.13c-.09,.46-.21,.88-.34,1.3,.51,1.17,1.34,1.77,2.46,2.07v-3.91h-5.33v-.87h11.42v.87h-5.14v1.44h4.29v.86h-4.29v1.77Zm3.71-5.81h-8.63v-4.29h8.63v4.29Zm-.96-3.55h-6.72v1.05h6.72v-1.05Zm0,1.75h-6.72v1.05h6.72v-1.05Z"/>
      <path class="cls-1" d="M59.39,38.87c-.31-.42-.77-.94-1.27-1.47-.48,.87-1.16,1.7-2.08,2.44-.13-.17-.43-.47-.64-.59,.96-.77,1.62-1.61,2.09-2.48-.58-.57-1.21-1.13-1.77-1.61,.26-.88,.53-2.11,.77-3.38l-.92,.05-.1-.9,1.18-.05c.14-.97,.27-1.95,.35-2.81l.84,.04c-.08,.84-.22,1.77-.38,2.72l1.11-.05v-.92h.82v.88l.65-.04v.84l-.65,.05c-.01,1.47-.13,3.25-.87,4.97,.58,.57,1.12,1.13,1.44,1.56l-.57,.74Zm-2.08-7.14c-.22,1.13-.46,2.24-.68,3.15,.39,.33,.82,.7,1.24,1.08,.6-1.5,.69-3.03,.7-4.3l-1.26,.08Zm5.29,5.1c-.44,1.11-1.29,2.28-2.12,2.87-.14-.22-.44-.53-.65-.69,.82-.49,1.64-1.48,2.05-2.43l.71,.25Zm1.5-.66v3.74h-.94v-3.74h-3.13v-.83h3.13v-1.16h-2v-3.89h-1.16v-.84h1.16v-1.42h.88v1.42h3.08v-1.42h.92v1.42h1.16v.84h-1.16v3.89h-1.95v1.16h3.11v.83h-3.11Zm-2.05-5.88v1.14h3.08v-1.14h-3.08Zm0,3.08h3.08v-1.18h-3.08v1.18Zm3.34,3.21c.69,.83,1.55,1.98,1.95,2.68l-.75,.36c-.39-.7-1.22-1.87-1.9-2.73l.7-.31Z"/>
      <path class="cls-1" d="M61.98,42.12c-.01,.47-.03,1.12-.09,1.88,.19,1.55,.97,6.98,5.56,9.02-.27,.22-.56,.55-.7,.82-3.25-1.52-4.64-4.73-5.26-7.15-.6,2.6-1.98,5.51-5.15,7.2-.17-.26-.48-.55-.78-.75,5.4-2.73,5.32-9.05,5.36-11.02h1.07Z"/>
      <path class="cls-1" d="M58.96,66.91c0,.47-.09,.73-.36,.88-.27,.14-.71,.17-1.39,.17-.03-.23-.14-.62-.26-.86,.47,.01,.9,.01,1.01,0,.14,0,.2-.04,.2-.2v-3.59c-.3,.27-.61,.56-.91,.82l-.35-.69c-.09,1.57-.3,3.25-.78,4.52-.16-.12-.49-.33-.7-.4,.69-1.83,.74-4.43,.74-6.33v-4.65h2.81v10.32Zm-2.01-5.67c0,.62-.01,1.34-.05,2.08,.35-.22,.79-.55,1.26-.9v-1.72l-.34,.27c-.18-.31-.55-.77-.87-1.13v1.39Zm0-3.77v2.09l.38-.27c.29,.29,.6,.62,.83,.94v-2.76h-1.21Zm5.21,1.48c-.05,.18-.12,.35-.18,.52,.81,1.01,1.74,2.31,2.16,3.12l-.65,.52c-.36-.74-1.12-1.86-1.85-2.82-.51,1.12-1.17,2.11-1.98,2.81-.14-.18-.39-.46-.61-.6,1.03-.83,1.87-2.26,2.3-3.78l.81,.23Zm-.81-2.37c-.34,1.2-.91,2.37-1.53,3.15-.13-.14-.47-.4-.65-.51,.61-.7,1.11-1.75,1.38-2.81l.81,.17Zm-1.38,6.29h3.33v4.89h-.79v-.73h-1.77v.79h-.77v-4.95Zm.77,.87v2.44h1.77v-2.44h-1.77Zm2.48-4.19c-.21-.75-.77-1.98-1.33-2.9l.71-.23c.56,.9,1.14,2.09,1.37,2.85l-.75,.29Zm3.72,5.32c0,.4-.06,.65-.34,.79-.25,.14-.64,.16-1.18,.16-.03-.22-.14-.57-.25-.79,.38,.01,.7,.01,.82,0,.12,0,.16-.04,.16-.17v-7.18h-1.21v10.28h-.75v-11.13h2.76v8.03Z"/>
      <path class="cls-1" d="M60.4,80.61c-1.07,.58-2.7,1.13-4,1.44-.16-.18-.48-.55-.7-.71,1.34-.25,2.9-.66,3.83-1.12l.87,.39Zm6.46-9.75c-.39,1.14-1.03,2-1.86,2.65,.73,.42,1.56,.74,2.47,.92-.21,.18-.46,.52-.58,.75-.98-.25-1.87-.65-2.64-1.18-.68,.39-1.44,.66-2.26,.87-.08-.18-.31-.51-.48-.68v.55h-5.21v-4.22h5.12v.61h-2.03v.58h1.77v1.79h-1.77v.62h2.12c.74-.14,1.44-.36,2.05-.68-.56-.51-1.03-1.1-1.37-1.78l.77-.25c.31,.6,.77,1.14,1.34,1.59,.6-.42,1.09-.95,1.44-1.63h-3.93v-.75h4.37l.16-.03,.52,.25Zm-9.75,.27v.58h1.51v-.58h-1.51Zm3.26,1.14h-3.26v.69h3.26v-.69Zm-3.26,1.86h1.51v-.62h-1.51v.62Zm8.63,5.96h-8.4v-4.86h8.4v4.86Zm-.96-4.24h-6.5v.81h6.5v-.81Zm0,1.4h-6.5v.79h6.5v-.79Zm0,1.4h-6.5v.81h6.5v-.81Zm-1.47,1.59c1.42,.38,2.96,.91,3.91,1.29l-1.11,.48c-.81-.36-2.2-.86-3.63-1.29l.82-.48Z"/>
      <path class="cls-1" d="M59.87,87.29c-.4,.66-.9,1.33-1.43,1.96v6.84h-.96v-5.77c-.49,.51-.99,.97-1.47,1.35-.14-.19-.48-.61-.68-.81,1.34-.95,2.74-2.44,3.64-3.91l.9,.34Zm-.51-2.74c-.84,1.14-2.17,2.41-3.33,3.22-.14-.21-.4-.58-.57-.77,1.08-.73,2.33-1.9,2.98-2.82l.92,.36Zm7.97,4.9h-1.96v5.37c0,.6-.14,.9-.57,1.05-.44,.14-1.17,.14-2.44,.14-.04-.26-.17-.66-.31-.94,.92,.03,1.78,.03,2.03,.01,.25-.01,.33-.07,.33-.29v-5.36h-4.34v-.92h7.28v.92Zm-.38-3.56h-6.34v-.91h6.34v.91Z"/>
      <path class="cls-1" d="M61.5,98.96c1.09,0,1.98,.88,1.98,1.98s-.88,1.98-1.98,1.98-1.98-.88-1.98-1.98,.9-1.98,1.98-1.98Zm0,3.29c.73,0,1.31-.58,1.31-1.31s-.58-1.31-1.31-1.31-1.31,.58-1.31,1.31,.6,1.31,1.31,1.31Z"/>
      <path class="cls-1" d="M37.87,10.41c0,.68-.2,1.01-.68,1.17-.49,.17-1.35,.18-2.74,.18-.06-.27-.25-.73-.42-1,1.09,.04,2.13,.03,2.43,.03,.3-.01,.4-.1,.4-.39v-2.6h-6.24c-.33,1.47-.98,2.94-2.24,4.04-.13-.21-.52-.56-.71-.7,2.07-1.82,2.27-4.46,2.27-6.53V.64h7.92V10.41Zm-1-3.56v-2.18h-5.94c0,.68-.04,1.42-.14,2.18h6.08ZM30.93,1.59V3.74h5.94V1.59h-5.94Z"/>
      <path class="cls-1" d="M34,15.91v2.31l.17-.19c1.55,.74,3.59,1.91,4.61,2.69l-.68,.87c-.88-.73-2.63-1.79-4.11-2.59v6.84h-1.03V15.91h-4.97v-.96h11.48v.96h-5.49Z"/>
      <path class="cls-1" d="M34.65,33.34c-.7,.55-1.44,1.05-2.22,1.52v.57h5.71v.87h-5.71v1.81c0,.49,.21,.6,1.29,.6h3.71c.92,0,1.08-.26,1.18-1.73,.23,.16,.65,.3,.94,.36-.17,1.81-.52,2.25-2.07,2.25h-3.77c-1.77,0-2.26-.29-2.26-1.47v-2.69c-.98,.55-1.99,1.03-3.03,1.44-.16-.22-.48-.62-.7-.84,1.87-.69,3.68-1.6,5.3-2.69h-5.06v-.9h4.42v-1.77h-3.29v-.9h3.29v-1.76h.96v1.76h3.24v.58c.55-.58,1.05-1.2,1.52-1.83l.88,.46c-.91,1.26-2.01,2.43-3.21,3.46h3.77v.9h-4.89Zm-.39-.9c.71-.55,1.39-1.14,2-1.77h-2.99v1.77h.99Z"/>
      <path class="cls-1" d="M34.26,42.12c-.01,.47-.03,1.12-.09,1.88,.19,1.55,.97,6.98,5.56,9.02-.27,.22-.56,.55-.7,.82-3.25-1.52-4.64-4.73-5.26-7.15-.6,2.6-1.98,5.51-5.15,7.2-.17-.26-.48-.55-.78-.75,5.4-2.73,5.32-9.05,5.36-11.02h1.07Z"/>
      <path class="cls-1" d="M32.39,60.61c1-.42,1.57-1.03,1.64-1.91-.08,.01-.14,.01-.22,.01-.53,0-.98-.31-.98-.92s.46-.94,.99-.94c.71,0,1.11,.58,1.11,1.5,0,1.4-.88,2.47-2.25,2.95l-.29-.69Z"/>
      <path class="cls-1" d="M4.06,2.74l.6-.03v.83l-.6,.04c-.03,1.44-.2,3.15-.9,4.81,.55,.53,1.03,1.05,1.34,1.48l-.64,.73c-.26-.39-.66-.86-1.12-1.34-.48,.87-1.16,1.74-2.07,2.52-.14-.21-.46-.48-.66-.61,.95-.81,1.61-1.69,2.08-2.57-.56-.56-1.16-1.11-1.69-1.59,.23-.84,.48-2.01,.7-3.26l-.97,.07L.03,2.94l1.22-.05c.16-1,.27-2,.35-2.89l.9,.05c-.08,.87-.21,1.82-.36,2.79l1.08-.05V1.78h.84v.96Zm-2.07,.97c-.19,1.09-.4,2.16-.62,3.03,.38,.31,.75,.65,1.13,1,.55-1.43,.68-2.87,.71-4.11l-1.22,.08ZM11.57,.53V11.74h-.9v-.68H5.81v.78h-.86V.53h6.62Zm-.9,9.66V1.42H5.81V10.19h4.86Zm-.83-.64c-.33-.77-.92-1.95-1.55-3.03-.27,1.13-.82,2.26-1.83,3.28-.14-.17-.42-.43-.61-.55,1.39-1.33,1.79-2.91,1.92-4.38h-1.68v-.81h1.72V1.86h.78v2.21h1.81v.81h-1.85c-.01,.2-.04,.39-.06,.6,.77,1.22,1.61,2.77,2,3.69l-.65,.39Z"/>
      <path class="cls-1" d="M1.35,22.42c-.13,1.12-.38,2.34-.65,3.13-.16-.08-.52-.21-.7-.26,.29-.81,.49-1.95,.61-2.99l.74,.12Zm-1.07-3.65c-.06-.19-.18-.56-.26-.78,.21-.05,.43-.31,.68-.71,.29-.38,1.17-1.87,1.69-3.28l.81,.36c-.56,1.22-1.25,2.5-1.96,3.47l1.38-.12c.34-.57,.68-1.2,.96-1.81l.75,.44c-.85,1.56-1.85,3.11-2.89,4.34l2.29-.31c-.14-.46-.33-.91-.49-1.3l.66-.25c.38,.81,.75,1.85,.88,2.48l-.72,.29c-.03-.16-.08-.34-.13-.53-2.94,.46-3.33,.56-3.56,.68H.38c-.04-.21-.18-.62-.27-.84,.26-.05,.56-.39,.94-.87,.21-.23,.61-.81,1.07-1.52-1.34,.16-1.62,.23-1.81,.31h-.01v-.05Zm2.37,3.48c.17,.86,.31,1.98,.35,2.73l-.73,.18c-.03-.77-.17-1.9-.31-2.78l.69-.13Zm1.37-.34c.31,.81,.64,1.83,.78,2.5l-.69,.25c-.13-.69-.44-1.74-.74-2.52l.65-.22Zm7.75-1.82c-.4,.29-.88,.56-1.38,.83,.3,1.47,.85,2.85,1.7,3.51-.21,.16-.47,.47-.6,.69-.91-.78-1.47-2.24-1.78-3.85-.23,.13-.48,.25-.71,.35,.68,1.6,.43,3.32-.25,3.86-.33,.3-.61,.38-1.09,.38-.23,.01-.53,0-.82-.01-.01-.23-.08-.57-.22-.83,.35,.04,.62,.06,.87,.06,.27,0,.48-.03,.66-.25,.29-.26,.45-.99,.34-1.86-.92,.9-2.28,1.78-3.45,2.26-.12-.21-.35-.51-.55-.68,1.34-.44,2.95-1.48,3.8-2.44-.08-.26-.18-.52-.33-.78-.73,.62-1.75,1.26-2.61,1.64-.12-.2-.33-.49-.51-.66,.91-.31,2.05-.95,2.74-1.57-.16-.21-.35-.4-.56-.6-.57,.38-1.2,.73-1.78,.99-.09-.16-.36-.49-.52-.65,.98-.38,2-.94,2.77-1.59h-2.77v-.81h4.55c.05-.25,.1-.51,.17-.78h-3.86c.27-.88,.61-2.29,.82-3.37l.91,.1-.2,.78h2.86l.16-.05,.62,.1c-.14,.95-.39,2.17-.61,3.21h1.87v.81h-3.46c-.29,.29-.59,.56-.92,.82,.44,.36,.78,.79,1.04,1.25,.85-.43,1.83-1,2.44-1.44l.64,.57Zm-2.18-3.48c.08-.38,.14-.75,.2-1.08h-2.82c-.09,.38-.2,.75-.29,1.08h2.91Z"/>
      <path class="cls-1" d="M11.95,33.32v1.05H.14v-1.05H11.95Z"/>
      <path class="cls-1" d="M3.77,49.96c-.03-.22-.08-.48-.13-.74-2.59,.38-2.99,.47-3.22,.6-.05-.21-.21-.66-.31-.92,.27-.06,.56-.38,.95-.86,.2-.22,.61-.75,1.07-1.44-1.33,.17-1.6,.22-1.78,.31-.05-.2-.21-.64-.31-.88,.22-.05,.44-.31,.69-.71,.29-.38,1.16-1.86,1.66-3.25l.9,.38c-.56,1.21-1.26,2.47-1.96,3.43l1.35-.13c.35-.55,.68-1.14,.96-1.73l.86,.49c-.83,1.5-1.86,3-2.9,4.2l1.87-.25c-.12-.44-.25-.88-.39-1.29l.74-.2c.31,.9,.65,2.07,.75,2.76l-.79,.23Zm-2.34,.55c-.14,1.14-.38,2.38-.66,3.2-.17-.09-.53-.21-.74-.27,.31-.81,.51-1.98,.62-3.06l.78,.13Zm1.21-.16c.14,.88,.29,2.01,.33,2.77l-.77,.14c-.01-.75-.14-1.9-.29-2.78l.73-.13Zm1.16-.31c.26,.66,.53,1.52,.65,2.08l-.71,.23c-.1-.57-.38-1.46-.61-2.12l.68-.2Zm3.91-.79c-.47,1.96-1.6,3.35-2.91,4.09-.12-.21-.38-.53-.56-.69,.99-.49,1.91-1.51,2.38-2.77h-1.68v-.81h2.05l.16-.04,.56,.21Zm4-.21c-.58,.53-1.25,1.13-1.82,1.56,.56,.88,1.29,1.6,2.12,2.03-.21,.17-.48,.52-.64,.77-1.03-.64-1.85-1.69-2.46-2.95v2.44c0,.49-.1,.75-.46,.91-.34,.16-.88,.17-1.72,.17-.05-.27-.16-.64-.29-.9,.61,.03,1.16,.03,1.31,.01,.17-.01,.22-.05,.22-.21v-4.88h-2.59v-4.55h1.99c.18-.44,.35-.98,.44-1.38l1.08,.22c-.18,.39-.38,.81-.55,1.16h2.92v4.55h-2.38v.47c.16,.52,.35,1.01,.61,1.5,.51-.47,1.1-1.07,1.46-1.51l.73,.58Zm-5.4-3.69h4.04v-1.13H6.32v1.13Zm0,1.88h4.04v-1.16H6.32v1.16Z"/>
      <path class="cls-1" d="M11.76,66.11H6.47v1.83h-.95v-1.83H.29v-.82H5.52v-1.1H2.52c-.3,.38-.62,.73-.94,1-.2-.14-.61-.35-.83-.46,.7-.56,1.36-1.38,1.74-2.22-.07,.03-.12,.04-.17,.05-.04-.16-.18-.53-.29-.75,.36-.04,.82-.26,1.44-.64,.21-.12,.53-.3,.96-.57H1.36v1.39H.48v-2.09H5.47c.3-.21,.6-.42,.9-.65-3.03,.19-3.42,.23-3.68,.33-.05-.16-.18-.53-.29-.73,.22-.03,.47-.1,.73-.26,.2-.09,.68-.35,1.18-.7H.52v-.77H5.66c-.13-.29-.27-.57-.43-.82l.92-.26c.22,.31,.44,.74,.6,1.08h4.78v.77H5.58c-.44,.33-.94,.61-1.4,.87l3.04-.16c.27-.22,.55-.46,.81-.69l.68,.51c-.62,.52-1.27,1.01-1.92,1.48h4.77v2.09h-.92v-1.39h-2.94c.95,.48,2.08,1.24,2.65,1.77l-.58,.52c-.25-.25-.61-.55-1-.83-4.33,.29-5.6,.36-6.12,.44l.81,.21c-.1,.23-.23,.46-.35,.68h2.44v-.91h.95v.91h4.08v.81H6.47v1.1h5.29v.82Zm-6.02-5.51c-.57,.36-1.17,.71-1.74,1.04l3.78-.21c-.25-.16-.48-.3-.73-.42l.53-.42h-1.85Z"/>
      <path class="cls-1" d="M6.06,70.88c1.09,0,1.98,.88,1.98,1.98s-.88,1.98-1.98,1.98-1.98-.88-1.98-1.98,.9-1.98,1.98-1.98Zm0,3.29c.73,0,1.31-.58,1.31-1.31s-.58-1.31-1.31-1.31-1.31,.58-1.31,1.31,.6,1.31,1.31,1.31Z"/>
    </g>
  </g>
</svg>