<svg height="264.73" viewBox="0 0 1085.95 264.73" width="1085.95" xmlns="http://www.w3.org/2000/svg"><g fill="#e8b356" opacity=".2"><path d="m0 2.82h146.45v26.75h-146.45zm55.62 24.92h35.21v65.2h-35.21z"/><path d="m160.53 2.82h35.2v90.12h-35.2zm30.13 31.12h99.13v26.75h-99.13zm95.19-31.12h35.2v90.12h-35.2z"/><path d="m376 54.92v11.26h107v26.76h-142.23v-90.12h141.94v26.75h-106.71v11.27h87.31v14.08z"/><path d="m627 95.75a237.59 237.59 0 0 1 -33.58-2.18 92.47 92.47 0 0 1 -26.42-7.46 41.48 41.48 0 0 1 -17.32-14.44q-6.13-9.15-6.13-23.09t6.2-23.3q6.19-9.37 17.81-14.93t27.74-8a247.18 247.18 0 0 1 36-2.39q26 0 43.72 4.79t27 13.59a30.4 30.4 0 0 1 10 20.91h-36.68a17.71 17.71 0 0 0 -6.19-6q-4.51-2.88-13.52-4.71t-24.36-1.84q-18 0-29.29 2.19t-16.48 7q-5.21 4.79-5.21 12.67a14.28 14.28 0 0 0 5.35 11.44q5.36 4.5 17.18 6.76t31.26 2.24a203.55 203.55 0 0 0 23.73-1.2 103.65 103.65 0 0 0 18.31-3.73 127.23 127.23 0 0 0 16.4-6.34l3.38 4.09a58.54 58.54 0 0 1 -25.9 25.18q-17.19 8.75-43 8.75zm59.29-2.81a47.07 47.07 0 0 1 1.12-9.58c.75-3.56 1.71-7.3 2.89-11.19s2.32-7.58 3.45-11.06h-54.88v-14.78h75v46.61z"/><path d="m817.42 95.75q-30.69 0-49.42-5.42t-27.25-16q-8.52-10.64-8.52-26.4t8.52-26.41q8.52-10.62 27.25-16t49.42-5.52q30.71 0 49.43 5.42t27.25 16q8.5 10.63 8.51 26.41t-8.51 26.4q-8.54 10.64-27.25 16t-49.43 5.52zm0-26.75a155.16 155.16 0 0 0 25.07-1.76q10.56-1.76 16.33-6.34t5.77-13q0-8.46-5.77-13t-16.33-6.33a153.92 153.92 0 0 0 -25.07-1.77 160.65 160.65 0 0 0 -25.42 1.72q-10.9 1.76-17 6.33t-6.13 13q0 8.44 6.13 13t17 6.34a162 162 0 0 0 25.42 1.81z"/><path d="m1022.3 2.82q19 0 31.41 3.66t19.43 10a35.29 35.29 0 0 1 9.93 14.43 50.25 50.25 0 0 1 2.88 17 45.2 45.2 0 0 1 -3.24 17 37.17 37.17 0 0 1 -10.63 14.44q-7.39 6.33-19.57 10t-30.21 3.66h-101.38v-90.19zm-66.18 62h64.78a72.53 72.53 0 0 0 13.37-1 25.35 25.35 0 0 0 8.81-3.17 12.55 12.55 0 0 0 4.78-5.28 17.25 17.25 0 0 0 1.48-7.39 17.3 17.3 0 0 0 -1.48-7.4 12.55 12.55 0 0 0 -4.78-5.28 25.36 25.36 0 0 0 -8.81-3.16 71.58 71.58 0 0 0 -13.37-1.14h-64.78z"/><path d="m167 264.73q-30.7 0-49.43-5.42t-27.24-16.05q-8.52-10.63-8.52-26.41t8.52-26.4q8.52-10.63 27.25-16t49.42-5.45q30.69 0 49.42 5.42t27.25 16q8.52 10.63 8.52 26.4t-8.52 26.41q-8.52 10.63-27.25 16.05t-49.42 5.45zm0-26.73a155.12 155.12 0 0 0 25.06-1.76q10.56-1.77 16.34-6.34t5.77-13q0-8.44-5.77-13t-16.34-6.34a155.12 155.12 0 0 0 -25.06-1.83 161.86 161.86 0 0 0 -25.42 1.76q-10.92 1.77-17 6.34t-6.12 13q0 8.46 6.12 13t17 6.34a161.86 161.86 0 0 0 25.42 1.83z"/><path d="m412.44 171.79v26.76h-106.73v12h87.29v23.94h-87.3v27.45h-35.2v-90.15z"/><path d="m508.2 171.79v63.37h82.09v26.75h-117.29v-90.12z"/><path d="m685.34 264.73q-30.71 0-49.43-5.42t-27.24-16.05q-8.53-10.63-8.52-26.41t8.52-26.4q8.51-10.63 27.24-16t49.43-5.45q30.69 0 49.42 5.42t27.25 16q8.52 10.63 8.52 26.4t-8.53 26.44q-8.52 10.63-27.25 16.05t-49.41 5.42zm0-26.75a155 155 0 0 0 25.06-1.76q10.56-1.77 16.34-6.34t5.77-13q0-8.44-5.77-13t-16.34-6.34a155 155 0 0 0 -25.06-1.76 162 162 0 0 0 -25.42 1.76q-10.9 1.77-17 6.34t-6.12 13q0 8.46 6.12 13t17 6.34a162 162 0 0 0 25.42 1.78z"/><path d="m828 261.91-54.63-90.12h39.71l46.61 86.6h-14.39l46.61-86.6h39.15l-54.06 90.12z"/><path d="m978.93 223.89v11.27h107v26.75h-142.2v-90.12h141.94v26.76h-106.74v11.26h87.31v14.08z"/></g></svg>