<?xml version="1.0" encoding="UTF-8"?>
<svg id="_層_2" data-name="圖層 2" xmlns="http://www.w3.org/2000/svg" width="322.76" height="78.68" viewBox="0 0 322.76 78.68">
  <defs>
    <style>
      .cls-1 {
        fill: #e8b356;
      }

      .cls-2 {
        opacity: .2;
      }
    </style>
  </defs>
  <g id="_層_1-2" data-name="圖層 1">
    <g class="cls-2">
      <g>
        <path class="cls-1" d="M0,.84H43.53v7.95H0V.84Zm16.53,7.41h10.46V27.62h-10.46V8.25Z"/>
        <path class="cls-1" d="M47.71,.84h10.46V27.62h-10.46V.84Zm8.96,9.25h29.46v7.95h-29.46v-7.95ZM84.96,.84h10.46V27.62h-10.46V.84Z"/>
        <path class="cls-1" d="M111.74,16.32v3.35h31.81v7.95h-42.27V.84h42.19v7.95h-31.72v3.35h25.95v4.19h-25.95Z"/>
        <path class="cls-1" d="M186.37,28.46c-3.63,0-6.95-.22-9.98-.65s-5.65-1.17-7.87-2.22c-2.22-1.05-3.93-2.48-5.15-4.29-1.21-1.81-1.82-4.1-1.82-6.86s.61-5.07,1.84-6.93c1.23-1.86,2.99-3.33,5.29-4.44,2.3-1.1,5.05-1.89,8.25-2.36,3.19-.47,6.76-.71,10.69-.71,5.16,0,9.49,.47,13,1.42,3.5,.95,6.17,2.3,8.01,4.04,1.84,1.74,2.83,3.82,2.97,6.21h-10.88c-.33-.61-.95-1.21-1.84-1.78-.89-.57-2.23-1.04-4.02-1.4-1.79-.36-4.2-.54-7.24-.54-3.57,0-6.47,.22-8.71,.65-2.23,.43-3.87,1.12-4.9,2.07-1.03,.95-1.55,2.2-1.55,3.77,0,1.37,.53,2.5,1.59,3.39,1.06,.89,2.76,1.56,5.11,2.01,2.34,.45,5.44,.67,9.29,.67,2.71,0,5.06-.12,7.05-.36,2-.24,3.81-.61,5.44-1.11,1.63-.5,3.26-1.13,4.88-1.88l1,1.21c-1.73,3.26-4.3,5.76-7.7,7.49-3.41,1.73-7.66,2.59-12.77,2.59Zm17.62-.84c0-.84,.11-1.79,.33-2.85,.22-1.06,.51-2.17,.86-3.33,.35-1.16,.69-2.25,1.03-3.29h-16.32v-4.39h22.31v13.85h-8.2Z"/>
        <path class="cls-1" d="M242.95,28.46c-6.08,0-10.98-.54-14.69-1.61-3.71-1.07-6.41-2.66-8.1-4.77-1.69-2.11-2.53-4.72-2.53-7.85s.84-5.74,2.53-7.85c1.69-2.11,4.39-3.7,8.1-4.77,3.71-1.07,8.61-1.61,14.69-1.61s10.98,.54,14.69,1.61c3.71,1.07,6.41,2.67,8.1,4.77,1.69,2.11,2.53,4.72,2.53,7.85s-.84,5.74-2.53,7.85c-1.69,2.11-4.39,3.7-8.1,4.77s-8.61,1.61-14.69,1.61Zm0-7.95c2.87,0,5.36-.17,7.45-.52,2.09-.35,3.71-.98,4.85-1.88,1.14-.91,1.72-2.2,1.72-3.87s-.57-2.96-1.72-3.87c-1.14-.91-2.76-1.53-4.85-1.88-2.09-.35-4.58-.52-7.45-.52s-5.39,.17-7.55,.52c-2.16,.35-3.85,.98-5.06,1.88-1.21,.91-1.82,2.2-1.82,3.87s.61,2.97,1.82,3.87c1.21,.91,2.9,1.53,5.06,1.88,2.16,.35,4.68,.52,7.55,.52Z"/>
        <path class="cls-1" d="M303.84,.84c3.77,0,6.88,.36,9.33,1.09,2.45,.73,4.38,1.72,5.78,2.97,1.39,1.26,2.38,2.69,2.95,4.29,.57,1.6,.86,3.29,.86,5.04s-.32,3.44-.96,5.04c-.64,1.6-1.7,3.03-3.16,4.29s-3.4,2.25-5.82,2.97c-2.41,.73-5.41,1.09-8.98,1.09h-30.13V.84h30.13Zm-19.67,18.41h19.25c1.56,0,2.89-.1,3.98-.31,1.09-.21,1.96-.52,2.62-.94,.66-.42,1.13-.94,1.42-1.57s.44-1.36,.44-2.2-.15-1.57-.44-2.2c-.29-.63-.77-1.15-1.42-1.57-.66-.42-1.53-.73-2.62-.94-1.09-.21-2.41-.31-3.98-.31h-19.25v10.04Z"/>
        <path class="cls-1" d="M26.58,78.68c-6.08,0-10.98-.54-14.69-1.61-3.71-1.07-6.41-2.66-8.1-4.77-1.69-2.11-2.53-4.72-2.53-7.85s.84-5.74,2.53-7.85c1.69-2.11,4.39-3.7,8.1-4.77,3.71-1.07,8.61-1.61,14.69-1.61s10.98,.54,14.69,1.61c3.71,1.07,6.41,2.66,8.1,4.77,1.69,2.11,2.53,4.72,2.53,7.85s-.84,5.74-2.53,7.85c-1.69,2.11-4.39,3.7-8.1,4.77-3.71,1.07-8.61,1.61-14.69,1.61Zm0-7.95c2.87,0,5.36-.17,7.45-.52,2.09-.35,3.71-.98,4.85-1.88,1.14-.91,1.72-2.2,1.72-3.87s-.57-2.96-1.72-3.87c-1.14-.91-2.76-1.53-4.85-1.88-2.09-.35-4.58-.52-7.45-.52s-5.39,.17-7.55,.52c-2.16,.35-3.85,.98-5.06,1.88-1.21,.91-1.82,2.2-1.82,3.87s.61,2.96,1.82,3.87c1.21,.91,2.9,1.53,5.06,1.88,2.16,.35,4.68,.52,7.55,.52Z"/>
        <path class="cls-1" d="M99.52,51.06v7.95h-31.72v3.56h25.95v7.11h-25.95v8.16h-10.46v-26.79h42.19Z"/>
        <path class="cls-1" d="M127.98,51.06v18.83h24.4v7.95h-34.86v-26.79h10.46Z"/>
        <path class="cls-1" d="M180.63,78.68c-6.08,0-10.98-.54-14.69-1.61-3.71-1.07-6.41-2.66-8.1-4.77-1.69-2.11-2.53-4.72-2.53-7.85s.84-5.74,2.53-7.85c1.69-2.11,4.39-3.7,8.1-4.77,3.71-1.07,8.61-1.61,14.69-1.61s10.98,.54,14.69,1.61c3.71,1.07,6.41,2.66,8.1,4.77,1.69,2.11,2.53,4.72,2.53,7.85s-.84,5.74-2.53,7.85c-1.69,2.11-4.39,3.7-8.1,4.77-3.71,1.07-8.61,1.61-14.69,1.61Zm0-7.95c2.87,0,5.36-.17,7.45-.52,2.09-.35,3.71-.98,4.85-1.88,1.14-.91,1.72-2.2,1.72-3.87s-.57-2.96-1.72-3.87c-1.14-.91-2.76-1.53-4.85-1.88-2.09-.35-4.58-.52-7.45-.52s-5.39,.17-7.55,.52c-2.16,.35-3.85,.98-5.06,1.88-1.21,.91-1.82,2.2-1.82,3.87s.61,2.96,1.82,3.87c1.21,.91,2.9,1.53,5.06,1.88,2.16,.35,4.68,.52,7.55,.52Z"/>
        <path class="cls-1" d="M223.03,77.84l-16.24-26.79h11.8l13.85,25.74h-4.27l13.85-25.74h11.63l-16.07,26.79h-14.57Z"/>
        <path class="cls-1" d="M267.89,66.54v3.35h31.81v7.95h-42.27v-26.79h42.19v7.95h-31.72v3.35h25.95v4.19h-25.95Z"/>
      </g>
    </g>
  </g>
</svg>