<svg height="126.66" viewBox="0 0 122.04 126.66" width="122.04" xmlns="http://www.w3.org/2000/svg"><g fill="#fff" transform="translate(-.59 -.75)"><path d="m112.74 4.12h.74v1h-.74a15.91 15.91 0 0 1 -1.1 5.93 15.77 15.77 0 0 1 1.65 1.82l-.79.9a13.33 13.33 0 0 0 -1.37-1.65 11.27 11.27 0 0 1 -2.55 3.1 3.4 3.4 0 0 0 -.81-.75 10.83 10.83 0 0 0 2.56-3.17c-.69-.69-1.43-1.36-2.08-1.95.29-1 .59-2.48.86-4l-1.2.08-.13-1.09 1.51-.06c.19-1.23.33-2.47.43-3.55l1.1.06c-.09 1.07-.25 2.24-.44 3.44l1.32-.06v-1.23h1zm-2.54 1.2c-.24 1.35-.5 2.66-.77 3.73.47.39.93.8 1.39 1.24a15 15 0 0 0 .88-5.06zm11.8-3.92v13.8h-1.11v-.83h-6v1h-1.06v-13.97zm-1.11 11.9v-10.81h-6v10.81zm-1-.79a38.32 38.32 0 0 0 -1.89-3.73 8.4 8.4 0 0 1 -2.25 4 4.11 4.11 0 0 0 -.76-.68 8 8 0 0 0 2.37-5.39h-2.06v-1h2.11v-2.71h1v2.76h2.23v1h-2.28c0 .24 0 .48-.08.74a36.79 36.79 0 0 1 2.39 4.5z"/><path d="m109.42 28.35a21.72 21.72 0 0 1 -.8 3.86 6.45 6.45 0 0 0 -.87-.32 17.84 17.84 0 0 0 .75-3.68zm-1.32-4.5c-.08-.24-.22-.68-.32-1 .26-.06.53-.38.84-.88a20.26 20.26 0 0 0 2.08-4l1 .45a25.68 25.68 0 0 1 -2.42 4.27l1.7-.14c.41-.71.83-1.48 1.18-2.23l.93.55a32.59 32.59 0 0 1 -3.55 5.34l2.81-.38c-.17-.56-.4-1.12-.6-1.6l.81-.31a16.08 16.08 0 0 1 1.08 3.08l-.88.35c0-.19-.1-.41-.16-.65-3.62.56-4.1.69-4.39.83a6.68 6.68 0 0 0 -.33-1c.32-.07.69-.48 1.15-1.07a18.33 18.33 0 0 0 1.31-1.88 9 9 0 0 0 -2.22.39zm2.9 4.29a29.18 29.18 0 0 1 .43 3.36l-.9.23a32.07 32.07 0 0 0 -.38-3.43zm1.68-.41a24.57 24.57 0 0 1 1 3.07l-.85.3a22 22 0 0 0 -.91-3.1zm9.54-2.24c-.5.35-1.09.68-1.7 1 .37 1.81 1 3.51 2.1 4.32a3.33 3.33 0 0 0 -.74.85 8.38 8.38 0 0 1 -2.19-4.74c-.29.16-.59.31-.88.44.83 2 .53 4.08-.31 4.75a1.7 1.7 0 0 1 -1.34.46c-.29 0-.66 0-1 0a2.77 2.77 0 0 0 -.27-1 9.48 9.48 0 0 0 1.07.08.93.93 0 0 0 .82-.3 2.89 2.89 0 0 0 .42-2.35 14.48 14.48 0 0 1 -4.2 2.82 3.7 3.7 0 0 0 -.67-.83 11.89 11.89 0 0 0 4.67-2.99 4.35 4.35 0 0 0 -.4-1 13.71 13.71 0 0 1 -3.22 2 3.93 3.93 0 0 0 -.62-.82 11 11 0 0 0 3.38-1.93 5.27 5.27 0 0 0 -.69-.74 15.89 15.89 0 0 1 -2.19 1.22 5.1 5.1 0 0 0 -.64-.8 12.63 12.63 0 0 0 3.38-1.93h-3.41v-1h5.6q.09-.45.21-1h-4.76c.34-1.09.76-2.82 1-4.14l1.12.12-.24 1h3.48l.2-.06.76.13c-.17 1.17-.48 2.67-.75 3.95h2.31v1h-4.22a10.14 10.14 0 0 1 -1.14 1 5.45 5.45 0 0 1 1.28 1.54 24.7 24.7 0 0 0 3-1.78zm-2.69-4.29c.09-.47.17-.93.24-1.33h-3.48c-.11.46-.24.93-.35 1.33z"/><path d="m116 42.57a9.59 9.59 0 0 0 6.53 6.18 4.82 4.82 0 0 0 -.8 1.07 10.4 10.4 0 0 1 -6.58-6.35c-.72 2.34-2.47 4.69-6.53 6.37a4.55 4.55 0 0 0 -.77-1c4.11-1.68 5.66-4 6.23-6.28h-5.83v-1.2h6.06a14.31 14.31 0 0 0 .1-1.81v-1.86h-5.6v-1.2h12.58v1.2h-5.75v1.89a15.81 15.81 0 0 1 -.08 1.79h6.52v1.2z"/><path d="m110.82 59.71a19.67 19.67 0 0 0 -2.94-1.71l.64-.88a24.39 24.39 0 0 1 3 1.62zm1.43 2.11c-.85 1.68-2 3.67-2.9 5.16l-1-.82a45.44 45.44 0 0 0 3-5.12zm-.53-6.47a20 20 0 0 0 -3-1.77l.65-.87a20.6 20.6 0 0 1 3 1.67zm10.76 10.17v1.14h-10.48v-1.14h4.68v-4.11h-3.56v-1.14h3.56v-3.57h-4.2v-1.14h9.61v1.14h-4.18v3.57h3.6v1.14h-3.6v4.11zm-5.24-10a13.53 13.53 0 0 0 -1.31-2.66l1.07-.38a12.69 12.69 0 0 1 1.38 2.59z"/><path d="m115.75 82.78a13.55 13.55 0 0 0 2.63.21h4.08a4.24 4.24 0 0 0 -.45 1.2h-3.7c-3.32 0-5.71-.58-7.17-3.3a8.44 8.44 0 0 1 -2.38 3.62 5.58 5.58 0 0 0 -1-.82c1.78-1.36 2.64-3.63 3-6.51l1.19.13c-.1.73-.23 1.42-.37 2.06a4.82 4.82 0 0 0 2.93 3.12v-6.64h-4v-1.13h9.26v1.13h-4.08v2.61h4.74v1.12h-4.74zm-6.06-7.7h-1.17v-3.47h6.21a14 14 0 0 0 -.73-1.61l1.16-.33a12.82 12.82 0 0 1 .94 1.9h5.7v3.47h-1.2v-2.29h-10.9z"/><path d="m113.5 92.62a2.77 2.77 0 0 0 2-2.35 1.18 1.18 0 0 1 -.27 0 1.1 1.1 0 0 1 -1.2-1.14 1.13 1.13 0 0 1 1.23-1.13c.88 0 1.36.72 1.36 1.84a3.81 3.81 0 0 1 -2.77 3.63z"/><path d="m81.2 3c-.35.6-.73 1.17-1.13 1.76v10.5h-1.27v-8.89a20.64 20.64 0 0 1 -5.8 4.63 8.73 8.73 0 0 0 -.8-1 18.5 18.5 0 0 0 7.47-7h-7.06v-1.18h13.67v1.18zm.07 2.68a36.08 36.08 0 0 1 5.45 4.21l-.94.91a35.54 35.54 0 0 0 -5.39-4.35z"/><path d="m80.16 31.06a18.57 18.57 0 0 0 1.89.09h4.72a4 4 0 0 0 -.41 1.13h-4.36c-3.21 0-5.25-.51-6.54-2.67a8.32 8.32 0 0 1 -2.5 3 6.5 6.5 0 0 0 -.88-.85 7.46 7.46 0 0 0 3.1-5.2l1.2.16a15 15 0 0 1 -.41 1.6 4.21 4.21 0 0 0 3 2.54v-4.81h-6.54v-1.05h14v1.08h-6.27v1.77h5.28v1.06h-5.28zm4.56-7.16h-10.62v-5.28h10.62zm-1.18-4.37h-8.28v1.3h8.28zm0 2.16h-8.28v1.31h8.28z"/><path d="m76.9 48.59c-.39-.51-1-1.15-1.57-1.81a10.06 10.06 0 0 1 -2.56 3 3.43 3.43 0 0 0 -.79-.72 9.67 9.67 0 0 0 2.58-3.06c-.72-.7-1.49-1.39-2.18-2 .32-1.09.66-2.59 1-4.16l-1.14.06-.13-1.1 1.46-.07c.18-1.2.34-2.4.43-3.45h1c-.09 1-.27 2.18-.46 3.35l1.36-.06v-1.07h1v1.09l.8-.05v1l-.8.06a15.54 15.54 0 0 1 -1.08 6.12 19 19 0 0 1 1.78 1.92zm-2.56-8.79c-.28 1.4-.56 2.76-.84 3.88.48.4 1 .86 1.52 1.33a14.51 14.51 0 0 0 .87-5.3zm6.51 6.28a8.59 8.59 0 0 1 -2.61 3.54 3.59 3.59 0 0 0 -.8-.85 7 7 0 0 0 2.53-3zm1.84-.82v4.61h-1.15v-4.61h-3.86v-1h3.86v-1.45h-2.47v-4.81h-1.42v-1h1.42v-1.76h1.09v1.76h3.84v-1.76h1.13v1.76h1.43v1h-1.47v4.78h-2.4v1.43h3.83v1zm-2.53-7.26v1.41h3.84v-1.41zm0 3.79h3.84v-1.43h-3.8zm4.12 4a31.63 31.63 0 0 1 2.4 3.3l-.93.45a31.19 31.19 0 0 0 -2.34-3.36z"/><path d="m80.08 52.59c0 .57 0 1.37-.11 2.32.24 1.9 1.2 8.59 6.85 11.11a3.48 3.48 0 0 0 -.82.98c-4-1.87-5.72-5.82-6.49-8.8a12.8 12.8 0 0 1 -6.34 8.87 3.71 3.71 0 0 0 -1-.93c6.65-3.36 6.55-11.14 6.6-13.57z"/><path d="m76.37 83.1c0 .58-.11.9-.45 1.09a4 4 0 0 1 -1.71.21 3.9 3.9 0 0 0 -.32-1.06 12.2 12.2 0 0 0 1.25 0c.17 0 .24 0 .24-.24v-4.41c-.37.33-.76.69-1.12 1l-.44-.84a19.65 19.65 0 0 1 -1 5.57 4.51 4.51 0 0 0 -.86-.5c.85-2.26.91-5.46.91-7.8v-5.72h3.46zm-2.48-7c0 .77 0 1.65-.07 2.57.44-.28 1-.68 1.56-1.11v-2.09l-.42.34a9.69 9.69 0 0 0 -1.07-1.4zm0-4.64v2.58l.46-.34a12.39 12.39 0 0 1 1 1.16v-3.4zm6.42 1.83c-.07.22-.15.43-.23.64a29.37 29.37 0 0 1 2.66 3.84l-.8.64a25.86 25.86 0 0 0 -2.27-3.41 10.08 10.08 0 0 1 -2.44 3.45 3.48 3.48 0 0 0 -.75-.73 9.38 9.38 0 0 0 2.83-4.72zm-1-2.91a11.37 11.37 0 0 1 -1.89 3.87 4.2 4.2 0 0 0 -.8-.63 8.66 8.66 0 0 0 1.7-3.45zm-1.69 7.74h4.09v6h-1v-.9h-2.15v1h-.94zm.94 1.07v3h2.18v-3zm3.06-5.15a17.38 17.38 0 0 0 -1.62-3.55l.88-.29a17.81 17.81 0 0 1 1.68 3.51zm4.58 6.55c0 .49-.08.8-.42 1a3.09 3.09 0 0 1 -1.46.2 3.57 3.57 0 0 0 -.3-1 8.06 8.06 0 0 0 1 0c.14 0 .19 0 .19-.21v-8.82h-1.48v12.66h-.93v-13.71h3.4z"/><path d="m78.15 100a22.55 22.55 0 0 1 -4.94 1.78 7.16 7.16 0 0 0 -.86-.89 20.69 20.69 0 0 0 4.72-1.37zm7.95-12a6.78 6.78 0 0 1 -2.29 3.27 10.41 10.41 0 0 0 3 1.14 4.24 4.24 0 0 0 -.72.92 10.09 10.09 0 0 1 -3.25-1.45 11 11 0 0 1 -2.78 1.07 4 4 0 0 0 -.59-.83v.67h-6.38v-5.2h6.3v.75h-2.49v.66h2.17v2.21h-2.17v.79h2.61a10.45 10.45 0 0 0 2.49-.83 7.7 7.7 0 0 1 -1.65-2.17l1-.3a5.87 5.87 0 0 0 1.65 2 5.53 5.53 0 0 0 1.77-2h-4.88v-.93h5.38.19zm-12 .34v.66h1.9v-.7zm4 1.41h-4v.85h4zm-4 2.25h1.9v-.77h-1.9zm10.62 7.33h-10.34v-6h10.34zm-1.18-5.22h-8v1h8zm0 1.73h-8v1h8zm0 1.73h-8v1h8zm-1.81 2a47.19 47.19 0 0 1 4.82 1.58l-1.36.6a40.53 40.53 0 0 0 -4.47-1.59z"/><path d="m77.49 108.19a21.4 21.4 0 0 1 -1.76 2.41v8.4h-1.19v-7.1a18 18 0 0 1 -1.8 1.66 12.28 12.28 0 0 0 -.84-1 17.37 17.37 0 0 0 4.48-4.82zm-.63-3.38a19.73 19.73 0 0 1 -4.09 4 9.64 9.64 0 0 0 -.71-.94 15.91 15.91 0 0 0 3.67-3.48zm9.82 6h-2.42v6.62c0 .73-.18 1.1-.7 1.29a11.86 11.86 0 0 1 -3 .18 4.12 4.12 0 0 0 -.39-1.15h2.5s.4-.08.4-.35v-6.6h-5.36v-1.13h9zm-.47-4.38h-7.81v-1.12h7.81z"/><path d="m79.49 122.54a2.44 2.44 0 1 1 -2.43 2.46 2.43 2.43 0 0 1 2.43-2.46zm0 4a1.62 1.62 0 1 0 -1.62-1.54 1.61 1.61 0 0 0 1.62 1.59z"/><path d="m48.81 13.57c0 .83-.24 1.25-.83 1.44a12.84 12.84 0 0 1 -3.38.22 5.1 5.1 0 0 0 -.51-1.23c1.35.05 2.63 0 3 0s.5-.13.5-.48v-3.2h-7.69a9 9 0 0 1 -2.76 5 4.53 4.53 0 0 0 -.88-.87c2.55-2.24 2.81-5.49 2.81-8v-4.92h9.74zm-1.23-4.39v-2.69h-7.31a19.7 19.7 0 0 1 -.18 2.69zm-7.31-6.48v2.66h7.31v-2.66z"/><path d="m44 20.33v2.85l.21-.24a38.81 38.81 0 0 1 5.68 3.31l-.83 1.08a36.28 36.28 0 0 0 -5.06-3.19v8.42h-1.22v-12.23h-6.12v-1.18h14.14v1.18z"/><path d="m44.84 41.79a27.94 27.94 0 0 1 -2.73 1.87v.71h7v1.07h-7v2.22c0 .61.25.74 1.58.74h4.56c1.14 0 1.33-.32 1.46-2.13a4.11 4.11 0 0 0 1.15.45c-.21 2.22-.64 2.77-2.54 2.77h-4.65c-2.17 0-2.78-.35-2.78-1.81v-3.31a31.8 31.8 0 0 1 -3.73 1.77 9.85 9.85 0 0 0 -.86-1 31.3 31.3 0 0 0 6.53-3.31h-6.23v-1.15h5.4v-2.17h-4v-1.11h4v-2.16h1.19v2.16h4v.72a24.78 24.78 0 0 0 1.87-2.25l1.09.56a24.81 24.81 0 0 1 -4 4.25h4.64v1.11zm-.48-1.11a22.42 22.42 0 0 0 2.47-2.17h-3.68v2.17z"/><path d="m44.36 52.59c0 .57 0 1.37-.11 2.32.24 1.9 1.2 8.59 6.85 11.11a3.64 3.64 0 0 0 -.86 1c-4-1.87-5.72-5.82-6.49-8.8a12.81 12.81 0 0 1 -6.33 8.87 4.06 4.06 0 0 0 -1-.93c6.68-3.36 6.58-11.16 6.63-13.57z"/><path d="m42.06 75.34a2.78 2.78 0 0 0 2-2.35 1.32 1.32 0 0 1 -.28 0 1.11 1.11 0 0 1 -1.2-1.14 1.13 1.13 0 0 1 1.22-1.15c.88 0 1.36.72 1.36 1.84a3.81 3.81 0 0 1 -2.77 3.63z"/><path d="m5.59 4.12h.73v1h-.73a15.94 15.94 0 0 1 -1.11 5.93 14.9 14.9 0 0 1 1.65 1.82l-.78.9a13.51 13.51 0 0 0 -1.35-1.61 11.27 11.27 0 0 1 -2.55 3.1 3.4 3.4 0 0 0 -.81-.75 10.67 10.67 0 0 0 2.56-3.17c-.72-.69-1.45-1.34-2.11-1.95.29-1 .59-2.48.86-4l-1.2.08-.13-1.11 1.51-.06c.19-1.23.33-2.47.43-3.55l1.11.06c-.1 1.07-.26 2.24-.45 3.44l1.33-.06v-1.25h1zm-2.59 1.2c-.2 1.35-.46 2.68-.73 3.73.47.39.93.8 1.4 1.24a15.5 15.5 0 0 0 .88-5.06zm11.84-3.92v13.8h-1.11v-.83h-6v1h-1.04v-13.97zm-1.11 11.9v-10.81h-6v10.81zm-1-.79a38.32 38.32 0 0 0 -1.93-3.73 8.32 8.32 0 0 1 -2.25 4 3.81 3.81 0 0 0 -.76-.68 8 8 0 0 0 2.37-5.39h-2.06v-1h2.11v-2.71h1v2.76h2.19v1h-2.28a6.67 6.67 0 0 1 -.08.74 36.79 36.79 0 0 1 2.47 4.5z"/><path d="m2.26 28.35a20.87 20.87 0 0 1 -.8 3.86 6 6 0 0 0 -.87-.32 17.84 17.84 0 0 0 .75-3.68zm-1.32-4.5c-.08-.24-.22-.68-.32-1 .26-.06.53-.38.84-.88a20.26 20.26 0 0 0 2.08-4l1 .45a25.68 25.68 0 0 1 -2.43 4.28l1.7-.14c.42-.71.83-1.48 1.18-2.23l.93.55a32.59 32.59 0 0 1 -3.55 5.34l2.82-.38c-.18-.56-.4-1.12-.61-1.6l.81-.31a16.08 16.08 0 0 1 1.09 3.07l-.88.35a5.54 5.54 0 0 0 -.16-.65c-3.61.56-4.1.69-4.38.83a8.12 8.12 0 0 0 -.34-1c.32-.07.69-.48 1.15-1.07a19.67 19.67 0 0 0 1.32-1.88 9 9 0 0 0 -2.19.34zm2.92 4.29a27.13 27.13 0 0 1 .43 3.36l-.9.23a29.69 29.69 0 0 0 -.39-3.43zm1.68-.41a24.57 24.57 0 0 1 1 3.07l-.85.3a20.75 20.75 0 0 0 -.95-3.1zm9.54-2.24c-.5.35-1.09.68-1.7 1 .37 1.81 1 3.51 2.1 4.32a3.33 3.33 0 0 0 -.74.85 8.38 8.38 0 0 1 -2.19-4.74c-.29.16-.59.31-.88.44.83 2 .53 4.08-.31 4.75a1.7 1.7 0 0 1 -1.34.46c-.29 0-.66 0-1 0a2.43 2.43 0 0 0 -.27-1 9.48 9.48 0 0 0 1.07.08.93.93 0 0 0 .82-.3 2.89 2.89 0 0 0 .36-2.35 14.48 14.48 0 0 1 -4.2 2.82 3.7 3.7 0 0 0 -.67-.82 11.89 11.89 0 0 0 4.67-3 4.35 4.35 0 0 0 -.4-1 13.86 13.86 0 0 1 -3.21 2 4.38 4.38 0 0 0 -.63-.82 11 11 0 0 0 3.38-1.93 5.27 5.27 0 0 0 -.69-.74 15.89 15.89 0 0 1 -2.19 1.22 5.1 5.1 0 0 0 -.64-.8 12.63 12.63 0 0 0 3.41-2h-3.41v-.93h5.58q.09-.45.21-1h-4.74c.34-1.09.76-2.82 1-4.14l1.13.14-.24 1h3.52l.2-.06.77.13c-.18 1.17-.48 2.67-.76 3.95h2.31v1h-4.26a10.14 10.14 0 0 1 -1.14.98 5.45 5.45 0 0 1 1.28 1.54 24 24 0 0 0 3-1.78zm-2.69-4.29c.1-.47.18-.93.24-1.33h-3.47c-.12.46-.24.93-.36 1.33z"/><path d="m15.3 41.76v1.29h-14.53v-1.29z"/><path d="m5.23 62.24c0-.27-.09-.59-.16-.91-3.18.46-3.68.57-4 .73a10.73 10.73 0 0 0 -.38-1.13c.34-.08.69-.47 1.17-1.06a18 18 0 0 0 1.34-1.78 8.64 8.64 0 0 0 -2.2.39c-.07-.24-.26-.79-.39-1.09.28-.07.55-.39.85-.88a19.38 19.38 0 0 0 2.05-4l1.12.49a26.73 26.73 0 0 1 -2.42 4.2l1.66-.2a20.25 20.25 0 0 0 1.19-2.13l1.05.61a30.91 30.91 0 0 1 -3.57 5.17l2.31-.31c-.14-.54-.3-1.09-.48-1.58l.91-.24a22.25 22.25 0 0 1 .93 3.48zm-2.88.67a21 21 0 0 1 -.81 3.94 7.05 7.05 0 0 0 -.92-.34 15.69 15.69 0 0 0 .77-3.76zm1.49-.19c.18 1.09.35 2.48.4 3.41l-.94.17a29.84 29.84 0 0 0 -.3-3.42zm1.43-.39a19.5 19.5 0 0 1 .8 2.57l-.88.28a20.5 20.5 0 0 0 -.76-2.61zm4.81-1a7.65 7.65 0 0 1 -3.58 5 4.08 4.08 0 0 0 -.69-.85 6.29 6.29 0 0 0 2.93-3.41h-2.07v-1h2.53.2zm4.92-.23c-.72.66-1.53 1.39-2.24 1.92a7 7 0 0 0 2.61 2.5 4.82 4.82 0 0 0 -.78.94 8.57 8.57 0 0 1 -3-3.63v3c0 .61-.13.93-.56 1.12a5.8 5.8 0 0 1 -2.11.21 4.47 4.47 0 0 0 -.35-1.11 15.19 15.19 0 0 0 1.61 0c.21 0 .28-.06.28-.26v-6h-3.21v-5.6h2.45a11.83 11.83 0 0 0 .54-1.7l1.33.27c-.22.48-.46 1-.67 1.43h3.6v5.6h-2.93v.58a8.92 8.92 0 0 0 .76 1.84 19.12 19.12 0 0 0 1.79-1.86zm-6.63-4.54h5v-1.4h-5zm0 2.32h5v-1.43h-5z"/><path d="m15.08 82.11h-6.52v2.26h-1.17v-2.26h-6.45v-1h6.45v-1.37h-3.69a9.3 9.3 0 0 1 -1.16 1.26 6.75 6.75 0 0 0 -1-.56 7.83 7.83 0 0 0 2.15-2.74l-.21.06a9.67 9.67 0 0 0 -.35-.93 4.85 4.85 0 0 0 1.75-.83c.26-.15.66-.37 1.19-.7h-3.8v1.7h-1.09v-2.54h6.15c.37-.26.74-.51 1.11-.8a27.73 27.73 0 0 0 -4.53.4 8.42 8.42 0 0 0 -.36-.9 2.09 2.09 0 0 0 .9-.32 11.72 11.72 0 0 0 1.46-.84h-4.68v-1h6.32a8 8 0 0 0 -.55-1l1.13-.32a7.89 7.89 0 0 1 .77 1.32h5.89v1h-7.33a15.5 15.5 0 0 1 -1.73 1.07l3.75-.19c.33-.27.67-.56 1-.85l.83.63c-.77.64-1.57 1.24-2.37 1.82h5.88v2.52h-1.15v-1.67h-3.62a16.85 16.85 0 0 1 3.27 2.17l-.72.64a12.33 12.33 0 0 0 -1.24-1c-5.33.35-6.89.45-7.53.54l1 .26c-.13.29-.29.56-.43.83h3v-1.14h1.16v1.12h5v1h-5v1.35h6.52zm-7.41-6.78c-.71.44-1.44.88-2.15 1.28l4.66-.26a7.37 7.37 0 0 0 -.9-.51l.66-.51z"/><path d="m8.05 88a2.44 2.44 0 1 1 -2.43 2.43 2.43 2.43 0 0 1 2.43-2.43zm0 4a1.62 1.62 0 1 0 -1.62-1.62 1.61 1.61 0 0 0 1.62 1.62z"/></g></svg>