<svg height="70.31" viewBox="0 0 225.69 70.31" width="225.69" xmlns="http://www.w3.org/2000/svg"><path d="m195.14 70.31 30.55-27.56a10.75 10.75 0 0 1 0-15.19l-30.55-27.56h-164.59l-30.55 27.56a10.75 10.75 0 0 1 0 15.19l30.55 27.56z" fill="#ec6531"/><g fill="#fff"><path d="m56 39.08h4.79v2.29h-4.79v5.51h-2.45v-5.51h-5v-2.29h5v-2.79h-4.45v-2.29h2.36a14.2 14.2 0 0 0 -1.21-3.22l1.75-.55h-3.49v-2.29h5v-2.49h-4.19v-2.27h4.23v-2.72h2.45v2.72h4.09v2.27h-4.09v2.49h4.76v2.29h-3.1l1.83.49c-.56 1.08-1.15 2.28-1.69 3.28h2.4v2.29h-4.2zm-3.75-8.85a14 14 0 0 1 1.33 3.31l-1.38.46h3.32a30.37 30.37 0 0 0 1.66-3.77zm21.21 1.77a28.16 28.16 0 0 1 -3.21 9.26 14.34 14.34 0 0 0 4.2 3.42 9.36 9.36 0 0 0 -1.75 2.14 14.89 14.89 0 0 1 -3.88-3.39 16.28 16.28 0 0 1 -3.69 3.57 7.43 7.43 0 0 0 -1.07-1.25v1.16h-2.4v-25.24h11.13v5.49c0 1.24-.26 1.94-1.21 2.29a13 13 0 0 1 -4.48.4 9 9 0 0 0 -.79-2.32c1.6.06 3.1.06 3.49 0s.56-.11.56-.43v-3.05h-6.3v7.43h7.35l.45-.12zm-9.4 12.77a15.82 15.82 0 0 0 3.26-3.46 28.51 28.51 0 0 1 -3.26-7.48zm2.14-11.12a24 24 0 0 0 2.47 5.4 21.18 21.18 0 0 0 2-5.4z"/><path d="m105.44 47h-2.7v-1.42h-11.61v1.42h-2.62v-9.28c-1.46.49-3 .92-4.42 1.3a10.86 10.86 0 0 0 -1.35-2.49 38.51 38.51 0 0 0 10.26-3.69 50.32 50.32 0 0 0 -5-4.26 30.89 30.89 0 0 1 -2.9 1.74 8.66 8.66 0 0 0 -1.8-2.15 21.75 21.75 0 0 0 9.35-7.92l3 .64c-.54.78-1.1 1.57-1.72 2.32h9.15l.43-.14 1.8 1.1a25.14 25.14 0 0 1 -10.09 10.41h10.22zm-13.8-21.32c-.51.46-1 .9-1.52 1.33a57.11 57.11 0 0 1 5.27 4.35 22.19 22.19 0 0 0 6-5.68zm11.1 17.43v-6.11h-11.61v6.09z"/><path d="m122.29 33.54a26 26 0 0 0 -5.18-3.13l1.38-2a24.07 24.07 0 0 1 5.24 2.93zm-4.29 11.28a79.48 79.48 0 0 0 5.32-9.19l1.92 1.8c-1.46 3-3.32 6.49-5 9.22zm2.09-24.13a27.52 27.52 0 0 1 5.29 3l-1.52 2.23a23.92 23.92 0 0 0 -5.24-3.22zm20 26.28a14.43 14.43 0 0 0 -1.09-2.73c-9.94 1.25-11.21 1.48-12.06 1.89a25.05 25.05 0 0 0 -.9-2.7c.59-.14 1.13-.81 1.81-1.89a41.1 41.1 0 0 0 3.46-6.7h-5.8v-2.55h7v-4.7h-5.77v-2.59h5.77v-4.63h2.68v4.63h6v2.55h-6v4.7h7.07v2.55h-7.77a54.65 54.65 0 0 1 -4.48 8l7.83-.87c-.68-1.16-1.47-2.32-2.2-3.4l2.11-1a35.1 35.1 0 0 1 4.82 8.18z"/><path d="m166.27 21.07c-.14.17-.25.37-.42.55 2.62 2.49 7.38 4.7 11.77 5.65a11.26 11.26 0 0 0 -1.62 2.06c-.67-.2-1.41-.43-2.11-.69v7.51h-19v-7.31c-.71.26-1.38.49-2.09.7a9.75 9.75 0 0 0 -1.4-2.06c5.09-1.34 10.08-3.86 12.64-7.26zm7.47 7.54a27.64 27.64 0 0 1 -4.51-2.06v.84h-9.75v-.7a28.16 28.16 0 0 1 -4.08 1.92zm-17.33 8.7h16.06v9.54h-2.68v-.78h-10.79v.93h-2.6zm3.83-6.76a12.26 12.26 0 0 1 1.44 3.19l-1.86.64h3.33v-4h-6.15v4h2.71a12.68 12.68 0 0 0 -1.33-3.25zm-1.24 8.62v1.59h10.78v-1.59zm10.78 5.07v-1.62h-10.78v1.62zm-2.22-18.71a18.62 18.62 0 0 1 -3.1-2.43 21.18 21.18 0 0 1 -3.07 2.43zm4 4.85h-6.25v4h3.15l-1.75-.55a21.78 21.78 0 0 0 1.41-3.4l2.2.64c-.62 1.25-1.24 2.47-1.75 3.31h3z"/></g></svg>