<svg height="173.98" viewBox="0 0 236.09 173.98" width="236.09" xmlns="http://www.w3.org/2000/svg"><g fill="#fff"><path d="m218 151.56 1.88 2.37a15.16 15.16 0 0 1 -3.58 3.34 7.34 7.34 0 0 1 -9.19-.82 7.59 7.59 0 0 1 4.3-13.1 7.66 7.66 0 0 1 6.08 2 37.14 37.14 0 0 1 4.42 5 41.34 41.34 0 0 0 3.46 3.78 4.3 4.3 0 0 0 5.16.83 4.53 4.53 0 0 0 2-6.25 4.45 4.45 0 0 0 -6.26-1.7 12.73 12.73 0 0 0 -3 2.82l-.39.44-1.92-2.42a12.54 12.54 0 0 1 5.27-4.15 7.08 7.08 0 0 1 5.22.16 7.59 7.59 0 0 1 -2.06 14.59 7.89 7.89 0 0 1 -6.11-2.12 33.88 33.88 0 0 1 -4-4.46c-1.14-1.38-2.32-2.73-3.56-4a4.75 4.75 0 0 0 -2.64-1.43 4.53 4.53 0 0 0 -4.82 2.46 4.59 4.59 0 0 0 1 5.33 4.39 4.39 0 0 0 5.3.63 12.92 12.92 0 0 0 3.17-2.91l.26-.31z"/><path d="m18.11 151.56-1.88 2.37a15.16 15.16 0 0 0 3.58 3.34 7.34 7.34 0 0 0 9.19-.82 7.59 7.59 0 0 0 -4.3-13.1 7.66 7.66 0 0 0 -6.08 2 37.14 37.14 0 0 0 -4.42 5 41.34 41.34 0 0 1 -3.46 3.78 4.3 4.3 0 0 1 -5.16.83 4.53 4.53 0 0 1 -2-6.25 4.44 4.44 0 0 1 6.29-1.71 12.59 12.59 0 0 1 3.05 2.82l.39.44 1.92-2.42a12.54 12.54 0 0 0 -5.23-4.14 7.08 7.08 0 0 0 -5.22.16 7.59 7.59 0 0 0 2.02 14.59 7.89 7.89 0 0 0 6.11-2.12 33.88 33.88 0 0 0 4-4.46c1.14-1.38 2.32-2.73 3.56-4a4.75 4.75 0 0 1 2.64-1.43 4.51 4.51 0 0 1 4.81 2.46 4.57 4.57 0 0 1 -1 5.33 4.39 4.39 0 0 1 -5.3.63 12.92 12.92 0 0 1 -3.17-2.91c-.09-.1-.17-.21-.27-.31a.35.35 0 0 0 -.07-.08z"/><path d="m121.61 3.4a2.55 2.55 0 0 1 -1.5-1.15 3.9 3.9 0 0 0 -3.46-2.25 4.48 4.48 0 0 0 -3.47 1.42.25.25 0 0 0 0 .3.69.69 0 0 1 .13.62c-.1.37-.5.57-.86.76a3.42 3.42 0 0 1 -.77.3 2.55 2.55 0 0 1 -1.87-.25 3.92 3.92 0 0 0 -4.12-.21 4.42 4.42 0 0 0 -2.29 3 .26.26 0 0 0 .15.26.68.68 0 0 1 .42.47 1.47 1.47 0 0 1 -.37 1.09 3.12 3.12 0 0 1 -.51.64 2.53 2.53 0 0 1 -1.74.72 3.92 3.92 0 0 0 -3.68 1.88 4.42 4.42 0 0 0 -.5 3.71.25.25 0 0 0 .26.15.7.7 0 0 1 .57.14 1.51 1.51 0 0 1 .22 1.14 3.16 3.16 0 0 1 -.12.8 2.51 2.51 0 0 1 -1.1 1.51 3.92 3.92 0 0 0 -2.25 3.47 4.45 4.45 0 0 0 1.43 3.46.24.24 0 0 0 .29 0 .69.69 0 0 1 .62-.13c.37.1.58.5.77.86a3.94 3.94 0 0 1 .29.77 2.5 2.5 0 0 1 -.25 1.87 3.92 3.92 0 0 0 -.21 4.12 4.47 4.47 0 0 0 3 2.29.25.25 0 0 0 .26-.15.7.7 0 0 1 .47-.42 1.47 1.47 0 0 1 1.09.37 3.12 3.12 0 0 1 .64.51 2.52 2.52 0 0 1 .73 1.74 3.91 3.91 0 0 0 1.87 3.68 4.42 4.42 0 0 0 3.71.5.23.23 0 0 0 .15-.25.67.67 0 0 1 .19-.6 1.51 1.51 0 0 1 1.14-.24 3.8 3.8 0 0 1 .81.13 2.49 2.49 0 0 1 1.49 1.15 3.94 3.94 0 0 0 3.47 2.25 4.47 4.47 0 0 0 3.46-1.42.24.24 0 0 0 0-.3.72.72 0 0 1 -.13-.62c.1-.37.51-.57.87-.76a3.34 3.34 0 0 1 .76-.3 2.49 2.49 0 0 1 1.87.25 3.94 3.94 0 0 0 4.13.21 4.45 4.45 0 0 0 2.28-3 .23.23 0 0 0 -.14-.26.71.71 0 0 1 -.43-.47 1.5 1.5 0 0 1 .37-1.1 3.8 3.8 0 0 1 .51-.63 2.49 2.49 0 0 1 1.75-.72 3.94 3.94 0 0 0 3.68-1.88 4.5 4.5 0 0 0 .5-3.71.27.27 0 0 0 -.26-.15.66.66 0 0 1 -.6-.2 1.43 1.43 0 0 1 -.23-1.13 3.78 3.78 0 0 1 .12-.81 2.53 2.53 0 0 1 1.15-1.49 3.92 3.92 0 0 0 2.25-3.47 4.47 4.47 0 0 0 -1.42-3.46.24.24 0 0 0 -.3 0 .71.71 0 0 1 -.62.13c-.37-.1-.57-.51-.76-.87a3.34 3.34 0 0 1 -.3-.76 2.54 2.54 0 0 1 .25-1.87 3.88 3.88 0 0 0 .21-4.12 4.44 4.44 0 0 0 -3-2.3.26.26 0 0 0 -.26.15.7.7 0 0 1 -.46.43 1.48 1.48 0 0 1 -1.1-.37 3.12 3.12 0 0 1 -.64-.51 2.54 2.54 0 0 1 -.72-1.75 3.89 3.89 0 0 0 -1.88-3.67 4.46 4.46 0 0 0 -3.71-.51.27.27 0 0 0 -.15.26.68.68 0 0 1 -.19.6 1.5 1.5 0 0 1 -1.14.23 3.78 3.78 0 0 1 -.8-.12zm-.54 2a17.29 17.29 0 0 1 4.13 1.7 17.19 17.19 0 0 1 6.26 6.26 17.52 17.52 0 0 1 1.71 4.12 17.14 17.14 0 0 1 -4.43 16.52 17.12 17.12 0 0 1 -16.52 4.43 17.08 17.08 0 0 1 -4.12-1.71 17.32 17.32 0 0 1 -3.55-2.72 17.64 17.64 0 0 1 -2.72-3.54 17.08 17.08 0 0 1 -2.29-8.55 17.08 17.08 0 0 1 2.29-8.56 17.62 17.62 0 0 1 2.72-3.54 17.06 17.06 0 0 1 7.67-4.43 17.17 17.17 0 0 1 8.85 0z" fill-rule="evenodd"/><path d="m129.5 30c-.12 0-.24 0-.36.06a23 23 0 0 1 -2.31.48 27.47 27.47 0 0 1 -6.28.13 23.49 23.49 0 0 1 -6.87-1.67c-.85-.3-1.58-.45-2.53-.79a13.87 13.87 0 0 0 -1.93-.5 6.79 6.79 0 0 0 -1.12-.08 15.22 15.22 0 0 0 1.68-1 9 9 0 0 0 2-1.6 11 11 0 0 0 .78-.89.75.75 0 0 0 .14-.66.92.92 0 0 0 -.44-.47 1.2 1.2 0 0 0 -1 0c-.35.17-.31.48-.56.69a7.36 7.36 0 0 1 -1.43.53c.28-.3.51-.51.83-.89a11.07 11.07 0 0 0 .89-1.13c.32-.45.56-.79.25-1.05.63-.31 1.69-.79 2.34-1s1.1-.44 1.72-.66l.64-.22a13.91 13.91 0 0 0 -2 3.28 8.79 8.79 0 0 0 -.84 4.44 1.25 1.25 0 0 0 .61.78.65.65 0 0 0 .66 0 1.23 1.23 0 0 0 .37-.44l.09.1a.49.49 0 0 0 .39.09l1.18-.22a.24.24 0 0 1 .19.1 7.14 7.14 0 0 0 .7 1.11.94.94 0 0 0 .5.34.45.45 0 0 0 .53-.24 3.35 3.35 0 0 0 .38-1.39c0-.32-.09-.66-.08-1s0-.4 0-.61c0-.46 0-.92 0-1.39a11.34 11.34 0 0 1 .17-1.54 1.2 1.2 0 0 0 0-.75 2 2 0 0 0 -.34-.53 2.59 2.59 0 0 0 -.64-.49 1.06 1.06 0 0 0 -1.18 0 4.78 4.78 0 0 1 -1 .59.89.89 0 0 1 -.36.11 5.52 5.52 0 0 1 1.08-1.32 14 14 0 0 1 2.32-1.55c.44-.25 1.77-.48 2.24-.68a.61.61 0 0 0 0-1.14c-.45-.21-1.19-.31-1.66-.48a1.33 1.33 0 0 0 -1.2.07c-.73.54-2.4 1.67-2.38 1.46a2.38 2.38 0 0 1 .79-1.44 10.25 10.25 0 0 0 1.63-1.54c.31-.34.26-.3.4-.44a1.8 1.8 0 0 0 .28-.31 10.79 10.79 0 0 0 1.12-.94c.18-.14 0-.63.06-.73s-.31-.35-.91-.38a1.54 1.54 0 0 0 -1 .4 7.27 7.27 0 0 0 -1 1.57 2.93 2.93 0 0 1 -.6 1.31c-.12.12-.16.49-.39.35a2 2 0 0 1 0-.68c0-.33 0-.71 0-1a3.31 3.31 0 0 1 .05-.74 1.21 1.21 0 0 0 0-.8c-.06-.21-.57-.42-.78-.56a4.17 4.17 0 0 0 -.62-.26c-.21-.06-.49 0-.56 0s-.12.47-.12.47a1.51 1.51 0 0 1 .5 1 11.05 11.05 0 0 1 -.14 2.17 20.77 20.77 0 0 1 -.41 2.11 4.57 4.57 0 0 1 -.22 1.18c-.14.06-.23.26-.37.32-.62.28-.66.42-1.37.74-1 .43-1.36.58-2.43 1.05 0-.36-.12-2.09-.11-2.42 1.11-.81 1.74-1.27 2.78-2.17a.51.51 0 0 0 .12-.46c0-.19-.25-.34-.3-.46-.27-.62-.48-.61-1-1a6.7 6.7 0 0 1 -1-1c-.24-.29-.58-.68-.82-1a2.4 2.4 0 0 1 0-.39v-.42c0-.78 0-.94.23-1.11s-.11-.51-.58-.69a.72.72 0 0 0 -.7.09 1.33 1.33 0 0 0 -.57.8 1.23 1.23 0 0 0 0 .76 1.51 1.51 0 0 1 .2.54c0 .54.09.76.13 1.31a25.59 25.59 0 0 1 .11 3 15 15 0 0 1 -4 1.95 1.32 1.32 0 0 1 -.76 0l-.33-.07a1 1 0 0 1 -.23-.07s0 0 0 0 .08.13.14.21c.35.54.59.51 1.11.8a5.79 5.79 0 0 0 1.61.76 3 3 0 0 0 1.87-.18c.21-.12.6-.41.81-.52 0 .32.08 2 .07 2.27-.4.27-.94.55-1.37.78a21.67 21.67 0 0 1 -2 1 .36.36 0 0 1 -.51-.18 1.39 1.39 0 0 1 0-.61c0-.08 0-.19.05-.28s0 0-.05 0l-.2.19a3.26 3.26 0 0 0 -.55.93.44.44 0 0 0 .18.53 1.7 1.7 0 0 0 1.07.38c.29 0 .64.06.92.07a1.16 1.16 0 0 0 .78-.29c1-.75 2-1.38 2.9-2a7.1 7.1 0 0 1 -1.09 1.88 4.6 4.6 0 0 1 -.92.89 2.13 2.13 0 0 1 -.42.23 1.52 1.52 0 0 0 -.46.18.41.41 0 0 0 -.15.55 2 2 0 0 0 .27.31.6.6 0 0 0 .7.12c.27-.25.57-.25.9-.39l.8-.24a4.25 4.25 0 0 1 -1 .92l-.73.5a5.31 5.31 0 0 1 -1.09.61 2.23 2.23 0 0 1 -.81-.1 4.42 4.42 0 0 0 -1-.15.58.58 0 0 0 -.62.43 1.67 1.67 0 0 0 -.11 1.36c.15.25.21.45.53.52a1 1 0 0 0 .69-.08 4 4 0 0 1 1.64-.47 4.82 4.82 0 0 1 1.2 0 12.8 12.8 0 0 1 1.73.31 9.1 9.1 0 0 1 1.33.46c.35.15 2.06.83 2.41 1 2 1 2.75 1.31 3.88 1.82 1 .43 3.61 1.53 5.24.81s3-.61 5.52-2.07a2.94 2.94 0 0 0 1.36-.79l.22-.37c.01-.12.09-.12-.1-.12zm-12.24-3.82a1.71 1.71 0 0 1 -.06.35 2.92 2.92 0 0 0 -.55-.34.5.5 0 0 0 -.34 0l-.41.12a7.49 7.49 0 0 1 -.81.23.49.49 0 0 1 -.27 0 .2.2 0 0 0 -.13 0 .79.79 0 0 1 -.08-.16 2.57 2.57 0 0 1 0-.48 4.1 4.1 0 0 0 0-.49 3.2 3.2 0 0 1 -.1-.39c0-.37 0-.73.09-1.09l.08.12a1.39 1.39 0 0 0 .72.59 4 4 0 0 0 .41.14c.13 0 .3 0 .3.17a.2.2 0 0 1 -.08.17.57.57 0 0 1 -.27.16s0 0 0 0a2.25 2.25 0 0 0 .35-.09l.27-.06.29-.09a1.23 1.23 0 0 0 .34 0 .77.77 0 0 0 .27-.07 9.4 9.4 0 0 1 -.02 1.22zm-1.86-4.05a1.81 1.81 0 0 0 .5.2 1.24 1.24 0 0 0 .66 0 2.14 2.14 0 0 1 .56-.11c.2 0 .28.14.28.33v1.53a1.67 1.67 0 0 0 -.28-.18 3.17 3.17 0 0 0 -1.25-.32.87.87 0 0 0 -.59.11 1.21 1.21 0 0 1 -.52.22h-.15a6.62 6.62 0 0 1 .4-1.62c.05-.13.11-.25.17-.38a.49.49 0 0 0 .22.23zm-6.15-7.28c0-.35 0-1.35 0-1.7a10.31 10.31 0 0 0 .79 1.38.83.83 0 0 1 .21.5.32.32 0 0 1 -.19.3 4.08 4.08 0 0 1 -.74.33 7.46 7.46 0 0 1 -.07-.8z"/><path d="m120.9 15.74a1.94 1.94 0 0 0 1.51.46 4.14 4.14 0 0 0 1.65-.67 8.43 8.43 0 0 1 0 1.23.5.5 0 0 1 0 .16 3.92 3.92 0 0 1 -1-.21l-.39-.16s0 0 0 0 .19.2.29.29.58.55.8.75a4.64 4.64 0 0 0 -.67 1.1c-.37.76-.67 1.48-1 2.27s-.53 1.33-.79 2a25.9 25.9 0 0 0 -.93 2.78 1.92 1.92 0 0 0 -.14.62 1.4 1.4 0 0 0 .23.82c.09.15.18.26.26.41a.33.33 0 0 0 .16.28c.12.1.61.13.72-.2a13.43 13.43 0 0 0 .47-1.76 31.32 31.32 0 0 1 .83-3.27.71.71 0 0 0 .69.05 2 2 0 0 0 .43-.29.27.27 0 0 1 .08-.07.46.46 0 0 1 .07.07.4.4 0 0 1 0 .35 2.81 2.81 0 0 1 -.54.91 3.51 3.51 0 0 1 -.47.55 2.5 2.5 0 0 0 -.46.46.3.3 0 0 0 .08.41 1 1 0 0 0 .34.07 1.09 1.09 0 0 1 .25 0 .8.8 0 0 1 .37.46.69.69 0 0 1 -.16.49 1.26 1.26 0 0 1 -.36.27 4 4 0 0 0 -.35.2s0 0 0 0l.42-.08c.29-.05.53.06.79 0a2 2 0 0 0 1.08-.74.93.93 0 0 0 -.17-.93 1.45 1.45 0 0 0 -.75-.45 1.66 1.66 0 0 0 -1 .15 7.41 7.41 0 0 0 1.46-1.38 2.11 2.11 0 0 0 .39-1.31 1.13 1.13 0 0 0 -.57-.9c-.28-.14-.62.08-.84.25a3.25 3.25 0 0 1 -.67.34c.08-.24.16-.5.25-.73a2.21 2.21 0 0 1 .48-.7 2.45 2.45 0 0 1 .41-.31 2.08 2.08 0 0 1 1-.35c.23 0 .25.34.26.53 0 1.15.05 2.3.06 3.46a33.23 33.23 0 0 1 -.17 3.86 2.45 2.45 0 0 1 -1.54 1.83 1.37 1.37 0 0 1 -1.1 0 1.08 1.08 0 0 1 -.59-.56c0-.05-.05-.06-.07-.09s0-.06 0-.14a0 0 0 0 0 -.05 0 .91.91 0 0 0 0 .17 1 1 0 0 0 0 .22 1 1 0 0 0 .2.4 2.07 2.07 0 0 0 1.59.78 2.75 2.75 0 0 0 1.7-.36c.55-.35 1.23-.87 1.31-1.56a27.08 27.08 0 0 0 .27-2.83 33.8 33.8 0 0 0 -.11-5.6 1.42 1.42 0 0 0 -.93-1.11 1.8 1.8 0 0 0 -1.21 0 3.66 3.66 0 0 0 -.67.41 8.1 8.1 0 0 0 -1.51 1.61c.25-.55.62-1.24.88-1.69a5.76 5.76 0 0 1 .85-.88c.7 0 .7-.48.72-.85.39-.48.88-1.05 1.29-1.52a18.59 18.59 0 0 0 1.67-1.69 2.91 2.91 0 0 0 .27-.47c.11-.27-.22-.66-.4-.8a1.87 1.87 0 0 0 -.75-.43.65.65 0 0 0 -.6.11 1 1 0 0 0 -.21.35 2.14 2.14 0 0 1 -.09.27 4.65 4.65 0 0 1 -1.17 1.15c0-.71 0-1.43 0-2.15a2.47 2.47 0 0 1 .13-.85.84.84 0 0 0 0-.88c-.08-.08-.18-.14-.26-.22s-.18-.26-.34-.38a5.62 5.62 0 0 1 -.64-.48l-.19-.18v.27a1 1 0 0 0 .06.34 3.88 3.88 0 0 1 0 .68 17.35 17.35 0 0 0 .13 1.77 10.06 10.06 0 0 1 .19 1.63v.89a2.73 2.73 0 0 1 -1.43.37 3 3 0 0 1 -2-.77 1 1 0 0 1 -.34-.55c0-.17-.09-.32-.13-.5s-.06-.08-.07 0 0 .33 0 .51a4.71 4.71 0 0 0 0 .84 2.19 2.19 0 0 0 .74 1.4zm4.16-.63a9.44 9.44 0 0 0 1.16-1.56c0-.07 0 0 0 0a6.33 6.33 0 0 1 -1.22 2.65c0-.2.05-.88.06-1.09z"/><path d="m81.94 61.35-2.78.65 2.18 8.76-2.07.51-2.18-8.76-2.77.69-.46-1.85 7.62-1.89z"/><path d="m94.55 68.24-2.19.38-1-1.8-3.82.66-.32 2-2.2.38 2-11.45 1.65-.28zm-4-3.09-2-3.69-.68 4.15z"/><path d="m98.5 67.83-2.12.24-1.28-10.85 2.12-.22z"/><path d="m109 63.64a4.11 4.11 0 0 1 -1.16 2.61 4.29 4.29 0 0 1 -5.65.09 3.58 3.58 0 0 1 -1.07-1.82 15.64 15.64 0 0 1 -.29-2.46 16.1 16.1 0 0 1 0-2.48 3.4 3.4 0 0 1 .83-1.94 4 4 0 0 1 2.86-1.39 4 4 0 0 1 2.75.74 4.18 4.18 0 0 1 1.49 2.45l-2.16.14a1.77 1.77 0 0 0 -1.94-1.43 1.74 1.74 0 0 0 -1.44.82 6.2 6.2 0 0 0 -.23 3l.07 1a4.39 4.39 0 0 0 .07.61c.22 1.36.89 2 2 1.93a1.77 1.77 0 0 0 1.74-1.66z"/><path d="m119.4 67h-2.14v-4.56h-3.7v4.56h-2.13l.1-10.93h2.13v4.47h3.7v-4.46h2.13z"/><path d="m130.52 64.06a3.62 3.62 0 0 1 -1.37 2.67 4.07 4.07 0 0 1 -3 .82 4 4 0 0 1 -2.76-1.28 3.64 3.64 0 0 1 -.93-2.88l.59-7.16 2.13.18-.59 7.08a2.11 2.11 0 0 0 .41 1.51 1.79 1.79 0 0 0 1.34.66 1.81 1.81 0 0 0 1.45-.43 2.1 2.1 0 0 0 .61-1.41l.59-7.09 2.11.18z"/><path d="m141.25 69.45-1.87-.3-3.22-7.3-1.06 6.61-2.1-.34 1.74-10.79 1.88.3 3.21 7.3 1.06-6.61 2.11.34z"/><path d="m152.76 67.54a5 5 0 0 1 -1.74 3 3.88 3.88 0 0 1 -3.35.51 4 4 0 0 1 -2.58-1.86 3.56 3.56 0 0 1 -.48-2.06 16 16 0 0 1 .47-2.43 16 16 0 0 1 .7-2.38 3.42 3.42 0 0 1 1.38-1.6 4 4 0 0 1 3.15-.47 3.91 3.91 0 0 1 3.17 4.38l-2.1-.51a1.85 1.85 0 0 0 -1.55-2c-1.05-.26-1.82.26-2.3 1.55l-.38 1.55c-.19.76-.32 1.28-.37 1.57-.21 1.35.24 2.16 1.34 2.43a1.94 1.94 0 0 0 1.57-.2 2.11 2.11 0 0 0 .87-1.34l.1-.4-1.95-.48.42-1.73 4 1z"/><path d="m46.45 96.82a5 5 0 0 1 .9 3.31 3.86 3.86 0 0 1 -2 2.76 4 4 0 0 1 -3.13.54 3.49 3.49 0 0 1 -1.81-1.09 15.62 15.62 0 0 1 -1.42-2 16.25 16.25 0 0 1 -1.2-2.16 3.47 3.47 0 0 1 -.2-2.11 4.06 4.06 0 0 1 1.87-2.58 3.92 3.92 0 0 1 5.35.78l-1.81 1.12a1.87 1.87 0 0 0 -2.53-.31c-.92.58-1.08 1.49-.5 2.74l.85 1.36c.41.66.69 1.11.87 1.35.82 1.1 1.71 1.34 2.67.74a1.92 1.92 0 0 0 1-1.26 2.12 2.12 0 0 0 -.36-1.56l-.22-.35-1.71 1.06-.94-1.51 3.5-2.19z"/><path d="m56.83 93.17a3.59 3.59 0 0 1 0 3 4.09 4.09 0 0 1 -2.26 2.07 4 4 0 0 1 -3 .12 3.62 3.62 0 0 1 -2.14-2.14l-2.73-6.64 2-.81 2.7 6.57a2.07 2.07 0 0 0 1 1.16 1.79 1.79 0 0 0 1.5 0 1.81 1.81 0 0 0 1.09-1 2.14 2.14 0 0 0 -.1-1.54l-2.7-6.57 2-.81z"/><path d="m69 93.42-2.14.63-1.16-1.68-3.73 1.09-.09 2-2.14.63.75-11.61 1.61-.47zm-4.4-2.61-2.4-3.45-.2 4.21z"/><path d="m78.85 91.34-1.85.39-5.61-5.73 1.36 6.57-2.09.43-2.22-10.7 1.86-.3 5.6 5.67-1.36-6.55 2.09-.43z"/><path d="m88.89 85.33a5 5 0 0 1 -.53 3.39 3.84 3.84 0 0 1 -2.92 1.71 4 4 0 0 1 -3.09-.77 3.59 3.59 0 0 1 -1.2-1.74 15.22 15.22 0 0 1 -.47-2.43 15.74 15.74 0 0 1 -.22-2.49 3.44 3.44 0 0 1 .68-2 4 4 0 0 1 2.76-1.59 4.12 4.12 0 0 1 2.86.52 4.19 4.19 0 0 1 1.71 2.37l-2.15.3a1.85 1.85 0 0 0 -2.18-1.3c-1.07.15-1.6.91-1.57 2.29l.22 1.58c.1.78.18 1.31.24 1.6.31 1.33 1 1.92 2.14 1.76a1.92 1.92 0 0 0 1.38-.77 2.08 2.08 0 0 0 .33-1.56l-.06-.41-2 .28-.25-1.77 4.09-.57z"/><path d="m98.35 79.88-2.84.26.79 9-2.12.19-.8-9-2.84.26-.17-1.9 7.81-.69z"/><path d="m103.55 88.65-2.13.11-.59-10.91 2.13-.12z"/><path d="m115 88.34h-2.22l-.68-1.92-3.88.07-.63 2h-2.22l3.77-11h1.68zm-3.5-3.67-1.41-4-1.31 4z"/><path d="m125.25 88.62-1.9-.05-4.12-6.84-.21 6.7-2.13-.06.33-10.93 1.9.06 4.13 6.82.2-6.69 2.13.07z"/><path d="m140.29 80.84-2.84-.29-.9 9-2.13-.21.9-9-2.84-.28.19-1.9 7.81.78z"/><path d="m148.71 91.18-7.12-1.08 1.64-10.8 7.12 1.07-.29 1.89-5-.76-.39 2.5 4.27.65-.29 1.88-4.26-.65-.4 2.63 5 .76z"/><path d="m160.86 93.75-2.08-.46 1.39-6.22-2.94 3.59-1.41-.32-1.15-4.5-1.39 6.22-2.08-.47 2.38-10.66 2 .45 1.5 6.4 4.06-5.15 2.06.46z"/><path d="m173.45 89.8a3.15 3.15 0 0 1 -1.74 2 3.68 3.68 0 0 1 -2.74.11l-2-.65-1.26 3.92-2-.65 3.29-10.38 4 1.3a3.68 3.68 0 0 1 2.17 1.68 3.2 3.2 0 0 1 .28 2.67zm-2-.65a1.45 1.45 0 0 0 -.08-1.18 1.61 1.61 0 0 0 -1-.74l-1.9-.61-.92 2.86 1.9.61a1.62 1.62 0 0 0 1.21 0 1.46 1.46 0 0 0 .76-.94z"/><path d="m179.6 100.62-6.48-2.88 4.44-10 1.95.87-3.66 8.25 4.53 2z"/><path d="m187.31 105.5-6-4 6-9.12 6 4-1.02 1.62-4.22-2.8-1.42 2.14 3.6 2.38-1.05 1.59-3.6-2.38-1.47 2.21 4.23 2.8z"/><g fill-rule="evenodd"><path d="m113.65 112c.57-.16 1.82-.82 1.4-1.54s-2.69-2.42-3.29-1.24a.67.67 0 0 0 .3.71c.43.31-.52.55-1 .69a15 15 0 0 1 -2.65.8c-.24-.1.63-.53 1-1s1.92-2 1.93-2.53 0-1.76-.76-2.09-.89-.22-.89-.22-.28.36-.17.65-3.11 4.7-4 5.57.32 2.34.84 2.3 5.86-2.73 5.38-2a11.42 11.42 0 0 1 -3.49 2.79 2.07 2.07 0 0 0 -1 2.47c.15.46 1.17 1.77 1.43 1.7a1.47 1.47 0 0 0 .91-.36c.26-.3 1.52 0 1.72.12a6 6 0 0 0 2.34-.12c.27-.23.52-1.37-.11-1.43s-.85-.08-.76-.26a7.2 7.2 0 0 1 1-1.27c.21-.12.79-.66.17-1.08a2.63 2.63 0 0 0 -1.62-.39 10.42 10.42 0 0 1 -1.78.08 13.66 13.66 0 0 1 3.1-2.35zm-2.88 3.69c-1.39.87-1.18 1.35-1.52 1.34s-.28-1.11-.28-1.21 0-.3 0-.3a7.67 7.67 0 0 1 1.8.17z"/><path d="m127.51 107.51a2.5 2.5 0 0 0 -1.44-.11 7.36 7.36 0 0 0 -1.38.41c-.09.12-.27 0-.28-.22s0-2-.06-2-.12-.5-1-.38a1 1 0 0 0 -.37.26c-.14.16-.35.38-.38.43s-.29.44 0 .44.39-.1.47.52a.34.34 0 0 1 .13.2c0 .11-.11.61 0 .78s.37.55-.7.9a4.17 4.17 0 0 0 -2 1.36.74.74 0 0 1 -.66 0c-.41-.14-.54 0-.54 0s-.32-.25-.44-.11-.35.27 0 1 .63 1.8 2.15 2.12a1.41 1.41 0 0 1 .23.26 1.36 1.36 0 0 0 .94.28c.16-.09.94-.81 1.17-.6s0 0 0 0a2.46 2.46 0 0 1 .08.67c0 .17-.13.5 0 .56s0 .58-.06.64a13.69 13.69 0 0 0 .12 2.56c.15.28.14 1.12.34 1.31s-.27.51-.34.55.14.32.28.1.26-.51.36-.5a2 2 0 0 0 .46-1.33c0-.66.06-2.23 0-2.67s.17-1.24.1-1.82 0-.87.5-1a1.12 1.12 0 0 0 .62-.19c.12 0 .5 0 .62-.44s-.43-.9-.88-1 .12-.43.12-.43a2.93 2.93 0 0 1 .71-.35 3.31 3.31 0 0 0 .88-.53 4.64 4.64 0 0 0 .86-.71.85.85 0 0 0 -.61-.96zm-4.6 3.6c-.46.28-.91.7-1.15.65s-.82-1.2-.82-1.2a6.28 6.28 0 0 0 .7-.14 1.79 1.79 0 0 1 .56-.07 4.47 4.47 0 0 0 1-.17.84.84 0 0 1 -.29.93z"/><path d="m152.53 166.88c-.27-1.44-6.06-4.3-10.3-5.12a28 28 0 0 1 -10.11-4.06c-3.43-2-10.64-7.84-11-9.1s7.1-5.09 8.37-4.95a22.7 22.7 0 0 0 5.41-.29c1-.31.91-1.66.42-2.34s-3.34-1.69-7-1.74-4.58-1.17-5.16-1.45-1-1-.43-1.09a11 11 0 0 0 3-2.2c.4-.44 1.63-1.6 1.63-1.6 2.71-1.28 3.84-3.29 3.55-4.56s-2.54-2-4.78-2.35-5.91 1.47-6.72 1.94a52.26 52.26 0 0 1 -6.64 3.52 1.7 1.7 0 0 0 -1.43 1.8c0 .62 1 1.13 1.16 1.41s1 .29 2.84.87 1.47 3.67 1.47 3.67a14 14 0 0 1 -.59 3.83c-.57 1.59-3.75 2.73-8.59 4.58s-2.73 2.86-1.92 3.42 5 2.33 6.68 3.23.76 2.15.11 2.62-2.36 3.3-3.52 5.07-2.71 2.43-5.76 3.79-1.23 2.55-.38 2.84 4.79-.79 8.93-2.84 5-8.08 5-8.85 1.74-4.4 2.33-4.4 5.95 8.2 5.95 8.2 8.54 9.52 17.23 10.11 10.52-2.51 10.25-3.96zm-30-26.27c.25-.34.92-1.46.92-1.46l.29-.16c.29-.16.15.25.24.58s.63 0 .63.48-.3.33-1 .69-1.31.26-1.06-.13z"/></g><path d="m94.31 142.66c-.52-1.87-3.21-2.86-4.1-3.07a2.89 2.89 0 0 0 -.45 0 22.22 22.22 0 0 0 -4.67 1.06l-1.86.53-.4.09a5 5 0 0 0 .41-.72 1.07 1.07 0 0 0 0-.9 12.48 12.48 0 0 1 1.82-.89c.84-.36 1.93-.94 1.74-1.85-.25-1.23-2.8-1.48-3.29-1.48-.3 0-.42-.2-.71-1a5.52 5.52 0 0 0 -1.19-2.06 1.26 1.26 0 0 0 -.32-.26 5.64 5.64 0 0 1 2.17-.46 3.13 3.13 0 0 1 1.18.2 2.94 2.94 0 0 0 1.12.21c1.39 0 2.78-.84 3-1.79.06-.3.06-1.06-1.11-1.51a9.48 9.48 0 0 0 -3.48-.81 7.65 7.65 0 0 0 -4.77 1.92c-.39.31-.67.51-.88.65a2.16 2.16 0 0 0 -.14-1.87c-.08-.09-.19-.26-.34-.46-1.12-1.57-3.75-5.23-7.21-5.23a5.08 5.08 0 0 0 -2.28.56l-.23.11v.25a4.48 4.48 0 0 0 1.18 3.72c.82.82 1.67 2.07 1.1 3.41-.06.13-.11.27-.16.4-.42 1-.85 2.11-3.24 3.41a22.3 22.3 0 0 1 -7.61 2.26h-.24a.59.59 0 0 0 -.11-.39.59.59 0 0 0 -.51-.26c-.77 0-3 1.72-3.05 2.91 0 .32.14 1 1.49 1.09h.24a17.27 17.27 0 0 0 4.43-.76 9.15 9.15 0 0 1 1.91-.4.63.63 0 0 1 .2 0 1.26 1.26 0 0 1 .57.75c0 .29-.12.86-1 1.91l-.27.34c-1.58 1.88-1.87 2.32-2.68 6.79-2 11.07-6.2 18.91-12.46 23.29l-2.49 1.65 2.78-.75c.88-.24 8.62-2.41 10-5.2 1-2.05 3.79-11.81 5.65-18.27.58-2 1-3.62 1.27-4.39l.18-.58c.21-.67.4-1.31.58-1.91a3.62 3.62 0 0 0 2.28 1.66 1.34 1.34 0 0 1 .64.29c0 .07-.23.4-1.26.91-1.79.88-2.94 3.06-2.81 3.6a.52.52 0 0 0 .51.41.72.72 0 0 0 .58-.4 6.76 6.76 0 0 1 2.58-1.22c.74-.26 1.57-.55 2.35-.9a7.7 7.7 0 0 1 1.77-.71 1.55 1.55 0 0 1 .35.08l.25.07a.7.7 0 0 1 -.07.34 1.5 1.5 0 0 1 -.66.75l-.59.22a6.36 6.36 0 0 0 -2.49 1.26 2.81 2.81 0 0 1 -1.83.6h-.39a2.58 2.58 0 0 0 -1.89 1.06c-.69 1.09-.25 2.59.07 3.68a6 6 0 0 1 .21.87c.07 1.3 3.13 4.75 4.76 6.27-.45.27-1.21.71-2.3 1.29-.46.24-.93.46-1.38.68-1.64.78-2.93 1.4-3 2.45-.09.86-.35 3.5 1.49 4.66a6.63 6.63 0 0 0 3 1.19 1.36 1.36 0 0 0 1-.38 1.68 1.68 0 0 0 .4-1.25 16.91 16.91 0 0 0 -.33-2.46 5.36 5.36 0 0 1 -.17-2.28l.51-.68c.92-1.22 1.51-2 1.81-2.5a2.09 2.09 0 0 0 .79.15c1.62 0 3.11-1.86 4-3l.22-.26a2.77 2.77 0 0 1 .76-.74 2.21 2.21 0 0 1 0 .37 3.32 3.32 0 0 0 1.07 2.13c1.15 1.26 3 2.54 4.42 2.54h.31a.84.84 0 0 0 -.56.66c0 .65.76.77 1 .81 1 .16 3.41 2.28 4.54 4.76a2.91 2.91 0 0 0 2.81 1.83 4.66 4.66 0 0 0 2.77-.94 1.09 1.09 0 0 0 .3-.82c0-1.1-1-2.91-2.39-4.2-1.81-1.72-7.67-2.21-7.91-2.23h-.06a.53.53 0 0 0 -.16 0c2.27-1.21 6.36-12.36 6.4-12.48.6-1.72-4.3-6.42-4.35-6.46a2.56 2.56 0 0 0 -1.63-.39 14.35 14.35 0 0 0 -4.61.9 11.07 11.07 0 0 1 -1.19.4l.26-.14a15.38 15.38 0 0 1 7.57-1.65 27.23 27.23 0 0 1 3 .17 9.19 9.19 0 0 1 3.47 1.49 3.55 3.55 0 0 0 1.52.7h.08a.88.88 0 0 0 .63-.37c.29-.51.23-1.37-.22-3.03zm-21.85 10.65-.3.18c-.7.4-1.16.67-1.36 1.56a1.17 1.17 0 0 0 .23 1 1.67 1.67 0 0 0 1.28.57 1.77 1.77 0 0 0 1-.34 2 2 0 0 1 -.25.78 1 1 0 0 1 -.84.59 1.12 1.12 0 0 1 -.78-.4c-1.86-1.86-2.54-3.19-2-4 .5-.9 1.48-2.25 2.11-2.42a5.15 5.15 0 0 0 1-.41l.34-.16a.51.51 0 0 1 0 .13c.3 2.14-.15 2.75-.43 2.92zm.17-10.88s-.2-.15.05 0 6.32-1.43 7.22-1.65c-.08 0 0 .32-.1.4a66.36 66.36 0 0 0 -7 2.21 2 2 0 0 0 -.17-.96zm8.85 4.63a.27.27 0 0 1 .23.11c.12.12.48.71.26 2.67a22.72 22.72 0 0 1 -2.34 7.28 3 3 0 0 1 -.32.4 3.64 3.64 0 0 1 -.33-.34l-.1-.11a2.82 2.82 0 0 1 -.25-.3 1.17 1.17 0 0 0 -1.09-.57 11.88 11.88 0 0 0 -1.21.12h-.26a5.61 5.61 0 0 1 1-1.36 2.59 2.59 0 0 1 1-.73 9.34 9.34 0 0 0 1.05-.55 1.37 1.37 0 0 0 .77-1.54c-.23-.82-1.24-1.34-2.57-1.34-.24 0-.41 0-.45-.12-.12-.23.14-.93.46-1.41l.08-.12v-.15c0-.3 1.37-.85 2-1.11s1.07-.45 1.52-.69a1.12 1.12 0 0 1 .55-.14zm-15.33-8.91c.31-.7 2.61-2.64 4.16-2.64a1.07 1.07 0 0 1 .57.14 9.89 9.89 0 0 0 4.79 1.59 2.75 2.75 0 0 0 3-2.25 3.68 3.68 0 0 1 .68-1.47c-.13.49-.22 1-.32 1.58-.06.33-.12.65-.18.92-.26 1.18-2 1.81-4.11 2.54l-.65.23a3.82 3.82 0 0 1 -1.21.26c-.64 0-.89-.34-1.41-1.11a7.76 7.76 0 0 0 -.54-.76 1.13 1.13 0 0 0 -.84-.54c-.83 0-.91 1.08-1 2.71 0 .64-.09 1.3-.19 1.91-.14.91-.58 1-.94 1a2.18 2.18 0 0 1 -.78-.17h-.18a1.77 1.77 0 0 0 -.3 0 .74.74 0 0 0 -.48.16c.55-2.03.78-3.52-.07-4.1z"/><path d="m154.7 136.73s-5 3.86-5.31 4.59-2.11 1-1.71 2.5.81 4.15 2.1 5.54 2.28 2 3.19 1.08 2.49-7.56 2.81-8.81.73-3.43.48-3.74-.82-1.42-1.56-1.16z" fill-rule="evenodd"/><path d="m185.16 132.19c-2.73-.76-11 .34-11.57.33s-.64-.74-.64-.74c-2.49-6.69-4-7.35-5.29-7.86s-1.85 1.76-1.81 2.9.24 6.8-.27 7.61-3 1.36-3.88 1.52-2 1.94-1.58 2.15.48.38 1.17 1.14 2.78.38 2.78.38c1-1 5.45-2 5.94-2.12s1.76.26 1.13.62-3.51 2.43-3.94 2.79a19.39 19.39 0 0 1 -4.78 3.8c-3.27 1.93-2.41 3.28-2.4 5.81a6.16 6.16 0 0 0 2.95 4.84c.61.14.66-.26-.86 4.16s-.85 7.77-.06 9.51 4.35 2.49 5.06 2.09a11.67 11.67 0 0 0 1.87-1.26c.32-.3 7.68 0 8.26 0s2.82 1.08 4.08.12.84-2.92.33-3.53-.43-1.58-.16-1.58 1.9-1.24 3.5-3.66.28-4.29-1.41-5.85-5.92-1.25-8.18-1.25-7.29 1.89-7.29 1.89-1-.23 1.48-2.76a6 6 0 0 1 5.47-1.86c.6 0 1.95-1.43 2.18-2.33s-.58-.66-.93-1.5 2.25-1.38 3.46-3.44-.81-3.78-2.84-4.2-6.79.31-7.73.58.94-1.39 2.2-2a2.86 2.86 0 0 0 1.55-1.64s-.19.39-.94.48-.48-.3.63-1.64 5.92-2.29 6.48-2.19-.4.49-.84.66-2.2 1-1.82 1.09a10.83 10.83 0 0 0 1.95 0 16 16 0 0 1 5.31 0 3.36 3.36 0 0 0 3.72-.91c.47-.53.45-1.4-2.28-2.15zm-16.27 27.93s5.37.58 5.64 0 1.15-.76 1.15-.42-.46 2-.94 2.16-1.31 1.43-1.79 1.55-2.48.51-3.75.87-2 .48-3-1.54.62-5.49.62-5.49c.27-.63.31.32.31 1.54s1.76 1.33 1.76 1.33zm3.6-15a4.88 4.88 0 0 1 -2.81 2.73c-1.47.42-3.74 1.17-3.83 2s-.32 1.24-.63.77-.94-2.8-1.25-3.06.71-2.74 1.57-2.55a4.15 4.15 0 0 0 2 .18c.76-.28 5.13-.73 4.95-.08zm8.35-12c-.35 0-.33 0-.78.31s-.15-.61-.15-.61.54 0 .78 0 .5.36.15.31z" fill-rule="evenodd"/><path d="m185.83 132.77s-1.58 4.76-2.58 5.11c0 0 4.68-.86 4.41-3s-1.83-2.11-1.83-2.11z" fill-rule="evenodd"/></g></svg>