<?xml version="1.0" encoding="UTF-8"?>
<svg id="b" data-name="圖層 2" xmlns="http://www.w3.org/2000/svg" width="739.29" height="167.88" viewBox="0 0 739.29 167.88">
  <g id="c" data-name="圖層 1">
    <g>
      <path d="M345.17,167.13h393.74V14.15c-7.4,0-13.4-6-13.4-13.4H358.57c0,7.4-6,13.4-13.4,13.4V167.13Z" style="fill: #fc462d;"/>
      <path d="M345.17,167.13h393.74V14.15c-7.4,0-13.4-6-13.4-13.4H358.57c0,7.4-6,13.4-13.4,13.4V167.13Z" style="fill: none; stroke: #e8b356; stroke-miterlimit: 10; stroke-width: .75px;"/>
      <path d="M336.14,167.13h393.74V14.15c-7.4,0-13.4-6-13.4-13.4H349.54c0,7.4-6,13.4-13.4,13.4V167.13Z" style="fill: #fc462d;"/>
      <path d="M336.14,167.13h393.74V14.15c-7.4,0-13.4-6-13.4-13.4H349.54c0,7.4-6,13.4-13.4,13.4V167.13Z" style="fill: none; stroke: #e8b356; stroke-miterlimit: 10; stroke-width: .75px;"/>
      <path d="M327.12,167.13h393.74V14.15c-7.4,0-13.4-6-13.4-13.4H340.52c0,7.4-6,13.4-13.4,13.4V167.13Z" style="fill: #fc462d;"/>
      <path d="M327.12,167.13h393.74V14.15c-7.4,0-13.4-6-13.4-13.4H340.52c0,7.4-6,13.4-13.4,13.4V167.13Z" style="fill: none; stroke: #e8b356; stroke-miterlimit: 10; stroke-width: .75px;"/>
      <path d="M318.09,167.13h393.74V14.15c-7.4,0-13.4-6-13.4-13.4H331.49c0,7.4-6,13.4-13.4,13.4V167.13Z" style="fill: #fc462d;"/>
      <path d="M318.09,167.13h393.74V14.15c-7.4,0-13.4-6-13.4-13.4H331.49c0,7.4-6,13.4-13.4,13.4V167.13Z" style="fill: none; stroke: #e8b356; stroke-miterlimit: 10; stroke-width: .75px;"/>
      <path d="M309.07,167.13h393.74V14.15c-7.4,0-13.4-6-13.4-13.4H322.46c0,7.4-6,13.4-13.4,13.4V167.13Z" style="fill: #fc462d;"/>
      <path d="M309.07,167.13h393.74V14.15c-7.4,0-13.4-6-13.4-13.4H322.46c0,7.4-6,13.4-13.4,13.4V167.13Z" style="fill: none; stroke: #e8b356; stroke-miterlimit: 10; stroke-width: .75px;"/>
      <path d="M300.04,167.13h393.74V14.15c-7.4,0-13.4-6-13.4-13.4H313.44c0,7.4-6,13.4-13.4,13.4V167.13Z" style="fill: #fc462d;"/>
      <path d="M300.04,167.13h393.74V14.15c-7.4,0-13.4-6-13.4-13.4H313.44c0,7.4-6,13.4-13.4,13.4V167.13Z" style="fill: none; stroke: #e8b356; stroke-miterlimit: 10; stroke-width: .75px;"/>
      <path d="M.75,167.13H684.32V14.15c-7.4,0-13.4-6-13.4-13.4H14.15c0,7.4-6,13.4-13.4,13.4V167.13Z" style="fill: #fffbf3;"/>
      <path d="M.75,167.13H684.32V14.15c-7.4,0-13.4-6-13.4-13.4H14.15c0,7.4-6,13.4-13.4,13.4V167.13Z" style="fill: none; stroke: #f4cfb0; stroke-miterlimit: 10; stroke-width: .75px;"/>
      <path d="M.75,167.13H684.32V14.15c-7.4,0-13.4-6-13.4-13.4H14.15c0,7.4-6,13.4-13.4,13.4V167.13Z" style="fill: none; stroke: #f4cfb0; stroke-miterlimit: 10; stroke-width: 1.5px;"/>
    </g>
  </g>
</svg>