<?xml version="1.0" encoding="UTF-8"?>
<svg id="b" data-name="圖層 2" xmlns="http://www.w3.org/2000/svg" width="223" height="237.86" xmlns:xlink="http://www.w3.org/1999/xlink" viewBox="0 0 223 237.86">
  <defs>
    <clipPath id="d">
      <rect width="223" height="237.86" style="fill: none;"/>
    </clipPath>
  </defs>
  <g id="c" data-name="圖層 2">
    <g style="clip-path: url(#d);">
      <g>
        <path d="M84.84,99.03s-3.16,.42-5.14,5.97c-1.97,5.55-.6,8.36,0,11.52,.6,3.16,.18,5.25,2.63,8s4.32,2.28,4.32,2.28c0,0-1.93-3.66-2.11-11-.18-7.34,.96-7.28,.84-10.51-.12-3.22-.54-6.27-.54-6.27Z" style="fill: #e8b356;"/>
        <path d="M129.51,99.03s3.16,.42,5.14,5.97c1.97,5.55,.6,8.36,0,11.52-.6,3.16-.18,5.25-2.63,8-2.45,2.75-4.32,2.28-4.32,2.28,0,0,1.93-3.66,2.11-11,.18-7.34-.96-7.28-.84-10.51,.12-3.22,.54-6.27,.54-6.27Z" style="fill: #e8b356;"/>
        <path d="M102.72,71.85c-.38,.38-.6,.92-.6,1.5,0,.31,.06,.63,.16,.94-.87,.42-1.43,1.16-1.43,2.05s.55,1.63,1.42,2.05c-.32,.91-.18,1.83,.44,2.45,.01,.01,.02,.02,.04,.04-3.89,.14-8.72,.64-11.05,2.15-4.24,2.75-6.57,6.93-6.42,15.02,0,0-2.33-14.27-2.21-21.02,.12-6.75-1.19-11.7,3.58-12.9,4.78-1.19,5.14,.72,6.45,1.02,1.31,.3,2.51,.12,3.94,1.19,1.43,1.07,2.69,.84,3.88,2.03,.9,.9,1.63,2.3,2.44,3.04-.24,.1-.47,.25-.65,.44Z" style="fill: #e8b356;"/>
        <path d="M131.6,77.02c.12,6.75-2.21,21.02-2.21,21.02,.15-8.09-2.18-12.27-6.42-15.02-2.37-1.54-7.35-2.03-11.28-2.16l.02-.02h.01c.62-.64,.75-1.55,.43-2.46,.87-.42,1.42-1.16,1.42-2.05s-.55-1.63-1.42-2.05c.32-.91,.18-1.83-.44-2.45-.15-.15-.31-.27-.5-.36,.85-.72,1.6-2.19,2.52-3.12,1.19-1.19,2.45-.96,3.88-2.03,1.43-1.07,2.63-.9,3.94-1.19,1.31-.3,1.67-2.21,6.45-1.02,4.78,1.19,3.46,6.15,3.58,12.9Z" style="fill: #e8b356;"/>
        <path d="M107,70.28c-1.54,0-2.17-.06-2.42-.1-.05-.08-.11-.18-.16-.26-.36-.61-.96-1.64-2.08-2.51-.7-.55-1.22-.94-1.56-1.2,.36-.95,1.46-2.91,4.46-3.03,.61-.02,1.18-.04,1.72-.04,3.42,0,5.53,.5,6.27,1.48,.43,.57,.61,1.04,.69,1.37-.56,.24-1.28,.77-1.94,1.9-.12,.21-.24,.41-.35,.6-.44,.76-.98,1.7-1.24,1.78-.11-.01-.28-.01-.55-.01-.29,0-.68,0-1.1,.01-.54,0-1.15,.01-1.74,.01Z" style="fill: #e8b356;"/>
        <path d="M102.78,141.64l-1.57,2.01c-.16,.2-.42,.27-.66,.18-1.11-.42-2.08-.58-2.71-.64-.17-.02-.35-.02-.54-.02-.63,0-2.87,.12-4.96,1.63-1.43,1.03-3.2,3.05-3.52,6.76-.11,1.29,0,2.54,.35,3.7-2.56-1.09-4.06-2.15-4.06-2.15-12.03,4.05-18.2-.22-21.8-4.69-3.6-4.47-5.66-11.77-1.13-14.57,4.53-2.79,24.45-4.31,24.45-4.31,2.98,3.06,5.78,5.45,10.54,6.88,.23,2.83,2.83,3.83,4.08,4.31,.12,.05,.24,.09,.35,.13,.5,.2,.94,.3,1.26,.37,.03,0,.05,.01,.08,.02-.03,.14-.1,.29-.16,.38Z" style="fill: #e8b356;"/>
        <path d="M155.36,143.45c-2.89,8.79-18.87,9.07-18.87,9.07,0,0-1.25,4.85-8.65,5.69-.9,.1-1.78,.12-2.62,.06,.21-1.08,.38-2.29,.49-3.64,.42-4.95-1.34-8.06-5.71-10.08-.94-.44-1.93-.66-2.94-.66-1.53,0-3.11,.52-4.57,1.5-1.2,.81-2.04,1.72-2.38,2.26-.08,.12-.16,.27-.27,.44-.28,.47-.7,1.19-1.19,1.75-.48,.56-.81,.71-.92,.71-.09,0-.45-.2-.92-1.08-1.37-2.53-3.12-4.04-4.76-4.96-.23-.13-.14-.48,.12-.48l1.85-.03c.05,0,.36,0,1.17-.08,1.05-.09,2.43-.63,3.37-1.31,.75-.54,1.67-1.15,2.52-1.64,.12-.06,.55-.2,.86-.29,.88-.27,1.97-.62,2.92-1.22,1.35-.87,1.83-1.94,1.93-2.84,7.7-2.53,11.87-7.91,11.87-7.91,5.31-.48,19.64-8.24,19.64-8.24,0,0,11.11,10.63,7.05,22.99Z" style="fill: #e8b356;"/>
        <path d="M149.81,119.45s7.76-5.67,7.88-22.21c0,0,4.6-4.96,13.14-1.79,8.54,3.16,15.52,16.12,13.67,30.09-1.85,13.97-11.46,29.44-25.74,33.02-14.27,3.58-26.45-.24-26.45-.24,0,0,3.88-.6,5.67-4.42,0,0,8.48-.06,13.38-3.4,4.9-3.34,7.88-6.99,6.69-14.69-1.19-7.7-5.61-13.43-8.24-16.36Z" style="fill: #e8b356;"/>
        <path d="M168.36,92.57s12.27,1.24,15.25,13.71c0,0,4.12-6.03,4.6-10.84,0,0-5.91-7.65-14.3-9.66l-5.55,6.8Z" style="fill: #e8b356;"/>
        <path d="M195.28,90.29c-4.61,2.81-5.39,3.03-5.39,3.03,0,0-5.56-7.41-15.73-9.03,0,0-1.64-3.05,.08-8.79,1.72-5.74,2-6.1,1.43-8.63-.56-2.53-.87-3.81-.87-3.81l.72-1.41s1.5-2.26,4.59-.29c3.09,1.97,1.98,9.06,2.72,11.08,.75,2.02,2.65,2.75,3.01,6.37,.36,3.63,.08,4.89,.08,4.89,0,0,.71,1.14,1.17-2.42,.47-3.56-1.48-5.3-2.08-6.79-.25-.61-.53-1.26-.76-2.03,.04,.02,.08,.04,.12,.06,1.16,.56,2.51,.3,3.38-.54-.12,1.21,.51,2.43,1.67,2.99s2.51,.3,3.38-.54c-.12,1.21,.51,2.43,1.67,2.99,1.16,.56,2.51,.3,3.38-.54-.12,1.21,.51,2.43,1.67,2.99,.93,.45,1.99,.37,2.82-.12-1.26,3.1-3.85,8.56-7.08,10.53Z" style="fill: #e8b356;"/>
        <path d="M184.99,71.29h0c-1.19-.58-1.68-2-1.11-3.19l3.65-7.52c.58-1.19,2-1.68,3.19-1.11h0c1.19,.58,1.68,2,1.11,3.19l-3.65,7.52c-.58,1.19-2,1.68-3.19,1.11Z" style="fill: #e8b356;"/>
        <path d="M190.04,73.74h0c-1.19-.58-1.68-2-1.11-3.19l3.65-7.52c.58-1.19,2-1.68,3.19-1.11h0c1.19,.58,1.68,2,1.11,3.19l-3.65,7.52c-.58,1.19-2,1.68-3.19,1.11Z" style="fill: #e8b356;"/>
        <path d="M195.09,76.19h0c-1.19-.58-1.68-2-1.11-3.19l3.65-7.52c.58-1.19,2-1.68,3.19-1.11h0c1.19,.58,1.68,2,1.11,3.19l-3.65,7.52c-.58,1.19-2,1.68-3.19,1.11Z" style="fill: #e8b356;"/>
        <path d="M200.14,78.64h0c-1.19-.58-1.68-2-1.11-3.19l3.65-7.52c.58-1.19,2-1.68,3.19-1.11h0c1.19,.58,1.68,2,1.11,3.19l-3.65,7.52c-.58,1.19-2,1.68-3.19,1.11Z" style="fill: #e8b356;"/>
        <path d="M83.56,164.43s5.57,1.22,8.38,2.86c0,0-2.28,7.64,2.39,12.73l-8.91,1.38s-4.83-7.64-1.86-16.98Z" style="fill: #e8b356;"/>
        <path d="M93.77,167.07s3.58-.84,3.1-4.36c-.48-3.52-1.73-5.67-1.55-6.27,.18-.6,2.57-1.55,5.08-.24,2.51,1.31,3.22,4,3.4,8.18,.18,4.18,.78,6.99,4.12,7.52s5.73-1.49,7.05-4.72c1.31-3.22,1.61-4.48,2.87-5.19,1.25-.72,2.87-.66,3.64,.6,0,0,.54,5.14-2.33,10.03-2.87,4.9-5.55,6.21-10.21,7.17-4.66,.96-10.09,.54-11.88,0l-1.13,.18s-4.12-5.08-2.15-12.9Z" style="fill: #e8b356;"/>
        <path d="M108.57,170.56c-.75,0-1.36-.15-1.82-.46-1.45-.97-1.56-3.27-1.39-5.03,.02-.18,.04-.35,.05-.52,.16-1.52,.26-2.52-.52-4.8-.72-2.12-2.01-3.9-3.72-5.14-.69-.5-1.79-.79-3.02-.79-1.07,0-2.06,.22-2.65,.6-1.28,.81-1.7,1.83-1.29,3.12,.2,.65,.44,1.58,.6,2.24-.53-.32-1.29-.85-2.02-1.6-1.74-1.8-2.51-3.98-2.3-6.48,.46-5.4,4.49-6.84,6.79-6.84,.14,0,.26,0,.38,.02,1.5,.14,5.24,.96,7.65,5.42,.7,1.3,1.51,1.96,2.41,1.96,1.61,0,2.88-2.14,3.56-3.29,.09-.16,.17-.29,.23-.38,.52-.8,2.79-2.99,5.54-2.99,.76,0,1.51,.17,2.23,.5,3.73,1.72,5.1,4.16,4.74,8.41-.27,3.23-.89,5.61-1.49,7.05-.1-.33-.27-.68-.54-.98-.53-.59-1.3-.89-2.31-.89-.18,0-.38,.01-.58,.03-3.15,.32-3.99,3.16-4.49,4.85-.11,.37-.2,.69-.3,.93-1.3,3.26-2.14,4.09-2.51,4.29-.59,.31-1.94,.78-3.23,.78Z" style="fill: #e8b356;"/>
        <path d="M87.26,188c-10.11,3.7-29.84,8.63-51.06-6.29-2.4-1.69-4.38-3.46-6-5.27-2.57-7.08-.14-14.31,1.32-17.64,.81,.84,1.79,1.75,2.95,2.67,2.25,1.79,4.68,3.21,7.24,4.24,3.2,1.28,6.61,1.93,10.11,1.93,.19,0,.38,0,.56,0,3.92-.08,8.09-.71,12.39-1.89,1.89-.52,3.8-1.14,5.73-1.86,5.37,2.45,9.77,2.88,9.77,2.88-.48,15.23,6.99,21.23,6.99,21.23Z" style="fill: #e8b356;"/>
        <path d="M149.42,161.39s.49,22.78-.37,25.49c-.86,2.71-17.69,9.77-24.59,11.7-10.08,2.82-26.38,2.01-35.99,.05-9.03-1.84-11.42-3.56-14.52-5.65,10.27-2.09,15.23-4.3,15.23-4.3l-1.91-4.66s6.51-2.21,10.33-2.93c4.3,1.37,13.81,2.05,19.76-3.28,6-5.38,5.78-10.72,6.03-13.55,.25-2.84,1.19-4.48,1.19-4.48,0,0,4.42,.18,6.51-.54,4.42,1.67,10.19,2.03,18.33,2.15Z" style="fill: #e8b356;"/>
        <path d="M126.73,200.45c-12.83,2.84-19.09,2.68-28.54,2.02-10.31-.72-22.45-5.26-26.27-8.84l-4.84-.6-.66,13.33s10.36,7.89,20.84,8.76c10.48,.86,28.83,2.06,37,.74,14.35-2.31,23.06-9.37,25.16-11.84v-13.94s-9.86,7.52-22.69,10.36Zm-55.3,5.19c-.92,0-1.66-.74-1.66-1.66s.74-1.66,1.66-1.66,1.66,.74,1.66,1.66-.74,1.66-1.66,1.66Zm10.49,4.24c-.92,0-1.66-.74-1.66-1.66s.74-1.66,1.66-1.66,1.66,.74,1.66,1.66-.74,1.66-1.66,1.66Zm10.49,2.18c-.92,0-1.66-.74-1.66-1.66s.74-1.66,1.66-1.66,1.66,.74,1.66,1.66-.74,1.66-1.66,1.66Zm10.49,1.14c-.92,0-1.66-.74-1.66-1.66s.74-1.66,1.66-1.66,1.66,.74,1.66,1.66-.74,1.66-1.66,1.66Zm10.49,0c-.92,0-1.66-.74-1.66-1.66s.74-1.66,1.66-1.66,1.66,.74,1.66,1.66-.74,1.66-1.66,1.66Zm10.49-.47c-.92,0-1.66-.74-1.66-1.66s.74-1.66,1.66-1.66,1.66,.74,1.66,1.66-.74,1.66-1.66,1.66Zm10.49-3.71c-.92,0-1.66-.74-1.66-1.66s.74-1.66,1.66-1.66,1.66,.74,1.66,1.66-.74,1.66-1.66,1.66Zm10.49-5.03c-.92,0-1.66-.74-1.66-1.66s.74-1.66,1.66-1.66,1.66,.74,1.66,1.66-.74,1.66-1.66,1.66Z" style="fill: #e8b356;"/>
        <path d="M183.27,271.18c-3.58-3.95-8.63-9.99-8.26-14.43,.37-4.44-2.34-12.7-8.39-19.61-6.04-6.91-7.52-9.37-8.26-12.46-.74-3.08-9.13-5.92-9-18.38,0,0-10.48,11.1-30.09,11.96-19.61,.86-34.96-1.79-34.96-1.79,0,0-11.59,9.74-12.09,20.6-.49,10.85,.74,16.28,3.21,19.86,2.47,3.58-2.71,7.28-4.56,11.72-1.85,4.44-1.36,13.07,1.48,16.9,2.84,3.82,8.39,3.95,9.5,7.77,1.11,3.82-1.48,9.13,4.93,16.53,6.41,7.4,22.32,2.34,24.91,1.48,2.59-.86,6.04-3.58,6.04-3.58l4.44,.62s-1.11-6.29,2.71-9.99c3.82-3.7,7.89-4.19,10.61-3.7,2.71,.49,5.92,2.47,6.91,3.45,.99,.99,3.82,1.97,4.93,1.11,1.11-.86,2.71-2.84,4.81-5.43,2.1-2.59,4.93-4.56,8.88-3.95,3.95,.62,7.03,2.84,8.39,5.8,1.36,2.96,1.73,5.43,1.73,5.43l11.96-9.13s-3.45-4.44-8.39-2.84c0,0-1.79-5.36-8.57-3.27,0,0-4.32-5.43-9.87-1.85,0,0,.12-1.85,2.84-2.47,2.71-.62,5.06-.49,7.77,2.84,0,0,5.67-2.22,8.51,3.45,0,0,5.18-1.85,8.39,1.85,0,0,11.59-7.28,12.09-11.1,.49-3.82-9-3.45-12.58-7.4Zm-103.22-40.09c.92,0,1.66,.74,1.66,1.66s-.74,1.66-1.66,1.66-1.66-.74-1.66-1.66,.74-1.66,1.66-1.66Zm-.76,10.51c.92,0,1.66,.74,1.66,1.66s-.74,1.66-1.66,1.66-1.66-.74-1.66-1.66,.74-1.66,1.66-1.66Zm-1.4,25.18c0-.92,.74-1.66,1.66-1.66s1.66,.74,1.66,1.66-.74,1.66-1.66,1.66-1.66-.74-1.66-1.66Zm2.16,13.77c-.92,0-1.66-.74-1.66-1.66s.74-1.66,1.66-1.66,1.66,.74,1.66,1.66-.74,1.66-1.66,1.66Zm2.24-24.89c-.92,0-1.66-.74-1.66-1.66s.74-1.66,1.66-1.66,1.66,.74,1.66,1.66-.74,1.66-1.66,1.66Zm3.74-30.08c-.92,0-1.66-.74-1.66-1.66s.74-1.66,1.66-1.66,1.66,.74,1.66,1.66-.74,1.66-1.66,1.66Zm3.32,64.29c-.92,0-1.66-.74-1.66-1.66s.74-1.66,1.66-1.66,1.66,.74,1.66,1.66-.74,1.66-1.66,1.66Z" style="fill: #e8b356;"/>
        <path d="M66.42,208.22s5.8,7.4,15.29,8.26c0,0-10.85,5.55-11.96,16.77-1.11,11.22,1.23,20.97,3.21,24.91,1.97,3.95-4.56,4.69-5.3,12.33-.74,7.65,.86,16.16,3.33,18.62,2.47,2.47,8.76,3.45,9,6.54s-1.6,7.03,.99,10.85c0,0-16.65,1.23-30.09-11.72-13.44-12.95-17.76-17.14-20.97-24.17-3.21-7.03,5.06-5.92,9-14.18,3.95-8.26-.49-32.31,27.5-48.22Z" style="fill: #e8b356;"/>
        <path d="M102.17,76.34c0,.61,.82,1.1,1.83,1.1,.27,0,.57-.05,.85-.12-.25,.15-.48,.33-.68,.52-.72,.73-.95,1.64-.51,2.07,.14,.14,.34,.21,.58,.21,.12,0,.25-.02,.39-.06,.38-.1,.77-.34,1.09-.67,.19-.19,.37-.43,.51-.68-.07,.28-.12,.57-.12,.85,0,1.02,.48,1.83,1.1,1.83s1.1-.82,1.1-1.83c0-.27-.05-.56-.12-.84,.15,.25,.32,.49,.52,.68,.34,.34,.74,.59,1.11,.69,.13,.04,.25,.05,.36,.05,.24,0,.44-.08,.59-.23,.43-.43,.2-1.36-.51-2.07-.19-.19-.42-.36-.68-.51,.28,.07,.56,.11,.84,.11,1.02,0,1.82-.48,1.82-1.1s-.82-1.1-1.82-1.1c-.27,0-.56,.05-.84,.12,.25-.15,.49-.32,.68-.52,.72-.73,.95-1.63,.51-2.07-.21-.22-.56-.27-.98-.16-.38,.11-.77,.34-1.09,.67-.19,.19-.36,.42-.51,.68,.07-.28,.11-.57,.11-.84,0-1.02-.48-1.83-1.1-1.83s-1.1,.82-1.1,1.83c0,.27,.05,.56,.12,.84-.15-.25-.33-.49-.52-.68-.34-.34-.74-.59-1.11-.68-.4-.11-.74-.05-.95,.17-.43,.43-.2,1.36,.51,2.07,.19,.19,.43,.36,.68,.51-.28-.07-.57-.12-.85-.12-1.02,0-1.83,.48-1.83,1.1Zm3.08-.55s.03-.09,.04-.14c0-.02,.02-.05,.03-.07,0-.02,.02-.04,.03-.06,0-.02,.02-.05,.03-.07,.02-.04,.05-.09,.07-.13,.18-.32,.44-.57,.76-.75,.04-.02,.09-.05,.13-.07,.02-.01,.05-.02,.07-.03,.02,0,.04-.02,.06-.03,.02-.01,.05-.02,.07-.02,.04-.02,.09-.03,.14-.05,.17-.05,.35-.07,.53-.07s.37,.03,.54,.07c.05,.01,.09,.03,.14,.05,.02,0,.05,.02,.07,.02,.02,.01,.04,.02,.07,.03,.02,0,.04,.02,.06,.03,.05,.02,.09,.05,.14,.07,.31,.18,.57,.44,.75,.76,.03,.04,.05,.09,.07,.13,.01,.02,.02,.04,.03,.07,.01,.02,.02,.05,.03,.07,0,.02,.01,.05,.02,.07,.02,.05,.03,.1,.04,.15,.04,.17,.07,.34,.07,.53s-.03,.37-.08,.54c0,.05-.02,.1-.04,.14l-.03,.07s-.02,.05-.03,.07c-.01,.02-.02,.05-.03,.07-.02,.05-.05,.09-.07,.13-.18,.31-.44,.57-.76,.75-.05,.02-.09,.05-.13,.07-.02,.01-.04,.02-.07,.03-.02,0-.05,.02-.07,.03-.02,0-.05,.02-.07,.02-.05,.02-.1,.03-.14,.05-.17,.05-.35,.07-.53,.07s-.37-.03-.54-.07c-.05-.01-.09-.03-.14-.04-.03,0-.05-.02-.07-.03-.02,0-.05-.02-.07-.03-.02,0-.04-.02-.07-.03-.05-.02-.09-.05-.13-.07-.31-.18-.57-.44-.75-.76-.02-.04-.05-.09-.07-.13-.01-.02-.02-.05-.03-.07,0-.02-.02-.04-.03-.07-.01-.02-.02-.04-.03-.07-.02-.05-.03-.1-.05-.15-.04-.17-.07-.34-.07-.53s.02-.37,.07-.55Z" style="fill: #e8b356;"/>
        <path d="M105.98,76.63c.01,.05,.02,.1,.04,.14,.01,.03,.02,.06,.04,.09,.02,.05,.04,.09,.07,.13,.03,.05,.06,.1,.1,.14,.05,.06,.12,.13,.18,.19,.04,.03,.09,.07,.14,.1,.04,.02,.09,.05,.13,.07,.03,.01,.06,.03,.09,.04,.05,.02,.1,.03,.15,.04,.05,.02,.11,.02,.16,.03,.05,0,.09,0,.14,0,.04,0,.08,0,.13,0,.06,0,.11-.02,.17-.03,.05-.01,.1-.03,.14-.05,.03-.01,.06-.02,.09-.04,.05-.02,.09-.04,.13-.07,.05-.03,.1-.06,.14-.1,.07-.05,.13-.12,.18-.18,.04-.04,.07-.09,.1-.14,.03-.05,.05-.09,.08-.14,0-.03,.03-.06,.04-.09,.02-.05,.03-.1,.04-.15,.01-.05,.02-.11,.03-.16,0-.05,0-.09,0-.14,0-.04,0-.08,0-.13,0-.05-.02-.11-.03-.16-.01-.05-.03-.1-.04-.15,0-.03-.02-.06-.04-.09-.02-.05-.04-.09-.07-.14-.03-.05-.06-.1-.1-.14-.06-.07-.12-.13-.18-.19-.05-.04-.09-.07-.14-.1-.04-.03-.09-.05-.14-.08-.03-.01-.06-.02-.09-.04-.05-.02-.1-.03-.15-.04-.05-.01-.11-.02-.16-.03-.05,0-.09,0-.14,0-.04,0-.08,0-.12,0-.06,0-.12,.01-.17,.03-.05,.01-.1,.03-.15,.04-.03,.01-.06,.02-.09,.03-.05,.02-.09,.05-.14,.07-.05,.03-.1,.07-.14,.1-.07,.05-.13,.12-.19,.18-.04,.05-.07,.09-.1,.14-.03,.04-.05,.09-.07,.13-.01,.03-.03,.06-.04,.09-.02,.04-.04,.1-.05,.14-.01,.05-.02,.11-.03,.16,0,.05-.01,.09-.01,.14,0,.04,0,.09,0,.13,0,.05,.02,.11,.03,.16Z" style="fill: #e8b356;"/>
        <path d="M95.08,161.99s-3.52-1.02-5.55-5.43c0,0-2.93-.78-4.18-1.49l-3.26,.97c-3.63,.8-10.65,1.69-15.7-1.84-12.15-8.48-8.24-17.91-8.24-17.91,0,0-9.32-.44-19.2,6.25-9.87,6.69-9.22,12.02-9.22,12.02,0,0,7.65,12.06,22.63,11.76,6.41-.13,12.63-1.76,17.87-3.73,1.89,.78,7.21,2.81,11.12,2.81l1.31-3.4s7.28,.66,10.81,3.4c0,0,2.87-1.02,1.61-3.4Z" style="fill: #e8b356;"/>
        <rect x="84.53" y="10.69" width="4.6" height="11.76" rx="1.95" ry="1.95" transform="translate(15.94 -36.24) rotate(25.88)" style="fill: #e8b356;"/>
        <rect x="104.98" y="19.84" width="7.05" height="13.85" rx="2.98" ry="2.98" transform="translate(22.57 -44.68) rotate(25.88)" style="fill: #e8b356;"/>
        <rect x="127.75" y="30.76" width="7.05" height="13.85" rx="2.98" ry="2.98" transform="translate(29.62 -53.52) rotate(25.88)" style="fill: #e8b356;"/>
        <rect x="150.53" y="42.47" width="7.05" height="13.85" rx="2.98" ry="2.98" transform="translate(37.02 -62.29) rotate(25.88)" style="fill: #e8b356;"/>
        <path d="M180.6,55.54l-1.88,3.87c-.5-.16-.99-.24-1.46-.24-2.1,0-3.14,1.49-3.26,1.66l-.04,.06-.96,1.88,.11,.45s.31,1.3,.87,3.79c.02,.09,.04,.18,.06,.26l-5.24-2.54c-.22-.1-.31-.36-.2-.58l5.67-11.68c.1-.21,.36-.3,.58-.2l5.56,2.7c.22,.1,.31,.36,.2,.58Z" style="fill: #e8b356;"/>
        <path d="M84.9,10.13l-4.01,8.27s-5.55-1.83-3.2-6.66c2.35-4.83,7.22-1.61,7.22-1.61Z" style="fill: #e8b356;"/>
        <path d="M92.89,14.18l-4.04,8.33s6,6.23,11.85,6.21l4.51-9.29s-2.39-3.42-12.32-5.25Z" style="fill: #e8b356;"/>
        <path d="M115.55,24.58l-4.54,9.35s8.01,6.21,12.36,6.66l5.03-10.37s-2.33-2.46-12.86-5.64Z" style="fill: #e8b356;"/>
        <path d="M138.33,36.02l-4.22,8.7s5.85,7.22,12.58,6.63l4.67-9.62s-2.56-4.3-13.02-5.72Z" style="fill: #e8b356;"/>
        <path d="M160.77,47.46l-4.59,9.45s5.18,4.77,11.02,5.61l5.03-10.37s-2.81-2.82-11.46-4.7Z" style="fill: #e8b356;"/>
        <path d="M186.1,59.48l-2.46,5.07c-.21-1.87-1.76-3.86-2.85-4.25-.24-.09-.43-.26-.64-.37l1.31-2.71,4.64,2.25Z" style="fill: #e8b356;"/>
        <path d="M216.24,79.86c-3.74,6.48-8.48,5.58-10.43,5.09-1.29-.32-1.78-1.4-1.87-2.44,.07-1.82,1.62-4.81,1.62-4.81,1.58-3.27,3.83-7.66,3.83-7.66,.84-1.58,2.28-1.55,3.89-1.03,1.61,.51,6.7,4.38,2.96,10.86Z" style="fill: #e8b356;"/>
        <g>
          <path d="M101.66,101.35c-.05-.21-.1-.41-.18-.59-.02-.06-.05-.12-.07-.18-.03-.09-.07-.19-.11-.28l-.22-.44c-.15-.24-.33-.53-.55-.77-.12-.14-.23-.25-.33-.34l-.11-.09c-.09-.08-.17-.15-.26-.21-.54-.39-1.14-.65-1.76-.76-.35-.07-.65-.1-.93-.1-.04,0-.07,0-.11,0-.28,0-.55,.03-.82,.08l-.08,.02s-.1,.02-.12,.03l-.24,.08c-.16,.05-.29,.09-.41,.16-.26,.11-.51,.26-.8,.47-.45,.31-.85,.7-1.28,1.11l-.19,.18c-.22,.21-.48,.47-.77,.71-.31,.25-.59,.47-.94,.61-.02,0-.03,.02-.05,.03,.12,.06,.22,.13,.32,.2,.23,.17,.46,.37,.7,.62h0l.62,.64c.2,.21,.42,.41,.62,.6,.2,.17,.41,.36,.65,.52,.08,.07,.17,.12,.25,.16l.09,.05c.11,.07,.23,.13,.35,.18,.18,.09,.35,.15,.54,.21,.08,.02,.15,.05,.23,.07,.06,.01,.15,.03,.23,.05,.17,.04,.33,.07,.53,.08,.05,0,.1,0,.16,.01,.09,.01,.19,.02,.24,.02h.42c.09,0,.18-.02,.27-.03,.04,0,.08-.01,.12-.02,.04,0,.08-.01,.13-.02,.08-.01,.16-.02,.24-.04l.4-.1,.37-.14c.09-.03,.16-.07,.25-.11,.04-.02,.07-.04,.11-.06,.14-.07,.25-.13,.34-.19,.25-.15,.47-.33,.67-.49,.21-.18,.42-.39,.6-.57,.23-.25,.39-.45,.53-.64,.12-.17,.25-.36,.38-.57-.01-.05-.03-.11-.04-.16Zm-4.47,2.68c-1.59,0-2.88-1.35-2.88-3.01s1.29-3.01,2.88-3.01,2.87,1.35,2.87,3.01-1.29,3.01-2.87,3.01Z" style="fill: #e8b356;"/>
          <path d="M127.39,114.17c-.02-1.35-.18-2.77-.34-4.14-.28-2.43-.54-4.73-.07-6.64l.06-.25c.74-3,1.97-8.01-.92-13.29-1.35-2.46-3.85-4.36-7.44-5.64-3.71-1.32-7.77-1.69-10.53-1.76-.46-.01-.93-.02-1.39-.02-3.89,0-13.34,.47-17.07,4.79l-.02,.02-.02,.02s-1.9,1.67-2.93,5.55c-.65,2.47-.4,4.97-.13,7.63,.17,1.65,.34,3.36,.32,5.18-.02,1.7-.21,3.19-.42,4.77-.37,2.83-.75,5.76-.06,9.97,.52,3.18,.97,5.93,2.8,8.21,1.71,2.13,4.6,3.73,9.01,4.97,1.44-1.58,4.22-2.51,7.82-2.63,.02,0,.04,0,.07,0-.64-.07-1.22-.21-1.75-.42-.75-.28-1.46-.68-2.1-1.18l-.09-.06s-.09-.06-.13-.09c-.2-.14-.38-.28-.54-.42-.05-.04-.09-.08-.15-.13l-.02-.02c-.1-.09-.21-.18-.32-.3-.28-.27-.56-.59-.86-.96h0c-.3-.4-.53-.75-.73-1.09-.24-.4-.43-.78-.6-1.2-.09-.23-.07-.48,.06-.7,.12-.2,.23-.36,.38-.54,.14-.17,.27-.31,.4-.45,.26-.27,.56-.52,.89-.76,.34-.25,.66-.46,.98-.62,.14-.08,.32-.18,.53-.27,.05-.02,.1-.04,.15-.07,.11-.05,.24-.11,.37-.16l.51-.18c.13-.05,.26-.08,.38-.11h.06s.08-.04,.12-.05l.16-.04c.14-.04,.27-.08,.42-.1l.52-.1c.24-.04,.48-.07,.7-.09h.03c.11-.02,.24-.03,.35-.04h.03c.22-.02,.44-.02,.65-.03h.02s.09-.02,.14-.02c.03,0,.05,0,.08,0h.23c.06,0,.12,0,.17,.02,.21,0,.43,.02,.66,.03h.02c.13,.02,.24,.03,.37,.04h.03c.23,.03,.47,.05,.71,.1l.52,.1c.14,.02,.28,.06,.41,.1l.16,.04s.08,.02,.12,.03l.06,.02c.12,.03,.25,.06,.37,.11l.51,.18c.12,.04,.23,.09,.34,.15h.02c.05,.04,.11,.06,.16,.08,.2,.08,.38,.18,.53,.27,.31,.16,.63,.37,.98,.62,.33,.24,.63,.5,.89,.76,.14,.14,.28,.3,.41,.45,.11,.13,.23,.29,.36,.5h0v.03c.14,.21,.16,.46,.07,.69h0c-.17,.43-.36,.81-.6,1.21-.2,.34-.43,.68-.73,1.08h0c-.3,.38-.58,.7-.87,.98-.11,.12-.24,.23-.33,.31l-.05,.04c-.19,.19-.36,.35-.54,.5-.67,.58-1.44,1.03-2.3,1.35-.52,.2-1.07,.33-1.68,.4,4.95,.11,7.24,1.43,8.27,2.84,3.78-1.19,6.63-3.09,8.34-4.91,3.26-3.48,3.12-9.92,3.03-13.76,0-.32-.01-.63-.02-.91Zm-14.03-22.27c2.35-1.72,5.45-2.59,9.2-2.59,.49,0,.99,.01,1.5,.04l.38,.02-.05,.38s-.11,.84-.63,1.68c-.48,.79-1.42,1.75-3.14,1.87-.63,.05-1.24,.08-1.82,.11-2.2,.11-4.1,.21-6.1,1.09-1.05,.45-1.31,.64-1.37,.68h0l-.62-.37c.12-.26,.83-1.6,2.62-2.92Zm-23.64-2.57c.48-.03,.97-.04,1.43-.04,3.77,0,6.88,.87,9.24,2.59,1.81,1.31,2.52,2.66,2.65,2.92l-.61,.36h0s-.29-.21-1.37-.68c-2-.88-3.89-.98-6.09-1.1-.59-.03-1.19-.06-1.82-.11-1.72-.13-2.65-1.09-3.13-1.87-.51-.83-.63-1.64-.63-1.67l-.05-.38,.39-.02Zm4.05,15.58c-.1-.07-.21-.15-.32-.25-.27-.21-.51-.45-.71-.66h0c-.33-.37-.62-.75-.89-1.12l-.09-.13-.16-.22-.14-.18c-.14-.18-.25-.32-.38-.45h-.01c-.11-.14-.25-.24-.41-.33-.04,0-.08,0-.12,0-.12,0-.24,0-.35-.03-.18-.03-.34-.09-.48-.14l-.16-.06-.03-.02c-.13-.08-.24-.14-.34-.21l-.14-.09c-.24-.15-.32-.48-.18-.73v-.03c.12-.15,.29-.25,.47-.25,.07,0,.13,.01,.2,.04l.17,.06c.08,.03,.16,.06,.25,.09,.03,0,.05,0,.07,.01h.04c.07,.02,.14,.03,.2,.03,.04,0,.08,0,.13-.01h.01s.09,0,.11-.01h.03c.06-.04,.11-.05,.15-.06h.02s.02-.01,.03-.02l.16-.09c.22-.13,.43-.33,.63-.53,.24-.26,.46-.49,.66-.72,.43-.48,.95-1.03,1.59-1.51h.01c.31-.22,.65-.44,1.04-.6,.21-.1,.43-.16,.6-.2l.27-.06c.1-.03,.18-.03,.24-.04h.03s.03,0,.05,0h.02c.16-.02,.33-.02,.49-.02,.25,0,.49,.02,.71,.05,.34,.04,.71,.12,1.12,.25,.76,.25,1.43,.59,2,1.02,.34,.25,.62,.49,.85,.74,.23,.22,.43,.48,.6,.71l.11,.15,.3,.48c.07,.12,.13,.23,.18,.34,.02,.05,.05,.1,.07,.15,.13,.23,.21,.47,.3,.7h0c.04,.11,.08,.22,.12,.32,.07,.17,.07,.37,0,.54l-.02,.04c-.13,.31-.29,.59-.48,.89-.15,.25-.34,.5-.57,.8h0c-.19,.24-.42,.48-.69,.74h0c-.23,.22-.49,.44-.79,.63-.13,.09-.27,.19-.45,.28l-.1,.06c-.11,.06-.24,.13-.38,.19l-.45,.19-.5,.14c-.15,.05-.29,.07-.42,.08-.04,0-.08,.01-.12,.02l-.13,.02s-.03,0-.05,0c-.09,.02-.19,.03-.31,.03-.03,0-.07,0-.11,0h-.47c-.16,0-.28-.02-.37-.03-.02,0-.04,0-.05,0-.02,0-.05,0-.08-.01-.25-.02-.53-.09-.79-.15h-.02l-.33-.1h-.03c-.28-.12-.57-.23-.86-.4-.15-.08-.31-.17-.45-.28l-.09-.06Zm26.11,19.01v.11c0,1.13-.45,3.69-2.14,5.28l-.61,.57v-.83s0-4.75-3.1-6.62c-2.06-1.25-3.85-1.91-5.64-2.08-.35,0-.78-.02-1.37-.04h-.03s-.04,0-.07,0h-.08s-.04,0-.07,0h-.03c-.59,.02-1.02,.04-1.37,.04-1.79,.17-3.58,.84-5.64,2.08-3.09,1.87-3.11,6.58-3.11,6.62v.83l-.6-.57c-1.69-1.59-2.14-4.15-2.14-5.28v-.11c0-1.4,0-4.31,2.83-6.05,1.21-.74,2.82-1.12,4.77-1.12,2.19,0,4.28,.47,5.39,.77,1.1-.3,3.19-.77,5.38-.77,1.96,0,3.56,.38,4.77,1.12,2.83,1.74,2.83,4.65,2.83,6.05Zm4.89-22.88l-.14,.09c-.1,.06-.2,.13-.31,.2l-.03,.02-.19,.07c-.14,.05-.3,.11-.47,.14h-.02c-.12,.02-.24,.03-.36,.03-.03,0-.07,0-.1,0-.16,.09-.3,.19-.41,.32h0c-.13,.14-.25,.3-.38,.46l-.14,.18c-.08,.11-.17,.22-.26,.34-.26,.35-.55,.74-.9,1.11h0c-.2,.22-.45,.46-.73,.68-.1,.09-.22,.18-.32,.24l-.09,.06c-.15,.11-.3,.2-.46,.28-.28,.17-.58,.28-.87,.39l-.09,.03-.27,.07c-.26,.07-.54,.13-.79,.15h-.06s-.04,.01-.07,.02c-.1,.01-.21,.03-.37,.03h-.51c-.15,0-.29-.02-.43-.04l-.12-.02s-.09-.01-.14-.02h0c-.12-.02-.26-.03-.41-.08l-.48-.13-.48-.2c-.14-.05-.26-.12-.37-.18l-.11-.06c-.18-.09-.32-.18-.46-.28-.3-.2-.56-.42-.79-.62h0c-.27-.26-.5-.5-.7-.74-.23-.29-.42-.55-.57-.8-.19-.3-.35-.58-.49-.9v-.03c-.09-.17-.09-.37-.02-.55,.04-.1,.08-.21,.12-.32,.08-.22,.17-.47,.3-.7,.02-.04,.04-.08,.06-.12v-.02c.06-.1,.12-.23,.19-.35h0l.4-.61h0c.19-.25,.38-.51,.62-.74,.13-.13,.26-.27,.42-.39l.1-.08c.1-.09,.21-.18,.35-.27,.56-.41,1.23-.75,1.98-1,.4-.13,.77-.21,1.13-.25,.23-.03,.48-.05,.72-.05,.16,0,.32,0,.47,.02h.02s.05,0,.06,0h.02c.06,0,.13,.01,.24,.04l.28,.07c.18,.04,.4,.1,.61,.2,.39,.15,.72,.37,1.03,.58h0c.65,.49,1.18,1.05,1.6,1.52,.21,.24,.44,.48,.67,.72,.21,.2,.42,.4,.63,.53l.17,.1,.05,.02h.04s.06,.03,.09,.04h.02s.06,.03,.13,.03h0s.09,0,.14,.02c.05,0,.13-.02,.2-.03l.11-.02c.06-.03,.14-.06,.25-.09l.34-.13,.22,.06h.02c.13,.07,.24,.17,.29,.31,.09,.24,0,.51-.21,.65Zm1.19-1.6l-.45-.03c-.44-.02-.79-.23-1.08-.43h0c-.26-.19-.5-.39-.7-.55h0c-.44-.37-.85-.68-1.26-.94-.35-.23-.76-.43-1.32-.66-.09-.03-.19-.07-.3-.1l-.07-.02c-.11-.03-.23-.07-.34-.11l-.72-.16-.75-.11-.76-.06h0c-.11-.02-.23-.02-.37-.02h-.16c-.08,0-.17,0-.26,0h-.43s-.1,0-.17,0h-.04s-.09,0-.13,0c-.46,.02-.94,.08-1.47,.18-.54,.12-.99,.27-1.37,.45h-.01c-.4,.18-.8,.42-1.22,.76-.32,.25-.63,.58-.96,1.04-.26,.38-.47,.81-.64,1.26l-.06,.19c-.05,.17-.1,.32-.13,.5l-.07,.41s-.01,.13-.02,.2v.14c-.01,.07-.02,.13-.02,.2v.1c-.02,.16-.03,.32-.04,.48l.02,.8v.02c0,.15,.02,.31,.04,.46v.02c.01,.1,.03,.19,.04,.3,.02,.24,.06,.49,.12,.74v.02c.09,.48,.23,.98,.42,1.53,.15,.44,.32,.82,.51,1.16l.61,.23,.48,.23c.16,.08,.32,.17,.48,.28,.08,.05,.15,.1,.23,.14h.02l.14,.11c.21,.15,.44,.32,.67,.54,.66,.6,1.14,1.29,1.43,2.06,.29,.76,.55,1.92,.07,3.16h0c-.06,.14-.12,.27-.18,.39l-.03,.05c-.06,.11-.11,.19-.16,.25l-.02,.03s-.03,.04-.04,.06h0v.02c-.22,.28-.43,.49-.74,.71-.43,.32-1.02,.51-1.62,.51-.18,0-.36-.02-.53-.05-.32-.05-.63-.14-.85-.2h-.04c-.21-.07-.35-.11-.49-.12h-.01c-.09,0-.17-.01-.24-.01-.24,0-.41,.05-.66,.18h0c-.13,.07-.28,.18-.45,.31l-.03,.02c-.23,.17-.5,.37-.84,.56-.57,.31-1.26,.47-1.93,.47-.05,0-.1,0-.15,0-.63-.02-1.26-.18-1.94-.48h0c-.13-.06-.28-.13-.43-.22-.15-.08-.37-.24-.44-.29-.19-.14-.37-.26-.54-.35-.28-.14-.45-.19-.68-.19-.07,0-.14,0-.22,.01h-.02c-.13,0-.34,.07-.55,.13h-.02c-.25,.07-.53,.15-.83,.2-.2,.03-.38,.04-.55,.04-.19,0-.37-.02-.53-.05-.37-.07-.73-.23-1.04-.44h0c-.15-.12-.31-.25-.41-.35h0l-.28-.33h-.01c-.23-.29-.37-.6-.47-.83h0c-.48-1.26-.23-2.42,.07-3.18,.29-.76,.78-1.46,1.44-2.06,.23-.23,.48-.4,.69-.56l.1-.07h.02c.09-.06,.17-.11,.25-.16,.14-.09,.31-.19,.48-.28l.59-.28,.48-.17c.19-.34,.35-.72,.51-1.17,.19-.56,.33-1.06,.41-1.52h0c.06-.27,.1-.52,.12-.77,0-.09,.02-.18,.03-.27v-.04c.03-.16,.05-.31,.05-.45h0l.02-.83c0-.15-.02-.3-.03-.46v-.09c-.01-.07-.02-.15-.02-.22,0-.04,0-.08,0-.12v-.03c0-.06-.01-.14-.02-.19l-.07-.41c-.03-.17-.07-.32-.13-.49v-.02c-.03-.06-.04-.12-.06-.18-.16-.45-.37-.87-.64-1.26-.33-.45-.64-.78-.96-1.03-.42-.33-.82-.58-1.21-.75h-.01c-.39-.19-.84-.34-1.38-.46-.53-.1-1.01-.16-1.47-.18-.04,0-.09,0-.13,0h-.07s-.08-.01-.11-.01h-.46c-.08,.01-.17,.01-.25,.02h-.11s-.09,0-.13,0c-.11,0-.2,0-.28,.02h-.01l-.78,.06-.75,.11-.72,.16c-.09,.03-.2,.07-.32,.1l-.06,.02c-.11,.04-.21,.07-.32,.11-.55,.22-.95,.42-1.32,.66-.41,.26-.82,.57-1.26,.94-.24,.2-.46,.37-.7,.55-.29,.2-.64,.41-1.08,.43l-.45,.03-.13-.94,.35-.15c.28-.12,.51-.41,.76-.73,.07-.08,.13-.17,.2-.25,.43-.53,.84-.96,1.26-1.31,.52-.47,1.11-.81,1.57-1.05,.22-.11,.44-.2,.64-.29l.23-.1,.9-.28,.91-.18h0c.25-.04,.5-.06,.74-.08l.18-.02c.13-.02,.27-.02,.44-.02,.07,0,.13,0,.19,0h.69c.13,.01,.23,.02,.32,.03,0,0,.07,0,.09,0,.03,0,.05,0,.08,0,.64,.04,1.26,.18,1.84,.34h.01c.49,.15,1.14,.37,1.75,.7,.53,.27,1.06,.64,1.56,1.08,.43,.38,.84,.86,1.24,1.47h0c.33,.55,.59,1.14,.77,1.76h0l.03,.14c.07,.27,.14,.55,.17,.82l.05,.42h0s.06-.07,.08-.1h0c.07-.08,.16-.18,.27-.27,.14-.12,.29-.24,.47-.34,.18-.11,.38-.19,.58-.25h.01l.33-.08,.35-.03h.02c.21,0,.45,.02,.69,.09,.19,.04,.37,.13,.51,.2l.09,.04h0c.32,.19,.61,.43,.85,.73,.04,.04,.07,.08,.1,.12,0-.03,0-.07,0-.11l.05-.42c.03-.27,.1-.55,.17-.82l.03-.12h0c.19-.64,.45-1.23,.78-1.76h0c.41-.62,.81-1.11,1.24-1.48,.5-.44,1.03-.81,1.57-1.09,.6-.33,1.21-.54,1.74-.7h.01c.58-.16,1.2-.3,1.84-.34,.03,0,.05,0,.07,0,.02,0,.09,0,.09,0,.09,0,.19-.02,.32-.02h.41c.05,0,.1,0,.16-.01,.1,0,.2,0,.3,0,.16,0,.31,0,.45,.02l.18,.02c.24,.02,.49,.04,.73,.08h0l.9,.18,.9,.27,.24,.1c.2,.08,.43,.17,.65,.29,.46,.24,1.05,.58,1.57,1.05,.41,.35,.82,.78,1.25,1.31,.05,.07,.11,.13,.16,.2l.04,.05c.25,.31,.48,.61,.76,.73l.34,.15-.12,.94Z" style="fill: #e8b356;"/>
          <path d="M122.37,101.04c-.34-.14-.62-.36-.93-.6-.3-.25-.57-.51-.78-.71l-.19-.18c-.43-.41-.83-.8-1.28-1.11-.29-.21-.54-.36-.79-.47-.14-.08-.29-.13-.42-.17l-.23-.08s-.09-.03-.13-.03c-.03,0-.06-.01-.09-.02-.3-.06-.59-.09-.91-.08-.01,0-.02,0-.03,0-.28,0-.58,.03-.92,.1-.62,.11-1.23,.38-1.76,.76-.1,.06-.19,.14-.28,.22l-.1,.09c-.11,.09-.22,.2-.33,.34-.23,.24-.41,.52-.57,.79l-.22,.43c-.04,.09-.08,.19-.11,.28-.02,.06-.04,.11-.06,.16-.08,.19-.13,.39-.18,.6-.01,.06-.03,.11-.04,.17,.13,.21,.26,.4,.38,.57,.14,.2,.32,.4,.54,.64,.18,.19,.38,.39,.6,.57,.21,.17,.43,.34,.66,.48,.1,.07,.21,.13,.35,.2,.04,.02,.07,.04,.11,.06,.08,.04,.16,.08,.24,.11l.39,.15,.38,.1c.08,.03,.16,.03,.24,.05,.05,0,.1,.01,.15,.02h.1c.1,.03,.19,.04,.27,.04h.42c.06,.01,.15,0,.23-.01,.06,0,.12-.01,.17-.01,.2,0,.37-.05,.54-.08,.08-.02,.17-.04,.25-.05,.05-.02,.13-.04,.2-.07,.19-.06,.36-.12,.53-.2,.13-.05,.25-.11,.36-.18l.11-.06c.08-.05,.16-.09,.24-.15,.24-.16,.47-.36,.66-.53,.19-.17,.41-.38,.62-.6l.62-.64c.24-.25,.47-.45,.71-.62,.09-.07,.2-.14,.31-.2-.02,0-.04-.02-.06-.03Zm-5.67,2.99c-1.59,0-2.87-1.35-2.87-3.01s1.29-3.01,2.87-3.01,2.87,1.35,2.87,3.01-1.29,3.01-2.87,3.01Z" style="fill: #e8b356;"/>
          <path d="M113.44,124.64c-.1-.12-.22-.23-.33-.34-.22-.22-.48-.42-.75-.61-.3-.21-.57-.37-.84-.5-.14-.07-.29-.15-.44-.21-.06-.02-.11-.05-.17-.07-.09-.04-.19-.08-.28-.11l-.47-.16c-.1-.04-.19-.06-.29-.08-.06-.01-.12-.03-.19-.05-.04,0-.09-.02-.14-.04-.11-.03-.21-.06-.32-.07l-.5-.09c-.21-.04-.43-.06-.64-.08-.12-.01-.23-.02-.35-.04-.19,0-.39-.01-.6-.02h-.58c-.19,0-.38,.01-.57,.02-.11,.01-.23,.02-.34,.04-.21,.02-.43,.04-.64,.08l-.5,.09c-.12,.02-.22,.05-.33,.08l-.15,.04c-.05,.02-.12,.03-.18,.05-.1,.02-.19,.05-.29,.08l-.47,.17c-.1,.03-.19,.07-.28,.11-.06,.02-.11,.05-.17,.07-.15,.06-.3,.14-.44,.21-.27,.14-.55,.3-.84,.5-.27,.19-.52,.39-.75,.61-.1,.1-.21,.21-.33,.35h0c-.05,.06-.1,.12-.15,.18,.11,.3,.24,.57,.37,.81,.11,.21,.24,.44,.42,.7,.02,.02,.05,.06,.08,.1,.04,.05,.08,.1,.12,.15,.54,.61,1.12,1.14,1.72,1.56,.67,.47,1.35,.82,2.01,1.03,.42,.14,.76,.22,1.09,.27,.2,.04,.39,.05,.56,.06,.14,.01,.28,.02,.42,.02,.32,0,.67-.02,1-.08,.14-.02,.27-.05,.39-.07l.16-.03c.05-.02,.12-.03,.18-.05,.12-.03,.23-.06,.34-.1,.66-.21,1.33-.56,1.98-1.03,.58-.42,1.15-.95,1.67-1.56,.24-.35,.43-.66,.59-.97,.13-.25,.26-.53,.38-.82-.05-.06-.1-.12-.15-.18Zm-11.75,.22s.11-.14,.31-.38c.08-.1,.2-.2,.34-.31l.09-.08c.14-.12,.29-.22,.46-.32l.16-.1c.21-.12,.49-.27,.8-.39,.07-.03,.14-.05,.21-.08,.23-.09,.47-.17,.73-.22,.36-.09,.69-.16,1.02-.19,.23-.03,.47-.04,.7-.05,.12,0,.24,0,.36-.02,.14,0,.26,.01,.38,.02,.23,0,.45,.02,.7,.05,.32,.03,.66,.1,1.04,.2,.25,.05,.49,.14,.72,.22,.07,.03,.14,.05,.21,.07,.32,.13,.61,.28,.8,.39l.17,.11c.17,.11,.33,.21,.46,.33l.1,.08c.13,.11,.24,.2,.33,.31,.2,.24,.31,.38,.31,.38l.39,.52-.57-.31s-.16-.08-.42-.24c-.07-.04-.15-.08-.24-.11-.07-.03-.16-.07-.24-.11-.09-.05-.21-.09-.33-.13-.1-.03-.2-.07-.29-.11-.22-.06-.48-.14-.75-.2-.08-.01-.17-.03-.26-.05-.19-.04-.39-.08-.59-.11l-.16-.02c-.1-.01-.2-.03-.3-.04-.15,0-.31-.02-.47-.04-.18-.02-.4-.03-.62-.03-.13,0-.25,0-.36,0-.29,.02-.64,0-.95,.04-.09,0-.18,.02-.27,.02-.23,.02-.45,.04-.66,.08-.22,.03-.43,.07-.63,.11l-.24,.05c-.26,.07-.52,.14-.76,.21-.09,.04-.19,.07-.29,.11-.12,.04-.23,.08-.32,.12-.08,.04-.16,.07-.23,.1-.09,.04-.17,.07-.24,.11-.27,.16-.42,.24-.42,.24l-.58,.31,.4-.52Zm10.54,1.33s-.11,.14-.31,.38c-.09,.1-.2,.2-.33,.31l-.11,.09c-.14,.12-.3,.22-.47,.33l-.16,.1c-.22,.12-.5,.27-.82,.4l-.22,.08c-.24,.09-.48,.18-.75,.23-.36,.09-.71,.16-1.05,.2-.23,.04-.48,.05-.71,.06-.13,0-.25,.01-.38,.02-.15,0-.28-.02-.4-.02-.23-.01-.45-.02-.71-.06-.33-.03-.69-.1-1.07-.2-.26-.05-.52-.14-.76-.24l-.19-.07c-.31-.12-.57-.26-.82-.4l-.19-.12c-.17-.11-.33-.21-.46-.33l-.1-.09c-.13-.11-.24-.21-.33-.31-.21-.25-.32-.39-.32-.39l-.4-.53,.59,.31s.16,.09,.43,.24c.07,.04,.15,.08,.24,.12,.08,.03,.16,.07,.24,.11,.09,.05,.21,.09,.33,.13,.1,.03,.21,.07,.31,.11,.23,.06,.49,.14,.77,.21,.07,.01,.16,.03,.24,.05,.2,.04,.42,.09,.63,.11l.16,.03c.1,.01,.2,.03,.3,.04,.16,0,.32,.02,.48,.04,.19,.03,.42,.03,.64,.03,.13,0,.25,0,.36,0,.3-.02,.66,0,.98-.04l.26-.02c.24-.02,.48-.04,.7-.08,.23-.03,.45-.07,.66-.12l.24-.05c.27-.07,.53-.14,.78-.21,.09-.04,.19-.07,.29-.11,.12-.04,.24-.08,.33-.13,.08-.04,.16-.08,.24-.11,.09-.04,.17-.07,.24-.12,.27-.16,.43-.25,.43-.25l.59-.31-.41,.53Z" style="fill: #e8b356;"/>
          <path d="M114.53,113.39l-.13,.23s-.07,.09-.11,.14c-.03,.03-.06,.07-.08,.09-.09,.11-.26,.25-.38,.33-.3,.17-.59,.22-.96,.14-.2-.04-.42-.11-.66-.19-.23-.08-.55-.18-.85-.21-.32-.05-.66-.05-.97,0-.3,.05-.61,.16-.95,.33-.32,.17-.61,.38-.75,.48l-.31,.21c-.08,.06-.16,.11-.26,.15-.35,.18-.75,.27-1.19,.25-.39,0-.82-.11-1.28-.3-.1-.04-.21-.09-.3-.14-.11-.06-.14-.08-.27-.17-.26-.19-.5-.34-.75-.47-.24-.12-.56-.27-.94-.34-.16-.02-.31-.04-.47-.04-.01,0-.03,0-.05,0h-.25l-.2,.03c-.4,.05-.71,.16-.98,.25-.2,.07-.37,.12-.54,.15-.36,.08-.66,.03-.95-.13-.03-.02-.05-.04-.07-.05-.04-.03-.08-.05-.12-.09l-.15-.14-.02-.02-.04-.05c-.11-.12-.2-.26-.29-.44-.28-.61-.31-1.39-.09-2.15,.18-.61,.51-1.21,.98-1.73,.13-.16,.28-.3,.42-.44,.06-.06,.13-.12,.17-.17,.08-.06,.15-.12,.23-.18,.01-.01,.03-.02,.04-.03h0s.09-.06,.15-.09c1.63-.95,3.38-.07,3.38-.07-.59-.96-1.23-1.19-1.6-1.23,.09-.17,.18-.35,.28-.54l.64-1.69c.03-.1,.06-.2,.08-.3,.09-.28,.15-.57,.2-.85,.02-.1,.03-.19,.06-.29,.04-.18,.08-.37,.09-.57l.06-.65,.39-.38s.06-.06,.17-.18c.02-.02,.04-.04,.06-.07,.03-.04,.07-.08,.11-.12l.24-.22s.09-.06,.13-.1c.06-.05,.12-.09,.19-.14,.11-.07,.23-.15,.37-.21,.08-.05,.18-.08,.29-.11l.31-.07h.22c.15,0,.29,0,.44,.04,.13,.02,.27,.08,.39,.13l.07,.04c.1,.05,.2,.1,.3,.18,.08,.05,.15,.11,.22,.16l.08,.07c.05,.04,.1,.09,.14,.13,.03,.03,.07,.07,.1,.1,.05,.05,.1,.1,.13,.15l.03,.04c.1,.12,.16,.19,.16,.19l.54,.58,.04,.46c.01,.19,.05,.38,.09,.57,.02,.1,.04,.19,.06,.29,.02,.1,.03,.2,.06,.3h0l.46,1.57c.07,.19,.15,.39,.23,.6,.15,.34,.29,.65,.45,.92-.38,.06-.99,.32-1.55,1.22,0,0,1.75-.88,3.39,.07h0s.09,.08,.14,.12c.07,.06,.15,.12,.22,.17,.06,.06,.13,.12,.19,.19,.14,.13,.29,.27,.42,.43,.46,.53,.8,1.12,.97,1.73,.22,.76,.18,1.54-.09,2.14Z" style="fill: #e8b356;"/>
          <path d="M96.36,102.87c.34,.15,.68,.25,1.03,.19,.34-.02,.64-.18,.88-.34,.11-.1,.22-.19,.3-.29,.08-.11,.16-.21,.22-.31,.05-.11,.1-.21,.14-.3,.03-.1,.05-.19,.07-.27,.06-.16,.04-.3,.06-.38v-.28c-.02-.09,0-.23-.05-.39-.02-.08-.05-.17-.07-.27-.04-.09-.09-.19-.14-.3-.05-.11-.14-.2-.21-.31-.08-.11-.2-.19-.3-.3-.13-.08-.25-.17-.4-.23-.15-.05-.32-.12-.48-.12-.34-.06-.71,.02-1.05,.17-.34,.16-.62,.44-.83,.77-.2,.34-.29,.74-.29,1.12,.02,.4,.12,.78,.33,1.1,.21,.32,.48,.59,.81,.76Z" style="fill: #e8b356;"/>
          <path d="M118.55,100.49c-.02-.08-.05-.17-.07-.27-.04-.09-.09-.19-.14-.3-.05-.11-.14-.2-.22-.31-.08-.11-.2-.19-.3-.3-.13-.08-.25-.17-.4-.23-.15-.05-.32-.12-.48-.12-.34-.06-.71,.02-1.05,.17-.34,.16-.62,.44-.83,.77-.2,.34-.29,.74-.29,1.12,.02,.4,.12,.78,.33,1.1,.21,.32,.48,.59,.81,.76,.34,.15,.68,.25,1.03,.19,.34-.02,.64-.18,.88-.34,.11-.1,.22-.19,.3-.29,.08-.11,.16-.21,.22-.31,.05-.11,.1-.21,.14-.3,.03-.1,.05-.19,.07-.27,.06-.16,.04-.3,.06-.38v-.14s0-.05,0-.14c-.02-.09,0-.23-.06-.39Z" style="fill: #e8b356;"/>
        </g>
        <path d="M107.77,130.91c-.18,.02-.36,.04-.55,.05-.05,.02-.11,.02-.18,.02h-.24c-.06,0-.12-.01-.16-.02-.18,0-.35-.03-.52-.04,.34-.01,.67-.02,1-.02,.22,0,.44,0,.65,0Z" style="fill: #e8b356;"/>
        <path d="M98.66,136.29c-.13-1.78,2.21-3.7,7.44-3.87,5.23-.17,9.04,.94,9.22,3.59,.17,2.65-4.01,3.09-4.99,3.67-.98,.58-1.93,1.21-2.64,1.72-.71,.51-1.84,.96-2.63,1.03s-1.06,.08-1.06,.08c0,0,.66-.91,.4-1.87-.26-.96-1.1-.7-2.24-1.16-1.14-.46-3.34-1.07-3.5-3.19Z" style="fill: #e8b356;"/>
      </g>
    </g>
  </g>
</svg>