<?xml version="1.0" encoding="UTF-8"?>
<svg id="b" data-name="圖層 2" xmlns="http://www.w3.org/2000/svg" width="165.25" height="51.48" viewBox="0 0 165.25 51.48">
  <g id="c" data-name="圖層 2">
    <g>
      <path d="M142.88,51.48l22.37-20.18c-3.07-3.07-3.07-8.05,0-11.12L142.88,0H22.37L0,20.18c3.07,3.07,3.07,8.05,0,11.12l22.37,20.18h120.51Z" style="fill: #da4e36;"/>
      <g>
        <path d="M52.38,33.46h-7.24v.79h-1.65v-8.83c-.37,.33-.75,.65-1.14,.94-.15-.31-.5-.91-.82-1.31v6.81h-3.18v1.44h-1.48v-5.68c-.26,.44-.5,.87-.8,1.25-.17-.38-.64-1.25-.95-1.65,1.31-1.83,2.11-4.66,2.58-7.7h-2.1v-1.62h6.12v1.62h-2.36c-.24,1.39-.52,2.71-.86,3.98h3.03v1.17c1.63-1.15,2.92-2.75,3.87-4.69h-1.83v1.83h-1.48v-3.35h3.98c.21-.62,.43-1.27,.6-1.92l1.63,.37c-.15,.52-.3,1.06-.49,1.56h4.28v3.29h-1.57v-1.77h-3.31c-.41,.94-.9,1.83-1.42,2.65h2.04c-.22-.5-.47-1.08-.71-1.52l1.48-.6c.36,.67,.75,1.5,.97,2.12h2.3v1.5h-2.67v1.65h2.47v1.35h-2.47v1.73h2.47v1.37h-2.47v1.73h3.18v1.48Zm-12.37-8.39h-1.67v5.23h1.67v-5.23Zm7.58-.92h-2.45v1.65h2.45v-1.65Zm0,3h-2.45v1.73h2.45v-1.73Zm-2.45,4.83h2.45v-1.73h-2.45v1.73Z" style="fill: #fff;"/>
        <path d="M67.41,21.19h-6.62v-1.42h2.92c-.21-.69-.67-1.79-1.08-2.58l1.46-.54c.47,.81,.95,1.85,1.18,2.54l-1.44,.58h3.59v1.42Zm-.51,10.58c.56-1.04,.94-2.66,1.16-3.98l1.22,.37c-.22,1.46-.58,3.21-1.22,4.29l-1.16-.5v1.27h-4.17v.81h-1.46v-6.46h5.63v4.21Zm.08-7.99h-5.69v-1.41h5.69v1.41Zm-5.69,1.15h5.69v1.41h-5.69v-1.41Zm4.13,4.04h-2.69v2.79h2.69v-2.79Zm7.97-10.16c-.37,3.39-1.31,6.23-4.77,7.87-.19-.4-.62-1-.99-1.29,1.55-.67,2.53-1.58,3.12-2.69-.71-.75-1.81-1.73-2.68-2.46l.94-.96c.71,.58,1.63,1.35,2.34,1.98,.22-.77,.36-1.58,.47-2.44h-3.74v-1.5h9.24s0,.48-.04,.71c-.19,4.81-.37,6.58-.86,7.2-.36,.4-.71,.56-1.25,.63-.47,.06-1.29,.04-2.13,0-.04-.44-.21-1.1-.47-1.54,.79,.08,1.53,.08,1.83,.08,.28,0,.45-.04,.62-.21,.26-.37,.47-1.77,.62-5.37h-2.24Zm.34,13.62c.56,0,.67-.33,.73-2.46,.32,.25,.95,.5,1.37,.6-.17,2.62-.58,3.27-1.95,3.27h-2.26c-1.63,0-2-.46-2-1.98v-4.46h1.5v4.44c0,.5,.09,.6,.71,.6h1.91Zm-1.53-6.52c.77,.87,1.65,2.02,2.04,2.77l-1.12,.83c-.36-.81-1.22-2.02-1.96-2.9l1.05-.69Zm4.26,1.08c.69,1.29,1.38,2.96,1.65,4.02l-1.33,.52c-.22-1.06-.86-2.79-1.53-4.1l1.22-.44Z" style="fill: #fff;"/>
        <path d="M91.53,25.65c-.43,1.79-1.07,3.66-1.8,5.1,.3,.19,.64,.46,1.12,.77,1.27,.81,2.99,.92,5.16,.92,2.28,0,5.41-.17,7.48-.44-.21,.5-.49,1.37-.5,1.85-1.46,.1-4.85,.21-7.05,.21-2.43,0-4.02-.21-5.39-1.02-.75-.44-1.42-1.12-1.81-1.12-.41,0-1.07,1.25-1.55,2.42l-1.18-1.67c.77-1.04,1.53-1.87,2.23-2.17,.51-1,.99-2.33,1.31-3.62h-2.54c.47-1.12,1.03-2.66,1.52-4.12h-2.23v-1.62h4.36c-.43,1.33-.99,2.87-1.48,4.18h1.33l.26-.08,.77,.35v-1.46h4.68v-2.48h-4.19v-1.62h2.56c-.36-.77-.95-1.92-1.48-2.79l1.48-.6c.54,.89,1.25,2.1,1.61,2.83l-1.24,.56h3.35c.62-1.02,1.29-2.41,1.68-3.44l1.76,.56c-.54,.96-1.14,2.02-1.68,2.89h2.53v1.62h-4.58v2.48h5.16v1.63h-5.09c1.59,1.48,3.57,3.31,4.6,4.45l-1.23,1.27c-.88-1.08-2.6-2.79-4.1-4.23-.69,1.52-2.06,3.06-4.66,4.27-.26-.38-.8-1.02-1.22-1.37,3.03-1.21,4.13-2.85,4.51-4.39h-4.45v-.12Zm-3.11-5.21c-.21-.83-.67-2.13-.97-3.14l1.59-.46c.32,.98,.79,2.23,1.03,3.04l-1.65,.56Z" style="fill: #fff;"/>
        <path d="M127.67,26.11v8.12h-1.93v-1.06h-12.98v-7.06h1.95v5.27h4.53v-6.39h-5.58v-6.73h1.83v5h3.74v-6.66h1.93v6.66h3.85v-5h1.93v6.73h-5.78v6.39h4.58v-5.27h1.93Z" style="fill: #fff;"/>
      </g>
    </g>
  </g>
</svg>