<svg xmlns="http://www.w3.org/2000/svg" width="1258.44" height="66.27" viewBox="0 0 1258.44 66.27">
  <defs>
    <style>
      .cls-1 {
        opacity: 0.2;
      }

      .cls-2 {
        fill: #e8b356;
      }

      .cls-3 {
        fill: #ca954a;
      }
    </style>
  </defs>
  <g id="圖層_2" data-name="圖層 2">
    <g id="圖層_1-2" data-name="圖層 1">
      <g class="cls-1">
        <g>
          <path class="cls-2" d="M52.35,1.45A58.31,58.31,0,0,1,68.56,3.34a25.89,25.89,0,0,1,10,5.17A18.15,18.15,0,0,1,83.72,16a25.76,25.76,0,0,1,1.49,8.76,23.21,23.21,0,0,1-1.67,8.76,19.14,19.14,0,0,1-5.49,7.46A27.48,27.48,0,0,1,68,46.1,55.05,55.05,0,0,1,52.35,48H0V1.45Zm-34.17,32H51.62a37.51,37.51,0,0,0,6.91-.55,12.82,12.82,0,0,0,4.54-1.64,6.45,6.45,0,0,0,2.48-2.72,8.92,8.92,0,0,0,.76-3.82,9,9,0,0,0-.76-3.82,6.45,6.45,0,0,0-2.48-2.72,13,13,0,0,0-4.54-1.64A37.6,37.6,0,0,0,51.62,16H18.18Z"/>
          <path class="cls-2" d="M135,49.44q-15.86,0-25.52-2.8T95.43,38.35A21.09,21.09,0,0,1,91,24.72a21.11,21.11,0,0,1,4.4-13.63Q99.82,5.6,109.5,2.8T135,0q15.85,0,25.52,2.8t14.07,8.29A21.11,21.11,0,0,1,179,24.72a21.09,21.09,0,0,1-4.4,13.63q-4.4,5.49-14.07,8.29T135,49.44Zm0-13.81A79.36,79.36,0,0,0,148,34.72a18.42,18.42,0,0,0,8.44-3.27,8.12,8.12,0,0,0,3-6.73,8.08,8.08,0,0,0-3-6.72A18.31,18.31,0,0,0,148,14.72,80.5,80.5,0,0,0,135,13.81a84,84,0,0,0-13.12.91A19.89,19.89,0,0,0,113.1,18a7.87,7.87,0,0,0-3.16,6.72,7.9,7.9,0,0,0,3.16,6.73,20,20,0,0,0,8.8,3.27A82.78,82.78,0,0,0,135,35.63Z"/>
          <path class="cls-2" d="M258.48,33.74l-6.76,3.85V1.45h18.17V48H251.72L197,16.29l6.76-3.93V48H185.55V1.45h18.18Z"/>
          <path class="cls-2" d="M272.8,48,304,1.45h20.22L355.69,48h-20l-27-41.66h10.83L292.8,48Zm16.29-7.05V30h49.73V40.94Z"/>
          <path class="cls-2" d="M346.24,1.45h75.62V15.27H346.24ZM375,14.32h18.17V48H375Z"/>
          <path class="cls-2" d="M427.31,1.45h18.17V48H427.31Z"/>
          <path class="cls-2" d="M497.11,49.44q-15.86,0-25.52-2.8t-14.07-8.29a21,21,0,0,1-4.4-13.63,21.06,21.06,0,0,1,4.4-13.63q4.39-5.49,14.07-8.29T497.11,0Q513,0,522.63,2.8t14.07,8.29a21.11,21.11,0,0,1,4.4,13.63,21.09,21.09,0,0,1-4.4,13.63q-4.41,5.49-14.07,8.29T497.11,49.44Zm0-13.81a79.44,79.44,0,0,0,12.94-.91,18.33,18.33,0,0,0,8.43-3.27,8.09,8.09,0,0,0,3-6.73,8.06,8.06,0,0,0-3-6.72,18.22,18.22,0,0,0-8.43-3.28,80.58,80.58,0,0,0-12.94-.91,84.21,84.21,0,0,0-13.13.91A19.85,19.85,0,0,0,475.19,18,7.88,7.88,0,0,0,472,24.72a7.91,7.91,0,0,0,3.17,6.73A20,20,0,0,0,484,34.72,83,83,0,0,0,497.11,35.63Z"/>
          <path class="cls-2" d="M620.57,33.74l-6.77,3.85V1.45H632V48H613.8l-54.75-31.7,6.77-3.93V48H547.64V1.45h18.18Z"/>
          <path class="cls-2" d="M745,28.57a17.05,17.05,0,0,1-5,11.57q-4.66,4.65-13.71,7t-22.87,2.32a142.91,142.91,0,0,1-18.9-1.12,49.91,49.91,0,0,1-14.25-3.86,21.15,21.15,0,0,1-9-7.45q-3.12-4.73-3.12-11.93a21.79,21.79,0,0,1,3.12-12,21.88,21.88,0,0,1,9-7.71,48.73,48.73,0,0,1,14.25-4.1A129.32,129.32,0,0,1,703.45,0q13.81,0,22.91,2.51T740.1,9.89a18,18,0,0,1,5,11.85H726.21a9.33,9.33,0,0,0-3.2-4.11,18,18,0,0,0-7-2.8,61.29,61.29,0,0,0-12.58-1,82.36,82.36,0,0,0-15.12,1.13q-5.82,1.12-8.51,3.6a8.48,8.48,0,0,0-2.69,6.54,7.61,7.61,0,0,0,2.69,6c1.8,1.55,4.63,2.69,8.51,3.42a85.65,85.65,0,0,0,15.12,1.09,65.47,65.47,0,0,0,12.55-1,18.89,18.89,0,0,0,6.94-2.58,9.11,9.11,0,0,0,3.2-3.53Z"/>
          <path class="cls-2" d="M794.92,49.44q-15.85,0-25.52-2.8t-14.07-8.29a21.09,21.09,0,0,1-4.4-13.63,21.11,21.11,0,0,1,4.4-13.63Q759.72,5.6,769.4,2.8T794.92,0q15.86,0,25.52,2.8t14.07,8.29a21.11,21.11,0,0,1,4.4,13.63,21.09,21.09,0,0,1-4.4,13.63q-4.39,5.49-14.07,8.29T794.92,49.44Zm0-13.81a79.36,79.36,0,0,0,12.94-.91,18.42,18.42,0,0,0,8.44-3.27,8.09,8.09,0,0,0,3-6.73,8.06,8.06,0,0,0-3-6.72,18.31,18.31,0,0,0-8.44-3.28,80.5,80.5,0,0,0-12.94-.91,84,84,0,0,0-13.12.91A19.89,19.89,0,0,0,773,18a7.87,7.87,0,0,0-3.16,6.72A7.9,7.9,0,0,0,773,31.45a20,20,0,0,0,8.8,3.27A82.78,82.78,0,0,0,794.92,35.63Z"/>
          <path class="cls-2" d="M918.38,33.74l-6.76,3.85V1.45H929.8V48H911.62l-54.75-31.7,6.76-3.93V48H845.45V1.45h18.18Z"/>
          <path class="cls-2" d="M934.16,1.45h75.62V15.27H934.16Zm28.72,12.87h18.17V48H962.88Z"/>
          <path class="cls-2" d="M1032.31,28.36v5.81h55.26V48h-73.43V1.45h73.29V15.27h-55.12v5.82h45.08v7.27Z"/>
          <path class="cls-2" d="M1167,33.74l-6.76,3.85V1.45h18.18V48h-18.18l-54.75-31.7,6.76-3.93V48h-18.17V1.45h18.17Z"/>
          <path class="cls-2" d="M1182.82,1.45h75.62V15.27h-75.62Zm28.72,12.87h18.18V48h-18.18Z"/>
        </g>
      </g>
      <g>
        <path class="cls-3" d="M550.68,48c-1.72.49-3.45.93-5.22,1.42V60.2c0,2.57-.49,3.86-2,4.65s-3.59,1-6.69.93a18.44,18.44,0,0,0-1.5-4.78c1.77.09,3.58.09,4.16.09s.84-.22.84-.89V50.82L535.63,52l-1.37-5c1.73-.35,3.81-.84,6-1.37V37.85h-5.45V33h5.45V24.57h5.18V33h5.13v4.87h-5.13v6.46L550,43.16Zm23.51,12.48c0,2.48-.49,3.77-2.13,4.56s-3.85.89-6.9.89a20,20,0,0,0-1.51-4.87c1.73.09,3.76.09,4.34.09s.8-.22.8-.75v-3c-4,1.15-8,2.21-11.33,3.09L556.21,57a22.37,22.37,0,0,1-3.85,9.3,25.41,25.41,0,0,0-4.51-2.92c3.54-4.47,3.89-10.85,3.89-15.36V40.73h22.45Zm-1.38-22h-20V26h20ZM566,53.17a45.74,45.74,0,0,0-9.12-3,37,37,0,0,1-.48,5.31c3.27-.58,7.83-1.51,12.35-2.44V45.2H557v2.88c0,.62,0,1.23-.05,1.9l2-3.36a38.92,38.92,0,0,1,9.3,2.65Zm1.64-23h-9.87v4.07h9.87Z"/>
        <path class="cls-3" d="M587.5,45c0,6.06-.53,14.52-3.23,20a18,18,0,0,0-3.58-2.75c2.3-5,2.52-12.22,2.52-17.62V30.86h7.88V24.53H596v1.81h8.1v3H596v1.51h6.15l.62-.18,3.15.75c-.67,2.08-1.42,4.47-2.13,6.11L600,36.66c.22-.67.49-1.51.76-2.4H594.5v1.42l5-.53.36,2.3-5.4.62c0,.71.26.93,1.06.93h4.78a17.62,17.62,0,0,0,3.1-.22,22.7,22.7,0,0,0,.22,2.52,15.29,15.29,0,0,1-3.14.22h-5.58c-2.74,0-3.58-.93-3.72-3.14l-3,.36-.35-2.35,3.36-.35V34.26H587.5v8.11h16.83V45Zm27.89-3.85c1.07,8.58,3.15,16.42,7.44,20.58A18.78,18.78,0,0,0,619.15,66c-2.83-3.1-4.73-7.53-6-12.79a32,32,0,0,1-6.5,12.74,17.24,17.24,0,0,0-2.39-2.34,2.13,2.13,0,0,1-1,1.19,8,8,0,0,1-3.85.58,11.22,11.22,0,0,0-1-3.14h1.9c.31,0,.4-.09.4-.45V55.56h-2.21l1.72.7-1.59,2.13h1.86V60.6h-3.28v4.25h-3V60.6h-3.32V58.39h1.77a15.39,15.39,0,0,0-1.24-2l1.81-.79h-2.39v9.73h-3.67V52.9h17.31v7.3c4.16-5.71,5.22-13.05,5.44-19.07h-5.09V36.34H610V24.66h5V36.34h7.13v4.79Zm-26,10.71V46.08h12.93v5.76Zm3.37-2.22h6V48.3h-6Zm3,8.77a23.75,23.75,0,0,0,1.81-2.83h-3.8a10,10,0,0,1,1.72,2.83ZM618.22,35a28.51,28.51,0,0,0-3.14-7.57L619,26a28.6,28.6,0,0,1,3.41,7.35Z"/>
        <path class="cls-3" d="M666.82,59.76c0,2.88-.57,4.34-2.48,5.23s-4.6.88-8.5.88a18,18,0,0,0-1.72-5.31c2.43.09,5.4.09,6.24.09s1.06-.27,1.06-1V51.75a29.07,29.07,0,0,0-3,3.81,22,22,0,0,1-9.52-12c-2,5.54-5.09,9.61-10.09,12.27a23.83,23.83,0,0,0-2.39-3.15V65.91H631.1V34.4h15.67c-.13-1.11-.22-2.26-.31-3.41H639V26.38h12a64.1,64.1,0,0,0,.75,8h15.05Zm-30.36-8.67c4.33-2.39,7.12-6.38,8.58-11.56h-8.58ZM653,39.53c1.55,4.87,4.16,8.72,8.41,11.07V39.53Z"/>
        <path class="cls-3" d="M699.35,39.8c-.22.35-.44.75-.71,1.1,5,5.14,10.94,8.24,17.8,10.76A15.16,15.16,0,0,0,713.16,56c-1.59-.71-3-1.41-4.51-2.17v12h-5.4V64.72H688.11V66H683V54.41c-1.55.79-3.09,1.5-4.73,2.16A19.64,19.64,0,0,0,675,52.33c8.19-2.79,15.8-7.75,19.83-14.48ZM682,37.63h-5.13V28.11h16.28c-.39-1-.84-2-1.28-2.83l5.58-1.2a34.23,34.23,0,0,1,1.86,4h15.31v9.52h-5.4V32.89H682Zm10.67-2.21a36.75,36.75,0,0,1-11.38,10,48.81,48.81,0,0,0-3.54-4.07,26.29,26.29,0,0,0,10-7.57Zm10.58,24.65V55.38H688.11v4.69Zm.09-9.34a43.92,43.92,0,0,1-7.44-6.24A40.33,40.33,0,0,1,689,50.73Zm-1.29-16.86c3.72,2.17,8.68,5.57,11.07,8l-3.85,3.36a64.37,64.37,0,0,0-10.85-8.41Z"/>
      </g>
    </g>
  </g>
</svg>
