<?xml version="1.0" encoding="UTF-8"?>
<svg id="_圖層_2" data-name="圖層 2" xmlns="http://www.w3.org/2000/svg" width="332.95" height="77.84" viewBox="0 0 332.95 77.84">
  <g id="_圖層_1-2" data-name="圖層 1">
    <g>
      <path d="M114.92,66.02c-1.12,.32-2.24,.6-3.38,.92v6.97c0,1.66-.32,2.5-1.29,3.01-.95,.49-2.32,.63-4.33,.6-.11-.86-.54-2.21-.98-3.1,1.15,.06,2.32,.06,2.7,.06,.4-.03,.54-.14,.54-.57v-6.08l-3.01,.75-.89-3.24c1.12-.23,2.47-.54,3.9-.89v-5.02h-3.53v-3.16h3.53v-5.45h3.36v5.45h3.33v3.16h-3.33v4.19l2.95-.75,.43,3.16Zm15.23,8.09c0,1.61-.32,2.44-1.38,2.95-1.03,.52-2.5,.57-4.48,.57-.14-.98-.57-2.29-.98-3.16,1.12,.06,2.44,.06,2.81,.06s.52-.14,.52-.49v-1.95c-2.58,.75-5.19,1.43-7.34,2.01l-.8-2.29c-.43,2.18-1.2,4.33-2.5,6.02-.63-.54-2.15-1.55-2.93-1.89,2.29-2.9,2.52-7.03,2.52-9.95v-4.7h14.54v12.82Zm-.89-14.29h-12.94v-8.06h12.94v8.06Zm-4.39,9.52c-1.35-.69-3.9-1.49-5.91-1.95-.03,1.09-.11,2.27-.32,3.44,2.12-.37,5.08-.98,8-1.58v-5.08h-7.66v1.86c0,.4,0,.8-.03,1.23l1.26-2.18c1.98,.32,4.62,1.03,6.02,1.72l-1.38,2.52Zm1.06-14.89h-6.4v2.64h6.4v-2.64Z" style="fill: #ca954a;"/>
      <path d="M139.94,64.04c0,3.93-.34,9.41-2.09,12.97-.49-.52-1.69-1.46-2.32-1.78,1.49-3.24,1.63-7.92,1.63-11.42v-8.92h5.11v-4.1h3.16v1.18h5.25v1.95h-5.25v.98h3.99l.4-.11,2.04,.49c-.43,1.35-.92,2.9-1.38,3.96l-2.41-.57c.14-.43,.32-.98,.49-1.55h-4.07v.92l3.27-.34,.23,1.49-3.5,.4c.03,.46,.17,.6,.69,.6h3.1c.52,0,1.52-.03,2.01-.14,.03,.55,.06,1.12,.14,1.64-.43,.11-1.29,.14-2.04,.14h-3.61c-1.78,0-2.32-.6-2.41-2.04l-1.95,.23-.23-1.52,2.18-.23v-1.15h-2.41v5.25h10.9v1.69h-10.9Zm18.07-2.5c.69,5.57,2.04,10.64,4.82,13.34-.77,.63-1.86,1.86-2.38,2.75-1.84-2.01-3.07-4.88-3.9-8.29-.8,2.95-2.12,5.85-4.22,8.26-.34-.43-.95-1.03-1.55-1.52-.11,.32-.29,.57-.63,.77-.6,.34-1.43,.37-2.5,.37-.09-.63-.34-1.46-.63-2.04h1.23c.2,0,.26-.06,.26-.29v-4.02h-1.43l1.12,.46c-.37,.49-.72,.95-1.03,1.38h1.21v1.43h-2.12v2.75h-1.98v-2.75h-2.15v-1.43h1.15c-.23-.46-.52-.92-.8-1.32l1.18-.52h-1.55v6.31h-2.38v-8.03h11.22v4.73c2.7-3.7,3.39-8.46,3.53-12.36h-3.3v-3.1h3.36v-7.57h3.24v7.57h4.62v3.1h-4.36Zm-16.87,6.94v-3.73h8.38v3.73h-8.38Zm2.18-1.43h3.9v-.86h-3.9v.86Zm1.95,5.68c.43-.57,.89-1.29,1.18-1.84h-2.47c.46,.54,.92,1.26,1.12,1.84h.17Zm14.57-15.15c-.29-1.35-1.12-3.36-2.04-4.91l2.52-.92c.95,1.46,1.89,3.47,2.21,4.76l-2.7,1.06Z" style="fill: #ca954a;"/>
      <path d="M192.5,73.62c0,1.86-.37,2.81-1.61,3.39-1.2,.55-2.98,.57-5.51,.57-.11-.98-.63-2.52-1.12-3.44,1.58,.06,3.5,.06,4.04,.06,.52,0,.69-.17,.69-.63v-5.14c-.69,.75-1.49,1.78-1.92,2.47-3.01-1.78-4.96-4.45-6.17-7.75-1.26,3.59-3.3,6.23-6.54,7.95-.32-.52-.95-1.38-1.55-2.04v8.55h-3.47v-20.42h10.16c-.09-.72-.14-1.46-.2-2.21h-4.85v-2.98h7.8c.06,1.84,.23,3.56,.49,5.19h9.75v16.44Zm-19.68-5.62c2.81-1.55,4.62-4.13,5.56-7.49h-5.56v7.49Zm10.73-7.49c1,3.16,2.7,5.65,5.45,7.17v-7.17h-5.45Z" style="fill: #ca954a;"/>
      <path d="M214.74,60.68c-.14,.23-.29,.49-.46,.72,3.21,3.33,7.09,5.34,11.53,6.97-.77,.75-1.69,1.84-2.12,2.84-1.03-.46-1.98-.92-2.93-1.41v7.8h-3.5v-.77h-9.81v.8h-3.33v-7.49c-1,.52-2.01,.98-3.07,1.41-.49-.83-1.32-2.04-2.12-2.75,5.31-1.81,10.24-5.02,12.85-9.38l2.95,1.26Zm-11.25-1.41h-3.33v-6.17h10.56c-.26-.63-.55-1.29-.83-1.84l3.61-.77c.43,.8,.89,1.75,1.21,2.61h9.93v6.17h-3.5v-3.07h-17.64v3.07Zm6.91-1.43c-1.84,2.58-4.73,5.02-7.37,6.48-.52-.66-1.63-2.01-2.29-2.64,2.5-1.12,5.02-2.95,6.45-4.91l3.21,1.06Zm6.86,15.98v-3.04h-9.81v3.04h9.81Zm.06-6.05c-1.69-1.15-3.3-2.44-4.82-4.04-1.32,1.52-2.81,2.84-4.48,4.04h9.29Zm-.83-10.93c2.41,1.41,5.62,3.61,7.17,5.19l-2.5,2.18c-1.46-1.55-4.53-3.9-7.03-5.45l2.35-1.92Z" style="fill: #ca954a;"/>
    </g>
    <g style="opacity: .2;">
      <g>
        <path d="M27.14,.75c3.39,0,6.19,.33,8.41,.98,2.21,.65,3.95,1.55,5.2,2.68,1.26,1.13,2.14,2.42,2.66,3.86,.51,1.45,.77,2.96,.77,4.54s-.29,3.1-.87,4.54c-.58,1.45-1.53,2.73-2.85,3.86-1.32,1.13-3.07,2.02-5.24,2.68-2.17,.65-4.87,.98-8.09,.98H0V.75H27.14ZM9.42,17.34H26.77c1.41,0,2.6-.09,3.58-.28,.98-.19,1.77-.47,2.36-.85,.59-.38,1.02-.85,1.28-1.41s.4-1.23,.4-1.98-.13-1.41-.4-1.98-.69-1.04-1.28-1.41c-.59-.38-1.38-.66-2.36-.85-.98-.19-2.17-.28-3.58-.28H9.42v9.05Z" style="fill: #e8b356;"/>
        <path d="M70.76,25.63c-5.48,0-9.89-.48-13.23-1.45-3.34-.97-5.77-2.4-7.29-4.3-1.52-1.9-2.28-4.25-2.28-7.07s.76-5.17,2.28-7.07c1.52-1.9,3.95-3.33,7.29-4.3,3.34-.97,7.75-1.45,13.23-1.45s9.89,.48,13.23,1.45c3.34,.97,5.77,2.4,7.29,4.3,1.52,1.9,2.28,4.25,2.28,7.07s-.76,5.17-2.28,7.07c-1.52,1.9-3.95,3.33-7.29,4.3-3.34,.97-7.75,1.45-13.23,1.45Zm0-7.16c2.59,0,4.83-.16,6.71-.47,1.88-.31,3.34-.88,4.37-1.7,1.03-.82,1.55-1.98,1.55-3.49s-.52-2.67-1.55-3.49c-1.03-.82-2.49-1.38-4.37-1.7-1.88-.31-4.12-.47-6.71-.47s-4.86,.16-6.8,.47c-1.95,.31-3.47,.88-4.56,1.7-1.09,.82-1.64,1.98-1.64,3.49s.55,2.67,1.64,3.49c1.09,.82,2.61,1.38,4.56,1.7,1.95,.31,4.22,.47,6.8,.47Z" style="fill: #e8b356;"/>
        <path d="M135.52,17.49l-3.51,2V.75h9.42V24.88h-9.42l-28.39-16.44,3.51-2.04V24.88h-9.42V.75h9.42l28.39,16.74Z" style="fill: #e8b356;"/>
        <path d="M143.7,24.88L159.88,.75h10.48l16.32,24.13h-10.37l-13.99-21.6h5.62l-13.87,21.6h-10.37Zm8.44-3.66v-5.65h25.79v5.65h-25.79Z" style="fill: #e8b356;"/>
        <path d="M182.53,.75h39.21V7.92h-39.21V.75Zm14.89,6.67h9.42V24.88h-9.42V7.43Z" style="fill: #e8b356;"/>
        <path d="M225.32,.75h9.42V24.88h-9.42V.75Z" style="fill: #e8b356;"/>
        <path d="M262.26,25.63c-5.48,0-9.89-.48-13.23-1.45-3.34-.97-5.77-2.4-7.29-4.3-1.52-1.9-2.28-4.25-2.28-7.07s.76-5.17,2.28-7.07c1.52-1.9,3.95-3.33,7.29-4.3,3.34-.97,7.75-1.45,13.23-1.45s9.89,.48,13.23,1.45c3.34,.97,5.77,2.4,7.29,4.3,1.52,1.9,2.28,4.25,2.28,7.07s-.76,5.17-2.28,7.07c-1.52,1.9-3.95,3.33-7.29,4.3-3.34,.97-7.75,1.45-13.23,1.45Zm0-7.16c2.59,0,4.83-.16,6.71-.47,1.88-.31,3.34-.88,4.37-1.7,1.03-.82,1.54-1.98,1.54-3.49s-.52-2.67-1.54-3.49c-1.03-.82-2.49-1.38-4.37-1.7-1.89-.31-4.12-.47-6.71-.47s-4.86,.16-6.8,.47c-1.95,.31-3.47,.88-4.56,1.7-1.09,.82-1.64,1.98-1.64,3.49s.55,2.67,1.64,3.49c1.09,.82,2.61,1.38,4.56,1.7,1.95,.31,4.22,.47,6.8,.47Z" style="fill: #e8b356;"/>
        <path d="M327.03,17.49l-3.51,2V.75h9.42V24.88h-9.42l-28.39-16.44,3.51-2.04V24.88h-9.42V.75h9.42l28.39,16.74Z" style="fill: #e8b356;"/>
        <path d="M54.21,56.05c-.13,2.39-.99,4.39-2.6,5.99-1.61,1.61-3.98,2.81-7.11,3.62s-7.08,1.21-11.86,1.21c-3.64,0-6.91-.19-9.8-.58-2.89-.39-5.35-1.06-7.39-2s-3.59-2.23-4.67-3.86c-1.08-1.63-1.62-3.69-1.62-6.18s.54-4.57,1.62-6.24c1.08-1.67,2.64-3,4.67-4,2.04-.99,4.5-1.7,7.39-2.13,2.89-.43,6.16-.64,9.8-.64,4.77,0,8.73,.43,11.88,1.3,3.14,.87,5.52,2.14,7.12,3.83,1.61,1.68,2.48,3.73,2.6,6.14h-9.8c-.3-.8-.85-1.51-1.66-2.13-.8-.62-2.01-1.1-3.62-1.45-1.61-.35-3.78-.53-6.52-.53-3.22,0-5.83,.2-7.84,.58-2.01,.39-3.48,1.01-4.41,1.87-.93,.85-1.39,1.99-1.39,3.39,0,1.28,.46,2.32,1.39,3.13,.93,.8,2.4,1.39,4.41,1.77,2.01,.38,4.62,.57,7.84,.57,2.74,0,4.91-.16,6.5-.49,1.6-.33,2.8-.77,3.6-1.34,.8-.57,1.36-1.17,1.66-1.83h9.8Z" style="fill: #e8b356;"/>
        <path d="M80.82,66.87c-5.48,0-9.89-.48-13.23-1.45-3.34-.97-5.77-2.4-7.29-4.3-1.52-1.9-2.28-4.25-2.28-7.07s.76-5.17,2.28-7.07c1.52-1.9,3.95-3.33,7.29-4.3,3.34-.97,7.75-1.45,13.23-1.45s9.89,.48,13.23,1.45c3.34,.97,5.77,2.4,7.29,4.3,1.52,1.9,2.28,4.25,2.28,7.07s-.76,5.17-2.28,7.07c-1.52,1.9-3.95,3.33-7.29,4.3-3.34,.97-7.75,1.45-13.23,1.45Zm0-7.16c2.59,0,4.83-.16,6.71-.47,1.88-.31,3.34-.88,4.37-1.7,1.03-.82,1.55-1.98,1.55-3.49s-.52-2.67-1.55-3.49c-1.03-.82-2.49-1.38-4.37-1.7-1.88-.31-4.12-.47-6.71-.47s-4.86,.16-6.8,.47c-1.95,.31-3.47,.88-4.56,1.7-1.09,.82-1.64,1.98-1.64,3.49s.55,2.67,1.64,3.49c1.09,.82,2.61,1.38,4.56,1.7,1.95,.31,4.22,.47,6.8,.47Z" style="fill: #e8b356;"/>
        <path d="M145.59,58.73l-3.51,2v-18.74h9.42v24.13h-9.42l-28.39-16.44,3.51-2.04v18.47h-9.42v-24.13h9.42l28.39,16.74Z" style="fill: #e8b356;"/>
        <path d="M154.52,41.99h39.21v7.16h-39.21v-7.16Zm14.89,6.67h9.42v17.45h-9.42v-17.45Z" style="fill: #e8b356;"/>
        <path d="M206.17,55.94v3.02h28.65v7.16h-38.07v-24.13h38v7.16h-28.58v3.02h23.37v3.77h-23.37Z" style="fill: #e8b356;"/>
        <path d="M276.78,58.73l-3.51,2v-18.74h9.42v24.13h-9.42l-28.39-16.44,3.51-2.04v18.47h-9.42v-24.13h9.42l28.39,16.74Z" style="fill: #e8b356;"/>
        <path d="M285.71,41.99h39.21v7.16h-39.21v-7.16Zm14.89,6.67h9.42v17.45h-9.42v-17.45Z" style="fill: #e8b356;"/>
      </g>
    </g>
  </g>
</svg>