<svg xmlns="http://www.w3.org/2000/svg" width="145.58" height="145.57" preserveAspectRatio="none">
  <defs>
    <style>
      .cls-1 {
        fill-rule: evenodd;
      }
    </style>
  </defs>
  <g id="圖層_2" data-name="圖層 2">
    <g id="圖層_1-2" data-name="圖層 1">
      <path class="cls-1" d="M134.3,89.27a7.52,7.52,0,0,1,1.42-2.84,8.55,8.55,0,0,1,2.4-2.14c3.85-2.24,7.41-5.54,7.46-11.5a17.59,17.59,0,0,0-1.12-6.31l0-.09-.14-.33c0-.11-.09-.21-.13-.32l0,0c-.13-.29-.27-.56-.41-.84-.06-.13-.12-.26-.19-.38l-.12-.2-.26-.42c-.11-.19-.24-.37-.36-.54l-.16-.2c-.15-.2-.31-.39-.47-.57l-.23-.28q-.25-.27-.51-.51l-.58-.49a.85.85,0,0,0-.19-.1l-.14,0a.79.79,0,0,0-.66.14,2.3,2.3,0,0,1-2.05.44.86.86,0,0,1-.21-.07l-.22-.1a2.53,2.53,0,0,1-.66-.48,1.22,1.22,0,0,1-.15-.17,2.35,2.35,0,0,1-.26-.29c-.13-.18-.26-.37-.38-.57h0c-.12-.2-.22-.4-.33-.6s-.21-.4-.32-.59c.21.39.42.8.65,1.19-.22-.38-.43-.79-.63-1.18a11.77,11.77,0,0,1-1-2.53,8.45,8.45,0,0,1,.82-6.22c2.21-3.86,3.65-8.51.71-13.69A17.25,17.25,0,0,0,133.31,33,15,15,0,0,0,129,29.71a10.26,10.26,0,0,0-1.67-.64l-.52-.14h0c-.25-.06-.51-.11-.77-.15a.84.84,0,0,0-.86.49,2.23,2.23,0,0,1-1.55,1.41,2.49,2.49,0,0,1-1.38,0,4.25,4.25,0,0,1-.56-.21l-.36-.17c-.23-.12-.46-.24-.68-.38l-.66-.42a10.89,10.89,0,0,1-2.1-1.69A8.34,8.34,0,0,1,115.43,22a15.07,15.07,0,0,0-2.26-8.57l-.56-.75c-.2-.24-.4-.47-.62-.7l-.34-.34a13.16,13.16,0,0,0-2.48-1.86l-.68-.38-.66-.33-.3-.13-.71-.31-.36-.15-.71-.25a16.48,16.48,0,0,0-2-.52l-.86-.15-.13,0c.33.05.66.1,1,.17a15.87,15.87,0,0,0-2-.28h-.15c-.22,0-.45,0-.67,0h-.28a12.5,12.5,0,0,0-1.74.15l-.16,0-.11,0-.37.08h0l-.16,0a9.36,9.36,0,0,0-1.27.4.83.83,0,0,0-.48.86,2.31,2.31,0,0,1-.65,2c-.9.9-2.41.82-3.77.76-.3,0-.61,0-.91-.07l-.21,0c-.3,0-.59-.09-.89-.15a6.71,6.71,0,0,0,.76.13l-.18,0-.58-.11c-.22,0-.43-.09-.65-.15a7,7,0,0,1-1.5-.57,8.23,8.23,0,0,1-2-1.39,5.81,5.81,0,0,1-.43-.43l-.23-.27a8.69,8.69,0,0,0,.66.7A9.48,9.48,0,0,1,85,8.47l0,0a8.72,8.72,0,0,1-.67-1c-.18-.31-.36-.61-.56-.91a18.24,18.24,0,0,0-1.21-1.71,14.08,14.08,0,0,0-2.87-2.74c-.24-.17-.48-.33-.73-.48l-.48-.27A11.38,11.38,0,0,0,76.56.58a10.78,10.78,0,0,0-2-.45l-.2,0A12.55,12.55,0,0,0,72.78,0c-4.15,0-9,1.49-11.5,4.73a.78.78,0,0,0,0,1,2.29,2.29,0,0,1,.43,2.05C61.38,9,60,9.68,58.83,10.31a11.35,11.35,0,0,1-2.53,1,7.71,7.71,0,0,1-2.1.27h-.09c-.29,0-.57,0-.85-.06l-.23,0h-.11a8.76,8.76,0,0,1-.89-.18c.27.07.55.12.83.17h0a.11.11,0,0,1-.08,0h-.1c-.22,0-.44-.09-.65-.15l-.44-.13a7.71,7.71,0,0,1-.84-.33c-.22-.1-.44-.2-.65-.32h0L50,10.4c-.43-.25-.88-.48-1.33-.71a17.32,17.32,0,0,0-2.23-.9,13.63,13.63,0,0,0-1.55-.42A11.2,11.2,0,0,0,43.7,8.2a11.2,11.2,0,0,1,1.14.17,12.16,12.16,0,0,0-1.21-.18l-.1,0-.51,0h-.61a11.85,11.85,0,0,0-6,1.64c-3.63,2-7,5.77-7.62,9.84a.72.72,0,0,0,0,.32.77.77,0,0,0,.08.19l0,0a1.19,1.19,0,0,0,.15.18,1.07,1.07,0,0,0,.21.13h0a2.55,2.55,0,0,1,.72.46.85.85,0,0,1,.19.19,2.16,2.16,0,0,1,.48.91c.32,1.23-.5,2.49-1.23,3.63a10.64,10.64,0,0,1-1.7,2.11,8.15,8.15,0,0,1-3.42,2c.26-.08.52-.18.78-.28l-.3.12-.48.16a5.33,5.33,0,0,1-.76.2,0,0,0,0,1,0,0,8.58,8.58,0,0,1-1.58.17c-4.46,0-9.2,1.09-12.22,6.23C7.64,40,6.55,44.92,8.08,48.73a.89.89,0,0,0,.33.37.67.67,0,0,0,.21.09.79.79,0,0,0,.35,0,2.76,2.76,0,0,1,1,.06,1.86,1.86,0,0,1,.56.24,2.06,2.06,0,0,1,.4.33c.9.91.82,2.41.76,3.77a11.84,11.84,0,0,1-.41,2.68,8.32,8.32,0,0,1-2.85,4.3,8.83,8.83,0,0,1-1,.67C3.62,63.52.05,66.84,0,72.79a18.43,18.43,0,0,0,.13,2.08V75A17.14,17.14,0,0,0,1.6,80.19a1.11,1.11,0,0,0,.07.16l.15.3.05.09c.07.14.14.28.22.42l0,0c.09.15.17.3.27.44s0,.05,0,.08l.29.43a10,10,0,0,0,.91,1.13,9.23,9.23,0,0,0,1.13,1,.77.77,0,0,0,.18.1l.14,0a.76.76,0,0,0,.65-.14,2.29,2.29,0,0,1,2-.45h0l.22.07.21.09a6,6,0,0,1,2.1,2.71,11.54,11.54,0,0,1,1,2.53,8.37,8.37,0,0,1-.82,6.21c-2.2,3.87-3.64,8.51-.71,13.7.19.34.4.68.62,1a0,0,0,0,1,0,0A17.29,17.29,0,0,0,12.71,113a14.76,14.76,0,0,0,3.93,2.83,11.37,11.37,0,0,0,1.46.58c.24.08.49.14.74.2a7.14,7.14,0,0,0,.78.15.82.82,0,0,0,.85-.49A2.31,2.31,0,0,1,22,114.89a2.66,2.66,0,0,1,1.45.07,1.74,1.74,0,0,1,.36.13l.13,0,.36.17c.46.24.91.53,1.34.8a11.3,11.3,0,0,1,2.09,1.69,8.41,8.41,0,0,1,2.41,5.8,21,21,0,0,0,.31,3.53,2.51,2.51,0,0,0,0,.27,1.05,1.05,0,0,0,.05.19c.05.25.11.5.17.75l0,.12a1.33,1.33,0,0,0,.05.19l0,.08a1.72,1.72,0,0,0,.07.21c.05.17.1.34.16.51s.21.55.33.82c0,.1.08.19.13.29l.17.34c.07.15.14.29.22.43l.28.47.22.34,0,0,0,.06a5.6,5.6,0,0,0,.36.49l.11.13c.17.21.36.42.55.63s.13.16.21.24.37.37.57.55.51.43.8.65l.52.37.56.36.12.08h0l.11.07.36.2.34.19a18.13,18.13,0,0,0,3.7,1.45,16,16,0,0,0,2.47.46h.23a11.22,11.22,0,0,0,5.24-.65.82.82,0,0,0,.49-.85,2.28,2.28,0,0,1,.64-2c.91-.91,2.42-.82,3.77-.76a11.49,11.49,0,0,1,2,.24l.65.16.38.11.38.13a6.88,6.88,0,0,1,.74.32,8.27,8.27,0,0,1,2,1.4l.43.43c.12.13.25.27.36.41a7.85,7.85,0,0,0-.79-.84,8.54,8.54,0,0,1,.82.88h0a8.93,8.93,0,0,1,.68,1,18.56,18.56,0,0,0,2.84,3.83,12.44,12.44,0,0,0,3,2.28A11.38,11.38,0,0,0,69,145a12.22,12.22,0,0,0,2.2.47h0a13,13,0,0,0,1.57.11c4.16,0,9-1.48,11.51-4.71a.82.82,0,0,0,0-1,2.29,2.29,0,0,1-.44-2.06c.33-1.24,1.67-1.91,2.88-2.54a12,12,0,0,1,2.53-1,7,7,0,0,1,1.78-.27h0a6.68,6.68,0,0,1,.89,0h.14c.27,0,.55.07.82.12-.23,0-.46-.07-.7-.1l.29,0,.41.07a7.88,7.88,0,0,1,1.06.28,8,8,0,0,1,1.46.65s0,0,0,0l.73.4a18,18,0,0,0,3.33,1.39l.6.16.15,0a15.34,15.34,0,0,0,1.67.3h.16l.35,0h.12a11.41,11.41,0,0,0,1.17,0h.12q.31,0,.63-.06l.29,0a9.9,9.9,0,0,0,1.16-.23l.18-.05a12.86,12.86,0,0,0,3-1.25c3.62-2,7-5.76,7.6-9.83a.71.71,0,0,0-.07-.42.82.82,0,0,0-.12-.2l-.09-.1a1,1,0,0,0-.23-.15,2.74,2.74,0,0,1-.91-.64,2.37,2.37,0,0,1-.48-.9,2.44,2.44,0,0,1-.06-.71,6.83,6.83,0,0,1,1.28-2.94,12.19,12.19,0,0,1,1.7-2.11A8.29,8.29,0,0,1,122,115.6a8.73,8.73,0,0,1,1.67-.19,21.73,21.73,0,0,0,3.31-.27l.34,0h0l.3-.07q.39-.08.78-.18l.37-.09.71-.23.46-.17.18-.08.53-.23.18-.08.1-.06a11.15,11.15,0,0,0,1.69-1h0l0,0,.44-.35,0,0,.07-.07a12.42,12.42,0,0,0,2.66-3.2c2.1-3.59,3.2-8.52,1.67-12.33a.54.54,0,0,0-.15-.21.69.69,0,0,0-.18-.16.67.67,0,0,0-.21-.09l-.09,0h0a1,1,0,0,0-.25,0,2.56,2.56,0,0,1-1.3-.17,1.82,1.82,0,0,1-.27-.15,1.9,1.9,0,0,1-.42-.34,1.63,1.63,0,0,1-.17-.2l-.07-.09h0l0-.06a2,2,0,0,0,.29.36,3,3,0,0,1-.75-1.93,13.82,13.82,0,0,1,0-1.82A11.84,11.84,0,0,1,134.3,89.27Zm11.2-18v-.06a1.8,1.8,0,0,1,0,.22A.92.92,0,0,0,145.5,71.22Zm-.13-1.13c0-.26-.09-.53-.14-.8C145.28,69.56,145.33,69.82,145.37,70.09ZM145,68.4a.85.85,0,0,0,0-.17A.85.85,0,0,1,145,68.4Zm-.43-1.47-.06-.18ZM144,65.46a1.42,1.42,0,0,0-.08-.18h0A1.42,1.42,0,0,1,144,65.46ZM143.25,64h0l.06.1A.41.41,0,0,0,143.25,64Zm-.68-1-.35-.42ZM134,94.47a.11.11,0,0,0,0,0,3.64,3.64,0,0,0,.11.39v0ZM54.31,11.56c.26,0,.52,0,.78,0l-.36,0Zm72.4,17.36-.21,0a4.54,4.54,0,0,0-.51-.09C126.23,28.82,126.47,28.87,126.71,28.92Zm-19.27-20-.54-.23ZM102.67,7.5h-.17l-.64-.07Zm-1.48-.12h0Zm-.93,0h0Zm-.84.07h0ZM92,11.71a4.19,4.19,0,0,1-.5,0h0a.38.38,0,0,1-.15,0,.14.14,0,0,1-.09,0h0ZM84.89,8.34a8.52,8.52,0,0,1-.61-.87A8.52,8.52,0,0,0,84.89,8.34Zm-28.57,3a6.43,6.43,0,0,1-1,.2h0A6.94,6.94,0,0,0,56.32,11.3Zm-2.52.23h-.3l-.15,0ZM42.88,8.13h0Zm-.78,0h0Zm-1.23.1-.37.06Zm-.95.17-.41.1ZM39,8.64q-.32.09-.63.21Q38.72,8.73,39,8.64Zm-1.34.5-.23.1ZM27.78,27.77c-.12.12-.24.24-.36.34s-.19.16-.28.24A7,7,0,0,0,27.78,27.77Zm-1.44,1.15-.11.06c.21-.12.4-.26.59-.39Zm-.18.1-.12.07c-.22.12-.44.23-.67.33A7.31,7.31,0,0,0,26.16,29ZM10,59l0,0,.18-.23-.12.17S10,59,10,59Zm.27-.39a1.19,1.19,0,0,0,.09-.15l-.06.11ZM11.1,57c0,.15-.11.29-.17.44l0,.07C11,57.32,11,57.15,11.1,57Zm-.31.73-.18.36ZM0,72.8c0,.5,0,1,.07,1.54C0,73.82,0,73.31,0,72.8Zm.2,2.73s0,.07,0,.11S.23,75.57.22,75.53Zm.23,1.23.09.37Zm.43,1.61a.14.14,0,0,1,0,.06A.14.14,0,0,0,.88,78.37Zm.48,1.28,0,.12h0Zm28.87,45.26,0,.42Zm.14,1.49s0,.1,0,.15a.5.5,0,0,0,0,.12C30.4,126.58,30.38,126.49,30.37,126.4Zm.25,1.43.09.36Zm1,2.87,0,0,0,0ZM32.3,132h0l0,0Zm.7.93c.15.19.31.37.48.56C33.31,133.27,33.15,133.09,33,132.9Zm9,5-.15,0Zm1,.16h.09l-.44-.06Zm.78.08h0Zm1,0c.22,0,.43,0,.64,0C45.23,138.18,45,138.2,44.8,138.2Zm3-.4c.32-.09.63-.2.94-.32C48.42,137.6,48.11,137.71,47.79,137.8Zm-2,.35.65-.08Zm1-.13c.24,0,.48-.1.72-.16C47.3,137.92,47.06,138,46.82,138Zm13.86-.82.18.23.21.3a3.87,3.87,0,0,1,.24.37A7.68,7.68,0,0,0,60.68,137.2Zm10.24,8.22-.26,0Zm1,.1-.35,0Zm18.3-11.44c.12,0,.25,0,.37,0C90.47,134.06,90.34,134.06,90.22,134.08Zm1-.07h.1a2.42,2.42,0,0,1,.38,0,.41.41,0,0,1,.11,0h.14A6,6,0,0,0,91.2,134Zm9.46,3.17.59.1c-.27,0-.54-.09-.8-.15Zm1.08.19h0Zm1.11.08h0Zm1.25,0h0Zm2.43-.47.15,0Zm1.27-.47.22-.09Zm17-21.12.45,0Zm1.65-.15h.06l.11,0Zm1.24-.22.54-.13Zm2.49-.78.23-.1Zm1.55-.8-.73.42Zm1.92-1.49h0l.09-.1Zm.75-.8,0,0Zm.72-.92h0Zm-1-15.13a.42.42,0,0,1,0-.1.82.82,0,0,0,.09.19A.41.41,0,0,1,134.2,95.07Z"/>
    </g>
  </g>
</svg>
