<svg viewBox="0 0 36.43 36.54" xmlns="http://www.w3.org/2000/svg"><path d="m7.53 5.73a25.48 25.48 0 0 1 -7.06 6.56l-.47-.39a34.77 34.77 0 0 0 6.16-11.9l5 1.72c-.19.43-.66.74-1.52.7-.44.74-.86 1.48-1.29 2.18h5.46l1.75-2.34s2.07 1.64 3.28 2.85a.89.89 0 0 1 -1 .62zm24.47 16.19 3.55 2.89a2.43 2.43 0 0 1 -1.52.62c-.43 4.33-1.29 6.94-2.89 8a7.68 7.68 0 0 1 -4.17 1 3.18 3.18 0 0 0 -.68-2.43 7 7 0 0 0 -3.2-1.17v-.58c1.4.11 3.78.27 4.48.27s.94 0 1.21-.27c.63-.47 1.21-2.42 1.52-5.35h-10v10.63c0 .23-1.21 1-3.08 1h-.7v-9c-3.86 3.63-9.28 6.28-15.64 8l-.31-.55a33.73 33.73 0 0 0 13.51-10.1h-6.32l-1.48 1.64-3.51-2.34a8.05 8.05 0 0 1 1.48-.82 71.4 71.4 0 0 0 1.29-7.36l4.17 1.91h6.79v-4.65h-12.91l-.35-1.13h24.76l1.8-1.83 3.7 2.77a2.38 2.38 0 0 1 -1.44.74v5.89a5.24 5.24 0 0 1 -3 1.05h-.59v-1.68h-8.19v4.68h9.72zm-15.5 1.83v-4.68h-7.8c-.28 1.45-.63 3.24-.94 4.68zm-7.22-17.28c7.26 1 4.49 6.21 1.84 4.18a7.12 7.12 0 0 0 -2.23-3.9zm23.52-4.4s2.22 1.71 3.63 3c-.12.43-.51.62-1.06.62h-12.52a20.16 20.16 0 0 1 -5.69 5.07l-.51-.35a31.66 31.66 0 0 0 4.96-10.41l4.87 1.87c-.19.47-.66.74-1.48.67-.39.7-.86 1.4-1.29 2.06h7.06zm-12.52 15.87h8.15v-4.68h-8.15zm4.29-11.43c7.61.63 4.88 6.09 2 4.06a7.18 7.18 0 0 0 -2.38-3.78z" fill="#302725"/></svg>