<svg height="70.31" viewBox="0 0 225.69 70.31" width="225.69" xmlns="http://www.w3.org/2000/svg"><path d="m195.14 70.31 30.55-27.56a10.75 10.75 0 0 1 0-15.19l-30.55-27.56h-164.59l-30.55 27.56a10.75 10.75 0 0 1 0 15.19l30.55 27.56z" fill="#ec6531"/><g fill="#fff"><path d="m82.35 43.28v2.44h-22.5v-2.44h12.23a78.92 78.92 0 0 0 3.51-12l2.65.52a115.21 115.21 0 0 1 -3.64 11.48zm-1-13.19h-20.41v-2.44h20.38zm-14.83 12.28a87 87 0 0 0 -2.27-10.59l2.37-.59a88.88 88.88 0 0 1 2.38 10.53zm3.76-14.83a32.17 32.17 0 0 0 -1.21-4.23l2.32-.6c.48 1.3 1.06 3 1.34 4.11z"/><path d="m96.1 37.66a46.89 46.89 0 0 1 3.48 6.66l-2.14 1.19c-.25-.65-.58-1.51-1-2.42-6.16 2.14-7.07 2.53-7.68 3a8.3 8.3 0 0 0 -1-2.47 1.89 1.89 0 0 0 1.14-1.72v-17.68h10v12.4h-7.6v5.8l4.14-1.3c-.45-.86-.88-1.69-1.34-2.45zm-4.8-11.29v2.89h5.28v-2.89zm5.28 8.09v-3h-5.28v3zm12.78 4.76c0 1.2-.21 1.9-.94 2.26a8.26 8.26 0 0 1 -3.63.44 7.67 7.67 0 0 0 -.69-2.28h2.5s.46-.13.46-.47v-12.56h-3.89v20.15h-2.35v-22.36h8.54z"/><path d="m124.11 36.15c-1 .31-2.09.6-3.15.91v7c0 1.27-.26 1.9-1 2.26a8.44 8.44 0 0 1 -3.59.42 9.61 9.61 0 0 0 -.68-2.19 24 24 0 0 0 2.48 0c.35 0 .48-.13.48-.49v-6.32l-3 .86-.65-2.32c1-.23 2.27-.57 3.64-.93v-5.13h-3.31v-2.22h3.31v-5.08h2.36v5.08h3.1v2.23h-3.1v4.5c.93-.26 1.91-.54 2.85-.83zm13.26 8c0 1.23-.25 1.88-1 2.24a10.32 10.32 0 0 1 -3.81.39 8.87 8.87 0 0 0 -.68-2.24c1.16.06 2.35.06 2.68 0s.48-.1.48-.44v-2.54c-2.58.7-5.21 1.4-7.3 1.95l-.81-2.26a12.14 12.14 0 0 1 -2.29 5.75 8.4 8.4 0 0 0 -1.94-1.41c2-2.52 2.22-6.05 2.22-8.65v-4.61h12.45zm-.73-13.49h-11.14v-6.91h11.14zm-9.42 6.29a26.64 26.64 0 0 1 -.33 4.29c2.1-.36 5.1-1 8.11-1.71v-5.15h-7.78zm1.24-1.32a24.78 24.78 0 0 1 5.85 1.79l-.93 1.85a25.31 25.31 0 0 0 -5.81-2zm5.88-9.91h-6.64v3h6.64z"/><path d="m146 28.22v6.37c0 3.43-.27 8.35-1.76 11.6a6.26 6.26 0 0 0 -1.64-1.25c1.33-3 1.43-7.23 1.43-10.37v-8h4.47v-3.7h2.18v1.19h4.77v1.48h-4.77v1h4.06l.33-.08 1.36.36c-.32 1.12-.73 2.42-1.08 3.28l-1.67-.42c.1-.41.28-.93.43-1.48h-4v1l3.08-.34.17 1.17-3.25.37v.05c0 .57.07.73.55.73h2.8a10.49 10.49 0 0 0 1.62-.11c0 .42.08.89.13 1.25a6 6 0 0 1 -1.67.13h-3.11c-1.51 0-1.87-.57-1.89-1.92l-2 .23-.18-1.17 2.2-.23v-1.2zm15.7 3.88c.6 5.4 1.86 10.24 4.42 12.74a9.33 9.33 0 0 0 -1.65 2c-1.84-2-3-5-3.76-8.6a19.64 19.64 0 0 1 -4 8.58 6.69 6.69 0 0 0 -1.19-1.2 1.07 1.07 0 0 1 -.51.52 4.61 4.61 0 0 1 -2.19.29 5.53 5.53 0 0 0 -.48-1.51h1.34c.17 0 .22-.08.22-.26v-4.09h-1.5l1 .42c-.33.47-.68.93-1 1.38h1.21v1.11h-2v2.71h-1.47v-2.71h-2v-1.11h1.11a9.31 9.31 0 0 0 -.83-1.36l1-.44h-1.49v5.85h-1.7v-7.2h9.53v5.1c2.85-3.59 3.43-8.38 3.56-12.22h-3.29v-2.19h3.31v-7h2.25v7h4.34v2.19zm-6.09 2.34h-9.42v-1.3h9.42zm-8.31 4v-3.22h7.15v3.25zm1.57-1.15h3.94v-1h-3.94zm2 5a19.12 19.12 0 0 0 1.19-1.8h-2.65a6.63 6.63 0 0 1 1.08 1.8zm13.16-13.71a16.32 16.32 0 0 0 -2.15-4.18l1.75-.73a16.51 16.51 0 0 1 2.24 4.08z"/></g></svg>