<svg xmlns="http://www.w3.org/2000/svg" width="28.36" height="28.36" viewBox="0 0 28.36 28.36">
  <defs>
    <style>
      .cls-1 {
        fill: #ca954a;
        fill-rule: evenodd;
      }
      .cls-2 {
        fill: #e220be;
      }
    </style>
  </defs>
  <g id="圖層_2" data-name="圖層 2">
    <g id="圖層_1-2" data-name="圖層 1">
      <path class="cls-1" d="M17.39,2.2a1.65,1.65,0,0,1-1-.75A2.53,2.53,0,0,0,14.18,0a2.87,2.87,0,0,0-2.24.92.15.15,0,0,0,0,.19.43.43,0,0,1,.08.4c-.06.24-.32.38-.56.5A2.62,2.62,0,0,1,11,2.2,1.65,1.65,0,0,1,9.76,2,2.54,2.54,0,0,0,7.09,1.9,2.86,2.86,0,0,0,5.61,3.82.16.16,0,0,0,5.7,4,.45.45,0,0,1,6,4.29,1,1,0,0,1,5.74,5a2.47,2.47,0,0,1-.33.41,1.68,1.68,0,0,1-1.13.47A2.52,2.52,0,0,0,1.9,7.09a2.93,2.93,0,0,0-.33,2.4.17.17,0,0,0,.17.1.43.43,0,0,1,.39.12,1,1,0,0,1,.15.74A2.34,2.34,0,0,1,2.2,11a1.68,1.68,0,0,1-.74,1A2.54,2.54,0,0,0,0,14.18a2.87,2.87,0,0,0,.92,2.24.15.15,0,0,0,.19,0,.43.43,0,0,1,.4-.08c.24.06.38.32.5.56a2.62,2.62,0,0,1,.19.49A1.65,1.65,0,0,1,2,18.6a2.54,2.54,0,0,0-.14,2.67,2.86,2.86,0,0,0,1.92,1.48A.16.16,0,0,0,4,22.66a.45.45,0,0,1,.31-.28,1,1,0,0,1,.71.24,2.47,2.47,0,0,1,.41.33,1.7,1.7,0,0,1,.47,1.13,2.52,2.52,0,0,0,1.21,2.38,2.89,2.89,0,0,0,2.4.32.15.15,0,0,0,.1-.16.43.43,0,0,1,.12-.39,1,1,0,0,1,.74-.15,2.34,2.34,0,0,1,.52.08,1.68,1.68,0,0,1,1,.74,2.54,2.54,0,0,0,2.24,1.46,2.87,2.87,0,0,0,2.24-.92.15.15,0,0,0,0-.19.43.43,0,0,1-.08-.4c.06-.24.32-.37.56-.5a2.62,2.62,0,0,1,.49-.19,1.64,1.64,0,0,1,1.21.16,2.54,2.54,0,0,0,2.67.14,2.88,2.88,0,0,0,1.48-1.92.17.17,0,0,0-.09-.17.44.44,0,0,1-.28-.3,1,1,0,0,1,.24-.71A2.12,2.12,0,0,1,23,23a1.7,1.7,0,0,1,1.13-.47,2.52,2.52,0,0,0,2.38-1.21,2.93,2.93,0,0,0,.33-2.4.17.17,0,0,0-.17-.1.43.43,0,0,1-.39-.12,1,1,0,0,1-.15-.74,2.34,2.34,0,0,1,.08-.52,1.65,1.65,0,0,1,.75-1,2.55,2.55,0,0,0,1.45-2.24,2.87,2.87,0,0,0-.92-2.24.15.15,0,0,0-.19,0,.43.43,0,0,1-.4.08c-.24-.06-.37-.33-.5-.56a2.62,2.62,0,0,1-.19-.49,1.65,1.65,0,0,1,.16-1.21,2.54,2.54,0,0,0,.14-2.67,2.88,2.88,0,0,0-1.92-1.48.15.15,0,0,0-.16.09.45.45,0,0,1-.31.28,1,1,0,0,1-.71-.24A2.47,2.47,0,0,1,23,5.41a1.72,1.72,0,0,1-.47-1.13A2.52,2.52,0,0,0,21.27,1.9a2.89,2.89,0,0,0-2.4-.33.17.17,0,0,0-.1.17.43.43,0,0,1-.12.39,1,1,0,0,1-.74.15,2.34,2.34,0,0,1-.52-.08ZM17,3.49a11,11,0,0,1,5,2.86,10.83,10.83,0,0,1,1.76,2.29,11,11,0,0,1,1.11,2.67,11.14,11.14,0,0,1,.38,2.87A10.9,10.9,0,0,1,24.87,17a10.77,10.77,0,0,1-1.11,2.67,10.93,10.93,0,0,1-4.05,4.05,10.79,10.79,0,0,1-2.66,1.11,11.14,11.14,0,0,1-2.87.38,10.9,10.9,0,0,1-2.86-.38,10.77,10.77,0,0,1-2.67-1.11A10.45,10.45,0,0,1,6.36,22a11.11,11.11,0,0,1-3.25-7.83,10.9,10.9,0,0,1,.38-2.86,11.13,11.13,0,0,1,1.1-2.67,11.48,11.48,0,0,1,1.76-2.3,11.31,11.31,0,0,1,2.3-1.76,11.11,11.11,0,0,1,5.53-1.48A11,11,0,0,1,17,3.49Z"/>
      <rect class="cls-2" x="2.83" y="3.21" width="22.56" height="22.31" rx="10.28"/>
    </g>
  </g>
</svg>
