<svg xmlns="http://www.w3.org/2000/svg" width="884.99" height="84.67" viewBox="0 0 884.99 84.67">
  <defs>
    <style>
      .cls-1 {
        opacity: 0.2;
      }

      .cls-2 {
        fill: #e8b356;
      }

      .cls-3 {
        fill: #ca954a;
      }
    </style>
  </defs>
  <g id="圖層_2" data-name="圖層 2">
    <g id="圖層_1-2" data-name="圖層 1">
      <g class="cls-1">
        <g>
          <path class="cls-2" d="M0,82.17V2.49H96.24A74.9,74.9,0,0,1,116.6,5a29.27,29.27,0,0,1,14.32,8.53q5.29,6,5.29,16.31a23.12,23.12,0,0,1-2.49,11.33,17.8,17.8,0,0,1-6.85,7,32.42,32.42,0,0,1-10,3.61,75.36,75.36,0,0,1-11.7,1.38l-9.09-1.75A186.67,186.67,0,0,1,119,52.67q8,1.11,11.2,4c2.12,1.95,3.18,4.76,3.18,8.41v17H102.22V68.85a9.45,9.45,0,0,0-1.43-5.66c-1-1.29-3-2.18-6.23-2.68a104.67,104.67,0,0,0-14.75-.75H31.13V82.17ZM31.13,39H96.24a14.28,14.28,0,0,0,6.29-1.24q2.55-1.24,2.55-4.73a4.41,4.41,0,0,0-2.55-4.42,14.89,14.89,0,0,0-6.29-1.19H31.13Z"/>
          <path class="cls-2" d="M184.52,48.56v10h94.62V82.17H153.39V2.49h125.5V26.15H184.52v10h77.19V48.56Z"/>
          <path class="cls-2" d="M440.38,48.93a29.19,29.19,0,0,1-8.59,19.8q-8,8-23.47,12t-39.16,4a245.43,245.43,0,0,1-32.37-1.93q-14.31-1.93-24.4-6.6A36.21,36.21,0,0,1,297,63.37Q291.6,55.29,291.6,43T297,22.35a37.34,37.34,0,0,1,15.44-13.2q10.08-4.92,24.4-7A223.17,223.17,0,0,1,369.16,0q23.65,0,39.22,4.3t23.54,12.63a30.8,30.8,0,0,1,8.59,20.3H408.13a16,16,0,0,0-5.47-7q-4-3-12-4.79t-21.54-1.74q-15.93,0-25.89,1.93T328.7,31.75A14.5,14.5,0,0,0,324.09,43a13,13,0,0,0,4.61,10.33q4.6,4,14.57,5.85T369.16,61q13.57,0,21.48-1.62T402.53,55a15.73,15.73,0,0,0,5.48-6Z"/>
          <path class="cls-2" d="M487.82,48.56v10h94.62V82.17H456.69V2.49h125.5V26.15H487.82v10H565V48.56Z"/>
          <path class="cls-2" d="M723.51,57.77l-11.58,6.6V2.49h31.13V82.17H711.93L618.18,27.89l11.58-6.72v61H598.63V2.49h31.13Z"/>
          <path class="cls-2" d="M755.51,2.49H885V26.15H755.51Zm49.18,22h31.12V82.17H804.69Z"/>
        </g>
      </g>
      <g>
        <path class="cls-3" d="M311.82,61.18a53.91,53.91,0,0,1-4.16,12c.58.4,1.2.88,2,1.37,3,1.82,7.17,2.08,12.3,2.08a149.56,149.56,0,0,0,17.93-1.15,18.83,18.83,0,0,0-1.5,5.4c-3.72.22-11.47.53-16.6.53-5.89,0-9.56-.48-12.8-2.34-1.81-1-3.4-2.48-4.29-2.48s-2.48,3-3.5,5.53l-3.49-5a16.36,16.36,0,0,1,5.49-4.69,47.05,47.05,0,0,0,2.65-7.48H300c1-2.48,2.21-6,3.32-9.29h-4.69V51h10.84c-.93,3-2,6.47-3.14,9.48h2.52l.76-.22ZM303.5,49.89c-.57-2-1.68-5.09-2.48-7.44L305.85,41c.84,2.34,1.94,5.27,2.56,7.13Zm16.6,8c-.35,5.49-1.55,11.77-4.6,16.16a22.19,22.19,0,0,0-4.56-3.19c3.63-5.18,4-12.66,4-18.06V43.21c6.77-.22,14.39-1.07,18.77-2.44L338,44.62c-4.91,1.6-11.55,2.44-17.7,2.79V53h18.5v4.87h-6.9V74.68h-5.41V57.86Z"/>
        <path class="cls-3" d="M355.6,73.26A31.11,31.11,0,0,1,349,82.12a29.89,29.89,0,0,0-4.2-3.15,20.4,20.4,0,0,0,5.84-7.17Zm11.33-1.77H345.19v-4.6h4V50.47h-3.46V45.86h3.46V41.17h4.73v4.69h5.49V41.17h4.83v4.69h3v4.61h-3V66.89h2.7Zm-13-21V53h5.49V50.47Zm0,9.38h5.49V57.06h-5.49Zm0,7h5.49v-3h-5.49Zm31.21,9.25c0,2.61-.49,4-2,4.83s-3.8,1-7.08.93a18.93,18.93,0,0,0-1.5-5c1.9.14,4,.09,4.64.09s.89-.22.89-.93V67.33H373.3c-.49,5.23-1.59,10.76-4,14.74a15.12,15.12,0,0,0-4.16-3c.13-.27.31-.49.44-.76l-3.67,2.08a44.62,44.62,0,0,0-4.74-6.68l4-2.17a47.34,47.34,0,0,1,4.78,6c2.57-5.53,2.79-13,2.79-18.77V42.59h16.38ZM380,62.64V57.2h-6.37v1.63c0,1.15,0,2.44-.05,3.81Zm-6.37-15.27v5.18H380V47.37Z"/>
        <path class="cls-3" d="M408.49,64.1c-1.73.49-3.46.93-5.23,1.42V76.27c0,2.57-.48,3.85-2,4.65s-3.58,1-6.68.93a18.47,18.47,0,0,0-1.51-4.78c1.77.09,3.59.09,4.16.09s.84-.22.84-.89V66.89L393.44,68l-1.38-5c1.73-.36,3.81-.84,6-1.37V53.92h-5.44V49.05h5.44V40.64h5.18v8.41h5.14v4.87h-5.14v6.46l4.56-1.15ZM432,76.58c0,2.48-.49,3.77-2.12,4.56S426,82,423,82a20,20,0,0,0-1.5-4.87c1.72.09,3.76.09,4.33.09s.8-.22.8-.75v-3c-4,1.15-8,2.21-11.33,3.09L414,73a22.5,22.5,0,0,1-3.85,9.3,25.49,25.49,0,0,0-4.52-2.92c3.54-4.47,3.9-10.85,3.9-15.36V56.8H432Zm-1.37-22h-20V42.1h20Zm-6.77,14.7a45.74,45.74,0,0,0-9.12-3,38.55,38.55,0,0,1-.49,5.31c3.28-.58,7.84-1.51,12.35-2.44V61.27H414.77v2.87c0,.62,0,1.24,0,1.91l1.95-3.37A39.43,39.43,0,0,1,426,65.34Zm1.63-23h-9.87v4.07h9.87Z"/>
        <path class="cls-3" d="M445.31,61.05c0,6.06-.53,14.52-3.23,20a18.06,18.06,0,0,0-3.59-2.74c2.3-5,2.53-12.22,2.53-17.62V46.93h7.87V40.6h4.87v1.81h8.1v3h-8.1v1.51h6.16l.62-.18,3.14.75c-.66,2.08-1.42,4.47-2.13,6.11l-3.71-.89c.22-.66.48-1.5.75-2.39H452.3v1.42l5.05-.53.35,2.3-5.4.62c.05.71.27.93,1.07.93h4.78a17.76,17.76,0,0,0,3.1-.22,20.53,20.53,0,0,0,.22,2.52,15.45,15.45,0,0,1-3.15.22h-5.57c-2.75,0-3.59-.93-3.72-3.14l-3,.35-.36-2.34L449,52.1V50.33h-3.72v8.1h16.82v2.62ZM473.2,57.2c1.06,8.58,3.14,16.42,7.43,20.58A19,19,0,0,0,477,82c-2.83-3.1-4.74-7.53-6-12.79A32.07,32.07,0,0,1,464.43,82,17.24,17.24,0,0,0,462,79.64a2.14,2.14,0,0,1-1,1.19,8.05,8.05,0,0,1-3.85.58,11.13,11.13,0,0,0-1-3.14h1.91c.31,0,.39-.09.39-.45V71.63h-2.21l1.73.7c-.58.76-1.11,1.46-1.6,2.13h1.86v2.21h-3.27v4.25H452V76.67h-3.32V74.46h1.77a15.33,15.33,0,0,0-1.23-2l1.81-.79h-2.39v9.73H445V69h17.3v7.3c4.16-5.71,5.23-13,5.45-19.07h-5.09V52.41h5.18V40.73h5V52.41h7.12V57.2Zm-26,10.71V62.15h12.92v5.76Zm3.36-2.22h6V64.37h-6Zm3,8.77a22.68,22.68,0,0,0,1.82-2.83h-3.81a10,10,0,0,1,1.73,2.83ZM476,51.09a28.85,28.85,0,0,0-3.14-7.57l3.89-1.42a28.6,28.6,0,0,1,3.41,7.35Z"/>
        <path class="cls-3" d="M503.11,68.39c-5.35,2-11.11,4.12-15.53,5.71l-2.17-5c1.68-.49,3.8-1.11,6.11-1.82v-17H486.6V45.38h15.14v4.87h-4.91V65.61l5.44-1.78ZM509,73.26,513,76.14a41,41,0,0,1-11.47,5.8,25.93,25.93,0,0,0-3.18-3.59,35.23,35.23,0,0,0,10.22-5.09h-4.47V49.89h6.95c.22-1,.4-2.08.58-3h-9.34V42.41h25.05v4.43h-9.78c-.35,1.06-.75,2.08-1.11,3h9.25V73.26Zm0-16.68h11.6V53.79H509ZM509,63h11.6V60.12H509Zm0,6.46h11.6V66.58H509Zm10.32,4a65.3,65.3,0,0,1,8.8,5.53L524,82a63.22,63.22,0,0,0-8.54-5.85Z"/>
        <path class="cls-3" d="M569.11,43V81.5h-5.58V78.75H543V81.5h-5.32V43ZM543,48.17v5.08h20.49V48.17Zm0,10v5.23h20.49V58.21Zm20.49,15.41V68.39H543v5.23Z"/>
      </g>
    </g>
  </g>
</svg>
