<?xml version="1.0" encoding="UTF-8"?>
<svg id="_圖層_2" data-name="圖層 2" xmlns="http://www.w3.org/2000/svg" width="312.75" height="52.57" viewBox="0 0 312.75 52.57">
  <g id="_圖層_1-2" data-name="圖層 1">
    <g>
      <g style="opacity: .2;">
        <g>
          <path d="M0,29.04V.88H34.01c2.67,0,5.07,.3,7.19,.9,2.13,.6,3.81,1.61,5.06,3.01,1.25,1.41,1.87,3.33,1.87,5.76,0,1.61-.29,2.95-.88,4-.59,1.06-1.39,1.88-2.42,2.46-1.03,.59-2.2,1.01-3.52,1.28-1.32,.26-2.7,.43-4.14,.48l-3.21-.62c3.49,.03,6.18,.18,8.07,.44s3.21,.74,3.96,1.43c.75,.69,1.12,1.68,1.12,2.97v6.03h-11v-4.71c0-.88-.17-1.55-.51-2-.34-.45-1.07-.77-2.2-.95-1.13-.18-2.87-.26-5.21-.26H11v7.92H0ZM11,13.77h23.01c.88,0,1.62-.15,2.22-.44,.6-.29,.9-.85,.9-1.67,0-.76-.3-1.28-.9-1.56-.6-.28-1.34-.42-2.22-.42H11v4.09Z" style="fill: #e8b356;"/>
          <path d="M65.21,17.16v3.52h33.44v8.36H54.21V.88h44.35V9.24h-33.35v3.52h27.28v4.4h-27.28Z" style="fill: #e8b356;"/>
          <path d="M155.63,17.29c-.15,2.79-1.16,5.12-3.04,7-1.88,1.88-4.64,3.29-8.29,4.22-3.65,.94-8.27,1.41-13.84,1.41-4.25,0-8.07-.23-11.44-.68-3.37-.45-6.25-1.23-8.62-2.33s-4.2-2.6-5.46-4.51c-1.26-1.91-1.89-4.31-1.89-7.22s.63-5.33,1.89-7.28c1.26-1.95,3.08-3.5,5.46-4.66,2.38-1.16,5.25-1.99,8.62-2.49,3.37-.5,7.19-.75,11.44-.75,5.57,0,10.19,.51,13.86,1.52,3.67,1.01,6.44,2.5,8.32,4.47,1.88,1.97,2.89,4.36,3.04,7.17h-11.44c-.35-.94-1-1.77-1.94-2.49-.94-.72-2.35-1.28-4.22-1.69-1.88-.41-4.42-.62-7.61-.62-3.75,0-6.81,.23-9.15,.68-2.35,.46-4.06,1.18-5.15,2.18-1.09,1-1.63,2.32-1.63,3.96,0,1.5,.54,2.71,1.63,3.65,1.08,.94,2.8,1.63,5.15,2.07,2.35,.44,5.4,.66,9.15,.66,3.2,0,5.73-.19,7.59-.57,1.86-.38,3.26-.9,4.2-1.56,.94-.66,1.58-1.37,1.94-2.13h11.44Z" style="fill: #e8b356;"/>
          <path d="M172.39,17.16v3.52h33.44v8.36h-44.44V.88h44.35V9.24h-33.35v3.52h27.28v4.4h-27.28Z" style="fill: #e8b356;"/>
          <path d="M255.68,20.42l-4.09,2.33V.88h11V29.04h-11l-33.13-19.18,4.09-2.38V29.04h-11V.88h11l33.13,19.54Z" style="fill: #e8b356;"/>
          <path d="M266.99,.88h45.76V9.24h-45.76V.88Zm17.38,7.79h11V29.04h-11V8.67Z" style="fill: #e8b356;"/>
        </g>
      </g>
      <g>
        <path d="M70.54,38.86c-.63,2.78-1.58,5.59-2.7,7.8,.37,.26,.77,.57,1.32,.89,1.95,1.18,4.65,1.35,7.97,1.35s8.43-.29,11.62-.75c-.4,.92-.95,2.58-.98,3.5-2.41,.14-7.43,.34-10.76,.34-3.82,0-6.2-.32-8.29-1.52-1.18-.66-2.21-1.61-2.78-1.61-.63,0-1.61,1.95-2.27,3.59l-2.27-3.27c1.18-1.46,2.47-2.55,3.56-3.04,.66-1.38,1.26-3.16,1.72-4.85h-3.84c.66-1.61,1.43-3.87,2.15-6.02h-3.04v-3.04h7.03c-.6,1.95-1.32,4.19-2.04,6.14h1.63l.49-.14,1.46,.63Zm-5.39-7.31c-.37-1.29-1.09-3.3-1.61-4.82l3.13-.92c.54,1.52,1.26,3.41,1.66,4.62l-3.18,1.12Zm10.76,5.16c-.23,3.56-1,7.63-2.98,10.47-.63-.6-2.12-1.69-2.96-2.07,2.35-3.36,2.58-8.2,2.58-11.7v-6.2c4.39-.14,9.32-.69,12.16-1.58l2.78,2.5c-3.18,1.03-7.49,1.58-11.47,1.81v3.61h11.99v3.16h-4.48v10.9h-3.5v-10.9h-4.13Z" style="fill: #ca954a;"/>
        <path d="M100.06,46.69c-1,2.09-2.7,4.33-4.25,5.74-.63-.6-1.95-1.58-2.73-2.04,1.49-1.12,2.98-2.93,3.79-4.65l3.18,.95Zm7.34-1.15h-14.09v-2.98h2.58v-10.64h-2.24v-2.98h2.24v-3.04h3.07v3.04h3.56v-3.04h3.13v3.04h1.95v2.98h-1.95v10.64h1.75v2.98Zm-8.43-13.63v1.66h3.56v-1.66h-3.56Zm0,6.08h3.56v-1.81h-3.56v1.81Zm0,4.56h3.56v-1.95h-3.56v1.95Zm20.22,6c0,1.69-.32,2.58-1.32,3.13-1,.54-2.47,.63-4.59,.6-.11-.89-.54-2.38-.98-3.24,1.23,.09,2.61,.06,3.01,.06,.43,0,.57-.14,.57-.6v-5.65h-4.36c-.32,3.39-1.03,6.97-2.58,9.55-.54-.6-1.95-1.64-2.7-1.92,.09-.17,.2-.32,.29-.49l-2.38,1.35c-.57-1.12-1.95-3.01-3.07-4.33l2.58-1.41c1.03,1.15,2.38,2.73,3.1,3.9,1.66-3.59,1.81-8.43,1.81-12.16v-10.53h10.61v21.74Zm-3.3-8.75v-3.53h-4.13v1.06c0,.75,0,1.58-.03,2.47h4.16Zm-4.13-9.9v3.36h4.13v-3.36h-4.13Z" style="fill: #ca954a;"/>
        <path d="M135.49,40.75c-1.12,.32-2.24,.6-3.38,.92v6.97c0,1.66-.32,2.5-1.29,3.01-.95,.49-2.32,.63-4.33,.6-.11-.86-.55-2.21-.98-3.1,1.15,.06,2.32,.06,2.7,.06,.4-.03,.54-.14,.54-.57v-6.08l-3.01,.75-.89-3.24c1.12-.23,2.47-.54,3.9-.89v-5.02h-3.53v-3.16h3.53v-5.45h3.36v5.45h3.33v3.16h-3.33v4.19l2.95-.75,.43,3.16Zm15.23,8.09c0,1.61-.32,2.44-1.38,2.95-1.03,.52-2.5,.57-4.47,.57-.14-.98-.57-2.29-.98-3.16,1.12,.06,2.44,.06,2.81,.06s.52-.14,.52-.49v-1.95c-2.58,.75-5.19,1.43-7.34,2.01l-.8-2.29c-.43,2.18-1.21,4.33-2.5,6.02-.63-.54-2.15-1.55-2.93-1.89,2.29-2.9,2.52-7.03,2.52-9.95v-4.7h14.54v12.82Zm-.89-14.29h-12.94v-8.06h12.94v8.06Zm-4.39,9.52c-1.35-.69-3.9-1.49-5.91-1.95-.03,1.09-.11,2.27-.32,3.44,2.12-.37,5.08-.98,8-1.58v-5.08h-7.66v1.86c0,.4,0,.8-.03,1.23l1.26-2.18c1.98,.32,4.62,1.03,6.02,1.72l-1.38,2.52Zm1.06-14.89h-6.4v2.64h6.4v-2.64Z" style="fill: #ca954a;"/>
        <path d="M160.52,38.77c0,3.93-.34,9.41-2.09,12.97-.49-.52-1.69-1.46-2.32-1.78,1.49-3.24,1.64-7.92,1.64-11.42v-8.92h5.11v-4.1h3.16v1.18h5.25v1.95h-5.25v.98h3.99l.4-.11,2.04,.49c-.43,1.35-.92,2.9-1.38,3.96l-2.41-.57c.14-.43,.32-.98,.49-1.55h-4.07v.92l3.27-.34,.23,1.49-3.5,.4c.03,.46,.17,.6,.69,.6h3.1c.52,0,1.52-.03,2.01-.14,.03,.54,.06,1.12,.14,1.64-.43,.11-1.29,.14-2.04,.14h-3.61c-1.78,0-2.32-.6-2.41-2.04l-1.95,.23-.23-1.52,2.18-.23v-1.15h-2.41v5.25h10.9v1.69h-10.9Zm18.07-2.5c.69,5.57,2.04,10.64,4.82,13.34-.77,.63-1.86,1.86-2.38,2.75-1.84-2.01-3.07-4.88-3.9-8.29-.8,2.95-2.12,5.85-4.22,8.26-.34-.43-.95-1.03-1.55-1.52-.11,.32-.29,.57-.63,.77-.6,.34-1.43,.37-2.5,.37-.09-.63-.34-1.46-.63-2.04h1.23c.2,0,.26-.06,.26-.29v-4.02h-1.43l1.12,.46c-.37,.49-.72,.95-1.03,1.38h1.2v1.43h-2.12v2.75h-1.98v-2.75h-2.15v-1.43h1.15c-.23-.46-.52-.92-.8-1.32l1.18-.52h-1.55v6.31h-2.38v-8.03h11.22v4.73c2.7-3.7,3.38-8.46,3.53-12.36h-3.3v-3.1h3.36v-7.57h3.24v7.57h4.62v3.1h-4.36Zm-16.87,6.94v-3.73h8.38v3.73h-8.38Zm2.18-1.43h3.9v-.86h-3.9v.86Zm1.95,5.68c.43-.57,.89-1.29,1.18-1.84h-2.47c.46,.55,.92,1.26,1.12,1.84h.17Zm14.57-15.15c-.29-1.35-1.12-3.36-2.04-4.91l2.52-.92c.95,1.46,1.89,3.47,2.21,4.76l-2.7,1.06Z" style="fill: #ca954a;"/>
        <path d="M199.13,43.54c-3.47,1.32-7.2,2.67-10.07,3.7l-1.41-3.27c1.09-.32,2.47-.72,3.96-1.18v-11.02h-3.18v-3.16h9.81v3.16h-3.18v9.95l3.53-1.15,.54,2.95Zm3.79,3.16l2.64,1.86c-1.89,1.46-4.91,2.95-7.43,3.76-.46-.66-1.38-1.69-2.07-2.32,2.32-.72,5.16-2.12,6.63-3.3h-2.9v-15.15h4.5c.14-.66,.26-1.35,.37-1.98h-6.05v-2.87h16.24v2.87h-6.34c-.23,.69-.49,1.35-.72,1.98h6v15.15h-10.87Zm.03-10.81h7.52v-1.81h-7.52v1.81Zm0,4.13h7.52v-1.84h-7.52v1.84Zm0,4.19h7.52v-1.84h-7.52v1.84Zm6.68,2.58c1.81,.98,4.39,2.5,5.71,3.59l-2.7,2.01c-1.18-1.06-3.67-2.7-5.54-3.79l2.52-1.81Z" style="fill: #ca954a;"/>
        <path d="M243.06,27.1v24.93h-3.61v-1.78h-13.28v1.78h-3.44V27.1h20.34Zm-16.9,3.33v3.3h13.28v-3.3h-13.28Zm0,6.51v3.39h13.28v-3.39h-13.28Zm13.28,9.98v-3.39h-13.28v3.39h13.28Z" style="fill: #ca954a;"/>
      </g>
    </g>
  </g>
</svg>