<svg height="66.34" viewBox="0 0 717.12 66.34" width="717.12" xmlns="http://www.w3.org/2000/svg"><g fill="#e8b356" opacity=".2"><path d="m52.35 1.53a58.31 58.31 0 0 1 16.21 1.89 25.75 25.75 0 0 1 10 5.16 18.21 18.21 0 0 1 5.16 7.42 25.76 25.76 0 0 1 1.49 8.76 23.21 23.21 0 0 1 -1.67 8.76 19.07 19.07 0 0 1 -5.49 7.48 27.48 27.48 0 0 1 -10.05 5.17 55.05 55.05 0 0 1 -15.6 1.89h-52.4v-46.53zm-34.17 32h33.44a36.65 36.65 0 0 0 6.91-.53 13.16 13.16 0 0 0 4.55-1.63 6.57 6.57 0 0 0 2.47-2.73 8.92 8.92 0 0 0 .76-3.82 8.9 8.9 0 0 0 -.76-3.82 6.57 6.57 0 0 0 -2.47-2.73 13.15 13.15 0 0 0 -4.55-1.64 37.6 37.6 0 0 0 -6.91-.54h-33.44z"/><path d="m135 49.51q-15.86 0-25.52-2.8t-14.05-8.28a21.14 21.14 0 0 1 -4.43-13.64 21.13 21.13 0 0 1 4.4-13.63q4.39-5.49 14.07-8.29t25.53-2.8q15.85 0 25.52 2.8t14.07 8.29a21.13 21.13 0 0 1 4.41 13.63 21.14 21.14 0 0 1 -4.4 13.64q-4.4 5.49-14.07 8.28t-25.53 2.8zm0-13.81a79.36 79.36 0 0 0 13-.91 18.31 18.31 0 0 0 8.44-3.27 8.12 8.12 0 0 0 3-6.73 8.08 8.08 0 0 0 -3-6.72 18.2 18.2 0 0 0 -8.44-3.27 79.36 79.36 0 0 0 -13-.91 82.78 82.78 0 0 0 -13.12.91 19.77 19.77 0 0 0 -8.8 3.27 7.88 7.88 0 0 0 -3.17 6.72 7.91 7.91 0 0 0 3.17 6.73 19.9 19.9 0 0 0 8.8 3.27 82.78 82.78 0 0 0 13.12.91z"/><path d="m258.48 33.81-6.76 3.85v-36.13h18.17v46.53h-18.17l-54.72-31.7 6.76-3.93v35.63h-18.21v-46.53h18.18z"/><path d="m320.43 49.51q-15.85 0-25.52-2.8t-14.08-8.28a21.14 21.14 0 0 1 -4.39-13.64 21.13 21.13 0 0 1 4.39-13.63q4.41-5.49 14.08-8.29t25.52-2.8q15.84 0 25.52 2.8t14.05 8.29a21.13 21.13 0 0 1 4.4 13.63 21.14 21.14 0 0 1 -4.4 13.64q-4.41 5.49-14.07 8.28t-25.5 2.8zm0-13.81a79.44 79.44 0 0 0 12.94-.91 18.31 18.31 0 0 0 8.43-3.27 8.09 8.09 0 0 0 3-6.73 8.06 8.06 0 0 0 -3-6.72 18.2 18.2 0 0 0 -8.43-3.27 79.44 79.44 0 0 0 -12.94-.91 82.91 82.91 0 0 0 -13.13.91 19.77 19.77 0 0 0 -8.8 3.27 7.9 7.9 0 0 0 -3.16 6.72 7.93 7.93 0 0 0 3.16 6.73 19.9 19.9 0 0 0 8.8 3.27 82.91 82.91 0 0 0 13.13.91z"/><path d="m371 48.06v-46.53h56.2a43.51 43.51 0 0 1 11.85 1.47 17 17 0 0 1 8.36 5q3.09 3.48 3.09 9.52a13.52 13.52 0 0 1 -1.45 6.62 10.44 10.44 0 0 1 -4 4.07 19.4 19.4 0 0 1 -5.82 2.11 43.87 43.87 0 0 1 -6.83.8l-5.31-1a109.19 109.19 0 0 1 13.34.73q4.69.65 6.55 2.36a6.37 6.37 0 0 1 1.85 4.91v10h-18.18v-7.84a5.57 5.57 0 0 0 -.83-3.31c-.56-.75-1.77-1.27-3.64-1.56a61.51 61.51 0 0 0 -8.62-.44h-28.42v13.09zm18.18-25.23h38a8.22 8.22 0 0 0 3.67-.73 2.76 2.76 0 0 0 1.49-2.76 2.57 2.57 0 0 0 -1.49-2.58 8.68 8.68 0 0 0 -3.67-.69h-38z"/><path d="m495.43 1.53v32.72h42.39v13.81h-60.56v-46.53z"/><path d="m544 1.53h18.18v46.53h-18.18z"/><path d="m568 31h19.85c.34 1 1.33 1.88 3 2.58a25.48 25.48 0 0 0 6.65 1.6 74.75 74.75 0 0 0 9.71.55q5.44 0 8.61-.33a11 11 0 0 0 4.48-1.16 2.59 2.59 0 0 0 1.3-2.29c0-.92-.7-1.64-2.1-2.15a29.63 29.63 0 0 0 -7.5-1.08q-5.38-.28-15.13-.29a98.15 98.15 0 0 1 -12.54-.69 32.16 32.16 0 0 1 -8.65-2.18 11.58 11.58 0 0 1 -5-3.78 9.33 9.33 0 0 1 -1.6-5.49 12.1 12.1 0 0 1 3.74-9.13q3.75-3.6 11.34-5.38a85.07 85.07 0 0 1 19-1.78q16.72 0 25.56 4.83t8.83 13.93h-18.8q-.37-2.4-4.51-3.67a42 42 0 0 0 -11.78-1.28 52.73 52.73 0 0 0 -11.23.88q-3.68.87-3.67 3a2 2 0 0 0 1 1.74 9.87 9.87 0 0 0 3.53 1.06 60.22 60.22 0 0 0 7.09.54q4.57.15 11.63.15a97.43 97.43 0 0 1 13.24.76 32.85 32.85 0 0 1 8.83 2.29 11.11 11.11 0 0 1 4.91 3.89 10 10 0 0 1 1.53 5.56 12.2 12.2 0 0 1 -3.5 9q-3.48 3.49-11.05 5.16a94.34 94.34 0 0 1 -19.77 1.67 91.79 91.79 0 0 1 -12.69-.8 54.06 54.06 0 0 1 -10.31-2.36 28.8 28.8 0 0 1 -7.63-3.85 16.74 16.74 0 0 1 -4.77-5.16 12.66 12.66 0 0 1 -1.6-6.34z"/><path d="m641.51 1.53h75.61v13.81h-75.61zm28.72 12.87h18.17v33.66h-18.17z"/></g><g fill="#ca954a"><path d="m186.19 48.1c-1.72.49-3.45.93-5.22 1.42v10.76c0 2.56-.49 3.85-2 4.64s-3.59 1-6.69.93a18.68 18.68 0 0 0 -1.5-4.78c1.77.09 3.59.09 4.16.09s.84-.22.84-.88v-9.39l-4.64 1.11-1.37-5c1.73-.35 3.81-.84 6-1.37v-7.71h-5.44v-4.87h5.44v-8.41h5.23v8.41h5.14v4.87h-5.14v6.47l4.56-1.16zm23.51 12.49c0 2.48-.49 3.76-2.13 4.56s-3.85.88-6.9.88a20.12 20.12 0 0 0 -1.51-4.87c1.73.09 3.77.09 4.34.09s.8-.22.8-.75v-3c-4 1.15-8 2.21-11.33 3.1l-1.24-3.6a22.64 22.64 0 0 1 -3.85 9.3 25.49 25.49 0 0 0 -4.52-2.92c3.54-4.47 3.9-10.85 3.9-15.36v-7.22h22.44zm-1.37-22.05h-20v-12.44h20zm-6.78 14.7a47.18 47.18 0 0 0 -9.11-3 38.41 38.41 0 0 1 -.49 5.31c3.27-.58 7.83-1.5 12.35-2.43v-7.85h-11.82v2.88 1.9l1.94-3.36a38.92 38.92 0 0 1 9.3 2.65zm1.64-23h-9.87v4.08h9.87z"/><path d="m223 45.05c0 6.06-.53 14.52-3.23 20a18.31 18.31 0 0 0 -3.59-2.75c2.3-5 2.52-12.21 2.52-17.61v-13.76h7.88v-6.33h4.87v1.81h8.1v3h-8.1v1.51h6.15l.63-.18 3.14.75c-.67 2.08-1.42 4.47-2.13 6.11l-3.72-.88c.23-.67.49-1.51.76-2.39h-6.28v1.41l5.05-.53.35 2.3-5.4.62c.05.71.27.93 1.06.93h4.78a17.62 17.62 0 0 0 3.1-.22c.05.84.09 1.73.22 2.53a16 16 0 0 1 -3.14.22h-5.58c-2.74 0-3.58-.93-3.71-3.15l-3 .36-.36-2.35 3.37-.35v-1.76h-3.74v8.1h16.82v2.61zm27.9-3.85c1.07 8.59 3.15 16.42 7.44 20.58a18.74 18.74 0 0 0 -3.67 4.22c-2.84-3.1-4.74-7.52-6-12.79a32.11 32.11 0 0 1 -6.53 12.79 16.71 16.71 0 0 0 -2.39-2.35 2.13 2.13 0 0 1 -1 1.2 8.09 8.09 0 0 1 -3.86.57 11.22 11.22 0 0 0 -1-3.14h1.9c.31 0 .4-.09.4-.44v-6.2h-2.19l1.73.71c-.58.75-1.11 1.46-1.6 2.12h1.87v2.21h-3.28v4.25h-3.02v-4.26h-3.32v-2.21h1.77a14.65 14.65 0 0 0 -1.24-2l1.82-.8h-2.39v9.74h-3.68v-12.4h17.34v7.31c4.16-5.71 5.22-13.06 5.45-19.08h-5.09v-4.81h5.17v-11.69h5v11.69h7.12v4.78zm-26 10.71v-5.75h12.9v5.75zm3.36-2.21h6v-1.33h-6zm3 8.76a23.1 23.1 0 0 0 1.82-2.83h-3.81a10.42 10.42 0 0 1 1.73 2.83zm22.49-23.37a28.9 28.9 0 0 0 -3.15-7.57l3.9-1.42a28.6 28.6 0 0 1 3.41 7.35z"/><path d="m281.8 53.68c-5.85 1.73-12.22 3.5-17.09 4.83l-1.29-5.45c1.82-.4 4-.88 6.38-1.5v-17.18h-5.8v-5h16.65v5h-5.65v15.89l6.11-1.59zm22-19.65s0 1.77 0 2.39c-.54 17.92-1 24.39-2.62 26.51a5.05 5.05 0 0 1 -3.89 2.35 40.71 40.71 0 0 1 -6.38.13 12.59 12.59 0 0 0 -1.59-5.18c2.3.18 4.47.18 5.49.18a1.84 1.84 0 0 0 1.73-.75c1.1-1.2 1.59-6.78 2-20.59h-5.94c-.76 11.82-3.32 21.16-13 27a16.74 16.74 0 0 0 -3.72-4.25c8.59-4.87 10.85-12.57 11.42-22.71h-6v-5.11h6.19c.05-2.7.05-5.62.05-8.63h5.36c0 3-.05 5.88-.09 8.63z"/><path d="m324.37 36.06a68.51 68.51 0 0 1 -3.37 6.16v23.78h-4.92v-16.88a38.67 38.67 0 0 1 -3.18 3.63 43.72 43.72 0 0 0 -2.9-4.91 48 48 0 0 0 9.65-13.46zm-.75-9.47a72.42 72.42 0 0 1 -10.85 12.35 35.74 35.74 0 0 0 -2.43-4.34 44.64 44.64 0 0 0 8.59-9.91zm-2.3 35.5a23.39 23.39 0 0 0 3.45-8.19l4 1.55a30.94 30.94 0 0 1 -3.49 8.9zm30.59-10h-13.42c.93 1.55 1.95 3.45 2.53 4.69l-4.08 1.46a60 60 0 0 0 -2.65-5.4l2.26-.75h-13.2v-4.2h28.56zm-17.44-17.89c.08-.7.17-1.46.26-2.25h-10.8v-4.16h11.15c.09-1.2.14-2.26.18-3.28l5.58.18-.44 3.1h11.33v4.21h-11.91c-.13.79-.26 1.55-.35 2.25h10.93v11.68h-24.88v-11.73zm5.53 27.27c1.24 0 1.51-.48 1.64-3.67a14.26 14.26 0 0 0 4 1.55c-.49 4.82-1.73 6-5.14 6h-5.49c-4.55 0-5.66-1.24-5.66-5.09v-5.4h4.65v5.35c0 1.11.27 1.24 1.73 1.24zm-7.39-23.55h-3v4.3h3zm6.68 0h-3.09v4.3h3.09zm3.55 4.3h3.23v-4.3h-3.23zm4.73 11.42a32 32 0 0 1 4.73 8.36l-4.11 1.86a28.64 28.64 0 0 0 -4.43-8.5z"/><path d="m398.07 59.44v5.17h-39.62v-5.17h16.82v-8.55h-12.61v-5.09h12.61v-7.66h-15v-5.14h17.73a65.44 65.44 0 0 0 -6.64-5.4l4.33-3a50.09 50.09 0 0 1 8.5 6.68l-2.32 1.72h14v5.13h-14.8v7.67h12.71v5.09h-12.71v8.55z"/><path d="m426.79 34.2a41.29 41.29 0 0 1 2.35 5.4h15.27v4.87h-22.05c-.13 1.33-.31 2.57-.53 3.86h18.46a17.79 17.79 0 0 1 -.18 2.12c-.75 8.32-1.59 12-3.05 13.55a6 6 0 0 1 -4.34 1.77 60.05 60.05 0 0 1 -6.9 0 12 12 0 0 0 -1.77-5c2.65.26 5.4.31 6.55.31a2.78 2.78 0 0 0 1.95-.49c.84-.66 1.46-2.92 1.94-7.57h-13.85c-1.82 5.4-5.49 10-13.28 12.93a16.69 16.69 0 0 0 -3.23-4.52c10.18-3.5 11.82-9.87 12.57-17h-10.76v-4.83h18.19a44.12 44.12 0 0 0 -1.81-4.38zm-13.63-1.1h-7.79v-4.65h7.79v-3.81h5.22v3.81h5.93v4.65h-5.93v3.63h-5.22zm31.56-4.65v4.65h-7.48v3.63h-5.24v-3.63h-6.15v-4.65h6.15v-3.81h5.23v3.81z"/><path d="m487.78 66h-5.44v-2h-16.6v2h-5.27v-13.74a66.6 66.6 0 0 1 -6.55 1.86 19.91 19.91 0 0 0 -2.7-4.87 62.47 62.47 0 0 0 15.4-5.17 87.66 87.66 0 0 0 -6.95-6 34.61 34.61 0 0 1 -4 2.26 19.25 19.25 0 0 0 -3.63-4.21c7.22-3.14 12.09-7.57 14.78-11.73l5.89 1.24c-.79 1.11-1.59 2.21-2.48 3.32h12.93l.88-.27 3.63 2.17a37.46 37.46 0 0 1 -14.2 15.28h14.29zm-22.17-32.24c-.58.49-1.11.93-1.69 1.37a79.68 79.68 0 0 1 7.57 6.11 32.88 32.88 0 0 0 8.28-7.48zm16.73 25.54v-8.36h-16.6v8.36z"/><path d="m536.65 63.07a96.36 96.36 0 0 0 -7.48-6.33v4.26c0 2.21-.36 3.41-1.82 4.16s-3.23.84-5.75.8a14.79 14.79 0 0 0 -1.42-4.47h3.45s.67-.13.67-.57v-3.92c-2.66 2.21-5.32 4.33-7.66 6.15l-2.7-3.72.17 2.48c-5.22 1.06-10.75 2.08-15 2.92l-1.06-4.73c1.81-.27 4.11-.58 6.55-.89v-11.37h-5.89v-4.47h5.89v-3.23h-3.28v-2c-.62.62-1.28 1.19-1.9 1.72a25.55 25.55 0 0 0 -1.59-5.17 31.14 31.14 0 0 0 8.17-10.22l4 1.46-.66 1.32c2.48 2.31 5.53 5.18 7.08 6.91l-3 3.5c-.4-.49-.89-1.11-1.46-1.73v4.21h-3.1v3.23h5.14v4.47h-5.13v10.71l5-.8.09 1.33c2.61-1.68 6.5-4.38 10.36-7.17v-6.55h-9.61v-4.61h14l.45-2h-12.61c1.15-3.67 2.7-9.56 3.58-14.12l4.92.49c-.22 1-.49 2.08-.75 3.19h7.3l.84-.18 3.59.49c-.53 3.8-1.46 8.27-2.35 12.12h5.67v4.61h-10.18v6.15l.7.44a46.28 46.28 0 0 0 4.47-6.15l4.25 2.39c-1.9 2.13-3.89 4.38-5.66 6.07a81.91 81.91 0 0 1 6.86 5.35zm-34.57-14.07a64.51 64.51 0 0 1 1.63 7.53l-3.58 1a60.51 60.51 0 0 0 -1.46-7.66zm9.73-13.28c-1.37-1.5-3-3.23-4.64-4.82a43.76 43.76 0 0 1 -3.55 4.82zm-1.9 20.5a69.13 69.13 0 0 0 1.42-7.48l3.36.84c-.71 2.52-1.46 5.53-2.08 7.35zm8.68-10.54a40.56 40.56 0 0 1 4.82 5.45l-3.76 2.57a54.19 54.19 0 0 0 -4.65-5.7zm11.41-10.9.48-2.48h-7.21l-.62 2.48z"/></g></svg>