<?xml version="1.0" encoding="UTF-8"?>
<svg id="_圖層_2" data-name="圖層 2" xmlns="http://www.w3.org/2000/svg" width="367.29" height="48.45" viewBox="0 0 367.29 48.45">
  <g id="_圖層_1-2" data-name="圖層 1">
    <g>
      <path d="M73.21,36.63c-1.12,.32-2.24,.6-3.39,.92v6.97c0,1.66-.32,2.5-1.29,3.01-.95,.49-2.32,.63-4.33,.6-.12-.86-.55-2.21-.98-3.1,1.15,.06,2.32,.06,2.7,.06,.4-.03,.55-.14,.55-.57v-6.08l-3.01,.75-.89-3.24c1.12-.23,2.47-.55,3.9-.89v-5.02h-3.53v-3.16h3.53v-5.45h3.36v5.45h3.33v3.16h-3.33v4.19l2.96-.75,.43,3.16Zm15.23,8.09c0,1.61-.32,2.44-1.38,2.95-1.03,.52-2.5,.57-4.48,.57-.14-.98-.57-2.29-.98-3.16,1.12,.06,2.44,.06,2.81,.06s.52-.14,.52-.49v-1.95c-2.58,.75-5.19,1.43-7.34,2.01l-.8-2.29c-.43,2.18-1.21,4.33-2.5,6.02-.63-.55-2.15-1.55-2.93-1.89,2.29-2.9,2.52-7.03,2.52-9.95v-4.7h14.54v12.82Zm-.89-14.29h-12.94v-8.06h12.94v8.06Zm-4.39,9.52c-1.35-.69-3.9-1.49-5.91-1.95-.03,1.09-.11,2.27-.32,3.44,2.12-.37,5.08-.98,8-1.58v-5.08h-7.66v1.86c0,.4,0,.8-.03,1.23l1.26-2.18c1.98,.32,4.62,1.03,6.02,1.72l-1.38,2.52Zm1.06-14.89h-6.4v2.64h6.4v-2.64Z" style="fill: #ca954a;"/>
      <path d="M98.23,34.65c0,3.93-.34,9.41-2.09,12.97-.49-.52-1.69-1.46-2.32-1.78,1.49-3.24,1.63-7.92,1.63-11.42v-8.92h5.11v-4.1h3.16v1.18h5.25v1.95h-5.25v.98h3.99l.4-.11,2.04,.49c-.43,1.35-.92,2.9-1.38,3.96l-2.41-.57c.14-.43,.32-.98,.49-1.55h-4.07v.92l3.27-.34,.23,1.49-3.5,.4c.03,.46,.17,.6,.69,.6h3.1c.52,0,1.52-.03,2.01-.14,.03,.54,.06,1.12,.14,1.64-.43,.11-1.29,.14-2.04,.14h-3.61c-1.78,0-2.32-.6-2.41-2.04l-1.95,.23-.23-1.52,2.18-.23v-1.15h-2.41v5.25h10.9v1.69h-10.9Zm18.07-2.5c.69,5.56,2.04,10.64,4.82,13.34-.77,.63-1.86,1.86-2.38,2.75-1.84-2.01-3.07-4.88-3.9-8.29-.8,2.95-2.12,5.85-4.22,8.26-.34-.43-.95-1.03-1.55-1.52-.11,.32-.29,.57-.63,.77-.6,.34-1.43,.37-2.5,.37-.09-.63-.34-1.46-.63-2.04h1.23c.2,0,.26-.06,.26-.29v-4.02h-1.43l1.12,.46c-.37,.49-.72,.95-1.03,1.38h1.21v1.43h-2.12v2.75h-1.98v-2.75h-2.15v-1.43h1.15c-.23-.46-.52-.92-.8-1.32l1.18-.52h-1.55v6.31h-2.38v-8.03h11.22v4.73c2.7-3.7,3.39-8.46,3.53-12.36h-3.3v-3.1h3.36v-7.57h3.24v7.57h4.62v3.1h-4.36Zm-16.87,6.94v-3.73h8.38v3.73h-8.38Zm2.18-1.43h3.9v-.86h-3.9v.86Zm1.95,5.68c.43-.57,.89-1.29,1.18-1.84h-2.47c.46,.55,.92,1.26,1.12,1.84h.17Zm14.57-15.15c-.29-1.35-1.12-3.36-2.04-4.91l2.52-.92c.95,1.46,1.89,3.47,2.21,4.76l-2.7,1.06Z" style="fill: #ca954a;"/>
      <path d="M137.48,40.25c-3.79,1.12-7.92,2.27-11.07,3.13l-.83-3.53c1.18-.26,2.61-.57,4.13-.98v-11.13h-3.73v-3.21h10.79v3.21h-3.67v10.3c1.32-.34,2.64-.69,3.96-1.03l.43,3.24Zm14.29-12.74s0,1.15-.03,1.55c-.34,11.62-.66,15.81-1.69,17.18-.72,1.03-1.43,1.35-2.52,1.52-.98,.14-2.52,.14-4.13,.09-.06-.98-.46-2.41-1.03-3.36,1.49,.11,2.9,.11,3.56,.11,.52,0,.8-.09,1.12-.49,.72-.77,1.03-4.39,1.29-13.34h-3.84c-.49,7.66-2.15,13.71-8.43,17.47-.52-.89-1.58-2.12-2.41-2.75,5.57-3.16,7.03-8.15,7.4-14.72h-3.87v-3.27h4.02c.03-1.75,.03-3.64,.03-5.59h3.47c0,1.92-.03,3.82-.06,5.59h7.14Z" style="fill: #ca954a;"/>
      <path d="M166.23,28.83c-.63,1.29-1.38,2.64-2.21,3.99h.03v15.4h-3.18v-10.93c-.69,.89-1.41,1.69-2.07,2.35-.34-.72-1.32-2.44-1.86-3.18,2.29-2.18,4.73-5.48,6.25-8.72l3.04,1.09Zm-.49-6.14c-1.86,2.73-4.65,5.91-7.03,8-.34-.77-1.09-2.09-1.58-2.81,1.98-1.66,4.39-4.42,5.56-6.43l3.04,1.23Zm-1.49,23.01c1-1.32,1.81-3.47,2.24-5.31l2.58,1c-.49,1.89-1.23,4.25-2.27,5.77l-2.55-1.46Zm19.82-6.45h-8.69c.6,1,1.26,2.24,1.64,3.04l-2.64,.95c-.34-.89-1.12-2.38-1.72-3.5l1.46-.49h-8.55v-2.73h18.5v2.73Zm-11.3-11.62c.06-.46,.12-.95,.17-1.46h-7v-2.7h7.23c.06-.77,.09-1.46,.11-2.12l3.61,.11-.29,2.01h7.34v2.7h-7.72c-.09,.52-.17,1-.23,1.46h7.09v7.6h-16.12v-7.6h5.79Zm3.61,17.67c.8,0,.98-.32,1.06-2.38,.6,.4,1.81,.83,2.61,1-.32,3.13-1.12,3.9-3.33,3.9h-3.56c-2.95,0-3.67-.8-3.67-3.3v-3.5h2.98v3.47c0,.72,.17,.8,1.12,.8h2.78Zm-4.79-15.26h-1.95v2.78h1.95v-2.78Zm4.33,0h-2.01v2.78h2.01v-2.78Zm2.29,2.78h2.09v-2.78h-2.09v2.78Zm3.07,7.4c1.26,1.69,2.58,3.9,3.04,5.42l-2.67,1.21c-.37-1.49-1.61-3.82-2.87-5.51l2.5-1.12Z" style="fill: #ca954a;"/>
      <path d="M215.15,43.98v3.36h-25.67v-3.36h10.9v-5.54h-8.18v-3.3h8.18v-4.96h-9.7v-3.33h11.47c-1.2-1.18-2.93-2.5-4.3-3.5l2.81-1.95c1.84,1.18,4.3,3.01,5.51,4.33l-1.52,1.12h9.09v3.33h-9.61v4.96h8.23v3.3h-8.23v5.54h11.02Z" style="fill: #ca954a;"/>
      <path d="M234.92,27.62c.57,1.06,1.15,2.44,1.52,3.5h9.9v3.16h-14.29c-.09,.86-.2,1.66-.34,2.5h11.96s-.03,.92-.11,1.38c-.49,5.39-1.03,7.8-1.98,8.78-.77,.8-1.61,1.06-2.81,1.15-.98,.09-2.73,.09-4.48,0-.09-.98-.54-2.29-1.15-3.21,1.72,.17,3.5,.2,4.25,.2,.6,0,.95-.06,1.26-.32,.55-.43,.95-1.89,1.26-4.91h-8.98c-1.18,3.5-3.56,6.45-8.61,8.38-.4-.89-1.32-2.21-2.09-2.93,6.6-2.27,7.66-6.4,8.15-11.02h-6.97v-3.16h11.79c-.34-.95-.75-1.98-1.18-2.84l2.9-.66Zm-8.84-.72h-5.05v-3.01h5.05v-2.47h3.38v2.47h3.84v3.01h-3.84v2.35h-3.38v-2.35Zm20.45-3.01v3.01h-4.85v2.35h-3.39v-2.35h-3.99v-3.01h3.99v-2.47h3.39v2.47h4.85Z" style="fill: #ca954a;"/>
      <path d="M275.6,48.22h-3.53v-1.26h-10.76v1.26h-3.41v-8.89c-1.41,.49-2.81,.86-4.25,1.21-.32-.92-1.12-2.38-1.75-3.16,3.47-.69,6.91-1.84,9.98-3.36-1.23-1.2-2.95-2.67-4.5-3.87-.8,.52-1.66,1.03-2.58,1.46-.52-.83-1.58-2.12-2.35-2.73,4.68-2.04,7.83-4.91,9.58-7.6l3.82,.8c-.52,.72-1.03,1.43-1.61,2.15h8.38l.57-.17,2.35,1.41c-1.98,4.13-5.25,7.4-9.21,9.9h9.27v12.85Zm-14.37-20.88c-.37,.32-.72,.6-1.09,.89,1.66,1.2,3.64,2.75,4.91,3.96,2.12-1.38,3.96-3.01,5.36-4.85h-9.18Zm10.84,16.55v-5.42h-10.76v5.42h10.76Z" style="fill: #ca954a;"/>
      <path d="M308.42,46.33c-1.06-1.09-2.98-2.61-4.85-4.1v2.78c0,1.43-.23,2.21-1.18,2.7-.86,.46-2.09,.55-3.73,.52-.09-.83-.49-2.07-.92-2.9,.95,.03,1.95,.03,2.24,.03,.34,0,.43-.09,.43-.37v-2.61c-1.72,1.43-3.44,2.81-4.96,3.99l-1.75-2.41,.11,1.61c-3.38,.69-6.97,1.35-9.72,1.89l-.69-3.07c1.18-.17,2.67-.37,4.25-.57v-7.34h-3.82v-2.9h3.82v-2.09h-2.12v-1.26c-.4,.4-.83,.77-1.23,1.12-.09-.72-.66-2.55-1.03-3.36,2.01-1.61,4.07-4.07,5.31-6.66l2.55,.95-.43,.86c1.61,1.49,3.59,3.36,4.59,4.48l-1.92,2.27c-.26-.32-.57-.72-.95-1.12v2.73h-2.01v2.09h3.33v2.9h-3.33v6.94l3.24-.52,.06,.86c1.69-1.09,4.22-2.84,6.71-4.65v-4.25h-6.23v-2.98h9.09l.29-1.29h-8.18c.75-2.38,1.75-6.2,2.32-9.15l3.18,.32c-.14,.63-.32,1.35-.49,2.07h4.73l.55-.11,2.32,.32c-.34,2.47-.95,5.36-1.52,7.86h3.67v2.98h-6.6v3.99l.46,.29c1-1.15,2.18-2.78,2.9-3.99l2.75,1.55c-1.23,1.38-2.52,2.84-3.67,3.93,1.72,1.23,3.39,2.5,4.45,3.47l-2.04,2.24Zm-22.4-9.09c.43,1.55,.89,3.59,1.06,4.88l-2.32,.66c-.14-1.35-.54-3.41-.95-4.96l2.21-.57Zm6.31-8.61c-.89-.98-1.95-2.09-3.01-3.13-.69,1.12-1.49,2.15-2.29,3.13h5.31Zm-1.23,13.28c.34-1.35,.75-3.41,.92-4.85l2.18,.54c-.46,1.64-.95,3.59-1.35,4.76l-1.75-.46Zm5.62-6.83c1.09,1.06,2.47,2.52,3.13,3.53l-2.44,1.66c-.63-1-1.98-2.58-3.01-3.73l2.32-1.46Zm7.4-7.09l.32-1.61h-4.68l-.4,1.61h4.76Z" style="fill: #ca954a;"/>
    </g>
    <g style="opacity: .2;">
      <g>
        <path d="M27.14,.79c3.39,0,6.19,.33,8.41,.98,2.21,.65,3.95,1.55,5.2,2.68,1.26,1.13,2.14,2.42,2.66,3.86,.51,1.45,.77,2.96,.77,4.54s-.29,3.1-.87,4.54c-.58,1.45-1.53,2.73-2.85,3.86s-3.07,2.02-5.24,2.68c-2.17,.65-4.87,.98-8.09,.98H0V.79H27.14ZM9.42,17.38H26.77c1.41,0,2.6-.09,3.58-.28,.98-.19,1.77-.47,2.36-.85s1.02-.85,1.28-1.41c.26-.57,.4-1.23,.4-1.98s-.13-1.41-.4-1.98c-.26-.57-.69-1.04-1.28-1.41s-1.38-.66-2.36-.85c-.98-.19-2.17-.28-3.58-.28H9.42v9.05Z" style="fill: #e8b356;"/>
        <path d="M71.51,25.67c-5.48,0-9.89-.48-13.23-1.45-3.34-.97-5.77-2.4-7.29-4.3-1.52-1.9-2.28-4.25-2.28-7.07s.76-5.17,2.28-7.07c1.52-1.9,3.95-3.33,7.29-4.3,3.34-.97,7.75-1.45,13.23-1.45s9.89,.48,13.23,1.45c3.34,.97,5.77,2.4,7.29,4.3,1.52,1.9,2.28,4.25,2.28,7.07s-.76,5.17-2.28,7.07c-1.52,1.9-3.95,3.33-7.29,4.3-3.34,.97-7.75,1.45-13.23,1.45Zm0-7.16c2.59,0,4.83-.16,6.71-.47,1.88-.31,3.34-.88,4.37-1.7,1.03-.82,1.55-1.98,1.55-3.49s-.52-2.67-1.55-3.49c-1.03-.82-2.49-1.38-4.37-1.7-1.89-.31-4.12-.47-6.71-.47s-4.86,.16-6.8,.47c-1.95,.31-3.47,.88-4.56,1.7-1.09,.82-1.64,1.98-1.64,3.49s.55,2.67,1.64,3.49c1.09,.82,2.61,1.38,4.56,1.7,1.95,.31,4.22,.47,6.8,.47Z" style="fill: #e8b356;"/>
        <path d="M137.03,17.53l-3.51,2V.79h9.42V24.92h-9.42l-28.39-16.44,3.51-2.04V24.92h-9.42V.79h9.42l28.39,16.74Z" style="fill: #e8b356;"/>
        <path d="M145.96,24.92L162.14,.79h10.48l16.32,24.13h-10.37l-13.99-21.6h5.62l-13.87,21.6h-10.37Zm8.44-3.66v-5.65h25.79v5.65h-25.79Z" style="fill: #e8b356;"/>
        <path d="M191.96,24.92V.79h29.14c2.29,0,4.34,.26,6.16,.77,1.82,.52,3.27,1.38,4.34,2.58,1.07,1.21,1.6,2.85,1.6,4.94,0,1.38-.25,2.53-.75,3.43-.5,.9-1.19,1.61-2.07,2.11-.88,.5-1.88,.87-3.02,1.09s-2.31,.36-3.54,.41l-2.75-.53c2.99,.03,5.3,.15,6.92,.38,1.62,.23,2.75,.64,3.39,1.23,.64,.59,.96,1.44,.96,2.54v5.16h-9.42v-4.03c0-.75-.15-1.33-.43-1.72-.29-.39-.92-.66-1.88-.81-.97-.15-2.46-.23-4.47-.23h-14.74v6.79h-9.42Zm9.42-13.08h19.72c.75,0,1.39-.13,1.9-.38,.51-.25,.77-.73,.77-1.43,0-.65-.26-1.1-.77-1.34-.52-.24-1.15-.36-1.9-.36h-19.72v3.51Z" style="fill: #e8b356;"/>
        <path d="M247.82,.79V17.76h21.98v7.16h-31.4V.79h9.42Z" style="fill: #e8b356;"/>
        <path d="M274.51,.79h9.42V24.92h-9.42V.79Z" style="fill: #e8b356;"/>
        <path d="M288.46,16.06h10.29c.18,.53,.69,.97,1.55,1.34,.85,.36,2,.64,3.45,.83,1.44,.19,3.12,.28,5.03,.28s3.37-.06,4.47-.17c1.09-.11,1.87-.31,2.32-.6,.45-.29,.68-.68,.68-1.19,0-.48-.36-.85-1.09-1.11-.73-.26-2.02-.45-3.88-.55-1.86-.1-4.47-.15-7.84-.15-2.51,0-4.68-.12-6.5-.36-1.82-.24-3.32-.62-4.49-1.13-1.17-.51-2.03-1.17-2.58-1.96-.55-.79-.83-1.74-.83-2.85,0-1.91,.65-3.49,1.94-4.73,1.29-1.24,3.25-2.17,5.88-2.79,2.63-.62,5.91-.92,9.86-.92,5.78,0,10.2,.84,13.25,2.51,3.05,1.67,4.58,4.08,4.58,7.22h-9.76c-.13-.83-.9-1.46-2.34-1.9-1.43-.44-3.47-.66-6.11-.66s-4.56,.15-5.82,.45c-1.27,.3-1.9,.82-1.9,1.55,0,.38,.18,.68,.53,.9,.35,.23,.96,.41,1.83,.55s2.09,.23,3.68,.28c1.58,.05,3.59,.08,6.03,.08,2.69,0,4.98,.13,6.86,.4,1.88,.26,3.41,.66,4.58,1.19,1.17,.53,2.02,1.2,2.54,2.02,.53,.82,.79,1.78,.79,2.88,0,1.91-.6,3.47-1.81,4.67-1.21,1.21-3.12,2.1-5.73,2.68-2.61,.58-6.03,.87-10.25,.87-2.39,0-4.58-.14-6.58-.41-2-.28-3.78-.68-5.33-1.23-1.56-.54-2.88-1.21-3.96-2-1.08-.79-1.9-1.68-2.47-2.68-.57-.99-.85-2.09-.85-3.3Z" style="fill: #e8b356;"/>
        <path d="M328.08,.79h39.21V7.95h-39.21V.79Zm14.89,6.67h9.42V24.92h-9.42V7.46Z" style="fill: #e8b356;"/>
      </g>
    </g>
  </g>
</svg>