<svg xmlns="http://www.w3.org/2000/svg" width="114.63" height="29.12" viewBox="0 0 114.63 29.12">
  <defs>
    <style>
      .cls-1 {
        fill: none;
        stroke: #e8b356;
        stroke-linejoin: round;
      }
      .cls-2 {
        fill: #e8b356;
      }
    </style>
  </defs>
  <g>
    <path class="cls-1" d="M104.87,28.76l9.26-9.25a7,7,0,0,1,0-9.9L104.87.35"/>
    <animateTransform attributeName="transform" type="translate" from="0 0" to="10 0" dur="1s" repeatCount="indefinite" />
  </g>
  <g>
    <path class="cls-1" d="M9.75.35.5,9.61a7,7,0,0,1,0,9.9l9.25,9.25"/>
    <animateTransform attributeName="transform" type="translate" from="0 0" to="-10 0" dur="1s" repeatCount="indefinite" />
  </g>
  <g>
    <path class="cls-2" d="M34.18,14.59H28.34V19h6.82v2H25.87V6.72H35.1v2H28.34v3.92h5.84Z"/>
    <path class="cls-2" d="M50.05,20.94H47.58L41.25,10.85V20.94H38.78V6.72h2.47L47.6,16.85V6.72h2.45Z"/>
    <path class="cls-2" d="M64.57,8.72H60.13V20.94H57.68V8.72H53.29v-2H64.57Z"/>
    <path class="cls-2" d="M76.34,14.59H70.5V19h6.83v2H68V6.72h9.23v2H70.5v3.92h5.84Z"/>
    <path class="cls-2" d="M86.16,15.47H83.41v5.47H80.94V6.72h5a5.8,5.8,0,0,1,3.8,1.11A3.91,3.91,0,0,1,91.08,11a4,4,0,0,1-.69,2.39,4.38,4.38,0,0,1-1.92,1.49l3.19,5.92v.12H89Zm-2.75-2H86a2.82,2.82,0,0,0,2-.63,2.19,2.19,0,0,0,.71-1.72A2.36,2.36,0,0,0,88,9.36,2.74,2.74,0,0,0,86,8.72H83.41Z"/>
  </g>
</svg>
