<svg height="155.52" viewBox="0 0 229.66 155.52" width="229.66" xmlns="http://www.w3.org/2000/svg"><g fill="#fff"><path d="m123.92 5a3.74 3.74 0 0 1 -2.2-1.7 5.77 5.77 0 0 0 -5.11-3.3 6.58 6.58 0 0 0 -5.1 2.1.33.33 0 0 0 0 .43 1 1 0 0 1 .19.91c-.15.55-.75.85-1.28 1.13a4.92 4.92 0 0 1 -1.12.43 3.75 3.75 0 0 1 -2.76-.37 5.8 5.8 0 0 0 -6.08-.31 6.59 6.59 0 0 0 -3.38 4.38.39.39 0 0 0 .22.38 1 1 0 0 1 .63.69 2.22 2.22 0 0 1 -.54 1.61 4.89 4.89 0 0 1 -.76.94 3.74 3.74 0 0 1 -2.57 1.07c-2 0-4.08.48-5.42 2.77a6.55 6.55 0 0 0 -.74 5.46.36.36 0 0 0 .38.22 1 1 0 0 1 .89.29 2.22 2.22 0 0 1 .33 1.67 4.9 4.9 0 0 1 -.18 1.2 3.79 3.79 0 0 1 -1.69 2.21 5.75 5.75 0 0 0 -3.32 5.1 6.59 6.59 0 0 0 2.1 5.11.36.36 0 0 0 .43 0 1 1 0 0 1 .91-.19c.55.14.86.74 1.14 1.27a5.49 5.49 0 0 1 .43 1.13 3.67 3.67 0 0 1 -.32 2.74 5.8 5.8 0 0 0 -.31 6.08 6.56 6.56 0 0 0 4.31 3.38.36.36 0 0 0 .38-.22 1 1 0 0 1 .69-.62 2.13 2.13 0 0 1 1.61.54 4.84 4.84 0 0 1 .94.75 3.76 3.76 0 0 1 1.07 2.57 5.78 5.78 0 0 0 2.77 5.43 6.6 6.6 0 0 0 5.47.74.39.39 0 0 0 .22-.38 1 1 0 0 1 .28-.89 2.22 2.22 0 0 1 1.67-.34 4.83 4.83 0 0 1 1.19.18 3.73 3.73 0 0 1 2.21 1.7 5.76 5.76 0 0 0 5.11 3.31 6.57 6.57 0 0 0 5.1-2.09.36.36 0 0 0 0-.44 1 1 0 0 1 -.19-.91c.14-.55.74-.85 1.27-1.13a5.75 5.75 0 0 1 1.13-.44 3.69 3.69 0 0 1 2.76.37 5.75 5.75 0 0 0 6.08.31 6.57 6.57 0 0 0 3.37-4.37.35.35 0 0 0 -.22-.37 1 1 0 0 1 -.62-.69 2.2 2.2 0 0 1 .54-1.62 5.16 5.16 0 0 1 .75-.94 3.71 3.71 0 0 1 2.58-1.06 5.8 5.8 0 0 0 5.42-2.77 6.61 6.61 0 0 0 .74-5.47.37.37 0 0 0 -.38-.22 1 1 0 0 1 -.89-.29 2.21 2.21 0 0 1 -.34-1.67 6.24 6.24 0 0 1 .18-1.19 3.76 3.76 0 0 1 1.7-2.21 5.74 5.74 0 0 0 3.31-5.1 6.59 6.59 0 0 0 -2.09-5.11.37.37 0 0 0 -.44 0 1 1 0 0 1 -.91.2c-.55-.15-.85-.75-1.13-1.28a6.16 6.16 0 0 1 -.43-1.11 3.72 3.72 0 0 1 .37-2.75 5.75 5.75 0 0 0 .31-6.08 6.57 6.57 0 0 0 -4.36-3.38.37.37 0 0 0 -.38.22 1 1 0 0 1 -.69.63 2.21 2.21 0 0 1 -1.62-.55 5.53 5.53 0 0 1 -.94-.75 3.7 3.7 0 0 1 -1.06-2.57 5.76 5.76 0 0 0 -2.77-5.42 6.58 6.58 0 0 0 -5.47-.75.38.38 0 0 0 -.22.39 1 1 0 0 1 -.28.89 2.22 2.22 0 0 1 -1.67.33 5 5 0 0 1 -1.2-.18zm-.79 2.93a25.39 25.39 0 0 1 11.31 6.53 25.19 25.19 0 0 1 6.56 24.36 25.1 25.1 0 0 1 -2.52 6.08 25.25 25.25 0 0 1 -9.23 9.24 25.06 25.06 0 0 1 -12.6 3.37 25.32 25.32 0 0 1 -6.53-.85 25.3 25.3 0 0 1 -17.87-17.83 25.47 25.47 0 0 1 0-13 25.54 25.54 0 0 1 6.53-11.31 25.1 25.1 0 0 1 17.83-7.38 25.15 25.15 0 0 1 6.52.85z" fill-rule="evenodd"/><path d="m135.55 44.23a4.76 4.76 0 0 0 -.52.1c-1 .21-2.28.58-3.41.71a41.21 41.21 0 0 1 -9.25.18 34.52 34.52 0 0 1 -10.13-2.44c-1.25-.44-2.32-.66-3.73-1.17a22 22 0 0 0 -2.84-.74 12.74 12.74 0 0 0 -1.66-.11 22.25 22.25 0 0 0 2.48-1.48 13.51 13.51 0 0 0 2.88-2.35c.41-.41.77-.87 1.14-1.32a1.12 1.12 0 0 0 .22-1 1.43 1.43 0 0 0 -.65-.68 1.79 1.79 0 0 0 -1.53.06c-.51.25-.46.7-.82 1a11.08 11.08 0 0 1 -2.11.78c.42-.45.75-.75 1.22-1.32a16.58 16.58 0 0 0 1.32-1.66c.47-.67.82-1.17.37-1.55.93-.46 2.48-1.17 3.45-1.53s1.62-.66 2.54-1l.94-.34a20.78 20.78 0 0 0 -3 4.84 13 13 0 0 0 -1.08 6.58 1.83 1.83 0 0 0 .91 1.15 1 1 0 0 0 1 0 1.88 1.88 0 0 0 .54-.64l.14.14a.72.72 0 0 0 .57.14c.58-.1 1.15-.23 1.73-.32a.3.3 0 0 1 .28.14 10.71 10.71 0 0 0 1 1.63 1.51 1.51 0 0 0 .74.51.69.69 0 0 0 .78-.35 5 5 0 0 0 .56-2.06c0-.48-.13-1-.12-1.44 0-.3 0-.6 0-.9 0-.68 0-1.37 0-2a17.53 17.53 0 0 1 .26-2.27 1.72 1.72 0 0 0 0-1.1 2.85 2.85 0 0 0 -.5-.79 4.08 4.08 0 0 0 -.94-.71 1.52 1.52 0 0 0 -1.74-.05 7.1 7.1 0 0 1 -1.48.87 1.17 1.17 0 0 1 -.52.16 7.68 7.68 0 0 1 1.62-1.9 20.07 20.07 0 0 1 3.41-2.28c.65-.37 2.61-.71 3.31-1a.9.9 0 0 0 0-1.68c-.66-.31-1.75-.45-2.44-.7a2 2 0 0 0 -1.78.1c-1.07.79-3.53 2.46-3.49 2.16a3.44 3.44 0 0 1 1.15-2.12 15.3 15.3 0 0 0 2.37-2.4c.47-.5.4-.44.59-.65a2.36 2.36 0 0 0 .42-.46 17.56 17.56 0 0 0 1.66-1.38c.26-.21 0-.93.08-1.08s-.46-.51-1.34-.56a2.26 2.26 0 0 0 -1.49.6 10.55 10.55 0 0 0 -1.47 2.31 4.42 4.42 0 0 1 -.88 1.92c-.18.19-.24.74-.59.52a3.09 3.09 0 0 1 0-1c.07-.48 0-1.05.07-1.54a4.48 4.48 0 0 1 .08-1.08 1.76 1.76 0 0 0 0-1.18c-.1-.3-.84-.62-1.15-.83a4.84 4.84 0 0 0 -.91-.37c-.31-.1-.73.07-.83 0s-.17.7-.17.7a2.21 2.21 0 0 1 .73 1.43 16.83 16.83 0 0 1 -.2 3.2c-.17 1.1-.36 2.11-.61 3.11a6.58 6.58 0 0 1 -.32 1.73c-.21.1-.35.39-.56.48-.9.41-1 .62-2 1.09-1.42.63-2 .86-3.59 1.55 0-.54-.16-3.08-.16-3.56 1.64-1.21 2.57-1.88 4.11-3.21a.74.74 0 0 0 .17-.68c-.06-.27-.36-.49-.45-.68-.39-.91-.7-.9-1.47-1.49a9.15 9.15 0 0 1 -1.46-1.41 18 18 0 0 1 -1.26-1.56 3.81 3.81 0 0 1 0-.57c0-.23 0-.39 0-.62 0-1.15.05-1.39.33-1.64s-.15-.75-.85-1a1 1 0 0 0 -1 .13 2 2 0 0 0 -.81 2.3 2.14 2.14 0 0 1 .29.79c.07.8.14 1.13.2 1.93a39.38 39.38 0 0 1 .16 4.48 21.84 21.84 0 0 1 -6 2.88 1.94 1.94 0 0 1 -1.12.05l-.47-.09a1.79 1.79 0 0 1 -.35-.1s0 0 0 0a3.37 3.37 0 0 0 .21.31c.51.8.87.76 1.64 1.19a8.62 8.62 0 0 0 2.36 1.11 4.32 4.32 0 0 0 2.76-.26c.32-.18.89-.6 1.2-.77 0 .47.12 3 .1 3.35-.58.4-1.39.81-2 1.15-1 .55-1.89 1-2.93 1.46a.53.53 0 0 1 -.75-.27 1.91 1.91 0 0 1 0-.89 3 3 0 0 1 .08-.41s0-.06-.08 0a4 4 0 0 0 -.29.29 4.2 4.2 0 0 0 -.81 1.36.63.63 0 0 0 .26.78 2.46 2.46 0 0 0 1.58.56c.42 0 .94.09 1.35.1a1.65 1.65 0 0 0 1.15-.42c1.46-1.1 2.9-2 4.27-2.95a9.85 9.85 0 0 1 -1.6 2.77 7.37 7.37 0 0 1 -1.35 1.32 4.21 4.21 0 0 1 -.63.34 1.69 1.69 0 0 0 -.67.27.58.58 0 0 0 -.22.8 2.47 2.47 0 0 0 .4.45c.28.26.8.39 1 .18.4-.37.84-.36 1.33-.57l1.18-.36a5.9 5.9 0 0 1 -1.49 1.36c-.23.16-.83.59-1.07.74a9.22 9.22 0 0 1 -1.6.9 4.13 4.13 0 0 1 -1.21-.14 6.42 6.42 0 0 0 -1.52-.23.87.87 0 0 0 -.91.64 2.43 2.43 0 0 0 -.15 2c.21.37.29.66.77.76a1.47 1.47 0 0 0 1-.11 5.87 5.87 0 0 1 2.43-.69 6.91 6.91 0 0 1 1.76 0 17.89 17.89 0 0 1 2.55.45 14.64 14.64 0 0 1 2 .68c.52.22 3 1.23 3.56 1.47 2.92 1.46 4.05 1.93 5.72 2.68 1.43.63 5.32 2.25 7.72 1.2s4.38-.92 8.14-3.07a4.32 4.32 0 0 0 2-1.16l.32-.54c.04-.11.16-.18-.13-.14zm-18-5.62a1.83 1.83 0 0 1 -.09.52 3.45 3.45 0 0 0 -.81-.51.69.69 0 0 0 -.49 0c-.28.08-.41.11-.61.18a9.66 9.66 0 0 1 -1.2.33.65.65 0 0 1 -.39 0 .32.32 0 0 0 -.19 0 .73.73 0 0 1 -.12-.23 4.21 4.21 0 0 1 0-.71 4.35 4.35 0 0 0 0-.72 3.25 3.25 0 0 1 -.14-.58c0-.54.06-1.08.13-1.61l.11.18a2.17 2.17 0 0 0 1.08.88l.59.2c.2.07.44.06.45.24a.31.31 0 0 1 -.11.26 1 1 0 0 1 -.41.23c-.06 0-.05.05 0 0a3.46 3.46 0 0 0 .53-.14l.39-.09.42-.13a2.67 2.67 0 0 0 .51 0 1.4 1.4 0 0 0 .4-.11 17.15 17.15 0 0 1 -.09 1.81zm-2.74-6a2.92 2.92 0 0 0 .74.29 2 2 0 0 0 1 0 2.86 2.86 0 0 1 .81-.17c.3 0 .42.21.43.48v2.26a2.19 2.19 0 0 0 -.41-.26 4.69 4.69 0 0 0 -1.84-.48 1.2 1.2 0 0 0 -.87.17 1.82 1.82 0 0 1 -.76.32h-.23a10.07 10.07 0 0 1 .59-2.39c.08-.19.16-.37.25-.55a.88.88 0 0 0 .25.36zm-9.1-10.71c0-.51 0-2 .05-2.51a14.36 14.36 0 0 0 1.15 2 1.27 1.27 0 0 1 .32.73.46.46 0 0 1 -.28.45 6.27 6.27 0 0 1 -1.09.49c-.06-.36-.13-.76-.15-1.16z"/><path d="m122.88 23.21a2.92 2.92 0 0 0 2.23.68 6.45 6.45 0 0 0 2.43-1 13.84 13.84 0 0 1 0 1.82 1.7 1.7 0 0 1 0 .22 5.78 5.78 0 0 1 -1.43-.3 4.62 4.62 0 0 1 -.57-.24c-.07 0-.07 0 0 .06s.28.29.42.44c.3.31.86.81 1.18 1.1a7.43 7.43 0 0 0 -1 1.62c-.54 1.11-1 2.18-1.43 3.35-.38 1-.77 2-1.16 2.95a35.21 35.21 0 0 0 -1.37 4.1 2.56 2.56 0 0 0 -.2.91 2.07 2.07 0 0 0 .33 1.21 5.48 5.48 0 0 1 .38.6.57.57 0 0 0 .24.42c.17.14.9.18 1.07-.31a20.53 20.53 0 0 0 .68-2.59 47.09 47.09 0 0 1 1.23-4.81 1.1 1.1 0 0 0 1 .07 2.8 2.8 0 0 0 .64-.44s.09-.09.12-.09l.11.1a.67.67 0 0 1 .07.52 4.54 4.54 0 0 1 -.8 1.33 4.91 4.91 0 0 1 -.7.81 4.79 4.79 0 0 0 -.67.68.43.43 0 0 0 .12.61 1.19 1.19 0 0 0 .49.1 1.51 1.51 0 0 1 .37.06h.07a1.15 1.15 0 0 1 .54.67 1 1 0 0 1 -.23.73 2.08 2.08 0 0 1 -.53.39 4.46 4.46 0 0 0 -.52.31s-.06 0 0 0l.62-.11c.42-.08.78.09 1.16 0a2.76 2.76 0 0 0 1.59-1.1 1.38 1.38 0 0 0 -.24-1.37 2.19 2.19 0 0 0 -1.12-.65 2.29 2.29 0 0 0 -1.52.22 11.65 11.65 0 0 0 2.15-2 3.09 3.09 0 0 0 .57-1.93 1.67 1.67 0 0 0 -.83-1.33c-.43-.21-.92.13-1.25.37a4.12 4.12 0 0 1 -1 .5c.12-.34.24-.73.37-1.07a3 3 0 0 1 .71-1 3.74 3.74 0 0 1 .59-.46 3 3 0 0 1 1.46-.52c.32 0 .37.51.37.78 0 1.7.08 3.4.09 5.1a51.47 51.47 0 0 1 -.25 5.69 3.62 3.62 0 0 1 -2.26 2.7 2 2 0 0 1 -1.63 0 1.61 1.61 0 0 1 -.87-.83c0-.08-.07-.09-.11-.13a.4.4 0 0 1 -.06-.21s-.06 0-.06 0a2.09 2.09 0 0 0 0 .25 2 2 0 0 0 .07.32 1.8 1.8 0 0 0 .29.59 3.08 3.08 0 0 0 2.36 1.14 4 4 0 0 0 2.5-.53c.81-.51 1.81-1.27 1.93-2.3a41.43 41.43 0 0 0 .4-4.17 51.67 51.67 0 0 0 -.16-8.25 2.12 2.12 0 0 0 -1.38-1.63 2.65 2.65 0 0 0 -1.78 0 5.26 5.26 0 0 0 -1 .6 12.26 12.26 0 0 0 -2.23 2.39 24.21 24.21 0 0 1 1.3-2.5 7.42 7.42 0 0 1 1.23-1.34c1 0 1-.71 1.07-1.26.58-.71 1.3-1.55 1.9-2.24a27 27 0 0 0 2.33-2.64 4.47 4.47 0 0 0 .4-.7c.16-.39-.32-1-.59-1.17a2.94 2.94 0 0 0 -1.11-.64 1 1 0 0 0 -.88.17 1.39 1.39 0 0 0 -.31.52c0 .12-.08.27-.13.4a6.62 6.62 0 0 1 -1.68 1.63c0-1.06 0-2.11 0-3.17a3.31 3.31 0 0 1 .19-1.25 1.22 1.22 0 0 0 -.08-1.31c-.11-.12-.26-.2-.38-.31s-.26-.39-.5-.56a9.14 9.14 0 0 1 -.93-.71l-.3-.27s0 0 0 0 0 .26 0 .39a2.19 2.19 0 0 0 .09.5 5.6 5.6 0 0 1 .06 1 22.93 22.93 0 0 0 .2 2.62 15.9 15.9 0 0 1 .27 2.39q0 .66 0 1.32a4 4 0 0 1 -2.11.54 4.43 4.43 0 0 1 -1.69-.3 4.36 4.36 0 0 1 -1.32-.84 1.56 1.56 0 0 1 -.51-.8c-.07-.25-.14-.48-.19-.74s-.09-.12-.1 0-.06.49-.08.76a6.31 6.31 0 0 0 0 1.23 3.21 3.21 0 0 0 1.26 2.14zm6.13-.94a12.76 12.76 0 0 0 1.71-2.27c.08-.11.08-.05.06 0a9.26 9.26 0 0 1 -1.78 3.88c0-.31 0-1.3 0-1.61z"/><path d="m65.45 90.43-4.09 1 3.21 12.92-3.06.76-3.2-12.91-4.09 1-.67-2.73 11.22-2.78z"/><path d="m84 100.58-3.23.56-1.38-2.64-5.64 1-.48 3-3.27.5 3-16.88 2.43-.42zm-5.89-4.58-2.94-5.44-1 6.12z"/><path d="m89.86 100-3.12.36-1.89-16 3.15-.36z"/><path d="m105.26 93.81a6 6 0 0 1 -1.71 3.85 6.35 6.35 0 0 1 -8.32.13 5.22 5.22 0 0 1 -1.58-2.69 23.6 23.6 0 0 1 -.42-3.62 24.11 24.11 0 0 1 0-3.65 5 5 0 0 1 1.17-2.83 6 6 0 0 1 4.22-2 5.86 5.86 0 0 1 4 1.09 6.15 6.15 0 0 1 2.2 3.61l-3.19.21a2.6 2.6 0 0 0 -2.86-2.11 2.56 2.56 0 0 0 -2.12 1.2q-.56.9-.33 4.35l.09 1.45c0 .29.06.59.11.9.32 2 1.31 2.95 3 2.85a2.62 2.62 0 0 0 2.56-2.55z"/><path d="m120.66 98.77h-3.14l.06-6.72h-5.45l-.06 6.72h-3.15l.15-16.11h3.14l-.06 6.59h5.46l.06-6.59h3.14z"/><path d="m137.06 94.42a5.33 5.33 0 0 1 -2 4 6 6 0 0 1 -4.36 1.2 5.91 5.91 0 0 1 -4.06-1.88 5.33 5.33 0 0 1 -1.38-4.25l.88-10.55 3.13.26-.86 10.44a3.06 3.06 0 0 0 .55 2.2 2.61 2.61 0 0 0 2 1 2.69 2.69 0 0 0 2.14-.64 3.17 3.17 0 0 0 .91-2.09l.86-10.44 3.11.26z"/><path d="m152.88 102.38-2.76-.45-4.74-10.77-1.57 9.76-3.11-.51 2.57-15.9 2.73.49 4.73 10.76 1.61-9.76 3.11.5z"/><path d="m169.85 99.56a7.31 7.31 0 0 1 -2.58 4.36 5.65 5.65 0 0 1 -4.93.75 5.9 5.9 0 0 1 -3.8-2.74 5.3 5.3 0 0 1 -.71-3 23.33 23.33 0 0 1 .69-3.58 23.66 23.66 0 0 1 1-3.5 5.11 5.11 0 0 1 2-2.37 6 6 0 0 1 4.65-.68 5.76 5.76 0 0 1 4.68 6.45l-3.1-.76a2.73 2.73 0 0 0 -2.28-3c-1.55-.37-2.68.39-3.4 2.3l-.55 2.28c-.29 1.11-.47 1.88-.55 2.32-.31 2 .35 3.18 2 3.57a2.86 2.86 0 0 0 2.31-.29 3.11 3.11 0 0 0 1.3-2l.14-.59-2.88-.71.62-2.55 5.92 1.45z"/><path d="m13.15 142.71a7.43 7.43 0 0 1 1.32 4.89 5.68 5.68 0 0 1 -2.91 4.06 5.89 5.89 0 0 1 -4.62.8 5.21 5.21 0 0 1 -2.66-1.61 23.41 23.41 0 0 1 -2.09-3 23.76 23.76 0 0 1 -1.78-3.19 5 5 0 0 1 -.28-3.1 6 6 0 0 1 2.75-3.81 6.11 6.11 0 0 1 4.17-1 6.16 6.16 0 0 1 3.72 2.16l-2.71 1.7a2.73 2.73 0 0 0 -3.72-.45c-1.35.85-1.6 2.19-.73 4l1.25 2c.59 1 1 1.65 1.28 2 1.2 1.61 2.51 2 3.93 1.09a2.85 2.85 0 0 0 1.4-1.86 3.08 3.08 0 0 0 -.5-2.3l-.33-.52-2.51 1.57-1.39-2.23 5.16-3.22z"/><path d="m28.44 137.34a5.35 5.35 0 0 1 0 4.43 6 6 0 0 1 -3.33 3.06 5.93 5.93 0 0 1 -4.48.18 5.36 5.36 0 0 1 -3.16-3.16l-4-9.79 2.91-1.2 4 9.69a3.09 3.09 0 0 0 1.5 1.71 2.57 2.57 0 0 0 2.2 0 2.62 2.62 0 0 0 1.61-1.54 3.09 3.09 0 0 0 -.14-2.26l-4-9.69 2.88-1.19z"/><path d="m46.3 137.71-3.15.92-1.71-2.47-5.5 1.6-.13 3-3.15.92 1.11-17.11 2.36-.69zm-6.41-3.86-3.53-5.07-.31 6.22z"/><path d="m60.9 134.64-2.74.57-8.26-8.38 2 9.68-3.08.63-3.27-15.77 2.75-.57 8.25 8.36-2-9.66 3.08-.64z"/><path d="m75.7 125.78a7.35 7.35 0 0 1 -.78 5 5.67 5.67 0 0 1 -4.31 2.52 5.92 5.92 0 0 1 -4.55-1.14 5.24 5.24 0 0 1 -1.77-2.56 22.47 22.47 0 0 1 -.69-3.6 23.62 23.62 0 0 1 -.33-3.64 5.08 5.08 0 0 1 1-2.95 6 6 0 0 1 4.06-2.35 5.78 5.78 0 0 1 6.74 4.26l-3.17.45a2.73 2.73 0 0 0 -3.21-1.93q-2.37.33-2.31 3.39l.32 2.33c.15 1.14.27 1.92.36 2.35q.66 2.94 3.15 2.6a2.83 2.83 0 0 0 2-1.14 3 3 0 0 0 .48-2.3l-.08-.61-2.94.41-.37-2.59 6-.85z"/><path d="m89.64 117.75-4.19.37 1.18 13.26-3.14.28-1.17-13.26-4.2.37-.24-2.77 11.51-1z"/><path d="m97.3 130.67-3.14.17-.86-16.09 3.14-.17z"/><path d="m114.25 130.22-3.28.06-1-2.83-5.73.1-.92 2.87-3.28.06 5.57-16.22h2.47zm-5.17-5.41-2.08-5.81-1.93 5.9z"/><path d="m129.29 130.64-2.79-.09-6.09-10.07-.3 9.87-3.14-.09.49-16.11 2.8.09 6.08 10.06.3-9.87 3.15.1z"/><path d="m151.46 119.15-4.19-.41-1.27 13.26-3.13-.32 1.32-13.24-4.19-.44.28-2.79 11.51 1.15z"/><path d="m163.88 134.4-10.49-1.58 2.41-15.93 10.49 1.58-.42 2.78-7.38-1.12-.57 3.74 6.29.95-.42 2.77-6.29-1-.58 3.87 7.38 1.12z"/><path d="m181.79 138.2-3.07-.69 2.05-9.17-4.34 5.3-2.08-.47-1.69-6.64-2 9.17-3.07-.69 3.52-15.72 3 .67 2.21 9.43 6-7.6 3 .68z"/><path d="m200.34 132.36a4.68 4.68 0 0 1 -2.56 3 5.49 5.49 0 0 1 -4 .15l-3-1-1.85 5.77-3-1 4.94-15.28 5.95 1.91a5.42 5.42 0 0 1 3.19 2.48 4.69 4.69 0 0 1 .33 3.97zm-3-1a2.15 2.15 0 0 0 -.11-1.75 2.37 2.37 0 0 0 -1.42-1.08l-2.8-.9-1.36 4.22 2.8.9a2.44 2.44 0 0 0 1.79-.05 2 2 0 0 0 1.1-1.29z"/><path d="m209.42 148.32-9.56-4.24 6.55-14.73 2.87 1.28-5.4 12.16 6.68 3z"/><path d="m220.77 155.52-8.85-5.86 8.89-13.44 8.85 5.86-1.54 2.34-6.23-4.12-2.09 3.15 5.31 3.51-1.55 2.34-5.31-3.51-2.16 3.26 6.23 4.13z"/></g></svg>