<svg height="51.99" viewBox="0 0 293.86 51.99" width="293.86" xmlns="http://www.w3.org/2000/svg"><path d="m0 0h293.86v51.99h-293.86z" fill="#c69c6d"/><g fill="#fff"><path d="m30.71 22.83a4.06 4.06 0 0 1 .94.5 2.33 2.33 0 0 0 .79.35l.45-.32v-.19h.44l.18.55-.19.54a2.39 2.39 0 0 0 .67 1 2.59 2.59 0 0 1 .74 1.16h.17l.44 1.25 1.53.16.06.43h.74.81s.7-.06 1.12-.11a12.32 12.32 0 0 0 1.25-.15q1.77-.4 3.51-.84l.06-.5-.09-.4.24-.35h-.36l-3.64.09-1-.56a4.92 4.92 0 0 1 -1.07-2.4h-.16l-.46.12.23.11a1.7 1.7 0 0 1 .33.82 8.53 8.53 0 0 1 0 .89l-.32 1.13h-.16l-.17.57-1.41.37v-.57h.15a2.36 2.36 0 0 0 .12-.75v-1l-.23-1.05-.42.32-.51-.24-.46-.88-.37-.29-.13-.86h.8l.24.07a32.1 32.1 0 0 1 4.81-1.15c1.64-.26 3.32-.48 5-.66a9.46 9.46 0 0 1 2.27.67 10.39 10.39 0 0 0 2.14.73h.16v.26l.1.15.42.13v.1h.19v.69h-.27l-.23.48-1.16.8c-.21.46-.4.9-.56 1.34a3.81 3.81 0 0 0 -.25 1.39v.14l-.28.11-.08 1.2h-.38v-.06h-.2a3.45 3.45 0 0 1 -.47 1.1l-.71.26-.16-.6-.43.33v-.32l-.45.27v-.35h-.26c-.82.23-1.65.48-2.5.74a11.55 11.55 0 0 1 -2.69.48l-.36-.03-2.36.13a8.16 8.16 0 0 0 -2.18.38h-.09l-.59-.37-.28-.75-.3-.39.08-.54c-.49-.85-1-1.73-1.43-2.64a15.35 15.35 0 0 0 -1.72-2.65l-.29-.34zm10.23 1v.63l1.37.14.23-.15.49-.11.1.08.7-.17.8.08.06-.61-.08-.26.23-2.35h-.42a11.3 11.3 0 0 1 -2.56.91c-.75.17-1.5.37-2.24.61l1.07.27a2.92 2.92 0 0 1 .16.37 1 1 0 0 1 0 .21 1.29 1.29 0 0 1 .09.3zm6.5 3.54a.49.49 0 0 1 0 .12.41.41 0 0 0 0-.17z"/><path d="m62.36 18v-.36h.41a.61.61 0 0 0 .09.09.88.88 0 0 0 .65.28h.38a1.32 1.32 0 0 1 1 .52 12.38 12.38 0 0 1 .66 3.86v.79s-.23.75-.29 1l-.11.44a.83.83 0 0 0 0 .15s0 .1 0 .14 0 .1 0 .15 0 .1-.05.14 0 .1 0 .15a.91.91 0 0 1 -.07.14c0 .09-.08.2-.13.31l-1.4 1.2-.89.62-.3.23-.16.31-.38-.2a10.24 10.24 0 0 0 .87-3.32c.11-1.19.17-2.4.17-3.64a1.67 1.67 0 0 1 -.3-.83 2.13 2.13 0 0 0 -.2-.73l-.16-.3h.2l-.16-1zm7.31 10.08v.24h-.53v-1.62c0-1.38-.14-2.73-.25-4.06a20.38 20.38 0 0 0 -.71-3.83l.34-.91h.25l.08-.27h1.63a1.23 1.23 0 0 1 .16.15 1.71 1.71 0 0 1 .53 1.1v1.31l-.1.43.1 1.82c-.12.94-.24 1.89-.35 2.84a5.83 5.83 0 0 1 -1 2.64v.07zm7.14-14.23 1.08.46.2.3h.51l.91.91v2.18c0 .86-.09 1.74-.13 2.63a25.29 25.29 0 0 1 -.21 2.55l.08.9-.08.26.27 3.55a14.84 14.84 0 0 0 -.41 3.2 6.62 6.62 0 0 1 -.86 3.14v.06l-.2.08-.23 1.39-.35-1.16.19-2.45c-.3-3-.51-5.92-.62-8.9s-.27-6-.45-9.11z"/><path d="m91.26 17.11h.59l1.21 1 .53-.57.71-.39v-.28h.19v-.45h.67l.22.1 1.62-.75v-.3l1-.14 2 1.23.16.52-.21.37h-.83l-.15.47a4.93 4.93 0 0 0 -.29 1.49c0 .54-.07 1.07-.12 1.6l.08.79c-.12 1-.21 1.9-.26 2.83s-.08 1.89-.08 2.88l.1 1.09h-.3-.09l-.09.28h-.64a1.21 1.21 0 0 1 -.39-.27.88.88 0 0 1 -.29-.67 2.37 2.37 0 0 0 -.09-.65l-.28.12v.18l-.71.35v.22l-.35.08v.22h-.17v.16h-.26v.19h-.39l-.22.22v.18l-.45.08v.23h-.38v.12l-1.92.44-.53-1.45q.57-.72.66-.87l-.45.45.44-1a9.54 9.54 0 0 0 .72-2.93c.09-1 .13-2.11.13-3.23a13.81 13.81 0 0 0 -.29-1.88 7.13 7.13 0 0 0 -.63-1.72zm.67 16.32v-.74h.21l.19-.62-.07-.07.2-1.11-.13-.42.09-.08a1.26 1.26 0 0 1 .91-.39h.32.68l.35.19v.42l-.64 1.59-1 1-1.2.51zm2.64-13.16 1.54-.63.38.21v-.56l-.3-1.29h-.07l-.7.21-.65-.66h-.14l-.47.21-.38 1.12a4.84 4.84 0 0 1 .35.67 2.49 2.49 0 0 1 .15.69zm2 2.36v.37l-.59.68a2.16 2.16 0 0 1 -.94.41c-.28.06-.55.13-.82.21a6.65 6.65 0 0 0 -.29 1.29c0 .45-.07.89-.07 1.34h.14v.34l.17-.09 1-.45.16-.11v-.12l1.32-.44v-1.18l-.16-3.79a2.27 2.27 0 0 1 -1.07.33 8.62 8.62 0 0 0 -.87.11v1.28a1.51 1.51 0 0 1 .66-.35 2.74 2.74 0 0 1 .74-.1zm.32 7.69a9.53 9.53 0 0 1 1.12.64 2.85 2.85 0 0 1 .99 1.04l.17.82h-.27l.43.42h-.66l-1.35-.86-.95-2.09h.52zm8.42-10v.44h.27v1 .06a.84.84 0 0 0 -.19.57 1.61 1.61 0 0 0 0 .25v.88c.1 1.52.19 3 .25 4.51s.15 3 .27 4.55l-.1 1.29.21.5h-.44l-.1.27h-.7v-.24c-.17-.28-.33-.56-.5-.83a2.1 2.1 0 0 1 -.29-1.07v-.21h.2l.06-1.55-.42-5.33-.54.74-.62.43h-.25l-.42 1.06v-.75l-.29.39h-.61l.2-.49-.1-.34.35-.8h.07a15.14 15.14 0 0 1 .7-2.29 16.52 16.52 0 0 0 .68-2.22h-.12l-1.68.64-.69-.84-.79-.16.7-.56v-.37h.18v-.23l.45-.1v-.15l.63-.16.9.19.86-.22.06-.82a7.68 7.68 0 0 0 -.22-1.9 7.93 7.93 0 0 1 -.23-2l.23-.86 1.08-.13.34.2c.13.82.23 1.67.28 2.53a12.15 12.15 0 0 0 .28 2l.14-.37.21-.07v-.24h1.94l.69.31.4.39-.39.24v.41l-.53.16v.15h-.37v.16h-.58a.41.41 0 0 1 -.22.33l-.4.19-.64.15v.06h-.14-.06a.12.12 0 0 0 0 .21z"/><path d="m127.54 25.6v.19l-.61.14-.55-.25-.16 1.77.09.5-.09.11v5.06l-.58.54h-.53a13 13 0 0 1 -.74-1.15 2.43 2.43 0 0 1 -.31-1.22v-.08-.05a1.78 1.78 0 0 0 .42-1.19v-.14c0-.58 0-1.13 0-1.65a5.83 5.83 0 0 1 -.11-1.12 4.05 4.05 0 0 1 0-.52c0-.14 0-.26 0-.36a1.93 1.93 0 0 0 0-.25 2.63 2.63 0 0 0 -.09-.44l-2.09 2.62a1.3 1.3 0 0 1 -.76.39.72.72 0 0 0 -.51.33l-2 2v-.72l.06-.05a19.8 19.8 0 0 0 2.66-3.31 24.51 24.51 0 0 0 1.92-3.7l.52-.6c.1-.34.21-.67.33-1l.21-.56-2 .65-.46-.45a1.39 1.39 0 0 1 -.8-.29 3.42 3.42 0 0 0 -.77-.44l-.13-.05v-.43h.34l.31.06h.09l.09-.46h.57v-.08h.41l1.5.11 1.82-.76.55-.81 1.19-.1 1.73.39.12.68-.55.62.06.07a.59.59 0 0 0 .35.19 4.23 4.23 0 0 0 .73.06l1.08-.62v-.54l1.74-.45v-.75a3.74 3.74 0 0 0 -.24-.5 1 1 0 0 1 -.16-.56h-.19v-.48l.27-.19.18-1.76-.28-.91.37-.75 1.86.32a15 15 0 0 1 .25 2.12v2l-.07.86.29.05 1.36-.3v-.2l1.48-.23v.24l2.49.44.21.81-.23.48-.18.07v.12l-.76.48-.05.12-.52.69a23.22 23.22 0 0 0 -.5 2.81 9.35 9.35 0 0 1 -.71 2.74l-.08.18-.3-.1-.28.37-.36-.17-.81-.89-.12-.12-.85.76-.06.58.2.52-.11.38.09.41-.1 1.14.1 2.89-.26 2.54h-.19v.15h-.42v-.06l-.1.28-.08 2h-.42v-.35l-.52-9.89-1.49.16-.35-.12a12.18 12.18 0 0 1 -1.48-3.44 9.88 9.88 0 0 0 -1.41-3.18 7 7 0 0 1 -1 1.53 5.87 5.87 0 0 0 -.93 1.51l.28.71 1.44.53.1.8-.26.47zm-.21-7.52h-.21v-.53a3.38 3.38 0 0 0 -.72-1.44c-.37-.43-.73-.86-1.08-1.31l-1.14-1.15h.64a9.41 9.41 0 0 1 1.66.67 4.72 4.72 0 0 0 1.57.54h.08a3 3 0 0 1 .36.6 1.06 1.06 0 0 1 .1.43 1.61 1.61 0 0 1 0 .37l-.29.58-.58.59-.09.63zm4.07 3.51 1.23-.4.05-.18-.24-1.24-.59-.2-.77.37-.06.46.08 1v.17zm1 3.29.27-.1.07-1-.07-1h-.3l-.36.08-.72-.05.29 1c.11.36.21.69.31 1zm3.21-4.39v.6a.94.94 0 0 1 -.26.67l-.08.08a1.65 1.65 0 0 1 -.59.3 1.51 1.51 0 0 0 -.16.71s0 .18 0 .41 0 .51 0 .86v.16l.76-.33.48-.15.06-.72v-3.68l-.15-.34-1.16.37-.06 1v.25h.18z"/><path d="m151.33 23.14c0-.53 0-1.07 0-1.61l-.39-2.29c-.26-.51-.47-1-.65-1.45a3.27 3.27 0 0 1 -.2-1.15 4.17 4.17 0 0 1 0-.52l.13-.81h.38l1.4 1.53v.16l.48.29.3.61.16.05 1.53-.66a6.81 6.81 0 0 1 1.59-.46v-.62-.06h-.07l-.87.12-.24-.47-1.47-.33v-.37l1-.88h.08a4.39 4.39 0 0 0 1.51-.22 9.75 9.75 0 0 0 1.45-.66l.31-.19v.32l2 .63v.41l-.25.79-.76.21a15.38 15.38 0 0 0 -.56 1.44 5.64 5.64 0 0 0 -.25 1.35l2.18-1.06-2.19 1.93a6.19 6.19 0 0 0 0 .82v.53.25a1.82 1.82 0 0 1 -.54 1.34l-.45.15-.36-.17-.4-1a8.46 8.46 0 0 1 -1.5 1.4c-.52.38-1.05.73-1.58 1.07-.15 1.9-.35 3.77-.63 5.6s-.59 3.8-.93 5.92l-.25-.24-.29.16-1.11-2.5v-.08a19.82 19.82 0 0 0 1.2-5.21q.24-2.03.24-4.07zm1.68-2 .32-.19 2.27-1.32.24-1.05h-.24l-2.08.43-.71-.31v.3zm6.92 5.19a.83.83 0 0 1 -.19-.54v-.38h-.29l-1.63.42a3.28 3.28 0 0 1 -2-1.13l-.2-.24 1.94-.61.43-.68h.12v-.17h.46l2.65.34v.21h.11v1.19l-.18.09.6.39v.47l-.06.34 3.25.42v.55l-.51.9-2.89.09v3.44l.11 3.76-.35 1.61-.55.28-.05-.28a55.5 55.5 0 0 1 -.66-8.57l-1.04.37a10.5 10.5 0 0 1 -.38 1.72 5 5 0 0 1 -1 1.66v.05l-.4.1-.77 1.4v-1.12a4.57 4.57 0 0 0 .69-1.49 8.47 8.47 0 0 0 .22-1.58h-.06l-.85.41a2.19 2.19 0 0 1 -1 .22h-.07l-1.87-1.33 1.56-.53.1-.36 2-.42.06-.22-.41-1h.55l1.44.35.09.39.91-.28zm6.64 7.51v-.09l.07-.05a1.25 1.25 0 0 0 .35-.87v-1.09a54.41 54.41 0 0 0 -.31-5.87q-.3-2.89-.41-5.72l-.09.15a25 25 0 0 1 -4.68.88l-.28-.25a2.75 2.75 0 0 1 -.71-1.19 5.7 5.7 0 0 1 -.24-1.66l.34-1.79-.24-.9a2.31 2.31 0 0 0 -.38-.8l-.23-.33h.59l1.18 1a2.5 2.5 0 0 1 .86 1.2v.17h.1l2-.32.8.13.33 1.23-3.17.57-.2-.06v1.35h.51l3.44-.5v-2.23l-.2-1.62-.55-.08a3 3 0 0 0 -.87.34 2.08 2.08 0 0 1 -1.16.29l-.28-.13-.7-.57-.39-.42-.79-.39 2.38-1 1.19.1 2.15-.38v-.32l.72-.17.08.09a1.86 1.86 0 0 0 1.19.52 4.11 4.11 0 0 1 1.53.39h.09l.14.61-.52.82-1 .1c-.15 1.45-.35 2.88-.63 4.3a23 23 0 0 0 -.42 4.44l.11.44-.11.86q.31 2.65.48 5.43c.1 1.85.23 3.68.37 5.48l-.37 1-.53.17-.79-.75c-.15-.38-.3-.77-.44-1.18a3.72 3.72 0 0 1 -.31-1.3z"/><path d="m183.43 35v-.16l-.83-.28.67-.18a27.11 27.11 0 0 1 4.64-.85l-.16-.43.52-.25.32-1.09-1.72.1-.69-.28v-.18l-.56-.13-.62.73-1 .84v-.84h.16l.29-1.16h.21a16.64 16.64 0 0 1 .7-1.88 5.53 5.53 0 0 0 .49-1.68h-.15l-3.7 1.61-.36-.61-2.06-.43v-.43l.15-.05a9.62 9.62 0 0 0 2-.9 4.87 4.87 0 0 1 2.2-.66h.23v.19h.37l2.5-.78-.38-.67h-.28l-.37-2.12v-.05a5 5 0 0 0 .31-1.82v-1.9l-.42-.08-1.19.23-.4-.2v-.13h-.3l-.86.14v-.33l-1.24-.62.56-.14a7.72 7.72 0 0 0 1.63-.61 8.2 8.2 0 0 1 1.72-.63v-.08a2.3 2.3 0 0 1 -.56-1.27 3.39 3.39 0 0 1 0-.55v-.21h.62l1.39 1.58.74.24 2.32-.75v-.35l-.21-1.07.23-2.3h.47l.85.63v.11h.08l.85-.24.09.11a2 2 0 0 1 .41 1v1l-.11.3h.11v-.13l.51-.17.56.11 1.37-.1.34.17.28.83-1 1h-.62l-.89-.08-1 .34-.27 1.09.11.32a10.75 10.75 0 0 0 -.33 2.65c0 .9 0 1.79-.1 2.69l.09.95h1.37l2.31-.42 3.46.74h-2l.36.52h-.4v.32h-.26l-.11.29-1.2.24-2.19-.11-.59.08c.74.7 1.5 1.39 2.28 2.06a15.86 15.86 0 0 0 2.59 1.74l2 .88.11.57h.34v.74h-.87c-.93-.22-1.84-.47-2.72-.76a5.9 5.9 0 0 1 -2.41-1.5l-.09-.3-.28-.18-2-2.1-.45-.22-.37-.69-.8-.17-1.44.45a19.45 19.45 0 0 1 -1.14 2.13c-.41.67-.8 1.34-1.17 2h.25l1.9-.38v-.09l-.34-.66h-.19v-.89l.54-.33.12-.81h.53l.21.42h.2l.21.32h.62v.26l.32.1v.37h.16l.08.27.36-.17.36.11 1.72-.23.15.73-.12.76-.08.05a3.6 3.6 0 0 1 -1.46.57 4.12 4.12 0 0 0 -1.19.35l-.54 2.15h.24l3.91-.3.11-.33h.6l2.59.57.14.84-.38.74a1.47 1.47 0 0 1 -.86.25h-.85l-3.13-.31c-1.17.07-2.35.17-3.56.31a8.75 8.75 0 0 0 -3.24 1h-.09l-2.31-1zm7.44-17.26v1.11l-.6.92-2.07.92-.14.81 2.77-.69v.53l-.32.11v.1l-.36.61a3.86 3.86 0 0 1 -1.15.84 5.53 5.53 0 0 1 -1.17.35l-.1 1.65c1-.3 2-.55 3-.75l.29-1.52-.1-.89.1-2.94-.2-2.11h-.14a3.15 3.15 0 0 1 -1.15.56 5.4 5.4 0 0 0 -1.16.43l-.08.67.31.12z"/><path d="m225.26 33.22a11 11 0 0 1 -2.82.37 21.18 21.18 0 0 0 -2.81.18 5.41 5.41 0 0 1 -1.59-.23 6.72 6.72 0 0 1 -1.42-.64l-1-1.12-.16-1.78.07-.06-.08-.17.11-.2-.07-2.57c-.65.92-1.29 1.87-1.92 2.84a26.76 26.76 0 0 1 -2.21 2.89l-.27.31a1.41 1.41 0 0 1 -.82.27h-.29a.77.77 0 0 0 -.51.19l-.35.29v-.66a3.59 3.59 0 0 0 .5-.4 3.49 3.49 0 0 0 .56-.72 6.44 6.44 0 0 1 .92-1.21l.46-1.11.32-.17q1.31-1.89 2.53-3.73a42.07 42.07 0 0 0 2.19-3.66 55.91 55.91 0 0 1 -6 2l-.27.08v-.21l-2.33-.28v-.5h.11a17.75 17.75 0 0 1 3.77-1.53c1.31-.36 2.6-.74 3.89-1.13a2.89 2.89 0 0 0 .37-1c0-.35.1-.69.14-1l-1.46.08a2 2 0 0 0 -.5-.19 2.85 2.85 0 0 0 -.62-.08 1.28 1.28 0 0 1 -1.15-.62l-.25-.38.45.05h.19a1 1 0 0 0 .67-.24 3 3 0 0 1 .86-.53v-.22h.6l.32.08 1.26-.33v-.35a.72.72 0 0 1 -.25-.54v-.58l.31-1.42h.64a4 4 0 0 0 .78.08.69.69 0 0 1 .53.2.84.84 0 0 1 .22.42l.16 1.08.63-.11.33.04.24-.09 1 .09 1-1.44h.33l1.61.33v.75a30.23 30.23 0 0 1 -1.76 2.68c-.62.84-1.17 1.65-1.64 2.41h.06l4.21-.45 2.68.4.34 1.42-.59.14-.24-.05v.05h-1a4.51 4.51 0 0 0 -1.15-.23c-.41 0-.81 0-1.23 0-.77.05-1.42.09-2 .11s-.92.05-1.16.08a11.51 11.51 0 0 0 -1.39.23 13.83 13.83 0 0 1 -1.21 1.91 11.88 11.88 0 0 0 -1.1 1.76l.43.13a1.07 1.07 0 0 1 .33.81v.96a6.93 6.93 0 0 0 -.58 2 17.41 17.41 0 0 0 -.13 2.19v.08h.23v.28a3.37 3.37 0 0 0 1.41.43 8.7 8.7 0 0 0 .89 0h.88a14.61 14.61 0 0 0 2.4-.34 5.72 5.72 0 0 0 2.1-.94 6.85 6.85 0 0 0 .4-.87 2.73 2.73 0 0 0 .18-1v-.23h.46l.92 1.2.24.09.56.43.36.11v.16l.72.08v1.43l-.49.09-.19.85h-.91v-.17a2.26 2.26 0 0 1 -.78.34l-1.09.21v-.22zm-8.26-12.9.95-.26 1.37-2.37-.64.22zm1.7 6.67v-.38l.51-.7.69-.71.77-1.34h1l1.65.77.25.85-.09.08a2.19 2.19 0 0 1 -1.53.65 2.63 2.63 0 0 0 -1.39.47l-.84.42v-.21z"/><path d="m236.55 30.51v-.63a47.64 47.64 0 0 0 3-4.65 23.94 23.94 0 0 0 2-4.53 2.41 2.41 0 0 1 -.7.39 6.22 6.22 0 0 1 -.75.22v.22h-.78a7 7 0 0 0 -.94-.33 2 2 0 0 1 -.88-.52l-.06-.06v-.27l.09-.07a5.26 5.26 0 0 1 2.54-.93 4.72 4.72 0 0 0 2.31-.86l.09-.17.48-.24v-.34h.44a2.39 2.39 0 0 0 1.06.23 5.09 5.09 0 0 1 1.3.17h.12l.16.53-1.11.72a7.92 7.92 0 0 1 -1.07 2 9.17 9.17 0 0 0 -1 1.84 5.39 5.39 0 0 1 1.25.52 5 5 0 0 1 1.39 1.25l.27.81h-1.45l-.68-.35.07.22-.08.78.08.42-.16 1.29.08.34-.08.55.08.61-.26 1v3.63l-.7.3-.92-1.12-.18-1.65.35-2c-.06-.75-.08-1.53-.08-2.33a6.21 6.21 0 0 0 -.28-1.91 13 13 0 0 1 -2.06 2.54 21.46 21.46 0 0 1 -2.61 2.13zm5.38-16.38a10.56 10.56 0 0 1 1.86.47 7.59 7.59 0 0 1 1.74.9l.27.88-.39.12a.68.68 0 0 1 -.59.33h-.8a4.19 4.19 0 0 1 -1.45-1.06l-1.4-1.6h.72zm13.74 5.31a1.6 1.6 0 0 0 -.16.7 3.08 3.08 0 0 1 -.08.75l.08.58-.08 1.22c.06.44.12.84.19 1.19a5.18 5.18 0 0 1 .1 1v.63a2.44 2.44 0 0 0 -.32 1.22v1.4l.24 1.62h.29l.28-.07a13.41 13.41 0 0 0 2 .15 6 6 0 0 1 2.1.36h.12l.12.54-.12.36a2.49 2.49 0 0 1 -.58.33 1.8 1.8 0 0 1 -.54.14c-.35 0-.69.08-1 .13l-1.31-.08-.26.1-1.43-.17-.24.26a.4.4 0 0 1 -.31.12.93.93 0 0 1 -.33-.07v-.05a1 1 0 0 0 -.67-.27h-1l-3.42.68a13.57 13.57 0 0 0 -3.23 1l-.17.06-.57-.94-1.12-.07v-.45l.79-.34v-.11l.06-.07a3.3 3.3 0 0 1 1.52-.75 9.91 9.91 0 0 1 1.32-.16l-.08-.06a2 2 0 0 1 -.63-1.45 2.2 2.2 0 0 1 .06-.5 9.37 9.37 0 0 0 .54-3.19 7.46 7.46 0 0 0 -.05-.95 11.85 11.85 0 0 0 -.55-2.42c-.26-.76-.55-1.52-.89-2.28l-.13-.29h.61l.72.32 1.06-.84h.09l.08-.32h.14a6.55 6.55 0 0 0 1.92-.56 6 6 0 0 1 2-.53v-.17l1-.11c.54.11 1.09.22 1.65.35a5.16 5.16 0 0 1 1.52.62l.11.06v.32l-.2.47a1.73 1.73 0 0 1 -.39.19 2.33 2.33 0 0 1 -.36.08.64.64 0 0 0 -.49.32zm-3.51-.15v-.15c-.22.13-.44.26-.67.38a4 4 0 0 1 -1.05.38h-.1a1.07 1.07 0 0 0 -.22-.14.81.81 0 0 0 -.29-.09 3 3 0 0 0 -.5 0 .73.73 0 0 0 -.22.3.71.71 0 0 0 -.08.31 1.15 1.15 0 0 0 0 .2l.21.4-.17.59c.1.13.2.26.3.37a.68.68 0 0 1 .2.71 9.51 9.51 0 0 1 2.64-.72l.52.06-.31-1.79h-.17l-.17-.77zm-2.63 6.23 3.45-.89.2.07-.29-2.14-.74.66a7.22 7.22 0 0 1 -2.61.64l-.07.21.11.52-.11.76zm3.47 4.56v-.25-.09l-.05-.06.08-.57-.32-.59h.68.08v-1.83l-.14-1a6.62 6.62 0 0 1 -1.79.71 8.92 8.92 0 0 1 -1.85.23l-.08 3.13.08.55-.08.36 1.63-.36a8.28 8.28 0 0 1 1.76-.23z"/></g></svg>