<svg height="58.21" viewBox="0 0 55.66 58.21" width="55.66" xmlns="http://www.w3.org/2000/svg"><g transform="translate(0 -.4)"><path d="m.27 35.62 22.61 22.61a7 7 0 0 1 9.9 0l22.61-22.61" fill="none" stroke="#e8b356" stroke-linejoin="round" stroke-width=".75"/><g fill="#e8b356"><path d="m25.57 4.88a1 1 0 0 0 .79-.36 4.29 4.29 0 0 0 .56-1.31 6.35 6.35 0 0 1 .64-1.5 2 2 0 0 1 1.75-1.07 1.92 1.92 0 0 1 1.56.77 3.16 3.16 0 0 1 .61 2 3.4 3.4 0 0 1 -.3 1.46 2.4 2.4 0 0 1 -.86 1 2.22 2.22 0 0 1 -1.23.37v-1.36a1.24 1.24 0 0 0 1-.38 1.59 1.59 0 0 0 .34-1.1 1.64 1.64 0 0 0 -.28-1 1 1 0 0 0 -.8-.37.84.84 0 0 0 -.71.4 4.51 4.51 0 0 0 -.64 1.28 6.15 6.15 0 0 1 -.62 1.46 2.28 2.28 0 0 1 -.79.81 2 2 0 0 1 -1.05.26 1.87 1.87 0 0 1 -1.54-.75 3.29 3.29 0 0 1 -.58-2 3.78 3.78 0 0 1 .32-1.56 2.64 2.64 0 0 1 .89-1.14 2.13 2.13 0 0 1 1.28-.39v1.36a1.26 1.26 0 0 0 -1 .44 1.93 1.93 0 0 0 -.36 1.26 1.65 1.65 0 0 0 .29 1.07.94.94 0 0 0 .73.35z"/><path d="m26.1 13.84a2.87 2.87 0 0 1 -2-.92 3.2 3.2 0 0 1 -.7-2.15 3 3 0 0 1 .45-1.64 2.83 2.83 0 0 1 1.3-1.13 4.46 4.46 0 0 1 1.85-.37h.73a4.59 4.59 0 0 1 1.99.37 3 3 0 0 1 1.28 1.14 3.12 3.12 0 0 1 .46 1.7 3 3 0 0 1 -.7 2.08 2.94 2.94 0 0 1 -2 .92v-1.35a2 2 0 0 0 1.24-.49 1.63 1.63 0 0 0 .37-1.16 1.58 1.58 0 0 0 -.64-1.36 3.26 3.26 0 0 0 -1.89-.48h-.7a3.36 3.36 0 0 0 -1.93.46 1.48 1.48 0 0 0 -.67 1.32 1.77 1.77 0 0 0 .36 1.22 1.86 1.86 0 0 0 1.2.51z"/><path d="m26.56 18.37v-1.52h-3v-1.35h7.82v2.75a3.15 3.15 0 0 1 -.61 2.08 2.11 2.11 0 0 1 -1.75.74 2.22 2.22 0 0 1 -1.32-.38 2.4 2.4 0 0 1 -.81-1.05l-3.26 1.75h-.07v-1.45zm1.09-1.52v1.4a1.58 1.58 0 0 0 .35 1.08 1.23 1.23 0 0 0 .95.38 1.28 1.28 0 0 0 1-.36 1.5 1.5 0 0 0 .36-1.06v-1.44z"/><path d="m27.26 29a4.73 4.73 0 0 1 -2-.4 3 3 0 0 1 -1.33-1.13 3.31 3.31 0 0 1 0-3.4 3.1 3.1 0 0 1 1.3-1.07 4.79 4.79 0 0 1 2-.41h.44a4.73 4.73 0 0 1 2 .41 3 3 0 0 1 1.33 1.1 3.32 3.32 0 0 1 0 3.39 3.08 3.08 0 0 1 -1.32 1.14 4.68 4.68 0 0 1 -2 .41zm.41-1.36a3.4 3.4 0 0 0 2-.49 1.74 1.74 0 0 0 0-2.77 3.38 3.38 0 0 0 -1.95-.51h-.45a3.46 3.46 0 0 0 -2 .5 1.65 1.65 0 0 0 -.7 1.4 1.61 1.61 0 0 0 .69 1.39 3.51 3.51 0 0 0 2 .48z"/><path d="m24.64 32.19v3.55h-1.09v-4.91h7.82v1.36z"/><path d="m24.64 38.58v3.55h-1.09v-4.91h7.82v1.36z"/></g></g></svg>