<svg height="46.61" viewBox="0 0 399.87 46.61" width="399.87" xmlns="http://www.w3.org/2000/svg"><g fill="#fffcf3"><path d="m13.3 15.16a4.29 4.29 0 0 1 -.15 1.26 35.75 35.75 0 0 1 -3.66 3.26 5.58 5.58 0 0 1 1.93-.41 3.23 3.23 0 0 1 1.58 1.42 5.72 5.72 0 0 1 -.2 1.52 26.89 26.89 0 0 1 -5.37 4.27 9.91 9.91 0 0 0 1.57-3.35 5 5 0 0 1 -2.28-.41c0 .91.1 2.13.26 3.71 0 .75.1 1.42.15 2a9.55 9.55 0 0 0 3.35-2.49 3.29 3.29 0 0 1 3 2.08q0 .69-2.6 4.72a24.13 24.13 0 0 1 -4.11 5.69 4.43 4.43 0 0 1 -2.79 1 3 3 0 0 1 -1-.35 13.85 13.85 0 0 0 3.61-5 9.45 9.45 0 0 0 1.26-3.05c-1.85 1.8-3.38 2.66-4.7 2.66a6.9 6.9 0 0 1 -3.15-2.29 1.56 1.56 0 0 1 .56-1.32c.2.31.71.46 1.47.46 1.12-.4 2.13-.76 3-1.17a6.73 6.73 0 0 1 -1.12-2.28c.09-.51.15-2.69.25-6.5a32.36 32.36 0 0 1 .26-4.47l.51-3.65a24.83 24.83 0 0 1 1.07-2.74h.4a6.94 6.94 0 0 1 .76 3.65 24 24 0 0 0 -.16 2.62c1.88-1.53 3.56-2.34 5.09-2.34a3.84 3.84 0 0 1 1.21 1.53m-6.55 6.26.76-.6a9.14 9.14 0 0 0 2.54-3.41 7.31 7.31 0 0 1 -3.05-.51c-.11 1.53-.21 3.05-.21 4.52m8.75-14.57a3.06 3.06 0 0 1 2.07 3c0 .45-.09 1.56-.2 3.4-.1 2.33-.14 4.57-.14 6.64s-.11 5-.11 9.3a15.07 15.07 0 0 1 -.15 3.3c-.66 0-1.32-.61-2-1.82a15.46 15.46 0 0 1 -1.51-5.24l.1-5.68c0-2.8.1-4.88.1-6.25 0-.46.05-1.17.05-2.13v-1.27c0-.45-.41-.76-1.17-.87a9.19 9.19 0 0 0 -4.93 1.79 6 6 0 0 1 1.44-3.31 5.58 5.58 0 0 1 2.53-1.74 11 11 0 0 1 3.92.92m-1 25.39a9.36 9.36 0 0 1 1.46.69 4.21 4.21 0 0 1 1.42 1.37c.36.4.56.66.61.71a4.32 4.32 0 0 1 .71 1.27 7 7 0 0 1 .26 1.75 3.39 3.39 0 0 1 -.56 1.53 2.86 2.86 0 0 1 -1.57.56c-.15 0-.62-.61-1.43-1.93a9.5 9.5 0 0 1 -1.44-2.09c-.3-.6-.61-1.11-.81-1.52-.51-1-1-1.87-1.37-2.49a2.2 2.2 0 0 1 .46.11 1.89 1.89 0 0 1 1.32-.36s.35.15 1 .36m16-21c0-4-.51-6.8-1.48-8.42a10.75 10.75 0 0 1 4.36.61 3.29 3.29 0 0 1 2 3.14 52.13 52.13 0 0 1 -.86 5.49c2.68.1 4.62.86 5.79 2.23-.2 1.09-1.72 1.68-4.77 1.68-.81.4-1.57.81-2.24 1.12a3.28 3.28 0 0 0 -.09.55 3.73 3.73 0 0 0 .86.21c2.08.51 3.15 1.11 3.15 1.88s-1.68 2.74-5 5.58a2.14 2.14 0 0 0 0 .51 79.47 79.47 0 0 0 .82 12.74c0 3.1-.36 4.83-1 5.18-2.45 0-5.69-3.34-9.76-10.15 2.85 1.72 5.24 2.59 7.12 2.59 0-3 0-5.94.1-8.79-1.37 1-2.74 2-4.16 3a13.15 13.15 0 0 1 -5.89 3c-1.27 0-1.88-.3-1.88-.91a29.64 29.64 0 0 0 8.37-6.5c1.53-1.37 2.75-2.54 3.65-3.45 0-1.22.06-2.44.11-3.55v-.21a42.37 42.37 0 0 1 -5.28 2.39 6.53 6.53 0 0 1 -3.52-1.19 4.28 4.28 0 0 1 -1.42-2.89 21.54 21.54 0 0 0 6.8-1.63c1.53-.76 2.85-1.42 3.91-1.92.11-.77.15-1.53.26-2.3"/><path d="m92 16.5a62.19 62.19 0 0 0 -6.5 2.69 9.79 9.79 0 0 1 1 1.17 6 6 0 0 1 .5 2.43 13.74 13.74 0 0 0 -1.12 2q-.47 7.39-.61 9.28c.1 1.84.3 3.61.51 5.39-.31 1.72-.77 2.64-1.48 2.85-.91-.21-1.63-1.32-2.18-3.46a66.81 66.81 0 0 1 .78-8.85c.26-3.6.41-6.76.41-9.45a.18.18 0 0 1 0-.15c-2.85 1.63-5.39 2.95-7.67 4.06a2.68 2.68 0 0 0 -.61-.1c-.61-.05-1-.81-1.27-2.29a6.64 6.64 0 0 1 .86-3.4 3.23 3.23 0 0 0 .41.81q2.13 0 7.92-2.74a64.15 64.15 0 0 1 7.77-3.3 3.27 3.27 0 0 1 1.88 1v.1a5.27 5.27 0 0 1 3.65 1.83 34.87 34.87 0 0 1 1.75 9.63l3.5-.92c0-.51 0-.91 0-1.32a4.43 4.43 0 0 0 -.41.3 12 12 0 0 1 -2 .77c0-.15.45-.61 1.42-1.38a8.33 8.33 0 0 0 1-.81v-2a7.37 7.37 0 0 1 -1.48.2c-1-.25-1.73-1.11-2.13-2.58a.46.46 0 0 1 .45-.21 1.85 1.85 0 0 0 .62.1c.91-.3 1.73-.6 2.54-.91 0-1.22.1-2.44.2-3.71a21.48 21.48 0 0 0 -2.54 1.68c-2.75 0-4.12-.56-4.12-1.78a16.2 16.2 0 0 1 7-4c0-.61.1-1.17.15-1.78a30 30 0 0 1 .56-5.28 7.78 7.78 0 0 1 -.76-1.16c-.66.81-1.31 1.57-1.93 2.38v-2.47a3.71 3.71 0 0 0 .51-.81 3.3 3.3 0 0 0 .76-.31h1.42a10 10 0 0 0 1.22.51 1.75 1.75 0 0 0 .76.15c1.41 1.12 2.26 1.93 2.26 2.34a22.8 22.8 0 0 0 -.75 5.47v.26c.56-.05 1.11-.1 1.73-.1a11.93 11.93 0 0 1 5.63 1.17c1.59 1.2 2.39 2.38 2.39 3.6s-1.48 4.78-4 10.66c-1.32 2.44-2.34 3.66-2.94 3.66a1.64 1.64 0 0 1 -1.43-.86c-.81.2-1.63.36-2.34.56-.3 5.08-.61 10.2-.91 15.28-.61 2.44-1.07 3.76-1.32 3.91a13.48 13.48 0 0 1 -.77-3c-.2-1.31-.35-2.83-.55-4.67-.1-3.65-.15-7.15-.2-10.51-1.12.36-2.13.71-3 1a4.14 4.14 0 0 1 -1.68-.43 3.06 3.06 0 0 1 -1.32-.92 3.93 3.93 0 0 1 -.86-2.48c-.4-4.52-1.17-7.72-2.39-9.59a1.53 1.53 0 0 1 -.25.45m-11.48 8.82a13.64 13.64 0 0 1 .51 3.91 11.38 11.38 0 0 1 -1 3.91 7.05 7.05 0 0 1 -1.67 3.11c-1 0-1.57-.36-1.77-1.08a35.27 35.27 0 0 0 1.21-6.5 11.39 11.39 0 0 0 -.55-3.44 2.08 2.08 0 0 1 1.87-1.08c.67 0 1.12.42 1.42 1.17m.11-16.65c3.14-1.32 5.73-2.29 7.86-3a4.9 4.9 0 0 1 3.06 1.87 2.73 2.73 0 0 1 -.47 1.58c-3.19 2-6.29 3.91-9.33 5.73a15.58 15.58 0 0 1 -2.81 1.08c0-.2.67-.81 2-1.88.7-.61 1.36-1.17 1.92-1.73a5.54 5.54 0 0 1 -.76.11c-1.47-.31-2.49-1.53-3-3.61a.63.63 0 0 1 .61-.31 3.9 3.9 0 0 0 .92.16m9.85 12.8a12.29 12.29 0 0 1 .71 2.94 7 7 0 0 0 -.78 2.63 16 16 0 0 0 -.11 2.13c.16 0 .42-1 .81-2.89.51-1.22.87-2.08 1.12-2.59-.3 1.12-.7 2.89-1.12 5.33-.2 4-.5 5.89-.81 5.89-.66 0-1.37-.46-2.18-1.42a4.88 4.88 0 0 1 -.76-2.45c.45-.1.76-1.88.92-5.28a28.68 28.68 0 0 1 .19-4c.11-.81.31-1.27.62-1.27s.76.35 1.37 1m15.48-5.76c.51-.15 1-.3 1.43-.45a3.68 3.68 0 0 1 2.13 1.37 2.14 2.14 0 0 1 -.3 1.11c-1.22 1-2.39 1.88-3.51 2.74-.1 1.22-.15 2.44-.2 3.55l2.13-.6h.32a42.57 42.57 0 0 1 1.72-4.83 21.63 21.63 0 0 0 1.37-7.06c0-.66-.25-1-.76-1a42.25 42.25 0 0 0 -4.27 1.07c-.1 1.32-.15 2.68-.15 4.11"/><path d="m155.53 8.69v-.06a19.33 19.33 0 0 1 2.85-1.32c.81-.51 1.56-1 2.38-1.52a5.11 5.11 0 0 1 2.49-.62 6.12 6.12 0 0 1 4.67 2.83c.1.41.26.76.36 1.06a4.79 4.79 0 0 0 -.16 1.12 12.31 12.31 0 0 0 -2.48 4.27c.3-.21.65-.41 1.07-.71a5.76 5.76 0 0 0 1.62-1.83 3.78 3.78 0 0 1 -.92 2.49 5.33 5.33 0 0 1 -1.47 1.67c-.4.3-.82.66-1.21 1-.21.66-.42 1.32-.62 1.93a3.52 3.52 0 0 1 -1.57-.26 7.15 7.15 0 0 1 -.87.72c-1.06.91-2.07 1.77-3 2.49a3.65 3.65 0 0 1 -1.52.91v.76c0 2.38-.2 6.85-.51 13.35-.2 3.05-.66 4.58-1.28 4.58-1.26 0-2-2-2.28-6.15a75.2 75.2 0 0 0 1.17-11.88 97.5 97.5 0 0 1 .61-10.87c0-1.17-.82-2.13-2.33-2.94 0-1.12.45-1.68 1.42-1.78a2.89 2.89 0 0 1 1.62.72m4.41 8.63a14.65 14.65 0 0 0 1.58-.77 26.43 26.43 0 0 0 1.94-7.41c0-.45-.36-.71-1.07-.71a25.24 25.24 0 0 1 -4.36 1.61 4.41 4.41 0 0 1 -1.27-.15 5.59 5.59 0 0 1 .81 1.57 8.16 8.16 0 0 1 4.17 1.68c0 1.78-.67 2.69-2 2.79a6.5 6.5 0 0 1 -2.14-.56c-.1 1.06-.15 2-.2 3v.15a12.42 12.42 0 0 0 2.48-1.06m26.28-10.42a40.15 40.15 0 0 0 -1.12 9v20.2a22.17 22.17 0 0 1 .31 4.22c-.51 2.49-1.12 3.86-1.93 4.11-4.17-.53-7.67-3.53-10.46-9.09a9.93 9.93 0 0 0 7.91 3.45q.39-5.94.47-11.72c0-3.46 0-6.91 0-10.42-2.39 1.17-4.67 2.24-6.86 3.25a1.75 1.75 0 0 1 -.3 1c-.72.46-1.43.91-2.09 1.31a4.82 4.82 0 0 1 1.22 1.84 19.58 19.58 0 0 0 -.2 2c1.12-.2 2.13-.39 2.94-.5 1.22.11 2.09 1.07 2.54 2.89a1.85 1.85 0 0 1 -.45 1.37c-.56 0-2.29 0-5.13-.25h-.15a3.26 3.26 0 0 0 -.06.71c-.2 7.42-.6 11.07-1.26 11.07s-1.12-.46-1.32-1.42a19.88 19.88 0 0 1 -.51-3.91c0-2 0-4 .15-6-.61.1-1.32.25-2 .4-.76.31-1.42.56-2 .77a1.55 1.55 0 0 0 -.1.4c0 .51-.15 1.52-.35 3a15.51 15.51 0 0 1 -.36 4c-.21.46-.46.66-.81.66s-.81-.51-1.28-1.12a6 6 0 0 1 -.61-2.68c.36-.31.61-1.43.77-3.26a9.42 9.42 0 0 1 -1.58.46 2.43 2.43 0 0 1 -1.32-.56 3.58 3.58 0 0 1 -1.11-1c-.21-.11-.36-.36-.47-.81a2.33 2.33 0 0 1 -.14-.72 1.75 1.75 0 0 0 .61.31c1.47-.46 2.84-.87 4.16-1.27v-1.12a2.39 2.39 0 0 1 -.61.2c0-.1.2-.3.61-.65a8 8 0 0 1 -.31-2.19 6 6 0 0 1 1.88 1 16 16 0 0 0 2.74-2.14 15.33 15.33 0 0 1 -3 .56c-1.11-.25-1.93-1.22-2.34-2.85a.45.45 0 0 1 .46-.25 2.15 2.15 0 0 0 .71.1c3.51-1.32 6.45-2.38 8.84-3.09a4.54 4.54 0 0 1 2 1.06 10.69 10.69 0 0 0 1.72-1c-.71.1-1.37.2-2 .25-1.12-.25-1.82-1.12-2.23-2.64.05-.15.2-.25.45-.25a5.71 5.71 0 0 1 -.35-2.08c.3-.26.45-1.53.56-3.76h-.11a3.51 3.51 0 0 1 -1.67-3.41c4.78-2.54 8.53-4 11.22-4.36a6.49 6.49 0 0 1 4.32 4.93m-19.85 20.82v.11c1.32-.36 2.54-.67 3.6-1v-.43c0-1.32-.25-2.08-.66-2.38-1.27.81-2.49 1.62-3.7 2.33a1.93 1.93 0 0 1 .76 1.37m14.17-14.11a6.54 6.54 0 0 1 .75.25v-1.67c0-1.32 0-3.21.11-5.69a1.75 1.75 0 0 0 -.71-1.6 24.33 24.33 0 0 0 -4.58 2.33c-.5.4-.86.76-1.17 1a1.74 1.74 0 0 1 .21.65v.56c1.47-.56 2.74-1 3.81-1.37a3.45 3.45 0 0 1 2 1.27 1.91 1.91 0 0 1 -.29 1.07c-1.73 1.47-3.36 2.89-5 4.21a4.59 4.59 0 0 1 -.87.36v.15c2.24-.61 4.12-1.12 5.75-1.52m-5.75.3v.67c.15-.11.31-.26.46-.36a16.6 16.6 0 0 0 1.53-2 9.63 9.63 0 0 1 -1.93.4c0 .41-.06.87-.06 1.32"/><path d="m247.42 39.4c.86.61 1.37 1 1.53 1.11s.15.41.25 1a10.39 10.39 0 0 1 .15 1.17c0 .2-.3.56-.81 1.07a3.08 3.08 0 0 1 -1.12.4 21 21 0 0 1 -2-1 7.44 7.44 0 0 0 -2-.31 49.74 49.74 0 0 0 -7.41.71c-2.49.71-3.86 1.07-4.16 1.12a7.27 7.27 0 0 1 -1.48-1.52 6.28 6.28 0 0 1 -1.37-1.57 2.27 2.27 0 0 1 .2-1.12h1a2.21 2.21 0 0 0 0 .62 26.23 26.23 0 0 0 3.3-.72 21.31 21.31 0 0 1 3.05-.5c.1-.77.15-1.53.25-2.24a5.41 5.41 0 0 1 -1.17.3 3.62 3.62 0 0 1 -2.59-1.57 4.64 4.64 0 0 1 -1-1.47c-1.32 1.47-3.2 3.51-5.69 6.14-2.54 2.24-4.37 3.36-5.53 3.36a6.84 6.84 0 0 1 -1.33-.16c-.51-.1-.76-.25-.76-.4a19.29 19.29 0 0 0 5.27-3.71 24.86 24.86 0 0 0 4.77-6.4c1.17-1.83 2-3.3 2.64-4.31a35.82 35.82 0 0 1 -5.73 2.08 2.62 2.62 0 0 1 -1.47-.67 4.37 4.37 0 0 1 -1.28-1.06 1.28 1.28 0 0 1 -.5-.91 2.07 2.07 0 0 1 -.15-.77 1.06 1.06 0 0 0 .65.36c3.3-.92 6.3-1.77 9-2.49.06-4.11.11-8.22.16-12.29a6.9 6.9 0 0 1 -1.68.56 3.59 3.59 0 0 1 -1.73-.76 5.51 5.51 0 0 1 -1.41-1.27c-.31-.1-.52-.45-.62-1.06a2 2 0 0 1 -.2-.87 1.92 1.92 0 0 0 .82.36q2.58-.77 4.87-1.37v-2.24a22.17 22.17 0 0 1 -1.22-2.69 6.37 6.37 0 0 1 4.51 1.92v2.1c2.14-.57 4.07-1 5.74-1.43 0-.61 0-1.16 0-1.72a36 36 0 0 1 -1.47-3.3 7.87 7.87 0 0 1 5.59 2.38v1.88c.55-.11 1.06-.15 1.53-.2 1.31 0 2.22 1.12 2.73 3.2a2.05 2.05 0 0 1 -.45 1.47c-.51 0-1.89 0-4-.15l-.3 3.35c-.4 3.55-.81 6.7-1.22 9.39 1.94-.35 3.6-.61 5-.76 1.28 0 2.15 1.06 2.65 3a1.85 1.85 0 0 1 -.46 1.36c-.76 0-2.74 0-6-.15a3.61 3.61 0 0 0 .78.72c1.62 1.52 3.14 3 4.66 4.41a51.36 51.36 0 0 0 5 3.2 52.37 52.37 0 0 0 5.29 2.59c.09 0 .24.25.54.71a2.07 2.07 0 0 1 .57.76 4 4 0 0 1 -.15 1.07.88.88 0 0 1 -.31.61c-.51 0-1.78-.05-3.81-.26a9.76 9.76 0 0 1 -2.8-.4 5.94 5.94 0 0 1 -2.18-.61 3.84 3.84 0 0 1 -1.52-1.11c-.3-.21-1.12-1-2.44-2.34-.81-1.22-1.56-2.28-2.33-3.25a15.92 15.92 0 0 1 -2.15-2.75c-1.22-1.73-1.93-2.7-2.13-3a1.64 1.64 0 0 0 -.41-.24c-1.53.2-3.6.55-6.25 1.11l-.2.11a2.28 2.28 0 0 1 .45 1.27 3.78 3.78 0 0 1 -.35 1.26 8.66 8.66 0 0 1 -.81 1.63 8.92 8.92 0 0 1 -1.57 2.13c.25.1.51.15.76.25a11.51 11.51 0 0 0 2.74-.41 4.62 4.62 0 0 0 1.16-.3 7.84 7.84 0 0 1 .11-1.12 4.71 4.71 0 0 0 -1.22-3v-.39a7.25 7.25 0 0 1 1.88-.36c2.23.71 3.45 1.72 3.6 3v.51a3.44 3.44 0 0 1 .65-.1 7.29 7.29 0 0 1 2.54 1.22 3.08 3.08 0 0 1 .26 1.32c-.06.61-.46.91-1.23 1-1 .15-1.92.3-2.74.45-.2 1.12-.4 2.13-.6 3.15a5.81 5.81 0 0 0 1.37-.15 38.69 38.69 0 0 1 3.86-.36 6.14 6.14 0 0 1 1.67.41m-10.96-17.15a3.41 3.41 0 0 1 -1 .15 1.41 1.41 0 0 1 -.81-.36 24 24 0 0 0 -.16 2.49 11.15 11.15 0 0 0 1.93-2.28m-1.72 3c2.08-.56 4-1 5.64-1.37 0-1 .05-2.08.15-3.1zm1.93-8.48a2.67 2.67 0 0 1 -.91.15 1.47 1.47 0 0 1 -.72-.3c-.05.81-.1 1.58-.15 2.28a12.49 12.49 0 0 0 1.78-2.13m2.33-4.17a4.07 4.07 0 0 1 1.78 1c.05-1 .1-2 .15-2.94-1 .21-2.23.4-3.55.71-.81.41-1.52.71-2.13 1 0 .56-.06 1.12-.06 1.63 1.53-.51 2.8-1 3.81-1.32m-.25 5.54a3.71 3.71 0 0 1 1.83.91c0-1.27.1-2.54.15-3.76-1.73 1.37-3.41 2.64-5 3.81 1.17-.41 2.18-.72 3-1"/><path d="m293 24.71a3.1 3.1 0 0 0 -.67-.11c-.61-.05-1.06-.81-1.31-2.33a6.7 6.7 0 0 1 .91-3.51 3.16 3.16 0 0 0 .4.82q2.22 0 8.08-2.75a70.84 70.84 0 0 1 7.87-3.24 3.19 3.19 0 0 1 2 1.06 4.5 4.5 0 0 1 -.51 2.18 51.6 51.6 0 0 0 -6.4 2.59 7.64 7.64 0 0 1 .82 1.07 6.73 6.73 0 0 1 .55 2.64 13.86 13.86 0 0 0 -1.17 1.92c-.3 4.83-.55 7.88-.66 9.1.11 1.77.31 3.55.56 5.28-.3 1.83-.81 2.84-1.57 3-.91-.2-1.68-1.42-2.28-3.65a66.3 66.3 0 0 1 .76-8.79c.31-3.55.45-6.64.45-9.29-2.94 1.58-5.53 2.9-7.81 4m5.07.81a11.64 11.64 0 0 1 .56 3.9 11.21 11.21 0 0 1 -1.07 3.92 6.38 6.38 0 0 1 -1.77 3 1.68 1.68 0 0 1 -1.83-1.12 29.24 29.24 0 0 0 1.22-6.44 11 11 0 0 0 -.56-3.36 2.21 2.21 0 0 1 2-1.16c.71 0 1.17.41 1.47 1.22m.11-16.86c3.14-1.22 5.78-2.13 7.92-2.85a5.7 5.7 0 0 1 3.2 2 3 3 0 0 1 -.46 1.68 6.43 6.43 0 0 1 -1.12.66c-2.85 1.73-5.64 3.3-8.33 4.83a14.57 14.57 0 0 1 -2.94 1.11c0-.2.7-.86 2.13-2a13.43 13.43 0 0 0 1.78-1.57 2.77 2.77 0 0 1 -.56.1c-1.57-.36-2.65-1.63-3.2-3.81.1-.2.3-.31.66-.31a4.67 4.67 0 0 0 .92.16m10 13a13.9 13.9 0 0 1 .71 3.14 6.31 6.31 0 0 0 -.71 2.29 13.52 13.52 0 0 0 -.1 1.88 10.11 10.11 0 0 0 .76-2.7c.51-1.11.86-1.87 1.11-2.38-.3 1.12-.7 2.84-1.11 5.28-.21 4-.46 5.89-.76 5.89a3.18 3.18 0 0 1 -2.29-1.47 4.78 4.78 0 0 1 -.83-2.54c.51-.15.81-1.88 1-5.18a26 26 0 0 1 .2-3.91c.11-.81.31-1.22.62-1.22s.86.36 1.47 1m7.36-4.73a7.82 7.82 0 0 1 4.26-1.52 3.75 3.75 0 0 1 1.63 1.88 8.23 8.23 0 0 1 -.15 1.73 38.28 38.28 0 0 1 -5.64 5.43 8.6 8.6 0 0 1 4.11-1.22 3.85 3.85 0 0 1 2 1.93 11 11 0 0 1 -.19 2 47 47 0 0 1 -6.67 5.59c.11.75.2 1.47.36 2.13.71-.1 1.42-.21 2.13-.26 1.63-.14 3-.3 4.31-.5l.62-7.93c.25-4 .45-7 .6-9 .1-.61.15-1.63.21-3a7.8 7.8 0 0 1 .15-1.72c0-.36-.51-.61-1.43-.72a17.58 17.58 0 0 0 -6 1.43 6.22 6.22 0 0 1 1.93-3.56 6.68 6.68 0 0 1 3.3-1.93 11.31 11.31 0 0 1 4.07 1 3.61 3.61 0 0 1 2.18 3.46 41.89 41.89 0 0 1 -.61 4.41c-.25 3.05-.46 5.89-.55 8.63-.16 1.88-.26 4.57-.26 8.13a20.22 20.22 0 0 1 3.71-.46 7 7 0 0 1 1.92.51l1.73 1.26c.1 0 .21.46.31 1.17a13.29 13.29 0 0 1 .15 1.37c0 .21-.3.61-.92 1.17a3 3 0 0 1 -1.27.46 18.87 18.87 0 0 1 -2.23-1.06 10.43 10.43 0 0 0 -2.39-.36h-1c-.05 2.64-.26 4.06-.56 4.16-.71 0-1.37-.61-2.08-1.88-.31-.71-.56-1.41-.76-2-2.18.2-4.73.56-7.62 1-4.06 1.28-6.3 1.94-6.75 2a6 6 0 0 1 -1.37-1.32 7.82 7.82 0 0 1 -1.17-1.48 1.8 1.8 0 0 1 .2-1h.87a1.36 1.36 0 0 0 .05.5 37 37 0 0 0 4.83-1.39l1.27-.45a5.48 5.48 0 0 1 -.46-1.07c-.56.4-1.06.71-1.57 1l1.47-1.32a8 8 0 0 1 -.55-1.88q.51-11.34 1.41-15.39c.51-2 1.37-3.09 2.54-3.09-.1 1.12-.15 2.13-.2 3.14m1 11.48a4.25 4.25 0 0 1 -1.68-.25c-.05.91-.1 1.82-.15 2.69a2.68 2.68 0 0 0 .1.61 13.72 13.72 0 0 0 1.73-3.05m.6-8.13a4.76 4.76 0 0 1 -1.77-.25c-.1 1.42-.21 2.74-.26 4.06a13.52 13.52 0 0 0 2-3.81"/><path d="m381.55 1.42a11.39 11.39 0 0 1 3.3 1.22 14 14 0 0 1 1.52 1.62 2.59 2.59 0 0 1 .56 1.27 4.18 4.18 0 0 1 -.71 1.47 2.43 2.43 0 0 1 .46-.1c3 0 5.18.76 6.45 2.18-.1 1.22-2 1.83-5.79 1.83-1.62.71-3.15 1.37-4.47 1.88l.31.3a3.82 3.82 0 0 1 1.32 2.24 3 3 0 0 1 -.15.76 6 6 0 0 0 .5.35c1.93.57 3.1 1.17 3.51 1.79a3 3 0 0 1 -.36 1.36 25.51 25.51 0 0 0 -5 .66c-.1.46-.2.87-.3 1.27a7.6 7.6 0 0 1 1.06-.1 5.39 5.39 0 0 1 4.24 2.58 3.53 3.53 0 0 0 .35.91 9.58 9.58 0 0 0 -.2 1 8 8 0 0 0 -2.15 3.44c.16.15.26.3.36.4a1.83 1.83 0 0 1 -.25.92c-1.62.9-3.25 1.82-4.83 2.64a.2.2 0 0 0 .06.15l3.7-.77a3.12 3.12 0 0 1 1.93.47 2 2 0 0 1 .51 1.41 1.87 1.87 0 0 1 -2 1.12 30 30 0 0 0 -4.42.61v.46a16.88 16.88 0 0 0 -.26 2.89c-.16 1-.31 1.93-.41 2.84 0 1.84-.15 2.8-.36 2.9s-.4-.41-.76-1.22a6.09 6.09 0 0 0 -1-1.52 7.13 7.13 0 0 1 -.56-2.9 7.71 7.71 0 0 0 .56-2l.15-.76c-1.72.51-3.5 1.17-5.33 1.88a5.27 5.27 0 0 1 -2.79-.56c-.4-.1-.61-.51-.71-1.12a1.73 1.73 0 0 1 .45-1.27 64.65 64.65 0 0 0 7.32-1.67c.1 0 .25-.05.35-.05.26-.16.46-.31.66-.46 0-.3-.1-.56-.15-.76a6.33 6.33 0 0 1 -1.32.16 2.47 2.47 0 0 1 -1.73-2c.05-.1.16-.15.36-.15h.1a6 6 0 0 1 -1-2.09c-.11 0-.21-.3-.21-.7s-.05-.67-.05-1l-.05-.81a23.45 23.45 0 0 1 1.22-2.9h.46a7.07 7.07 0 0 1 .77 3.25c.57-.2 1.48-.61 2.8-1.16a22.54 22.54 0 0 1 2.74-.31c.2 0 .41.15.61.46a2.19 2.19 0 0 1 .26.81c0 .2-.46.56-1.27 1.06a15.87 15.87 0 0 1 -2 1.22c-1 .66-1.93 1.22-2.65 1.63a.44.44 0 0 0 .11.26c2.08-.62 3.9-1.12 5.43-1.53a16.75 16.75 0 0 0 1.11-4.82c0-.31-.3-.51-.91-.51a28.76 28.76 0 0 1 -4 1.15 5.3 5.3 0 0 1 -2-.3c-.25-.06-.36-.26-.36-.67a22.78 22.78 0 0 1 2.64-1c.21-.11.47-.21.71-.36 0-.51.1-1 .1-1.52-1.16.4-2.33.92-3.55 1.42a2.19 2.19 0 0 1 -2.13-1.67c-.81 2.23-1.83 4.71-3.05 7.46-1.72 4.62-3.5 9.29-5.33 14-1.06 2.14-2.28 3.25-3.6 3.25a2.54 2.54 0 0 1 -1.32-2.24 11.28 11.28 0 0 1 1.22-2.58 5.28 5.28 0 0 0 .1 1.22c1.32-.82 2.49-2.75 3.45-5.79a33.12 33.12 0 0 0 3-9.29c.82-2.34 1.63-4.73 2.54-7.16a22.34 22.34 0 0 1 1.48-3.2 7 7 0 0 1 -3.1-1.38 4.41 4.41 0 0 1 -1.53-2.94 32.93 32.93 0 0 0 8.73-1.8c3.25-1.32 5.64-2.23 7.26-2.84h-.66c-.56 0-1.12 0-1.68 0h-4.26a6 6 0 0 0 1.06-1 6.2 6.2 0 0 0 1.63-.81 2.45 2.45 0 0 0 .46-1.42c-.51-.66-.91-1.22-1.32-1.67a3.52 3.52 0 0 1 -.66-1.63 21.42 21.42 0 0 1 2.69.36m-2.64 16.65c.51-.15 1-.31 1.47-.4.05-.61.1-1.23.16-1.83a3.7 3.7 0 0 0 -.51-1.86c-1.57.66-2.84 1.17-3.85 1.57-.31 1.12-.67 2.29-1.12 3.56a26.62 26.62 0 0 0 3.91-1.07m-1.81 11.74v.1l.15-.15a14.22 14.22 0 0 1 1.17-1.27 3.46 3.46 0 0 1 -1.62-.76c.1.71.2 1.42.3 2.08m14.78-7.56a1.22 1.22 0 0 0 -.1.34 4 4 0 0 1 2.38-.9 11.43 11.43 0 0 1 1.27 4.32 17.7 17.7 0 0 1 -1.16 1.88 1 1 0 0 0 .81.41c.2 0 .35.15.51.35a8.93 8.93 0 0 1 .55.92c0-2.24-.1-5-.2-8.38 0-1.78-.05-2.84-.1-3.2a5.48 5.48 0 0 0 -4.06 1.57c-.72 0-1-.66-1-2.07.81-1.68 2.39-2.64 4.73-2.9 2.73 0 4.2 1.07 4.35 3.2a28.68 28.68 0 0 0 -1.08 8.22 76.47 76.47 0 0 0 1 12.54c0 4.17-1 6.35-3 6.66-1.62-.16-3.25-2.24-4.77-6.3a3.7 3.7 0 0 0 2.59 1.11c1 0 1.52-2.74 1.62-8.21a14.77 14.77 0 0 1 -3.3 3.65 10.46 10.46 0 0 1 -1.42.4c-.36-.1-.71-.15-1-.25-1 4.67-2.89 7-5.58 7 2.59-3.35 3.91-9.85 3.91-19.45a6.49 6.49 0 0 0 -.71-2.95c2.33 0 3.66.67 3.86 2m1.88 9.13c-.51-.05-1.07-.15-1.62-.25a7.54 7.54 0 0 1 -1.08-2v1.78c-.15 1.51-.3 2.94-.5 4.16a25.63 25.63 0 0 0 3.25-3.66m-1.68-3.75a5.24 5.24 0 0 1 .71-1.07 4 4 0 0 1 -.35-1.32 9.56 9.56 0 0 1 -1.17.05 26.57 26.57 0 0 0 -.21 3 2.84 2.84 0 0 0 1-.71"/></g></svg>