<svg xmlns="http://www.w3.org/2000/svg" width="164.73" height="150.97" viewBox="0 0 164.73 150.97">
  <defs>
    <style>
      .cls-1 {
        fill: #fff;
      }
    </style>
  </defs>
  <g id="圖層_2" data-name="圖層 2">
    <g id="圖層_1-2" data-name="圖層 1">
      <g>
        <path class="cls-1" d="M65.32.08c2.68-.26,11-.39,13.39,7.56a14.32,14.32,0,0,1,.56,2.76,16.28,16.28,0,0,1-4,11c-2.94,3.45-7.42,6-13.3,7.57a75.54,75.54,0,0,1-13.34,2c-2.19.19-4.35.38-6.47.67l-.51.08-.25,0c-6,.92-11.78,2.83-17.11,8.27h0l-.43.21-1,.51-.72.36-.95.51-.67.37c-.5.28-1,.57-1.52.88-.22.12-.44.26-.65.39l-1.1.68-.69.43-1.41.94-.53.35c-.52.35-1,.71-1.56,1.09l-.65.46c-.44.32-.89.64-1.34,1l-.57.42c-.62.46-1.24.93-1.87,1.42l-.14.11h0v-.14c0-.26,0-.53,0-.79a.49.49,0,0,1,0-.12,18.85,18.85,0,0,1,.74-4.17c0-.09,0-.18.08-.26l.18-.53c0-.12.09-.24.13-.36s.13-.31.19-.46l.17-.42c.06-.14.13-.27.19-.41l.22-.45.2-.37q.12-.24.27-.48a3.37,3.37,0,0,1,.19-.32,5.69,5.69,0,0,1,.33-.52c.06-.09.11-.18.18-.27s.26-.39.4-.57l.15-.21.51-.65.09-.11c.44-.52.9-1,1.4-1.53,10-10,31.35-12.65,41.6-13.95,2.41-.3,4.31-.54,5.56-.8,6.17-1.28,11.28-7,11.46-10.21a5.24,5.24,0,0,0-2-4.51c-1.42-1.1-5.71.36-8.44.81-2.3.38-4.09.06-5.1-.89-.06-.06-.13-.11-.19-.18a3.31,3.31,0,0,1-.26-3.65c.42-1,3.75-3,8.62-3.47"/>
        <path class="cls-1" d="M142.61,121.44a.36.36,0,0,0,0,.09l-.16.37-.1.21-.12.25c-.09.18-.19.36-.29.54l-.05.09-.21.36a.1.1,0,0,0,0,.05,9.65,9.65,0,0,1-.76,1l-.09.1c-.07.09-.16.18-.24.27l-.29.28-.08.08c-.16-1.21-.42-4.65-.54-6.44a15,15,0,0,0,3.72.61,17.88,17.88,0,0,1-.71,2.09"/>
        <path class="cls-1" d="M116.73,111.51c-1.13,1.39-3.31,4.06-4.14,5a1.36,1.36,0,0,1,0-.17l-.06-.36c0-.09,0-.18,0-.27l0-.31c0-.09,0-.18,0-.26s0-.33,0-.5,0-.2,0-.3a2.35,2.35,0,0,1,0-.26c0-.1,0-.21,0-.31l0-.23c0-.2,0-.4.08-.6a.59.59,0,0,1,0-.14c0-.13,0-.25.07-.37a.44.44,0,0,1,0-.1,16.71,16.71,0,0,1,.68-2.43,15.09,15.09,0,0,0,3.39,1.65"/>
        <path class="cls-1" d="M160.17,104.39c0,.41-.07.82-.13,1.23a.77.77,0,0,0,0,.15c-.19,1.22-.35,2.6-.53,4.06-.07.6-.15,1.22-.22,1.85h0l.1-.07a6.16,6.16,0,0,0,.55-.33l.18-.13.44-.31.2-.16q.19-.15.39-.33l.19-.16c.14-.12.26-.24.39-.37a1.21,1.21,0,0,0,.16-.16,5.33,5.33,0,0,0,.4-.42.69.69,0,0,0,.11-.13c.16-.18.32-.36.46-.55v0a9.11,9.11,0,0,0,.84-1.25l0,0a5.93,5.93,0,0,0,.29-.56l.06-.12c.07-.17.15-.34.21-.51a.58.58,0,0,0,0-.14c.06-.16.11-.32.16-.48s0-.1,0-.14.07-.33.1-.49a.5.5,0,0,0,0-.12,3.39,3.39,0,0,0,.05-.54.13.13,0,0,0,0-.06,5.52,5.52,0,0,0,0-.58.7.7,0,0,1,0-.14,1.34,1.34,0,0,1-.15-.48s0,0,0,0a4.27,4.27,0,0,0-1.78-1.8l-.08,0-.28-.16-.12-.06-.44-.21-.2-.09-.22-.09-.34-.13-.21-.08-.28-.09-.17-.06-.36-.1a18.61,18.61,0,0,1,.15,4.24,1.49,1.49,0,0,1,0,.21"/>
        <path class="cls-1" d="M103.25,87c0,.07,0,.14,0,.2s-.06.32-.08.48l0,.2c0,.17,0,.33,0,.5s0,.13,0,.2,0,.35,0,.53v.18c0,.19,0,.38,0,.57s0,.09,0,.14c0,.2,0,.41.06.61,0,0,0,.07,0,.1,0,.22.06.44.1.65v0a11.4,11.4,0,0,0,1.23,3.44h0c.37-.71.74-1.39,1.1-2.06.69-1.29,1.35-2.51,1.9-3.62a19.51,19.51,0,0,1,3.31-4.75l-.06,0-.3-.12-.18-.07-.24-.08-.21-.07-.24-.07a3.6,3.6,0,0,0-.44-.12l-.14,0-.33-.07-.07,0a5.29,5.29,0,0,0-3.65.3h0a1.43,1.43,0,0,1-.37.29h0a.81.81,0,0,0-.1.09,4,4,0,0,0-.56.82l-.08.13c-.06.13-.12.26-.17.4a.89.89,0,0,0-.08.17,4.13,4.13,0,0,0-.14.42l-.06.19c0,.14-.07.29-.11.44"/>
        <path class="cls-1" d="M156.59,109.48c.18-1.48.35-2.88.54-4.15.07-.47.12-.93.15-1.39,0-.1,0-.19,0-.29,0-.37,0-.73,0-1.09v-.29c0-.44,0-.88-.09-1.3a.43.43,0,0,0,0,0,10.79,10.79,0,0,0-.19-1.16c0-.13-.05-.25-.08-.38s-.14-.56-.23-.84c0-.12-.07-.24-.11-.36-.11-.36-.25-.71-.39-1.05l-.09.06,0,0a6.5,6.5,0,0,1-5.12.9h0a4.9,4.9,0,0,1-2-1.12,4.09,4.09,0,0,1-.83-1,1.8,1.8,0,0,0-.69-.73,1.06,1.06,0,0,0-1,0,4.38,4.38,0,0,1-3.69.28A4.25,4.25,0,0,1,141,94.1a2.16,2.16,0,0,0-.91-.77.49.49,0,0,0-.26,0,.51.51,0,0,0-.35.19,1.38,1.38,0,0,0,.28,1.32c.67,1,.92,2.5-1.73,4.53-.18.14-.35.29-.51.43l0,0c-.14.13-.26.26-.38.39l-.11.11q-.18.21-.33.42a.39.39,0,0,0-.08.1,3.68,3.68,0,0,0-.28.45l0,.06a3.41,3.41,0,0,0-.22.48v0a2.31,2.31,0,0,0-.16,1.39h0a4.73,4.73,0,0,1,1.66,1.72l0,.07a2.55,2.55,0,0,1,.17.33l.07.15.11.27a1.8,1.8,0,0,0,.08.21l.06.22c0,.08.05.16.07.25a3.77,3.77,0,0,1-.42,3.08,2.83,2.83,0,0,1-4.26.63,4,4,0,0,1-.66-.69h0a4,4,0,0,0-.61,0l-.32,0h-.29a3.25,3.25,0,0,1-.62,0h0l-1,3.08h0l.05,0,.12.09a18.26,18.26,0,0,0,5.33,2.92l.1,0,.7.2,1.92.54c3,.86,5.23,1.47,6.68.76a11.26,11.26,0,0,0,1.51-.95,5.77,5.77,0,0,1,3.51-1.4,3.92,3.92,0,0,1,1.28.27l.24.09a3.61,3.61,0,0,1,.44.22,3.66,3.66,0,0,1,1.79,2.7,4.75,4.75,0,0,1-2.14,4.31,4.17,4.17,0,0,1-.44.29l-.06,0a3,3,0,0,1-.41.19l-.12.05-.39.13-.14,0-.39.08-.14,0-.42.06h-.13a3.59,3.59,0,0,1-.47,0h-.08a12,12,0,0,1-1.7-.09h-.06l-.48-.07-.1,0-.42-.07-.11,0-.38-.08-.11,0-.36-.08-.09,0-.36-.1H144a12.73,12.73,0,0,1-.9,1.65l-.06.1c-.1.16-.21.31-.32.46a1.13,1.13,0,0,1-.1.13c-.09.13-.19.26-.29.38l-.13.15-.3.34-.15.15c-.12.13-.24.24-.37.36l-.16.14c-.12.1-.25.21-.38.3s0,0,0,0a1.49,1.49,0,0,1-1.33.28l-.05,0h0a1.83,1.83,0,0,1-1.06-1.62c-.12-.75-.29-2.75-.42-4.55h-.08l-.4,0h-.13l-.43-.05h-.11l-.45-.06h-.07c-.66-.1-1.34-.22-2-.36l-.23,0-.28-.06-.31-.07-.24-.06-.33-.08-.21,0-.35-.09-.18,0-.36-.1-.14,0-.36-.11-.12,0-.35-.11-.1,0-.33-.11-.08,0-.31-.12,0,0-5.67-1.79h0l-.32-.09-.72-.21c-.52-.16-1.1-.37-1.71-.6l-.09,0-.76-.31-.33-.14-.53-.22-.47-.22-.37-.17-.57-.27-.24-.13c-.21-.11-.42-.21-.63-.33l-.13-.07-.66-.37h0c-1.15,1.4-2.44,2.94-3,3.49a1.82,1.82,0,0,1-1.79.71l-.06,0h0l-.17-.07h0l-.14-.09,0,0a.69.69,0,0,1-.13-.11h0a1.56,1.56,0,0,1-.41-.69,6.29,6.29,0,0,1-.17-.62s0-.08,0-.13l-.09-.47c0-.11,0-.22,0-.33s0-.08,0-.11c0-.25,0-.49-.06-.73h0c0-.4,0-.8,0-1.2h0q0-.35.06-.66a1.64,1.64,0,0,1,0-.23l0-.25c0-.17.06-.33.08-.49a.13.13,0,0,0,0-.06h0l-.06,0-.33-.12-.13,0L110,112l-.17-.07-.27-.12-.19-.08-.28-.13-.19-.09-.29-.15-.19-.1-.32-.18-.16-.09-.45-.29-.16-.11-.29-.2-.19-.15-.24-.19-.19-.17-.21-.2-.18-.18-.18-.2-.17-.21-.16-.21c0-.07-.1-.14-.14-.21l-.13-.23a2.39,2.39,0,0,1-.12-.22c0-.09-.07-.18-.1-.26l-.09-.21a4.75,4.75,0,0,1,.74-4.75,3.63,3.63,0,0,1,3.5-1.11,4.15,4.15,0,0,1,1.45.58,5.76,5.76,0,0,1,2.06,3.17,11.23,11.23,0,0,0,.7,1.64,3.83,3.83,0,0,0,1.42,1.37,25.11,25.11,0,0,0,4.47,1.85l1.88.67c.24.09.47.16.7.23l.09,0a18.52,18.52,0,0,0,6.26.67l1-3.08a6,6,0,0,1-1-.76,2.52,2.52,0,0,0-.49-.38h0a3.33,3.33,0,0,1-2.16,0,2.94,2.94,0,0,1-1.07-.68,2.9,2.9,0,0,1-.81-2.12A3.76,3.76,0,0,1,125,102.3a4.35,4.35,0,0,1,.42-.33h0l.43-.28h0a4.94,4.94,0,0,1,2.82-.7h0a1.52,1.52,0,0,0,.26-.3l0,0a2.08,2.08,0,0,0,.2-.36.36.36,0,0,1,0-.09,3.59,3.59,0,0,0,.12-.39.85.85,0,0,0,0-.17c0-.12,0-.24.07-.37s0-.18,0-.28,0-.21,0-.32,0-.28,0-.42a1.77,1.77,0,0,1,0-.23c0-.21-.06-.43-.1-.64a.13.13,0,0,1,0-.06,6.93,6.93,0,0,0-.2-.75c-1-3.19.1-4.32,1.19-4.7a1.38,1.38,0,0,0,1-.92.44.44,0,0,0-.17-.36s0,0,0,0a1.67,1.67,0,0,0-1.39,0,4.08,4.08,0,0,1-2.91-.07,4.7,4.7,0,0,1-2.18-2.13,1,1,0,0,0-.58-.52,1.64,1.64,0,0,0-1.24.14,4.67,4.67,0,0,1-3.59.12h0a6.52,6.52,0,0,1-3.67-3.69s0-.09-.05-.14h0l-.22.15-.66.44-.45.35-.48.41c-.14.13-.29.25-.43.39s-.35.35-.53.54l-.45.5c-.2.23-.39.47-.58.72s-.21.29-.31.43-.3.43-.44.66l-.29.45c-.17.3-.34.6-.5.91l-.12.23c-.58,1.15-1.25,2.39-2,3.7-3.62,6.73-8.57,15.95-6.2,23.26a14.58,14.58,0,0,0,4.92,7l.08,0c.17.14.34.26.52.39l.25.18.3.19a13,13,0,0,0,2.22,1.14l.11,0,.43.15.12,0,.15.05.3.08.54.13h0a30,30,0,0,0,4.92.42l1.31,0h0l.52,0,.23,0,.47,0,.3,0,.45,0,.32,0,.45.07.36.06.44.09.44.1.38.09,1.7-5.37a1.45,1.45,0,0,1,1.83-.95h0a1.45,1.45,0,0,1,1,1.83l-1.7,5.37h0l.28.11.51.21.34.15.41.19.33.17.38.2.31.17.37.22.28.16.38.24.25.15.45.29.15.1.6.4c.79.52,1.59,1.06,2.5,1.57l.18.1.38.21.37.19.21.11.37.17.25.13h0c.18.08.37.16.57.23l.27.09.16.06.13,0,.44.12.1,0a13.88,13.88,0,0,0,2.56.35h1.17l.22,0a14.47,14.47,0,0,0,6.94-2.18c.35-.22.71-.45,1-.71,6.14-4.62,7.39-15,8.3-22.59m-12.16,2.8a7.1,7.1,0,1,1,8.9-4.63,7.11,7.11,0,0,1-8.9,4.63M120.78,89.92a7.09,7.09,0,1,1-8.9,4.62,7.1,7.1,0,0,1,8.9-4.62"/>
        <path class="cls-1" d="M117.28,83.65a4.85,4.85,0,0,0,2.62,2.73,2.89,2.89,0,0,0,2.18,0,3.06,3.06,0,0,1,4.22,1.13c1,1.74,2.14,1.6,2.94,1.35a3.13,3.13,0,0,1,3.17.38,2.25,2.25,0,0,1,.77,2A2.82,2.82,0,0,1,132.13,93a3.73,3.73,0,0,1-1.13.62.42.42,0,0,0-.21.16c-.34.44-.06,1.57.16,2.28a7,7,0,0,1-.33,5.56,6,6,0,0,1,.52.36.92.92,0,0,1,.12,1.29.8.8,0,0,1-.17.15.92.92,0,0,1-1.12,0,2.87,2.87,0,0,0-3.73.33.46.46,0,0,1-.07.07,2,2,0,0,0-.74,1.37,1.13,1.13,0,0,0,.25.78,1.33,1.33,0,0,0,1.46.22,2.22,2.22,0,0,1,2.21.76,3,3,0,0,0,1.19.75,3.06,3.06,0,0,0,1.41.07,2.21,2.21,0,0,1,2.24.65,1.3,1.3,0,0,0,1.32.65.85.85,0,0,0,.37-.19,1.11,1.11,0,0,0,.28-.29,2.07,2.07,0,0,0,.17-1.64,2.88,2.88,0,0,0-2.87-2.43.91.91,0,0,1-1-.83.92.92,0,0,1,.25-.7.9.9,0,0,1,.59-.29,4.69,4.69,0,0,1,.53,0H134a6.53,6.53,0,0,1,2.31-4.23c.2-.18.41-.35.62-.52s.3-.23.46-.37c.6-.52,1.21-1.21.9-1.65a3.11,3.11,0,0,1-.44-3.17,2,2,0,0,1,.41-.56,2.28,2.28,0,0,1,1.39-.66,3.13,3.13,0,0,1,2.8,1.52c.52.67,1.4,1.45,3.19.59a3.06,3.06,0,0,1,4.1,1.5,2.9,2.9,0,0,0,1.76,1.29,4.85,4.85,0,0,0,3.71-.73l.07,0a.52.52,0,0,1,.16-.06c-2-3.34-5.52-5.92-10.38-7.46l-15.09-4.77c-4.87-1.54-9.23-1.46-12.79.13a.08.08,0,0,1,0,0,.54.54,0,0,1,.1.16"/>
        <path class="cls-1" d="M118.4,101.24a4.78,4.78,0,1,0-3.12-6,4.78,4.78,0,0,0,3.12,6"/>
        <path class="cls-1" d="M149.21,101a4.78,4.78,0,1,0,3.12,6,4.79,4.79,0,0,0-3.12-6"/>
        <path class="cls-1" d="M63.12,101.1c4.89-9.94,22.47-6.65,27.19,0s6.08,16.14,6.41,25.58,8.72,9,14.72,12.62a11.92,11.92,0,0,0-11,6.49c-3.48,6.66-14.39-3.19-17.28-6.55s1.68-8.24-3.12-13.83-21.92-14.22-17-24.3"/>
        <path class="cls-1" d="M4.27,67.69c10.73-8.61,29.16,2.17,30.57,12,1.61,11.24-1.22,24.4-9.76,33.89-7.91,8.78,4.05,14.58,8.31,21.69a13.8,13.8,0,0,0-15.13,1.62c-7.41,5.66-13.29-11-14.42-16.21s6.4-8.35,4.52-17.08-15-27.17-4.09-35.9"/>
        <path class="cls-1" d="M101.21,150s1.68-8.23,5.83-7.92,6.81,6.8,6.65,8.88Z"/>
        <path class="cls-1" d="M110.24,141.29s4.48-3.84,8.32.64,2.48,8.55,2.48,8.55l-6.23-.47s1.35-4.08-4.57-8.72"/>
        <path class="cls-1" d="M119.68,141s7.27.55,7.76,7.91l-4.16-.32s.24-3.12-3.6-7.59"/>
        <path class="cls-1" d="M14.77,145.51s1.68-8.24,5.84-7.92,6.8,6.79,6.64,8.87Z"/>
        <path class="cls-1" d="M23.8,136.79s4.48-3.84,8.32.63S34.6,146,34.6,146l-6.23-.48s1.35-4.08-4.57-8.71"/>
        <path class="cls-1" d="M33.24,136.46s7.28.56,7.76,7.91l-4.16-.31s.24-3.12-3.6-7.6"/>
        <path class="cls-1" d="M57.51,125.56a14.26,14.26,0,0,0-9.36,3.14c-7.4,5.67-13.28-11-14.41-16.2s6-8.19,4.65-16.43C43.08,102.5,49,116.48,53.14,122.3a10.44,10.44,0,0,0,4.37,3.26"/>
        <path class="cls-1" d="M44.67,137.34s1.68-8.24,5.84-7.92,6.8,6.79,6.64,8.87Z"/>
        <path class="cls-1" d="M53.7,128.61s4.48-3.84,8.32.64,2.48,8.55,2.48,8.55l-6.23-.47s1.35-4.08-4.57-8.72"/>
        <path class="cls-1" d="M63.14,128.29s7.28.55,7.76,7.91l-4.16-.32s.24-3.12-3.6-7.59"/>
        <path class="cls-1" d="M135.91,147.43s1.68-8.23,5.84-7.92,6.8,6.8,6.64,8.88Z"/>
        <path class="cls-1" d="M144.94,138.71s4.48-3.84,8.32.64,2.48,8.55,2.48,8.55l-6.23-.47s1.35-4.08-4.57-8.72"/>
        <path class="cls-1" d="M154.38,138.39s7.27.55,7.76,7.91L158,146s.24-3.12-3.6-7.59"/>
        <path class="cls-1" d="M97.41,76.53A36.34,36.34,0,0,1,75.49,62.32c-6.64-8.88-20.32-21.42-38-22.77S-.55,58.6,1.93,67.16C15.2,57.71,28.24,65,35,71.78s-.31,17.75,4.57,22.3,11.93,21.82,16.65,28.46,22.55,5.9,22.55,5.9c.16-2.08-4.8-5.59-9.76-9.11s-10.8-9.19-10.32-15.43,6.3-14.15,20.78-12C93.53,94,97.66,110,97.9,111a23.34,23.34,0,0,1,4.24-14.26s-4.56-8.71-1-13.67,11.59-1.21,11.59-1.21c1.2-2-8.07-3.75-15.27-5.35m-25,47.24a1.56,1.56,0,1,1-1.68,1.44,1.55,1.55,0,0,1,1.68-1.44m-6.16-1.52a1.56,1.56,0,1,1-1.68,1.44,1.56,1.56,0,0,1,1.68-1.44m-5-2.48a1.56,1.56,0,1,1-1.67,1.45,1.56,1.56,0,0,1,1.67-1.45M58.77,117a1.56,1.56,0,1,1-1.44-1.68A1.56,1.56,0,0,1,58.77,117"/>
      </g>
    </g>
  </g>
</svg>
