<svg xmlns="http://www.w3.org/2000/svg" xmlns:xlink="http://www.w3.org/1999/xlink" width="1399.73" height="163.54" viewBox="0 0 1399.73 163.54">
  <defs>
    <style>
      .cls-1 {
        fill: none;
      }

      .cls-2 {
        fill: #fff;
      }

      .cls-3 {
        clip-path: url(#clip-path);
      }

      .cls-4 {
        fill: #f2bf57;
      }

      .cls-5 {
        fill: #9d7c52;
      }
    </style>
    <clipPath id="clip-path">
      <path class="cls-1" d="M1375.39,163s-227.27-5.71-249.21-109c0,0-97.62,38.37-426.32,38.37S273.55,54,273.55,54C251.61,157.26,24.34,163,24.34,163H1375.39"/>
    </clipPath>
  </defs>
  <g id="圖層_2" data-name="圖層 2">
    <g id="圖層_1-2" data-name="圖層 1">
      <g>
        <path class="cls-2" d="M0,163.54l0-1.15c.57,0,57.45-1.59,116.28-15.75,34.51-8.31,62.93-19.26,84.46-32.56,26.83-16.56,42.95-36.83,47.92-60.22l1.13.24c-5,23.71-21.34,44.23-48.46,61-21.63,13.35-50.16,24.35-84.8,32.69C57.59,162,.6,163.53,0,163.54Z"/>
        <path class="cls-2" d="M1399.7,163.54c-.57,0-57.56-1.59-116.5-15.78-34.64-8.34-63.17-19.34-84.8-32.69-27.12-16.74-43.42-37.26-48.46-61l1.13-.24c5,23.39,21.09,43.66,47.92,60.22,21.53,13.3,50,24.25,84.46,32.56,58.83,14.16,115.71,15.74,116.28,15.75Z"/>
        <path class="cls-2" d="M699.86,82.58c-139.71,0-327.51-7.12-428.79-41C210.15,21.15,209.45.85,209.45,0h1.15c0,.05.14,5.13,7.73,12.65,7,7,22.07,17.49,53.75,28C328,59.27,447.61,81.43,699.86,81.43c139.63,0,327.3-7.11,428.44-41C1188.44,20.32,1189.13.2,1189.13,0h1.14c0,.85-.69,21.15-61.61,41.55-35.59,11.91-84.55,21.4-145.54,28.21C906.92,78.26,811.62,82.58,699.86,82.58Z"/>
        <g class="cls-3">
          <g>
            <g>
              <path class="cls-4" d="M95.37,159.47S689.94,161,703.82,161s608.44-1.54,608.44-1.54"/>
              <path class="cls-5" d="M703.82,161.51c-13.72,0-602.5-1.52-608.45-1.54v-1c5.94,0,594.72,1.54,608.44,1.54s602.5-1.52,608.44-1.54v1C1306.32,160,717.54,161.51,703.82,161.51Z"/>
            </g>
            <g>
              <path class="cls-4" d="M107.25,152.48s554.93,4.62,596.57,4.62,596.57-4.62,596.57-4.62"/>
              <path class="cls-5" d="M703.82,157.6c-41.17,0-591-4.57-596.57-4.62v-1c5.55.05,555.4,4.62,596.56,4.62s591-4.57,596.56-4.62v1C1294.84,153,745,157.6,703.82,157.6Z"/>
            </g>
            <g>
              <path class="cls-4" d="M119.13,145.49s515.29,7.71,584.69,7.71,584.69-7.71,584.69-7.71"/>
              <path class="cls-5" d="M703.82,153.7c-68.61,0-579.54-7.63-584.7-7.71l0-1c5.15.08,516.08,7.71,584.68,7.71s579.53-7.63,584.68-7.71l0,1C1283.36,146.07,772.43,153.7,703.82,153.7Z"/>
            </g>
            <g>
              <path class="cls-4" d="M131,138.5s475.65,10.79,572.81,10.79,572.81-10.79,572.81-10.79"/>
              <path class="cls-5" d="M703.82,149.79c-96.06,0-568.07-10.68-572.82-10.79l0-1c4.76.11,476.75,10.79,572.8,10.79s568-10.68,572.8-10.79l0,1C1271.88,139.11,799.88,149.79,703.82,149.79Z"/>
            </g>
            <g>
              <path class="cls-4" d="M142.89,131.51s436,13.87,560.93,13.87,560.93-13.87,560.93-13.87"/>
              <path class="cls-5" d="M703.82,145.88c-123.5,0-556.59-13.73-560.95-13.87l0-1c4.36.14,437.43,13.87,560.92,13.87s556.56-13.73,560.92-13.87l0,1C1260.41,132.15,827.32,145.88,703.82,145.88Z"/>
            </g>
            <g>
              <path class="cls-4" d="M154.77,124.52s396.37,17,549.05,17,549-17,549-17"/>
              <path class="cls-5" d="M703.82,142c-151,0-545.11-16.78-549.08-17l0-1c4,.17,398.1,17,549,17s545.07-16.78,549-17l.05,1C1248.93,125.19,854.77,142,703.82,142Z"/>
            </g>
            <g>
              <path class="cls-4" d="M166.64,117.53s356.74,20,537.18,20,537.18-20,537.18-20"/>
              <path class="cls-5" d="M703.82,138.06c-178.39,0-533.64-19.83-537.2-20l0-1c3.57.2,358.78,20,537.15,20S1237.4,117.23,1241,117l0,1C1237.46,118.23,882.21,138.06,703.82,138.06Z"/>
            </g>
            <g>
              <path class="cls-4" d="M178.52,110.54s317.1,23.12,525.3,23.12,525.3-23.12,525.3-23.12"/>
              <path class="cls-5" d="M703.82,134.16C498,134.16,181.66,111.27,178.49,111l.07-1c3.17.23,319.46,23.12,525.26,23.12s522.09-22.89,525.26-23.12l.07,1C1226,111.27,909.66,134.16,703.82,134.16Z"/>
            </g>
            <g>
              <path class="cls-4" d="M190.4,103.55s277.46,26.2,513.42,26.2,513.42-26.2,513.42-26.2"/>
              <path class="cls-5" d="M703.82,130.25c-233.29,0-510.69-25.94-513.47-26.2l.1-1c2.77.26,280.13,26.2,513.37,26.2s510.6-25.94,513.37-26.2l.1,1C1214.51,104.31,937.11,130.25,703.82,130.25Z"/>
            </g>
            <g>
              <path class="cls-4" d="M202.28,96.56s237.81,29.28,501.54,29.28,501.54-29.28,501.54-29.28"/>
              <path class="cls-5" d="M703.82,126.34c-260.74,0-499.22-29-501.6-29.29l.12-1c2.38.29,240.8,29.28,501.48,29.28s499.1-29,501.48-29.28l.12,1C1203,97.35,964.56,126.34,703.82,126.34Z"/>
            </g>
            <g>
              <path class="cls-4" d="M214.16,89.57s198.17,32.36,489.66,32.36,489.66-32.36,489.66-32.36"/>
              <path class="cls-5" d="M703.82,122.43c-288.19,0-487.76-32.05-489.74-32.37l.16-1c2,.33,201.47,32.36,489.58,32.36s487.6-32,489.58-32.36l.16,1C1191.58,90.38,992,122.43,703.82,122.43Z"/>
            </g>
            <g>
              <path class="cls-4" d="M226,82.58S384.57,118,703.82,118,1181.6,82.58,1181.6,82.58"/>
              <path class="cls-5" d="M703.82,118.52c-164.94,0-286.08-9.64-358.67-17.72C266.5,92,226.32,83.15,225.93,83.06l.21-1c1.59.35,162.16,35.43,477.68,35.43,164.87,0,286-9.63,358.53-17.71C1141,91.05,1181.1,82.18,1181.5,82.09l.21,1C1180.13,83.42,1019.47,118.52,703.82,118.52Z"/>
            </g>
            <g>
              <path class="cls-4" d="M237.91,75.59s118.9,38.53,465.91,38.53,465.91-38.53,465.91-38.53"/>
              <path class="cls-5" d="M703.82,114.62c-99,0-242.28-3.35-363.15-19.27-72.31-9.53-102.61-19.19-102.91-19.29l.31-1c.29.1,30.55,9.74,102.8,19.25,120.8,15.92,264,19.26,363,19.26S946,110.28,1066.77,94.36c72.25-9.51,102.5-19.15,102.8-19.25l.31,1c-.3.1-30.61,9.76-102.91,19.29C946.1,111.27,802.77,114.62,703.82,114.62Z"/>
            </g>
            <g>
              <path class="cls-4" d="M249.79,68.6s79.26,41.61,454,41.61,454-41.61,454-41.61"/>
              <path class="cls-5" d="M703.82,110.71c-106.87,0-257.4-3.61-367.63-20.81-66-10.3-86.43-20.76-86.63-20.86l.46-.89c.2.11,20.6,10.51,86.51,20.79,110.15,17.16,260.53,20.77,367.29,20.77S961,106.1,1071.11,88.94c65.91-10.28,86.31-20.68,86.51-20.79l.46.89c-.2.1-20.65,10.56-86.63,20.86C961.22,107.1,810.69,110.71,703.82,110.71Z"/>
            </g>
            <g>
              <path class="cls-4" d="M261.67,61.61s39.62,44.69,442.15,44.69S1146,61.61,1146,61.61"/>
              <path class="cls-5" d="M703.82,106.8c-114.79,0-272.53-3.88-372.11-22.36-59.71-11.07-70-22-70.41-22.5l.74-.67c.1.11,10.76,11.29,70.48,22.31C432.09,102,589.39,105.8,703.82,105.8s271.73-3.85,371.3-22.22c59.71-11,70.38-22.2,70.48-22.31l.74.67c-.41.46-10.7,11.43-70.41,22.5C976.35,102.92,818.61,106.8,703.82,106.8Z"/>
            </g>
            <g>
              <path class="cls-4" d="M1134.09,54.62s0,47.77-430.27,47.77S273.55,54.62,273.55,54.62"/>
              <path class="cls-5" d="M703.82,102.89c-122.71,0-287.66-4.14-376.6-23.9-53.56-11.89-54.17-23.87-54.17-24.38h1c0,.1,1.05,12,54.69,23.68C418,97.8,582,101.89,703.82,101.89S989.69,97.8,1078.9,78.3c53.64-11.72,54.69-23.58,54.69-23.69h1c0,.51-.61,12.49-54.17,24.38C991.48,98.75,826.53,102.89,703.82,102.89Z"/>
            </g>
          </g>
        </g>
      </g>
    </g>
  </g>
</svg>
