<svg xmlns="http://www.w3.org/2000/svg" width="33.61" height="33.61" viewBox="0 0 33.61 33.61">
  <defs>
    <style>
      .cls-1 {
        fill: #fffbf3;
      }

      .cls-2 {
        fill: #fc462d;
      }
    </style>
  </defs>
  <g id="圖層_2" data-name="圖層 2">
    <g id="圖層_1-2" data-name="圖層 1">
      <circle class="cls-1" cx="16.8" cy="16.8" r="16.8" transform="translate(-5.17 25.85) rotate(-67.38)"/>
      <path class="cls-2" d="M18.75,10.79c.08-.07.33-.25,1.08-.25a8.21,8.21,0,0,1,1.34.12l.73.13.64-3.56-.73-.14c-2.37-.44-4.26-.29-5.41.45a3.83,3.83,0,0,0-1.57,1.88,6.94,6.94,0,0,0-.31,2.38v.76h-2.2v3.37h2.2V26.31h4V15.93h2.87V12.56H18.5V12C18.5,11.08,18.71,10.83,18.75,10.79Z"/>
    </g>
  </g>
</svg>
