<?xml version="1.0" encoding="UTF-8"?>
<svg id="b" data-name="圖層 2" xmlns="http://www.w3.org/2000/svg" width="58.24" height="59.66" xmlns:xlink="http://www.w3.org/1999/xlink" viewBox="0 0 58.24 59.66">
  <defs>
    <style>
      .br {
        clip-path: url(#ba);
      }

      .bs {
        clip-path: url(#ay);
      }

      .bt {
        clip-path: url(#an);
      }

      .bu {
        clip-path: url(#t);
      }

      .bv {
        clip-path: url(#bn);
      }

      .bw {
        clip-path: url(#i);
      }

      .bx {
        clip-path: url(#af);
      }

      .by {
        clip-path: url(#x);
      }

      .bz {
        clip-path: url(#k);
      }

      .ca {
        clip-path: url(#q);
      }

      .cb {
        clip-path: url(#ar);
      }

      .cc {
        clip-path: url(#bb);
      }

      .cd {
        clip-path: url(#m);
      }

      .ce {
        clip-path: url(#bp);
      }

      .cf {
        clip-path: url(#f);
      }

      .cg {
        clip-path: url(#j);
      }

      .ch {
        clip-path: url(#aa);
      }

      .ci {
        clip-path: url(#ai);
      }

      .cj {
        fill: #fff;
      }

      .ck {
        clip-path: url(#bk);
      }

      .cl {
        clip-path: url(#bc);
      }

      .cm {
        clip-path: url(#ac);
      }

      .cn {
        clip-path: url(#ad);
      }

      .co {
        clip-path: url(#bi);
      }

      .cp {
        clip-path: url(#al);
      }

      .cq {
        clip-path: url(#ax);
      }

      .cr {
        clip-path: url(#av);
      }

      .cs {
        clip-path: url(#bg);
      }

      .ct {
        clip-path: url(#am);
      }

      .cu {
        clip-path: url(#aq);
      }

      .cv {
        clip-path: url(#p);
      }

      .cw {
        clip-path: url(#h);
      }

      .cx {
        clip-path: url(#ak);
      }

      .cy {
        clip-path: url(#bo);
      }

      .cz {
        clip-path: url(#bq);
      }

      .da {
        clip-path: url(#ag);
      }

      .db {
        clip-path: url(#o);
      }

      .dc {
        isolation: isolate;
      }

      .dd {
        clip-path: url(#v);
      }

      .de {
        clip-path: url(#bd);
      }

      .df {
        clip-path: url(#n);
      }

      .dg {
        clip-path: url(#be);
      }

      .dh {
        clip-path: url(#r);
      }

      .di {
        clip-path: url(#bj);
      }

      .dj {
        clip-path: url(#s);
      }

      .dk {
        clip-path: url(#az);
      }

      .dl {
        clip-path: url(#at);
      }

      .dm {
        clip-path: url(#g);
      }

      .dn {
        clip-path: url(#z);
      }

      .do {
        clip-path: url(#ao);
      }

      .dp {
        clip-path: url(#ap);
      }

      .dq {
        clip-path: url(#bl);
      }

      .dr {
        clip-path: url(#l);
      }

      .ds {
        clip-path: url(#d);
      }

      .dt {
        clip-path: url(#ae);
      }

      .du {
        clip-path: url(#bm);
      }

      .dv {
        clip-path: url(#e);
      }

      .dw {
        clip-path: url(#au);
      }

      .dx {
        clip-path: url(#aj);
      }

      .dy {
        clip-path: url(#w);
      }

      .dz {
        clip-path: url(#ab);
      }

      .ea {
        clip-path: url(#bf);
      }

      .eb {
        clip-path: url(#ah);
      }

      .ec {
        clip-path: url(#y);
      }

      .ed {
        fill: #dcdddd;
      }

      .ee {
        clip-path: url(#as);
      }

      .ef {
        clip-path: url(#u);
      }

      .eg {
        clip-path: url(#bh);
      }

      .eh {
        clip-path: url(#aw);
      }
    </style>
    <clipPath id="d">
      <path class="cj" d="M40.8,11.85c-3.43-2.83-7.98-4.45-12.58-4.57.04-.1.1-.23.14-.33.04-.1.1-.24.15-.35s.11-.25.15-.36.11-.26.16-.37.11-.26.16-.37.11-.25.15-.36c.1-.22.19-.45.29-.67,4.6.11,9.14,1.73,12.58,4.57-.36.84-.84,1.96-1.2,2.8Z"/>
    </clipPath>
    <clipPath id="e">
      <path class="cj" d="M28.22,7.28s0,0,0,0c.04-.1.1-.23.14-.33.04-.1.1-.24.15-.35s.11-.25.15-.36.11-.26.16-.37.11-.26.16-.37.11-.25.15-.36.1-.24.15-.35c.04-.1.1-.23.14-.33,0,0,0,0,0,0h0c-.4.93-.8,1.87-1.2,2.8,0,0,0,0,0,0Z"/>
    </clipPath>
    <clipPath id="f">
      <path class="cj" d="M28.22,7.28c-.78-.03-1.57-.01-2.35.05.4-.93.8-1.87,1.2-2.8.78-.06,1.57-.08,2.35-.05-.4.93-.8,1.87-1.2,2.8Z"/>
    </clipPath>
    <clipPath id="g">
      <path class="cj" d="M21.38,8.15c-2.22.65-4.32,1.68-6.23,2.95l1.2-2.8c1.91-1.27,4.01-2.3,6.23-2.95,1.47-.42,2.97-.71,4.49-.83h0c-.4.93-.8,1.87-1.2,2.8,0,0,0,0,0,0-1.52.12-3.03.41-4.49.83Z"/>
    </clipPath>
    <clipPath id="h">
      <path class="cj" d="M42,9.05l-1.2,2.8c-4.04-1.84-8.34-2.66-12.51-2.39-.1,0-.19.01-.29.02-4.05.32-7.95,1.67-11.2,3.94-1.68,1.14-3.18,2.52-4.47,4.09l1.2-2.8c1.28-1.56,2.78-2.95,4.47-4.09,3.25-2.27,7.15-3.62,11.2-3.94.1,0,.19-.01.29-.02,4.17-.26,8.46.56,12.51,2.39Z"/>
    </clipPath>
    <clipPath id="i">
      <path class="cj" d="M32.94,11.85c-.15.01-.29.06-.42.14l1.2-2.8c.13-.08.28-.13.42-.14.36-.03.72.14.93.47.18.28.19.61.08.89l-1.2,2.8c.12-.28.1-.61-.08-.89-.2-.33-.57-.5-.93-.47Z"/>
    </clipPath>
    <clipPath id="j">
      <path class="cj" d="M32.51,11.99c-.18.11-.31.27-.39.44l1.2-2.8c.08-.18.21-.34.39-.44-.36.84-.6,2.11-1.2,2.8Z"/>
    </clipPath>
    <clipPath id="k">
      <path class="cj" d="M35.14,10.42l-1.2,2.8c-.08.18-.21.34-.39.44-.13.08-.28.12-.42.13-.36.03-.73-.14-.94-.47-.17-.28-.19-.61-.07-.88l1.2-2.8c-.12.28-.1.6.07.88.2.33.57.5.94.47.15-.01.29-.06.42-.13.18-.11.31-.26.39-.44Z"/>
    </clipPath>
    <clipPath id="l">
      <path class="cj" d="M26.57,11.46c-.26.02-.51.14-.69.36l1.2-2.8c.18-.21.43-.34.69-.36.24-.02.49.05.7.21h0c-.4.93-.8,1.87-1.2,2.8,0,0,0,0,0,0-.21-.16-.46-.23-.7-.21Z"/>
    </clipPath>
    <clipPath id="m">
      <path class="cj" d="M27.57,12.81c.17-.39.06-.86-.3-1.14.04-.1.1-.23.14-.33.04-.1.1-.24.15-.35s.11-.25.15-.36.11-.26.16-.37.11-.26.16-.37.11-.25.15-.36.1-.24.15-.35c.04-.1.1-.23.14-.33.36.28.46.75.3,1.14-.36.84-.84,1.96-1.2,2.8Z"/>
    </clipPath>
    <clipPath id="n">
      <path class="cj" d="M25.88,11.82c-.06.07-.1.14-.13.22l1.2-2.8c.03-.08.08-.15.13-.22-.36.84-.73,2.02-1.2,2.8Z"/>
    </clipPath>
    <clipPath id="o">
      <path class="cj" d="M28.77,10.02l-1.2,2.8c-.03.08-.08.15-.14.22-.17.22-.42.34-.68.36-.24.02-.5-.05-.7-.22-.36-.28-.47-.75-.3-1.14l1.2-2.8c-.17.39-.05.86.3,1.14.21.16.46.23.7.22.26-.02.5-.14.68-.36.06-.07.1-.15.14-.22Z"/>
    </clipPath>
    <clipPath id="p">
      <path class="cj" d="M21.54,13.97c-.08-.31-.32-.58-.65-.69.2-.47.4-.93.6-1.4.15-.36.31-.71.46-1.07l.14-.33c.33.11.56.38.65.69-.06.14-.12.29-.18.43-.03.07-.07.16-.1.23s-.07.16-.1.23c-.13.3-.25.6-.38.89-.14.34-.29.68-.43,1.01Z"/>
    </clipPath>
    <clipPath id="q">
      <path class="cj" d="M21.54,13.97s.04-.08.05-.12c.02-.04.04-.09.05-.13,0-.02.02-.05.03-.06.02-.04.04-.09.06-.13,0-.02.02-.05.03-.07.02-.04.04-.09.06-.13s.04-.09.06-.13.04-.09.05-.13c.02-.04.04-.08.05-.12.25-.6.51-1.19.76-1.79.05.18.04.37-.02.55h0c-.4.93-.8,1.87-1.2,2.8,0,0,0,0,0,0,.06-.19.06-.38.02-.55Z"/>
    </clipPath>
    <clipPath id="r">
      <path class="cj" d="M21.49,14.59s.02-.04.03-.07c.04-.1.1-.23.14-.33.04-.1.1-.24.15-.35s.11-.25.15-.36.11-.26.16-.37.11-.26.16-.37.11-.25.15-.36.1-.24.15-.35c.04-.1.1-.23.14-.33,0,.02-.02.04-.03.07-.36.84-.84,1.96-1.2,2.8Z"/>
    </clipPath>
    <clipPath id="s">
      <path class="cj" d="M19.67,13.81l1.2-2.8c.14-.34.46-.55.82-.58.13-.01.27,0,.4.05l-1.2,2.8c-.13-.04-.27-.06-.4-.05-.36.03-.68.24-.82.58Z"/>
    </clipPath>
    <clipPath id="t">
      <path class="cj" d="M22.69,11.79l-1.2,2.8c-.14.34-.46.55-.82.58-.13.01-.27,0-.4-.05-.52-.18-.8-.73-.64-1.23,0-.03.02-.05.03-.07l1.2-2.8s-.02.05-.03.07c-.16.5.11,1.05.64,1.23.13.05.27.06.4.05.35-.03.67-.25.82-.58Z"/>
    </clipPath>
    <clipPath id="u">
      <path class="cj" d="M47.25,30.53c-.2.02-.4.09-.56.24l1.2-2.8c.16-.14.36-.22.56-.24.3-.02.61.09.83.34h0c-.4.93-.8,1.87-1.2,2.8,0,0,0,0,0,0-.22-.25-.53-.36-.83-.34Z"/>
    </clipPath>
    <clipPath id="v">
      <path class="cj" d="M16.51,17.91c-.02-.54-.47-.97-1.02-.96.04-.1.1-.23.14-.33.04-.1.1-.24.15-.35s.11-.25.15-.36.11-.26.16-.37.11-.26.16-.37.11-.25.15-.36.1-.24.15-.35c.04-.1.1-.23.14-.33.55,0,1,.42,1.02.96,0,.03,0,.07,0,.1-.4.93-.8,1.87-1.2,2.8,0-.03,0-.06,0-.1Z"/>
    </clipPath>
    <clipPath id="w">
      <path class="cj" d="M46.69,30.77c-.11.1-.19.21-.25.34l1.2-2.8c.05-.13.14-.24.25-.34-.36.84-.66,2.06-1.2,2.8Z"/>
    </clipPath>
    <clipPath id="x">
      <path class="cj" d="M15.42,16.96c-.37.03-.68.26-.82.58l1.2-2.8c.14-.32.44-.55.82-.58.02,0,.04,0,.06,0h0c-.4.93-.8,1.87-1.2,2.8,0,0,0,0,0,0-.02,0-.04,0-.06,0Z"/>
    </clipPath>
    <clipPath id="y">
      <path class="cj" d="M16.43,18.32c.04-.1.07-.2.07-.31.04-.1.1-.23.14-.33.04-.1.1-.24.15-.35s.11-.25.15-.36.11-.26.16-.37.11-.26.16-.37.11-.25.15-.36.1-.24.15-.35c.04-.1.1-.23.14-.33,0,.11-.03.21-.07.31-.36.84-.84,1.96-1.2,2.8Z"/>
    </clipPath>
    <clipPath id="z">
      <path class="cj" d="M16.34,8.31l-1.2,2.8c-1.87,1.33-3.56,2.93-4.95,4.74l1.2-2.8c1.39-1.82,3.08-3.41,4.95-4.74Z"/>
    </clipPath>
    <clipPath id="aa">
      <path class="cj" d="M49.45,29.1l-1.2,2.8c-.05.13-.14.24-.25.34-.16.14-.36.22-.56.24-.3.02-.61-.09-.83-.34-.26-.29-.31-.69-.17-1.02l1.2-2.8c-.14.33-.09.73.17,1.02.22.25.53.36.83.34.2-.02.4-.09.56-.24.11-.1.19-.21.25-.34Z"/>
    </clipPath>
    <clipPath id="ab">
      <path class="cj" d="M17.63,15.52l-1.2,2.8c-.14.32-.44.55-.82.58-.02,0-.04,0-.06,0-.55,0-1-.42-1.02-.96,0-.14.02-.28.08-.41l1.2-2.8c-.05.12-.08.26-.08.41.02.54.47.96,1.02.96.02,0,.04,0,.06,0,.37-.03.68-.26.82-.58Z"/>
    </clipPath>
    <clipPath id="ac">
      <path class="cj" d="M37.29,27.62c-.39-.53-.83-.9-1.36-1.07.4-.93.8-1.87,1.2-2.8.52.18.97.54,1.36,1.07.54.75.74,1.54.6,2.36-.05.28-.13.57-.26.86l-1.2,2.8c.13-.29.21-.58.26-.86.14-.82-.07-1.61-.6-2.36Z"/>
    </clipPath>
    <clipPath id="ad">
      <path class="cj" d="M34.92,27.89l-1.2,2.8c.1-.24.08-.45-.06-.64-.15-.21-.36-.3-.64-.29l1.2-2.8c.27-.01.49.08.64.29.14.19.16.4.06.64Z"/>
    </clipPath>
    <clipPath id="ae">
      <path class="cj" d="M34.22,26.97l-1.2,2.8c-.28.02-.6.12-.95.29-.36.17-.73.39-1.12.64s-.76.5-1.13.76c-.45.31-.9.65-1.36,1.01s-.86.7-1.21,1.02c-.35.31-.6.55-.76.74l1.2-2.8c.15-.18.4-.43.76-.74.35-.32.76-.65,1.21-1.02s.91-.7,1.36-1.01c.37-.26.75-.51,1.13-.76s.76-.47,1.12-.64c.35-.17.67-.26.95-.29Z"/>
    </clipPath>
    <clipPath id="af">
      <path class="cj" d="M27.39,34.89c-.18.01-.31-.01-.38-.08l1.2-2.8c.07.07.2.1.38.08.12,0,.27-.04.44-.09h0c.42-.13.91-.34,1.47-.65.57-.31,1.14-.66,1.72-1.06.38-.27.76-.53,1.14-.81.38-.27.71-.55.98-.81.28-.27.48-.52.58-.76l-1.2,2.8c-.1.24-.3.49-.58.76-.27.27-.61.54-.98.81-.38.27-.76.54-1.14.81-.58.4-1.15.75-1.72,1.06-.56.31-1.05.52-1.47.65-.17.05-.31.08-.44.09Z"/>
    </clipPath>
    <clipPath id="ag">
      <path class="cj" d="M33.72,30.69s0,.02-.01.02l1.2-2.8s0-.02.01-.02c-.36.84-.84,1.96-1.2,2.8Z"/>
    </clipPath>
    <clipPath id="ah">
      <path class="cj" d="M10.2,15.85c-1,1.36-1.87,2.83-2.53,4.37l1.2-2.8c.66-1.54,1.53-3.01,2.53-4.37-.36.84-.75,2.01-1.2,2.8Z"/>
    </clipPath>
    <clipPath id="ai">
      <path class="cj" d="M45.86,36.63c-.09,0-.18.03-.27.06l1.2-2.8c.09-.03.18-.05.27-.06.41-.03.82.2,1,.6-.4.93-.8,1.87-1.2,2.8-.18-.39-.59-.63-1-.6Z"/>
    </clipPath>
    <clipPath id="aj">
      <path class="cj" d="M45.59,36.69c-.25.1-.44.29-.54.52l1.2-2.8c.1-.23.29-.42.54-.52-.36.84-.84,1.96-1.2,2.8Z"/>
    </clipPath>
    <clipPath id="ak">
      <path class="cj" d="M46.86,37.22s0,0,0,0c0,0,0,0,0,0s0,0,0,0,0,0,0,0,0,0,0,0,0,0,0,0,0,0,0,0c0,0,0,0,0,0,.04-.1.1-.22.14-.32.04-.1.1-.24.14-.34s.11-.25.15-.35.11-.25.15-.36.11-.25.15-.36.11-.25.15-.35.1-.24.14-.34c.04-.1.1-.22.14-.32,0,0,0,.02.01.03.1.25.09.51,0,.73l-1.2,2.8c.1-.23.11-.49,0-.73,0,0,0-.02-.01-.03Z"/>
    </clipPath>
    <clipPath id="al">
      <path class="cj" d="M12.44,22.25s.04-.08.05-.12c.02-.04.04-.09.05-.13s.04-.09.06-.13.04-.09.06-.13.04-.09.06-.13.04-.09.06-.13.04-.09.05-.13c.02-.04.04-.08.05-.12.03-.06.06-.14.09-.21.03-.07.07-.15.09-.22s.07-.16.1-.23.07-.16.1-.23.07-.16.1-.23.07-.16.1-.23.07-.15.09-.22c.03-.06.06-.14.09-.21.25.1.45.29.56.56.1.24.09.5,0,.73l-1.2,2.8c.1-.22.11-.48,0-.73-.11-.26-.31-.46-.56-.56Z"/>
    </clipPath>
    <clipPath id="am">
      <path class="cj" d="M11.71,22.24c-.25.1-.44.29-.54.52l1.2-2.8c.1-.23.29-.42.54-.52.09-.03.18-.05.28-.06.16-.01.31.01.46.07-.4.93-.8,1.87-1.2,2.8-.14-.06-.3-.08-.46-.07-.09,0-.19.03-.28.06Z"/>
    </clipPath>
    <clipPath id="an">
      <path class="cj" d="M13.54,14.7l-1.2,2.8c-1.32,1.54-2.35,3.3-3.21,5.16l1.2-2.8c.86-1.86,1.89-3.62,3.21-5.16Z"/>
    </clipPath>
    <clipPath id="ao">
      <path class="cj" d="M9.02,22.89l1.2-2.8c.03-.08.07-.16.1-.23l-1.2,2.8c-.03.08-.07.16-.1.23Z"/>
    </clipPath>
    <clipPath id="ap">
      <path class="cj" d="M48.06,35.19l-1.2,2.8c-.1.23-.29.42-.54.52-.09.03-.18.05-.28.06-.43.03-.84-.21-1.01-.63-.1-.25-.09-.51.01-.73l1.2-2.8c-.1.22-.11.49-.01.73.17.42.59.66,1.01.63.09,0,.19-.03.28-.06.25-.1.44-.29.54-.52Z"/>
    </clipPath>
    <clipPath id="aq">
      <path class="cj" d="M14.19,20.73l-1.2,2.8c-.1.23-.29.42-.55.52-.09.03-.18.05-.27.06-.42.03-.84-.21-1.01-.63-.1-.25-.09-.51,0-.73l1.2-2.8c-.1.23-.11.49,0,.73.17.42.59.66,1.01.63.09,0,.18-.03.27-.06.26-.1.45-.29.55-.52Z"/>
    </clipPath>
    <clipPath id="ar">
      <path class="cj" d="M26.88,31.81c-.19.29-.34.55-.46.8l1.2-2.8c.12-.24.27-.51.46-.8.4-.61.91-1.24,1.55-1.89.64-.66,1.36-1.26,2.15-1.81.62-.43,1.24-.79,1.87-1.09.63-.31,1.23-.5,1.82-.6.1-.01.19-.03.29-.03.48-.04.94.01,1.37.16h0c-.4.93-.8,1.87-1.2,2.8,0,0,0,0,0,0-.43-.15-.88-.2-1.37-.16-.1,0-.19.02-.29.03-.59.1-1.2.29-1.82.6-.63.3-1.25.67-1.87,1.09-.79.55-1.51,1.15-2.15,1.81-.64.65-1.15,1.28-1.55,1.89Z"/>
    </clipPath>
    <clipPath id="as">
      <path class="cj" d="M42.93,41.94c-.13-.06-.28-.09-.44-.09.04-.1.1-.23.14-.33.04-.1.1-.24.15-.35s.11-.25.15-.36.11-.26.16-.37.11-.26.16-.37.11-.25.15-.36.1-.24.15-.35c.04-.1.1-.23.14-.33.16,0,.3.03.44.09-.4.93-.8,1.87-1.2,2.8Z"/>
    </clipPath>
    <clipPath id="at">
      <path class="cj" d="M42.93,41.94s.03-.07.04-.09c.01-.03.03-.07.04-.1s.03-.07.04-.1.03-.07.04-.1.03-.07.04-.1.03-.07.04-.1.03-.07.04-.1c.01-.03.03-.07.04-.09.14-.33.29-.67.43-1,.03-.08.08-.18.11-.26s.08-.18.11-.26.07-.17.11-.25c.03-.07.07-.16.1-.23.33.15.57.48.58.86l-1.2,2.8c-.01-.38-.25-.71-.58-.86Z"/>
    </clipPath>
    <clipPath id="au">
      <path class="cj" d="M43.43,43.21c.05-.12.08-.26.08-.41.06-.14.14-.32.19-.45.02-.04.04-.09.06-.13.03-.08.08-.19.11-.27.08-.18.16-.36.23-.55.04-.08.08-.19.12-.27s.08-.19.12-.27.08-.19.11-.27.08-.18.11-.26l.14-.33c0,.14-.02.28-.08.41-.36.84-.84,1.96-1.2,2.8Z"/>
    </clipPath>
    <clipPath id="av">
      <path class="cj" d="M42.41,41.86c-.37.03-.67.26-.8.57l1.2-2.8c.13-.31.44-.55.8-.57.03,0,.05,0,.08,0h0c-.4.93-.8,1.87-1.2,2.8,0,0,0,0,0,0-.03,0-.05,0-.08,0Z"/>
    </clipPath>
    <clipPath id="aw">
      <path class="cj" d="M10.03,28.51c-.11.1-.19.21-.25.34l1.2-2.8c.05-.13.14-.24.25-.34.16-.14.36-.22.56-.24.3-.02.61.09.83.34h0c-.4.93-.8,1.87-1.2,2.8,0,0,0,0,0,0-.22-.25-.53-.36-.83-.34-.2.02-.4.09-.56.24Z"/>
    </clipPath>
    <clipPath id="ax">
      <path class="cj" d="M11.6,29.64c.14-.33.09-.74-.17-1.03.04-.1.1-.23.14-.33.04-.1.1-.24.15-.35s.11-.25.15-.36.11-.26.16-.37.11-.26.16-.37.11-.25.15-.36.1-.24.15-.35c.04-.1.1-.23.14-.33.26.29.31.69.17,1.03-.36.84-.84,1.96-1.2,2.8Z"/>
    </clipPath>
    <clipPath id="ay">
      <path class="cj" d="M12.8,26.84l-1.2,2.8c-.05.13-.14.24-.25.34-.16.14-.36.22-.56.24-.3.02-.61-.09-.83-.34-.26-.29-.31-.69-.17-1.02l1.2-2.8c-.14.33-.09.73.17,1.02.22.25.53.36.83.34.2-.02.4-.09.56-.24.11-.1.19-.21.25-.34Z"/>
    </clipPath>
    <clipPath id="az">
      <path class="cj" d="M44.63,40.41l-1.2,2.8c-.14.32-.44.55-.82.58-.02,0-.04,0-.06,0-.55,0-1-.42-1.02-.96,0-.14.02-.28.07-.4l1.2-2.8c-.05.12-.08.26-.07.4.02.54.47.97,1.02.96.02,0,.04,0,.06,0,.37-.03.68-.26.82-.58Z"/>
    </clipPath>
    <clipPath id="ba">
      <path class="cj" d="M38.83,28.04l-1.2,2.8c-.24.56-.62,1.15-1.15,1.74-.8.91-1.93,1.87-3.39,2.87-.95.66-1.9,1.21-2.86,1.65-.95.44-1.85.74-2.71.91-.29.06-.58.1-.85.12-.52.04-1,.02-1.44-.07-.66-.14-1.18-.47-1.54-.97l1.2-2.8c.37.5.88.83,1.54.97.43.09.91.11,1.44.07.27-.02.55-.06.85-.12.86-.17,1.76-.47,2.71-.91.96-.44,1.91-.99,2.86-1.65,1.46-1,2.59-1.96,3.39-2.87.53-.6.91-1.18,1.15-1.74Z"/>
    </clipPath>
    <clipPath id="bb">
      <path class="cj" d="M36.55,46.15l1.2-2.8c.14-.34.46-.55.82-.58.13-.01.26,0,.4.05.52.18.8.73.64,1.24l-1.2,2.8c.16-.51-.11-1.06-.64-1.24-.13-.04-.27-.06-.4-.05-.35.03-.67.24-.82.58Z"/>
    </clipPath>
    <clipPath id="bc">
      <path class="cj" d="M38.37,46.93s.02-.04.03-.07l1.2-2.8s-.02.04-.03.07c-.36.84-.84,1.96-1.2,2.8Z"/>
    </clipPath>
    <clipPath id="bd">
      <path class="cj" d="M39.57,44.13l-1.2,2.8c-.14.34-.47.55-.82.58-.13.01-.27,0-.4-.05l1.2-2.8c.13.04.27.06.4.05.36-.03.68-.24.82-.58Z"/>
    </clipPath>
    <clipPath id="be">
      <path class="cj" d="M36.55,46.15l1.2-2.8s-.02.05-.03.07c-.16.5.11,1.05.63,1.23l-1.2,2.8c-.51-.18-.79-.73-.63-1.23,0-.03.02-.05.03-.07Z"/>
    </clipPath>
    <clipPath id="bf">
      <path class="cj" d="M7.22,34.98c-.4-4.25.23-8.39,1.81-12.09l1.2-2.8c-1.58,3.69-2.21,7.84-1.81,12.09-.36.84-.84,1.96-1.2,2.8Z"/>
    </clipPath>
    <clipPath id="bg">
      <path class="cj" d="M7.66,20.22l1.2-2.8c-.23.54-.44,1.09-.61,1.64-1.43,4.27-1.41,9.01.16,13.12l-1.2,2.8c-1.57-4.1-1.6-8.84-.16-13.12.18-.56.38-1.1.61-1.64Z"/>
    </clipPath>
    <clipPath id="bh">
      <path class="cj" d="M31.98,47.56c-.21-.16-.46-.23-.7-.21.04-.1.1-.23.14-.33.04-.1.1-.24.15-.35s.11-.25.15-.36.11-.26.16-.37.11-.26.16-.37.11-.25.15-.36.1-.24.15-.35c.04-.1.1-.23.14-.33.24-.02.49.05.7.21h0c-.4.93-.8,1.87-1.2,2.8,0,0,0,0,0,0Z"/>
    </clipPath>
    <clipPath id="bi">
      <path class="cj" d="M30.6,47.7c-.06.07-.1.15-.14.22l1.2-2.8c.03-.08.08-.15.14-.22.17-.21.42-.34.68-.36h0c-.4.93-.8,1.87-1.2,2.8,0,0,0,0,0,0-.26.02-.51.14-.68.36Z"/>
    </clipPath>
    <clipPath id="bj">
      <path class="cj" d="M32.29,48.71c.17-.39.06-.87-.3-1.15.04-.1.1-.23.14-.33.04-.1.1-.24.15-.35.1-.24.21-.48.31-.73.05-.11.11-.26.16-.37s.11-.25.15-.36.1-.24.15-.35c.04-.1.1-.23.14-.33.36.28.47.76.3,1.15-.36.84-.84,1.96-1.2,2.8Z"/>
    </clipPath>
    <clipPath id="bk">
      <path class="cj" d="M33.48,45.91l-1.2,2.8c-.03.08-.08.15-.13.22l1.2-2.8c.05-.07.1-.14.13-.22Z"/>
    </clipPath>
    <clipPath id="bl">
      <path class="cj" d="M30.47,47.93l1.2-2.8c-.17.39-.06.86.3,1.14.21.16.46.24.71.22s.5-.14.68-.35l-1.2,2.8c-.18.21-.42.33-.68.35s-.5-.05-.71-.22c-.36-.28-.46-.75-.3-1.14Z"/>
    </clipPath>
    <clipPath id="bm">
      <path class="cj" d="M24.49,47.09c-.18.11-.31.27-.39.45l1.2-2.8c.08-.18.21-.34.39-.45.13-.08.27-.12.42-.13.36-.03.74.14.94.47h0c-.4.93-.8,1.87-1.2,2.8,0,0,0,0,0,0-.2-.33-.58-.5-.94-.47-.14.01-.29.05-.42.13Z"/>
    </clipPath>
    <clipPath id="bn">
      <path class="cj" d="M27.12,45.51l-1.2,2.8c-.08.18-.21.34-.39.45-.13.08-.27.12-.42.13-.36.03-.73-.14-.94-.47-.18-.28-.19-.61-.08-.89l1.2-2.8c-.12.28-.1.61.08.89.2.33.57.5.94.47.14-.01.29-.05.42-.13.18-.11.32-.27.39-.45Z"/>
    </clipPath>
    <clipPath id="bo">
      <path class="cj" d="M50.26,34.98l-1.2,2.8c-.09.2-.17.4-.26.59-1.68,3.63-4.31,6.71-7.56,8.96-3.24,2.27-7.13,3.61-11.17,3.95-4.06.32-8.26-.38-12.25-2.04l1.2-2.8c3.99,1.66,8.19,2.37,12.25,2.04,4.04-.34,7.93-1.69,11.17-3.95,3.25-2.25,5.88-5.33,7.56-8.96.09-.2.18-.4.26-.59Z"/>
    </clipPath>
    <clipPath id="bp">
      <path class="cj" d="M51.54,37.77l-1.2,2.8c-1.55,3.61-4.15,6.81-7.44,9.07-1.86,1.25-3.9,2.25-6.06,2.91-1.51.43-3.07.74-4.63.86-.68.05-1.35.07-2.03.06-4.49-.06-8.94-1.55-12.35-4.22l1.2-2.8c3.42,2.67,7.86,4.16,12.35,4.22.68.02,1.36,0,2.03-.06,1.57-.12,3.12-.43,4.63-.86,2.16-.65,4.2-1.66,6.06-2.91,3.29-2.26,5.9-5.46,7.44-9.07Z"/>
    </clipPath>
    <clipPath id="bq">
      <path class="ed" d="M55.06,40.38l-1.2,2.8c-1.94,4.52-5.14,8.56-9.51,11.58-4.15,2.86-8.83,4.43-13.57,4.81-9.63.77-19.48-3.4-25.52-11.79C-.63,39.61-1.45,29.46,2.18,20.99l1.2-2.8C-.25,26.67.57,36.81,6.45,44.97c6.04,8.39,15.9,12.56,25.52,11.79,4.74-.38,9.42-1.95,13.57-4.81,4.37-3.01,7.58-7.06,9.51-11.58Z"/>
    </clipPath>
  </defs>
  <g id="c" data-name="圖層 2">
    <g>
      <g class="dc">
        <path class="cj" d="M40.8,11.85c-3.43-2.83-7.98-4.45-12.58-4.57.04-.1.1-.23.14-.33.04-.1.1-.24.15-.35s.11-.25.15-.36.11-.26.16-.37.11-.26.16-.37.11-.25.15-.36c.1-.22.19-.45.29-.67,4.6.11,9.14,1.73,12.58,4.57-.36.84-.84,1.96-1.2,2.8Z"/>
        <g class="ds">
          <g class="dc">
            <path class="cj" d="M42,9.05l-1.2,2.8c-3.43-2.83-7.98-4.45-12.58-4.57-.78-.03-1.57-.01-2.36.05-1.52.12-3.03.41-4.49.83-2.22.65-4.32,1.68-6.23,2.95l1.2-2.8c1.91-1.27,4.01-2.3,6.23-2.95,1.47-.42,2.97-.71,4.49-.83.78-.06,1.57-.08,2.36-.05,4.6.11,9.15,1.73,12.58,4.57"/>
          </g>
        </g>
      </g>
      <g class="dc">
        <path class="cj" d="M28.22,7.28s0,0,0,0c.04-.1.1-.23.14-.33.04-.1.1-.24.15-.35s.11-.25.15-.36.11-.26.16-.37.11-.26.16-.37.11-.25.15-.36.1-.24.15-.35c.04-.1.1-.23.14-.33,0,0,0,0,0,0h0c-.4.93-.8,1.87-1.2,2.8,0,0,0,0,0,0Z"/>
        <g class="dv">
          <g class="dc">
            <path class="cj" d="M42,9.05l-1.2,2.8c-3.43-2.83-7.98-4.45-12.58-4.57-.78-.03-1.57-.01-2.36.05-1.52.12-3.03.41-4.49.83-2.22.65-4.32,1.68-6.23,2.95l1.2-2.8c1.91-1.27,4.01-2.3,6.23-2.95,1.47-.42,2.97-.71,4.49-.83.78-.06,1.57-.08,2.36-.05,4.6.11,9.15,1.73,12.58,4.57"/>
          </g>
        </g>
      </g>
      <g class="dc">
        <path class="cj" d="M28.22,7.28c-.78-.03-1.57-.01-2.35.05.4-.93.8-1.87,1.2-2.8.78-.06,1.57-.08,2.35-.05-.4.93-.8,1.87-1.2,2.8Z"/>
        <g class="cf">
          <g class="dc">
            <path class="cj" d="M42,9.05l-1.2,2.8c-3.43-2.83-7.98-4.45-12.58-4.57-.78-.03-1.57-.01-2.36.05-1.52.12-3.03.41-4.49.83-2.22.65-4.32,1.68-6.23,2.95l1.2-2.8c1.91-1.27,4.01-2.3,6.23-2.95,1.47-.42,2.97-.71,4.49-.83.78-.06,1.57-.08,2.36-.05,4.6.11,9.15,1.73,12.58,4.57"/>
          </g>
        </g>
      </g>
      <g class="dc">
        <path class="cj" d="M21.38,8.15c-2.22.65-4.32,1.68-6.23,2.95l1.2-2.8c1.91-1.27,4.01-2.3,6.23-2.95,1.47-.42,2.97-.71,4.49-.83h0c-.4.93-.8,1.87-1.2,2.8,0,0,0,0,0,0-1.52.12-3.03.41-4.49.83Z"/>
        <g class="dm">
          <g class="dc">
            <path class="cj" d="M42,9.05l-1.2,2.8c-3.43-2.83-7.98-4.45-12.58-4.57-.78-.03-1.57-.01-2.36.05-1.52.12-3.03.41-4.49.83-2.22.65-4.32,1.68-6.23,2.95l1.2-2.8c1.91-1.27,4.01-2.3,6.23-2.95,1.47-.42,2.97-.71,4.49-.83.78-.06,1.57-.08,2.36-.05,4.6.11,9.15,1.73,12.58,4.57"/>
          </g>
        </g>
      </g>
      <g class="dc">
        <path class="cj" d="M42,9.05l-1.2,2.8c-4.04-1.84-8.34-2.66-12.51-2.39-.1,0-.19.01-.29.02-4.05.32-7.95,1.67-11.2,3.94-1.68,1.14-3.18,2.52-4.47,4.09l1.2-2.8c1.28-1.56,2.78-2.95,4.47-4.09,3.25-2.27,7.15-3.62,11.2-3.94.1,0,.19-.01.29-.02,4.17-.26,8.46.56,12.51,2.39Z"/>
        <g class="cw">
          <g class="dc">
            <path class="cj" d="M42,9.05l-1.2,2.8c-4.04-1.84-8.34-2.66-12.51-2.39-.1,0-.19.01-.29.02-4.05.32-7.95,1.67-11.2,3.94-1.68,1.14-3.18,2.52-4.47,4.09l1.2-2.8c1.28-1.56,2.78-2.95,4.47-4.09,3.25-2.27,7.15-3.62,11.2-3.94.1,0,.19-.01.29-.02,4.17-.26,8.46.56,12.51,2.39"/>
          </g>
        </g>
      </g>
      <g class="dc">
        <path class="cj" d="M32.94,11.85c-.15.01-.29.06-.42.14l1.2-2.8c.13-.08.28-.13.42-.14.36-.03.72.14.93.47.18.28.19.61.08.89l-1.2,2.8c.12-.28.1-.61-.08-.89-.2-.33-.57-.5-.93-.47Z"/>
        <g class="bw">
          <g class="dc">
            <path class="cj" d="M35.14,10.42l-1.2,2.8c.12-.28.1-.61-.08-.89-.2-.33-.57-.5-.93-.47-.15.01-.29.06-.42.14l1.2-2.8c.13-.08.28-.13.42-.14.36-.03.72.14.93.47.18.28.19.61.08.89"/>
          </g>
        </g>
      </g>
      <g class="dc">
        <path class="cj" d="M32.51,11.99c-.18.11-.31.27-.39.44l1.2-2.8c.08-.18.21-.34.39-.44-.36.84-.6,2.11-1.2,2.8Z"/>
        <g class="cg">
          <g class="dc">
            <path class="cj" d="M33.71,9.19l-1.2,2.8c-.15.09-.26.21-.34.35l1.2-2.8c.08-.14.2-.26.34-.35"/>
            <path class="cj" d="M33.37,9.54l-1.2,2.8s-.03.06-.05.1l1.2-2.8s.03-.06.05-.1"/>
          </g>
        </g>
      </g>
      <path class="cj" d="M34.13,9.06c.36-.03.72.14.93.47.29.46.15,1.06-.31,1.33-.13.08-.28.12-.42.13-.36.03-.73-.14-.94-.47-.29-.46-.14-1.05.32-1.33.13-.08.28-.13.42-.14Z"/>
      <g class="dc">
        <path class="cj" d="M35.14,10.42l-1.2,2.8c-.08.18-.21.34-.39.44-.13.08-.28.12-.42.13-.36.03-.73-.14-.94-.47-.17-.28-.19-.61-.07-.88l1.2-2.8c-.12.28-.1.6.07.88.2.33.57.5.94.47.15-.01.29-.06.42-.13.18-.11.31-.26.39-.44Z"/>
        <g class="bz">
          <g class="dc">
            <path class="cj" d="M35.14,10.42l-1.2,2.8s-.03.06-.05.1l1.2-2.8s.03-.06.05-.1"/>
            <path class="cj" d="M35.09,10.51l-1.2,2.8c-.08.14-.19.26-.34.35-.13.08-.28.12-.42.13-.36.03-.73-.14-.94-.47-.17-.28-.19-.61-.07-.88l1.2-2.8c-.12.28-.1.6.07.88.2.33.57.5.94.47.15-.01.29-.06.42-.13.15-.09.26-.21.34-.35"/>
          </g>
        </g>
      </g>
      <g class="dc">
        <path class="cj" d="M26.57,11.46c-.26.02-.51.14-.69.36l1.2-2.8c.18-.21.43-.34.69-.36.24-.02.49.05.7.21h0c-.4.93-.8,1.87-1.2,2.8,0,0,0,0,0,0-.21-.16-.46-.23-.7-.21Z"/>
        <g class="dr">
          <g class="dc">
            <path class="cj" d="M28.77,10.02l-1.2,2.8c.17-.39.06-.86-.3-1.14-.21-.16-.46-.23-.7-.21-.26.02-.51.14-.69.36l1.2-2.8c.18-.21.43-.34.69-.36.24-.02.49.05.7.21.36.28.46.75.3,1.14"/>
          </g>
        </g>
      </g>
      <g class="dc">
        <path class="cj" d="M27.57,12.81c.17-.39.06-.86-.3-1.14.04-.1.1-.23.14-.33.04-.1.1-.24.15-.35s.11-.25.15-.36.11-.26.16-.37.11-.26.16-.37.11-.25.15-.36.1-.24.15-.35c.04-.1.1-.23.14-.33.36.28.46.75.3,1.14-.36.84-.84,1.96-1.2,2.8Z"/>
        <g class="cd">
          <g class="dc">
            <path class="cj" d="M28.77,10.02l-1.2,2.8c.17-.39.06-.86-.3-1.14-.21-.16-.46-.23-.7-.21-.26.02-.51.14-.69.36l1.2-2.8c.18-.21.43-.34.69-.36.24-.02.49.05.7.21.36.28.46.75.3,1.14"/>
          </g>
        </g>
      </g>
      <g class="dc">
        <path class="cj" d="M25.88,11.82c-.06.07-.1.14-.13.22l1.2-2.8c.03-.08.08-.15.13-.22-.36.84-.73,2.02-1.2,2.8Z"/>
        <g class="df">
          <g class="dc">
            <path class="cj" d="M27.08,9.02l-1.2,2.8s-.06.08-.09.13l1.2-2.8s.05-.09.09-.13"/>
            <path class="cj" d="M27,9.15l-1.2,2.8s-.03.06-.05.09l1.2-2.8s.03-.06.05-.09"/>
          </g>
        </g>
      </g>
      <path class="cj" d="M27.77,8.67c.24-.02.49.05.7.21.43.34.5.95.16,1.36-.17.22-.42.34-.68.36-.24.02-.5-.05-.7-.22-.43-.34-.51-.95-.17-1.36.18-.21.43-.34.69-.36Z"/>
      <g class="dc">
        <path class="cj" d="M28.77,10.02l-1.2,2.8c-.03.08-.08.15-.14.22-.17.22-.42.34-.68.36-.24.02-.5-.05-.7-.22-.36-.28-.47-.75-.3-1.14l1.2-2.8c-.17.39-.05.86.3,1.14.21.16.46.23.7.22.26-.02.5-.14.68-.36.06-.07.1-.15.14-.22Z"/>
        <g class="db">
          <g class="dc">
            <path class="cj" d="M28.77,10.02l-1.2,2.8s-.03.06-.05.09l1.2-2.8s.03-.06.05-.09"/>
            <path class="cj" d="M28.72,10.11l-1.2,2.8s-.05.09-.09.13c-.17.22-.42.34-.68.36-.24.02-.5-.05-.7-.22-.36-.28-.47-.75-.3-1.14l1.2-2.8c-.17.39-.05.86.3,1.14.21.16.46.23.7.22.26-.02.5-.14.68-.36.03-.04.06-.08.09-.13"/>
          </g>
        </g>
      </g>
      <g class="dc">
        <path class="cj" d="M21.54,13.97c-.08-.31-.32-.58-.65-.69.2-.47.4-.93.6-1.4.15-.36.31-.71.46-1.07l.14-.33c.33.11.56.38.65.69-.06.14-.12.29-.18.43-.03.07-.07.16-.1.23s-.07.16-.1.23c-.13.3-.25.6-.38.89-.14.34-.29.68-.43,1.01Z"/>
        <g class="cv">
          <g class="dc">
            <path class="cj" d="M22.69,11.79l-1.2,2.8s.02-.04.03-.07c.17-.51-.11-1.06-.63-1.24l1.2-2.8c.51.18.8.73.63,1.24,0,.02-.02.04-.03.07"/>
          </g>
        </g>
      </g>
      <g class="dc">
        <path class="cj" d="M21.54,13.97s.04-.08.05-.12c.02-.04.04-.09.05-.13,0-.02.02-.05.03-.06.02-.04.04-.09.06-.13,0-.02.02-.05.03-.07.02-.04.04-.09.06-.13s.04-.09.06-.13.04-.09.05-.13c.02-.04.04-.08.05-.12.25-.6.51-1.19.76-1.79.05.18.04.37-.02.55h0c-.4.93-.8,1.87-1.2,2.8,0,0,0,0,0,0,.06-.19.06-.38.02-.55Z"/>
        <g class="ca">
          <g class="dc">
            <path class="cj" d="M22.69,11.79l-1.2,2.8s.02-.04.03-.07c.17-.51-.11-1.06-.63-1.24l1.2-2.8c.51.18.8.73.63,1.24,0,.02-.02.04-.03.07"/>
          </g>
        </g>
      </g>
      <g class="dc">
        <path class="cj" d="M21.49,14.59s.02-.04.03-.07c.04-.1.1-.23.14-.33.04-.1.1-.24.15-.35s.11-.25.15-.36.11-.26.16-.37.11-.26.16-.37.11-.25.15-.36.1-.24.15-.35c.04-.1.1-.23.14-.33,0,.02-.02.04-.03.07-.36.84-.84,1.96-1.2,2.8Z"/>
        <g class="dh">
          <g class="dc">
            <path class="cj" d="M22.69,11.79l-1.2,2.8s.02-.04.03-.07c.17-.51-.11-1.06-.63-1.24l1.2-2.8c.51.18.8.73.63,1.24,0,.02-.02.04-.03.07"/>
          </g>
        </g>
      </g>
      <g class="dc">
        <path class="cj" d="M19.67,13.81l1.2-2.8c.14-.34.46-.55.82-.58.13-.01.27,0,.4.05l-1.2,2.8c-.13-.04-.27-.06-.4-.05-.36.03-.68.24-.82.58Z"/>
        <g class="dj">
          <g class="dc">
            <path class="cj" d="M22.09,10.48l-1.2,2.8c-.13-.04-.27-.06-.4-.05-.32.03-.61.2-.77.48l1.2-2.8c.16-.28.45-.46.77-.48.13-.01.27,0,.4.05"/>
            <path class="cj" d="M20.92,10.92l-1.2,2.8s-.03.06-.05.1l1.2-2.8s.03-.07.05-.1"/>
          </g>
        </g>
      </g>
      <g class="dc">
        <path class="cj" d="M22.69,11.79l-1.2,2.8c-.14.34-.46.55-.82.58-.13.01-.27,0-.4-.05-.52-.18-.8-.73-.64-1.23,0-.03.02-.05.03-.07l1.2-2.8s-.02.05-.03.07c-.16.5.11,1.05.64,1.23.13.05.27.06.4.05.35-.03.67-.25.82-.58Z"/>
        <g class="bu">
          <g class="dc">
            <path class="cj" d="M22.69,11.79l-1.2,2.8s-.03.07-.05.1l1.2-2.8s.03-.06.05-.1"/>
            <path class="cj" d="M22.65,11.89l-1.2,2.8c-.16.28-.45.46-.77.49-.13.01-.27,0-.4-.05-.52-.18-.8-.73-.64-1.23,0-.03.02-.05.03-.07l1.2-2.8s-.02.05-.03.07c-.16.5.11,1.05.64,1.23.13.05.27.06.4.05.32-.03.61-.21.77-.49"/>
          </g>
        </g>
      </g>
      <path class="cj" d="M21.69,10.44c.13-.01.27,0,.4.05.51.18.8.73.63,1.24-.13.37-.47.62-.84.65-.13.01-.27,0-.4-.05-.52-.18-.8-.73-.64-1.23.13-.38.47-.62.85-.65Z"/>
      <polygon class="cj" points="34.48 21.81 33.28 24.61 31.24 21.76 32.44 18.97 34.48 21.81"/>
      <g class="dc">
        <path class="cj" d="M47.25,30.53c-.2.02-.4.09-.56.24l1.2-2.8c.16-.14.36-.22.56-.24.3-.02.61.09.83.34h0c-.4.93-.8,1.87-1.2,2.8,0,0,0,0,0,0-.22-.25-.53-.36-.83-.34Z"/>
        <g class="ef">
          <g class="dc">
            <path class="cj" d="M49.45,29.1l-1.2,2.8c.14-.33.09-.74-.17-1.03-.22-.25-.53-.36-.83-.34-.2.02-.4.09-.56.24l1.2-2.8c.16-.14.36-.22.56-.24.3-.02.61.09.83.34.26.29.31.69.17,1.03"/>
          </g>
        </g>
      </g>
      <g class="dc">
        <path class="cj" d="M16.51,17.91c-.02-.54-.47-.97-1.02-.96.04-.1.1-.23.14-.33.04-.1.1-.24.15-.35s.11-.25.15-.36.11-.26.16-.37.11-.26.16-.37.11-.25.15-.36.1-.24.15-.35c.04-.1.1-.23.14-.33.55,0,1,.42,1.02.96,0,.03,0,.07,0,.1-.4.93-.8,1.87-1.2,2.8,0-.03,0-.06,0-.1Z"/>
        <g class="dd">
          <g class="dc">
            <path class="cj" d="M17.63,15.52l-1.2,2.8c.05-.12.08-.26.08-.41-.02-.54-.47-.97-1.02-.96-.02,0-.04,0-.06,0-.33.03-.62.21-.77.48l1.2-2.8c.15-.27.44-.46.77-.48.02,0,.04,0,.06,0,.55,0,1,.42,1.02.96,0,.14-.02.28-.08.41"/>
          </g>
        </g>
      </g>
      <g class="dc">
        <path class="cj" d="M46.69,30.77c-.11.1-.19.21-.25.34l1.2-2.8c.05-.13.14-.24.25-.34-.36.84-.66,2.06-1.2,2.8Z"/>
        <g class="dy">
          <g class="dc">
            <path class="cj" d="M47.89,27.97l-1.2,2.8c-.08.07-.15.16-.2.25l1.2-2.8c.05-.09.12-.17.2-.25"/>
            <path class="cj" d="M47.69,28.22l-1.2,2.8s-.03.06-.05.09l1.2-2.8s.03-.06.05-.09"/>
          </g>
        </g>
      </g>
      <g class="dc">
        <path class="cj" d="M15.42,16.96c-.37.03-.68.26-.82.58l1.2-2.8c.14-.32.44-.55.82-.58.02,0,.04,0,.06,0h0c-.4.93-.8,1.87-1.2,2.8,0,0,0,0,0,0-.02,0-.04,0-.06,0Z"/>
        <g class="by">
          <g class="dc">
            <path class="cj" d="M17.63,15.52l-1.2,2.8c.05-.12.08-.26.08-.41-.02-.54-.47-.97-1.02-.96-.02,0-.04,0-.06,0-.33.03-.62.21-.77.48l1.2-2.8c.15-.27.44-.46.77-.48.02,0,.04,0,.06,0,.55,0,1,.42,1.02.96,0,.14-.02.28-.08.41"/>
            <path class="cj" d="M15.85,14.64l-1.2,2.8s-.03.06-.05.09l1.2-2.8s.03-.06.05-.09"/>
          </g>
        </g>
      </g>
      <g class="dc">
        <path class="cj" d="M16.43,18.32c.04-.1.07-.2.07-.31.04-.1.1-.23.14-.33.04-.1.1-.24.15-.35s.11-.25.15-.36.11-.26.16-.37.11-.26.16-.37.11-.25.15-.36.1-.24.15-.35c.04-.1.1-.23.14-.33,0,.11-.03.21-.07.31-.36.84-.84,1.96-1.2,2.8Z"/>
        <g class="ec">
          <g class="dc">
            <path class="cj" d="M17.63,15.52l-1.2,2.8c.05-.12.08-.26.08-.41-.02-.54-.47-.97-1.02-.96-.02,0-.04,0-.06,0-.33.03-.62.21-.77.48l1.2-2.8c.15-.27.44-.46.77-.48.02,0,.04,0,.06,0,.55,0,1,.42,1.02.96,0,.14-.02.28-.08.41"/>
          </g>
        </g>
      </g>
      <g class="dc">
        <path class="cj" d="M16.34,8.31l-1.2,2.8c-1.87,1.33-3.56,2.93-4.95,4.74l1.2-2.8c1.39-1.82,3.08-3.41,4.95-4.74Z"/>
        <g class="dn">
          <g class="dc">
            <path class="cj" d="M16.34,8.31l-1.2,2.8c-1.87,1.33-3.56,2.93-4.95,4.74l1.2-2.8c1.39-1.82,3.08-3.41,4.95-4.74"/>
          </g>
        </g>
      </g>
      <g class="dc">
        <path class="cj" d="M49.45,29.1l-1.2,2.8c-.05.13-.14.24-.25.34-.16.14-.36.22-.56.24-.3.02-.61-.09-.83-.34-.26-.29-.31-.69-.17-1.02l1.2-2.8c-.14.33-.09.73.17,1.02.22.25.53.36.83.34.2-.02.4-.09.56-.24.11-.1.19-.21.25-.34Z"/>
        <g class="ch">
          <g class="dc">
            <path class="cj" d="M49.45,29.1l-1.2,2.8s-.03.06-.05.09l1.2-2.8s.03-.06.05-.09"/>
            <path class="cj" d="M49.41,29.19l-1.2,2.8c-.05.09-.12.17-.2.25-.16.14-.36.22-.56.24-.3.02-.61-.09-.83-.34-.26-.29-.31-.69-.17-1.02l1.2-2.8c-.14.33-.09.73.17,1.02.22.25.53.36.83.34.2-.02.4-.09.56-.24.08-.07.15-.15.2-.25"/>
          </g>
        </g>
      </g>
      <path class="cj" d="M48.45,27.73c.3-.02.61.09.83.34.36.4.32,1.02-.08,1.36-.16.14-.36.22-.56.24-.3.02-.61-.09-.83-.34-.36-.4-.32-1.01.08-1.36.16-.14.36-.22.56-.24Z"/>
      <g class="dc">
        <path class="cj" d="M17.63,15.52l-1.2,2.8c-.14.32-.44.55-.82.58-.02,0-.04,0-.06,0-.55,0-1-.42-1.02-.96,0-.14.02-.28.08-.41l1.2-2.8c-.05.12-.08.26-.08.41.02.54.47.96,1.02.96.02,0,.04,0,.06,0,.37-.03.68-.26.82-.58Z"/>
        <g class="dz">
          <g class="dc">
            <path class="cj" d="M17.63,15.52l-1.2,2.8s-.03.06-.05.09l1.2-2.8s.03-.06.05-.09"/>
            <path class="cj" d="M17.58,15.61l-1.2,2.8c-.15.27-.44.46-.77.48-.02,0-.04,0-.06,0-.55,0-1-.42-1.02-.96,0-.14.02-.28.08-.41l1.2-2.8c-.05.12-.08.26-.08.41.02.54.47.96,1.02.96.02,0,.04,0,.06,0,.33-.03.62-.21.77-.48"/>
          </g>
        </g>
      </g>
      <path class="cj" d="M16.62,14.16s.04,0,.06,0c.55,0,1,.42,1.02.96.02.52-.38.94-.89.98-.02,0-.04,0-.06,0-.55,0-1-.42-1.02-.96-.02-.52.38-.94.89-.98Z"/>
      <g class="dc">
        <path class="cj" d="M37.29,27.62c-.39-.53-.83-.9-1.36-1.07.4-.93.8-1.87,1.2-2.8.52.18.97.54,1.36,1.07.54.75.74,1.54.6,2.36-.05.28-.13.57-.26.86l-1.2,2.8c.13-.29.21-.58.26-.86.14-.82-.07-1.61-.6-2.36Z"/>
        <g class="cm">
          <g class="dc">
            <path class="cj" d="M38.83,28.04l-1.2,2.8c.13-.29.21-.58.26-.86.14-.82-.07-1.61-.6-2.36-.39-.53-.83-.9-1.36-1.07-.43-.15-.88-.2-1.37-.16-.1,0-.19.02-.29.03-.59.1-1.2.29-1.82.6-.63.3-1.25.67-1.87,1.09-.79.55-1.51,1.15-2.15,1.81-.64.65-1.15,1.28-1.55,1.89-.1.16-.2.31-.28.46l1.2-2.8c.08-.14.18-.3.28-.46.4-.61.91-1.24,1.55-1.89.64-.66,1.36-1.26,2.15-1.81.62-.43,1.24-.79,1.87-1.09.63-.31,1.23-.5,1.82-.6.1-.01.19-.03.29-.03.48-.04.94.01,1.37.16.52.18.97.54,1.36,1.07.54.75.74,1.54.6,2.36-.05.28-.13.57-.26.86"/>
          </g>
        </g>
      </g>
      <g class="dc">
        <path class="cj" d="M34.92,27.89l-1.2,2.8c.1-.24.08-.45-.06-.64-.15-.21-.36-.3-.64-.29l1.2-2.8c.27-.01.49.08.64.29.14.19.16.4.06.64Z"/>
        <g class="cn">
          <g class="dc">
            <path class="cj" d="M34.92,27.89l-1.2,2.8c.1-.24.08-.45-.06-.64-.15-.21-.36-.3-.64-.29l1.2-2.8c.27-.01.49.08.64.29.14.19.16.4.06.64"/>
          </g>
        </g>
      </g>
      <g class="dc">
        <path class="cj" d="M34.22,26.97l-1.2,2.8c-.28.02-.6.12-.95.29-.36.17-.73.39-1.12.64s-.76.5-1.13.76c-.45.31-.9.65-1.36,1.01s-.86.7-1.21,1.02c-.35.31-.6.55-.76.74l1.2-2.8c.15-.18.4-.43.76-.74.35-.32.76-.65,1.21-1.02s.91-.7,1.36-1.01c.37-.26.75-.51,1.13-.76s.76-.47,1.12-.64c.35-.17.67-.26.95-.29Z"/>
        <g class="dt">
          <g class="dc">
            <path class="cj" d="M34.22,26.97l-1.2,2.8c-.28.02-.6.12-.95.29-.36.17-.73.39-1.12.64s-.76.5-1.13.76c-.45.31-.9.65-1.36,1.01s-.86.7-1.21,1.02c-.35.31-.6.55-.76.74l1.2-2.8c.15-.18.4-.43.76-.74.35-.32.76-.65,1.21-1.02s.91-.7,1.36-1.01c.37-.26.75-.51,1.13-.76s.76-.47,1.12-.64c.35-.17.67-.26.95-.29"/>
          </g>
        </g>
      </g>
      <g class="dc">
        <path class="cj" d="M27.39,34.89c-.18.01-.31-.01-.38-.08l1.2-2.8c.07.07.2.1.38.08.12,0,.27-.04.44-.09h0c.42-.13.91-.34,1.47-.65.57-.31,1.14-.66,1.72-1.06.38-.27.76-.53,1.14-.81.38-.27.71-.55.98-.81.28-.27.48-.52.58-.76l-1.2,2.8c-.1.24-.3.49-.58.76-.27.27-.61.54-.98.81-.38.27-.76.54-1.14.81-.58.4-1.15.75-1.72,1.06-.56.31-1.05.52-1.47.65-.17.05-.31.08-.44.09Z"/>
        <g class="bx">
          <g class="dc">
            <path class="cj" d="M34.91,27.92l-1.2,2.8s-.04.08-.06.13l1.2-2.8s.05-.08.06-.13"/>
            <path class="cj" d="M34.85,28.04l-1.2,2.8c-.11.2-.29.41-.52.63-.27.27-.61.54-.98.81-.38.27-.76.54-1.14.81-.58.4-1.15.75-1.72,1.06-.56.31-1.05.52-1.47.65-.17.05-.31.08-.44.09-.18.01-.31-.01-.38-.08l1.2-2.8c.07.07.2.1.38.08.12,0,.27-.04.44-.09.42-.13.91-.34,1.47-.65.57-.31,1.14-.66,1.72-1.06.38-.27.76-.53,1.14-.81.38-.27.71-.55.98-.81.23-.22.41-.43.52-.63"/>
          </g>
        </g>
      </g>
      <g class="dc">
        <path class="cj" d="M33.72,30.69s0,.02-.01.02l1.2-2.8s0-.02.01-.02c-.36.84-.84,1.96-1.2,2.8Z"/>
        <g class="da">
          <g class="dc">
            <path class="cj" d="M34.92,27.89l-1.2,2.8s0,.02-.01.02l1.2-2.8s0-.02.01-.02"/>
          </g>
        </g>
      </g>
      <g class="dc">
        <path class="cj" d="M10.2,15.85c-1,1.36-1.87,2.83-2.53,4.37l1.2-2.8c.66-1.54,1.53-3.01,2.53-4.37-.36.84-.75,2.01-1.2,2.8Z"/>
        <g class="eb">
          <g class="dc">
            <path class="cj" d="M11.39,13.05l-1.2,2.8c-.55.75-1.06,1.53-1.52,2.33l1.2-2.8c.46-.81.97-1.58,1.52-2.33"/>
            <path class="cj" d="M9.88,15.38l-1.2,2.8c-.38.66-.72,1.34-1.01,2.04l1.2-2.8c.3-.7.64-1.38,1.01-2.04"/>
          </g>
        </g>
      </g>
      <g class="dc">
        <path class="cj" d="M45.86,36.63c-.09,0-.18.03-.27.06l1.2-2.8c.09-.03.18-.05.27-.06.41-.03.82.2,1,.6-.4.93-.8,1.87-1.2,2.8-.18-.39-.59-.63-1-.6Z"/>
        <g class="ci">
          <g class="dc">
            <path class="cj" d="M48.06,35.19l-1.2,2.8c.1-.23.11-.49,0-.73-.17-.41-.59-.66-1.01-.63-.09,0-.18.03-.27.06l1.2-2.8c.09-.03.18-.05.27-.06.42-.03.84.21,1.01.63.1.25.09.51,0,.73"/>
          </g>
        </g>
      </g>
      <g class="dc">
        <path class="cj" d="M45.59,36.69c-.25.1-.44.29-.54.52l1.2-2.8c.1-.23.29-.42.54-.52-.36.84-.84,1.96-1.2,2.8Z"/>
        <g class="dx">
          <g class="dc">
            <path class="cj" d="M46.79,33.89l-1.2,2.8c-.22.08-.39.24-.49.42l1.2-2.8c.11-.19.28-.34.49-.42"/>
            <path class="cj" d="M46.29,34.31l-1.2,2.8s-.03.06-.05.1l1.2-2.8s.03-.07.05-.1"/>
          </g>
        </g>
      </g>
      <g class="dc">
        <path class="cj" d="M46.86,37.22s0,0,0,0c0,0,0,0,0,0s0,0,0,0,0,0,0,0,0,0,0,0,0,0,0,0,0,0,0,0c0,0,0,0,0,0,.04-.1.1-.22.14-.32.04-.1.1-.24.14-.34s.11-.25.15-.35.11-.25.15-.36.11-.25.15-.36.11-.25.15-.35.1-.24.14-.34c.04-.1.1-.22.14-.32,0,0,0,.02.01.03.1.25.09.51,0,.73l-1.2,2.8c.1-.23.11-.49,0-.73,0,0,0-.02-.01-.03Z"/>
        <g class="cx">
          <g class="dc">
            <path class="cj" d="M48.06,35.19l-1.2,2.8c.1-.23.11-.49,0-.73-.17-.41-.59-.66-1.01-.63-.09,0-.18.03-.27.06l1.2-2.8c.09-.03.18-.05.27-.06.42-.03.84.21,1.01.63.1.25.09.51,0,.73"/>
          </g>
        </g>
      </g>
      <g class="dc">
        <path class="cj" d="M12.44,22.25s.04-.08.05-.12c.02-.04.04-.09.05-.13s.04-.09.06-.13.04-.09.06-.13.04-.09.06-.13.04-.09.06-.13.04-.09.05-.13c.02-.04.04-.08.05-.12.03-.06.06-.14.09-.21.03-.07.07-.15.09-.22s.07-.16.1-.23.07-.16.1-.23.07-.16.1-.23.07-.16.1-.23.07-.15.09-.22c.03-.06.06-.14.09-.21.25.1.45.29.56.56.1.24.09.5,0,.73l-1.2,2.8c.1-.22.11-.48,0-.73-.11-.26-.31-.46-.56-.56Z"/>
        <g class="cp">
          <g class="dc">
            <path class="cj" d="M14.19,20.73l-1.2,2.8c.1-.22.11-.48,0-.73-.17-.42-.59-.66-1.01-.63-.09,0-.19.03-.28.06-.22.08-.39.23-.49.42l1.2-2.8c.11-.19.27-.34.49-.42.09-.03.18-.05.28-.06.43-.03.84.21,1.01.63.1.24.09.5,0,.73"/>
          </g>
        </g>
      </g>
      <g class="dc">
        <path class="cj" d="M11.71,22.24c-.25.1-.44.29-.54.52l1.2-2.8c.1-.23.29-.42.54-.52.09-.03.18-.05.28-.06.16-.01.31.01.46.07-.4.93-.8,1.87-1.2,2.8-.14-.06-.3-.08-.46-.07-.09,0-.19.03-.28.06Z"/>
        <g class="ct">
          <g class="dc">
            <path class="cj" d="M14.19,20.73l-1.2,2.8c.1-.22.11-.48,0-.73-.17-.42-.59-.66-1.01-.63-.09,0-.19.03-.28.06-.22.08-.39.23-.49.42l1.2-2.8c.11-.19.27-.34.49-.42.09-.03.18-.05.28-.06.43-.03.84.21,1.01.63.1.24.09.5,0,.73"/>
            <path class="cj" d="M12.42,19.86l-1.2,2.8s-.03.06-.05.1l1.2-2.8s.03-.06.05-.1"/>
          </g>
        </g>
      </g>
      <g class="dc">
        <path class="cj" d="M13.54,14.7l-1.2,2.8c-1.32,1.54-2.35,3.3-3.21,5.16l1.2-2.8c.86-1.86,1.89-3.62,3.21-5.16Z"/>
        <g class="bt">
          <g class="dc">
            <path class="cj" d="M13.54,14.7l-1.2,2.8c-.83.97-1.54,2.02-2.18,3.13l1.2-2.8c.63-1.11,1.35-2.17,2.18-3.13"/>
            <path class="cj" d="M11.36,17.83l-1.2,2.8c-.37.66-.72,1.34-1.04,2.03l1.2-2.8c.32-.69.66-1.37,1.04-2.03"/>
          </g>
        </g>
      </g>
      <g class="dc">
        <path class="cj" d="M9.02,22.89l1.2-2.8c.03-.08.07-.16.1-.23l-1.2,2.8c-.03.08-.07.16-.1.23Z"/>
        <g class="do">
          <g class="dc">
            <path class="cj" d="M10.32,19.86l-1.2,2.8c-.03.08-.07.16-.1.23l1.2-2.8c.03-.08.07-.16.1-.23"/>
          </g>
        </g>
      </g>
      <g class="dc">
        <path class="cj" d="M48.06,35.19l-1.2,2.8c-.1.23-.29.42-.54.52-.09.03-.18.05-.28.06-.43.03-.84-.21-1.01-.63-.1-.25-.09-.51.01-.73l1.2-2.8c-.1.22-.11.49-.01.73.17.42.59.66,1.01.63.09,0,.19-.03.28-.06.25-.1.44-.29.54-.52Z"/>
        <g class="dp">
          <g class="dc">
            <path class="cj" d="M48.06,35.19l-1.2,2.8s-.03.06-.05.1l1.2-2.8s.03-.06.05-.1"/>
            <path class="cj" d="M48.02,35.28l-1.2,2.8c-.11.19-.27.34-.49.42-.09.03-.18.05-.28.06-.43.03-.84-.21-1.01-.63-.1-.25-.09-.51.01-.73l1.2-2.8c-.1.22-.11.49-.01.73.17.42.59.66,1.01.63.09,0,.19-.03.28-.06.22-.08.39-.23.49-.42"/>
          </g>
        </g>
      </g>
      <g class="dc">
        <path class="cj" d="M14.19,20.73l-1.2,2.8c-.1.23-.29.42-.55.52-.09.03-.18.05-.27.06-.42.03-.84-.21-1.01-.63-.1-.25-.09-.51,0-.73l1.2-2.8c-.1.23-.11.49,0,.73.17.42.59.66,1.01.63.09,0,.18-.03.27-.06.26-.1.45-.29.55-.52Z"/>
        <g class="cu">
          <g class="dc">
            <path class="cj" d="M14.19,20.73l-1.2,2.8s-.03.07-.05.1l1.2-2.8s.03-.06.05-.1"/>
            <path class="cj" d="M14.15,20.83l-1.2,2.8c-.11.19-.28.34-.5.43-.09.03-.18.05-.27.06-.42.03-.84-.21-1.01-.63-.1-.25-.09-.51,0-.73l1.2-2.8c-.1.23-.11.49,0,.73.17.42.59.66,1.01.63.09,0,.18-.03.27-.06.22-.08.39-.24.5-.43"/>
          </g>
        </g>
      </g>
      <path class="cj" d="M13.19,19.38c.43-.03.84.21,1.01.63.2.5-.05,1.06-.55,1.25-.09.03-.18.05-.27.06-.42.03-.84-.21-1.01-.63-.2-.5.04-1.06.54-1.25.09-.03.18-.05.28-.06Z"/>
      <polygon class="cj" points="34.48 21.81 33.28 24.61 25.15 30.21 26.35 27.41 34.48 21.81"/>
      <polygon class="cj" points="32.44 18.97 31.24 21.76 19.87 29.6 21.07 26.8 32.44 18.97"/>
      <polygon class="cj" points="27.62 29.81 26.42 32.61 25.15 30.21 26.35 27.41 27.62 29.81"/>
      <g class="dc">
        <path class="cj" d="M26.88,31.81c-.19.29-.34.55-.46.8l1.2-2.8c.12-.24.27-.51.46-.8.4-.61.91-1.24,1.55-1.89.64-.66,1.36-1.26,2.15-1.81.62-.43,1.24-.79,1.87-1.09.63-.31,1.23-.5,1.82-.6.1-.01.19-.03.29-.03.48-.04.94.01,1.37.16h0c-.4.93-.8,1.87-1.2,2.8,0,0,0,0,0,0-.43-.15-.88-.2-1.37-.16-.1,0-.19.02-.29.03-.59.1-1.2.29-1.82.6-.63.3-1.25.67-1.87,1.09-.79.55-1.51,1.15-2.15,1.81-.64.65-1.15,1.28-1.55,1.89Z"/>
        <g class="cb">
          <g class="dc">
            <path class="cj" d="M38.83,28.04l-1.2,2.8c.13-.29.21-.58.26-.86.14-.82-.07-1.61-.6-2.36-.39-.53-.83-.9-1.36-1.07-.43-.15-.88-.2-1.37-.16-.1,0-.19.02-.29.03-.59.1-1.2.29-1.82.6-.63.3-1.25.67-1.87,1.09-.79.55-1.51,1.15-2.15,1.81-.64.65-1.15,1.28-1.55,1.89-.1.16-.2.31-.28.46l1.2-2.8c.08-.14.18-.3.28-.46.4-.61.91-1.24,1.55-1.89.64-.66,1.36-1.26,2.15-1.81.62-.43,1.24-.79,1.87-1.09.63-.31,1.23-.5,1.82-.6.1-.01.19-.03.29-.03.48-.04.94.01,1.37.16.52.18.97.54,1.36,1.07.54.75.74,1.54.6,2.36-.05.28-.13.57-.26.86"/>
            <path class="cj" d="M27.8,29.46l-1.2,2.8c-.07.12-.13.23-.18.34l1.2-2.8c.05-.11.11-.22.18-.34"/>
          </g>
        </g>
      </g>
      <g class="dc">
        <path class="cj" d="M42.93,41.94c-.13-.06-.28-.09-.44-.09.04-.1.1-.23.14-.33.04-.1.1-.24.15-.35s.11-.25.15-.36.11-.26.16-.37.11-.26.16-.37.11-.25.15-.36.1-.24.15-.35c.04-.1.1-.23.14-.33.16,0,.3.03.44.09-.4.93-.8,1.87-1.2,2.8Z"/>
        <g class="ee">
          <g class="dc">
            <path class="cj" d="M44.71,40l-1.2,2.8c-.02-.53-.47-.96-1.02-.95-.03,0-.05,0-.08,0-.33.03-.61.21-.76.48l1.2-2.8c.15-.27.43-.45.76-.48.03,0,.05,0,.08,0,.55,0,1,.42,1.02.95"/>
          </g>
        </g>
      </g>
      <g class="dc">
        <path class="cj" d="M42.93,41.94s.03-.07.04-.09c.01-.03.03-.07.04-.1s.03-.07.04-.1.03-.07.04-.1.03-.07.04-.1.03-.07.04-.1.03-.07.04-.1c.01-.03.03-.07.04-.09.14-.33.29-.67.43-1,.03-.08.08-.18.11-.26s.08-.18.11-.26.07-.17.11-.25c.03-.07.07-.16.1-.23.33.15.57.48.58.86l-1.2,2.8c-.01-.38-.25-.71-.58-.86Z"/>
        <g class="dl">
          <g class="dc">
            <path class="cj" d="M44.71,40l-1.2,2.8c-.02-.53-.47-.96-1.02-.95-.03,0-.05,0-.08,0-.33.03-.61.21-.76.48l1.2-2.8c.15-.27.43-.45.76-.48.03,0,.05,0,.08,0,.55,0,1,.42,1.02.95"/>
          </g>
        </g>
      </g>
      <g class="dc">
        <path class="cj" d="M43.43,43.21c.05-.12.08-.26.08-.41.06-.14.14-.32.19-.45.02-.04.04-.09.06-.13.03-.08.08-.19.11-.27.08-.18.16-.36.23-.55.04-.08.08-.19.12-.27s.08-.19.12-.27.08-.19.11-.27.08-.18.11-.26l.14-.33c0,.14-.02.28-.08.41-.36.84-.84,1.96-1.2,2.8Z"/>
        <g class="dw">
          <g class="dc">
            <path class="cj" d="M44.63,40.41l-1.2,2.8c.05-.12.08-.26.08-.41l1.2-2.8c0,.14-.02.28-.08.41"/>
          </g>
        </g>
      </g>
      <g class="dc">
        <path class="cj" d="M42.41,41.86c-.37.03-.67.26-.8.57l1.2-2.8c.13-.31.44-.55.8-.57.03,0,.05,0,.08,0h0c-.4.93-.8,1.87-1.2,2.8,0,0,0,0,0,0-.03,0-.05,0-.08,0Z"/>
        <g class="cr">
          <g class="dc">
            <path class="cj" d="M44.71,40l-1.2,2.8c-.02-.53-.47-.96-1.02-.95-.03,0-.05,0-.08,0-.33.03-.61.21-.76.48l1.2-2.8c.15-.27.43-.45.76-.48.03,0,.05,0,.08,0,.55,0,1,.42,1.02.95"/>
            <path class="cj" d="M42.85,39.54l-1.2,2.8s-.03.06-.05.09l1.2-2.8s.03-.06.05-.09"/>
          </g>
        </g>
      </g>
      <g class="dc">
        <path class="cj" d="M10.03,28.51c-.11.1-.19.21-.25.34l1.2-2.8c.05-.13.14-.24.25-.34.16-.14.36-.22.56-.24.3-.02.61.09.83.34h0c-.4.93-.8,1.87-1.2,2.8,0,0,0,0,0,0-.22-.25-.53-.36-.83-.34-.2.02-.4.09-.56.24Z"/>
        <g class="eh">
          <g class="dc">
            <path class="cj" d="M12.8,26.84l-1.2,2.8c.14-.33.09-.74-.17-1.03-.22-.25-.53-.36-.83-.34-.2.02-.4.09-.56.24-.08.07-.15.16-.2.25l1.2-2.8c.05-.09.12-.17.2-.25.16-.14.36-.22.56-.24.3-.02.61.09.83.34.26.29.31.69.17,1.03"/>
            <path class="cj" d="M11.03,25.96l-1.2,2.8s-.03.06-.05.09l1.2-2.8s.03-.06.05-.09"/>
          </g>
        </g>
      </g>
      <g class="dc">
        <path class="cj" d="M11.6,29.64c.14-.33.09-.74-.17-1.03.04-.1.1-.23.14-.33.04-.1.1-.24.15-.35s.11-.25.15-.36.11-.26.16-.37.11-.26.16-.37.11-.25.15-.36.1-.24.15-.35c.04-.1.1-.23.14-.33.26.29.31.69.17,1.03-.36.84-.84,1.96-1.2,2.8Z"/>
        <g class="cq">
          <g class="dc">
            <path class="cj" d="M12.8,26.84l-1.2,2.8c.14-.33.09-.74-.17-1.03-.22-.25-.53-.36-.83-.34-.2.02-.4.09-.56.24-.08.07-.15.16-.2.25l1.2-2.8c.05-.09.12-.17.2-.25.16-.14.36-.22.56-.24.3-.02.61.09.83.34.26.29.31.69.17,1.03"/>
          </g>
        </g>
      </g>
      <g class="dc">
        <path class="cj" d="M12.8,26.84l-1.2,2.8c-.05.13-.14.24-.25.34-.16.14-.36.22-.56.24-.3.02-.61-.09-.83-.34-.26-.29-.31-.69-.17-1.02l1.2-2.8c-.14.33-.09.73.17,1.02.22.25.53.36.83.34.2-.02.4-.09.56-.24.11-.1.19-.21.25-.34Z"/>
        <g class="bs">
          <g class="dc">
            <path class="cj" d="M12.8,26.84l-1.2,2.8s-.03.06-.05.09l1.2-2.8s.03-.06.05-.09"/>
            <path class="cj" d="M12.75,26.93l-1.2,2.8c-.05.09-.12.17-.2.25-.16.14-.36.22-.56.24-.3.02-.61-.09-.83-.34-.26-.29-.31-.69-.17-1.02l1.2-2.8c-.14.33-.09.73.17,1.02.22.25.53.36.83.34.2-.02.4-.09.56-.24.08-.07.15-.15.2-.25"/>
          </g>
        </g>
      </g>
      <g class="dc">
        <path class="cj" d="M44.63,40.41l-1.2,2.8c-.14.32-.44.55-.82.58-.02,0-.04,0-.06,0-.55,0-1-.42-1.02-.96,0-.14.02-.28.07-.4l1.2-2.8c-.05.12-.08.26-.07.4.02.54.47.97,1.02.96.02,0,.04,0,.06,0,.37-.03.68-.26.82-.58Z"/>
        <g class="dk">
          <g class="dc">
            <path class="cj" d="M44.63,40.41l-1.2,2.8s-.03.06-.05.09l1.2-2.8s.03-.06.05-.09"/>
            <path class="cj" d="M44.58,40.5l-1.2,2.8c-.15.27-.44.46-.77.48-.02,0-.04,0-.06,0-.55,0-1-.42-1.02-.96,0-.14.02-.28.07-.4l1.2-2.8c-.05.12-.08.26-.07.4.02.54.47.97,1.02.96.02,0,.04,0,.06,0,.33-.03.62-.21.77-.48"/>
          </g>
        </g>
      </g>
      <path class="cj" d="M43.61,39.06s.05,0,.08,0c.55,0,1,.42,1.02.95.02.52-.38.94-.89.98-.02,0-.04,0-.06,0-.55,0-1-.42-1.02-.96-.02-.51.37-.94.88-.98Z"/>
      <polygon class="cj" points="27.7 31.41 26.51 34.21 23.16 35.73 24.36 32.93 27.7 31.41"/>
      <polygon class="cj" points="24.36 32.93 23.16 35.73 19.87 29.6 21.07 26.8 24.36 32.93"/>
      <polygon class="cj" points="28.2 32 27 34.8 23.7 37.07 24.9 34.28 28.2 32"/>
      <g class="dc">
        <path class="cj" d="M38.83,28.04l-1.2,2.8c-.24.56-.62,1.15-1.15,1.74-.8.91-1.93,1.87-3.39,2.87-.95.66-1.9,1.21-2.86,1.65-.95.44-1.85.74-2.71.91-.29.06-.58.1-.85.12-.52.04-1,.02-1.44-.07-.66-.14-1.18-.47-1.54-.97l1.2-2.8c.37.5.88.83,1.54.97.43.09.91.11,1.44.07.27-.02.55-.06.85-.12.86-.17,1.76-.47,2.71-.91.96-.44,1.91-.99,2.86-1.65,1.46-1,2.59-1.96,3.39-2.87.53-.6.91-1.18,1.15-1.74Z"/>
        <g class="br">
          <g class="dc">
            <path class="cj" d="M38.83,28.04l-1.2,2.8c-.07.17-.16.34-.25.51l1.2-2.8c.1-.17.18-.34.25-.51"/>
            <path class="cj" d="M38.58,28.54l-1.2,2.8c-.23.4-.53.81-.9,1.23-.8.91-1.93,1.87-3.39,2.87-.95.66-1.9,1.21-2.86,1.65-.95.44-1.85.74-2.71.91-.29.06-.58.1-.85.12-.52.04-1,.02-1.44-.07-.66-.14-1.18-.47-1.54-.97l1.2-2.8c.37.5.88.83,1.54.97.43.09.91.11,1.44.07.27-.02.55-.06.85-.12.86-.17,1.76-.47,2.71-.91.96-.44,1.91-.99,2.86-1.65,1.46-1,2.59-1.96,3.39-2.87.37-.42.67-.83.9-1.23"/>
          </g>
        </g>
      </g>
      <path class="cj" d="M32.44,18.97l2.05,2.84-8.13,5.6,1.27,2.4c.12-.24.27-.51.46-.8.4-.61.91-1.24,1.55-1.89.64-.66,1.36-1.26,2.15-1.81.62-.43,1.24-.79,1.87-1.09.63-.31,1.23-.5,1.82-.6.1-.01.19-.03.29-.03.48-.04.94.01,1.37.16.52.18.97.54,1.36,1.07.54.75.74,1.54.6,2.36-.14.82-.61,1.69-1.41,2.6-.8.91-1.93,1.87-3.39,2.87-.95.66-1.9,1.21-2.86,1.65-.95.44-1.85.74-2.71.91-.29.06-.58.1-.85.12-.52.04-1,.02-1.44-.07-.66-.14-1.18-.47-1.54-.97l3.3-2.27c.07.07.2.1.38.08.12,0,.27-.04.44-.09.42-.13.91-.34,1.47-.65.57-.31,1.14-.66,1.72-1.06.38-.27.76-.53,1.14-.81.38-.27.71-.55.98-.81.28-.27.48-.52.58-.76.11-.25.1-.46-.05-.66-.15-.21-.36-.3-.64-.29-.28.02-.6.12-.95.29-.36.17-.73.39-1.12.64s-.76.5-1.13.76c-.45.31-.9.65-1.36,1.01s-.86.7-1.21,1.02c-.35.31-.6.55-.76.74l-3.34,1.52-3.3-6.13,11.37-7.83Z"/>
      <g class="dc">
        <path class="cj" d="M36.55,46.15l1.2-2.8c.14-.34.46-.55.82-.58.13-.01.26,0,.4.05.52.18.8.73.64,1.24l-1.2,2.8c.16-.51-.11-1.06-.64-1.24-.13-.04-.27-.06-.4-.05-.35.03-.67.24-.82.58Z"/>
        <g class="cc">
          <g class="dc">
            <path class="cj" d="M39.6,44.06l-1.2,2.8c.16-.51-.11-1.06-.64-1.24-.13-.04-.27-.06-.4-.05-.32.03-.61.2-.77.48l1.2-2.8c.16-.28.45-.46.77-.48.13-.01.26,0,.4.05.52.18.8.73.64,1.24"/>
            <path class="cj" d="M37.79,43.26l-1.2,2.8s-.03.06-.05.1l1.2-2.8s.03-.07.05-.1"/>
          </g>
        </g>
      </g>
      <g class="dc">
        <path class="cj" d="M38.37,46.93s.02-.04.03-.07l1.2-2.8s-.02.04-.03.07c-.36.84-.84,1.96-1.2,2.8Z"/>
        <g class="cl">
          <g class="dc">
            <path class="cj" d="M39.57,44.13l-1.2,2.8s.02-.04.03-.07l1.2-2.8s-.02.04-.03.07"/>
          </g>
        </g>
      </g>
      <g class="dc">
        <path class="cj" d="M39.57,44.13l-1.2,2.8c-.14.34-.47.55-.82.58-.13.01-.27,0-.4-.05l1.2-2.8c.13.04.27.06.4.05.36-.03.68-.24.82-.58Z"/>
        <g class="de">
          <g class="dc">
            <path class="cj" d="M39.57,44.13l-1.2,2.8s-.03.06-.05.09l1.2-2.8s.03-.06.05-.09"/>
            <path class="cj" d="M39.52,44.23l-1.2,2.8c-.16.28-.45.46-.78.48-.13.01-.27,0-.4-.05l1.2-2.8c.13.04.27.06.4.05.32-.03.62-.2.78-.48"/>
          </g>
        </g>
      </g>
      <g class="dc">
        <path class="cj" d="M36.55,46.15l1.2-2.8s-.02.05-.03.07c-.16.5.11,1.05.63,1.23l-1.2,2.8c-.51-.18-.79-.73-.63-1.23,0-.03.02-.05.03-.07Z"/>
        <g class="dg">
          <g class="dc">
            <path class="cj" d="M38.34,44.66l-1.2,2.8c-.51-.18-.79-.73-.63-1.23,0-.03.02-.05.03-.07l1.2-2.8s-.02.05-.03.07c-.16.5.11,1.05.63,1.23"/>
          </g>
        </g>
      </g>
      <path class="cj" d="M38.56,42.78c.13-.01.26,0,.4.05.52.18.8.73.64,1.24-.13.37-.47.62-.85.65-.13.01-.27,0-.4-.05-.51-.18-.79-.73-.63-1.23.13-.38.47-.62.84-.65Z"/>
      <g class="dc">
        <path class="cj" d="M7.22,34.98c-.4-4.25.23-8.39,1.81-12.09l1.2-2.8c-1.58,3.69-2.21,7.84-1.81,12.09-.36.84-.84,1.96-1.2,2.8Z"/>
        <g class="ea">
          <g class="dc">
            <path class="cj" d="M8.41,32.18l-1.2,2.8c-.4-4.25.23-8.39,1.81-12.09l1.2-2.8c-1.58,3.69-2.21,7.84-1.81,12.09"/>
          </g>
        </g>
      </g>
      <g class="dc">
        <path class="cj" d="M7.66,20.22l1.2-2.8c-.23.54-.44,1.09-.61,1.64-1.43,4.27-1.41,9.01.16,13.12l-1.2,2.8c-1.57-4.1-1.6-8.84-.16-13.12.18-.56.38-1.1.61-1.64Z"/>
        <g class="cs">
          <g class="dc">
            <path class="cj" d="M8.41,32.18l-1.2,2.8c-1.57-4.1-1.6-8.84-.16-13.12.18-.56.38-1.1.61-1.64l1.2-2.8c-.23.54-.44,1.09-.61,1.64-1.43,4.27-1.41,9.01.16,13.12"/>
          </g>
        </g>
      </g>
      <path class="cj" d="M27.07,4.53c.78-.06,1.57-.08,2.36-.05,4.6.11,9.15,1.73,12.58,4.57-4.04-1.84-8.34-2.66-12.51-2.39-.1,0-.19.01-.29.02-4.05.32-7.95,1.67-11.2,3.94-1.68,1.14-3.18,2.52-4.47,4.09-1.32,1.54-2.35,3.3-3.21,5.16-1.66,3.75-2.32,7.98-1.91,12.32-1.57-4.1-1.6-8.84-.16-13.12.68-2.16,1.79-4.18,3.14-6.01,1.39-1.82,3.08-3.41,4.95-4.74,1.91-1.27,4.01-2.3,6.23-2.95,1.47-.42,2.97-.71,4.49-.83Z"/>
      <g class="dc">
        <path class="cj" d="M31.98,47.56c-.21-.16-.46-.23-.7-.21.04-.1.1-.23.14-.33.04-.1.1-.24.15-.35s.11-.25.15-.36.11-.26.16-.37.11-.26.16-.37.11-.25.15-.36.1-.24.15-.35c.04-.1.1-.23.14-.33.24-.02.49.05.7.21h0c-.4.93-.8,1.87-1.2,2.8,0,0,0,0,0,0Z"/>
        <g class="eg">
          <g class="dc">
            <path class="cj" d="M33.48,45.91l-1.2,2.8c.17-.4.06-.87-.3-1.15-.21-.16-.46-.23-.7-.21-.26.02-.51.14-.68.36-.03.04-.06.08-.09.13l1.2-2.8s.05-.09.09-.13c.17-.21.42-.34.68-.36.24-.02.49.05.7.21.36.28.47.76.3,1.15"/>
          </g>
        </g>
      </g>
      <g class="dc">
        <path class="cj" d="M30.6,47.7c-.06.07-.1.15-.14.22l1.2-2.8c.03-.08.08-.15.14-.22.17-.21.42-.34.68-.36h0c-.4.93-.8,1.87-1.2,2.8,0,0,0,0,0,0-.26.02-.51.14-.68.36Z"/>
        <g class="co">
          <g class="dc">
            <path class="cj" d="M33.48,45.91l-1.2,2.8c.17-.4.06-.87-.3-1.15-.21-.16-.46-.23-.7-.21-.26.02-.51.14-.68.36-.03.04-.06.08-.09.13l1.2-2.8s.05-.09.09-.13c.17-.21.42-.34.68-.36.24-.02.49.05.7.21.36.28.47.76.3,1.15"/>
            <path class="cj" d="M31.71,45.04l-1.2,2.8s-.03.06-.05.09l1.2-2.8s.03-.06.05-.09"/>
          </g>
        </g>
      </g>
      <g class="dc">
        <path class="cj" d="M32.29,48.71c.17-.39.06-.87-.3-1.15.04-.1.1-.23.14-.33.04-.1.1-.24.15-.35.1-.24.21-.48.31-.73.05-.11.11-.26.16-.37s.11-.25.15-.36.1-.24.15-.35c.04-.1.1-.23.14-.33.36.28.47.76.3,1.15-.36.84-.84,1.96-1.2,2.8Z"/>
        <g class="di">
          <g class="dc">
            <path class="cj" d="M33.48,45.91l-1.2,2.8c.17-.4.06-.87-.3-1.15-.21-.16-.46-.23-.7-.21-.26.02-.51.14-.68.36-.03.04-.06.08-.09.13l1.2-2.8s.05-.09.09-.13c.17-.21.42-.34.68-.36.24-.02.49.05.7.21.36.28.47.76.3,1.15"/>
          </g>
        </g>
      </g>
      <g class="dc">
        <path class="cj" d="M33.48,45.91l-1.2,2.8c-.03.08-.08.15-.13.22l1.2-2.8c.05-.07.1-.14.13-.22Z"/>
        <g class="ck">
          <g class="dc">
            <path class="cj" d="M33.48,45.91l-1.2,2.8s-.03.06-.05.1l1.2-2.8s.03-.06.05-.1"/>
            <path class="cj" d="M33.44,46.01l-1.2,2.8s-.05.08-.08.12l1.2-2.8s.06-.08.08-.12"/>
          </g>
        </g>
      </g>
      <path class="cj" d="M32.48,44.55c.24-.02.49.05.7.21.43.34.51.95.17,1.37-.18.21-.42.33-.68.35s-.5-.05-.71-.22c-.43-.34-.5-.95-.16-1.36.17-.21.42-.34.68-.36Z"/>
      <g class="dc">
        <path class="cj" d="M30.47,47.93l1.2-2.8c-.17.39-.06.86.3,1.14.21.16.46.24.71.22s.5-.14.68-.35l-1.2,2.8c-.18.21-.42.33-.68.35s-.5-.05-.71-.22c-.36-.28-.46-.75-.3-1.14Z"/>
        <g class="dq">
          <g class="dc">
            <path class="cj" d="M33.35,46.13l-1.2,2.8c-.18.21-.42.33-.68.35s-.5-.05-.71-.22c-.36-.28-.46-.75-.3-1.14l1.2-2.8c-.17.39-.06.86.3,1.14.21.16.46.24.71.22s.5-.14.68-.35"/>
          </g>
        </g>
      </g>
      <g class="dc">
        <path class="cj" d="M24.49,47.09c-.18.11-.31.27-.39.45l1.2-2.8c.08-.18.21-.34.39-.45.13-.08.27-.12.42-.13.36-.03.74.14.94.47h0c-.4.93-.8,1.87-1.2,2.8,0,0,0,0,0,0-.2-.33-.58-.5-.94-.47-.14.01-.29.05-.42.13Z"/>
        <g class="du">
          <g class="dc">
            <path class="cj" d="M27.12,45.51l-1.2,2.8c.12-.28.1-.61-.07-.89-.2-.33-.58-.5-.94-.47-.14.01-.29.05-.42.13-.15.09-.26.21-.34.35l1.2-2.8c.08-.14.19-.26.34-.35.13-.08.27-.12.42-.13.36-.03.74.14.94.47.17.28.19.61.07.89"/>
            <path class="cj" d="M25.35,44.64l-1.2,2.8s-.03.06-.05.1l1.2-2.8s.03-.07.05-.1"/>
          </g>
        </g>
      </g>
      <g class="dc">
        <path class="cj" d="M27.12,45.51l-1.2,2.8c-.08.18-.21.34-.39.45-.13.08-.27.12-.42.13-.36.03-.73-.14-.94-.47-.18-.28-.19-.61-.08-.89l1.2-2.8c-.12.28-.1.61.08.89.2.33.57.5.94.47.14-.01.29-.05.42-.13.18-.11.32-.27.39-.45Z"/>
        <g class="bv">
          <g class="dc">
            <path class="cj" d="M27.12,45.51l-1.2,2.8s-.03.06-.05.1l1.2-2.8s.03-.06.05-.1"/>
            <path class="cj" d="M27.07,45.61l-1.2,2.8c-.08.14-.2.26-.35.35-.13.08-.27.12-.42.13-.36.03-.73-.14-.94-.47-.18-.28-.19-.61-.08-.89l1.2-2.8c-.12.28-.1.61.08.89.2.33.57.5.94.47.14-.01.29-.05.42-.13.15-.09.27-.21.35-.35"/>
          </g>
        </g>
      </g>
      <path class="cj" d="M26.11,44.16c.36-.03.74.14.94.47.29.46.15,1.05-.32,1.33-.13.08-.27.12-.42.13-.36.03-.73-.14-.94-.47-.29-.46-.15-1.05.31-1.33.13-.08.27-.12.42-.13Z"/>
      <g class="dc">
        <path class="cj" d="M50.26,34.98l-1.2,2.8c-.09.2-.17.4-.26.59-1.68,3.63-4.31,6.71-7.56,8.96-3.24,2.27-7.13,3.61-11.17,3.95-4.06.32-8.26-.38-12.25-2.04l1.2-2.8c3.99,1.66,8.19,2.37,12.25,2.04,4.04-.34,7.93-1.69,11.17-3.95,3.25-2.25,5.88-5.33,7.56-8.96.09-.2.18-.4.26-.59Z"/>
        <g class="cy">
          <g class="dc">
            <path class="cj" d="M50.26,34.98l-1.2,2.8c-.09.2-.17.4-.26.59-.26.55-.53,1.09-.83,1.62l1.2-2.8c.3-.53.58-1.07.83-1.62.09-.2.18-.4.26-.59"/>
            <path class="cj" d="M49.16,37.19l-1.2,2.8c-1.66,2.93-3.97,5.43-6.73,7.34-3.24,2.27-7.13,3.61-11.17,3.95-4.06.32-8.26-.38-12.25-2.04l1.2-2.8c3.99,1.66,8.19,2.37,12.25,2.04,4.04-.34,7.93-1.69,11.17-3.95,2.76-1.91,5.07-4.41,6.73-7.34"/>
          </g>
        </g>
      </g>
      <g class="dc">
        <path class="cj" d="M51.54,37.77l-1.2,2.8c-1.55,3.61-4.15,6.81-7.44,9.07-1.86,1.25-3.9,2.25-6.06,2.91-1.51.43-3.07.74-4.63.86-.68.05-1.35.07-2.03.06-4.49-.06-8.94-1.55-12.35-4.22l1.2-2.8c3.42,2.67,7.86,4.16,12.35,4.22.68.02,1.36,0,2.03-.06,1.57-.12,3.12-.43,4.63-.86,2.16-.65,4.2-1.66,6.06-2.91,3.29-2.26,5.9-5.46,7.44-9.07Z"/>
        <g class="ce">
          <g class="dc">
            <path class="cj" d="M51.54,37.77l-1.2,2.8c-.3.71-.65,1.4-1.03,2.07l1.2-2.8c.38-.67.73-1.36,1.03-2.07"/>
            <path class="cj" d="M50.51,39.84l-1.2,2.8c-1.57,2.76-3.77,5.18-6.42,7-1.86,1.25-3.9,2.25-6.06,2.91-1.51.43-3.07.74-4.63.86-.68.05-1.35.07-2.03.06-4.49-.06-8.94-1.55-12.35-4.22l1.2-2.8c3.42,2.67,7.86,4.16,12.35,4.22.68.02,1.36,0,2.03-.06,1.57-.12,3.12-.43,4.63-.86,2.16-.65,4.2-1.66,6.06-2.91,2.65-1.82,4.85-4.24,6.42-7"/>
          </g>
        </g>
      </g>
      <path class="cj" d="M52.15,23.6c1.43,4.04,1.36,8.64-.09,12.8-1.44,4.16-4.27,7.89-7.97,10.43-1.86,1.25-3.9,2.25-6.06,2.91-1.51.43-3.07.74-4.63.86-.68.05-1.35.07-2.03.06-4.49-.06-8.94-1.55-12.35-4.22,3.99,1.66,8.19,2.37,12.25,2.04,4.04-.34,7.93-1.69,11.17-3.95,3.25-2.25,5.88-5.33,7.56-8.96,1.68-3.63,2.41-7.73,2.16-11.97Z"/>
      <g>
        <path class="ed" d="M55.06,40.38l-1.2,2.8c-1.94,4.52-5.14,8.56-9.51,11.58-4.15,2.86-8.83,4.43-13.57,4.81-9.63.77-19.48-3.4-25.52-11.79C-.63,39.61-1.45,29.46,2.18,20.99l1.2-2.8C-.25,26.67.57,36.81,6.45,44.97c6.04,8.39,15.9,12.56,25.52,11.79,4.74-.38,9.42-1.95,13.57-4.81,4.37-3.01,7.58-7.06,9.51-11.58Z"/>
        <g class="cz">
          <g class="dc">
            <path class="ed" d="M55.06,40.38l-1.2,2.8c-.39.92-.84,1.82-1.34,2.69l1.2-2.8c.5-.88.94-1.77,1.34-2.69"/>
            <path class="ed" d="M53.72,43.07l-1.2,2.8c-1.95,3.43-4.69,6.48-8.17,8.89-4.15,2.86-8.83,4.43-13.57,4.81-9.63.77-19.48-3.4-25.52-11.79C-.63,39.61-1.45,29.46,2.18,20.99l1.2-2.8C-.25,26.67.57,36.81,6.45,44.97c6.04,8.39,15.9,12.56,25.52,11.79,4.74-.38,9.42-1.95,13.57-4.81,3.48-2.4,6.23-5.46,8.17-8.89"/>
          </g>
        </g>
      </g>
      <path class="ed" d="M52.98,11.88c9.02,12.52,6.13,29.69-6.44,38.36-4.15,2.86-8.83,4.43-13.57,4.81-9.63.77-19.48-3.4-25.52-11.79C-1.57,30.74,1.32,13.57,13.89,4.9,18.04,2.04,22.72.47,27.46.09c9.63-.77,19.48,3.4,25.52,11.79ZM13.54,14.7c1.28-1.56,2.78-2.95,4.47-4.09,3.25-2.27,7.15-3.62,11.2-3.94.1,0,.19-.01.29-.02,4.17-.26,8.46.56,12.51,2.39-3.43-2.83-7.98-4.45-12.58-4.57-.78-.03-1.57-.01-2.36.05-1.52.12-3.03.41-4.49.83-2.22.65-4.32,1.68-6.23,2.95-1.87,1.33-3.56,2.93-4.95,4.74-1.35,1.84-2.46,3.86-3.14,6.01-1.43,4.27-1.41,9.01.16,13.12-.41-4.34.25-8.57,1.91-12.32.86-1.86,1.89-3.62,3.21-5.16M52.06,36.4c1.45-4.16,1.52-8.76.09-12.8.25,4.24-.48,8.34-2.16,11.97-1.68,3.63-4.31,6.71-7.56,8.96-3.24,2.27-7.13,3.61-11.17,3.95-4.06.32-8.26-.38-12.25-2.04,3.42,2.67,7.86,4.16,12.35,4.22.68.02,1.36,0,2.03-.06,1.57-.12,3.12-.43,4.63-.86,2.16-.65,4.2-1.66,6.06-2.91,3.7-2.54,6.54-6.27,7.97-10.43M37.68,29.78c.8-.91,1.27-1.78,1.41-2.6.14-.82-.07-1.61-.6-2.36-.39-.53-.83-.9-1.36-1.07-.43-.15-.88-.2-1.37-.16-.1,0-.19.02-.29.03-.59.1-1.2.29-1.82.6-.63.3-1.25.67-1.87,1.09-.79.55-1.51,1.15-2.15,1.81-.64.65-1.15,1.28-1.55,1.89-.19.29-.34.55-.46.8l-1.27-2.4,8.13-5.6-2.05-2.84-11.37,7.83,3.3,6.13,3.34-1.52c.15-.18.4-.43.76-.74.35-.32.76-.65,1.21-1.02.45-.37.91-.7,1.36-1.01.37-.26.75-.51,1.13-.76.39-.25.76-.47,1.12-.64.35-.17.67-.26.95-.29.27-.01.49.08.64.29.15.2.16.42.05.66-.1.24-.3.49-.58.76-.27.27-.61.54-.98.81-.38.27-.76.54-1.14.81-.58.4-1.15.75-1.72,1.06-.56.31-1.05.52-1.47.65-.17.05-.31.08-.44.09-.18.01-.31-.01-.38-.08l-3.3,2.27c.37.5.88.83,1.54.97.43.09.91.11,1.44.07.27-.02.55-.06.85-.12.86-.17,1.76-.47,2.71-.91.96-.44,1.91-.99,2.86-1.65,1.46-1,2.59-1.96,3.39-2.87M15.73,15.14c.02.54.47.96,1.02.96.02,0,.04,0,.06,0,.52-.04.91-.47.89-.98-.02-.54-.47-.97-1.02-.96-.02,0-.04,0-.06,0-.52.04-.91.47-.89.98M44.71,40c-.02-.53-.47-.96-1.02-.95-.03,0-.05,0-.08,0-.51.04-.9.47-.88.98.02.54.47.97,1.02.96.02,0,.04,0,.06,0,.52-.04.91-.47.89-.98M13.65,21.26c.5-.19.76-.75.55-1.25-.17-.42-.59-.66-1.01-.63-.09,0-.19.03-.28.06-.5.19-.75.75-.54,1.25.17.42.59.66,1.01.63.09,0,.18-.03.27-.06M46.79,33.89c-.5.19-.75.75-.55,1.25.17.42.59.66,1.01.63.09,0,.19-.03.28-.06.5-.19.75-.75.54-1.25-.17-.41-.59-.66-1.01-.63-.09,0-.18.03-.27.06M33.71,9.19c-.46.27-.61.87-.32,1.33.2.33.57.5.94.47.15-.01.29-.06.42-.13.46-.27.61-.88.31-1.33-.2-.33-.57-.5-.93-.47-.15.01-.29.06-.42.14M26.73,45.96c.47-.28.61-.88.32-1.33-.2-.33-.58-.5-.94-.47-.14.01-.29.05-.42.13-.46.28-.61.88-.31,1.33.2.33.57.5.94.47.14-.01.29-.05.42-.13M20.84,11.09c-.16.5.11,1.05.64,1.23.13.05.27.06.4.05.38-.03.71-.28.84-.65.17-.51-.11-1.06-.63-1.24-.13-.04-.27-.06-.4-.05-.38.03-.72.27-.85.65M39.6,44.06c.16-.51-.11-1.06-.64-1.24-.13-.04-.27-.06-.4-.05-.38.03-.72.27-.84.65-.16.5.11,1.05.63,1.23.13.04.27.06.4.05.38-.03.72-.27.85-.65M12.55,27.18c.4-.34.44-.96.08-1.36-.22-.25-.53-.36-.83-.34-.2.02-.4.09-.56.24-.4.35-.44.96-.08,1.36.22.25.53.36.83.34.2-.02.4-.09.56-.24M47.89,27.97c-.4.35-.44.96-.08,1.36.22.25.53.36.83.34.2-.02.4-.09.56-.24.4-.34.44-.96.08-1.36-.22-.25-.53-.36-.83-.34-.2.02-.4.09-.56.24M33.35,46.13c.33-.42.26-1.03-.17-1.37-.21-.16-.46-.23-.7-.21-.26.02-.51.14-.68.36-.34.41-.27,1.03.16,1.36.21.16.46.24.71.22s.51-.14.68-.35M27.08,9.02c-.34.41-.26,1.02.17,1.36.21.16.46.23.7.22.26-.02.5-.14.68-.36.34-.41.27-1.03-.16-1.36-.21-.16-.46-.23-.7-.21-.26.02-.51.14-.69.36"/>
      <path class="cj" d="M47.06,33.83c.42-.03.84.21,1.01.63.2.5-.04,1.06-.54,1.25-.09.03-.18.05-.28.06-.43.03-.84-.21-1.01-.63-.2-.5.05-1.06.55-1.25.09-.03.18-.05.27-.06Z"/>
      <path class="cj" d="M11.8,25.48c.3-.02.61.09.83.34.36.4.32,1.02-.08,1.36-.16.14-.36.22-.56.24-.3.02-.61-.09-.83-.34-.36-.4-.32-1.01.08-1.36.16-.14.36-.22.56-.24Z"/>
    </g>
  </g>
</svg>