<svg height="307.62" viewBox="0 0 1558.55 307.62" width="1558.55" xmlns="http://www.w3.org/2000/svg" xmlns:xlink="http://www.w3.org/1999/xlink"><clipPath id="a"><path d="m1531.43 306.79s-253.05-10.79-277.43-205.18c0 0-108.69 72.25-474.68 72.25s-474.72-72.25-474.72-72.25c-24.43 194.39-277.48 205.18-277.48 205.18z"/></clipPath><g stroke="#e8b356" stroke-miterlimit="10"><g fill="none"><path d="m0 306.79s253.09-10.79 277.51-205.18" stroke-width="1.66"/><path d="m1558.51 306.79s-253.05-10.79-277.51-205.18" stroke-width="1.66"/><path d="m1324.68 0s0 154.37-545.41 154.37-545.4-154.37-545.4-154.37" stroke-width="1.66"/></g><g clip-path="url(#a)" fill="#fc462d" stroke-width=".62"><path d="m106.21 300.21s662 2.9 677.47 2.9 677.46-2.9 677.46-2.9"/><path d="m119.44 287.05s617.87 8.7 664.24 8.7 664.24-8.7 664.24-8.7"/><path d="m132.66 273.89s573.74 14.51 651 14.51 651-14.51 651-14.51"/><path d="m145.89 260.73s529.6 20.27 637.79 20.27 637.79-20.31 637.79-20.31"/><path d="m159.12 247.57s485.46 26.11 624.56 26.11 624.56-26.11 624.56-26.11"/><path d="m172.34 234.41s441.34 31.92 611.34 31.92 611.32-31.92 611.32-31.92"/><path d="m185.57 221.25s397.2 37.75 598.11 37.75 598.11-37.72 598.11-37.72"/><path d="m198.79 208.09s353.07 43.52 584.89 43.52 584.88-43.52 584.88-43.52"/><path d="m212 194.93s309 49.33 571.68 49.33 571.66-49.33 571.66-49.33"/><path d="m225.24 181.77s264.76 55.13 558.44 55.13 558.43-55.13 558.43-55.13"/><path d="m238.47 168.61s220.66 60.93 545.21 60.93 545.21-60.93 545.21-60.93"/><path d="m251.7 155.45s176.52 66.74 532 66.74 532-66.74 532-66.74"/><path d="m264.92 142.29s132.39 72.54 518.76 72.54 518.75-72.54 518.75-72.54"/><path d="m278.15 129.13s88.25 78.34 505.53 78.34 505.53-78.34 505.53-78.34"/><path d="m291.37 116s44.12 84.14 492.31 84.14 492.32-84.14 492.32-84.14"/><path d="m1262.76 102.81s0 89.95-479.08 89.95-479.08-89.95-479.08-89.95"/></g><path d="m288.88 98.78s-35.18-15.89-56.61-64.07" fill="none" stroke-width="1.68"/><path d="m1269.66 98.78s35.19-15.89 56.62-64.07" fill="none" stroke-width="1.68"/></g></svg>