<svg height="259.42" viewBox="0 0 305.53 259.42" width="305.53" xmlns="http://www.w3.org/2000/svg"><g fill="#fff"><path d="m282.09 196.13 2.43 3.07a19 19 0 0 1 -4.63 4.32 9.48 9.48 0 0 1 -11.89-1.05 9.82 9.82 0 0 1 5.56-16.95 9.86 9.86 0 0 1 7.87 2.63 47.73 47.73 0 0 1 5.72 6.42 53.34 53.34 0 0 0 4.47 4.9 5.61 5.61 0 0 0 6.69 1.07 5.87 5.87 0 0 0 2.54-8.09 5.76 5.76 0 0 0 -8.1-2.2 16.49 16.49 0 0 0 -3.95 3.64c-.15.18-.3.36-.5.58l-2.48-3.14c1.9-2.27 3.95-4.35 6.82-5.37a9.21 9.21 0 0 1 6.75.21 9.83 9.83 0 0 1 -2.67 18.88 10.18 10.18 0 0 1 -7.9-2.74 43 43 0 0 1 -5.17-5.77c-1.48-1.79-3-3.54-4.61-5.22a6.23 6.23 0 0 0 -3.42-1.85 5.86 5.86 0 0 0 -6.23 3.19 5.93 5.93 0 0 0 1.23 6.89 5.7 5.7 0 0 0 6.87.82 16.53 16.53 0 0 0 4.1-3.77c.11-.13.22-.27.34-.4s.07-.03.16-.07z"/><path d="m23.44 196.13-2.44 3.07a19.39 19.39 0 0 0 4.63 4.32 9.5 9.5 0 0 0 11.9-1.05 9.82 9.82 0 0 0 -5.53-16.95 9.85 9.85 0 0 0 -7.86 2.63 47.81 47.81 0 0 0 -5.73 6.42 50.63 50.63 0 0 1 -4.47 4.9 5.59 5.59 0 0 1 -6.68 1.07 5.87 5.87 0 0 1 -2.54-8.09 5.76 5.76 0 0 1 8.1-2.2 16.44 16.44 0 0 1 3.94 3.64l.5.58 2.49-3.14c-1.9-2.27-4-4.35-6.82-5.37a9.21 9.21 0 0 0 -6.75.21 9.83 9.83 0 0 0 2.62 18.88 10.19 10.19 0 0 0 7.91-2.74 43 43 0 0 0 5.17-5.77c1.48-1.79 3-3.54 4.61-5.22a6.23 6.23 0 0 1 3.42-1.85 5.86 5.86 0 0 1 6.23 3.19 5.93 5.93 0 0 1 -1.23 6.89 5.7 5.7 0 0 1 -6.87.82 16.35 16.35 0 0 1 -4.1-3.77c-.12-.13-.22-.27-.34-.4s-.08-.03-.16-.07z"/><path d="m157.37 4.4a3.27 3.27 0 0 1 -1.93-1.49 5.08 5.08 0 0 0 -4.44-2.91 5.79 5.79 0 0 0 -4.48 1.84.31.31 0 0 0 0 .38.9.9 0 0 1 .17.8c-.13.49-.65.75-1.12 1a4.72 4.72 0 0 1 -1 .38 3.3 3.3 0 0 1 -2.42-.32 5.06 5.06 0 0 0 -5.33-.28 5.75 5.75 0 0 0 -3 3.84.32.32 0 0 0 .18.36.88.88 0 0 1 .55.61 1.87 1.87 0 0 1 -.48 1.41 4 4 0 0 1 -.66.83 3.2 3.2 0 0 1 -2.25.93 5.05 5.05 0 0 0 -4.76 2.43 5.8 5.8 0 0 0 -.66 4.81.35.35 0 0 0 .34.19.88.88 0 0 1 .78.25 1.91 1.91 0 0 1 .29 1.47 4.24 4.24 0 0 1 -.16 1 3.32 3.32 0 0 1 -1.48 1.94 5.05 5.05 0 0 0 -2.91 4.48 5.75 5.75 0 0 0 1.84 4.49.35.35 0 0 0 .38 0 .9.9 0 0 1 .8-.18c.48.13.75.66 1 1.13a4.63 4.63 0 0 1 .38 1 3.19 3.19 0 0 1 -.32 2.42 5.1 5.1 0 0 0 -.27 5.34 5.73 5.73 0 0 0 3.83 3 .31.31 0 0 0 .33-.19.92.92 0 0 1 .61-.55 1.91 1.91 0 0 1 1.42.48 4.65 4.65 0 0 1 .82.66 3.3 3.3 0 0 1 .94 2.26 5.07 5.07 0 0 0 2.43 4.76 5.78 5.78 0 0 0 4.8.65.32.32 0 0 0 .19-.33.89.89 0 0 1 .25-.78 1.92 1.92 0 0 1 1.47-.3 4.24 4.24 0 0 1 1 .16 3.27 3.27 0 0 1 1.93 1.49 5.08 5.08 0 0 0 4.57 2.86 5.78 5.78 0 0 0 4.48-1.84.33.33 0 0 0 0-.39.89.89 0 0 1 -.17-.8c.13-.48.65-.74 1.12-1a4.72 4.72 0 0 1 1-.38 3.24 3.24 0 0 1 2.42.32 5.06 5.06 0 0 0 5.34.27 5.73 5.73 0 0 0 3-3.83.33.33 0 0 0 -.19-.33.89.89 0 0 1 -.55-.61 1.94 1.94 0 0 1 .47-1.42 4.72 4.72 0 0 1 .67-.82 3.22 3.22 0 0 1 2.25-.93 5.1 5.1 0 0 0 4.77-2.43 5.84 5.84 0 0 0 .65-4.81.34.34 0 0 0 -.34-.19.87.87 0 0 1 -.78-.25 1.91 1.91 0 0 1 -.29-1.47 4.66 4.66 0 0 1 .15-1 3.26 3.26 0 0 1 1.49-1.94 5.05 5.05 0 0 0 2.91-4.48 5.81 5.81 0 0 0 -1.83-4.49.33.33 0 0 0 -.39 0 .89.89 0 0 1 -.8.17c-.48-.12-.74-.65-1-1.12a5.56 5.56 0 0 1 -.39-1 3.32 3.32 0 0 1 .33-2.43 5 5 0 0 0 .27-5.33 5.81 5.81 0 0 0 -3.83-3 .34.34 0 0 0 -.34.2.87.87 0 0 1 -.6.54 1.94 1.94 0 0 1 -1.42-.47 4.39 4.39 0 0 1 -.82-.66 3.3 3.3 0 0 1 -.94-2.26 5.06 5.06 0 0 0 -2.43-4.76 5.78 5.78 0 0 0 -4.8-.65.3.3 0 0 0 -.19.33.9.9 0 0 1 -.25.78 2 2 0 0 1 -1.47.3 4.77 4.77 0 0 1 -1-.16zm-.69 2.6a22.46 22.46 0 0 1 5.32 2.19 22 22 0 0 1 4.58 3.52 21.81 21.81 0 0 1 3.52 4.58 22 22 0 0 1 3 11.07 22.8 22.8 0 0 1 -.75 5.73 22 22 0 0 1 -2.22 5.33 22.41 22.41 0 0 1 -3.52 4.58 22.12 22.12 0 0 1 -15.61 6.49 22.67 22.67 0 0 1 -5.73-.74 22.29 22.29 0 0 1 -9.97-5.75 22 22 0 0 1 -5.73-9.92 22.26 22.26 0 0 1 0-11.46 22.46 22.46 0 0 1 2.21-5.34 22.75 22.75 0 0 1 3.52-4.58 22 22 0 0 1 4.58-3.52 22 22 0 0 1 11.07-3 22.14 22.14 0 0 1 5.73.75z" fill-rule="evenodd"/><path d="m167.58 38.83a3.26 3.26 0 0 0 -.45.09c-.91.19-2 .51-3 .62a35.41 35.41 0 0 1 -8.12.16 30.41 30.41 0 0 1 -8.89-2.14c-1.11-.39-2-.58-3.28-1a17.62 17.62 0 0 0 -2.49-.64 8.73 8.73 0 0 0 -1.46-.1 18.5 18.5 0 0 0 2.17-1.31 11.63 11.63 0 0 0 2.53-2.06 13.84 13.84 0 0 0 1-1.15 1 1 0 0 0 .19-.86 1.15 1.15 0 0 0 -.57-.6 1.57 1.57 0 0 0 -1.34.05c-.45.22-.4.61-.72.89a9.75 9.75 0 0 1 -1.85.69c.36-.4.66-.66 1.06-1.16a14.11 14.11 0 0 0 1.17-1.46c.4-.58.72-1 .32-1.36.81-.4 2.18-1 3-1.34s1.43-.58 2.23-.85l.83-.3a18.35 18.35 0 0 0 -2.63 4.25 11.5 11.5 0 0 0 -.95 5.78 1.6 1.6 0 0 0 .8 1 .83.83 0 0 0 .85 0 1.43 1.43 0 0 0 .47-.56l.13.13a.66.66 0 0 0 .5.12l1.52-.29a.31.31 0 0 1 .25.13 8.63 8.63 0 0 0 .91 1.43 1.28 1.28 0 0 0 .65.45.61.61 0 0 0 .68-.31 4.25 4.25 0 0 0 .49-1.81c0-.42-.11-.85-.1-1.26 0-.26 0-.53 0-.79 0-.6 0-1.2 0-1.8a16.61 16.61 0 0 1 .23-2 1.56 1.56 0 0 0 0-1 2.48 2.48 0 0 0 -.44-.68 3.38 3.38 0 0 0 -.82-.63 1.34 1.34 0 0 0 -1.53 0 6.24 6.24 0 0 1 -1.3.76c-.09 0-.34.17-.46.14a6.81 6.81 0 0 1 1.4-1.71 17.72 17.72 0 0 1 3-2c.58-.33 2.3-.63 2.91-.89a.79.79 0 0 0 0-1.47c-.58-.27-1.53-.4-2.14-.62a1.75 1.75 0 0 0 -1.56.09c-.94.69-3.1 2.16-3.07 1.89a3.07 3.07 0 0 1 1-1.86 14.19 14.19 0 0 0 2.08-2.1c.41-.44.34-.39.51-.57a2.51 2.51 0 0 0 .37-.4 15.9 15.9 0 0 0 1.46-1.21c.23-.19 0-.83.07-.95s-.41-.46-1.18-.5a2 2 0 0 0 -1.31.53 9.73 9.73 0 0 0 -1.29 2 3.92 3.92 0 0 1 -.77 1.7c-.16.16-.21.64-.52.45a2.64 2.64 0 0 1 0-.88c.07-.42 0-.92.06-1.35a4.54 4.54 0 0 1 .07-.95 1.54 1.54 0 0 0 0-1c-.08-.26-.73-.53-1-.72a5.71 5.71 0 0 0 -.8-.33c-.28-.09-.65.06-.73 0s-.16.61-.16.61a2 2 0 0 1 .64 1.26 14.29 14.29 0 0 1 -.17 2.8c-.15 1-.32 1.86-.53 2.74a6.21 6.21 0 0 1 -.29 1.52c-.18.08-.3.34-.48.42-.8.36-.85.54-1.77.95-1.25.56-1.77.76-3.15 1.37 0-.47-.15-2.71-.14-3.13 1.43-1.06 2.25-1.65 3.6-2.82a.66.66 0 0 0 .15-.6c0-.23-.31-.43-.39-.59-.35-.8-.62-.79-1.29-1.31a7.82 7.82 0 0 1 -1.33-1.24 16.72 16.72 0 0 1 -1.06-1.33 4.82 4.82 0 0 1 0-.51c0-.19 0-.33 0-.53 0-1 0-1.23.29-1.45s-.13-.66-.74-.88a.88.88 0 0 0 -.91.11 1.69 1.69 0 0 0 -.74 1 1.64 1.64 0 0 0 0 1 1.94 1.94 0 0 1 .25.69c.06.7.12 1 .18 1.7a34.42 34.42 0 0 1 .14 3.93 19.25 19.25 0 0 1 -5.22 2.53 1.75 1.75 0 0 1 -1 .05l-.42-.09-.3-.08s0 0 0 0a2.68 2.68 0 0 0 .18.28c.45.7.76.66 1.44 1a7.51 7.51 0 0 0 2.07 1 3.76 3.76 0 0 0 2.42-.22c.28-.16.78-.53 1.06-.68 0 .42.1 2.6.08 2.94a16.93 16.93 0 0 1 -1.77 1c-.87.49-1.66.88-2.57 1.29a.48.48 0 0 1 -.66-.24 1.72 1.72 0 0 1 0-.78c0-.12 0-.25.07-.37s0-.05-.07 0l-.25.26a3.88 3.88 0 0 0 -.72 1.2.58.58 0 0 0 .23.68 2.22 2.22 0 0 0 1.39.49c.37 0 .83.08 1.19.09a1.48 1.48 0 0 0 1-.37c1.28-1 2.55-1.79 3.75-2.59a8.94 8.94 0 0 1 -1.4 2.43 6.91 6.91 0 0 1 -1.19 1.16 2.73 2.73 0 0 1 -.56.3 1.65 1.65 0 0 0 -.59.23.53.53 0 0 0 -.19.71 2.21 2.21 0 0 0 .35.39c.25.24.7.34.9.16a3.48 3.48 0 0 1 1.17-.5l1-.32a5.21 5.21 0 0 1 -1.21 1.23c-.2.14-.72.52-.93.65a8.32 8.32 0 0 1 -1.41.79 3.18 3.18 0 0 1 -1.06-.13 5.85 5.85 0 0 0 -1.33-.2.78.78 0 0 0 -.81.56 2.18 2.18 0 0 0 -.13 1.76c.19.33.26.58.68.67a1.25 1.25 0 0 0 .89-.1 5.28 5.28 0 0 1 2.13-.61 5.75 5.75 0 0 1 1.55 0 15.43 15.43 0 0 1 2.24.39 13.48 13.48 0 0 1 1.72.6c.45.19 2.67 1.08 3.12 1.29 2.57 1.28 3.55 1.69 5 2.35 1.26.55 4.67 2 6.78 1s3.84-.8 7.15-2.69a3.85 3.85 0 0 0 1.76-1l.28-.47c.1-.1.2-.17-.05-.13zm-15.84-4.93a1.6 1.6 0 0 1 -.07.45 3.33 3.33 0 0 0 -.71-.44.61.61 0 0 0 -.44 0c-.24.07-.36.09-.53.15a9.22 9.22 0 0 1 -1.06.3.57.57 0 0 1 -.34 0 .29.29 0 0 0 -.16 0 .58.58 0 0 1 -.11-.2 3.24 3.24 0 0 1 0-.62c0-.21 0-.42 0-.63a3.72 3.72 0 0 1 -.12-.51c0-.48 0-1 .11-1.41l.1.16a1.9 1.9 0 0 0 .94.76l.53.18c.17.07.38.06.39.21a.28.28 0 0 1 -.1.23.89.89 0 0 1 -.35.2c-.06 0-.05 0 0 0a3.84 3.84 0 0 0 .46-.11c.09 0 .16 0 .35-.09l.37-.11a2.89 2.89 0 0 0 .44 0 1 1 0 0 0 .35-.1 13.3 13.3 0 0 1 -.05 1.58zm-2.4-5.25a2.1 2.1 0 0 0 .64.26 1.61 1.61 0 0 0 .87-.05 2.42 2.42 0 0 1 .71-.14c.26 0 .37.18.37.42v2a2.74 2.74 0 0 0 -.36-.23 4.32 4.32 0 0 0 -1.62-.42 1.13 1.13 0 0 0 -.76.15 1.67 1.67 0 0 1 -.67.29h-.19a8.59 8.59 0 0 1 .51-2.1c.07-.16.14-.32.22-.48a.67.67 0 0 0 .28.3zm-8-9.42c0-.45 0-1.75 0-2.2a12.87 12.87 0 0 0 1 1.78 1.19 1.19 0 0 1 .28.65.41.41 0 0 1 -.25.39 4.86 4.86 0 0 1 -1 .43 9.38 9.38 0 0 1 .02-1.05z"/><path d="m156.46 20.38a2.55 2.55 0 0 0 1.95.59 5.48 5.48 0 0 0 2.14-.88 12.22 12.22 0 0 1 0 1.6.69.69 0 0 1 0 .2 5.24 5.24 0 0 1 -1.25-.26c-.18-.07-.34-.13-.51-.21s-.06 0 0 0l.37.38c.26.27.76.71 1 1a6 6 0 0 0 -.87 1.42c-.48 1-.87 1.91-1.26 2.94-.33.87-.68 1.72-1 2.59a31 31 0 0 0 -1.2 3.6 2.22 2.22 0 0 0 -.18.8 2 2 0 0 0 .29 1.06 4.32 4.32 0 0 1 .34.53.5.5 0 0 0 .21.36c.15.13.79.17.93-.26a15.92 15.92 0 0 0 .6-2.28c.3-1.45.64-2.8 1.08-4.23a.94.94 0 0 0 .89.07 2.4 2.4 0 0 0 .56-.38s.08-.08.11-.08.08.07.09.08a.53.53 0 0 1 .06.46 4 4 0 0 1 -.69 1.17 5.26 5.26 0 0 1 -.62.71 3.72 3.72 0 0 0 -.59.6.38.38 0 0 0 .1.53 1.12 1.12 0 0 0 .44.09 1.13 1.13 0 0 1 .32 0h.06a1 1 0 0 1 .47.59.91.91 0 0 1 -.2.64 1.77 1.77 0 0 1 -.46.34l-.46.27s-.05 0 0 0l.55-.1c.36-.07.68.08 1 0a2.44 2.44 0 0 0 1.39-1 1.2 1.2 0 0 0 -.21-1.2 2 2 0 0 0 -1-.58 2.16 2.16 0 0 0 -1.34.19 10.07 10.07 0 0 0 1.89-1.78 2.71 2.71 0 0 0 .5-1.69 1.44 1.44 0 0 0 -.73-1.17c-.37-.19-.8.11-1.1.32a4 4 0 0 1 -.85.44c.1-.3.2-.64.32-.94a2.41 2.41 0 0 1 .62-.9 2.93 2.93 0 0 1 .52-.41 2.77 2.77 0 0 1 1.28-.46c.29 0 .32.45.33.69 0 1.49.06 3 .07 4.48a41.57 41.57 0 0 1 -.22 5 3.16 3.16 0 0 1 -2 2.37 1.79 1.79 0 0 1 -1.43 0 1.39 1.39 0 0 1 -.77-.68.22.22 0 0 0 -.1-.11.36.36 0 0 1 -.05-.19s-.06 0 0 0a1.62 1.62 0 0 0 0 .22c0 .13 0 .22.05.28a1.58 1.58 0 0 0 .26.52 2.7 2.7 0 0 0 2.07 1 3.51 3.51 0 0 0 2.19-.46 3.21 3.21 0 0 0 1.7-2 34.34 34.34 0 0 0 .35-3.66 43.76 43.76 0 0 0 -.14-7.24 1.82 1.82 0 0 0 -1.21-1.36 2.26 2.26 0 0 0 -1.56 0 4.41 4.41 0 0 0 -.87.53 10.56 10.56 0 0 0 -1.95 2.09 23.67 23.67 0 0 1 1.14-2.2 7.12 7.12 0 0 1 1.12-1.15c.91 0 .91-.62.94-1.1.5-.63 1.14-1.36 1.67-2a25.57 25.57 0 0 0 2-2.31 4.42 4.42 0 0 0 .35-.62c.14-.35-.28-.85-.51-1a2.59 2.59 0 0 0 -1-.56.85.85 0 0 0 -.77.15 1.23 1.23 0 0 0 -.27.45c0 .11-.07.24-.12.36a6 6 0 0 1 -1.5 1.43c0-.93 0-1.86 0-2.79a2.9 2.9 0 0 1 .18-1.09 1.1 1.1 0 0 0 .03-1.19c-.1-.1-.23-.18-.34-.28s-.23-.34-.44-.49a8 8 0 0 1 -.82-.62l-.26-.24s0 0 0 0 0 .23 0 .34a1.62 1.62 0 0 0 .07.44 5.26 5.26 0 0 1 .06.89 22 22 0 0 0 .17 2.29 12.4 12.4 0 0 1 .24 2.1v1.15a3.61 3.61 0 0 1 -1.85.49 4.17 4.17 0 0 1 -1.48-.27 3.87 3.87 0 0 1 -1.17-.74 1.34 1.34 0 0 1 -.44-.7c-.06-.22-.12-.42-.17-.65s-.07-.1-.09 0-.05.43-.07.66a6.59 6.59 0 0 0 0 1.09 2.84 2.84 0 0 0 1.05 1.92zm5.38-.83a10.84 10.84 0 0 0 1.5-2c.07-.1.07 0 0 0a8.24 8.24 0 0 1 -1.54 3.45c.01-.3.04-1.17.04-1.45z"/><path d="m106 79.39-3.58.89 2.81 11.34-2.68.67-2.78-11.29-3.59.89-.59-2.39 9.85-2.5z"/><path d="m122.36 88.31-2.84.49-1.25-2.33-5 .86-.41 2.61-2.84.5 2.65-14.82 2.13-.37zm-5.21-4-2.58-4.78-.88 5.38z"/><path d="m127.47 87.77-2.75.33-1.65-14 2.74-.32z"/><path d="m141 82.36a5.28 5.28 0 0 1 -1.5 3.38 5.58 5.58 0 0 1 -7.31.11 4.62 4.62 0 0 1 -1.39-2.36 20.21 20.21 0 0 1 -.36-3.18 20.93 20.93 0 0 1 -.05-3.2 4.46 4.46 0 0 1 1.07-2.52 5.21 5.21 0 0 1 3.71-1.79 5.15 5.15 0 0 1 3.55 1 5.39 5.39 0 0 1 1.93 3.17l-2.79.19a2.28 2.28 0 0 0 -2.51-1.85 2.23 2.23 0 0 0 -1.87 1c-.32.53-.42 1.8-.29 3.82l.08 1.27a7.76 7.76 0 0 0 .1.79c.28 1.76 1.14 2.6 2.59 2.5a2.31 2.31 0 0 0 2.25-2.15z"/><path d="m154.51 86.71h-2.76l.05-5.9h-4.78l-.06 5.9h-2.76l.13-14.14h2.76l-.09 5.71h4.79v-5.79h2.76z"/><path d="m168.91 82.9a4.7 4.7 0 0 1 -1.78 3.46 5.73 5.73 0 0 1 -7.39-.59 4.69 4.69 0 0 1 -1.21-3.77l.77-9.27 2.75.23-.76 9.17a2.72 2.72 0 0 0 .49 1.93 2.64 2.64 0 0 0 3.6.3 2.69 2.69 0 0 0 .8-1.83l.76-9.16 2.73.22z"/><path d="m182.8 89.88-2.43-.39-4.16-9.49-1.38 8.56-2.72-.44 2.25-14 2.43.4 4.15 9.48 1.38-8.55 2.73.44z"/><path d="m197.69 87.41a6.4 6.4 0 0 1 -2.26 3.82 5 5 0 0 1 -4.33.66 5.17 5.17 0 0 1 -3.34-2.4 4.68 4.68 0 0 1 -.62-2.67 21 21 0 0 1 .61-3.15 21.08 21.08 0 0 1 .91-3.07 4.47 4.47 0 0 1 1.78-2.08 5.28 5.28 0 0 1 4.08-.6 5.07 5.07 0 0 1 4.11 5.67l-2.73-.67a2.39 2.39 0 0 0 -2-2.61c-1.36-.33-2.35.34-3 2l-.49 2c-.25 1-.41 1.65-.48 2-.27 1.75.3 2.79 1.73 3.14a2.5 2.5 0 0 0 2-.26 2.71 2.71 0 0 0 1.14-1.73l.2-.46-2.52-.62.54-2.23 5.19 1.26z"/><path d="m60.12 125.29a6.49 6.49 0 0 1 1.16 4.29 5 5 0 0 1 -2.55 3.57 5.19 5.19 0 0 1 -4.06.7 4.59 4.59 0 0 1 -2.34-1.41 20.26 20.26 0 0 1 -1.83-2.63 20.65 20.65 0 0 1 -1.56-2.8 4.4 4.4 0 0 1 -.25-2.72 5.21 5.21 0 0 1 2.42-3.29 5.29 5.29 0 0 1 3.66-.89 5.36 5.36 0 0 1 3.23 1.89l-2.37 1.48a2.41 2.41 0 0 0 -3.27-.39c-1.19.74-1.41 1.92-.64 3.54l1.09 1.75c.52.86.9 1.45 1.12 1.76q1.59 2.13 3.46 1a2.56 2.56 0 0 0 1.23-1.64 2.74 2.74 0 0 0 -.45-2l-.28-.45-2.21 1.38-1.22-2 4.54-2.89z"/><path d="m73.55 120.58a4.67 4.67 0 0 1 0 3.89 5.74 5.74 0 0 1 -6.85 2.84 4.68 4.68 0 0 1 -2.77-2.77l-3.54-8.6 2.56-1 3.49 8.51a2.74 2.74 0 0 0 1.32 1.5 2.29 2.29 0 0 0 1.93 0 2.25 2.25 0 0 0 1.41-1.35 2.68 2.68 0 0 0 -.12-2l-3.51-8.6 2.53-1z"/><path d="m89.23 120.9-2.77.81-1.46-2.17-4.87 1.46-.13 2.59-2.77.81 1-15 2.08-.61zm-5.63-3.39-3.1-4.45-.28 5.44z"/><path d="m102 118.2-2.4.5-7.26-7.35 1.76 8.49-2.7.56-2.87-13.85 2.41-.5 7.24 7.35-1.76-8.49 2.71-.56z"/><path d="m115 110.43a6.45 6.45 0 0 1 -.69 4.39 5 5 0 0 1 -3.78 2.21 5.19 5.19 0 0 1 -4-1 4.67 4.67 0 0 1 -1.56-2.25 20.34 20.34 0 0 1 -.6-3.14 21.55 21.55 0 0 1 -.29-3.19 4.47 4.47 0 0 1 .89-2.6 5.25 5.25 0 0 1 3.56-2.06 5.33 5.33 0 0 1 3.71.68 5.39 5.39 0 0 1 2.21 3.06l-2.78.39a2.4 2.4 0 0 0 -2.82-1.69c-1.39.2-2.07 1.19-2 3l.29 2c.12 1 .23 1.69.31 2.06q.58 2.59 2.76 2.28a2.49 2.49 0 0 0 1.79-1 2.72 2.72 0 0 0 .42-2l-.08-.54-2.57.37-.32-2.29 5.29-.74z"/><path d="m127.28 103.38-3.68.32 1 11.64-2.75.25-1-11.64-3.69.33-.21-2.46 10.11-.9z"/><path d="m134 114.72-2.76.15-.76-14.12 2.76-.15z"/><path d="m148.88 114.32-2.88.06-.88-2.49-5 .09-.81 2.52h-2.88l4.89-14.24h2.16zm-4.54-4.74-1.82-5.12-1.69 5.18z"/><path d="m162.09 114.69-2.46-.07-5.34-8.85-.26 8.67-2.76-.08.43-14.14 2.46.08 5.34 8.82.26-8.65 2.76.08z"/><path d="m181.55 104.61-3.68-.37-1.16 11.63-2.75-.28 1.16-11.59-3.67-.37.24-2.45 10.1 1z"/><path d="m192.45 118-9.21-1.4 2.12-14 9.21 1.39-.37 2.44-6.48-1-.5 3.28 5.52.83-.37 2.44-5.52-.84-.51 3.4 6.48 1z"/><path d="m208.17 121.33-2.69-.6 1.8-8-3.81 4.64-1.82-.4-1.49-5.83-1.8 8-2.69-.6 3.08-13.8 2.65.59 1.94 8.27 5.26-6.66 2.66.59z"/><path d="m224.46 116.21a4.07 4.07 0 0 1 -2.24 2.63 4.76 4.76 0 0 1 -3.55.14l-2.59-.84-1.63 5.07-2.63-.84 4.33-13.47 5.22 1.68a4.74 4.74 0 0 1 2.8 2.17 4.11 4.11 0 0 1 .29 3.46zm-2.63-.84a1.83 1.83 0 0 0 -.1-1.53 2.11 2.11 0 0 0 -1.25-1l-2.46-.79-1.19 3.71 2.46.79a2.11 2.11 0 0 0 1.57 0 1.85 1.85 0 0 0 .97-1.18z"/><path d="m232.43 130.22-8.43-3.73 5.75-12.93 2.52 1.13-4.74 10.67 5.86 2.61z"/><path d="m242.4 136.53-7.77-5.14 7.81-11.79 7.77 5.14-1.36 2.05-5.47-3.62-1.83 2.77 4.65 3.06-1.36 2.06-4.65-3.06-1.9 2.87 5.47 3.62z"/><g fill-rule="evenodd"><path d="m144.67 146.84c.88-.25 2.8-1.26 2.15-2.36s-4.12-3.7-5-1.89a1 1 0 0 0 .45 1.08c.66.47-.79.84-1.51 1.06s-3.7 1.37-4.07 1.22 1-.82 1.53-1.47 2.93-3.08 2.95-3.88 0-2.69-1.17-3.2-1.35-.32-1.35-.32-.44.54-.26 1-4.77 7.19-6.2 8.52.49 3.59 1.28 3.52 9-4.18 8.24-3.09a17.57 17.57 0 0 1 -5.35 4.27c-1.84.8-1.69 3.08-1.46 3.79s1.8 2.7 2.2 2.6a2.18 2.18 0 0 0 1.39-.56c.4-.45 2.33.08 2.63.19s3.19.18 3.59-.18.8-2.1-.17-2.19-1.31-.13-1.17-.4a11.74 11.74 0 0 1 1.5-1.94c.32-.2 1.21-1 .27-1.65a4 4 0 0 0 -2.49-.61 16.21 16.21 0 0 1 -2.72.13c-.32-.09 3.86-3.39 4.74-3.64zm-4.41 5.64c-2.12 1.33-1.79 2.08-2.32 2.06s-.43-1.7-.43-1.85-.07-.46-.07-.46a11.69 11.69 0 0 1 2.82.25z"/><path d="m165.89 140a3.94 3.94 0 0 0 -2.21-.17 10.84 10.84 0 0 0 -2.1.64c-.13.18-.42 0-.42-.35s-.09-3-.1-3.13-.19-.77-1.58-.59a1.73 1.73 0 0 0 -.56.4c-.23.26-.54.59-.59.66s-.45.68-.05.68.6-.16.72.79a.51.51 0 0 1 .2.32c0 .16-.16.92 0 1.18s.57.84-1.08 1.37a6.59 6.59 0 0 0 -3 2.09 1.13 1.13 0 0 1 -1 .06c-.64-.22-.83-.07-.83-.07s-.49-.36-.68-.15-.54.41.07 1.6 1 2.76 3.29 3.25a2 2 0 0 1 .34.39 2 2 0 0 0 1.44.43c.26-.13 1.45-1.23 1.8-.92s0 .06 0 .06a3.79 3.79 0 0 1 .12 1c-.07.26-.2.76-.07.85s-.08.89-.1 1a20.94 20.94 0 0 0 .18 3.92c.24.43.22 1.72.53 2s-.42.78-.52.83.2.5.42.17.4-.79.55-.77a2.9 2.9 0 0 0 .71-2c0-1 .09-3.43 0-4.09s.26-1.91.15-2.8 0-1.32.77-1.45a2 2 0 0 0 1-.28c.18-.07.75-.07.94-.69s-.65-1.37-1.35-1.49.19-.67.19-.67a5.17 5.17 0 0 1 1.08-.53 4.48 4.48 0 0 0 1.35-.81 6.2 6.2 0 0 0 1.31-1.09 1.27 1.27 0 0 0 -.92-1.64zm-7 5.51c-.72.43-1.41 1.07-1.77 1s-1.25-1.83-1.25-1.83.73-.12 1.07-.22a2.51 2.51 0 0 1 .86-.11 6.6 6.6 0 0 0 1.57-.26 1.27 1.27 0 0 1 -.51 1.38z"/><path d="m195.84 219.84c-.35-1.87-7.86-5.59-13.37-6.65a36.29 36.29 0 0 1 -13.12-5.28c-4.45-2.64-13.81-10.17-14.26-11.8s9.23-6.61 10.87-6.43a29.13 29.13 0 0 0 7-.38c1.32-.39 1.19-2.15.55-3s-4.33-2.19-9.08-2.25-5.95-1.52-6.71-1.89-1.32-1.34-.55-1.41 3.4-2.27 3.91-2.86 2.13-2.08 2.13-2.08c3.52-1.65 5-4.26 4.6-5.91s-3.3-2.67-6.2-3.05-7.68 1.9-8.72 2.51-7 4.17-8.63 4.58a2.2 2.2 0 0 0 -1.85 2.33c0 .8 1.29 1.47 1.51 1.83s1.24.38 3.68 1.13 1.9 4.77 1.9 4.77a18 18 0 0 1 -.76 5c-.73 2.07-4.86 3.54-11.15 6s-3.54 3.7-2.49 4.44 6.55 3 8.67 4.18 1 2.79.15 3.4-3.07 4.29-4.58 6.59-3.51 3.15-7.47 4.92-1.6 3.3-.49 3.68 6.21-1 11.59-3.68 6.53-10.5 6.54-11.49 2.25-5.71 3-5.71 7.73 10.64 7.73 10.64 11.09 12.36 22.36 13.12 13.59-3.38 13.24-5.25zm-38.91-34.11c.33-.44 1.19-1.89 1.19-1.89l.38-.21c.37-.21.19.33.31.76s.82 0 .82.61-.39.44-1.35.9-1.67.28-1.35-.17z"/></g><path d="m120.26 188.4c-.67-2.43-4.15-3.72-5.32-4a2.52 2.52 0 0 0 -.58-.06 28.48 28.48 0 0 0 -6.06 1.38l-2.42.68-.51.12a6 6 0 0 0 .52-.94 1.39 1.39 0 0 0 0-1.16 14.58 14.58 0 0 1 2.37-1.16c1.09-.47 2.5-1.23 2.25-2.4-.32-1.59-3.64-1.93-4.28-1.93-.38 0-.53-.26-.91-1.28a7.13 7.13 0 0 0 -1.54-2.67 2.09 2.09 0 0 0 -.42-.34 7.29 7.29 0 0 1 2.82-.6 4.08 4.08 0 0 1 1.53.26 3.82 3.82 0 0 0 1.45.27c1.81 0 3.6-1.08 3.84-2.32.07-.39.07-1.38-1.45-2a12.26 12.26 0 0 0 -4.52-1.05 10 10 0 0 0 -6.19 2.49c-.51.4-.87.67-1.14.85a2.8 2.8 0 0 0 -.18-2.43c-.1-.12-.25-.33-.45-.6-1.45-2-4.86-6.79-9.35-6.79a6.67 6.67 0 0 0 -3 .73l-.29.15-.06.32a5.78 5.78 0 0 0 1.52 4.83c1.06 1.06 2.17 2.69 1.43 4.43l-.21.51c-.54 1.35-1.11 2.74-4.2 4.43a29.19 29.19 0 0 1 -9.91 3h-.31a.8.8 0 0 0 -.14-.51.82.82 0 0 0 -.67-.33c-1 0-3.93 2.23-4 3.78 0 .4.17 1.36 1.93 1.4h.31a22.45 22.45 0 0 0 5.75-1 12.19 12.19 0 0 1 2.48-.52.75.75 0 0 1 .26 0c.42.33.69.61.73 1s-.15 1.12-1.29 2.49l-.35.43c-2 2.44-2.42 3-3.48 8.82-2.61 14.36-8 24.54-16.18 30.23l-3.06 2.14 3.61-1c1.14-.31 11.19-3.13 12.94-6.76 1.3-2.66 4.93-15.33 7.34-23.71.75-2.62 1.35-4.7 1.65-5.69l.23-.76c.27-.87.53-1.7.76-2.49.27.9 1.82 1.87 3 2.16a1.83 1.83 0 0 1 .83.38c0 .1-.3.52-1.65 1.18-2.32 1.14-3.81 4-3.64 4.68a.67.67 0 0 0 .66.53.94.94 0 0 0 .75-.51c.37-.55 1.89-1.08 3.35-1.59 1-.34 2.05-.71 3.05-1.17a9.61 9.61 0 0 1 2.31-.92 1.63 1.63 0 0 1 .44.1l.33.1a1 1 0 0 1 -.09.44 2 2 0 0 1 -.85 1l-.74.24a8.33 8.33 0 0 0 -3.22 1.64 3.7 3.7 0 0 1 -2.38.78h-.33-.09-.09a3.29 3.29 0 0 0 -2.45 1.38c-.9 1.41-.33 3.36.09 4.78a8.91 8.91 0 0 1 .28 1.12c.09 1.69 4 6.17 6.17 8.14-.58.35-1.57.93-3 1.68-.59.31-1.19.59-1.78.87-2.13 1-3.81 1.82-3.94 3.18-.11 1.13-.46 4.55 1.93 6.06a8.64 8.64 0 0 0 3.9 1.54 1.77 1.77 0 0 0 1.32-.5 2.12 2.12 0 0 0 .51-1.61 21.23 21.23 0 0 0 -.43-3.2c-.21-1.09-.48-2.59-.22-2.95l.66-.88c1.2-1.59 2-2.62 2.35-3.25a2.75 2.75 0 0 0 1 .19c2.11 0 4-2.42 5.19-3.86.1-.13.19-.25.28-.35a3.93 3.93 0 0 1 1-1 2.57 2.57 0 0 1 0 .49 4.31 4.31 0 0 0 1.38 2.76c1.5 1.63 4 3.29 5.74 3.29a2.83 2.83 0 0 0 .41 0 1.08 1.08 0 0 0 -.73.86c-.06.84 1 1 1.32 1.05 1.32.21 4.44 2.95 5.9 6.17a3.76 3.76 0 0 0 3.65 2.37 6 6 0 0 0 3.59-1.21 1.41 1.41 0 0 0 .39-1.06c0-1.44-1.34-3.78-3.1-5.46-2.35-2.23-10-2.87-10.27-2.89h-.08-.2c2.94-1.57 8.25-16 8.31-16.19.78-2.24-5.58-8.34-5.65-8.39a3.33 3.33 0 0 0 -2.12-.5 18.62 18.62 0 0 0 -6 1.16c-.49.19-1 .38-1.54.52l.33-.19a20 20 0 0 1 9.82-2.13 36.34 36.34 0 0 1 3.84.22 12 12 0 0 1 4.5 1.93 4.58 4.58 0 0 0 2 .91h.1a1.12 1.12 0 0 0 .81-.48c.52-.58.45-1.71-.15-3.85zm-28.36 13.82-.39.23a2.89 2.89 0 0 0 -1.76 2 1.5 1.5 0 0 0 .3 1.27 2.14 2.14 0 0 0 1.66.74 2.3 2.3 0 0 0 1.36-.44 3.29 3.29 0 0 1 -.33 1 1.33 1.33 0 0 1 -1.1.75 1.45 1.45 0 0 1 -1-.51c-2.41-2.41-3.29-4.14-2.61-5.16.65-1.17 1.92-2.92 2.74-3.13a8 8 0 0 0 1.32-.53c.14-.07.32-.16.45-.21a.7.7 0 0 1 0 .16c.31 2.82-.27 3.61-.64 3.83zm.23-14.12s-.26-.19.06 0 8.15-1.79 9.38-2.13c-.11 0 .05.42-.14.53a85.16 85.16 0 0 0 -9.09 2.86 2.87 2.87 0 0 0 -.21-1.26zm11.49 6a.33.33 0 0 1 .29.13c.16.17.63.93.34 3.48a29.3 29.3 0 0 1 -3 9.44 3.31 3.31 0 0 1 -.42.52 4.34 4.34 0 0 1 -.43-.43l-.13-.15c-.14-.15-.23-.28-.32-.39a1.54 1.54 0 0 0 -1.45-.7 12.64 12.64 0 0 0 -1.57.15h-.34a7.38 7.38 0 0 1 1.36-1.77 3.28 3.28 0 0 1 1.33-.94 11.59 11.59 0 0 0 1.37-.71 1.78 1.78 0 0 0 1-2c-.29-1.07-1.6-1.75-3.32-1.75-.32 0-.54-.06-.6-.15-.15-.3.2-1.2.61-1.83l.1-.16v-.19c.06-.39 1.77-1.1 2.6-1.44.68-.29 1.38-.58 2-.9a1.38 1.38 0 0 1 .58-.2zm-19.91-11.56c.41-.91 3.39-3.43 5.41-3.43a1.29 1.29 0 0 1 .74.19 12.92 12.92 0 0 0 6.21 2.06 3.58 3.58 0 0 0 3.88-2.92 4.76 4.76 0 0 1 .89-1.9c-.17.62-.29 1.33-.42 2-.08.43-.15.84-.23 1.19-.34 1.54-2.66 2.36-5.34 3.3l-.84.29a4.79 4.79 0 0 1 -1.57.34c-.83 0-1.16-.44-1.83-1.43-.2-.31-.43-.65-.7-1a1.5 1.5 0 0 0 -1.1-.7c-1.08 0-1.18 1.4-1.33 3.52-.06.83-.12 1.68-.24 2.47-.19 1.19-.75 1.34-1.23 1.34a2.88 2.88 0 0 1 -1-.22h-.07-.08a1.91 1.91 0 0 0 -.39 0 .92.92 0 0 0 -.63.2c.68-2.62.91-4.55-.13-5.3z"/><path d="m198.67 180.69s-6.51 5-6.9 6-2.77 1.31-2.22 3.21 1 5.38 2.73 7.19 3 2.65 4.13 1.41 3.23-9.82 3.65-11.44.95-4.45.62-4.86-1.06-1.84-2.01-1.51z" fill-rule="evenodd"/><path d="m238.21 174.8c-3.55-1-14.32.45-15 .43s-.83-1-.83-1c-3.23-8.68-5.24-9.54-6.86-10.2s-2.41 2.28-2.35 3.76.3 8.83-.36 9.88-3.85 1.77-5 2-2.61 2.51-2.05 2.79.63.49 1.52 1.48 3.61.49 3.61.49c1.34-1.33 7.09-2.62 7.72-2.75s2.28.34 1.46.81-4.55 3.15-5.12 3.61a24.91 24.91 0 0 1 -6.2 4.93c-4.24 2.51-3.13 4.26-3.11 7.55s3 6.09 3.82 6.28.86-.34-1.11 5.4-1.1 10.09-.08 12.35 5.65 3.23 6.58 2.71a15.52 15.52 0 0 0 2.42-1.64c.41-.39 10 0 10.73 0s3.66 1.41 5.28.16 1.09-3.79.43-4.59-.56-2-.21-2 2.47-1.62 4.56-4.75.36-5.58-1.84-7.6-7.69-1.63-10.62-1.63-9.47 2.46-9.47 2.46-1.24-.3 1.93-3.58a7.71 7.71 0 0 1 7.11-2.41c.76 0 2.53-1.86 2.83-3s-.76-.86-1.22-1.95 2.93-1.78 4.5-4.46-1.06-4.91-3.7-5.46-8.8.41-10 .75 1.22-1.8 2.85-2.56a3.74 3.74 0 0 0 2-2.13s-.24.5-1.22.62-.62-.39.82-2.13 7.69-3 8.41-2.84-.52.64-1.08.85-2.86 1.27-2.37 1.43a14.48 14.48 0 0 0 2.52.05c.31 0 4.15-.72 6.9 0s4.23-.42 4.83-1.19.5-1.94-3.03-2.92zm-21.12 36.26s7 .76 7.31 0 1.49-1 1.49-.56-.6 2.58-1.22 2.81-1.69 1.86-2.32 2-3.22.66-4.86 1.13-2.57.62-3.93-2 .79-7.12.79-7.12c.35-.82.4.41.4 2s2.34 1.74 2.34 1.74zm4.67-19.49a6.37 6.37 0 0 1 -3.65 3.55c-1.91.55-4.86 1.51-5 2.57s-.42 1.6-.82 1-1.22-3.64-1.62-4 .92-3.55 2-3.31a5.26 5.26 0 0 0 2.6.24c1.05-.3 6.73-.89 6.49-.05zm10.84-15.57c-.45-.06-.44 0-1 .41s-.2-.8-.2-.8.7 0 1 0 .65.49.2.39z" fill-rule="evenodd"/><path d="m239.07 175.56s-2 6.18-3.35 6.63c0 0 6.08-1.12 5.73-4s-2.38-2.63-2.38-2.63z" fill-rule="evenodd"/><path d="m72.45 246.31a1.93 1.93 0 0 1 -.06.53 14.24 14.24 0 0 1 -1.53 1.35 2.52 2.52 0 0 1 .81-.16 1.27 1.27 0 0 1 .65.59 2.69 2.69 0 0 1 -.08.63 11.46 11.46 0 0 1 -2.24 1.75 4 4 0 0 0 .65-1.4 2.1 2.1 0 0 1 -1-.17c0 .38 0 .89.11 1.55 0 .31 0 .59.06.82a3.89 3.89 0 0 0 1.4-1 1.37 1.37 0 0 1 1.25.86 7.8 7.8 0 0 1 -1.08 2 10.16 10.16 0 0 1 -1.67 2.34 1.74 1.74 0 0 1 -1.16.42 1.14 1.14 0 0 1 -.43-.14 5.76 5.76 0 0 0 1.51-2.08 3.67 3.67 0 0 0 .52-1.27 3 3 0 0 1 -1.94 1.07 3 3 0 0 1 -1.31-1 .64.64 0 0 1 .23-.55c.08.13.3.19.61.19.47-.17.89-.32 1.25-.48a2.8 2.8 0 0 1 -.46-1c0-.22.06-1.13.1-2.71a13.21 13.21 0 0 1 .11-1.87l.21-1.52a9.82 9.82 0 0 1 .47-1.14h.14a2.82 2.82 0 0 1 .32 1.52 10.34 10.34 0 0 0 -.06 1.08 3.53 3.53 0 0 1 2.12-1 1.62 1.62 0 0 1 .5.64m-2.73 2.62.32-.25a3.8 3.8 0 0 0 1.06-1.42 3 3 0 0 1 -1.29-.21c0 .64-.09 1.27-.09 1.88m3.66-6.07a1.27 1.27 0 0 1 .87 1.23c0 .19 0 .65-.08 1.42 0 1-.06 1.9-.06 2.77s0 2.09 0 3.87a6.62 6.62 0 0 1 -.06 1.38c-.28 0-.55-.26-.85-.76a6.52 6.52 0 0 1 -.63-2.18v-2.37c0-1.17 0-2 0-2.61 0-.19 0-.48 0-.89v-.51c0-.18-.17-.31-.49-.36a3.88 3.88 0 0 0 -2 .75 2.48 2.48 0 0 1 .62-1.38 2.27 2.27 0 0 1 1-.74 4.39 4.39 0 0 1 1.63.38m-.33 10.73a4.47 4.47 0 0 1 .61.32 1.81 1.81 0 0 1 .6.57l.25.3a2 2 0 0 1 .3.53 3.13 3.13 0 0 1 .12.71 1.31 1.31 0 0 1 -.23.64 1.16 1.16 0 0 1 -.65.24c-.07 0-.26-.26-.6-.81a4.05 4.05 0 0 1 -.63-.87c-.13-.25-.26-.46-.34-.63a9 9 0 0 0 -.57-1h.19a.83.83 0 0 1 .55-.14zm6.67-8.76a7.18 7.18 0 0 0 -.62-3.51 4.53 4.53 0 0 1 1.82.25 1.38 1.38 0 0 1 .83 1.31 22.68 22.68 0 0 1 -.4 2.27 3.17 3.17 0 0 1 2.41.93c0 .47-.68.7-1.94.72l-.94.47a1 1 0 0 0 0 .23 1.9 1.9 0 0 0 .36.08c.87.22 1.31.47 1.31.79s-.69 1.14-2.09 2.32a1 1 0 0 0 0 .22 32.54 32.54 0 0 0 .34 5.31c0 1.29-.15 2-.43 2.16-1 0-2.37-1.4-4.06-4.24a6.11 6.11 0 0 0 3 1.08c0-1.27 0-2.47 0-3.66-.58.42-1.15.85-1.74 1.27a5.53 5.53 0 0 1 -2.52 1.32c-.53 0-.78-.13-.78-.38a12.34 12.34 0 0 0 3.49-2.71c.64-.57 1.15-1.06 1.52-1.44 0-.51 0-1 .05-1.48v-.08a19.89 19.89 0 0 1 -2.2 1 2.75 2.75 0 0 1 -1.44-.55 1.81 1.81 0 0 1 -.59-1.2 9.09 9.09 0 0 0 2.83-.68l1.63-.81c0-.32.06-.63.11-.95"/><path d="m105.27 246.87a24.9 24.9 0 0 0 -2.71 1.12 3.72 3.72 0 0 1 .4.49 2.46 2.46 0 0 1 .22 1 5.76 5.76 0 0 0 -.47.83c-.12 2.05-.21 3.34-.25 3.87 0 .77.13 1.5.21 2.25-.13.71-.32 1.1-.61 1.18-.38-.08-.68-.55-.91-1.44a28.2 28.2 0 0 1 .31-3.68c.11-1.5.17-2.82.17-3.94a.07.07 0 0 1 0-.06c-1.18.68-2.24 1.23-3.19 1.69a1.17 1.17 0 0 0 -.26 0c-.25 0-.42-.34-.53-1a2.75 2.75 0 0 1 .36-1.42 1.33 1.33 0 0 0 .17.34 9.77 9.77 0 0 0 3.3-1.15 26.12 26.12 0 0 1 3.24-1.37 1.31 1.31 0 0 1 .78.4 2.23 2.23 0 0 1 1.53.77 14.45 14.45 0 0 1 .74 4l1.46-.38c0-.22 0-.38 0-.55a.83.83 0 0 0 -.17.12 5 5 0 0 1 -.83.32c0-.06.19-.25.6-.57a4.23 4.23 0 0 0 .4-.34v-.85a2.81 2.81 0 0 1 -.62.09 1.33 1.33 0 0 1 -.88-1.08.2.2 0 0 1 .18-.09.68.68 0 0 0 .26.05l1.06-.38c0-.51 0-1 .08-1.55a8.71 8.71 0 0 0 -1 .7c-1.15 0-1.72-.23-1.72-.74a6.69 6.69 0 0 1 2.9-1.65c0-.26 0-.49.06-.74a12.12 12.12 0 0 1 .24-2.2 2.77 2.77 0 0 1 -.32-.49c-.28.34-.55.66-.81 1v-1a1.65 1.65 0 0 0 .22-.34 1.19 1.19 0 0 0 .31-.13h.6a2.91 2.91 0 0 0 .51.21.59.59 0 0 0 .31.07c.64.46 1 .8 1 1a9.59 9.59 0 0 0 -.31 2.28v.11h.72a5 5 0 0 1 2.35.49 2 2 0 0 1 1 1.5 24.4 24.4 0 0 1 -1.67 4.44c-.55 1-1 1.53-1.22 1.53a.68.68 0 0 1 -.6-.36c-.34.08-.68.15-1 .23-.13 2.12-.26 4.25-.38 6.37a5.28 5.28 0 0 1 -.55 1.63 4.74 4.74 0 0 1 -.32-1.23c-.09-.55-.15-1.18-.23-1.95 0-1.52-.07-3-.09-4.37l-1.25.42a1.71 1.71 0 0 1 -.7-.19 1.37 1.37 0 0 1 -.55-.38 1.7 1.7 0 0 1 -.36-1 9.19 9.19 0 0 0 -1-4 .48.48 0 0 1 -.11.19m-4.78 3.66a5.71 5.71 0 0 1 .21 1.63 5 5 0 0 1 -.42 1.63 2.94 2.94 0 0 1 -.7 1.29c-.4 0-.66-.15-.74-.44a14.88 14.88 0 0 0 .51-2.71 4.6 4.6 0 0 0 -.24-1.44.89.89 0 0 1 .79-.45c.27 0 .46.18.59.49m0-6.94c1.31-.55 2.39-1 3.28-1.25a2 2 0 0 1 1.27.78 1.12 1.12 0 0 1 -.19.66c-1.33.83-2.62 1.63-3.89 2.39a6.51 6.51 0 0 1 -1.17.45c0-.09.28-.34.85-.79a9.79 9.79 0 0 0 .8-.72 2.43 2.43 0 0 1 -.31 0c-.62-.13-1-.64-1.27-1.51a.25.25 0 0 1 .25-.13 1.47 1.47 0 0 0 .38.07m4.11 5.33a5 5 0 0 1 .29 1.23 3.16 3.16 0 0 0 -.31 1.1 6.14 6.14 0 0 0 -.05.89c.07 0 .18-.4.34-1.21.21-.5.36-.86.47-1.07a21.59 21.59 0 0 0 -.47 2.22c-.08 1.65-.21 2.45-.34 2.45a1.33 1.33 0 0 1 -.91-.59 2 2 0 0 1 -.31-1c.19 0 .31-.78.38-2.2a11.64 11.64 0 0 1 .08-1.65c0-.34.13-.53.26-.53s.31.15.57.4m6.43-2.39.6-.19a1.58 1.58 0 0 1 .88.57.91.91 0 0 1 -.12.47l-1.46 1.08c0 .51-.07 1-.09 1.48l.89-.25h.17a18 18 0 0 1 .72-2 9.14 9.14 0 0 0 .57-2.94c0-.28-.1-.43-.31-.43-.64.13-1.23.28-1.79.45q-.06.83-.06 1.71"/><path d="m131.74 243.61a9 9 0 0 1 1.18-.55l1-.64a2.24 2.24 0 0 1 1-.25 2.54 2.54 0 0 1 2 1.19c0 .17.11.31.15.44a2 2 0 0 0 -.06.46 5.29 5.29 0 0 0 -1 1.78l.45-.29a2.42 2.42 0 0 0 .67-.76 1.57 1.57 0 0 1 -.38 1 2.32 2.32 0 0 1 -.61.7c-.17.13-.34.28-.51.43s-.17.55-.26.8a1.43 1.43 0 0 1 -.65-.11 3.79 3.79 0 0 1 -.36.3c-.45.38-.87.74-1.25 1a1.5 1.5 0 0 1 -.63.38v.31c0 1-.09 2.86-.22 5.57-.08 1.27-.27 1.91-.53 1.91-.53 0-.84-.85-1-2.57a31.94 31.94 0 0 0 .49-4.95 39.93 39.93 0 0 1 .25-4.53 1.49 1.49 0 0 0 -1-1.22c0-.47.19-.7.59-.75a1.27 1.27 0 0 1 .68.3m1.84 3.6c.25-.11.46-.21.66-.32a11.12 11.12 0 0 0 .8-3.09c0-.19-.15-.29-.44-.29a10.33 10.33 0 0 1 -1.8.63 1.88 1.88 0 0 1 -.53-.06 2.2 2.2 0 0 1 .33.65 3.43 3.43 0 0 1 1.74.7c0 .74-.28 1.12-.82 1.16a2.48 2.48 0 0 1 -.89-.23c0 .44-.07.85-.09 1.23v.06a5 5 0 0 0 1-.44m10.94-4.32a16.62 16.62 0 0 0 -.46 3.77v8.42a10.13 10.13 0 0 1 .12 1.76c-.21 1-.46 1.61-.8 1.71-1.74-.21-3.2-1.46-4.36-3.79a4.12 4.12 0 0 0 3.3 1.45c.1-1.66.17-3.29.19-4.89 0-1.45 0-2.88 0-4.34-1 .48-2 .93-2.86 1.35a.72.72 0 0 1 -.12.42c-.3.2-.6.39-.87.55a2 2 0 0 1 .5.77c0 .21-.06.5-.08.84l1.23-.21c.51.05.87.45 1.06 1.21a.81.81 0 0 1 -.19.57c-.24 0-1 0-2.14-.11a1.16 1.16 0 0 0 0 .3c-.08 3.09-.25 4.61-.52 4.61s-.47-.19-.55-.59a8.5 8.5 0 0 1 -.22-1.63c0-.85 0-1.67.07-2.52-.26 0-.55.11-.85.17l-.93.34a.45.45 0 0 0 0 .17c0 .21-.06.63-.14 1.27a6.63 6.63 0 0 1 -.15 1.67c-.09.19-.2.28-.34.28a1.16 1.16 0 0 1 -.53-.47 2.49 2.49 0 0 1 -.26-1.12 2.54 2.54 0 0 0 .32-1.36 3.74 3.74 0 0 1 -.65.19 1 1 0 0 1 -.55-.23 1.47 1.47 0 0 1 -.47-.4c-.09 0-.15-.15-.19-.34a.89.89 0 0 1 -.06-.3.51.51 0 0 0 .25.13l1.77-.49v-.51a.8.8 0 0 1 -.25.09s.09-.13.25-.27a3.52 3.52 0 0 1 -.12-.92 2.74 2.74 0 0 1 .78.43 6.76 6.76 0 0 0 1.14-.89 6.19 6.19 0 0 1 -1.26.23c-.47-.1-.81-.51-1-1.19a.18.18 0 0 1 .19-.1 1 1 0 0 0 .3 0c1.46-.55 2.68-1 3.68-1.29a2 2 0 0 1 .83.44 4 4 0 0 0 .71-.42c-.29.05-.57.09-.84.11-.47-.11-.76-.47-.93-1.1 0-.07.08-.11.19-.11a2.18 2.18 0 0 1 -.15-.87c.13-.1.19-.63.23-1.56a1.46 1.46 0 0 1 -.7-1.42 15.42 15.42 0 0 1 4.68-1.82 2.7 2.7 0 0 1 1.84 2m-8.27 8.7c.55-.15 1.06-.27 1.5-.4v-.13c0-.55-.11-.87-.28-1-.52.33-1 .67-1.54 1a.8.8 0 0 1 .32.57m5.9-5.88a3.12 3.12 0 0 1 .32.1v-.7c0-.55 0-1.33 0-2.37a.7.7 0 0 0 -.3-.65 10.66 10.66 0 0 0 -1.9 1c-.21.17-.36.32-.49.4a.9.9 0 0 1 .09.28v.23l1.58-.57a1.46 1.46 0 0 1 .85.53.81.81 0 0 1 -.12.44c-.73.62-1.4 1.21-2.08 1.76a2.34 2.34 0 0 1 -.36.15v.06l2.39-.63m-2.39.12v.28l.21-.12a8.59 8.59 0 0 0 .64-.85 3.55 3.55 0 0 1 -.81.17v.55"/><path d="m170 256.41c.36.26.57.43.64.47s.06.17.1.43.07.42.07.48-.13.23-.35.45a1.19 1.19 0 0 1 -.46.16 7 7 0 0 1 -.82-.4 3.45 3.45 0 0 0 -.85-.13 21.19 21.19 0 0 0 -3.09.3c-1 .3-1.61.45-1.74.47a3.61 3.61 0 0 1 -.61-.64c-.38-.38-.57-.61-.57-.68a.92.92 0 0 1 .08-.46h.43a.9.9 0 0 0 0 .25 10.42 10.42 0 0 0 1.37-.29 8.2 8.2 0 0 1 1.27-.21c.05-.32.06-.64.11-.94a2 2 0 0 1 -.49.13 1.52 1.52 0 0 1 -1.08-.65 2.25 2.25 0 0 1 -.4-.62c-.55.62-1.33 1.46-2.37 2.56-1.06.93-1.82 1.4-2.31 1.4a2.3 2.3 0 0 1 -.55-.07c-.21 0-.32-.1-.32-.16a7.91 7.91 0 0 0 2.14-1.55 10.34 10.34 0 0 0 2-2.66c.49-.77.85-1.38 1.1-1.8a14.3 14.3 0 0 1 -2.39.86 1.1 1.1 0 0 1 -.61-.27 1.83 1.83 0 0 1 -.53-.45c-.09 0-.17-.17-.21-.38a.88.88 0 0 1 -.07-.32c0 .07.13.11.28.15 1.37-.38 2.62-.74 3.74-1 0-1.71.05-3.42.07-5.12a3.28 3.28 0 0 1 -.7.24 1.54 1.54 0 0 1 -.72-.32 2.38 2.38 0 0 1 -.59-.53c-.13 0-.22-.19-.26-.44a.87.87 0 0 1 -.08-.36 1 1 0 0 0 .34.15c.72-.22 1.39-.41 2-.58v-.93a8.28 8.28 0 0 1 -.51-1.12 2.65 2.65 0 0 1 1.88.8v.87c.89-.23 1.7-.42 2.39-.59a5.54 5.54 0 0 1 0-.72 13.71 13.71 0 0 1 -.62-1.37 3.26 3.26 0 0 1 2.33 1v.78c.23 0 .44-.06.64-.08.55 0 .93.46 1.14 1.33a.85.85 0 0 1 -.19.62l-1.67-.07-.13 1.4c-.17 1.48-.34 2.79-.51 3.91.81-.14 1.5-.25 2.07-.31s.9.44 1.11 1.27a.81.81 0 0 1 -.19.57c-.32 0-1.15 0-2.5-.07a1.15 1.15 0 0 0 .32.3l1.94 1.84a23.27 23.27 0 0 0 2.1 1.34 22.4 22.4 0 0 0 2.2 1.07s.1.11.23.3a.84.84 0 0 1 .23.32 1.67 1.67 0 0 1 -.06.44.36.36 0 0 1 -.13.26c-.21 0-.74 0-1.58-.11a3.8 3.8 0 0 1 -1.17-.17 2.45 2.45 0 0 1 -.91-.25 1.49 1.49 0 0 1 -.63-.47 11.48 11.48 0 0 1 -1-1c-.34-.51-.65-1-1-1.36a6.65 6.65 0 0 1 -.87-1.18c-.51-.72-.8-1.12-.89-1.23a.5.5 0 0 0 -.17-.1c-.63.08-1.5.23-2.6.46h-.09a.93.93 0 0 1 .19.53 1.61 1.61 0 0 1 -.14.53 4.3 4.3 0 0 1 -.34.68 3.75 3.75 0 0 1 -.66.89l.32.1a4.77 4.77 0 0 0 1.14-.17 2.49 2.49 0 0 0 .49-.12 4.07 4.07 0 0 1 0-.47 1.92 1.92 0 0 0 -.51-1.27v-.15a3.2 3.2 0 0 1 .79-.15c.93.3 1.44.72 1.5 1.27v.22a1 1 0 0 1 .27 0 3 3 0 0 1 1.06.5 1.33 1.33 0 0 1 .11.55c0 .26-.19.38-.51.41s-.81.12-1.15.19c-.08.46-.16.88-.25 1.31a2.15 2.15 0 0 0 .58-.07c.71-.08 1.26-.14 1.6-.14a2.78 2.78 0 0 1 .7.16m-4.55-7.15a1.49 1.49 0 0 1 -.4.06.62.62 0 0 1 -.34-.14 10.19 10.19 0 0 0 -.06 1 4.54 4.54 0 0 0 .8-1m-.72 1.25c.87-.23 1.65-.42 2.35-.57 0-.42 0-.87.06-1.29zm.81-3.53a1.32 1.32 0 0 1 -.39.06.55.55 0 0 1 -.29-.13c0 .34-.05.66-.07 1a5.86 5.86 0 0 0 .75-.88m1-1.74a1.74 1.74 0 0 1 .74.4c0-.42 0-.82.06-1.22-.42.08-.93.16-1.48.29-.34.17-.63.3-.89.4v.68l1.59-.55m-.11 2.31a1.51 1.51 0 0 1 .76.38c0-.53.05-1.06.07-1.57-.72.57-1.42 1.1-2.08 1.59.49-.17.91-.3 1.25-.4"/><path d="m189 250.29a1.57 1.57 0 0 0 -.28 0c-.25 0-.44-.34-.55-1a2.78 2.78 0 0 1 .39-1.47 1.13 1.13 0 0 0 .16.34 10 10 0 0 0 3.37-1.14 26.81 26.81 0 0 1 3.28-1.35 1.26 1.26 0 0 1 .82.44 1.83 1.83 0 0 1 -.21.91 19.54 19.54 0 0 0 -2.66 1.08 4.34 4.34 0 0 1 .34.44 2.85 2.85 0 0 1 .23 1.1 5.07 5.07 0 0 0 -.49.81c-.13 2-.23 3.28-.28 3.79 0 .74.13 1.48.24 2.2-.13.76-.34 1.18-.66 1.27-.38-.09-.7-.6-.95-1.53a28.25 28.25 0 0 1 .32-3.66c.13-1.48.19-2.77.19-3.87-1.23.66-2.31 1.2-3.26 1.65m2.12.34a5.14 5.14 0 0 1 .23 1.63 4.74 4.74 0 0 1 -.45 1.63 2.63 2.63 0 0 1 -.74 1.27.7.7 0 0 1 -.76-.47 12.15 12.15 0 0 0 .51-2.69 4.64 4.64 0 0 0 -.23-1.39.91.91 0 0 1 .82-.49c.3 0 .49.17.62.51m0-7c1.31-.51 2.41-.89 3.3-1.18a2.33 2.33 0 0 1 1.33.82 1.2 1.2 0 0 1 -.19.7 3.15 3.15 0 0 1 -.46.28c-1.19.71-2.36 1.37-3.47 2a6.66 6.66 0 0 1 -1.23.46c0-.08.29-.36.88-.82a5.59 5.59 0 0 0 .75-.66 1.2 1.2 0 0 1 -.24 0 1.89 1.89 0 0 1 -1.33-1.58c0-.09.13-.13.27-.13a2.46 2.46 0 0 0 .39.06m4.19 5.42a5.52 5.52 0 0 1 .29 1.31 2.74 2.74 0 0 0 -.29 1 5.79 5.79 0 0 0 0 .78 4.42 4.42 0 0 0 .31-1.13c.22-.46.36-.78.47-1a22.17 22.17 0 0 0 -.47 2.2c-.08 1.65-.19 2.46-.31 2.46a1.31 1.31 0 0 1 -1-.62 2 2 0 0 1 -.36-1.1c.22-.06.34-.78.4-2.15a11.19 11.19 0 0 1 .09-1.64c0-.33.13-.5.25-.5s.36.14.62.42m3.07-2a3.24 3.24 0 0 1 1.77-.63 1.56 1.56 0 0 1 .68.78 3.59 3.59 0 0 1 -.06.72 15.54 15.54 0 0 1 -2.35 2.26 3.52 3.52 0 0 1 1.71-.5 1.57 1.57 0 0 1 .83.8 5.55 5.55 0 0 1 -.08.83 19.45 19.45 0 0 1 -2.76 2.34c.05.32.09.62.15.89.3 0 .59-.08.89-.1.68-.06 1.27-.13 1.8-.21l.25-3.31c.11-1.67.19-2.92.26-3.74 0-.26.06-.68.08-1.25a3.39 3.39 0 0 1 .06-.72c0-.15-.21-.25-.59-.3a7.24 7.24 0 0 0 -2.5.6 2.53 2.53 0 0 1 .81-1.48 2.73 2.73 0 0 1 1.37-.81 4.8 4.8 0 0 1 1.7.42 1.52 1.52 0 0 1 .91 1.44 18.21 18.21 0 0 1 -.26 1.84c-.1 1.27-.19 2.46-.23 3.6-.06.79-.1 1.91-.1 3.39a8.22 8.22 0 0 1 1.54-.19 2.84 2.84 0 0 1 .8.21l.72.53c.05 0 .09.19.13.49s.07.48.07.57-.13.25-.39.48a1.17 1.17 0 0 1 -.53.19 6.38 6.38 0 0 1 -.93-.44 4.18 4.18 0 0 0 -1-.15h-.42c0 1.1-.11 1.7-.24 1.74-.29 0-.57-.26-.87-.79-.12-.29-.23-.59-.31-.84-.91.08-2 .23-3.18.42-1.69.53-2.62.81-2.81.83a2.57 2.57 0 0 1 -.57-.55 2.93 2.93 0 0 1 -.49-.62.76.76 0 0 1 .08-.42h.36a.42.42 0 0 0 0 .21 16.57 16.57 0 0 0 2-.59l.53-.19a1.73 1.73 0 0 1 -.19-.45c-.24.17-.45.3-.66.43l.61-.55a3.93 3.93 0 0 1 -.23-.79 45.76 45.76 0 0 1 .59-6.41c.21-.85.57-1.29 1.06-1.29 0 .47-.06.89-.08 1.31m.4 4.79a1.81 1.81 0 0 1 -.7-.11c0 .38 0 .76-.06 1.12a1 1 0 0 0 0 .25 5.41 5.41 0 0 0 .72-1.26m.25-3.39a1.86 1.86 0 0 1 -.74-.11c0 .59-.08 1.15-.1 1.7a5.85 5.85 0 0 0 .84-1.59"/><path d="m226 240.58a5 5 0 0 1 1.37.51 6.16 6.16 0 0 1 .64.68 1 1 0 0 1 .23.53 1.93 1.93 0 0 1 -.29.61.93.93 0 0 1 .19 0 3.39 3.39 0 0 1 2.68.91c0 .51-.84.76-2.41.76-.67.3-1.31.57-1.86.78l.13.13a1.58 1.58 0 0 1 .55.93.88.88 0 0 1 -.07.32l.21.15a2.8 2.8 0 0 1 1.47.74 1.34 1.34 0 0 1 -.15.57 10.79 10.79 0 0 0 -2.08.27c0 .2-.08.37-.12.53a3.13 3.13 0 0 1 .44 0 2.26 2.26 0 0 1 1.73 1.08 2 2 0 0 0 .15.38 4 4 0 0 0 -.08.43 3.26 3.26 0 0 0 -.87 1.42l.15.16a.71.71 0 0 1 -.11.39c-.67.37-1.35.75-2 1.1a.09.09 0 0 0 0 .06l1.55-.32a1.29 1.29 0 0 1 .8.19.86.86 0 0 1 .21.59.77.77 0 0 1 -.82.47 12 12 0 0 0 -1.84.25v.19a6.86 6.86 0 0 0 -.11 1.21c-.06.42-.12.81-.17 1.18 0 .77-.06 1.17-.15 1.21s-.16-.17-.31-.51a3.15 3.15 0 0 0 -.4-.63 2.82 2.82 0 0 1 -.24-1.21 3.55 3.55 0 0 0 .24-.82l.06-.32c-.72.21-1.46.49-2.22.78a2.21 2.21 0 0 1 -1.17-.23c-.17 0-.25-.21-.29-.47a.74.74 0 0 1 .18-.53 27 27 0 0 0 3.05-.69h.15l.28-.2a1.8 1.8 0 0 0 -.07-.31 2.72 2.72 0 0 1 -.55.06c-.36-.08-.59-.36-.72-.85q0-.06.15-.06a2.61 2.61 0 0 1 -.4-.87s-.08-.13-.08-.29 0-.28 0-.42v-.34a12.35 12.35 0 0 1 .51-1.21h.15a3 3 0 0 1 .32 1.35c.23-.08.61-.25 1.16-.48a9.15 9.15 0 0 1 1.15-.13c.08 0 .17.06.25.19a1 1 0 0 1 .11.34c0 .08-.19.23-.53.44a7.54 7.54 0 0 1 -.83.51c-.42.28-.8.51-1.1.68a.21.21 0 0 0 0 .11c.87-.26 1.63-.47 2.27-.64a7 7 0 0 0 .46-2c0-.13-.13-.21-.38-.21a13 13 0 0 1 -1.69.48 2.18 2.18 0 0 1 -.82-.12c-.11 0-.15-.11-.15-.28a10.39 10.39 0 0 1 1.1-.42l.29-.15c0-.21 0-.42 0-.63-.48.16-1 .38-1.48.59a.92.92 0 0 1 -.89-.7c-.33.93-.76 2-1.27 3.11-.71 1.93-1.46 3.87-2.22 5.82-.44.89-.95 1.36-1.5 1.36a1.07 1.07 0 0 1 -.55-.94 4.35 4.35 0 0 1 .51-1.07 2.24 2.24 0 0 0 0 .5 4.3 4.3 0 0 0 1.44-2.41 13.79 13.79 0 0 0 1.27-3.87c.34-1 .67-2 1.06-3a8.74 8.74 0 0 1 .61-1.33 3 3 0 0 1 -1.29-.57 1.87 1.87 0 0 1 -.64-1.23 13.51 13.51 0 0 0 3.64-.72c1.36-.55 2.35-.93 3-1.18h-.28-.69-1.78a2.38 2.38 0 0 0 .44-.41 2.55 2.55 0 0 0 .68-.34 1 1 0 0 0 .19-.59c-.21-.27-.38-.51-.55-.7a1.42 1.42 0 0 1 -.27-.67 9.17 9.17 0 0 1 1.12.14m-1.1 6.94.61-.16c0-.26 0-.51.07-.77a1.49 1.49 0 0 0 -.24-.76c-.65.28-1.18.49-1.6.66-.13.46-.28.95-.47 1.48a10.37 10.37 0 0 0 1.63-.45m-.74 4.89v.05l.06-.07a5.67 5.67 0 0 1 .49-.52 1.47 1.47 0 0 1 -.68-.32c0 .29.08.59.13.86m6.16-3.15a.65.65 0 0 0 -.05.15 1.69 1.69 0 0 1 1-.38 4.81 4.81 0 0 1 .53 1.82c-.13.23-.28.48-.49.78a.41.41 0 0 0 .34.17c.08 0 .15.07.21.15a2.57 2.57 0 0 1 .23.38c0-.93 0-2.1-.08-3.49 0-.74 0-1.19 0-1.34a2.32 2.32 0 0 0 -1.7.66c-.29 0-.42-.28-.42-.87a2.26 2.26 0 0 1 2-1.2c1.14 0 1.75.44 1.82 1.33a11.64 11.64 0 0 0 -.45 3.43 31.41 31.41 0 0 0 .41 5.23c0 1.73-.43 2.64-1.27 2.77-.68-.06-1.36-.93-2-2.63a1.53 1.53 0 0 0 1.08.47c.4 0 .63-1.15.67-3.43a5.89 5.89 0 0 1 -1.37 1.52 3.25 3.25 0 0 1 -.6.17l-.42-.1c-.42 1.94-1.2 2.92-2.33 2.92 1.08-1.4 1.63-4.11 1.63-8.11a2.66 2.66 0 0 0 -.29-1.23c1 0 1.52.28 1.61.83m.78 3.81a6.37 6.37 0 0 1 -.68-.11 3.11 3.11 0 0 1 -.44-.84v.74c-.07.63-.13 1.23-.21 1.73a10.27 10.27 0 0 0 1.35-1.52m-.7-1.57a2 2 0 0 1 .3-.44 1.5 1.5 0 0 1 -.15-.55 4.18 4.18 0 0 1 -.49 0 12.72 12.72 0 0 0 -.08 1.27 1 1 0 0 0 .42-.3"/></g></svg>