<svg xmlns="http://www.w3.org/2000/svg" width="132.66" height="170.76" viewBox="0 0 132.66 170.76">
  <defs>
    <style>
      .cls-1 {
        fill: #fff;
        opacity: 0.2;
      }

      .cls-2, .cls-3 {
        fill: none;
        stroke: #ca954a;
        stroke-width: 0.9px;
      }

      .cls-2 {
        stroke-miterlimit: 10;
      }

      .cls-3 {
        stroke-linejoin: round;
      }

      .cls-4 {
        fill: #e8b356;
      }
    </style>
  </defs>
  <g id="圖層_2" data-name="圖層 2">
    <g id="圖層_2-2" data-name="圖層 2">
      <g>
        <g>
          <circle class="cls-1" cx="66.33" cy="104.43" r="65.88"/>
          <circle class="cls-2" cx="66.33" cy="104.43" r="65.88"/>
          <path class="cls-3" d="M26.52,92.24l33,33a9.69,9.69,0,0,1,13.68,0l33-33"/>
        </g>
        <g>
          <path class="cls-4" d="M20.85,15.27H16.93L31.21.52h6.54V17.26H31.21V5.86l2,.81L22.84,17.26H15L4.64,6.69l2-.81V17.26H.09V.52H6.62Z"/>
          <path class="cls-4" d="M55.92,17.78a34.11,34.11,0,0,1-9.18-1,9.79,9.79,0,0,1-5.06-3A7.65,7.65,0,0,1,40.1,8.89,7.6,7.6,0,0,1,41.68,4a9.72,9.72,0,0,1,5.06-3,34.06,34.06,0,0,1,9.18-1A34.06,34.06,0,0,1,65.1,1a9.68,9.68,0,0,1,5.06,3,7.54,7.54,0,0,1,1.58,4.9,7.59,7.59,0,0,1-1.58,4.91,9.75,9.75,0,0,1-5.06,3A34.11,34.11,0,0,1,55.92,17.78Zm0-5a28.62,28.62,0,0,0,4.66-.32,6.56,6.56,0,0,0,3-1.18,2.89,2.89,0,0,0,1.07-2.42,2.91,2.91,0,0,0-1.07-2.42,6.56,6.56,0,0,0-3-1.17A28.52,28.52,0,0,0,55.92,5a29.74,29.74,0,0,0-4.72.33A7.14,7.14,0,0,0,48,6.47,2.85,2.85,0,0,0,46.9,8.89,2.84,2.84,0,0,0,48,11.31a7.14,7.14,0,0,0,3.16,1.18A29.84,29.84,0,0,0,55.92,12.81Z"/>
          <path class="cls-4" d="M74.1,17.26V.52H94.31a15.61,15.61,0,0,1,4.28.54,6.14,6.14,0,0,1,3,1.79,5,5,0,0,1,1.11,3.43,5,5,0,0,1-.52,2.38,3.81,3.81,0,0,1-1.44,1.46,7,7,0,0,1-2.09.76,16.23,16.23,0,0,1-2.46.29l-1.91-.37a41.77,41.77,0,0,1,4.8.26,4.43,4.43,0,0,1,2.35.85,2.27,2.27,0,0,1,.67,1.77v3.58H95.57v-2.8a2,2,0,0,0-.3-1.19A2,2,0,0,0,94,12.71a22.67,22.67,0,0,0-3.1-.16H80.64v4.71Zm6.54-9.07H94.31a2.87,2.87,0,0,0,1.32-.27,1,1,0,0,0,.54-1A.94.94,0,0,0,95.63,6a3.17,3.17,0,0,0-1.32-.25H80.64Z"/>
          <path class="cls-4" d="M111.81,10.2v2.09h19.88v5H105.27V.52h26.36v5H111.81V7.58H128V10.2Z"/>
        </g>
      </g>
    </g>
  </g>
</svg>
