<svg xmlns="http://www.w3.org/2000/svg" width="1140.73" height="231.16" viewBox="0 0 1140.73 231.16">
  <defs>
    <style>
      .cls-1 {
        opacity: 0.2;
      }

      .cls-2, .cls-3 {
        fill: #fff;
      }

      .cls-3 {
        stroke: #e8b356;
        stroke-width: 3.39px;
      }

      .cls-3, .cls-4 {
        stroke-miterlimit: 10;
      }

      .cls-4 {
        fill: none;
        stroke: #f4cfb0;
        stroke-width: 0.81px;
      }

      .cls-5 {
        fill: #ca954a;
      }
    </style>
  </defs>
  <g id="圖層_2" data-name="圖層 2">
    <g id="圖層_2-2" data-name="圖層 2">
      <g class="cls-1">
        <g>
          <path class="cls-2" d="M0,194.88,53.41,115.2H88l53.91,79.68H107.7L61.51,123.54H80.06L34.24,194.88Zm27.89-12.07V164.13h85.16v18.68Z"/>
          <path class="cls-2" d="M292,161.64a29.19,29.19,0,0,1-8.59,19.8q-8,8-23.47,11.95t-39.16,4a243.51,243.51,0,0,1-32.37-1.93A85.27,85.27,0,0,1,164,188.85a36.12,36.12,0,0,1-15.43-12.77q-5.35-8.09-5.36-20.42t5.36-20.6A37.25,37.25,0,0,1,164,121.86q10.09-4.92,24.41-7a223,223,0,0,1,32.37-2.12q23.66,0,39.22,4.3t23.53,12.63a30.73,30.73,0,0,1,8.59,20.3H259.72a16,16,0,0,0-5.48-7q-4-3-12-4.79t-21.54-1.74q-15.94,0-25.9,1.93t-14.57,6.16a14.49,14.49,0,0,0-4.6,11.2,13,13,0,0,0,4.6,10.34q4.6,4,14.57,5.85t25.9,1.87q13.58,0,21.48-1.62t11.89-4.42a15.81,15.81,0,0,0,5.48-6Z"/>
          <path class="cls-2" d="M300.81,115.2H430.29v23.66H300.81Zm49.18,22h31.12v57.64H350Z"/>
          <path class="cls-2" d="M444.61,115.2h31.13v79.68H444.61Z"/>
          <path class="cls-2" d="M537.12,194.88,488.81,115.2h35.11l41.21,76.57H552.44l41.21-76.57h34.61l-47.81,79.68Z"/>
          <path class="cls-2" d="M641.33,115.2h31.13v79.68H641.33Z"/>
          <path class="cls-2" d="M686.78,115.2H816.26v23.66H686.78Zm49.18,22h31.12v57.64H736Z"/>
          <path class="cls-2" d="M830.58,115.2h31.13v79.68H830.58Z"/>
          <path class="cls-2" d="M912.13,161.27v10h94.63v23.65H881V115.2h125.51v23.66H912.13v10h77.2v12.45Z"/>
          <path class="cls-2" d="M1018.58,165.63h34c.57,1.74,2.28,3.21,5.1,4.42a44.52,44.52,0,0,0,11.39,2.73,128.56,128.56,0,0,0,16.62.94q9.35,0,14.76-.56t7.65-2a4.44,4.44,0,0,0,2.25-3.93c0-1.57-1.21-2.8-3.61-3.67s-6.69-1.47-12.83-1.8-14.77-.5-25.9-.5a167.49,167.49,0,0,1-21.47-1.19,54.66,54.66,0,0,1-14.82-3.73,19.84,19.84,0,0,1-8.53-6.47,16,16,0,0,1-2.74-9.41,20.76,20.76,0,0,1,6.41-15.62q6.42-6.16,19.43-9.21t32.56-3q28.64,0,43.76,8.28t15.13,23.84h-32.25q-.63-4.11-7.72-6.29t-20.17-2.18q-12.94,0-19.24,1.5t-6.28,5.1a3.41,3.41,0,0,0,1.74,3,16.71,16.71,0,0,0,6,1.8,102.6,102.6,0,0,0,12.14.94q7.85.26,19.92.25a167.25,167.25,0,0,1,22.66,1.3,56.46,56.46,0,0,1,15.13,3.93,18.8,18.8,0,0,1,8.4,6.66,17.18,17.18,0,0,1,2.62,9.52q0,9.47-6,15.44t-18.93,8.84q-12.94,2.87-33.86,2.86a159.7,159.7,0,0,1-21.73-1.36,93.67,93.67,0,0,1-17.62-4,49.77,49.77,0,0,1-13.07-6.6,28.54,28.54,0,0,1-8.15-8.84A21.6,21.6,0,0,1,1018.58,165.63Z"/>
        </g>
      </g>
      <g class="cls-1">
        <g>
          <path class="cls-2" d="M259.6,0V23.66H165.22V34.24h77.2V55.41h-77.2V79.68H134.09V0Z"/>
          <path class="cls-2" d="M386.47,34.24V0H417.6V39.84q0,10.59-3.93,18A33.79,33.79,0,0,1,402.78,70a55,55,0,0,1-16.06,7.4,111,111,0,0,1-19.49,3.68,209.79,209.79,0,0,1-21.1,1q-11.34,0-21.91-1a109.26,109.26,0,0,1-19.61-3.68A51.62,51.62,0,0,1,288.86,70a33.65,33.65,0,0,1-10.53-12.21q-3.79-7.39-3.79-18V0h31.12V34.24q0,10,4.86,15.19t13.88,7.16a105.25,105.25,0,0,0,21.73,1.93,103.92,103.92,0,0,0,21.41-1.93q9.09-1.94,14-7.16T386.47,34.24Z"/>
          <path class="cls-2" d="M430,0H559.53V23.66H430Zm49.18,22h31.13V79.68H479.22Z"/>
          <path class="cls-2" d="M683.91,34.24V0H715V39.84q0,10.59-3.92,18A33.91,33.91,0,0,1,700.22,70a55,55,0,0,1-16.06,7.4,110.85,110.85,0,0,1-19.48,3.68,210.14,210.14,0,0,1-21.11,1q-11.33,0-21.91-1a109.43,109.43,0,0,1-19.61-3.68A51.62,51.62,0,0,1,586.3,70a33.63,33.63,0,0,1-10.52-12.21q-3.79-7.39-3.8-18V0h31.13V34.24q0,10,4.85,15.19t13.89,7.16a105.15,105.15,0,0,0,21.72,1.93A104,104,0,0,0,665,56.59q9.09-1.94,14-7.16T683.91,34.24Z"/>
          <path class="cls-2" d="M732.47,79.68V0h96.24a75,75,0,0,1,20.36,2.55,29.2,29.2,0,0,1,14.32,8.53q5.29,6,5.29,16.31a23.12,23.12,0,0,1-2.49,11.33,17.8,17.8,0,0,1-6.85,7,32.51,32.51,0,0,1-10,3.61,74.18,74.18,0,0,1-11.7,1.37l-9.09-1.74a186.48,186.48,0,0,1,22.84,1.25q8,1.11,11.21,4c2.12,2,3.18,4.76,3.18,8.41V79.68H834.69V66.36a9.43,9.43,0,0,0-1.43-5.66c-1-1.29-3-2.18-6.23-2.68a104.77,104.77,0,0,0-14.75-.75H763.6V79.68Zm31.13-43.2h65.11A14.28,14.28,0,0,0,835,35.24q2.55-1.25,2.55-4.74A4.43,4.43,0,0,0,835,26.08a15.06,15.06,0,0,0-6.29-1.18H763.6Z"/>
          <path class="cls-2" d="M917,46.07V56h94.62V79.68H885.86V0h125.5V23.66H917v10h77.19V46.07Z"/>
        </g>
      </g>
      <circle class="cls-3" cx="621.43" cy="181.56" r="44.32"/>
      <path class="cls-4" d="M632.56,140a5.77,5.77,0,0,1-3.36-2.59c-1.51-2.6-3.75-5-7.77-5-2.81,0-6.07,1-7.78,3.2a.52.52,0,0,0,0,.66,1.55,1.55,0,0,1,.29,1.39c-.22.84-1.13,1.3-1.94,1.72a8.44,8.44,0,0,1-1.71.67,5.73,5.73,0,0,1-4.21-.56c-2.61-1.49-5.75-2.46-9.25-.48-2.45,1.38-4.76,3.9-5.14,6.65a.55.55,0,0,0,.33.58,1.54,1.54,0,0,1,1,1.05,3.31,3.31,0,0,1-.83,2.46,7.78,7.78,0,0,1-1.14,1.43,5.68,5.68,0,0,1-3.91,1.62c-3,0-6.22.75-8.26,4.22-1.43,2.42-2.17,5.75-1.14,8.33a.59.59,0,0,0,.59.34,1.53,1.53,0,0,1,1.35.42,3.43,3.43,0,0,1,.51,2.56,8,8,0,0,1-.28,1.8,5.74,5.74,0,0,1-2.58,3.37c-2.6,1.51-5,3.75-5,7.78,0,2.81,1,6.07,3.2,7.78a.55.55,0,0,0,.66,0,1.52,1.52,0,0,1,1.39-.3c.83.22,1.29,1.13,1.72,1.94a7.86,7.86,0,0,1,.66,1.71,5.6,5.6,0,0,1-.56,4.2c-1.48,2.62-2.45,5.76-.47,9.26,1.38,2.45,3.89,4.76,6.65,5.14a.55.55,0,0,0,.58-.33,1.54,1.54,0,0,1,1.05-.95,3.36,3.36,0,0,1,2.46.82A8.29,8.29,0,0,1,591,212a5.69,5.69,0,0,1,1.62,3.92c0,3,.74,6.21,4.22,8.26,2.42,1.42,5.75,2.16,8.33,1.13a.57.57,0,0,0,.33-.58,1.54,1.54,0,0,1,.43-1.35,3.37,3.37,0,0,1,2.55-.52,7.49,7.49,0,0,1,1.81.28,5.7,5.7,0,0,1,3.37,2.58c1.51,2.6,3.75,5,7.78,5,2.81,0,6.06-1,7.77-3.19a.55.55,0,0,0,0-.67,1.59,1.59,0,0,1-.3-1.39c.23-.84,1.14-1.29,2-1.71a7.59,7.59,0,0,1,1.71-.67,5.64,5.64,0,0,1,4.2.55c2.62,1.5,5.76,2.47,9.26.48,2.45-1.38,4.75-3.9,5.14-6.65a.55.55,0,0,0-.33-.58,1.55,1.55,0,0,1-1-1,3.33,3.33,0,0,1,.82-2.47,7.84,7.84,0,0,1,1.15-1.43,5.69,5.69,0,0,1,3.92-1.62c3,0,6.21-.74,8.26-4.21,1.42-2.43,2.16-5.76,1.13-8.34a.55.55,0,0,0-.58-.32,1.58,1.58,0,0,1-1.35-.44,3.31,3.31,0,0,1-.52-2.55,7.57,7.57,0,0,1,.28-1.81,5.7,5.7,0,0,1,2.58-3.37c2.6-1.51,5-3.74,5-7.77,0-2.81-1-6.07-3.19-7.78a.54.54,0,0,0-.67,0,1.58,1.58,0,0,1-1.39.3c-.84-.23-1.29-1.14-1.71-2a7.41,7.41,0,0,1-.67-1.71,5.7,5.7,0,0,1,.55-4.2c1.5-2.62,2.47-5.76.48-9.26-1.38-2.45-3.9-4.76-6.65-5.14a.55.55,0,0,0-.58.33,1.52,1.52,0,0,1-1,.95,3.35,3.35,0,0,1-2.46-.82,7.84,7.84,0,0,1-1.43-1.15,5.67,5.67,0,0,1-1.62-3.92c0-3-.75-6.21-4.21-8.25-2.43-1.43-5.76-2.17-8.34-1.14a.57.57,0,0,0-.33.59,1.54,1.54,0,0,1-.44,1.35,3.33,3.33,0,0,1-2.54.51,8.26,8.26,0,0,1-1.82-.27Z"/>
      <path class="cls-5" d="M603.29,182.55c-2.7-1.91-8.35-5-12.23-7.1l4.21-5.78c3.61,1.77,9.46,4.6,12.35,6.37ZM592,206.21a192.21,192.21,0,0,0,12.49-20.71l5.72,5.26c-3.49,6.9-7.63,14.39-11.64,20.77Zm14.13-41.6c-2.56-2-8.15-5.06-12-7.23l4.4-5.66c3.69,1.84,9.4,4.74,12.23,6.58Zm29.12,12.81v8.28h13.4v26.22h-7.42v-2.36H621.43v2.69h-7V185.7H627.8v-8.28H610.32v-7.49H627.8v-7.69c-4.34.66-8.68,1.12-12.82,1.51a27.58,27.58,0,0,0-2.16-6.7c11.17-1.12,23.46-3.29,30.69-6.18l6,6.18a84.58,84.58,0,0,1-14.32,3.88v9h16.69v7.49Zm6,15.38H621.43v9.66h19.78Z"/>
      <g>
        <circle class="cls-3" cx="719.82" cy="181.56" r="44.32"/>
        <path class="cls-5" d="M749.13,165.66s-.06,2.56-.06,3.48c-.6,26.88-1.12,36.41-3.22,39.43a7.36,7.36,0,0,1-5.2,3.29,44.11,44.11,0,0,1-8.15.26,18.18,18.18,0,0,0-2.3-7.49c2.9.26,5.39.33,6.64.33a2.39,2.39,0,0,0,2.24-1.12c1.38-1.77,2-9.79,2.43-31h-5.92c-.85,17.61-3.87,31.15-14.92,39.89a25.69,25.69,0,0,0-4.6-5.19c-9.46,1-18.92,2-26,2.56l-.92-6.57c3.68-.26,8.28-.59,13.34-.92v-3.94H690.9v-5.52h11.57v-2.56h-11.3V170.26h11.3V167.7h-13V162h13v-2.63c-3.81.27-7.56.46-11.11.53a23.79,23.79,0,0,0-1.71-5.52c9.73-.53,21.1-1.64,28.33-3.22l3.42,5.85c-3.49.72-7.56,1.31-11.83,1.77V162h12.62v3.62h6.17c.07-4.34.07-8.87.07-13.74h7.49c0,4.8,0,9.4-.13,13.74Zm-51.79,12.42h5.13v-2.89h-5.13Zm5.13,7.62v-3h-5.13v3Zm7.1,16.3c3.74-.26,7.62-.59,11.43-.92,5.13-7.1,6.71-16.49,7.17-28.26h-6V167.7H709.57v2.56H721.2v20.31H709.57v2.56h11.89v5.52H709.57Zm5.12-23.92v-2.89h-5.12v2.89Zm-5.12,4.66v3h5.12v-3Z"/>
      </g>
      <path class="cls-4" d="M731,140a5.71,5.71,0,0,1-3.36-2.59c-1.52-2.6-3.75-5-7.78-5-2.81,0-6.07,1-7.77,3.2a.52.52,0,0,0,0,.66,1.58,1.58,0,0,1,.29,1.39c-.22.84-1.14,1.3-2,1.72a8.22,8.22,0,0,1-1.71.67,5.71,5.71,0,0,1-4.2-.56c-2.61-1.49-5.76-2.46-9.25-.48-2.45,1.38-4.76,3.9-5.15,6.65a.56.56,0,0,0,.34.58,1.56,1.56,0,0,1,1,1.05,3.36,3.36,0,0,1-.83,2.46,7.44,7.44,0,0,1-1.15,1.43,5.66,5.66,0,0,1-3.91,1.62c-3,0-6.22.75-8.26,4.22-1.43,2.42-2.17,5.75-1.13,8.33a.58.58,0,0,0,.58.34,1.53,1.53,0,0,1,1.35.42,3.39,3.39,0,0,1,.51,2.56,8,8,0,0,1-.27,1.8,5.74,5.74,0,0,1-2.58,3.37c-2.61,1.51-5,3.75-5,7.78,0,2.81,1,6.07,3.19,7.78a.55.55,0,0,0,.66,0,1.53,1.53,0,0,1,1.39-.3c.84.22,1.3,1.13,1.72,1.94a7.89,7.89,0,0,1,.67,1.71,5.69,5.69,0,0,1-.56,4.2c-1.49,2.62-2.46,5.76-.48,9.26,1.38,2.45,3.9,4.76,6.66,5.14a.54.54,0,0,0,.57-.33,1.53,1.53,0,0,1,1.06-.95,3.34,3.34,0,0,1,2.45.82,8.29,8.29,0,0,1,1.43,1.15,5.65,5.65,0,0,1,1.63,3.92c0,3,.74,6.21,4.21,8.26,2.42,1.42,5.76,2.16,8.33,1.13a.58.58,0,0,0,.34-.58,1.49,1.49,0,0,1,.43-1.35,3.36,3.36,0,0,1,2.55-.52,7.57,7.57,0,0,1,1.81.28,5.68,5.68,0,0,1,3.36,2.58c1.51,2.6,3.76,5,7.78,5,2.81,0,6.07-1,7.78-3.19a.57.57,0,0,0,0-.67,1.53,1.53,0,0,1-.3-1.39c.22-.84,1.13-1.29,1.94-1.71a7.78,7.78,0,0,1,1.71-.67,5.66,5.66,0,0,1,4.21.55c2.61,1.5,5.75,2.47,9.26.48,2.44-1.38,4.75-3.9,5.14-6.65a.58.58,0,0,0-.34-.58,1.57,1.57,0,0,1-1-1,3.38,3.38,0,0,1,.83-2.47,7.84,7.84,0,0,1,1.15-1.43,5.66,5.66,0,0,1,3.91-1.62c3,0,6.22-.74,8.26-4.21,1.42-2.43,2.16-5.76,1.13-8.34a.55.55,0,0,0-.58-.32,1.58,1.58,0,0,1-1.35-.44,3.35,3.35,0,0,1-.51-2.55,8.09,8.09,0,0,1,.27-1.81,5.74,5.74,0,0,1,2.58-3.37c2.61-1.51,5-3.74,5-7.77,0-2.81-1-6.07-3.19-7.78a.52.52,0,0,0-.66,0,1.59,1.59,0,0,1-1.39.3c-.84-.23-1.3-1.14-1.72-2a8.44,8.44,0,0,1-.67-1.71,5.65,5.65,0,0,1,.56-4.2c1.49-2.62,2.46-5.76.48-9.26-1.39-2.45-3.9-4.76-6.66-5.14a.54.54,0,0,0-.57.33,1.54,1.54,0,0,1-1.05.95,3.38,3.38,0,0,1-2.47-.82,7.78,7.78,0,0,1-1.42-1.15,5.58,5.58,0,0,1-1.62-3.92c0-3-.75-6.21-4.22-8.25-2.42-1.43-5.76-2.17-8.34-1.14a.56.56,0,0,0-.32.59,1.54,1.54,0,0,1-.44,1.35,3.35,3.35,0,0,1-2.55.51A8.09,8.09,0,0,1,731,140Z"/>
      <circle class="cls-3" cx="424.64" cy="181.56" r="44.32"/>
      <path class="cls-4" d="M435.77,140a5.77,5.77,0,0,1-3.36-2.59c-1.51-2.6-3.75-5-7.77-5-2.81,0-6.07,1-7.78,3.2a.52.52,0,0,0,0,.66,1.55,1.55,0,0,1,.29,1.39c-.22.84-1.13,1.3-1.94,1.72a8.44,8.44,0,0,1-1.71.67,5.73,5.73,0,0,1-4.21-.56C406.68,138,403.54,137,400,139c-2.45,1.38-4.76,3.9-5.14,6.65a.55.55,0,0,0,.33.58,1.54,1.54,0,0,1,.95,1.05,3.31,3.31,0,0,1-.83,2.46,7.78,7.78,0,0,1-1.14,1.43,5.68,5.68,0,0,1-3.91,1.62c-3,0-6.22.75-8.26,4.22-1.43,2.42-2.17,5.75-1.14,8.33a.59.59,0,0,0,.59.34,1.53,1.53,0,0,1,1.35.42,3.43,3.43,0,0,1,.51,2.56,8,8,0,0,1-.28,1.8,5.74,5.74,0,0,1-2.58,3.37c-2.6,1.51-5,3.75-5.05,7.78,0,2.81,1,6.07,3.2,7.78a.55.55,0,0,0,.66,0,1.52,1.52,0,0,1,1.39-.3c.83.22,1.29,1.13,1.72,1.94a7.86,7.86,0,0,1,.66,1.71,5.6,5.6,0,0,1-.56,4.2c-1.48,2.62-2.45,5.76-.47,9.26,1.38,2.45,3.89,4.76,6.65,5.14a.55.55,0,0,0,.58-.33,1.54,1.54,0,0,1,1.05-.95,3.36,3.36,0,0,1,2.46.82,8.29,8.29,0,0,1,1.43,1.15,5.69,5.69,0,0,1,1.62,3.92c0,3,.74,6.21,4.22,8.26,2.42,1.42,5.75,2.16,8.33,1.13a.57.57,0,0,0,.33-.58,1.54,1.54,0,0,1,.43-1.35,3.37,3.37,0,0,1,2.55-.52,7.49,7.49,0,0,1,1.81.28,5.7,5.7,0,0,1,3.37,2.58c1.51,2.6,3.75,5,7.78,5,2.81,0,6.06-1,7.77-3.19a.55.55,0,0,0,0-.67,1.59,1.59,0,0,1-.3-1.39c.23-.84,1.14-1.29,1.95-1.71a7.59,7.59,0,0,1,1.71-.67,5.64,5.64,0,0,1,4.2.55c2.62,1.5,5.76,2.47,9.26.48,2.45-1.38,4.75-3.9,5.14-6.65a.55.55,0,0,0-.33-.58,1.55,1.55,0,0,1-.95-1,3.33,3.33,0,0,1,.82-2.47,7.84,7.84,0,0,1,1.15-1.43,5.69,5.69,0,0,1,3.92-1.62c3,0,6.21-.74,8.26-4.21,1.42-2.43,2.16-5.76,1.13-8.34a.55.55,0,0,0-.58-.32,1.58,1.58,0,0,1-1.35-.44,3.31,3.31,0,0,1-.52-2.55,7.57,7.57,0,0,1,.28-1.81,5.7,5.7,0,0,1,2.58-3.37c2.6-1.51,5-3.74,5-7.77,0-2.81-1-6.07-3.19-7.78a.54.54,0,0,0-.67,0,1.58,1.58,0,0,1-1.39.3c-.84-.23-1.29-1.14-1.71-2a7.41,7.41,0,0,1-.67-1.71,5.7,5.7,0,0,1,.55-4.2c1.5-2.62,2.47-5.76.48-9.26-1.38-2.45-3.9-4.76-6.65-5.14a.55.55,0,0,0-.58.33,1.52,1.52,0,0,1-1.05.95,3.35,3.35,0,0,1-2.46-.82,7.84,7.84,0,0,1-1.43-1.15,5.67,5.67,0,0,1-1.62-3.92c0-3-.75-6.21-4.21-8.25-2.43-1.43-5.76-2.17-8.34-1.14a.57.57,0,0,0-.33.59,1.54,1.54,0,0,1-.44,1.35,3.33,3.33,0,0,1-2.54.51,8.26,8.26,0,0,1-1.82-.27Z"/>
      <path class="cls-5" d="M432.39,184.65a64.09,64.09,0,0,0,23.4,18.07,37.88,37.88,0,0,0-5.66,6.77,69.3,69.3,0,0,1-21.35-18.07v20.9h-8.35V191.81a72.19,72.19,0,0,1-21.36,17.62,40,40,0,0,0-5.78-6.77,63.71,63.71,0,0,0,23.52-18H395.52V176.9h24.91v-8.42h-20v-7.75h20v-9.79h8.35v9.79h20.57v7.75H428.78v8.42h25.3v7.75Z"/>
      <g>
        <circle class="cls-3" cx="523.03" cy="181.56" r="44.32"/>
        <path class="cls-5" d="M546.89,189.58a89.65,89.65,0,0,0-8.48-7.62,27.89,27.89,0,0,1-4.4,5.65,36.28,36.28,0,0,0-5.13-3.35A57.52,57.52,0,0,0,554,202.59a36.49,36.49,0,0,0-5.78,7.17,63.17,63.17,0,0,1-21.29-16.63v19.12h-8.22V193.52a63.44,63.44,0,0,1-21.09,16.24,48.45,48.45,0,0,0-5.52-6.71c10.64-4.14,20.9-12.29,26.61-21.16V166.71H494.77V159h23.92v-8.08h8.22V159h24.77v7.69H526.91v14.72c.33.53.66,1,1,1.51,4.21-3.74,7-9.59,8.28-15.84l7.63,1.38a58.9,58.9,0,0,1-2.17,7c3.75,2.89,8.28,6.37,10.71,8.61Zm-33.85-21a64.9,64.9,0,0,1-2.36,7.1c2.36,2,4.86,4.2,6.37,5.78l-5.26,5.46a51.48,51.48,0,0,0-4.4-4.6,35.54,35.54,0,0,1-7.56,9,48.06,48.06,0,0,0-6-5.13c5.78-4.14,9.79-11,11.63-19.06Z"/>
      </g>
      <path class="cls-4" d="M534.17,140a5.71,5.71,0,0,1-3.36-2.59c-1.52-2.6-3.75-5-7.78-5-2.81,0-6.07,1-7.77,3.2a.52.52,0,0,0,0,.66,1.58,1.58,0,0,1,.29,1.39c-.22.84-1.14,1.3-1.95,1.72a8.22,8.22,0,0,1-1.71.67,5.71,5.71,0,0,1-4.2-.56c-2.61-1.49-5.76-2.46-9.25-.48-2.45,1.38-4.76,3.9-5.15,6.65a.56.56,0,0,0,.34.58,1.56,1.56,0,0,1,.95,1.05,3.36,3.36,0,0,1-.83,2.46,7.44,7.44,0,0,1-1.15,1.43,5.66,5.66,0,0,1-3.91,1.62c-3,0-6.22.75-8.26,4.22-1.43,2.42-2.17,5.75-1.13,8.33a.58.58,0,0,0,.58.34,1.53,1.53,0,0,1,1.35.42,3.39,3.39,0,0,1,.51,2.56,8,8,0,0,1-.27,1.8,5.74,5.74,0,0,1-2.58,3.37c-2.61,1.51-5,3.75-5.05,7.78,0,2.81,1,6.07,3.19,7.78a.55.55,0,0,0,.66,0,1.53,1.53,0,0,1,1.39-.3c.84.22,1.3,1.13,1.72,1.94a7.89,7.89,0,0,1,.67,1.71,5.69,5.69,0,0,1-.56,4.2c-1.49,2.62-2.46,5.76-.48,9.26,1.38,2.45,3.9,4.76,6.66,5.14a.54.54,0,0,0,.57-.33,1.53,1.53,0,0,1,1.06-.95,3.34,3.34,0,0,1,2.45.82A8.29,8.29,0,0,1,492.6,212a5.65,5.65,0,0,1,1.63,3.92c0,3,.74,6.21,4.21,8.26,2.42,1.42,5.76,2.16,8.33,1.13a.58.58,0,0,0,.34-.58,1.49,1.49,0,0,1,.43-1.35,3.36,3.36,0,0,1,2.55-.52,7.57,7.57,0,0,1,1.81.28,5.65,5.65,0,0,1,3.36,2.58c1.51,2.6,3.76,5,7.78,5,2.81,0,6.07-1,7.78-3.19a.57.57,0,0,0,0-.67,1.53,1.53,0,0,1-.3-1.39c.22-.84,1.13-1.29,1.94-1.71a7.78,7.78,0,0,1,1.71-.67,5.66,5.66,0,0,1,4.21.55c2.61,1.5,5.75,2.47,9.26.48,2.44-1.38,4.75-3.9,5.14-6.65a.58.58,0,0,0-.34-.58,1.57,1.57,0,0,1-1-1,3.38,3.38,0,0,1,.83-2.47,7.84,7.84,0,0,1,1.15-1.43,5.66,5.66,0,0,1,3.91-1.62c3,0,6.22-.74,8.26-4.21,1.42-2.43,2.16-5.76,1.13-8.34a.55.55,0,0,0-.58-.32,1.58,1.58,0,0,1-1.35-.44,3.35,3.35,0,0,1-.51-2.55,8.09,8.09,0,0,1,.27-1.81,5.74,5.74,0,0,1,2.58-3.37c2.61-1.51,5-3.74,5.05-7.77,0-2.81-1-6.07-3.19-7.78a.52.52,0,0,0-.66,0,1.59,1.59,0,0,1-1.39.3c-.84-.23-1.3-1.14-1.72-2a8.44,8.44,0,0,1-.67-1.71,5.65,5.65,0,0,1,.56-4.2c1.49-2.62,2.46-5.76.48-9.26-1.39-2.45-3.9-4.76-6.66-5.14a.54.54,0,0,0-.57.33,1.54,1.54,0,0,1-1,.95,3.38,3.38,0,0,1-2.47-.82,7.78,7.78,0,0,1-1.42-1.15,5.58,5.58,0,0,1-1.62-3.92c0-3-.75-6.21-4.22-8.25-2.42-1.43-5.76-2.17-8.34-1.14a.56.56,0,0,0-.32.59,1.54,1.54,0,0,1-.44,1.35,3.35,3.35,0,0,1-2.55.51,8.09,8.09,0,0,1-1.81-.27Z"/>
    </g>
  </g>
</svg>
