<?xml version="1.0" encoding="UTF-8"?>
<svg id="b" data-name="圖層 2" xmlns="http://www.w3.org/2000/svg" width="340.06" height="115.01" viewBox="0 0 340.06 115.01">
  <defs>
    <style>
      .d, .e {
        fill: #fff;
      }

      .f {
        fill: none;
        stroke: #f4cfb0;
        stroke-width: .52px;
      }

      .f, .e {
        stroke-miterlimit: 10;
      }

      .g {
        fill: #ca954a;
      }

      .h {
        opacity: .2;
      }

      .e {
        stroke: #e8b356;
        stroke-width: 2.2px;
      }
    </style>
  </defs>
  <g id="c" data-name="圖層 2">
    <g class="h">
      <g>
        <path class="d" d="M0,58.1l15.92-23.75h10.32l16.07,23.75h-10.21l-13.77-21.27h5.53l-13.66,21.27H0Zm8.31-3.6v-5.57h25.39v5.57H8.31Z"/>
        <path class="d" d="M87.04,48.19c-.12,2.35-.98,4.32-2.56,5.9-1.58,1.58-3.92,2.77-7,3.56-3.08,.79-6.97,1.19-11.67,1.19-3.59,0-6.8-.19-9.65-.58-2.85-.38-5.27-1.04-7.27-1.97-2-.93-3.54-2.2-4.6-3.8-1.06-1.61-1.6-3.64-1.6-6.09s.53-4.5,1.6-6.14c1.06-1.65,2.6-2.96,4.6-3.93,2-.98,4.43-1.68,7.27-2.1,2.85-.42,6.06-.63,9.65-.63,4.7,0,8.6,.43,11.69,1.28,3.09,.85,5.43,2.11,7.01,3.77,1.58,1.66,2.44,3.67,2.56,6.05h-9.65c-.3-.79-.84-1.49-1.63-2.1-.79-.61-1.98-1.08-3.56-1.43-1.58-.35-3.72-.52-6.42-.52-3.17,0-5.74,.19-7.72,.58-1.98,.38-3.43,1-4.34,1.84-.92,.84-1.37,1.96-1.37,3.34,0,1.26,.46,2.29,1.37,3.08,.92,.79,2.36,1.37,4.34,1.74,1.98,.37,4.55,.56,7.72,.56,2.7,0,4.83-.16,6.4-.48,1.57-.32,2.75-.76,3.54-1.32s1.34-1.16,1.63-1.8h9.65Z"/>
        <path class="d" d="M89.67,34.34h38.6v7.05h-38.6v-7.05Zm14.66,6.57h9.28v17.18h-9.28v-17.18Z"/>
        <path class="d" d="M132.54,34.34h9.28v23.75h-9.28v-23.75Z"/>
        <path class="d" d="M160.12,58.1l-14.4-23.75h10.47l12.29,22.83h-3.79l12.29-22.83h10.32l-14.25,23.75h-12.92Z"/>
        <path class="d" d="M191.19,34.34h9.28v23.75h-9.28v-23.75Z"/>
        <path class="d" d="M204.73,34.34h38.6v7.05h-38.6v-7.05Zm14.66,6.57h9.28v17.18h-9.28v-17.18Z"/>
        <path class="d" d="M247.6,34.34h9.28v23.75h-9.28v-23.75Z"/>
        <path class="d" d="M271.91,48.08v2.97h28.21v7.05h-37.49v-23.75h37.41v7.05h-28.13v2.97h23.01v3.71h-23.01Z"/>
        <path class="d" d="M303.65,49.37h10.13c.17,.52,.68,.96,1.52,1.32,.84,.36,1.97,.63,3.4,.82,1.42,.19,3.07,.28,4.96,.28s3.32-.06,4.4-.17,1.84-.31,2.28-.59c.45-.28,.67-.67,.67-1.17,0-.47-.36-.84-1.08-1.09-.72-.26-1.99-.44-3.82-.54-1.83-.1-4.4-.15-7.72-.15-2.47,0-4.61-.12-6.4-.35-1.79-.23-3.27-.61-4.42-1.11-1.15-.51-2-1.15-2.54-1.93s-.82-1.71-.82-2.8c0-1.88,.64-3.43,1.91-4.66s3.21-2.14,5.79-2.75c2.58-.61,5.82-.91,9.71-.91,5.69,0,10.04,.82,13.05,2.47,3.01,1.65,4.51,4.02,4.51,7.11h-9.61c-.12-.82-.89-1.44-2.3-1.87-1.41-.43-3.42-.65-6.01-.65s-4.48,.15-5.73,.45c-1.25,.3-1.87,.8-1.87,1.52,0,.37,.17,.67,.52,.89s.95,.4,1.8,.54c.85,.14,2.06,.23,3.62,.28,1.56,.05,3.54,.07,5.94,.07,2.65,0,4.9,.13,6.76,.39,1.86,.26,3.36,.65,4.51,1.17,1.15,.52,1.99,1.18,2.5,1.99,.52,.8,.78,1.75,.78,2.84,0,1.88-.59,3.41-1.78,4.6s-3.07,2.07-5.64,2.64c-2.57,.57-5.94,.85-10.1,.85-2.35,0-4.51-.14-6.48-.41-1.97-.27-3.72-.67-5.25-1.21-1.53-.53-2.83-1.19-3.9-1.97-1.06-.78-1.88-1.66-2.43-2.64-.56-.98-.83-2.06-.83-3.25Z"/>
      </g>
    </g>
    <g class="h">
      <g>
        <path class="d" d="M77.39,0V7.05h-28.13v3.15h23.01v6.31h-23.01v7.24h-9.28V0h37.41Z"/>
        <path class="d" d="M115.21,10.21V0h9.28V11.88c0,2.1-.39,3.89-1.17,5.36-.78,1.47-1.86,2.69-3.25,3.64-1.39,.95-2.98,1.69-4.79,2.21-1.81,.52-3.74,.88-5.81,1.09-2.07,.21-4.16,.32-6.29,.32-2.25,0-4.43-.11-6.53-.32-2.1-.21-4.05-.58-5.85-1.09-1.79-.52-3.36-1.26-4.7-2.21-1.34-.95-2.38-2.16-3.14-3.64-.75-1.47-1.13-3.26-1.13-5.36V0h9.28V10.21c0,1.98,.48,3.49,1.45,4.53,.97,1.04,2.34,1.75,4.14,2.13,1.79,.38,3.95,.58,6.48,.58s4.58-.19,6.38-.58c1.81-.38,3.2-1.09,4.18-2.13,.98-1.04,1.47-2.55,1.47-4.53Z"/>
        <path class="d" d="M128.2,0h38.6V7.05h-38.6V0Zm14.66,6.57h9.28V23.75h-9.28V6.57Z"/>
        <path class="d" d="M203.88,10.21V0h9.28V11.88c0,2.1-.39,3.89-1.17,5.36-.78,1.47-1.86,2.69-3.25,3.64-1.39,.95-2.98,1.69-4.79,2.21-1.81,.52-3.74,.88-5.81,1.09-2.07,.21-4.16,.32-6.29,.32-2.25,0-4.43-.11-6.53-.32-2.1-.21-4.05-.58-5.85-1.09-1.79-.52-3.36-1.26-4.7-2.21-1.34-.95-2.38-2.16-3.14-3.64-.75-1.47-1.13-3.26-1.13-5.36V0h9.28V10.21c0,1.98,.48,3.49,1.45,4.53,.97,1.04,2.34,1.75,4.14,2.13,1.79,.38,3.95,.58,6.48,.58s4.58-.19,6.38-.58c1.81-.38,3.2-1.09,4.18-2.13,.98-1.04,1.47-2.55,1.47-4.53Z"/>
        <path class="d" d="M218.35,23.75V0h28.69c2.25,0,4.27,.25,6.07,.76,1.79,.51,3.22,1.35,4.27,2.54s1.58,2.81,1.58,4.86c0,1.36-.25,2.49-.74,3.38-.5,.89-1.18,1.58-2.04,2.08-.87,.5-1.86,.85-2.97,1.08-1.11,.22-2.28,.36-3.49,.41l-2.71-.52c2.94,.02,5.21,.15,6.81,.37,1.6,.22,2.71,.63,3.34,1.21,.63,.58,.95,1.42,.95,2.51v5.08h-9.28v-3.97c0-.74-.14-1.3-.43-1.69-.28-.38-.9-.65-1.86-.8-.95-.15-2.42-.22-4.4-.22h-14.51v6.68h-9.28Zm9.28-12.88h19.41c.74,0,1.37-.12,1.87-.37,.51-.25,.76-.72,.76-1.41,0-.64-.25-1.08-.76-1.32-.51-.23-1.13-.35-1.87-.35h-19.41v3.45Z"/>
        <path class="d" d="M273.36,13.73v2.97h28.21v7.05h-37.49V0h37.41V7.05h-28.13v2.97h23.01v3.71h-23.01Z"/>
      </g>
    </g>
    <circle class="e" cx="202.01" cy="82.93" r="28.67"/>
    <path class="f" d="M209.21,56.04c-.89-.23-1.71-.89-2.17-1.67-.98-1.68-2.43-3.24-5.03-3.26-1.82-.01-3.93,.65-5.03,2.07-.08,.1-.11,.28,0,.43,.22,.31,.27,.59,.19,.9-.14,.54-.73,.84-1.26,1.11-.35,.18-.72,.33-1.11,.43-.88,.25-1.92,.09-2.72-.36-1.69-.96-3.72-1.59-5.99-.31-1.58,.89-3.08,2.52-3.33,4.3-.02,.13,.04,.3,.22,.37,.35,.16,.53,.38,.62,.68,.14,.54-.22,1.09-.54,1.59-.21,.33-.45,.64-.74,.92-.64,.66-1.62,1.04-2.53,1.05-1.95,0-4.02,.48-5.34,2.73-.93,1.56-1.4,3.72-.73,5.39,.05,.12,.19,.23,.38,.22,.38-.04,.65,.05,.87,.28,.39,.4,.36,1.06,.33,1.65-.01,.39-.07,.78-.18,1.17-.23,.89-.89,1.71-1.67,2.18-1.68,.98-3.24,2.43-3.27,5.03-.01,1.82,.65,3.93,2.07,5.03,.1,.08,.28,.11,.43,0,.31-.23,.59-.28,.9-.19,.54,.14,.84,.73,1.11,1.26,.18,.35,.33,.72,.43,1.11,.25,.88,.09,1.92-.36,2.72-.96,1.69-1.59,3.72-.31,5.99,.89,1.58,2.52,3.07,4.3,3.32,.13,.02,.3-.04,.37-.22,.16-.35,.38-.53,.68-.61,.54-.14,1.09,.22,1.59,.53,.33,.21,.65,.46,.92,.74,.66,.64,1.04,1.62,1.05,2.53,0,1.95,.48,4.02,2.73,5.34,1.56,.92,3.72,1.4,5.39,.73,.12-.05,.23-.19,.22-.37-.04-.38,.05-.65,.28-.87,.4-.4,1.06-.36,1.65-.34,.39,.01,.78,.07,1.17,.18,.89,.22,1.71,.89,2.18,1.67,.98,1.68,2.43,3.24,5.03,3.26,1.82,.01,3.92-.65,5.03-2.06,.08-.1,.11-.28,0-.43-.23-.31-.28-.59-.19-.9,.15-.54,.73-.84,1.26-1.11,.35-.19,.72-.33,1.11-.43,.89-.26,1.93-.09,2.72,.36,1.69,.97,3.72,1.6,5.99,.31,1.58-.89,3.07-2.52,3.32-4.3,.02-.13-.04-.29-.22-.37-.35-.16-.53-.38-.62-.68-.14-.54,.22-1.09,.53-1.59,.21-.33,.46-.64,.74-.92,.64-.66,1.62-1.04,2.53-1.05,1.95-.01,4.02-.48,5.34-2.73,.92-1.57,1.4-3.73,.73-5.39-.05-.12-.19-.23-.37-.21-.38,.04-.65-.06-.87-.28-.4-.39-.36-1.05-.34-1.65,.01-.39,.07-.79,.18-1.17,.22-.89,.89-1.71,1.67-2.18,1.68-.98,3.24-2.43,3.26-5.03,.02-1.82-.65-3.92-2.06-5.03-.1-.08-.28-.11-.43,0-.31,.22-.59,.27-.9,.19-.54-.14-.84-.73-1.11-1.26-.18-.35-.33-.72-.43-1.11-.25-.88-.09-1.92,.36-2.72,.97-1.69,1.59-3.72,.31-5.99-.9-1.58-2.52-3.08-4.3-3.33-.13-.02-.29,.04-.37,.22-.16,.35-.37,.53-.68,.61-.54,.14-1.09-.22-1.59-.53-.33-.21-.65-.45-.92-.74-.66-.64-1.04-1.62-1.05-2.53-.01-1.95-.48-4.02-2.73-5.34-1.57-.92-3.73-1.4-5.39-.73-.12,.05-.23,.19-.21,.38,.04,.38-.06,.65-.28,.87-.39,.39-1.05,.36-1.65,.33-.39-.01-.78-.07-1.17-.18h0Z"/>
    <path class="g" d="M190.27,83.56c-1.74-1.23-5.4-3.23-7.91-4.59l2.72-3.74c2.34,1.15,6.12,2.98,7.99,4.12l-2.81,4.21Zm-7.31,15.3c2.25-3.19,5.53-8.46,8.08-13.39l3.7,3.4c-2.25,4.46-4.93,9.31-7.52,13.43l-4.25-3.44Zm9.14-26.91c-1.66-1.28-5.27-3.27-7.74-4.68l2.85-3.66c2.38,1.19,6.08,3.06,7.91,4.25l-3.02,4.08Zm18.83,8.29v5.36h8.67v16.96h-4.8v-1.53h-12.8v1.74h-4.55v-17.17h8.67v-5.36h-11.31v-4.85h11.31v-4.97c-2.81,.43-5.61,.72-8.29,.98-.17-1.23-.85-3.19-1.4-4.34,7.23-.72,15.18-2.13,19.85-4l3.91,4c-2.76,1.06-5.91,1.87-9.27,2.51v5.82h10.8v4.85h-10.8Zm3.87,9.95h-12.8v6.25h12.8v-6.25Z"/>
    <circle class="e" cx="265.65" cy="82.93" r="28.67"/>
    <path class="g" d="M284.61,72.64s-.04,1.66-.04,2.25c-.38,17.39-.72,23.55-2.08,25.51-.98,1.4-1.96,1.83-3.36,2.13-1.28,.26-3.23,.21-5.27,.17-.08-1.4-.64-3.44-1.49-4.85,1.87,.17,3.49,.21,4.29,.21,.64,0,1.06-.17,1.45-.72,.89-1.15,1.32-6.33,1.57-20.07h-3.83c-.55,11.39-2.51,20.15-9.65,25.8-.64-1.02-1.87-2.42-2.98-3.36-6.12,.64-12.24,1.28-16.83,1.66l-.6-4.25c2.38-.17,5.36-.38,8.63-.6v-2.55h-7.48v-3.57h7.48v-1.66h-7.31v-13.14h7.31v-1.66h-8.38v-3.66h8.38v-1.7c-2.47,.17-4.89,.3-7.18,.34-.17-1.02-.64-2.59-1.1-3.57,6.29-.34,13.65-1.06,18.32-2.08l2.21,3.78c-2.25,.47-4.89,.85-7.65,1.15v2.08h8.16v2.34h4c.04-2.81,.04-5.74,.04-8.88h4.85c0,3.1,0,6.08-.09,8.88h8.63Zm-33.5,8.03h3.32v-1.87h-3.32v1.87Zm3.32,4.93v-1.91h-3.32v1.91h3.32Zm4.59,10.54c2.42-.17,4.93-.38,7.4-.6,3.32-4.59,4.34-10.67,4.63-18.28h-3.87v-3.32h-8.16v1.66h7.52v13.14h-7.52v1.66h7.69v3.57h-7.69v2.17Zm3.32-15.47v-1.87h-3.32v1.87h3.32Zm-3.32,3.02v1.91h3.32v-1.91h-3.32Z"/>
    <path class="f" d="M272.86,56.04c-.89-.23-1.71-.89-2.17-1.67-.98-1.68-2.43-3.24-5.03-3.26-1.82-.01-3.93,.65-5.03,2.07-.08,.1-.11,.28,0,.43,.22,.31,.27,.59,.19,.9-.14,.54-.73,.84-1.26,1.11-.35,.18-.72,.33-1.11,.43-.88,.25-1.92,.09-2.72-.36-1.69-.96-3.72-1.59-5.99-.31-1.58,.89-3.08,2.52-3.33,4.3-.02,.13,.04,.3,.22,.37,.35,.16,.53,.38,.62,.68,.14,.54-.22,1.09-.54,1.59-.21,.33-.45,.64-.74,.92-.64,.66-1.62,1.04-2.53,1.05-1.95,0-4.02,.48-5.34,2.73-.93,1.56-1.4,3.72-.73,5.39,.05,.12,.19,.23,.38,.22,.38-.04,.65,.05,.87,.28,.39,.4,.36,1.06,.33,1.65-.01,.39-.07,.78-.18,1.17-.23,.89-.89,1.71-1.67,2.18-1.68,.98-3.24,2.43-3.27,5.03-.01,1.82,.65,3.93,2.07,5.03,.1,.08,.28,.11,.43,0,.31-.23,.59-.28,.9-.19,.54,.14,.84,.73,1.11,1.26,.18,.35,.33,.72,.43,1.11,.25,.88,.09,1.92-.36,2.72-.96,1.69-1.59,3.72-.31,5.99,.89,1.58,2.52,3.07,4.3,3.32,.13,.02,.3-.04,.37-.22,.16-.35,.38-.53,.68-.61,.54-.14,1.09,.22,1.59,.53,.33,.21,.65,.46,.92,.74,.66,.64,1.04,1.62,1.05,2.53,0,1.95,.48,4.02,2.73,5.34,1.56,.92,3.72,1.4,5.39,.73,.12-.05,.23-.19,.22-.37-.04-.38,.05-.65,.28-.87,.4-.4,1.06-.36,1.65-.34,.39,.01,.78,.07,1.17,.18,.89,.22,1.71,.89,2.18,1.67,.98,1.68,2.43,3.24,5.03,3.26,1.82,.01,3.92-.65,5.03-2.06,.08-.1,.11-.28,0-.43-.23-.31-.28-.59-.19-.9,.15-.54,.73-.84,1.26-1.11,.35-.19,.72-.33,1.11-.43,.89-.26,1.93-.09,2.72,.36,1.69,.97,3.72,1.6,5.99,.31,1.58-.89,3.07-2.52,3.32-4.3,.02-.13-.04-.29-.22-.37-.35-.16-.53-.38-.62-.68-.14-.54,.22-1.09,.53-1.59,.21-.33,.46-.64,.74-.92,.64-.66,1.62-1.04,2.53-1.05,1.95-.01,4.02-.48,5.34-2.73,.92-1.57,1.4-3.73,.73-5.39-.05-.12-.19-.23-.37-.21-.38,.04-.65-.06-.87-.28-.4-.39-.36-1.05-.34-1.65,.01-.39,.07-.79,.18-1.17,.22-.89,.89-1.71,1.67-2.18,1.68-.98,3.24-2.43,3.26-5.03,.02-1.82-.65-3.92-2.06-5.03-.1-.08-.28-.11-.43,0-.31,.22-.59,.27-.9,.19-.54-.14-.84-.73-1.11-1.26-.18-.35-.33-.72-.43-1.11-.25-.88-.09-1.92,.36-2.72,.97-1.69,1.59-3.72,.31-5.99-.9-1.58-2.52-3.08-4.3-3.33-.13-.02-.29,.04-.37,.22-.16,.35-.37,.53-.68,.61-.54,.14-1.09-.22-1.59-.53-.33-.21-.65-.45-.92-.74-.66-.64-1.04-1.62-1.05-2.53-.01-1.95-.48-4.02-2.73-5.34-1.57-.92-3.73-1.4-5.39-.73-.12,.05-.23,.19-.21,.38,.04,.38-.06,.65-.28,.87-.39,.39-1.05,.36-1.65,.33-.39-.01-.78-.07-1.17-.18h0Z"/>
    <circle class="e" cx="74.72" cy="82.93" r="28.67"/>
    <path class="f" d="M81.92,56.04c-.89-.23-1.71-.89-2.17-1.67-.98-1.68-2.43-3.24-5.03-3.26-1.82-.01-3.93,.65-5.03,2.07-.08,.1-.11,.28,0,.43,.22,.31,.27,.59,.19,.9-.14,.54-.73,.84-1.26,1.11-.35,.18-.72,.33-1.11,.43-.88,.25-1.92,.09-2.72-.36-1.69-.96-3.72-1.59-5.99-.31-1.58,.89-3.08,2.52-3.33,4.3-.02,.13,.04,.3,.22,.37,.35,.16,.53,.38,.62,.68,.14,.54-.22,1.09-.54,1.59-.21,.33-.45,.64-.74,.92-.64,.66-1.62,1.04-2.53,1.05-1.95,0-4.02,.48-5.34,2.73-.93,1.56-1.4,3.72-.73,5.39,.05,.12,.19,.23,.38,.22,.38-.04,.65,.05,.87,.28,.39,.4,.36,1.06,.33,1.65-.01,.39-.07,.78-.18,1.17-.23,.89-.89,1.71-1.67,2.18-1.68,.98-3.24,2.43-3.27,5.03-.01,1.82,.65,3.93,2.07,5.03,.1,.08,.28,.11,.43,0,.31-.23,.59-.28,.9-.19,.54,.14,.84,.73,1.11,1.26,.18,.35,.33,.72,.43,1.11,.25,.88,.09,1.92-.36,2.72-.96,1.69-1.59,3.72-.31,5.99,.89,1.58,2.52,3.07,4.3,3.32,.13,.02,.3-.04,.37-.22,.16-.35,.38-.53,.68-.61,.54-.14,1.09,.22,1.59,.53,.33,.21,.65,.46,.92,.74,.66,.64,1.04,1.62,1.05,2.53,0,1.95,.48,4.02,2.73,5.34,1.56,.92,3.72,1.4,5.39,.73,.12-.05,.23-.19,.22-.37-.04-.38,.05-.65,.28-.87,.4-.4,1.06-.36,1.65-.34,.39,.01,.78,.07,1.17,.18,.89,.22,1.71,.89,2.18,1.67,.98,1.68,2.43,3.24,5.03,3.26,1.82,.01,3.92-.65,5.03-2.06,.08-.1,.11-.28,0-.43-.23-.31-.28-.59-.19-.9,.15-.54,.73-.84,1.26-1.11,.35-.19,.72-.33,1.11-.43,.89-.26,1.93-.09,2.72,.36,1.69,.97,3.72,1.6,5.99,.31,1.58-.89,3.07-2.52,3.32-4.3,.02-.13-.04-.29-.22-.37-.35-.16-.53-.38-.62-.68-.14-.54,.22-1.09,.53-1.59,.21-.33,.46-.64,.74-.92,.64-.66,1.62-1.04,2.53-1.05,1.95-.01,4.02-.48,5.34-2.73,.92-1.57,1.4-3.73,.73-5.39-.05-.12-.19-.23-.37-.21-.38,.04-.65-.06-.87-.28-.4-.39-.36-1.05-.34-1.65,.01-.39,.07-.79,.18-1.17,.22-.89,.89-1.71,1.67-2.18,1.68-.98,3.24-2.43,3.26-5.03,.02-1.82-.65-3.92-2.06-5.03-.1-.08-.28-.11-.43,0-.31,.22-.59,.27-.9,.19-.54-.14-.84-.73-1.11-1.26-.18-.35-.33-.72-.43-1.11-.25-.88-.09-1.92,.36-2.72,.97-1.69,1.59-3.72,.31-5.99-.9-1.58-2.52-3.08-4.3-3.33-.13-.02-.29,.04-.37,.22-.16,.35-.37,.53-.68,.61-.54,.14-1.09-.22-1.59-.53-.33-.21-.65-.45-.92-.74-.66-.64-1.04-1.62-1.05-2.53-.01-1.95-.48-4.02-2.73-5.34-1.57-.92-3.73-1.4-5.39-.73-.12,.05-.23,.19-.21,.38,.04,.38-.06,.65-.28,.87-.39,.39-1.05,.36-1.65,.33-.39-.01-.78-.07-1.17-.18h0Z"/>
    <path class="g" d="M79.73,84.92c3.7,4.72,9.48,9.22,15.13,11.69-1.19,1.02-2.81,3.06-3.66,4.38-5.02-2.59-9.95-6.84-13.82-11.69v13.52h-5.4v-13.26c-3.87,4.68-8.84,8.8-13.82,11.39-.85-1.28-2.51-3.32-3.74-4.38,5.7-2.42,11.48-6.93,15.22-11.65h-13.77v-5.02h16.11v-5.44h-12.92v-5.02h12.92v-6.33h5.4v6.33h13.31v5.02h-13.31v5.44h16.37v5.02h-14.03Z"/>
    <circle class="e" cx="138.36" cy="82.93" r="28.67"/>
    <path class="g" d="M153.79,88.11c-1.19-1.32-3.36-3.19-5.48-4.93-.85,1.4-1.79,2.64-2.85,3.66-.72-.6-2.13-1.53-3.32-2.17,3.78,5.02,9.86,9.52,16.24,11.86-1.23,1.06-2.89,3.23-3.74,4.63-5.14-2.38-9.95-6.21-13.77-10.76v12.37h-5.31v-12.12c-3.83,4.46-8.59,8.16-13.65,10.5-.81-1.23-2.47-3.27-3.57-4.34,6.89-2.68,13.52-7.95,17.22-13.69v-9.82h-15.47v-4.97h15.47v-5.23h5.31v5.23h16.03v4.97h-16.03v9.52c.21,.34,.43,.64,.64,.98,2.72-2.42,4.51-6.21,5.36-10.25l4.93,.89c-.38,1.57-.85,3.1-1.4,4.55,2.42,1.87,5.36,4.12,6.93,5.57l-3.53,3.53Zm-21.89-13.6c-.43,1.57-.94,3.1-1.53,4.59,1.53,1.32,3.15,2.72,4.12,3.74l-3.4,3.53c-.64-.81-1.7-1.87-2.85-2.98-1.4,2.3-3.02,4.29-4.89,5.82-.81-.89-2.81-2.55-3.91-3.32,3.74-2.68,6.33-7.14,7.52-12.33l4.93,.94Z"/>
    <path class="f" d="M145.57,56.04c-.89-.23-1.71-.89-2.17-1.67-.98-1.68-2.43-3.24-5.03-3.26-1.82-.01-3.93,.65-5.03,2.07-.08,.1-.11,.28,0,.43,.22,.31,.27,.59,.19,.9-.14,.54-.73,.84-1.26,1.11-.35,.18-.72,.33-1.11,.43-.88,.25-1.92,.09-2.72-.36-1.69-.96-3.72-1.59-5.99-.31-1.58,.89-3.08,2.52-3.33,4.3-.02,.13,.04,.3,.22,.37,.35,.16,.53,.38,.62,.68,.14,.54-.22,1.09-.54,1.59-.21,.33-.45,.64-.74,.92-.64,.66-1.62,1.04-2.53,1.05-1.95,0-4.02,.48-5.34,2.73-.93,1.56-1.4,3.72-.73,5.39,.05,.12,.19,.23,.38,.22,.38-.04,.65,.05,.87,.28,.39,.4,.36,1.06,.33,1.65-.01,.39-.07,.78-.18,1.17-.23,.89-.89,1.71-1.67,2.18-1.68,.98-3.24,2.43-3.27,5.03-.01,1.82,.65,3.93,2.07,5.03,.1,.08,.28,.11,.43,0,.31-.23,.59-.28,.9-.19,.54,.14,.84,.73,1.11,1.26,.18,.35,.33,.72,.43,1.11,.25,.88,.09,1.92-.36,2.72-.96,1.69-1.59,3.72-.31,5.99,.89,1.58,2.52,3.07,4.3,3.32,.13,.02,.3-.04,.37-.22,.16-.35,.38-.53,.68-.61,.54-.14,1.09,.22,1.59,.53,.33,.21,.65,.46,.92,.74,.66,.64,1.04,1.62,1.05,2.53,0,1.95,.48,4.02,2.73,5.34,1.56,.92,3.72,1.4,5.39,.73,.12-.05,.23-.19,.22-.37-.04-.38,.05-.65,.28-.87,.4-.4,1.06-.36,1.65-.34,.39,.01,.78,.07,1.17,.18,.89,.22,1.71,.89,2.18,1.67,.98,1.68,2.43,3.24,5.03,3.26,1.82,.01,3.92-.65,5.03-2.06,.08-.1,.11-.28,0-.43-.23-.31-.28-.59-.19-.9,.15-.54,.73-.84,1.26-1.11,.35-.19,.72-.33,1.11-.43,.89-.26,1.93-.09,2.72,.36,1.69,.97,3.72,1.6,5.99,.31,1.58-.89,3.07-2.52,3.32-4.3,.02-.13-.04-.29-.22-.37-.35-.16-.53-.38-.62-.68-.14-.54,.22-1.09,.53-1.59,.21-.33,.46-.64,.74-.92,.64-.66,1.62-1.04,2.53-1.05,1.95-.01,4.02-.48,5.34-2.73,.92-1.57,1.4-3.73,.73-5.39-.05-.12-.19-.23-.37-.21-.38,.04-.65-.06-.87-.28-.4-.39-.36-1.05-.34-1.65,.01-.39,.07-.79,.18-1.17,.22-.89,.89-1.71,1.67-2.18,1.68-.98,3.24-2.43,3.26-5.03,.02-1.82-.65-3.92-2.06-5.03-.1-.08-.28-.11-.43,0-.31,.22-.59,.27-.9,.19-.54-.14-.84-.73-1.11-1.26-.18-.35-.33-.72-.43-1.11-.25-.88-.09-1.92,.36-2.72,.97-1.69,1.59-3.72,.31-5.99-.9-1.58-2.52-3.08-4.3-3.33-.13-.02-.29,.04-.37,.22-.16,.35-.37,.53-.68,.61-.54,.14-1.09-.22-1.59-.53-.33-.21-.65-.45-.92-.74-.66-.64-1.04-1.62-1.05-2.53-.01-1.95-.48-4.02-2.73-5.34-1.57-.92-3.73-1.4-5.39-.73-.12,.05-.23,.19-.21,.38,.04,.38-.06,.65-.28,.87-.39,.39-1.05,.36-1.65,.33-.39-.01-.78-.07-1.17-.18h0Z"/>
  </g>
</svg>