<svg height="184.56" viewBox="0 0 1363.47 184.56" width="1363.47" xmlns="http://www.w3.org/2000/svg"><g fill="#fff" opacity=".18"><path d="m470.13 84.67a210.06 210.06 0 0 1 -29.69-1.94 81.85 81.85 0 0 1 -23.44-6.59 36.79 36.79 0 0 1 -15.31-12.77q-5.38-8.08-5.39-20.37t5.48-20.6a38 38 0 0 1 15.75-13.2 85.94 85.94 0 0 1 24.53-7 217.89 217.89 0 0 1 31.81-2.2q23 0 38.66 4.23t23.84 12a26.91 26.91 0 0 1 8.84 18.49h-32.37a15.57 15.57 0 0 0 -5.48-5.29q-4-2.55-11.95-4.18t-21.54-1.61q-15.94 0-25.9 1.93t-14.57 6.18a14.49 14.49 0 0 0 -4.6 11.25 12.61 12.61 0 0 0 4.73 10q4.73 4 15.19 6t27.64 2a179.53 179.53 0 0 0 21-1.06 91.85 91.85 0 0 0 16.18-3.3 113 113 0 0 0 14.46-5.59l3 3.61a51.76 51.76 0 0 1 -22.91 22.28q-15.17 7.73-37.96 7.73zm52.42-2.5a41.09 41.09 0 0 1 1-8.46q1-4.74 2.55-9.9t3-9.77h-48.51v-13.04h66.41v41.17z"/><path d="m566.25 2.49h31.13v79.68h-31.13z"/><path d="m742.18 2.49v23.66h-94.38v10.58h77.2v21.17h-77.2v24.27h-31.12v-79.68z"/><path d="m752.14 2.49h129.49v23.66h-129.49zm49.18 22h31.13v57.68h-31.13z"/><path d="m932.67 82.17v-79.68h78.44q24.15 0 35.61 4.73t11.46 16.44q0 7.47-4.92 11.45t-14.07 5.54a161.21 161.21 0 0 1 -22 1.93l1-1q9.33 0 17.31.5a65 65 0 0 1 13.94 2.24 20.15 20.15 0 0 1 9.34 5.36q3.36 3.62 3.36 10a16.41 16.41 0 0 1 -5.48 12.7q-5.48 5-15.56 7.41a102.48 102.48 0 0 1 -23.78 2.42zm31.13-45.81h48.31q6.6 0 9.52-1.25a4.22 4.22 0 0 0 0-8q-2.93-1.18-9.52-1.18h-48.31zm0 22.41h53.54q6.6 0 9.52-1.25a4.17 4.17 0 0 0 2.93-4 3.75 3.75 0 0 0 -1.31-3 8.91 8.91 0 0 0 -4-1.68 36.78 36.78 0 0 0 -7.09-.56h-53.59z"/><path d="m1148.69 84.67q-27.14 0-43.7-4.8t-24.09-14.19q-7.53-9.41-7.53-23.35t7.53-23.33q7.53-9.4 24.09-14.2t43.7-4.8q27.15 0 43.7 4.79t24.1 14.2q7.53 9.39 7.53 23.34t-7.53 23.35q-7.54 9.41-24.1 14.19t-43.7 4.8zm0-23.66a136.4 136.4 0 0 0 22.16-1.56q9.35-1.55 14.45-5.6t5.1-11.52q0-7.47-5.1-11.51t-14.45-5.61a137.65 137.65 0 0 0 -22.16-1.55 143.66 143.66 0 0 0 -22.47 1.55q-9.65 1.56-15.07 5.61t-5.41 11.51q0 7.47 5.41 11.52t15.07 5.6a142.35 142.35 0 0 0 22.47 1.55z"/><path d="m1322.38 2.49h39.84l-56 47.31-1.24 1-36.11 31.37h-39.87l58.52-49.05.87-.75zm-52.29 0 35 30.75.75.75 57.65 48.18h-39.85l-37.64-32.49-.49-.5-55.27-46.69z"/><path d="m75.33 184.56q-27.15 0-43.71-4.79t-24.09-14.2q-7.53-9.39-7.53-23.34t7.53-23.35q7.53-9.39 24.09-14.19t43.71-4.8q27.14 0 43.7 4.8t24.09 14.19q7.53 9.41 7.53 23.35t-7.53 23.34q-7.53 9.43-24.12 14.2t-43.67 4.79zm0-23.66a136.59 136.59 0 0 0 22.16-1.55q9.33-1.56 14.44-5.61t5.07-11.51q0-7.47-5.11-11.52t-14.44-5.6a136.49 136.49 0 0 0 -22.16-1.56 142.49 142.49 0 0 0 -22.48 1.56q-9.65 1.56-15.06 5.6t-5.42 11.52q0 7.47 5.42 11.51t15.06 5.61a142.59 142.59 0 0 0 22.52 1.55z"/><path d="m292.34 102.38v23.62h-94.34v10.58h77.2v21.17h-77.2v24.28h-31.16v-79.65z"/><path d="m335.92 102.38h129.48v23.62h-129.48zm49.18 22h31.12v57.65h-31.12z"/><path d="m477.85 102.38h31.15v79.69h-31.15zm26.65 27.52h87.65v23.66h-87.65zm84.17-27.52h31.12v79.69h-31.12z"/><path d="m668.35 148.45v10h94.65v23.66h-125.78v-79.73h125.51v23.62h-94.38v10h77.19v12.45z"/><path d="m848.88 102.38v56h72.59v23.66h-103.71v-79.66z"/><path d="m1005.51 184.56q-27.13 0-43.7-4.79t-24.09-14.2q-7.53-9.39-7.53-23.34t7.53-23.35q7.53-9.39 24.09-14.19t43.7-4.8q27.15 0 43.7 4.8t24.1 14.19q7.53 9.41 7.53 23.35t-7.53 23.34q-7.55 9.41-24.1 14.2t-43.7 4.79zm0-23.66a136.51 136.51 0 0 0 22.16-1.55q9.35-1.56 14.45-5.61t5.1-11.51q0-7.47-5.1-11.52t-14.45-5.6a136.4 136.4 0 0 0 -22.16-1.56 142.35 142.35 0 0 0 -22.51 1.56q-9.64 1.56-15.07 5.6t-5.41 11.52q0 7.47 5.41 11.51t15.07 5.61a142.45 142.45 0 0 0 22.51 1.55z"/><path d="m1131.64 182.07-48.31-79.69h35.11l41.21 76.62h-12.65l41.21-76.58h34.62l-47.83 79.65z"/><path d="m1265.11 148.45v10h94.62v23.66h-125.73v-79.73h125.5v23.62h-94.37v10h77.19v12.45z"/></g></svg>