<?xml version="1.0" encoding="UTF-8"?>
<svg id="_層_2" data-name="圖層 2" xmlns="http://www.w3.org/2000/svg" width="376.4" height="54.62" viewBox="0 0 376.4 54.62">
  <defs>
    <style>
      .cls-1 {
        fill: #fff;
      }

      .cls-2 {
        opacity: .2;
      }
    </style>
  </defs>
  <g id="_層_1-2" data-name="圖層 1">
    <g class="cls-2">
      <g>
        <path class="cls-1" d="M129.79,23.37c-2.98,0-5.71-.18-8.2-.53-2.49-.35-4.64-.96-6.46-1.82-1.82-.86-3.23-2.03-4.23-3.52-1-1.49-1.5-3.37-1.5-5.64s.5-4.16,1.51-5.69c1.01-1.52,2.46-2.74,4.35-3.64,1.89-.9,4.15-1.55,6.77-1.94,2.62-.39,5.55-.58,8.78-.58,4.24,0,7.8,.39,10.67,1.17,2.88,.78,5.07,1.88,6.58,3.32,1.51,1.43,2.33,3.13,2.44,5.1h-8.94c-.28-.5-.78-.99-1.51-1.46-.73-.47-1.83-.85-3.3-1.15-1.47-.3-3.45-.45-5.95-.45-2.93,0-5.32,.18-7.15,.53-1.83,.36-3.17,.92-4.02,1.7-.85,.78-1.27,1.81-1.27,3.09,0,1.12,.43,2.05,1.31,2.78,.87,.73,2.27,1.28,4.19,1.65,1.93,.37,4.47,.55,7.63,.55,2.22,0,4.15-.1,5.79-.29,1.64-.19,3.13-.5,4.47-.91,1.34-.41,2.68-.93,4-1.55l.82,1c-1.42,2.68-3.53,4.73-6.32,6.15-2.8,1.42-6.29,2.13-10.48,2.13Zm14.47-.69c0-.69,.09-1.47,.27-2.34,.18-.87,.42-1.78,.7-2.73,.29-.95,.57-1.85,.84-2.7h-13.4v-3.61h18.32v11.38h-6.74Z"/>
        <path class="cls-1" d="M156.32,.69h8.59V22.69h-8.59V.69Z"/>
        <path class="cls-1" d="M204.89,.69V7.22h-26.05v2.92h21.31v5.84h-21.31v6.7h-8.59V.69h34.65Z"/>
        <path class="cls-1" d="M207.64,.69h35.75V7.22h-35.75V.69Zm13.58,6.08h8.59v15.91h-8.59V6.77Z"/>
        <path class="cls-1" d="M257.48,22.69V.69h21.65c4.45,0,7.72,.44,9.83,1.31,2.11,.87,3.16,2.38,3.16,4.54,0,1.38-.45,2.43-1.36,3.16-.91,.73-2.2,1.24-3.88,1.53-1.68,.29-3.71,.46-6.07,.53l.27-.27c1.72,0,3.31,.05,4.78,.14,1.47,.09,2.75,.3,3.85,.62,1.1,.32,1.96,.81,2.58,1.48,.62,.67,.93,1.58,.93,2.75,0,1.42-.5,2.59-1.51,3.51-1.01,.92-2.44,1.6-4.3,2.04-1.86,.45-4.04,.67-6.56,.67h-23.37Zm8.59-12.65h13.34c1.21,0,2.09-.11,2.63-.34,.54-.23,.81-.6,.81-1.1s-.27-.9-.81-1.12c-.54-.22-1.42-.33-2.63-.33h-13.34v2.89Zm0,6.19h14.78c1.21,0,2.09-.11,2.63-.34,.54-.23,.81-.6,.81-1.1,0-.34-.12-.62-.36-.83-.24-.21-.61-.36-1.12-.46-.5-.1-1.16-.15-1.96-.15h-14.78v2.89Z"/>
        <path class="cls-1" d="M317.11,23.37c-5,0-9.02-.44-12.06-1.32s-5.26-2.19-6.65-3.92c-1.39-1.73-2.08-3.88-2.08-6.44s.69-4.71,2.08-6.44c1.39-1.73,3.6-3.04,6.65-3.92,3.05-.88,7.07-1.32,12.06-1.32s9.02,.44,12.06,1.32c3.05,.88,5.26,2.19,6.65,3.92,1.39,1.73,2.08,3.88,2.08,6.44s-.69,4.71-2.08,6.44c-1.39,1.73-3.6,3.04-6.65,3.92-3.05,.88-7.07,1.32-12.06,1.32Zm0-6.53c2.36,0,4.4-.14,6.12-.43,1.72-.29,3.05-.8,3.99-1.55,.94-.74,1.41-1.8,1.41-3.18s-.47-2.43-1.41-3.18-2.27-1.26-3.99-1.55c-1.72-.29-3.76-.43-6.12-.43s-4.43,.14-6.2,.43c-1.78,.29-3.16,.8-4.16,1.55s-1.5,1.8-1.5,3.18,.5,2.44,1.5,3.18c1,.75,2.38,1.26,4.16,1.55,1.78,.29,3.84,.43,6.2,.43Z"/>
        <path class="cls-1" d="M365.06,.69h11l-15.47,13.06-.34,.27-9.97,8.66h-11l16.15-13.54,.24-.21,9.38-8.25Zm-14.44,0l9.66,8.49,.21,.21,15.91,13.3h-11l-10.38-8.97-.14-.14-15.26-12.89h11Z"/>
        <path class="cls-1" d="M20.79,54.62c-5,0-9.02-.44-12.06-1.32-3.05-.88-5.27-2.19-6.65-3.92-1.39-1.73-2.08-3.88-2.08-6.44s.69-4.71,2.08-6.44c1.39-1.73,3.6-3.04,6.65-3.92,3.05-.88,7.07-1.32,12.06-1.32s9.02,.44,12.06,1.32c3.05,.88,5.26,2.19,6.65,3.92,1.39,1.73,2.08,3.88,2.08,6.44s-.69,4.71-2.08,6.44c-1.39,1.73-3.6,3.04-6.65,3.92s-7.07,1.32-12.06,1.32Zm0-6.53c2.36,0,4.4-.14,6.12-.43,1.72-.29,3.05-.8,3.99-1.55,.94-.74,1.41-1.8,1.41-3.18s-.47-2.43-1.41-3.18c-.94-.74-2.27-1.26-3.99-1.55-1.72-.29-3.76-.43-6.12-.43s-4.43,.14-6.2,.43c-1.78,.29-3.16,.8-4.16,1.55-1,.74-1.5,1.8-1.5,3.18s.5,2.44,1.5,3.18c1,.75,2.38,1.26,4.16,1.55,1.78,.29,3.84,.43,6.2,.43Z"/>
        <path class="cls-1" d="M80.7,31.93v6.53h-26.05v2.92h21.31v5.84h-21.31v6.7h-8.59V31.93h34.65Z"/>
        <path class="cls-1" d="M92.73,31.93h35.75v6.53h-35.75v-6.53Zm13.58,6.08h8.59v15.91h-8.59v-15.91Z"/>
        <path class="cls-1" d="M131.92,31.93h8.59v22h-8.59V31.93Zm7.36,7.6h24.2v6.53h-24.2v-6.53Zm23.24-7.6h8.59v22h-8.59V31.93Z"/>
        <path class="cls-1" d="M184.51,44.65v2.75h26.12v6.53h-34.72V31.93h34.65v6.53h-26.05v2.75h21.31v3.44h-21.31Z"/>
        <path class="cls-1" d="M234.35,31.93v15.47h20.04v6.53h-28.63V31.93h8.59Z"/>
        <path class="cls-1" d="M277.59,54.62c-5,0-9.02-.44-12.06-1.32-3.05-.88-5.26-2.19-6.65-3.92-1.39-1.73-2.08-3.88-2.08-6.44s.69-4.71,2.08-6.44c1.39-1.73,3.6-3.04,6.65-3.92,3.05-.88,7.07-1.32,12.06-1.32s9.02,.44,12.06,1.32c3.05,.88,5.26,2.19,6.65,3.92,1.39,1.73,2.08,3.88,2.08,6.44s-.69,4.71-2.08,6.44c-1.39,1.73-3.6,3.04-6.65,3.92-3.05,.88-7.07,1.32-12.06,1.32Zm0-6.53c2.36,0,4.4-.14,6.12-.43,1.72-.29,3.05-.8,3.99-1.55,.94-.74,1.41-1.8,1.41-3.18s-.47-2.43-1.41-3.18c-.94-.74-2.27-1.26-3.99-1.55-1.72-.29-3.76-.43-6.12-.43s-4.43,.14-6.2,.43c-1.78,.29-3.16,.8-4.16,1.55-1,.74-1.5,1.8-1.5,3.18s.5,2.44,1.5,3.18c1,.75,2.38,1.26,4.16,1.55,1.78,.29,3.84,.43,6.2,.43Z"/>
        <path class="cls-1" d="M312.4,53.93l-13.34-22h9.69l11.38,21.14h-3.51l11.38-21.14h9.56l-13.2,22h-11.96Z"/>
        <path class="cls-1" d="M349.25,44.65v2.75h26.12v6.53h-34.72V31.93h34.65v6.53h-26.05v2.75h21.31v3.44h-21.31Z"/>
      </g>
    </g>
  </g>
</svg>