<?xml version="1.0" encoding="UTF-8"?>
<svg id="_圖層_2" data-name="圖層 2" xmlns="http://www.w3.org/2000/svg" width="265.97" height="52.62" viewBox="0 0 265.97 52.62">
  <g id="_圖層_1-2" data-name="圖層 1">
    <g>
      <g style="opacity: .2;">
        <g>
          <path d="M21.94,.92h11V29.08h-11V.92Z" style="fill: #e8b356;"/>
          <path d="M38,.92h45.76V9.28H38V.92Zm17.38,7.79h11V29.08h-11V8.71Z" style="fill: #e8b356;"/>
          <path d="M99.16,17.2v3.52h33.44v8.36h-44.44V.92h44.35V9.28h-33.35v3.52h27.28v4.4h-27.28Z" style="fill: #e8b356;"/>
          <path d="M173.25,25.74h-6.6L190.68,.92h11V29.08h-11V9.9l3.3,1.36-17.38,17.82h-13.2l-17.42-17.78,3.34-1.36V29.08h-11V.92h11l23.94,24.82Z" style="fill: #e8b356;"/>
          <path d="M206.3,18.74h12.01c.21,.62,.81,1.14,1.8,1.56,1,.43,2.34,.75,4.03,.97,1.69,.22,3.64,.33,5.87,.33s3.94-.07,5.21-.2c1.28-.13,2.18-.37,2.71-.7,.53-.34,.79-.8,.79-1.39s-.43-.99-1.28-1.3c-.85-.31-2.36-.52-4.53-.64-2.17-.12-5.22-.18-9.15-.18-2.93,0-5.46-.14-7.59-.42-2.13-.28-3.87-.72-5.24-1.32-1.36-.6-2.37-1.36-3.01-2.29-.65-.92-.97-2.03-.97-3.32,0-2.23,.75-4.07,2.27-5.52,1.51-1.45,3.8-2.54,6.86-3.26,3.06-.72,6.9-1.08,11.51-1.08,6.75,0,11.9,.98,15.47,2.93,3.56,1.95,5.35,4.76,5.35,8.43h-11.4c-.15-.97-1.06-1.71-2.73-2.22-1.67-.51-4.05-.77-7.13-.77s-5.32,.18-6.8,.53c-1.48,.35-2.22,.95-2.22,1.8,0,.44,.21,.79,.62,1.06s1.12,.48,2.13,.64c1.01,.16,2.44,.27,4.29,.33,1.85,.06,4.19,.09,7.04,.09,3.14,0,5.81,.15,8.01,.46,2.2,.31,3.98,.77,5.35,1.39,1.36,.62,2.35,1.4,2.97,2.35,.62,.95,.92,2.08,.92,3.37,0,2.23-.7,4.05-2.11,5.46s-3.64,2.45-6.69,3.12c-3.05,.67-7.04,1.01-11.97,1.01-2.79,0-5.35-.16-7.68-.48-2.33-.32-4.41-.8-6.23-1.43-1.82-.63-3.36-1.41-4.62-2.33-1.26-.92-2.22-1.96-2.88-3.12-.66-1.16-.99-2.44-.99-3.85Z" style="fill: #e8b356;"/>
        </g>
      </g>
      <g>
        <path d="M10.64,40.8c-1.12,.32-2.24,.6-3.39,.92v6.97c0,1.66-.32,2.5-1.29,3.01-.95,.49-2.32,.63-4.33,.6-.11-.86-.54-2.21-.98-3.1,1.15,.06,2.32,.06,2.7,.06,.4-.03,.54-.14,.54-.57v-6.08l-3.01,.75-.89-3.24c1.12-.23,2.47-.54,3.9-.89v-5.02H.37v-3.16H3.9v-5.45h3.36v5.45h3.33v3.16h-3.33v4.19l2.96-.75,.43,3.16Zm15.23,8.09c0,1.61-.32,2.44-1.38,2.95-1.03,.52-2.5,.57-4.48,.57-.14-.98-.57-2.29-.98-3.16,1.12,.06,2.44,.06,2.81,.06s.52-.14,.52-.49v-1.95c-2.58,.75-5.19,1.43-7.34,2.01l-.8-2.29c-.43,2.18-1.2,4.33-2.5,6.02-.63-.54-2.15-1.55-2.93-1.89,2.29-2.9,2.52-7.03,2.52-9.95v-4.71h14.54v12.82Zm-.89-14.29H12.05v-8.06h12.94v8.06Zm-4.39,9.52c-1.35-.69-3.9-1.49-5.91-1.95-.03,1.09-.11,2.27-.32,3.44,2.12-.37,5.08-.98,8-1.58v-5.08h-7.66v1.86c0,.4,0,.8-.03,1.23l1.26-2.18c1.98,.32,4.62,1.03,6.02,1.72l-1.38,2.52Zm1.06-14.89h-6.4v2.64h6.4v-2.64Z" style="fill: #ca954a;"/>
        <path d="M35.66,38.82c0,3.93-.34,9.41-2.09,12.97-.49-.52-1.69-1.46-2.32-1.78,1.49-3.24,1.63-7.92,1.63-11.42v-8.92h5.11v-4.1h3.16v1.18h5.25v1.95h-5.25v.97h3.99l.4-.11,2.04,.49c-.43,1.35-.92,2.9-1.38,3.96l-2.41-.57c.14-.43,.32-.98,.49-1.55h-4.07v.92l3.27-.34,.23,1.49-3.5,.4c.03,.46,.17,.6,.69,.6h3.1c.52,0,1.52-.03,2.01-.14,.03,.54,.06,1.12,.14,1.63-.43,.11-1.29,.14-2.04,.14h-3.61c-1.78,0-2.32-.6-2.41-2.04l-1.95,.23-.23-1.52,2.18-.23v-1.15h-2.41v5.25h10.9v1.69h-10.9Zm18.07-2.5c.69,5.57,2.04,10.64,4.82,13.34-.77,.63-1.86,1.86-2.38,2.75-1.84-2.01-3.07-4.88-3.9-8.29-.8,2.96-2.12,5.85-4.22,8.26-.34-.43-.95-1.03-1.55-1.52-.11,.32-.29,.57-.63,.77-.6,.34-1.43,.37-2.5,.37-.09-.63-.34-1.46-.63-2.04h1.23c.2,0,.26-.06,.26-.29v-4.02h-1.43l1.12,.46c-.37,.49-.72,.95-1.03,1.38h1.21v1.43h-2.12v2.75h-1.98v-2.75h-2.15v-1.43h1.15c-.23-.46-.52-.92-.8-1.32l1.18-.52h-1.55v6.31h-2.38v-8.03h11.22v4.73c2.7-3.7,3.39-8.46,3.53-12.36h-3.3v-3.1h3.36v-7.57h3.24v7.57h4.62v3.1h-4.36Zm-16.87,6.94v-3.73h8.38v3.73h-8.38Zm2.18-1.43h3.9v-.86h-3.9v.86Zm1.95,5.68c.43-.57,.89-1.29,1.18-1.84h-2.47c.46,.54,.92,1.26,1.12,1.84h.17Zm14.57-15.15c-.29-1.35-1.12-3.36-2.04-4.91l2.52-.92c.95,1.46,1.89,3.47,2.21,4.76l-2.7,1.06Z" style="fill: #ca954a;"/>
        <path d="M79.07,46.16c-.92,2.38-2.52,4.79-4.1,6.25-.6-.57-1.95-1.49-2.73-1.92,1.52-1.26,2.87-3.21,3.59-5.13l3.24,.8Zm5.59-1.03h-10.61V26.71h10.61v18.42Zm-3.33-15.72h-4.07v2.61h4.07v-2.61Zm0,5.13h-4.07v2.67h4.07v-2.67Zm0,5.19h-4.07v2.67h4.07v-2.67Zm1.12,5.57c1.26,1.41,2.55,3.27,3.16,4.59l-2.87,1.46c-.54-1.35-1.84-3.36-3.04-4.85l2.75-1.2Zm16.9-9.81h-3.1v13.02c0,1.72-.34,2.64-1.32,3.18-1,.55-2.41,.72-4.5,.72-.14-.95-.66-2.44-1.15-3.36,1.32,.06,2.58,.06,3.01,.06,.43-.03,.6-.17,.6-.6v-8.75c-1.69,3.27-3.79,6.14-6.05,8.12-.57-.77-1.61-1.92-2.32-2.5,2.87-2.15,5.54-6,7.2-9.9h-6.31v-3.16h7.49v-6.66h3.36v6.66h3.1v3.16Z" style="fill: #ca954a;"/>
        <path d="M114.54,31.53c-.77,2.15-1.84,4.19-3.1,6.05,1.12,1,3.04,2.98,3.56,3.56l-1.92,2.84c-.49-.75-1.26-1.78-2.04-2.81v11.19h-3.13v-10.5c-1,.95-1.98,1.81-3.01,2.5-.17-.97-.8-2.84-1.21-3.5,2.67-1.55,5.25-4.36,6.88-7.4h-6.14v-3.07h4.73c-.54-1.03-1.41-2.38-2.12-3.38l2.67-1.43c.89,1.12,1.92,2.61,2.41,3.59l-2.01,1.23h2.21l.54-.14,1.66,1.29Zm15.4-1.84v15.63h-3.21v-1.03h-2.61v8.06h-3.33v-8.06h-2.58v1.32h-3.1v-15.92h5.68v-4.13h3.33v4.13h5.82Zm-11.73,3.04v2.75h2.58v-2.75h-2.58Zm2.58,8.55v-2.81h-2.58v2.81h2.58Zm3.33-8.55v2.75h2.61v-2.75h-2.61Zm2.61,8.55v-2.81h-2.61v2.81h2.61Z" style="fill: #ca954a;"/>
        <path d="M155.48,31.53c-.77,2.15-1.84,4.19-3.1,6.05,1.12,1,3.04,2.98,3.56,3.56l-1.92,2.84c-.49-.75-1.26-1.78-2.04-2.81v11.19h-3.13v-10.5c-1,.95-1.98,1.81-3.01,2.5-.17-.97-.8-2.84-1.2-3.5,2.67-1.55,5.25-4.36,6.88-7.4h-6.14v-3.07h4.73c-.54-1.03-1.41-2.38-2.12-3.38l2.67-1.43c.89,1.12,1.92,2.61,2.41,3.59l-2.01,1.23h2.21l.54-.14,1.66,1.29Zm15.4-1.84v15.63h-3.21v-1.03h-2.61v8.06h-3.33v-8.06h-2.58v1.32h-3.1v-15.92h5.68v-4.13h3.33v4.13h5.82Zm-11.73,3.04v2.75h2.58v-2.75h-2.58Zm2.58,8.55v-2.81h-2.58v2.81h2.58Zm3.33-8.55v2.75h2.61v-2.75h-2.61Zm2.61,8.55v-2.81h-2.61v2.81h2.61Z" style="fill: #ca954a;"/>
        <path d="M202.65,37.12c-1.86,1.84-4.16,3.76-6.17,5.25,1.64,2.35,3.9,4.36,7.23,6.23-.89,.66-1.95,1.95-2.38,3.01-7.37-4.68-9.98-9.98-11.39-16.98-1.15,1.38-2.41,2.7-3.82,3.9v8.78l6.43-1.86c.14,.97,.52,2.38,.75,3.18-8.58,2.64-9.93,3.1-10.84,3.73-.32-.69-1.23-1.98-1.78-2.55,.72-.52,1.95-1.64,1.95-3.21v-5.39c-1.38,.92-2.78,1.72-4.25,2.38-.4-.83-1.32-2.24-1.92-2.98,3.93-1.63,7.69-4.42,10.15-7.37h-9.29v-3.27h11.45c-.32-1.12-.89-2.5-1.38-3.61l3.47-1c.72,1.26,1.52,2.98,1.81,4.07l-1.75,.54h11.79v3.27h-9.67c.43,2.32,1,4.42,1.86,6.37,1.75-1.41,3.59-3.1,4.82-4.59l2.93,2.12Z" style="fill: #ca954a;"/>
        <path d="M218.6,31.53c-.77,2.15-1.84,4.19-3.1,6.05,1.12,1,3.04,2.98,3.56,3.56l-1.92,2.84c-.49-.75-1.26-1.78-2.04-2.81v11.19h-3.13v-10.5c-1,.95-1.98,1.81-3.01,2.5-.17-.97-.8-2.84-1.2-3.5,2.67-1.55,5.25-4.36,6.88-7.4h-6.14v-3.07h4.73c-.54-1.03-1.41-2.38-2.12-3.38l2.67-1.43c.89,1.12,1.92,2.61,2.41,3.59l-2.01,1.23h2.21l.54-.14,1.66,1.29Zm15.4-1.84v15.63h-3.21v-1.03h-2.61v8.06h-3.33v-8.06h-2.58v1.32h-3.1v-15.92h5.68v-4.13h3.33v4.13h5.82Zm-11.73,3.04v2.75h2.58v-2.75h-2.58Zm2.58,8.55v-2.81h-2.58v2.81h2.58Zm3.33-8.55v2.75h2.61v-2.75h-2.61Zm2.61,8.55v-2.81h-2.61v2.81h2.61Z" style="fill: #ca954a;"/>
        <path d="M250.54,43.06c0,1.06-.11,1.95-.72,2.44-.6,.52-1.26,.6-2.24,.6-.03-.77-.37-1.92-.72-2.72v9.01h-2.95v-18.53h-1.15v12.59h-2.5v-15.58h3.64v-5.25h2.95v5.25h3.67v12.19Zm-2.64,.2c.17,0,.23-.06,.23-.29v-9.12h-1.26v9.41h1.03Zm18.07-16.67v10.13h-3.3v-7.6h-8.03v7.6h-3.16v-10.13h14.49Zm-13.77,11.07h13.08v14.69h-3.18v-.86h-6.86v.86h-3.04v-14.69Zm3.04,2.64v1.26h6.86v-1.26h-6.86Zm6.86,4.91v-1.35h-6.86v1.35h6.86Zm0,3.7v-1.41h-6.86v1.41h6.86Zm-.06-16.21h-6.74v-2.15h6.74v2.15Zm-6.74,1.46h6.74v2.15h-6.74v-2.15Z" style="fill: #ca954a;"/>
      </g>
    </g>
  </g>
</svg>