<svg height="84.79" viewBox="0 0 643.82 84.79" width="643.82" xmlns="http://www.w3.org/2000/svg"><g fill="#e8b356" opacity=".2"><path d="m0 2.62h31.13v79.68h-31.13z"/><path d="m45.45 2.62h129.48v23.65h-129.48zm49.17 22h31.13v57.68h-31.13z"/><path d="m218.51 48.68v10h94.62v23.62h-125.75v-79.68h125.5v23.65h-94.37v10h77.19v12.41z"/><path d="m428.18 72.84h-18.68l68-70.22h31.13v79.68h-31.15v-54.3l9.34 3.86-49.18 50.44h-37.35l-49.29-50.3 9.47-3.86v54.16h-31.15v-79.68h31.13z"/><path d="m521.68 53h34c.58 1.74 2.28 3.22 5.11 4.42a44.37 44.37 0 0 0 11.39 2.74 130.53 130.53 0 0 0 16.62.93q9.35 0 14.75-.56c3.61-.37 6.17-1 7.66-2a4.42 4.42 0 0 0 2.24-3.92q0-2.37-3.61-3.67t-12.84-1.76q-9.22-.49-25.9-.5a168 168 0 0 1 -21.48-1.18 54.55 54.55 0 0 1 -14.81-3.74 19.78 19.78 0 0 1 -8.53-6.47 16 16 0 0 1 -2.74-9.4 20.73 20.73 0 0 1 6.46-15.63q6.4-6.15 19.42-9.21t32.56-3q28.63 0 43.77 8.28t15.12 23.84h-32.28q-.59-4.17-7.72-6.33t-20.17-2.18q-13 0-19.24 1.49t-6.29 5.11a3.39 3.39 0 0 0 1.75 3 16.81 16.81 0 0 0 6 1.81 100.85 100.85 0 0 0 12.13.93q7.85.26 19.93.25a167.08 167.08 0 0 1 22.66 1.31 56.41 56.41 0 0 1 15.12 3.92 19 19 0 0 1 8.41 6.66 17.21 17.21 0 0 1 2.61 9.53q0 9.47-6 15.44t-18.93 8.84q-12.85 2.83-33.8 2.84a159.57 159.57 0 0 1 -21.72-1.37 92.13 92.13 0 0 1 -17.62-4 49 49 0 0 1 -13.07-6.6 28.59 28.59 0 0 1 -8.16-8.84 21.57 21.57 0 0 1 -2.8-10.98z"/></g><g fill="#ca954a"><path d="m134.14 64.22c-1.72.49-3.45.93-5.22 1.42v10.76c0 2.57-.49 3.85-2 4.65s-3.59 1-6.69.93a18.44 18.44 0 0 0 -1.5-4.78c1.77.08 3.58.08 4.16.08s.84-.22.84-.88v-9.4l-4.65 1.16-1.37-5c1.73-.35 3.81-.84 6-1.37v-7.79h-5.45v-4.83h5.45v-8.41h5.18v8.41h5.13v4.83h-5.13v6.47l4.56-1.15zm23.51 12.49c0 2.48-.49 3.76-2.13 4.56s-3.85.88-6.9.88a20.12 20.12 0 0 0 -1.51-4.87c1.73.09 3.77.09 4.34.09s.8-.22.8-.75v-3c-4 1.15-8 2.21-11.33 3.1l-1.24-3.54a22.53 22.53 0 0 1 -3.86 9.29 25.41 25.41 0 0 0 -4.51-2.92c3.54-4.47 3.89-10.84 3.89-15.36v-7.27h22.45zm-1.37-22h-20v-12.49h20zm-6.78 14.7a47.06 47.06 0 0 0 -9.12-3 36.87 36.87 0 0 1 -.48 5.31c3.27-.57 7.83-1.5 12.35-2.43v-7.9h-11.82v2.88c0 .62 0 1.24-.05 1.9l2-3.36a38.92 38.92 0 0 1 9.3 2.65zm1.64-23h-9.87v4.07h9.87z"/><path d="m171 61.17c0 6.07-.53 14.52-3.23 20a18 18 0 0 0 -3.58-2.75c2.3-5 2.52-12.21 2.52-17.61v-13.76h7.88v-6.33h4.87v1.82h8.1v3h-8.1v1.51h6.15l.62-.18 3.14.75c-.66 2.09-1.41 4.48-2.12 6.11l-3.72-.88c.22-.67.49-1.51.76-2.39h-6.29v1.42l5-.54.36 2.31-5.4.62c0 .7.26.93 1.06.93h4.78a17.61 17.61 0 0 0 3.1-.23c0 .84.09 1.73.22 2.53a16 16 0 0 1 -3.14.22h-5.58c-2.74 0-3.58-.93-3.72-3.14l-3 .35-.35-2.35 3.36-.35v-1.77h-3.69v8.1h16.83v2.61zm27.89-3.85c1.07 8.59 3.15 16.42 7.44 20.58a18.7 18.7 0 0 0 -3.67 4.25c-2.84-3.1-4.74-7.52-6-12.79a32 32 0 0 1 -6.5 12.75 16.71 16.71 0 0 0 -2.39-2.35 2.15 2.15 0 0 1 -1 1.2 8 8 0 0 1 -3.85.57 11.32 11.32 0 0 0 -1-3.14h1.9c.31 0 .4-.09.4-.44v-6.2h-2.22l1.72.71c-.57.75-1.1 1.46-1.59 2.12h1.87v2.22h-3.3v4.25h-3v-4.25h-3.32v-2.22h1.77a15.94 15.94 0 0 0 -1.24-2l1.82-.8h-2.39v9.74h-3.68v-12.43h17.31v7.31c4.16-5.71 5.22-13.06 5.44-19.08h-5.09v-4.78h5.18v-11.69h5v11.69h7.13v4.78zm-26.07 10.68v-5.72h12.93v5.72zm3.37-2.21h6v-1.3h-6zm3 8.76a23 23 0 0 0 1.81-2.8h-3.8a10.13 10.13 0 0 1 1.72 2.83zm22.49-23.37a28.9 28.9 0 0 0 -3.15-7.57l3.9-1.42a28.6 28.6 0 0 1 3.41 7.35z"/><path d="m234.39 72.5a27.52 27.52 0 0 1 -6.33 9.65 26.39 26.39 0 0 0 -4.21-3 19.79 19.79 0 0 0 5.54-7.93zm8.61-1.59h-16.36v-28.42h16.36zm-5.13-24.26h-6.27v4h6.29zm0 7.93h-6.27v4.11h6.29zm0 8h-6.27v4.12h6.29zm1.72 8.58a32.18 32.18 0 0 1 4.87 7.09l-4.43 2.25a35 35 0 0 0 -4.67-7.5zm26.09-15.16h-4.78v20.13c0 2.66-.53 4.08-2 4.92s-3.72 1.1-7 1.1a19.51 19.51 0 0 0 -1.75-5.15c2 .09 4 .09 4.65.09s.93-.26.93-.93v-13.53a43.23 43.23 0 0 1 -9.35 12.53 23.92 23.92 0 0 0 -3.58-3.85c4.43-3.32 8.54-9.25 11.11-15.27h-9.74v-4.87h11.56v-10.27h5.17v10.27h4.78z"/><path d="m287.33 49.93a42.47 42.47 0 0 1 -4.79 9.34c1.73 1.55 4.7 4.6 5.49 5.49l-3 4.38c-.76-1.15-1.95-2.75-3.15-4.34v17.26h-4.78v-16.2a36.45 36.45 0 0 1 -4.65 3.85 21.94 21.94 0 0 0 -1.86-5.4 30.2 30.2 0 0 0 10.63-11.42h-9.48v-4.73h7.31a49.8 49.8 0 0 0 -3.28-5.23l4.12-2.21a39.13 39.13 0 0 1 3.72 5.53l-3.1 1.91h3.41l.84-.22zm23.77-2.84v24.13h-5v-1.6h-4v12.44h-5.1v-12.44h-4v2h-4.78v-24.53h8.78v-6.37h5.14v6.37zm-18.1 4.7v4.21h4v-4.21zm4 13.21v-4.36h-4v4.36zm5.14-13.19v4.19h4v-4.21zm4 13.19v-4.36h-4v4.36z"/><path d="m346.94 49.93a42 42 0 0 1 -4.78 9.34c1.73 1.55 4.69 4.6 5.49 5.49l-3 4.38c-.75-1.15-1.94-2.75-3.14-4.34v17.26h-4.82v-16.2a36.45 36.45 0 0 1 -4.65 3.85 22.36 22.36 0 0 0 -1.86-5.4 30.1 30.1 0 0 0 10.62-11.42h-9.47v-4.73h7.3a49.69 49.69 0 0 0 -3.27-5.23l4.11-2.21a37.48 37.48 0 0 1 3.72 5.53l-3.1 1.91h3.41l.84-.22zm23.77-2.84v24.13h-5v-1.6h-4v12.44h-5.14v-12.44h-4v2h-4.78v-24.53h8.76v-6.37h5.14v6.37zm-18.1 4.7v4.21h4v-4.21zm4 13.19v-4.34h-4v4.36zm5.14-13.19v4.21h4v-4.21zm4 13.19v-4.34h-4v4.36z"/><path d="m417.94 58.56a95.44 95.44 0 0 1 -9.52 8.1 32 32 0 0 0 11.16 9.61 12.59 12.59 0 0 0 -3.68 4.64c-11.37-7.21-15.4-15.4-17.57-26.2a50.63 50.63 0 0 1 -5.89 6v13.56l9.92-2.87a43.33 43.33 0 0 0 1.15 4.91c-13.24 4.07-15.32 4.78-16.73 5.75a20.09 20.09 0 0 0 -2.78-3.94c1.11-.79 3-2.52 3-5v-8.28a45.16 45.16 0 0 1 -6.55 3.68 30.26 30.26 0 0 0 -3-4.6 42.54 42.54 0 0 0 15.67-11.38h-14.27v-5h17.66a47 47 0 0 0 -2.12-5.57l5.36-1.55a31.55 31.55 0 0 1 2.78 6.28l-2.7.84h18.17v5h-14.89a43.66 43.66 0 0 0 2.89 9.83 54.45 54.45 0 0 0 7.43-7.09z"/><path d="m440.77 49.93a42 42 0 0 1 -4.77 9.34c1.73 1.55 4.69 4.6 5.49 5.49l-3 4.38c-.75-1.15-1.94-2.75-3.14-4.34v17.26h-4.82v-16.2a36.45 36.45 0 0 1 -4.65 3.85 22.36 22.36 0 0 0 -1.86-5.4 30.1 30.1 0 0 0 10.62-11.42h-9.47v-4.73h7.31a51.51 51.51 0 0 0 -3.28-5.23l4.12-2.21a38.16 38.16 0 0 1 3.71 5.53l-3.03 1.91h3.4l.85-.22zm23.77-2.84v24.13h-5v-1.6h-4v12.44h-5.14v-12.44h-4v2h-4.78v-24.53h8.76v-6.37h5.14v6.37zm-18.1 4.7v4.21h4v-4.21zm4 13.19v-4.34h-4v4.36zm5.14-13.19v4.21h4v-4.21zm4 13.19v-4.34h-4v4.36z"/><path d="m488.26 67.72c0 1.64-.17 3-1.1 3.76a4.78 4.78 0 0 1 -3.46.93 13.69 13.69 0 0 0 -1.1-4.2v13.9h-4.6v-28.6h-1.77v19.49h-3.85v-24h5.62v-8.1h4.56v8.1h5.66zm-4.07.31c.27 0 .35-.09.35-.44v-14.08h-1.94v14.49zm27.89-25.72v15.63h-5.08v-11.73h-12.4v11.73h-4.87v-15.63zm-21.25 17.09h20.17v22.66h-4.9v-1.32h-10.58v1.32h-4.69zm4.69 4.07v2h10.58v-2zm10.58 7.53v-2h-10.58v2zm0 5.71v-2.13h-10.58v2.17zm-.09-25h-10.4v-3.29h10.39zm-10.4 2.29h10.39v3.32h-10.4z"/></g></svg>