<svg height="132.67" viewBox="0 0 1750.5 132.67" width="1750.5" xmlns="http://www.w3.org/2000/svg"><g fill="#e8b356" opacity=".15"><path d="m140.48 3.9q26.34 0 43.52 5.1t26.92 13.86a48.8 48.8 0 0 1 13.76 20 69.62 69.62 0 0 1 4 23.51 62.77 62.77 0 0 1 -4.49 23.51 51.46 51.46 0 0 1 -14.73 20q-10.24 8.78-27.12 13.85t-41.85 5.07h-140.49v-124.9zm-91.7 85.85h89.75a100.44 100.44 0 0 0 18.53-1.46 35.11 35.11 0 0 0 12.2-4.39 17.36 17.36 0 0 0 6.63-7.32 23.93 23.93 0 0 0 2.05-10.24 24 24 0 0 0 -2.05-10.25 17.4 17.4 0 0 0 -6.63-7.31 34.91 34.91 0 0 0 -12.2-4.39 99.49 99.49 0 0 0 -18.53-1.47h-89.75z"/><path d="m370.12 132.67q-42.54 0-68.48-7.51t-37.76-22.24q-11.81-14.73-11.8-36.58t11.8-36.59q11.81-14.75 37.76-22.24t68.48-7.51q42.53 0 68.48 7.51t37.76 22.24q11.79 14.74 11.8 36.59t-11.8 36.58q-11.82 14.73-37.76 22.24t-68.48 7.51zm0-37.07a214 214 0 0 0 34.73-2.44q14.63-2.43 22.63-8.78t8-18q0-11.72-8-18.05t-22.63-8.78a214 214 0 0 0 -34.73-2.44 223.22 223.22 0 0 0 -35.22 2.44q-15.12 2.45-23.61 8.74t-8.48 18.05q0 11.7 8.48 18t23.61 8.78a223.22 223.22 0 0 0 35.22 2.48z"/><path d="m709.22 90.53-18.15 10.34v-96.97h48.78v124.87h-48.78l-146.92-85.07 18.15-10.53v95.6h-48.78v-124.87h48.78z"/><path d="m755.45 128.77 83.71-124.87h54.24l84.48 124.87h-53.66l-72.38-111.77h29.07l-71.8 111.8zm43.71-18.92v-29.27h133.45v29.27z"/><path d="m960.32 3.9h202.91v37.1h-202.91zm77.07 34.54h48.77v90.33h-48.77z"/><path d="m1185.67 3.9h48.77v124.87h-48.77z"/><path d="m1380.78 132.67q-42.54 0-68.49-7.51t-37.75-22.24q-11.8-14.73-11.81-36.58t11.81-36.59q11.81-14.75 37.75-22.24t68.49-7.51q42.53 0 68.48 7.51t37.74 22.24q11.81 14.74 11.81 36.59t-11.81 36.58q-11.8 14.73-37.75 22.24t-68.47 7.51zm0-37.07a213.78 213.78 0 0 0 34.72-2.44q14.64-2.43 22.64-8.78t8-18q0-11.72-8-18.05t-22.64-8.78a213.78 213.78 0 0 0 -34.72-2.44 223.22 223.22 0 0 0 -35.22 2.44q-15.12 2.45-23.56 8.74t-8.49 18.05q0 11.7 8.49 18t23.61 8.78a223.22 223.22 0 0 0 35.17 2.48z"/><path d="m1719.87 90.53-18.14 10.34v-96.97h48.77v124.87h-48.77l-146.92-85.07 18.19-10.53v95.6h-48.78v-124.87h48.78z"/></g></svg>