<?xml version="1.0" encoding="UTF-8"?>
<svg id="b" data-name="圖層 2" xmlns="http://www.w3.org/2000/svg" width="1013.61" height="84.67" viewBox="0 0 1013.61 84.67">
  <defs>
    <style>
      .d {
        fill: #e8b356;
      }

      .e {
        fill: #ca954a;
      }

      .f {
        opacity: .2;
      }
    </style>
  </defs>
  <g id="c" data-name="圖層 1">
    <g>
      <g class="f">
        <g>
          <path class="d" d="M29.13,61.63v-21.79h62.13c2.49,0,4.58-.39,6.29-1.18,1.7-.79,2.55-2.47,2.55-5.04s-.85-4.36-2.55-5.1c-1.7-.75-3.8-1.12-6.29-1.12H31.13v54.78H0V2.49H86.41c6.23,0,12.06,.44,17.49,1.31,5.44,.87,10.19,2.43,14.26,4.67,4.07,2.24,7.26,5.4,9.59,9.46,2.32,4.07,3.49,9.3,3.49,15.69s-1.16,11.45-3.49,15.19c-2.33,3.74-5.52,6.52-9.59,8.34-4.07,1.83-8.82,3.03-14.26,3.61-5.44,.58-11.27,.87-17.49,.87H29.13Z"/>
          <path class="d" d="M146.79,82.17V2.49h96.24c7.55,0,14.34,.85,20.36,2.55,6.02,1.7,10.79,4.54,14.32,8.53,3.53,3.98,5.29,9.42,5.29,16.31,0,4.57-.83,8.34-2.49,11.33-1.66,2.99-3.94,5.31-6.85,6.97-2.91,1.66-6.23,2.86-9.96,3.61-3.74,.75-7.64,1.2-11.7,1.37l-9.09-1.74c9.88,.08,17.49,.5,22.85,1.25,5.35,.75,9.09,2.1,11.21,4.05,2.12,1.95,3.17,4.75,3.17,8.4v17.06h-31.13v-13.32c0-2.49-.48-4.38-1.43-5.67-.96-1.29-3.03-2.18-6.23-2.68-3.2-.5-8.11-.75-14.75-.75h-48.68v22.41h-31.13Zm31.13-43.2h65.12c2.49,0,4.59-.41,6.29-1.25,1.7-.83,2.55-2.41,2.55-4.73,0-2.16-.85-3.63-2.55-4.42-1.7-.79-3.8-1.18-6.29-1.18h-65.12v11.58Z"/>
          <path class="d" d="M374.27,84.67c-18.1,0-32.66-1.6-43.7-4.79-11.04-3.19-19.07-7.92-24.09-14.19-5.02-6.27-7.53-14.05-7.53-23.34s2.51-17.08,7.53-23.35c5.02-6.27,13.05-11,24.09-14.19,11.04-3.19,25.61-4.79,43.7-4.79s32.66,1.6,43.7,4.79c11.04,3.2,19.07,7.93,24.09,14.19,5.02,6.27,7.53,14.05,7.53,23.35s-2.51,17.08-7.53,23.34c-5.02,6.27-13.05,11-24.09,14.19-11.04,3.19-25.61,4.79-43.7,4.79Zm0-23.66c8.55,0,15.94-.52,22.16-1.56,6.23-1.04,11.04-2.9,14.44-5.6,3.4-2.7,5.1-6.54,5.1-11.52s-1.7-8.82-5.1-11.52c-3.4-2.7-8.22-4.56-14.44-5.6-6.23-1.04-13.61-1.56-22.16-1.56s-16.04,.52-22.47,1.56c-6.43,1.04-11.46,2.91-15.07,5.6-3.61,2.7-5.42,6.54-5.42,11.52s1.81,8.82,5.42,11.52c3.61,2.7,8.63,4.57,15.07,5.6,6.43,1.04,13.92,1.56,22.47,1.56Z"/>
          <path class="d" d="M539.73,41.21V2.49h31.13V44.95c0,4.73-1.06,9.36-3.17,13.88-2.12,4.52-5.44,8.65-9.96,12.39-4.52,3.74-10.33,6.7-17.43,8.9-7.1,2.2-15.58,3.3-25.46,3.3-6.89,0-13.68-.64-20.36-1.93-6.68-1.29-12.72-3.38-18.12-6.29-5.4-2.9-9.71-6.79-12.95-11.64-3.24-4.86-4.9-10.85-4.98-17.99h29.88c1.16,5.15,3.84,8.8,8.03,10.96,4.19,2.16,10.35,3.24,18.49,3.24,6.89,0,12.12-.79,15.69-2.37,3.57-1.58,6-3.78,7.28-6.6,1.29-2.82,1.93-6.02,1.93-9.59Z"/>
          <path class="d" d="M619.42,48.56v9.96h94.62v23.66h-125.75V2.49h125.5V26.15h-94.38v9.96h77.19v12.45h-77.19Z"/>
          <path class="d" d="M875.28,48.93c-.42,7.89-3.28,14.49-8.59,19.8-5.31,5.31-13.14,9.3-23.47,11.95s-23.39,3.98-39.16,3.98c-12.04,0-22.83-.64-32.37-1.93-9.55-1.29-17.68-3.49-24.4-6.6-6.72-3.11-11.87-7.37-15.44-12.76-3.57-5.39-5.35-12.2-5.35-20.42s1.78-15.08,5.35-20.61c3.57-5.52,8.72-9.92,15.44-13.2,6.72-3.28,14.86-5.62,24.4-7.03,9.54-1.41,20.34-2.12,32.37-2.12,15.77,0,28.84,1.43,39.22,4.3,10.38,2.86,18.22,7.08,23.53,12.64,5.31,5.56,8.17,12.33,8.59,20.29h-32.37c-1-2.66-2.82-5-5.48-7.03-2.66-2.03-6.64-3.63-11.95-4.79-5.31-1.16-12.49-1.74-21.54-1.74-10.63,0-19.26,.64-25.9,1.93-6.64,1.29-11.5,3.34-14.57,6.16-3.07,2.82-4.61,6.56-4.61,11.21,0,4.23,1.54,7.68,4.61,10.33,3.07,2.66,7.93,4.61,14.57,5.85,6.64,1.24,15.27,1.87,25.9,1.87,9.05,0,16.21-.54,21.48-1.62,5.27-1.08,9.23-2.55,11.89-4.42,2.66-1.87,4.48-3.88,5.48-6.04h32.37Z"/>
          <path class="d" d="M884.12,2.49h129.49V26.15h-129.49V2.49Zm49.18,22.04h31.13v57.65h-31.13V24.53Z"/>
        </g>
      </g>
      <g>
        <path class="e" d="M426,64.1c-1.73,.49-3.45,.93-5.22,1.42v10.76c0,2.57-.49,3.85-1.99,4.65-1.46,.75-3.59,.97-6.68,.93-.18-1.33-.84-3.41-1.5-4.78,1.77,.09,3.59,.09,4.16,.09,.62-.04,.84-.22,.84-.89v-9.38l-4.65,1.15-1.37-5c1.73-.35,3.81-.84,6.02-1.37v-7.75h-5.44v-4.87h5.44v-8.41h5.18v8.41h5.13v4.87h-5.13v6.46l4.56-1.15,.66,4.87Zm23.51,12.48c0,2.48-.49,3.76-2.12,4.56-1.59,.8-3.85,.89-6.91,.89-.22-1.5-.89-3.54-1.5-4.87,1.73,.09,3.76,.09,4.34,.09s.8-.22,.8-.75v-3.01c-3.98,1.15-8.01,2.21-11.33,3.1l-1.24-3.54c-.66,3.36-1.86,6.68-3.85,9.3-.97-.84-3.32-2.39-4.52-2.92,3.54-4.47,3.9-10.85,3.9-15.36v-7.26h22.44v19.79Zm-1.37-22.04h-19.96v-12.44h19.96v12.44Zm-6.77,14.7c-2.08-1.06-6.02-2.3-9.12-3.01-.04,1.68-.18,3.5-.49,5.31,3.28-.58,7.83-1.5,12.35-2.43v-7.83h-11.82v2.88c0,.62,0,1.24-.04,1.9l1.95-3.36c3.05,.49,7.13,1.59,9.3,2.66l-2.12,3.9Zm1.64-22.97h-9.87v4.07h9.87v-4.07Z"/>
        <path class="e" d="M462.83,61.05c0,6.06-.53,14.52-3.23,20.01-.75-.8-2.61-2.26-3.59-2.75,2.3-5,2.52-12.22,2.52-17.62v-13.77h7.88v-6.33h4.87v1.81h8.1v3.01h-8.1v1.5h6.15l.62-.18,3.14,.75c-.66,2.08-1.42,4.47-2.12,6.11l-3.72-.88c.22-.66,.49-1.5,.75-2.39h-6.29v1.42l5.05-.53,.35,2.3-5.4,.62c.04,.71,.27,.93,1.06,.93h4.78c.8,0,2.35-.04,3.1-.22,.04,.84,.09,1.73,.22,2.52-.66,.18-1.99,.22-3.14,.22h-5.58c-2.74,0-3.59-.93-3.72-3.14l-3.01,.35-.35-2.35,3.36-.35v-1.77h-3.72v8.1h16.82v2.61h-16.82Zm27.89-3.85c1.06,8.59,3.14,16.42,7.44,20.58-1.2,.97-2.88,2.88-3.67,4.25-2.83-3.1-4.74-7.53-6.02-12.79-1.24,4.56-3.28,9.03-6.51,12.75-.53-.66-1.46-1.59-2.39-2.35-.18,.49-.44,.89-.97,1.2-.93,.53-2.21,.58-3.85,.58-.13-.97-.53-2.26-.97-3.14h1.9c.31,0,.4-.09,.4-.44v-6.2h-2.21l1.73,.71c-.58,.75-1.11,1.46-1.59,2.12h1.86v2.21h-3.28v4.25h-3.05v-4.25h-3.32v-2.21h1.77c-.35-.71-.8-1.42-1.24-2.04l1.81-.8h-2.39v9.74h-3.67v-12.39h17.31v7.3c4.16-5.71,5.22-13.06,5.44-19.08h-5.09v-4.78h5.18v-11.69h5v11.69h7.13v4.78h-6.73Zm-26.03,10.71v-5.75h12.93v5.75h-12.93Zm3.36-2.21h6.02v-1.33h-6.02v1.33Zm3.01,8.76c.66-.89,1.37-1.99,1.81-2.83h-3.81c.71,.84,1.42,1.95,1.73,2.83h.27Zm22.49-23.37c-.44-2.08-1.73-5.18-3.14-7.57l3.9-1.42c1.46,2.26,2.92,5.36,3.41,7.35l-4.16,1.64Z"/>
        <path class="e" d="M520.63,68.39c-5.36,2.04-11.11,4.12-15.54,5.71l-2.17-5.05c1.68-.49,3.81-1.11,6.11-1.82v-17h-4.91v-4.87h15.14v4.87h-4.91v15.36l5.44-1.77,.84,4.56Zm5.84,4.87l4.07,2.88c-2.92,2.26-7.57,4.56-11.46,5.8-.71-1.02-2.12-2.61-3.19-3.58,3.59-1.11,7.97-3.28,10.23-5.09h-4.47v-23.37h6.95c.22-1.02,.4-2.08,.58-3.05h-9.34v-4.43h25.05v4.43h-9.78c-.35,1.06-.75,2.08-1.11,3.05h9.25v23.37h-16.78Zm.04-16.69h11.6v-2.79h-11.6v2.79Zm0,6.38h11.6v-2.83h-11.6v2.83Zm0,6.46h11.6v-2.83h-11.6v2.83Zm10.31,3.98c2.79,1.5,6.77,3.85,8.81,5.53l-4.16,3.1c-1.81-1.64-5.67-4.16-8.54-5.84l3.9-2.79Z"/>
        <path class="e" d="M586.63,43.03v38.47h-5.58v-2.74h-20.49v2.74h-5.31V43.03h31.38Zm-26.07,5.13v5.09h20.49v-5.09h-20.49Zm0,10.05v5.22h20.49v-5.22h-20.49Zm20.49,15.41v-5.22h-20.49v5.22h20.49Z"/>
      </g>
    </g>
  </g>
</svg>