<svg xmlns="http://www.w3.org/2000/svg" width="57.44" height="57.79" viewBox="0 0 57.44 57.79">
  <defs>
    <style>
      .cls-1 {
        fill: none;
        stroke: #fff;
        stroke-miterlimit: 10;
        stroke-width: 1.5px;
      }

      .cls-2 {
        fill: #fff;
      }
    </style>
  </defs>
  <g id="圖層_2" data-name="圖層 2">
    <g id="圖層_1-2" data-name="圖層 1">
      <path class="cls-1" d="M.94,7.77,17.4.87A30.93,30.93,0,0,0,40.3.81l16.85,7"/>
      <path class="cls-1" d="M.94,26.39,17.4,33.3a31,31,0,0,1,22.9.05l16.85-7"/>
      <line class="cls-1" y1="17.08" x2="57.15" y2="17.08"/>
      <g>
        <path class="cls-2" d="M8,45.17l2.78,8.66,2.77-8.66h4V57.62h-3V54.71l.29-6-3,8.86h-2l-3-8.87.29,6v2.91h-3V45.17Z"/>
        <path class="cls-2" d="M27.84,52.33H23.12v3H28.7v2.31H20.12V45.17h8.6v2.31h-5.6v2.63h4.72Z"/>
        <path class="cls-2" d="M41,57.62H38l-4.42-7.75v7.75h-3V45.17h3L38,52.91V45.17h3Z"/>
        <path class="cls-2" d="M53.39,45.17v8.15a4.68,4.68,0,0,1-.59,2.39,3.79,3.79,0,0,1-1.69,1.55,6,6,0,0,1-2.61.53,5.16,5.16,0,0,1-3.59-1.18,4.24,4.24,0,0,1-1.33-3.23V45.17h3v8.27c0,1.36.67,2,1.9,2A1.84,1.84,0,0,0,49.91,55a2.41,2.41,0,0,0,.48-1.67V45.17Z"/>
      </g>
    </g>
  </g>
</svg>
