<?xml version="1.0" encoding="UTF-8"?>
<svg id="b" data-name="圖層 2" xmlns="http://www.w3.org/2000/svg" width="647.2" height="441.34" xmlns:xlink="http://www.w3.org/1999/xlink" viewBox="0 0 647.2 441.34">
  <defs>
    <style>
      .j {
        fill: url(#h);
      }

      .k {
        fill: url(#i);
      }

      .l {
        fill: url(#f);
      }

      .m {
        fill: url(#g);
      }

      .n {
        fill: url(#e);
      }

      .o {
        fill: url(#d);
      }
    </style>
    <linearGradient id="d" x1="517.36" y1="384.82" x2="502.68" y2="91.18" gradientTransform="matrix(1, 0, 0, 1, 0, 0)" gradientUnits="userSpaceOnUse">
      <stop offset="0" stop-color="#fdd7c7"/>
      <stop offset=".22" stop-color="#e9a396"/>
      <stop offset=".48" stop-color="#d57065"/>
      <stop offset=".7" stop-color="#c74b42"/>
      <stop offset=".88" stop-color="#be342c"/>
      <stop offset=".99" stop-color="#bb2c25"/>
    </linearGradient>
    <linearGradient id="e" x1="551.71" y1="383.11" x2="537.03" y2="89.46" xlink:href="#d"/>
    <linearGradient id="f" x1="520.08" y1="384.69" x2="505.4" y2="91.04" xlink:href="#d"/>
    <linearGradient id="g" x1="154.63" y1="402.96" x2="139.95" y2="109.31" xlink:href="#d"/>
    <linearGradient id="h" x1="118.54" y1="404.76" x2="103.85" y2="111.12" xlink:href="#d"/>
    <linearGradient id="i" x1="149.18" y1="403.23" x2="134.5" y2="109.59" xlink:href="#d"/>
  </defs>
  <g id="c" data-name="說明">
    <g>
      <path class="o" d="M512.29,359.06c.16-.11,.32-.22,.46-.3,.53-.34,1.1-.66,1.68-.97,1.17-.63,2.4-1.2,3.65-1.77,2.5-1.12,5.08-2.14,7.68-3.12-2.79,.33-5.57,.7-8.37,1.2-1.4,.26-2.79,.53-4.2,.88-.61,.16-1.22,.33-1.84,.52-3.38-12.86-7.23-27.3-11.27-41.31,.15-.11,.31-.21,.44-.29,.53-.34,1.1-.66,1.68-.97,1.17-.63,2.4-1.21,3.65-1.77,2.5-1.12,5.08-2.14,7.68-3.12-2.79,.33-5.57,.7-8.37,1.2-1.4,.26-2.79,.53-4.2,.88-.63,.16-1.26,.34-1.91,.54-6.95-23.75-14.38-45.71-20.89-55.76,1.52-.66,3.04-1.34,4.54-2.04,.61-.28,1.21-.57,1.82-.86,.6-.29,1.21-.58,1.81-.87,1.2-.59,2.39-1.19,3.58-1.8,2.38-1.21,4.73-2.48,7.06-3.76,2.33-1.28,4.64-2.61,6.94-3.95,2.29-1.35,4.56-2.72,6.82-4.11,.78-.49,1.56-.98,2.34-1.47,8.36,25.67,20.42,58.99,24.57,82.65,4.44,25.3,9.38,56.36,13.18,82.37,.22,1.48,.17,2.14-.36,3.33,0,0-.29,1.66-2.36,2.22-6.79,1.83-22,3.08-28.34-19.5-1.94-6.91-4.5-16.77-7.45-28.05Z"/>
      <path class="n" d="M547.66,332.29c.14-.12,.31-.25,.49-.37,.38-.26,.82-.51,1.26-.76,.9-.49,1.87-.93,2.85-1.36,1.98-.85,4.04-1.6,6.12-2.31-2.22,.05-4.44,.14-6.69,.36-1.13,.12-2.26,.25-3.41,.46-.49,.09-.99,.21-1.5,.35-3.22-13.36-6.7-27.42-11.11-42.07,.37-.26,.8-.5,1.23-.74,.9-.49,1.87-.93,2.85-1.36,1.98-.85,4.04-1.6,6.12-2.31-2.22,.05-4.44,.14-6.69,.36-1.13,.12-2.26,.25-3.41,.46-.36,.07-.74,.17-1.11,.26-4.86-15.72-10.87-32.07-18.89-48.92,.55-.36,1.11-.71,1.66-1.07,2.21-1.45,4.42-2.9,6.61-4.39,4.37-2.97,8.67-6.03,12.89-9.18,4-2.99,7.94-6.06,11.79-9.23,14.92,46,30.27,116.21,30.88,164.03,.11,8.66-10.76,7.67-15.54,2.97-5.41-5.32-9.06-15.87-10.9-22.91-1.87-7.15-3.66-14.59-5.51-22.25Z"/>
      <path class="l" d="M620.65,112.8c8.59,27.97,14.66,56.72,26.04,83.8,.46,1.1,.63,2.32,.45,3.14-.72,.93-1.27,1.43-2.46,1.91-6.65,2.7-14.75,2.1-21.5-.63-7.97-3.22-14.4-8.99-20.2-15-6.52-6.76-10.84-17.07-14.64-27.66,.41,.02,.82,.04,1.25,.06,1.9,.03,3.76-.16,5.56-.5,3.6-.74,6.93-2.08,9.92-3.83-3.31,1.14-6.77,1.78-10.15,1.81-1.69-.01-3.36-.17-4.95-.51-1.03-.21-2.07-.56-3-.94-3.05-8.75-5.9-17.41-9.47-24.13-.79-1.48-3.77-5.61-6.65-5.45-2.87,.15-3.19,5.71-2.86,9.83,1.81,11.39,5.35,22.85,10.15,34.06l8.39,20.53c14.79,42.4,17.68,86.68,21.7,133.01,1.9,21.9-19.01,9.9-23.52-5.73-1.01-3.49-3-11.85-5.52-22.33,.03-.02,.05-.03,.13-.09l-.05-.04s.07-.06,.08-.08c.15-.13,.32-.26,.52-.39,.38-.26,.82-.51,1.26-.76,.9-.49,1.87-.93,2.85-1.36,1.98-.85,4.04-1.6,6.12-2.31-2.22,.05-4.44,.14-6.69,.36-1.13,.12-2.26,.25-3.41,.46-.56,.11-1.14,.23-1.73,.4-2.38-9.91-5.15-21.29-7.95-32.16,.3-.19,.6-.38,.93-.56,.9-.49,1.87-.93,2.85-1.36,1.98-.85,4.04-1.6,6.12-2.31-2.22,.05-4.44,.14-6.69,.36-1.13,.12-2.26,.25-3.41,.46-.21,.04-.43,.1-.65,.15-4.24-16.18-11.35-33.32-14.43-39.2-1.57-3-3.18-6.12-3.66-7.6,1.32-1.12,2.64-2.26,3.92-3.42,.97-.87,1.94-1.75,2.9-2.64l.1-.09-2.57,1.16c-.38,.27-.75,.54-1.13,.8-2.15,1.51-4.31,3.02-6.47,4.51-4.33,2.98-8.68,5.93-13.06,8.84l-3.29,2.18-3.29,2.17c-2.2,1.43-4.4,2.88-6.61,4.3-2.21,1.42-4.42,2.85-6.65,4.24-2.22,1.41-4.45,2.8-6.69,4.18-8.95,5.52-18,10.9-27.31,15.86-4.65,2.47-9.37,4.84-14.22,6.96-2.42,1.06-4.88,2.06-7.38,2.94-2.51,.88-5.07,1.64-7.72,2.16,1.35-.05,2.7-.21,4.05-.4,.67-.12,1.34-.22,2-.36l1-.2,.99-.22c2.65-.6,5.24-1.39,7.8-2.25,2.5-.85,4.95-1.78,7.38-2.77,2.93,9.14,17.94,56.36,20.69,73.02,2.87,17.34,11.38,46.24,9.79,61.44-.77,7.32-16.63,5.26-21.17-2.71-7.32-12.84-11.19-22.96-14.04-32.63,.19-.11,.35-.22,.55-.33,.9-.49,1.87-.93,2.85-1.36,1.98-.85,4.04-1.6,6.12-2.31-2.22,.05-4.44,.14-6.69,.36-1.13,.12-2.26,.25-3.41,.46-.1,.02-.2,.05-.3,.07-3.05-11.04-5.08-21.79-9.77-35.69-.7-2.09-1.45-4.19-2.23-6.29,.3-.19,.6-.38,.92-.56,.9-.49,1.87-.93,2.85-1.36,1.98-.85,4.04-1.6,6.12-2.31-2.22,.05-4.44,.14-6.69,.36-1.13,.12-2.26,.25-3.41,.46-.33,.06-.68,.16-1.02,.23-5.16-13.38-11.78-26.91-19.73-39.66l-10.68-15.22c-4.67-5.93-9.12-12.11-13.29-18.6-33.22-51.68-52.85-96.52-35.44-154.49,.98-3.26,2.08-6.53,3.4-9.7h0c2.19-5.26,5.01-10.25,8.92-14.53,1.26-1.37,3.84-3.47,7.2-5.59,15.49-15.17,43.73-35.21,91.34-46.47,.73-.25,1.47-.49,2.21-.73,1.9-.6,3.87-1.06,5.9-1.35,1.13-.16,2.26-.29,3.39-.39h.05c20.56-1.88,42.29,5.82,58.84,16.48,6.96,4.48,13.37,9.68,19.09,15.48,22,22.33,34.2,51.45,43.15,80.55Z"/>
    </g>
    <g>
      <path class="m" d="M158.31,388.24c-.18-.1-.36-.19-.51-.26-.58-.29-1.21-.56-1.85-.83-1.28-.53-2.62-1-3.97-1.45-2.71-.9-5.49-1.69-8.3-2.43,2.91,.05,5.83,.15,8.77,.37,1.47,.12,2.95,.26,4.44,.48,.64,.1,1.3,.21,1.96,.35,1.95-13.61,4.2-28.9,6.7-43.77-.17-.09-.34-.19-.48-.25-.58-.29-1.21-.56-1.85-.83-1.28-.53-2.62-1-3.97-1.45-2.71-.9-5.49-1.69-8.3-2.43,2.91,.05,5.83,.15,8.77,.37,1.47,.12,2.95,.26,4.44,.48,.67,.1,1.34,.22,2.03,.36,4.33-25.21,9.38-48.63,14.89-59.67-1.65-.52-3.29-1.07-4.92-1.64-.66-.23-1.32-.46-1.98-.7-.66-.23-1.31-.47-1.97-.71-1.31-.48-2.61-.98-3.91-1.49-2.6-1-5.17-2.07-7.74-3.15-2.56-1.08-5.1-2.22-7.63-3.36-2.52-1.15-5.03-2.34-7.53-3.54-.87-.42-1.73-.85-2.59-1.27-5.56,27.34-14.01,62.95-15.47,87.78-1.56,26.55-2.94,59.1-3.76,86.32-.05,1.54,.08,2.22,.77,3.4,0,0,.5,1.68,2.7,2.05,7.22,1.19,23.06,.91,26.91-23.03,1.18-7.33,2.64-17.76,4.34-29.7Z"/>
      <path class="j" d="M118.63,364.27c-.16-.11-.34-.22-.55-.33-.42-.23-.91-.45-1.39-.65-.99-.41-2.04-.77-3.1-1.11-2.14-.67-4.35-1.24-6.59-1.76,2.29-.18,4.6-.31,6.95-.32,1.17,0,2.36,.02,3.57,.13,.52,.05,1.05,.12,1.59,.2,1.73-14.11,3.63-28.98,6.43-44.54-.42-.23-.88-.43-1.36-.64-.99-.41-2.04-.77-3.11-1.11-2.14-.67-4.35-1.24-6.59-1.76,2.29-.18,4.6-.31,6.95-.32,1.17,0,2.36,.02,3.57,.13,.38,.03,.78,.1,1.17,.15,3.14-16.71,7.38-34.2,13.64-52.41-.61-.31-1.23-.62-1.84-.93-2.46-1.27-4.91-2.54-7.34-3.85-4.86-2.62-9.66-5.33-14.39-8.14-4.49-2.67-8.92-5.43-13.26-8.31-9.89,48.98-17.34,122.98-12.26,172.37,.92,8.94,12.01,6.8,16.38,1.47,4.95-6.04,7.45-17.31,8.5-24.75,1.07-7.57,2.03-15.42,3.02-23.52Z"/>
      <path class="k" d="M17.13,145.39c-5.52,29.74-8.35,60.01-16.85,89.11-.34,1.18-.37,2.46-.09,3.28,.85,.88,1.48,1.35,2.76,1.72,7.18,2.09,15.46,.64,22.11-2.87,7.83-4.14,13.78-10.75,19.04-17.55,5.92-7.64,9.14-18.73,11.8-30.04-.42,.07-.85,.13-1.28,.19-1.95,.23-3.9,.22-5.8,.06-3.8-.39-7.4-1.43-10.69-2.93,3.55,.84,7.2,1.13,10.69,.82,1.74-.19,3.44-.52,5.05-1.03,1.04-.33,2.07-.79,2.98-1.27,2.11-9.34,4-18.56,6.88-25.86,.63-1.61,3.22-6.17,6.21-6.31,2.98-.14,3.97,5.56,4.12,9.85-.51,11.94-2.79,24.12-6.4,36.18l-6.21,22.05c-10.19,45.26-7.88,91.23-6.49,139.43,.66,22.78,20.79,8.25,23.57-8.33,.62-3.7,1.68-12.53,3.02-23.6-.03-.01-.06-.03-.14-.08l.04-.04s-.07-.06-.09-.07c-.17-.12-.37-.24-.58-.35-.42-.23-.91-.45-1.39-.65-.99-.41-2.04-.77-3.11-1.11-2.14-.67-4.35-1.24-6.59-1.76,2.29-.18,4.6-.31,6.95-.32,1.17,0,2.36,.02,3.57,.13,.6,.05,1.2,.12,1.83,.23,1.27-10.47,2.76-22.49,4.36-33.99-.33-.16-.67-.33-1.03-.48-.99-.41-2.04-.77-3.11-1.11-2.14-.67-4.35-1.24-6.59-1.76,2.29-.18,4.6-.31,6.95-.32,1.18,0,2.36,.02,3.57,.13,.22,.02,.46,.06,.68,.09,2.44-17.12,7.73-35.54,10.2-41.92,1.26-3.26,2.55-6.64,2.87-8.21-1.5-1.02-2.99-2.06-4.46-3.12-1.11-.8-2.21-1.61-3.3-2.43l-.11-.09,2.79,.94c.42,.24,.84,.48,1.26,.71,2.4,1.33,4.8,2.67,7.21,3.98,4.82,2.63,9.66,5.22,14.52,7.77l3.65,1.91,3.65,1.9c2.44,1.25,4.88,2.51,7.33,3.75,2.45,1.24,4.9,2.48,7.36,3.69,2.46,1.22,4.92,2.43,7.4,3.62,9.89,4.77,19.87,9.39,30.06,13.54,5.1,2.07,10.25,4.03,15.5,5.72,2.62,.85,5.28,1.62,7.97,2.27,2.69,.65,5.42,1.17,8.22,1.43-1.4,.08-2.81,.06-4.22,0-.7-.05-1.41-.09-2.11-.17l-1.05-.1-1.05-.13c-2.8-.35-5.57-.89-8.32-1.51-2.68-.61-5.32-1.32-7.94-2.1-1.93,9.73-11.77,59.98-12.62,77.45-.89,18.18-6.22,48.87-2.76,64.38,1.67,7.47,17.78,3.71,21.52-4.97,6.02-14,8.8-24.84,10.58-35.1-.2-.09-.39-.19-.6-.28-.99-.41-2.04-.77-3.11-1.11-2.14-.67-4.35-1.24-6.59-1.76,2.29-.18,4.6-.31,6.95-.32,1.18,0,2.36,.02,3.57,.13,.1,0,.21,.03,.32,.04,1.83-11.7,2.64-23,5.82-37.82,.48-2.23,.99-4.47,1.54-6.72-.33-.16-.66-.33-1.02-.48-.99-.41-2.04-.77-3.11-1.11-2.14-.67-4.35-1.24-6.59-1.76,2.29-.18,4.6-.31,6.95-.32,1.17,0,2.36,.02,3.57,.13,.35,.03,.72,.09,1.08,.14,3.73-14.34,8.93-28.97,15.62-42.94l9.2-16.8c4.11-6.6,7.96-13.43,11.49-20.56,28.1-56.73,42.99-105,18.11-163.01-1.4-3.27-2.92-6.52-4.67-9.66h0c-2.89-5.2-6.39-10.06-10.94-14.07-1.46-1.29-4.38-3.19-8.09-5.02-17.79-14.05-49.31-31.81-99.76-38.52-.79-.18-1.58-.36-2.37-.52-2.03-.43-4.12-.69-6.25-.79-1.18-.05-2.36-.07-3.54-.06h-.05c-21.43,.19-42.92,10.36-58.73,23.06-6.64,5.34-12.64,11.37-17.84,17.94-20.02,25.3-29.14,56.59-34.88,87.53Z"/>
    </g>
  </g>
</svg>