<svg height="175.48" viewBox="0 0 199.4 175.48" width="199.4" xmlns="http://www.w3.org/2000/svg"><g fill="#fc462d"><path d="m30.86 155.38a19.89 19.89 0 0 1 -4 4.45 12.84 12.84 0 0 0 -1.62-2c-.34 6-1.29 12.65-3.58 17.43a19.06 19.06 0 0 0 -4.2-2.33c3.12-6.41 3.37-15.64 3.37-22.22v-12.71h35.17v4.45h-30.55v8.32c0 1.63 0 3.41-.12 5.33a15.85 15.85 0 0 0 3.79-3.83h-2.79v-3.45h4.53v-1.88c-1.33.13-2.62.25-3.82.29a12.71 12.71 0 0 0 -1.04-2.75c3.62-.29 7.74-.88 10-1.79l3 2.5a31 31 0 0 1 -4.08 1.12v2.5h4.33v3.45h-3.85c1.21.75 3.25 2 3.87 2.46l-2.37 3c-.42-.46-1.21-1.21-2-2v4h-4zm12.24 14.9h13v4.07h-31.56v-4.07h4.46v-7.83h4.75v7.83h4.49v-10.78h2.36a15.21 15.21 0 0 0 -2.5-2.66 16.23 16.23 0 0 0 4.83-4.58h-2.66v-3.45h4.78v-2c-1.45.17-2.95.25-4.37.33a8.92 8.92 0 0 0 -1-2.78c4-.34 8.65-1 11.19-1.92l3 2.5a30.72 30.72 0 0 1 -4.71 1.2v2.63h5.91v3.45h-5.23c1.75 1.08 5.57 3.62 6.57 4.37l-2.2 3.16c-1.08-1.08-3.21-2.83-5-4.24v4.2h-4.16v-4.91a17.42 17.42 0 0 1 -3.87 4.7h1.92v3.41h9.44v3.83h-9.44z"/><path d="m85.7 157.84a17.37 17.37 0 0 1 -3.12 9.16c5.12 2.2 11.78 2.74 20.43 2.87a13 13 0 0 0 -2.28 5.16c-9-.46-16.27-1.46-21.89-4.37-2.83 2-6.74 3.66-12.15 4.87a21.54 21.54 0 0 0 -3-4.41 34.51 34.51 0 0 0 10.74-3.46 23.94 23.94 0 0 1 -5.74-7.69l4.53-1.63a19.84 19.84 0 0 0 5 6.12 12.46 12.46 0 0 0 2.24-6.57h-13.46v-15.41h13.59v-5.78h5.16v5.78h13.77v15.36zm-13.89-4.75h8.78v-5.87h-8.78zm13.94-5.87v5.87h8.65v-5.87z"/><path d="m116.28 157a36.43 36.43 0 0 0 -7-5.12l2.92-3.37a42.72 42.72 0 0 1 7.24 4.66zm-5.65 14.57a132.9 132.9 0 0 0 7.24-13.11l3.74 3.16c-2 4.33-4.41 9.07-6.7 13.07zm8.65-26.34a31.53 31.53 0 0 0 -7.7-4.58l2.67-3.7a31.87 31.87 0 0 1 7.9 4.28zm11.9-2.33c0 4.7-1.46 10.48-7.74 14a17.67 17.67 0 0 0 -3.37-3.87c5.49-2.87 6.2-6.83 6.2-10.24v-4.66h4.91zm-6.37 14.1h21.06v18.27h-5v-2.08h-11.27v2.25h-4.79zm4.79 4.58v7h11.28v-7zm12.9-6.49c-4.29 0-5.16-1.87-5.16-6v-11.02h4.95v11c0 1.37.08 1.87.79 1.87h2.46a9.66 9.66 0 0 0 2.49-.25 30.86 30.86 0 0 0 .38 4 7.94 7.94 0 0 1 -2.79.33z"/><path d="m193.59 169.44h-16.43v6h-5.16v-6h-16.15v-4.44h16.15v-2.5h-11.65v-10.78h11.65v-2h-7.58v-6h-7.9v-4.2h7.9v-3h4.87v3h10.53v-3h5.12v3h7.95v4.2h-7.95v6h-7.78v2h12.15v10.78h-12.15v2.5h16.43zm-21.59-10.73v-3.16h-6.66v3.16zm-2.71-12.71h10.53v-2.29h-10.53zm7.87 9.53v3.16h6.84v-3.16z"/><path d="m56.82 6.84-3.54.88 2.78 11.21-2.65.66-2.78-11.21-3.55.88-.59-2.37 9.75-2.41z"/><path d="m73 15.65-2.81.49-1.23-2.3-4.9.85-.41 2.59-2.81.48 2.6-14.65 2.11-.37zm-5.15-4-2.59-4.65-.87 5.32z"/><path d="m78 15.13-2.71.32-1.62-13.9 2.72-.31z"/><path d="m91.39 9.77a5.26 5.26 0 0 1 -1.48 3.35 5.54 5.54 0 0 1 -7.23.11 4.53 4.53 0 0 1 -1.37-2.34 19.66 19.66 0 0 1 -.31-3.14 20.55 20.55 0 0 1 0-3.17 4.42 4.42 0 0 1 1-2.49 5.18 5.18 0 0 1 3.63-1.77 5.06 5.06 0 0 1 3.51.94 5.34 5.34 0 0 1 1.91 3.14l-2.77.18a2.26 2.26 0 0 0 -2.48-1.83 2.2 2.2 0 0 0 -1.84 1c-.32.52-.42 1.78-.29 3.78l.08 1.26q0 .38.09.78c.28 1.74 1.14 2.56 2.56 2.47a2.27 2.27 0 0 0 2.23-2.04z"/><path d="m104.76 14.08h-2.73l.06-5.84h-4.74v5.83h-2.73l.08-14.07h2.73l-.06 5.72h4.74v-5.72h2.73z"/><path d="m119 10.31a4.63 4.63 0 0 1 -1.75 3.42 5.24 5.24 0 0 1 -3.79 1 5.14 5.14 0 0 1 -3.53-1.64 4.64 4.64 0 0 1 -1.19-3.68l.76-9.12 2.72.23-.75 9.07a2.67 2.67 0 0 0 .53 1.91 2.61 2.61 0 0 0 3.56.29 2.65 2.65 0 0 0 .8-1.8l.75-9.07 2.7.22z"/><path d="m132.74 17.21-2.4-.38-4.11-9.35-1.37 8.46-2.7-.43 2.23-13.81 2.41.39 4.1 9.34 1.37-8.43 2.73.4z"/><path d="m147.47 14.77a6.35 6.35 0 0 1 -2.24 3.78 4.9 4.9 0 0 1 -4.28.65 5.09 5.09 0 0 1 -3.3-2.38 4.45 4.45 0 0 1 -.61-2.63 19.58 19.58 0 0 1 .59-3.12 20.1 20.1 0 0 1 .91-3 4.42 4.42 0 0 1 1.75-2.07 5.19 5.19 0 0 1 4-.59 5.26 5.26 0 0 1 3.15 2 5.29 5.29 0 0 1 .91 3.62l-2.69-.66a2.37 2.37 0 0 0 -2-2.58c-1.35-.33-2.33.33-2.95 2l-.48 2c-.25 1-.41 1.64-.47 2-.28 1.73.29 2.76 1.71 3.11a2.47 2.47 0 0 0 2-.26 2.64 2.64 0 0 0 1.12-1.71l.13-.52-2.5-.6.54-2.22 5.24 1.19z"/><path d="m11.41 52.23a6.36 6.36 0 0 1 1.15 4.25 4.91 4.91 0 0 1 -2.56 3.52 5.11 5.11 0 0 1 -4 .7 4.56 4.56 0 0 1 -2.32-1.4 21.63 21.63 0 0 1 -1.78-2.6 20 20 0 0 1 -1.54-2.77 4.37 4.37 0 0 1 -.25-2.69 5.23 5.23 0 0 1 2.39-3.31 5.29 5.29 0 0 1 3.62-.87 5.32 5.32 0 0 1 3.23 1.87l-2.35 1.47a2.37 2.37 0 0 0 -3.23-.4q-1.77 1.11-.64 3.52l1.09 1.73q.78 1.28 1.11 1.75c1 1.4 2.18 1.72 3.42.94a2.47 2.47 0 0 0 1.25-1.62 2.67 2.67 0 0 0 -.44-2l-.28-.45-2.22 1.37-1.21-1.94 4.48-2.8z"/><path d="m24.69 47.57a4.62 4.62 0 0 1 0 3.85 5.22 5.22 0 0 1 -2.89 2.65 5.17 5.17 0 0 1 -3.89.16 4.66 4.66 0 0 1 -2.74-2.74l-3.5-8.49 2.53-1 3.46 8.42a2.67 2.67 0 0 0 1.34 1.42 2.24 2.24 0 0 0 1.91 0 2.32 2.32 0 0 0 1.4-1.34 2.72 2.72 0 0 0 -.12-2l-3.5-8.4 2.51-1z"/><path d="m40.2 47.89-2.73.8-1.47-2.15-4.77 1.4-.12 2.61-2.73.8 1-14.86 2.05-.6zm-5.56-3.35-3.07-4.4-.27 5.38z"/><path d="m52.88 45.22-2.38.5-7.18-7.27 1.75 8.39-2.68.56-2.84-13.7 2.38-.49 7.17 7.26-1.74-8.39 2.64-.55z"/><path d="m65.72 37.53a6.36 6.36 0 0 1 -.67 4.34 4.92 4.92 0 0 1 -3.74 2.19 5.11 5.11 0 0 1 -4-1 4.56 4.56 0 0 1 -1.55-2.22 22 22 0 0 1 -.59-3.11 20.93 20.93 0 0 1 -.29-3.16 4.43 4.43 0 0 1 .93-2.57 5.13 5.13 0 0 1 3.53-2 5.26 5.26 0 0 1 3.66.67 5.32 5.32 0 0 1 2.18 3l-2.74.38a2.38 2.38 0 0 0 -2.8-1.67c-1.37.2-2 1.18-2 2.94l.28 2c.13 1 .23 1.67.31 2 .38 1.7 1.3 2.45 2.74 2.25a2.45 2.45 0 0 0 1.76-1 2.67 2.67 0 0 0 .42-2l-.08-.53-2.55.36-.31-2.26 5.23-.73z"/><path d="m77.83 30.56-3.64.32 1 11.51-2.72.24-1-11.5-3.64.32-.22-2.45 10-.89z"/><path d="m84.48 41.78-2.73.15-.75-13.93 2.73-.15z"/><path d="m99.2 41.39h-2.85l-.87-2.39-5 .09-.8 2.49h-2.85l4.83-14.08h2.15zm-4.49-4.7-1.8-5-1.68 5.12z"/><path d="m112.26 41.75-2.43-.08-5.28-8.74-.27 8.57-2.73-.08.43-14 2.44.07 5.27 8.73.27-8.56 2.73.09z"/><path d="m131.5 31.78-3.64-.36-1.14 11.49-2.72-.27 1.15-11.5-3.64-.36.24-2.42 10 1z"/><path d="m142.29 45-9.11-1.38 2.09-13.83 9.11 1.38-.38 2.43-6.41-1-.49 3.24 5.46.83-.36 2.41-5.46-.83-.51 3.36 6.41 1z"/><path d="m157.83 48.31-2.66-.59 1.78-8-3.77 4.59-1.8-.4-1.47-5.76-1.78 8-2.66-.59 3.05-13.66 2.61.59 1.93 8.18 5.19-6.59 2.64.59z"/><path d="m173.94 43.25a4.11 4.11 0 0 1 -2.22 2.61 4.75 4.75 0 0 1 -3.51.13l-2.56-.83-1.61 5-2.6-.84 4.28-13.32 5.16 1.66a4.74 4.74 0 0 1 2.78 2.15 4.09 4.09 0 0 1 .28 3.44zm-2.6-.83a1.85 1.85 0 0 0 -.1-1.52 2.06 2.06 0 0 0 -1.24-.9l-2.44-.78-1.17 3.66 2.43.79a2.06 2.06 0 0 0 1.55-.05 1.8 1.8 0 0 0 .97-1.2z"/><path d="m181.82 57.1-8.29-3.68 5.68-12.79 2.49 1.11-4.7 10.56 5.8 2.58z"/><path d="m191.68 63.35-7.68-5.09 7.72-11.66 7.68 5.09-1.34 2-5.41-3.58-1.81 2.73 4.6 3.05-1.34 2-4.6-3-1.88 2.83 5.38 3.6z"/><path d="m106.64 68a3.05 3.05 0 0 1 -1.79-1.38 4.7 4.7 0 0 0 -4.16-2.7 5.35 5.35 0 0 0 -4.15 1.71.27.27 0 0 0 0 .35.84.84 0 0 1 .15.75c-.11.44-.6.69-1 .92a4.52 4.52 0 0 1 -.91.35 3 3 0 0 1 -2.24-.3 4.71 4.71 0 0 0 -5-.25 5.33 5.33 0 0 0 -2.74 3.55.3.3 0 0 0 .18.31.83.83 0 0 1 .51.56 1.81 1.81 0 0 1 -.44 1.32 4.48 4.48 0 0 1 -.62.76 3 3 0 0 1 -2.09.87 4.68 4.68 0 0 0 -4.41 2.25 5.34 5.34 0 0 0 -.6 4.45.3.3 0 0 0 .31.18.82.82 0 0 1 .72.23 1.82 1.82 0 0 1 .27 1.36 4 4 0 0 1 -.15 1 3 3 0 0 1 -1.38 1.8 4.66 4.66 0 0 0 -2.69 4.15 5.35 5.35 0 0 0 1.7 4.16.31.31 0 0 0 .36 0 .83.83 0 0 1 .74-.16c.45.12.69.61.92 1a4.18 4.18 0 0 1 .35.91 3 3 0 0 1 -.29 2.25 4.69 4.69 0 0 0 -.26 5 5.33 5.33 0 0 0 3.56 2.74.27.27 0 0 0 .3-.18.85.85 0 0 1 .57-.5 1.75 1.75 0 0 1 1.31.44 4.42 4.42 0 0 1 .76.61 3 3 0 0 1 .87 2.09 4.71 4.71 0 0 0 2.26 4.4 5.37 5.37 0 0 0 4.45.6.3.3 0 0 0 .17-.31.84.84 0 0 1 .23-.72 1.81 1.81 0 0 1 1.37-.28 4 4 0 0 1 1 .15 3 3 0 0 1 1.8 1.38 4.7 4.7 0 0 0 4.16 2.7 5.38 5.38 0 0 0 4.15-1.7.29.29 0 0 0 0-.36.86.86 0 0 1 -.16-.74c.12-.45.61-.69 1-.92a4.29 4.29 0 0 1 .92-.36 3 3 0 0 1 2.24.3 4.67 4.67 0 0 0 5 .25 5.33 5.33 0 0 0 2.75-3.55.31.31 0 0 0 -.18-.31.83.83 0 0 1 -.51-.56 1.81 1.81 0 0 1 .44-1.32 4 4 0 0 1 .62-.76 3 3 0 0 1 2.09-.86 4.71 4.71 0 0 0 4.41-2.26 5.38 5.38 0 0 0 .61-4.45.3.3 0 0 0 -.31-.17.83.83 0 0 1 -.72-.24 1.78 1.78 0 0 1 -.28-1.36 4.08 4.08 0 0 1 .15-1 3 3 0 0 1 1.38-1.8 4.67 4.67 0 0 0 2.66-4.11 5.34 5.34 0 0 0 -1.7-4.16.31.31 0 0 0 -.36 0 .8.8 0 0 1 -.74.16c-.45-.12-.69-.61-.92-1a4.18 4.18 0 0 1 -.35-.91 3 3 0 0 1 .27-2.33 4.67 4.67 0 0 0 .26-4.94 5.34 5.34 0 0 0 -3.56-2.75.27.27 0 0 0 -.3.18.81.81 0 0 1 -.56.5 1.76 1.76 0 0 1 -1.32-.44 4 4 0 0 1 -.72-.55 3 3 0 0 1 -.87-2.09 4.7 4.7 0 0 0 -2.25-4.41 5.37 5.37 0 0 0 -4.46-.61.3.3 0 0 0 -.17.31.81.81 0 0 1 -.24.72 1.76 1.76 0 0 1 -1.36.28 4.16 4.16 0 0 1 -1-.15zm-.64 2.41a20.85 20.85 0 0 1 5 2.06 20.41 20.41 0 0 1 4.25 3.26 20.58 20.58 0 0 1 5.32 19.82 20.6 20.6 0 0 1 -9.57 12.45 20.6 20.6 0 0 1 -15.57 2.06 20.88 20.88 0 0 1 -5-2.06 20.41 20.41 0 0 1 -4.25-3.26 21.1 21.1 0 0 1 -3.27-4.25 20.88 20.88 0 0 1 -2-5 20.63 20.63 0 0 1 -.69-5.31 20.84 20.84 0 0 1 .69-5.31 20.61 20.61 0 0 1 2-5 21.07 21.07 0 0 1 3.27-4.25 20.37 20.37 0 0 1 4.24-3.26 20.27 20.27 0 0 1 10.26-2.75 20.63 20.63 0 0 1 5.31.69z" fill-rule="evenodd"/><path d="m116.11 100-.43.08c-.83.17-1.85.47-2.77.57a33.11 33.11 0 0 1 -7.53.16 28.56 28.56 0 0 1 -8.24-2c-1-.36-1.89-.54-3-1a15.91 15.91 0 0 0 -2.31-.6 8.51 8.51 0 0 0 -1.35-.09 16.62 16.62 0 0 0 2-1.21 10.73 10.73 0 0 0 2.32-1.91 13.44 13.44 0 0 0 .93-1.07.89.89 0 0 0 .17-.8 1.09 1.09 0 0 0 -.52-.56 1.48 1.48 0 0 0 -1.25 0c-.41.2-.37.57-.66.83a10.09 10.09 0 0 1 -1.72.64c.34-.37.61-.61 1-1.07a16.12 16.12 0 0 0 1.08-1.36c.38-.54.67-1 .3-1.26.75-.37 2-1 2.8-1.25s1.32-.53 2.07-.79l.76-.27a16.88 16.88 0 0 0 -2.44 3.96 10.42 10.42 0 0 0 -.88 5.36 1.47 1.47 0 0 0 .74.92.75.75 0 0 0 .79 0 1.34 1.34 0 0 0 .43-.51l.12.11a.55.55 0 0 0 .48.12l1.42-.26a.25.25 0 0 1 .22.12 8.55 8.55 0 0 0 .85 1.33 1.25 1.25 0 0 0 .6.41.55.55 0 0 0 .63-.29 3.94 3.94 0 0 0 .46-1.67c0-.39-.11-.79-.1-1.17s0-.49 0-.74c0-.55 0-1.11 0-1.66a12.76 12.76 0 0 1 .2-1.85 1.38 1.38 0 0 0 0-.9 2.41 2.41 0 0 0 -.41-.64 3.26 3.26 0 0 0 -.76-.58 1.25 1.25 0 0 0 -1.42 0 6 6 0 0 1 -1.2.71 1.08 1.08 0 0 1 -.43.13 6.43 6.43 0 0 1 1.29-1.59 16.19 16.19 0 0 1 2.78-1.85c.53-.31 2.13-.58 2.69-.82a.73.73 0 0 0 0-1.37c-.54-.25-1.42-.37-2-.57a1.64 1.64 0 0 0 -1.45.07c-.88.65-2.88 2-2.85 1.76a2.84 2.84 0 0 1 .94-1.72 12.66 12.66 0 0 0 1.93-1.95l.48-.53a2.12 2.12 0 0 0 .34-.37 16.37 16.37 0 0 0 1.35-1.12c.21-.18 0-.77.07-.88s-.38-.43-1.1-.47a1.87 1.87 0 0 0 -1.21.5 8.7 8.7 0 0 0 -1.19 1.87 3.67 3.67 0 0 1 -.72 1.57c-.14.15-.19.6-.48.42a2.77 2.77 0 0 1 0-.81c.07-.4 0-.86.06-1.25a3.87 3.87 0 0 1 .07-.88 1.53 1.53 0 0 0 0-1c-.08-.24-.68-.5-.93-.67a4.17 4.17 0 0 0 -.75-.3c-.25-.09-.59 0-.67 0s-.14.57-.14.57a1.79 1.79 0 0 1 .59 1.17 13.92 13.92 0 0 1 -.16 2.6c-.14.9-.3 1.72-.49 2.53a6.1 6.1 0 0 1 -.27 1.41c-.17.08-.28.31-.45.39-.74.34-.79.51-1.64.89l-2.92 1.26c0-.44-.13-2.51-.13-2.9 1.33-1 2.09-1.53 3.34-2.61a.62.62 0 0 0 .14-.56c-.05-.22-.29-.4-.36-.55-.32-.74-.58-.73-1.2-1.21a7.05 7.05 0 0 1 -1.23-1.15 14.3 14.3 0 0 1 -1-1.23 4.12 4.12 0 0 1 0-.47c0-.18 0-.32 0-.5 0-.94 0-1.14.27-1.34s-.13-.61-.69-.82a.83.83 0 0 0 -.85.11 1.59 1.59 0 0 0 -.68.95 1.48 1.48 0 0 0 0 .91 2 2 0 0 1 .23.65c.06.65.11.92.16 1.57a29.69 29.69 0 0 1 .13 3.65 17.76 17.76 0 0 1 -4.84 2.34 1.49 1.49 0 0 1 -.91 0l-.39-.07-.22.01s0 0 0 0a2.33 2.33 0 0 0 .17.26c.42.65.71.61 1.33 1a6.79 6.79 0 0 0 1.93.9 3.48 3.48 0 0 0 2.24-.2c.26-.15.72-.49 1-.64 0 .39.09 2.42.08 2.73a16.57 16.57 0 0 1 -1.64.94c-.82.45-1.54.82-2.39 1.19a.44.44 0 0 1 -.61-.22 1.5 1.5 0 0 1 0-.73 1.91 1.91 0 0 1 .06-.33s0 0-.06 0a2.72 2.72 0 0 0 -.24.24 3.31 3.31 0 0 0 -.66 1.11.5.5 0 0 0 .21.63 2.11 2.11 0 0 0 1.29.46c.34 0 .76.07 1.1.08a1.33 1.33 0 0 0 .93-.35c1.19-.89 2.37-1.66 3.48-2.4a8.1 8.1 0 0 1 -1.3 2.26 6.59 6.59 0 0 1 -1.1 1.07 3.25 3.25 0 0 1 -.52.28 1.48 1.48 0 0 0 -.54.21.48.48 0 0 0 -.18.66 2.3 2.3 0 0 0 .32.37c.23.21.65.31.83.14.34-.3.69-.29 1.09-.46l.95-.3a4.82 4.82 0 0 1 -1.21 1.12c-.18.12-.67.48-.86.59a8.24 8.24 0 0 1 -1.31.74 3.25 3.25 0 0 1 -1-.12 5.63 5.63 0 0 0 -1.23-.19.72.72 0 0 0 -.75.53 2 2 0 0 0 -.12 1.63c.17.3.24.53.62.61a1.14 1.14 0 0 0 .83-.09 4.86 4.86 0 0 1 2-.56 5.78 5.78 0 0 1 1.44 0 14.87 14.87 0 0 1 2.08.37 11.06 11.06 0 0 1 1.59.55c.42.18 2.47 1 2.89 1.19 2.38 1.19 3.3 1.58 4.66 2.18 1.16.52 4.33 1.84 6.28 1s3.57-.74 6.63-2.49a3.55 3.55 0 0 0 1.63-1l.27-.44c.04-.1.13-.19-.1-.1zm-14.68-4.57a1.4 1.4 0 0 1 -.08.41 3 3 0 0 0 -.65-.41.61.61 0 0 0 -.4 0 4.72 4.72 0 0 0 -.5.14 7.86 7.86 0 0 1 -1 .27.5.5 0 0 1 -.32 0 .27.27 0 0 0 -.15 0 .7.7 0 0 1 -.1-.19 3.79 3.79 0 0 1 0-.58c0-.19 0-.39 0-.58a2.32 2.32 0 0 1 -.12-.47c0-.44 0-.88.11-1.31l.09.15a1.84 1.84 0 0 0 .87.71l.49.16c.16.06.35.06.36.2a.24.24 0 0 1 -.09.21.79.79 0 0 1 -.33.19c-.05 0 0 0 0 0l.43-.11.32-.08.34-.1a2.76 2.76 0 0 0 .42 0 .9.9 0 0 0 .32-.09 13.86 13.86 0 0 1 -.01 1.43zm-2.23-4.92a2.18 2.18 0 0 0 .59.25 1.67 1.67 0 0 0 .8-.05 2.15 2.15 0 0 1 .67-.13c.24 0 .34.16.34.38v1.84a2.3 2.3 0 0 0 -.33-.21 3.92 3.92 0 0 0 -1.5-.39 1 1 0 0 0 -.71.14 1.42 1.42 0 0 1 -.62.26h-.18a7.76 7.76 0 0 1 .48-1.94c.06-.15.13-.3.2-.45a.59.59 0 0 0 .26.3zm-7.37-8.73c0-.42 0-1.62 0-2a12.61 12.61 0 0 0 .94 1.65 1.08 1.08 0 0 1 .26.6.39.39 0 0 1 -.23.37 5 5 0 0 1 -.89.39c-.01-.36-.07-.69-.08-1.01z"/><path d="m105.8 82.84a2.33 2.33 0 0 0 1.81.55 5.25 5.25 0 0 0 2-.81 12.19 12.19 0 0 1 0 1.48.52.52 0 0 1 0 .18 4.52 4.52 0 0 1 -1.16-.24l-.47-.19s-.06 0 0 0l.35.36c.24.25.7.66 1 .89a5.58 5.58 0 0 0 -.81 1.33c-.44.9-.8 1.76-1.16 2.72-.31.8-.63 1.59-1 2.4a29 29 0 0 0 -1.12 3.33 2.46 2.46 0 0 0 -.16.75 1.71 1.71 0 0 0 .27 1 5 5 0 0 1 .31.49.45.45 0 0 0 .2.34c.14.12.73.15.86-.25a15.24 15.24 0 0 0 .56-2.11 38.83 38.83 0 0 1 1-3.92.83.83 0 0 0 .82.06 1.83 1.83 0 0 0 .52-.35.39.39 0 0 1 .1-.08.38.38 0 0 1 .09.09.49.49 0 0 1 .06.41 3.75 3.75 0 0 1 -.65 1.09 3.61 3.61 0 0 1 -.57.66 3.64 3.64 0 0 0 -.55.56.34.34 0 0 0 .1.49 1.1 1.1 0 0 0 .4.08 1.45 1.45 0 0 1 .3 0h.06a1 1 0 0 1 .43.55.8.8 0 0 1 -.18.59 1.51 1.51 0 0 1 -.43.32 4.23 4.23 0 0 0 -.42.25s0 0 0 0l.5-.09c.34-.07.63.07 1 0a2.26 2.26 0 0 0 1.14-.77 1.15 1.15 0 0 0 -.2-1.12 1.82 1.82 0 0 0 -.91-.53 2 2 0 0 0 -1.24.18 9.26 9.26 0 0 0 1.75-1.66 2.44 2.44 0 0 0 .47-1.56 1.38 1.38 0 0 0 -.68-1.09c-.35-.17-.75.1-1 .3a3.29 3.29 0 0 1 -.79.41c.09-.28.19-.6.3-.87a2.26 2.26 0 0 1 .57-.84 3.48 3.48 0 0 1 .48-.38 2.63 2.63 0 0 1 1.19-.42c.27 0 .3.42.3.64 0 1.38.07 2.76.08 4.15a39.85 39.85 0 0 1 -.21 4.63 2.92 2.92 0 0 1 -1.82 2.16 1.61 1.61 0 0 1 -1.29 0 1.26 1.26 0 0 1 -.71-.67c0-.07-.05-.08-.09-.11a.28.28 0 0 1 0-.17s-.05 0-.05 0a1.34 1.34 0 0 0 0 .2 1.26 1.26 0 0 0 .06.26 1.43 1.43 0 0 0 .23.48 2.5 2.5 0 0 0 1.92.93 3.24 3.24 0 0 0 2-.43 3 3 0 0 0 1.57-1.87 32.06 32.06 0 0 0 .32-3.4 39.59 39.59 0 0 0 -.13-6.71 1.7 1.7 0 0 0 -1.12-1.35 2.19 2.19 0 0 0 -1.45 0 4.19 4.19 0 0 0 -.8.49 10.19 10.19 0 0 0 -1.81 1.94c.3-.67.74-1.49 1.06-2a6.1 6.1 0 0 1 1-1c.84 0 .84-.58.87-1 .47-.58 1.06-1.26 1.55-1.82a23.46 23.46 0 0 0 1.89-2.15 4.11 4.11 0 0 0 .33-.57c.13-.32-.27-.78-.48-.95a2.33 2.33 0 0 0 -.9-.52.8.8 0 0 0 -.72.14 1 1 0 0 0 -.25.42c0 .1-.07.22-.11.32a5.48 5.48 0 0 1 -1.39 1.33c0-.86 0-1.72 0-2.58a2.73 2.73 0 0 1 .16-1 1 1 0 0 0 -.07-1.06 3.76 3.76 0 0 0 -.31-.25 2.87 2.87 0 0 0 -.4-.46 6.2 6.2 0 0 1 -.77-.58l-.23-.22s0 0 0 0a1.72 1.72 0 0 1 0 .32 1.34 1.34 0 0 0 .07.4 4.52 4.52 0 0 1 0 .82c.06.71 0 1.43.16 2.13a11.64 11.64 0 0 1 .22 2v1.07a3.26 3.26 0 0 1 -1.71.44 3.63 3.63 0 0 1 -1.38-.25 3.71 3.71 0 0 1 -1.08-.68 1.28 1.28 0 0 1 -.41-.65 5.84 5.84 0 0 1 -.15-.6c0-.1-.07-.1-.09 0l-.06.61a4.86 4.86 0 0 0 0 1 2.59 2.59 0 0 0 1.06 1.59zm5-.76a11.36 11.36 0 0 0 1.39-1.87c.06-.09.06 0 0 0a7.53 7.53 0 0 1 -1.47 3.14c.04-.21.06-1.02.07-1.27z"/></g></svg>