<svg height="144.81" viewBox="0 0 158.01 144.81" width="158.01" xmlns="http://www.w3.org/2000/svg"><g fill="#302725"><path d="m62.65.08c2.58-.25 10.51-.38 12.85 7.25a14.81 14.81 0 0 1 .5 2.67 15.63 15.63 0 0 1 -3.8 10.49c-2.82 3.31-7.12 5.75-12.76 7.26a71.94 71.94 0 0 1 -12.8 1.9c-2.1.18-4.17.36-6.2.64l-.49.07h-.24c-5.79.88-11.3 2.71-16.41 7.93l-.41.2-1 .49-.69.35-.92.49-.64.35-1.46.84-.62.38c-.35.21-.7.42-1.05.65l-.66.42c-.45.28-.9.58-1.36.89l-.51.34c-.49.34-1 .68-1.49 1l-.62.44c-.43.31-.86.62-1.29.95l-.55.4c-.59.44-1.19.89-1.79 1.36l-.15.16a.62.62 0 0 0 0-.13c0-.26 0-.51 0-.76 0 0 0-.08 0-.12a17.91 17.91 0 0 1 .72-4l.07-.25.18-.51.12-.35.18-.44c.05-.13.11-.27.17-.4s.12-.26.18-.39l.21-.44.18-.34c.09-.16.17-.32.26-.47s.12-.21.19-.31l.31-.5a2.33 2.33 0 0 0 .17-.26l.39-.54.15-.2.49-.63.09-.1c.41-.5.86-1 1.33-1.46 9.62-9.56 30.08-12.14 39.91-13.38 2.31-.3 4.13-.53 5.33-.77 5.92-1.23 10.82-6.77 11-9.8a5 5 0 0 0 -2-4.33c-1.36-1.05-5.47.35-8.09.78-2.21.36-3.92.06-4.89-.85-.06-.06-.13-.11-.18-.17a3.19 3.19 0 0 1 -.26-3.51c.49-.88 3.7-2.83 8.35-3.29z"/><path d="m136.79 116.49v.08c-.05.12-.1.24-.16.36l-.09.2-.11.23-.28.53-.05.08-.2.34a8.92 8.92 0 0 1 -.73 1l-.08.1-.24.26-.27.27-.08.07c-.16-1.16-.4-4.46-.52-6.17a14.57 14.57 0 0 0 3.57.58 15.89 15.89 0 0 1 -.76 2.07z"/><path d="m112 107c-1.08 1.33-3.18 3.89-4 4.75v-.16c0-.11 0-.23-.06-.34s0-.18 0-.26 0-.2 0-.3a2.11 2.11 0 0 1 0-.25c0-.16 0-.32 0-.48s0-.19 0-.28 0-.17 0-.25 0-.2 0-.3v-.22c0-.19 0-.39.07-.58a.69.69 0 0 0 0-.13c0-.12 0-.24.07-.36a.29.29 0 0 1 0-.09 16.9 16.9 0 0 1 .66-2.33 14.06 14.06 0 0 0 3.26 1.58z"/><path d="m153.64 100.13c0 .39-.08.78-.13 1.18a.68.68 0 0 0 0 .14c-.18 1.17-.34 2.5-.51 3.89-.07.58-.14 1.18-.21 1.78l.1-.06c.18-.1.35-.21.52-.32l.18-.13.41-.29.2-.15.38-.32.18-.16c.13-.11.25-.23.37-.35l.16-.15c.13-.13.25-.27.38-.41l.11-.12c.15-.17.3-.35.43-.53a9.91 9.91 0 0 0 .8-1.19c.1-.18.19-.36.28-.55a1.17 1.17 0 0 0 0-.11c.08-.16.14-.32.21-.48a.78.78 0 0 1 .05-.14l.15-.46v-.14a3.94 3.94 0 0 0 .1-.47.5.5 0 0 0 0-.12 2.94 2.94 0 0 0 .05-.51.43.43 0 0 1 0 0 5.33 5.33 0 0 0 0-.57.5.5 0 0 1 0-.13 1.37 1.37 0 0 1 -.14-.46 4.09 4.09 0 0 0 -1.71-1.72l-.08-.05-.26-.14-.12-.06-.42-.21-.19-.08-.22-.09-.32-.13-.2-.07-.19-.25-.17-.05-.35-.1a17.66 17.66 0 0 1 .16 4.07 1.36 1.36 0 0 0 0 .21z"/><path d="m99 83.44v.2s0 .3-.08.45 0 .13 0 .19 0 .32-.05.49a1.09 1.09 0 0 1 0 .18v.51.17.55a.66.66 0 0 1 0 .14l.06.58s0 .07 0 .1a6.17 6.17 0 0 0 .1.62 11.3 11.3 0 0 0 1.18 3.3c.36-.68.71-1.34 1.06-2 .66-1.25 1.29-2.42 1.83-3.48a18.27 18.27 0 0 1 3.18-4.44h-.06l-.29-.11-.17-.06-.23-.08-.2-.07-.23-.07-.42-.12h-.14l-.32-.07h-.06a5 5 0 0 0 -3.5.28 1.59 1.59 0 0 1 -.36.28.81.81 0 0 0 -.1.09 4.45 4.45 0 0 0 -.53.78l-.08.13c-.06.12-.11.25-.16.38a1.11 1.11 0 0 0 -.07.16c0 .13-.1.27-.14.4l-.06.19c-.06.04-.09.19-.16.33z"/><path d="m150.2 105c.17-1.42.33-2.76.52-4 .07-.45.11-.89.14-1.33 0-.1 0-.19 0-.28 0-.35 0-.7 0-1v-.28c0-.42 0-.83-.09-1.24-.05-.38-.11-.75-.19-1.12 0-.11-.05-.23-.08-.35-.06-.28-.13-.54-.21-.81l-.11-.35c-.11-.34-.24-.68-.38-1l-.08.06a6.26 6.26 0 0 1 -4.91.87 4.81 4.81 0 0 1 -2-1.08 4.24 4.24 0 0 1 -.8-1 1.71 1.71 0 0 0 -.66-.7 1 1 0 0 0 -1 0 4.21 4.21 0 0 1 -3.53.28 4.27 4.27 0 0 1 -1.68-1.35 2.12 2.12 0 0 0 -.86-.74.57.57 0 0 0 -.25 0 .48.48 0 0 0 -.34.19 1.29 1.29 0 0 0 .27 1.26c.65.91.88 2.4-1.66 4.35-.18.13-.33.27-.49.41a4.17 4.17 0 0 0 -.36.37l-.11.11c-.12.13-.22.27-.32.4l-.07.09c-.1.15-.19.29-.27.44a4.84 4.84 0 0 0 -.21.47 2.3 2.3 0 0 0 -.16 1.34 4.63 4.63 0 0 1 1.59 1.64.43.43 0 0 0 0 .07c.06.11.11.21.16.32l.07.14c0 .09.07.17.1.26s.05.14.08.2l.06.22a2 2 0 0 1 .06.23 3.58 3.58 0 0 1 -.4 3 2.72 2.72 0 0 1 -4.08.6 4 4 0 0 1 -.64-.65 3.29 3.29 0 0 0 -.58 0h-.31-.28a3.94 3.94 0 0 1 -.59 0l-.94 3 .12.09a17.72 17.72 0 0 0 5.12 2.8s.06 0 .08 0l.68.19 1.84.52c2.91.82 5 1.41 6.41.72a12.06 12.06 0 0 0 1.45-.9 5.49 5.49 0 0 1 3.37-1.35 3.94 3.94 0 0 1 1.23.26l.22.08.43.22a3.47 3.47 0 0 1 1.71 2.59 4.55 4.55 0 0 1 -2 4.13 2.44 2.44 0 0 1 -.43.28h-.05l-.4.19h-.11c-.12 0-.24.09-.37.12h-.13l-.38.08h-.14l-.4.06h-.12-.45-.08a11.19 11.19 0 0 1 -1.64-.08l-.46-.06h-.1l-.39-.07h-.12l-.36-.07h-.1l-.35-.08h-.09l-.34-.09h-.08a13.77 13.77 0 0 1 -.87 1.58l-.06.1-.3.44-.1.12c-.09.13-.18.25-.28.37l-.12.14-.29.33a1.85 1.85 0 0 1 -.14.14l-.36.35-.15.13-.36.29a1.42 1.42 0 0 1 -1.27.27h-.05a1.79 1.79 0 0 1 -1-1.55c-.11-.72-.27-2.64-.4-4.37h-.08-.38-.12-.41-.11l-.44-.06h-.06c-.63-.09-1.28-.21-1.92-.34h-.22l-.27-.06-.29-.06-.23-.06-.32-.07h-.21l-.33-.09h-.17l-.34-.09h-.15l-.34-.1h-.12l-.33-.1h-.09l-.32-.1h-.07l-.3-.11-5.44-1.72-.31-.08-.69-.21c-.5-.15-1-.35-1.64-.57h-.08l-.74-.3-.31-.13-.5-.22-.46-.2-.35-.16-.55-.27-.23-.12-.6-.31-.13-.07-.63-.36c-1.1 1.34-2.34 2.82-2.85 3.35a1.76 1.76 0 0 1 -1.72.68h-.07l-.16-.07a1.19 1.19 0 0 1 -.15-.09l-.13-.1a1.43 1.43 0 0 1 -.4-.65c-.06-.2-.12-.4-.17-.6v-.13c0-.15-.06-.3-.08-.45s0-.21 0-.32a.34.34 0 0 1 0-.1c0-.24 0-.47-.06-.7a11 11 0 0 1 0-1.15c0-.22 0-.43 0-.64v-.22-.24c0-.16 0-.31.07-.47s0 0 0-.05h-.06l-.31-.12h-.13l-.27-.11-.16-.06-.26-.12-.18-.08-.27-.12-.18-.09-.28-.15-.18-.09-.31-.17-.15-.09-.44-.28-.15-.1-.28-.2-.18-.14-.23-.18-.18-.17-.2-.18-.18-.18-.17-.19-.16-.2-.15-.2c-.05-.07-.1-.14-.14-.21a2.25 2.25 0 0 1 -.12-.21 1.55 1.55 0 0 1 -.12-.22 1.86 1.86 0 0 1 -.1-.25c0-.06-.06-.13-.08-.19a4.56 4.56 0 0 1 .7-4.56 3.53 3.53 0 0 1 3.37-1.07 4.09 4.09 0 0 1 1.39.56 5.6 5.6 0 0 1 2 3 10.85 10.85 0 0 0 .66 1.57 3.6 3.6 0 0 0 1.36 1.32 24.39 24.39 0 0 0 4.29 1.77l1.81.65.67.22h.08a18 18 0 0 0 6 .65l.94-3a5.43 5.43 0 0 1 -1-.73 4.61 4.61 0 0 0 -.47-.36 3.22 3.22 0 0 1 -2.08 0 2.69 2.69 0 0 1 -1-.65 2.75 2.75 0 0 1 -.78-2 3.63 3.63 0 0 1 1.37-2.65c.14-.12.27-.23.41-.33a4.81 4.81 0 0 1 .41-.27 4.69 4.69 0 0 1 2.7-.67 1.8 1.8 0 0 0 .25-.29 2.89 2.89 0 0 0 .19-.35v-.08a2.29 2.29 0 0 0 .12-.37.94.94 0 0 0 0-.16c0-.12 0-.23.06-.36a2.28 2.28 0 0 0 0-.26c0-.11 0-.21 0-.32s0-.26 0-.4a1.62 1.62 0 0 0 0-.22c0-.2 0-.41-.09-.62a.07.07 0 0 1 0 0 6.38 6.38 0 0 0 -.19-.72c-1-3.06.09-4.14 1.14-4.51a1.3 1.3 0 0 0 1-.88.44.44 0 0 0 -.17-.35 1.61 1.61 0 0 0 -1.33 0 3.88 3.88 0 0 1 -2.78-.07 4.54 4.54 0 0 1 -2.1-2 1 1 0 0 0 -.56-.5 1.59 1.59 0 0 0 -1.18.14 4.51 4.51 0 0 1 -3.45.11 6.23 6.23 0 0 1 -3.65-4.04.74.74 0 0 1 0-.14l-.21.14-.63.43-.43.34a5.58 5.58 0 0 0 -.46.39c-.14.12-.28.24-.41.37s-.34.34-.51.52-.29.31-.43.47-.38.46-.56.7a4.5 4.5 0 0 0 -.3.42c-.15.2-.29.41-.42.62s-.19.29-.27.44-.33.57-.48.87c0 .07-.09.14-.13.22-.55 1.1-1.19 2.29-1.86 3.55-3.47 6.46-8.22 15.29-6 22.31a14 14 0 0 0 4.72 6.72h.07l.5.37.24.17.29.19a12.65 12.65 0 0 0 2.13 1.09h.1l.42.14h.12.14l.29.08a4.87 4.87 0 0 0 .52.12 28.61 28.61 0 0 0 4.72.41h1.26.5.22.45.28l.43.05h.32l.42.06.35.06.42.08.42.1.37.08 1.63-5.14a1.41 1.41 0 0 1 1.76-.92 1.41 1.41 0 0 1 .91 1.76l-1.63 5.15.27.11.49.2.33.15.39.18.32.16.36.19.3.17.35.2.27.16.37.23.24.14.43.28.14.1.58.38c.75.5 1.52 1 2.4 1.51a1.51 1.51 0 0 1 .17.1l.36.19.36.19.2.1.35.17.25.11.55.22.26.09h.15.13l.42.12h.1a12.7 12.7 0 0 0 2.45.34h1.33a14.06 14.06 0 0 0 6.66-2.1c.34-.21.68-.43 1-.68 5.98-3.98 7.18-13.95 8.05-21.23zm-11.67 2.69a6.81 6.81 0 1 1 8.54-4.44 6.82 6.82 0 0 1 -8.54 4.45zm-22.68-21.44a6.8 6.8 0 1 1 -8.54 4.43 6.79 6.79 0 0 1 8.54-4.43z"/><path d="m112.5 80.24a4.66 4.66 0 0 0 2.5 2.62 2.81 2.81 0 0 0 2.09 0 2.92 2.92 0 0 1 4 1.08c.93 1.67 2.06 1.54 2.83 1.3a3 3 0 0 1 3 .36 2.2 2.2 0 0 1 .74 1.94 2.71 2.71 0 0 1 -1 1.65 3.48 3.48 0 0 1 -1.09.6.43.43 0 0 0 -.2.15c-.32.43-.06 1.51.15 2.19a6.66 6.66 0 0 1 -.31 5.33 5.62 5.62 0 0 1 .5.35.88.88 0 0 1 .19 1.19 1.07 1.07 0 0 1 -.16.14.87.87 0 0 1 -1.07 0 2.75 2.75 0 0 0 -3.58.32s0 0-.07.07a1.93 1.93 0 0 0 -.71 1.31 1.08 1.08 0 0 0 .24.74 1.26 1.26 0 0 0 1.4.22 2.11 2.11 0 0 1 2.12.73 3 3 0 0 0 1.14.72 2.81 2.81 0 0 0 1.35.06 2.15 2.15 0 0 1 2.16.63 1.27 1.27 0 0 0 1.26.63 1 1 0 0 0 .36-.19 1 1 0 0 0 .26-.28 2 2 0 0 0 .16-1.58 2.74 2.74 0 0 0 -2.74-2.32.86.86 0 0 1 -.94-.8.89.89 0 0 1 .23-.67.83.83 0 0 1 .57-.27 2.8 2.8 0 0 1 .5 0h.11a6.25 6.25 0 0 1 2.22-4 6.8 6.8 0 0 1 .59-.5c.14-.1.29-.23.44-.36.58-.5 1.16-1.16.86-1.58a3 3 0 0 1 -.42-3 1.93 1.93 0 0 1 .4-.54 2.17 2.17 0 0 1 1.33-.63 3 3 0 0 1 2.69 1.45c.49.65 1.35 1.4 3.06.57a2.93 2.93 0 0 1 3.93 1.44 2.76 2.76 0 0 0 1.69 1.23 4.68 4.68 0 0 0 3.56-.69h.06a.52.52 0 0 1 .16-.06c-1.92-3.2-5.29-5.68-10-7.15l-14.47-4.58c-4.67-1.48-8.85-1.4-12.27.12a.86.86 0 0 1 .18.06z"/><path d="m112.41 97.11a4.59 4.59 0 1 0 -3-5.76 4.59 4.59 0 0 0 3 5.76z"/><path d="m142 96.83a4.59 4.59 0 1 0 3 5.76 4.6 4.6 0 0 0 -3-5.76z"/><path d="m60.55 97c4.68-9.54 21.54-6.38 26.07 0s5.84 15.49 6.15 24.54 8.37 8.66 14.12 12.11a11.43 11.43 0 0 0 -10.5 6.22c-3.34 6.39-13.81-3.06-16.57-6.28s1.61-7.9-3-13.27-21.02-13.68-16.27-23.32z"/><path d="m4.1 64.93c10.29-8.26 28 2.08 29.31 11.5 1.55 10.78-1.16 23.4-9.36 32.5-7.58 8.43 3.89 14 8 20.81a13.26 13.26 0 0 0 -14.52 1.55c-7.1 5.44-12.75-10.52-13.83-15.54s6.14-8 4.34-16.38-14.37-26.07-3.94-34.44z"/><path d="m97.08 143.89s1.61-7.9 5.6-7.59 6.52 6.51 6.37 8.51z"/><path d="m105.74 135.53s4.3-3.69 8 .61 2.38 8.2 2.38 8.2l-6-.46s1.3-3.88-4.38-8.35z"/><path d="m114.79 135.22s7 .53 7.45 7.58l-4-.3s.24-2.99-3.45-7.28z"/><path d="m14.17 139.57s1.61-7.9 5.59-7.59 6.53 6.51 6.38 8.5z"/><path d="m22.83 131.21s4.3-3.69 8 .61 2.38 8.2 2.38 8.2l-6-.46s1.3-3.91-4.38-8.35z"/><path d="m31.88 130.89s7 .54 7.45 7.59l-4-.3s.24-2.99-3.45-7.29z"/><path d="m55.17 120.44a13.63 13.63 0 0 0 -9 3c-7.1 5.44-12.75-10.52-13.83-15.55s5.78-7.85 4.46-15.75c4.52 6.18 10.2 19.59 14.2 25.17a10.08 10.08 0 0 0 4.17 3.13z"/><path d="m42.85 131.73s1.61-7.9 5.59-7.6 6.53 6.52 6.38 8.51z"/><path d="m51.51 123.37s4.29-3.69 8 .6 2.38 8.21 2.38 8.21l-6-.46s1.3-3.91-4.38-8.35z"/><path d="m60.56 123.05s7 .54 7.45 7.59l-4-.3s.24-2.99-3.45-7.29z"/><path d="m130.37 141.42s1.6-7.9 5.59-7.6 6.52 6.52 6.37 8.51z"/><path d="m139 133.05s4.29-3.68 8 .61 2.38 8.21 2.38 8.21l-6-.46s1.33-3.91-4.38-8.36z"/><path d="m148.08 132.74s7 .53 7.44 7.59l-4-.31s.24-3.02-3.44-7.28z"/><path d="m93.43 73.41a34.9 34.9 0 0 1 -21-13.64c-6.43-8.51-19.51-20.54-36.43-21.83s-36.53 18.27-34.15 26.48c12.73-9.06 25.24-2.09 31.76 4.43s-.3 17 4.38 21.39 11.44 20.93 16 27.3 21.63 5.66 21.63 5.66c.16-2-4.6-5.37-9.36-8.74s-10.36-8.81-9.9-14.8 6.05-13.58 19.93-11.51c13.45 2 17.41 17.38 17.65 18.34a22.37 22.37 0 0 1 4.06-13.68s-4.38-8.35-1-13.11 11.12-1.16 11.12-1.16c1.12-1.92-7.78-3.6-14.69-5.13zm-24 45.3a1.5 1.5 0 1 1 -1.61 1.39 1.51 1.51 0 0 1 1.6-1.39zm-5.91-1.45a1.5 1.5 0 1 1 -1.61 1.38 1.49 1.49 0 0 1 1.6-1.38zm-4.83-2.37a1.5 1.5 0 1 1 -1.61 1.38 1.49 1.49 0 0 1 1.6-1.38zm-2.3-2.69a1.5 1.5 0 1 1 -1.39-1.61 1.51 1.51 0 0 1 1.38 1.61z"/></g></svg>