<?xml version="1.0" encoding="UTF-8"?>
<svg id="uuid-acb3024e-8455-42e0-bce2-59b02ce77b50" data-name="圖層 2" xmlns="http://www.w3.org/2000/svg" width="240.26" height="22" viewBox="0 0 240.26 22">
  <defs>
    <style>
      .uuid-28a49fb9-d892-40a2-914c-0b87708f49e2 {
        fill: #fff;
      }

      .uuid-82d62f3d-aea1-4502-b225-ff57f4c78282 {
        opacity: .2;
      }
    </style>
  </defs>
  <g id="uuid-82851b7e-7604-4f57-ba0b-e8b602f4946a" data-name="圖層 1">
    <g class="uuid-82d62f3d-aea1-4502-b225-ff57f4c78282">
      <g>
        <path class="uuid-28a49fb9-d892-40a2-914c-0b87708f49e2" d="M0,0H35.75V6.53H0V0ZM13.58,6.08h8.59v15.91H13.58V6.08Z"/>
        <path class="uuid-28a49fb9-d892-40a2-914c-0b87708f49e2" d="M47.78,12.72v2.75h26.12v6.53H39.18V0h34.65V6.53h-26.05v2.75h21.31v3.44h-21.31Z"/>
        <path class="uuid-28a49fb9-d892-40a2-914c-0b87708f49e2" d="M105.66,19.39h-5.16L119.27,0h8.59V22h-8.59V7.01l2.58,1.07-13.58,13.92h-10.31l-13.61-13.89,2.61-1.07v14.95h-8.59V0h8.59l18.7,19.39Z"/>
        <path class="uuid-28a49fb9-d892-40a2-914c-0b87708f49e2" d="M140.65,16.33v-6.02h17.15c.69,0,1.27-.11,1.74-.33,.47-.22,.7-.68,.7-1.39s-.24-1.2-.7-1.41c-.47-.21-1.05-.31-1.74-.31h-16.6v15.12h-8.59V0h23.85c1.72,0,3.33,.12,4.83,.36,1.5,.24,2.81,.67,3.94,1.29,1.12,.62,2,1.49,2.65,2.61s.96,2.57,.96,4.33-.32,3.16-.96,4.19-1.52,1.8-2.65,2.3c-1.12,.5-2.44,.84-3.94,1-1.5,.16-3.11,.24-4.83,.24h-15.81Z"/>
        <path class="uuid-28a49fb9-d892-40a2-914c-0b87708f49e2" d="M181.72,0V15.47h20.04v6.53h-28.63V0h8.59Z"/>
        <path class="uuid-28a49fb9-d892-40a2-914c-0b87708f49e2" d="M214.13,12.72v2.75h26.12v6.53h-34.72V0h34.65V6.53h-26.05v2.75h21.31v3.44h-21.31Z"/>
      </g>
    </g>
  </g>
</svg>