<svg height="84.79" viewBox="0 0 914.25 84.79" width="914.25" xmlns="http://www.w3.org/2000/svg"><g fill="#fff" opacity=".18"><path d="m0 2.61h31.13v79.69h-31.13zm26.64 27.52h87.66v23.66h-87.66zm84.17-27.52h31.13v79.69h-31.13z"/><path d="m161.24 2.61h31.12v79.69h-31.12z"/><path d="m207.3 53h34c.58 1.74 2.29 3.22 5.11 4.42a44.48 44.48 0 0 0 11.39 2.74 130.53 130.53 0 0 0 16.62.93q9.34 0 14.76-.56t7.65-2a4.42 4.42 0 0 0 2.25-3.92q0-2.37-3.62-3.67t-12.82-1.81q-9.21-.49-25.9-.5a167.67 167.67 0 0 1 -21.47-1.18 54.63 54.63 0 0 1 -14.82-3.74 19.84 19.84 0 0 1 -8.53-6.47 16 16 0 0 1 -2.74-9.4 20.77 20.77 0 0 1 6.41-15.63q6.41-6.1 19.41-9.16t32.56-3q28.64 0 43.76 8.28t15.13 23.84h-32.24q-.63-4.11-7.72-6.29t-20.17-2.17q-12.94 0-19.24 1.49t-6.28 5.1a3.4 3.4 0 0 0 1.74 3 16.81 16.81 0 0 0 6 1.81 100.87 100.87 0 0 0 12.14.93q7.84.26 19.92.25a167.08 167.08 0 0 1 22.66 1.31 56.5 56.5 0 0 1 15.13 3.92 18.87 18.87 0 0 1 8.4 6.66 17.22 17.22 0 0 1 2.62 9.53q0 9.47-6 15.44t-18.93 8.84q-12.94 2.85-33.86 2.86a159.62 159.62 0 0 1 -21.62-1.43 92.89 92.89 0 0 1 -17.62-4 49.17 49.17 0 0 1 -13.07-6.6 28.43 28.43 0 0 1 -8.15-8.84 21.58 21.58 0 0 1 -2.86-10.98z"/><path d="m338.16 2.61h129.49v23.66h-129.49zm49.18 22h31.13v57.69h-31.13z"/><path d="m548 84.79q-27.15 0-43.71-4.79t-24.13-14.2q-7.53-9.39-7.53-23.34t7.53-23.35q7.53-9.39 24.09-14.19t43.75-4.8q27.13 0 43.7 4.8t24.09 14.19q7.53 9.41 7.53 23.35t-7.57 23.34q-7.53 9.4-24.09 14.2t-43.66 4.79zm0-23.66a136.68 136.68 0 0 0 22.16-1.55q9.29-1.58 14.4-5.58t5.1-11.51q0-7.47-5.1-11.52t-14.44-5.6a136.57 136.57 0 0 0 -22.12-1.59 142.4 142.4 0 0 0 -22.48 1.56q-9.65 1.56-15.06 5.6t-5.46 11.52q0 7.47 5.42 11.51t15.06 5.61a142.5 142.5 0 0 0 22.52 1.55z"/><path d="m639.47 82.3v-79.69h96.24a74.94 74.94 0 0 1 20.36 2.56 29.09 29.09 0 0 1 14.31 8.53q5.29 6 5.3 16.31a23.14 23.14 0 0 1 -2.49 11.33 18 18 0 0 1 -6.85 7 33.14 33.14 0 0 1 -10 3.61 75.51 75.51 0 0 1 -11.71 1.37l-9.09-1.74a186.93 186.93 0 0 1 22.85 1.24q8 1.13 11.21 4.05t3.17 8.4v17.03h-31.08v-13.3a9.41 9.41 0 0 0 -1.44-5.67c-1-1.28-3-2.18-6.22-2.68a106.87 106.87 0 0 0 -14.76-.74h-48.68v22.39zm31.12-43.21h65.12a14.31 14.31 0 0 0 6.29-1.24q2.55-1.24 2.55-4.73a4.42 4.42 0 0 0 -2.55-4.42 14.93 14.93 0 0 0 -6.29-1.18h-65.12z"/><path d="m914.25 2.61-50.42 59.39v20.3h-31.13v-20.3l-50.42-59.39h36.72l41 51.68h-23l40.52-51.68z"/></g></svg>