<?xml version="1.0" encoding="UTF-8"?>
<svg id="uuid-faf825fc-5555-4dff-bde3-a1c3f2eefd34" data-name="圖層 2" xmlns="http://www.w3.org/2000/svg" width="257.61" height="42.25" viewBox="0 0 257.61 42.25">
  <defs>
    <style>
      .uuid-7930ce29-8862-46c2-9902-fdaa13605ea5 {
        fill: #fc462d;
      }

      .uuid-7cfdeeea-690e-4cf5-8957-46cd103c4b61 {
        opacity: .33;
      }
    </style>
  </defs>
  <g id="uuid-ae7fe6fd-0bfe-4702-9c66-cd52b6d0f93f" data-name="圖層 1">
    <g class="uuid-7cfdeeea-690e-4cf5-8957-46cd103c4b61">
      <g>
        <path class="uuid-7930ce29-8862-46c2-9902-fdaa13605ea5" d="M29.08,31.69l-13.48,1.74-.06-.62,42.07-1.43v9.63H2.3v-7.77c6.59-1.16,12.37-2.21,17.34-3.14s9.1-1.8,12.4-2.61c3.29-.81,5.77-1.62,7.43-2.42,1.66-.81,2.49-1.69,2.49-2.64,0-.66-.35-1.15-1.06-1.46-.71-.31-1.98-.53-3.82-.65-1.84-.12-4.48-.19-7.92-.19-4.39,0-7.71,.34-9.94,1.02-2.24,.68-3.46,1.75-3.67,3.2H0c0-3.06,1.12-5.7,3.36-7.89,2.24-2.2,5.56-3.88,9.97-5.06,4.41-1.18,9.87-1.77,16.37-1.77,3.85,0,7.47,.16,10.84,.47,3.38,.31,6.35,.86,8.92,1.65,2.57,.79,4.58,1.87,6.03,3.26,1.45,1.39,2.17,3.16,2.17,5.31,0,1.91-.7,3.48-2.11,4.72-1.41,1.24-3.4,2.26-5.97,3.04-2.57,.79-5.59,1.45-9.07,1.99-3.48,.54-7.29,1.08-11.43,1.62Z"/>
        <path class="uuid-7930ce29-8862-46c2-9902-fdaa13605ea5" d="M93.39,41.94c-6.59,0-12.06-.54-16.44-1.62-4.37-1.08-7.64-2.8-9.82-5.16-2.17-2.36-3.26-5.47-3.26-9.32s1.09-6.97,3.26-9.35c2.17-2.38,5.45-4.12,9.82-5.22,4.37-1.1,9.85-1.65,16.44-1.65s11.98,.55,16.31,1.65c4.33,1.1,7.57,2.84,9.72,5.22,2.15,2.38,3.23,5.5,3.23,9.35s-1.08,6.96-3.23,9.32c-2.15,2.36-5.4,4.08-9.72,5.16-4.33,1.08-9.77,1.62-16.31,1.62Zm0-9.32c3.06,0,5.63-.26,7.7-.78,2.07-.52,3.64-1.27,4.72-2.27,1.08-.99,1.62-2.24,1.62-3.73s-.53-2.74-1.58-3.76c-1.06-1.01-2.62-1.79-4.69-2.33-2.07-.54-4.64-.81-7.7-.81s-5.73,.26-7.86,.78c-2.13,.52-3.75,1.29-4.85,2.33-1.1,1.04-1.65,2.3-1.65,3.79s.54,2.73,1.62,3.73c1.08,.99,2.68,1.75,4.82,2.27,2.13,.52,4.75,.78,7.86,.78Z"/>
        <path class="uuid-7930ce29-8862-46c2-9902-fdaa13605ea5" d="M159.62,41.94c-6.59,0-12.06-.54-16.43-1.62-4.37-1.08-7.64-2.8-9.82-5.16-2.17-2.36-3.26-5.47-3.26-9.32s1.09-6.97,3.26-9.35c2.18-2.38,5.45-4.12,9.82-5.22,4.37-1.1,9.85-1.65,16.43-1.65s11.98,.55,16.31,1.65c4.33,1.1,7.57,2.84,9.72,5.22,2.15,2.38,3.23,5.5,3.23,9.35s-1.08,6.96-3.23,9.32c-2.15,2.36-5.4,4.08-9.72,5.16s-9.77,1.62-16.31,1.62Zm0-9.32c3.07,0,5.63-.26,7.71-.78,2.07-.52,3.64-1.27,4.72-2.27,1.08-.99,1.62-2.24,1.62-3.73s-.53-2.74-1.58-3.76c-1.06-1.01-2.62-1.79-4.69-2.33-2.07-.54-4.64-.81-7.71-.81s-5.73,.26-7.86,.78c-2.13,.52-3.75,1.29-4.85,2.33-1.1,1.04-1.65,2.3-1.65,3.79s.54,2.73,1.62,3.73c1.08,.99,2.68,1.75,4.82,2.27,2.13,.52,4.75,.78,7.86,.78Z"/>
        <path class="uuid-7930ce29-8862-46c2-9902-fdaa13605ea5" d="M226.17,42.25c-7.66,0-13.79-.54-18.39-1.62-4.6-1.08-7.91-2.55-9.94-4.41-2.03-1.86-3.04-3.96-3.04-6.28,0-2.86,1.07-5.03,3.2-6.52,2.13-1.49,5.5-2.51,10.1-3.04,4.6-.54,10.62-.81,18.08-.81s13.49,.27,18.11,.81c4.62,.54,7.99,1.55,10.13,3.04,2.13,1.49,3.2,3.67,3.2,6.52,0,2.32-1.03,4.41-3.08,6.28-2.05,1.86-5.38,3.33-9.97,4.41-4.6,1.08-10.73,1.62-18.39,1.62Zm0-22.31c-7.21,0-12.98-.28-17.3-.84-4.33-.56-7.46-1.5-9.38-2.83-1.93-1.33-2.89-3.11-2.89-5.34s.96-4.23,2.89-5.84c1.93-1.62,5.05-2.87,9.38-3.76,4.33-.89,10.1-1.34,17.3-1.34s13.04,.45,17.37,1.34c4.33,.89,7.46,2.14,9.38,3.76,1.93,1.62,2.89,3.56,2.89,5.84s-.96,4.02-2.89,5.34c-1.93,1.33-5.05,2.27-9.38,2.83-4.33,.56-10.12,.84-17.37,.84Zm0,10.56c4.31,0,7.63-.11,9.97-.34,2.34-.23,3.97-.58,4.88-1.06,.91-.48,1.37-1.07,1.37-1.77s-.46-1.28-1.37-1.74c-.91-.46-2.54-.8-4.88-1.03-2.34-.23-5.67-.34-9.97-.34s-7.52,.11-9.75,.34c-2.24,.23-3.76,.57-4.57,1.03-.81,.46-1.21,1.04-1.21,1.74s.4,1.3,1.21,1.77c.81,.48,2.33,.83,4.57,1.06,2.24,.23,5.49,.34,9.75,.34Zm0-13.05c3.89,0,6.88-.14,8.95-.44,2.07-.29,3.5-.68,4.29-1.18,.79-.5,1.18-1.06,1.18-1.68s-.39-1.15-1.18-1.58c-.79-.43-2.22-.76-4.29-.96-2.07-.21-5.05-.31-8.95-.31s-6.76,.1-8.73,.31c-1.97,.21-3.29,.53-3.98,.96-.68,.44-1.03,.96-1.03,1.58s.34,1.18,1.03,1.68,2.01,.89,3.98,1.18c1.97,.29,4.88,.44,8.73,.44Z"/>
      </g>
    </g>
  </g>
</svg>