<svg height="184.56" viewBox="0 0 1276.06 184.56" width="1276.06" xmlns="http://www.w3.org/2000/svg"><g fill="#fff" opacity=".18"><path d="m1059.05 84.66q-27.15 0-43.7-4.79t-24.09-14.19q-7.54-9.41-7.54-23.35t7.54-23.33q7.53-9.4 24.09-14.2t43.7-4.8q27.14 0 43.7 4.79t24.09 14.21q7.53 9.39 7.54 23.34t-7.54 23.35q-7.53 9.41-24.09 14.19t-43.7 4.78zm0-23.65a136.4 136.4 0 0 0 22.16-1.56q9.35-1.56 14.44-5.6t5.11-11.52q0-7.47-5.11-11.52t-14.44-5.6a137.65 137.65 0 0 0 -22.16-1.55 143.66 143.66 0 0 0 -22.47 1.55q-9.66 1.56-15.07 5.6t-5.42 11.52q0 7.47 5.42 11.52t15.07 5.6a142.35 142.35 0 0 0 22.47 1.55z"/><path d="m1276.06 2.49v23.66h-94.37v10.58h77.19v21.16h-77.19v24.28h-31.13v-79.68z"/><path d="m73.83 184.56a211.63 211.63 0 0 1 -29.69-1.93 82.17 82.17 0 0 1 -23.41-6.63 36.77 36.77 0 0 1 -15.31-12.73q-5.42-8.1-5.42-20.42t5.48-20.61a38 38 0 0 1 15.75-13.24 86.27 86.27 0 0 1 24.53-7 217.79 217.79 0 0 1 31.81-2.12q23 0 38.66 4.24t23.84 12a26.91 26.91 0 0 1 8.84 18.49h-32.37a15.66 15.66 0 0 0 -5.48-5.29q-4-2.55-12-4.17t-21.54-1.62q-15.94 0-25.9 1.93t-14.52 6.18a14.51 14.51 0 0 0 -4.6 11.21 12.58 12.58 0 0 0 4.73 10.08q4.73 4 15.19 6t27.64 2a179.53 179.53 0 0 0 21-1.06 91 91 0 0 0 16.18-3.3 113 113 0 0 0 14.51-5.6l3 3.61a51.83 51.83 0 0 1 -22.91 22.29q-15.22 7.7-38.01 7.69zm52.42-2.49a41.25 41.25 0 0 1 1-8.47q1-4.72 2.55-9.9t3-9.77h-48.51v-13.07h66.36v41.21z"/><path d="m280 136.62v-34.24h31.12v39.85q0 10.58-3.92 18a33.85 33.85 0 0 1 -10.89 12.2 55 55 0 0 1 -16.07 7.41 111.79 111.79 0 0 1 -19.48 3.67 207.06 207.06 0 0 1 -21.11 1.06 218.94 218.94 0 0 1 -21.91-1.06 110.51 110.51 0 0 1 -19.61-3.67 51.64 51.64 0 0 1 -15.75-7.41 33.59 33.59 0 0 1 -10.52-12.2q-3.8-7.41-3.8-18v-39.85h31.13v34.24q0 10 4.86 15.19t13.95 7.19a105.21 105.21 0 0 0 21.72 1.93 104 104 0 0 0 21.37-1.93q9.09-1.92 14-7.16t4.91-15.22z"/><path d="m314.88 182.07 53.41-79.69h34.61l53.91 79.69h-34.23l-46.2-71.34h18.55l-45.81 71.34zm27.89-12.07v-18.69h85.16v18.69z"/><path d="m591.65 157.67-11.57 6.59v-61.88h31.12v79.69h-31.12l-93.76-54.29 11.58-6.72v61h-31.13v-79.68h31.13z"/><path d="m701.22 184.56a211.88 211.88 0 0 1 -29.7-1.93 82.09 82.09 0 0 1 -23.4-6.6 36.8 36.8 0 0 1 -15.32-12.76q-5.41-8.1-5.41-20.42t5.47-20.61a38.18 38.18 0 0 1 15.75-13.24 86.36 86.36 0 0 1 24.53-7 218 218 0 0 1 31.86-2.11q23 0 38.66 4.24t23.85 12a27 27 0 0 1 8.84 18.49h-32.43a15.61 15.61 0 0 0 -5.47-5.29q-4-2.55-12-4.17t-21.45-1.61q-15.93 0-25.89 1.93t-14.57 6.16a14.52 14.52 0 0 0 -4.61 11.21 12.61 12.61 0 0 0 4.73 10.08q4.74 4 15.19 6t27.64 2a179.41 179.41 0 0 0 21-1.06 91.08 91.08 0 0 0 16.19-3.3 112.91 112.91 0 0 0 14.5-5.6l3 3.61a51.73 51.73 0 0 1 -22.91 22.29q-15.27 7.7-38.05 7.69zm52.42-2.49a41.89 41.89 0 0 1 1-8.47c.66-3.15 1.52-6.45 2.55-9.9s2.06-6.7 3.05-9.77h-48.56v-13.07h66.32v41.21z"/><path d="m790.49 102.38h129.51v23.62h-129.51zm49.18 22h31.13v57.65h-31.13z"/><path d="m934.29 102.38h31.13v79.69h-31.13z"/><path d="m977.25 182.07 53.41-79.69h34.62l53.91 79.69h-34.19l-46.2-71.34h18.56l-45.82 71.34zm27.89-12.07v-18.69h85.16v18.69z"/><path d="m1254 157.67-11.58 6.59v-61.88h31.12v79.69h-31.12l-93.76-54.29 11.58-6.72v61h-31.12v-79.68h31.12z"/></g></svg>