<svg height="103.07" viewBox="0 0 628.44 103.07" width="628.44" xmlns="http://www.w3.org/2000/svg"><g fill="#fc462d" opacity=".33"><path d="m70.94 77.3-32.89 4.25-.16-1.55 102.62-3.48v23.48h-134.9v-19q24.11-4.23 42.29-7.65t30.24-6.37q12-3 18.11-5.91t6.07-6.44a3.74 3.74 0 0 0 -2.58-3.56q-2.58-1.07-9.32-1.5t-19.33-.46q-16.06 0-24.25 2.5t-9 7.81h-37.84a26 26 0 0 1 8.19-19.25q8.18-8 24.32-12.36t39.94-4.32q14.1 0 26.46 1.14a108.85 108.85 0 0 1 21.75 4q9.39 2.88 14.7 8a17.13 17.13 0 0 1 5.31 13 14.71 14.71 0 0 1 -5.16 11.52q-5.16 4.55-14.55 7.42a159.2 159.2 0 0 1 -22.13 4.85q-12.73 1.92-27.89 3.88z"/><path d="m227.82 102.32q-24.1 0-40.09-3.95t-23.95-12.58q-8-8.64-8-22.73t8-22.82q8-8.72 23.95-12.73t40.09-4q24 0 39.79 4t23.72 12.73q7.89 8.73 7.88 22.82t-7.88 22.73q-7.87 8.64-23.72 12.58t-39.79 3.95zm0-22.74a78.62 78.62 0 0 0 18.8-1.9q7.57-1.89 11.52-5.53a11.88 11.88 0 0 0 3.94-9.09 12.19 12.19 0 0 0 -3.87-9.17q-3.85-3.72-11.44-5.69a76.27 76.27 0 0 0 -18.8-2 82.2 82.2 0 0 0 -19.17 1.9q-7.8 1.9-11.8 5.71a12.26 12.26 0 0 0 -4 9.25 11.85 11.85 0 0 0 3.94 9.09q3.94 3.64 11.75 5.53a82.2 82.2 0 0 0 19.13 1.9z"/><path d="m389.4 102.32q-24.09 0-40.09-3.95t-23.95-12.58q-8-8.64-8-22.73t8-22.82q8-8.72 23.95-12.73t40.09-4q24 0 39.79 4t23.72 12.73q7.89 8.76 7.89 22.82t-7.89 22.73q-7.91 8.64-23.72 12.58t-39.79 3.95zm0-22.74a78.62 78.62 0 0 0 18.8-1.9q7.57-1.89 11.52-5.53a11.85 11.85 0 0 0 3.94-9.09 12.19 12.19 0 0 0 -3.87-9.17q-3.85-3.72-11.44-5.69a76.21 76.21 0 0 0 -18.8-2 82.26 82.26 0 0 0 -19.17 1.9q-7.81 1.89-11.82 5.68a12.23 12.23 0 0 0 -4 9.25 11.85 11.85 0 0 0 3.94 9.09q3.94 3.64 11.75 5.53a82.2 82.2 0 0 0 19.15 1.93z"/><path d="m551.74 103.07q-28 0-44.86-3.94t-24.26-10.76q-7.42-6.83-7.42-15.31 0-10.45 7.8-15.92t24.63-7.42q16.83-2 44.11-2t44.19 2q16.91 2 24.71 7.42t7.8 15.92q0 8.49-7.5 15.31t-24.33 10.76q-16.83 3.95-44.87 3.94zm0-54.41q-26.37 0-42.21-2t-22.89-6.9a15.07 15.07 0 0 1 -7.05-13q0-8.34 7.05-14.25t22.89-9.17q15.84-3.34 42.21-3.34 26.53 0 42.37 3.26t22.89 9.17q7.05 5.91 7 14.25a15.07 15.07 0 0 1 -7 13q-7.05 4.86-22.89 6.9t-42.37 2.08zm0 25.76q15.76 0 24.33-.83t11.93-2.59q3.33-1.74 3.33-4.32c0-1.71-1.11-3.13-3.33-4.24s-6.19-1.94-11.9-2.5-13.82-.83-24.33-.83-18.37.28-23.77.89-9.18 1.39-11.15 2.5-2.95 2.53-2.95 4.24 1 3.16 2.95 4.32 5.69 2 11.15 2.58 13.33.78 23.74.78zm0-31.83a168.38 168.38 0 0 0 21.83-1.06q7.57-1.05 10.46-2.88t2.88-4.09c0-1.52-1-2.8-2.88-3.87s-5.41-1.84-10.46-2.35-12.33-.75-21.83-.75-16.5.25-21.29.75-8 1.29-9.7 2.35-2.51 2.35-2.51 3.87.84 2.88 2.51 4.09 4.9 2.18 9.7 2.88a157.53 157.53 0 0 0 21.29 1.06z"/></g></svg>