<svg height="79.68" viewBox="0 0 870.3 79.68" width="870.3" xmlns="http://www.w3.org/2000/svg"><g fill="#fff" opacity=".18"><path d="m0 0h129.49v23.66h-129.49zm49.18 22h31.13v57.68h-31.13z"/><path d="m173.06 46.07v9.93h94.63v23.68h-125.75v-79.68h125.5v23.66h-94.38v10h77.2v12.41z"/><path d="m382.73 70.22h-18.67l67.94-70.22h31.12v79.68h-31.12v-54.28l9.34 3.86-49.14 50.42h-37.36l-49.3-50.3 9.46-3.86v54.16h-31.12v-79.68h31.12z"/><path d="m509.48 59.14v-21.79h62.13a14.93 14.93 0 0 0 6.29-1.18q2.55-1.19 2.55-5t-2.55-5.17a15.8 15.8 0 0 0 -6.29-1.12h-60.14v54.8h-31.13v-79.68h86.41a110.86 110.86 0 0 1 17.5 1.31 43.69 43.69 0 0 1 14.25 4.69 24.43 24.43 0 0 1 9.59 9.46q3.48 6.11 3.48 15.69t-3.48 15.19a21.39 21.39 0 0 1 -9.59 8.34 46.77 46.77 0 0 1 -14.25 3.61 165.4 165.4 0 0 1 -17.5.87z"/><path d="m658.26 0v56h72.59v23.68h-103.71v-79.68z"/><path d="m775.67 46.07v9.93h94.63v23.68h-125.75v-79.68h125.5v23.66h-94.38v10h77.2v12.41z"/></g></svg>