<?xml version="1.0" encoding="UTF-8"?>
<svg id="b" data-name="圖層 2" xmlns="http://www.w3.org/2000/svg" width="106.12" height="97.25" viewBox="0 0 106.12 97.25">
  <g id="c" data-name="圖層 1">
    <g>
      <path d="M42.08,.05c1.73-.17,7.06-.25,8.63,4.87,.16,.53,.29,1.12,.36,1.77,0,.02,.3,3.69-2.58,7.06-1.9,2.22-4.78,3.87-8.57,4.88-2.97,.79-5.83,1.04-8.6,1.28-1.41,.12-2.8,.24-4.17,.43-.11,.02-.22,.03-.33,.05-.05,0-.11,.02-.16,.02-3.89,.59-7.59,1.82-11.02,5.32h0c-.09,.05-.18,.09-.28,.14-.22,.11-.45,.21-.67,.33-.15,.08-.31,.16-.46,.24-.2,.11-.41,.22-.62,.33-.14,.08-.29,.15-.43,.24-.32,.18-.65,.37-.98,.57-.14,.08-.28,.17-.42,.25-.23,.14-.47,.29-.71,.44-.15,.09-.29,.19-.44,.28-.3,.19-.61,.39-.91,.6-.11,.08-.23,.15-.34,.23-.33,.23-.67,.46-1,.7-.14,.1-.28,.2-.42,.3-.29,.21-.58,.42-.87,.63-.12,.09-.24,.18-.37,.27-.4,.3-.8,.6-1.2,.92-.03,.02-.06,.05-.09,.07h0s0-.06,0-.09c0-.17,.01-.34,.02-.51,0-.03,0-.05,0-.08,.06-.94,.22-1.83,.48-2.68,.02-.06,.03-.11,.05-.17,.04-.11,.08-.23,.12-.34,.03-.08,.05-.16,.08-.23,.04-.1,.08-.2,.12-.3,.04-.09,.07-.18,.11-.27,.04-.09,.08-.18,.12-.26,.05-.1,.09-.2,.14-.29,.04-.08,.08-.16,.12-.23,.06-.11,.11-.21,.17-.31,.04-.07,.08-.14,.12-.21,.07-.11,.14-.22,.21-.34,.04-.06,.08-.12,.12-.17,.08-.12,.17-.25,.26-.37,.03-.04,.06-.09,.1-.13,.11-.14,.22-.28,.33-.42,.02-.02,.04-.05,.06-.07,.28-.33,.58-.66,.9-.98,6.46-6.42,20.2-8.15,26.8-8.99,1.55-.2,2.78-.35,3.58-.52,3.98-.82,7.27-4.54,7.38-6.58,.06-1.13-.4-2.2-1.31-2.91-.92-.71-3.68,.23-5.43,.52-1.48,.24-2.64,.04-3.29-.57-.04-.04-.09-.07-.12-.11-.51-.58-.58-1.44-.17-2.36,.27-.61,2.42-1.92,5.55-2.23Z" style="fill: #302725;"/>
      <g>
        <path d="M91.87,78.23l-.02,.06c-.03,.08-.07,.16-.11,.24-.02,.04-.04,.09-.06,.13-.03,.05-.05,.11-.08,.16-.06,.12-.12,.24-.19,.35l-.03,.05c-.04,.08-.09,.16-.14,.23l-.02,.03c-.15,.23-.31,.46-.49,.68-.02,.02-.04,.04-.05,.06-.05,.06-.1,.12-.16,.18-.06,.06-.12,.12-.19,.18-.02,.02-.03,.03-.05,.05-.11-.78-.27-3-.35-4.15,.9,.24,1.69,.39,2.4,.39-.1,.36-.25,.83-.46,1.35Z" style="fill: #302725;"/>
        <path d="M75.2,71.84c-.73,.89-2.13,2.61-2.67,3.19,0-.04-.01-.07-.02-.11-.02-.08-.03-.15-.04-.23,0-.06-.02-.12-.02-.17,0-.07-.01-.13-.02-.2,0-.06,0-.11-.01-.17,0-.11,0-.21,0-.32,0-.06,0-.13,0-.19,0-.06,0-.11,0-.17,0-.07,0-.13,.01-.2,0-.05,0-.1,.02-.15,.01-.13,.03-.26,.05-.39,0-.03,0-.06,.01-.09,.01-.08,.03-.16,.04-.24,0-.02,0-.04,.01-.06,.13-.62,.3-1.18,.44-1.57,.58,.41,1.31,.74,2.18,1.06Z" style="fill: #302725;"/>
        <path d="M103.18,67.25c-.02,.26-.05,.52-.09,.79,0,.03,0,.06-.01,.09-.12,.79-.23,1.68-.34,2.62-.05,.39-.09,.79-.15,1.19h.02s.04-.04,.06-.05c.12-.07,.23-.14,.35-.22,.04-.03,.08-.06,.12-.08,.09-.06,.19-.13,.28-.2,.04-.03,.09-.07,.13-.1,.09-.07,.17-.14,.26-.21,.04-.04,.08-.07,.12-.11,.09-.08,.17-.15,.25-.23,.03-.03,.07-.07,.1-.1,.09-.09,.17-.18,.26-.27,.02-.03,.05-.05,.07-.08,.1-.12,.2-.24,.29-.36h0c.2-.27,.38-.54,.54-.82l.02-.03c.07-.12,.13-.24,.19-.36,.01-.03,.02-.05,.03-.08,.05-.11,.1-.22,.14-.33,.01-.03,.02-.06,.03-.09,.04-.1,.07-.21,.1-.31,0-.03,.02-.06,.03-.09,.03-.11,.05-.21,.07-.32,0-.03,0-.05,.01-.08,.02-.12,.03-.23,.03-.35,0-.01,0-.02,0-.04,0-.13,0-.25-.01-.38,0-.03-.01-.06-.02-.09-.05-.09-.08-.2-.09-.31v-.02c-.21-.46-.64-.85-1.16-1.16l-.05-.03c-.06-.03-.12-.07-.18-.1-.03-.01-.05-.03-.08-.04-.09-.05-.19-.09-.28-.14-.04-.02-.09-.04-.13-.06-.05-.02-.1-.04-.14-.06-.07-.03-.15-.06-.22-.08-.04-.02-.09-.03-.13-.05-.06-.02-.12-.04-.18-.06-.04-.01-.08-.02-.11-.04-.08-.02-.16-.05-.23-.07,.14,.87,.17,1.79,.1,2.73,0,.04,0,.09-.01,.13Z" style="fill: #302725;"/>
        <path d="M66.52,56.04s-.02,.09-.03,.13c-.02,.1-.04,.2-.05,.3,0,.04-.01,.09-.02,.13-.01,.11-.02,.21-.03,.32,0,.04,0,.08,0,.13,0,.11,0,.23,0,.34,0,.04,0,.08,0,.11,0,.12,0,.24,.01,.37,0,.03,0,.06,0,.1,0,.13,.02,.26,.04,.39,0,.02,0,.05,0,.07,.02,.14,.04,.28,.07,.42v.02c.15,.78,.42,1.54,.8,2.22h0c.24-.46,.48-.9,.71-1.33,.45-.83,.87-1.62,1.23-2.33,.59-1.18,1.31-2.2,2.13-3.06h0l-.04-.02c-.06-.03-.13-.05-.2-.08-.04-.01-.07-.03-.11-.04-.05-.02-.1-.04-.15-.05-.04-.01-.09-.03-.13-.04-.05-.02-.11-.03-.16-.05-.09-.03-.19-.05-.28-.08-.03,0-.06-.02-.09-.02-.07-.02-.14-.03-.21-.05h-.04c-.85-.18-1.75-.19-2.35,.18h0c-.07,.08-.15,.15-.24,.19h0s-.05,.04-.07,.06c-.14,.15-.25,.34-.36,.53-.02,.03-.03,.06-.05,.09-.04,.08-.08,.17-.11,.25-.02,.04-.03,.07-.05,.11-.03,.09-.06,.18-.09,.27-.01,.04-.03,.08-.04,.12-.03,.09-.05,.19-.07,.29Z" style="fill: #302725;"/>
        <path d="M100.88,70.53c.11-.95,.22-1.85,.35-2.67,.05-.3,.08-.6,.1-.9,0-.06,0-.12,0-.18,.01-.24,.02-.47,.02-.71,0-.06,0-.13,0-.19,0-.28-.03-.56-.06-.84,0-.01,0-.02,0-.03-.03-.25-.07-.5-.12-.75-.02-.08-.04-.16-.05-.24-.04-.18-.09-.36-.15-.54-.02-.08-.05-.16-.07-.23-.08-.23-.16-.46-.26-.68-.02,.01-.04,.03-.06,.04,0,0-.01,.01-.02,.02-1.44,.84-2.59,.78-3.3,.58h0c-.5-.14-.96-.39-1.32-.72-.22-.2-.4-.43-.53-.67-.11-.19-.26-.37-.44-.47-.19-.1-.41-.12-.65,0-.87,.42-1.67,.48-2.37,.18-.42-.18-.8-.48-1.13-.91-.2-.26-.4-.43-.58-.5-.06-.02-.12-.03-.17-.03-.13,.01-.21,.1-.23,.13-.11,.22-.04,.55,.18,.85,.43,.61,.59,1.61-1.12,2.92-.12,.09-.22,.18-.32,.28,0,0-.02,.02-.03,.03-.09,.08-.17,.16-.24,.25-.02,.03-.05,.05-.07,.08-.08,.09-.15,.18-.21,.27-.02,.02-.03,.04-.05,.06-.07,.1-.13,.19-.18,.29,0,.01-.01,.02-.02,.04-.06,.11-.11,.21-.15,.31h0c-.13,.33-.16,.64-.11,.91h0c.43,.26,.8,.64,1.07,1.11l.03,.05c.04,.07,.07,.14,.11,.21,.02,.03,.03,.07,.05,.1,.02,.06,.05,.11,.07,.17,.02,.04,.03,.09,.05,.14,.02,.05,.03,.1,.04,.14,.01,.05,.03,.1,.04,.16,.23,.96-.02,1.61-.27,1.99-.29,.44-.75,.75-1.21,.82-.57,.09-1.08-.05-1.53-.42-.15-.12-.29-.27-.43-.44h0s-.25,0-.39,.03c-.06,0-.14,.01-.21,.02-.05,0-.1,0-.15,.01h-.03c-.12,0-.26,0-.4,0h-.02l-.63,1.98h0s.02,.02,.03,.03c.02,.02,.05,.04,.08,.06,.67,.52,1.91,1.37,3.44,1.88l.06,.02c.15,.05,.3,.09,.45,.13,.44,.12,.85,.23,1.24,.34,1.95,.55,3.37,.95,4.3,.49,.34-.17,.66-.39,.97-.61,.65-.45,1.36-.94,2.27-.91,.26,0,.53,.07,.82,.18,.05,.02,.1,.04,.15,.06,.1,.04,.2,.09,.29,.15,.64,.38,1.06,1.01,1.15,1.74,.12,1.01-.38,2.02-1.37,2.78-.09,.07-.19,.13-.29,.19-.01,0-.03,.01-.04,.02-.09,.05-.17,.09-.26,.13-.03,.01-.05,.02-.08,.03-.08,.03-.16,.06-.25,.08-.03,0-.06,.02-.09,.02-.08,.02-.17,.04-.25,.06-.03,0-.06,.01-.09,.02-.09,.01-.18,.03-.27,.04-.03,0-.06,0-.08,0-.1,0-.2,.02-.3,.02-.02,0-.04,0-.05,0-.37,.01-.74-.01-1.1-.05-.01,0-.02,0-.03,0-.1-.01-.21-.03-.31-.04h-.07c-.09-.03-.18-.04-.27-.06-.03,0-.05,0-.07-.01-.08-.02-.17-.03-.24-.05l-.07-.02c-.08-.02-.16-.04-.23-.05h-.06c-.08-.03-.16-.05-.23-.07h-.03l-.02-.02h0c-.16,.35-.36,.71-.58,1.06-.01,.02-.03,.04-.04,.07-.07,.1-.13,.2-.2,.3-.02,.03-.04,.06-.06,.08-.06,.08-.13,.16-.19,.25-.03,.03-.05,.06-.08,.1-.06,.07-.13,.15-.2,.22-.03,.03-.06,.06-.09,.1-.08,.08-.16,.16-.24,.23-.03,.03-.07,.06-.1,.09-.08,.07-.16,.13-.24,.2l-.03,.02c-.19,.15-.52,.29-.85,.18h-.04c-.36-.14-.59-.5-.68-1.05-.08-.48-.18-1.77-.27-2.93h-.05c-.08-.01-.17-.02-.26-.03-.03,0-.05,0-.08,0-.09,0-.18-.02-.27-.03-.02,0-.05,0-.07,0-.1-.01-.2-.02-.29-.04h-.04c-.43-.07-.86-.15-1.29-.24-.05-.01-.1-.02-.15-.03-.06-.01-.12-.03-.19-.04-.07-.01-.13-.03-.19-.04l-.16-.04c-.07-.02-.14-.03-.21-.05-.05-.01-.09-.02-.14-.03-.08-.02-.15-.04-.23-.06-.04,0-.07-.02-.11-.03-.08-.02-.16-.04-.23-.06-.03,0-.06-.02-.09-.03-.08-.02-.16-.05-.23-.07-.03,0-.05-.02-.08-.02-.08-.02-.15-.05-.22-.07-.02,0-.04-.01-.07-.02-.07-.02-.14-.05-.21-.07l-.05-.02c-.07-.03-.14-.05-.2-.08h-.03l-3.65-1.17h0c-.06-.02-.14-.04-.21-.06-.14-.04-.3-.08-.46-.14-.33-.1-.71-.24-1.1-.39l-.05-.02c-.16-.06-.33-.13-.49-.2-.07-.03-.14-.06-.21-.09-.11-.05-.23-.1-.34-.15-.1-.05-.21-.09-.31-.14-.08-.04-.16-.07-.23-.11-.12-.06-.25-.12-.37-.18-.05-.03-.1-.05-.16-.08-.14-.07-.27-.14-.4-.21l-.09-.05c-.14-.08-.29-.16-.42-.24h0c-.74,.9-1.57,1.89-1.91,2.24-.39,.41-.78,.56-1.16,.46h-.04s-.08-.04-.11-.06h-.01s-.07-.04-.1-.07h0s-.06-.05-.09-.08h0c-.14-.13-.22-.3-.27-.44-.04-.13-.08-.27-.11-.4,0-.03-.01-.06-.02-.09-.02-.1-.04-.2-.06-.3-.01-.07-.02-.14-.03-.21,0-.02,0-.05,0-.07-.02-.16-.03-.31-.04-.47h0c-.01-.26,0-.52,0-.77h0c0-.15,.02-.29,.04-.43,0-.05,.01-.1,.02-.15,0-.05,.01-.11,.02-.16,.02-.11,.03-.21,.05-.32v-.04h-.02l-.04-.02c-.07-.02-.14-.05-.21-.08-.03-.01-.06-.02-.08-.03-.06-.02-.12-.05-.18-.07-.03-.01-.07-.03-.11-.04-.06-.02-.12-.05-.18-.08-.04-.02-.08-.04-.12-.05-.06-.03-.12-.06-.18-.08-.04-.02-.08-.04-.12-.06-.06-.03-.12-.06-.19-.1-.04-.02-.08-.04-.12-.06-.07-.04-.14-.08-.2-.12-.03-.02-.07-.04-.1-.06-.1-.06-.2-.12-.29-.18-.04-.02-.07-.05-.1-.07-.06-.04-.12-.09-.18-.13-.04-.03-.08-.06-.12-.1-.05-.04-.1-.08-.15-.12-.04-.04-.08-.07-.12-.11-.04-.04-.09-.08-.13-.12-.04-.04-.08-.08-.12-.12-.04-.04-.08-.09-.12-.13-.04-.04-.07-.09-.11-.13-.03-.04-.07-.09-.1-.14-.03-.05-.07-.09-.1-.14-.03-.05-.06-.1-.08-.14-.03-.05-.05-.1-.08-.15-.03-.05-.04-.11-.07-.17-.02-.04-.04-.09-.05-.13-.38-1.19-.21-2.31,.47-3.06,.56-.63,1.41-.89,2.26-.71,.37,.08,.68,.21,.93,.37,.76,.49,1.06,1.31,1.33,2.04,.13,.35,.26,.72,.45,1.06,.19,.34,.5,.63,.92,.88,.7,.42,1.69,.77,2.88,1.19,.38,.13,.79,.28,1.21,.43,.15,.06,.3,.1,.45,.15l.06,.02c1.64,.49,3.22,.48,4.04,.43l.63-1.98c-.27-.16-.48-.34-.65-.49-.1-.09-.26-.23-.32-.25h0c-.51,.16-.98,.16-1.4,.01-.25-.09-.48-.24-.68-.44-.34-.33-.53-.84-.52-1.37,.01-.45,.18-1.13,.92-1.78,.09-.08,.18-.15,.27-.22h0c.09-.07,.18-.13,.28-.18h.01c.58-.35,1.21-.5,1.82-.45h0c.06-.06,.12-.12,.17-.2l.02-.03c.05-.07,.09-.15,.13-.23,0-.02,.02-.04,.02-.06,.03-.08,.06-.16,.08-.25,0-.03,.02-.07,.02-.11,.02-.08,.03-.16,.04-.24,0-.06,.01-.12,.01-.18,0-.07,.01-.14,.01-.21,0-.09,0-.18-.01-.27,0-.05,0-.1,0-.15-.01-.14-.04-.27-.06-.41,0-.01,0-.02,0-.04-.03-.16-.07-.32-.13-.48-.65-2.06,.06-2.78,.77-3.03,.35-.12,.59-.35,.64-.59,0-.03-.02-.15-.11-.23,0,0-.01,0-.02,0-.17-.12-.49-.12-.89,0-.68,.21-1.32,.2-1.87-.04-.56-.24-1.03-.7-1.41-1.38-.1-.17-.23-.28-.37-.33-.25-.09-.55-.03-.8,.09-.67,.33-1.53,.36-2.32,.08h0c-.7-.25-1.67-.86-2.36-2.38-.01-.03-.02-.06-.03-.09h0s-.09,.06-.14,.09c-.14,.09-.29,.19-.42,.29-.1,.07-.19,.15-.29,.23-.11,.08-.21,.17-.31,.26-.09,.08-.18,.16-.27,.25-.12,.11-.23,.23-.34,.35-.1,.1-.19,.21-.29,.32-.13,.15-.26,.31-.38,.47-.07,.09-.14,.19-.2,.28-.1,.14-.19,.28-.28,.42-.06,.1-.12,.19-.18,.29-.11,.19-.22,.38-.32,.58-.03,.05-.06,.1-.08,.15-.37,.74-.8,1.54-1.25,2.38-2.33,4.33-5.52,10.27-4,14.98,.65,2.01,1.87,3.5,3.18,4.52,.02,.01,.03,.02,.05,.04,.11,.09,.22,.17,.34,.25,.05,.04,.11,.08,.16,.11,.06,.04,.13,.08,.19,.12,.49,.31,.97,.56,1.43,.73,.02,0,.05,.02,.07,.03,.09,.04,.19,.07,.28,.1,.03,0,.05,.02,.08,.03,.03,.01,.06,.02,.1,.03,.07,.02,.13,.04,.19,.06,.12,.03,.23,.06,.35,.08h.03c1.18,.23,2.19,.26,3.17,.28,.28,0,.56,.02,.84,.03h.03c.11,0,.22,.01,.33,.02,.05,0,.1,0,.15,0,.1,0,.2,.01,.3,.02,.06,0,.13,.01,.19,.02,.1,0,.19,.02,.29,.03,.07,0,.14,.02,.21,.03,.09,.01,.19,.03,.29,.04,.08,.01,.16,.03,.23,.04,.09,.02,.19,.03,.28,.05,.09,.02,.19,.04,.28,.07,.08,.02,.16,.04,.25,.06l1.09-3.46c.16-.5,.69-.77,1.18-.61h0c.49,.16,.77,.69,.61,1.18l-1.09,3.46h0c.06,.02,.12,.05,.18,.07,.11,.04,.22,.09,.33,.13,.08,.03,.15,.07,.22,.1,.09,.04,.18,.08,.26,.12,.07,.04,.14,.07,.21,.11,.08,.04,.16,.08,.24,.13,.07,.04,.14,.07,.2,.11,.08,.05,.16,.09,.24,.14,.06,.04,.12,.07,.18,.11,.08,.05,.17,.1,.25,.15,.05,.03,.11,.07,.16,.1,.1,.06,.2,.13,.29,.19l.1,.06c.13,.08,.26,.17,.38,.25,.51,.34,1.03,.68,1.61,1.02,.04,.02,.08,.04,.12,.07,.08,.04,.16,.09,.24,.13,.08,.04,.16,.08,.24,.12,.05,.02,.09,.05,.14,.07,.08,.04,.15,.07,.23,.11,.06,.03,.11,.05,.17,.08h0c.12,.05,.24,.1,.37,.15,.06,.02,.12,.04,.18,.06,.03,.01,.07,.02,.1,.04,.03,0,.06,.02,.09,.02,.09,.03,.18,.05,.28,.08,.02,0,.05,.01,.07,.02,.49,.12,1.05,.2,1.65,.23,.05,0,.1,0,.15,0,.09,0,.18,0,.27,0,.11,0,.22,0,.34,0,.05,0,.09,0,.14,0,1.42-.08,2.99-.48,4.47-1.41,.23-.14,.46-.29,.68-.46,3.96-2.98,4.76-9.67,5.35-14.55Zm-7.84,1.8c-2.4-.76-3.74-3.33-2.98-5.74,.76-2.4,3.33-3.74,5.73-2.98,2.4,.76,3.74,3.33,2.98,5.73-.76,2.4-3.33,3.74-5.74,2.98Zm-15.24-14.41c2.4,.76,3.74,3.33,2.98,5.73-.76,2.4-3.33,3.74-5.74,2.98-2.4-.76-3.74-3.33-2.98-5.74,.76-2.4,3.33-3.74,5.73-2.98Z" style="fill: #302725;"/>
        <path d="M75.55,53.89c.41,.9,1,1.51,1.69,1.76,.58,.2,1.1,.12,1.4-.03,1.07-.53,2.19-.23,2.72,.73,.62,1.12,1.38,1.03,1.9,.87,1.07-.34,1.7-.05,2.04,.24,.46,.4,.55,.95,.5,1.31-.07,.43-.31,.82-.67,1.11-.21,.17-.45,.3-.73,.4-.06,.02-.1,.05-.13,.1-.22,.28-.04,1.02,.1,1.47,.38,1.19,.4,2.61-.21,3.58,.12,.07,.23,.15,.34,.24,.25,.21,.28,.58,.08,.83-.03,.04-.07,.07-.11,.1-.21,.15-.51,.15-.72-.02-.65-.54-1.64-.45-2.41,.22-.02,.01-.03,.03-.04,.04-.3,.28-.47,.59-.48,.88,0,.26,.1,.44,.16,.5,.24,.23,.51,.27,.94,.14,.65-.2,1.1,.2,1.42,.49,.23,.21,.45,.4,.77,.49,.31,.11,.6,.08,.91,.04,.43-.05,1.03-.12,1.45,.42,.27,.35,.52,.47,.85,.42,.05,0,.14-.05,.24-.12,.06-.05,.12-.11,.18-.19,.17-.26,.21-.63,.11-1.06-.24-.99-1-1.63-1.84-1.56-.32,.03-.61-.22-.63-.54-.01-.17,.05-.33,.16-.45,.1-.1,.23-.17,.38-.19,.11,0,.23,0,.34,0,.02,0,.05,0,.07,0,.05-.99,.68-1.98,1.49-2.72,.13-.12,.26-.23,.39-.33,.09-.07,.19-.15,.3-.24,.39-.34,.78-.78,.58-1.06-.47-.66-.58-1.43-.28-2.05,.06-.12,.15-.24,.26-.36,.21-.21,.51-.38,.89-.42,.45-.05,1.13,.09,1.81,.98,.33,.43,.9,.94,2.05,.38,.98-.48,2.07-.08,2.64,.97,.16,.29,.54,.66,1.13,.83,.71,.2,1.54,.03,2.39-.47,.01,0,.03-.01,.04-.02,.03-.02,.07-.03,.1-.04-1.29-2.15-3.55-3.81-6.69-4.8l-9.72-3.07c-3.14-.99-5.94-.94-8.24,.08,0,0,.02,.02,.03,.03,.02,.03,.04,.07,.06,.1Z" style="fill: #302725;"/>
        <path d="M75.5,65.22c1.62,.51,3.35-.39,3.87-2.01,.51-1.62-.39-3.35-2.01-3.87-1.62-.51-3.35,.39-3.87,2.01-.51,1.62,.39,3.35,2.01,3.87Z" style="fill: #302725;"/>
        <path d="M95.35,65.03c-1.62-.51-3.35,.39-3.87,2.01-.51,1.62,.39,3.35,2.01,3.87,1.62,.51,3.35-.39,3.87-2.01,.51-1.62-.39-3.35-2.01-3.87Z" style="fill: #302725;"/>
      </g>
      <path d="M40.66,65.13c3.15-6.41,14.47-4.28,17.51-.01,3.04,4.27,3.92,10.4,4.13,16.48,.21,6.08,5.62,5.82,9.48,8.13,0,0-4.69-.36-7.05,4.18-2.24,4.29-9.27-2.05-11.13-4.22-1.86-2.16,1.08-5.31-2.01-8.91-3.09-3.6-14.12-9.16-10.93-15.65Z" style="fill: #302725;"/>
      <path d="M2.75,43.61c6.91-5.55,18.78,1.4,19.69,7.72,1.04,7.24-.78,15.72-6.29,21.83-5.09,5.66,2.61,9.4,5.36,13.97,0,0-4.71-2.81-9.75,1.04-4.77,3.65-8.56-7.07-9.29-10.44-.73-3.37,4.12-5.38,2.91-11s-9.64-17.51-2.63-23.13Z" style="fill: #302725;"/>
      <path d="M65.2,96.64s1.08-5.31,3.76-5.1c2.68,.2,4.38,4.38,4.28,5.72l-8.04-.61Z" style="fill: #302725;"/>
      <path d="M71.02,91.02s2.88-2.47,5.36,.41c2.47,2.88,1.6,5.51,1.6,5.51l-4.02-.31s.87-2.63-2.94-5.61Z" style="fill: #302725;"/>
      <path d="M77.1,90.81s4.69,.36,5,5.1l-2.68-.2s.15-2.01-2.32-4.89Z" style="fill: #302725;"/>
      <path d="M9.52,93.74s1.08-5.31,3.76-5.1c2.68,.2,4.38,4.38,4.28,5.72l-8.04-.61Z" style="fill: #302725;"/>
      <path d="M15.33,88.12s2.88-2.47,5.36,.41c2.47,2.88,1.6,5.51,1.6,5.51l-4.02-.31s.87-2.63-2.94-5.61Z" style="fill: #302725;"/>
      <path d="M21.41,87.91s4.69,.36,5,5.1l-2.68-.2s.15-2.01-2.32-4.89Z" style="fill: #302725;"/>
      <path d="M37.05,80.89c-1.71-.06-3.83,.35-6.03,2.03-4.77,3.65-8.56-7.07-9.29-10.44-.71-3.29,3.88-5.27,3-10.58,3.02,4.14,6.84,13.15,9.5,16.9,.63,.89,1.63,1.57,2.82,2.1Z" style="fill: #302725;"/>
      <path d="M28.78,88.47s1.08-5.31,3.76-5.1,4.38,4.38,4.28,5.72l-8.04-.61Z" style="fill: #302725;"/>
      <path d="M34.6,82.85s2.88-2.47,5.36,.41c2.47,2.88,1.6,5.51,1.6,5.51l-4.02-.31s.87-2.63-2.94-5.61Z" style="fill: #302725;"/>
      <path d="M40.67,82.64s4.69,.36,5,5.1l-2.68-.2s.15-2.01-2.32-4.89Z" style="fill: #302725;"/>
      <path d="M87.56,94.98s1.08-5.31,3.76-5.1c2.68,.2,4.38,4.38,4.28,5.72l-8.04-.61Z" style="fill: #302725;"/>
      <path d="M93.37,89.36s2.88-2.47,5.36,.41c2.47,2.88,1.6,5.51,1.6,5.51l-4.02-.31s.87-2.63-2.94-5.61Z" style="fill: #302725;"/>
      <path d="M99.45,89.15s4.69,.36,5,5.1l-2.68-.2s.15-2.01-2.32-4.89Z" style="fill: #302725;"/>
      <path d="M62.75,49.3c-4.64-1.03-9.84-3.45-14.12-9.16-4.28-5.71-13.09-13.8-24.48-14.67S-.36,37.75,1.24,43.26c8.55-6.08,16.95-1.4,21.33,2.97,4.38,4.38-.2,11.44,2.94,14.37,3.14,2.93,7.68,14.06,10.73,18.33s14.53,3.8,14.53,3.8c.1-1.34-3.09-3.6-6.29-5.87s-6.96-5.92-6.65-9.94c.31-4.02,4.06-9.12,13.39-7.73,9.03,1.34,11.69,11.68,11.85,12.32-.24-5.39,2.73-9.19,2.73-9.19,0,0-2.94-5.61-.68-8.81,2.26-3.2,7.47-.78,7.47-.78,.77-1.29-5.2-2.42-9.84-3.45Zm-16.13,30.43c.56,.04,.97,.53,.93,1.08s-.53,.97-1.08,.93c-.56-.04-.97-.53-.93-1.08,.04-.56,.53-.97,1.08-.93Zm-3.97-.98c.56,.04,.97,.53,.93,1.08s-.53,.97-1.08,.93c-.56-.04-.97-.53-.93-1.08s.53-.97,1.08-.93Zm-3.25-1.59c.56,.04,.97,.53,.93,1.08s-.53,.97-1.08,.93c-.56-.04-.97-.53-.93-1.08s.53-.97,1.08-.93Zm-1.55-1.8c-.04,.56-.53,.97-1.08,.93s-.97-.53-.93-1.08c.04-.56,.53-.97,1.08-.93,.56,.04,.97,.53,.93,1.08Z" style="fill: #302725;"/>
    </g>
  </g>
</svg>