<?xml version="1.0" encoding="UTF-8"?>
<svg id="uuid-3d841f59-f1bd-4a86-8927-29fe6db40f68" data-name="圖層 2" xmlns="http://www.w3.org/2000/svg" width="252.39" height="23.41" viewBox="0 0 252.39 23.41">
  <defs>
    <style>
      .uuid-296fdd52-84fb-4523-aeeb-bc3988b042cf {
        fill: #fff;
      }

      .uuid-1fd207a5-4672-4ed1-bf68-0e5b72736b12 {
        opacity: .2;
      }
    </style>
  </defs>
  <g id="uuid-09a4e17b-b133-4d57-bb92-872249bee469" data-name="圖層 1">
    <g class="uuid-1fd207a5-4672-4ed1-bf68-0e5b72736b12">
      <g>
        <path class="uuid-296fdd52-84fb-4523-aeeb-bc3988b042cf" d="M0,.72H8.59V22.72H0V.72Zm7.36,7.6H31.55v6.53H7.36v-6.53ZM30.59,.72h8.59V22.72h-8.59V.72Z"/>
        <path class="uuid-296fdd52-84fb-4523-aeeb-bc3988b042cf" d="M44.51,.72h8.59V22.72h-8.59V.72Z"/>
        <path class="uuid-296fdd52-84fb-4523-aeeb-bc3988b042cf" d="M57.23,14.64h9.38c.16,.48,.63,.89,1.41,1.22,.78,.33,1.83,.58,3.15,.76,1.32,.17,2.85,.26,4.59,.26s3.08-.05,4.07-.15c1-.1,1.7-.29,2.11-.55,.41-.26,.62-.62,.62-1.08s-.33-.77-1-1.01-1.84-.41-3.54-.5c-1.7-.09-4.08-.14-7.15-.14-2.29,0-4.27-.11-5.93-.33-1.66-.22-3.02-.56-4.09-1.03-1.07-.47-1.85-1.07-2.35-1.79s-.76-1.59-.76-2.6c0-1.74,.59-3.18,1.77-4.31,1.18-1.13,2.97-1.98,5.36-2.54s5.39-.84,8.99-.84c5.27,0,9.3,.76,12.08,2.29,2.78,1.52,4.18,3.72,4.18,6.58h-8.9c-.11-.76-.82-1.33-2.13-1.74s-3.16-.6-5.57-.6-4.15,.14-5.31,.41c-1.16,.28-1.74,.75-1.74,1.41,0,.34,.16,.62,.48,.82,.32,.21,.88,.37,1.67,.5s1.91,.21,3.35,.26c1.44,.05,3.28,.07,5.5,.07,2.45,0,4.54,.12,6.26,.36,1.72,.24,3.11,.6,4.18,1.08,1.07,.48,1.84,1.09,2.32,1.84,.48,.75,.72,1.62,.72,2.63,0,1.74-.55,3.16-1.65,4.26-1.1,1.1-2.84,1.91-5.22,2.44-2.38,.53-5.5,.79-9.35,.79-2.18,0-4.18-.13-6-.38-1.82-.25-3.44-.62-4.86-1.12-1.42-.49-2.62-1.1-3.61-1.82s-1.74-1.54-2.25-2.44c-.52-.9-.77-1.91-.77-3.01Z"/>
        <path class="uuid-296fdd52-84fb-4523-aeeb-bc3988b042cf" d="M93.35,.72h35.75V7.25h-35.75V.72Zm13.58,6.08h8.59v15.91h-8.59V6.81Z"/>
        <path class="uuid-296fdd52-84fb-4523-aeeb-bc3988b042cf" d="M151.27,23.41c-5,0-9.02-.44-12.06-1.32-3.05-.88-5.27-2.19-6.65-3.92-1.39-1.73-2.08-3.88-2.08-6.44s.69-4.71,2.08-6.44c1.39-1.73,3.6-3.04,6.65-3.92,3.05-.88,7.07-1.32,12.06-1.32s9.02,.44,12.06,1.32c3.05,.88,5.26,2.19,6.65,3.92,1.39,1.73,2.08,3.88,2.08,6.44s-.69,4.71-2.08,6.44c-1.39,1.73-3.6,3.04-6.65,3.92-3.05,.88-7.07,1.32-12.06,1.32Zm0-6.53c2.36,0,4.4-.14,6.12-.43,1.72-.29,3.05-.8,3.99-1.55,.94-.74,1.41-1.8,1.41-3.18s-.47-2.43-1.41-3.18c-.94-.74-2.27-1.26-3.99-1.55-1.72-.29-3.76-.43-6.12-.43s-4.43,.14-6.2,.43c-1.78,.29-3.16,.8-4.16,1.55s-1.5,1.8-1.5,3.18,.5,2.44,1.5,3.18c1,.75,2.38,1.26,4.16,1.55,1.78,.29,3.84,.43,6.2,.43Z"/>
        <path class="uuid-296fdd52-84fb-4523-aeeb-bc3988b042cf" d="M176.53,22.72V.72h26.57c2.08,0,3.96,.24,5.62,.7,1.66,.47,2.98,1.25,3.95,2.35,.97,1.1,1.46,2.6,1.46,4.5,0,1.26-.23,2.3-.69,3.13-.46,.82-1.09,1.47-1.89,1.92s-1.72,.79-2.75,1-2.11,.33-3.23,.38l-2.51-.48c2.73,.02,4.83,.14,6.31,.34,1.48,.21,2.51,.58,3.09,1.12s.88,1.31,.88,2.32v4.71h-8.59v-3.68c0-.69-.13-1.21-.4-1.56-.26-.35-.84-.6-1.72-.74-.88-.14-2.24-.21-4.07-.21h-13.44v6.19h-8.59Zm8.59-11.93h17.98c.69,0,1.27-.11,1.74-.34,.47-.23,.7-.66,.7-1.31,0-.6-.24-1-.7-1.22-.47-.22-1.05-.33-1.74-.33h-17.98v3.2Z"/>
        <path class="uuid-296fdd52-84fb-4523-aeeb-bc3988b042cf" d="M252.39,.72l-13.92,16.4v5.6h-8.59v-5.6L215.96,.72h10.14l11.31,14.26h-6.36L242.25,.72h10.14Z"/>
      </g>
    </g>
  </g>
</svg>