<?xml version="1.0" encoding="UTF-8"?>
<svg id="uuid-9c6c8064-496b-4df6-9dcd-b28f7b10395e" data-name="圖層 2" xmlns="http://www.w3.org/2000/svg" width="352.27" height="54.62" viewBox="0 0 352.27 54.62">
  <defs>
    <style>
      .uuid-463ef2a9-5808-4bf9-84ef-31250b51beae {
        fill: #fff;
      }

      .uuid-030cd0d2-93b2-4759-b534-c52b606aab22 {
        opacity: .2;
      }
    </style>
  </defs>
  <g id="uuid-ac082669-00ec-40fd-9b6c-5ede3a7eae25" data-name="圖層 1">
    <g class="uuid-030cd0d2-93b2-4759-b534-c52b606aab22">
      <g>
        <path class="uuid-463ef2a9-5808-4bf9-84ef-31250b51beae" d="M292.36,23.37c-5,0-9.02-.44-12.06-1.32-3.05-.88-5.26-2.19-6.65-3.92-1.39-1.73-2.08-3.88-2.08-6.44s.69-4.71,2.08-6.45c1.39-1.73,3.6-3.04,6.65-3.92,3.05-.88,7.07-1.32,12.06-1.32s9.02,.44,12.06,1.32c3.05,.88,5.26,2.19,6.65,3.92,1.39,1.73,2.08,3.88,2.08,6.45s-.69,4.71-2.08,6.44c-1.39,1.73-3.6,3.04-6.65,3.92-3.05,.88-7.07,1.32-12.06,1.32Zm0-6.53c2.36,0,4.4-.14,6.12-.43,1.72-.29,3.05-.8,3.99-1.55,.94-.74,1.41-1.8,1.41-3.18s-.47-2.43-1.41-3.18c-.94-.74-2.27-1.26-3.99-1.55-1.72-.29-3.76-.43-6.12-.43s-4.43,.14-6.2,.43c-1.78,.29-3.16,.8-4.16,1.55-1,.75-1.5,1.8-1.5,3.18s.5,2.43,1.5,3.18c1,.75,2.38,1.26,4.16,1.55,1.78,.29,3.84,.43,6.2,.43Z"/>
        <path class="uuid-463ef2a9-5808-4bf9-84ef-31250b51beae" d="M352.27,.69V7.22h-26.05v2.92h21.31v5.84h-21.31v6.7h-8.59V.69h34.65Z"/>
        <path class="uuid-463ef2a9-5808-4bf9-84ef-31250b51beae" d="M20.38,54.62c-2.98,0-5.71-.18-8.2-.53-2.49-.35-4.64-.96-6.46-1.82-1.82-.86-3.23-2.03-4.23-3.52-1-1.49-1.5-3.37-1.5-5.64s.5-4.17,1.51-5.69c1.01-1.52,2.46-2.74,4.35-3.64,1.89-.91,4.15-1.55,6.77-1.94,2.62-.39,5.55-.58,8.78-.58,4.24,0,7.8,.39,10.67,1.17,2.88,.78,5.07,1.88,6.58,3.32,1.51,1.43,2.33,3.13,2.44,5.1h-8.94c-.28-.5-.78-.99-1.51-1.46-.73-.47-1.83-.85-3.3-1.15-1.47-.3-3.45-.45-5.95-.45-2.93,0-5.32,.18-7.15,.53-1.83,.36-3.17,.92-4.02,1.7-.85,.78-1.27,1.81-1.27,3.09,0,1.12,.43,2.05,1.31,2.78,.87,.73,2.27,1.28,4.19,1.65,1.93,.37,4.47,.55,7.63,.55,2.22,0,4.15-.1,5.79-.29,1.64-.19,3.13-.5,4.47-.91,1.34-.41,2.68-.93,4-1.55l.82,1c-1.42,2.68-3.53,4.73-6.32,6.15-2.8,1.42-6.29,2.13-10.48,2.13Zm14.47-.69c0-.69,.09-1.47,.27-2.34,.18-.87,.42-1.78,.7-2.73,.29-.95,.57-1.85,.84-2.7h-13.41v-3.61h18.32v11.38h-6.74Z"/>
        <path class="uuid-463ef2a9-5808-4bf9-84ef-31250b51beae" d="M77.3,41.39v-9.45h8.59v11c0,1.95-.36,3.6-1.08,4.97-.72,1.36-1.72,2.49-3.01,3.37-1.28,.88-2.76,1.56-4.43,2.04-1.67,.48-3.47,.82-5.38,1.01-1.91,.19-3.86,.29-5.83,.29-2.09,0-4.1-.1-6.05-.29-1.95-.2-3.75-.53-5.41-1.01-1.66-.48-3.11-1.16-4.35-2.04-1.24-.88-2.21-2-2.9-3.37-.7-1.36-1.05-3.02-1.05-4.97v-11h8.59v9.45c0,1.83,.45,3.23,1.34,4.19,.89,.96,2.17,1.62,3.83,1.98,1.66,.36,3.66,.53,6,.53s4.24-.18,5.91-.53c1.67-.36,2.96-1.01,3.87-1.98,.91-.96,1.36-2.36,1.36-4.19Z"/>
        <path class="uuid-463ef2a9-5808-4bf9-84ef-31250b51beae" d="M86.93,53.93l14.75-22h9.56l14.88,22h-9.45l-12.75-19.7h5.12l-12.65,19.7h-9.45Zm7.7-3.33v-5.16h23.51v5.16h-23.51Z"/>
        <path class="uuid-463ef2a9-5808-4bf9-84ef-31250b51beae" d="M163.33,47.19l-3.2,1.82V31.93h8.59v22h-8.59l-25.88-14.99,3.2-1.86v16.84h-8.59V31.93h8.59l25.88,15.26Z"/>
        <path class="uuid-463ef2a9-5808-4bf9-84ef-31250b51beae" d="M193.58,54.62c-2.98,0-5.71-.18-8.2-.53-2.49-.35-4.64-.96-6.46-1.82-1.82-.86-3.23-2.03-4.23-3.52-1-1.49-1.5-3.37-1.5-5.64s.5-4.17,1.51-5.69c1.01-1.52,2.46-2.74,4.35-3.64,1.89-.91,4.15-1.55,6.77-1.94,2.62-.39,5.55-.58,8.78-.58,4.24,0,7.8,.39,10.67,1.17,2.88,.78,5.07,1.88,6.58,3.32,1.51,1.43,2.33,3.13,2.44,5.1h-8.94c-.28-.5-.78-.99-1.51-1.46-.73-.47-1.83-.85-3.3-1.15-1.47-.3-3.45-.45-5.95-.45-2.93,0-5.32,.18-7.15,.53-1.83,.36-3.17,.92-4.02,1.7-.85,.78-1.27,1.81-1.27,3.09,0,1.12,.43,2.05,1.31,2.78,.87,.73,2.27,1.28,4.19,1.65,1.93,.37,4.47,.55,7.63,.55,2.22,0,4.15-.1,5.79-.29,1.64-.19,3.13-.5,4.47-.91,1.34-.41,2.68-.93,4-1.55l.82,1c-1.42,2.68-3.53,4.73-6.32,6.15-2.8,1.42-6.29,2.13-10.48,2.13Zm14.47-.69c0-.69,.09-1.47,.27-2.34,.18-.87,.42-1.78,.7-2.73,.29-.95,.57-1.85,.84-2.7h-13.41v-3.61h18.32v11.38h-6.74Z"/>
        <path class="uuid-463ef2a9-5808-4bf9-84ef-31250b51beae" d="M218.23,31.93h35.75v6.53h-35.75v-6.53Zm13.58,6.08h8.59v15.91h-8.59v-15.91Z"/>
        <path class="uuid-463ef2a9-5808-4bf9-84ef-31250b51beae" d="M257.92,31.93h8.59v22h-8.59V31.93Z"/>
        <path class="uuid-463ef2a9-5808-4bf9-84ef-31250b51beae" d="M269.78,53.93l14.75-22h9.56l14.88,22h-9.45l-12.75-19.7h5.12l-12.65,19.7h-9.45Zm7.7-3.33v-5.16h23.51v5.16h-23.51Z"/>
        <path class="uuid-463ef2a9-5808-4bf9-84ef-31250b51beae" d="M346.19,47.19l-3.2,1.82V31.93h8.59v22h-8.59l-25.88-14.99,3.2-1.86v16.84h-8.59V31.93h8.59l25.88,15.26Z"/>
      </g>
    </g>
  </g>
</svg>