<?xml version="1.0" encoding="UTF-8"?>
<svg id="_圖層_2" data-name="圖層 2" xmlns="http://www.w3.org/2000/svg" width="319.79" height="48.98" viewBox="0 0 319.79 48.98">
  <g id="_圖層_2-2" data-name="圖層 2">
    <g style="opacity: .2;">
      <g>
        <path d="M0,.92H11.5V30.36H0V.92ZM9.84,11.09H42.23v8.74H9.84V11.09ZM40.94,.92h11.5V30.36h-11.5V.92Z" style="fill: #fff;"/>
        <path d="M86.25,31.28c-6.69,0-12.07-.59-16.15-1.77-4.08-1.18-7.05-2.93-8.9-5.24-1.86-2.32-2.78-5.19-2.78-8.62s.93-6.31,2.78-8.62c1.85-2.32,4.82-4.06,8.9-5.24,4.08-1.18,9.46-1.77,16.15-1.77s12.07,.59,16.15,1.77c4.08,1.18,7.05,2.93,8.9,5.24,1.86,2.32,2.78,5.19,2.78,8.62s-.93,6.31-2.78,8.62c-1.86,2.32-4.82,4.06-8.9,5.24-4.08,1.18-9.46,1.77-16.15,1.77Zm0-8.74c3.16,0,5.89-.19,8.19-.58,2.3-.38,4.08-1.07,5.34-2.07,1.26-1,1.89-2.42,1.89-4.25s-.63-3.26-1.89-4.26c-1.26-1-3.04-1.69-5.34-2.07-2.3-.38-5.03-.58-8.19-.58s-5.93,.19-8.3,.58c-2.38,.38-4.23,1.07-5.57,2.07-1.33,1-2,2.42-2,4.26s.67,3.26,2,4.25c1.33,1,3.19,1.69,5.57,2.07,2.38,.38,5.14,.58,8.3,.58Z" style="fill: #fff;"/>
        <path d="M131.47,30.36L115,.92h12.97l13.89,27.37-4.37,.09L150.51,.92h13.89l13.02,27.46-4.37-.09L186.94,.92h12.79l-16.28,29.44h-15.55l-12.7-24.79h4.51l-12.7,24.79h-15.55Z" style="fill: #fff;"/>
        <path d="M214.45,.92h47.84V9.66h-47.84V.92Zm18.17,8.14h11.5V30.36h-11.5V9.06Z" style="fill: #fff;"/>
        <path d="M291.96,31.28c-6.69,0-12.07-.59-16.15-1.77-4.08-1.18-7.05-2.93-8.9-5.24-1.86-2.32-2.78-5.19-2.78-8.62s.93-6.31,2.78-8.62c1.85-2.32,4.82-4.06,8.9-5.24,4.08-1.18,9.46-1.77,16.15-1.77s12.07,.59,16.15,1.77c4.08,1.18,7.05,2.93,8.9,5.24,1.86,2.32,2.78,5.19,2.78,8.62s-.93,6.31-2.78,8.62c-1.86,2.32-4.82,4.06-8.9,5.24-4.08,1.18-9.46,1.77-16.15,1.77Zm0-8.74c3.16,0,5.89-.19,8.19-.58,2.3-.38,4.08-1.07,5.34-2.07,1.26-1,1.89-2.42,1.89-4.25s-.63-3.26-1.89-4.26c-1.26-1-3.04-1.69-5.34-2.07-2.3-.38-5.03-.58-8.19-.58s-5.93,.19-8.3,.58c-2.38,.38-4.23,1.07-5.57,2.07-1.33,1-2,2.42-2,4.26s.67,3.26,2,4.25c1.33,1,3.19,1.69,5.57,2.07,2.38,.38,5.14,.58,8.3,.58Z" style="fill: #fff;"/>
      </g>
    </g>
    <g>
      <path d="M38.74,21.9h9.5v3.1h-6.11v15.23h-3.39V21.9Z" style="fill: #302725;"/>
      <path d="M65.86,42.61c-.92,2.38-2.52,4.79-4.1,6.25-.6-.57-1.95-1.49-2.73-1.92,1.52-1.26,2.87-3.21,3.59-5.14l3.24,.8Zm5.59-1.03h-10.61V23.16h10.61v18.42Zm-3.33-15.72h-4.07v2.61h4.07v-2.61Zm0,5.13h-4.07v2.67h4.07v-2.67Zm0,5.19h-4.07v2.67h4.07v-2.67Zm1.12,5.56c1.26,1.41,2.55,3.27,3.16,4.59l-2.87,1.46c-.55-1.35-1.84-3.36-3.04-4.85l2.75-1.2Zm16.9-9.81h-3.1v13.02c0,1.72-.34,2.64-1.32,3.18-1,.54-2.41,.72-4.5,.72-.14-.95-.66-2.44-1.15-3.36,1.32,.06,2.58,.06,3.01,.06,.43-.03,.6-.17,.6-.6v-8.75c-1.69,3.27-3.79,6.14-6.05,8.12-.57-.77-1.61-1.92-2.32-2.5,2.87-2.15,5.54-6,7.2-9.9h-6.31v-3.16h7.49v-6.66h3.36v6.66h3.1v3.16Z" style="fill: #302725;"/>
      <path d="M103.27,33.58c0,4.53-.43,11.1-3.07,15.23-.57-.6-1.95-1.61-2.73-1.92,2.35-3.79,2.52-9.29,2.52-13.31v-9.29h10.87c-.23-.52-.49-1.03-.72-1.43l3.27-.86c.4,.72,.83,1.52,1.18,2.29h9.55v2.87h-20.88v6.43Zm21.11,12.19h-9.29v2.9h-3.27v-2.9h-8.66v-2.75h8.66v-1.35h-6.66v-8.98h6.66v-1.21h-7.49v-2.55h7.49v-1.32h3.27v1.32h8.32v2.55h-8.32v1.21h7.03v8.98h-7.03v1.35h9.29v2.75Zm-16.24-9.58h3.67v-1.41h-3.67v1.41Zm3.67,3.38v-1.43h-3.67v1.43h3.67Zm3.27-4.79v1.41h3.87v-1.41h-3.87Zm3.87,3.36h-3.87v1.43h3.87v-1.43Z" style="fill: #302725;"/>
      <path d="M145.16,48.98h-9.52v-3.1h6.11v-15.23h3.41v18.33Z" style="fill: #302725;"/>
      <path d="M160.6,46.31c.98-1.86,1.98-4.56,2.52-6.77l3.01,1.21c-.6,2.15-1.46,5.08-2.32,7.03l-3.21-1.46Zm7.4-18.5c-1.26,2.41-2.81,4.53-4.45,6.08-.57-.63-1.98-1.84-2.81-2.38,2.64-2.18,4.79-5.74,5.88-9.52l3.47,.8c-.23,.69-.49,1.41-.75,2.09h16.72v2.93h-12.25v1.64h10.61v2.67h-10.61v1.72h11.39v2.78h-11.39v1.35c1.43,1.09,3.33,2.5,4.27,3.41l-2.24,2.38c-.98-1.06-3.13-2.81-4.65-4.04l1-.98h-1.84v-10.93h-2.38Zm15.78,19.88c-.32-.98-.83-2.35-1.41-3.76-.43,3.56-1.49,4.48-4.62,4.48h-5.68c-4.1,0-5.14-.98-5.14-3.99v-4.5h3.39v4.45c0,.86,.32,1,2.04,1h5.14c1.38,0,1.64-.37,1.78-2.7,.72,.52,2.12,1,3.07,1.2-.54-1.29-1.12-2.61-1.61-3.76l3.21-.89c1.15,2.35,2.64,5.42,3.33,7.37l-3.5,1.09Z" style="fill: #302725;"/>
      <path d="M204.01,27.12v4.93c0,4.68-.4,12.05-2.52,16.7-.57-.6-2.04-1.69-2.73-2.01,1.86-4.27,2.01-10.41,2.01-14.69v-7.89h10.76c-.14-.6-.32-1.23-.46-1.72l3.44-.63c.29,.72,.57,1.61,.77,2.35h9.78v2.95h-21.06Zm3.24,6.57c0,1.46-.2,3.21-1.49,4.45-.34-.4-1.15-1.06-1.64-1.32,1.09-.8,1.26-2.24,1.26-3.21v-1.12h1.86v1.2Zm13.08,7.89c1.49,1.69,3.56,4.1,4.65,5.57l-2.61,1.38c-.29-.43-.66-.95-1.06-1.49-13.51,.98-15.09,1-16.15,1.35-.11-.54-.52-1.95-.8-2.73,.98-.14,1.95-.52,3.41-1.26,.63-.26,1.84-.83,3.24-1.64-3.67,.23-4.36,.37-4.85,.55-.11-.52-.49-1.81-.77-2.52,.54-.06,1.18-.34,1.86-.72,.75-.37,3.07-1.66,4.82-3.21-.63-.26-.77-.83-.77-1.84v-2.41h1.81v2.44c0,.43,.03,.57,.32,.57,.23,0,.66,0,.92-.09,.03,.29,.03,.57,.06,.89,.98-.8,1.15-2.01,1.15-2.9v-1.09h1.86v1.18c0,1.38-.2,3.04-1.52,4.22-.32-.4-1-.95-1.49-1.23l.03,.29c-.23,.09-.63,.11-1,.11h-.55l1.75,1.12c-1.41,1.03-2.98,2.04-4.53,2.84l4.27-.2c1.32-.83,2.64-1.72,3.82-2.7l2.52,1.69c-2.98,2.15-6.14,4.02-9.24,5.48l8.06-.54c-.57-.66-1.15-1.35-1.64-1.95l2.44-1.15Zm-12.31-3.99v-6h-3.13v-2.55h3.13v-1.32h2.55v1.32h3.47v2.55h-3.47v6h-2.55Zm10.21,.06v-6.05h-3.44v-2.55h3.44v-1.32h2.55v1.32h4.07v2.55h-4.07v6.05h-2.55Zm6-1.66c.29,0,.83-.03,1.12-.11,.03,.43,.06,.98,.11,1.43-.26,.09-.75,.11-1.18,.11h-1c-1.49,0-1.75-.66-1.75-2.09v-2.87h1.92v2.9c0,.46,.03,.63,.37,.63h.4Z" style="fill: #302725;"/>
      <path d="M256.75,28.73v2.01h6.31v14.74c0,1.38-.23,2.18-1.12,2.73-.83,.49-1.92,.54-3.47,.54-.11-.86-.49-2.15-.86-2.95,.75,.03,1.55,.03,1.84,0,.29,0,.37-.09,.37-.37v-2.64h-3.07v5.82h-3.27v-5.82h-2.87v6.02h-3.18v-14.63c-.75,.83-1.41,1.72-2.01,2.44,.69,.83,1.29,1.66,1.55,1.98l-1.81,2.27c-.37-.69-.95-1.66-1.58-2.64v10.47h-3.07v-9.64c-.69,.92-1.41,1.78-2.07,2.47-.32-.77-1.18-2.35-1.69-2.84,2.21-2.07,4.39-5.51,5.77-8.84h-4.76v-2.96h3.73c-.46-1-1.35-2.41-2.09-3.44l2.73-1.23c.89,1.09,1.89,2.52,2.35,3.5l-2.29,1.18h1.84l.55-.11,1.78,1.06c-.69,2.15-1.66,4.33-2.75,6.37v.11l.57,.66c.49-.8,1.09-1.81,1.41-2.52l1.86,1.35v-3.07h6.05v-2.01h-6.68v-3.1h6.68v-3.59h3.27v3.59h3.64c-.83-.69-1.89-1.38-2.81-1.86l1.89-1.81c1.43,.69,3.13,1.81,3.99,2.67l-1.03,1h1.52v3.1h-7.2Zm-6.14,4.88v1.92h2.87v-1.92h-2.87Zm2.87,6.54v-1.98h-2.87v1.98h2.87Zm3.27-6.54v1.92h3.07v-1.92h-3.07Zm3.07,6.54v-1.98h-3.07v1.98h3.07Z" style="fill: #302725;"/>
      <path d="M283.98,29.9c0-1.43-.95-2.35-2.44-2.35-1.26,0-2.27,.66-3.18,1.61l-2.32-2.12c1.49-1.69,3.53-2.87,6.02-2.87,3.44,0,5.97,1.78,5.97,5.45,0,4.07-4.99,5.45-4.56,9.5h-3.67c-.69-4.62,4.19-6.45,4.19-9.21Zm-4.96,14.09c0-1.55,1.12-2.75,2.61-2.75s2.64,1.2,2.64,2.75-1.12,2.75-2.64,2.75-2.61-1.21-2.61-2.75Z" style="fill: #302725;"/>
    </g>
  </g>
</svg>