<?xml version="1.0" encoding="UTF-8"?>
<svg id="b" data-name="圖層 2" xmlns="http://www.w3.org/2000/svg" width="139.79" height="107.04" viewBox="0 0 139.79 107.04">
  <defs>
    <style>
      .d, .e {
        fill: #fff;
      }

      .f {
        fill: #fc462d;
      }

      .g {
        fill: none;
        stroke: #fc462d;
        stroke-linecap: round;
        stroke-width: 4.12px;
      }

      .g, .e {
        stroke-miterlimit: 10;
      }

      .e {
        stroke: #df6432;
        stroke-width: .45px;
      }

      .h {
        fill: #df6432;
      }
    </style>
  </defs>
  <g id="c" data-name="圖層 2">
    <g>
      <path class="d" d="M87.07,25.4c-1.63,.47-3.33-.42-3.89-2.01-7.16-20.11-24.83-15.95-28.94-14.65-4.04,1.28-5.61,3.62-9.7-.47C40.45,4.18,36.27,0,36.27,0l-3.52,3.52s4.18,4.18,8.27,8.27c4.08,4.08,1.72,5.65,.46,9.7-1.14,3.66-5.45,21.74,14.65,28.94,1.59,.57,2.47,2.27,2.01,3.89-4.09,14.27-.51,30.28,10.73,41.52,16.49,16.49,40.75,14.01,57.24-2.48,16.49-16.49,18.97-40.75,2.48-57.24-11.24-11.24-27.25-14.82-41.52-10.73Z"/>
      <path class="g" d="M57.04,50.99s8.72-18.66,26.7-26.7"/>
      <path class="g" d="M58.15,54.32s12.37-17.37,29.31-29.03"/>
      <path class="g" d="M55.71,51.88s-12.26-8.12-14.78-2.29c-2.52,5.83,5.06,10.28,15.57,3.09"/>
      <path class="g" d="M54.6,53.44s-16.94,7.12-10.76,13.05c6.18,5.94,12.42-6.51,12.81-11"/>
    </g>
    <path class="g" d="M2.06,70.91s6.6-9.29,16.15-6.21c9.55,3.08,32.79,25.63,39.4-8.3"/>
    <path class="g" d="M14.2,50.99s7.65-3.37,13.21,5.41c5.56,8.78,16.77,19.79,29.84,1.71"/>
    <polygon class="f" points="13.75 48.97 15.31 52.76 9.22 55.28 8.97 55.36 13.66 53.02 8.69 54.68 13.38 52.34 8.41 54 13.1 51.66 8.12 53.32 12.81 50.98 7.84 52.63 12.53 50.3 7.56 51.95 12.25 49.61 11.97 49.7 13.75 48.97"/>
    <g>
      <g>
        <ellipse class="e" cx="67.57" cy="13.78" rx="3.9" ry="8.2"/>
        <path class="h" d="M67.13,13.78c0,2.52,.97,4.57,2.17,4.57s2.17-2.05,2.17-4.57-.97-4.57-2.17-4.57c-.43,0-.83,.26-1.16,.71l1.16,3.86-2.17-.29c0,.09,0,.19,0,.29Z"/>
      </g>
      <g>
        <ellipse class="e" cx="75.34" cy="13.78" rx="3.9" ry="8.2"/>
        <path class="h" d="M74.9,13.78c0,2.52,.97,4.57,2.17,4.57s2.17-2.05,2.17-4.57-.97-4.57-2.17-4.57c-.43,0-.83,.26-1.16,.71l1.16,3.86-2.17-.29c0,.09,0,.19,0,.29Z"/>
      </g>
    </g>
  </g>
</svg>