<?xml version="1.0" encoding="UTF-8"?>
<svg id="b" data-name="圖層 2" xmlns="http://www.w3.org/2000/svg" width="144.27" height="107.04" viewBox="0 0 144.27 107.04">
  <defs>
    <style>
      .d, .e {
        fill: #fff;
      }

      .f {
        fill: #fc462d;
      }

      .g {
        fill: none;
        stroke: #fc462d;
        stroke-linecap: round;
        stroke-width: 4.12px;
      }

      .g, .e {
        stroke-miterlimit: 10;
      }

      .e {
        stroke: #df6432;
        stroke-width: .45px;
      }

      .h {
        fill: #df6432;
      }
    </style>
  </defs>
  <g id="c" data-name="圖層 2">
    <g>
      <path class="d" d="M52.72,25.4c1.63,.47,3.33-.42,3.89-2.01,7.16-20.11,24.83-15.95,28.94-14.65,4.04,1.28,5.61,3.62,9.7-.47L103.52,0l3.52,3.52-8.27,8.27c-4.08,4.08-1.72,5.65-.46,9.7,1.14,3.66,5.45,21.74-14.65,28.94-1.59,.57-2.47,2.27-2.01,3.89,4.09,14.27,.51,30.28-10.73,41.52-16.49,16.49-40.75,14.01-57.24-2.48C-2.81,76.87-5.29,52.62,11.2,36.13c11.24-11.24,27.25-14.82,41.52-10.73Z"/>
      <path class="g" d="M82.75,50.99s-8.72-18.66-26.7-26.7"/>
      <path class="g" d="M81.64,54.32s-12.37-17.37-29.31-29.03"/>
      <path class="g" d="M84.08,51.88s12.26-8.12,14.78-2.29c2.52,5.83-5.06,10.28-15.57,3.09"/>
      <path class="g" d="M85.19,53.44s16.94,7.12,10.76,13.05c-6.18,5.94-12.42-6.51-12.81-11"/>
    </g>
    <path class="g" d="M139.16,70.91s-6.6-9.29-16.15-6.21c-9.55,3.08-32.79,25.63-39.4-8.3"/>
    <path class="g" d="M127.03,50.99s-7.65-3.37-13.21,5.41c-5.56,8.78-16.77,19.79-29.84,1.71"/>
    <polygon class="f" points="127.48 48.97 125.91 52.76 132.01 55.28 132.26 55.36 127.57 53.02 132.54 54.68 127.85 52.34 132.82 54 128.13 51.66 133.1 53.32 128.41 50.98 133.38 52.63 128.69 50.3 133.67 51.95 128.98 49.61 129.25 49.7 127.48 48.97"/>
    <polygon class="f" points="140.64 69.45 137.29 71.81 141.08 77.2 141.25 77.4 138.54 72.92 141.85 76.98 139.14 72.49 142.45 76.55 139.75 72.07 143.06 76.13 140.35 71.64 143.66 75.7 140.95 71.22 144.27 75.28 141.56 70.79 141.74 71.02 140.64 69.45"/>
    <g>
      <g>
        <ellipse class="e" cx="70.35" cy="13.78" rx="3.9" ry="8.2"/>
        <path class="h" d="M70.79,13.78c0,2.52-.97,4.57-2.17,4.57s-2.17-2.05-2.17-4.57,.97-4.57,2.17-4.57c.43,0,.83,.26,1.16,.71l-1.16,3.86,2.17-.29c0,.09,0,.19,0,.29Z"/>
      </g>
      <g>
        <ellipse class="e" cx="62.59" cy="13.78" rx="3.9" ry="8.2"/>
        <path class="h" d="M63.03,13.78c0,2.52-.97,4.57-2.17,4.57s-2.17-2.05-2.17-4.57,.97-4.57,2.17-4.57c.43,0,.83,.26,1.16,.71l-1.16,3.86,2.17-.29c0,.09,0,.19,0,.29Z"/>
      </g>
    </g>
  </g>
</svg>