<svg height="50.63" viewBox="0 0 162.52 50.63" width="162.52" xmlns="http://www.w3.org/2000/svg"><path d="m140.52 50.63 22-19.85a7.73 7.73 0 0 1 0-10.93l-22-19.85h-118.52l-22 19.85a7.73 7.73 0 0 1 0 10.93l22 19.85z" fill="#ec6531"/><g fill="#fff"><path d="m52.91 24.84a19.28 19.28 0 0 1 -3.1 4.3c.6 1.76 1.32 2.82 2.07 2.82.44 0 .66-.92.76-3.27a3.9 3.9 0 0 0 1.43 1c-.29 3.22-.86 4.09-2.35 4.09s-2.49-1.25-3.29-3.27a20.25 20.25 0 0 1 -3.64 2.49 8 8 0 0 0 -1.18-1.42 18.26 18.26 0 0 0 4.25-2.89 32.31 32.31 0 0 1 -1-5.31h-4.04v2.65l3.07-.62.11 1.59c-1.05.25-2.14.51-3.2.74v3.77c0 1-.24 1.55-.88 1.83a8.61 8.61 0 0 1 -3.15.35 7 7 0 0 0 -.64-1.78h2.5s.44-.11.44-.41v-3.34l-3.55.77-.48-1.76c1.09-.19 2.5-.45 4-.76v-3h-3.66v-1.65h3.71v-2.62c-1.09.19-2.17.34-3.16.48a6.78 6.78 0 0 0 -.54-1.46 44.58 44.58 0 0 0 7.27-1.65l1.19 1.49a26.6 26.6 0 0 1 -3 .79v3h3.9c-.15-1.71-.22-3.49-.24-5.29h1.76c0 1.82.06 3.62.2 5.29h5.23v1.66h-5a35.64 35.64 0 0 0 .66 3.85 16.37 16.37 0 0 0 2.1-3.09zm-.91-3.92a17 17 0 0 0 -2.74-3.2l1.28-.91a18.06 18.06 0 0 1 2.84 3.09z"/><path d="m73.55 28.46a8.22 8.22 0 0 1 -2 2.37c2.11.53 4 1.06 5.46 1.57l-1.55 1.23a49.37 49.37 0 0 0 -5.64-1.72 24.06 24.06 0 0 1 -8.29 1.8 5.15 5.15 0 0 0 -.68-1.54 28.69 28.69 0 0 0 6.25-.89c-1.31-.28-2.63-.53-4-.77.47-.59 1-1.29 1.52-2.05h-3.76v-1.46h4.69a14.8 14.8 0 0 0 1-1.87l1.73.38c-.24.49-.51 1-.81 1.49h5c.14-.34.29-.7.42-1.08l1.65.48-.22.6h3v1.48zm-7.55-9.87h-4.86v-1.53h15.75v1.53h-5v1.41h4.37v5h-14.26v-5h4zm-2.41 5h2.41v-2.21h-2.38zm2.9 4.87a11.33 11.33 0 0 1 -.81 1.16c1.24.22 2.45.45 3.64.71a6.87 6.87 0 0 0 2.16-1.87zm3.7-9.87h-2.54v1.41h2.57zm-2.57 5h2.57v-2.21h-2.54zm4.19-2.21v2.21h2.68v-2.21z"/><path d="m89.16 28.52h3.13v1.48h-3.13v3.6h-1.58v-3.6h-3.29v-1.48h3.29v-1.82h-2.9v-1.5h1.54a9.71 9.71 0 0 0 -.79-2.1l1.14-.36h-2.28v-1.49h3.29v-1.63h-2.76v-1.48h2.76v-1.78h1.58v1.78h2.67v1.48h-2.67v1.63h3.11v1.49h-2l1.19.32c-.35.7-.73 1.5-1.08 2.14h1.56v1.5h-2.78zm-2.44-5.78a9.4 9.4 0 0 1 .86 2.16l-.88.3h2.17a19.22 19.22 0 0 0 1.13-2.46zm13.86 1.14a18.57 18.57 0 0 1 -2.1 6 9.34 9.34 0 0 0 2.74 2.23 6.47 6.47 0 0 0 -1.14 1.4 9.72 9.72 0 0 1 -2.53-2.21 10.42 10.42 0 0 1 -2.41 2.37 4.64 4.64 0 0 0 -.7-.82v.76h-1.56v-16.45h7.26v3.57c0 .82-.17 1.27-.79 1.5a8.23 8.23 0 0 1 -2.92.27 5.94 5.94 0 0 0 -.52-1.5h2.28s.37-.08.37-.28v-2h-4.12v4.85h4.8l.29-.08zm-6.14 8.33a10.14 10.14 0 0 0 2.13-2.21 18.7 18.7 0 0 1 -2.13-4.89zm1.4-7.21a15.28 15.28 0 0 0 1.62 3.52 14 14 0 0 0 1.28-3.52z"/><path d="m122.56 33.67h-1.77v-.91h-7.57v.91h-1.71v-6c-1 .32-1.93.6-2.89.85a7.31 7.31 0 0 0 -.88-1.63 25.13 25.13 0 0 0 6.67-2.4 30.64 30.64 0 0 0 -3.22-2.79 18.91 18.91 0 0 1 -1.89 1.14 5.49 5.49 0 0 0 -1.18-1.4 14.3 14.3 0 0 0 6.11-5.17l2 .41c-.35.52-.72 1-1.12 1.52h6l.28-.1 1.17.72a16.31 16.31 0 0 1 -6.6 6.8h6.68zm-9-13.9q-.49.45-1 .87a35.72 35.72 0 0 1 3.44 2.84 14.21 14.21 0 0 0 3.92-3.71zm7.24 11.38v-4h-7.57v4z"/></g></svg>