<svg height="97.38" viewBox="0 0 1664.93 97.38" width="1664.93" xmlns="http://www.w3.org/2000/svg"><path d="m29.14 72.4a55.64 55.64 0 0 0 -11.38-6.57l3.83-5.42c3.78 1.46 9 4 11.57 6zm-9.25 22.47a167.18 167.18 0 0 0 11.51-19.18l5.35 4.87c-3.22 6.33-7.12 13.27-10.75 19.18zm12.79-38.6a57.17 57.17 0 0 0 -11.33-6.76l4-5.36a58.67 58.67 0 0 1 11.53 6.15zm34.7 44.14a28.32 28.32 0 0 0 -2.13-5.36c-20.25 2.43-23.38 2.95-25.39 3.95a65 65 0 0 0 -2.56-7.25c1.4-.43 2.56-1.7 4-3.9a88.59 88.59 0 0 0 6.45-13h-11.48v-6.85h14.43v-8.57h-12v-6.88h12v-9.07h7.36v9.07h12.42v6.88h-12.42v8.57h14.68v6.82h-16.56a114.51 114.51 0 0 1 -8.47 15.64l14.29-1.46a70.63 70.63 0 0 0 -4.08-6.27l5.91-2.92c4 5.29 8.46 12.36 10 17.29z" fill="#e8b356" transform="translate(0 -20.54)"/><circle cx="45.95" cy="51.43" fill="none" r="41.06" stroke="#e8b356" stroke-miterlimit="10" stroke-width="3.14"/><g transform="translate(0 -20.54)"><path d="m232.21 66.29v10h-5.21v-5.55h-28.15v5.54h-4.93v-10h5.81a35.75 35.75 0 0 0 -2.42-3.78l4.69-1.84a28 28 0 0 1 3.47 5.28l-.79.35h5.46v-6h5.24v6h5.19l-.27-.08a32.46 32.46 0 0 0 3.13-5.64l5.57 1.63c-1 1.5-2.11 2.91-3.08 4.09zm-35.07 18.49h32v16.68h-5.23v-1h-21.8v1.06h-5zm27.46-11.93v10.08h-23.28v-10.08zm-22.49 15.71v2.29h8.19v-2.29zm8.19 8.1v-2.29h-8.19v2.29zm9.1-20.07h-13.2v2.6h13.2zm4.54 12h-8.58v2.29h8.58zm0 8.1v-2.32h-8.58v2.29z" fill="#e8b356"/><path d="m250.16 92.74a30.7 30.7 0 0 1 -6.52 8.8 29 29 0 0 0 -4.18-3.12 20.36 20.36 0 0 0 5.81-7.13zm11.26-1.74h-21.6v-4.59h4v-16.33h-3.44v-4.58h3.44v-4.66h4.71v4.66h5.45v-4.66h4.8v4.66h3v4.58h-3v16.33h2.68zm-12.93-20.9v2.55h5.45v-2.57zm0 9.33h5.45v-2.79h-5.45zm0 7h5.45v-3h-5.45zm31 9.19c0 2.6-.48 4-2 4.8s-3.79 1-7.05.92a18.75 18.75 0 0 0 -1.49-5c1.89.13 4 .09 4.62.09s.88-.22.88-.92v-8.66h-6.69c-.48 5.19-1.58 10.69-4 14.65a15.2 15.2 0 0 0 -4.14-3c.14-.26.31-.48.44-.75l-3.65 2.07a43.57 43.57 0 0 0 -4.71-6.64l4-2.16a47.09 47.09 0 0 1 4.76 6c2.55-5.51 2.77-12.94 2.77-18.66v-16.11h16.28zm-5.06-13.42v-5.43h-6.34v1.63 3.78zm-6.32-15.2v5.15h6.34v-5.15z" fill="#e8b356"/><path d="m295.74 81.52c-1.8-1.28-5.59-3.34-8.18-4.75l2.81-3.87c2.42 1.18 6.34 3.08 8.28 4.26zm-7.57 15.84a129.77 129.77 0 0 0 8.36-13.86l3.83 3.5c-2.33 4.62-5.1 9.64-7.79 13.91zm9.46-27.85a88.62 88.62 0 0 0 -8-4.84l2.95-3.79c2.47 1.23 6.3 3.17 8.19 4.4zm19.5 8.58v5.54h9v17.56h-5v-1.58h-13.24v1.8h-4.71v-17.78h9v-5.54h-11.73v-5h11.71v-5.17c-2.91.44-5.81.75-8.59 1a18.25 18.25 0 0 0 -1.45-4.49c7.48-.75 15.71-2.2 20.55-4.14l4.05 4.14a56.12 56.12 0 0 1 -9.59 2.57v6h11.18v5zm4 10.3h-13.24v6.47h13.24z" fill="#e8b356"/><path d="m375 70.21s0 1.72 0 2.33c-.4 18-.75 24.38-2.16 26.41a4.91 4.91 0 0 1 -3.47 2.2 29.47 29.47 0 0 1 -5.46.17 12.26 12.26 0 0 0 -1.54-5c1.94.17 3.61.22 4.45.22a1.59 1.59 0 0 0 1.49-.75c.93-1.19 1.37-6.56 1.63-20.77h-4c-.57 11.79-2.6 20.86-10 26.71a17.23 17.23 0 0 0 -3.08-3.48c-6.34.66-12.67 1.32-17.43 1.72l-.61-4.4c2.46-.18 5.54-.4 8.93-.62v-2.65h-7.75v-3.69h7.75v-1.72h-7.57v-13.6h7.57v-1.71h-8.67v-3.79h8.67v-1.79c-2.55.18-5.06.31-7.44.35a16.2 16.2 0 0 0 -1.14-3.69 137.2 137.2 0 0 0 19-2.16l2.28 3.92c-2.33.48-5.06.88-7.92 1.19v2.15h8.47v2.42h4.14c0-2.9 0-5.94 0-9.2h5c0 3.22 0 6.3-.09 9.2zm-34.67 8.32h3.43v-1.94h-3.43zm3.43 5.1v-2h-3.43v2zm4.75 10.92c2.51-.18 5.11-.4 7.66-.62 3.43-4.75 4.49-11 4.8-18.92h-4v-3.43h-8.45v1.71h7.79v13.6h-7.79v1.72h8v3.69h-8zm3.43-16v-1.96h-3.43v1.94zm-3.43 3.12v2h3.49v-2z" fill="#e8b356"/><path d="m142.27 45.31c-.3.36-.61.79-.91 1.15 5.6 4.87 15.58 9.08 25.26 11a25 25 0 0 0 -4.56 5.54c-1.22-.3-2.5-.73-3.78-1.09v15.67h-42.28v-15.35c-1.28.43-2.56.86-3.77 1.16a39.45 39.45 0 0 0 -3.9-5.6c11.2-2.62 22-7.67 27.58-14.74zm13.82 15.77a68.37 68.37 0 0 1 -8.28-3.72v1.64h-21.37v-1.27a73.58 73.58 0 0 1 -7.37 3.35zm-36.71 18.5h35.8v20.58h-7.43v-1.46h-21.25v1.65h-7.12zm6.88-6.39a24.38 24.38 0 0 0 -2.07-6.33l4.69-1.34h-6.88v7.67zm.24 11.14v2.44h21.25v-2.44zm21.25 9.67v-2.48h-21.25v2.48zm-13.82-28.48h-4.75a27.67 27.67 0 0 1 2.44 6.48l-3.9 1.22h6.21zm8.77-11.26a60.47 60.47 0 0 1 -5.12-4c-1.58 1.34-3.35 2.68-5.17 4zm-2.93 11.26v7.67h5.67l-3.66-1a47.11 47.11 0 0 0 2.38-6.64zm12.06 0h-6.33l4.75 1.16c-1.22 2.43-2.38 4.81-3.35 6.51h4.93z" fill="#e8b356"/></g><circle cx="137.1" cy="51.43" fill="none" r="41.06" stroke="#e8b356" stroke-miterlimit="10" stroke-width="3.14"/><g fill="#e8b356" opacity=".2" transform="translate(0 -20.54)"><path d="m563.3 69.47a29.15 29.15 0 0 1 -8.59 19.8q-8 8-23.47 12t-39.16 4a245.43 245.43 0 0 1 -32.37-1.93q-14.31-1.94-24.4-6.6a36.19 36.19 0 0 1 -15.44-12.76q-5.36-8.1-5.35-20.42t5.35-20.61a37.34 37.34 0 0 1 15.44-13.2 83.83 83.83 0 0 1 24.4-7 223.17 223.17 0 0 1 32.37-2.12q23.66 0 39.22 4.3t23.54 12.64a30.75 30.75 0 0 1 8.59 20.29h-32.37a16 16 0 0 0 -5.48-7c-2.66-2-6.64-3.63-12-4.8s-12.49-1.74-21.54-1.74q-15.93 0-25.89 1.93t-14.57 6.16a14.52 14.52 0 0 0 -4.58 11.09 13 13 0 0 0 4.61 10.33q4.61 4 14.57 5.85t25.89 1.87q13.57 0 21.48-1.62t11.89-4.42a15.58 15.58 0 0 0 5.48-6z"/><path d="m610.74 69.1v10h94.62v23.66h-125.75v-79.76h125.51v23.69h-94.38v10h77.19v12.41z"/><path d="m721.55 102.72v-79.72h96.24a74.89 74.89 0 0 1 20.36 2.56 29.18 29.18 0 0 1 14.32 8.52q5.29 6 5.29 16.31a23.16 23.16 0 0 1 -2.49 11.34 17.86 17.86 0 0 1 -6.85 7 32.94 32.94 0 0 1 -10 3.61 75.38 75.38 0 0 1 -11.7 1.37l-9.05-1.71a188.72 188.72 0 0 1 22.85 1.25q8 1.13 11.2 4.05t3.18 8.4v17.06h-31.13v-13.36a9.48 9.48 0 0 0 -1.43-5.67c-1-1.29-3-2.18-6.23-2.68a106.6 106.6 0 0 0 -14.75-.74h-48.68v22.41zm31.13-43.21h65.11a14.28 14.28 0 0 0 6.29-1.24q2.55-1.25 2.55-4.73a4.42 4.42 0 0 0 -2.55-4.42 14.89 14.89 0 0 0 -6.29-1.19h-65.11z"/><path d="m906.07 69.1v10h94.62v23.66h-125.75v-79.76h125.5v23.69h-94.37v10h77.19v12.41z"/><path d="m1115.74 93.26h-18.68l67.94-70.26h31.13v79.69h-31.13v-54.26l9.34 3.86-49.18 50.43h-37.35l-49.31-50.3 9.47-3.86v54.16h-31.13v-79.72h31.16z"/><path d="m1287.68 105.21q-27.15 0-43.7-4.8t-24.09-14.19q-7.55-9.41-7.54-23.34t7.54-23.35q7.53-9.41 24.09-14.19t43.7-4.8q27.15 0 43.7 4.8t24.09 14.19q7.54 9.4 7.54 23.35t-7.54 23.34q-7.53 9.41-24.09 14.19t-43.7 4.8zm0-23.66a137.65 137.65 0 0 0 22.16-1.55q9.35-1.56 14.45-5.61t5.1-11.51q0-7.47-5.1-11.52t-14.45-5.6a136.4 136.4 0 0 0 -22.16-1.56 142.35 142.35 0 0 0 -22.47 1.56q-9.66 1.55-15.07 5.6t-5.41 11.52q0 7.47 5.41 11.51t15.07 5.61a143.66 143.66 0 0 0 22.47 1.55z"/><path d="m1504.07 78.31-11.58 6.6v-61.91h31.13v79.69h-31.13l-93.75-54.29 11.58-6.72v61h-31.13v-79.68h31.13z"/><path d="m1664.93 23-50.42 59.39v20.3h-31.13v-20.27l-50.38-59.42h36.73l41 51.67h-23l40.47-51.67z"/></g><path d="m56.27 33.47a5.28 5.28 0 0 1 -3.12-2.39c-1.4-2.42-3.47-4.65-7.2-4.68-2.6 0-5.62.93-7.21 3a.51.51 0 0 0 0 .61 1.46 1.46 0 0 1 .26 1.25c-.21.78-1.06 1.2-1.81 1.59a7.75 7.75 0 0 1 -1.58.62 5.23 5.23 0 0 1 -3.87-.47c-2.43-1.38-5.34-2.27-8.58-.44-2.27 1.28-4.4 3.61-4.76 6.16a.51.51 0 0 0 .31.54 1.43 1.43 0 0 1 .88 1 3.11 3.11 0 0 1 -.77 2.28 7.4 7.4 0 0 1 -1.06 1.32 5.25 5.25 0 0 1 -3.62 1.51c-2.8 0-5.77.69-7.65 3.9-1.33 2.24-2 5.34-1 7.72a.53.53 0 0 0 .54.31 1.43 1.43 0 0 1 1.25.4 3.12 3.12 0 0 1 .42 2.3 7.52 7.52 0 0 1 -.26 1.68 5.29 5.29 0 0 1 -2.39 3.11c-2.41 1.39-4.64 3.46-4.67 7.21 0 2.6.93 5.62 3 7.21a.54.54 0 0 0 .62 0 1.39 1.39 0 0 1 1.28-.28c.78.2 1.21 1 1.6 1.8a7.26 7.26 0 0 1 .61 1.59 5.24 5.24 0 0 1 -.51 3.89c-1.38 2.42-2.28 5.33-.44 8.58 1.28 2.26 3.61 4.4 6.16 4.76a.53.53 0 0 0 .53-.31 1.44 1.44 0 0 1 1-.88 3 3 0 0 1 2.27.76 7.55 7.55 0 0 1 1.33 1.06 5.32 5.32 0 0 1 1.51 3.63c0 2.79.68 5.76 3.9 7.65 2.24 1.32 5.33 2 7.72 1a.53.53 0 0 0 .31-.54 1.39 1.39 0 0 1 .4-1.25 3.12 3.12 0 0 1 2.36-.48 7.35 7.35 0 0 1 1.67.26 5.28 5.28 0 0 1 3.12 2.39c1.4 2.41 3.48 4.65 7.21 4.68 2.6 0 5.62-.93 7.2-3a.52.52 0 0 0 0-.62 1.46 1.46 0 0 1 -.28-1.29c.21-.78 1-1.2 1.81-1.59a6.92 6.92 0 0 1 1.58-.62 5.22 5.22 0 0 1 3.89.51c2.43 1.39 5.33 2.29 8.58.45 2.27-1.28 4.4-3.62 4.76-6.16a.51.51 0 0 0 -.31-.54 1.45 1.45 0 0 1 -.88-1 3.1 3.1 0 0 1 .77-2.28 6.74 6.74 0 0 1 1.06-1.33 5.29 5.29 0 0 1 3.63-1.5c2.79 0 5.75-.69 7.65-3.9 1.32-2.25 2-5.34 1-7.72a.51.51 0 0 0 -.54-.3 1.44 1.44 0 0 1 -1.25-.41 3.07 3.07 0 0 1 -.5-2.22 7.5 7.5 0 0 1 .25-1.68 5.32 5.32 0 0 1 2.4-3.12c2.41-1.4 4.64-3.47 4.67-7.2 0-2.6-.93-5.62-3-7.2a.49.49 0 0 0 -.62 0 1.47 1.47 0 0 1 -1.28.27c-.78-.21-1.2-1.05-1.59-1.8a7.32 7.32 0 0 1 -.63-1.59 5.34 5.34 0 0 1 .6-3.92c1.39-2.42 2.28-5.33.45-8.57-1.29-2.27-3.62-4.41-6.17-4.77a.52.52 0 0 0 -.53.31 1.43 1.43 0 0 1 -1 .88 3.12 3.12 0 0 1 -2.29-.76 7 7 0 0 1 -1.32-1.07 5.22 5.22 0 0 1 -1.5-3.62c0-2.79-.69-5.76-3.9-7.65-2.25-1.32-5.34-2-7.73-1a.52.52 0 0 0 -.3.54 1.42 1.42 0 0 1 -.41 1.25 3.08 3.08 0 0 1 -2.35.47 6.9 6.9 0 0 1 -1.68-.25z" fill="none" stroke="#c69c6d" stroke-miterlimit="10" stroke-width=".75" transform="translate(0 -20.54)"/><path d="m147.41 33.47a5.29 5.29 0 0 1 -3.11-2.39c-1.4-2.42-3.47-4.65-7.2-4.68-2.61 0-5.63.93-7.21 3a.49.49 0 0 0 0 .61 1.42 1.42 0 0 1 .27 1.29c-.2.78-1 1.2-1.8 1.59a7.75 7.75 0 0 1 -1.58.62 5.26 5.26 0 0 1 -3.9-.52c-2.42-1.38-5.33-2.27-8.57-.44-2.27 1.28-4.41 3.61-4.77 6.16a.54.54 0 0 0 .31.54 1.44 1.44 0 0 1 .89 1 3.11 3.11 0 0 1 -.77 2.28 7.4 7.4 0 0 1 -1.06 1.32 5.25 5.25 0 0 1 -3.63 1.51c-2.79 0-5.76.69-7.65 3.9-1.32 2.24-2 5.34-1 7.72a.53.53 0 0 0 .54.31 1.42 1.42 0 0 1 1.25.4 3.12 3.12 0 0 1 .43 2.31 7.52 7.52 0 0 1 -.26 1.68 5.29 5.29 0 0 1 -2.39 3.11c-2.41 1.41-4.64 3.48-4.68 7.21 0 2.6.93 5.62 3 7.21a.52.52 0 0 0 .61 0 1.41 1.41 0 0 1 1.29-.28c.78.2 1.2 1 1.6 1.8a7.26 7.26 0 0 1 .61 1.59 5.24 5.24 0 0 1 -.51 3.89c-1.38 2.42-2.28 5.33-.45 8.58 1.28 2.26 3.61 4.4 6.17 4.76a.53.53 0 0 0 .53-.31 1.42 1.42 0 0 1 1-.88 3 3 0 0 1 2.27.76 7.55 7.55 0 0 1 1.33 1.06 5.31 5.31 0 0 1 1.5 3.63c0 2.79.69 5.76 3.91 7.65 2.24 1.32 5.33 2 7.71 1a.52.52 0 0 0 .31-.54 1.42 1.42 0 0 1 .4-1.25 3.15 3.15 0 0 1 2.37-.48 7.44 7.44 0 0 1 1.67.26 5.31 5.31 0 0 1 3.12 2.39c1.4 2.41 3.48 4.65 7.2 4.68 2.61 0 5.62-.93 7.21-3a.52.52 0 0 0 0-.62 1.46 1.46 0 0 1 -.28-1.29c.21-.78 1.05-1.2 1.8-1.59a7.18 7.18 0 0 1 1.59-.62 5.22 5.22 0 0 1 3.89.51c2.42 1.39 5.33 2.29 8.58.45 2.27-1.28 4.4-3.62 4.76-6.16a.53.53 0 0 0 -.31-.54 1.43 1.43 0 0 1 -.88-1 3.09 3.09 0 0 1 .76-2.28 7.17 7.17 0 0 1 1.07-1.33 5.27 5.27 0 0 1 3.63-1.5c2.78 0 5.75-.69 7.65-3.9 1.32-2.25 2-5.34 1-7.72a.49.49 0 0 0 -.53-.3 1.43 1.43 0 0 1 -1.25-.41 3.07 3.07 0 0 1 -.48-2.36 7.5 7.5 0 0 1 .25-1.68 5.32 5.32 0 0 1 2.4-3.12c2.41-1.4 4.64-3.47 4.67-7.2 0-2.6-.93-5.62-2.95-7.2a.49.49 0 0 0 -.62 0 1.48 1.48 0 0 1 -1.29.27c-.77-.21-1.19-1.05-1.59-1.8a7.83 7.83 0 0 1 -.62-1.59 5.34 5.34 0 0 1 .52-3.89c1.38-2.42 2.28-5.33.44-8.57-1.28-2.27-3.61-4.41-6.16-4.77a.52.52 0 0 0 -.53.31 1.42 1.42 0 0 1 -1 .88 3.11 3.11 0 0 1 -2.28-.76 7 7 0 0 1 -1.32-1.07 5.18 5.18 0 0 1 -1.5-3.62c0-2.79-.69-5.76-3.91-7.65-2.24-1.32-5.33-2-7.72-1a.52.52 0 0 0 -.3.54 1.45 1.45 0 0 1 -.41 1.25 3.1 3.1 0 0 1 -2.36.47 7 7 0 0 1 -1.68-.25z" fill="none" stroke="#c69c6d" stroke-miterlimit="10" stroke-width=".75" transform="translate(0 -20.54)"/></svg>