<?xml version="1.0" encoding="UTF-8"?>
<svg id="_圖層_2" data-name="圖層 2" xmlns="http://www.w3.org/2000/svg" width="347.5" height="95.01" viewBox="0 0 347.5 95.01">
  <g id="_圖層_2-2" data-name="圖層 2">
    <g>
      <path d="M19.16,30.48c-1.56-1.32-4.92-3.2-7.48-4.32l2.52-3.56c2.48,.96,5.88,2.6,7.6,3.92l-2.64,3.96Zm-6.08,14.77c2.16-3.04,5.2-7.96,7.56-12.61l3.52,3.2c-2.12,4.16-4.68,8.73-7.04,12.61l-4.04-3.2Zm8.4-25.38c-1.6-1.36-4.88-3.28-7.44-4.44l2.6-3.52c2.52,1,5.92,2.76,7.6,4.04l-2.76,3.92Zm22.81,29.02c-.28-1.04-.76-2.28-1.4-3.52-13.33,1.6-15.37,1.92-16.69,2.6-.28-1.04-1.08-3.4-1.68-4.76,.92-.28,1.68-1.12,2.6-2.56,.72-1.08,2.64-4.6,4.24-8.56h-7.52v-4.48h9.49v-5.64h-7.88v-4.52h7.88v-5.96h4.84v5.96h8.17v4.52h-8.17v5.64h9.65v4.48h-10.89c-1.6,3.64-3.6,7.24-5.56,10.29l9.41-.96c-.84-1.44-1.76-2.88-2.68-4.12l3.88-1.92c2.64,3.48,5.56,8.12,6.6,11.37l-4.28,2.16Z" style="fill: #e8b356;"/>
      <circle cx="30.21" cy="30.21" r="26.99" style="fill: none; stroke: #e8b356; stroke-miterlimit: 10; stroke-width: 2.07px;"/>
      <g>
        <path d="M154.15,26.47v6.57h-3.41v-3.65h-18.52v3.65h-3.24v-6.57h3.82c-.46-.84-1.04-1.74-1.59-2.49l3.07-1.21c.9,1.07,1.82,2.49,2.29,3.47l-.52,.23h3.59v-3.93h3.44v3.93h3.41l-.17-.06c.72-1.01,1.59-2.57,2.05-3.7l3.65,1.07c-.69,.98-1.39,1.91-2.02,2.69h4.17Zm-23.06,12.15h21.06v10.96h-3.44v-.67h-14.35v.69h-3.27v-10.99Zm18.05-7.84v6.62h-15.3v-6.62h15.3Zm-14.78,10.33v1.5h5.38v-1.5h-5.38Zm5.38,5.32v-1.5h-5.38v1.5h5.38Zm5.99-13.19h-8.68v1.71h8.68v-1.71Zm2.98,7.87h-5.64v1.5h5.64v-1.5Zm0,5.32v-1.5h-5.64v1.5h5.64Z" style="fill: #e8b356;"/>
        <path d="M165.95,43.86c-1.01,2.11-2.72,4.37-4.28,5.79-.64-.61-1.97-1.59-2.75-2.05,1.5-1.13,3.01-2.95,3.82-4.69l3.21,.95Zm7.41-1.16h-14.21v-3.01h2.6v-10.73h-2.26v-3.01h2.26v-3.07h3.1v3.07h3.59v-3.07h3.15v3.07h1.97v3.01h-1.97v10.73h1.76v3.01Zm-8.51-13.74v1.68h3.59v-1.68h-3.59Zm0,6.13h3.59v-1.82h-3.59v1.82Zm0,4.6h3.59v-1.97h-3.59v1.97Zm20.4,6.05c0,1.71-.32,2.6-1.33,3.15s-2.49,.64-4.63,.61c-.12-.9-.55-2.4-.98-3.27,1.24,.09,2.63,.06,3.04,.06,.43,0,.58-.14,.58-.61v-5.7h-4.4c-.32,3.41-1.04,7.03-2.6,9.63-.55-.61-1.97-1.65-2.72-1.94,.09-.17,.2-.32,.29-.49l-2.4,1.36c-.58-1.13-1.97-3.04-3.1-4.37l2.6-1.42c1.04,1.16,2.4,2.75,3.12,3.93,1.68-3.62,1.82-8.51,1.82-12.27v-10.62h10.7v21.93Zm-3.33-8.82v-3.56h-4.17v1.07c0,.75,0,1.59-.03,2.49h4.19Zm-4.17-9.98v3.38h4.17v-3.38h-4.17Z" style="fill: #e8b356;"/>
        <path d="M195.91,36.48c-1.19-.84-3.67-2.2-5.38-3.12l1.85-2.55c1.59,.78,4.17,2.03,5.44,2.81l-1.91,2.86Zm-4.98,10.42c1.53-2.17,3.76-5.76,5.5-9.11l2.52,2.31c-1.53,3.04-3.36,6.34-5.12,9.14l-2.89-2.34Zm6.22-18.31c-1.13-.87-3.59-2.23-5.27-3.18l1.94-2.49c1.62,.81,4.14,2.08,5.38,2.89l-2.05,2.78Zm12.82,5.64v3.65h5.9v11.54h-3.27v-1.04h-8.71v1.19h-3.1v-11.69h5.9v-3.65h-7.7v-3.3h7.7v-3.38c-1.91,.29-3.82,.49-5.64,.67-.12-.84-.58-2.17-.95-2.95,4.92-.49,10.33-1.45,13.51-2.72l2.66,2.72c-1.88,.72-4.02,1.27-6.31,1.71v3.96h7.35v3.3h-7.35Zm2.63,6.77h-8.71v4.25h8.71v-4.25Z" style="fill: #e8b356;"/>
        <path d="M248.04,29.05s-.03,1.13-.03,1.53c-.26,11.83-.49,16.03-1.42,17.36-.67,.95-1.33,1.24-2.29,1.45-.87,.17-2.2,.14-3.59,.12-.06-.95-.43-2.34-1.01-3.3,1.27,.12,2.37,.14,2.92,.14,.43,0,.72-.12,.98-.49,.61-.78,.9-4.31,1.07-13.66h-2.6c-.38,7.75-1.71,13.71-6.57,17.56-.43-.69-1.27-1.65-2.02-2.29-4.17,.43-8.33,.87-11.46,1.13l-.41-2.89c1.62-.12,3.65-.26,5.87-.41v-1.74h-5.09v-2.43h5.09v-1.13h-4.98v-8.94h4.98v-1.13h-5.7v-2.49h5.7v-1.16c-1.68,.12-3.33,.2-4.89,.23-.12-.69-.43-1.76-.75-2.43,4.28-.23,9.29-.72,12.47-1.42l1.5,2.57c-1.53,.32-3.33,.58-5.21,.78v1.42h5.55v1.59h2.72c.03-1.91,.03-3.91,.03-6.05h3.3c0,2.11,0,4.14-.06,6.05h5.87Zm-22.8,5.47h2.26v-1.27h-2.26v1.27Zm2.26,3.36v-1.3h-2.26v1.3h2.26Zm3.12,7.17c1.65-.12,3.36-.26,5.03-.4,2.26-3.12,2.95-7.26,3.15-12.44h-2.63v-2.26h-5.55v1.13h5.12v8.94h-5.12v1.13h5.24v2.43h-5.24v1.48Zm2.26-10.53v-1.27h-2.26v1.27h2.26Zm-2.26,2.05v1.3h2.26v-1.3h-2.26Z" style="fill: #e8b356;"/>
      </g>
      <g>
        <path d="M93.53,12.67c-.2,.24-.4,.52-.6,.76,3.68,3.2,10.25,5.96,16.61,7.2-1,.84-2.36,2.52-3,3.64-.8-.2-1.64-.48-2.48-.72v10.33h-27.82v-10.09c-.84,.28-1.68,.56-2.48,.76-.48-.88-1.76-2.8-2.56-3.68,7.36-1.72,14.49-5.04,18.13-9.69l4.2,1.48Zm9.09,10.37c-1.88-.68-3.68-1.52-5.44-2.44v1.04h-14.05v-.8c-1.56,.8-3.16,1.56-4.84,2.2h24.33Zm-24.13,12.17h23.53v13.53h-4.88v-.96h-13.97v1.08h-4.68v-13.65Zm4.52-4.2c-.2-1.24-.72-2.88-1.36-4.16l3.08-.88h-4.52v5.04h2.8Zm.16,7.32v1.6h13.97v-1.6h-13.97Zm13.97,6.32v-1.6h-13.97v1.6h13.97Zm-9.09-18.69h-3.12c.72,1.36,1.36,3.08,1.6,4.24l-2.56,.8h4.08v-5.04Zm5.76-7.4c-1.2-.84-2.36-1.72-3.36-2.6-1.04,.88-2.2,1.76-3.4,2.6h6.76Zm-1.92,7.4v5.04h3.72l-2.4-.68c.56-1.2,1.2-3.04,1.56-4.36h-2.88Zm7.92,0h-4.16l3.12,.76c-.8,1.6-1.56,3.16-2.2,4.28h3.24v-5.04Z" style="fill: #e8b356;"/>
        <circle cx="90.12" cy="30.21" r="26.99" style="fill: none; stroke: #e8b356; stroke-miterlimit: 10; stroke-width: 2.07px;"/>
      </g>
      <g style="opacity: .2;">
        <g>
          <path d="M43.38,85.14c-.12,2.18-.91,4-2.37,5.47-1.47,1.47-3.63,2.57-6.48,3.3-2.85,.73-6.46,1.1-10.81,1.1-3.32,0-6.3-.18-8.94-.53-2.64-.36-4.88-.96-6.74-1.82-1.86-.86-3.28-2.03-4.26-3.52-.99-1.49-1.48-3.37-1.48-5.64s.49-4.16,1.48-5.69c.98-1.52,2.41-2.74,4.26-3.64,1.86-.9,4.1-1.55,6.74-1.94,2.64-.39,5.61-.58,8.94-.58,4.35,0,7.96,.4,10.83,1.19,2.86,.79,5.03,1.95,6.5,3.49,1.47,1.54,2.26,3.4,2.37,5.6h-8.94c-.27-.73-.78-1.38-1.51-1.94-.73-.56-1.83-1-3.3-1.32-1.47-.32-3.45-.48-5.95-.48-2.93,0-5.32,.18-7.15,.53-1.83,.36-3.17,.92-4.02,1.7-.85,.78-1.27,1.81-1.27,3.09,0,1.17,.42,2.12,1.27,2.85,.85,.73,2.19,1.27,4.02,1.62,1.83,.34,4.22,.52,7.15,.52,2.5,0,4.47-.15,5.93-.45,1.45-.3,2.55-.7,3.28-1.22s1.24-1.07,1.51-1.67h8.94Z" style="fill: #e8b356;"/>
          <path d="M56.48,85.04v2.75h26.12v6.53H47.89v-22h34.65v6.53h-26.05v2.75h21.31v3.44h-21.31Z" style="fill: #e8b356;"/>
          <path d="M87.07,94.32v-22h26.57c2.08,0,3.96,.24,5.62,.7,1.66,.47,2.98,1.25,3.95,2.35,.97,1.1,1.46,2.6,1.46,4.5,0,1.26-.23,2.3-.69,3.13-.46,.82-1.09,1.47-1.89,1.92-.8,.46-1.72,.79-2.75,1s-2.11,.33-3.23,.38l-2.51-.48c2.73,.02,4.83,.14,6.31,.34,1.48,.21,2.51,.58,3.09,1.12,.58,.54,.88,1.31,.88,2.32v4.71h-8.59v-3.68c0-.69-.13-1.21-.4-1.56-.26-.35-.84-.6-1.72-.74-.88-.14-2.24-.21-4.07-.21h-13.44v6.19h-8.59Zm8.59-11.93h17.98c.69,0,1.27-.11,1.74-.34,.47-.23,.7-.66,.7-1.31,0-.6-.24-1-.7-1.22-.47-.22-1.05-.33-1.74-.33h-17.98v3.2Z" style="fill: #e8b356;"/>
          <path d="M138.01,85.04v2.75h26.12v6.53h-34.72v-22h34.65v6.53h-26.05v2.75h21.31v3.44h-21.31Z" style="fill: #e8b356;"/>
          <path d="M195.89,91.71h-5.16l18.77-19.39h8.59v22h-8.59v-14.99l2.58,1.07-13.58,13.92h-10.31l-13.61-13.89,2.61-1.07v14.95h-8.59v-22h8.59l18.7,19.39Z" style="fill: #e8b356;"/>
          <path d="M243.36,95.01c-5,0-9.02-.44-12.06-1.32-3.05-.88-5.27-2.19-6.65-3.92-1.39-1.73-2.08-3.88-2.08-6.44s.69-4.71,2.08-6.44c1.39-1.73,3.6-3.04,6.65-3.92,3.05-.88,7.07-1.32,12.06-1.32s9.02,.44,12.06,1.32c3.05,.88,5.26,2.19,6.65,3.92,1.39,1.73,2.08,3.88,2.08,6.44s-.69,4.71-2.08,6.44c-1.39,1.73-3.6,3.04-6.65,3.92-3.05,.88-7.07,1.32-12.06,1.32Zm0-6.53c2.36,0,4.4-.14,6.12-.43,1.72-.29,3.05-.8,3.99-1.55,.94-.74,1.41-1.8,1.41-3.18s-.47-2.43-1.41-3.18c-.94-.74-2.27-1.26-3.99-1.55-1.72-.29-3.76-.43-6.12-.43s-4.43,.14-6.2,.43c-1.78,.29-3.16,.8-4.16,1.55-1,.75-1.5,1.8-1.5,3.18s.5,2.44,1.5,3.18c1,.74,2.38,1.26,4.16,1.55,1.78,.29,3.84,.43,6.2,.43Z" style="fill: #e8b356;"/>
          <path d="M303.09,87.58l-3.2,1.82v-17.08h8.59v22h-8.59l-25.88-14.99,3.2-1.86v16.84h-8.59v-22h8.59l25.88,15.26Z" style="fill: #e8b356;"/>
          <path d="M347.5,72.32l-13.92,16.4v5.6h-8.59v-5.6l-13.92-16.4h10.14l11.31,14.26h-6.36l11.21-14.26h10.14Z" style="fill: #e8b356;"/>
        </g>
      </g>
      <path d="M36.99,4.89c-.84-.21-1.61-.83-2.05-1.57-.92-1.58-2.28-3.05-4.73-3.07-1.71-.01-3.7,.61-4.74,1.94-.08,.09-.11,.26,0,.4,.21,.29,.26,.56,.18,.85-.13,.51-.69,.79-1.18,1.05-.33,.17-.67,.31-1.04,.4-.83,.23-1.81,.09-2.56-.34-1.59-.91-3.5-1.5-5.63-.29-1.49,.84-2.9,2.38-3.13,4.05-.02,.12,.04,.28,.2,.35,.33,.15,.5,.36,.58,.64,.13,.51-.2,1.03-.5,1.5-.2,.31-.43,.61-.7,.87-.6,.62-1.53,.98-2.38,.99-1.84,0-3.79,.45-5.03,2.57-.87,1.47-1.32,3.5-.69,5.07,.05,.11,.17,.22,.36,.2,.35-.04,.61,.05,.82,.26,.37,.38,.34,.99,.31,1.55-.01,.37-.07,.73-.17,1.1-.21,.84-.83,1.61-1.57,2.05-1.58,.92-3.05,2.29-3.07,4.74-.01,1.71,.61,3.7,1.95,4.74,.1,.07,.26,.1,.4,0,.29-.21,.56-.26,.85-.18,.51,.13,.79,.69,1.05,1.19,.17,.33,.31,.68,.4,1.04,.24,.83,.09,1.81-.34,2.56-.91,1.59-1.5,3.5-.29,5.64,.84,1.49,2.37,2.89,4.05,3.13,.12,.02,.28-.04,.35-.2,.15-.33,.36-.5,.64-.58,.51-.14,1.03,.2,1.5,.5,.31,.2,.61,.43,.87,.7,.62,.6,.98,1.53,.99,2.39,0,1.83,.45,3.78,2.57,5.03,1.47,.87,3.5,1.32,5.07,.69,.11-.05,.22-.17,.2-.35-.04-.36,.05-.61,.26-.82,.38-.37,1-.34,1.55-.32,.37,.01,.74,.07,1.1,.17,.84,.21,1.61,.83,2.05,1.57,.92,1.59,2.29,3.05,4.74,3.07,1.71,.01,3.7-.61,4.74-1.94,.07-.1,.1-.26,0-.41-.21-.29-.26-.56-.18-.85,.14-.51,.69-.79,1.19-1.05,.33-.18,.68-.31,1.04-.41,.83-.24,1.82-.09,2.56,.34,1.59,.91,3.5,1.5,5.64,.29,1.49-.84,2.89-2.37,3.13-4.05,.02-.12-.04-.28-.2-.35-.33-.15-.5-.35-.58-.64-.14-.51,.2-1.03,.5-1.5,.2-.31,.43-.61,.7-.87,.6-.62,1.53-.98,2.39-.99,1.83-.01,3.78-.45,5.03-2.57,.87-1.48,1.32-3.51,.69-5.08-.05-.11-.18-.22-.35-.2-.36,.04-.61-.06-.82-.27-.38-.37-.34-.99-.32-1.55,.01-.37,.07-.74,.17-1.1,.21-.84,.83-1.61,1.57-2.05,1.58-.92,3.05-2.28,3.07-4.73,.02-1.71-.61-3.7-1.94-4.74-.1-.08-.26-.11-.41,0-.29,.21-.56,.25-.85,.18-.51-.13-.79-.69-1.04-1.19-.17-.33-.31-.67-.41-1.04-.23-.83-.08-1.81,.34-2.56,.91-1.59,1.5-3.51,.29-5.64-.84-1.49-2.38-2.9-4.05-3.13-.12-.02-.27,.04-.35,.2-.15,.33-.35,.5-.64,.58-.51,.14-1.03-.2-1.5-.5-.31-.2-.61-.43-.87-.7-.62-.6-.98-1.53-.99-2.38-.01-1.83-.46-3.79-2.57-5.03-1.48-.87-3.51-1.32-5.08-.69-.11,.05-.22,.18-.2,.36,.04,.36-.06,.61-.27,.82-.37,.37-.99,.33-1.55,.31-.37-.01-.74-.07-1.11-.17h0Z" style="fill: none; stroke: #c69c6d; stroke-miterlimit: 10; stroke-width: .49px;"/>
      <path d="M96.91,4.89c-.84-.21-1.61-.83-2.05-1.57-.92-1.58-2.28-3.05-4.73-3.07-1.71-.01-3.7,.61-4.74,1.94-.08,.09-.11,.26,0,.4,.21,.29,.26,.56,.18,.85-.13,.51-.69,.79-1.18,1.05-.33,.17-.67,.31-1.04,.4-.83,.23-1.81,.09-2.56-.34-1.59-.91-3.5-1.5-5.63-.29-1.49,.84-2.9,2.38-3.13,4.05-.02,.12,.04,.28,.2,.35,.33,.15,.5,.36,.58,.64,.13,.51-.2,1.03-.5,1.5-.2,.31-.43,.61-.7,.87-.6,.62-1.53,.98-2.38,.99-1.84,0-3.79,.45-5.03,2.57-.87,1.47-1.32,3.5-.69,5.07,.05,.11,.17,.22,.36,.2,.35-.04,.61,.05,.82,.26,.37,.38,.34,.99,.31,1.55-.01,.37-.07,.73-.17,1.1-.21,.84-.83,1.61-1.57,2.05-1.58,.92-3.05,2.29-3.07,4.74-.01,1.71,.61,3.7,1.95,4.74,.1,.07,.26,.1,.4,0,.29-.21,.56-.26,.85-.18,.51,.13,.79,.69,1.05,1.19,.17,.33,.31,.68,.4,1.04,.24,.83,.09,1.81-.34,2.56-.91,1.59-1.5,3.5-.29,5.64,.84,1.49,2.37,2.89,4.05,3.13,.12,.02,.28-.04,.35-.2,.15-.33,.36-.5,.64-.58,.51-.14,1.03,.2,1.5,.5,.31,.2,.61,.43,.87,.7,.62,.6,.98,1.53,.99,2.39,0,1.83,.45,3.78,2.57,5.03,1.47,.87,3.5,1.32,5.07,.69,.11-.05,.22-.17,.2-.35-.04-.36,.05-.61,.26-.82,.38-.37,1-.34,1.55-.32,.37,.01,.74,.07,1.1,.17,.84,.21,1.61,.83,2.05,1.57,.92,1.59,2.29,3.05,4.74,3.07,1.71,.01,3.7-.61,4.74-1.94,.07-.1,.1-.26,0-.41-.21-.29-.26-.56-.18-.85,.14-.51,.69-.79,1.19-1.05,.33-.18,.68-.31,1.04-.41,.83-.24,1.82-.09,2.56,.34,1.59,.91,3.5,1.5,5.64,.29,1.49-.84,2.89-2.37,3.13-4.05,.02-.12-.04-.28-.2-.35-.33-.15-.5-.35-.58-.64-.14-.51,.2-1.03,.5-1.5,.2-.31,.43-.61,.7-.87,.6-.62,1.53-.98,2.39-.99,1.83-.01,3.78-.45,5.03-2.57,.87-1.48,1.32-3.51,.69-5.08-.05-.11-.18-.22-.35-.2-.36,.04-.61-.06-.82-.27-.38-.37-.34-.99-.32-1.55,.01-.37,.07-.74,.17-1.1,.21-.84,.83-1.61,1.57-2.05,1.58-.92,3.05-2.28,3.07-4.73,.02-1.71-.61-3.7-1.94-4.74-.1-.08-.26-.11-.41,0-.29,.21-.56,.25-.85,.18-.51-.13-.79-.69-1.04-1.19-.17-.33-.31-.67-.41-1.04-.23-.83-.08-1.81,.34-2.56,.91-1.59,1.5-3.51,.29-5.64-.84-1.49-2.38-2.9-4.05-3.13-.12-.02-.27,.04-.35,.2-.15,.33-.35,.5-.64,.58-.51,.14-1.03-.2-1.5-.5-.31-.2-.61-.43-.87-.7-.62-.6-.98-1.53-.99-2.38-.01-1.83-.46-3.79-2.57-5.03-1.48-.87-3.51-1.32-5.08-.69-.11,.05-.22,.18-.2,.36,.04,.36-.06,.61-.27,.82-.37,.37-.99,.33-1.55,.31-.37-.01-.74-.07-1.11-.17h0Z" style="fill: none; stroke: #c69c6d; stroke-miterlimit: 10; stroke-width: .49px;"/>
    </g>
  </g>
</svg>