<svg height="103.07" viewBox="0 0 1359.95 103.07" width="1359.95" xmlns="http://www.w3.org/2000/svg"><g fill="#fff" opacity=".18" transform="translate(-10.61 -25.01)"><path d="m119.75 28q20.46 0 33.8 3.94t20.92 10.76a38 38 0 0 1 10.68 15.54 54 54 0 0 1 3.11 18.27 48.61 48.61 0 0 1 -3.49 18.26 39.9 39.9 0 0 1 -11.44 15.54q-8 6.83-21.07 10.76t-32.51 3.94h-109.14v-97.01zm-71.24 66.74h69.72a77.45 77.45 0 0 0 14.4-1.14 27.3 27.3 0 0 0 9.47-3.41 13.48 13.48 0 0 0 5.16-5.69 18.61 18.61 0 0 0 1.59-8 18.66 18.66 0 0 0 -1.59-8 13.48 13.48 0 0 0 -5.16-5.69 27.3 27.3 0 0 0 -9.47-3.41 78.41 78.41 0 0 0 -14.4-1.13h-69.72z"/><path d="m298.15 128.08q-33 0-53.2-5.83t-29.33-17.25q-9.18-11.44-9.17-28.42t9.17-28.42q9.16-11.47 29.38-17.31t53.15-5.85q33 0 53.21 5.84t29.33 17.28q9.17 11.44 9.17 28.42t-9.17 28.46q-9.18 11.44-29.33 17.28t-53.21 5.8zm0-28.8a166.84 166.84 0 0 0 27-1.89q11.37-1.89 17.59-6.82t6.21-14q0-9.1-6.21-14t-17.61-6.87a166.84 166.84 0 0 0 -27-1.89 174.2 174.2 0 0 0 -27.36 1.89q-11.75 1.9-18.34 6.83t-6.59 14q0 9.09 6.59 14t18.34 6.82a174.2 174.2 0 0 0 27.38 1.93z"/><path d="m561.59 95.34-14.09 8v-75.34h37.89v97h-37.89l-114.14-66 14.1-8.18v74.27h-37.9v-97.09h37.9z"/><path d="m597.52 125.05 65-97h42.14l65.64 97h-41.67l-56.23-86.85h22.6l-55.8 86.85zm34-14.7v-22.74h103.63v22.74z"/><path d="m756.67 28h157.65v28.8h-157.65zm59.88 26.83h37.89v70.18h-37.89z"/><path d="m931.75 28h37.89v97h-37.89z"/><path d="m1083.33 128.08q-33.06 0-53.21-5.83t-29.33-17.25q-9.16-11.44-9.17-28.42t9.17-28.42q9.16-11.44 29.33-17.28t53.21-5.88q33 0 53.2 5.84t29.33 17.28q9.14 11.46 9.14 28.43t-9.14 28.45q-9.18 11.44-29.33 17.28t-53.2 5.8zm0-28.8a167 167 0 0 0 27-1.89q11.36-1.89 17.58-6.82t6.21-14q0-9.1-6.21-14t-17.58-6.83a167 167 0 0 0 -27-1.89 174.11 174.11 0 0 0 -27.33 1.85q-11.76 1.9-18.35 6.83t-6.59 14q0 9.09 6.59 14t18.35 6.86a174.11 174.11 0 0 0 27.33 1.89z"/><path d="m1346.77 95.34-14.1 8v-75.34h37.89v97h-37.89l-114.14-66 14.1-8.18v74.27h-37.9v-97.09h37.9z"/></g></svg>