<svg height="84.79" viewBox="0 0 655.92 84.79" width="655.92" xmlns="http://www.w3.org/2000/svg"><g fill="#fff" opacity=".35"><path d="m124.88 57.9-11.58 6.6v-61.89h31.13v79.69h-31.13l-93.75-54.3 11.58-6.72v61h-31.13v-79.67h31.13z"/><path d="m193 48.68v10h94.63v23.62h-125.77v-79.69h125.51v23.66h-94.37v10h77.2v12.41z"/><path d="m342.15 82.3-44.57-79.69h35.11l37.6 74.09-11.83.3 35.24-74.39h37.6l35.24 74.39-11.83-.25 37.6-74.09h34.61l-44.07 79.64h-42.09l-34.36-67.11h12.2l-34.36 67.11z"/><path d="m533.77 53h34c.58 1.74 2.28 3.22 5.11 4.42a44.06 44.06 0 0 0 11.39 2.74 130.53 130.53 0 0 0 16.62.93q9.35 0 14.76-.56t7.65-2a4.42 4.42 0 0 0 2.25-3.92q0-2.37-3.62-3.67t-12.83-1.76q-9.21-.49-25.9-.5a168 168 0 0 1 -21.48-1.18 55 55 0 0 1 -14.81-3.73 19.79 19.79 0 0 1 -8.53-6.48 16 16 0 0 1 -2.74-9.4 20.77 20.77 0 0 1 6.41-15.63q6.42-6.15 19.43-9.21t32.52-3.05q28.63 0 43.77 8.28t15.13 23.84h-32.22q-.63-4.12-7.68-6.28t-20.17-2.18q-12.94 0-19.24 1.49t-6.29 5.11a3.39 3.39 0 0 0 1.75 3 16.81 16.81 0 0 0 6 1.81 100.87 100.87 0 0 0 12.14.93q7.84.26 19.92.25a167.08 167.08 0 0 1 22.66 1.31 56.5 56.5 0 0 1 15.13 3.92 18.94 18.94 0 0 1 8.4 6.66 17.22 17.22 0 0 1 2.62 9.53q0 9.47-6 15.44t-18.92 8.82q-12.94 2.86-33.86 2.86a159.62 159.62 0 0 1 -21.73-1.37 92.92 92.92 0 0 1 -17.62-4 49.61 49.61 0 0 1 -13.07-6.6 28.7 28.7 0 0 1 -8.16-8.84 21.71 21.71 0 0 1 -2.79-10.98z"/></g><g fill="#fc462d" opacity=".4"><path d="m124.88 57.9-11.58 6.6v-61.89h31.13v79.69h-31.13l-93.75-54.3 11.58-6.72v61h-31.13v-79.67h31.13z"/><path d="m193 48.68v10h94.63v23.62h-125.77v-79.69h125.51v23.66h-94.37v10h77.2v12.41z"/><path d="m492.31 2.62-31.55 62.15-29.46-62.15h-37.6l-29.46 62.15-31.55-62.15h-35.11l44.57 79.68h42.09l28.26-55.2 28.26 55.2h42.09l44.07-79.68z"/><path d="m533.77 53h34c.58 1.74 2.29 3.22 5.11 4.42a44.06 44.06 0 0 0 11.39 2.74 130.53 130.53 0 0 0 16.62.93q9.35 0 14.76-.56t7.65-2a4.42 4.42 0 0 0 2.25-3.92q0-2.37-3.62-3.67t-12.83-1.76q-9.21-.49-25.9-.5a168 168 0 0 1 -21.48-1.18 55 55 0 0 1 -14.81-3.73 19.79 19.79 0 0 1 -8.53-6.48 16 16 0 0 1 -2.74-9.4 20.73 20.73 0 0 1 6.41-15.63q6.42-6.15 19.43-9.21t32.52-3.05q28.65 0 43.77 8.28t15.13 23.84h-32.22q-.63-4.12-7.68-6.28t-20.17-2.18q-12.94 0-19.24 1.49t-6.29 5.11a3.39 3.39 0 0 0 1.75 3 16.81 16.81 0 0 0 6 1.81 100.87 100.87 0 0 0 12.14.93q7.84.26 19.92.25a167.08 167.08 0 0 1 22.66 1.31 56.5 56.5 0 0 1 15.13 3.92 18.87 18.87 0 0 1 8.4 6.66 17.22 17.22 0 0 1 2.62 9.53q0 9.47-6 15.44t-18.92 8.82q-12.94 2.86-33.86 2.86a159.62 159.62 0 0 1 -21.73-1.37 92.92 92.92 0 0 1 -17.62-4 49.61 49.61 0 0 1 -13.07-6.6 28.7 28.7 0 0 1 -8.16-8.84 21.71 21.71 0 0 1 -2.79-10.98z"/></g></svg>