<svg height="189.09" viewBox="0 0 137.37 189.09" width="137.37" xmlns="http://www.w3.org/2000/svg"><path d="m85 48a48.23 48.23 0 0 1 -5.15 10.45 37.2 37.2 0 0 0 -4-2.75 36.28 36.28 0 0 0 4.49-9zm7.14-3v16.94h-5.86v-16.94h-9.49v-5.1h9.49v-3.9h-9.79v-5h4.94a29.49 29.49 0 0 0 -1.43-5.32l4.19-1h-6.94v-4.97h8.75c-.46-1.37-1-2.8-1.53-4l6.07-1.48c.76 1.68 1.68 3.77 2.29 5.5h7.3v4.95h-6.41l4.13.82c-.76 1.93-1.53 3.92-2.29 5.5h5.3v5h-8.72v3.93h7.91v5.07zm-7.34-20.34a25.28 25.28 0 0 1 1.68 5.34l-3.67 1h7.34a56.32 56.32 0 0 0 2.2-6.32zm38.81 12.39h-4.75v25h-5.86v-25h-4.74v.61c0 7.5-.67 18-5 24.53a22.73 22.73 0 0 0 -4.69-3.62 20.29 20.29 0 0 0 2.29-4.94l-3.62 2.24a62.2 62.2 0 0 0 -4-7.65l4-2.14a49.15 49.15 0 0 1 3.76 6.68c1.43-4.9 1.59-10.4 1.59-15.1v-18.15c5.55-1 11.72-2.6 15.45-4.33l4.64 4.43a79.5 79.5 0 0 1 -14.48 3.83v8h15.4z" fill="#efb970" transform="translate(-1)"/><circle cx="98.89" cy="38.48" fill="none" r="34.39" stroke="#efb970" stroke-miterlimit="10" stroke-width="2.63"/><path d="m108.53 6.23a4.44 4.44 0 0 1 -2.61-2c-1.17-2-2.91-3.89-6-3.92-2.18 0-4.71.78-6 2.48a.42.42 0 0 0 0 .52 1.19 1.19 0 0 1 .22 1.07c-.17.65-.88 1-1.51 1.34a5.83 5.83 0 0 1 -1.32.51 4.42 4.42 0 0 1 -3.31-.43c-2-1.15-4.47-1.91-7.18-.37a7.77 7.77 0 0 0 -4 5.16.43.43 0 0 0 .26.45 1.18 1.18 0 0 1 .73.82c.18.64-.26 1.3-.64 1.9a5.56 5.56 0 0 1 -.89 1.11 4.35 4.35 0 0 1 -3 1.26c-2.34 0-4.83.58-6.41 3.27a7.8 7.8 0 0 0 -.87 6.47.46.46 0 0 0 .45.26 1.16 1.16 0 0 1 1 .33 2.63 2.63 0 0 1 .4 2 6.18 6.18 0 0 1 -.22 1.4 4.41 4.41 0 0 1 -2 2.61c-2 1.18-3.89 2.92-3.92 6 0 2.18.78 4.71 2.48 6a.4.4 0 0 0 .51 0 1.2 1.2 0 0 1 1.08-.23c.65.17 1 .88 1.34 1.51a6.1 6.1 0 0 1 .51 1.33 4.41 4.41 0 0 1 -.43 3.26c-1.15 2-1.91 4.46-.37 7.18a7.74 7.74 0 0 0 5.16 4 .43.43 0 0 0 .45-.26 1.2 1.2 0 0 1 .82-.74 2.6 2.6 0 0 1 1.9.64 5.94 5.94 0 0 1 1.11.89 4.39 4.39 0 0 1 1.26 3c0 2.34.58 4.82 3.27 6.41a7.8 7.8 0 0 0 6.47.87.44.44 0 0 0 .26-.44 1.14 1.14 0 0 1 .33-1 2.59 2.59 0 0 1 2-.4 6.08 6.08 0 0 1 1.4.21 4.42 4.42 0 0 1 2.61 2c1.18 2 2.92 3.89 6 3.91a7.77 7.77 0 0 0 6-2.47.43.43 0 0 0 0-.52 1.19 1.19 0 0 1 -.23-1.08c.17-.65.88-1 1.51-1.33a6.13 6.13 0 0 1 1.33-.52 4.41 4.41 0 0 1 3.26.43c2 1.16 4.46 1.92 7.18.37a7.74 7.74 0 0 0 4-5.16.42.42 0 0 0 -.26-.44 1.2 1.2 0 0 1 -.74-.82 2.61 2.61 0 0 1 .64-1.91 6.28 6.28 0 0 1 .89-1.11 4.39 4.39 0 0 1 3-1.25c2.34 0 4.82-.58 6.41-3.27a7.84 7.84 0 0 0 .88-6.47.44.44 0 0 0 -.45-.25 1.21 1.21 0 0 1 -1-.35 2.56 2.56 0 0 1 -.4-2 6.25 6.25 0 0 1 .21-1.41 4.42 4.42 0 0 1 2-2.61c2-1.17 3.89-2.91 3.91-6a7.77 7.77 0 0 0 -2.47-6 .42.42 0 0 0 -.52 0 1.25 1.25 0 0 1 -1.08.23c-.65-.18-1-.89-1.33-1.52a5.85 5.85 0 0 1 -.52-1.32 4.41 4.41 0 0 1 .43-3.26c1.16-2 1.92-4.47.38-7.18a7.78 7.78 0 0 0 -5.17-4 .42.42 0 0 0 -.44.26 1.18 1.18 0 0 1 -.82.73 2.57 2.57 0 0 1 -1.91-.64 5.86 5.86 0 0 1 -1.11-.89 4.34 4.34 0 0 1 -1.25-3c0-2.34-.58-4.83-3.27-6.41a7.81 7.81 0 0 0 -6.47-.88.44.44 0 0 0 -.26.45 1.19 1.19 0 0 1 -.34 1 2.6 2.6 0 0 1 -2 .4 6.27 6.27 0 0 1 -1.41-.22z" fill="none" stroke="#f4cfb0" stroke-miterlimit="10" stroke-width=".63" transform="translate(-1)"/><path d="m84.44 109.46v29.07h-5.91v-46h19.63v16.93zm0-12.9v2.5h8v-2.5zm8 8.93v-2.55h-8v2.55zm16.72 26.21v5.45h-5.45v-5.45h-17.43v-4.13h4.13v-12.24h-3v-4.13h24.73v4.13h-3v12.24h3.68v4.13zm-13.45-16.37v1.78h8v-1.78zm0 7h8v-1.83h-8zm8 5.26v-1.89h-8v1.89zm17.79 4.84c0 2.75-.51 4.08-2.14 5.05s-4 1-7.09 1a17.77 17.77 0 0 0 -1.68-5.25c1.68.05 3.52.05 4.13 0s.82-.26.82-.87v-22.9h-14v-16.93h20zm-14.21-35.87v2.5h8.26v-2.5zm8.26 8.93v-2.55h-8.26v2.55z" fill="#efb970" transform="translate(-1)"/><circle cx="98.89" cy="114.82" fill="none" r="34.39" stroke="#efb970" stroke-miterlimit="10" stroke-width="2.63"/><g transform="translate(-1)"><path d="m108.53 82.57a4.44 4.44 0 0 1 -2.61-2c-1.17-2-2.91-3.89-6-3.92-2.18 0-4.71.78-6 2.48a.4.4 0 0 0 0 .51 1.21 1.21 0 0 1 .22 1.08c-.17.65-.88 1-1.51 1.34a6.34 6.34 0 0 1 -1.32.51 4.42 4.42 0 0 1 -3.31-.43c-2-1.16-4.47-1.91-7.18-.37a7.74 7.74 0 0 0 -4 5.16.44.44 0 0 0 .26.45 1.17 1.17 0 0 1 .73.82c.18.64-.26 1.3-.64 1.9a5.56 5.56 0 0 1 -.89 1.11 4.4 4.4 0 0 1 -3 1.26c-2.34 0-4.83.58-6.41 3.27a7.78 7.78 0 0 0 -.87 6.46.43.43 0 0 0 .45.26 1.19 1.19 0 0 1 1 .34 2.62 2.62 0 0 1 .4 2 6.27 6.27 0 0 1 -.22 1.4 4.41 4.41 0 0 1 -2 2.61c-2 1.17-3.89 2.91-3.92 6a7.8 7.8 0 0 0 2.48 6 .43.43 0 0 0 .51 0 1.2 1.2 0 0 1 1.08-.23c.65.17 1 .88 1.34 1.51a6.1 6.1 0 0 1 .51 1.33 4.39 4.39 0 0 1 -.43 3.25c-1.15 2-1.91 4.47-.37 7.19a7.74 7.74 0 0 0 5.16 4 .45.45 0 0 0 .45-.26 1.2 1.2 0 0 1 .82-.74 2.6 2.6 0 0 1 1.9.64 5.94 5.94 0 0 1 1.11.89 4.39 4.39 0 0 1 1.26 3c0 2.33.58 4.82 3.27 6.41a7.8 7.8 0 0 0 6.47.87.44.44 0 0 0 .26-.44 1.14 1.14 0 0 1 .33-1.05 2.59 2.59 0 0 1 2-.4 5.58 5.58 0 0 1 1.4.21 4.41 4.41 0 0 1 2.61 2c1.18 2 2.92 3.89 6 3.92a7.77 7.77 0 0 0 6-2.47.43.43 0 0 0 0-.52 1.19 1.19 0 0 1 -.23-1.08c.17-.65.88-1 1.51-1.33a5.66 5.66 0 0 1 1.33-.52 4.37 4.37 0 0 1 3.26.43c2 1.16 4.46 1.91 7.18.37a7.74 7.74 0 0 0 4-5.16.44.44 0 0 0 -.26-.45 1.19 1.19 0 0 1 -.74-.81 2.61 2.61 0 0 1 .64-1.91 6.28 6.28 0 0 1 .89-1.11 4.44 4.44 0 0 1 3-1.26c2.34 0 4.82-.58 6.41-3.27 1.1-1.88 1.68-4.47.88-6.46a.46.46 0 0 0 -.45-.26 1.17 1.17 0 0 1 -1-.34 2.56 2.56 0 0 1 -.4-2 6.25 6.25 0 0 1 .21-1.41 4.42 4.42 0 0 1 2-2.61c2-1.17 3.89-2.91 3.91-6a7.81 7.81 0 0 0 -2.47-6 .45.45 0 0 0 -.52 0 1.19 1.19 0 0 1 -1.02.26c-.65-.17-1-.88-1.33-1.51a6.25 6.25 0 0 1 -.52-1.32 4.41 4.41 0 0 1 .43-3.26c1.16-2 1.92-4.47.38-7.19a7.78 7.78 0 0 0 -5.17-4 .43.43 0 0 0 -.44.26 1.2 1.2 0 0 1 -.82.74 2.61 2.61 0 0 1 -1.91-.64 5.86 5.86 0 0 1 -1.11-.89 4.37 4.37 0 0 1 -1.25-3c0-2.33-.58-4.82-3.27-6.4-1.89-1.11-4.47-1.69-6.47-.88a.44.44 0 0 0 -.26.45 1.19 1.19 0 0 1 -.34 1 2.64 2.64 0 0 1 -2 .4 6.27 6.27 0 0 1 -1.41-.22z" fill="none" stroke="#f4cfb0" stroke-miterlimit="10" stroke-width=".63"/><path d="m35.6 35.54a23.4 23.4 0 0 1 -4.74 8.9 21.43 21.43 0 0 0 6.59 2.7 15 15 0 0 0 -2.7 3.54 20.94 20.94 0 0 1 -6.93-3.39 25.39 25.39 0 0 1 -6.74 3.71 17.37 17.37 0 0 0 -2.28-3.4v3.4h-4.27v-3.28c-4.47.5-8.94.92-12.41 1.31l-.35-3.93c1-.08 2.12-.16 3.35-.27v-11.68h-3v-3.62h34.21v3.62h-17.53v14.18a19.32 19.32 0 0 0 5.82-2.93 23.52 23.52 0 0 1 -3.7-5.89l1.39-.39h-2.31v-3.5h12l.73-.16zm-24.6-7.2h-4.37v-12.06h25.31v12.06h-4.62v-8.9h-16.32zm-1.79 4.81v1.58h5.32v-1.58zm0 6.28h5.32v-1.54h-5.32zm0 5c1.69-.15 3.54-.31 5.32-.5v-1.34h-5.32zm16.68-21h-13.68v-2.61h13.68zm-13.64 4.17v-2.6h13.64v2.6zm12.68 10.52a14.66 14.66 0 0 0 2.62 3.62 14.19 14.19 0 0 0 2.5-3.62z" fill="#fffbf3"/><path d="m8 86.44a36.81 36.81 0 0 1 -3.89 7.9 29.4 29.4 0 0 0 -3-2.08 27.5 27.5 0 0 0 3.39-6.82zm5.4-2.23v12.79h-4.4v-12.79h-7.19v-3.86h7.19v-3h-7.42v-3.74h3.74a24.15 24.15 0 0 0 -1.12-4l3.16-.77h-5.2v-3.74h6.59c-.35-1-.77-2.12-1.16-3l4.58-1.12c.58 1.28 1.28 2.86 1.74 4.17h5.51v3.73h-4.82l3.12.62c-.57 1.46-1.15 3-1.73 4.16h4v3.78h-6.58v3h6v3.86zm-5.54-15.38a18.76 18.76 0 0 1 1.27 4l-2.77.77h5.55a44.28 44.28 0 0 0 1.65-4.78zm29.32 9.37h-3.58v18.91h-4.47v-18.91h-3.59v.46c0 5.66-.5 13.6-3.77 18.53a17.2 17.2 0 0 0 -3.55-2.74 14.84 14.84 0 0 0 1.78-3.73l-2.74 1.69a46.05 46.05 0 0 0 -3-5.78l3-1.61a37.7 37.7 0 0 1 2.89 5 41.61 41.61 0 0 0 1.2-11.4v-13.68a54.58 54.58 0 0 0 11.65-3.27l3.49 3.33a59.54 59.54 0 0 1 -11 2.89v6h11.69z" fill="#fffbf3"/><path d="m8.21 126.09c-1.58-1.09-4.9-2.93-7.21-4.16l2.51-3.39c2.11 1 5.54 2.7 7.24 3.74zm4.79 4.82c-2 4-4.47 8.4-6.78 12.13l-3.87-3.04a102.33 102.33 0 0 0 7.28-12.14zm-2.85-15.07a71.5 71.5 0 0 0 -6.9-4.51l2.75-3.23c2.12 1.15 5.36 3 7 4.08zm25.2 22.69c0 2.24-.39 3.4-1.85 4.13s-3.51.77-6.4.77a15.3 15.3 0 0 0 -1.38-4.32c1.77.12 3.77.12 4.39.08s.77-.19.77-.69v-5.28c-3.85 1-7.86 2-11.06 2.85l-1.35-3.78c3.2-.61 7.86-1.65 12.41-2.73v-7.13h-12.39v7.71c0 4.31-.3 10.09-2.42 13.63a18.63 18.63 0 0 0 -3.66-2.5c1.77-3.12 1.88-7.51 1.88-11.13v-11.87h8.33v-10.75h4.62v10.75h8.13zm-18.65-21a26.37 26.37 0 0 0 -3.47-7.13l3.86-1.69a26.31 26.31 0 0 1 3.77 6.93zm4.16 6.28a37.07 37.07 0 0 1 8.63 3.08l-2 3.12a38.71 38.71 0 0 0 -8.49-3.46zm15.93-13.81a62.88 62.88 0 0 1 -3.85 7.25l-4-1.47a48 48 0 0 0 3.36-7.35z" fill="#fffbf3"/><path d="m1.27 185.85a40.59 40.59 0 0 0 3.66-8.09l4.07 1.7a72 72 0 0 1 -3.51 8.43zm16.84-9.85h-11.06v-18.85h8.86a32.86 32.86 0 0 0 1-3.78l5.55.7c-.54 1.15-1.15 2.15-1.65 3.08h10.55v18.85h-11.09a24.37 24.37 0 0 1 4 5.08l-3.77 2.2a26.49 26.49 0 0 0 -4.5-6.06zm5.43 8.9c1.85 0 2.16-.5 2.39-4.16a11.87 11.87 0 0 0 4.16 1.61c-.54 5.4-1.89 6.71-6.2 6.71h-7.32c-5.4 0-6.82-1.27-6.82-5.4v-5.31h4.66v5.28c0 1.15.38 1.27 2.58 1.27zm-12.06-22.5h15.22v-1.78h-15.22zm0 5h15.22v-1.7h-15.22zm0 5.09h15.22v-1.81h-15.22zm21.12 4.51a31.73 31.73 0 0 1 4.27 8.24l-4.39 1.85a33.35 33.35 0 0 0 -3.93-8.4z" fill="#fffbf3"/></g></svg>