<?xml version="1.0" encoding="UTF-8"?>
<svg id="b" data-name="圖層 2" xmlns="http://www.w3.org/2000/svg" width="349.48" height="68.34" viewBox="0 0 349.48 68.34">
  <defs>
    <style>
      .d {
        fill: #fff;
      }
    </style>
  </defs>
  <g id="c" data-name="圖層 1">
    <g>
      <g>
        <path class="d" d="M272.41,50.01c-1.22,0-2.33-.66-2.91-1.72-.03-.05-.06-.11-.09-.18-.22-.47-.33-.94-.33-1.43,0-1.52,1.02-2.84,2.49-3.22,.26-.07,.55-.11,.84-.11,.67,0,1.31,.2,1.86,.57,.51,.35,.91,.82,1.16,1.37l-.37,.17c-.22-.48-.57-.9-1.02-1.2-.48-.33-1.05-.5-1.63-.5-.26,0-.5,.03-.73,.1-1.29,.33-2.19,1.49-2.19,2.83,0,.43,.09,.84,.27,1.23,.04,.08,.06,.13,.09,.17,.52,.94,1.49,1.52,2.56,1.52,.64,0,1.25-.21,1.76-.59l.25,.32c-.58,.44-1.28,.68-2.01,.68Z"/>
        <g>
          <circle class="d" cx="271.18" cy="47.32" r="1.74"/>
          <path class="d" d="M271.18,49.26c-1.07,0-1.94-.87-1.94-1.94s.87-1.94,1.94-1.94,1.94,.87,1.94,1.94-.87,1.94-1.94,1.94Zm0-3.47c-.85,0-1.53,.69-1.53,1.53s.69,1.53,1.53,1.53,1.53-.69,1.53-1.53-.69-1.53-1.53-1.53Z"/>
        </g>
        <path class="d" d="M277.13,51.19c-1.83,0-3.33-1.49-3.33-3.33s1.49-3.33,3.33-3.33,3.33,1.49,3.33,3.33-1.49,3.33-3.33,3.33Zm0-6.25c-1.61,0-2.92,1.31-2.92,2.92s1.31,2.92,2.92,2.92,2.92-1.31,2.92-2.92-1.31-2.92-2.92-2.92Z"/>
        <g>
          <circle class="d" cx="275.9" cy="48.49" r="1.74"/>
          <path class="d" d="M275.9,50.43c-1.07,0-1.94-.87-1.94-1.94s.87-1.94,1.94-1.94,1.94,.87,1.94,1.94-.87,1.94-1.94,1.94Zm0-3.47c-.85,0-1.53,.69-1.53,1.53s.69,1.53,1.53,1.53,1.53-.69,1.53-1.53-.69-1.53-1.53-1.53Z"/>
        </g>
        <path class="d" d="M288.66,61.17c-.43,0-.71-.16-.89-.32-.65-.6-.58-1.85-.3-2.81,.47-1.59-.83-3.5-.84-3.52l-.13-.19,.21-.1c1.12-.56,3.37-4.46,3.45-6.37,.03-.68-.29-1.39-.91-2.01-.91-.91-2.32-1.49-3.52-1.44-1.15,.04-1.49,1.04-1.95,2.41-.33,.97-.7,2.07-1.45,3.11-1.66,2.31-3.98,2.95-4.53,3.08-.71,1.83-3.43,3.16-4.19,3.5,.46,1.11,.27,1.93-.57,2.45-.24,.15-.49,.18-.76,.11-.56-.16-.99-.78-1.18-1.08-.88,.32-4.87,1.58-6.08-1.11-1.16-2.58,1.79-4.54,2.6-5.02-.27-.45-.47-1.21,.16-1.76,.19-.17,.42-.24,.66-.2,.6,.1,1.13,.86,1.34,1.18,1-.34,1.2-1.26,1.21-1.3l.4,.08c-.01,.05-.27,1.3-1.65,1.66l-.15,.04-.08-.14c-.16-.29-.68-1.05-1.14-1.12-.12-.02-.22,.01-.32,.1-.62,.55,0,1.37,.03,1.4l.15,.19-.22,.11s-3.79,1.99-2.62,4.6c1.18,2.61,5.68,.85,5.72,.83l.17-.07,.08,.16c.13,.24,.56,.91,1.01,1.04,.15,.04,.29,.02,.44-.06,.7-.43,.81-1.1,.33-2.12l-.09-.19,.2-.08s3.52-1.47,4.19-3.44l.04-.11,.12-.02s2.63-.5,4.38-2.94c.72-1,1.08-2.06,1.4-3.01,.48-1.41,.89-2.63,2.32-2.68,1.33-.05,2.83,.56,3.83,1.56,.7,.7,1.06,1.52,1.03,2.31-.08,1.95-2.22,5.7-3.49,6.6,.33,.54,1.22,2.2,.78,3.68-.31,1.07-.24,2.01,.19,2.4,.29,.27,.75,.29,1.37,.05,1.86-.71,2.93-3.26,2.73-5.1-.12-1.12-.42-1.96-.42-1.96l-.08-.21,.21-.06s1.9-.54,2.2-1.66c.3-1.12-.78-2.41-.79-2.43l-.18-.21,.26-.11s1.84-.77,2.01-1.97c.09-.64-.31-1.31-1.18-2l-.22-.17,.23-.16s1.52-1.04,1.68-2.23c.06-.45-.08-.85-.42-1.24-1.51-1.71-3.54-1.27-3.56-1.26l-.65,.15,.46-.49c.1-.11,2.49-2.71,.17-5.03l.29-.29c2.03,2.03,.8,4.29,.16,5.19,.76-.04,2.25,.09,3.45,1.45,.42,.47,.59,1,.52,1.56-.14,1.09-1.18,2-1.64,2.35,.85,.73,1.22,1.47,1.12,2.21-.16,1.15-1.47,1.91-2.02,2.18,.32,.45,.99,1.54,.71,2.58-.3,1.11-1.74,1.7-2.28,1.88,.1,.32,.29,1.01,.38,1.86,.21,1.99-.96,4.74-2.99,5.52-.36,.14-.66,.19-.9,.19Z"/>
        <path class="d" d="M280.31,47.49l-.21-.35s3.28-1.97,3.59-3.62c.3-1.59,.78-2.69,1.48-3.32-.84,.22-1.9,.69-2.3,1.67-.8,1.94-2.66,3.28-3.35,3.06l-.08-.05s-1.12-1.06-1.1-2.39c0-.1,.01-.2,.02-.29-.53,.61-.97,1.17-1.04,1.42-.22,.72-1.26,1.5-1.3,1.53l-.24-.33c.27-.2,1-.83,1.16-1.33,.15-.5,1.24-1.72,1.93-2.47,.16-.21,.35-.41,.58-.61l.28,.3c-.17,.17-.35,.36-.54,.57-.28,.38-.43,.79-.44,1.21-.02,1.02,.75,1.87,.93,2.05,.47,.05,2.09-1.09,2.81-2.83,.81-1.98,3.71-2.11,3.83-2.12l.05,.4c-1.13,.26-1.87,1.44-2.28,3.59-.34,1.83-3.64,3.81-3.78,3.9Z"/>
        <path class="d" d="M274.35,44.4l-.27-.12c-1.12-.49-2.43-.42-2.44-.41h-.07l-.06-.04c-1.43-1.06-2.45-1.1-3.45-1.14-.18,0-.35-.01-.52-.03-1.29-.09-1.74-1.83-1.76-1.91l-.2-.8,.55,.61c.54,.61,1.72,.49,2.62,.28,.94-.22,2.85,.37,3.51,.59,0-.09-.04-.21-.1-.37-.3-.73-1.1-1.61-1.92-1.82-1.45-.36-1.64-1.85-1.65-1.92l-.05-.42,.36,.22c.39,.24,.88,.32,1.41,.4,.87,.14,1.86,.3,2.76,1.2,1.43,1.46,1.31,5.19,1.3,5.35v.3Zm-2.49-.95c.42,0,1.26,.04,2.09,.34,0-.9-.09-3.65-1.19-4.76-.8-.81-1.68-.95-2.53-1.09-.4-.06-.79-.13-1.15-.26,.14,.4,.48,.98,1.24,1.17,.98,.24,1.86,1.24,2.19,2.06,.11,.27,.21,.65,.06,.9l-.09,.14-.16-.06s-2.5-.89-3.51-.66c-1.05,.24-1.87,.24-2.45,0,.21,.44,.59,.97,1.17,1.01,.17,.01,.34,.02,.51,.03,.99,.04,2.12,.09,3.61,1.18,.05,0,.11,0,.19,0Z"/>
        <path class="d" d="M274.09,56.28c-.05,0-.08,0-.09,0v-.41s3.13,.07,4.33-1.91l.07-.11,.13,.02c.09,.01,2.3,.28,3.62-1.73,.35-.54,.67-1.11,.98-1.67,.93-1.67,1.81-3.26,3.23-3.02,.62,.1,1.09,.52,1.37,1.22,.46,1.14,.28,2.69-.19,3.31-.61,.82-.54,2.4-.54,2.42l-.41,.02c0-.07-.08-1.74,.62-2.68,.39-.52,.53-1.93,.14-2.92-.23-.56-.58-.89-1.06-.97-1.14-.19-1.92,1.2-2.81,2.82-.31,.56-.64,1.14-.99,1.69-1.27,1.94-3.34,1.96-3.88,1.93-1.24,1.9-3.96,2-4.51,2Z"/>
        <path class="d" d="M277.8,59.63l.17-.79c.16-.77,.76-1.11,1.58-1.58,.55-.31,1.23-.7,1.98-1.34,1.35-1.15,1.46-2.06,1.6-3.12,.04-.32,.08-.65,.16-1,.34-1.51,2.79-4.18,2.9-4.3l.3,.28s-2.48,2.71-2.8,4.11c-.07,.33-.11,.65-.15,.96-.14,1.09-.27,2.13-1.74,3.38-.77,.66-1.47,1.06-2.04,1.38-.08,.04-.15,.09-.22,.13,.42-.18,.93-.35,1.55-.47l.37-.07c1.8-.35,2.22-.43,2.59-2.01,.44-1.95,2.8-2.12,2.83-2.12l.03,.41c-.08,0-2.08,.16-2.45,1.81-.42,1.84-1.1,1.97-2.9,2.32l-.37,.07c-2.01,.39-2.82,1.33-2.83,1.34l-.52,.62Z"/>
        <path class="d" d="M274.2,41.67l-.39-.1c.03-.11,.74-2.82,3.7-5.32,2.73-2.32,4.47-5.54,4.37-7.05-.21-.22-.94-1.06-.83-1.94,.06-.5,.38-.91,.94-1.23,.65-.37,1.3-.34,1.89,.08,1,.71,1.56,2.4,1.38,3.37-.12,.64-.31,1.3-.48,1.83,.57-.78,1.31-2.06,1.35-3.59-.21-.03-.53-.12-.79-.41-.34-.38-.44-.96-.32-1.72,.18-1.08,1.09-1.49,1.92-1.42,.98,.08,1.96,.81,1.96,2.04,0,1.7-1.51,4.58-2.14,5.7,1.17-.42,4.08-1.65,5.4-3.97-.31-.22-.98-.76-1.13-1.5-.1-.46,.01-.91,.33-1.34,.58-.81,2.02-.99,3.19-.4,1.28,.64,1.77,1.88,1.32,3.31-1.2,3.8-3.6,6.73-6.42,7.84-3.05,1.2-4.92,4.49-4.94,4.52l-.35-.2c.08-.14,1.96-3.44,5.14-4.7,2.71-1.07,5.02-3.91,6.19-7.59,.39-1.23-.03-2.28-1.11-2.83-1-.5-2.21-.38-2.68,.27-.25,.34-.33,.67-.26,1.02,.16,.78,1.1,1.34,1.11,1.34l.17,.1-.09,.17c-1.68,3.19-6.05,4.45-6.24,4.5l-.49,.14,.26-.44s2.35-3.96,2.35-5.95c0-.98-.8-1.57-1.59-1.63-.6-.05-1.34,.21-1.49,1.08-.11,.64-.03,1.11,.22,1.39,.27,.3,.67,.29,.68,.29h.21v.2c.03,2.79-2.07,4.8-2.16,4.88l-.65,.61,.32-.83s.58-1.49,.82-2.78c.16-.83-.38-2.36-1.22-2.96-.46-.33-.95-.35-1.46-.06-.44,.25-.69,.56-.73,.93-.1,.8,.76,1.65,.76,1.65l.05,.05v.07c.19,1.62-1.58,5.01-4.49,7.48-2.85,2.41-3.56,5.08-3.57,5.11Z"/>
        <path class="d" d="M273.31,39.84c-.03-.13-.66-3.15,.54-4.6,.11-.14,.23-.27,.35-.42,1.1-1.3,2.47-2.93,2.73-5.06,.05-.4,.08-.82,.12-1.25,.19-2.27,.4-4.84,2.48-6.14l.72-.45-.44,.73s-1.02,1.73,0,3.21c1.08,1.57,1.62,4.46,1.51,6.35l-.41-.02c.1-1.82-.41-4.6-1.44-6.1-.72-1.05-.57-2.17-.34-2.89-1.34,1.3-1.52,3.44-1.68,5.35-.04,.44-.07,.87-.12,1.27-.27,2.26-1.69,3.93-2.82,5.28-.12,.14-.24,.28-.35,.41-1.07,1.29-.46,4.22-.45,4.25l-.4,.09Z"/>
        <path class="d" d="M275.22,39.01c-.06-.07-1.35-1.64-.41-3.29,.33-.58,.75-1.14,1.16-1.68,.68-.91,1.39-1.84,1.7-2.92,.25-.88,.27-1.85,.29-2.71,.02-.88,.04-1.63,.27-2.18l.17-.39,.2,.38s.83,1.55,1.38,2.42c.6,.95,.71,3.71,.01,5.33l-.37-.16c.63-1.47,.54-4.12,.01-4.96-.37-.59-.86-1.48-1.15-2.01-.08,.44-.09,.98-.11,1.58-.02,.88-.04,1.88-.31,2.81-.32,1.15-1.06,2.12-1.76,3.06-.4,.53-.81,1.07-1.13,1.63-.8,1.4,.32,2.77,.37,2.83l-.31,.26Z"/>
        <path class="d" d="M273.47,31.23c-.74,0-1.54-.14-2.38-.53-3.16-1.47-13.97-6.94-17.19-9.31-.52-.38-1.05-.75-1.56-1.11-2.67-1.86-4.97-3.46-4.83-6.2,.04-.82,.32-1.35,.82-1.57,1.02-.46,2.92,.44,5.81,2.75,2.74,2.19,10.28,7.25,12.47,7.09,1.32-.09,4.15,.72,6.65,1.44,1.98,.57,3.85,1.11,4.52,1.07l.03,.41c-.74,.05-2.55-.48-4.66-1.08-2.47-.71-5.26-1.51-6.51-1.43-.04,0-.08,0-.12,0-2.53,0-10.12-5.17-12.63-7.18-2.72-2.18-4.53-3.08-5.39-2.7-.35,.16-.55,.57-.58,1.23-.13,2.52,2.08,4.06,4.65,5.85,.52,.36,1.05,.73,1.57,1.11,3.14,2.31,14.07,7.86,17.12,9.27,3.06,1.42,5.71-.67,5.73-.69l.26,.32s-1.61,1.28-3.78,1.28Z"/>
        <path class="d" d="M277.86,24.54s-2.48-4.32-5.01-5.11c-2.56-.81-8.12-1.82-10.09-1.71-1.75,.1-3.93-.56-6.3-1.91-.51-.29-1.04-.66-1.6-1.04-1.63-1.12-3.48-2.4-5.09-1.86l-.13-.39c1.8-.6,3.74,.73,5.45,1.91,.55,.38,1.08,.74,1.57,1.02,2.31,1.31,4.41,1.95,6.08,1.85,2-.12,7.64,.91,10.23,1.72,2.68,.84,5.13,5.12,5.24,5.3l-.35,.2Z"/>
        <path class="d" d="M267.92,35.27c-.21,0-.42,0-.63-.02-5.86-.34-10.29-1.55-14.8-4.04-4.58-2.53-11.26-5.25-12.51-5.25-.8,0-3.85,1.74-6.08,3-1.32,.75-2.46,1.4-3.02,1.64-.99,.42-2.63,.42-3.74-.4-.58-.43-1.24-1.26-1.08-2.81,.3-2.93,2.39-4.97,6.98-6.8l.53-.21c3.63-1.46,6.26-2.51,10.23-1.12,1.07,.38,2.41,.94,3.82,1.53,3.87,1.63,8.69,3.66,10.35,2.75l.19,.36c-1.83,1-6.55-.99-10.7-2.73-1.41-.59-2.74-1.15-3.8-1.53-3.83-1.35-6.39-.32-9.94,1.11l-.53,.21c-4.43,1.77-6.45,3.71-6.73,6.47-.11,1.08,.2,1.9,.92,2.44,.95,.7,2.44,.73,3.34,.35,.54-.23,1.67-.87,2.98-1.61,3.04-1.73,5.44-3.06,6.28-3.06,1.43,0,8.32,2.87,12.71,5.3,4.45,2.46,8.83,3.66,14.62,3.99,5.58,.32,9.35-3.91,9.39-3.95l.31,.27s-3.65,4.1-9.09,4.1Z"/>
        <path class="d" d="M247.56,48.07c-.3,0-.62-.12-.95-.37-1.57-1.18-3.22-5.13-3.41-6.98-.23-2.18,1.57-7.32,2.25-8.25,.44-.59-.28-3.43-.84-5.07l.38-.13c.15,.46,1.49,4.48,.78,5.44-.64,.87-2.39,5.91-2.17,7.97,.18,1.74,1.78,5.59,3.25,6.7,.3,.23,.58,.32,.82,.28,.59-.1,1.64-.42,2.12-1.34,.41-.79,.32-1.83-.28-3.12-1.82-3.94-1.12-7.24,1.92-9.05,3.52-2.1,8.21-.48,8.41-.41l-.14,.38s-4.71-1.62-8.06,.38c-4.04,2.41-2.57,6.77-1.76,8.53,.65,1.4,.74,2.57,.27,3.48-.42,.8-1.27,1.35-2.41,1.55-.06,.01-.12,.02-.19,.02Z"/>
        <path class="d" d="M248.88,39.96l-.25-.32c.09-.07,2.37-1.78,6.19-2.24,.45-.05,.89-.1,1.32-.15,3.25-.35,5.81-.63,6.41-2.98l.39,.1c-.67,2.63-3.5,2.93-6.76,3.28-.43,.05-.87,.09-1.31,.15-3.71,.45-5.97,2.14-5.99,2.16Z"/>
        <path class="d" d="M251.34,12.58c.29-.86,.9-1.58,1.67-2.11,.39-.26,.83-.46,1.3-.6,.47-.12,.97-.19,1.46-.15,.5,.03,.92,.13,1.37,.26,.44,.14,.86,.33,1.24,.54,.19,.11,.36,.21,.52,.3,.15,.08,.27,.14,.37,.17,.11,.04,.26-.04,.43-.14,.17-.11,.33-.25,.51-.4-.01,.11-.04,.22-.06,.33-.03,.11-.08,.22-.12,.33-.11,.21-.25,.46-.57,.59-.31,.13-.62,.1-.87,.07-.24-.04-.46-.09-.66-.14-.41-.1-.78-.19-1.15-.26-.19-.03-.37-.07-.56-.09-.19-.02-.38-.06-.55-.06-.35-.04-.7,0-1.05,.03-.35,.06-.71,.14-1.07,.26-.72,.25-1.44,.6-2.22,1.05Z"/>
        <path class="d" d="M239.84,46.76c-.43-.23-.79-.56-1.07-1.01-.13-.23-.26-.49-.27-.82-.02-.32,.06-.71,.28-.98,.1-.16,.22-.25,.34-.37,.14-.1,.29-.2,.47-.27,.36-.14,.78-.13,1.1-.03,.66,.2,1.04,.56,1.42,.88,.71,.67,1.24,1.38,1.8,1.96,.28,.29,.57,.53,.9,.69,.33,.16,.74,.18,1.17-.05-.08,.23-.26,.43-.49,.58-.23,.14-.52,.21-.8,.22-.57,0-1.09-.21-1.53-.47-.87-.54-1.5-1.23-2.12-1.8-.29-.28-.61-.54-.82-.62-.05-.02-.1-.05-.13-.05-.04-.02-.07,0-.11-.02-.04,0-.09,.02-.14,.03-.04,.03-.13,.05-.15,.09-.1,.05-.15,.13-.2,.25-.05,.12-.05,.31-.03,.5,.04,.4,.2,.83,.37,1.28Z"/>
        <path class="d" d="M247.71,47.86c.13,.58,.38,1.05,.68,1.46,.3,.41,.64,.75,1.01,1.07,.37,.31,.77,.61,1.18,.87,.41,.26,.82,.49,1.26,.67,.44,.2,.9,.35,1.44,.55,.28,.11,.58,.22,.94,.44,.1,.07,.19,.14,.29,.22,.09,.08,.19,.2,.28,.3,.08,.11,.14,.25,.2,.38,.06,.13,.07,.26,.09,.39,.03,.14,.02,.24,0,.35-.01,.11-.01,.22-.04,.31l-.08,.29c-.03,.1-.09,.2-.13,.29-.2,.39-.56,.68-.92,.81-.36,.13-.7,.14-1.02,.1-.31-.05-.61-.14-.87-.29,.29-.08,.56-.18,.79-.3,.24-.12,.44-.26,.56-.41,.12-.15,.15-.29,.15-.43,0-.12-.04-.34-.09-.39-.02-.03-.04,0-.04,.02-.02,0,0,.01-.02,.01-.02,0-.04,0-.06-.01-.14-.03-.37-.1-.62-.15-.52-.12-1.13-.28-1.71-.54-.58-.25-1.13-.6-1.61-1.01-.49-.41-.9-.87-1.25-1.41-.34-.53-.61-1.14-.7-1.78-.05-.32-.06-.64,0-.95,.05-.31,.13-.62,.3-.87Z"/>
        <path class="d" d="M248.76,47.63c.68,.78,1.47,1.39,2.33,1.77,.43,.18,.88,.31,1.34,.35,.46,.05,.97,.07,1.46,.07h1.51c.26,0,.52,.01,.8,.04,.28,.03,.57,.06,.89,.25,.16,.09,.32,.25,.4,.43l.06,.14s.01,.09,.02,.13c.01,.09,.02,.18,0,.25-.02,.32-.16,.63-.36,.85-.41,.43-.94,.61-1.46,.67,.45-.24,.87-.56,1.08-.94,.1-.19,.14-.38,.11-.57,0-.05-.02-.09-.03-.12l-.02-.05s-.02-.02-.03-.03c-.03-.05-.07-.06-.13-.09-.29-.09-.83-.07-1.32-.04-.5,.03-1.02,.06-1.54,.05-.53-.01-1.04-.03-1.58-.14-.54-.11-1.08-.29-1.55-.59-.94-.57-1.65-1.44-1.99-2.43Z"/>
        <path class="d" d="M247.72,14.09c-.56-.19-1.11-.32-1.62-.32-.26,0-.5,.03-.72,.09-.22,.06-.4,.15-.61,.28-.41,.26-.85,.61-1.31,.95-.47,.34-.97,.68-1.59,.94-.3,.13-.66,.23-1.05,.27-.1,0-.21,0-.31,0-.1,0-.21,0-.31-.04-.11-.02-.21-.05-.32-.08-.1-.04-.2-.09-.3-.14-.1-.05-.18-.11-.25-.16l-.22-.18c-.13-.13-.27-.26-.37-.41-.23-.29-.37-.62-.48-.96-.09-.35-.13-.71-.07-1.08,.07-.37,.24-.73,.51-1,.29-.25,.64-.37,.97-.39,.16,0,.32,.02,.47,.03,.15,.04,.29,.08,.43,.13l-.42,.1c-.13,.05-.26,.09-.37,.15-.23,.13-.4,.28-.48,.46-.08,.18-.1,.37-.08,.57,.03,.2,.1,.4,.19,.59,.21,.36,.53,.71,.84,.82,.12,.06,.25,.05,.41,.04,.18-.03,.37-.08,.59-.18,.43-.18,.9-.46,1.38-.74,.49-.28,.99-.59,1.6-.82,.31-.12,.68-.2,1.02-.19,.35,0,.68,.07,.98,.18,.59,.24,1.1,.6,1.47,1.07Z"/>
        <path class="d" d="M248.3,12.58c-.3-.49-.5-1.02-.66-1.58-.14-.56-.22-1.15-.15-1.78,.06-.62,.3-1.3,.82-1.82,.5-.5,1.13-.76,1.71-.93,.59-.16,1.16-.24,1.69-.31,.52-.07,1.06-.14,1.36-.29,.15-.08,.19-.12,.27-.31,.07-.21,.08-.42,.05-.64-.06-.44-.4-.88-.85-1.21,.56,.06,1.16,.37,1.48,.98,.16,.3,.23,.65,.22,.98,0,.08-.01,.18-.04,.28-.03,.1-.04,.21-.1,.3-.05,.09-.11,.19-.17,.28-.07,.07-.14,.14-.22,.21-.3,.24-.62,.38-.91,.47-.3,.1-.58,.16-.85,.23-.55,.12-1.07,.21-1.54,.34-.47,.13-.89,.31-1.2,.56-.29,.24-.51,.62-.65,1.08-.27,.93-.28,2.03-.25,3.16Z"/>
        <path class="d" d="M249.21,12.58c-.03-1.16,.59-2.3,1.42-3.14,.42-.42,.9-.79,1.42-1.09,.51-.29,1.05-.55,1.64-.72,.59-.17,1.25-.23,1.87-.16,.31,.04,.61,.1,.85,.16,.25,.05,.42,.08,.57,.05,.32-.06,.68-.35,.79-.77,.13-.41-.06-.92-.51-1.29,.28,.05,.56,.19,.78,.42,.22,.23,.36,.56,.38,.91,.03,.69-.37,1.42-1.1,1.73-.38,.16-.78,.14-1.07,.12-.3-.02-.55-.06-.79-.06-.48-.01-.94,.04-1.41,.18-.47,.13-.95,.33-1.41,.55-.47,.22-.9,.48-1.33,.76-.42,.29-.82,.62-1.17,1.01-.36,.38-.68,.82-.94,1.33Z"/>
        <path class="d" d="M249.71,46.82c.96,.22,1.83,.03,2.6-.31,.79-.34,1.42-.85,2.13-1.46,.37-.3,.77-.66,1.38-.87,.29-.11,.63-.15,.94-.12,.16,.02,.31,.03,.45,.08,.14,.03,.28,.09,.42,.15,.28,.12,.55,.33,.74,.6,.2,.27,.27,.59,.28,.88,0,.58-.22,1.06-.54,1.44,.03-.49,.03-.97-.13-1.33-.15-.37-.39-.51-.73-.57-.08-.02-.17-.03-.26-.03-.09-.01-.18,0-.26,0-.16,.02-.3,.05-.45,.12-.28,.13-.61,.41-.97,.71-.36,.3-.77,.62-1.23,.88-.46,.26-.95,.45-1.47,.56-.52,.1-1.06,.12-1.58,0-.51-.13-1-.34-1.33-.72Z"/>
        <path class="d" d="M258.11,42.7c-.18-.38-.28-.79-.28-1.23,0-.44,.11-.9,.38-1.3,.28-.4,.7-.67,1.13-.84,.44-.18,.93-.24,1.42-.18,.99,.1,1.88,.82,2.3,1.71,.22,.45,.32,.94,.35,1.42,0,.52-.04,.86-.05,1.26-.02,.78,0,1.55,.15,2.27,.14,.72,.44,1.37,.93,1.8,.24,.23,.56,.35,.9,.48,.41,.13,.81,.26,1.2,.44,.76,.37,1.52,.85,1.95,1.57-.64-.52-1.4-.79-2.16-.98-.38-.1-.77-.16-1.16-.21-.45-.08-.92-.21-1.32-.5-.4-.27-.75-.64-.98-1.05-.23-.41-.42-.84-.53-1.27-.24-.87-.27-1.74-.25-2.59,.02-.42,.06-.88,.07-1.18,0-.33-.07-.66-.19-.95-.22-.61-.74-1.06-1.37-1.23-.31-.08-.65-.07-.99,0-.34,.07-.66,.21-.9,.45-.51,.47-.66,1.32-.58,2.13Z"/>
        <path class="d" d="M282.51,67.09c.48,0,.98-.12,1.32-.4,.35-.28,.48-.72,.48-1.16,0-.45-.1-.89-.34-1.2-.23-.31-.6-.48-1.01-.5-.81-.04-1.7,.36-2.19,1l-.19,.26c-.09,.11-.17,.24-.27,.33-.19,.21-.41,.39-.64,.54-.46,.31-.99,.51-1.54,.59-.55,.08-1.14,.04-1.69-.21-.55-.24-1.01-.74-1.2-1.3-.19-.56-.2-1.1-.19-1.61,.02-.51,.09-1,.16-1.48,.12-.95,.28-1.9,.03-2.77-.23-.88-1.02-1.52-1.92-1.89,.23,.07,.47,.12,.71,.2l.34,.16,.17,.08c.05,.03,.1,.07,.16,.11l.31,.23,.26,.29c.1,.09,.16,.21,.23,.32,.07,.11,.14,.22,.18,.35,.41,.99,.33,2.04,.27,3.01-.03,.49-.06,.96-.07,1.42,0,.45,.05,.91,.2,1.26,.14,.36,.4,.63,.74,.77,.34,.15,.76,.18,1.16,.12,.41-.06,.82-.2,1.17-.43,.17-.12,.33-.24,.47-.39,.08-.07,.12-.15,.19-.23l.25-.31c.37-.43,.84-.75,1.35-.95,.51-.2,1.07-.29,1.63-.22,.14,.01,.28,.06,.42,.1,.14,.05,.27,.11,.4,.18,.25,.16,.48,.36,.63,.61,.31,.51,.34,1.08,.29,1.59-.06,.52-.32,1.08-.8,1.34-.46,.27-1,.28-1.47,.18Z"/>
        <path class="d" d="M270.09,63.23h-.03l-.5-.02,.37-.33c.29-.27,.42-.55,.41-.87-.03-.64-.65-1.24-.91-1.47-.69,.43-3.94,2.28-6.1-.12-2.13-2.36-.51-5.67-.11-6.4-.32-.26-1.32-.93-2.96-.56l-.39,.09,.16-.37s1.23-2.71,4.46-2.4c1.4,.13,2.26,.48,2.55,1.04,.23,.44,.02,.83,.01,.85l-.36-.2,.18,.1-.18-.1s.11-.23-.02-.47c-.13-.24-.59-.67-2.23-.82-2.27-.21-3.43,1.13-3.85,1.8,1.94-.26,2.98,.81,3.03,.86l.11,.11-.08,.13s-2.21,3.63-.02,6.06c2.17,2.41,5.55,.07,5.69-.03l.12-.09,.12,.09s1.13,.86,1.18,1.86c.01,.28-.05,.54-.2,.78,.33-.08,.79-.26,1.2-.66,.69-.69,1.02-1.81,.97-3.33h.41c.05,1.62-.31,2.84-1.09,3.62-.8,.8-1.75,.84-1.94,.84Z"/>
        <path class="d" d="M295.73,41.13l-.23-.33s2.7-1.91,3.51-2.79c.79-.87,1.32-3.65,0-5.33-1.14-1.44-.57-3.17-.22-3.94-.81,.22-2.16,.81-2.16,2.3,0,.4,.06,.83,.12,1.25,.17,1.16,.34,2.37-.82,2.97-1.39,.72-2.71,1.58-2.72,1.59l-.22-.34s1.35-.87,2.76-1.6c.9-.47,.77-1.43,.61-2.55-.06-.43-.13-.88-.13-1.3,0-1.68,1.5-2.54,2.91-2.79l.44-.08-.23,.38s-1.32,2.23-.01,3.88c1.51,1.91,.84,4.92,0,5.86-.84,.92-3.46,2.77-3.57,2.85Z"/>
        <path class="d" d="M292.36,55.33l-.11-.39s2.07-.6,3.44-1.82c.96-.86,2.05-.61,3.21-.34,.71,.16,1.44,.33,2.23,.29,1.56-.08,2.87-1.76,3.4-2.54-.75,.13-2.24,.28-3.31-.24-.27-.13-.5-.25-.7-.35-.86-.44-1.25-.64-2.62-.68-1.69-.04-3.89,.73-3.91,.74l-.14-.38c.09-.03,2.3-.81,4.06-.76,1.46,.04,1.93,.28,2.79,.72,.2,.1,.42,.22,.69,.35,1.33,.64,3.49,.12,3.51,.12l.46-.11-.23,.41c-.07,.12-1.74,3.02-3.98,3.13-.85,.04-1.64-.14-2.34-.3-1.15-.26-2.05-.47-2.85,.25-1.44,1.28-3.51,1.89-3.6,1.91Z"/>
        <path class="d" d="M295.15,48.06l-.06-.4s4.06-.65,4.73-2.16c.32-.73,.32-1.53,.31-2.3,0-.89,0-1.82,.51-2.61,.64-.98,1.69-1.5,2.32-1.74-.78-.26-2.33-.51-3.46,1.07-.54,.75-.81,1.43-1.04,2.04-.47,1.19-.8,2.06-2.93,1.8l.05-.4c1.81,.22,2.04-.37,2.5-1.55,.23-.59,.52-1.33,1.09-2.12,1.76-2.44,4.45-.99,4.48-.98l.46,.26-.52,.12s-1.76,.42-2.61,1.73c-.45,.69-.44,1.51-.44,2.38,0,.81,0,1.66-.35,2.46-.76,1.71-4.87,2.37-5.04,2.4Z"/>
        <path class="d" d="M323.52,55.52c-2.42,0-4.65-.59-6.44-1.06-.25-.07-.49-.13-.73-.19-1.82-.47-4.19-1.82-6.49-3.12-2.25-1.28-4.58-2.61-6.37-3.09-3.48-.94-5.36,1.05-5.44,1.14l-.3-.27c.08-.09,2.12-2.26,5.84-1.25,1.84,.5,4.19,1.84,6.47,3.13,2.27,1.29,4.62,2.63,6.39,3.08,.23,.06,.48,.12,.73,.19,3.61,.95,9.08,2.4,14.19-1.73,2.82-2.27,3.32-4.97,3.24-6.83-.1-2.57-1.43-5.22-3.23-6.45l-3.43-1.59-.03-.09s-.9-3.03-3.27-5.62c-.87-.95-1.82-1.33-2.75-1.09-1.13,.29-1.98,1.44-2.21,2.37-.27,1.11,.7,2.97,1.64,4.77,.51,.97,1.03,1.97,1.34,2.83,.4,1.12,.4,2.11-.02,2.95-.49,.98-1.53,1.72-3.1,2.19-2.57,.78-7.53-.57-12.39-2.02-3.95-1.18-6.71,.49-6.74,.51l-.21-.34c.12-.07,2.94-1.79,7.07-.55,3.55,1.06,9.49,2.83,12.16,2.02,1.45-.44,2.41-1.11,2.85-1.98,.37-.73,.37-1.62,0-2.63-.3-.84-.82-1.83-1.32-2.78-.97-1.87-1.98-3.8-1.67-5.05,.26-1.07,1.21-2.34,2.5-2.67,.75-.19,1.91-.14,3.15,1.21,2.23,2.44,3.17,5.15,3.34,5.69l3.29,1.53c1.93,1.31,3.33,4.1,3.44,6.79,.08,1.96-.45,4.79-3.39,7.17-2.72,2.19-5.53,2.86-8.11,2.86Z"/>
        <path class="d" d="M306.35,65.41c-3.11,0-4.39-3.1-4.4-3.13l-.09-.22,.23-.06s2.96-.73,4.67-2.23c1.56-1.36,3.15-3.54,2.49-5.19-.69-1.74,.52-3.64,.58-3.72l.34,.22s-1.15,1.8-.54,3.34c.74,1.84-.94,4.2-2.6,5.65-1.52,1.33-3.85,2.05-4.6,2.26,.37,.74,1.79,3.13,4.77,2.59,3.99-.72,9.36-2.32,11.75-4.13l.06-.03c.06-.02,5.53-1.78,6.05-5.49l.4,.06c-.55,3.86-5.78,5.65-6.3,5.81-2.45,1.83-7.88,3.45-11.89,4.18-.32,.06-.62,.08-.91,.08Z"/>
        <path class="d" d="M319.78,35.26c-.1-.02-2.48-.41-3.59-2.17-1.08-1.73-1.21-4.02-1.21-4.12v-.19l.18-.02c.15-.02,3.6-.4,6.48,1.65l-.24,.33c-2.37-1.69-5.23-1.64-6-1.6,.05,.59,.28,2.38,1.13,3.73,1.01,1.6,3.28,1.98,3.3,1.99l-.06,.4Z"/>
        <path class="d" d="M327.94,37.38c-.03-.08-.23-.79,.82-1.83,.98-.97,2.79-1.2,5.38-.68,.4,.08,.79,.17,1.17,.26,1.99,.46,3.15,.67,3.69-.51,.16-.35,.18-.68,.06-1.02-.41-1.11-2.32-2.11-4.32-3.02-3.03-1.39-9.03-2.94-11.01-2.63-.53,.08-.92,.31-1.18,.67-.5,.71-.32,1.72-.31,1.73l-.4,.08s-.22-1.19,.38-2.04c.32-.46,.81-.74,1.45-.84,2.23-.35,8.4,1.36,11.24,2.66,2.4,1.1,4.09,2.07,4.53,3.25,.16,.44,.14,.88-.07,1.33-.71,1.54-2.31,1.16-4.15,.73-.37-.09-.76-.18-1.16-.26-2.45-.49-4.14-.29-5.02,.57-.87,.86-.73,1.41-.72,1.41l-.39,.13Z"/>
        <path class="d" d="M303.35,42.89s-.28-1.22-1.18-1.07l-.74,.12,.57-.48s3.87-3.12,9.6-.99c.12-.12,.35-.39,.38-.76,.03-.36-.13-.73-.48-1.11l-.1-.11,.08-.13c.05-.08,1.23-1.96,6.52,.81-.36-.88-1.39-2.69-3.71-2.93-4.26-.44-6.97-1.25-8.3-2.49l-.18-.16,.19-.15s1.84-1.42,2.26-2.35c.21-.47,.21-.87,.02-1.21-.38-.64-1.53-1.07-3.34-1.24-3.98-.37-6.48-2.27-7.23-5.49l-.12-.53,.44,.32s3.02,2.17,7.53,2.06c3.47-.08,9.52,.31,10.99,3.86l-.38,.16c-1.44-3.45-7.9-3.67-10.61-3.61-3.67,.09-6.31-1.24-7.33-1.85,.84,2.73,3.16,4.34,6.74,4.68,1.97,.19,3.2,.67,3.65,1.44,.26,.45,.27,.98,0,1.58-.38,.85-1.69,1.95-2.19,2.36,1.31,1.07,3.97,1.82,7.89,2.22,3.31,.34,4.22,3.68,4.23,3.71l.12,.46-.41-.23c-4.46-2.47-5.97-1.64-6.34-1.31,.35,.42,.51,.86,.47,1.29-.06,.68-.59,1.1-.62,1.11l-.09,.07-.11-.04c-4.46-1.7-7.71-.14-8.86,.57,.62,.22,.94,.91,1.03,1.34l-.4,.09Z"/>
        <path class="d" d="M340.08,45.33c-.46,.34-1.01,.57-1.64,.65-.32,.02-.67,0-1.03-.16-.36-.16-.66-.5-.83-.85-.06-.18-.15-.35-.17-.55-.03-.2-.05-.41-.01-.59,.01-.09,.02-.19,.04-.29l.08-.25c.05-.18,.12-.32,.18-.46,.26-.57,.55-1.01,.8-1.46,.25-.44,.45-.88,.63-1.33,.15-.45,.29-.92,.36-1.41,.16-.99,.12-2.05,.09-3.19,.66,.93,1.09,2.04,1.17,3.24,.05,.6-.03,1.22-.16,1.81-.16,.59-.4,1.16-.69,1.67-.29,.5-.61,.97-.85,1.37-.06,.1-.12,.2-.16,.29-.02,.05-.04,.09-.07,.13l-.04,.12c-.04,.08-.03,.15-.05,.22-.03,.07,.01,.16,0,.25,.04,.15,.08,.28,.19,.39,.12,.11,.31,.21,.54,.28,.46,.13,1.02,.14,1.58,.13Z"/>
        <path class="d" d="M339.19,34.7c1.05,.37,2.04,1.01,2.78,1.95,.74,.94,1.15,2.23,1.07,3.43-.02,.6-.13,1.18-.26,1.71-.13,.53-.29,1.04-.34,1.44-.02,.17-.02,.4,.02,.55,.04,.16,.1,.28,.26,.39,.32,.22,.9,.22,1.44,.16-.21,.19-.45,.34-.73,.46-.28,.11-.6,.18-.96,.12-.36-.06-.73-.32-.93-.64-.05-.08-.1-.16-.14-.24l-.09-.25c-.07-.16-.08-.34-.12-.52-.06-.68,.05-1.22,.11-1.75,.07-.52,.14-1.02,.15-1.49,.06-.95-.12-1.83-.54-2.71-.41-.88-1.05-1.71-1.73-2.61Z"/>
        <path class="d" d="M349.48,39.8c0,.32-.08,.64-.21,.95-.13,.31-.33,.61-.64,.86-.32,.25-.79,.35-1.19,.28-.42-.05-.76-.22-1.08-.4-.16-.11-.31-.24-.47-.37-.14-.14-.24-.29-.37-.44-.21-.3-.38-.61-.52-.9-.28-.59-.48-1.17-.71-1.7-.22-.53-.45-1.03-.75-1.46-.13-.24-.32-.41-.47-.63-.08-.1-.19-.18-.28-.27-.1-.09-.18-.2-.3-.27-.84-.67-1.95-1.1-3.15-1.53,1.23-.24,2.59-.17,3.83,.45,1.26,.62,2.14,1.89,2.62,3.07,.25,.6,.43,1.19,.63,1.72,.19,.53,.39,.99,.69,1.28,.09,.07,.18,.17,.28,.23,.09,.05,.19,.13,.28,.16,.18,.08,.36,.12,.58,.06,.44-.12,.88-.6,1.23-1.11Z"/>
        <path class="d" d="M339.19,33.38c.46-.32,.83-.73,.91-1.15,.11-.41-.02-.81-.22-1.22-.2-.4-.5-.81-.8-1.15-.31-.35-.65-.63-1.05-.86-.4-.24-.85-.43-1.36-.67-.26-.13-.53-.24-.81-.45-.14-.09-.28-.22-.41-.34-.12-.15-.25-.29-.33-.47-.19-.35-.23-.71-.23-1.05,0-.35,.13-.77,.41-1.04,.28-.27,.62-.37,.93-.39,.31-.02,.6,.03,.87,.13-.27,.07-.53,.17-.75,.29-.22,.12-.39,.28-.44,.45-.06,.16-.04,.31,0,.5,.07,.2,.14,.38,.25,.49,.36,.45,1.62,.6,2.68,1.25,.54,.32,1.03,.76,1.4,1.27,.37,.51,.65,1.04,.81,1.67,.08,.31,.12,.64,.09,.99,0,.17-.06,.34-.1,.51-.07,.16-.13,.32-.24,.46-.4,.56-1.02,.81-1.58,.81Z"/>
        <path class="d" d="M294.51,65.68c-.31-.11-.59-.27-.85-.48-.26-.22-.5-.49-.65-.88-.15-.39-.09-.9,.11-1.28,.16-.33,.42-.69,.84-.93,.42-.24,.93-.29,1.33-.24,.41,.05,.76,.17,1.09,.3,.66,.27,1.21,.63,1.73,1l.75,.56,.33,.25c.11,.08,.23,.15,.34,.23,.46,.3,.93,.55,1.43,.71,.98,.35,2.12,.28,3.28-.29-.33,.56-.84,1.02-1.47,1.32-.63,.3-1.37,.4-2.08,.32-.71-.07-1.38-.32-1.99-.63-.3-.16-.59-.34-.87-.53l-.74-.53c-.47-.34-.95-.67-1.41-.92-.23-.13-.45-.22-.65-.29-.2-.05-.34-.07-.47-.04-.14,.02-.31,.14-.48,.32-.13,.13-.22,.27-.23,.48-.02,.22,.06,.48,.18,.75,.12,.27,.29,.53,.48,.79Z"/>
        <path class="d" d="M303.45,65.21c.24,.42,.56,.75,.94,.94,.37,.2,.78,.25,1.19,.23,.82-.05,1.69-.37,2.6-.63,.46-.13,.93-.26,1.44-.32,.26-.03,.53-.05,.82-.01,.29,.03,.63,.13,.89,.38,.13,.12,.23,.27,.29,.42,.07,.16,.08,.27,.12,.41,.04,.28,.05,.57-.05,.86-.1,.28-.3,.5-.53,.64-.23,.14-.47,.21-.72,.22,.42-.24,.73-.61,.73-.98,.01-.18-.04-.36-.11-.54-.1-.2-.17-.33-.27-.38-.19-.12-.59-.1-1.01,0-.42,.09-.86,.22-1.31,.35-.45,.13-.91,.26-1.4,.35-.48,.09-1,.16-1.53,.08-.53-.06-1.07-.27-1.46-.64-.38-.37-.62-.87-.62-1.36Z"/>
        <path class="d" d="M295.82,60.97c-.23-.13-.43-.3-.61-.5-.18-.21-.33-.45-.41-.78-.08-.32,0-.74,.23-1.03,.1-.15,.25-.28,.41-.39,.09-.05,.19-.09,.28-.13,.1-.03,.2-.05,.31-.06,.42-.03,.77,.1,1.05,.24,.3,.15,.52,.34,.74,.54,.42,.41,.75,.88,1,1.41,.06,.13,.11,.27,.16,.42,.05,.12,.05,.16,.1,.25,.07,.16,.17,.32,.29,.48,.23,.32,.54,.62,.88,.89,.69,.53,1.51,.93,2.54,1.01-.44,.28-.99,.4-1.54,.4-.55,0-1.1-.14-1.61-.37-.51-.23-.98-.56-1.38-.99-.2-.21-.38-.46-.53-.75-.07-.13-.14-.33-.18-.44-.03-.09-.07-.18-.11-.27-.16-.37-.39-.73-.65-1.03-.25-.31-.57-.54-.73-.59-.08-.03-.16-.03-.28,.05-.11,.07-.19,.15-.23,.33-.08,.36,.09,.86,.28,1.32Z"/>
        <path class="d" d="M298.82,57.59c-.18-.19-.32-.41-.43-.65-.11-.25-.18-.53-.17-.84,0-.31,.15-.69,.43-.95,.13-.15,.29-.23,.44-.32,.15-.07,.31-.13,.47-.18,.3-.06,.59-.13,.98-.07,.19,.03,.41,.08,.62,.22,.21,.13,.41,.33,.52,.54,.24,.43,.25,.81,.26,1.13,0,.31-.05,.59-.1,.85-.1,.51-.25,.97-.37,1.4-.06,.21-.11,.41-.15,.58-.02,.09-.03,.15-.03,.22v.34c0,.45,0,.85,.11,1.22,.1,.38,.39,.75,.72,1.15-.5-.05-1.03-.23-1.45-.67-.42-.43-.62-1-.77-1.48l-.1-.37c-.03-.17-.05-.35-.05-.49,0-.31,.03-.58,.06-.83,.08-.51,.19-.97,.27-1.39,.05-.21,.08-.41,.09-.57,.02-.16,0-.28,.01-.27,.01,0,.04,.02,.05,.02,.02,0,0-.02-.04-.05-.08-.05-.27-.06-.44-.08h-.22c-.05,.01-.13,0-.17,.03-.11,.02-.22,.09-.3,.24-.19,.3-.25,.8-.26,1.3Z"/>
        <path class="d" d="M208.4,63.49l-.44-.3s-4.67-3.22-2.65-8.45c1.12-2.89,2.36-4.32,3.36-5.47,.76-.88,1.37-1.58,1.61-2.63,.25-1.06-.04-2.21-.34-3.43-.38-1.55-.78-3.16-.06-4.66,.89-1.84,3.92-6.26,13.16-8.81-1.97-.01-5.71,.21-8.9,1.86-.72,.37-1.46,.79-2.24,1.23-4.2,2.37-8.97,5.05-13.55,2.41l-.37-.21,.4-.15c.07-.03,7.02-2.73,8.79-4.83,.27-.32,.55-.69,.84-1.07,1.64-2.16,3.88-5.12,9.74-6.05,4.5-.71,6.76-.74,7.8-.67-.9-.59-2.99-1.53-6.84-1.25-2.61,.19-4.68,.74-6.51,1.23-2.1,.56-3.91,1.04-5.81,.76-3.5-.5-6.36-2.6-6.48-2.69l-.67-.5,.82,.13s3.95,.62,7.33-1.31c3.02-1.72,9.29-5.3,14.83-4,3.32,.78,5.54,2,6.75,2.84-1.25-1.64-3.74-4.55-6.2-5.28-.72-.22-1.67-.42-2.76-.66-4.33-.95-10.26-2.24-10.74-5.88l-.04-.34,.32,.12s3.25,1.23,7.22,1.15c3.36-.07,7.94,.28,10.66,2.36,1.72,1.31,2.84,2.51,3.36,3.12,.02-.92-.11-2.97-1.49-4.82-.66-.89-1.53-1.46-2.36-2.01-1.54-1.01-2.99-1.95-2.82-4.68l.03-.55,.33,.44s2.21,2.91,4.5,3.07c1.45,.1,4.31,.73,5.82,2.48,.69,.79,1,1.7,.92,2.72-.24,3.29-.08,7.43,1.16,8.28,1.32,.91,2.24,1.74,2.25,1.75l-.27,.3s-.9-.82-2.2-1.72c-1.74-1.19-1.46-6.92-1.33-8.64,.07-.9-.21-1.71-.82-2.42-1.42-1.64-4.15-2.24-5.54-2.34-1.92-.13-3.7-1.94-4.44-2.8,.06,2.08,1.26,2.87,2.65,3.77,.87,.57,1.76,1.15,2.47,2.11,1.94,2.61,1.55,5.5,1.53,5.62l-.07,.48-.29-.39s-1.26-1.65-3.61-3.44c-2.63-2-7.11-2.34-10.41-2.27-3.31,.07-6.1-.75-7.04-1.06,.77,3.11,6.29,4.31,10.36,5.2,1.1,.24,2.05,.45,2.79,.67,3.6,1.07,7.1,6.37,7.25,6.6l1.01,1.55-1.32-1.29s-2.52-2.41-7.7-3.62c-5.38-1.26-11.56,2.26-14.54,3.96-2.59,1.47-5.4,1.53-6.77,1.44,1.05,.65,3.2,1.82,5.62,2.17,1.82,.26,3.59-.21,5.65-.75,1.85-.49,3.94-1.04,6.58-1.24,5.67-.42,7.64,1.72,7.72,1.81l.47,.53-.68-.2s-1.75-.46-8.38,.59c-5.69,.9-7.88,3.79-9.48,5.9-.29,.39-.57,.76-.85,1.09-1.6,1.89-7.01,4.16-8.55,4.78,4.27,2.17,8.78-.37,12.77-2.61,.78-.44,1.52-.86,2.25-1.24,4.65-2.41,10.43-1.85,10.48-1.85l1.19,.12-1.16,.28c-10.11,2.44-13.31,7.06-14.22,8.93-.66,1.36-.28,2.9,.09,4.38,.3,1.21,.61,2.47,.34,3.62-.27,1.15-.9,1.88-1.7,2.81-.98,1.12-2.19,2.52-3.28,5.35-1.57,4.06,1.01,6.75,2.08,7.65-.19-1.12-.42-3.73,.97-5.66,.64-.89,1.51-1.65,2.43-2.46,1.6-1.41,3.26-2.86,3.67-5.03,.24-1.24,.25-2.38,.26-3.39,.02-1.85,.04-3.45,1.37-4.84,1.86-1.94,7.15-5.48,10.21-5.04l.17,.02v.17c0,.18,.06,4.36-2.66,6.15-2.7,1.77-5.23,4.09-3.87,7.89,.37-1.01,1.43-3.06,4.04-3.69,.2-.05,.4-.09,.62-.14,3.51-.8,8.8-2.02,9.27-14.72v-.23l.23,.03c.09,.01,2.17,.33,3.03,1.77,.44,.73,.48,1.61,.12,2.61-1.17,3.28-1.59,4.99-.31,6.23-.06-.78,.08-2.26,1.53-3.71,2.85-2.82,4.21-5.38,4.16-7.82-.06-3.01-1.77-4.45-1.79-4.46l.26-.32c.08,.06,1.88,1.56,1.94,4.77,.05,2.55-1.35,5.21-4.28,8.11-1.89,1.88-1.36,3.78-1.34,3.86l.17,.57-.48-.35c-2.08-1.51-1.44-3.66-.24-7.04,.31-.88,.29-1.64-.09-2.26-.61-1.01-1.98-1.41-2.52-1.53-.53,12.8-6.19,14.09-9.57,14.87-.21,.05-.41,.1-.61,.14-3.23,.79-3.91,3.92-3.91,3.95l-.13,.63-.26-.59c-1.94-4.42,1.02-7.09,3.81-8.92,2.23-1.46,2.46-4.81,2.48-5.62-2.75-.24-7.6,2.77-9.69,4.94-1.22,1.27-1.23,2.72-1.26,4.56-.01,1.03-.02,2.19-.27,3.47-.44,2.31-2.15,3.81-3.8,5.26-.91,.79-1.76,1.54-2.37,2.39-1.67,2.32-.81,5.83-.8,5.87l.13,.51Z"/>
        <path class="d" d="M236.05,28.09h-.66c-6.08-.06-7.96-3.5-8.04-3.64l.36-.19s1.73,3.14,7.09,3.4c-.61-.56-1.63-1.7-1.83-3.28-.19-1.45,.34-2.91,1.58-4.37l.22-.26,.12,.32s1.55,3.9,5.71,5.54c.16-1.02,1.02-4.71,4.9-5.66l.1,.39c-4.21,1.04-4.62,5.52-4.63,5.56l-.02,.27-.25-.09c-3.8-1.38-5.57-4.55-6.05-5.55-1.01,1.28-1.44,2.55-1.28,3.8,.27,2.08,2.12,3.38,2.14,3.39l.54,.38Z"/>
        <path class="d" d="M249.42,29.62c-1.68-1.18-2.52-2.49-2.52-3.88,.01-2.34,2.42-4.03,2.52-4.1l.23,.33s-2.34,1.65-2.34,3.77c0,1.25,.78,2.44,2.35,3.54l-.23,.33Z"/>
        <path class="d" d="M253.5,31.72c-.07-.09-1.71-2.15-1.34-4.56,.22-1.42,1.1-2.65,2.61-3.65l.23,.34c-1.41,.94-2.23,2.07-2.43,3.37-.34,2.23,1.24,4.22,1.25,4.24l-.32,.25Z"/>
        <path class="d" d="M258.17,33.63s-1.84-2.84,.59-4.68c-.26-.67-1.13-3.33,.93-4.45l.2,.36c-2.02,1.11-.74,3.96-.69,4.08l.07,.15-.14,.1c-2.3,1.61-.68,4.11-.61,4.22l-.34,.22Z"/>
        <path class="d" d="M265.93,35.15c-.05-.01-1.3-.3-1.88-1.4-.37-.71-.37-1.59,0-2.6l-5.12-1.94,.14-.38,5.5,2.08-.08,.19c-.4,.98-.43,1.81-.09,2.45,.49,.93,1.6,1.19,1.61,1.2l-.09,.4Z"/>
        <path class="d" d="M264.11,31.07c-.03-.12-.6-3.05,1.21-3.62l.12,.39c-1.47,.47-.94,3.13-.94,3.15l-.4,.08Z"/>
        <path class="d" d="M250.67,19.02s-.87-3.84,1.85-4.88l.14,.38c-2.39,.91-1.61,4.38-1.6,4.41l-.4,.09Z"/>
        <path class="d" d="M258.61,24.18c-2.72-2.03-2.05-5.02-1.69-6.1-.81,.29-1.39,.74-1.71,1.35-.57,1.07-.15,2.29-.15,2.3l-.38,.14c-.02-.06-.48-1.39,.17-2.62,.42-.81,1.22-1.37,2.35-1.68l.42-.11-.18,.4c-.07,.15-1.67,3.7,1.41,6l-.24,.33Z"/>
        <path class="d" d="M264.66,27.48s-2.96-2.98-.95-5.89l.33,.23c-1.81,2.63,.79,5.26,.9,5.37l-.29,.29Z"/>
        <path class="d" d="M269.87,30.02c-.03-.15-.8-3.76,.57-5.53,.47-.6,1.13-.92,1.96-.95v.41c-.7,.02-1.24,.28-1.64,.79-1.26,1.62-.51,5.16-.5,5.19l-.4,.09Z"/>
        <path class="d" d="M267.55,22.77l-.15-.38s2.81-1.18,2.47-3.39l.4-.06c.38,2.53-2.69,3.81-2.72,3.82Z"/>
        <path class="d" d="M244.26,43.23l-.38-.15c.03-.07,.7-1.69,2.22-2.2,.95-.31,2-.12,3.13,.56l-.21,.35c-1.02-.62-1.96-.8-2.79-.53-1.34,.44-1.97,1.95-1.97,1.96Z"/>
        <path class="d" d="M248.75,37.69c-.36-.75-.88-1.24-1.55-1.44-1.4-.43-3.01,.5-3.03,.51l-.21-.35c.07-.04,1.78-1.03,3.35-.54,.78,.24,1.38,.8,1.79,1.66l-.37,.17Z"/>
        <path class="d" d="M251.34,34.35c-.18-1.37-.69-2.29-1.53-2.75-1.55-.85-3.73,.17-3.76,.18l-.17-.37c.1-.05,2.39-1.11,4.12-.17,.96,.52,1.54,1.55,1.74,3.06l-.4,.05Z"/>
        <path class="d" d="M257.27,37.38c-1.04-2.79-4.94-3.24-4.98-3.25l.04-.4c.17,.02,4.19,.48,5.32,3.51l-.38,.14Z"/>
        <path class="d" d="M312.84,52.93l.12-.29c.78-1.9,.87-3.6,.25-5.04-.63-1.49-1.87-2.35-2.56-2.74,.18,.53,.16,1.05-.05,1.53-.82,1.86-4.26,2.66-4.41,2.69l-.24,.05v-.24c-.15-3.16-2.61-5.56-2.63-5.58l.28-.29c.1,.1,2.47,2.42,2.73,5.61,.78-.21,3.27-.99,3.9-2.4,.23-.53,.18-1.09-.17-1.7l-.28-.5,.53,.21c.09,.04,2.31,.92,3.28,3.2,.63,1.47,.58,3.17-.13,5.06,1.17-.09,5.32-.62,6.57-3.48-.01-.3-.15-2.27-1.75-3.05l.18-.37c1.96,.96,1.98,3.36,1.98,3.46l-.02,.08c-1.53,3.61-7.03,3.78-7.26,3.79h-.31Z"/>
        <path class="d" d="M323.69,55.91l.15-.65c.74-3.15-3.68-6.01-3.73-6.04l.22-.34c.18,.11,4.13,2.67,4,5.8,.76-.93,2.29-3.22,2.49-6.74-.36-.37-2.48-2.38-5.93-2.73l.04-.4c3.95,.39,6.16,2.82,6.25,2.92l.06,.06v.08c-.25,4.93-2.94,7.48-3.06,7.59l-.49,.45Z"/>
        <path class="d" d="M331.3,52.53c-.47-2.45-1.31-4.01-2.41-4.52-.93-.43-1.76,.02-1.76,.03l-.2-.35s1.01-.56,2.14-.04c1.25,.58,2.14,2.2,2.64,4.82l-.4,.08Z"/>
        <path class="d" d="M330.06,48.66l-.32-.25c.11-.14,2.7-3.37,5.11-3.01l-.06,.4c-2.18-.32-4.71,2.83-4.74,2.87Z"/>
        <path class="d" d="M322.74,41.62l-.1-.39c.17-.04,3.99-1.04,4.33-5.81-.93,.46-3.73,1.62-6.79,.81l.1-.39c3.52,.92,6.78-.92,6.81-.94l.32-.18v.37c-.18,5.39-4.62,6.53-4.66,6.55Z"/>
        <path class="d" d="M326.51,47.51l-.13-.38s3.06-1.09,2.69-2.97c0-.04-.32-2.2-4.98-2.99l.07-.4c4.99,.85,5.3,3.23,5.31,3.33,.44,2.2-2.82,3.37-2.95,3.42Z"/>
        <path class="d" d="M329.3,44.31l-.07-.4,.03,.2-.04-.2s1.78-.37,2.94-4.37l.39,.11c-1.24,4.27-3.18,4.64-3.26,4.65Z"/>
        <path class="d" d="M332.11,35.05l.05-.27c.74-3.64-2.08-5.41-3.2-5.96,1.16,3.49-2.11,5.53-2.15,5.56l-.21-.35c.14-.08,3.29-2.07,1.81-5.51l-.19-.44,.45,.16s4.66,1.78,3.94,6.33c.75-.17,2.75-.9,2.93-3.76l.41,.02c-.23,3.81-3.53,4.19-3.57,4.19l-.27,.03Z"/>
        <path class="d" d="M318.89,61.07c-1.83-3.04-2.31-4.93-2.4-5.97-.39,.59-.92,1.01-1.57,1.25-2.28,.84-5.29-.8-5.42-.87l.2-.36s2.98,1.62,5.08,.84c.82-.3,1.41-.94,1.77-1.89l.38,.14s-.57,1.86,2.31,6.64l-.35,.21Z"/>
        <path class="d" d="M311.71,64.35c-.71,0-3.77-.21-5.73-3.76l.36-.2c1.6,2.88,3.94,3.43,4.97,3.53-2.43-2.35-3.12-5.36-3.15-5.49l-.11-.5,.43,.29c2.82,1.95,9.38,3.29,9.44,3.3l-.08,.4c-.26-.05-6.08-1.24-9.14-3.07,.32,1.02,1.24,3.38,3.28,5.14l.37,.32-.48,.04s-.06,0-.15,0Z"/>
      </g>
      <g>
        <path class="d" d="M77.07,50.01c1.22,0,2.33-.66,2.91-1.72,.03-.05,.06-.11,.09-.18,.22-.47,.33-.94,.33-1.43,0-1.52-1.02-2.84-2.49-3.22-.26-.07-.55-.11-.84-.11-.67,0-1.31,.2-1.86,.57-.51,.35-.91,.82-1.16,1.37l.37,.17c.22-.48,.57-.9,1.02-1.2,.48-.33,1.05-.5,1.63-.5,.26,0,.5,.03,.73,.1,1.29,.33,2.19,1.49,2.19,2.83,0,.43-.09,.84-.27,1.23-.04,.08-.06,.13-.09,.17-.52,.94-1.49,1.52-2.56,1.52-.64,0-1.25-.21-1.76-.59l-.25,.32c.58,.44,1.28,.68,2.01,.68Z"/>
        <g>
          <circle class="d" cx="78.3" cy="47.32" r="1.74"/>
          <path class="d" d="M76.36,47.32c0-1.07,.87-1.94,1.94-1.94s1.94,.87,1.94,1.94-.87,1.94-1.94,1.94-1.94-.87-1.94-1.94Zm.41,0c0,.85,.69,1.53,1.53,1.53s1.53-.69,1.53-1.53-.69-1.53-1.53-1.53-1.53,.69-1.53,1.53Z"/>
        </g>
        <path class="d" d="M69.02,47.86c0-1.84,1.49-3.33,3.33-3.33s3.33,1.49,3.33,3.33-1.49,3.33-3.33,3.33-3.33-1.49-3.33-3.33Zm.41,0c0,1.61,1.31,2.92,2.92,2.92s2.92-1.31,2.92-2.92-1.31-2.92-2.92-2.92-2.92,1.31-2.92,2.92Z"/>
        <g>
          <path class="d" d="M73.58,46.76c-.96,0-1.74,.78-1.74,1.74s.78,1.74,1.74,1.74,1.74-.78,1.74-1.74-.78-1.74-1.74-1.74Z"/>
          <path class="d" d="M71.64,48.49c0-1.07,.87-1.94,1.94-1.94s1.94,.87,1.94,1.94-.87,1.94-1.94,1.94-1.94-.87-1.94-1.94Zm.41,0c0,.85,.69,1.53,1.53,1.53s1.53-.69,1.53-1.53-.69-1.53-1.53-1.53-1.53,.69-1.53,1.53Z"/>
        </g>
        <path class="d" d="M60.82,61.17c.43,0,.71-.16,.89-.32,.65-.6,.58-1.85,.3-2.81-.47-1.59,.83-3.5,.84-3.52l.13-.19-.21-.1c-1.12-.56-3.37-4.46-3.45-6.37-.03-.68,.29-1.39,.91-2.01,.91-.91,2.32-1.49,3.52-1.44,1.15,.04,1.49,1.04,1.95,2.41,.33,.97,.7,2.07,1.45,3.11,1.66,2.31,3.98,2.95,4.53,3.08,.71,1.83,3.43,3.16,4.19,3.5-.46,1.11-.27,1.93,.57,2.45,.24,.15,.49,.18,.76,.11,.56-.16,.99-.78,1.18-1.08,.88,.32,4.87,1.58,6.08-1.11,1.16-2.58-1.79-4.54-2.6-5.02,.27-.45,.47-1.21-.16-1.76-.19-.17-.42-.24-.66-.2-.6,.1-1.13,.86-1.34,1.18-1-.34-1.2-1.26-1.21-1.3l-.4,.08c.01,.05,.27,1.3,1.65,1.66l.15,.04,.08-.14c.16-.29,.68-1.05,1.14-1.12,.12-.02,.22,.01,.32,.1,.62,.55,0,1.37-.03,1.4l-.15,.19,.22,.11s3.8,1.99,2.62,4.6c-1.18,2.61-5.68,.85-5.72,.83l-.17-.07-.08,.16c-.13,.24-.56,.91-1.01,1.04-.15,.04-.29,.02-.44-.06-.7-.43-.81-1.1-.33-2.12l.09-.19-.2-.08s-3.52-1.47-4.19-3.44l-.04-.11-.12-.02s-2.63-.5-4.38-2.94c-.72-1-1.08-2.06-1.4-3.01-.48-1.41-.89-2.63-2.32-2.68-1.33-.05-2.83,.56-3.83,1.56-.7,.7-1.06,1.52-1.03,2.31,.08,1.95,2.22,5.7,3.49,6.6-.33,.54-1.22,2.2-.78,3.68,.31,1.07,.24,2.01-.19,2.4-.29,.27-.75,.29-1.37,.05-1.86-.71-2.93-3.26-2.73-5.1,.12-1.12,.42-1.96,.42-1.96l.08-.21-.21-.06s-1.9-.54-2.2-1.66c-.3-1.12,.78-2.41,.79-2.43l.18-.21-.26-.11s-1.84-.77-2.02-1.97c-.09-.64,.31-1.31,1.18-2l.22-.17-.23-.16s-1.52-1.04-1.68-2.23c-.06-.45,.08-.85,.42-1.24,1.51-1.71,3.54-1.27,3.56-1.26l.65,.15-.46-.49c-.1-.11-2.49-2.71-.17-5.03l-.29-.29c-2.03,2.03-.8,4.29-.16,5.19-.76-.04-2.25,.09-3.45,1.45-.42,.47-.59,1-.52,1.56,.14,1.09,1.18,2,1.64,2.35-.85,.73-1.22,1.47-1.12,2.21,.16,1.15,1.47,1.91,2.02,2.18-.32,.45-.99,1.54-.71,2.58,.3,1.11,1.74,1.7,2.28,1.88-.1,.32-.29,1.01-.38,1.86-.21,1.99,.96,4.74,2.99,5.52,.36,.14,.65,.19,.9,.19Z"/>
        <path class="d" d="M69.17,47.49l.21-.35s-3.28-1.97-3.59-3.62c-.3-1.59-.78-2.69-1.48-3.32,.84,.22,1.9,.69,2.3,1.67,.8,1.94,2.66,3.28,3.35,3.06l.08-.05s1.12-1.06,1.1-2.39c0-.1-.01-.2-.02-.29,.53,.61,.97,1.17,1.04,1.42,.22,.72,1.26,1.5,1.3,1.53l.24-.33c-.27-.2-1-.83-1.16-1.33-.15-.5-1.24-1.72-1.93-2.47-.16-.21-.35-.41-.58-.61l-.28,.3c.17,.17,.35,.36,.54,.57,.28,.38,.43,.79,.44,1.21,.02,1.02-.75,1.87-.93,2.05-.47,.05-2.09-1.09-2.81-2.83-.81-1.98-3.71-2.11-3.83-2.12l-.05,.4c1.13,.26,1.87,1.44,2.28,3.59,.34,1.83,3.64,3.81,3.78,3.9Z"/>
        <path class="d" d="M75.11,44.1c0-.16-.13-3.9,1.3-5.35,.89-.91,1.88-1.06,2.76-1.2,.52-.08,1.02-.16,1.41-.4l.36-.22-.05,.42c0,.06-.2,1.55-1.65,1.92-.82,.2-1.62,1.08-1.92,1.82-.07,.16-.1,.28-.1,.37,.66-.22,2.57-.81,3.51-.59,.9,.21,2.08,.33,2.62-.28l.55-.61-.2,.8c-.02,.07-.47,1.82-1.76,1.91-.17,.01-.35,.02-.52,.03-.99,.04-2.02,.08-3.45,1.14l-.06,.04h-.07s-1.32-.08-2.44,.41l-.27,.12v-.3Zm2.67-.65c1.5-1.09,2.62-1.14,3.61-1.18,.17,0,.34-.01,.51-.03,.58-.04,.96-.57,1.17-1.01-.58,.24-1.4,.25-2.45,0-1.01-.23-3.48,.65-3.51,.66l-.16,.06-.09-.14c-.15-.26-.05-.63,.06-.9,.33-.81,1.22-1.81,2.19-2.06,.76-.19,1.1-.77,1.24-1.17-.36,.13-.74,.19-1.15,.26-.85,.14-1.73,.28-2.53,1.09-1.09,1.11-1.19,3.86-1.19,4.76,.83-.3,1.67-.34,2.09-.34,.08,0,.14,0,.19,0Z"/>
        <path class="d" d="M75.39,56.28c.05,0,.08,0,.09,0v-.41s-3.13,.07-4.33-1.91l-.07-.11-.13,.02c-.09,.01-2.3,.28-3.62-1.73-.35-.54-.67-1.11-.98-1.67-.93-1.67-1.81-3.26-3.23-3.02-.62,.1-1.09,.52-1.37,1.22-.46,1.14-.28,2.69,.19,3.31,.61,.82,.54,2.4,.54,2.42l.41,.02c0-.07,.08-1.74-.62-2.68-.39-.52-.53-1.93-.14-2.92,.23-.56,.58-.89,1.06-.97,1.14-.19,1.92,1.2,2.81,2.82,.31,.56,.64,1.14,.99,1.69,1.27,1.94,3.34,1.96,3.88,1.93,1.24,1.9,3.96,2,4.51,2Z"/>
        <path class="d" d="M71.68,59.63l-.17-.79c-.16-.77-.76-1.11-1.58-1.58-.55-.31-1.23-.7-1.98-1.34-1.35-1.15-1.46-2.06-1.6-3.12-.04-.32-.08-.65-.16-1-.34-1.51-2.79-4.18-2.9-4.3l-.3,.28s2.48,2.71,2.8,4.11c.07,.33,.11,.65,.15,.96,.14,1.09,.27,2.13,1.74,3.38,.77,.66,1.47,1.06,2.04,1.38,.08,.04,.15,.09,.22,.13-.42-.18-.93-.35-1.55-.47l-.37-.07c-1.8-.35-2.23-.43-2.59-2.01-.44-1.95-2.8-2.12-2.83-2.12l-.03,.41c.08,0,2.08,.16,2.45,1.81,.42,1.84,1.1,1.97,2.9,2.32l.37,.07c2.01,.39,2.82,1.33,2.83,1.34l.52,.62Z"/>
        <path class="d" d="M75.28,41.67l.39-.1c-.03-.11-.74-2.82-3.7-5.32-2.73-2.32-4.47-5.54-4.37-7.05,.21-.22,.94-1.06,.83-1.94-.06-.5-.38-.91-.94-1.23-.65-.37-1.3-.34-1.89,.08-1,.71-1.56,2.4-1.38,3.37,.12,.64,.31,1.3,.48,1.83-.57-.78-1.31-2.06-1.35-3.59,.21-.03,.53-.12,.79-.41,.34-.38,.44-.96,.32-1.72-.18-1.08-1.09-1.49-1.92-1.42-.98,.08-1.96,.81-1.96,2.04,0,1.7,1.51,4.58,2.14,5.7-1.17-.42-4.08-1.65-5.4-3.97,.31-.22,.98-.76,1.13-1.5,.1-.46-.01-.91-.33-1.34-.58-.81-2.02-.99-3.19-.4-1.28,.64-1.77,1.88-1.32,3.31,1.2,3.8,3.6,6.73,6.42,7.84,3.05,1.2,4.92,4.49,4.94,4.52l.35-.2c-.08-.14-1.96-3.44-5.14-4.7-2.71-1.07-5.02-3.91-6.19-7.59-.39-1.23,.03-2.28,1.11-2.83,1-.5,2.21-.38,2.68,.27,.25,.34,.33,.67,.26,1.02-.16,.78-1.1,1.34-1.11,1.34l-.17,.1,.09,.17c1.68,3.19,6.05,4.45,6.24,4.5l.49,.14-.26-.44s-2.35-3.96-2.35-5.95c0-.98,.8-1.57,1.59-1.63,.6-.05,1.34,.21,1.49,1.08,.11,.64,.03,1.11-.22,1.39-.27,.3-.67,.29-.68,.29h-.21v.2c-.03,2.79,2.07,4.8,2.16,4.88l.65,.61-.32-.83s-.58-1.49-.82-2.78c-.16-.83,.38-2.36,1.22-2.96,.46-.33,.95-.35,1.46-.06,.44,.25,.69,.56,.73,.93,.1,.8-.76,1.65-.76,1.65l-.05,.05v.07c-.19,1.62,1.58,5.01,4.49,7.48,2.85,2.41,3.56,5.08,3.56,5.11Z"/>
        <path class="d" d="M76.17,39.84c.03-.13,.66-3.15-.54-4.6-.11-.14-.23-.27-.35-.42-1.1-1.3-2.47-2.93-2.73-5.06-.05-.4-.08-.82-.12-1.25-.19-2.27-.4-4.84-2.48-6.14l-.72-.45,.44,.73s1.02,1.73,0,3.21c-1.08,1.57-1.62,4.46-1.51,6.35l.41-.02c-.1-1.82,.41-4.6,1.44-6.1,.72-1.05,.57-2.17,.34-2.89,1.34,1.3,1.52,3.44,1.68,5.35,.04,.44,.07,.87,.12,1.27,.27,2.26,1.69,3.93,2.82,5.28,.12,.14,.24,.28,.35,.41,1.07,1.29,.46,4.22,.45,4.25l.4,.09Z"/>
        <path class="d" d="M74.26,39.01c.06-.07,1.35-1.64,.41-3.29-.33-.58-.75-1.14-1.16-1.68-.68-.91-1.39-1.84-1.7-2.92-.25-.88-.27-1.85-.29-2.71-.02-.88-.04-1.63-.27-2.18l-.17-.39-.2,.38s-.83,1.55-1.38,2.42c-.6,.95-.71,3.71-.01,5.33l.37-.16c-.63-1.47-.54-4.12-.01-4.96,.37-.59,.86-1.48,1.15-2.01,.08,.44,.09,.98,.11,1.58,.02,.88,.04,1.88,.31,2.81,.32,1.15,1.06,2.12,1.76,3.06,.4,.53,.81,1.07,1.13,1.63,.8,1.4-.32,2.77-.37,2.83l.31,.26Z"/>
        <path class="d" d="M76.01,31.23c.74,0,1.54-.14,2.38-.53,3.16-1.47,13.97-6.94,17.19-9.31,.52-.38,1.05-.75,1.56-1.11,2.67-1.86,4.97-3.46,4.83-6.2-.04-.82-.32-1.35-.82-1.57-1.02-.46-2.92,.44-5.81,2.75-2.74,2.19-10.28,7.25-12.47,7.09-1.32-.09-4.15,.72-6.65,1.44-1.98,.57-3.85,1.11-4.52,1.07l-.03,.41c.74,.05,2.55-.48,4.66-1.08,2.47-.71,5.26-1.51,6.51-1.43,.04,0,.08,0,.12,0,2.53,0,10.12-5.17,12.63-7.18,2.72-2.18,4.53-3.08,5.39-2.7,.35,.16,.55,.57,.58,1.23,.13,2.52-2.08,4.06-4.65,5.85-.52,.36-1.05,.73-1.57,1.11-3.14,2.31-14.07,7.86-17.12,9.27-3.06,1.42-5.71-.67-5.73-.69l-.26,.32s1.61,1.28,3.78,1.28Z"/>
        <path class="d" d="M71.62,24.54s2.48-4.32,5.01-5.11c2.56-.81,8.12-1.82,10.09-1.71,1.75,.1,3.93-.56,6.3-1.91,.51-.29,1.04-.66,1.6-1.04,1.63-1.12,3.48-2.4,5.09-1.86l.13-.39c-1.8-.6-3.74,.73-5.45,1.91-.55,.38-1.08,.74-1.57,1.02-2.31,1.31-4.41,1.95-6.08,1.85-2-.12-7.64,.91-10.23,1.72-2.68,.84-5.13,5.12-5.24,5.3l.35,.2Z"/>
        <path class="d" d="M81.56,35.27c.21,0,.42,0,.63-.02,5.86-.34,10.29-1.55,14.8-4.04,4.58-2.53,11.26-5.25,12.51-5.25,.8,0,3.85,1.74,6.08,3,1.32,.75,2.46,1.4,3.02,1.64,.99,.42,2.63,.42,3.74-.4,.58-.43,1.24-1.26,1.08-2.81-.3-2.93-2.39-4.97-6.98-6.8l-.53-.21c-3.63-1.46-6.26-2.51-10.23-1.12-1.07,.38-2.41,.94-3.82,1.53-3.87,1.63-8.69,3.66-10.35,2.75l-.19,.36c1.83,1,6.55-.99,10.7-2.73,1.41-.59,2.74-1.15,3.8-1.53,3.83-1.35,6.39-.32,9.94,1.11l.53,.21c4.43,1.77,6.45,3.71,6.73,6.47,.11,1.08-.2,1.9-.92,2.44-.95,.7-2.44,.73-3.34,.35-.54-.23-1.67-.87-2.98-1.61-3.04-1.73-5.44-3.06-6.28-3.06-1.43,0-8.32,2.87-12.71,5.3-4.45,2.46-8.83,3.66-14.62,3.99-5.58,.32-9.35-3.91-9.39-3.95l-.31,.27s3.65,4.1,9.09,4.1Z"/>
        <path class="d" d="M101.91,48.07c.3,0,.62-.12,.95-.37,1.57-1.18,3.22-5.13,3.41-6.98,.23-2.18-1.57-7.32-2.25-8.25-.44-.59,.28-3.43,.84-5.07l-.38-.13c-.15,.46-1.49,4.48-.78,5.44,.64,.87,2.39,5.91,2.17,7.97-.18,1.74-1.78,5.59-3.25,6.7-.3,.23-.58,.32-.82,.28-.59-.1-1.64-.42-2.12-1.34-.41-.79-.32-1.83,.28-3.12,1.82-3.94,1.12-7.24-1.92-9.05-3.52-2.1-8.21-.48-8.41-.41l.14,.38s4.71-1.62,8.06,.38c4.04,2.41,2.57,6.77,1.76,8.53-.65,1.4-.74,2.57-.27,3.48,.42,.8,1.27,1.35,2.41,1.55,.06,.01,.12,.02,.19,.02Z"/>
        <path class="d" d="M100.59,39.96l.25-.32c-.09-.07-2.37-1.78-6.19-2.24-.45-.05-.89-.1-1.32-.15-3.25-.35-5.81-.63-6.41-2.98l-.39,.1c.67,2.63,3.5,2.93,6.76,3.28,.43,.05,.87,.09,1.31,.15,3.71,.45,5.97,2.14,5.99,2.16Z"/>
        <path class="d" d="M98.13,12.58c-.29-.86-.9-1.58-1.67-2.11-.39-.26-.83-.46-1.3-.6-.47-.12-.97-.19-1.46-.15-.5,.03-.92,.13-1.37,.26-.44,.14-.86,.33-1.24,.54-.19,.11-.36,.21-.52,.3-.15,.08-.27,.14-.37,.17-.11,.04-.26-.04-.43-.14-.17-.11-.33-.25-.51-.4,.01,.11,.04,.22,.06,.33,.03,.11,.08,.22,.12,.33,.11,.21,.25,.46,.57,.59,.31,.13,.62,.1,.87,.07,.24-.04,.46-.09,.66-.14,.41-.1,.78-.19,1.15-.26,.19-.03,.37-.07,.56-.09,.19-.02,.38-.06,.55-.06,.35-.04,.7,0,1.05,.03,.35,.06,.71,.14,1.07,.26,.72,.25,1.45,.6,2.22,1.05Z"/>
        <path class="d" d="M109.64,46.76c.43-.23,.79-.56,1.07-1.01,.13-.23,.26-.49,.27-.82,.02-.32-.06-.71-.28-.98-.1-.16-.22-.25-.34-.37-.14-.1-.29-.2-.47-.27-.36-.14-.78-.13-1.1-.03-.66,.2-1.04,.56-1.42,.88-.71,.67-1.24,1.38-1.8,1.96-.28,.29-.57,.53-.9,.69-.33,.16-.74,.18-1.17-.05,.08,.23,.26,.43,.49,.58,.23,.14,.52,.21,.8,.22,.57,0,1.09-.21,1.53-.47,.87-.54,1.5-1.23,2.12-1.8,.29-.28,.61-.54,.82-.62,.05-.02,.1-.05,.13-.05,.04-.02,.07,0,.1-.02,.04,0,.09,.02,.14,.03,.04,.03,.13,.05,.15,.09,.1,.05,.15,.13,.2,.25,.05,.12,.05,.31,.03,.5-.04,.4-.2,.83-.37,1.28Z"/>
        <path class="d" d="M101.76,47.86c-.13,.58-.38,1.05-.68,1.46-.3,.41-.64,.75-1.01,1.07-.37,.31-.77,.61-1.18,.87-.41,.26-.82,.49-1.26,.67-.44,.2-.9,.35-1.44,.55-.28,.11-.58,.22-.94,.44-.1,.07-.19,.14-.29,.22-.09,.08-.19,.2-.28,.3-.08,.11-.14,.25-.2,.38-.06,.13-.07,.26-.09,.39-.03,.14-.02,.24,0,.35,.01,.11,.01,.22,.04,.31l.08,.29c.03,.1,.09,.2,.13,.29,.2,.39,.56,.68,.92,.81,.36,.13,.7,.14,1.02,.1,.31-.05,.61-.14,.87-.29-.29-.08-.56-.18-.79-.3-.24-.12-.44-.26-.56-.41-.12-.15-.15-.29-.15-.43,0-.12,.04-.34,.09-.39,.02-.03,.04,0,.04,.02,.02,0,0,.01,.02,.01,.02,0,.04,0,.06-.01,.14-.03,.37-.1,.62-.15,.52-.12,1.13-.28,1.71-.54,.58-.25,1.13-.6,1.61-1.01,.49-.41,.9-.87,1.25-1.41,.34-.53,.61-1.14,.7-1.78,.05-.32,.06-.64,0-.95-.05-.31-.13-.62-.3-.87Z"/>
        <path class="d" d="M100.72,47.63c-.68,.78-1.47,1.39-2.33,1.77-.43,.18-.88,.31-1.34,.35-.46,.05-.97,.07-1.46,.07h-1.51c-.26,0-.52,.01-.79,.04-.28,.03-.57,.06-.89,.25-.16,.09-.32,.25-.4,.43l-.06,.14s-.01,.09-.02,.13c-.01,.09-.02,.18,0,.25,.02,.32,.16,.63,.36,.85,.41,.43,.94,.61,1.46,.67-.45-.24-.87-.56-1.08-.94-.1-.19-.14-.38-.11-.57,0-.05,.02-.09,.03-.12l.02-.05s.02-.02,.03-.03c.03-.05,.07-.06,.13-.09,.29-.09,.83-.07,1.32-.04,.5,.03,1.02,.06,1.54,.05,.53-.01,1.04-.03,1.58-.14,.54-.11,1.08-.29,1.55-.59,.94-.57,1.65-1.44,1.99-2.43Z"/>
        <path class="d" d="M101.76,14.09c.56-.19,1.11-.32,1.62-.32,.26,0,.5,.03,.72,.09,.22,.06,.4,.15,.61,.28,.41,.26,.85,.61,1.31,.95,.47,.34,.97,.68,1.59,.94,.3,.13,.66,.23,1.05,.27,.1,0,.21,0,.31,0,.1,0,.21,0,.31-.04,.11-.02,.21-.05,.32-.08,.1-.04,.2-.09,.3-.14,.1-.05,.18-.11,.25-.16l.22-.18c.13-.13,.27-.26,.37-.41,.23-.29,.37-.62,.48-.96,.09-.35,.13-.71,.07-1.08-.07-.37-.24-.73-.51-1-.29-.25-.64-.37-.97-.39-.16,0-.32,.02-.47,.03-.15,.04-.29,.08-.43,.13l.42,.1c.13,.05,.26,.09,.37,.15,.23,.13,.4,.28,.48,.46,.08,.18,.1,.37,.08,.57-.03,.2-.1,.4-.19,.59-.21,.36-.53,.71-.84,.82-.12,.06-.25,.05-.41,.04-.18-.03-.37-.08-.59-.18-.43-.18-.9-.46-1.38-.74-.49-.28-.99-.59-1.6-.82-.31-.12-.68-.2-1.02-.19-.35,0-.68,.07-.98,.18-.59,.24-1.1,.6-1.47,1.07Z"/>
        <path class="d" d="M101.18,12.58c.3-.49,.5-1.02,.66-1.58,.14-.56,.22-1.15,.15-1.78-.06-.62-.3-1.3-.82-1.82-.5-.5-1.13-.76-1.71-.93-.59-.16-1.16-.24-1.69-.31-.52-.07-1.06-.14-1.36-.29-.15-.08-.19-.12-.27-.31-.07-.21-.08-.42-.05-.64,.06-.44,.4-.88,.85-1.21-.56,.06-1.16,.37-1.48,.98-.16,.3-.23,.65-.22,.98,0,.08,.01,.18,.04,.28,.03,.1,.04,.21,.1,.3,.05,.09,.11,.19,.17,.28,.07,.07,.14,.14,.22,.21,.3,.24,.62,.38,.91,.47,.3,.1,.58,.16,.85,.23,.55,.12,1.07,.21,1.54,.34,.47,.13,.89,.31,1.2,.56,.29,.24,.51,.62,.65,1.08,.27,.93,.28,2.03,.25,3.16Z"/>
        <path class="d" d="M100.26,12.58c.03-1.16-.59-2.3-1.42-3.14-.42-.42-.9-.79-1.42-1.09-.51-.29-1.05-.55-1.64-.72-.59-.17-1.25-.23-1.87-.16-.31,.04-.61,.1-.85,.16-.25,.05-.42,.08-.57,.05-.32-.06-.68-.35-.79-.77-.13-.41,.06-.92,.51-1.29-.28,.05-.56,.19-.78,.42-.22,.23-.36,.56-.38,.91-.03,.69,.37,1.42,1.1,1.73,.38,.16,.78,.14,1.07,.12,.3-.02,.55-.06,.79-.06,.48-.01,.94,.04,1.41,.18,.47,.13,.95,.33,1.41,.55,.47,.22,.9,.48,1.33,.76,.42,.29,.82,.62,1.17,1.01,.36,.38,.68,.82,.94,1.33Z"/>
        <path class="d" d="M99.77,46.82c-.96,.22-1.83,.03-2.6-.31-.79-.34-1.42-.85-2.13-1.46-.37-.3-.77-.66-1.38-.87-.29-.11-.63-.15-.94-.12-.16,.02-.31,.03-.45,.08-.14,.03-.28,.09-.42,.15-.28,.12-.55,.33-.74,.6-.2,.27-.27,.59-.28,.88,0,.58,.22,1.06,.54,1.44-.03-.49-.03-.97,.13-1.33,.15-.37,.39-.51,.73-.57,.08-.02,.17-.03,.26-.03,.09-.01,.18,0,.26,0,.16,.02,.3,.05,.45,.12,.28,.13,.61,.41,.97,.71,.36,.3,.77,.62,1.23,.88,.46,.26,.96,.45,1.47,.56,.52,.1,1.06,.12,1.58,0,.51-.13,1-.34,1.33-.72Z"/>
        <path class="d" d="M91.37,42.7c.18-.38,.28-.79,.28-1.23,0-.44-.11-.9-.38-1.3-.28-.4-.7-.67-1.13-.84-.44-.18-.93-.24-1.42-.18-.99,.1-1.88,.82-2.3,1.71-.22,.45-.32,.94-.35,1.42,0,.52,.04,.86,.05,1.26,.02,.78,0,1.55-.15,2.27-.14,.72-.44,1.37-.93,1.8-.24,.23-.56,.35-.9,.48-.41,.13-.81,.26-1.2,.44-.76,.37-1.52,.85-1.95,1.57,.64-.52,1.4-.79,2.16-.98,.38-.1,.77-.16,1.16-.21,.45-.08,.92-.21,1.32-.5,.4-.27,.75-.64,.99-1.05,.23-.41,.42-.84,.53-1.27,.24-.87,.27-1.74,.25-2.59-.02-.42-.06-.88-.07-1.18,0-.33,.07-.66,.19-.95,.22-.61,.74-1.06,1.37-1.23,.31-.08,.65-.07,.99,0,.34,.07,.66,.21,.9,.45,.51,.47,.66,1.32,.58,2.13Z"/>
        <path class="d" d="M66.97,67.09c-.48,0-.98-.12-1.32-.4-.35-.28-.48-.72-.48-1.16,0-.45,.1-.89,.34-1.2,.23-.31,.6-.48,1.01-.5,.81-.04,1.7,.36,2.19,1l.19,.26c.09,.11,.17,.24,.27,.33,.19,.21,.41,.39,.64,.54,.46,.31,.99,.51,1.54,.59,.55,.08,1.14,.04,1.69-.21,.55-.24,1.01-.74,1.2-1.3,.19-.56,.2-1.1,.19-1.61-.02-.51-.09-1-.16-1.48-.12-.95-.28-1.9-.03-2.77,.23-.88,1.02-1.52,1.92-1.89-.23,.07-.47,.12-.71,.2l-.34,.16-.17,.08c-.05,.03-.1,.07-.16,.11l-.31,.23-.26,.29c-.1,.09-.16,.21-.23,.32-.07,.11-.14,.22-.18,.35-.41,.99-.33,2.04-.27,3.01,.03,.49,.06,.96,.07,1.42,0,.45-.05,.91-.2,1.26-.14,.36-.4,.63-.74,.77-.34,.15-.76,.18-1.16,.12-.41-.06-.82-.2-1.17-.43-.17-.12-.33-.24-.47-.39-.08-.07-.12-.15-.19-.23l-.25-.31c-.37-.43-.84-.75-1.35-.95-.51-.2-1.07-.29-1.63-.22-.14,.01-.28,.06-.42,.1-.14,.05-.27,.11-.4,.18-.25,.16-.48,.36-.63,.61-.31,.51-.34,1.08-.29,1.59,.06,.52,.32,1.08,.8,1.34,.46,.27,1,.28,1.47,.18Z"/>
        <path class="d" d="M79.39,63.23h.03l.5-.02-.37-.33c-.29-.27-.42-.55-.41-.87,.03-.64,.65-1.24,.91-1.47,.69,.43,3.94,2.28,6.1-.12,2.13-2.36,.51-5.67,.11-6.4,.32-.26,1.32-.93,2.96-.56l.39,.09-.16-.37s-1.23-2.71-4.46-2.4c-1.4,.13-2.26,.48-2.55,1.04-.23,.44-.02,.83-.01,.85l.36-.2-.18,.1,.18-.1s-.11-.23,.02-.47c.13-.24,.59-.67,2.23-.82,2.27-.21,3.43,1.13,3.85,1.8-1.94-.26-2.98,.81-3.03,.86l-.11,.11,.08,.13s2.21,3.63,.02,6.06c-2.17,2.41-5.55,.07-5.69-.03l-.12-.09-.12,.09s-1.13,.86-1.18,1.86c-.01,.28,.05,.54,.2,.78-.33-.08-.79-.26-1.2-.66-.69-.69-1.02-1.81-.97-3.33h-.41c-.05,1.62,.31,2.84,1.09,3.62,.8,.8,1.75,.84,1.94,.84Z"/>
        <path class="d" d="M53.75,41.13l.23-.33s-2.7-1.91-3.51-2.79c-.79-.87-1.32-3.65,0-5.33,1.14-1.44,.57-3.17,.22-3.94,.81,.22,2.16,.81,2.16,2.3,0,.4-.06,.83-.12,1.25-.17,1.16-.34,2.37,.82,2.97,1.39,.72,2.71,1.58,2.72,1.59l.22-.34s-1.35-.87-2.76-1.6c-.9-.47-.77-1.43-.61-2.55,.06-.43,.13-.88,.13-1.3,0-1.68-1.5-2.54-2.91-2.79l-.44-.08,.23,.38s1.32,2.23,.01,3.88c-1.51,1.91-.84,4.92,0,5.86,.84,.92,3.46,2.77,3.57,2.85Z"/>
        <path class="d" d="M57.12,55.33l.11-.39s-2.07-.6-3.44-1.82c-.96-.86-2.06-.61-3.21-.34-.71,.16-1.44,.33-2.23,.29-1.56-.08-2.87-1.76-3.4-2.54,.75,.13,2.24,.28,3.31-.24,.27-.13,.5-.25,.7-.35,.86-.44,1.25-.64,2.62-.68,1.69-.04,3.89,.73,3.91,.74l.14-.38c-.09-.03-2.3-.81-4.06-.76-1.46,.04-1.93,.28-2.79,.72-.2,.1-.42,.22-.69,.35-1.33,.64-3.49,.12-3.51,.12l-.46-.11,.23,.41c.07,.12,1.74,3.02,3.98,3.13,.85,.04,1.64-.14,2.34-.3,1.15-.26,2.05-.47,2.85,.25,1.44,1.28,3.51,1.89,3.6,1.91Z"/>
        <path class="d" d="M54.33,48.06l.06-.4s-4.06-.65-4.73-2.16c-.32-.73-.32-1.53-.31-2.3,0-.89,0-1.82-.51-2.61-.64-.98-1.69-1.5-2.32-1.74,.78-.26,2.33-.51,3.46,1.07,.54,.75,.81,1.43,1.04,2.04,.47,1.19,.8,2.06,2.93,1.8l-.05-.4c-1.81,.22-2.04-.37-2.5-1.55-.23-.59-.52-1.33-1.09-2.12-1.76-2.44-4.45-.99-4.48-.98l-.46,.26,.52,.12s1.76,.42,2.61,1.73c.45,.69,.44,1.51,.44,2.38,0,.81,0,1.66,.35,2.46,.76,1.71,4.87,2.37,5.04,2.4Z"/>
        <path class="d" d="M25.96,55.52c2.42,0,4.65-.59,6.44-1.06,.25-.07,.49-.13,.73-.19,1.82-.47,4.19-1.82,6.49-3.12,2.25-1.28,4.58-2.61,6.37-3.09,3.48-.94,5.36,1.05,5.44,1.14l.3-.27c-.09-.09-2.12-2.26-5.84-1.25-1.84,.5-4.19,1.84-6.47,3.13-2.27,1.29-4.62,2.63-6.39,3.08-.23,.06-.48,.12-.73,.19-3.61,.95-9.08,2.4-14.19-1.73-2.82-2.27-3.32-4.97-3.24-6.83,.1-2.57,1.43-5.22,3.23-6.45l3.43-1.59,.03-.09s.9-3.03,3.27-5.62c.87-.95,1.82-1.33,2.75-1.09,1.13,.29,1.98,1.44,2.21,2.37,.27,1.11-.7,2.97-1.64,4.77-.51,.97-1.03,1.97-1.34,2.83-.4,1.12-.4,2.11,.02,2.95,.49,.98,1.53,1.72,3.1,2.19,2.57,.78,7.53-.57,12.39-2.02,3.95-1.18,6.71,.49,6.74,.51l.21-.34c-.12-.07-2.94-1.79-7.07-.55-3.55,1.06-9.49,2.83-12.16,2.02-1.45-.44-2.41-1.11-2.85-1.98-.37-.73-.37-1.62,0-2.63,.3-.84,.82-1.83,1.32-2.78,.97-1.87,1.98-3.8,1.67-5.05-.26-1.07-1.21-2.34-2.5-2.67-.75-.19-1.91-.14-3.15,1.21-2.23,2.44-3.17,5.15-3.34,5.69l-3.29,1.53c-1.93,1.31-3.33,4.1-3.44,6.79-.08,1.96,.45,4.79,3.39,7.17,2.72,2.19,5.53,2.86,8.11,2.86Z"/>
        <path class="d" d="M43.13,65.41c3.11,0,4.39-3.1,4.4-3.13l.09-.22-.23-.06s-2.96-.73-4.67-2.23c-1.56-1.36-3.15-3.54-2.49-5.19,.69-1.74-.52-3.64-.58-3.72l-.34,.22s1.15,1.8,.54,3.34c-.74,1.84,.94,4.2,2.6,5.65,1.52,1.33,3.85,2.05,4.6,2.26-.37,.74-1.79,3.13-4.77,2.59-3.99-.72-9.36-2.32-11.75-4.13l-.06-.03c-.06-.02-5.53-1.78-6.05-5.49l-.4,.06c.55,3.86,5.78,5.65,6.3,5.81,2.45,1.83,7.88,3.45,11.89,4.18,.32,.06,.62,.08,.91,.08Z"/>
        <path class="d" d="M29.7,35.26c.1-.02,2.48-.41,3.58-2.17,1.08-1.73,1.21-4.02,1.21-4.12v-.19l-.18-.02c-.15-.02-3.6-.4-6.48,1.65l.24,.33c2.37-1.69,5.23-1.64,6-1.6-.05,.59-.28,2.38-1.13,3.73-1.01,1.6-3.28,1.98-3.3,1.99l.06,.4Z"/>
        <path class="d" d="M21.54,37.38c.03-.08,.23-.79-.82-1.83-.98-.97-2.79-1.2-5.38-.68-.4,.08-.79,.17-1.17,.26-1.99,.46-3.15,.67-3.69-.51-.16-.35-.18-.68-.06-1.02,.41-1.11,2.32-2.11,4.32-3.02,3.03-1.39,9.03-2.94,11.01-2.63,.53,.08,.92,.31,1.18,.67,.5,.71,.32,1.72,.31,1.73l.4,.08s.22-1.19-.38-2.04c-.32-.46-.81-.74-1.45-.84-2.23-.35-8.4,1.36-11.24,2.66-2.4,1.1-4.09,2.07-4.53,3.25-.16,.44-.14,.88,.07,1.33,.71,1.54,2.31,1.16,4.15,.73,.37-.09,.76-.18,1.16-.26,2.45-.49,4.14-.29,5.02,.57,.87,.86,.73,1.41,.72,1.41l.39,.13Z"/>
        <path class="d" d="M46.13,42.89s.28-1.22,1.18-1.07l.74,.12-.57-.48s-3.87-3.12-9.6-.99c-.12-.12-.35-.39-.38-.76-.03-.36,.13-.73,.48-1.11l.1-.11-.08-.13c-.05-.08-1.23-1.96-6.52,.81,.36-.88,1.39-2.69,3.71-2.93,4.26-.44,6.97-1.25,8.3-2.49l.18-.16-.19-.15s-1.84-1.42-2.26-2.35c-.21-.47-.21-.87-.02-1.21,.38-.64,1.53-1.07,3.34-1.24,3.98-.37,6.48-2.27,7.23-5.49l.12-.53-.44,.32s-3.02,2.17-7.53,2.06c-3.47-.08-9.52,.31-10.99,3.86l.38,.16c1.44-3.45,7.9-3.67,10.61-3.61,3.67,.09,6.31-1.24,7.33-1.85-.84,2.73-3.16,4.34-6.74,4.68-1.97,.19-3.2,.67-3.65,1.44-.26,.45-.27,.98,0,1.58,.38,.85,1.69,1.95,2.19,2.36-1.31,1.07-3.97,1.82-7.89,2.22-3.31,.34-4.22,3.68-4.23,3.71l-.12,.46,.41-.23c4.46-2.47,5.97-1.64,6.34-1.31-.35,.42-.51,.86-.47,1.29,.06,.68,.59,1.1,.62,1.11l.09,.07,.11-.04c4.46-1.7,7.71-.14,8.86,.57-.62,.22-.94,.91-1.03,1.34l.4,.09Z"/>
        <path class="d" d="M9.4,45.33c.46,.34,1.01,.57,1.64,.65,.32,.02,.67,0,1.03-.16,.36-.16,.66-.5,.83-.85,.06-.18,.15-.35,.17-.55,.03-.2,.05-.41,.01-.59-.01-.09-.02-.19-.04-.29l-.08-.25c-.05-.18-.12-.32-.18-.46-.26-.57-.55-1.01-.8-1.46-.25-.44-.45-.88-.63-1.33-.15-.45-.29-.92-.36-1.41-.16-.99-.12-2.05-.09-3.19-.66,.93-1.09,2.04-1.17,3.24-.05,.6,.03,1.22,.16,1.81,.16,.59,.4,1.16,.69,1.67,.29,.5,.61,.97,.85,1.37,.06,.1,.12,.2,.16,.29,.02,.05,.04,.09,.07,.13l.04,.12c.04,.08,.03,.15,.05,.22,.03,.07-.01,.16,0,.25-.04,.15-.08,.28-.19,.39-.12,.11-.31,.21-.54,.28-.46,.13-1.02,.14-1.58,.13Z"/>
        <path class="d" d="M10.29,34.7c-1.05,.37-2.04,1.01-2.78,1.95-.74,.94-1.15,2.23-1.07,3.43,.02,.6,.13,1.18,.26,1.71,.13,.53,.29,1.04,.34,1.44,.02,.17,.02,.4-.02,.55-.04,.16-.1,.28-.26,.39-.32,.22-.9,.22-1.44,.16,.21,.19,.45,.34,.73,.46,.28,.11,.6,.18,.96,.12,.36-.06,.73-.32,.93-.64,.05-.08,.1-.16,.14-.24l.09-.25c.07-.16,.08-.34,.12-.52,.06-.68-.05-1.22-.11-1.75-.07-.52-.14-1.02-.15-1.49-.06-.95,.12-1.83,.54-2.71,.41-.88,1.05-1.71,1.73-2.61Z"/>
        <path class="d" d="M0,39.8c0,.32,.08,.64,.21,.95,.13,.31,.32,.61,.64,.86,.32,.25,.79,.35,1.19,.28,.42-.05,.76-.22,1.08-.4,.16-.11,.31-.24,.47-.37,.14-.14,.24-.29,.37-.44,.21-.3,.38-.61,.52-.9,.28-.59,.48-1.17,.71-1.7,.22-.53,.45-1.03,.75-1.46,.13-.24,.32-.41,.47-.63,.08-.1,.19-.18,.28-.27,.1-.09,.18-.2,.3-.27,.84-.67,1.95-1.1,3.15-1.53-1.23-.24-2.59-.17-3.83,.45-1.26,.62-2.15,1.89-2.62,3.07-.25,.6-.43,1.19-.63,1.72-.19,.53-.39,.99-.69,1.28-.09,.07-.18,.17-.28,.23-.09,.05-.19,.13-.28,.16-.18,.08-.36,.12-.58,.06-.44-.12-.88-.6-1.23-1.11Z"/>
        <path class="d" d="M10.29,33.38c-.46-.32-.83-.73-.91-1.15-.11-.41,.02-.81,.22-1.22,.2-.4,.5-.81,.8-1.15,.31-.35,.65-.63,1.05-.86,.4-.24,.85-.43,1.36-.67,.26-.13,.53-.24,.81-.45,.14-.09,.28-.22,.41-.34,.12-.15,.25-.29,.33-.47,.19-.35,.23-.71,.23-1.05,0-.35-.13-.77-.41-1.04-.28-.27-.62-.37-.93-.39-.31-.02-.6,.03-.87,.13,.27,.07,.53,.17,.75,.29,.22,.12,.39,.28,.44,.45,.06,.16,.04,.31,0,.5-.07,.2-.14,.38-.25,.49-.36,.45-1.62,.6-2.68,1.25-.54,.32-1.03,.76-1.4,1.27-.37,.51-.65,1.04-.81,1.67-.08,.31-.12,.64-.09,.99,0,.17,.06,.34,.1,.51,.07,.16,.13,.32,.24,.46,.4,.56,1.02,.81,1.58,.81Z"/>
        <path class="d" d="M54.97,65.68c.31-.11,.59-.27,.85-.48,.26-.22,.5-.49,.65-.88,.15-.39,.09-.9-.11-1.28-.16-.33-.42-.69-.84-.93-.42-.24-.93-.29-1.33-.24-.41,.05-.76,.17-1.09,.3-.66,.27-1.21,.63-1.73,1l-.75,.56-.33,.25c-.11,.08-.23,.15-.34,.23-.46,.3-.93,.55-1.43,.71-.98,.35-2.12,.28-3.28-.29,.33,.56,.84,1.02,1.47,1.32,.63,.3,1.37,.4,2.08,.32,.71-.07,1.38-.32,1.99-.63,.3-.16,.59-.34,.87-.53l.74-.53c.47-.34,.95-.67,1.41-.92,.23-.13,.45-.22,.65-.29,.2-.05,.34-.07,.47-.04,.14,.02,.31,.14,.48,.32,.13,.13,.22,.27,.23,.48,.02,.22-.06,.48-.18,.75-.12,.27-.29,.53-.48,.79Z"/>
        <path class="d" d="M46.02,65.21c-.24,.42-.56,.75-.94,.94-.37,.2-.78,.25-1.19,.23-.82-.05-1.69-.37-2.6-.63-.46-.13-.93-.26-1.44-.32-.26-.03-.53-.05-.82-.01-.29,.03-.63,.13-.89,.38-.13,.12-.23,.27-.29,.42-.07,.16-.08,.27-.12,.41-.04,.28-.05,.57,.05,.86,.1,.28,.3,.5,.53,.64,.23,.14,.47,.21,.72,.22-.42-.24-.73-.61-.73-.98-.01-.18,.04-.36,.11-.54,.1-.2,.17-.33,.27-.38,.19-.12,.59-.1,1.01,0,.42,.09,.86,.22,1.31,.35,.45,.13,.91,.26,1.4,.35,.48,.09,1,.16,1.53,.08,.53-.06,1.07-.27,1.46-.64,.38-.37,.62-.87,.62-1.36Z"/>
        <path class="d" d="M53.65,60.97c.23-.13,.43-.3,.61-.5,.18-.21,.33-.45,.41-.78,.08-.32,0-.74-.23-1.03-.1-.15-.25-.28-.41-.39-.09-.05-.19-.09-.28-.13-.1-.03-.2-.05-.31-.06-.42-.03-.77,.1-1.05,.24-.3,.15-.52,.34-.74,.54-.42,.41-.75,.88-1,1.41-.06,.13-.11,.27-.16,.42-.05,.12-.05,.16-.1,.25-.07,.16-.17,.32-.29,.48-.23,.32-.54,.62-.88,.89-.69,.53-1.51,.93-2.54,1.01,.44,.28,.99,.4,1.54,.4,.55,0,1.1-.14,1.61-.37,.51-.23,.98-.56,1.38-.99,.2-.21,.38-.46,.53-.75,.07-.13,.14-.33,.18-.44,.03-.09,.07-.18,.11-.27,.16-.37,.39-.73,.65-1.03,.25-.31,.57-.54,.73-.59,.08-.03,.15-.03,.28,.05,.11,.07,.19,.15,.23,.33,.08,.36-.09,.86-.28,1.32Z"/>
        <path class="d" d="M50.66,57.59c.18-.19,.32-.41,.43-.65,.11-.25,.18-.53,.17-.84,0-.31-.15-.69-.43-.95-.13-.15-.29-.23-.44-.32-.15-.07-.31-.13-.47-.18-.3-.06-.59-.13-.98-.07-.19,.03-.41,.08-.62,.22-.21,.13-.41,.33-.52,.54-.24,.43-.25,.81-.26,1.13,0,.31,.05,.59,.1,.85,.1,.51,.25,.97,.37,1.4,.06,.21,.11,.41,.15,.58,.02,.09,.03,.15,.03,.22v.34c0,.45,0,.85-.11,1.22-.1,.38-.39,.75-.72,1.15,.5-.05,1.03-.23,1.45-.67,.42-.43,.62-1,.77-1.48l.1-.37c.03-.17,.05-.35,.05-.49,0-.31-.03-.58-.06-.83-.08-.51-.19-.97-.27-1.39-.05-.21-.08-.41-.09-.57-.02-.16,0-.28-.01-.27-.01,0-.04,.02-.05,.02-.02,0,0-.02,.04-.05,.08-.05,.27-.06,.44-.08h.22c.05,.01,.13,0,.17,.03,.11,.02,.22,.09,.3,.24,.19,.3,.25,.8,.26,1.3Z"/>
        <path class="d" d="M141.08,63.49l.44-.3s4.67-3.22,2.65-8.45c-1.12-2.89-2.36-4.32-3.36-5.47-.76-.88-1.37-1.58-1.61-2.63-.25-1.06,.04-2.21,.34-3.43,.38-1.55,.78-3.16,.06-4.66-.89-1.84-3.92-6.26-13.16-8.81,1.97-.01,5.71,.21,8.9,1.86,.72,.37,1.46,.79,2.24,1.23,4.2,2.37,8.97,5.05,13.55,2.41l.37-.21-.4-.15c-.07-.03-7.02-2.73-8.79-4.83-.27-.32-.55-.69-.84-1.07-1.64-2.16-3.88-5.12-9.74-6.05-4.5-.71-6.76-.74-7.8-.67,.9-.59,2.99-1.53,6.84-1.25,2.61,.19,4.68,.74,6.51,1.23,2.1,.56,3.91,1.04,5.81,.76,3.5-.5,6.36-2.6,6.48-2.69l.67-.5-.82,.13s-3.95,.62-7.33-1.31c-3.02-1.72-9.29-5.3-14.83-4-3.32,.78-5.54,2-6.75,2.84,1.25-1.64,3.74-4.55,6.2-5.28,.72-.22,1.67-.42,2.76-.66,4.33-.95,10.26-2.24,10.74-5.88l.04-.34-.32,.12s-3.25,1.23-7.22,1.15c-3.36-.07-7.94,.28-10.66,2.36-1.72,1.31-2.84,2.51-3.36,3.12-.02-.92,.11-2.97,1.49-4.82,.66-.89,1.53-1.46,2.36-2.01,1.54-1.01,2.99-1.95,2.82-4.68l-.03-.55-.33,.44s-2.21,2.91-4.5,3.07c-1.45,.1-4.31,.73-5.82,2.48-.69,.79-1,1.7-.92,2.72,.24,3.29,.08,7.43-1.16,8.28-1.32,.91-2.24,1.74-2.25,1.75l.28,.3s.9-.82,2.2-1.72c1.74-1.19,1.46-6.92,1.33-8.64-.07-.9,.21-1.71,.82-2.42,1.42-1.64,4.15-2.24,5.54-2.34,1.92-.13,3.7-1.94,4.44-2.8-.06,2.08-1.26,2.87-2.65,3.77-.87,.57-1.76,1.15-2.47,2.11-1.94,2.61-1.55,5.5-1.53,5.62l.07,.48,.29-.39s1.26-1.65,3.61-3.44c2.63-2,7.11-2.34,10.41-2.27,3.31,.07,6.1-.75,7.04-1.06-.77,3.11-6.29,4.31-10.36,5.2-1.1,.24-2.05,.45-2.79,.67-3.6,1.07-7.1,6.37-7.25,6.6l-1.01,1.55,1.32-1.29s2.52-2.41,7.7-3.62c5.38-1.26,11.56,2.26,14.54,3.96,2.59,1.47,5.4,1.53,6.77,1.44-1.05,.65-3.2,1.82-5.62,2.17-1.82,.26-3.59-.21-5.65-.75-1.85-.49-3.94-1.04-6.58-1.24-5.67-.42-7.64,1.72-7.72,1.81l-.47,.53,.68-.2s1.75-.46,8.38,.59c5.69,.9,7.88,3.79,9.48,5.9,.29,.39,.57,.76,.85,1.09,1.6,1.89,7.01,4.16,8.55,4.78-4.27,2.17-8.78-.37-12.77-2.61-.78-.44-1.52-.86-2.25-1.24-4.65-2.41-10.43-1.85-10.48-1.85l-1.19,.12,1.16,.28c10.11,2.44,13.31,7.06,14.22,8.93,.66,1.36,.28,2.9-.09,4.38-.3,1.21-.61,2.47-.34,3.62,.27,1.15,.9,1.88,1.7,2.81,.98,1.12,2.19,2.52,3.28,5.35,1.57,4.06-1.01,6.75-2.08,7.65,.19-1.12,.42-3.73-.97-5.66-.64-.89-1.51-1.65-2.43-2.46-1.6-1.41-3.26-2.86-3.67-5.03-.24-1.24-.25-2.38-.26-3.39-.02-1.85-.04-3.45-1.37-4.84-1.86-1.94-7.15-5.48-10.21-5.04l-.17,.02v.17c0,.18-.06,4.36,2.66,6.15,2.7,1.77,5.23,4.09,3.87,7.89-.37-1.01-1.43-3.06-4.04-3.69-.2-.05-.4-.09-.62-.14-3.51-.8-8.8-2.02-9.27-14.72v-.23l-.23,.03c-.09,.01-2.17,.33-3.03,1.77-.44,.73-.48,1.61-.12,2.61,1.17,3.28,1.59,4.99,.31,6.23,.06-.78-.08-2.26-1.53-3.71-2.85-2.82-4.21-5.38-4.16-7.82,.06-3.01,1.78-4.45,1.79-4.46l-.26-.32c-.08,.06-1.88,1.56-1.94,4.77-.05,2.55,1.35,5.21,4.28,8.11,1.89,1.88,1.36,3.78,1.34,3.86l-.17,.57,.48-.35c2.08-1.51,1.44-3.66,.24-7.04-.31-.88-.29-1.64,.09-2.26,.61-1.01,1.98-1.41,2.52-1.53,.53,12.8,6.19,14.09,9.57,14.87,.21,.05,.41,.1,.61,.14,3.23,.79,3.91,3.92,3.91,3.95l.13,.63,.26-.59c1.94-4.42-1.02-7.09-3.81-8.92-2.23-1.46-2.46-4.81-2.48-5.62,2.75-.24,7.6,2.77,9.69,4.94,1.22,1.27,1.23,2.72,1.26,4.56,.01,1.03,.02,2.19,.27,3.47,.44,2.31,2.15,3.81,3.8,5.26,.91,.79,1.76,1.54,2.37,2.39,1.67,2.32,.81,5.83,.8,5.87l-.13,.51Z"/>
        <path class="d" d="M113.43,28.09h.66c6.08-.06,7.96-3.5,8.04-3.64l-.36-.19s-1.73,3.14-7.09,3.4c.61-.56,1.63-1.7,1.83-3.28,.19-1.45-.34-2.91-1.58-4.37l-.22-.26-.12,.32s-1.55,3.9-5.71,5.54c-.16-1.02-1.02-4.71-4.9-5.66l-.1,.39c4.21,1.04,4.62,5.52,4.63,5.56l.02,.27,.25-.09c3.8-1.38,5.57-4.55,6.05-5.55,1.01,1.28,1.44,2.55,1.28,3.8-.27,2.08-2.12,3.38-2.14,3.39l-.54,.38Z"/>
        <path class="d" d="M100.06,29.62c1.68-1.18,2.52-2.49,2.52-3.88-.01-2.34-2.42-4.03-2.52-4.1l-.23,.33s2.34,1.65,2.35,3.77c0,1.25-.78,2.44-2.35,3.54l.23,.33Z"/>
        <path class="d" d="M95.98,31.72c.07-.09,1.71-2.15,1.34-4.56-.22-1.42-1.1-2.65-2.61-3.65l-.23,.34c1.41,.94,2.23,2.07,2.43,3.37,.34,2.23-1.24,4.22-1.25,4.24l.32,.25Z"/>
        <path class="d" d="M91.31,33.63s1.84-2.84-.59-4.68c.26-.67,1.13-3.33-.93-4.45l-.2,.36c2.02,1.11,.74,3.96,.69,4.08l-.07,.15,.14,.1c2.3,1.61,.68,4.11,.61,4.22l.34,.22Z"/>
        <path class="d" d="M83.55,35.15c.05-.01,1.3-.3,1.88-1.4,.37-.71,.37-1.59,0-2.6l5.12-1.94-.14-.38-5.5,2.08,.08,.19c.4,.98,.43,1.81,.09,2.45-.49,.93-1.6,1.19-1.61,1.2l.09,.4Z"/>
        <path class="d" d="M85.36,31.07c.03-.12,.6-3.05-1.21-3.62l-.12,.39c1.47,.47,.94,3.13,.94,3.15l.4,.08Z"/>
        <path class="d" d="M98.8,19.02s.87-3.84-1.85-4.88l-.14,.38c2.39,.91,1.61,4.38,1.6,4.41l.4,.09Z"/>
        <path class="d" d="M90.86,24.18c2.72-2.03,2.05-5.02,1.69-6.1,.81,.29,1.39,.74,1.71,1.35,.57,1.07,.15,2.29,.15,2.3l.38,.14c.02-.06,.48-1.39-.17-2.62-.42-.81-1.22-1.37-2.35-1.68l-.42-.11,.18,.4c.07,.15,1.67,3.7-1.41,6l.24,.33Z"/>
        <path class="d" d="M84.82,27.48s2.96-2.98,.95-5.89l-.33,.23c1.81,2.63-.79,5.26-.9,5.37l.29,.29Z"/>
        <path class="d" d="M79.61,30.02c.03-.15,.8-3.76-.57-5.53-.47-.6-1.13-.92-1.96-.95v.41c.7,.02,1.24,.28,1.64,.79,1.26,1.62,.51,5.16,.5,5.19l.4,.09Z"/>
        <path class="d" d="M81.93,22.77l.15-.38s-2.81-1.18-2.47-3.39l-.4-.06c-.38,2.53,2.69,3.81,2.72,3.82Z"/>
        <path class="d" d="M105.22,43.23l.38-.15c-.03-.07-.7-1.69-2.22-2.2-.95-.31-2-.12-3.13,.56l.21,.35c1.02-.62,1.96-.8,2.79-.53,1.34,.44,1.97,1.95,1.97,1.96Z"/>
        <path class="d" d="M100.73,37.69c.36-.75,.88-1.24,1.55-1.44,1.4-.43,3.01,.5,3.03,.51l.21-.35c-.07-.04-1.78-1.03-3.35-.54-.78,.24-1.38,.8-1.79,1.66l.37,.17Z"/>
        <path class="d" d="M98.13,34.35c.18-1.37,.69-2.29,1.53-2.75,1.55-.85,3.73,.17,3.76,.18l.17-.37c-.1-.05-2.39-1.11-4.12-.17-.96,.52-1.54,1.55-1.74,3.06l.4,.05Z"/>
        <path class="d" d="M92.21,37.38c1.04-2.79,4.94-3.24,4.98-3.25l-.04-.4c-.17,.02-4.19,.48-5.32,3.51l.38,.14Z"/>
        <path class="d" d="M36.64,52.93l-.12-.29c-.78-1.9-.87-3.6-.25-5.04,.63-1.49,1.87-2.35,2.56-2.74-.18,.53-.16,1.05,.05,1.53,.82,1.86,4.26,2.66,4.41,2.69l.24,.05v-.24c.15-3.16,2.61-5.56,2.63-5.58l-.28-.29c-.1,.1-2.47,2.42-2.73,5.61-.78-.21-3.27-.99-3.9-2.4-.23-.53-.18-1.09,.17-1.7l.28-.5-.53,.21c-.09,.04-2.31,.92-3.28,3.2-.63,1.47-.58,3.17,.13,5.06-1.17-.09-5.32-.62-6.57-3.48,.01-.3,.15-2.27,1.75-3.05l-.18-.37c-1.96,.96-1.98,3.36-1.98,3.46l.02,.08c1.53,3.61,7.03,3.78,7.26,3.79h.31Z"/>
        <path class="d" d="M25.79,55.91l-.15-.65c-.74-3.15,3.68-6.01,3.73-6.04l-.22-.34c-.18,.11-4.13,2.67-4,5.8-.76-.93-2.29-3.22-2.49-6.74,.36-.37,2.48-2.38,5.93-2.73l-.04-.4c-3.95,.39-6.16,2.82-6.25,2.92l-.06,.06v.08c.25,4.93,2.94,7.48,3.06,7.59l.49,.45Z"/>
        <path class="d" d="M18.17,52.53c.47-2.45,1.31-4.01,2.41-4.52,.93-.43,1.76,.02,1.76,.03l.2-.35s-1.01-.56-2.14-.04c-1.25,.58-2.14,2.2-2.64,4.82l.4,.08Z"/>
        <path class="d" d="M19.42,48.66l.32-.25c-.11-.14-2.7-3.37-5.11-3.01l.06,.4c2.18-.32,4.71,2.83,4.74,2.87Z"/>
        <path class="d" d="M26.74,41.62l.1-.39c-.17-.04-3.99-1.04-4.33-5.81,.93,.46,3.73,1.62,6.79,.81l-.1-.39c-3.52,.92-6.78-.92-6.81-.94l-.32-.18v.37c.18,5.39,4.62,6.53,4.66,6.55Z"/>
        <path class="d" d="M22.97,47.51l.13-.38s-3.06-1.09-2.69-2.97c0-.04,.32-2.2,4.98-2.99l-.07-.4c-4.99,.85-5.3,3.23-5.31,3.33-.44,2.2,2.82,3.37,2.95,3.42Z"/>
        <path class="d" d="M20.18,44.31l.07-.4-.03,.2,.04-.2s-1.78-.37-2.94-4.37l-.39,.11c1.24,4.27,3.18,4.64,3.26,4.65Z"/>
        <path class="d" d="M17.37,35.05l-.05-.27c-.74-3.64,2.08-5.41,3.2-5.96-1.16,3.49,2.11,5.53,2.15,5.56l.21-.35c-.14-.08-3.29-2.07-1.81-5.51l.19-.44-.45,.16s-4.66,1.78-3.94,6.33c-.75-.17-2.75-.9-2.93-3.76l-.41,.02c.23,3.81,3.53,4.19,3.57,4.19l.27,.03Z"/>
        <path class="d" d="M30.59,61.07c1.83-3.04,2.31-4.93,2.4-5.97,.39,.59,.92,1.01,1.57,1.25,2.28,.84,5.29-.8,5.42-.87l-.2-.36s-2.98,1.62-5.08,.84c-.82-.3-1.41-.94-1.77-1.89l-.38,.14s.57,1.86-2.31,6.64l.35,.21Z"/>
        <path class="d" d="M37.77,64.35c.71,0,3.77-.21,5.73-3.76l-.36-.2c-1.6,2.88-3.94,3.43-4.97,3.53,2.43-2.35,3.12-5.36,3.15-5.49l.11-.5-.43,.29c-2.82,1.95-9.38,3.29-9.44,3.3l.08,.4c.26-.05,6.08-1.24,9.14-3.07-.32,1.02-1.24,3.38-3.28,5.14l-.37,.32,.48,.04s.06,0,.15,0Z"/>
      </g>
    </g>
  </g>
</svg>