<?xml version="1.0" encoding="UTF-8"?>
<svg id="b" xmlns="http://www.w3.org/2000/svg" width="968.83" height="168.16" viewBox="0 0 968.83 168.16">
	<defs>
		<style>
			.d{fill:#fff;}
		</style>
	</defs>
	<g id="c">
		<g>
			<g>
				<path class="d" d="M779.19,123.06c-2.99,0-5.74-1.62-7.16-4.24-.08-.12-.15-.28-.23-.44-.54-1.15-.8-2.31-.8-3.51,0-3.73,2.52-6.99,6.13-7.92,.64-.18,1.34-.27,2.06-.27,1.64,0,3.22,.48,4.58,1.4,1.26,.85,2.25,2.01,2.86,3.36l-.91,.41c-.54-1.18-1.4-2.2-2.51-2.95-1.19-.8-2.58-1.23-4.02-1.23-.63,0-1.24,.08-1.8,.24-3.18,.82-5.39,3.68-5.39,6.95,0,1.06,.23,2.07,.67,3.02,.09,.19,.15,.32,.22,.43,1.27,2.32,3.68,3.75,6.3,3.75,1.57,0,3.07-.51,4.33-1.46l.6,.8c-1.43,1.09-3.14,1.66-4.93,1.66Z" />
				<g>
					<circle class="d" cx="776.16" cy="116.43" r="4.27" />
					<path class="d" d="M776.16,121.21c-2.63,0-4.77-2.14-4.77-4.77s2.14-4.77,4.77-4.77,4.77,2.14,4.77,4.77-2.14,4.77-4.77,4.77Zm0-8.55c-2.08,0-3.77,1.69-3.77,3.77s1.69,3.77,3.77,3.77,3.77-1.69,3.77-3.77-1.69-3.77-3.77-3.77Z" />
				</g>
				<path class="d" d="M790.79,125.96c-4.52,0-8.19-3.67-8.19-8.19s3.67-8.19,8.19-8.19,8.19,3.67,8.19,8.19-3.67,8.19-8.19,8.19Zm0-15.38c-3.96,0-7.19,3.22-7.19,7.19s3.22,7.19,7.19,7.19,7.19-3.22,7.19-7.19-3.23-7.19-7.19-7.19Z" />
				<g>
					<circle class="d" cx="787.76" cy="119.33" r="4.27" />
					<path class="d" d="M787.76,124.11c-2.63,0-4.77-2.14-4.77-4.77s2.14-4.77,4.77-4.77,4.77,2.14,4.77,4.77-2.14,4.77-4.77,4.77Zm0-8.55c-2.08,0-3.77,1.69-3.77,3.77s1.69,3.77,3.77,3.77,3.77-1.69,3.77-3.77-1.69-3.77-3.77-3.77Z" />
				</g>
				<path class="d" d="M819.16,150.52c-1.05,0-1.74-.38-2.18-.79-1.6-1.48-1.43-4.54-.74-6.92,1.15-3.91-2.04-8.61-2.08-8.66l-.33-.47,.51-.26c2.76-1.38,8.3-10.98,8.5-15.67,.07-1.67-.73-3.42-2.24-4.94-2.23-2.24-5.72-3.66-8.67-3.55-2.83,.11-3.66,2.55-4.81,5.93-.81,2.39-1.73,5.09-3.58,7.66-4.08,5.67-9.79,7.26-11.14,7.57-1.75,4.51-8.45,7.77-10.31,8.6,1.14,2.73,.67,4.75-1.41,6.02-.59,.36-1.22,.45-1.86,.27-1.37-.38-2.45-1.93-2.89-2.66-2.16,.78-11.98,3.89-14.96-2.73-2.86-6.35,4.42-11.18,6.41-12.35-.65-1.12-1.15-2.98,.38-4.34,.47-.42,1.03-.59,1.62-.49,1.47,.25,2.79,2.11,3.29,2.91,2.47-.83,2.96-3.1,2.98-3.2l.98,.2c-.03,.13-.67,3.19-4.07,4.07l-.37,.1-.19-.33c-.4-.71-1.68-2.58-2.8-2.76-.29-.05-.54,.03-.79,.25-1.53,1.35,0,3.37,.06,3.46l.37,.48-.53,.28c-.09,.05-9.34,4.9-6.44,11.33,2.9,6.43,13.97,2.1,14.08,2.05l.42-.17,.21,.4c.31,.6,1.37,2.24,2.5,2.55,.37,.1,.73,.05,1.07-.16,1.73-1.06,1.99-2.71,.81-5.21l-.22-.48,.49-.2c.09-.04,8.66-3.62,10.32-8.48l.09-.28,.29-.05c.06-.01,6.48-1.23,10.79-7.23,1.76-2.45,2.66-5.08,3.45-7.4,1.18-3.47,2.2-6.47,5.72-6.61,3.26-.13,6.97,1.38,9.42,3.84,1.71,1.72,2.61,3.74,2.53,5.69-.2,4.8-5.47,14.03-8.58,16.24,.81,1.33,3,5.4,1.93,9.06-.77,2.62-.59,4.94,.46,5.9,.72,.66,1.86,.71,3.38,.13,4.57-1.75,7.21-8.01,6.72-12.54-.3-2.76-1.04-4.81-1.04-4.83l-.19-.51,.52-.15s4.69-1.34,5.42-4.09c.74-2.77-1.91-5.94-1.94-5.97l-.44-.52,.64-.26s4.54-1.89,4.96-4.86c.22-1.57-.75-3.22-2.89-4.92l-.54-.42,.57-.38s3.75-2.55,4.13-5.48c.14-1.1-.2-2.1-1.03-3.05-3.71-4.22-8.71-3.12-8.77-3.11l-1.6,.37,1.12-1.2c.25-.27,6.12-6.66,.42-12.37l.71-.71c5,5,1.97,10.56,.39,12.77,1.88-.1,5.53,.22,8.48,3.58,1.03,1.17,1.45,2.46,1.27,3.84-.35,2.67-2.89,4.91-4.02,5.79,2.09,1.8,3.01,3.62,2.76,5.43-.4,2.84-3.62,4.7-4.98,5.37,.79,1.1,2.43,3.79,1.75,6.36-.73,2.73-4.28,4.18-5.62,4.63,.25,.79,.71,2.48,.93,4.57,.52,4.89-2.37,11.67-7.36,13.58-.88,.34-1.61,.47-2.23,.47Z" />
				<path class="d" d="M798.61,116.86l-.51-.86c.08-.05,8.07-4.85,8.84-8.92,.73-3.9,1.93-6.61,3.63-8.18-2.07,.54-4.67,1.69-5.67,4.12-1.97,4.78-6.53,8.07-8.24,7.53l-.19-.11c-.11-.11-2.77-2.62-2.7-5.89,0-.24,.02-.48,.06-.72-1.3,1.5-2.38,2.89-2.57,3.5-.55,1.78-3.1,3.69-3.21,3.77l-.6-.8c.66-.49,2.47-2.05,2.85-3.27,.38-1.22,3.05-4.23,4.76-6.07,.39-.52,.86-1.02,1.42-1.49l.68,.73c-.41,.42-.86,.89-1.32,1.39-.69,.94-1.06,1.94-1.08,2.98-.06,2.51,1.85,4.6,2.29,5.06,1.15,.13,5.14-2.67,6.91-6.97,2-4.87,9.12-5.2,9.43-5.21l.13,.99c-2.77,.64-4.61,3.53-5.61,8.85-.85,4.51-8.96,9.39-9.31,9.59Z" />
				<path class="d" d="M783.96,109.25l-.67-.3c-2.76-1.22-5.98-1.02-6.01-1.02h-.18l-.15-.1c-3.51-2.6-6.04-2.7-8.48-2.8-.43-.02-.86-.03-1.29-.06-3.18-.23-4.28-4.51-4.33-4.69l-.49-1.96,1.35,1.51c1.33,1.49,4.24,1.2,6.45,.69,2.32-.53,7.02,.92,8.64,1.46-.02-.22-.09-.52-.25-.92-.74-1.8-2.71-3.97-4.72-4.47-3.56-.89-4.03-4.56-4.05-4.71l-.12-1.03,.88,.54c.95,.59,2.17,.78,3.46,.99,2.15,.34,4.59,.74,6.78,2.96,3.53,3.58,3.22,12.78,3.2,13.17l-.03,.73Zm-6.1-2.33c1.02,0,3.1,.11,5.14,.84,0-2.22-.23-8.98-2.93-11.72-1.96-2-4.13-2.34-6.23-2.68-.99-.16-1.95-.31-2.82-.64,.35,.98,1.18,2.42,3.05,2.89,2.4,.6,4.58,3.05,5.4,5.06,.27,.67,.52,1.59,.14,2.22l-.21,.35-.38-.14c-.06-.02-6.15-2.19-8.63-1.62-2.58,.6-4.6,.59-6.02-.01,.52,1.08,1.45,2.39,2.88,2.5,.42,.03,.83,.05,1.26,.06,2.44,.1,5.21,.21,8.89,2.89,.11,0,.27,0,.46,0Z" />
				<path class="d" d="M783.32,138.49c-.12,0-.2,0-.23,0l.03-1c.08,0,7.67,.17,10.61-4.7l.17-.28,.33,.04c.23,.03,5.65,.7,8.9-4.27,.86-1.32,1.65-2.73,2.41-4.1,2.29-4.12,4.46-8.01,7.96-7.43,1.51,.25,2.68,1.29,3.37,2.99,1.13,2.8,.69,6.61-.46,8.15-1.5,2.02-1.33,5.91-1.33,5.95l-1,.05c0-.17-.19-4.29,1.53-6.6,.95-1.27,1.31-4.76,.34-7.18-.56-1.39-1.43-2.19-2.6-2.38-2.8-.47-4.71,2.96-6.92,6.93-.77,1.38-1.56,2.81-2.45,4.16-3.12,4.78-8.21,4.82-9.55,4.74-3.06,4.67-9.75,4.92-11.1,4.92Z" />
				<path class="d" d="M792.44,146.74l.42-1.95c.4-1.89,1.86-2.72,3.88-3.88,1.35-.77,3.03-1.73,4.86-3.3,3.31-2.83,3.6-5.08,3.93-7.68,.1-.79,.2-1.6,.4-2.45,.84-3.71,6.87-10.3,7.13-10.58l.74,.68c-.06,.07-6.11,6.67-6.89,10.12-.18,.81-.28,1.6-.38,2.36-.34,2.69-.67,5.23-4.27,8.31-1.9,1.62-3.63,2.61-5.01,3.41-.19,.11-.37,.21-.55,.32,1.03-.45,2.29-.86,3.81-1.16l.9-.17c4.42-.85,5.48-1.06,6.36-4.96,1.09-4.8,6.89-5.23,6.95-5.23l.06,1c-.21,.01-5.12,.39-6.04,4.45-1.03,4.54-2.7,4.86-7.15,5.72l-.9,.17c-4.94,.97-6.94,3.28-6.96,3.3l-1.29,1.53Z" />
				<path class="d" d="M783.59,102.53l-.97-.25c.07-.28,1.83-6.93,9.09-13.09,6.72-5.7,11-13.64,10.74-17.36-.52-.55-2.32-2.61-2.04-4.78,.16-1.23,.93-2.24,2.31-3.02,1.59-.91,3.21-.84,4.66,.2,2.46,1.76,3.85,5.9,3.4,8.29-.29,1.56-.76,3.2-1.18,4.5,1.41-1.91,3.21-5.07,3.32-8.82-.52-.07-1.31-.3-1.93-1-.83-.93-1.09-2.35-.78-4.24,.44-2.65,2.69-3.67,4.73-3.5,2.4,.2,4.83,1.98,4.83,5.01,0,4.19-3.72,11.26-5.27,14.02,2.87-1.03,10.04-4.07,13.29-9.77-.77-.54-2.4-1.87-2.79-3.69-.24-1.12,.03-2.23,.8-3.3,1.44-1.99,4.96-2.43,7.85-.97,3.14,1.58,4.35,4.63,3.24,8.15-2.95,9.34-8.86,16.56-15.81,19.3-7.5,2.96-12.1,11.05-12.15,11.13l-.87-.49c.19-.34,4.82-8.48,12.65-11.57,6.67-2.63,12.36-9.61,15.22-18.67,.95-3.02-.07-5.62-2.73-6.96-2.47-1.24-5.43-.94-6.59,.67-.6,.84-.81,1.65-.63,2.5,.41,1.93,2.7,3.29,2.73,3.31l.41,.24-.22,.42c-4.14,7.86-14.89,10.94-15.35,11.07l-1.21,.34,.64-1.07c.06-.1,5.78-9.74,5.78-14.65,0-2.42-1.97-3.85-3.92-4.02-1.47-.12-3.3,.51-3.66,2.67-.26,1.58-.08,2.72,.54,3.41,.66,.74,1.66,.7,1.66,.7l.52-.03v.52c.07,6.88-5.1,11.8-5.32,12.01l-1.6,1.5,.8-2.04s1.42-3.67,2.02-6.85c.38-2.05-.92-5.81-3-7.29-1.13-.8-2.33-.85-3.58-.14-1.09,.62-1.69,1.38-1.81,2.28-.25,1.97,1.86,4.05,1.88,4.07l.13,.12,.02,.18c.44,3.98-3.9,12.32-11.08,18.4-7.01,5.94-8.76,12.51-8.77,12.58Z" />
				<path class="d" d="M781.39,98.04c-.07-.32-1.62-7.76,1.32-11.31,.28-.33,.56-.67,.86-1.02,2.71-3.21,6.09-7.2,6.72-12.46,.12-.98,.2-2.02,.29-3.08,.47-5.58,1-11.9,6.1-15.11l1.78-1.12-1.08,1.8s-2.52,4.27-.02,7.89c2.66,3.86,3.98,10.98,3.73,15.63l-1-.06c.25-4.48-1.01-11.32-3.55-15-1.78-2.58-1.4-5.34-.83-7.11-3.29,3.2-3.73,8.45-4.12,13.16-.09,1.08-.18,2.13-.3,3.12-.66,5.55-4.15,9.68-6.95,12.99-.29,.35-.58,.69-.85,1.02-2.64,3.17-1.13,10.39-1.12,10.46l-.98,.21Z" />
				<path class="d" d="M786.09,96c-.14-.16-3.33-4.04-1-8.11,.82-1.43,1.85-2.8,2.85-4.12,1.69-2.23,3.43-4.53,4.18-7.19,.61-2.16,.67-4.56,.72-6.67,.05-2.15,.1-4.01,.66-5.37l.41-.97,.5,.92s2.05,3.82,3.39,5.96c1.47,2.34,1.75,9.13,.04,13.12l-.92-.39c1.54-3.61,1.32-10.13,.04-12.19-.91-1.45-2.13-3.64-2.84-4.94-.2,1.07-.23,2.41-.27,3.89-.05,2.17-.11,4.63-.75,6.91-.8,2.84-2.6,5.22-4.34,7.53-.98,1.3-2,2.64-2.78,4.02-1.97,3.45,.78,6.83,.9,6.97l-.77,.64Z" />
				<path class="d" d="M781.79,76.84c-1.81,0-3.79-.36-5.85-1.31-7.77-3.61-34.39-17.08-42.3-22.91-1.28-.95-2.58-1.85-3.84-2.73-6.56-4.57-12.23-8.51-11.88-15.26,.11-2.02,.79-3.32,2.02-3.88,2.52-1.13,7.2,1.09,14.31,6.78,6.74,5.39,25.3,17.84,30.68,17.45,3.25-.23,10.21,1.77,16.36,3.54,4.88,1.4,9.48,2.73,11.12,2.62l.06,1c-1.82,.12-6.29-1.17-11.46-2.66-6.07-1.75-12.95-3.72-16.02-3.51-.09,0-.19,.01-.29,.01-6.22,0-24.89-12.72-31.08-17.67-6.7-5.36-11.16-7.59-13.27-6.65-.86,.39-1.34,1.4-1.43,3.02-.33,6.19,5.13,9.99,11.45,14.38,1.27,.89,2.57,1.79,3.86,2.74,7.73,5.7,34.62,19.33,42.13,22.81,7.54,3.5,14.05-1.65,14.11-1.7l.63,.78c-.05,.04-3.96,3.14-9.31,3.14Z" />
				<path class="d" d="M792.6,60.38c-.06-.11-6.1-10.62-12.32-12.58-6.31-1.99-19.99-4.47-24.82-4.2-4.31,.24-9.67-1.38-15.51-4.69-1.26-.71-2.56-1.61-3.95-2.56-4.02-2.76-8.57-5.89-12.53-4.57l-.32-.95c4.44-1.49,9.21,1.8,13.42,4.69,1.37,.94,2.66,1.83,3.88,2.52,5.67,3.22,10.84,4.8,14.96,4.56,4.92-.28,18.79,2.23,25.18,4.24,6.59,2.08,12.63,12.6,12.89,13.04l-.87,.49Z" />
				<path class="d" d="M768.12,86.78c-.51,0-1.03-.01-1.55-.04-14.42-.83-25.31-3.81-36.41-9.95-11.27-6.24-27.71-12.91-30.79-12.91-1.98,0-9.48,4.27-14.97,7.39-3.25,1.85-6.05,3.44-7.43,4.03-2.43,1.03-6.48,1.03-9.2-.98-1.43-1.06-3.05-3.11-2.66-6.91,.75-7.22,5.89-12.22,17.19-16.74l1.3-.52c8.94-3.59,15.4-6.19,25.17-2.75,2.64,.93,5.93,2.31,9.41,3.77,9.53,4.01,21.39,9,25.47,6.77l.48,.88c-4.51,2.45-16.11-2.42-26.34-6.73-3.46-1.46-6.74-2.84-9.35-3.75-9.43-3.31-15.74-.78-24.47,2.73l-1.31,.52c-10.91,4.36-15.86,9.12-16.56,15.92-.28,2.67,.48,4.69,2.26,6,2.33,1.73,6.01,1.79,8.21,.86,1.32-.56,4.1-2.14,7.32-3.97,7.49-4.26,13.38-7.52,15.46-7.52,3.52,0,20.48,7.07,31.27,13.04,10.96,6.06,21.72,9,35.99,9.82,13.73,.79,23.01-9.61,23.1-9.72l.75,.66c-.09,.1-8.99,10.1-22.36,10.1Z" />
				<path class="d" d="M718.04,118.3c-.74,0-1.52-.3-2.33-.91-3.88-2.91-7.91-12.63-8.4-17.18-.57-5.36,3.85-18.01,5.54-20.3,1.08-1.46-.69-8.43-2.06-12.48l.95-.32c.38,1.12,3.66,11.03,1.92,13.39-1.58,2.15-5.88,14.55-5.35,19.6,.45,4.29,4.38,13.76,8,16.49,.74,.56,1.42,.79,2.01,.68,1.44-.26,4.03-1.02,5.22-3.29,1.01-1.93,.78-4.51-.68-7.67-4.49-9.69-2.77-17.81,4.72-22.28,8.66-5.17,20.2-1.19,20.69-1.02l-.33,.94c-.11-.04-11.58-3.99-19.84,.94-9.93,5.92-6.33,16.66-4.33,21,1.6,3.45,1.82,6.33,.66,8.55-1.02,1.96-3.13,3.32-5.93,3.81-.15,.03-.31,.04-.46,.04Z" />
				<path class="d" d="M721.29,98.34l-.61-.8c.23-.18,5.82-4.37,15.24-5.5,1.1-.13,2.18-.25,3.24-.36,7.99-.86,14.3-1.54,15.78-7.34l.97,.25c-1.66,6.47-8.6,7.21-16.65,8.08-1.06,.11-2.13,.23-3.23,.36-9.13,1.1-14.7,5.26-14.75,5.3Z" />
				<path class="d" d="M727.34,30.95c.72-2.11,2.23-3.88,4.12-5.19,.96-.64,2.04-1.14,3.19-1.48,1.16-.29,2.38-.47,3.59-.36,1.22,.07,2.27,.32,3.38,.65,1.08,.34,2.12,.82,3.04,1.34,.47,.26,.89,.51,1.28,.74,.38,.2,.66,.35,.92,.41,.26,.09,.65-.1,1.07-.34,.41-.27,.81-.62,1.25-.97-.04,.27-.1,.54-.16,.82-.07,.27-.19,.53-.29,.81-.26,.52-.62,1.13-1.4,1.46-.76,.31-1.53,.25-2.13,.16-.59-.1-1.13-.23-1.62-.35-1-.24-1.91-.48-2.84-.64-.46-.07-.92-.17-1.39-.22-.46-.06-.94-.14-1.35-.14-.86-.1-1.71,0-2.58,.09-.86,.14-1.74,.35-2.63,.64-1.77,.61-3.56,1.49-5.46,2.59Z" />
				<path class="d" d="M699.04,115.06c-1.05-.57-1.94-1.39-2.64-2.48-.33-.56-.63-1.21-.67-2.02-.06-.78,.16-1.74,.7-2.42,.24-.39,.55-.61,.85-.91,.34-.25,.72-.49,1.15-.66,.89-.34,1.92-.31,2.71-.07,1.62,.49,2.57,1.38,3.48,2.17,1.75,1.64,3.05,3.41,4.43,4.83,.68,.7,1.4,1.31,2.22,1.69,.8,.39,1.82,.44,2.88-.13-.19,.57-.63,1.07-1.2,1.43-.57,.36-1.27,.53-1.96,.55-1.39,.02-2.67-.52-3.75-1.16-2.14-1.32-3.7-3.03-5.21-4.42-.72-.68-1.5-1.32-2.01-1.54-.12-.05-.24-.12-.32-.12-.1-.05-.16-.02-.26-.05-.1,0-.21,.06-.34,.08-.1,.08-.32,.13-.38,.21-.25,.13-.36,.31-.49,.63-.13,.31-.12,.76-.08,1.24,.1,.98,.49,2.04,.9,3.14Z" />
				<path class="d" d="M718.41,117.77c.33,1.43,.94,2.58,1.68,3.58,.73,1,1.56,1.86,2.48,2.63,.91,.77,1.89,1.51,2.9,2.13,1,.64,2.01,1.2,3.1,1.66,1.09,.49,2.21,.87,3.55,1.36,.68,.27,1.42,.53,2.31,1.08,.24,.17,.48,.35,.7,.53,.23,.2,.48,.49,.68,.75,.21,.27,.36,.62,.5,.94,.15,.33,.17,.63,.23,.95,.07,.33,.04,.58,.02,.85-.03,.26-.03,.53-.1,.77l-.19,.73c-.08,.24-.21,.49-.33,.72-.49,.95-1.38,1.69-2.26,2-.89,.32-1.73,.35-2.5,.24-.77-.12-1.49-.34-2.14-.71,.71-.21,1.37-.45,1.95-.73,.58-.3,1.08-.64,1.38-1.01,.3-.37,.37-.72,.37-1.05,.02-.3-.11-.83-.23-.97-.06-.07-.1,0-.11,.04-.04,.02-.01,.04-.05,.03-.06,0-.11-.02-.15-.04-.33-.08-.9-.24-1.53-.37-1.29-.29-2.79-.7-4.21-1.32-1.43-.62-2.79-1.48-3.97-2.49-1.2-1-2.22-2.15-3.08-3.47-.85-1.31-1.49-2.81-1.73-4.37-.12-.78-.14-1.57-.02-2.34,.12-.76,.32-1.52,.75-2.14Z" />
				<path class="d" d="M720.99,117.19c1.66,1.91,3.61,3.43,5.74,4.35,1.07,.45,2.17,.76,3.3,.87,1.12,.13,2.38,.17,3.58,.18h3.71c.63,.01,1.29,.04,1.96,.09,.68,.08,1.4,.15,2.2,.6,.38,.22,.8,.61,.98,1.07l.14,.34c.02,.11,.04,.22,.05,.33,.04,.22,.05,.43,.02,.62-.05,.79-.38,1.55-.87,2.09-1.02,1.07-2.32,1.51-3.59,1.64,1.1-.6,2.15-1.37,2.65-2.31,.25-.46,.34-.94,.27-1.41,0-.12-.05-.22-.07-.31l-.04-.13s-.05-.05-.07-.08c-.07-.12-.17-.16-.33-.23-.72-.23-2.05-.18-3.24-.09-1.23,.08-2.51,.14-3.79,.12-1.3-.03-2.55-.08-3.9-.34-1.34-.27-2.66-.71-3.8-1.44-2.31-1.4-4.06-3.55-4.89-5.97Z" />
				<path class="d" d="M718.43,34.66c-1.37-.46-2.72-.78-3.99-.79-.63,0-1.23,.07-1.77,.21-.55,.14-.99,.37-1.49,.69-1.01,.64-2.08,1.5-3.23,2.33-1.16,.83-2.39,1.67-3.9,2.32-.74,.33-1.63,.56-2.58,.67-.25,.01-.51,0-.76,0-.25,0-.51-.02-.77-.09-.26-.06-.52-.12-.78-.19-.25-.11-.49-.23-.73-.35-.25-.12-.45-.26-.63-.4l-.55-.43c-.31-.33-.66-.64-.9-1.02-.56-.71-.91-1.54-1.17-2.37-.21-.86-.31-1.75-.16-2.66,.16-.91,.58-1.8,1.27-2.46,.73-.62,1.58-.91,2.38-.95,.4-.01,.78,.04,1.15,.08,.37,.11,.72,.2,1.06,.32l-1.04,.26c-.32,.13-.64,.23-.92,.37-.56,.31-.98,.7-1.19,1.13-.2,.45-.23,.92-.19,1.41,.06,.5,.26,.99,.48,1.46,.51,.89,1.3,1.74,2.08,2.02,.29,.16,.62,.12,1.02,.11,.43-.08,.92-.19,1.45-.44,1.06-.44,2.2-1.12,3.39-1.81,1.2-.69,2.43-1.45,3.94-2.02,.76-.29,1.67-.5,2.52-.46,.85,0,1.66,.18,2.4,.45,1.46,.59,2.71,1.47,3.61,2.63Z" />
				<path class="d" d="M719.86,30.95c-.75-1.19-1.24-2.51-1.61-3.89-.35-1.38-.53-2.84-.37-4.38,.16-1.51,.73-3.2,2.01-4.48,1.24-1.24,2.79-1.87,4.21-2.29,1.44-.4,2.85-.58,4.16-.75,1.29-.16,2.6-.34,3.34-.71,.38-.19,.48-.31,.66-.76,.16-.52,.2-1.04,.12-1.57-.14-1.08-.99-2.16-2.1-2.98,1.38,.14,2.84,.92,3.65,2.4,.39,.73,.57,1.61,.53,2.42,.02,.19-.03,.44-.09,.7-.07,.25-.1,.51-.25,.73-.13,.23-.27,.47-.42,.68-.17,.18-.35,.35-.54,.52-.74,.59-1.54,.94-2.25,1.16-.73,.26-1.42,.4-2.1,.56-1.35,.29-2.63,.51-3.8,.85-1.16,.32-2.2,.75-2.95,1.38-.72,.58-1.25,1.52-1.59,2.65-.67,2.28-.69,5.01-.61,7.77Z" />
				<path class="d" d="M722.1,30.95c-.08-2.86,1.46-5.65,3.5-7.72,1.04-1.04,2.22-1.94,3.48-2.67,1.26-.72,2.58-1.35,4.05-1.77,1.45-.42,3.07-.58,4.61-.39,.76,.09,1.49,.25,2.1,.39,.62,.13,1.04,.19,1.4,.13,.79-.14,1.68-.87,1.93-1.9,.32-1.02-.15-2.27-1.26-3.17,.69,.13,1.38,.46,1.93,1.04,.55,.57,.88,1.39,.95,2.24,.08,1.7-.91,3.5-2.71,4.25-.94,.4-1.92,.36-2.64,.3-.74-.06-1.35-.14-1.95-.15-1.17-.03-2.3,.11-3.46,.45-1.16,.32-2.33,.82-3.48,1.35-1.15,.53-2.23,1.17-3.27,1.88-1.03,.72-2.02,1.53-2.88,2.49-.89,.95-1.68,2.02-2.3,3.27Z" />
				<path class="d" d="M723.31,115.21c2.37,.53,4.5,.06,6.39-.77,1.94-.85,3.5-2.08,5.25-3.6,.9-.73,1.9-1.62,3.39-2.14,.73-.26,1.55-.37,2.32-.29,.38,.04,.76,.09,1.1,.2,.35,.08,.69,.21,1.04,.38,.68,.29,1.35,.81,1.82,1.46,.49,.66,.67,1.46,.68,2.16-.02,1.42-.55,2.6-1.32,3.55,.08-1.2,.07-2.39-.31-3.28-.37-.9-.96-1.25-1.79-1.41-.2-.05-.41-.08-.65-.08-.23-.03-.43-.02-.63,0-.4,.04-.75,.12-1.1,.3-.7,.32-1.49,1-2.38,1.75-.89,.74-1.89,1.54-3.02,2.17-1.13,.63-2.35,1.11-3.63,1.37-1.28,.26-2.62,.29-3.88,0-1.25-.31-2.46-.84-3.28-1.77Z" />
				<path class="d" d="M743.98,105.08c-.43-.92-.68-1.95-.69-3.03-.01-1.07,.27-2.22,.94-3.2,.68-.98,1.73-1.65,2.79-2.08,1.07-.43,2.29-.59,3.5-.44,2.45,.26,4.63,2.01,5.65,4.22,.53,1.1,.78,2.3,.85,3.49,0,1.27-.11,2.12-.13,3.1-.06,1.91,0,3.82,.37,5.58,.33,1.78,1.07,3.36,2.28,4.43,.6,.57,1.38,.86,2.21,1.18,1,.31,1.99,.65,2.95,1.08,1.86,.91,3.74,2.08,4.8,3.87-1.57-1.29-3.45-1.94-5.32-2.41-.94-.23-1.89-.4-2.85-.52-1.1-.19-2.27-.52-3.26-1.22-.99-.67-1.85-1.56-2.42-2.58-.58-1-1.03-2.07-1.3-3.13-.58-2.14-.67-4.29-.62-6.39,.04-1.02,.16-2.18,.17-2.91-.02-.82-.17-1.61-.46-2.35-.55-1.49-1.82-2.61-3.36-3.02-.77-.21-1.61-.18-2.44-.01-.84,.17-1.63,.52-2.23,1.1-1.25,1.15-1.62,3.25-1.43,5.24Z" />
				<path class="d" d="M804.04,165.1c1.19,0,2.41-.29,3.25-.99,.86-.69,1.19-1.77,1.19-2.85,0-1.11-.24-2.2-.83-2.95-.57-.76-1.47-1.18-2.48-1.22-2-.09-4.18,.89-5.4,2.46l-.48,.65c-.22,.27-.41,.58-.66,.82-.48,.51-1.01,.95-1.58,1.34-1.14,.76-2.43,1.25-3.79,1.46-1.36,.19-2.82,.09-4.17-.53-1.36-.6-2.49-1.83-2.96-3.2-.47-1.39-.5-2.7-.47-3.96,.06-1.26,.23-2.47,.4-3.65,.3-2.34,.7-4.68,.08-6.81-.55-2.15-2.51-3.73-4.72-4.65,.57,.16,1.17,.3,1.75,.49l.84,.39,.42,.2c.13,.08,.26,.18,.38,.27l.77,.56,.65,.71c.24,.23,.38,.51,.56,.79,.17,.28,.36,.55,.45,.86,1.01,2.43,.81,5.03,.67,7.4-.07,1.2-.15,2.37-.16,3.5,.02,1.12,.13,2.23,.48,3.1,.35,.88,.98,1.54,1.82,1.9,.84,.37,1.86,.45,2.86,.29,1.01-.14,2.01-.5,2.87-1.06,.42-.28,.82-.6,1.17-.96,.19-.17,.31-.38,.47-.57l.61-.77c.92-1.06,2.08-1.83,3.33-2.33,1.25-.5,2.63-.72,4.01-.53,.34,.03,.69,.16,1.03,.24,.34,.11,.66,.28,.98,.43,.61,.39,1.18,.88,1.54,1.51,.75,1.25,.84,2.66,.7,3.92-.16,1.27-.8,2.66-1.97,3.3-1.14,.67-2.46,.69-3.62,.45Z" />
				<path class="d" d="M773.47,155.6s-.06,0-.07,0l-1.22-.05,.9-.82c.71-.65,1.04-1.35,1.01-2.14-.07-1.58-1.61-3.06-2.24-3.61-1.7,1.07-9.69,5.6-15.01-.28-5.24-5.81-1.26-13.94-.26-15.75-.79-.65-3.25-2.29-7.29-1.39l-.96,.21,.4-.9c.03-.07,3.03-6.66,10.98-5.91,3.44,.32,5.55,1.19,6.28,2.57,.57,1.09,.05,2.05,.03,2.09l-.87-.49,.44,.24-.44-.24s.28-.55-.04-1.16c-.32-.59-1.46-1.65-5.48-2.03-5.58-.53-8.43,2.79-9.48,4.44,4.78-.64,7.33,1.99,7.44,2.11l.27,.28-.2,.33c-.06,.09-5.45,8.94-.05,14.91,5.35,5.92,13.66,.17,14.01-.07l.3-.21,.29,.22c.11,.09,2.78,2.12,2.9,4.58,.03,.68-.13,1.32-.48,1.91,.82-.19,1.95-.63,2.95-1.63,1.7-1.71,2.5-4.46,2.38-8.18l1-.03c.13,4.02-.77,7.03-2.69,8.94-1.97,1.96-4.32,2.06-4.77,2.06Z" />
				<path class="d" d="M836.57,101.21l-.58-.82c.07-.05,6.65-4.69,8.63-6.87,1.95-2.14,3.25-8.99-.02-13.12-2.8-3.54-1.4-7.81-.54-9.7-1.98,.54-5.3,1.99-5.3,5.66,0,.98,.15,2.04,.3,3.07,.41,2.86,.83,5.82-2.02,7.31-3.43,1.78-6.67,3.88-6.7,3.9l-.54-.84s3.31-2.14,6.79-3.95c2.22-1.15,1.89-3.53,1.49-6.28-.15-1.06-.31-2.16-.31-3.21,0-4.13,3.69-6.26,7.15-6.87l1.08-.19-.57,.94c-.03,.05-3.25,5.5-.04,9.55,3.72,4.69,2.08,12.1-.02,14.41-2.06,2.26-8.52,6.82-8.79,7.01Z" />
				<path class="d" d="M828.28,136.14l-.27-.96c.05-.01,5.1-1.48,8.46-4.49,2.36-2.11,5.06-1.49,7.91-.84,1.74,.4,3.54,.81,5.49,.71,3.83-.19,7.07-4.33,8.37-6.25-1.85,.31-5.52,.68-8.15-.59-.66-.32-1.22-.6-1.72-.86-2.12-1.09-3.08-1.58-6.44-1.67-4.15-.1-9.57,1.8-9.63,1.82l-.33-.94c.23-.08,5.67-1.99,9.99-1.88,3.59,.09,4.76,.69,6.88,1.78,.49,.25,1.04,.54,1.7,.85,3.27,1.57,8.59,.3,8.65,.29l1.12-.27-.57,1.01c-.17,.3-4.28,7.44-9.8,7.71-2.09,.11-4.04-.34-5.76-.74-2.82-.64-5.05-1.15-7.02,.61-3.54,3.16-8.64,4.64-8.85,4.7Z" />
				<path class="d" d="M835.14,118.26l-.15-.99c.1-.02,10-1.6,11.64-5.31,.79-1.79,.78-3.76,.77-5.66-.01-2.2-.02-4.47,1.25-6.42,1.57-2.41,4.15-3.69,5.71-4.27-1.92-.65-5.73-1.26-8.52,2.62-1.33,1.85-1.99,3.53-2.57,5.01-1.15,2.94-1.98,5.06-7.21,4.44l.12-.99c4.46,.53,5.03-.92,6.16-3.81,.57-1.46,1.28-3.28,2.69-5.23,4.33-6.01,10.95-2.44,11.02-2.41l1.14,.63-1.27,.3s-4.33,1.04-6.43,4.26c-1.11,1.69-1.09,3.72-1.08,5.87,.01,2,.02,4.08-.86,6.07-1.87,4.22-11.98,5.83-12.4,5.9Z" />
				<path class="d" d="M904.95,136.61c-5.96,0-11.44-1.45-15.84-2.61-.62-.16-1.22-.32-1.79-.47-4.48-1.15-10.32-4.47-15.96-7.68-5.55-3.16-11.28-6.42-15.68-7.61-8.56-2.31-13.19,2.59-13.38,2.8l-.74-.68c.21-.23,5.21-5.56,14.38-3.09,4.53,1.22,10.32,4.52,15.92,7.7,5.59,3.18,11.37,6.47,15.72,7.58,.57,.15,1.17,.3,1.79,.47,8.89,2.35,22.33,5.89,34.92-4.25,6.93-5.58,8.17-12.23,7.98-16.82-.25-6.32-3.52-12.85-7.95-15.87l-8.44-3.92-.06-.22c-.02-.07-2.22-7.46-8.05-13.82-2.15-2.34-4.49-3.27-6.77-2.69-2.78,.71-4.88,3.54-5.44,5.84-.67,2.72,1.72,7.3,4.04,11.73,1.24,2.38,2.53,4.84,3.3,6.97,1,2.76,.98,5.2-.06,7.26-1.21,2.42-3.78,4.23-7.62,5.39-6.33,1.91-18.54-1.41-30.5-4.97-9.72-2.89-16.51,1.21-16.58,1.26l-.53-.85c.29-.18,7.23-4.39,17.39-1.37,8.73,2.6,23.35,6.96,29.92,4.97,3.57-1.08,5.93-2.72,7.01-4.88,.91-1.8,.91-3.98,0-6.47-.75-2.06-2.02-4.5-3.24-6.85-2.4-4.59-4.88-9.34-4.12-12.43,.65-2.64,2.97-5.75,6.16-6.57,1.86-.48,4.71-.35,7.76,2.98,5.5,6,7.8,12.68,8.21,14l8.1,3.77c4.74,3.23,8.19,10.08,8.46,16.7,.19,4.82-1.1,11.79-8.35,17.64-6.7,5.4-13.6,7.05-19.96,7.05Z" />
				<path class="d" d="M862.7,160.97c-7.65,0-10.8-7.62-10.83-7.71l-.21-.54,.56-.14c.07-.02,7.28-1.81,11.49-5.49,3.84-3.36,7.75-8.72,6.12-12.77-1.71-4.28,1.29-8.95,1.42-9.14l.84,.55s-2.84,4.44-1.32,8.22c1.82,4.54-2.31,10.32-6.4,13.9-3.73,3.26-9.48,5.04-11.33,5.56,.9,1.83,4.41,7.7,11.73,6.37,9.81-1.78,23.04-5.72,28.91-10.15l.15-.08c.14-.04,13.6-4.37,14.9-13.52l.99,.14c-1.35,9.49-14.23,13.89-15.5,14.31-6.04,4.51-19.38,8.49-29.27,10.29-.79,.14-1.53,.21-2.24,.21Z" />
				<path class="d" d="M895.75,86.77c-.25-.04-6.1-1.01-8.82-5.34-2.67-4.25-2.97-9.9-2.98-10.14l-.02-.47,.46-.06c.36-.04,8.85-.99,15.93,4.07l-.58,.81c-5.83-4.16-12.88-4.05-14.76-3.93,.13,1.45,.7,5.85,2.79,9.18,2.47,3.94,8.08,4.88,8.13,4.89l-.16,.99Z" />
				<path class="d" d="M915.82,91.98c-.07-.19-.57-1.94,2.03-4.51,2.41-2.38,6.86-2.95,13.24-1.68,.99,.2,1.95,.42,2.88,.64,4.9,1.14,7.74,1.65,9.08-1.25,.4-.86,.44-1.68,.14-2.51-1.01-2.72-5.7-5.18-10.62-7.43-7.46-3.41-22.22-7.24-27.09-6.47-1.29,.2-2.27,.76-2.9,1.65-1.23,1.74-.78,4.24-.77,4.27l-.98,.19c-.02-.12-.54-2.93,.93-5.03,.79-1.12,1.99-1.82,3.56-2.07,5.48-.87,20.66,3.34,27.66,6.54,5.92,2.71,10.08,5.1,11.15,8,.4,1.07,.34,2.18-.17,3.27-1.75,3.78-5.67,2.86-10.22,1.81-.92-.21-1.87-.44-2.85-.63-6.04-1.2-10.19-.72-12.34,1.41-2.15,2.12-1.78,3.47-1.78,3.48l-.95,.32Z" />
				<path class="d" d="M855.32,105.54c-.03-.12-.69-3-2.9-2.65l-1.81,.29,1.41-1.17c.09-.08,9.52-7.67,23.62-2.44,.3-.3,.85-.97,.93-1.86,.07-.88-.33-1.8-1.19-2.74l-.25-.27,.19-.32c.12-.21,3.03-4.84,16.04,2-.9-2.17-3.41-6.62-9.12-7.21-10.48-1.08-17.16-3.09-20.43-6.12l-.43-.4,.47-.36s4.54-3.49,5.56-5.79c.51-1.15,.53-2.15,.05-2.97-.93-1.58-3.77-2.64-8.21-3.06-9.8-.92-15.95-5.6-17.79-13.52l-.31-1.31,1.09,.8c.07,.05,7.44,5.34,18.54,5.07,8.54-.21,23.42,.76,27.05,9.5l-.92,.38c-3.53-8.49-19.43-9.04-26.11-8.88-9.02,.22-15.54-3.04-18.04-4.54,2.08,6.71,7.78,10.68,16.57,11.5,4.85,.46,7.87,1.65,8.98,3.55,.65,1.11,.65,2.42,0,3.88-.93,2.08-4.15,4.81-5.39,5.8,3.23,2.63,9.76,4.47,19.41,5.47,8.14,.84,10.38,9.05,10.4,9.13l.29,1.13-1.02-.56c-10.98-6.07-14.69-4.03-15.59-3.24,.86,1.04,1.24,2.11,1.15,3.17-.15,1.68-1.46,2.7-1.51,2.74l-.22,.17-.26-.1c-10.97-4.19-18.98-.35-21.8,1.4,1.52,.53,2.3,2.25,2.53,3.3l-.98,.21Z" />
				<path class="d" d="M945.69,111.55c-1.14,.85-2.48,1.4-4.03,1.59-.78,.06-1.65,0-2.52-.39-.89-.4-1.61-1.22-2.04-2.09-.14-.44-.37-.85-.41-1.36-.07-.5-.11-1.01-.03-1.46,.03-.23,.06-.48,.1-.7l.19-.61c.12-.43,.29-.78,.44-1.13,.65-1.39,1.36-2.49,1.97-3.6,.62-1.09,1.11-2.17,1.55-3.27,.38-1.12,.72-2.26,.88-3.48,.39-2.43,.29-5.04,.22-7.86,1.62,2.28,2.68,5.01,2.89,7.97,.13,1.48-.07,2.99-.4,4.46-.4,1.45-.98,2.85-1.69,4.1-.7,1.24-1.49,2.38-2.09,3.37-.15,.25-.3,.5-.39,.71-.05,.11-.1,.22-.16,.33l-.09,.29c-.1,.2-.08,.37-.11,.54-.07,.17,.03,.39,.02,.61,.09,.36,.19,.68,.47,.97,.3,.28,.77,.52,1.33,.69,1.14,.33,2.5,.35,3.9,.33Z" />
				<path class="d" d="M943.51,85.39c2.59,.91,5.02,2.48,6.85,4.81,1.83,2.3,2.82,5.49,2.63,8.45-.05,1.49-.32,2.89-.64,4.21-.31,1.3-.7,2.56-.83,3.55-.04,.42-.06,.98,.06,1.35,.11,.39,.25,.7,.63,.96,.78,.55,2.21,.55,3.55,.4-.51,.48-1.12,.85-1.8,1.13-.68,.27-1.47,.43-2.36,.29-.89-.14-1.79-.78-2.29-1.57-.12-.19-.25-.39-.35-.6l-.23-.6c-.18-.4-.2-.84-.28-1.28-.16-1.67,.11-3.01,.26-4.31,.17-1.29,.36-2.5,.38-3.67,.14-2.35-.3-4.51-1.32-6.68-1.01-2.17-2.59-4.2-4.25-6.43Z" />
				<path class="d" d="M968.83,97.94c-.02,.79-.2,1.57-.51,2.33-.31,.76-.8,1.51-1.58,2.12-.78,.61-1.95,.86-2.94,.7-1.04-.12-1.87-.55-2.66-1-.39-.27-.77-.6-1.15-.92-.33-.34-.6-.71-.9-1.07-.51-.73-.94-1.49-1.27-2.22-.7-1.46-1.19-2.89-1.74-4.17-.55-1.29-1.1-2.53-1.84-3.58-.32-.58-.78-1.01-1.16-1.54-.21-.25-.47-.44-.69-.67-.24-.22-.44-.49-.73-.66-2.07-1.66-4.81-2.72-7.75-3.77,3.03-.6,6.37-.42,9.43,1.11,3.11,1.52,5.28,4.65,6.44,7.56,.62,1.48,1.06,2.92,1.54,4.23,.48,1.31,.97,2.44,1.7,3.16,.23,.17,.45,.41,.68,.57,.23,.13,.46,.33,.68,.4,.45,.21,.9,.31,1.42,.15,1.09-.3,2.16-1.48,3.03-2.74Z" />
				<path class="d" d="M943.51,82.13c1.14-.79,2.03-1.8,2.24-2.84,.26-1-.06-2-.55-2.99-.49-.99-1.23-1.99-1.97-2.83-.76-.85-1.61-1.55-2.59-2.12-.98-.6-2.08-1.06-3.35-1.64-.64-.32-1.3-.6-2-1.11-.34-.21-.69-.55-1.02-.85-.3-.37-.62-.72-.82-1.17-.47-.85-.56-1.76-.57-2.58,.01-.87,.31-1.89,1-2.56,.69-.67,1.53-.92,2.28-.97,.75-.04,1.47,.07,2.13,.31-.67,.18-1.31,.41-1.85,.71-.54,.31-.96,.69-1.08,1.1-.14,.39-.11,.76,.01,1.23,.17,.49,.35,.94,.63,1.21,.89,1.12,3.98,1.47,6.59,3.07,1.32,.78,2.54,1.86,3.44,3.12,.9,1.26,1.61,2.57,1.99,4.11,.2,.76,.3,1.59,.23,2.43-.02,.41-.14,.85-.25,1.25-.17,.4-.32,.8-.58,1.13-.99,1.39-2.51,2-3.9,2Z" />
				<path class="d" d="M833.56,161.63c-.75-.26-1.45-.66-2.1-1.19-.64-.53-1.23-1.22-1.59-2.17-.37-.95-.23-2.21,.27-3.15,.4-.81,1.03-1.7,2.07-2.3,1.04-.6,2.28-.72,3.28-.59,1,.12,1.88,.42,2.69,.74,1.61,.67,2.97,1.54,4.26,2.46l1.84,1.38,.81,.63c.28,.19,.56,.37,.84,.57,1.12,.73,2.29,1.34,3.51,1.76,2.42,.87,5.21,.69,8.07-.71-.8,1.37-2.07,2.51-3.62,3.24-1.55,.75-3.38,.99-5.11,.79-1.75-.18-3.4-.78-4.9-1.54-.74-.39-1.45-.84-2.13-1.31l-1.82-1.31c-1.16-.84-2.34-1.65-3.48-2.26-.56-.31-1.12-.54-1.6-.7-.49-.13-.83-.17-1.16-.1-.33,.06-.76,.34-1.18,.79-.32,.33-.55,.65-.58,1.19-.05,.54,.16,1.19,.45,1.84,.3,.65,.71,1.3,1.17,1.94Z" />
				<path class="d" d="M855.57,160.47c.58,1.04,1.38,1.85,2.3,2.31,.9,.49,1.91,.61,2.92,.57,2.02-.12,4.16-.92,6.39-1.55,1.12-.32,2.28-.63,3.54-.8,.63-.07,1.3-.13,2.02-.04,.71,.07,1.54,.33,2.19,.94,.31,.3,.56,.66,.71,1.03,.18,.38,.21,.67,.3,1.01,.1,.68,.12,1.41-.12,2.1-.25,.69-.75,1.24-1.3,1.57-.56,.34-1.16,.51-1.76,.54,1.02-.59,1.8-1.51,1.81-2.41,.03-.45-.1-.89-.28-1.33-.23-.48-.41-.82-.67-.94-.47-.29-1.46-.24-2.48-.02-1.03,.22-2.11,.54-3.21,.86-1.11,.31-2.25,.63-3.44,.86-1.19,.22-2.46,.39-3.77,.2-1.3-.14-2.62-.66-3.58-1.58-.94-.92-1.52-2.14-1.54-3.34Z" />
				<path class="d" d="M836.8,150.02c-.56-.31-1.06-.73-1.51-1.23-.44-.5-.82-1.12-1.01-1.91-.19-.79,0-1.82,.56-2.54,.24-.37,.61-.69,1.02-.96,.22-.12,.46-.23,.7-.32,.24-.07,.5-.11,.76-.15,1.02-.08,1.88,.23,2.59,.6,.73,.36,1.29,.84,1.83,1.33,1.04,1.01,1.85,2.16,2.45,3.47,.15,.32,.27,.68,.39,1.03,.12,.3,.13,.39,.24,.61,.17,.39,.41,.79,.71,1.18,.58,.79,1.33,1.54,2.17,2.19,1.7,1.3,3.72,2.29,6.26,2.49-1.09,.7-2.44,.97-3.78,.98-1.36-.02-2.71-.35-3.96-.92-1.26-.57-2.41-1.38-3.4-2.45-.5-.53-.93-1.14-1.31-1.84-.18-.32-.35-.81-.45-1.08-.08-.22-.16-.44-.27-.66-.39-.9-.96-1.79-1.59-2.55-.61-.76-1.4-1.33-1.81-1.45-.19-.08-.38-.07-.69,.12-.27,.17-.48,.38-.57,.81-.2,.88,.21,2.11,.69,3.26Z" />
				<path class="d" d="M844.17,141.73c-.44-.46-.78-1.01-1.05-1.61-.27-.61-.44-1.29-.41-2.08,.01-.77,.37-1.71,1.05-2.35,.32-.37,.7-.56,1.09-.8,.37-.17,.77-.33,1.15-.43,.75-.15,1.46-.33,2.42-.17,.47,.08,1,.2,1.53,.54,.52,.32,1.01,.81,1.29,1.34,.6,1.07,.61,2,.64,2.77-.02,.77-.13,1.45-.24,2.09-.26,1.27-.61,2.4-.9,3.44-.16,.51-.27,1.01-.36,1.42-.05,.22-.06,.37-.09,.54v.83c0,1.11,0,2.08,.27,2.99,.25,.93,.96,1.85,1.77,2.82-1.24-.13-2.54-.57-3.58-1.64-1.03-1.07-1.54-2.45-1.88-3.65l-.24-.91c-.08-.41-.12-.85-.12-1.21-.02-.76,.07-1.42,.15-2.05,.19-1.26,.47-2.39,.67-3.43,.11-.51,.19-1,.22-1.4,.05-.39-.01-.68,.03-.65,.03,0,.09,.06,.13,.04,.05,0,0-.06-.09-.11-.2-.12-.67-.16-1.09-.2h-.55c-.13,.03-.32,.02-.43,.07-.26,.06-.53,.21-.75,.59-.46,.74-.61,1.96-.63,3.2Z" />
				<path class="d" d="M621.66,156.24l-1.08-.73c-.12-.08-11.5-7.93-6.52-20.8,2.75-7.12,5.81-10.63,8.26-13.46,1.88-2.17,3.36-3.88,3.97-6.48,.61-2.6-.1-5.44-.84-8.45-.95-3.82-1.93-7.78-.14-11.46,2.19-4.53,9.65-15.4,32.38-21.67-4.84-.03-14.05,.51-21.9,4.58-1.78,.92-3.59,1.94-5.52,3.02-10.35,5.82-22.07,12.42-33.34,5.92l-.91-.52,.98-.38c.17-.07,17.28-6.73,21.64-11.88,.67-.79,1.35-1.69,2.06-2.63,4.03-5.32,9.56-12.61,23.96-14.89,11.06-1.75,16.64-1.82,19.19-1.66-2.21-1.44-7.35-3.76-16.83-3.06-6.42,.47-11.52,1.82-16.02,3.02-5.16,1.37-9.62,2.55-14.3,1.88-8.6-1.23-15.65-6.41-15.95-6.63l-1.65-1.23,2.03,.33c.1,.02,9.73,1.52,18.04-3.22,7.42-4.23,22.87-13.03,36.49-9.84,8.17,1.91,13.62,4.93,16.62,6.98-3.08-4.05-9.21-11.2-15.25-12.99-1.78-.53-4.1-1.04-6.8-1.63-10.65-2.33-25.24-5.51-26.42-14.47l-.11-.83,.79,.3c.08,.03,7.99,3.03,17.77,2.82,8.27-.17,19.54,.7,26.24,5.8,4.23,3.22,6.99,6.18,8.26,7.67,.05-2.27-.28-7.31-3.66-11.86-1.63-2.2-3.76-3.59-5.82-4.94-3.78-2.47-7.35-4.81-6.94-11.51l.08-1.36,.82,1.09c.05,.07,5.45,7.17,11.07,7.56,3.57,.25,10.6,1.81,14.32,6.1,1.69,1.95,2.45,4.2,2.27,6.69-.59,8.09-.2,18.28,2.85,20.37,3.26,2.24,5.5,4.29,5.52,4.31l-.68,.74s-2.22-2.03-5.41-4.23c-4.27-2.94-3.59-17.02-3.28-21.27,.16-2.22-.52-4.22-2.03-5.96-3.51-4.04-10.22-5.52-13.63-5.76-4.73-.33-9.11-4.78-10.92-6.88,.14,5.11,3.11,7.05,6.51,9.28,2.13,1.4,4.34,2.84,6.07,5.18,4.76,6.42,3.81,13.52,3.77,13.82l-.17,1.19-.72-.96s-3.1-4.07-8.89-8.47c-6.47-4.93-17.5-5.77-25.61-5.6-8.14,.16-15.01-1.84-17.32-2.6,1.89,7.64,15.48,10.61,25.49,12.8,2.71,.59,5.05,1.1,6.87,1.64,8.85,2.64,17.47,15.68,17.83,16.23l2.49,3.8-3.26-3.17c-.06-.06-6.2-5.93-18.95-8.92-13.24-3.1-28.46,5.57-35.77,9.73-6.37,3.63-13.3,3.76-16.66,3.55,2.58,1.61,7.88,4.49,13.83,5.34,4.48,.64,8.85-.52,13.9-1.86,4.54-1.2,9.69-2.57,16.2-3.05,13.96-1.03,18.8,4.23,19,4.45l1.17,1.31-1.68-.5s-4.31-1.14-20.61,1.44c-14.01,2.22-19.39,9.32-23.32,14.51-.73,.96-1.41,1.86-2.1,2.67-3.94,4.66-17.24,10.24-21.04,11.77,10.5,5.34,21.6-.91,31.42-6.43,1.93-1.09,3.75-2.11,5.55-3.04,11.43-5.92,25.65-4.56,25.8-4.54l2.92,.3-2.85,.69c-24.87,6-32.75,17.37-34.98,21.98-1.62,3.36-.69,7.13,.21,10.78,.74,2.99,1.5,6.08,.84,8.91-.66,2.84-2.22,4.64-4.19,6.91-2.4,2.77-5.39,6.21-8.08,13.17-3.86,9.98,2.49,16.62,5.11,18.82-.46-2.75-1.03-9.17,2.39-13.93,1.57-2.18,3.71-4.06,5.98-6.06,3.94-3.46,8.02-7.03,9.04-12.37,.58-3.05,.61-5.86,.64-8.35,.05-4.56,.1-8.5,3.37-11.91,4.58-4.77,17.6-13.48,25.13-12.4l.42,.06v.43c.02,.44,.14,10.74-6.55,15.12-6.64,4.36-12.88,10.06-9.52,19.42,.92-2.48,3.53-7.53,9.94-9.09,.48-.12,.99-.23,1.51-.35,8.63-1.98,21.67-4.96,22.81-36.23l.02-.56,.55,.08c.22,.03,5.33,.82,7.45,4.35,1.08,1.79,1.18,3.95,.3,6.42-2.88,8.07-3.91,12.28-.76,15.34-.14-1.92,.19-5.57,3.78-9.12,7.01-6.95,10.36-13.24,10.25-19.23-.14-7.41-4.37-10.95-4.41-10.98l.63-.78c.19,.15,4.63,3.84,4.78,11.74,.12,6.28-3.33,12.81-10.54,19.96-4.65,4.61-3.36,9.31-3.3,9.51l.41,1.4-1.18-.86c-5.11-3.72-3.55-9-.58-17.31,.77-2.17,.7-4.04-.21-5.56-1.49-2.49-4.87-3.47-6.19-3.77-1.32,31.49-15.23,34.67-23.56,36.58-.52,.12-1.02,.23-1.5,.35-7.95,1.94-9.61,9.64-9.63,9.72l-.32,1.54-.63-1.44c-4.77-10.88,2.5-17.45,9.37-21.95,5.48-3.6,6.04-11.85,6.1-13.83-6.78-.59-18.71,6.81-23.83,12.15-3,3.12-3.04,6.7-3.09,11.22-.03,2.53-.06,5.4-.66,8.53-1.08,5.68-5.29,9.37-9.36,12.94-2.23,1.95-4.33,3.8-5.83,5.89-4.1,5.72-1.98,14.35-1.96,14.44l.32,1.27Z" />
				<path class="d" d="M689.7,69.13h-1.63c-14.96-.15-19.59-8.6-19.78-8.96l.88-.47c.04,.08,4.27,7.73,17.45,8.37-1.51-1.38-4-4.19-4.51-8.08-.46-3.56,.85-7.17,3.89-10.74l.55-.64,.3,.78c.04,.1,3.8,9.6,14.05,13.63,.4-2.52,2.5-11.58,12.06-13.93l.24,.97c-10.36,2.55-11.38,13.58-11.39,13.69l-.05,.65-.62-.22c-9.35-3.4-13.71-11.2-14.89-13.67-2.49,3.14-3.55,6.28-3.15,9.35,.67,5.11,5.21,8.31,5.26,8.34l1.34,.93Z" />
				<path class="d" d="M722.6,72.89c-4.13-2.91-6.21-6.12-6.2-9.55,.03-5.75,5.95-9.92,6.2-10.09l.57,.82c-.06,.04-5.75,4.05-5.77,9.28-.01,3.08,1.93,6.01,5.77,8.72l-.58,.82Z" />
				<path class="d" d="M732.65,78.06c-.17-.21-4.2-5.3-3.29-11.22,.54-3.5,2.7-6.52,6.41-8.99l.55,.83c-3.47,2.31-5.48,5.1-5.98,8.3-.85,5.48,3.04,10.4,3.08,10.44l-.78,.63Z" />
				<path class="d" d="M744.13,82.75c-.05-.07-4.52-7,1.44-11.52-.64-1.65-2.77-8.19,2.28-10.96l.48,.88c-4.96,2.72-1.83,9.75-1.7,10.05l.17,.38-.34,.24c-5.66,3.96-1.68,10.12-1.51,10.38l-.83,.55Z" />
				<path class="d" d="M763.23,86.49c-.13-.03-3.21-.74-4.63-3.45-.92-1.75-.92-3.91,0-6.4l-12.59-4.77,.35-.94,13.54,5.13-.19,.47c-.98,2.41-1.06,4.44-.23,6.03,1.2,2.3,3.94,2.94,3.96,2.94l-.22,.98Z" />
				<path class="d" d="M758.76,76.45c-.06-.31-1.49-7.5,2.98-8.92l.3,.95c-3.61,1.15-2.32,7.7-2.31,7.76l-.98,.2Z" />
				<path class="d" d="M725.69,46.81c-.02-.09-2.15-9.46,4.56-12.02l.36,.93c-5.88,2.25-3.96,10.77-3.94,10.85l-.97,.23Z" />
				<path class="d" d="M745.23,59.49c-6.68-4.99-5.04-12.35-4.15-15-2,.71-3.42,1.83-4.21,3.33-1.39,2.64-.37,5.64-.36,5.67l-.94,.33c-.05-.14-1.18-3.42,.41-6.46,1.04-1.99,2.99-3.38,5.79-4.14l1.04-.28-.45,.97c-.17,.37-4.11,9.11,3.47,14.77l-.6,.8Z" />
				<path class="d" d="M760.1,67.62c-.07-.07-7.27-7.32-2.34-14.49l.82,.57c-4.46,6.48,1.94,12.94,2.22,13.22l-.7,.71Z" />
				<path class="d" d="M772.93,73.88c-.08-.38-1.97-9.25,1.41-13.61,1.15-1.48,2.77-2.27,4.83-2.34l.03,1c-1.76,.06-3.09,.7-4.07,1.95-3.1,3.99-1.25,12.69-1.23,12.78l-.98,.21Z" />
				<path class="d" d="M767.21,56.03l-.38-.93c.07-.03,6.91-2.89,6.09-8.34l.99-.15c.94,6.22-6.62,9.38-6.7,9.41Z" />
				<path class="d" d="M709.91,106.37l-.93-.37c.07-.17,1.71-4.16,5.46-5.4,2.33-.77,4.92-.31,7.71,1.39l-.52,.85c-2.52-1.53-4.83-1.97-6.87-1.29-3.31,1.09-4.84,4.79-4.86,4.83Z" />
				<path class="d" d="M720.96,92.75c-.88-1.85-2.16-3.05-3.81-3.55-3.45-1.06-7.41,1.22-7.45,1.25l-.5-.86c.18-.1,4.38-2.52,8.25-1.34,1.92,.59,3.4,1.96,4.41,4.08l-.9,.43Z" />
				<path class="d" d="M727.34,84.53c-.44-3.37-1.7-5.64-3.76-6.77-3.81-2.08-9.19,.41-9.24,.44l-.43-.9c.24-.11,5.88-2.74,10.15-.41,2.36,1.29,3.79,3.81,4.27,7.52l-.99,.13Z" />
				<path class="d" d="M741.93,91.99c-2.55-6.86-12.16-7.97-12.25-7.99l.11-.99c.42,.05,10.32,1.19,13.08,8.63l-.94,.35Z" />
				<path class="d" d="M878.66,130.24l.29-.71c1.93-4.68,2.14-8.85,.63-12.41-1.56-3.66-4.61-5.79-6.31-6.74,.44,1.31,.4,2.57-.13,3.77-2.02,4.58-10.49,6.55-10.85,6.63l-.58,.13-.03-.6c-.35-7.76-6.39-13.68-6.45-13.74l.69-.72c.25,.25,6.09,5.95,6.72,13.8,1.91-.52,8.05-2.43,9.59-5.91,.58-1.31,.44-2.68-.42-4.19l-.7-1.23,1.31,.51c.23,.09,5.68,2.27,8.07,7.87,1.55,3.62,1.44,7.81-.33,12.45,2.89-.23,13.1-1.54,16.16-8.57-.03-.75-.37-5.59-4.31-7.52l.44-.9c4.82,2.36,4.87,8.26,4.87,8.51l-.04,.19c-3.76,8.87-17.29,9.31-17.87,9.33l-.77,.02Z" />
				<path class="d" d="M905.36,137.58l.38-1.6c1.82-7.75-9.06-14.78-9.17-14.85l.54-.84c.44,.28,10.17,6.57,9.84,14.27,1.87-2.29,5.63-7.92,6.12-16.6-.89-.92-6.1-5.87-14.59-6.72l.1-1c9.73,.97,15.15,6.94,15.38,7.19l.14,.15v.21c-.63,12.13-7.24,18.41-7.52,18.67l-1.2,1.12Z" />
				<path class="d" d="M924.11,129.27c-1.16-6.02-3.21-9.87-5.94-11.13-2.3-1.06-4.32,.06-4.34,.07l-.49-.87c.1-.06,2.49-1.38,5.26-.11,3.08,1.42,5.27,5.41,6.51,11.85l-.98,.19Z" />
				<path class="d" d="M921.04,119.74l-.78-.62c.27-.34,6.64-8.3,12.59-7.42l-.15,.99c-5.36-.79-11.59,6.97-11.66,7.05Z" />
				<path class="d" d="M903.02,102.4l-.24-.97c.41-.1,9.83-2.56,10.64-14.3-2.29,1.13-9.17,3.98-16.72,2.01l.25-.97c8.67,2.27,16.68-2.27,16.76-2.32l.78-.45-.03,.9c-.43,13.27-11.34,16.08-11.45,16.11Z" />
				<path class="d" d="M912.31,116.91l-.33-.94c.08-.03,7.54-2.69,6.61-7.31-.01-.09-.8-5.42-12.25-7.36l.17-.99c12.28,2.08,13.04,7.95,13.07,8.2,1.09,5.42-6.93,8.29-7.27,8.4Z" />
				<path class="d" d="M919.17,109.05l-.16-.99,.08,.49-.09-.49s4.38-.92,7.23-10.75l.96,.28c-3.05,10.52-7.82,11.42-8.02,11.45Z" />
				<path class="d" d="M926.08,86.26l.13-.67c1.81-8.95-5.11-13.32-7.87-14.68,2.85,8.58-5.2,13.62-5.28,13.67l-.52-.85c.33-.2,8.11-5.09,4.45-13.56l-.46-1.07,1.1,.41c.12,.04,11.46,4.38,9.7,15.57,1.84-.42,6.78-2.2,7.21-9.26l1,.06c-.57,9.36-8.69,10.31-8.78,10.32l-.68,.07Z" />
				<path class="d" d="M893.55,150.28c-4.49-7.47-5.68-12.14-5.9-14.69-.97,1.46-2.26,2.49-3.87,3.09-5.62,2.08-13.03-1.97-13.34-2.14l.48-.87c.07,.04,7.32,4,12.51,2.08,2.02-.75,3.48-2.31,4.35-4.65l.94,.34s-1.4,4.57,5.68,16.33l-.86,.52Z" />
				<path class="d" d="M875.88,158.35c-1.74,0-9.27-.53-14.11-9.24l.87-.49c3.94,7.09,9.69,8.44,12.23,8.68-5.98-5.77-7.67-13.18-7.75-13.51l-.27-1.24,1.05,.72c6.95,4.8,23.08,8.1,23.24,8.13l-.2,.98c-.64-.13-14.96-3.05-22.49-7.56,.79,2.51,3.06,8.31,8.08,12.64l.9,.78-1.19,.1s-.14,0-.37,0Z" />
			</g>
			<g>
				<path class="d" d="M189.64,123.06c2.99,0,5.74-1.62,7.16-4.24,.08-.12,.15-.28,.23-.44,.54-1.15,.8-2.31,.8-3.51,0-3.73-2.52-6.99-6.13-7.92-.64-.18-1.34-.27-2.06-.27-1.64,0-3.22,.48-4.58,1.4-1.26,.85-2.25,2.01-2.86,3.36l.91,.41c.54-1.18,1.4-2.2,2.51-2.95,1.19-.8,2.58-1.23,4.02-1.23,.63,0,1.24,.08,1.8,.24,3.18,.82,5.39,3.68,5.39,6.95,0,1.06-.23,2.07-.67,3.02-.09,.19-.15,.32-.22,.43-1.27,2.32-3.68,3.75-6.3,3.75-1.57,0-3.07-.51-4.33-1.46l-.6,.8c1.43,1.09,3.14,1.66,4.93,1.66Z" />
				<g>
					<circle class="d" cx="192.67" cy="116.43" r="4.27" />
					<path class="d" d="M187.9,116.43c0-2.63,2.14-4.77,4.77-4.77s4.77,2.14,4.77,4.77-2.14,4.77-4.77,4.77-4.77-2.14-4.77-4.77Zm1,0c0,2.08,1.69,3.77,3.77,3.77s3.77-1.69,3.77-3.77-1.69-3.77-3.77-3.77-3.77,1.69-3.77,3.77Z" />
				</g>
				<path class="d" d="M169.85,117.77c0-4.52,3.67-8.19,8.19-8.19s8.19,3.67,8.19,8.19-3.67,8.19-8.19,8.19-8.19-3.67-8.19-8.19Zm1,0c0,3.96,3.23,7.19,7.19,7.19s7.19-3.22,7.19-7.19-3.22-7.19-7.19-7.19-7.19,3.22-7.19,7.19Z" />
				<g>
					<circle class="d" cx="181.06" cy="119.33" r="4.27" />
					<path class="d" d="M176.29,119.33c0-2.63,2.14-4.77,4.77-4.77s4.77,2.14,4.77,4.77-2.14,4.77-4.77,4.77-4.77-2.14-4.77-4.77Zm1,0c0,2.08,1.69,3.77,3.77,3.77s3.77-1.69,3.77-3.77-1.69-3.77-3.77-3.77-3.77,1.69-3.77,3.77Z" />
				</g>
				<path class="d" d="M149.67,150.52c1.05,0,1.74-.38,2.18-.79,1.6-1.48,1.43-4.54,.74-6.92-1.14-3.91,2.04-8.61,2.08-8.66l.33-.47-.51-.26c-2.76-1.38-8.3-10.98-8.5-15.67-.07-1.67,.73-3.42,2.24-4.94,2.23-2.24,5.72-3.66,8.67-3.55,2.83,.11,3.66,2.55,4.81,5.93,.81,2.39,1.73,5.09,3.58,7.66,4.08,5.67,9.79,7.26,11.14,7.57,1.75,4.51,8.45,7.77,10.31,8.6-1.14,2.73-.67,4.75,1.41,6.02,.59,.36,1.22,.45,1.86,.27,1.37-.38,2.45-1.93,2.89-2.66,2.16,.78,11.98,3.89,14.96-2.73,2.86-6.35-4.42-11.18-6.41-12.35,.65-1.12,1.15-2.98-.38-4.34-.47-.42-1.03-.59-1.62-.49-1.47,.25-2.79,2.11-3.29,2.91-2.47-.83-2.96-3.1-2.98-3.2l-.98,.2c.03,.13,.67,3.19,4.07,4.07l.37,.1,.19-.33c.4-.71,1.68-2.58,2.8-2.76,.29-.05,.54,.03,.79,.25,1.53,1.35,0,3.37-.06,3.46l-.37,.48,.53,.28c.09,.05,9.34,4.9,6.44,11.33-2.9,6.43-13.97,2.1-14.08,2.05l-.42-.17-.21,.4c-.31,.6-1.37,2.24-2.5,2.55-.37,.1-.73,.05-1.07-.16-1.73-1.06-1.99-2.71-.81-5.21l.22-.48-.49-.2c-.09-.04-8.66-3.62-10.32-8.48l-.09-.28-.29-.05c-.06-.01-6.48-1.23-10.79-7.23-1.76-2.45-2.66-5.08-3.45-7.4-1.18-3.47-2.2-6.47-5.72-6.61-3.26-.13-6.97,1.38-9.42,3.84-1.71,1.72-2.61,3.74-2.53,5.69,.2,4.8,5.47,14.03,8.58,16.24-.81,1.33-3,5.4-1.93,9.06,.77,2.62,.59,4.94-.46,5.9-.72,.66-1.86,.71-3.38,.13-4.57-1.75-7.21-8.01-6.72-12.54,.3-2.76,1.04-4.81,1.04-4.83l.19-.51-.52-.15s-4.69-1.34-5.42-4.09c-.74-2.77,1.91-5.94,1.94-5.97l.44-.52-.64-.26s-4.54-1.89-4.96-4.86c-.22-1.57,.75-3.22,2.89-4.92l.54-.42-.57-.38s-3.75-2.55-4.13-5.48c-.14-1.1,.2-2.1,1.03-3.05,3.71-4.22,8.71-3.12,8.77-3.11l1.6,.37-1.12-1.2c-.25-.27-6.12-6.66-.42-12.37l-.71-.71c-5,5-1.97,10.56-.39,12.77-1.88-.1-5.53,.22-8.48,3.58-1.03,1.17-1.45,2.46-1.27,3.84,.35,2.67,2.89,4.91,4.02,5.79-2.09,1.8-3.01,3.62-2.76,5.43,.4,2.84,3.62,4.7,4.98,5.37-.79,1.1-2.43,3.79-1.75,6.36,.73,2.73,4.28,4.18,5.62,4.63-.25,.79-.71,2.48-.93,4.57-.52,4.89,2.37,11.67,7.36,13.58,.88,.34,1.61,.47,2.23,.47Z" />
				<path class="d" d="M170.21,116.86l.51-.86c-.08-.05-8.07-4.85-8.84-8.92-.73-3.9-1.93-6.61-3.63-8.18,2.07,.54,4.67,1.69,5.67,4.12,1.97,4.78,6.53,8.07,8.24,7.53l.19-.11c.11-.11,2.77-2.62,2.7-5.89,0-.24-.02-.48-.06-.72,1.3,1.5,2.38,2.89,2.57,3.5,.55,1.78,3.1,3.69,3.21,3.77l.6-.8c-.66-.49-2.47-2.05-2.85-3.27-.38-1.22-3.05-4.23-4.76-6.07-.39-.52-.86-1.02-1.42-1.49l-.68,.73c.41,.42,.86,.89,1.32,1.39,.69,.94,1.06,1.94,1.08,2.98,.06,2.51-1.85,4.6-2.29,5.06-1.15,.13-5.14-2.67-6.91-6.97-2-4.87-9.12-5.2-9.43-5.21l-.13,.99c2.77,.64,4.61,3.53,5.61,8.85,.85,4.51,8.96,9.39,9.31,9.59Z" />
				<path class="d" d="M184.84,108.52c-.02-.39-.33-9.59,3.2-13.17,2.19-2.23,4.63-2.62,6.78-2.96,1.29-.21,2.51-.4,3.46-.99l.88-.54-.12,1.03c-.02,.16-.49,3.82-4.05,4.71-2.01,.5-3.98,2.67-4.72,4.47-.16,.4-.23,.7-.25,.92,1.62-.54,6.32-1.99,8.64-1.46,2.21,.51,5.12,.8,6.45-.69l1.35-1.51-.49,1.96c-.05,.18-1.14,4.47-4.33,4.69-.43,.03-.85,.05-1.29,.06-2.45,.1-4.97,.2-8.48,2.8l-.15,.11h-.18s-3.25-.21-6.01,1.01l-.67,.3-.03-.73Zm6.59-1.59c3.68-2.68,6.45-2.79,8.89-2.89,.42-.02,.84-.03,1.26-.06,1.44-.1,2.36-1.41,2.88-2.5-1.42,.6-3.44,.61-6.02,.01-2.48-.57-8.57,1.59-8.63,1.62l-.38,.14-.21-.35c-.38-.63-.13-1.55,.14-2.22,.82-2,3-4.46,5.4-5.06,1.87-.47,2.7-1.91,3.05-2.89-.87,.33-1.83,.48-2.82,.64-2.1,.34-4.27,.68-6.23,2.68-2.69,2.73-2.92,9.5-2.93,11.72,2.04-.74,4.11-.84,5.14-.84,.2,0,.35,0,.46,0Z" />
				<path class="d" d="M185.51,138.49c.12,0,.2,0,.23,0l-.03-1c-.08,0-7.67,.17-10.61-4.7l-.17-.28-.33,.04c-.23,.03-5.65,.7-8.9-4.27-.86-1.32-1.65-2.73-2.41-4.1-2.29-4.12-4.46-8.01-7.96-7.43-1.51,.25-2.68,1.29-3.37,2.99-1.13,2.8-.69,6.61,.46,8.15,1.5,2.02,1.33,5.91,1.33,5.95l1,.05c0-.17,.19-4.29-1.53-6.6-.95-1.27-1.31-4.76-.34-7.18,.56-1.39,1.43-2.19,2.6-2.38,2.8-.47,4.71,2.96,6.92,6.93,.77,1.38,1.56,2.81,2.45,4.16,3.12,4.78,8.21,4.82,9.55,4.74,3.06,4.67,9.75,4.92,11.1,4.92Z" />
				<path class="d" d="M176.39,146.74l-.42-1.95c-.4-1.89-1.86-2.72-3.88-3.88-1.35-.77-3.03-1.73-4.86-3.3-3.31-2.83-3.6-5.08-3.93-7.68-.1-.79-.2-1.6-.4-2.45-.84-3.71-6.87-10.3-7.13-10.58l-.74,.68c.06,.07,6.11,6.67,6.89,10.12,.18,.81,.28,1.6,.38,2.36,.34,2.69,.67,5.23,4.27,8.31,1.9,1.62,3.63,2.61,5.01,3.41,.19,.11,.37,.21,.55,.32-1.03-.45-2.29-.86-3.81-1.16l-.9-.17c-4.42-.85-5.48-1.06-6.36-4.96-1.09-4.8-6.89-5.23-6.95-5.23l-.06,1c.21,.01,5.12,.39,6.04,4.45,1.03,4.54,2.7,4.86,7.15,5.72l.9,.17c4.94,.97,6.94,3.28,6.96,3.3l1.29,1.53Z" />
				<path class="d" d="M185.24,102.53l.97-.25c-.07-.28-1.83-6.93-9.09-13.09-6.72-5.7-11-13.64-10.74-17.36,.52-.55,2.32-2.61,2.04-4.78-.16-1.23-.93-2.24-2.31-3.02-1.59-.91-3.21-.84-4.66,.2-2.46,1.76-3.85,5.9-3.4,8.29,.29,1.56,.76,3.2,1.18,4.5-1.41-1.91-3.21-5.07-3.32-8.82,.52-.07,1.31-.3,1.93-1,.83-.93,1.09-2.35,.78-4.24-.44-2.65-2.69-3.67-4.73-3.5-2.4,.2-4.83,1.98-4.83,5.01,0,4.19,3.72,11.26,5.27,14.02-2.87-1.03-10.04-4.07-13.29-9.77,.77-.54,2.4-1.87,2.79-3.69,.24-1.12-.03-2.23-.8-3.3-1.44-1.99-4.96-2.43-7.85-.97-3.14,1.58-4.35,4.63-3.24,8.15,2.95,9.34,8.86,16.56,15.81,19.3,7.5,2.96,12.1,11.05,12.15,11.13l.87-.49c-.19-.34-4.82-8.48-12.65-11.57-6.67-2.63-12.36-9.61-15.22-18.67-.95-3.02,.07-5.62,2.73-6.96,2.47-1.24,5.43-.94,6.59,.67,.6,.84,.81,1.65,.63,2.5-.41,1.93-2.7,3.29-2.73,3.31l-.41,.24,.22,.42c4.14,7.86,14.89,10.94,15.35,11.07l1.21,.34-.64-1.07c-.06-.1-5.78-9.74-5.78-14.65,0-2.42,1.97-3.85,3.92-4.02,1.47-.12,3.3,.51,3.66,2.67,.26,1.58,.08,2.72-.54,3.41-.66,.74-1.66,.7-1.66,.7l-.52-.03v.52c-.07,6.88,5.1,11.8,5.32,12.01l1.6,1.5-.8-2.04s-1.42-3.67-2.02-6.85c-.38-2.05,.92-5.81,3-7.29,1.13-.8,2.33-.85,3.58-.14,1.09,.62,1.69,1.38,1.81,2.28,.25,1.97-1.86,4.05-1.88,4.07l-.13,.12-.02,.18c-.44,3.98,3.9,12.32,11.08,18.4,7.01,5.94,8.76,12.51,8.77,12.58Z" />
				<path class="d" d="M187.43,98.04c.07-.32,1.62-7.76-1.32-11.31-.28-.33-.56-.67-.86-1.02-2.71-3.21-6.09-7.2-6.72-12.46-.12-.98-.2-2.02-.29-3.08-.47-5.58-1-11.9-6.1-15.11l-1.78-1.12,1.08,1.8s2.52,4.27,.02,7.89c-2.66,3.86-3.98,10.98-3.73,15.63l1-.06c-.25-4.48,1.01-11.32,3.55-15,1.78-2.58,1.4-5.34,.83-7.11,3.29,3.2,3.73,8.45,4.12,13.16,.09,1.08,.18,2.13,.3,3.12,.66,5.55,4.15,9.68,6.95,12.99,.29,.35,.58,.69,.85,1.02,2.64,3.17,1.13,10.39,1.12,10.46l.98,.21Z" />
				<path class="d" d="M182.74,96c.14-.16,3.33-4.04,1-8.11-.82-1.43-1.85-2.8-2.85-4.12-1.69-2.23-3.43-4.53-4.18-7.19-.61-2.16-.67-4.56-.72-6.67-.05-2.15-.1-4.01-.66-5.37l-.41-.97-.5,.92s-2.05,3.82-3.39,5.96c-1.47,2.34-1.75,9.13-.04,13.12l.92-.39c-1.54-3.61-1.32-10.13-.04-12.19,.91-1.45,2.13-3.64,2.84-4.94,.2,1.07,.23,2.41,.27,3.89,.05,2.17,.11,4.63,.75,6.91,.8,2.84,2.6,5.22,4.34,7.53,.98,1.3,2,2.64,2.78,4.02,1.97,3.45-.78,6.83-.9,6.97l.77,.64Z" />
				<path class="d" d="M187.03,76.84c1.81,0,3.79-.36,5.85-1.31,7.77-3.61,34.39-17.08,42.3-22.91,1.28-.95,2.58-1.85,3.84-2.73,6.56-4.57,12.23-8.51,11.88-15.26-.11-2.02-.79-3.32-2.02-3.88-2.52-1.13-7.2,1.09-14.31,6.78-6.74,5.39-25.3,17.84-30.68,17.45-3.25-.23-10.21,1.77-16.36,3.54-4.88,1.4-9.48,2.73-11.12,2.62l-.06,1c1.82,.12,6.29-1.17,11.46-2.66,6.07-1.75,12.95-3.72,16.02-3.51,.09,0,.19,.01,.29,.01,6.22,0,24.89-12.72,31.08-17.67,6.7-5.36,11.16-7.59,13.27-6.65,.86,.39,1.34,1.4,1.43,3.02,.33,6.19-5.13,9.99-11.45,14.38-1.27,.89-2.57,1.79-3.86,2.74-7.73,5.7-34.62,19.33-42.13,22.81-7.54,3.5-14.05-1.65-14.11-1.7l-.63,.78c.05,.04,3.96,3.14,9.31,3.14Z" />
				<path class="d" d="M176.23,60.38c.06-.11,6.1-10.62,12.32-12.58,6.31-1.99,19.99-4.47,24.82-4.2,4.31,.24,9.67-1.38,15.51-4.69,1.26-.71,2.56-1.61,3.95-2.56,4.02-2.76,8.57-5.89,12.53-4.57l.32-.95c-4.44-1.49-9.21,1.8-13.42,4.69-1.37,.94-2.66,1.83-3.88,2.52-5.67,3.22-10.84,4.8-14.96,4.56-4.92-.28-18.79,2.23-25.18,4.24-6.59,2.08-12.63,12.6-12.89,13.04l.87,.49Z" />
				<path class="d" d="M200.7,86.78c.51,0,1.03-.01,1.55-.04,14.42-.83,25.31-3.81,36.41-9.95,11.27-6.24,27.71-12.91,30.79-12.91,1.98,0,9.48,4.27,14.97,7.39,3.25,1.85,6.05,3.44,7.43,4.03,2.43,1.03,6.48,1.03,9.2-.98,1.43-1.06,3.05-3.11,2.66-6.91-.75-7.22-5.89-12.22-17.19-16.74l-1.3-.52c-8.94-3.59-15.4-6.19-25.17-2.75-2.64,.93-5.93,2.31-9.41,3.77-9.53,4.01-21.39,9-25.47,6.77l-.48,.88c4.51,2.45,16.11-2.42,26.34-6.73,3.46-1.46,6.74-2.84,9.35-3.75,9.43-3.31,15.74-.78,24.47,2.73l1.31,.52c10.91,4.36,15.86,9.12,16.56,15.92,.28,2.67-.48,4.69-2.26,6-2.33,1.73-6.01,1.79-8.21,.86-1.32-.56-4.1-2.14-7.32-3.97-7.49-4.26-13.38-7.52-15.46-7.52-3.52,0-20.48,7.07-31.27,13.04-10.96,6.06-21.72,9-35.99,9.82-13.73,.79-23.01-9.61-23.1-9.72l-.75,.66c.09,.1,8.99,10.1,22.36,10.1Z" />
				<path class="d" d="M250.79,118.3c.74,0,1.52-.3,2.33-.91,3.88-2.91,7.91-12.63,8.4-17.18,.57-5.36-3.85-18.01-5.54-20.3-1.08-1.46,.69-8.43,2.06-12.48l-.95-.32c-.38,1.12-3.66,11.03-1.92,13.39,1.58,2.15,5.88,14.55,5.35,19.6-.45,4.29-4.38,13.76-8,16.49-.74,.56-1.42,.79-2.01,.68-1.44-.26-4.03-1.02-5.22-3.29-1.01-1.93-.78-4.51,.68-7.67,4.49-9.69,2.77-17.81-4.72-22.28-8.66-5.17-20.2-1.19-20.69-1.02l.33,.94c.11-.04,11.58-3.99,19.84,.94,9.93,5.92,6.33,16.66,4.33,21-1.6,3.45-1.82,6.33-.66,8.55,1.02,1.96,3.13,3.32,5.93,3.81,.15,.03,.31,.04,.46,.04Z" />
				<path class="d" d="M247.53,98.34l.61-.8c-.23-.18-5.82-4.37-15.24-5.5-1.1-.13-2.18-.25-3.24-.36-7.99-.86-14.3-1.54-15.78-7.34l-.97,.25c1.66,6.47,8.6,7.21,16.64,8.08,1.06,.11,2.13,.23,3.23,.36,9.13,1.1,14.7,5.26,14.75,5.3Z" />
				<path class="d" d="M241.48,30.95c-.72-2.11-2.23-3.88-4.12-5.19-.96-.64-2.04-1.14-3.19-1.48-1.16-.29-2.38-.47-3.59-.36-1.22,.07-2.27,.32-3.38,.65-1.08,.34-2.12,.82-3.04,1.34-.47,.26-.89,.51-1.28,.74-.38,.2-.66,.35-.92,.41-.26,.09-.65-.1-1.07-.34-.41-.27-.81-.62-1.25-.97,.04,.27,.1,.54,.16,.82,.07,.27,.19,.53,.29,.81,.26,.52,.62,1.13,1.4,1.46,.76,.31,1.53,.25,2.13,.16,.59-.1,1.13-.23,1.62-.35,1-.24,1.91-.48,2.84-.64,.46-.07,.92-.17,1.39-.22,.46-.06,.94-.14,1.35-.14,.86-.1,1.71,0,2.58,.09,.86,.14,1.74,.35,2.63,.64,1.77,.61,3.56,1.49,5.46,2.59Z" />
				<path class="d" d="M269.79,115.06c1.05-.57,1.94-1.39,2.64-2.48,.33-.56,.63-1.21,.67-2.02,.06-.78-.16-1.74-.7-2.42-.24-.39-.55-.61-.85-.91-.34-.25-.72-.49-1.15-.66-.89-.34-1.92-.31-2.71-.07-1.62,.49-2.57,1.38-3.48,2.17-1.75,1.64-3.05,3.41-4.43,4.83-.68,.7-1.4,1.31-2.22,1.69-.8,.39-1.82,.44-2.88-.13,.19,.57,.63,1.07,1.2,1.43,.57,.36,1.27,.53,1.96,.55,1.4,.02,2.67-.52,3.75-1.16,2.14-1.32,3.7-3.03,5.21-4.42,.72-.68,1.5-1.32,2.01-1.54,.12-.05,.24-.12,.32-.12,.1-.05,.16-.02,.26-.05,.1,0,.21,.06,.34,.08,.1,.08,.32,.13,.38,.21,.25,.13,.36,.31,.49,.63,.13,.31,.12,.76,.08,1.24-.1,.98-.49,2.04-.9,3.14Z" />
				<path class="d" d="M250.41,117.77c-.33,1.43-.94,2.58-1.68,3.58-.73,1-1.56,1.86-2.48,2.63-.91,.77-1.89,1.51-2.9,2.13-1,.64-2.01,1.2-3.1,1.66-1.09,.49-2.21,.87-3.55,1.36-.68,.27-1.42,.53-2.31,1.08-.24,.17-.48,.35-.7,.53-.23,.2-.48,.49-.68,.75-.21,.27-.36,.62-.5,.94-.15,.33-.17,.63-.23,.95-.07,.33-.04,.58-.02,.85,.03,.26,.03,.53,.1,.77l.19,.73c.08,.24,.21,.49,.33,.72,.49,.95,1.38,1.69,2.26,2,.89,.32,1.73,.35,2.5,.24,.77-.12,1.49-.34,2.14-.71-.71-.21-1.37-.45-1.95-.73-.58-.3-1.08-.64-1.38-1.01-.3-.37-.37-.72-.37-1.05-.02-.3,.11-.83,.23-.97,.06-.07,.1,0,.11,.04,.04,.02,.01,.04,.05,.03,.06,0,.11-.02,.15-.04,.33-.08,.9-.24,1.53-.37,1.29-.29,2.79-.7,4.21-1.32,1.43-.62,2.79-1.48,3.97-2.49,1.2-1,2.22-2.15,3.08-3.47,.85-1.31,1.49-2.81,1.73-4.37,.12-.78,.14-1.57,.02-2.34-.12-.76-.32-1.52-.75-2.14Z" />
				<path class="d" d="M247.84,117.19c-1.66,1.91-3.61,3.43-5.74,4.35-1.07,.45-2.17,.76-3.3,.87-1.12,.13-2.38,.17-3.58,.18h-3.71c-.63,.01-1.29,.04-1.96,.09-.68,.08-1.4,.15-2.2,.6-.38,.22-.8,.61-.98,1.07l-.14,.34c-.02,.11-.04,.22-.05,.33-.04,.22-.05,.43-.02,.62,.05,.79,.38,1.55,.87,2.09,1.02,1.07,2.32,1.51,3.59,1.64-1.1-.6-2.15-1.37-2.65-2.31-.25-.46-.34-.94-.27-1.41,0-.12,.05-.22,.07-.31l.04-.13s.05-.05,.07-.08c.07-.12,.17-.16,.33-.23,.72-.23,2.05-.18,3.24-.09,1.23,.08,2.51,.14,3.79,.12,1.3-.03,2.55-.08,3.9-.34,1.34-.27,2.66-.71,3.8-1.44,2.31-1.4,4.06-3.55,4.89-5.97Z" />
				<path class="d" d="M250.4,34.66c1.37-.46,2.72-.78,3.99-.79,.63,0,1.23,.07,1.77,.21,.55,.14,.99,.37,1.49,.69,1.01,.64,2.08,1.5,3.23,2.33,1.16,.83,2.39,1.67,3.9,2.32,.74,.33,1.63,.56,2.58,.67,.25,.01,.51,0,.76,0,.25,0,.51-.02,.77-.09,.26-.06,.52-.12,.78-.19,.25-.11,.49-.23,.73-.35,.25-.12,.45-.26,.63-.4l.55-.43c.31-.33,.66-.64,.9-1.02,.56-.71,.91-1.54,1.17-2.37,.21-.86,.31-1.75,.16-2.66-.16-.91-.58-1.8-1.27-2.46-.73-.62-1.58-.91-2.38-.95-.4-.01-.78,.04-1.15,.08-.37,.11-.72,.2-1.06,.32l1.04,.26c.32,.13,.64,.23,.92,.37,.56,.31,.98,.7,1.19,1.13,.2,.45,.23,.92,.19,1.41-.06,.5-.26,.99-.48,1.46-.51,.89-1.3,1.74-2.08,2.02-.29,.16-.62,.12-1.02,.11-.43-.08-.92-.19-1.45-.44-1.06-.44-2.2-1.12-3.39-1.81-1.2-.69-2.43-1.45-3.94-2.02-.76-.29-1.67-.5-2.52-.46-.85,0-1.66,.18-2.4,.45-1.46,.59-2.71,1.47-3.61,2.63Z" />
				<path class="d" d="M248.97,30.95c.75-1.19,1.24-2.51,1.61-3.89,.35-1.38,.53-2.84,.37-4.38-.16-1.51-.73-3.2-2.01-4.48-1.24-1.24-2.79-1.87-4.21-2.29-1.44-.4-2.85-.58-4.16-.75-1.29-.16-2.6-.34-3.34-.71-.38-.19-.48-.31-.66-.76-.16-.52-.2-1.04-.12-1.57,.14-1.08,.99-2.16,2.1-2.98-1.38,.14-2.84,.92-3.65,2.4-.39,.73-.57,1.61-.53,2.42-.02,.19,.03,.44,.09,.7,.07,.25,.1,.51,.25,.73,.13,.23,.27,.47,.42,.68,.17,.18,.35,.35,.54,.52,.74,.59,1.54,.94,2.25,1.16,.73,.26,1.42,.4,2.1,.56,1.35,.29,2.63,.51,3.8,.85,1.16,.32,2.2,.75,2.95,1.38,.72,.58,1.25,1.52,1.59,2.65,.67,2.28,.69,5.01,.61,7.77Z" />
				<path class="d" d="M246.72,30.95c.08-2.86-1.46-5.65-3.5-7.72-1.04-1.04-2.22-1.94-3.48-2.67-1.26-.72-2.58-1.35-4.05-1.77-1.45-.42-3.07-.58-4.61-.39-.76,.09-1.49,.25-2.1,.39-.62,.13-1.04,.19-1.4,.13-.79-.14-1.68-.87-1.93-1.9-.32-1.02,.15-2.27,1.26-3.17-.69,.13-1.38,.46-1.93,1.04-.55,.57-.88,1.39-.95,2.24-.08,1.7,.91,3.5,2.71,4.25,.94,.4,1.92,.36,2.64,.3,.74-.06,1.35-.14,1.95-.15,1.17-.03,2.3,.11,3.46,.45,1.16,.32,2.33,.82,3.48,1.35,1.15,.53,2.23,1.17,3.27,1.88,1.03,.72,2.02,1.53,2.88,2.49,.89,.95,1.68,2.02,2.3,3.27Z" />
				<path class="d" d="M245.51,115.21c-2.37,.53-4.5,.06-6.39-.77-1.94-.85-3.5-2.08-5.25-3.6-.9-.73-1.9-1.62-3.39-2.14-.73-.26-1.55-.37-2.32-.29-.38,.04-.76,.09-1.1,.2-.35,.08-.69,.21-1.04,.38-.68,.29-1.35,.81-1.82,1.46-.49,.66-.67,1.46-.68,2.16,.02,1.42,.55,2.6,1.32,3.55-.08-1.2-.07-2.39,.31-3.28,.37-.9,.96-1.25,1.79-1.41,.2-.05,.41-.08,.65-.08,.23-.03,.43-.02,.63,0,.4,.04,.75,.12,1.1,.3,.7,.32,1.49,1,2.38,1.75,.89,.74,1.89,1.54,3.02,2.17,1.13,.63,2.35,1.11,3.63,1.37,1.28,.26,2.62,.29,3.88,0,1.25-.31,2.46-.84,3.28-1.77Z" />
				<path class="d" d="M224.84,105.08c.43-.92,.68-1.95,.69-3.03,.01-1.07-.27-2.22-.94-3.2-.68-.98-1.73-1.65-2.79-2.08-1.07-.43-2.29-.59-3.5-.44-2.45,.26-4.63,2.01-5.65,4.22-.53,1.1-.78,2.3-.85,3.49,0,1.27,.11,2.12,.13,3.1,.06,1.91,0,3.82-.37,5.58-.33,1.78-1.07,3.36-2.28,4.43-.6,.57-1.38,.86-2.21,1.18-1,.31-1.99,.65-2.95,1.08-1.86,.91-3.74,2.08-4.8,3.87,1.57-1.29,3.45-1.94,5.32-2.41,.94-.23,1.89-.4,2.85-.52,1.1-.19,2.27-.52,3.26-1.22,.99-.67,1.85-1.56,2.42-2.58,.58-1,1.03-2.07,1.3-3.13,.58-2.14,.67-4.29,.62-6.39-.04-1.02-.16-2.18-.17-2.91,.02-.82,.17-1.61,.46-2.35,.55-1.49,1.82-2.61,3.36-3.02,.77-.21,1.61-.18,2.44-.01,.84,.17,1.63,.52,2.23,1.1,1.25,1.15,1.62,3.25,1.43,5.24Z" />
				<path class="d" d="M164.78,165.1c-1.19,0-2.41-.29-3.25-.99-.86-.69-1.19-1.77-1.19-2.85,0-1.11,.24-2.2,.83-2.95,.57-.76,1.47-1.18,2.48-1.22,2-.09,4.18,.89,5.4,2.46l.48,.65c.22,.27,.41,.58,.66,.82,.48,.51,1.01,.95,1.58,1.34,1.14,.76,2.43,1.25,3.79,1.46,1.36,.19,2.82,.09,4.17-.53,1.36-.6,2.49-1.83,2.96-3.2,.47-1.39,.5-2.7,.47-3.96-.06-1.26-.23-2.47-.4-3.65-.3-2.34-.7-4.68-.08-6.81,.55-2.15,2.51-3.73,4.72-4.65-.57,.16-1.17,.3-1.75,.49l-.84,.39-.42,.2c-.13,.08-.26,.18-.38,.27l-.77,.56-.65,.71c-.24,.23-.38,.51-.56,.79-.17,.28-.36,.55-.45,.86-1.01,2.43-.81,5.03-.67,7.4,.07,1.2,.15,2.37,.16,3.5-.02,1.12-.13,2.23-.48,3.1-.35,.88-.98,1.54-1.82,1.9-.84,.37-1.86,.45-2.86,.29-1.01-.14-2.01-.5-2.87-1.06-.42-.28-.82-.6-1.17-.96-.19-.17-.31-.38-.47-.57l-.61-.77c-.92-1.06-2.08-1.83-3.33-2.33-1.25-.5-2.63-.72-4.01-.53-.34,.03-.69,.16-1.03,.24-.34,.11-.66,.28-.98,.43-.61,.39-1.18,.88-1.54,1.51-.75,1.25-.84,2.66-.7,3.92,.16,1.27,.8,2.66,1.97,3.3,1.14,.67,2.46,.69,3.62,.45Z" />
				<path class="d" d="M195.35,155.6s.07,0,.07,0l1.22-.05-.9-.82c-.71-.65-1.04-1.35-1.01-2.14,.07-1.58,1.61-3.06,2.24-3.61,1.7,1.07,9.69,5.6,15.01-.28,5.24-5.81,1.26-13.94,.26-15.75,.79-.65,3.25-2.29,7.29-1.39l.96,.21-.4-.9c-.03-.07-3.03-6.66-10.98-5.91-3.44,.32-5.55,1.19-6.28,2.57-.57,1.09-.05,2.05-.03,2.09l.87-.49-.44,.24,.44-.24s-.28-.55,.04-1.16c.32-.59,1.46-1.65,5.48-2.03,5.58-.53,8.43,2.79,9.48,4.44-4.78-.64-7.33,1.99-7.44,2.11l-.27,.28,.2,.33c.06,.09,5.45,8.94,.05,14.91-5.35,5.92-13.66,.17-14.01-.07l-.3-.21-.29,.22c-.11,.09-2.78,2.12-2.9,4.58-.03,.68,.13,1.32,.48,1.91-.82-.19-1.95-.63-2.95-1.63-1.7-1.71-2.5-4.46-2.38-8.18l-1-.03c-.13,4.02,.77,7.03,2.69,8.94,1.97,1.96,4.32,2.06,4.77,2.06Z" />
				<path class="d" d="M132.26,101.21l.58-.82c-.07-.05-6.65-4.69-8.63-6.87-1.95-2.14-3.25-8.99,.02-13.12,2.8-3.54,1.4-7.81,.54-9.7,1.98,.54,5.3,1.99,5.3,5.66,0,.98-.15,2.04-.3,3.07-.41,2.86-.83,5.82,2.02,7.31,3.43,1.78,6.67,3.88,6.7,3.9l.54-.84s-3.31-2.14-6.79-3.95c-2.22-1.15-1.89-3.53-1.49-6.28,.15-1.06,.31-2.16,.31-3.21,0-4.13-3.69-6.26-7.15-6.87l-1.08-.19,.57,.94c.03,.05,3.25,5.5,.04,9.55-3.72,4.69-2.08,12.1,.02,14.41,2.06,2.26,8.52,6.82,8.79,7.01Z" />
				<path class="d" d="M140.55,136.14l.27-.96c-.05-.01-5.1-1.48-8.46-4.49-2.36-2.11-5.06-1.49-7.91-.84-1.74,.4-3.54,.81-5.49,.71-3.83-.19-7.07-4.33-8.37-6.25,1.85,.31,5.52,.68,8.15-.59,.66-.32,1.22-.6,1.72-.86,2.12-1.09,3.08-1.58,6.44-1.67,4.15-.1,9.57,1.8,9.63,1.82l.33-.94c-.23-.08-5.67-1.99-9.99-1.88-3.59,.09-4.76,.69-6.88,1.78-.49,.25-1.04,.54-1.7,.85-3.27,1.57-8.59,.3-8.65,.29l-1.12-.27,.57,1.01c.17,.3,4.28,7.44,9.8,7.71,2.09,.11,4.04-.34,5.76-.74,2.82-.64,5.05-1.15,7.02,.61,3.54,3.16,8.64,4.64,8.85,4.7Z" />
				<path class="d" d="M133.69,118.26l.15-.99c-.1-.02-10-1.6-11.64-5.31-.79-1.79-.78-3.76-.77-5.66,.01-2.2,.02-4.47-1.25-6.42-1.57-2.41-4.15-3.69-5.71-4.27,1.92-.65,5.73-1.26,8.52,2.62,1.33,1.85,1.99,3.53,2.57,5.01,1.15,2.94,1.98,5.06,7.21,4.44l-.12-.99c-4.46,.53-5.03-.92-6.16-3.81-.57-1.46-1.28-3.28-2.69-5.23-4.33-6.01-10.95-2.44-11.02-2.41l-1.14,.63,1.27,.3s4.33,1.04,6.43,4.26c1.11,1.69,1.09,3.72,1.08,5.87-.01,2-.02,4.08,.86,6.07,1.87,4.22,11.98,5.83,12.4,5.9Z" />
				<path class="d" d="M63.88,136.61c5.96,0,11.44-1.45,15.84-2.61,.62-.16,1.22-.32,1.79-.47,4.48-1.15,10.32-4.47,15.96-7.68,5.55-3.16,11.28-6.42,15.68-7.61,8.56-2.31,13.19,2.59,13.38,2.8l.74-.68c-.21-.23-5.21-5.56-14.38-3.09-4.53,1.22-10.32,4.52-15.92,7.7-5.59,3.18-11.37,6.47-15.72,7.58-.57,.15-1.17,.3-1.79,.47-8.89,2.35-22.33,5.89-34.92-4.25-6.93-5.58-8.17-12.23-7.98-16.82,.25-6.32,3.52-12.85,7.95-15.87l8.44-3.92,.06-.22c.02-.07,2.22-7.46,8.05-13.82,2.15-2.34,4.49-3.27,6.77-2.69,2.78,.71,4.88,3.54,5.44,5.84,.67,2.72-1.72,7.3-4.04,11.73-1.24,2.38-2.53,4.84-3.3,6.97-1,2.76-.98,5.2,.06,7.26,1.21,2.42,3.78,4.23,7.62,5.39,6.33,1.91,18.54-1.41,30.5-4.97,9.72-2.89,16.51,1.21,16.58,1.26l.53-.85c-.29-.18-7.23-4.39-17.39-1.37-8.73,2.6-23.35,6.96-29.92,4.97-3.57-1.08-5.93-2.72-7.01-4.88-.91-1.8-.91-3.98,0-6.47,.75-2.06,2.02-4.5,3.24-6.85,2.4-4.59,4.88-9.34,4.12-12.43-.65-2.64-2.97-5.75-6.16-6.57-1.86-.48-4.71-.35-7.76,2.98-5.5,6-7.8,12.68-8.21,14l-8.1,3.77c-4.74,3.23-8.19,10.08-8.46,16.7-.19,4.82,1.1,11.79,8.35,17.64,6.7,5.4,13.6,7.05,19.96,7.05Z" />
				<path class="d" d="M106.12,160.97c7.65,0,10.8-7.62,10.83-7.71l.21-.54-.56-.14c-.07-.02-7.28-1.81-11.49-5.49-3.84-3.36-7.75-8.72-6.12-12.77,1.71-4.28-1.29-8.95-1.42-9.14l-.84,.55s2.84,4.44,1.32,8.22c-1.82,4.54,2.31,10.32,6.4,13.9,3.73,3.26,9.48,5.04,11.33,5.56-.9,1.83-4.41,7.7-11.73,6.37-9.81-1.78-23.04-5.72-28.91-10.15l-.15-.08c-.14-.04-13.6-4.37-14.9-13.52l-.99,.14c1.35,9.49,14.23,13.89,15.5,14.31,6.04,4.51,19.38,8.49,29.27,10.29,.79,.14,1.53,.21,2.24,.21Z" />
				<path class="d" d="M73.07,86.77c.25-.04,6.1-1.01,8.82-5.34,2.67-4.25,2.97-9.9,2.98-10.14l.02-.47-.46-.06c-.36-.04-8.85-.99-15.93,4.07l.58,.81c5.83-4.16,12.88-4.05,14.76-3.93-.13,1.45-.7,5.85-2.79,9.18-2.47,3.94-8.08,4.88-8.13,4.89l.16,.99Z" />
				<path class="d" d="M53,91.98c.07-.19,.57-1.94-2.03-4.51-2.41-2.38-6.86-2.95-13.24-1.68-.99,.2-1.95,.42-2.88,.64-4.9,1.14-7.74,1.65-9.08-1.25-.4-.86-.44-1.68-.14-2.51,1.01-2.72,5.7-5.18,10.62-7.43,7.46-3.41,22.22-7.24,27.09-6.47,1.29,.2,2.27,.76,2.9,1.65,1.23,1.74,.78,4.24,.77,4.27l.98,.19c.02-.12,.54-2.93-.93-5.03-.79-1.12-1.99-1.82-3.56-2.07-5.48-.87-20.66,3.34-27.66,6.54-5.92,2.71-10.08,5.1-11.14,8-.4,1.07-.34,2.18,.17,3.27,1.75,3.78,5.67,2.86,10.22,1.81,.92-.21,1.87-.44,2.85-.63,6.04-1.2,10.19-.72,12.34,1.41,2.15,2.12,1.78,3.47,1.78,3.48l.95,.32Z" />
				<path class="d" d="M113.51,105.54c.03-.12,.69-3,2.9-2.65l1.81,.29-1.41-1.17c-.09-.08-9.52-7.67-23.62-2.44-.3-.3-.86-.97-.93-1.86-.07-.88,.33-1.8,1.19-2.74l.25-.27-.19-.32c-.12-.21-3.03-4.84-16.04,2,.9-2.17,3.41-6.62,9.12-7.21,10.48-1.08,17.16-3.09,20.43-6.12l.43-.4-.47-.36s-4.54-3.49-5.56-5.79c-.51-1.15-.53-2.15-.05-2.97,.93-1.58,3.77-2.64,8.21-3.06,9.8-.92,15.95-5.6,17.79-13.52l.31-1.31-1.09,.8c-.07,.05-7.44,5.34-18.54,5.07-8.54-.21-23.42,.76-27.05,9.5l.92,.38c3.53-8.49,19.43-9.04,26.11-8.88,9.02,.22,15.54-3.04,18.04-4.54-2.08,6.71-7.78,10.68-16.57,11.5-4.85,.46-7.87,1.65-8.98,3.55-.65,1.11-.65,2.42,0,3.88,.93,2.08,4.15,4.81,5.39,5.8-3.23,2.63-9.76,4.47-19.41,5.47-8.14,.84-10.38,9.05-10.4,9.13l-.29,1.13,1.02-.56c10.98-6.07,14.69-4.03,15.59-3.24-.86,1.04-1.24,2.11-1.15,3.17,.15,1.68,1.46,2.7,1.51,2.74l.22,.17,.26-.1c10.97-4.19,18.98-.35,21.8,1.4-1.52,.53-2.3,2.25-2.53,3.3l.98,.21Z" />
				<path class="d" d="M23.13,111.55c1.14,.85,2.48,1.4,4.03,1.59,.78,.06,1.65,0,2.52-.39,.89-.4,1.61-1.22,2.04-2.09,.14-.44,.37-.85,.41-1.36,.07-.5,.11-1.01,.03-1.46-.03-.23-.06-.48-.1-.7l-.19-.61c-.12-.43-.29-.78-.44-1.13-.65-1.39-1.36-2.49-1.97-3.6-.62-1.09-1.11-2.17-1.55-3.27-.38-1.12-.72-2.26-.88-3.48-.39-2.43-.29-5.04-.22-7.86-1.62,2.28-2.68,5.01-2.89,7.97-.13,1.48,.07,2.99,.4,4.46,.4,1.45,.98,2.85,1.69,4.1,.7,1.24,1.49,2.38,2.09,3.37,.15,.25,.3,.5,.39,.71,.05,.11,.1,.22,.17,.33l.09,.29c.1,.2,.08,.37,.11,.54,.07,.17-.03,.39-.02,.61-.09,.36-.19,.68-.47,.97-.3,.28-.77,.52-1.33,.69-1.14,.33-2.5,.35-3.9,.33Z" />
				<path class="d" d="M25.31,85.39c-2.59,.91-5.02,2.48-6.85,4.81-1.83,2.3-2.82,5.49-2.63,8.45,.05,1.49,.32,2.89,.64,4.21,.31,1.3,.7,2.56,.83,3.55,.04,.42,.06,.98-.06,1.35-.11,.39-.25,.7-.63,.96-.78,.55-2.21,.55-3.55,.4,.51,.48,1.12,.85,1.8,1.13,.68,.27,1.47,.43,2.36,.29,.89-.14,1.79-.78,2.29-1.57,.12-.19,.25-.39,.35-.6l.23-.6c.18-.4,.2-.84,.28-1.28,.16-1.67-.11-3.01-.26-4.31-.17-1.29-.36-2.5-.38-3.67-.14-2.35,.3-4.51,1.32-6.68,1.01-2.17,2.59-4.2,4.25-6.43Z" />
				<path class="d" d="M0,97.94c.02,.79,.2,1.57,.51,2.33,.31,.76,.8,1.51,1.58,2.12,.78,.61,1.95,.86,2.94,.7,1.04-.12,1.87-.55,2.66-1,.39-.27,.77-.6,1.15-.92,.33-.34,.6-.71,.9-1.07,.51-.73,.94-1.49,1.27-2.22,.7-1.46,1.19-2.89,1.74-4.17,.55-1.29,1.1-2.53,1.84-3.58,.32-.58,.78-1.01,1.16-1.54,.21-.25,.47-.44,.69-.67,.24-.22,.44-.49,.73-.66,2.07-1.66,4.81-2.72,7.75-3.77-3.03-.6-6.37-.42-9.43,1.11-3.11,1.52-5.28,4.65-6.44,7.56-.62,1.48-1.06,2.92-1.54,4.23-.48,1.31-.97,2.44-1.7,3.16-.23,.17-.45,.41-.68,.57-.23,.13-.46,.33-.68,.4-.45,.21-.9,.31-1.42,.15-1.09-.3-2.16-1.48-3.03-2.74Z" />
				<path class="d" d="M25.31,82.13c-1.14-.79-2.03-1.8-2.24-2.84-.26-1,.06-2,.55-2.99,.49-.99,1.23-1.99,1.97-2.83,.76-.85,1.61-1.55,2.59-2.12,.98-.6,2.08-1.06,3.35-1.64,.64-.32,1.3-.6,2-1.11,.34-.21,.69-.55,1.02-.85,.3-.37,.62-.72,.82-1.17,.47-.85,.56-1.76,.57-2.58-.01-.87-.31-1.89-1-2.56-.69-.67-1.53-.92-2.28-.97-.75-.04-1.47,.07-2.13,.31,.67,.18,1.31,.41,1.85,.71,.54,.31,.96,.69,1.08,1.1,.14,.39,.11,.76-.01,1.23-.17,.49-.35,.94-.63,1.21-.89,1.12-3.98,1.47-6.59,3.07-1.32,.78-2.54,1.86-3.44,3.12-.9,1.26-1.61,2.57-1.99,4.11-.2,.76-.3,1.59-.23,2.43,.02,.41,.14,.85,.25,1.25,.17,.4,.32,.8,.58,1.13,.99,1.39,2.51,2,3.9,2Z" />
				<path class="d" d="M135.27,161.63c.75-.26,1.45-.66,2.1-1.19,.64-.53,1.23-1.22,1.59-2.17,.37-.95,.23-2.21-.27-3.15-.4-.81-1.03-1.7-2.07-2.3-1.04-.6-2.28-.72-3.28-.59-1,.12-1.88,.42-2.69,.74-1.61,.67-2.97,1.54-4.26,2.46l-1.84,1.38-.81,.63c-.28,.19-.56,.37-.84,.57-1.12,.73-2.29,1.34-3.51,1.76-2.42,.87-5.21,.69-8.07-.71,.8,1.37,2.07,2.51,3.62,3.24,1.55,.75,3.38,.99,5.11,.79,1.75-.18,3.4-.78,4.9-1.54,.74-.39,1.45-.84,2.13-1.31l1.82-1.31c1.16-.84,2.34-1.65,3.48-2.26,.56-.31,1.12-.54,1.6-.7,.49-.13,.83-.17,1.16-.1,.34,.06,.76,.34,1.18,.79,.32,.33,.55,.65,.58,1.19,.05,.54-.16,1.19-.45,1.84-.3,.65-.71,1.3-1.17,1.94Z" />
				<path class="d" d="M113.25,160.47c-.58,1.04-1.38,1.85-2.3,2.31-.9,.49-1.91,.61-2.92,.57-2.02-.12-4.16-.92-6.39-1.55-1.12-.32-2.28-.63-3.54-.8-.63-.07-1.3-.13-2.02-.04-.71,.07-1.54,.33-2.19,.94-.31,.3-.56,.66-.71,1.03-.18,.38-.21,.67-.3,1.01-.1,.68-.12,1.41,.12,2.1,.25,.69,.75,1.24,1.3,1.57,.56,.34,1.16,.51,1.76,.54-1.02-.59-1.8-1.51-1.81-2.41-.03-.45,.1-.89,.28-1.33,.23-.48,.41-.82,.67-.94,.47-.29,1.46-.24,2.48-.02,1.03,.22,2.11,.54,3.21,.86,1.11,.31,2.25,.63,3.44,.86,1.19,.22,2.46,.39,3.77,.2,1.3-.14,2.62-.66,3.58-1.58,.94-.92,1.52-2.14,1.54-3.34Z" />
				<path class="d" d="M132.03,150.02c.56-.31,1.06-.73,1.51-1.23,.44-.5,.82-1.12,1.01-1.91,.19-.79,0-1.82-.56-2.54-.24-.37-.61-.69-1.02-.96-.22-.12-.46-.23-.7-.32-.24-.07-.5-.11-.76-.15-1.02-.08-1.88,.23-2.59,.6-.73,.36-1.29,.84-1.83,1.33-1.04,1.01-1.85,2.16-2.45,3.47-.15,.32-.27,.68-.39,1.03-.12,.3-.13,.39-.24,.61-.17,.39-.41,.79-.71,1.18-.58,.79-1.33,1.54-2.17,2.19-1.7,1.3-3.72,2.29-6.26,2.49,1.09,.7,2.44,.97,3.78,.98,1.36-.02,2.71-.35,3.96-.92,1.26-.57,2.41-1.38,3.4-2.45,.5-.53,.94-1.14,1.31-1.84,.18-.32,.35-.81,.45-1.08,.08-.22,.16-.44,.27-.66,.39-.9,.96-1.79,1.59-2.55,.61-.76,1.4-1.33,1.81-1.45,.19-.08,.38-.07,.69,.12,.27,.17,.48,.38,.57,.81,.2,.88-.21,2.11-.69,3.26Z" />
				<path class="d" d="M124.65,141.73c.44-.46,.78-1.01,1.05-1.61,.27-.61,.44-1.29,.41-2.08-.01-.77-.37-1.71-1.05-2.35-.32-.37-.7-.56-1.09-.8-.37-.17-.77-.33-1.15-.43-.75-.15-1.46-.33-2.41-.17-.47,.08-1,.2-1.53,.54-.52,.32-1.01,.81-1.29,1.34-.6,1.07-.61,2-.64,2.77,.02,.77,.13,1.45,.24,2.09,.26,1.27,.61,2.4,.9,3.44,.16,.51,.27,1.01,.36,1.42,.05,.22,.06,.37,.09,.54v.83c0,1.11,0,2.08-.27,2.99-.25,.93-.96,1.85-1.77,2.82,1.24-.13,2.54-.57,3.58-1.64,1.03-1.07,1.54-2.45,1.88-3.65l.24-.91c.08-.41,.12-.85,.12-1.21,.02-.76-.07-1.42-.15-2.05-.19-1.26-.47-2.39-.67-3.43-.11-.51-.19-1-.22-1.4-.05-.39,.01-.68-.03-.65-.03,0-.09,.06-.13,.04-.05,0,0-.06,.09-.11,.2-.12,.67-.16,1.09-.2h.55c.13,.03,.32,.02,.43,.07,.26,.06,.53,.21,.75,.59,.46,.74,.61,1.96,.63,3.2Z" />
				<path class="d" d="M347.17,156.24l1.08-.73c.12-.08,11.5-7.93,6.52-20.8-2.75-7.12-5.81-10.63-8.26-13.46-1.88-2.17-3.36-3.88-3.97-6.48-.61-2.6,.1-5.44,.84-8.45,.95-3.82,1.93-7.78,.14-11.46-2.19-4.53-9.65-15.4-32.38-21.67,4.84-.03,14.05,.51,21.9,4.58,1.78,.92,3.59,1.94,5.52,3.02,10.35,5.82,22.07,12.42,33.34,5.92l.91-.52-.98-.38c-.17-.07-17.28-6.73-21.64-11.88-.67-.79-1.35-1.69-2.06-2.63-4.03-5.32-9.56-12.61-23.96-14.89-11.06-1.75-16.64-1.82-19.19-1.66,2.21-1.44,7.35-3.76,16.83-3.06,6.42,.47,11.52,1.82,16.02,3.02,5.16,1.37,9.62,2.55,14.3,1.88,8.6-1.23,15.65-6.41,15.95-6.63l1.65-1.23-2.03,.33c-.1,.02-9.73,1.52-18.04-3.22-7.42-4.23-22.87-13.03-36.49-9.84-8.17,1.91-13.62,4.93-16.62,6.98,3.08-4.05,9.21-11.2,15.25-12.99,1.78-.53,4.1-1.04,6.8-1.63,10.65-2.33,25.24-5.51,26.42-14.47l.11-.83-.79,.3c-.08,.03-7.99,3.03-17.77,2.82-8.27-.17-19.54,.7-26.24,5.8-4.23,3.22-6.99,6.18-8.26,7.67-.05-2.27,.28-7.31,3.66-11.86,1.63-2.2,3.76-3.59,5.82-4.94,3.78-2.47,7.35-4.81,6.94-11.51l-.08-1.36-.82,1.09c-.05,.07-5.45,7.17-11.07,7.56-3.57,.25-10.6,1.81-14.32,6.1-1.69,1.95-2.45,4.2-2.27,6.69,.59,8.09,.2,18.28-2.85,20.37-3.26,2.24-5.5,4.29-5.52,4.31l.68,.74s2.22-2.03,5.41-4.23c4.27-2.94,3.59-17.02,3.28-21.27-.16-2.22,.52-4.22,2.03-5.96,3.51-4.04,10.22-5.52,13.63-5.76,4.73-.33,9.11-4.78,10.92-6.88-.14,5.11-3.11,7.05-6.51,9.28-2.13,1.4-4.34,2.84-6.07,5.18-4.76,6.42-3.81,13.52-3.77,13.82l.17,1.19,.72-.96s3.1-4.07,8.89-8.47c6.47-4.93,17.5-5.77,25.61-5.6,8.14,.16,15.01-1.84,17.32-2.6-1.89,7.64-15.48,10.61-25.49,12.8-2.71,.59-5.05,1.1-6.87,1.64-8.85,2.64-17.47,15.68-17.83,16.23l-2.49,3.8,3.26-3.17c.06-.06,6.2-5.93,18.95-8.92,13.24-3.1,28.46,5.57,35.77,9.73,6.37,3.63,13.3,3.76,16.66,3.55-2.58,1.61-7.88,4.49-13.83,5.34-4.48,.64-8.85-.52-13.9-1.86-4.54-1.2-9.69-2.57-16.2-3.05-13.96-1.03-18.8,4.23-19,4.45l-1.17,1.31,1.68-.5s4.31-1.14,20.61,1.44c14.01,2.22,19.39,9.32,23.32,14.51,.73,.96,1.41,1.86,2.1,2.67,3.94,4.66,17.24,10.24,21.04,11.77-10.5,5.34-21.6-.91-31.42-6.43-1.93-1.09-3.75-2.11-5.55-3.04-11.43-5.92-25.65-4.56-25.8-4.54l-2.92,.3,2.85,.69c24.87,6,32.75,17.37,34.98,21.98,1.62,3.36,.69,7.13-.21,10.78-.74,2.99-1.5,6.08-.84,8.91,.66,2.84,2.22,4.64,4.19,6.91,2.4,2.77,5.39,6.21,8.08,13.17,3.86,9.98-2.49,16.62-5.11,18.82,.46-2.75,1.03-9.17-2.39-13.93-1.57-2.18-3.71-4.06-5.98-6.06-3.94-3.46-8.02-7.03-9.04-12.37-.58-3.05-.61-5.86-.64-8.35-.05-4.56-.1-8.5-3.37-11.91-4.58-4.77-17.6-13.48-25.13-12.4l-.42,.06v.43c-.02,.44-.14,10.74,6.55,15.12,6.64,4.36,12.88,10.06,9.52,19.42-.92-2.48-3.53-7.53-9.94-9.09-.48-.12-.99-.23-1.51-.35-8.63-1.98-21.67-4.96-22.81-36.23l-.02-.56-.55,.08c-.22,.03-5.33,.82-7.45,4.35-1.08,1.79-1.18,3.95-.3,6.42,2.88,8.07,3.91,12.28,.76,15.34,.14-1.92-.19-5.57-3.78-9.12-7.01-6.95-10.36-13.24-10.25-19.23,.14-7.41,4.37-10.95,4.41-10.98l-.63-.78c-.19,.15-4.63,3.84-4.78,11.74-.12,6.28,3.33,12.81,10.54,19.96,4.65,4.61,3.36,9.31,3.3,9.51l-.41,1.4,1.18-.86c5.11-3.72,3.55-9,.58-17.31-.77-2.17-.7-4.04,.21-5.56,1.49-2.49,4.87-3.47,6.19-3.77,1.32,31.49,15.23,34.67,23.56,36.58,.52,.12,1.02,.23,1.5,.35,7.95,1.94,9.61,9.64,9.63,9.72l.32,1.54,.63-1.44c4.77-10.88-2.5-17.45-9.37-21.95-5.48-3.6-6.04-11.85-6.1-13.83,6.78-.59,18.71,6.81,23.83,12.15,3,3.12,3.04,6.7,3.09,11.22,.03,2.53,.06,5.4,.66,8.53,1.08,5.68,5.29,9.37,9.36,12.94,2.23,1.95,4.33,3.8,5.83,5.89,4.1,5.72,1.98,14.35,1.96,14.44l-.32,1.27Z" />
				<path class="d" d="M279.13,69.13h1.63c14.96-.15,19.59-8.6,19.78-8.96l-.88-.47c-.04,.08-4.27,7.73-17.45,8.37,1.51-1.38,4-4.19,4.51-8.08,.46-3.56-.85-7.17-3.89-10.74l-.55-.64-.3,.78c-.04,.1-3.8,9.6-14.05,13.63-.4-2.52-2.5-11.58-12.06-13.93l-.24,.97c10.36,2.55,11.38,13.58,11.39,13.69l.05,.65,.62-.22c9.35-3.4,13.71-11.2,14.89-13.67,2.49,3.14,3.55,6.28,3.15,9.35-.67,5.11-5.21,8.31-5.26,8.34l-1.34,.93Z" />
				<path class="d" d="M246.23,72.89c4.13-2.91,6.21-6.12,6.2-9.55-.03-5.75-5.95-9.92-6.2-10.09l-.57,.82c.06,.04,5.75,4.05,5.77,9.28,.01,3.08-1.93,6.01-5.77,8.72l.58,.82Z" />
				<path class="d" d="M236.17,78.06c.17-.21,4.2-5.3,3.29-11.22-.54-3.5-2.7-6.52-6.41-8.99l-.55,.83c3.47,2.31,5.48,5.1,5.98,8.3,.85,5.48-3.04,10.4-3.08,10.44l.78,.63Z" />
				<path class="d" d="M224.69,82.75c.05-.07,4.52-7-1.44-11.52,.64-1.65,2.77-8.19-2.28-10.96l-.48,.88c4.96,2.72,1.83,9.75,1.7,10.05l-.17,.38,.34,.24c5.66,3.96,1.68,10.12,1.51,10.38l.83,.55Z" />
				<path class="d" d="M205.6,86.49c.13-.03,3.21-.74,4.63-3.45,.92-1.75,.92-3.91,0-6.4l12.59-4.77-.35-.94-13.54,5.13,.19,.47c.98,2.41,1.06,4.44,.23,6.03-1.2,2.3-3.94,2.94-3.96,2.94l.22,.98Z" />
				<path class="d" d="M210.06,76.45c.06-.31,1.49-7.5-2.98-8.92l-.3,.95c3.61,1.15,2.32,7.7,2.31,7.76l.98,.2Z" />
				<path class="d" d="M243.13,46.81c.02-.09,2.15-9.46-4.56-12.02l-.36,.93c5.88,2.25,3.96,10.77,3.94,10.85l.97,.23Z" />
				<path class="d" d="M223.59,59.49c6.68-4.99,5.04-12.35,4.15-15,2,.71,3.42,1.83,4.21,3.33,1.39,2.64,.37,5.64,.36,5.67l.94,.33c.05-.14,1.18-3.42-.41-6.46-1.04-1.99-2.99-3.38-5.79-4.14l-1.04-.28,.45,.97c.17,.37,4.11,9.11-3.47,14.77l.6,.8Z" />
				<path class="d" d="M208.72,67.62c.07-.07,7.27-7.32,2.34-14.49l-.82,.57c4.46,6.48-1.94,12.94-2.22,13.22l.7,.71Z" />
				<path class="d" d="M195.9,73.88c.08-.38,1.97-9.25-1.41-13.61-1.15-1.48-2.77-2.27-4.83-2.34l-.03,1c1.76,.06,3.09,.7,4.07,1.95,3.1,3.99,1.25,12.69,1.23,12.78l.98,.21Z" />
				<path class="d" d="M201.61,56.03l.38-.93c-.07-.03-6.91-2.89-6.09-8.34l-.99-.15c-.94,6.22,6.62,9.38,6.7,9.41Z" />
				<path class="d" d="M258.91,106.37l.93-.37c-.07-.17-1.71-4.16-5.46-5.4-2.33-.77-4.92-.31-7.71,1.39l.52,.85c2.52-1.53,4.83-1.97,6.87-1.29,3.31,1.09,4.84,4.79,4.86,4.83Z" />
				<path class="d" d="M247.87,92.75c.88-1.85,2.16-3.05,3.81-3.55,3.45-1.06,7.41,1.22,7.45,1.25l.5-.86c-.18-.1-4.38-2.52-8.25-1.34-1.92,.59-3.4,1.96-4.41,4.08l.9,.43Z" />
				<path class="d" d="M241.48,84.53c.44-3.37,1.7-5.64,3.76-6.77,3.81-2.08,9.19,.41,9.24,.44l.43-.9c-.24-.11-5.88-2.74-10.15-.41-2.35,1.29-3.79,3.81-4.27,7.52l.99,.13Z" />
				<path class="d" d="M226.9,91.99c2.55-6.86,12.16-7.97,12.25-7.99l-.11-.99c-.42,.05-10.32,1.19-13.08,8.63l.94,.35Z" />
				<path class="d" d="M90.16,130.24l-.29-.71c-1.93-4.68-2.14-8.85-.63-12.41,1.56-3.66,4.61-5.79,6.31-6.74-.44,1.31-.4,2.57,.13,3.77,2.02,4.58,10.49,6.55,10.85,6.63l.58,.13,.03-.6c.35-7.76,6.39-13.68,6.45-13.74l-.69-.72c-.25,.25-6.09,5.95-6.72,13.8-1.91-.52-8.05-2.43-9.59-5.91-.58-1.31-.44-2.68,.42-4.19l.7-1.23-1.31,.51c-.23,.09-5.68,2.27-8.07,7.87-1.55,3.62-1.44,7.81,.33,12.45-2.89-.23-13.1-1.54-16.16-8.57,.03-.75,.37-5.59,4.31-7.52l-.44-.9c-4.82,2.36-4.87,8.26-4.87,8.51l.04,.19c3.76,8.87,17.29,9.31,17.87,9.33l.77,.02Z" />
				<path class="d" d="M63.46,137.58l-.38-1.6c-1.82-7.75,9.06-14.78,9.17-14.85l-.54-.84c-.44,.28-10.17,6.57-9.84,14.27-1.87-2.29-5.63-7.92-6.12-16.6,.9-.92,6.1-5.87,14.59-6.72l-.1-1c-9.73,.97-15.15,6.94-15.38,7.19l-.14,.15v.21c.63,12.13,7.24,18.41,7.52,18.67l1.2,1.12Z" />
				<path class="d" d="M44.72,129.27c1.16-6.02,3.21-9.87,5.94-11.13,2.3-1.06,4.32,.06,4.34,.07l.49-.87c-.1-.06-2.49-1.38-5.26-.11-3.08,1.42-5.27,5.41-6.51,11.85l.98,.19Z" />
				<path class="d" d="M47.79,119.74l.78-.62c-.27-.34-6.64-8.3-12.59-7.42l.15,.99c5.36-.79,11.59,6.97,11.66,7.05Z" />
				<path class="d" d="M65.8,102.4l.24-.97c-.41-.1-9.83-2.56-10.64-14.3,2.29,1.13,9.17,3.98,16.72,2.01l-.25-.97c-8.67,2.27-16.68-2.27-16.76-2.32l-.78-.45,.03,.9c.43,13.27,11.34,16.08,11.45,16.11Z" />
				<path class="d" d="M56.51,116.91l.33-.94c-.08-.03-7.54-2.69-6.61-7.31,.01-.09,.8-5.42,12.25-7.36l-.17-.99c-12.28,2.08-13.04,7.95-13.07,8.2-1.09,5.42,6.93,8.29,7.27,8.4Z" />
				<path class="d" d="M49.66,109.05l.16-.99-.08,.49,.09-.49s-4.38-.92-7.23-10.75l-.96,.28c3.05,10.52,7.82,11.42,8.02,11.45Z" />
				<path class="d" d="M42.74,86.26l-.13-.67c-1.81-8.95,5.11-13.32,7.87-14.68-2.85,8.58,5.2,13.62,5.28,13.67l.52-.85c-.33-.2-8.11-5.09-4.45-13.56l.46-1.07-1.1,.41c-.12,.04-11.46,4.38-9.7,15.57-1.84-.42-6.78-2.2-7.21-9.26l-1,.06c.57,9.36,8.69,10.31,8.78,10.32l.68,.07Z" />
				<path class="d" d="M75.28,150.28c4.49-7.47,5.68-12.14,5.9-14.69,.97,1.46,2.26,2.49,3.87,3.09,5.62,2.08,13.03-1.97,13.34-2.14l-.48-.87c-.07,.04-7.32,4-12.51,2.08-2.02-.75-3.48-2.31-4.35-4.65l-.94,.34s1.4,4.57-5.68,16.33l.86,.52Z" />
				<path class="d" d="M92.95,158.35c1.74,0,9.27-.53,14.11-9.24l-.87-.49c-3.94,7.09-9.69,8.44-12.23,8.68,5.98-5.77,7.67-13.18,7.75-13.51l.27-1.24-1.05,.72c-6.95,4.8-23.08,8.1-23.24,8.13l.2,.98c.64-.13,14.96-3.05,22.49-7.56-.79,2.51-3.06,8.31-8.08,12.64l-.9,.78,1.19,.1s.14,0,.37,0Z" />
			</g>
		</g>
	</g>
</svg>
