<svg xmlns="http://www.w3.org/2000/svg" width="120.89" height="28.68" viewBox="0 0 120.89 28.68">
  <defs>
    <style>
      .cls-1 {
        fill: #efb970;
        stroke: #fff;
        stroke-miterlimit: 10;
        stroke-width: 0.77px;
      }

      .cls-2 {
        fill: #fff;
      }
    </style>
  </defs>
  <g id="圖層_2" data-name="圖層 2">
    <g id="圖層_1-2" data-name="圖層 1">
      <g>
        <rect class="cls-1" x="0.38" y="0.38" width="120.12" height="27.91"/>
        <g>
          <path class="cls-2" d="M16.23,15.76c-.83.24-1.68.46-2.52.69v5.3c0,1-.2,1.45-.79,1.72a7,7,0,0,1-2.86.32,6.73,6.73,0,0,0-.55-1.66c.87,0,1.74,0,2,0s.38-.1.38-.38V17l-2.4.65L9,15.86c.83-.18,1.81-.44,2.9-.71v-3.9H9.23V9.55h2.64V5.7h1.84V9.55h2.48v1.7H13.71v3.42c.74-.19,1.53-.41,2.27-.63Zm10.58,6.07c0,.93-.2,1.43-.83,1.7a8.44,8.44,0,0,1-3,.3,6.37,6.37,0,0,0-.55-1.7c.93,0,1.88,0,2.14,0s.38-.08.38-.34V19.87c-2.05.54-4.15,1.07-5.82,1.49l-.65-1.72A9,9,0,0,1,16.65,24a6.66,6.66,0,0,0-1.55-1.07c1.59-1.92,1.77-4.61,1.77-6.58V12.85h9.94Zm-.59-10.26H17.34V6.33h8.88Zm-7.51,4.78a18.45,18.45,0,0,1-.27,3.27c1.68-.28,4.08-.79,6.47-1.31V14.42h-6.2Zm1-1a20.49,20.49,0,0,1,4.68,1.36l-.75,1.4A21.76,21.76,0,0,0,19,16.63Zm4.7-7.54h-5.3v2.28h5.3Z"/>
          <path class="cls-2" d="M32.5,9.73v4.85c0,2.6-.22,6.34-1.41,8.81a5,5,0,0,0-1.31-.95c1.07-2.27,1.15-5.49,1.15-7.89V8.46h3.56V5.66h1.74v.91H40V7.69H36.23v.77h3.24l.27-.05,1.08.27c-.26.85-.58,1.84-.86,2.49l-1.33-.31c.08-.32.22-.71.34-1.13H35.76v.79l2.46-.26.14.89-2.6.28v0c0,.44.06.55.45.55h2.23a9.08,9.08,0,0,0,1.3-.08c0,.32.06.68.1,1a5,5,0,0,1-1.33.1H36c-1.21,0-1.5-.43-1.52-1.46l-1.61.18-.14-.89,1.75-.18V9.73ZM45,12.68c.48,4.11,1.49,7.79,3.52,9.69a7.32,7.32,0,0,0-1.31,1.5,13.62,13.62,0,0,1-3-6.55A14.59,14.59,0,0,1,41,23.85a5.58,5.58,0,0,0-1-.91.84.84,0,0,1-.41.4,4,4,0,0,1-1.75.21,4,4,0,0,0-.38-1.14h1.07c.14,0,.18-.06.18-.2V19.12H37.6l.76.32c-.26.36-.54.71-.82,1h1v.85H36.89v2.05H35.72V21.34H34.13v-.85H35a6.5,6.5,0,0,0-.67-1l.77-.34H33.93v4.45H32.58V18.09h7.6V22c2.28-2.73,2.74-6.37,2.84-9.29H40.4V11H43V5.72h1.79V11H48.3v1.67Zm-4.86,1.78H32.64v-1h7.52Zm-6.63,3.06V15.05h5.7v2.47Zm1.25-.87h3.14V15.9H34.78Zm1.63,3.84a16.45,16.45,0,0,0,1-1.37H35.24a5.09,5.09,0,0,1,.87,1.37Zm10.5-10.42A12.5,12.5,0,0,0,45.2,6.88l1.39-.55a12.54,12.54,0,0,1,1.79,3.1Z"/>
          <path class="cls-2" d="M64.69,21.46c2.14,0,2.46-.6,2.73-3.64a6.89,6.89,0,0,0,1.91.73c-.4,3.66-1.15,4.73-4.62,4.73H57.58C54.09,23.28,53,22.64,53,20V10.42h1.94v3h9.88V8.66H52.08V6.86H66.75v9.3H64.82v-.95H54.94V20c0,1.23.4,1.49,2.58,1.49Z"/>
          <path class="cls-2" d="M78.33,13.15a29.46,29.46,0,0,1,1.31,4.07l-1.48.5c-.06-.32-.14-.65-.24-1-4.31.63-5,.77-5.42,1-.08-.34-.38-1.19-.56-1.66.44-.08.9-.54,1.53-1.27a17.53,17.53,0,0,0,1.55-2,9.81,9.81,0,0,0-2.66.45c-.1-.35-.36-1.17-.54-1.6.34-.08.7-.48,1.12-1.05a25,25,0,0,0,2.64-4.92l1.7.69a32,32,0,0,1-3.07,5l1.9-.16a28.23,28.23,0,0,0,1.45-2.51l1.55.93a37.44,37.44,0,0,1-4.39,6l2.82-.35c-.2-.6-.4-1.21-.6-1.72Zm-4.06,5.5a25.13,25.13,0,0,1-1,4.86A12.92,12.92,0,0,0,71.86,23a20.58,20.58,0,0,0,.9-4.61Zm2.1-.3A41.39,41.39,0,0,1,77,22.78l-1.46.28c-.06-1.21-.28-3-.5-4.45Zm2-.51a27.56,27.56,0,0,1,1.17,3.81l-1.38.44a25.83,25.83,0,0,0-1.08-3.86ZM85.7,9.91v2.73h4v1.68H80.12V12.64h3.65V9.91H79.56V8.21h4.21V5.67H85.7V8.21h4.5v1.7Zm-5.18,6.25h8.63v7.57H87.34V23H82.28v.85H80.52Zm1.76,1.66V21.3h5.06V17.82Z"/>
          <path class="cls-2" d="M104.13,17.17a19,19,0,0,0,7.36,4.48,8.25,8.25,0,0,0-1.35,1.65,20.71,20.71,0,0,1-7.06-4.85v5.36h-2V18.57a21.12,21.12,0,0,1-7,4.69,8.4,8.4,0,0,0-1.31-1.57,18.93,18.93,0,0,0,7.28-4.52H95V11.25h6.15V9.35h-7.5V7.65h7.5v-2h2v2h7.62v1.7h-7.62v1.9h6.33v5.92ZM96.8,15.52h4.33V12.89H96.8Zm6.28-2.63v2.63h4.4V12.89Z"/>
        </g>
      </g>
    </g>
  </g>
</svg>
