<svg xmlns="http://www.w3.org/2000/svg" width="88.02" height="17.51" viewBox="0 0 88.02 17.51">
  <defs>
    <style>
      .cls-1 {
        fill: #9d7c52;
        stroke: #ca954a;
        stroke-miterlimit: 10;
        stroke-width: 0.48px;
      }

      .cls-2 {
        fill: #fff;
      }
    </style>
  </defs>
  <g id="圖層_2" data-name="圖層 2">
    <g id="圖層_1-2" data-name="圖層 1">
      <g>
        <rect class="cls-1" x="0.24" y="0.24" width="87.54" height="17.03"/>
        <g>
          <path class="cls-2" d="M7.76,9.92v4.41c0,.6-.17.87-.54,1a6.2,6.2,0,0,1-2,.17,4.57,4.57,0,0,0-.33-.91h1.6c.22,0,.31-.07.31-.3V10.21c-.75.22-1.46.43-2.08.59l-.32-1c.66-.16,1.49-.38,2.4-.63V5.87H4.56V4.94h2.2v-3h1v3h2v.93h-2V8.93L9.7,8.39l.12.9Zm10.15,4.42c0,.58-.12.86-.54,1a7.72,7.72,0,0,1-2.24.16,4.62,4.62,0,0,0-.31-.93c.83,0,1.57,0,1.78,0s.28-.06.28-.26v-2c-1.78.45-3.58.88-5,1.2l-.39-.95c1.37-.25,3.42-.67,5.4-1.09V8.23H11.45v2a8.35,8.35,0,0,1-1.55,5.4A4,4,0,0,0,9.07,15a7.25,7.25,0,0,0,1.37-4.8V7.36h7.47Zm-.46-8.15H10.76V2.39h6.69Zm-1-3H11.73V5.35h4.72Zm-4.12,6a16.91,16.91,0,0,1,3.94,1.16l-.4.79a17.78,17.78,0,0,0-3.94-1.24Z"/>
          <path class="cls-2" d="M22.46,4.76v3.9a16.61,16.61,0,0,1-1,6.54,3.25,3.25,0,0,0-.73-.53,15.57,15.57,0,0,0,.88-6V4H24.3V1.88h1v.8h3.05v.67H25.27V4h2.88l.15,0,.6.16c-.2.59-.43,1.28-.61,1.71l-.76-.18a9.37,9.37,0,0,0,.3-.93H25V5.5l2.08-.2.08.56L25,6.07v.16c0,.38.05.47.34.47h1.78a8.72,8.72,0,0,0,.9,0,5.9,5.9,0,0,0,.06.59,5.66,5.66,0,0,1-.92,0H25.3c-.81,0-1-.28-1-1.06v-.1l-1.45.15-.09-.57,1.54-.15v-.8ZM32,7c.42,3.4,1.22,6.32,2.83,7.82a4.65,4.65,0,0,0-.72.8,11.64,11.64,0,0,1-2.54-5.87,11.28,11.28,0,0,1-2.64,5.85,3.79,3.79,0,0,0-.65-.59.54.54,0,0,1-.26.23,3.83,3.83,0,0,1-1.34.12,2.87,2.87,0,0,0-.23-.68c.46,0,.82,0,.95,0s.17,0,.17-.16V11.84h-4v3.51h-.79V11.22h5.62V14.5a.55.55,0,0,1,0,.19c2.08-2.27,2.46-5.32,2.54-7.73H28.58V6.05h2.31V2h1V6.05h2.89V7Zm-3.61,1.4H22.75V7.73h5.63Zm-5,2.34V8.87h4.29V10.7ZM25.67,13a10.63,10.63,0,0,0,.8-1.16l.6.27a11.21,11.21,0,0,1-.69.89h.83v.55H25.84v1.68h-.69V13.55H23.81V13h.8a7,7,0,0,0-.61-.89l.52-.27A5.69,5.69,0,0,1,25.29,13Zm-1.52-2.85h2.77V9.42H24.15ZM34,5a8.93,8.93,0,0,0-1.56-2.26l.77-.33a8.37,8.37,0,0,1,1.6,2.22Z"/>
          <path class="cls-2" d="M47.86,14.13c1.71,0,2-.52,2.18-3a3,3,0,0,0,1,.4c-.27,2.73-.77,3.55-3.23,3.55H42c-2.4,0-3.15-.42-3.15-2.2V5.36h1V7.9h8.23V3.83H38v-1H49.14V9.62h-1V8.87H39.86V13c0,.95.37,1.17,2,1.17Z"/>
          <path class="cls-2" d="M55.13,11.58a24.17,24.17,0,0,1-.8,3.74,7.7,7.7,0,0,0-.85-.28,17.4,17.4,0,0,0,.79-3.61Zm3.12-4.06a18,18,0,0,1,1,3.09l-.83.27c-.05-.25-.12-.55-.22-.9-3.53.51-4,.61-4.29.77a8.64,8.64,0,0,0-.32-.93,2.69,2.69,0,0,0,1.12-1A16.33,16.33,0,0,0,56.16,7a8.87,8.87,0,0,0-2.32.39c-.07-.21-.2-.67-.31-.92.24-.06.52-.39.86-.83a20,20,0,0,0,2.14-3.82l.95.39a23.35,23.35,0,0,1-2.54,4.08l1.82-.15c.4-.63.8-1.3,1.15-2l.88.5a29,29,0,0,1-3.54,4.85L58,9.2c-.17-.49-.35-1-.53-1.47Zm-1.48,3.87a32.72,32.72,0,0,1,.45,3.39l-.83.17A32.28,32.28,0,0,0,56,11.54ZM58.26,11a18.64,18.64,0,0,1,.91,2.9l-.77.27a20.8,20.8,0,0,0-.87-3Zm5.53-6.19V7.33H67v.92H59.8V7.33h3V4.85H59.34V3.92h3.42v-2h1v2h3.64v.93Zm-3.69,5h6.46v5.61h-1v-.57H61.06v.62h-1Zm1,.91V14h4.51V10.79Z"/>
          <path class="cls-2" d="M78,10.37a14.45,14.45,0,0,0,6,3.83,4.84,4.84,0,0,0-.72.85,15.4,15.4,0,0,1-5.88-4v4.52h-1V11.13A16.42,16.42,0,0,1,70.64,15a4.61,4.61,0,0,0-.69-.83,15.11,15.11,0,0,0,5.92-3.84H71.55V6.16h4.86V4.45h-6V3.52h6V1.91h1V3.52h6v.93h-6V6.16h4.94v4.21Zm-5.51-.9h3.88V7.06H72.53Zm4.92-2.41V9.47h3.91V7.06Z"/>
        </g>
      </g>
    </g>
  </g>
</svg>
