<?xml version="1.0" encoding="UTF-8"?>
<svg id="b" data-name="圖層 2" xmlns="http://www.w3.org/2000/svg" width="108.98" height="141.3" viewBox="0 0 108.98 141.3">
  <defs>
    <style>
      .d {
        fill: #4d4d4d;
      }

      .e, .f {
        fill: #fff;
      }

      .e, .g {
        stroke: #df6432;
        stroke-miterlimit: 10;
        stroke-width: .76px;
      }

      .f {
        font-family: NotoSansCJKtc-Bold-B5pc-H, 'Noto Sans CJK TC';
        font-size: 43.61px;
        glyph-orientation-vertical: 0deg;
        letter-spacing: .08em;
        text-orientation: upright;
        writing-mode: tb;
      }

      .h {
        fill: #df6432;
      }

      .g {
        fill: none;
      }
    </style>
  </defs>
  <g id="c" data-name="圖層 2">
    <g>
      <polygon class="d" points="76.14 48.83 77.09 42.41 75.05 41.4 76.14 48.83"/>
      <polygon class="d" points="53.53 6.62 52.95 5.94 52.81 6.63 53.53 6.62"/>
      <polygon class="d" points="52.81 6.63 51.89 6.65 52.58 7.87 52.81 6.63"/>
      <polygon class="d" points="72.55 41.76 72.67 40.96 72.84 42.07 74.54 43.98 74.93 41.34 69.98 38.88 72.55 41.76"/>
      <polygon class="d" points="4.02 83 3.76 84.71 4.41 85.53 4.02 83"/>
      <polygon class="d" points="73.36 45.63 73.83 48.83 74.47 44.44 74.14 44.27 73.36 45.63"/>
      <polygon class="d" points="106.19 48.42 105.79 45.67 104.48 45.62 106.19 48.42"/>
      <polygon class="d" points="106.25 48.83 106.29 48.58 106.19 48.42 106.25 48.83"/>
      <polygon class="d" points="45.54 88.65 39.45 89.13 39.32 90 45.54 88.65"/>
      <polygon class="d" points="4.41 85.53 4.57 86.54 5.23 86.55 4.41 85.53"/>
      <polygon class="d" points="97.26 7.12 97.26 7.12 96.82 6.62 96.67 5.83 96.67 5.83 95.6 .17 94.15 7.9 101.02 11.31 97.26 7.12"/>
      <polygon class="d" points="37.67 90.36 39.15 90.68 39.06 90.06 37.67 90.36"/>
      <polygon class="d" points="74.93 41.34 75.05 41.4 74.99 40.96 74.93 41.34"/>
      <polygon class="d" points="73.06 43.59 74.22 44.13 74.14 44.27 74.47 44.44 74.54 43.98 72.84 42.07 73.06 43.59"/>
      <polygon class="d" points="73.08 43.75 73.36 45.63 74.14 44.27 73.08 43.75"/>
      <polygon class="d" points="39.06 90.06 39.15 90.68 39.21 90.69 39.32 90 39.06 90.06"/>
      <polygon class="d" points="72.32 43.37 71.51 48.83 73.36 45.63 73.08 43.75 72.32 43.37"/>
      <polygon class="d" points="77.17 42.45 77.09 42.37 77.09 42.41 77.17 42.45"/>
      <polygon class="d" points="75.33 44.86 74.54 43.98 74.47 44.44 75.33 44.86"/>
      <polygon class="d" points="73.06 43.59 72.33 43.25 72.32 43.37 73.08 43.75 73.06 43.59"/>
      <polygon class="d" points="74.14 44.27 74.22 44.13 73.06 43.59 73.08 43.75 74.14 44.27"/>
      <polygon class="d" points="72.84 42.07 72.55 41.76 72.33 43.25 73.06 43.59 72.84 42.07"/>
      <polygon class="d" points="68.15 41.3 72.32 43.37 72.33 43.25 68.15 41.3"/>
      <polygon class="d" points="72.67 40.96 72.55 41.76 72.84 42.07 72.67 40.96"/>
      <polygon class="d" points="104.98 58.88 96.47 57.39 100.97 64.76 92.46 63.28 96.97 70.65 88.46 69.16 92.96 76.53 84.45 75.05 88.95 82.42 80.44 80.93 84.95 88.31 76.44 86.82 80.94 94.19 72.43 92.7 76.93 100.08 68.42 98.59 72.93 105.97 64.41 104.48 68.92 111.85 60.41 110.37 64.91 117.75 56.4 116.26 60.9 123.63 52.39 122.14 56.89 129.52 48.38 128.03 52.88 135.41 44.37 133.93 48.87 141.3 43.35 140.34 45.54 139.87 37.67 138.16 45.54 136.45 37.67 134.75 45.54 133.04 37.67 131.33 45.54 129.63 37.67 127.92 45.54 126.21 37.67 124.51 45.54 122.8 37.67 121.09 45.54 119.38 37.67 117.68 45.54 115.97 37.67 114.26 45.54 112.56 37.67 110.85 45.54 109.15 37.67 107.44 45.54 105.73 37.67 104.02 45.54 102.32 37.67 100.61 45.54 98.9 37.67 97.19 45.54 95.48 37.67 93.77 45.54 92.07 39.21 90.69 39.32 90 45.54 88.65 38.54 88.65 37.97 83 36.76 90.87 35.55 83 34.34 90.87 33.12 83 31.91 90.87 30.7 83 29.48 90.87 28.27 83 27.06 90.87 25.85 83 24.64 90.87 23.43 83 22.21 90.87 21 83 19.79 90.87 18.58 83 17.37 90.87 16.16 83 14.94 90.87 13.73 83 12.52 90.87 11.31 83 10.09 90.87 8.88 83 7.66 90.87 6.45 83 5.24 90.87 4.41 85.54 0 80 8.21 81.67 2.98 75.13 11.19 76.79 5.96 70.24 14.17 71.91 8.94 65.36 17.15 67.03 11.93 60.49 20.13 62.15 14.91 55.6 23.12 57.27 17.89 50.72 26.1 52.39 20.87 45.84 29.09 47.5 23.86 40.96 32.07 42.62 26.84 36.08 35.05 37.74 29.83 31.19 38.04 32.85 32.81 26.31 41.02 27.97 35.8 21.43 44 23.09 38.78 16.54 46.99 18.21 41.77 11.66 49.98 13.32 44.75 6.77 51.89 6.65 51.89 6.65 51.89 6.65 51.89 6.65 48.6 .89 52.94 5.94 52.95 5.93 54.06 0 55.55 7.87 57.03 0 58.51 7.87 60 0 61.48 7.87 62.96 0 64.45 7.87 65.93 0 67.41 7.87 68.9 0 70.38 7.87 71.86 0 73.35 7.87 74.83 0 76.31 7.87 77.8 0 79.28 7.87 80.76 0 82.25 7.87 83.73 0 85.21 7.87 86.69 0 88.18 7.87 89.66 0 91.15 7.87 92.64 0 94.12 7.89 99.18 13.54 92 9.98 97.35 15.95 90.17 12.39 95.51 18.36 88.33 14.79 93.68 20.77 86.5 17.2 91.85 23.18 84.66 19.61 90.01 25.58 82.83 22.02 88.18 27.99 81 24.42 86.34 30.39 79.17 26.83 84.51 32.81 77.33 29.24 82.67 35.22 75.49 31.65 80.84 37.63 73.66 34.06 79 40.04 71.82 36.47 77.09 42.37 77.09 42.41 75.05 41.4 74.99 40.96 74.93 41.34 75.05 41.4 76.14 48.83 77.09 42.41 77.17 42.45 77.09 42.37 77.3 40.96 78.46 48.83 79.62 40.96 80.78 48.83 81.93 40.96 83.09 48.83 84.25 40.96 85.4 48.83 86.56 40.96 87.72 48.83 88.88 40.96 90.03 48.83 91.19 40.96 92.35 48.83 93.51 40.96 94.66 48.83 95.82 40.96 96.98 48.83 98.14 40.96 99.3 48.83 100.46 40.96 101.62 48.83 102.77 40.96 103.93 48.83 108.98 52.99 100.47 51.51 104.98 58.88"/>
    </g>
    <g>
      <g>
        <g>
          <path class="e" d="M80.22,19.57l3.7,.54c0-.12,0-.24,0-.36,0,.12,0,.24,0,.36-.09,7.44-2.99,13.41-6.55,13.41s-6.55-6.16-6.55-13.77c0-.52,.01-1.03,.04-1.54"/>
          <path class="h" d="M76.63,19.75c0,4.24,1.63,7.67,3.65,7.67,1.96,0,3.55-3.24,3.64-7.31l-3.7-.54,.05,.18-3.64-.48c0,.16,0,.32,0,.48Z"/>
        </g>
        <polyline class="g" points="68.11 17.82 70.86 18.22 80.22 19.57 83.92 20.11 83.92 20.11 84.78 20.24"/>
      </g>
      <g>
        <g>
          <path class="e" d="M96.82,19.57l3.7,.54c0-.12,0-.24,0-.36,0,.12,0,.24,0,.36-.09,7.44-2.99,13.41-6.55,13.41s-6.55-6.16-6.55-13.77c0-.52,.01-1.03,.04-1.54"/>
          <path class="h" d="M93.23,19.75c0,4.24,1.63,7.67,3.65,7.67,1.96,0,3.55-3.24,3.64-7.31l-3.7-.54,.05,.18-3.64-.48c0,.16,0,.32,0,.48Z"/>
        </g>
        <polyline class="g" points="84.71 17.82 87.46 18.22 96.82 19.57 100.52 20.11 100.52 20.11 101.38 20.24"/>
      </g>
    </g>
    <text class="f" transform="translate(56.23 46.83) scale(1 .77)"><tspan x="0" y="0">解</tspan></text>
  </g>
</svg>