<?xml version="1.0" encoding="UTF-8"?>
<svg id="b" data-name="圖層 2" xmlns="http://www.w3.org/2000/svg" width="48.15" height="59.64" viewBox="0 0 48.15 59.64">
  <defs>
    <style>
      .d {
        fill: #666;
      }
    </style>
  </defs>
  <g id="c" data-name="圖層 2">
    <g>
      <polygon class="d" points="9.8 48.41 9.75 48.45 9.73 48.33 9 47.42 8.92 48.49 8.65 46.98 8.24 46.47 8.57 46.52 8.33 45.2 8.11 48.21 10.38 49.14 9.8 48.41"/>
      <polygon class="d" points="30.16 20.15 30.34 18 29.36 17.41 30.16 20.15"/>
      <polygon class="d" points="29.09 18.43 29.18 17.3 28.06 16.64 29.09 18.43"/>
      <polygon class="d" points="18.33 38.84 18.5 37.65 18.82 39.91 18.95 40.19 18.87 40.26 18.97 40.96 19.4 37.97 17.52 37.11 18.33 38.84"/>
      <polygon class="d" points="19.92 40.96 20.29 38.38 19.5 38.02 19.92 40.96"/>
      <polygon class="d" points="9.16 45.16 9.06 46.6 9.43 46.65 9.16 45.16"/>
      <polygon class="d" points="31.09 18.44 30.89 18.32 31.39 20.03 31.67 16.67 32.62 19.9 32.88 16.84 29.96 15.1 31.09 18.44"/>
      <polygon class="d" points="10.35 26.84 10.5 27.81 10.9 27.89 10.35 26.84"/>
      <polygon class="d" points="10.23 26.09 10.17 26.51 10.35 26.84 10.23 26.09"/>
      <polygon class="d" points="18.85 25.96 18.65 27.52 19.12 27.65 18.85 25.96"/>
      <polygon class="d" points="7.5 45.25 7.31 47.88 8.02 48.18 7.5 45.25"/>
      <polygon class="d" points="3.17 58.58 0 57.28 1.38 58.99 1.19 58.03 4.53 59.64 4.04 57.14 1.02 55.9 3.17 58.58"/>
      <polygon class="d" points="20.29 38.38 20.52 38.49 20.4 37.65 20.29 38.38"/>
      <polygon class="d" points="32.99 16.91 32.9 16.63 32.88 16.84 32.99 16.91"/>
      <polygon class="d" points="29.65 19.4 29.09 18.43 28.93 20.28 29.65 19.4"/>
      <polygon class="d" points="19.4 37.97 19.5 38.02 19.45 37.65 19.4 37.97"/>
      <polygon class="d" points="18.5 37.65 18.33 38.84 18.82 39.91 18.5 37.65"/>
      <polygon class="d" points="18.33 38.84 18.02 40.96 18.87 40.26 18.82 39.91 18.33 38.84"/>
      <polygon class="d" points="29.18 17.3 29.36 17.41 29.21 16.92 29.18 17.3"/>
      <polygon class="d" points="46.77 0 46.48 3.44 44.88 .38 44.59 3.82 42.98 .77 42.69 4.21 41.08 1.15 40.79 4.59 39.19 1.53 38.9 4.98 37.29 1.92 37.01 5.36 35.4 2.3 35.11 5.74 33.51 2.68 33.22 6.13 31.61 3.07 31.32 6.51 29.72 3.45 29.43 6.89 27.25 4.07 27.72 8.49 24.37 7.29 26.03 10.43 22.69 9.23 24.35 12.37 21.01 11.17 22.67 14.31 19.32 13.11 20.99 16.25 17.64 15.05 19.31 18.19 15.96 16.99 17.63 20.13 14.28 18.93 15.95 22.07 12.6 20.87 14.26 24.01 10.92 22.81 12.58 25.95 9.24 24.74 10.31 26.78 10.5 27.81 10.76 29.4 11.19 26.08 11.72 29.38 12.15 26.06 12.68 29.37 13.1 26.05 13.63 29.35 14.06 26.03 14.59 29.34 15.02 26.02 15.55 29.32 15.98 26 16.49 29.18 16.53 29.19 16.94 25.99 17.47 29.29 17.9 25.97 18.12 27.38 18.85 25.96 21.36 28.25 19.38 29.26 19.12 27.65 19.33 30.48 16.53 29.19 16.51 29.31 16.49 29.18 16.13 29.01 17.65 32.19 14.44 30.72 15.97 33.9 12.76 32.43 14.28 35.61 11.08 34.15 12.6 37.33 9.4 35.86 10.92 39.04 7.72 37.57 9.24 40.75 6.04 39.28 7.56 42.46 4.36 40.99 5.88 44.17 2.68 42.7 3.63 47.38 4.16 45.43 4.76 48.71 5 45.38 5.59 48.67 5.83 45.34 6.42 48.63 6.66 45.29 7.26 48.58 7.3 47.96 7.21 47.84 7.31 47.88 7.5 45.25 8.02 48.18 8.11 48.21 8.33 45.2 8.57 46.52 9.06 46.6 9.16 45.16 9.43 46.65 11.72 47.01 9.8 48.41 10.38 49.14 8.11 48.21 8.09 48.54 8.02 48.18 7.31 47.88 7.3 47.96 9.35 50.51 6.18 49.22 8.33 51.89 5.16 50.59 7.3 53.26 4.13 51.96 6.28 54.63 3.11 53.33 5.25 56 2.08 54.71 4.04 57.14 3.85 56.18 7.18 57.8 6.48 54.16 9.81 55.77 9.1 52.14 12.44 53.75 11.73 50.12 15.06 51.73 14.35 48.1 17.69 49.71 16.98 46.07 20.31 47.69 19.6 44.05 22.94 45.67 22.23 42.03 25.56 43.65 24.85 40.01 24.68 40.96 24.2 37.65 23.73 40.96 23.25 37.65 22.77 40.96 22.3 37.65 21.82 40.96 21.35 37.65 20.87 40.96 20.52 38.49 20.29 38.38 19.92 40.96 19.5 38.02 19.4 37.97 18.97 40.96 18.87 40.26 18.02 40.96 18.33 38.84 17.52 37.11 19.4 37.97 19.45 37.65 19.5 38.02 20.29 38.38 20.4 37.65 20.52 38.49 20.81 38.62 19.68 35.19 22.96 36.7 21.83 33.27 25.12 34.79 23.99 31.35 27.27 32.87 26.14 29.43 29.42 30.95 28.3 27.51 31.58 29.03 30.45 25.6 33.73 27.12 32.6 23.68 35.88 25.2 34.75 21.76 38.04 23.28 36.91 19.85 40.19 21.36 39.06 17.93 39.75 18.25 39.06 15.92 38.78 19.28 37.83 16.04 37.55 19.4 36.6 16.17 36.32 19.53 35.37 16.29 35.09 19.65 34.13 16.42 33.85 19.78 32.9 16.54 32.9 16.63 32.99 16.91 32.88 16.84 32.62 19.9 31.67 16.67 31.39 20.03 30.89 18.32 30.34 18 30.16 20.15 29.36 17.41 29.18 17.3 29.09 18.43 29.65 19.4 28.93 20.28 29.09 18.43 28.06 16.64 29.18 17.3 29.21 16.92 29.36 17.41 30.34 18 30.44 16.79 30.89 18.32 31.09 18.44 29.96 15.1 32.88 16.84 32.9 16.63 31.85 13.56 34.89 15.37 33.75 12.03 36.78 13.84 35.64 10.49 38.68 12.3 37.54 8.96 40.57 10.77 39.43 7.43 42.47 9.24 41.33 5.89 44.36 7.7 43.22 4.36 46.26 6.17 45.12 2.83 48.15 4.64 46.77 0"/>
      <polygon class="d" points="8.11 48.21 8.02 48.18 8.09 48.54 8.11 48.21"/>
      <polygon class="d" points="30.34 18 30.89 18.32 30.44 16.79 30.34 18"/>
      <polygon class="d" points="18.5 28.73 18.86 25.91 18.12 27.38 18.26 28.23 18.5 28.73"/>
      <polygon class="d" points="18.43 29.28 18.5 28.73 18.26 28.23 18.43 29.28"/>
      <polygon class="d" points="16.53 29.19 16.49 29.18 16.51 29.31 16.53 29.19"/>
      <polygon class="d" points="21.36 28.25 19.12 27.65 19.38 29.26 21.36 28.25"/>
      <polygon class="d" points="9.8 48.41 11.72 47.01 9.43 46.65 9.73 48.33 9.8 48.41"/>
      <polygon class="d" points="8.92 48.49 9 47.42 8.65 46.98 8.92 48.49"/>
      <polygon class="d" points="7.21 47.84 7.3 47.96 7.31 47.88 7.21 47.84"/>
      <polygon class="d" points="9 47.42 9.06 46.6 8.57 46.52 8.65 46.98 9 47.42"/>
    </g>
  </g>
</svg>