<?xml version="1.0" encoding="UTF-8"?>
<svg id="b" data-name="圖層 2" xmlns="http://www.w3.org/2000/svg" width="414.82" height="537.81" viewBox="0 0 414.82 537.81">
  <defs>
    <style>
      .d, .e {
        fill: #fff;
      }

      .f {
        fill: #4d4d4d;
      }

      .g {
        fill: #df6432;
      }

      .h {
        fill: none;
      }

      .h, .e {
        stroke: #df6432;
        stroke-miterlimit: 10;
        stroke-width: 2.88px;
      }
    </style>
  </defs>
  <g id="c" data-name="圖層 2">
    <g>
      <polygon class="f" points="289.82 185.85 293.42 161.42 285.66 157.57 289.82 185.85"/>
      <polygon class="f" points="203.76 25.21 201.52 22.61 201.02 25.25 203.76 25.21"/>
      <polygon class="f" points="201.02 25.25 197.49 25.31 200.14 29.96 201.02 25.25"/>
      <polygon class="f" points="276.16 158.94 276.6 155.89 277.23 160.14 283.72 167.4 285.2 157.34 266.38 148 276.16 158.94"/>
      <polygon class="f" points="15.31 315.91 14.31 322.43 16.8 325.55 15.31 315.91"/>
      <polygon class="f" points="279.22 173.67 281.01 185.85 283.47 169.14 282.19 168.51 279.22 173.67"/>
      <polygon class="f" points="404.19 184.31 402.65 173.84 397.68 173.64 404.19 184.31"/>
      <polygon class="f" points="404.42 185.85 404.56 184.91 404.19 184.31 404.42 185.85"/>
      <polygon class="f" points="173.34 337.41 150.16 339.24 149.65 342.56 173.34 337.41"/>
      <polygon class="f" points="16.8 325.55 17.39 329.41 19.89 329.42 16.8 325.55"/>
      <polygon class="f" points="370.21 27.09 370.21 27.09 368.52 25.2 367.95 22.2 367.95 22.2 363.89 .66 358.34 30.07 384.49 43.05 370.21 27.09"/>
      <polygon class="f" points="143.38 343.92 149.02 345.15 148.66 342.77 143.38 343.92"/>
      <polygon class="f" points="285.2 157.34 285.66 157.57 285.41 155.89 285.2 157.34"/>
      <polygon class="f" points="278.08 165.92 282.5 167.98 282.19 168.51 283.47 169.14 283.72 167.4 277.23 160.14 278.08 165.92"/>
      <polygon class="f" points="278.17 166.51 279.22 173.67 282.19 168.51 278.17 166.51"/>
      <polygon class="f" points="148.66 342.77 149.02 345.15 149.24 345.2 149.65 342.56 148.66 342.77"/>
      <polygon class="f" points="275.26 165.07 272.2 185.85 279.22 173.67 278.17 166.51 275.26 165.07"/>
      <polygon class="f" points="293.71 161.57 293.44 161.26 293.42 161.42 293.71 161.57"/>
      <polygon class="f" points="286.72 170.75 283.72 167.4 283.47 169.14 286.72 170.75"/>
      <polygon class="f" points="278.08 165.92 275.32 164.63 275.26 165.07 278.17 166.51 278.08 165.92"/>
      <polygon class="f" points="282.19 168.51 282.5 167.98 278.08 165.92 278.17 166.51 282.19 168.51"/>
      <polygon class="f" points="277.23 160.14 276.16 158.94 275.32 164.63 278.08 165.92 277.23 160.14"/>
      <polygon class="f" points="259.38 157.19 275.26 165.07 275.32 164.63 259.38 157.19"/>
      <polygon class="f" points="276.6 155.89 276.16 158.94 277.23 160.14 276.6 155.89"/>
      <polygon class="f" points="399.56 224.11 367.17 218.45 384.33 246.5 351.93 240.84 369.09 268.91 336.69 263.23 353.83 291.3 321.44 285.64 338.58 313.71 306.18 308.05 323.34 336.11 290.94 330.44 308.08 358.5 275.69 352.85 292.83 380.93 260.43 375.25 277.57 403.34 245.18 397.68 262.32 425.74 229.92 420.09 247.06 448.17 214.66 442.49 231.81 470.56 199.41 464.9 216.55 492.98 184.15 487.33 201.28 515.39 168.88 509.75 186.02 537.81 165.01 534.16 173.35 532.36 143.38 525.85 173.35 519.37 143.38 512.88 173.35 506.37 143.38 499.88 173.35 493.39 143.38 486.88 173.35 480.39 143.38 473.9 173.35 467.4 143.38 460.91 173.35 454.4 143.38 447.91 173.35 441.41 143.38 434.92 173.35 428.41 143.38 421.92 173.35 415.43 143.38 408.92 173.35 402.44 143.38 395.93 173.35 389.44 143.38 382.93 173.35 376.43 143.38 369.94 173.35 363.43 143.38 356.92 173.35 350.43 149.24 345.2 149.65 342.55 173.35 337.4 146.69 337.41 144.52 315.91 139.92 345.88 135.29 315.91 130.69 345.88 126.07 315.91 121.47 345.88 116.85 315.91 112.22 345.88 107.62 315.91 103 345.88 98.4 315.91 93.78 345.88 89.17 315.91 84.55 345.88 79.95 315.91 75.33 345.88 70.72 315.91 66.1 345.88 61.5 315.91 56.88 345.88 52.26 315.91 47.64 345.88 43.03 315.91 38.41 345.88 33.79 315.91 29.17 345.88 24.55 315.91 19.93 345.88 16.8 325.58 0 304.51 31.24 310.85 11.35 285.95 42.59 292.28 22.7 267.36 53.94 273.71 34.04 248.79 65.29 255.13 45.39 230.22 76.63 236.56 56.76 211.64 88 217.98 68.11 193.05 99.35 199.39 79.45 174.49 110.71 180.81 90.82 155.9 122.06 162.24 102.17 137.32 133.43 143.64 113.53 118.71 144.77 125.05 124.9 100.13 156.14 106.47 136.25 81.56 167.49 87.88 147.61 62.96 178.85 69.3 158.98 44.37 190.22 50.71 170.32 25.77 197.49 25.31 197.51 25.33 197.51 25.31 197.49 25.31 184.99 3.4 201.5 22.59 201.53 22.58 205.78 0 211.42 29.95 217.06 0 222.72 29.95 228.36 0 234 29.95 239.65 0 245.29 29.95 250.93 0 256.59 29.95 262.23 0 267.87 29.95 273.53 0 279.17 29.95 284.83 0 290.47 29.95 296.11 0 301.75 29.95 307.4 0 313.04 29.95 318.68 0 324.34 29.95 329.98 0 335.64 29.95 341.28 0 346.93 29.95 352.59 0 358.25 30.02 377.51 51.54 350.18 37.97 370.53 60.72 343.2 47.14 363.55 69.87 336.21 56.3 356.57 79.05 329.23 65.47 349.58 88.22 322.25 74.63 342.6 97.38 315.27 83.8 335.62 106.53 308.3 92.96 328.64 115.69 301.32 102.12 321.66 124.86 294.34 111.29 314.67 134.04 287.34 120.46 307.69 143.21 280.36 129.65 300.69 152.38 273.38 138.83 293.44 161.25 293.42 161.42 285.66 157.57 285.42 155.88 285.2 157.35 285.66 157.57 289.82 185.85 293.42 161.42 293.71 161.56 293.44 161.25 294.24 155.88 298.64 185.85 303.04 155.88 307.45 185.85 311.85 155.88 316.25 185.85 320.67 155.88 325.07 185.85 329.47 155.88 333.87 185.85 338.29 155.88 342.69 185.85 347.09 155.88 351.49 185.85 355.9 155.88 360.3 185.85 364.72 155.88 369.12 185.85 373.54 155.88 377.96 185.85 382.36 155.88 386.77 185.85 391.17 155.88 395.59 185.85 414.82 201.7 382.42 196.04 399.56 224.11"/>
    </g>
    <g>
      <g>
        <g>
          <path class="e" d="M305.35,74.51l14.07,2.05c0-.46,.02-.91,.02-1.37,0,.46,0,.91,0,1.37-.35,28.32-11.38,51.05-24.94,51.05-13.78,0-24.94-23.46-24.94-52.42,0-1.98,.05-3.93,.15-5.85"/>
          <path class="g" d="M291.67,75.19c0,16.12,6.19,29.2,13.88,29.2s13.53-12.34,13.87-27.83l-14.07-2.05,.21,.68-13.86-1.83c-.03,.6-.03,1.2-.03,1.83Z"/>
        </g>
        <polyline class="h" points="259.24 67.81 269.7 69.34 305.35 74.51 319.42 76.55 319.43 76.55 322.71 77.03"/>
      </g>
      <g>
        <g>
          <path class="e" d="M368.54,74.51l14.07,2.05c0-.46,.02-.91,.02-1.37,0,.46,0,.91,0,1.37-.35,28.32-11.38,51.05-24.94,51.05-13.78,0-24.94-23.46-24.94-52.42,0-1.98,.05-3.93,.15-5.85"/>
          <path class="g" d="M354.86,75.19c0,16.12,6.19,29.2,13.88,29.2,7.44,0,13.53-12.34,13.87-27.83l-14.07-2.05,.21,.68-13.86-1.83c-.03,.6-.03,1.2-.03,1.83Z"/>
        </g>
        <polyline class="h" points="322.42 67.81 332.89 69.34 368.54 74.51 382.61 76.55 382.62 76.55 385.89 77.03"/>
      </g>
    </g>
    <path class="d" d="M291.87,280.65h-28.22v21.18h-18.76v-21.18h-30.71v-13.09h30.71v-11.55h-13.78c-1.99,3.72-4.15,7.06-6.64,9.88-2.82-1.54-8.8-3.98-12.95-5.39v27.08c0,6.03-1.33,9.88-6.31,12.06-5.15,2.18-11.95,2.57-22.08,2.57-.5-3.72-3.15-9.5-5.64-12.96,6.64,.26,13.11,.26,15.11,.26s2.82-.51,2.82-2.18v-18.48h-33.03c-1.66,12.06-5.48,24.51-13.11,33.75-2.82-2.05-9.96-5.52-13.61-6.8,11.12-13.22,11.95-32.34,11.95-46.72v-18.99c-3.32-2.57-9.46-6.42-12.95-8.21,11.29-9.37,20.09-24.38,24.57-39.4l17.43,2.82c-1,3.08-2.16,6.16-3.49,9.11h15.11l2.49-.64,11.29,5.39c-2.32,5.01-5.64,10.91-9.13,16.17h18.59v7.83c13.78-4.88,18.76-12.32,21.08-21.69h-18.59v-12.45h73.7s-.17,3.21-.33,4.88c-.83,20.41-2.16,29.26-5.81,32.6-2.82,2.69-5.98,3.72-10.13,4.24-3.65,.38-10.13,.51-16.77,.38-.33-3.98-1.99-9.11-4.48-12.32,5.15,.39,9.63,.51,11.95,.51,1.99,0,3.32-.26,4.48-1.41,1.49-1.41,2.32-5.78,2.99-16.43h-19.26c-2.82,13.35-9.13,24-26.06,31.19l14.77,2.31c-.66,2.7-1.33,5.52-2.32,8.21h8.13v-11.55h18.76v11.55h24.9v12.83h-24.9v11.55h28.22v13.09Zm-124.17-74.69c-1.83,3.21-3.65,6.42-5.64,9.37h14.28c1.66-2.82,3.15-6.16,4.65-9.37h-13.28Zm-4.15,43.12c0,2.7,0,5.52-.17,8.47h9.63v-10.65h-9.46v2.18Zm0-12.96h9.46v-9.63h-9.46v9.63Zm22.41,0h9.46v-9.63h-9.46v9.63Zm9.46,21.43v-10.65h-9.46v10.65h9.46Zm16.1,.77c5.48-6.55,9.46-15.91,11.45-25.03-1.16,.39-2.32,.9-3.49,1.28-1.49-2.57-4.81-6.16-7.97-8.73v32.47Z"/>
  </g>
</svg>