<?xml version="1.0" encoding="UTF-8"?>
<svg id="b" data-name="圖層 2" xmlns="http://www.w3.org/2000/svg" width="484.79" height="463.67" xmlns:xlink="http://www.w3.org/1999/xlink" viewBox="0 0 484.79 463.67">
  <defs>
    <style>
      .e, .f {
        fill: #fff;
      }

      .g {
        fill: #4d4d4d;
      }

      .h {
        fill: url(#d);
      }

      .i {
        fill: #df6432;
      }

      .j {
        fill: none;
      }

      .j, .f {
        stroke: #df6432;
        stroke-miterlimit: 10;
        stroke-width: 2.88px;
      }
    </style>
    <radialGradient id="d" data-name="未命名漸層 32" cx="256.18" cy="235.05" fx="256.18" fy="235.05" r="228.62" gradientTransform="matrix(1, 0, 0, 1, 0, 0)" gradientUnits="userSpaceOnUse">
      <stop offset="0" stop-color="#4d4d4d"/>
      <stop offset=".25" stop-color="#4d4d4d" stop-opacity=".96"/>
      <stop offset=".47" stop-color="#4d4d4d" stop-opacity=".82"/>
      <stop offset=".68" stop-color="#4d4d4d" stop-opacity=".58"/>
      <stop offset=".87" stop-color="#4d4d4d" stop-opacity=".26"/>
      <stop offset="1" stop-color="#4d4d4d" stop-opacity="0"/>
    </radialGradient>
  </defs>
  <g id="c" data-name="圖層 2">
    <g>
      <circle class="h" cx="256.18" cy="235.05" r="228.62"/>
      <ellipse class="g" cx="145.35" cy="129.98" rx="121.02" ry="129.98"/>
      <ellipse class="g" cx="281.28" cy="168.06" rx="120.27" ry="129.17"/>
      <ellipse class="g" cx="388.16" cy="232.94" rx="52.09" ry="55.94"/>
      <ellipse class="g" cx="141.19" cy="270.25" rx="121.02" ry="129.98"/>
      <ellipse class="g" cx="283.02" cy="299.42" rx="120.27" ry="129.17"/>
      <g>
        <g>
          <g>
            <path class="f" d="M80.75,65.64l-14.07,2.05c0-.46-.02-.91-.02-1.37,0,.46,0,.91,0,1.37,.35,28.32,11.38,51.05,24.94,51.05,13.78,0,24.94-23.46,24.94-52.42,0-1.98-.05-3.93-.15-5.85"/>
            <path class="i" d="M94.42,66.32c0,16.12-6.19,29.2-13.88,29.2s-13.53-12.34-13.87-27.83l14.07-2.05-.21,.68,13.86-1.83c.03,.6,.03,1.2,.03,1.83Z"/>
          </g>
          <polyline class="j" points="126.86 58.95 116.4 60.47 80.75 65.64 66.67 67.69 66.67 67.69 63.39 68.17"/>
        </g>
        <g>
          <g>
            <path class="f" d="M17.56,65.64l-14.07,2.05c0-.46-.02-.91-.02-1.37,0,.46,0,.91,0,1.37,.35,28.32,11.38,51.05,24.94,51.05,13.78,0,24.94-23.46,24.94-52.42,0-1.98-.05-3.93-.15-5.85"/>
            <path class="i" d="M31.24,66.32c0,16.12-6.19,29.2-13.88,29.2-7.44,0-13.53-12.34-13.87-27.83l14.07-2.05-.21,.68,13.86-1.83c.03,.6,.03,1.2,.03,1.83Z"/>
          </g>
          <polyline class="j" points="63.68 58.95 53.21 60.47 17.56 65.64 3.49 67.69 3.48 67.69 .21 68.17"/>
        </g>
      </g>
      <path class="e" d="M169.22,192.35v23.1c0,22.59-2.82,56.86-20.42,78.42-3.82-2.57-12.78-6.55-18.09-7.96,16.77-20.02,18.09-49.67,18.09-70.46v-37.86h132.47v14.76h-112.05Zm85.32,83.42c10.96,0,12.95-2.95,14.61-17.2,4.65,2.44,13.11,5.01,18.92,5.9-3.15,19.64-9.46,25.8-32.04,25.8h-41c-25.56,0-33.37-4.75-33.37-22.84v-64.56h86.32v37.99c0,7.7-2.49,11.81-10.62,13.99-7.97,2.31-19.42,2.31-35.19,2.31-1.16-4.36-4.65-10.52-7.64-14.5,11.45,.51,25.56,.51,28.88,.39,3.65-.13,4.81-.64,4.81-2.57v-22.97h-46.31v49.8c0,7.32,1.99,8.47,14.44,8.47h38.18Z"/>
    </g>
  </g>
</svg>