<?xml version="1.0" encoding="UTF-8"?>
<svg id="b" data-name="圖層 2" xmlns="http://www.w3.org/2000/svg" width="183.27" height="227.02" viewBox="0 0 183.27 227.02">
  <defs>
    <style>
      .d {
        fill: #666;
      }
    </style>
  </defs>
  <g id="c" data-name="說明">
    <g>
      <polygon class="d" points="37.3 184.28 37.12 184.41 37.04 183.95 34.25 180.47 33.95 184.58 32.92 178.81 31.36 176.87 32.6 177.06 31.7 172.06 30.88 183.5 39.51 187.04 37.3 184.28"/>
      <polygon class="d" points="114.8 76.71 115.49 68.5 111.74 66.26 114.8 76.71"/>
      <polygon class="d" points="110.71 70.14 111.07 65.86 106.79 63.32 110.71 70.14"/>
      <polygon class="d" points="69.75 147.84 70.4 143.3 71.63 151.9 72.13 152.97 71.82 153.22 72.21 155.92 73.84 144.53 66.7 141.24 69.75 147.84"/>
      <polygon class="d" points="75.82 155.92 77.23 146.1 74.22 144.71 75.82 155.92"/>
      <polygon class="d" points="34.87 171.89 34.47 177.35 35.89 177.57 34.87 171.89"/>
      <polygon class="d" points="118.35 70.2 117.58 69.74 119.49 76.24 120.55 63.44 124.17 75.76 125.14 64.1 114.02 57.47 118.35 70.2"/>
      <polygon class="d" points="39.38 102.15 39.98 105.85 41.49 106.14 39.38 102.15"/>
      <polygon class="d" points="38.93 99.3 38.72 100.9 39.38 102.15 38.93 99.3"/>
      <polygon class="d" points="71.76 98.8 70.99 104.76 72.79 105.24 71.76 98.8"/>
      <polygon class="d" points="28.53 172.23 27.81 182.25 30.54 183.37 28.53 172.23"/>
      <polygon class="d" points="12.06 222.95 0 218 5.24 224.53 4.53 220.87 17.22 227.02 15.36 217.49 3.9 212.79 12.06 222.95"/>
      <polygon class="d" points="77.23 146.1 78.09 146.5 77.63 143.3 77.23 146.1"/>
      <polygon class="d" points="125.57 64.36 125.21 63.29 125.14 64.1 125.57 64.36"/>
      <polygon class="d" points="112.85 73.85 110.71 70.14 110.13 77.19 112.85 73.85"/>
      <polygon class="d" points="73.84 144.53 74.22 144.71 74.01 143.3 73.84 144.53"/>
      <polygon class="d" points="70.4 143.3 69.75 147.84 71.63 151.9 70.4 143.3"/>
      <polygon class="d" points="69.75 147.84 68.59 155.92 71.82 153.22 71.63 151.9 69.75 147.84"/>
      <polygon class="d" points="111.07 65.86 111.74 66.26 111.19 64.4 111.07 65.86"/>
      <polygon class="d" points="178.03 0 176.92 13.1 170.81 1.46 169.71 14.56 163.6 2.92 162.49 16.02 156.38 4.38 155.27 17.48 149.16 5.84 148.06 18.94 141.95 7.3 140.85 20.4 134.74 8.76 133.64 21.86 127.53 10.22 126.43 23.32 120.32 11.68 119.21 24.78 113.11 13.14 112 26.23 103.7 15.49 105.49 32.32 92.76 27.74 99.09 39.7 86.35 35.13 92.69 47.09 79.95 42.52 86.28 54.48 73.55 49.9 79.88 61.86 67.15 57.28 73.48 69.24 60.75 64.66 67.09 76.62 54.35 72.04 60.69 84 47.96 79.42 54.29 91.38 41.56 86.8 47.89 98.76 35.16 94.18 39.26 101.91 39.98 105.85 40.95 111.89 42.58 99.25 44.6 111.84 46.23 99.19 48.25 111.78 49.88 99.14 51.9 111.73 53.53 99.08 55.55 111.67 57.18 99.02 59.19 111.61 60.83 98.97 62.76 111.05 62.9 111.12 64.47 98.91 66.49 111.5 68.12 98.85 68.98 104.21 71.76 98.8 81.3 107.53 73.78 111.39 72.79 105.24 73.58 116.01 62.9 111.12 62.84 111.56 62.76 111.05 61.38 110.42 67.18 122.52 54.97 116.94 60.78 129.04 48.57 123.45 54.37 135.56 42.17 129.97 47.97 142.07 35.77 136.48 41.57 148.58 29.37 142.99 35.17 155.09 22.97 149.5 28.77 161.6 16.58 156.01 22.38 168.1 10.18 162.52 13.81 180.33 15.85 172.9 18.1 185.42 19.02 172.73 21.27 185.25 22.19 172.56 24.45 185.08 25.36 172.4 27.62 184.91 27.79 182.53 27.45 182.1 27.81 182.25 28.53 172.23 30.54 183.37 30.88 183.5 31.7 172.06 32.6 177.06 34.47 177.35 34.87 171.89 35.89 177.57 44.61 178.94 37.3 184.28 39.51 187.04 30.88 183.5 30.79 184.74 30.54 183.37 27.81 182.25 27.79 182.53 35.6 192.27 23.54 187.33 31.7 197.5 19.64 192.55 27.79 202.72 15.73 197.78 23.89 207.94 11.83 203 19.99 213.16 7.93 208.22 15.36 217.49 14.65 213.83 27.35 219.98 24.65 206.13 37.34 212.29 34.64 198.44 47.34 204.6 44.64 190.75 57.33 196.91 54.63 183.06 67.32 189.22 64.62 175.37 77.31 181.52 74.61 167.68 87.31 173.83 84.61 159.99 97.3 166.14 94.6 152.3 93.92 155.92 92.12 143.3 90.31 155.92 88.49 143.3 86.68 155.92 84.87 143.3 83.06 155.92 81.25 143.3 79.44 155.92 78.09 146.5 77.23 146.1 75.82 155.92 74.22 144.71 73.84 144.53 72.21 155.92 71.82 153.22 68.59 155.92 69.75 147.84 66.7 141.24 73.84 144.53 74.01 143.3 74.22 144.71 77.23 146.1 77.63 143.3 78.09 146.5 79.2 147.01 74.91 133.93 87.4 139.7 83.11 126.63 95.6 132.4 91.31 119.33 103.8 125.1 99.51 112.02 112 117.8 107.7 104.73 120.19 110.5 115.9 97.43 128.38 103.21 124.09 90.14 136.58 95.91 132.28 82.84 144.77 88.61 140.48 75.54 152.97 81.32 148.68 68.24 151.29 69.45 148.68 60.58 147.61 73.37 143.99 61.06 142.92 73.85 139.3 61.53 138.23 74.33 134.61 62.01 133.54 74.8 129.92 62.49 128.86 75.28 125.23 62.97 125.21 63.29 125.57 64.36 125.14 64.1 124.17 75.76 120.55 63.44 119.49 76.24 117.58 69.74 115.49 68.5 114.8 76.71 111.74 66.26 111.07 65.86 110.71 70.14 112.85 73.85 110.13 77.19 110.71 70.14 106.79 63.32 111.07 65.86 111.19 64.4 111.74 66.26 115.49 68.5 115.87 63.92 117.58 69.74 118.35 70.2 114.02 57.47 125.14 64.1 125.21 63.29 121.24 51.63 132.78 58.52 128.45 45.79 140 52.67 135.67 39.94 147.22 46.83 142.89 34.11 154.43 41 150.1 28.27 161.64 35.16 157.31 22.43 168.85 29.33 164.52 16.6 176.06 23.49 171.73 10.76 183.27 17.65 178.03 0"/>
      <polygon class="d" points="30.88 183.5 30.54 183.37 30.79 184.74 30.88 183.5"/>
      <polygon class="d" points="115.49 68.5 117.58 69.74 115.87 63.92 115.49 68.5"/>
      <polygon class="d" points="70.4 109.35 71.78 98.63 68.98 104.21 69.5 107.45 70.4 109.35"/>
      <polygon class="d" points="70.13 111.44 70.4 109.35 69.5 107.45 70.13 111.44"/>
      <polygon class="d" points="62.9 111.12 62.76 111.05 62.84 111.56 62.9 111.12"/>
      <polygon class="d" points="81.3 107.53 72.79 105.24 73.78 111.39 81.3 107.53"/>
      <polygon class="d" points="37.3 184.28 44.61 178.94 35.89 177.57 37.04 183.95 37.3 184.28"/>
      <polygon class="d" points="33.95 184.58 34.25 180.47 32.92 178.81 33.95 184.58"/>
      <polygon class="d" points="27.45 182.1 27.79 182.53 27.81 182.25 27.45 182.1"/>
      <polygon class="d" points="34.25 180.47 34.47 177.35 32.6 177.06 32.92 178.81 34.25 180.47"/>
    </g>
  </g>
</svg>