<svg height="84.67" viewBox="0 0 1013.61 84.67" width="1013.61" xmlns="http://www.w3.org/2000/svg"><g fill="#e8b356" opacity=".2"><path d="m29.13 61.63v-21.79h62.13a14.9 14.9 0 0 0 6.29-1.18q2.55-1.19 2.55-5t-2.55-5.11a15.77 15.77 0 0 0 -6.29-1.12h-60.13v54.74h-31.13v-79.68h86.41a110.82 110.82 0 0 1 17.49 1.31 43.67 43.67 0 0 1 14.26 4.67 24.41 24.41 0 0 1 9.58 9.46q3.49 6.11 3.49 15.69t-3.49 15.19a21.36 21.36 0 0 1 -9.58 8.34 46.76 46.76 0 0 1 -14.26 3.61 165.34 165.34 0 0 1 -17.49.87z"/><path d="m146.79 82.17v-79.68h96.21a74.88 74.88 0 0 1 20.39 2.51 29.27 29.27 0 0 1 14.32 8.53q5.3 6 5.29 16.31a23.12 23.12 0 0 1 -2.49 11.33 17.8 17.8 0 0 1 -6.85 7 32.42 32.42 0 0 1 -10 3.61 75.22 75.22 0 0 1 -11.66 1.39l-9.09-1.75a186.67 186.67 0 0 1 22.85 1.25q8 1.11 11.2 4c2.12 1.95 3.18 4.76 3.18 8.41v17h-31.14v-13.23a9.45 9.45 0 0 0 -1.43-5.66c-1-1.29-3-2.18-6.23-2.68a104.67 104.67 0 0 0 -14.75-.75h-48.67v22.41zm31.13-43.17h65.08a14.23 14.23 0 0 0 6.28-1.24c1.7-.83 2.56-2.41 2.56-4.73a4.42 4.42 0 0 0 -2.56-4.42 14.84 14.84 0 0 0 -6.28-1.22h-65.08z"/><path d="m374.27 84.67q-27.15 0-43.71-4.8t-24.09-14.19q-7.53-9.41-7.53-23.35t7.53-23.33q7.53-9.4 24.09-14.2t43.71-4.8q27.14 0 43.73 4.79t24.06 14.21q7.53 9.41 7.53 23.34t-7.53 23.35q-7.53 9.4-24.06 14.18t-43.73 4.8zm0-23.66a136.57 136.57 0 0 0 22.16-1.56q9.33-1.55 14.44-5.6t5.13-11.52q0-7.47-5.11-11.51t-14.44-5.61a137.82 137.82 0 0 0 -22.16-1.55 143.8 143.8 0 0 0 -22.48 1.55q-9.65 1.56-15.06 5.61t-5.42 11.51q0 7.47 5.42 11.52t15.06 5.6a142.49 142.49 0 0 0 22.46 1.55z"/><path d="m539.73 41.21v-38.72h31.13v42.51a32.51 32.51 0 0 1 -3.17 13.88 36.09 36.09 0 0 1 -10 12.39 50.78 50.78 0 0 1 -17.44 8.9q-10.63 3.3-25.46 3.3a107 107 0 0 1 -20.35-1.93 63.1 63.1 0 0 1 -18.12-6.29 35.37 35.37 0 0 1 -12.95-11.64q-4.86-7.28-5-18h29.88q1.74 7.73 8 11t18.49 3.23q10.33 0 15.69-2.36t7.29-6.6a23 23 0 0 0 2.01-9.67z"/><path d="m619.42 48.56v10h94.58v23.61h-125.71v-79.68h125.5v23.66h-94.37v10h77.19v12.41z"/><path d="m875.28 48.93a29.15 29.15 0 0 1 -8.59 19.8q-8 8-23.47 12t-39.16 4a245.43 245.43 0 0 1 -32.37-1.93q-14.31-1.93-24.4-6.6a36.15 36.15 0 0 1 -15.44-12.77q-5.36-8.14-5.35-20.43t5.35-20.61a37.28 37.28 0 0 1 15.44-13.2q10.08-4.92 24.4-7a223.17 223.17 0 0 1 32.37-2.19q23.66 0 39.22 4.3t23.53 12.63a30.76 30.76 0 0 1 8.6 20.3h-32.41a16 16 0 0 0 -5.47-7q-4-3-12-4.79t-21.54-1.74q-15.93 0-25.89 1.93t-14.5 6.12a14.5 14.5 0 0 0 -4.6 11.25 13 13 0 0 0 4.61 10.33q4.6 4 14.57 5.85t25.88 1.82q13.58 0 21.48-1.62t11.89-4.38a15.73 15.73 0 0 0 5.48-6z"/><path d="m884.12 2.49h129.49v23.66h-129.49zm49.18 22h31.13v57.68h-31.13z"/></g><g fill="#ca954a"><path d="m426 64.1c-1.72.49-3.45.93-5.22 1.42v10.75c0 2.57-.49 3.85-2 4.65s-3.59 1-6.69.93a18.44 18.44 0 0 0 -1.5-4.78c1.77.09 3.58.09 4.16.09s.84-.22.84-.89v-9.38l-4.59 1.11-1.37-5c1.73-.36 3.81-.84 6-1.37v-7.71h-5.44v-4.87h5.44v-8.41h5.18v8.41h5.14v4.87h-5.14v6.46l4.56-1.15zm23.51 12.48c0 2.48-.49 3.77-2.13 4.56s-3.85.89-6.9.89a20 20 0 0 0 -1.48-4.87c1.73.09 3.77.09 4.34.09s.8-.22.8-.75v-3c-4 1.15-8 2.21-11.33 3.09l-1.27-3.59a22.64 22.64 0 0 1 -3.85 9.3 25.49 25.49 0 0 0 -4.52-2.92c3.54-4.47 3.9-10.85 3.9-15.36v-7.22h22.44zm-1.37-22h-20v-12.48h20zm-6.78 14.7a45.85 45.85 0 0 0 -9.11-3 38.55 38.55 0 0 1 -.49 5.31c3.24-.59 7.83-1.59 12.35-2.49v-7.83h-11.82v2.87 1.91l1.94-3.37a39.38 39.38 0 0 1 9.3 2.66zm1.64-23h-9.87v4.07h9.87z"/><path d="m462.83 61.05c0 6.06-.53 14.52-3.23 20a18.65 18.65 0 0 0 -3.6-2.74c2.3-5 2.52-12.22 2.52-17.62v-13.76h7.88v-6.33h4.87v1.81h8.1v3h-8.1v1.51h6.15l.62-.18 3.15.75c-.67 2.08-1.42 4.47-2.13 6.11l-3.72-.89c.23-.66.49-1.5.76-2.39h-6.29v1.42l5.05-.53.35 2.3-5.4.62c0 .71.27.93 1.06.93h4.78a17.62 17.62 0 0 0 3.1-.22c.05.84.09 1.73.22 2.52a15.29 15.29 0 0 1 -3.14.22h-5.58c-2.74 0-3.58-.93-3.72-3.14l-3 .35-.35-2.34 3.36-.36v-1.76h-3.71v8.1h16.82v2.62zm27.88-3.85c1.07 8.58 3.15 16.42 7.44 20.58a18.74 18.74 0 0 0 -3.67 4.22c-2.84-3.1-4.74-7.53-6-12.79a32.07 32.07 0 0 1 -6.48 12.79 17.24 17.24 0 0 0 -2.39-2.34 2.12 2.12 0 0 1 -1 1.19 8 8 0 0 1 -3.85.58 11.11 11.11 0 0 0 -1-3.14h1.9c.31 0 .4-.09.4-.45v-6.21h-2.21l1.73.7c-.58.76-1.11 1.46-1.6 2.13h1.86v2.21h-3.28v4.25h-3.05v-4.25h-3.32v-2.21h1.81a15.39 15.39 0 0 0 -1.24-2l1.82-.79h-2.39v9.73h-3.68v-12.4h17.31v7.3c4.16-5.71 5.22-13 5.45-19.07h-5.1v-4.82h5.18v-11.68h5v11.68h7.12v4.79zm-26 10.71v-5.76h12.92v5.76zm3.36-2.22h6v-1.32h-6zm3 8.77a25.23 25.23 0 0 0 1.82-2.83h-3.81a10 10 0 0 1 1.72 2.83zm22.49-23.37a28.9 28.9 0 0 0 -3.15-7.57l3.9-1.42a28.6 28.6 0 0 1 3.41 7.35z"/><path d="m520.63 68.39c-5.36 2-11.11 4.12-15.54 5.71l-2.17-5c1.69-.49 3.81-1.11 6.11-1.82v-17h-4.91v-4.9h15.14v4.87h-4.91v15.36l5.44-1.78zm5.84 4.87 4.08 2.88a41 41 0 0 1 -11.47 5.8 26.6 26.6 0 0 0 -3.18-3.59 35.36 35.36 0 0 0 10.22-5.09h-4.47v-23.37h7c.22-1 .4-2.08.57-3h-9.34v-4.48h25.06v4.43h-9.78c-.36 1.06-.76 2.08-1.11 3h9.25v23.42zm0-16.68h11.6v-2.79h-11.6zm0 6.37h11.6v-2.83h-11.6zm0 6.46h11.6v-2.83h-11.6zm10.31 4a65.44 65.44 0 0 1 8.81 5.53l-4.11 3.06a64.52 64.52 0 0 0 -8.54-5.85z"/><path d="m586.63 43v38.5h-5.58v-2.75h-20.5v2.75h-5.31v-38.5zm-26.08 5.14v5.08h20.5v-5.05zm0 10v5.23h20.5v-5.16zm20.5 15.41v-5.16h-20.5v5.23z"/></g></svg>