<?xml version="1.0" encoding="UTF-8"?>
<svg id="_圖層_2" data-name="圖層 2" xmlns="http://www.w3.org/2000/svg" width="39.16" height="39.16" viewBox="0 0 39.16 39.16">
  <g id="_圖層_1-2" data-name="圖層 1">
    <g>
      <circle cx="19.58" cy="19.58" r="19.58" transform="translate(-1.55 37.48) rotate(-85.27)" style="fill: #ec6531;"/>
      <g>
        <path d="M18.34,23.63s-.06,.09-.1,.13c-.61,.61-1.23,1.23-1.84,1.84-.33,.33-.71,.59-1.17,.72-1.16,.33-2.28-.34-2.48-1.53-.12-.7,.13-1.3,.57-1.84,.06-.07,.13-.14,.2-.21,1.16-1.16,2.33-2.32,3.49-3.49,.89-.9,2.3-1.07,3.21-.17,.43,.43,1.16,.34,1.56-.1,.42-.47,.41-1.16-.04-1.6-.84-.83-1.87-1.22-3.04-1.2-1.3,.02-2.4,.53-3.31,1.44-1.17,1.16-2.33,2.33-3.49,3.49-.67,.67-1.13,1.45-1.34,2.37-.06,.24-.38,1.16,.17,2.53,.7,1.85,2.6,2.95,4.58,2.64,1.06-.16,1.96-.65,2.71-1.41,1.04-1.03,2.07-2.07,3.11-3.11,.03-.03,.05-.06,.07-.08-.99,.23-1.92,.07-2.84-.44Z" style="fill: #fff;"/>
        <path d="M28.41,13.13c-.95-2.28-4.2-3.96-7.14-1.38-1.16,1.02-2.2,2.18-3.29,3.28-.01,.01-.02,.03-.02,.04,.99-.21,1.91-.06,2.81,.45,.03-.04,.07-.09,.12-.14,.61-.61,1.21-1.23,1.83-1.82,.23-.22,.5-.43,.78-.58,1.26-.65,2.67,.03,2.88,1.39,.12,.76-.16,1.41-.68,1.94-1.21,1.23-2.44,2.46-3.67,3.67-.83,.82-2.19,.97-3.08,.1-.45-.44-1.16-.38-1.58,.07-.43,.46-.43,1.16,.03,1.61,.21,.21,.45,.4,.71,.56,1.68,1.06,3.9,.8,5.31-.52,1.37-1.27,2.78-2.51,3.98-3.95,1.95-2.35,1.36-3.89,1.02-4.72Z" style="fill: #fff;"/>
      </g>
    </g>
  </g>
</svg>