<?xml version="1.0" encoding="UTF-8"?>
<svg id="_圖層_2" data-name="圖層 2" xmlns="http://www.w3.org/2000/svg" width="332.95" height="25.63" viewBox="0 0 332.95 25.63">
  <g id="_圖層_1-2" data-name="圖層 1">
    <g style="opacity: .2;">
      <g>
        <path d="M27.14,.75c3.39,0,6.2,.33,8.41,.98,2.21,.65,3.95,1.55,5.2,2.68,1.26,1.13,2.14,2.42,2.66,3.86,.51,1.45,.77,2.96,.77,4.54s-.29,3.1-.87,4.54-1.53,2.73-2.85,3.86c-1.32,1.13-3.07,2.02-5.24,2.68-2.17,.65-4.87,.98-8.09,.98H0V.75H27.14ZM9.42,17.34H26.77c1.41,0,2.6-.09,3.58-.28,.98-.19,1.77-.47,2.36-.85,.59-.38,1.02-.85,1.28-1.41,.26-.57,.4-1.23,.4-1.98s-.13-1.41-.4-1.98c-.26-.57-.69-1.04-1.28-1.41-.59-.38-1.38-.66-2.36-.85-.98-.19-2.17-.28-3.58-.28H9.42v9.05Z" style="fill: #e8b356;"/>
        <path d="M70.76,25.63c-5.48,0-9.89-.48-13.23-1.45-3.34-.97-5.77-2.4-7.29-4.3-1.52-1.9-2.28-4.25-2.28-7.07s.76-5.17,2.28-7.07c1.52-1.9,3.95-3.33,7.29-4.3,3.34-.97,7.75-1.45,13.23-1.45s9.89,.48,13.23,1.45c3.34,.97,5.77,2.4,7.29,4.3,1.52,1.9,2.28,4.25,2.28,7.07s-.76,5.17-2.28,7.07c-1.52,1.9-3.95,3.33-7.29,4.3-3.34,.97-7.75,1.45-13.23,1.45Zm0-7.16c2.59,0,4.83-.16,6.71-.47,1.88-.31,3.34-.88,4.37-1.7,1.03-.82,1.54-1.98,1.54-3.49s-.51-2.67-1.54-3.49c-1.03-.82-2.49-1.38-4.37-1.7-1.88-.31-4.12-.47-6.71-.47s-4.86,.16-6.8,.47c-1.95,.31-3.47,.88-4.56,1.7-1.09,.82-1.64,1.98-1.64,3.49s.55,2.67,1.64,3.49c1.09,.82,2.61,1.38,4.56,1.7,1.95,.31,4.22,.47,6.8,.47Z" style="fill: #e8b356;"/>
        <path d="M135.52,17.49l-3.51,2V.75h9.42V24.88h-9.42l-28.39-16.44,3.51-2.04V24.88h-9.42V.75h9.42l28.39,16.74Z" style="fill: #e8b356;"/>
        <path d="M143.7,24.88L159.88,.75h10.48l16.32,24.13h-10.37l-13.99-21.6h5.62l-13.87,21.6h-10.37Zm8.44-3.66v-5.65h25.79v5.65h-25.79Z" style="fill: #e8b356;"/>
        <path d="M182.53,.75h39.21V7.92h-39.21V.75Zm14.89,6.67h9.42V24.88h-9.42V7.43Z" style="fill: #e8b356;"/>
        <path d="M225.32,.75h9.42V24.88h-9.42V.75Z" style="fill: #e8b356;"/>
        <path d="M262.26,25.63c-5.48,0-9.89-.48-13.23-1.45-3.34-.97-5.77-2.4-7.29-4.3-1.52-1.9-2.28-4.25-2.28-7.07s.76-5.17,2.28-7.07c1.52-1.9,3.95-3.33,7.29-4.3,3.34-.97,7.75-1.45,13.23-1.45s9.89,.48,13.23,1.45c3.34,.97,5.77,2.4,7.29,4.3,1.52,1.9,2.28,4.25,2.28,7.07s-.76,5.17-2.28,7.07c-1.52,1.9-3.95,3.33-7.29,4.3-3.34,.97-7.75,1.45-13.23,1.45Zm0-7.16c2.59,0,4.83-.16,6.71-.47,1.88-.31,3.34-.88,4.37-1.7,1.03-.82,1.54-1.98,1.54-3.49s-.52-2.67-1.54-3.49c-1.03-.82-2.49-1.38-4.37-1.7-1.88-.31-4.12-.47-6.71-.47s-4.86,.16-6.8,.47c-1.95,.31-3.47,.88-4.56,1.7-1.09,.82-1.64,1.98-1.64,3.49s.55,2.67,1.64,3.49c1.09,.82,2.61,1.38,4.56,1.7,1.95,.31,4.22,.47,6.8,.47Z" style="fill: #e8b356;"/>
        <path d="M327.03,17.49l-3.51,2V.75h9.42V24.88h-9.42l-28.39-16.44,3.51-2.04V24.88h-9.42V.75h9.42l28.39,16.74Z" style="fill: #e8b356;"/>
      </g>
    </g>
  </g>
</svg>