<?xml version="1.0" encoding="UTF-8"?>
<svg id="_圖層_2" data-name="圖層 2" xmlns="http://www.w3.org/2000/svg" width="39.16" height="39.16" viewBox="0 0 39.16 39.16">
  <g id="_圖層_1-2" data-name="圖層 1">
    <circle cx="19.58" cy="19.58" r="19.58" transform="translate(-6 30.18) rotate(-67.5)" style="fill: #ec6531;"/>
    <path d="M21.85,12.84c.09-.09,.39-.29,1.26-.29,.48,0,1.01,.05,1.56,.14l.86,.15,.74-4.15-.85-.16c-2.76-.52-4.97-.34-6.31,.52-.86,.55-1.48,1.29-1.83,2.19-.24,.64-.36,1.55-.36,2.78v.88h-2.57v3.93h2.57v12.1h4.64v-12.1h3.34v-3.93h-3.34v-.64c0-1.07,.24-1.36,.29-1.41Z" style="fill: #fff;"/>
  </g>
</svg>