<?xml version="1.0" encoding="UTF-8"?>
<svg id="_圖層_2" data-name="圖層 2" xmlns="http://www.w3.org/2000/svg" width="38.65" height="38.65" viewBox="0 0 38.65 38.65">
  <g id="_圖層_1-2" data-name="圖層 1">
    <g>
      <circle cx="19.32" cy="19.32" r="19.32" transform="translate(-2.85 35.3) rotate(-80.78)" style="fill: #ec6531;"/>
      <g>
        <path d="M15.71,14.92h-1.3c-.2,0-.36,.16-.36,.36v8.09c0,.2,.16,.36,.36,.36h1.3c.2,0,.36-.16,.36-.36V15.28c0-.2-.16-.36-.36-.36" style="fill: #fff;"/>
        <path d="M24.68,14.92h-1.3c-.2,0-.36,.16-.36,.36v4.81l-3.71-5.01s-.02-.02-.03-.04c0,0,0,0,0,0,0,0-.01-.02-.02-.02,0,0,0,0,0,0,0,0-.01-.01-.02-.02,0,0,0,0,0,0,0,0-.01,0-.02-.01,0,0,0,0-.01,0,0,0-.01,0-.02-.01,0,0,0,0-.01,0,0,0-.01,0-.02,0,0,0,0,0-.01,0,0,0-.01,0-.02,0,0,0,0,0-.01,0,0,0-.01,0-.02,0,0,0-.01,0-.02,0,0,0-.01,0-.02,0,0,0-.01,0-.02,0,0,0,0,0-.01,0h-1.3c-.2,0-.36,.16-.36,.36v8.09c0,.2,.16,.36,.36,.36h1.3c.2,0,.36-.16,.36-.36v-4.81l3.71,5.02s.06,.07,.09,.09c0,0,0,0,0,0,0,0,.01,0,.02,.01,0,0,0,0,.01,0,0,0,.01,0,.02,0,0,0,.01,0,.02,0,0,0,0,0,.01,0,0,0,.02,0,.02,0,0,0,0,0,0,0,.03,0,.06,.01,.09,.01h1.3c.2,0,.36-.16,.36-.36V15.28c0-.2-.16-.36-.36-.36" style="fill: #fff;"/>
        <path d="M12.57,21.7h-3.54v-6.43c0-.2-.16-.36-.36-.36h-1.3c-.2,0-.36,.16-.36,.36v8.09h0c0,.1,.04,.19,.1,.25,0,0,0,0,0,0,0,0,0,0,0,0,.06,.06,.15,.1,.25,.1h5.21c.2,0,.36-.16,.36-.36v-1.3c0-.2-.16-.36-.36-.36" style="fill: #fff;"/>
        <path d="M31.87,16.94c.2,0,.36-.16,.36-.36v-1.3c0-.2-.16-.36-.36-.36h-5.21c-.1,0-.19,.04-.25,.1,0,0,0,0,0,0,0,0,0,0,0,0-.06,.06-.1,.15-.1,.25h0v8.09h0c0,.1,.04,.19,.1,.25,0,0,0,0,0,0,0,0,0,0,0,0,.06,.06,.15,.1,.25,.1h5.21c.2,0,.36-.16,.36-.36v-1.3c0-.2-.16-.36-.36-.36h-3.54v-1.37h3.54c.2,0,.36-.16,.36-.36v-1.3c0-.2-.16-.36-.36-.36h-3.54v-1.37h3.54Z" style="fill: #fff;"/>
      </g>
    </g>
  </g>
</svg>