<?xml version="1.0" encoding="UTF-8"?>
<svg id="_圖層_2" data-name="圖層 2" xmlns="http://www.w3.org/2000/svg" width="53.44" height="14.74" viewBox="0 0 53.44 14.74">
  <g id="_圖層_1-2" data-name="圖層 1">
    <g>
      <path d="M6.94,10.33c-.12-.4-.35-.66-.69-.8-.34-.13-.92-.21-1.71-.23-.8-.02-1.45-.09-1.94-.19-1.35-.29-2.17-.97-2.48-2.03-.16-.55-.15-1.09,.04-1.62s.54-.99,1.05-1.41c.51-.41,1.13-.73,1.86-.94,.73-.21,1.42-.27,2.07-.17s1.2,.34,1.66,.73c.46,.39,.78,.89,.95,1.51l-2.11,.61c-.14-.47-.39-.79-.76-.96-.37-.17-.82-.18-1.36-.03-.52,.15-.88,.38-1.11,.68-.22,.3-.28,.63-.18,.99,.1,.33,.35,.56,.75,.69,.4,.13,.96,.19,1.67,.2,1.3,.01,2.31,.21,3.01,.58,.7,.38,1.17,.96,1.4,1.76,.26,.89,.12,1.68-.4,2.38s-1.35,1.21-2.49,1.54c-.79,.23-1.55,.29-2.28,.19-.73-.1-1.34-.35-1.83-.75-.48-.4-.82-.93-1.02-1.6l2.12-.62c.33,1.13,1.17,1.5,2.52,1.11,.5-.15,.86-.36,1.09-.65,.22-.29,.28-.61,.17-.98Z" style="fill: #ca954a;"/>
      <path d="M20.41,10.77l-2.18,.3-.63-4.53-4.24,.59,.63,4.53-2.18,.3L10.35,1.4l2.18-.3,.59,4.28,4.24-.59-.59-4.28,2.18-.3,1.46,10.56Z" style="fill: #ca954a;"/>
      <path d="M29.02,8.51l-3.85-.06-.77,2.18-2.34-.04L26.21,0l2.04,.03,3.82,10.73-2.34-.04-.7-2.21Zm-3.23-1.83l2.67,.04-1.28-4.01-1.39,3.97Z" style="fill: #ca954a;"/>
      <path d="M38.11,7.7l-1.73-.27-.6,3.86-2.17-.34L35.25,.41l3.91,.61c1.24,.19,2.16,.62,2.75,1.28,.59,.66,.8,1.5,.65,2.51-.11,.72-.36,1.29-.75,1.73-.39,.43-.92,.74-1.59,.93l1.61,4.66-.02,.1-2.33-.36-1.38-4.17Zm-1.46-2.03l1.75,.27c.54,.08,.99,.01,1.33-.22,.34-.23,.55-.59,.63-1.08,.08-.5,0-.91-.24-1.24-.24-.33-.65-.54-1.23-.63l-1.74-.27-.49,3.16Z" style="fill: #ca954a;"/>
      <path d="M51.03,10.1l-4.04-1.2-.81,2.74,4.75,1.4-.5,1.69-6.85-2.03,3.02-10.23,6.84,2.02-.51,1.71-4.73-1.4-.72,2.44,4.04,1.2-.49,1.65Z" style="fill: #ca954a;"/>
    </g>
  </g>
</svg>