<svg xmlns="http://www.w3.org/2000/svg" width="63.71" height="109.4" viewBox="0 0 63.71 109.4">
  <defs>
    <style>
      .cls-1 {
        fill: #fff;
      }
    </style>
  </defs>
  <g id="圖層_2" data-name="圖層 2">
    <g id="圖層_2-2" data-name="圖層 2">
      <g>
        <path class="cls-1" d="M2,8.64h.12A13,13,0,0,1,5,10.18a7.35,7.35,0,0,0,2.44,1.1l1.39-1V9.7h1.38l.53,1.71-.57,1.67a7.16,7.16,0,0,0,2.08,3.21,8.33,8.33,0,0,1,2.28,3.59H15l1.35,3.87,4.72.49.2,1.34h.33c.63,0,1.27,0,1.94,0s1.5,0,2.52-.08,2.17-.17,3.44-.34a37.65,37.65,0,0,0,3.75-.72q5.46-1.26,10.84-2.6l.2-1.55L44,19.1,44.77,18h-1.1l-11.24.48-3-1.71a15.29,15.29,0,0,1-3.3-7.41h-.49l-1.42.37.69.32.12.12a5.19,5.19,0,0,1,1,2.55,24.45,24.45,0,0,1,.14,2.75v.08l-1,3.5h-.49l-.53,1.76L19.88,22V20.21h.45a7.47,7.47,0,0,0,.36-2.33V14.75L20,11.49h-.12l-1.51.89-1.59-.73L15.36,8.92,14.22,8l-.41-2.64h2.48l.74.2A98.55,98.55,0,0,1,31.88,2Q39.52.81,47.42,0a28.63,28.63,0,0,1,7,2.08A32.08,32.08,0,0,0,61,4.32l.49.12v.81l.33.45,1.3.41v.33h.57V8.55H62.9L62.16,10,58.42,12.1c-.66,1.41-1.24,2.8-1.76,4.15a12.11,12.11,0,0,0-.77,4.28V21L55,21.3,54.79,25H53.61l.16-.16h-.61a11.39,11.39,0,0,1-1.47,3.38l-.08.16-2.2.82-.49-1.88-1.34,1v-1l-1.39.82V27.13h-.81c-2.53.71-5.09,1.47-7.7,2.28a34.24,34.24,0,0,1-8.31,1.47l-1.14-.25c-2.47.17-4.9.3-7.27.41a25.77,25.77,0,0,0-6.74,1.18l-.29.12-1.75-1.1-.86-2.32-.93-1.22L10.63,26q-2.28-3.91-4.42-8.15A46.59,46.59,0,0,0,.9,9.7L0,8.64Zm31.61,2.93v1.95L37.8,14l.7-.49,1.5-.32.33.24,2.16-.53,2.48.25.17-1.88-.25-.81.73-7.25h-1.3A34.86,34.86,0,0,1,36.42,6c-2.34.51-4.65,1.14-6.93,1.87l3.3.86a7.62,7.62,0,0,1,.49,1.12,3.74,3.74,0,0,1,.16.67A4,4,0,0,1,33.57,11.57Zm20.08,11a1.59,1.59,0,0,1,0,.36A1.32,1.32,0,0,0,53.65,22.53Z"/>
        <path class="cls-1" d="M8,55.42v-1.1H9.25l.28.29a2.74,2.74,0,0,0,2,.85,3.84,3.84,0,0,0,.55,0,6.26,6.26,0,0,1,.63,0A4.1,4.1,0,0,1,15.89,57l.08.08A38.4,38.4,0,0,1,18,69c0,.76,0,1.57-.09,2.44-.4,1.28-.7,2.3-.89,3.06s-.31,1.21-.35,1.36l-.12.45c0,.15-.09.3-.14.45l-.17.45c-.05.15-.1.3-.14.44s-.09.3-.14.45a2.44,2.44,0,0,1-.21.43c-.1.3-.24.62-.4,1l-3.87,3.62L8.76,85.08l-.94.73-.49.94-1.18-.61A32.09,32.09,0,0,0,8.84,75.87q.52-5.49.53-11.24a5.11,5.11,0,0,1-.94-2.57,6.57,6.57,0,0,0-.61-2.24l-.49-.94h.61l-.49-3.09ZM30.55,86.58v.74H28.92v-5q-.24-6.41-.77-12.55A62.07,62.07,0,0,0,26,58L27,55.14h.77l.25-.82h5l.49.45a5.4,5.4,0,0,1,1.63,3.42c.1,1.25.16,2.6.16,4v.09L35,63.65l.33,5.62q-.57,4.37-1.1,8.76a18,18,0,0,1-3.1,8.19l-.12.2Zm22.08-44h.12L56.09,44l.61.93h1.59l2.81,2.81v6.77c-.16,2.66-.3,5.37-.4,8.12S60.37,68,60,70.53l.25,2.77-.25.82.82,11A48.09,48.09,0,0,0,59.6,95,20.2,20.2,0,0,1,57,104.67l-.12.21-.61.24-.74,4.28-1.06-3.59L55,98.23q-1.38-13.68-1.91-27.47T51.69,42.59Z"/>
      </g>
    </g>
  </g>
</svg>
