<svg xmlns="http://www.w3.org/2000/svg" width="51.98" height="65.18" viewBox="0 0 51.98 65.18">
  <defs>
    <style>
      .cls-1 {
        fill: #fff;
      }
    </style>
  </defs>
  <g id="圖層_2" data-name="圖層 2">
    <g id="圖層_1-2" data-name="圖層 1">
      <path class="cls-1" d="M20.65,27.42c-.92,0-1.86,0-2.81-.09l-.61-.16a14.58,14.58,0,0,1-4.66,4.2,50.42,50.42,0,0,0-5.44,3.54H5.38V33.65l.2-.17a30.75,30.75,0,0,0,4.81-6.39,15.44,15.44,0,0,0,1.83-7.37l-.61-.9-1.75-.29-.12-.36A9.51,9.51,0,0,0,8,14.91l-2.36-3L0,8.92V7.29l2.73-.37.2.21A7.7,7.7,0,0,0,6.84,8.84a8.89,8.89,0,0,1,4.57,2l.16.12,1.22,3.79h1.55L16.91,14a13.34,13.34,0,0,1-1.23-4A8.37,8.37,0,0,0,14.26,6.4l-3-2.94h2.29l3.66.33L38.74,0l5.17,2.77.37,1.79-1.1,1.92L41,7.74l-2.81,5.95a12.48,12.48,0,0,1-2.67,1.36,10,10,0,0,1-2.83.55c-1.87.11-3.67.27-5.38.49l-2.16-.33L14.67,18.05l4.44,2.24.73,2.07-.65,1.76,11.89-2.45a50,50,0,0,1,10.14-1c.9,0,1.85,0,2.86.08l7.29,3L52,25.91l-2.89.77a80.44,80.44,0,0,0-6.91,18.5,166.88,166.88,0,0,1-5.93,19.43l-2,.57V64.4L33,63.47l-.66-6.24L34.63,55q2.07-7.17,3.48-14.6t2.71-14.89l-.21-.9H38.05q-4.72,1.23-9.7,2.16A42.82,42.82,0,0,1,20.65,27.42ZM3.34,59.23a2,2,0,0,0,.41-1.36,1.9,1.9,0,0,1,1.46-2,14,14,0,0,0,4.91-2.28q2.27-1.63,4.34-3.42l.82-4h-.09L14,46.68,13.28,48l-2.44.44L9.17,47.17l-.05-.28a6.3,6.3,0,0,0-1.58-3.43A16.6,16.6,0,0,1,5.17,40L1.43,36.7H3.67a42.92,42.92,0,0,0,4.05,1.82,14,14,0,0,1,4,2.42L13.08,42l2.68-.49.17-4.11L11.65,35.6V34.3L15.72,34v-.12L14.09,32V30.43h2.37l4.89,1.47v.69l3.5-1.22,6.72,2.73.49,1.42-.57,1.14a10,10,0,0,0-1.79.78,6.55,6.55,0,0,0-2.28,2.28q-1.44,2.36-2.77,4.8L20,45.79l-1,5.29,2.77-1.34.13-.33L20.78,47.7h1.67l6.64,3L31,55.07l-2.16.58c-.79-.28-1.56-.58-2.32-.92a7.35,7.35,0,0,1-2.12-1.45l-1.22-.73q-4.27,2.4-9.08,4.58a57.75,57.75,0,0,1-9.9,3.44l-.37.09-.94-.94ZM20.9,11.9a7.78,7.78,0,0,1-.12,1.18l-.09.16h.13l.73-.49A4.84,4.84,0,0,0,22.61,11a7,7,0,0,0,.28-2L22.4,7.25l-3.74-.2a6.91,6.91,0,0,1,1.71,2.22A6.3,6.3,0,0,1,20.9,11.9ZM21.1,37l.25,1.34-.21,1.1.9-3h-.29l-.65.16ZM33.89,6.76V6h.69l.17-2.45H33.32l-7.25,2v.08l2.16,1.59.37,3.59L28,11.94h1.06l2.24-.66,2.24.25v0l-1.8-4.36Z"/>
    </g>
  </g>
</svg>
