<?xml version="1.0" encoding="UTF-8"?>
<svg id="b" data-name="圖層 2" xmlns="http://www.w3.org/2000/svg" width="195.71" height="144.22" viewBox="0 0 195.71 144.22">
  <defs>
    <style>
      .d, .e {
        fill: #fff;
      }

      .e {
        fill-rule: evenodd;
      }
    </style>
  </defs>
  <g id="c" data-name="圖層 2">
    <g>
      <g>
        <path class="d" d="M180.7,125.64c.51,.64,1.02,1.29,1.56,1.97-.86,1.06-1.8,2.03-2.97,2.77-2.49,1.57-5.47,1.35-7.62-.68-1.93-1.81-2.51-4.08-1.68-6.59,.82-2.49,2.64-3.92,5.25-4.27,1.95-.26,3.58,.47,5.04,1.69,1.43,1.19,2.49,2.7,3.67,4.11,.91,1.09,1.83,2.17,2.86,3.13,1.23,1.14,2.7,1.46,4.28,.69,1.92-.95,2.65-3.3,1.62-5.18-1.03-1.88-3.33-2.51-5.19-1.41-1.01,.6-1.77,1.46-2.53,2.33-.1,.11-.2,.23-.32,.37-.54-.68-1.05-1.33-1.59-2.01,1.22-1.45,2.53-2.79,4.37-3.44,1.45-.52,2.9-.44,4.32,.13,2.65,1.07,4.27,3.87,3.87,6.67-.41,2.9-2.7,5.11-5.58,5.42-1.97,.21-3.6-.52-5.06-1.75-1.28-1.08-2.26-2.42-3.31-3.7-.95-1.15-1.93-2.27-2.95-3.34-.58-.61-1.33-1.03-2.19-1.19-1.61-.29-3.24,.55-3.99,2.04-.73,1.46-.4,3.3,.79,4.42,1.23,1.15,2.95,1.36,4.4,.52,1.05-.61,1.85-1.5,2.63-2.41,.07-.09,.14-.17,.22-.26,.02-.02,.05-.02,.1-.05Z"/>
        <path class="d" d="M15.01,125.64c-.51,.64-1.02,1.29-1.56,1.97,.86,1.06,1.8,2.03,2.97,2.77,2.49,1.57,5.47,1.35,7.62-.68,1.93-1.81,2.51-4.08,1.68-6.59-.82-2.49-2.64-3.92-5.25-4.27-1.95-.26-3.58,.47-5.04,1.69-1.43,1.19-2.49,2.7-3.67,4.11-.91,1.09-1.83,2.17-2.86,3.13-1.23,1.14-2.7,1.46-4.28,.69-1.92-.95-2.65-3.3-1.62-5.18,1.03-1.88,3.33-2.51,5.19-1.41,1.01,.6,1.77,1.46,2.53,2.33,.1,.11,.2,.23,.32,.37,.54-.68,1.05-1.33,1.59-2.01-1.22-1.45-2.53-2.79-4.37-3.44-1.45-.52-2.9-.44-4.32,.13-2.65,1.07-4.27,3.87-3.87,6.67,.41,2.9,2.7,5.11,5.58,5.42,1.97,.21,3.6-.52,5.06-1.75,1.28-1.08,2.26-2.42,3.31-3.7,.95-1.15,1.93-2.27,2.95-3.34,.58-.61,1.33-1.03,2.19-1.19,1.61-.29,3.24,.55,3.99,2.04,.73,1.46,.4,3.3-.79,4.42-1.23,1.15-2.95,1.36-4.4,.52-1.05-.61-1.85-1.5-2.63-2.41-.07-.09-.14-.17-.22-.26-.02-.02-.05-.02-.1-.05Z"/>
      </g>
      <g>
        <g>
          <path class="e" d="M100.81,2.82c-.51-.13-.98-.51-1.24-.95C99.01,.9,98.18,.01,96.7,0c-1.04,0-2.24,.37-2.87,1.18-.05,.06-.07,.16,0,.24,.13,.18,.15,.34,.11,.51-.08,.31-.42,.48-.72,.64-.2,.1-.41,.19-.63,.25-.5,.14-1.1,.05-1.55-.21-.97-.55-2.13-.91-3.42-.18-.9,.51-1.76,1.44-1.9,2.46,0,.07,.02,.17,.12,.21,.2,.09,.3,.22,.35,.39,.08,.31-.12,.62-.31,.91-.12,.19-.26,.37-.42,.53-.36,.38-.93,.6-1.44,.6-1.11,0-2.3,.27-3.05,1.56-.53,.89-.8,2.12-.42,3.08,.03,.07,.11,.13,.22,.12,.21-.02,.37,.03,.5,.16,.22,.23,.2,.6,.19,.94,0,.22-.04,.44-.1,.67-.13,.51-.51,.98-.95,1.24-.96,.56-1.85,1.39-1.86,2.87,0,1.04,.37,2.24,1.18,2.87,.06,.04,.16,.06,.24,0,.18-.13,.34-.16,.51-.11,.31,.08,.48,.42,.64,.72,.1,.2,.19,.41,.24,.63,.14,.5,.05,1.1-.21,1.55-.55,.96-.91,2.12-.18,3.42,.51,.9,1.44,1.76,2.46,1.9,.07,.01,.17-.02,.21-.12,.09-.2,.22-.3,.39-.35,.31-.08,.62,.12,.91,.3,.19,.12,.37,.26,.53,.42,.38,.37,.6,.93,.6,1.45,0,1.11,.27,2.29,1.56,3.05,.89,.53,2.12,.8,3.08,.42,.07-.03,.13-.11,.12-.21-.02-.22,.03-.37,.16-.5,.23-.23,.6-.21,.94-.19,.22,0,.45,.04,.67,.1,.51,.13,.98,.51,1.24,.95,.56,.96,1.39,1.85,2.87,1.86,1.04,0,2.24-.37,2.87-1.18,.04-.06,.06-.16,0-.25-.13-.18-.16-.34-.11-.51,.08-.31,.42-.48,.72-.63,.2-.11,.41-.19,.63-.25,.51-.15,1.1-.05,1.55,.2,.97,.55,2.13,.91,3.42,.18,.9-.51,1.75-1.44,1.9-2.46,0-.07-.02-.17-.12-.21-.2-.09-.3-.21-.35-.39-.08-.31,.12-.62,.3-.91,.12-.19,.26-.37,.42-.53,.37-.38,.93-.59,1.45-.6,1.11,0,2.29-.28,3.05-1.56,.52-.9,.8-2.13,.42-3.08-.03-.07-.11-.13-.21-.12-.22,.02-.37-.03-.5-.16-.23-.22-.21-.6-.19-.94,0-.22,.04-.45,.1-.67,.13-.51,.51-.98,.95-1.24,.96-.56,1.85-1.38,1.86-2.87,.01-1.04-.37-2.24-1.18-2.87-.06-.05-.16-.07-.25,0-.18,.13-.34,.15-.51,.11-.31-.08-.48-.42-.63-.72-.1-.2-.19-.41-.25-.63-.14-.5-.05-1.1,.21-1.55,.55-.96,.91-2.13,.18-3.42-.51-.9-1.44-1.76-2.46-1.9-.07-.01-.17,.02-.21,.12-.09,.2-.21,.31-.39,.35-.31,.08-.62-.12-.91-.3-.19-.12-.37-.26-.53-.42-.38-.36-.6-.93-.6-1.45,0-1.11-.28-2.3-1.56-3.05-.9-.53-2.13-.8-3.08-.42-.07,.03-.13,.11-.12,.22,.02,.22-.03,.37-.16,.5-.23,.22-.6,.2-.94,.19-.22,0-.45-.04-.67-.1h0Zm-.44,1.65c1.23,.33,2.35,.8,3.42,1.42,1.07,.62,2.09,1.4,2.94,2.25,.88,.88,1.63,1.86,2.26,2.94,.62,1.07,1.11,2.26,1.42,3.42,.32,1.21,.48,2.43,.48,3.67s-.17,2.51-.48,3.67c-.32,1.2-.79,2.34-1.42,3.42-.61,1.07-1.4,2.09-2.25,2.94-.88,.88-1.86,1.63-2.94,2.26-1.07,.62-2.26,1.11-3.42,1.42-1.2,.32-2.42,.48-3.67,.48s-2.51-.17-3.67-.48c-1.2-.33-2.34-.8-3.42-1.42-1.07-.61-2.09-1.4-2.94-2.25-.88-.89-1.63-1.86-2.26-2.94-.62-1.07-1.11-2.26-1.42-3.42-.32-1.2-.48-2.42-.48-3.67s.17-2.51,.48-3.67c.33-1.2,.8-2.34,1.42-3.42,.62-1.07,1.4-2.09,2.25-2.94,.88-.88,1.86-1.63,2.94-2.25,1.07-.62,2.26-1.11,3.42-1.42,1.21-.32,2.42-.48,3.67-.48s2.49,.16,3.67,.48h0Z"/>
          <g>
            <path class="d" d="M107.35,24.87c-.1,.01-.2,.03-.29,.05-.58,.12-1.28,.33-1.92,.4-1.68,.19-3.14,.3-5.2,.11-1.9-.18-2.95-.39-5.7-1.37-.71-.25-1.31-.37-2.1-.66-.58-.19-1.25-.36-1.6-.41-.15-.02-.77-.09-.93-.06,.47-.21,1.07-.62,1.39-.83,.68-.44,1.09-.76,1.62-1.32,.23-.23,.44-.49,.64-.74,.12-.14,.18-.37,.12-.55-.05-.16-.22-.31-.37-.38-.25-.13-.61-.09-.86,.03-.29,.14-.26,.39-.46,.57-.43,.2-.77,.34-1.19,.44,.24-.25,.42-.42,.69-.74,.32-.39,.45-.51,.74-.94,.26-.38,.46-.66,.21-.87,.52-.26,1.39-.66,1.94-.86,.5-.22,.91-.37,1.43-.55,.19-.07,.37-.13,.53-.19-.64,.81-1.31,1.77-1.68,2.72-.46,1.17-.8,2.44-.61,3.7,.05,.3,.28,.48,.51,.64,.15,.11,.39,.1,.55,0,.13-.08,.22-.22,.3-.36,.03,.02,.05,.05,.08,.08,.07,.07,.22,.09,.32,.08,.33-.06,.65-.13,.98-.18,.06,0,.13,.04,.16,.08,.2,.31,.33,.64,.59,.92,.11,.12,.25,.25,.42,.29,.18,.03,.34-.03,.44-.2,.21-.39,.28-.72,.31-1.16,.03-.27-.07-.54-.07-.81,0-.17,0-.34,0-.51,0-.38,0-.77,.02-1.15,.02-.43,.07-.85,.14-1.28,.04-.19,.09-.45-.02-.62-.09-.16-.14-.3-.28-.44-.18-.17-.31-.28-.53-.4-.32-.17-.67-.26-.98-.03-.27,.2-.52,.35-.83,.49-.06,.03-.22,.11-.3,.09,.24-.41,.54-.79,.9-1.1,.57-.51,1.26-.9,1.92-1.28,.37-.21,1.47-.4,1.86-.57,.44-.19,.42-.74,0-.94-.37-.18-.98-.26-1.37-.39-.31-.11-.72-.15-1,.05-.6,.45-1.99,1.39-1.97,1.22,.02-.17,.24-.95,.65-1.19,.42-.24,1.07-1.06,1.33-1.35,.26-.28,.22-.25,.33-.36,.11-.12,.18-.17,.23-.26,.22-.14,.84-.67,.94-.78,.15-.12,.03-.53,.05-.61,.02-.08-.26-.29-.76-.32-.5-.03-.72,.3-.84,.34-.24,.33-.51,.6-.82,1.3-.04,.46-.31,.77-.5,1.08-.1,.11-.13,.41-.33,.29-.04-.06,0-.44,0-.56,.04-.27,0-.59,.04-.87-.02-.22,.02-.45,.04-.61,.1-.18,.05-.42,0-.67-.05-.17-.47-.34-.64-.47-.17-.12-.39-.14-.51-.21-.17-.06-.41,.04-.47,.02-.11-.04-.1,.4-.1,.4,.27,.21,.34,.49,.41,.81,.03,.51-.03,1.32-.11,1.79-.09,.62-.2,1.19-.34,1.75-.05,.46-.04,.45-.18,.97-.11,.05-.19,.22-.31,.27-.51,.23-.54,.35-1.13,.61-.8,.35-1.13,.48-2.02,.87-.02-.3-.09-1.73-.09-2,.92-.68,1.44-1.05,2.31-1.8,.1-.09,.12-.24,.1-.38-.03-.15-.2-.28-.25-.38-.22-.51-.4-.51-.83-.84-.32-.24-.59-.48-.85-.79-.2-.24-.48-.56-.68-.85-.02-.19,0-.23,0-.32,0-.13,0-.22,0-.34,.01-.65,.03-.78,.19-.92,.2-.17-.08-.42-.48-.57-.25-.09-.44-.04-.58,.08-.19,.16-.4,.32-.47,.66-.04,.2-.07,.45,.02,.63,.1,.21,.15,.29,.16,.45,.04,.45,.08,.63,.11,1.08,.06,.83,.12,1.69,.09,2.52-1.1,.74-2.08,1.21-3.35,1.62-.22,.07-.4,.08-.63,.03-.09-.02-.18-.03-.27-.05-.06-.01-.14-.03-.19-.06,0,0-.03,0-.02,.02,.04,.06,.07,.11,.11,.18,.29,.45,.49,.43,.92,.67,.45,.25,.82,.51,1.33,.62,.48,.11,1.14,.09,1.55-.14,.18-.1,.5-.34,.68-.44,.03,.27,.06,1.67,.05,1.89-.33,.22-.78,.46-1.13,.65-.56,.31-1.06,.56-1.65,.82-.17,.07-.35,.02-.42-.15-.06-.14-.03-.35-.01-.5,.01-.07,.02-.16,.04-.23,0-.03-.02-.03-.04,0-.06,.06-.11,.1-.16,.16-.18,.2-.37,.52-.46,.77-.06,.19,0,.32,.15,.44,.27,.22,.53,.3,.89,.32,.23,.01,.53,.05,.76,.06,.24,0,.47-.08,.65-.24,.82-.62,1.63-1.15,2.4-1.66-.27,.64-.46,1.01-.9,1.56-.25,.31-.42,.47-.76,.74-.1,.08-.24,.13-.35,.19-.11,.01-.28,.09-.38,.15-.15,.1-.22,.29-.12,.45,.07,.1,.14,.17,.22,.25,.16,.15,.45,.22,.58,.1,.23-.21,.47-.2,.75-.32,.06-.02,.61-.19,.66-.2-.17,.27-.56,.58-.84,.77-.13,.09-.47,.33-.6,.41-.42,.27-.54,.34-.9,.51-.24,.02-.44-.03-.68-.08-.35-.08-.49-.11-.85-.13-.27-.01-.42,.13-.52,.36-.13,.33-.28,.79-.08,1.13,.12,.21,.17,.37,.43,.43,.18,.04,.41,.04,.57-.06,.42-.26,.88-.32,1.36-.39,.34-.05,.65-.03,.99,0,.48,.05,.96,.13,1.43,.25,.38,.1,.74,.23,1.1,.38,.29,.12,1.71,.69,2,.82,1.64,.82,2.28,1.09,3.22,1.51,.8,.36,2.99,1.27,4.34,.67,1.4-.61,2.47-.51,4.58-1.72,.54-.19,.82-.32,1.13-.65l.18-.31c.06-.09,.12-.14-.04-.11Zm-10.15-3.16s-.01,.22-.05,.29c-.13-.11-.3-.22-.45-.28-.1-.04-.18-.03-.28,0-.16,.05-.23,.06-.34,.1-.22,.07-.44,.14-.67,.19-.09,.02-.13,.02-.22,0-.03,0-.07,0-.1,0-.03-.05-.06-.09-.07-.13-.02-.12,.01-.27,.01-.4,0-.13,0-.27-.02-.4-.02-.1-.09-.23-.08-.33,.01-.3,.03-.61,.07-.9l.06,.1c.16,.24,.34,.38,.6,.49,.11,.04,.23,.08,.34,.11,.11,.04,.25,.04,.25,.14,0,.06-.02,.1-.06,.14-.06,.06-.08,.08-.23,.13-.03,.01-.03,.03,.02,.02,.1-.02,.19-.05,.29-.08,.06-.02,.1-.02,.22-.05,.07-.02,.15-.04,.24-.07,.08,0,.18,.03,.29,0,.09-.02,.15-.02,.22-.06,0,.33,0,.66-.04,.99Zm-1.54-3.36c.13,.08,.27,.13,.41,.17,.18,.04,.37,.02,.55-.03,.15-.05,.3-.09,.46-.09,.17,0,.24,.12,.24,.27,0,.42,0,.85-.02,1.27-.07-.05-.15-.11-.23-.15-.32-.16-.68-.24-1.04-.27-.19-.02-.32,0-.49,.1-.13,.09-.27,.16-.43,.18l-.13,.02c.06-.46,.16-.9,.33-1.34,.04-.1,.09-.21,.14-.31,.04,.08,.11,.14,.2,.19Zm-5.09-6.03c0-.29,0-1.12,.02-1.41,.16,.32,.44,.87,.65,1.14,.11,.14,.16,.25,.18,.41,.01,.1-.07,.21-.16,.25-.2,.11-.4,.21-.62,.27-.03-.22-.07-.45-.08-.67Z"/>
            <path class="d" d="M100.22,13.05c.34,.28,.81,.45,1.25,.38,.54-.09,.93-.29,1.37-.56,.01,.34,.04,.69,0,1.02,0,.02,0,.1-.02,.13-.27-.03-.55-.07-.8-.17-.11-.04-.22-.08-.32-.14-.03-.02-.04,.01-.02,.03,.08,.09,.16,.16,.24,.25,.17,.17,.48,.45,.66,.62-.26,.32-.41,.59-.56,.91-.31,.62-.55,1.22-.8,1.88-.21,.56-.43,1.1-.66,1.66-.31,.77-.56,1.52-.77,2.31-.05,.19-.12,.31-.11,.51,.01,.25,.04,.47,.19,.68,.08,.12,.15,.21,.21,.34,0,.11,.06,.18,.13,.24,.1,.08,.51,.1,.6-.17,.16-.47,.28-.96,.38-1.46,.19-.93,.41-1.8,.69-2.71,.17,.1,.4,.13,.57,.04,.11-.06,.27-.15,.36-.24,.01-.01,.05-.05,.07-.05,.01,0,.05,.05,.06,.06,.07,.06,.06,.21,.04,.29-.07,.27-.29,.53-.45,.75-.12,.17-.24,.32-.39,.46-.14,.13-.26,.22-.38,.38-.07,.1-.05,.29,.07,.34,.09,.04,.18,.05,.28,.05,.07,0,.15,.01,.21,.03,.01,0,.03,.01,.04,.02,.13,.08,.27,.22,.3,.38,.03,.14-.05,.3-.13,.41-.05,.09-.21,.16-.3,.22-.09,.05-.21,.11-.29,.17-.02,.01-.03,.03,0,.02,.15-.03,.23-.04,.35-.06,.23-.04,.44,.05,.65-.02,.34-.11,.71-.29,.89-.61,.14-.24,.01-.57-.13-.77-.15-.21-.4-.29-.63-.37-.15-.05-.46-.04-.86,.12,.38-.28,.97-.8,1.21-1.15,.22-.3,.35-.71,.32-1.08-.02-.29-.2-.62-.47-.75-.24-.12-.52,.07-.7,.21-.16,.12-.36,.21-.55,.28,.06-.19,.13-.41,.21-.6,.16-.33,.23-.41,.4-.58,.1-.1,.21-.18,.33-.26,.23-.15,.59-.3,.82-.29,.19,0,.21,.29,.21,.44,0,.96,.04,1.91,.05,2.87,0,1.07-.03,2.13-.14,3.2-.07,.61-.63,1.3-1.27,1.52-.28,.1-.55,.13-.91-.03-.23-.1-.39-.24-.49-.47-.02-.05-.04-.05-.06-.07-.02-.02-.03-.06-.03-.12,0-.03-.04-.02-.03,0,0,.05,0,.1,0,.14,.01,.09,.03,.14,.04,.18,.05,.16,.09,.22,.16,.33,.26,.37,.73,.6,1.32,.64,.52,.04,.98-.03,1.41-.3,.46-.29,1.02-.72,1.09-1.29,.1-.78,.21-1.55,.22-2.34,.03-1.54,.13-3.1-.09-4.64-.06-.4-.39-.82-.77-.92-.34-.09-.65-.13-1,.01-.14,.06-.42,.24-.55,.34-.18,.14-.73,.61-1.25,1.34,.2-.46,.51-1.03,.73-1.41,.08-.13,.51-.6,.7-.72,.58,0,.58-.4,.6-.71,.33-.4,.73-.87,1.07-1.26,.51-.58,.88-.88,1.31-1.48,.05-.07,.18-.28,.23-.39,.09-.22-.18-.54-.33-.66-.2-.16-.37-.3-.62-.36-.16-.04-.38-.03-.5,.09-.08,.08-.13,.18-.17,.29-.03,.07-.05,.16-.08,.23-.28,.37-.58,.67-.96,.92,0-.59-.01-1.19,.02-1.78,.01-.27,0-.45,.11-.7,.09-.23,.14-.53-.04-.73-.06-.07-.15-.11-.21-.18-.11-.11-.15-.22-.28-.32-.18-.13-.37-.24-.53-.4-.06-.05-.11-.1-.16-.15,0,0,0,0,0,0,.01,.08,.01,.15,.02,.22,0,.08,.02,.2,.05,.28,.05,.18,.02,.38,.04,.57,.04,.49,.02,.98,.11,1.47,.08,.45,.14,.89,.15,1.35,0,.25,0,.49,0,.74-.41,.21-.7,.31-1.18,.31-.32,0-.66-.05-.95-.17-.28-.12-.52-.26-.74-.47-.15-.13-.23-.26-.29-.45-.04-.14-.07-.27-.1-.41-.01-.07-.05-.07-.06,0-.02,.15-.03,.27-.04,.43-.02,.23-.02,.48,0,.7,.05,.48,.31,.89,.68,1.19Zm3.45-.53c.37-.36,.63-.79,.96-1.29,.04-.06,.04-.03,.03,.02-.26,1.12-.59,1.56-1.02,2.17,0-.17,.02-.73,.02-.91Z"/>
          </g>
        </g>
        <g>
          <path class="d" d="M67.92,50.86l-2.3,.57,1.8,7.26-1.72,.43-1.8-7.26-2.3,.57-.38-1.53,6.31-1.57,.38,1.53Z"/>
          <path class="d" d="M78.38,56.57l-1.82,.32-.8-1.49-3.17,.55-.27,1.67-1.82,.32,1.7-9.49,1.37-.24,4.81,8.36Zm-3.34-2.56l-1.65-3.06-.57,3.44,2.22-.38Z"/>
          <path class="d" d="M81.65,56.23l-1.76,.21-1.06-9,1.76-.21,1.06,9Z"/>
          <path class="d" d="M90.31,52.76c-.09,.9-.41,1.62-.96,2.17-.56,.55-1.28,.85-2.18,.91-.97,.06-1.8-.22-2.5-.83-.42-.37-.72-.88-.89-1.51-.09-.34-.17-1.02-.23-2.04-.06-1-.07-1.68-.03-2.05,.08-.65,.31-1.19,.69-1.61,.63-.7,1.42-1.09,2.37-1.15,.91-.06,1.66,.15,2.28,.61,.61,.47,1.02,1.14,1.23,2.03l-1.79,.12c-.26-.84-.79-1.24-1.61-1.18-.53,.03-.93,.26-1.19,.68-.21,.34-.27,1.15-.19,2.45l.05,.81c.01,.16,.03,.33,.06,.51,.18,1.13,.74,1.66,1.66,1.6,.8-.05,1.28-.51,1.44-1.38l1.79-.12Z"/>
          <path class="d" d="M98.98,55.55l-1.77-.02,.03-3.78-3.07-.03-.03,3.78-1.77-.02,.08-9.06,1.77,.02-.03,3.7,3.07,.03,.03-3.7,1.77,.02-.08,9.06Z"/>
          <path class="d" d="M108.2,53.1c-.08,.95-.46,1.69-1.14,2.22-.68,.53-1.5,.76-2.45,.68-.96-.08-1.72-.43-2.29-1.06-.59-.65-.85-1.44-.77-2.39l.49-5.94,1.76,.15-.49,5.87c-.04,.5,.06,.91,.31,1.24,.25,.33,.62,.51,1.11,.55,.5,.04,.9-.08,1.2-.36,.3-.28,.47-.67,.51-1.17l.49-5.87,1.75,.15-.49,5.94Z"/>
          <path class="d" d="M117.09,57.58l-1.55-.25-2.66-6.06-.88,5.48-1.75-.28,1.44-8.95,1.56,.25,2.66,6.05,.88-5.48,1.75,.28-1.44,8.95Z"/>
          <path class="d" d="M126.64,55.99c-.27,1.12-.76,1.94-1.45,2.45-.75,.55-1.67,.69-2.78,.42-.94-.23-1.65-.74-2.14-1.54-.29-.48-.42-1.05-.4-1.71,.02-.35,.15-1.03,.39-2.01,.24-.97,.43-1.63,.58-1.97,.27-.6,.65-1.04,1.14-1.33,.81-.48,1.68-.61,2.61-.38,.9,.22,1.58,.65,2.04,1.28s.66,1.42,.59,2.34l-1.74-.43c0-.91-.42-1.46-1.28-1.67-.87-.21-1.51,.22-1.91,1.29l-.31,1.29c-.16,.62-.26,1.06-.3,1.3-.18,1.12,.19,1.79,1.11,2.01,.5,.12,.94,.07,1.3-.17,.36-.23,.61-.6,.73-1.11l.08-.33-1.62-.39,.35-1.43,3.33,.81-.31,1.29Z"/>
        </g>
        <g>
          <path class="d" d="M38.51,80.26c.61,.98,.86,1.89,.74,2.75-.13,.92-.67,1.68-1.63,2.28-.82,.51-1.69,.66-2.6,.45-.55-.13-1.05-.43-1.5-.91-.24-.26-.63-.82-1.17-1.68-.53-.85-.86-1.45-1-1.79-.24-.61-.29-1.19-.16-1.75,.22-.92,.73-1.63,1.55-2.14,.79-.49,1.57-.68,2.35-.57,.78,.11,1.47,.52,2.09,1.21l-1.52,.95c-.64-.64-1.34-.72-2.09-.25-.76,.48-.9,1.23-.41,2.27l.7,1.12c.33,.55,.57,.93,.72,1.13,.68,.91,1.42,1.11,2.21,.61,.44-.27,.7-.62,.79-1.05,.09-.42,0-.85-.28-1.29l-.18-.29-1.41,.88-.78-1.25,2.9-1.82,.7,1.12Z"/>
          <path class="d" d="M47.11,77.24c.36,.88,.36,1.71,0,2.49-.36,.78-.99,1.36-1.87,1.72-.89,.36-1.73,.4-2.52,.1-.82-.3-1.41-.9-1.78-1.77l-2.27-5.51,1.64-.67,2.24,5.45c.19,.46,.47,.78,.84,.96,.37,.18,.78,.17,1.24-.01,.46-.19,.76-.48,.9-.87,.14-.39,.11-.81-.08-1.28l-2.24-5.45,1.62-.67,2.27,5.51Z"/>
          <path class="d" d="M57.16,77.44l-1.77,.52-.96-1.39-3.09,.9-.08,1.69-1.77,.52,.62-9.62,1.33-.39,5.72,7.77Zm-3.6-2.17l-1.99-2.85-.17,3.49,2.16-.63Z"/>
          <path class="d" d="M65.37,75.72l-1.54,.32-4.65-4.71,1.13,5.44-1.73,.36-1.84-8.87,1.55-.32,4.64,4.7-1.13-5.43,1.73-.36,1.84,8.87Z"/>
          <path class="d" d="M73.69,70.74c.16,1.14,.01,2.08-.44,2.81-.49,.79-1.3,1.26-2.42,1.42-.96,.13-1.81-.08-2.56-.64-.45-.34-.78-.82-1-1.44-.12-.33-.24-1.01-.39-2.01-.14-.99-.2-1.67-.18-2.04,.03-.65,.22-1.21,.56-1.66,.57-.75,1.34-1.19,2.29-1.32,.92-.13,1.71,.02,2.37,.44,.66,.42,1.14,1.07,1.42,1.96l-1.78,.25c-.33-.84-.93-1.21-1.81-1.08-.89,.13-1.32,.76-1.3,1.9l.18,1.31c.08,.64,.15,1.08,.2,1.32,.25,1.1,.84,1.59,1.77,1.46,.51-.07,.89-.28,1.14-.64,.25-.35,.34-.78,.27-1.3l-.05-.34-1.65,.23-.21-1.46,3.39-.48,.18,1.31Z"/>
          <path class="d" d="M81.53,66.22l-2.36,.21,.66,7.45-1.76,.16-.66-7.45-2.36,.21-.14-1.57,6.48-.58,.14,1.57Z"/>
          <path class="d" d="M85.84,73.49l-1.77,.09-.49-9.05,1.77-.09,.49,9.05Z"/>
          <path class="d" d="M95.37,73.23l-1.84,.03-.56-1.59-3.22,.06-.52,1.61-1.85,.03,3.13-9.12,1.39-.03,3.47,9Zm-2.91-3.04l-1.17-3.28-1.09,3.32,2.25-.04Z"/>
          <path class="d" d="M103.83,73.47l-1.57-.05-3.42-5.66-.17,5.55-1.77-.05,.28-9.06,1.58,.05,3.42,5.66,.17-5.55,1.77,.05-.28,9.06Z"/>
          <path class="d" d="M116.29,67.01l-2.36-.24-.74,7.45-1.76-.18,.74-7.45-2.36-.24,.16-1.57,6.47,.65-.16,1.57Z"/>
          <path class="d" d="M123.28,75.59l-5.9-.89,1.36-8.96,5.9,.89-.24,1.56-4.15-.63-.32,2.1,3.54,.53-.24,1.56-3.54-.53-.33,2.18,4.15,.63-.24,1.56Z"/>
          <path class="d" d="M133.35,77.72l-1.73-.39,1.15-5.15-2.44,2.98-1.17-.26-.95-3.73-1.15,5.15-1.73-.39,1.98-8.84,1.69,.38,1.25,5.3,3.37-4.27,1.7,.38-1.98,8.84Z"/>
          <path class="d" d="M143.78,74.44c-.26,.81-.74,1.37-1.44,1.69-.7,.32-1.46,.35-2.27,.09l-1.66-.53-1.04,3.25-1.68-.54,2.77-8.63,3.34,1.07c.82,.26,1.42,.73,1.8,1.39,.38,.67,.44,1.4,.19,2.21Zm-1.69-.53c.12-.37,.1-.69-.07-.98-.16-.29-.43-.49-.8-.61l-1.58-.51-.76,2.37,1.58,.51c.37,.12,.71,.11,1-.03,.3-.14,.51-.39,.62-.75Z"/>
          <path class="d" d="M148.89,83.41l-5.37-2.39,3.68-8.28,1.62,.72-3.04,6.84,3.76,1.67-.64,1.44Z"/>
          <path class="d" d="M155.27,87.46l-4.98-3.29,5-7.56,4.98,3.29-.87,1.32-3.5-2.32-1.17,1.77,2.98,1.97-.87,1.32-2.98-1.97-1.22,1.84,3.5,2.32-.87,1.32Z"/>
        </g>
      </g>
      <g>
        <g>
          <path class="e" d="M94.21,92.85c.48-.14,1.51-.68,1.16-1.28-.35-.6-2.23-2-2.72-1.02,0,0-.1,.33,.25,.59,.35,.25-.43,.45-.82,.57-.39,.12-2,.74-2.2,.66-.2-.08,.53-.44,.83-.79,.29-.36,1.59-1.67,1.6-2.1,0-.43-.03-1.46-.63-1.73-.6-.27-.73-.18-.73-.18,0,0-.24,.29-.14,.54,.1,.25-2.58,3.89-3.36,4.61-.78,.72,.27,1.94,.7,1.9,.43-.04,4.86-2.26,4.46-1.67-.41,.59-1.9,1.88-2.89,2.31-1,.43-.92,1.67-.79,2.05,.13,.38,.97,1.46,1.19,1.41,.21-.05,.54-.05,.75-.3,.22-.25,1.26,.04,1.42,.1,.17,.05,1.73,.1,1.95-.1,.22-.19,.43-1.14-.09-1.19-.52-.04-.71-.07-.63-.22,.08-.14,.64-.95,.81-1.05,.17-.11,.65-.55,.15-.89-.51-.35-1.22-.37-1.35-.33-.12,.05-1.32,.11-1.47,.07-.16-.04,2.11-1.83,2.58-1.97Zm-2.39,3.05c-1.15,.72-.97,1.13-1.26,1.12-.28,0-.23-.92-.24-1,0-.08-.04-.25-.04-.25,.61-.06,1.53,.14,1.53,.14Z"/>
          <path class="e" d="M105.7,89.12s-.68-.26-1.2-.09c-.52,.17-1.07,.24-1.14,.34-.07,.1-.22,.01-.23-.19,0-.2-.05-1.65-.05-1.7,0-.04-.1-.42-.85-.32,0,0-.19,.08-.31,.21-.12,.14-.29,.32-.32,.36-.03,.03-.24,.37-.02,.37,.22,0,.32-.08,.39,.43,0,0,.1,.08,.11,.17,0,.09-.09,.5,.02,.64,.1,.14,.31,.46-.58,.74-.89,.28-1.58,1.02-1.62,1.13,0,0-.2,.15-.54,.03-.34-.12-.45-.04-.45-.04,0,0-.26-.2-.37-.08-.11,.11-.29,.22,.04,.87,.33,.65,.52,1.49,1.78,1.76,0,0,.1,.09,.19,.21,.08,.13,.64,.3,.78,.23,.14-.07,.78-.67,.97-.5,.19,.18,0,.03,0,.03,0,0,.1,.41,.06,.55-.04,.14-.11,.41-.04,.46,.07,.06-.04,.48-.05,.53-.01,.05-.03,1.89,.1,2.12,.13,.23,.12,.93,.29,1.09,.16,.16-.23,.42-.28,.45-.06,.02,.11,.27,.23,.09,.12-.19,.22-.43,.3-.42,.08,.02,.39-.55,.38-1.1,0-.55,.05-1.85,0-2.21-.04-.36,.14-1.03,.08-1.51-.05-.48-.02-.72,.41-.79,.44-.06,.41-.12,.51-.15,.1-.04,.41-.04,.51-.37,.1-.33-.35-.75-.73-.81-.38-.06,.1-.36,.1-.36,0,0,.49-.3,.59-.29,.1,0,.53-.28,.73-.44,.2-.15,.62-.43,.71-.59,.09-.16,.06-.7-.5-.88Zm-3.81,2.98c-.39,.23-.76,.58-.96,.54-.2-.04-.68-.99-.68-.99,0,0,.4-.06,.58-.12,.18-.05,.28-.06,.47-.06,.19,0,.82-.1,.85-.14,.03-.05,.13,.53-.26,.77Z"/>
        </g>
        <g>
          <path class="e" d="M126.44,138.34c-.23-1.2-5.02-3.57-8.54-4.25-3.51-.68-5.54-1.68-8.38-3.37-2.84-1.69-8.82-6.5-9.11-7.54-.28-1.04,5.89-4.22,6.94-4.1,1.04,.1,3.65,0,4.49-.25,.84-.25,.76-1.37,.35-1.94-.41-.57-2.76-1.4-5.8-1.44-3.04-.04-3.8-.97-4.28-1.21-.49-.24-.85-.85-.35-.9,.49-.05,2.17-1.45,2.5-1.82,.33-.36,1.35-1.33,1.35-1.33,2.25-1.06,3.18-2.72,2.94-3.78-.24-1.06-2.1-1.7-3.96-1.95-1.86-.24-4.9,1.21-5.57,1.6-.67,.41-4.49,2.66-5.51,2.92-1.02,.26-1.18,.97-1.18,1.49s.83,.94,.97,1.17c.14,.22,.79,.24,2.35,.73,1.56,.49,1.22,3.04,1.22,3.04,0,0-.01,1.85-.49,3.17-.47,1.32-3.11,2.26-7.12,3.8-4.02,1.53-2.26,2.36-1.59,2.84,.67,.47,4.18,1.93,5.53,2.67,1.36,.73,.63,1.78,.1,2.17-.53,.39-1.96,2.74-2.92,4.21-.97,1.48-2.24,2.01-4.77,3.14-2.53,1.13-1.02,2.11-.31,2.35,.7,.24,3.97-.66,7.4-2.36,3.43-1.69,4.17-6.7,4.17-7.34,.01-.63,1.44-3.65,1.93-3.65s4.94,6.8,4.94,6.8c0,0,7.08,7.89,14.28,8.38,7.2,.49,8.65-2.08,8.43-3.28Zm-24.85-21.78c.21-.28,.76-1.21,.76-1.21l.25-.13c.24-.13,.12,.21,.2,.48,.08,.27,.52,0,.52,.39s-.25,.28-.87,.57c-.61,.29-1.07,.18-.86-.11Z"/>
          <path class="d" d="M78.18,118.26c-.43-1.55-2.65-2.37-3.4-2.54-.11-.02-.23-.03-.37-.03-.86,0-2.39,.45-3.87,.88-.56,.16-1.08,.31-1.54,.44-.13,.03-.23,.06-.33,.08,.12-.18,.25-.38,.33-.6,.13-.34,.05-.59-.02-.75,.16-.11,.55-.33,1.51-.74,.7-.3,1.6-.78,1.44-1.53-.21-1.02-2.33-1.23-2.73-1.23-.25,0-.34-.17-.59-.82-.19-.52-.43-1.16-.98-1.71-.09-.09-.18-.16-.27-.22,.58-.25,1.21-.38,1.8-.38,.38,0,.72,.06,.98,.17,.28,.11,.59,.17,.92,.17,1.16,0,2.3-.69,2.45-1.48,.05-.25,.05-.88-.92-1.25-.92-.36-1.84-.67-2.89-.67-1.3,0-2.6,.52-3.95,1.59-.33,.26-.56,.43-.73,.54,.11-.48,.24-1.12-.12-1.55-.06-.08-.16-.21-.28-.38-.93-1.3-3.1-4.33-5.97-4.33-.64,0-1.28,.16-1.9,.47l-.19,.09-.04,.2c-.01,.07-.31,1.8,.97,3.08,.68,.68,1.39,1.72,.91,2.83-.05,.11-.09,.22-.13,.33-.35,.86-.71,1.75-2.68,2.83-1.77,.97-5.06,1.88-6.31,1.88-.08,0-.15,0-.2,0,0-.15-.04-.26-.09-.33-.09-.13-.25-.21-.43-.21-.63,0-2.51,1.42-2.52,2.42,0,.26,.11,.87,1.23,.9,.07,0,.13,0,.2,0,1.32,0,2.62-.35,3.67-.63,.66-.18,1.24-.33,1.58-.33,.12,0,.16,.02,.16,.02,.27,.21,.44,.39,.47,.62,.02,.25-.1,.72-.82,1.59l-.23,.28c-1.31,1.56-1.55,1.92-2.22,5.63-1.67,9.17-5.14,15.67-10.33,19.31l-1.95,1.37,2.3-.62c.73-.2,7.14-2,8.26-4.31,.83-1.7,3.15-9.79,4.68-15.14,.48-1.68,.86-3.01,1.06-3.64l.15-.49c.17-.55,.33-1.08,.48-1.59,.17,.57,1.16,1.19,1.89,1.38,.38,.1,.5,.21,.53,.24-.03,.06-.19,.33-1.05,.75-1.48,.73-2.43,2.54-2.33,2.99,.05,.2,.22,.34,.42,.34,.26,0,.4-.21,.48-.33,.24-.35,1.2-.69,2.14-1.01,.61-.21,1.31-.45,1.95-.74,.89-.41,1.3-.59,1.47-.59,.06,0,.14,.02,.28,.07,.06,.02,.13,.04,.21,.06,.02,0,.03,.01,.03,.01,0,0,.01,.11-.06,.28-.11,.27-.35,.55-.54,.62-.14,.05-.3,.1-.47,.16-.6,.19-1.35,.42-2.06,1.04-.49,.43-1.16,.5-1.52,.5-.13,0-.21,0-.21,0h-.11c-.73,.11-1.26,.41-1.57,.88-.57,.9-.21,2.14,.05,3.05,.09,.3,.17,.58,.18,.72,.06,1.08,2.59,3.94,3.95,5.2-.37,.23-1,.59-1.91,1.07-.38,.2-.76,.38-1.14,.56-1.36,.65-2.43,1.16-2.52,2.03-.07,.72-.29,2.9,1.24,3.87,.71,.45,1.72,.98,2.49,.98,.35,0,.64-.11,.84-.32,.23-.23,.34-.58,.33-1.03-.02-.67-.15-1.4-.28-2.05-.13-.7-.31-1.65-.14-1.88,.1-.13,.25-.33,.42-.56,.77-1.01,1.25-1.67,1.5-2.08,.21,.08,.42,.13,.65,.13,1.34,0,2.58-1.55,3.31-2.47,.06-.08,.12-.16,.18-.22,.29-.37,.51-.54,.63-.61,0,.06,.01,.16,0,.31-.05,.6,.45,1.29,.89,1.77,.96,1.04,2.52,2.1,3.66,2.1,.09,0,.17,0,.26-.02-.22,.1-.44,.27-.46,.55-.04,.54,.63,.64,.84,.67,.84,.13,2.83,1.89,3.76,3.94,.56,1.25,1.58,1.52,2.33,1.52,.97,0,1.95-.45,2.3-.78,.17-.16,.25-.39,.25-.68,0-.92-.86-2.42-1.98-3.48-1.5-1.42-6.36-1.83-6.56-1.85h-.05s-.08,0-.13,.01c1.88-1,5.27-10.24,5.31-10.34,.5-1.43-3.56-5.32-3.61-5.36-.26-.22-.7-.32-1.36-.32-1.12,0-2.76,.32-3.82,.74-.31,.12-.65,.24-.98,.33,.07-.04,.14-.08,.22-.12,1.6-.9,3.71-1.36,6.27-1.36,.79,0,1.61,.05,2.45,.14,1.03,.11,2.1,.76,2.88,1.24,.59,.36,.95,.58,1.26,.58,.02,0,.04,0,.06,0,.21-.02,.4-.13,.52-.31,.27-.4,.22-1.11-.16-2.49Zm-18.11,8.83c-.09,.05-.17,.1-.25,.14-.58,.34-.96,.56-1.12,1.3-.07,.29,0,.57,.19,.81,.24,.29,.63,.47,1.06,.47,.31,0,.61-.1,.87-.28-.03,.2-.1,.45-.21,.65-.17,.3-.43,.48-.7,.48-.21,0-.43-.11-.65-.33-1.54-1.54-2.1-2.65-1.66-3.3h.01v-.03c.42-.75,1.24-1.86,1.76-2,.32-.09,.61-.23,.84-.34,.09-.04,.2-.1,.29-.13,0,.03,.01,.06,.01,.11,.17,1.8-.2,2.3-.43,2.45Zm.14-9.02s-.17-.12,.04-.01c.21,.11,5.2-1.15,5.99-1.36-.07,.02,.03,.27-.09,.33-.72,.07-5.34,1.6-5.81,1.83,.02-.12-.03-.67-.13-.79Zm7.34,3.84c.08,0,.13,.02,.19,.09,.1,.11,.4,.59,.21,2.22-.24,2.09-1.37,5.24-1.93,6.03-.14,.19-.22,.29-.27,.33-.07-.06-.18-.18-.27-.28l-.09-.1c-.09-.09-.15-.17-.21-.25-.22-.29-.4-.47-.91-.47-.23,0-.53,.03-1,.1-.08,.01-.16,.01-.22,.01h-.02c.07-.16,.28-.49,.87-1.13,.34-.37,.51-.45,.85-.6,.21-.1,.49-.22,.87-.45,.53-.32,.77-.8,.63-1.28-.19-.68-1.02-1.11-2.12-1.11-.2,0-.35-.04-.38-.1-.1-.19,.12-.77,.39-1.16l.07-.11v-.12c.03-.24,1.13-.7,1.66-.92,.43-.18,.88-.37,1.26-.57,.2-.11,.33-.13,.41-.13Zm-12.71-7.38c.26-.58,2.16-2.2,3.45-2.2,.19,0,.35,.04,.47,.12,.97,.63,2.63,1.32,3.97,1.32s2.22-.66,2.48-1.87c.1-.46,.3-.87,.57-1.22-.11,.4-.19,.85-.27,1.3-.05,.28-.1,.54-.15,.76-.22,.98-1.7,1.5-3.41,2.11-.18,.06-.35,.12-.53,.19-.4,.14-.74,.22-1,.22-.53,0-.74-.28-1.17-.92-.13-.19-.27-.41-.45-.63-.15-.19-.38-.45-.7-.45-.69,0-.75,.89-.85,2.25-.04,.53-.08,1.07-.15,1.58-.12,.76-.48,.86-.78,.86-.33,0-.64-.14-.65-.14l-.04-.02h-.05c-.09-.03-.17-.04-.25-.04-.17,0-.3,.05-.4,.13,.44-1.65,.59-2.88-.07-3.36Z"/>
          <g>
            <g>
              <path class="e" d="M128.25,113.34s-4.16,3.2-4.4,3.81c-.24,.62-1.75,.85-1.42,2.07,.33,1.22,.67,3.44,1.75,4.59,1.07,1.15,1.89,1.69,2.64,.9,.76-.8,2.06-6.27,2.33-7.3,.26-1.03,.61-2.84,.4-3.11-.21-.27-.68-1.18-1.29-.96Z"/>
              <path class="e" d="M153.5,109.58c-2.26-.62-9.15,.29-9.6,.28-.46-.01-.53-.61-.53-.61-2.06-5.54-3.35-6.09-4.38-6.51-1.03-.42-1.54,1.46-1.5,2.41,.04,.95,.19,5.64-.23,6.31-.42,.66-2.46,1.13-3.22,1.26-.76,.13-1.67,1.61-1.31,1.78,.36,.18,.4,.32,.97,.95,.57,.62,2.3,.32,2.3,.32,.85-.85,4.53-1.68,4.93-1.76,.41-.08,1.46,.22,.93,.51-.53,.29-2.91,2.01-3.27,2.31-.36,.31-1.25,1.55-3.96,3.15-2.71,1.6-2,2.72-1.98,4.82,.01,2.1,1.93,3.89,2.44,4.02,.51,.12,.55-.22-.71,3.45-1.26,3.66-.7,6.44-.05,7.88,.66,1.43,3.61,2.07,4.2,1.73,.59-.34,1.28-.78,1.55-1.05,.26-.25,6.37,0,6.85,0s2.34,.9,3.38,.1c1.04-.79,.7-2.42,.28-2.93-.41-.52-.36-1.31-.14-1.31s1.58-1.03,2.91-3.03c1.35-2.01,.23-3.56-1.17-4.85-1.41-1.29-4.91-1.04-6.78-1.04s-6.05,1.57-6.05,1.57c0,0-.79-.19,1.23-2.29,2.02-2.09,4.04-1.54,4.54-1.54,.49,0,1.62-1.19,1.81-1.93,.18-.75-.48-.55-.78-1.25-.29-.69,1.87-1.14,2.87-2.85,.99-1.71-.67-3.14-2.36-3.49-1.67-.34-5.62,.26-6.4,.48-.78,.21,.78-1.15,1.82-1.64,1.04-.48,1.29-1.36,1.29-1.36,0,0-.16,.32-.78,.4-.63,.07-.39-.25,.53-1.36,.91-1.12,4.91-1.9,5.37-1.82,.46,.07-.33,.41-.7,.54-.37,.13-1.82,.81-1.51,.91,.32,.1,1.42,.03,1.61,.03s2.65-.46,4.4,0c1.75,.45,2.7-.26,3.09-.76,.39-.49,.37-1.21-1.89-1.83Zm-13.49,23.15s4.45,.49,4.67-.01c.22-.5,.96-.64,.96-.35s-.38,1.64-.78,1.79c-.38,.14-1.08,1.19-1.48,1.29-.39,.09-2.06,.42-3.11,.72-1.05,.29-1.64,.39-2.51-1.28-.88-1.66,.51-4.55,.51-4.55,.23-.52,.26,.26,.26,1.28s1.49,1.12,1.49,1.12Zm2.98-12.44c-.12,.55-1.12,1.9-2.33,2.26-1.21,.35-3.1,.97-3.17,1.65-.07,.67-.27,1.02-.52,.64-.26-.38-.78-2.32-1.04-2.54-.25-.23,.59-2.27,1.3-2.11,0,0,1.04,.35,1.66,.15,.63-.2,4.25-.58,4.1-.04Zm6.92-9.93c-.29-.04-.28,0-.65,.26-.37,.25-.13-.51-.13-.51,0,0,.45-.03,.65-.03,.19,0,.42,.32,.13,.28Z"/>
            </g>
            <path class="e" d="M154.05,110.07s-1.3,3.94-2.14,4.23c0,0,3.88-.72,3.66-2.53-.22-1.81-1.52-1.7-1.52-1.7Z"/>
          </g>
        </g>
      </g>
    </g>
  </g>
</svg>