<svg height="89.41" viewBox="0 0 412.85 89.41" width="412.85" xmlns="http://www.w3.org/2000/svg"><path d="m53.23 8.25a5 5 0 0 1 -3-2.28c-1.3-2.29-3.23-4.42-6.83-4.45-2.48 0-5.35.89-6.86 2.82a.46.46 0 0 0 0 .58 1.39 1.39 0 0 1 .26 1.23c-.2.74-1 1.14-1.72 1.52a6.85 6.85 0 0 1 -1.51.58 5 5 0 0 1 -3.7-.49c-2.31-1.31-5.08-2.17-8.17-.42-2.16 1.22-4.19 3.44-4.54 5.87a.5.5 0 0 0 .3.51 1.36 1.36 0 0 1 .84.93 3 3 0 0 1 -.73 2.17 7.16 7.16 0 0 1 -1 1.26 5 5 0 0 1 -3.45 1.43c-2.67 0-5.49.66-7.29 3.72-1.26 2.13-1.92 5.08-1 7.35a.51.51 0 0 0 .51.3 1.34 1.34 0 0 1 1.19.37 3 3 0 0 1 .47 2.26 6.75 6.75 0 0 1 -.25 1.59 5.07 5.07 0 0 1 -2.28 3c-2.31 1.3-4.47 3.28-4.47 6.83 0 2.48.89 5.36 2.82 6.86a.48.48 0 0 0 .58 0 1.39 1.39 0 0 1 1.23-.26c.74.19 1.14 1 1.52 1.72a7 7 0 0 1 .58 1.51 5 5 0 0 1 -.49 3.7c-1.31 2.31-2.17 5.08-.42 8.17 1.22 2.16 3.44 4.19 5.87 4.53a.48.48 0 0 0 .51-.29 1.38 1.38 0 0 1 .93-.84 2.94 2.94 0 0 1 2.16.73 6.88 6.88 0 0 1 1.27 1 5 5 0 0 1 1.44 3.47c0 2.65.65 5.48 3.72 7.28 2.13 1.26 5.07 1.91 7.35 1a.49.49 0 0 0 .29-.51 1.34 1.34 0 0 1 .38-1.19 3 3 0 0 1 2.26-.46 6.83 6.83 0 0 1 1.6.25 5.08 5.08 0 0 1 3 2.27c1.33 2.3 3.31 4.43 6.86 4.46 2.48 0 5.35-.89 6.86-2.81a.49.49 0 0 0 0-.59 1.39 1.39 0 0 1 -.32-1.23c.2-.74 1-1.14 1.71-1.51a6.48 6.48 0 0 1 1.51-.59 5 5 0 0 1 3.71.49c2.31 1.32 5.08 2.17 8.17.42 2.16-1.22 4.19-3.44 4.53-5.87a.48.48 0 0 0 -.29-.51 1.39 1.39 0 0 1 -.84-.92 3 3 0 0 1 .74-2.21 6.73 6.73 0 0 1 1-1.26 5 5 0 0 1 3.46-1.43c2.65 0 5.48-.66 7.29-3.71 1.25-2.14 1.9-5.09 1-7.36a.5.5 0 0 0 -.51-.29 1.35 1.35 0 0 1 -1.19-.39 2.94 2.94 0 0 1 -.46-2.24 6.83 6.83 0 0 1 .25-1.6 5 5 0 0 1 2.27-3c2.3-1.33 4.43-3.3 4.46-6.86 0-2.48-.89-5.35-2.81-6.86a.49.49 0 0 0 -.59 0 1.39 1.39 0 0 1 -1.23.26c-.74-.19-1.14-1-1.51-1.72a6.87 6.87 0 0 1 -.59-1.51 4.93 4.93 0 0 1 .49-3.7c1.32-2.31 2.17-5.08.42-8.17-1.22-2.16-3.44-4.2-5.87-4.53a.48.48 0 0 0 -.51.29 1.36 1.36 0 0 1 -.92.84 3 3 0 0 1 -2.18-.73 6.73 6.73 0 0 1 -1.26-1 5 5 0 0 1 -1.43-3.46c0-2.65-.66-5.48-3.72-7.28-2.1-1.21-5.1-1.87-7.35-.95a.49.49 0 0 0 -.29.51 1.38 1.38 0 0 1 -.39 1.2 3 3 0 0 1 -2.24.45 6.83 6.83 0 0 1 -1.6-.25zm-1.06 3.94a33.93 33.93 0 0 1 24 24 34 34 0 0 1 0 17.54 34 34 0 0 1 -8.77 15.19 33.74 33.74 0 0 1 -7 5.38 33.74 33.74 0 0 1 -16.99 4.5 34.52 34.52 0 0 1 -8.77-1.14 34.29 34.29 0 0 1 -15.19-8.77 35.33 35.33 0 0 1 -5.39-7 34.52 34.52 0 0 1 -3.39-8.17 33.95 33.95 0 0 1 15.79-38.14 34.69 34.69 0 0 1 8.17-3.39 34.3 34.3 0 0 1 17.54 0z"/><path d="m68.85 61-.7.13c-1.38.29-3.06.79-4.58 1a55 55 0 0 1 -12.43.25c-4.53-.44-7.06-.93-13.61-3.28-1.69-.6-3.12-.9-5-1.58a28 28 0 0 0 -3.82-1 14.72 14.72 0 0 0 -2.23-.16 27.61 27.61 0 0 0 3.33-2 17.82 17.82 0 0 0 3.87-3.16 19.68 19.68 0 0 0 1.53-1.76 1.48 1.48 0 0 0 .3-1.32 1.83 1.83 0 0 0 -.88-.92 2.42 2.42 0 0 0 -2 .08c-.68.34-.61.94-1.1 1.37a15.08 15.08 0 0 1 -2.83 1c.56-.6 1-1 1.63-1.77a24.16 24.16 0 0 0 1.78-2.23c.63-.9 1.1-1.57.49-2.09 1.25-.61 3.34-1.57 4.63-2s2.18-.89 3.42-1.31c.45-.15.88-.32 1.26-.45a27.58 27.58 0 0 0 -4 6.5 17.43 17.43 0 0 0 -1.46 8.85 2.47 2.47 0 0 0 1.23 1.53 1.26 1.26 0 0 0 1.3 0 2.42 2.42 0 0 0 .72-.86l.19.19a1 1 0 0 0 .76.19c.79-.14 1.56-.31 2.34-.44a.43.43 0 0 1 .37.2 14 14 0 0 0 1.4 2.19 2 2 0 0 0 1 .68.93.93 0 0 0 1-.47 6.55 6.55 0 0 0 .75-2.77c.06-.64-.17-1.3-.16-1.93 0-.4 0-.81 0-1.21 0-.92 0-1.84.05-2.75a22.25 22.25 0 0 1 .35-3 2.37 2.37 0 0 0 0-1.49 4 4 0 0 0 -.67-1 5.7 5.7 0 0 0 -1.27-1 2.08 2.08 0 0 0 -2.4-.21 9.38 9.38 0 0 1 -2 1.17 1.74 1.74 0 0 1 -.71.22 10.5 10.5 0 0 1 2.14-2.63 27 27 0 0 1 4.58-3c.88-.51 3.52-1 4.45-1.36a1.22 1.22 0 0 0 0-2.26c-.89-.42-2.35-.61-3.27-.94a2.7 2.7 0 0 0 -2.4.13c-1.44 1.06-4.74 3.31-4.7 2.9s.57-2.28 1.56-2.85a21 21 0 0 0 3.19-3.22c.63-.67.53-.59.79-.87a3.94 3.94 0 0 0 .55-.62 24 24 0 0 0 2.24-1.85c.35-.29.06-1.26.11-1.45s-.62-.7-1.81-.76a3 3 0 0 0 -2 .81 14.06 14.06 0 0 0 -2 3.1 5.9 5.9 0 0 1 -1.13 2.58c-.24.25-.32 1-.79.69a4.67 4.67 0 0 1 0-1.34c.11-.65 0-1.41.1-2.07a5.86 5.86 0 0 1 .11-1.45 2.4 2.4 0 0 0 0-1.59c-.13-.41-1.13-.83-1.54-1.12a9.38 9.38 0 0 0 -1.22-.49c-.42-.14-1 .09-1.12 0s-.23.94-.23.94a3 3 0 0 1 1 1.93 21.7 21.7 0 0 1 -.31 4.33c-.22 1.48-.49 2.84-.81 4.18a9.46 9.46 0 0 1 -.44 2.33c-.28.13-.47.52-.75.64-1.22.55-1.3.83-2.7 1.46-1.91.85-2.7 1.16-4.82 2.09-.05-.72-.22-4.15-.22-4.79 2.2-1.62 3.45-2.52 5.51-4.32a1 1 0 0 0 .24-.91c-.08-.36-.48-.66-.6-.91-.53-1.22-1-1.21-2-2a13.49 13.49 0 0 1 -2-1.89c-.48-.57-1.14-1.35-1.61-2a5.65 5.65 0 0 1 0-.78c0-.3 0-.52 0-.82 0-1.55.06-1.87.44-2.21s-.24-1-1.14-1.4a1.37 1.37 0 0 0 -1.39.18 2.68 2.68 0 0 0 -1.13 1.58 2.55 2.55 0 0 0 0 1.5 3 3 0 0 1 .4 1.07c.08 1.07.18 1.51.26 2.59a55.15 55.15 0 0 1 .22 6 29.28 29.28 0 0 1 -8 3.86 2.56 2.56 0 0 1 -1.5.08l-.64-.13a2.24 2.24 0 0 1 -.46-.14s-.07 0 0 .05l.27.42c.69 1.07 1.17 1 2.21 1.59a11.62 11.62 0 0 0 3.17 1.49 5.85 5.85 0 0 0 3.71-.34c.43-.24 1.19-.81 1.62-1 .06.64.15 4 .13 4.51-.78.53-1.87 1.09-2.71 1.55-1.35.74-2.55 1.34-4 2a.73.73 0 0 1 -1-.37 2.65 2.65 0 0 1 0-1.19 5.48 5.48 0 0 1 .1-.56c0-.06-.05-.07-.1 0a3.59 3.59 0 0 0 -.39.39 6 6 0 0 0 -1.1 1.83.86.86 0 0 0 .35 1 3.37 3.37 0 0 0 2.13.75c.56 0 1.26.13 1.82.14a2.28 2.28 0 0 0 1.54-.57c2-1.48 3.9-2.74 5.74-4a13.72 13.72 0 0 1 -2.15 3.72 9.59 9.59 0 0 1 -1.82 1.77 4.27 4.27 0 0 1 -.84.46 2.55 2.55 0 0 0 -.91.36.8.8 0 0 0 -.29 1.08 3.4 3.4 0 0 0 .53.6c.39.36 1.08.52 1.38.24.54-.49 1.13-.48 1.79-.76l1.58-.49a8.21 8.21 0 0 1 -2 1.84c-.31.21-1.11.79-1.43 1a13.6 13.6 0 0 1 -2.19 1.22 5.22 5.22 0 0 1 -1.62-.2 9.23 9.23 0 0 0 -2-.31 1.18 1.18 0 0 0 -1.23.87 3.26 3.26 0 0 0 -.15 2.72c.29.49.4.88 1 1a2 2 0 0 0 1.37-.16 8 8 0 0 1 3.26-.92 9 9 0 0 1 2.37 0 23.08 23.08 0 0 1 3.42.6 18.61 18.61 0 0 1 2.63.92c.7.29 4.09 1.64 4.79 2 3.92 2 5.44 2.59 7.68 3.59 1.92.86 7.15 3 10.37 1.62s5.89-1.23 10.94-4.12a6 6 0 0 0 2.69-1.53l.43-.73c.13-.27.29-.38-.1-.27zm-24.24-7.6a2.45 2.45 0 0 1 -.12.7 4.44 4.44 0 0 0 -1.08-.68 1 1 0 0 0 -.67 0c-.37.11-.55.15-.82.24a12.35 12.35 0 0 1 -1.61.45.88.88 0 0 1 -.53 0 .5.5 0 0 0 -.24 0 .69.69 0 0 1 -.17-.31 5.08 5.08 0 0 1 0-1c0-.32 0-.64 0-1a4.2 4.2 0 0 1 -.19-.78c0-.73.08-1.45.17-2.16l.15.24a2.85 2.85 0 0 0 1.44 1.17c.27.11.54.19.8.28s.59.08.61.32a.4.4 0 0 1 -.16.34 1.19 1.19 0 0 1 -.54.32c-.08 0-.07.07.06 0a6 6 0 0 0 .7-.18c.14-.05.24-.05.53-.13l.56-.17a3.66 3.66 0 0 0 .68 0 1.59 1.59 0 0 0 .52-.05 20.6 20.6 0 0 1 -.09 2.4zm-3.68-8a3.38 3.38 0 0 0 1 .4 2.57 2.57 0 0 0 1.32-.07 3.71 3.71 0 0 1 1.09-.22c.4 0 .57.28.57.64v3a6.22 6.22 0 0 0 -.54-.35 6.69 6.69 0 0 0 -2.49-.64 1.64 1.64 0 0 0 -1.16.23 2.3 2.3 0 0 1 -1 .43h-.3a12.57 12.57 0 0 1 .79-3.21 6.73 6.73 0 0 1 .32-.73 1.21 1.21 0 0 0 .4.49zm-12.17-14.4c0-.7 0-2.68.06-3.38a19.52 19.52 0 0 0 1.55 2.73 1.8 1.8 0 0 1 .43 1 .65.65 0 0 1 -.37.61 8.42 8.42 0 0 1 -1.48.65c-.07-.61-.17-1.12-.19-1.61z"/><path d="m51.83 32.71a3.91 3.91 0 0 0 3 .91 8.67 8.67 0 0 0 3.27-1.34 19.9 19.9 0 0 1 0 2.44 1.81 1.81 0 0 1 0 .31 7.83 7.83 0 0 1 -1.92-.41 7.35 7.35 0 0 1 -.77-.32c-.09 0-.1 0 0 .08.19.21.38.39.57.58.4.42 1.16 1.09 1.58 1.49a9.25 9.25 0 0 0 -1.33 2.18c-.73 1.49-1.32 2.92-1.92 4.49-.51 1.33-1 2.64-1.57 4a50.08 50.08 0 0 0 -1.83 5.51 3.5 3.5 0 0 0 -.28 1.23 3 3 0 0 0 .37 1.59 7.68 7.68 0 0 1 .51.8.8.8 0 0 0 .33.56c.23.19 1.2.25 1.43-.41a27 27 0 0 0 .92-3.48 65.88 65.88 0 0 1 1.64-6.47 1.48 1.48 0 0 0 1.37.1 3.56 3.56 0 0 0 .86-.59s.11-.12.16-.12a.86.86 0 0 1 .14.13.82.82 0 0 1 .1.7 6.08 6.08 0 0 1 -1.07 1.79 6.58 6.58 0 0 1 -.94 1.09 5.23 5.23 0 0 0 -.9.92.57.57 0 0 0 .15.81 1.74 1.74 0 0 0 .67.13 2.74 2.74 0 0 1 .5.08h.09a1.5 1.5 0 0 1 .72.9 1.44 1.44 0 0 1 -.31 1 2.74 2.74 0 0 1 -.71.53 6 6 0 0 0 -.7.4s-.08.07 0 0l.83-.15c.57-.11 1 .12 1.57 0a3.76 3.76 0 0 0 2.13-1.46 1.87 1.87 0 0 0 -.32-1.85 3 3 0 0 0 -1.5-.88 3.22 3.22 0 0 0 -2 .3 15.45 15.45 0 0 0 2.89-2.74 4.14 4.14 0 0 0 .71-2.54 2.27 2.27 0 0 0 -1.12-1.79c-.58-.28-1.24.17-1.68.49a6 6 0 0 1 -1.31.68c.15-.46.31-1 .49-1.44a3.91 3.91 0 0 1 1-1.38 4.39 4.39 0 0 1 .8-.62 4.1 4.1 0 0 1 2-.7c.44 0 .5.69.5 1.05 0 2.29.11 4.57.12 6.85a67.31 67.31 0 0 1 -.33 7.65 4.85 4.85 0 0 1 -3 3.62 2.75 2.75 0 0 1 -2.19-.06 2.09 2.09 0 0 1 -1.16-1.12c0-.11-.1-.12-.15-.17a.44.44 0 0 1 -.08-.28c0-.06-.09 0-.08 0s0 .23 0 .33a2.69 2.69 0 0 0 .09.44 2.33 2.33 0 0 0 .39.79 4.14 4.14 0 0 0 3.17 1.54 5.45 5.45 0 0 0 3.27-.71c1.1-.69 2.43-1.72 2.6-3.1a52.51 52.51 0 0 0 .53-5.6 67.2 67.2 0 0 0 -.22-11.08 2.81 2.81 0 0 0 -1.91-2.2 3.57 3.57 0 0 0 -2.39 0 7.32 7.32 0 0 0 -1.32.81 16.68 16.68 0 0 0 -3 3.2 35 35 0 0 1 1.75-3.36 10.22 10.22 0 0 1 1.66-1.73c1.4 0 1.39-1 1.44-1.69.77-1 1.74-2.08 2.55-3a39.11 39.11 0 0 0 3.13-3.54 7.31 7.31 0 0 0 .54-.94c.22-.53-.43-1.3-.79-1.58a3.81 3.81 0 0 0 -1.49-.85 1.32 1.32 0 0 0 -1.19.22 2 2 0 0 0 -.41.69c-.06.17-.11.37-.18.54a8.86 8.86 0 0 1 -2.3 2.22c0-1.42 0-2.85.05-4.26a4.63 4.63 0 0 1 .26-1.69 1.65 1.65 0 0 0 -.11-1.75c-.15-.16-.35-.27-.51-.42s-.35-.53-.67-.76a11.54 11.54 0 0 1 -1.26-.95c-.13-.11-.26-.24-.39-.37s0 0 0 0a4.73 4.73 0 0 1 0 .52 3.11 3.11 0 0 0 .11.68 6.76 6.76 0 0 1 .09 1.35 29.46 29.46 0 0 0 .27 3.51 21.73 21.73 0 0 1 .36 3.22v1.76a5.44 5.44 0 0 1 -2.83.74 6 6 0 0 1 -2.27-.41 6.23 6.23 0 0 1 -1.78-1.12 2.13 2.13 0 0 1 -.69-1.09c-.09-.33-.17-.64-.25-1 0-.16-.12-.15-.14 0 0 .35-.07.66-.1 1a9.2 9.2 0 0 0 0 1.66 4.31 4.31 0 0 0 1.69 2.91zm8.24-1.26a17.89 17.89 0 0 0 2.3-3.08c.1-.15.1-.07.07.05a12.49 12.49 0 0 1 -2.44 5.19c0-.41.06-1.74.07-2.16z"/><path d="m318.64 19.92h-3.74v10.14h-3v-10.14h-3.67v-2.31h10.41z"/><path d="m326.66 27.73h-4.12l-.72 2.33h-3.2l4.56-12.45h2.82l4.6 12.45h-3.23zm-3.4-2.31h2.68l-1.35-4.32z"/><path d="m335.41 30.06h-3v-12.45h3z"/><path d="m348.28 25.84a4.52 4.52 0 0 1 -.71 2.3 4.13 4.13 0 0 1 -1.8 1.54 6 6 0 0 1 -2.64.55 4.88 4.88 0 0 1 -3.87-1.6 6.59 6.59 0 0 1 -1.41-4.51v-.62a7.43 7.43 0 0 1 .64-3.2 4.7 4.7 0 0 1 1.83-2.12 5.11 5.11 0 0 1 2.77-.75 5.42 5.42 0 0 1 3.65 1.19 4.73 4.73 0 0 1 1.56 3.29h-3a2.24 2.24 0 0 0 -.58-1.63 2.28 2.28 0 0 0 -1.64-.5 1.8 1.8 0 0 0 -1.64.84 5.38 5.38 0 0 0 -.55 2.67v.89a6 6 0 0 0 .5 2.84 1.85 1.85 0 0 0 1.73.86 2.28 2.28 0 0 0 1.58-.49 2.07 2.07 0 0 0 .58-1.55z"/><path d="m360.8 30.06h-3v-5.2h-4.4v5.2h-3v-12.45h3v4.94h4.42v-4.94h3z"/><path d="m373.17 17.61v8.15a4.74 4.74 0 0 1 -.59 2.4 3.83 3.83 0 0 1 -1.69 1.54 6 6 0 0 1 -2.61.53 5.12 5.12 0 0 1 -3.58-1.18 4.19 4.19 0 0 1 -1.34-3.23v-8.21h3v8.27c0 1.36.67 2 1.9 2a1.84 1.84 0 0 0 1.41-.51 2.4 2.4 0 0 0 .48-1.67v-8.09z"/><path d="m386.15 30.06h-3l-4.41-7.75v7.75h-3v-12.45h3l4.4 7.75v-7.75h3z"/><path d="m398.94 28.52a4.82 4.82 0 0 1 -2 1.24 8.81 8.81 0 0 1 -2.92.47 5.21 5.21 0 0 1 -3.91-1.5 6 6 0 0 1 -1.57-4.16v-1.08a7.48 7.48 0 0 1 .65-3.21 4.82 4.82 0 0 1 1.81-2.11 5.18 5.18 0 0 1 2.8-.74 5.51 5.51 0 0 1 3.61 1.06 4.5 4.5 0 0 1 1.5 3.18h-2.91a2.36 2.36 0 0 0 -.67-1.49 2.17 2.17 0 0 0 -1.45-.44 2 2 0 0 0 -1.75 1 5.19 5.19 0 0 0 -.62 2.74v.75a5 5 0 0 0 .64 2.81 2.25 2.25 0 0 0 2 .93 2.52 2.52 0 0 0 1.75-.52v-1.98h-2.09v-2.06h5.09z"/><path d="m319.06 49.54a4.82 4.82 0 0 1 -2 1.24 8.81 8.81 0 0 1 -2.92.47 5.22 5.22 0 0 1 -3.91-1.5 6 6 0 0 1 -1.56-4.16v-1.08a7.3 7.3 0 0 1 .65-3.21 4.74 4.74 0 0 1 1.86-2.11 5.18 5.18 0 0 1 2.8-.74 5.51 5.51 0 0 1 3.61 1.06 4.5 4.5 0 0 1 1.5 3.18h-2.89a2.31 2.31 0 0 0 -.67-1.49 2.11 2.11 0 0 0 -1.45-.44 2 2 0 0 0 -1.74 1 5.16 5.16 0 0 0 -.63 2.74v.75a4.93 4.93 0 0 0 .64 2.8 2.23 2.23 0 0 0 2 .94 2.51 2.51 0 0 0 1.75-.52v-1.98h-2.1v-2.06h5.09z"/><path d="m331.27 38.63v8.15a4.64 4.64 0 0 1 -.59 2.4 3.78 3.78 0 0 1 -1.68 1.54 6 6 0 0 1 -2.61.53 5.14 5.14 0 0 1 -3.58-1.18 4.23 4.23 0 0 1 -1.34-3.23v-8.21h3v8.27c0 1.36.67 2 1.9 2a1.84 1.84 0 0 0 1.41-.51 2.4 2.4 0 0 0 .48-1.67v-8.09z"/><path d="m340.73 48.75h-4.11l-.72 2.33h-3.21l4.57-12.45h2.82l4.6 12.45h-3.22zm-3.39-2.31h2.66l-1.34-4.32z"/><path d="m356.69 51.08h-3l-4.42-7.75v7.75h-3v-12.45h3l4.41 7.75v-7.75h3z"/><path d="m369.49 49.54a4.88 4.88 0 0 1 -2 1.24 8.87 8.87 0 0 1 -2.93.47 5.18 5.18 0 0 1 -3.9-1.5 6 6 0 0 1 -1.57-4.16v-1.08a7.44 7.44 0 0 1 .65-3.21 4.74 4.74 0 0 1 1.86-2.11 5.21 5.21 0 0 1 2.8-.74 5.54 5.54 0 0 1 3.6 1.06 4.58 4.58 0 0 1 1.5 3.18h-2.89a2.42 2.42 0 0 0 -.67-1.49 2.13 2.13 0 0 0 -1.45-.44 2 2 0 0 0 -1.75 1 5.08 5.08 0 0 0 -.62 2.74v.75a5 5 0 0 0 .63 2.8 2.26 2.26 0 0 0 2 .94 2.5 2.5 0 0 0 1.74-.52v-1.98h-2.09v-2.06h5.09z"/><path d="m381.71 40.94h-3.71v10.14h-3v-10.14h-3.7v-2.31h10.41z"/><path d="m386.87 51.08h-3v-12.45h3z"/><path d="m396.89 48.75h-4.12l-.72 2.33h-3.2l4.56-12.45h2.83l4.6 12.45h-3.23zm-3.4-2.31h2.68l-1.34-4.32z"/><path d="m412.85 51.08h-3l-4.41-7.75v7.75h-3v-12.45h3l4.4 7.75v-7.75h3z"/><path d="m318.64 62h-3.74v10.1h-3v-10.1h-3.67v-2.35h10.41z"/><path d="m328.33 66.81h-4.72v3h5.58v2.29h-8.58v-12.45h8.59v2.35h-5.59v2.63h4.72z"/><path d="m335.05 59.65 2.78 8.66 2.77-8.66h4v12.45h-3v-2.91l.29-5.95-3 8.86h-2l-3-8.87.29 6v2.87h-3v-12.45z"/><path d="m350.17 67.87v4.23h-3v-12.45h5a5.81 5.81 0 0 1 2.53.52 4 4 0 0 1 1.7 1.5 4.1 4.1 0 0 1 .6 2.2 3.58 3.58 0 0 1 -1.3 2.91 5.39 5.39 0 0 1 -3.58 1.09zm0-2.31h2a1.85 1.85 0 0 0 1.33-.44 1.6 1.6 0 0 0 .46-1.23 2 2 0 0 0 -.47-1.4 1.7 1.7 0 0 0 -1.28-.53h-2z"/><path d="m362.27 69.79h5.22v2.31h-8.22v-12.45h3z"/><path d="m377.18 66.81h-4.72v3h5.54v2.29h-8.58v-12.45h8.59v2.35h-5.59v2.63h4.72z"/><path d="m198.1 7.79c.66-.19 2.07-.93 1.59-1.75s-3.05-2.74-3.69-1.4a.75.75 0 0 0 .34.8c.49.35-.58.62-1.12.79a18.06 18.06 0 0 1 -3 .9c-.27-.11.72-.6 1.13-1.09s2.17-2.28 2.18-2.87 0-2-.86-2.38-1-.24-1-.24-.33.4-.2.74-3.53 5.33-4.6 6.32.37 2.65 1 2.6 6.65-3.09 6.1-2.29a12.71 12.71 0 0 1 -4 3.17 2.36 2.36 0 0 0 -1.08 2.81c.17.52 1.33 2 1.63 1.93a1.65 1.65 0 0 0 1-.42c.29-.33 1.72.06 1.95.15a7.11 7.11 0 0 0 2.66-.14c.3-.26.59-1.56-.13-1.62s-1-.1-.86-.3a7.82 7.82 0 0 1 1.11-1.44c.24-.14.9-.75.2-1.22a2.89 2.89 0 0 0 -1.85-.45 12.1 12.1 0 0 1 -2 .09 15.31 15.31 0 0 1 3.5-2.69zm-3.27 4.21c-1.57 1-1.33 1.54-1.72 1.53s-.31-1.26-.32-1.37 0-.34 0-.34a8.85 8.85 0 0 1 2.04.18z"/><path d="m213.84 2.69a2.91 2.91 0 0 0 -1.64-.13 7.74 7.74 0 0 0 -1.56.48c-.1.13-.31 0-.31-.26s-.07-2.26-.08-2.32-.13-.58-1.17-.44a1.4 1.4 0 0 0 -.42.3c-.16.19-.4.44-.43.49s-.33.5 0 .5.45-.11.54.59a.38.38 0 0 1 .15.23c0 .12-.12.69 0 .88s.42.62-.8 1a4.93 4.93 0 0 0 -2.22 1.54.82.82 0 0 1 -.74 0c-.48-.16-.62 0-.62 0s-.36-.27-.5-.12-.4.31 0 1.19.71 2 2.44 2.41a1.5 1.5 0 0 1 .25.29 1.48 1.48 0 0 0 1.07.32c.19-.1 1.07-.92 1.33-.68s0 0 0 0a2.59 2.59 0 0 1 .09.76c-.05.19-.14.56-.05.63s-.06.66-.07.73a14.86 14.86 0 0 0 .13 2.9c.18.32.16 1.28.39 1.49s-.31.58-.38.62.15.37.31.12.3-.58.41-.57a2.17 2.17 0 0 0 .52-1.51c0-.75.07-2.53 0-3s.2-1.42.12-2.08 0-1 .57-1.07a1.52 1.52 0 0 0 .7-.21c.14-.06.56 0 .7-.51s-.48-1-1-1.11.14-.49.14-.49a3.81 3.81 0 0 1 .81-.4 3.7 3.7 0 0 0 1-.6 5.13 5.13 0 0 0 1-.81 1 1 0 0 0 -.68-1.16zm-5.22 4.09c-.53.31-1 .79-1.31.74s-.93-1.36-.93-1.36.55-.09.8-.16a2 2 0 0 1 .64-.08 4.91 4.91 0 0 0 1.16-.2 1 1 0 0 1 -.36 1.06z"/><path d="m236 61.92c-.26-1.39-5.83-4.15-9.91-4.94a26.7 26.7 0 0 1 -9.73-3.91c-3.3-2-10.24-7.54-10.57-8.75s6.84-4.9 8-4.76a21.53 21.53 0 0 0 5.21-.29c1-.29.89-1.6.41-2.25s-3.21-1.62-6.74-1.67-4.4-1.12-5-1.4-1-1-.41-1.05a10.53 10.53 0 0 0 2.91-2.12c.38-.42 1.57-1.54 1.57-1.54 2.61-1.22 3.7-3.16 3.41-4.38s-2.44-2-4.6-2.26-5.55 1.4-6.34 1.86a49.84 49.84 0 0 1 -6.4 3.39 1.64 1.64 0 0 0 -1.37 1.73c0 .6 1 1.09 1.12 1.36s.92.28 2.73.84 1.41 3.53 1.41 3.53a13 13 0 0 1 -.57 3.68c-.54 1.53-3.6 2.63-8.26 4.42s-2.63 2.74-1.85 3.29 4.86 2.24 6.43 3.1.73 2.07.11 2.52-2.27 3.18-3.4 4.89-2.6 2.33-5.54 3.65-1.18 2.44-.36 2.73 4.61-.77 8.6-2.74 4.84-7.78 4.84-8.52 1.67-4.23 2.24-4.23 5.73 7.9 5.73 7.9 8.23 9.16 16.58 9.73 10.05-2.43 9.75-3.81zm-28.81-25.29c.24-.33.88-1.4.88-1.4l.29-.16c.27-.15.14.24.23.56s.61 0 .61.46-.3.32-1 .66-1.2.25-1.01-.12z"/><path d="m180 38.6c-.5-1.8-3.09-2.75-3.95-3a1.8 1.8 0 0 0 -.43 0 21.36 21.36 0 0 0 -4.49 1l-1.8.51-.38.09a3.94 3.94 0 0 0 .39-.7 1 1 0 0 0 0-.86 11.7 11.7 0 0 1 1.76-.86c.81-.35 1.86-.91 1.68-1.78-.25-1.18-2.71-1.43-3.18-1.43-.28 0-.39-.19-.68-1a5 5 0 0 0 -1.14-2 1.42 1.42 0 0 0 -.31-.25 5.41 5.41 0 0 1 2.09-.44 3 3 0 0 1 1.14.19 2.83 2.83 0 0 0 1.07.2c1.35 0 2.67-.81 2.85-1.72.05-.29.05-1-1.07-1.46a9.28 9.28 0 0 0 -3.36-.78 7.38 7.38 0 0 0 -4.58 1.85c-.38.3-.65.5-.85.63a2.07 2.07 0 0 0 -.14-1.8l-.33-.45c-1.08-1.5-3.6-5-6.93-5a4.83 4.83 0 0 0 -2.2.54l-.22.11v.24a4.35 4.35 0 0 0 1.06 3.65c.79.79 1.61 2 1.06 3.28l-.15.38c-.4 1-.82 2-3.12 3.28a21.44 21.44 0 0 1 -7.32 2.19h-.23a.6.6 0 0 0 -.11-.39.59.59 0 0 0 -.49-.24c-.74 0-2.91 1.65-2.93 2.8 0 .3.13 1 1.43 1h.23a16.6 16.6 0 0 0 4.27-.74 9.43 9.43 0 0 1 1.83-.38.52.52 0 0 1 .19 0c.32.24.52.45.55.72s-.11.83-1 1.84l-.26.32c-1.52 1.81-1.8 2.24-2.58 6.54-1.93 10.65-6 18.2-12 22.42l-2.27 1.59 2.67-.73c.85-.23 8.3-2.31 9.6-5 1-2 3.65-11.37 5.44-17.58.56-1.95 1-3.49 1.22-4.23l.17-.56c.21-.64.39-1.26.56-1.84a3.49 3.49 0 0 0 2.2 1.6 1.27 1.27 0 0 1 .62.28c0 .07-.23.38-1.22.87-1.72.85-2.83 2.95-2.71 3.47a.52.52 0 0 0 .49.4.7.7 0 0 0 .56-.39 6.78 6.78 0 0 1 2.48-1.17c.71-.25 1.52-.53 2.26-.87a7.41 7.41 0 0 1 1.72-.68 1.27 1.27 0 0 1 .33.07l.24.07a.78.78 0 0 1 -.07.32 1.45 1.45 0 0 1 -.63.73l-.55.18a6.13 6.13 0 0 0 -2.39 1.21 2.7 2.7 0 0 1 -1.76.58h-.33a2.42 2.42 0 0 0 -1.82 1c-.67 1-.25 2.49.06 3.54a7.11 7.11 0 0 1 .21.83c.07 1.25 3 4.57 4.58 6-.44.27-1.17.69-2.22 1.25-.44.23-.89.44-1.32.65-1.58.75-2.82 1.34-2.93 2.36-.08.83-.33 3.36 1.44 4.49a6.36 6.36 0 0 0 2.89 1.14 1.3 1.3 0 0 0 1-.37 1.64 1.64 0 0 0 .38-1.2 15.7 15.7 0 0 0 -.32-2.37 5.1 5.1 0 0 1 -.17-2.19l.49-.65c.89-1.18 1.45-1.94 1.75-2.41a1.93 1.93 0 0 0 .75.15c1.57 0 3-1.8 3.85-2.87l.21-.26a2.87 2.87 0 0 1 .73-.71 1.4 1.4 0 0 1 0 .36 3.19 3.19 0 0 0 1 2.05c1.11 1.21 2.93 2.44 4.25 2.44h.3a.81.81 0 0 0 -.54.63c0 .62.73.74 1 .78 1 .16 3.29 2.19 4.38 4.58a2.8 2.8 0 0 0 2.7 1.76 4.5 4.5 0 0 0 2.67-.91 1 1 0 0 0 .29-.78 7.07 7.07 0 0 0 -2.3-4c-1.75-1.66-7.38-2.13-7.62-2.15h-.06a.5.5 0 0 0 -.15 0c2.18-1.17 6.12-11.9 6.16-12 .58-1.66-4.13-6.18-4.18-6.22a2.51 2.51 0 0 0 -1.58-.37 13.77 13.77 0 0 0 -4.43.86c-.36.14-.76.28-1.14.39a2.8 2.8 0 0 1 .25-.14 14.74 14.74 0 0 1 7.28-1.58 25.35 25.35 0 0 1 2.84.16 9 9 0 0 1 3.34 1.43 3.46 3.46 0 0 0 1.46.68h.08a.8.8 0 0 0 .6-.35c.34-.42.29-1.22-.16-2.82zm-21 10.25-.29.17c-.67.39-1.11.65-1.3 1.51a1.08 1.08 0 0 0 .22.94 1.56 1.56 0 0 0 1.22.55 1.74 1.74 0 0 0 1-.33 2.06 2.06 0 0 1 -.24.75 1 1 0 0 1 -.81.57 1.08 1.08 0 0 1 -.76-.39c-1.78-1.78-2.43-3.07-1.93-3.82.48-.86 1.43-2.16 2-2.32a5.4 5.4 0 0 0 1-.39l.34-.16s0 .07 0 .12c.23 2.05-.2 2.64-.45 2.8zm.17-10.47s-.2-.14 0 0 6-1.33 6.95-1.58c-.08 0 0 .31-.1.39a62.75 62.75 0 0 0 -6.74 2.12 2 2 0 0 0 -.13-.93zm8.52 4.46a.23.23 0 0 1 .21.1c.12.12.47.68.25 2.57a21.82 21.82 0 0 1 -2.24 7 2.28 2.28 0 0 1 -.32.38c-.08-.07-.21-.21-.31-.32l-.1-.11c-.1-.11-.17-.21-.24-.29a1.12 1.12 0 0 0 -1-.54 10.32 10.32 0 0 0 -1.16.11h-.27a5.84 5.84 0 0 1 1-1.31 2.39 2.39 0 0 1 1-.69 10.59 10.59 0 0 0 1-.53 1.34 1.34 0 0 0 .74-1.49c-.22-.78-1.19-1.29-2.47-1.29-.23 0-.4 0-.44-.12s.14-.88.45-1.35l.08-.12v-.14c0-.29 1.31-.82 1.92-1.07s1-.43 1.46-.66a1 1 0 0 1 .42-.13zm-14.76-8.58c.3-.67 2.51-2.54 4-2.54a.92.92 0 0 1 .55.14 9.54 9.54 0 0 0 4.61 1.53 2.66 2.66 0 0 0 2.91-2.17 3.53 3.53 0 0 1 .66-1.41c-.13.46-.22 1-.31 1.51-.06.33-.12.63-.18.89-.25 1.14-2 1.74-4 2.44l-.62.22a3.52 3.52 0 0 1 -1.16.25c-.62 0-.86-.32-1.36-1.06-.15-.23-.32-.48-.52-.74a1.1 1.1 0 0 0 -.81-.51c-.8 0-.88 1-1 2.61 0 .61-.09 1.24-.18 1.83-.14.88-.56 1-.91 1a2.17 2.17 0 0 1 -.75-.16h-.05-.06-.29a.73.73 0 0 0 -.47.15c.51-1.99.68-3.42-.08-3.98z"/><path d="m238.14 32.89s-4.83 3.72-5.11 4.42-2 1-1.66 2.41.78 4 2 5.33 2.2 2 3.06 1 2.4-7.28 2.71-8.48.7-3.3.46-3.6-.76-1.33-1.46-1.08z"/><path d="m267.45 28.52c-2.63-.72-10.62.33-11.14.32s-.61-.71-.61-.71c-2.4-6.44-3.89-7.07-5.09-7.57s-1.79 1.7-1.74 2.8.22 6.54-.27 7.32-2.86 1.31-3.73 1.46-1.94 1.87-1.52 2.07.46.37 1.12 1.1 2.68.37 2.68.37c1-1 5.25-2 5.72-2s1.69.25 1.08.59-3.37 2.34-3.79 2.68a18.19 18.19 0 0 1 -4.6 3.66c-3.15 1.86-2.32 3.16-2.3 5.6a5.92 5.92 0 0 0 2.83 4.66c.59.13.64-.26-.83 4s-.81 7.48 0 9.15 4.19 2.4 4.87 2a12.27 12.27 0 0 0 1.8-1.21c.3-.29 7.39 0 7.95 0s2.71 1 3.92.11a2.63 2.63 0 0 0 .32-3.39c-.47-.61-.42-1.52-.16-1.52s1.83-1.2 3.38-3.53.27-4.13-1.36-5.62-5.7-1.21-7.87-1.21-7 1.82-7 1.82-.92-.22 1.42-2.65a5.7 5.7 0 0 1 5.2-1.82c.57 0 1.88-1.38 2.1-2.25s-.56-.64-.9-1.44 2.17-1.31 3.33-3.31-.78-3.64-2.74-4-6.52.3-7.43.56.91-1.34 2.11-1.9a2.79 2.79 0 0 0 1.5-1.66s-.18.37-.91.46-.46-.29.61-1.58 5.7-2.2 6.24-2.11-.39.48-.81.63-2.12.95-1.75 1.06a10 10 0 0 0 1.87 0 15.37 15.37 0 0 1 5.11 0 3.22 3.22 0 0 0 3.58-.88c.45-.5.43-1.33-2.19-2.06zm-15.66 26.88s5.17.57 5.42 0 1.11-.74 1.11-.41-.44 1.91-.9 2.08-1.26 1.38-1.72 1.5-2.39.49-3.61.83-1.9.46-2.91-1.48.59-5.29.59-5.29c.26-.6.29.31.29 1.49s1.73 1.28 1.73 1.28zm3.47-14.4a4.71 4.71 0 0 1 -2.71 2.62c-1.41.41-3.6 1.13-3.68 1.91s-.32 1.19-.61.74-.91-2.69-1.21-2.95.69-2.63 1.51-2.45a4 4 0 0 0 1.93.18c.73-.28 4.94-.71 4.77-.05zm8-11.53c-.33-.05-.32 0-.75.3s-.14-.59-.14-.59h.74c.25-.07.52.3.18.25z"/><path d="m268.09 29.09s-1.51 4.58-2.48 4.91c0 0 4.5-.83 4.25-2.94s-1.77-1.97-1.77-1.97z"/><path d="m144.56 79.69a1.42 1.42 0 0 1 -.05.39 11.26 11.26 0 0 1 -1.13 1 2 2 0 0 1 .62-.08 1 1 0 0 1 .48.44 2 2 0 0 1 -.06.47 8.68 8.68 0 0 1 -1.66 1.32 3.19 3.19 0 0 0 .48-1 1.63 1.63 0 0 1 -.7-.12c0 .28 0 .65.08 1.14v.61a2.88 2.88 0 0 0 1-.77 1 1 0 0 1 .93.65 6.13 6.13 0 0 1 -.8 1.46 7.68 7.68 0 0 1 -1.28 1.75 1.36 1.36 0 0 1 -.86.32 1.16 1.16 0 0 1 -.31-.11 4.34 4.34 0 0 0 1.11-1.54 2.86 2.86 0 0 0 .39-.94 2.23 2.23 0 0 1 -1.44.82 2.16 2.16 0 0 1 -1-.71.49.49 0 0 1 .17-.41c.06.1.22.14.46.14a9.33 9.33 0 0 0 .92-.36 2.28 2.28 0 0 1 -.35-.7c0-.16 0-.84.08-2a10.9 10.9 0 0 1 .08-1.39l.16-1.12a6.88 6.88 0 0 1 .35-.85h.1a2.13 2.13 0 0 1 .24 1.13 7.63 7.63 0 0 0 0 .8 2.66 2.66 0 0 1 1.57-.73 1.28 1.28 0 0 1 .38.48m-2 1.94.24-.18a2.82 2.82 0 0 0 .78-1.06 2.25 2.25 0 0 1 -1-.15c0 .47-.07.94-.07 1.39m2.72-4.5a1 1 0 0 1 .64.91c0 .14 0 .48-.06 1s-.05 1.41-.05 2.06 0 1.55 0 2.87a3.89 3.89 0 0 1 -.05 1c-.2 0-.4-.19-.63-.57a4.73 4.73 0 0 1 -.46-1.61v-1.76c0-.86 0-1.51 0-1.93 0-.14 0-.36 0-.66v-.38c0-.14-.12-.23-.36-.26a2.78 2.78 0 0 0 -1.52.55 1.82 1.82 0 0 1 .46-1 1.65 1.65 0 0 1 .78-.55 3.34 3.34 0 0 1 1.21.28m-.21 7.83a3.84 3.84 0 0 1 .45.23 1.33 1.33 0 0 1 .44.43c.11.12.17.2.19.21a2.17 2.17 0 0 1 .22.4 2.23 2.23 0 0 1 .09.53 1 1 0 0 1 -.17.47.85.85 0 0 1 -.49.17s-.19-.19-.44-.59a3.14 3.14 0 0 1 -.47-.65c-.09-.18-.19-.34-.25-.47-.16-.31-.3-.58-.42-.77h.14a.56.56 0 0 1 .41-.11l.3.11m4.94-6.5a5.43 5.43 0 0 0 -.46-2.61 3.43 3.43 0 0 1 1.35.19 1 1 0 0 1 .61 1 16.63 16.63 0 0 1 -.26 1.7 2.37 2.37 0 0 1 1.79.69c0 .35-.51.52-1.45.53l-.69.35a1.22 1.22 0 0 0 0 .17l.27.07c.64.15 1 .34 1 .57s-.52.85-1.55 1.73a.53.53 0 0 0 0 .16 25.09 25.09 0 0 0 .25 3.94c0 1-.11 1.49-.31 1.6-.76 0-1.76-1-3-3.14a4.59 4.59 0 0 0 2.2.8c0-.94 0-1.84 0-2.72l-1.29 1a4.18 4.18 0 0 1 -1.82.94c-.4 0-.58-.1-.58-.29a9.07 9.07 0 0 0 2.58-2c.48-.43.85-.79 1.13-1.07 0-.38 0-.75 0-1.1v-.06a13.3 13.3 0 0 1 -1.64.74 2 2 0 0 1 -1.06-.41 1.34 1.34 0 0 1 -.44-.9 6.41 6.41 0 0 0 2.1-.5c.47-.23.88-.44 1.21-.59 0-.24 0-.48.08-.71"/><path d="m168.89 80.1a21 21 0 0 0 -2 .83 2.49 2.49 0 0 1 .3.36 1.81 1.81 0 0 1 .16.76 3.68 3.68 0 0 0 -.34.61c-.1 1.52-.16 2.48-.19 2.87 0 .57.09 1.11.15 1.67-.09.53-.23.81-.45.87s-.51-.4-.68-1.06a20.42 20.42 0 0 1 .24-2.73c.08-1.12.12-2.09.12-2.92a.11.11 0 0 1 0 0c-.88.5-1.67.91-2.37 1.26a.72.72 0 0 0 -.19 0c-.19 0-.31-.25-.39-.7a2.07 2.07 0 0 1 .26-1 1.53 1.53 0 0 0 .13.25 7.21 7.21 0 0 0 2.45-.85 18.19 18.19 0 0 1 2.4-1 1 1 0 0 1 .58.3 1.65 1.65 0 0 1 1.13.57 10.79 10.79 0 0 1 .55 3l1.08-.29c0-.15 0-.28 0-.4l-.13.09a3.42 3.42 0 0 1 -.61.24c0-.05.14-.19.44-.43a3.61 3.61 0 0 0 .3-.25v-.63a2 2 0 0 1 -.46.07 1 1 0 0 1 -.66-.8.14.14 0 0 1 .14-.07.61.61 0 0 0 .19 0c.28-.09.54-.18.79-.28q0-.55.06-1.14a5.39 5.39 0 0 0 -.79.52c-.84 0-1.27-.18-1.27-.56a5 5 0 0 1 2.17-1.34c0-.19 0-.36.05-.55a9.23 9.23 0 0 1 .17-1.63 1.72 1.72 0 0 1 -.23-.36c-.21.25-.41.49-.6.74v-.77a1.86 1.86 0 0 0 .16-.25.73.73 0 0 0 .23-.1h.44a2.44 2.44 0 0 0 .38.16.52.52 0 0 0 .23 0c.47.34.72.59.72.72a7 7 0 0 0 -.23 1.69v.08h.54a3.75 3.75 0 0 1 1.74.36 1.47 1.47 0 0 1 .75 1.11 18.74 18.74 0 0 1 -1.24 3.3c-.41.75-.72 1.13-.91 1.13a.5.5 0 0 1 -.44-.27c-.25.07-.5.11-.72.18-.1 1.57-.19 3.15-.29 4.72a3.64 3.64 0 0 1 -.4 1.21 4.27 4.27 0 0 1 -.24-.91c-.06-.41-.11-.88-.17-1.45q0-1.69-.06-3.24c-.35.11-.66.21-.93.31a1.4 1.4 0 0 1 -.52-.14 1 1 0 0 1 -.4-.28 1.18 1.18 0 0 1 -.27-.77 6.94 6.94 0 0 0 -.74-3c0 .06 0 .11-.08.14m-3.54 2.72a4.4 4.4 0 0 1 .15 1.2 3.73 3.73 0 0 1 -.31 1.21 2.18 2.18 0 0 1 -.52 1c-.3 0-.49-.11-.55-.33a11.49 11.49 0 0 0 .38-2 3.77 3.77 0 0 0 -.17-1.06.64.64 0 0 1 .58-.33c.2 0 .34.12.44.36m0-5.15c1-.41 1.77-.71 2.43-.92a1.44 1.44 0 0 1 .94.58.87.87 0 0 1 -.14.48c-1 .61-2 1.21-2.89 1.77a5 5 0 0 1 -.86.33c0-.06.2-.25.63-.58.22-.19.42-.36.59-.53h-.23c-.46-.09-.77-.47-.94-1.11 0-.07.09-.1.19-.1a1.38 1.38 0 0 0 .28 0m3 4a3.66 3.66 0 0 1 .22.9 2.12 2.12 0 0 0 -.23.82 4.25 4.25 0 0 0 0 .66s.13-.3.25-.89c.16-.38.27-.65.35-.8-.09.34-.22.89-.35 1.64-.06 1.23-.15 1.82-.25 1.82s-.42-.14-.67-.44a1.44 1.44 0 0 1 -.24-.76c.14 0 .24-.59.29-1.64a7.82 7.82 0 0 1 .06-1.22c0-.25.09-.4.19-.4s.23.12.42.31m4.77-1.78.44-.14a1.16 1.16 0 0 1 .66.43.64.64 0 0 1 -.09.34l-1.09.84c0 .38 0 .76-.06 1.1l.66-.18h.13a11.4 11.4 0 0 1 .53-1.49 6.83 6.83 0 0 0 .42-2.19c0-.2-.08-.31-.23-.31-.47.09-.91.21-1.32.33 0 .41-.05.83-.05 1.27"/><path d="m188.51 77.69a6.35 6.35 0 0 1 .88-.41l.74-.47a1.69 1.69 0 0 1 .77-.19 1.87 1.87 0 0 1 1.44.88 3.17 3.17 0 0 0 .11.33 1.5 1.5 0 0 0 0 .35 3.71 3.71 0 0 0 -.77 1.31c.09-.06.2-.12.33-.22a1.67 1.67 0 0 0 .5-.56 1.21 1.21 0 0 1 -.28.77 1.88 1.88 0 0 1 -.46.52c-.12.09-.25.2-.37.31s-.13.41-.19.6a1.17 1.17 0 0 1 -.49-.08 2.38 2.38 0 0 1 -.27.22c-.33.28-.64.55-.92.77a1.2 1.2 0 0 1 -.47.28v.24c0 .73-.06 2.11-.16 4.12-.06.94-.2 1.42-.39 1.42-.39 0-.63-.63-.7-1.9a24 24 0 0 0 .36-3.68 30.78 30.78 0 0 1 .18-3.35c0-.37-.25-.66-.72-.91 0-.35.14-.52.44-.55a.85.85 0 0 1 .5.22m1.37 2.66a3.75 3.75 0 0 0 .49-.23 8.12 8.12 0 0 0 .59-2.29c0-.14-.11-.22-.33-.22a8.1 8.1 0 0 1 -1.33.47 1.32 1.32 0 0 1 -.39 0 2.27 2.27 0 0 1 .25.49 2.48 2.48 0 0 1 1.28.52c0 .55-.2.83-.61.86a2 2 0 0 1 -.66-.18c0 .33 0 .63-.06.92a3.11 3.11 0 0 0 .77-.33m8.11-3.2a12.17 12.17 0 0 0 -.34 2.8v6.24a7.28 7.28 0 0 1 .09 1.3c-.16.77-.34 1.2-.6 1.27-1.28-.15-2.37-1.08-3.23-2.8a3.09 3.09 0 0 0 2.39 1.01c.08-1.22.13-2.43.14-3.62s0-2.14 0-3.22c-.74.36-1.45.69-2.12 1a.51.51 0 0 1 -.1.32l-.64.41a1.41 1.41 0 0 1 .37.56c0 .16 0 .38-.06.63l.91-.16c.38 0 .65.33.79.9a.57.57 0 0 1 -.14.42c-.18 0-.71 0-1.59-.08a1.94 1.94 0 0 0 0 .22c-.06 2.29-.19 3.42-.39 3.42s-.35-.14-.41-.44a6.39 6.39 0 0 1 -.16-1.2c0-.63 0-1.25.05-1.87l-.63.12-.61.24a.35.35 0 0 0 0 .12c0 .16 0 .47-.11.95a4.8 4.8 0 0 1 -.11 1.23c-.06.15-.14.21-.25.21s-.25-.16-.4-.35a1.9 1.9 0 0 1 -.18-.83c.11-.09.18-.44.23-1a3.71 3.71 0 0 1 -.48.14.77.77 0 0 1 -.47-.12 1.19 1.19 0 0 1 -.35-.3.34.34 0 0 1 -.14-.25.64.64 0 0 1 0-.22.49.49 0 0 0 .18.09l1.29-.39v-.38l-.19.07s.06-.1.19-.21a2.53 2.53 0 0 1 -.1-.67 1.86 1.86 0 0 1 .59.31 5.12 5.12 0 0 0 .84-.66 5 5 0 0 1 -.94.18c-.34-.08-.59-.38-.72-.89a.14.14 0 0 1 .14-.07.67.67 0 0 0 .22 0c1.08-.41 2-.74 2.73-1a1.41 1.41 0 0 1 .61.33 3.06 3.06 0 0 0 .54-.31l-.63.08c-.35-.08-.57-.35-.69-.82 0-.05.06-.08.14-.08a1.87 1.87 0 0 1 -.1-.64 2.69 2.69 0 0 0 .17-1.16 1.09 1.09 0 0 1 -.52-1.06 11.44 11.44 0 0 1 3.47-1.34 2 2 0 0 1 1.36 1.5m-6.13 6.45c.4-.11.78-.2 1.11-.3v-.14c0-.4-.08-.64-.2-.73-.4.25-.77.5-1.15.72a.58.58 0 0 1 .24.42m4.38-4.36.23.08v-.45c0-.41 0-1 0-1.76a.53.53 0 0 0 -.22-.48 7.22 7.22 0 0 0 -1.41.72c-.16.12-.27.23-.36.3a.63.63 0 0 1 .06.2v.17l1.17-.42a1 1 0 0 1 .63.39.58.58 0 0 1 -.09.33c-.54.46-1 .9-1.54 1.3a.93.93 0 0 1 -.27.11l1.78-.47m-1.78.09v.21l.14-.11a4.66 4.66 0 0 0 .47-.63 3.3 3.3 0 0 1 -.59.13v.4"/><path d="m216.91 87.18.47.34s.05.13.08.32 0 .31 0 .36-.1.17-.25.33a.89.89 0 0 1 -.35.12 5.75 5.75 0 0 1 -.61-.29 2.11 2.11 0 0 0 -.63-.1 15.18 15.18 0 0 0 -2.29.22l-1.28.35s-.19-.16-.46-.47a1.92 1.92 0 0 1 -.42-.51.65.65 0 0 1 .06-.34h.31a.53.53 0 0 0 0 .19 9.86 9.86 0 0 0 1-.22 6.16 6.16 0 0 1 .94-.16c0-.24.05-.47.08-.69a1.72 1.72 0 0 1 -.36.09 1.09 1.09 0 0 1 -.8-.48 1.53 1.53 0 0 1 -.3-.46c-.41.46-1 1.09-1.76 1.9a3.42 3.42 0 0 1 -1.71 1 2.17 2.17 0 0 1 -.41 0c-.16 0-.23-.08-.23-.12a6.09 6.09 0 0 0 1.58-1.15 7.65 7.65 0 0 0 1.48-2c.36-.57.62-1 .81-1.33a10.11 10.11 0 0 1 -1.77.64.8.8 0 0 1 -.45-.2 1.68 1.68 0 0 1 -.4-.33.4.4 0 0 1 -.15-.28.69.69 0 0 1 -.05-.24s.09.08.2.11l2.78-.77c0-1.27 0-2.54 0-3.8a2.11 2.11 0 0 1 -.52.18 1.12 1.12 0 0 1 -.54-.24 1.82 1.82 0 0 1 -.43-.39c-.1 0-.16-.14-.19-.33a.55.55 0 0 1 -.06-.27.59.59 0 0 0 .25.11q.79-.24 1.5-.42v-.69a6.39 6.39 0 0 1 -.37-.83 2 2 0 0 1 1.39.59v.65c.66-.18 1.26-.32 1.77-.44a4.78 4.78 0 0 1 0-.54 9.27 9.27 0 0 1 -.45-1 2.41 2.41 0 0 1 1.72.74v.58l.47-.06c.41 0 .69.34.85 1a.6.6 0 0 1 -.15.45c-.15 0-.58 0-1.24 0l-.09 1c-.12 1.1-.25 2.07-.38 2.9.6-.11 1.12-.18 1.54-.23s.66.33.82.94a.57.57 0 0 1 -.14.42h-1.86a2.61 2.61 0 0 0 .24.22l1.44 1.36a17.06 17.06 0 0 0 1.56 1 16.38 16.38 0 0 0 1.63.8s.08.08.17.22a.49.49 0 0 1 .17.23 1.32 1.32 0 0 1 0 .34.26.26 0 0 1 -.1.18 11 11 0 0 1 -1.17-.08 3 3 0 0 1 -.87-.12 1.77 1.77 0 0 1 -.67-.19c-.27-.14-.43-.25-.47-.34s-.35-.32-.76-.73c-.25-.37-.48-.7-.72-1a5.49 5.49 0 0 1 -.64-.88l-.66-.91a.36.36 0 0 0 -.13-.08c-.47.06-1.11.17-1.93.35h-.06a.67.67 0 0 1 .14.39 1 1 0 0 1 -.11.39 2.26 2.26 0 0 1 -.25.51 2.71 2.71 0 0 1 -.48.65l.23.08a3.82 3.82 0 0 0 .85-.12 2 2 0 0 0 .36-.1 2 2 0 0 1 0-.34 1.42 1.42 0 0 0 -.38-.94v-.11a2 2 0 0 1 .7-.11c.68.22 1.06.53 1.11.94v.15a1.77 1.77 0 0 1 .21 0 2.24 2.24 0 0 1 .78.38.87.87 0 0 1 .08.41c0 .19-.14.28-.38.3s-.59.09-.85.14c-.06.34-.12.66-.18 1a1.38 1.38 0 0 0 .42 0c.53-.06.94-.11 1.19-.11a1.91 1.91 0 0 1 .52.13m-3.37-5.31a.82.82 0 0 1 -.3 0 .44.44 0 0 1 -.25-.11 7.6 7.6 0 0 0 -.05.77 3.19 3.19 0 0 0 .6-.71m-.54.93c.65-.17 1.23-.31 1.75-.42 0-.32 0-.64 0-1-.62.49-1.22.94-1.79 1.38m.6-2.62a.92.92 0 0 1 -.28 0 .45.45 0 0 1 -.22-.1v.71a4 4 0 0 0 .55-.66m.72-1.29a1.3 1.3 0 0 1 .55.3c0-.31 0-.61 0-.91l-1.1.22c-.25.13-.47.22-.66.3v.5l1.17-.41m-.08 1.71a1.22 1.22 0 0 1 .57.29c0-.4 0-.79.05-1.17-.54.43-1.06.82-1.54 1.18z"/><path d="m231 82.64a.82.82 0 0 0 -.21 0c-.18 0-.32-.26-.4-.72a2.08 2.08 0 0 1 .28-1.09 1.1 1.1 0 0 0 .12.25 7.5 7.5 0 0 0 2.5-.84 20.56 20.56 0 0 1 2.43-1 1 1 0 0 1 .62.33 1.48 1.48 0 0 1 -.16.68 13.84 13.84 0 0 0 -2 .8 2.16 2.16 0 0 1 .25.32 2 2 0 0 1 .18.82 4.46 4.46 0 0 0 -.37.6c-.09 1.49-.17 2.43-.2 2.81 0 .55.09 1.09.17 1.63-.09.56-.25.88-.48.94s-.52-.44-.71-1.13a20.3 20.3 0 0 1 .24-2.72c.09-1.09.14-2 .14-2.87-.91.49-1.71.9-2.42 1.23m1.57.25a3.62 3.62 0 0 1 .17 1.21 3.42 3.42 0 0 1 -.33 1.21 2 2 0 0 1 -.54.94.52.52 0 0 1 -.57-.35 9.31 9.31 0 0 0 .38-2 3.31 3.31 0 0 0 -.18-1 .7.7 0 0 1 .62-.36c.21 0 .35.13.45.38m0-5.21c1-.38 1.79-.66 2.45-.88a1.81 1.81 0 0 1 1 .61.94.94 0 0 1 -.14.52 1.45 1.45 0 0 1 -.35.2c-.88.54-1.74 1-2.57 1.5a4.89 4.89 0 0 1 -.91.34c0-.06.22-.27.66-.61a4.53 4.53 0 0 0 .55-.49h-.18a1.4 1.4 0 0 1 -1-1.17c0-.07.09-.1.2-.1l.28.05m3.11 4a4.2 4.2 0 0 1 .22 1 1.75 1.75 0 0 0 -.22.71 4.24 4.24 0 0 0 0 .58 3 3 0 0 0 .23-.84c.16-.34.27-.58.35-.73a15.2 15.2 0 0 0 -.33 1.56c-.06 1.22-.14 1.82-.23 1.82a1 1 0 0 1 -.71-.46 1.45 1.45 0 0 1 -.27-.81c.16 0 .25-.58.3-1.6a9 9 0 0 1 .06-1.21c0-.25.1-.38.19-.38s.27.11.46.32m2.3-1.44a2.36 2.36 0 0 1 1.32-.47 1.08 1.08 0 0 1 .5.58 2.6 2.6 0 0 1 0 .53 11.49 11.49 0 0 1 -1.82 1.68 2.7 2.7 0 0 1 1.28-.38 1.22 1.22 0 0 1 .61.6 4.32 4.32 0 0 1 -.06.61 13.9 13.9 0 0 1 -2.05 1.74c0 .24.07.46.12.66l.65-.08c.51 0 .95-.09 1.34-.15l.19-2.45.18-2.78c0-.19.05-.5.07-.93a2.6 2.6 0 0 1 0-.53c0-.11-.15-.19-.44-.22a5.65 5.65 0 0 0 -1.85.44 1.91 1.91 0 0 1 .6-1.1 2 2 0 0 1 1-.59 3.53 3.53 0 0 1 1.25.31 1.13 1.13 0 0 1 .68 1.07 12.22 12.22 0 0 1 -.19 1.36c-.08.94-.14 1.82-.17 2.67-.05.58-.08 1.41-.08 2.51a6.75 6.75 0 0 1 1.15-.14 2.09 2.09 0 0 1 .59.16l.53.39s.07.14.1.36.05.36.05.42-.1.19-.29.36a.84.84 0 0 1 -.39.15 7.48 7.48 0 0 1 -.69-.33 3 3 0 0 0 -.74-.11h-.31c0 .81-.08 1.25-.17 1.28s-.42-.19-.65-.58c-.09-.22-.17-.44-.23-.63-.68.07-1.46.18-2.36.32-1.25.39-1.94.6-2.08.61s-.17-.12-.42-.41a2.79 2.79 0 0 1 -.37-.45.67.67 0 0 1 .06-.32h.27a.34.34 0 0 0 0 .16 12.18 12.18 0 0 0 1.51-.44l.39-.14a1.17 1.17 0 0 1 -.14-.33c-.18.12-.33.22-.49.31.16-.14.31-.28.46-.4a2.27 2.27 0 0 1 -.18-.58 33 33 0 0 1 .44-4.76c.16-.63.42-1 .79-1 0 .35 0 .66-.07 1m.3 3.54a1.21 1.21 0 0 1 -.52-.08v.84a.57.57 0 0 0 0 .18 3.87 3.87 0 0 0 .53-.94m.19-2.51a1.33 1.33 0 0 1 -.55-.08c0 .44-.06.85-.08 1.26a4.4 4.4 0 0 0 .63-1.18"/><path d="m258.36 75.44a3.36 3.36 0 0 1 1 .38 4 4 0 0 1 .47.5.76.76 0 0 1 .18.39 1.31 1.31 0 0 1 -.22.46h.14a2.55 2.55 0 0 1 2 .67c0 .38-.63.56-1.79.56-.5.22-1 .43-1.38.58l.1.1a1.17 1.17 0 0 1 .4.69.85.85 0 0 1 0 .24 1 1 0 0 1 .15.11 2.08 2.08 0 0 1 1.09.55 1 1 0 0 1 -.11.42 7.48 7.48 0 0 0 -1.54.2q0 .21-.09.39h.32a1.68 1.68 0 0 1 1.29.8 1.6 1.6 0 0 0 .11.29c0 .11 0 .22-.06.31a2.52 2.52 0 0 0 -.65 1l.11.13a.61.61 0 0 1 -.07.28l-1.49.82a.06.06 0 0 0 0 0l1.15-.23a.92.92 0 0 1 .59.14.62.62 0 0 1 .16.44.58.58 0 0 1 -.61.34 11.89 11.89 0 0 0 -1.37.19v.14a4.82 4.82 0 0 0 -.08.9c-.05.31-.1.59-.13.87 0 .57 0 .87-.11.9s-.12-.13-.23-.38a2.29 2.29 0 0 0 -.3-.47 2.14 2.14 0 0 1 -.17-.89 2.39 2.39 0 0 0 .17-.61c0-.08 0-.16.05-.24-.54.16-1.09.36-1.65.58a1.63 1.63 0 0 1 -.86-.17c-.13 0-.19-.16-.22-.35a.49.49 0 0 1 .14-.39 19.64 19.64 0 0 0 2.26-.52h.11l.2-.14a1.11 1.11 0 0 0 -.05-.24 2 2 0 0 1 -.4 0c-.27-.06-.44-.27-.54-.63h.11a1.87 1.87 0 0 1 -.29-.65s-.07-.1-.07-.22 0-.2 0-.31v-.25a6.79 6.79 0 0 1 .38-.9h.11a2.14 2.14 0 0 1 .23 1l.86-.35a6.4 6.4 0 0 1 .85-.1.26.26 0 0 1 .19.14.87.87 0 0 1 .08.25c0 .06-.14.18-.4.33a4.64 4.64 0 0 1 -.61.38l-.81.5a.11.11 0 0 0 0 .08c.64-.19 1.21-.34 1.68-.47a5.59 5.59 0 0 0 .34-1.49c0-.1-.09-.16-.28-.16a7.46 7.46 0 0 1 -1.26.36 1.63 1.63 0 0 1 -.61-.09c-.08 0-.11-.08-.11-.21.27-.12.54-.21.82-.31a2.24 2.24 0 0 0 .22-.11c0-.16 0-.31 0-.47-.36.12-.72.28-1.1.44a.68.68 0 0 1 -.66-.52c-.25.69-.56 1.46-.94 2.31-.53 1.43-1.08 2.87-1.65 4.31-.33.66-.7 1-1.11 1a.8.8 0 0 1 -.41-.69 3.29 3.29 0 0 1 .38-.8 1.63 1.63 0 0 0 0 .37 3.11 3.11 0 0 0 1.06-1.79 10 10 0 0 0 1-2.87c.25-.72.5-1.46.78-2.21a7.31 7.31 0 0 1 .46-1 2.12 2.12 0 0 1 -1-.42 1.39 1.39 0 0 1 -.47-.91 10.29 10.29 0 0 0 2.7-.54c1-.4 1.74-.69 2.24-.87h-.14-.52-1.32a1.79 1.79 0 0 0 .33-.3 2 2 0 0 0 .5-.25.72.72 0 0 0 .14-.44c-.15-.2-.28-.38-.4-.52a1.07 1.07 0 0 1 -.21-.5 6.57 6.57 0 0 1 .83.11m-.81 5.15c.16 0 .31-.1.45-.13 0-.19 0-.37.05-.56a1.24 1.24 0 0 0 -.17-.57l-1.19.49c-.1.34-.21.71-.35 1.1a8.68 8.68 0 0 0 1.21-.33m-.54 3.65h.05a3.13 3.13 0 0 1 .36-.39 1.14 1.14 0 0 1 -.51-.24c0 .22.07.44.1.64m4.57-2.33a.26.26 0 0 0 0 .1 1.29 1.29 0 0 1 .74-.28 3.46 3.46 0 0 1 .39 1.35 4.66 4.66 0 0 1 -.36.58.31.31 0 0 0 .25.13c.07 0 .11 0 .16.11a2.09 2.09 0 0 1 .17.28c0-.69 0-1.55-.06-2.59 0-.55 0-.88 0-1a1.73 1.73 0 0 0 -1.26.49c-.22 0-.31-.21-.31-.64a1.69 1.69 0 0 1 1.46-.9c.84 0 1.3.33 1.35 1a8.75 8.75 0 0 0 -.33 2.54 23.12 23.12 0 0 0 .3 3.88c0 1.28-.32 2-.94 2s-1-.69-1.48-1.94a1.17 1.17 0 0 0 .8.34c.3 0 .47-.85.5-2.54a4.31 4.31 0 0 1 -1 1.13 3 3 0 0 1 -.44.13l-.31-.08c-.31 1.44-.89 2.16-1.73 2.16.8-1 1.21-3 1.21-6a1.91 1.91 0 0 0 -.22-.91c.72 0 1.13.21 1.2.62m.58 2.82-.51-.08a2.57 2.57 0 0 1 -.33-.63v.55c-.05.47-.1.91-.16 1.29a7.7 7.7 0 0 0 1-1.13m-.52-1.16a1.36 1.36 0 0 1 .22-.33 1 1 0 0 1 -.11-.41 2.3 2.3 0 0 1 -.36 0 6.91 6.91 0 0 0 -.07.94.75.75 0 0 0 .32-.22"/></svg>