<?xml version="1.0" encoding="UTF-8"?>
<svg id="b" data-name="圖層 2" xmlns="http://www.w3.org/2000/svg" width="236.09" height="173.98" viewBox="0 0 236.09 173.98">
  <defs>
    <style>
      .d, .e {
        fill: #fff;
      }

      .e {
        fill-rule: evenodd;
      }
    </style>
  </defs>
  <g id="c" data-name="圖層 1">
    <g>
      <g>
        <path class="d" d="M217.98,151.56c.61,.77,1.23,1.55,1.88,2.37-1.04,1.28-2.18,2.45-3.58,3.34-3.01,1.9-6.6,1.62-9.19-.82-2.32-2.19-3.03-4.93-2.03-7.95,.99-3,3.18-4.72,6.33-5.15,2.35-.32,4.32,.57,6.08,2.04,1.72,1.43,3,3.26,4.43,4.96,1.1,1.31,2.21,2.62,3.45,3.78,1.48,1.38,3.26,1.77,5.17,.83,2.32-1.14,3.2-3.98,1.96-6.25-1.24-2.27-4.02-3.03-6.26-1.7-1.22,.72-2.14,1.76-3.05,2.82-.12,.14-.24,.28-.39,.45-.65-.82-1.27-1.6-1.92-2.42,1.47-1.75,3.05-3.36,5.27-4.15,1.75-.62,3.5-.53,5.21,.16,3.2,1.29,5.15,4.67,4.67,8.05-.5,3.5-3.26,6.17-6.73,6.54-2.38,.26-4.34-.63-6.11-2.11-1.54-1.3-2.72-2.92-4-4.46-1.14-1.38-2.32-2.74-3.56-4.03-.7-.74-1.61-1.24-2.64-1.43-1.94-.35-3.91,.66-4.81,2.46-.88,1.77-.49,3.98,.95,5.33,1.48,1.39,3.56,1.64,5.31,.63,1.27-.73,2.23-1.82,3.17-2.91,.09-.1,.17-.21,.26-.31,.02-.02,.06-.03,.12-.06Z"/>
        <path class="d" d="M18.11,151.56c-.61,.77-1.23,1.55-1.88,2.37,1.04,1.28,2.18,2.45,3.58,3.34,3.01,1.9,6.6,1.62,9.19-.82,2.32-2.19,3.03-4.93,2.03-7.95-.99-3-3.18-4.72-6.33-5.15-2.35-.32-4.32,.57-6.08,2.04-1.72,1.43-3,3.26-4.43,4.96-1.1,1.31-2.21,2.62-3.45,3.78-1.48,1.38-3.26,1.77-5.17,.83-2.32-1.14-3.2-3.98-1.96-6.25,1.24-2.27,4.02-3.03,6.26-1.7,1.22,.72,2.14,1.76,3.05,2.82,.12,.14,.24,.28,.39,.45,.65-.82,1.27-1.6,1.92-2.42-1.47-1.75-3.05-3.36-5.27-4.15-1.75-.62-3.5-.53-5.21,.16-3.2,1.29-5.15,4.67-4.67,8.05,.5,3.5,3.26,6.17,6.73,6.54,2.38,.26,4.34-.63,6.11-2.11,1.54-1.3,2.72-2.92,4-4.46,1.14-1.38,2.32-2.74,3.56-4.03,.7-.74,1.61-1.24,2.64-1.43,1.94-.35,3.91,.66,4.81,2.46,.88,1.77,.49,3.98-.95,5.33-1.48,1.39-3.56,1.64-5.31,.63-1.27-.73-2.23-1.82-3.17-2.91-.09-.1-.17-.21-.26-.31-.02-.02-.06-.03-.12-.06Z"/>
      </g>
      <g>
        <g>
          <path class="e" d="M121.61,3.4c-.61-.16-1.18-.61-1.5-1.15C119.43,1.09,118.44,.01,116.65,0c-1.25,0-2.7,.45-3.46,1.42-.06,.07-.08,.19,0,.29,.15,.21,.19,.41,.13,.62-.1,.37-.51,.58-.87,.77-.24,.13-.49,.22-.76,.3-.6,.17-1.33,.06-1.87-.25-1.16-.66-2.56-1.1-4.12-.21-1.09,.62-2.12,1.74-2.29,2.96-.01,.09,.03,.2,.15,.26,.24,.11,.37,.26,.42,.47,.1,.37-.15,.75-.37,1.09-.14,.23-.31,.44-.51,.64-.44,.45-1.12,.72-1.74,.72-1.34,0-2.77,.33-3.68,1.88-.64,1.08-.97,2.56-.5,3.71,.03,.08,.13,.16,.26,.15,.26-.03,.45,.04,.6,.19,.27,.28,.25,.73,.23,1.14,0,.27-.05,.54-.12,.81-.16,.61-.61,1.18-1.15,1.5-1.16,.67-2.23,1.67-2.25,3.46,0,1.25,.45,2.7,1.42,3.47,.07,.05,.19,.08,.29,0,.21-.16,.41-.19,.62-.13,.37,.1,.58,.5,.77,.87,.13,.24,.23,.49,.29,.76,.17,.61,.06,1.33-.25,1.87-.66,1.16-1.09,2.56-.21,4.12,.62,1.09,1.74,2.12,2.96,2.29,.09,.01,.2-.03,.26-.15,.11-.24,.26-.37,.47-.42,.37-.1,.75,.15,1.09,.37,.23,.14,.44,.32,.64,.51,.46,.44,.72,1.12,.72,1.75,0,1.34,.33,2.77,1.88,3.68,1.08,.63,2.56,.96,3.71,.5,.08-.04,.16-.13,.15-.26-.03-.26,.04-.45,.19-.6,.28-.27,.73-.25,1.14-.23,.27,0,.54,.05,.81,.12,.61,.15,1.18,.61,1.5,1.15,.67,1.16,1.67,2.23,3.46,2.25,1.25,.01,2.7-.45,3.46-1.42,.05-.07,.08-.19,0-.3-.16-.21-.19-.41-.13-.62,.1-.37,.51-.58,.87-.77,.24-.13,.5-.23,.76-.3,.61-.18,1.33-.06,1.87,.25,1.17,.67,2.56,1.1,4.12,.21,1.09-.62,2.12-1.74,2.29-2.96,.01-.09-.03-.2-.15-.26-.24-.11-.37-.26-.42-.47-.1-.37,.15-.75,.37-1.1,.14-.23,.32-.44,.51-.64,.44-.46,1.12-.72,1.74-.72,1.34,0,2.77-.33,3.68-1.88,.63-1.08,.96-2.57,.5-3.71-.04-.08-.13-.16-.26-.15-.26,.03-.45-.04-.6-.2-.27-.27-.25-.72-.23-1.13,0-.27,.05-.54,.12-.81,.16-.61,.61-1.18,1.15-1.5,1.16-.67,2.23-1.67,2.25-3.46,.01-1.25-.45-2.7-1.42-3.46-.07-.06-.19-.08-.3,0-.21,.15-.41,.19-.62,.13-.37-.1-.58-.51-.76-.87-.13-.24-.23-.49-.3-.76-.17-.61-.06-1.33,.25-1.87,.67-1.16,1.1-2.56,.21-4.12-.62-1.09-1.74-2.12-2.96-2.29-.09-.01-.2,.03-.26,.15-.11,.24-.26,.37-.47,.42-.37,.1-.75-.15-1.1-.37-.23-.14-.44-.31-.64-.51-.46-.44-.72-1.12-.72-1.74,0-1.34-.33-2.77-1.88-3.68-1.08-.64-2.57-.97-3.71-.51-.08,.04-.16,.13-.15,.26,.03,.26-.04,.45-.2,.6-.27,.27-.72,.24-1.13,.23-.27,0-.54-.05-.81-.12h0Zm-.54,1.99c1.48,.4,2.84,.97,4.13,1.71,1.29,.74,2.52,1.69,3.54,2.72,1.06,1.06,1.97,2.24,2.72,3.54,.75,1.29,1.34,2.73,1.71,4.12,.39,1.45,.58,2.93,.58,4.43s-.21,3.03-.58,4.43c-.39,1.45-.96,2.82-1.71,4.13-.74,1.29-1.69,2.52-2.72,3.54-1.07,1.06-2.24,1.97-3.54,2.72-1.29,.74-2.73,1.34-4.12,1.71-1.45,.39-2.92,.58-4.43,.58s-3.03-.2-4.43-.58c-1.45-.39-2.82-.96-4.12-1.71-1.29-.74-2.52-1.69-3.54-2.72-1.06-1.07-1.97-2.24-2.72-3.54-.74-1.29-1.34-2.73-1.71-4.13-.38-1.45-.58-2.92-.58-4.43s.2-3.03,.58-4.43c.39-1.45,.96-2.82,1.71-4.13,.74-1.29,1.69-2.52,2.72-3.54,1.07-1.06,2.24-1.97,3.54-2.72,1.29-.74,2.73-1.34,4.13-1.71,1.45-.38,2.93-.58,4.43-.58s3,.19,4.42,.58h0Z"/>
          <g>
            <path class="d" d="M129.5,30.01c-.12,.02-.24,.04-.35,.07-.7,.15-1.55,.4-2.32,.48-2.03,.23-3.79,.37-6.27,.13-2.29-.22-3.56-.47-6.87-1.66-.85-.3-1.58-.45-2.53-.8-.7-.23-1.51-.43-1.93-.5-.18-.03-.93-.11-1.12-.08,.57-.26,1.29-.75,1.68-1.01,.82-.53,1.31-.91,1.95-1.59,.28-.27,.53-.59,.78-.89,.14-.17,.22-.45,.15-.66-.06-.2-.26-.37-.44-.46-.3-.16-.74-.11-1.04,.04-.34,.17-.31,.47-.55,.69-.52,.24-.93,.41-1.43,.53,.28-.31,.51-.51,.83-.89,.39-.47,.54-.62,.9-1.13,.31-.46,.56-.79,.25-1.05,.63-.31,1.68-.79,2.34-1.04,.6-.26,1.1-.45,1.72-.66,.23-.08,.45-.16,.64-.23-.77,.98-1.58,2.13-2.03,3.28-.55,1.41-.96,2.94-.74,4.47,.06,.36,.34,.58,.62,.77,.18,.13,.47,.12,.66,0,.16-.09,.27-.27,.36-.43,.03,.03,.07,.06,.1,.1,.09,.09,.26,.11,.39,.09,.39-.07,.79-.16,1.18-.22,.07-.01,.15,.04,.19,.1,.24,.38,.39,.77,.71,1.11,.13,.15,.3,.31,.5,.34,.22,.04,.42-.04,.53-.24,.25-.47,.33-.87,.38-1.4,.03-.32-.09-.66-.08-.97,0-.2,0-.41,0-.61,0-.46,0-.93,.03-1.39,.02-.52,.08-1.03,.17-1.54,.04-.23,.1-.54-.02-.75-.11-.2-.17-.37-.34-.53-.22-.21-.37-.34-.64-.49-.38-.21-.8-.32-1.18-.03-.33,.24-.63,.43-1,.59-.07,.03-.27,.13-.36,.11,.29-.5,.66-.95,1.08-1.33,.69-.62,1.52-1.08,2.31-1.54,.44-.26,1.77-.49,2.24-.69,.53-.23,.5-.9,0-1.14-.45-.21-1.18-.31-1.65-.48-.37-.13-.87-.18-1.21,.06-.73,.54-2.4,1.68-2.37,1.47,.02-.21,.28-1.15,.79-1.44,.5-.29,1.29-1.28,1.61-1.62,.32-.34,.27-.3,.4-.44,.13-.14,.22-.2,.28-.31,.26-.17,1.01-.81,1.13-.94,.18-.15,.03-.64,.06-.73,.02-.1-.31-.35-.91-.38-.6-.03-.87,.36-1.01,.41-.28,.4-.61,.72-.99,1.56-.05,.55-.37,.92-.6,1.31-.12,.13-.16,.5-.4,.35-.05-.07,0-.53,0-.67,.05-.33,0-.71,.05-1.04-.02-.26,.02-.54,.05-.73,.12-.22,.06-.51,0-.8-.06-.2-.57-.41-.78-.56-.21-.15-.46-.17-.62-.25-.21-.07-.5,.05-.56,.02-.13-.05-.12,.48-.12,.48,.33,.25,.41,.6,.49,.97,.04,.61-.03,1.59-.14,2.17-.11,.75-.24,1.44-.41,2.11-.06,.55-.04,.54-.22,1.18-.14,.06-.24,.26-.37,.32-.62,.28-.66,.42-1.37,.74-.96,.43-1.36,.58-2.43,1.05-.03-.36-.11-2.09-.11-2.42,1.11-.82,1.74-1.27,2.78-2.18,.12-.1,.15-.29,.12-.46-.04-.18-.24-.33-.3-.46-.27-.61-.48-.61-1-1.01-.38-.29-.71-.58-1.03-.96-.24-.29-.58-.68-.82-1.03-.02-.23,0-.28,0-.39,0-.15,0-.26,0-.42,.01-.78,.03-.95,.22-1.12,.24-.21-.1-.51-.57-.68-.3-.11-.53-.05-.7,.09-.23,.19-.48,.38-.57,.8-.05,.24-.08,.54,.02,.76,.12,.25,.18,.36,.2,.54,.04,.54,.09,.77,.13,1.31,.08,1,.15,2.04,.11,3.04-1.33,.89-2.51,1.47-4.04,1.95-.26,.09-.49,.1-.76,.04-.11-.02-.22-.04-.32-.07-.08-.01-.16-.04-.23-.07-.01,0-.03,0-.02,.02,.05,.08,.09,.14,.14,.21,.35,.54,.59,.51,1.12,.81,.54,.3,.99,.61,1.6,.75,.58,.13,1.38,.1,1.87-.17,.21-.12,.6-.41,.82-.53,.03,.32,.08,2.01,.07,2.28-.39,.27-.94,.55-1.37,.78-.68,.37-1.28,.68-1.99,.99-.21,.09-.42,.03-.51-.19-.07-.17-.04-.42-.02-.6,.01-.09,.03-.19,.05-.28,.01-.03-.02-.04-.05,0-.07,.07-.13,.12-.2,.2-.22,.25-.45,.62-.55,.93-.08,.23,0,.38,.18,.53,.33,.26,.64,.36,1.07,.38,.28,.02,.64,.06,.92,.07,.29,0,.57-.1,.78-.29,.99-.75,1.97-1.38,2.9-2-.33,.77-.55,1.21-1.08,1.88-.3,.37-.51,.57-.92,.9-.12,.1-.29,.16-.43,.23-.14,.02-.34,.11-.46,.18-.18,.12-.27,.35-.15,.55,.08,.12,.17,.21,.27,.31,.19,.18,.54,.26,.69,.12,.28-.25,.57-.25,.9-.39,.07-.03,.73-.23,.8-.25-.2,.32-.68,.7-1.01,.93-.16,.11-.56,.4-.72,.5-.51,.32-.65,.42-1.09,.61-.29,.02-.53-.03-.82-.1-.42-.1-.59-.13-1.03-.16-.32-.02-.51,.16-.62,.44-.16,.4-.34,.96-.1,1.36,.15,.25,.2,.45,.52,.51,.22,.04,.49,.05,.69-.08,.51-.32,1.06-.38,1.64-.47,.41-.06,.79-.03,1.2,.01,.58,.06,1.16,.16,1.73,.31,.46,.12,.89,.27,1.33,.46,.35,.15,2.06,.83,2.41,.99,1.98,.99,2.75,1.31,3.88,1.82,.97,.43,3.61,1.53,5.23,.81,1.69-.74,2.97-.62,5.52-2.08,.66-.23,.99-.39,1.36-.79l.22-.37c.07-.11,.15-.17-.05-.14Zm-12.24-3.81s-.01,.27-.06,.35c-.16-.13-.36-.26-.55-.34-.12-.05-.22-.04-.33,0-.19,.05-.28,.07-.42,.12-.27,.09-.53,.17-.81,.23-.1,.02-.16,.02-.27,0-.03-.01-.08,0-.12,0-.04-.06-.08-.11-.09-.16-.03-.15,.01-.33,.01-.48,0-.16,0-.32-.03-.49-.02-.12-.1-.28-.1-.39,.02-.37,.04-.73,.09-1.09l.08,.12c.19,.29,.41,.46,.73,.59,.13,.05,.27,.09,.4,.14,.13,.05,.3,.04,.3,.17,0,.07-.03,.12-.08,.17-.07,.07-.1,.09-.27,.16-.04,.02-.04,.04,.03,.02,.12-.02,.23-.06,.36-.09,.07-.02,.12-.02,.27-.06,.08-.03,.18-.05,.28-.09,.09,0,.22,.04,.34,.01,.11-.02,.18-.02,.27-.07,0,.4,0,.8-.04,1.19Zm-1.86-4.05c.16,.09,.32,.16,.5,.2,.22,.05,.45,.03,.67-.04,.18-.06,.37-.11,.55-.11,.2,0,.28,.14,.29,.32,0,.51,0,1.02-.02,1.53-.09-.06-.18-.13-.28-.18-.38-.2-.83-.29-1.25-.32-.23-.02-.39-.01-.59,.12-.16,.11-.32,.19-.52,.22l-.15,.03c.07-.55,.19-1.09,.4-1.62,.05-.13,.11-.25,.17-.37,.05,.1,.14,.16,.24,.23Zm-6.15-7.28c-.01-.35,0-1.35,.03-1.7,.2,.39,.53,1.06,.79,1.38,.13,.17,.19,.3,.22,.5,.02,.12-.08,.25-.19,.31-.24,.13-.49,.25-.74,.33-.04-.27-.09-.54-.1-.81Z"/>
            <path class="d" d="M120.9,15.74c.41,.34,.98,.55,1.51,.46,.65-.11,1.12-.35,1.65-.68,.02,.41,.05,.84,.01,1.24,0,.03-.01,.12-.03,.15-.32-.04-.66-.09-.97-.2-.13-.05-.26-.1-.39-.16-.04-.02-.05,.02-.02,.04,.1,.11,.19,.2,.29,.3,.2,.21,.58,.55,.8,.75-.31,.39-.5,.71-.67,1.1-.37,.75-.67,1.47-.97,2.27-.26,.67-.52,1.33-.79,2-.37,.92-.67,1.83-.93,2.78-.06,.23-.15,.38-.14,.62,.01,.3,.05,.57,.23,.82,.1,.14,.18,.26,.26,.41,0,.13,.08,.21,.16,.28,.12,.1,.61,.13,.72-.21,.2-.57,.34-1.16,.46-1.76,.23-1.12,.5-2.17,.83-3.27,.2,.13,.48,.15,.69,.05,.14-.07,.32-.18,.43-.29,.01-.01,.06-.06,.08-.06,.02,0,.06,.06,.07,.07,.08,.07,.07,.25,.05,.35-.09,.33-.34,.64-.54,.91-.15,.21-.29,.38-.47,.55-.17,.16-.32,.27-.46,.46-.08,.12-.07,.34,.08,.41,.11,.05,.22,.06,.34,.07,.08,0,.18,.01,.25,.04,.02,0,.03,.01,.05,.02,.16,.1,.32,.26,.36,.45,.04,.17-.06,.36-.15,.49-.07,.1-.25,.2-.36,.27-.11,.06-.25,.14-.35,.2-.02,.01-.04,.03,0,.03,.18-.04,.28-.05,.42-.08,.28-.05,.53,.06,.79-.02,.41-.14,.85-.35,1.08-.74,.16-.29,.01-.68-.16-.93-.18-.25-.49-.34-.76-.44-.18-.06-.56-.05-1.03,.15,.45-.33,1.17-.96,1.46-1.38,.26-.36,.42-.86,.39-1.31-.03-.35-.24-.74-.56-.9-.29-.14-.62,.09-.85,.25-.19,.14-.44,.26-.66,.34,.08-.23,.16-.5,.25-.73,.2-.4,.27-.49,.48-.7,.12-.12,.26-.22,.4-.31,.28-.18,.71-.36,.99-.35,.22,0,.25,.35,.25,.53,.01,1.15,.05,2.3,.06,3.46,0,1.3-.03,2.57-.17,3.86-.08,.73-.77,1.57-1.53,1.83-.34,.12-.66,.16-1.1-.03-.27-.12-.47-.29-.59-.56-.02-.06-.05-.06-.07-.09-.02-.03-.03-.07-.04-.14,0-.03-.04-.02-.04,.01,0,.06,0,.12,0,.17,.01,.1,.03,.17,.04,.22,.06,.2,.11,.27,.2,.4,.31,.44,.88,.72,1.6,.77,.62,.04,1.19-.04,1.7-.36,.55-.35,1.23-.87,1.31-1.56,.12-.94,.25-1.88,.27-2.83,.04-1.86,.16-3.74-.11-5.6-.07-.48-.47-.99-.93-1.11-.4-.1-.79-.16-1.21,.01-.17,.07-.51,.29-.67,.41-.21,.17-.88,.74-1.51,1.62,.25-.56,.61-1.25,.88-1.7,.09-.15,.62-.72,.84-.87,.7,0,.7-.48,.72-.85,.39-.48,.88-1.05,1.29-1.52,.62-.7,1.06-1.06,1.58-1.79,.06-.09,.22-.34,.27-.47,.11-.27-.22-.66-.4-.79-.24-.19-.45-.36-.75-.43-.19-.05-.46-.03-.6,.11-.1,.1-.16,.22-.21,.35-.03,.09-.05,.19-.09,.27-.34,.45-.7,.81-1.15,1.11,0-.72-.01-1.44,.02-2.15,.02-.32,.01-.54,.13-.85,.11-.28,.17-.64-.05-.88-.08-.08-.18-.14-.26-.21-.13-.13-.18-.27-.34-.38-.21-.16-.45-.29-.64-.48-.07-.06-.13-.12-.2-.19,0,0,0,0,0,0,.02,.09,.02,.18,.02,.26,0,.1,.03,.24,.06,.34,.06,.22,.02,.46,.04,.68,.05,.59,.02,1.19,.14,1.77,.1,.54,.17,1.07,.18,1.62,0,.3,0,.59,0,.89-.5,.25-.85,.38-1.43,.37-.38,0-.79-.06-1.15-.21-.33-.14-.63-.32-.9-.57-.18-.16-.28-.31-.35-.55-.05-.17-.09-.32-.13-.5-.02-.08-.06-.08-.07,0-.02,.18-.04,.33-.05,.51-.02,.27-.02,.57,0,.84,.06,.58,.38,1.07,.82,1.43Zm4.16-.64c.44-.43,.76-.95,1.16-1.55,.05-.07,.05-.03,.04,.03-.31,1.35-.71,1.88-1.23,2.62,0-.21,.02-.88,.03-1.09Z"/>
          </g>
        </g>
        <g>
          <path class="d" d="M81.94,61.35l-2.77,.69,2.17,8.76-2.07,.51-2.17-8.76-2.77,.69-.46-1.85,7.61-1.89,.46,1.85Z"/>
          <path class="d" d="M94.55,68.24l-2.19,.38-.97-1.8-3.83,.66-.32,2.02-2.19,.38,2.05-11.45,1.65-.29,5.8,10.09Zm-4.03-3.09l-2-3.69-.68,4.15,2.68-.46Z"/>
          <path class="d" d="M98.5,67.83l-2.12,.25-1.28-10.86,2.12-.25,1.28,10.86Z"/>
          <path class="d" d="M108.95,63.64c-.1,1.08-.49,1.95-1.16,2.61-.67,.66-1.55,1.02-2.63,1.09-1.16,.08-2.17-.26-3.02-1.01-.51-.45-.87-1.06-1.07-1.82-.11-.41-.2-1.23-.28-2.46-.08-1.2-.09-2.03-.04-2.47,.09-.79,.37-1.43,.83-1.95,.76-.85,1.71-1.31,2.86-1.38,1.09-.07,2.01,.18,2.75,.74,.74,.56,1.23,1.38,1.49,2.45l-2.16,.14c-.31-1.02-.96-1.49-1.94-1.43-.64,.04-1.12,.31-1.44,.82-.25,.41-.33,1.39-.23,2.95l.06,.98c.01,.19,.04,.4,.07,.61,.22,1.36,.89,2,2,1.93,.97-.06,1.55-.62,1.74-1.67l2.16-.14Z"/>
          <path class="d" d="M119.4,67.01l-2.13-.02,.04-4.56-3.7-.03-.04,4.56-2.13-.02,.1-10.93,2.13,.02-.04,4.47,3.7,.03,.04-4.47,2.13,.02-.1,10.93Z"/>
          <path class="d" d="M130.52,64.06c-.09,1.14-.55,2.03-1.37,2.67-.82,.64-1.8,.91-2.96,.82-1.15-.1-2.07-.52-2.76-1.28-.72-.78-1.03-1.74-.93-2.88l.59-7.16,2.13,.18-.59,7.08c-.05,.6,.08,1.1,.38,1.49,.3,.39,.75,.62,1.34,.67,.6,.05,1.08-.1,1.45-.43,.36-.34,.57-.81,.62-1.41l.59-7.08,2.11,.17-.59,7.16Z"/>
          <path class="d" d="M141.25,69.45l-1.87-.3-3.21-7.31-1.07,6.62-2.11-.34,1.74-10.79,1.88,.3,3.21,7.3,1.07-6.61,2.11,.34-1.74,10.79Z"/>
          <path class="d" d="M152.76,67.54c-.33,1.35-.91,2.34-1.75,2.96-.9,.67-2.02,.84-3.35,.51-1.13-.28-1.99-.9-2.58-1.86-.35-.58-.51-1.27-.48-2.06,.02-.43,.18-1.24,.47-2.43,.29-1.17,.52-1.96,.71-2.37,.32-.72,.78-1.26,1.37-1.61,.98-.58,2.03-.74,3.15-.46,1.09,.27,1.91,.78,2.46,1.55,.56,.77,.79,1.71,.71,2.83l-2.1-.51c.01-1.09-.5-1.77-1.55-2.02-1.05-.26-1.82,.26-2.31,1.56l-.38,1.55c-.19,.75-.32,1.28-.37,1.57-.21,1.35,.23,2.16,1.34,2.43,.61,.15,1.13,.08,1.57-.2,.44-.28,.73-.73,.88-1.33l.1-.4-1.95-.48,.42-1.73,4.01,.98-.38,1.55Z"/>
        </g>
        <g>
          <path class="d" d="M46.45,96.82c.74,1.18,1.04,2.29,.9,3.31-.15,1.11-.81,2.03-1.97,2.75-.99,.62-2.03,.8-3.13,.55-.66-.15-1.27-.52-1.81-1.1-.29-.31-.76-.99-1.41-2.03-.64-1.02-1.04-1.74-1.21-2.16-.29-.74-.36-1.44-.19-2.11,.26-1.11,.89-1.97,1.87-2.58,.95-.59,1.89-.82,2.83-.68,.94,.14,1.78,.63,2.52,1.46l-1.84,1.15c-.77-.77-1.62-.87-2.53-.3-.92,.57-1.08,1.49-.5,2.74l.85,1.35c.4,.66,.69,1.12,.87,1.36,.82,1.09,1.71,1.34,2.67,.74,.53-.33,.85-.75,.95-1.26,.1-.51-.01-1.03-.34-1.56l-.22-.35-1.7,1.07-.94-1.51,3.5-2.19,.85,1.35Z"/>
          <path class="d" d="M56.83,93.17c.44,1.06,.44,2.06,0,3-.44,.94-1.19,1.63-2.26,2.07-1.07,.44-2.08,.48-3.04,.12-.99-.37-1.71-1.08-2.14-2.14l-2.73-6.64,1.97-.81,2.7,6.57c.23,.56,.57,.94,1.02,1.16,.45,.21,.95,.21,1.5-.02,.56-.23,.92-.58,1.09-1.05,.17-.47,.14-.98-.09-1.54l-2.7-6.57,1.96-.81,2.73,6.65Z"/>
          <path class="d" d="M68.95,93.42l-2.14,.62-1.16-1.68-3.73,1.09-.09,2.04-2.14,.62,.75-11.61,1.61-.47,6.9,9.37Zm-4.35-2.62l-2.4-3.44-.21,4.2,2.61-.76Z"/>
          <path class="d" d="M78.85,91.34l-1.86,.39-5.61-5.68,1.36,6.56-2.09,.43-2.22-10.7,1.86-.39,5.6,5.67-1.36-6.55,2.09-.43,2.22,10.7Z"/>
          <path class="d" d="M88.89,85.33c.19,1.38,.02,2.51-.53,3.39-.59,.95-1.56,1.52-2.92,1.71-1.16,.16-2.18-.1-3.09-.78-.54-.41-.95-.99-1.21-1.74-.14-.4-.29-1.21-.47-2.43-.17-1.2-.24-2.02-.22-2.46,.03-.79,.26-1.46,.68-2,.69-.9,1.61-1.44,2.76-1.6,1.11-.16,2.06,.02,2.86,.53,.8,.51,1.37,1.3,1.71,2.36l-2.14,.3c-.39-1.02-1.12-1.45-2.18-1.31-1.07,.15-1.59,.92-1.57,2.3l.22,1.58c.1,.77,.18,1.3,.24,1.59,.3,1.33,1.01,1.92,2.14,1.76,.62-.09,1.08-.34,1.38-.77,.3-.42,.41-.95,.32-1.56l-.06-.41-1.99,.28-.25-1.76,4.09-.58,.22,1.58Z"/>
          <path class="d" d="M98.35,79.88l-2.84,.25,.8,8.99-2.13,.19-.8-8.99-2.84,.25-.17-1.9,7.81-.69,.17,1.9Z"/>
          <path class="d" d="M103.55,88.65l-2.13,.11-.59-10.91,2.13-.11,.59,10.91Z"/>
          <path class="d" d="M115.04,88.34l-2.23,.04-.68-1.92-3.88,.07-.62,1.95-2.23,.04,3.78-11,1.67-.03,4.19,10.86Zm-3.51-3.67l-1.41-3.95-1.31,4,2.72-.05Z"/>
          <path class="d" d="M125.25,88.62l-1.9-.06-4.13-6.83-.21,6.7-2.13-.07,.33-10.93,1.9,.06,4.12,6.82,.2-6.69,2.13,.07-.33,10.93Z"/>
          <path class="d" d="M140.29,80.84l-2.84-.28-.9,8.98-2.12-.21,.9-8.98-2.84-.28,.19-1.89,7.81,.78-.19,1.89Z"/>
          <path class="d" d="M148.71,91.18l-7.12-1.08,1.63-10.81,7.12,1.08-.28,1.88-5.01-.76-.38,2.53,4.27,.65-.28,1.88-4.27-.65-.4,2.63,5.01,.76-.28,1.88Z"/>
          <path class="d" d="M160.86,93.75l-2.08-.47,1.39-6.22-2.94,3.59-1.41-.32-1.15-4.5-1.39,6.22-2.08-.47,2.39-10.67,2.04,.46,1.5,6.39,4.06-5.15,2.06,.46-2.39,10.67Z"/>
          <path class="d" d="M173.45,89.8c-.31,.97-.89,1.65-1.74,2.04-.84,.38-1.76,.42-2.74,.1l-2-.64-1.26,3.92-2.03-.65,3.34-10.41,4.03,1.3c.98,.32,1.71,.88,2.17,1.68,.46,.8,.54,1.69,.22,2.67Zm-2.03-.65c.14-.44,.12-.84-.08-1.18-.19-.35-.52-.6-.96-.74l-1.9-.61-.92,2.86,1.9,.61c.45,.14,.85,.13,1.21-.03,.36-.17,.61-.47,.75-.91Z"/>
          <path class="d" d="M179.6,100.62l-6.48-2.88,4.44-9.99,1.95,.87-3.67,8.25,4.53,2.01-.77,1.74Z"/>
          <path class="d" d="M187.31,105.5l-6-3.97,6.03-9.11,6,3.97-1.05,1.59-4.22-2.8-1.42,2.14,3.6,2.38-1.05,1.59-3.6-2.38-1.47,2.21,4.22,2.8-1.05,1.59Z"/>
        </g>
      </g>
      <g>
        <g>
          <path class="e" d="M113.65,112c.58-.16,1.83-.82,1.4-1.54-.43-.72-2.69-2.42-3.29-1.24,0,0-.12,.4,.3,.71,.43,.3-.52,.54-.99,.69-.47,.14-2.42,.89-2.65,.79-.24-.09,.64-.53,1-.96,.36-.43,1.92-2.01,1.93-2.53,0-.52-.03-1.76-.76-2.09-.73-.32-.88-.21-.88-.21,0,0-.29,.35-.17,.65,.12,.3-3.11,4.7-4.05,5.57-.94,.87,.32,2.34,.84,2.29,.52-.04,5.86-2.73,5.38-2.02-.49,.71-2.29,2.27-3.49,2.79-1.2,.52-1.11,2.01-.95,2.47,.15,.46,1.17,1.76,1.43,1.7,.26-.06,.65-.06,.91-.36,.26-.3,1.52,.05,1.71,.12,.2,.07,2.08,.12,2.35-.12,.26-.23,.52-1.38-.11-1.43-.63-.05-.85-.09-.76-.26,.09-.17,.77-1.14,.98-1.27,.21-.13,.79-.67,.18-1.08-.61-.42-1.47-.45-1.63-.4-.15,.05-1.59,.13-1.78,.09-.19-.05,2.54-2.21,3.11-2.37Zm-2.88,3.68c-1.38,.87-1.17,1.36-1.52,1.35-.34,0-.28-1.11-.28-1.21,0-.1-.05-.3-.05-.3,.74-.07,1.85,.16,1.85,.16Z"/>
          <path class="e" d="M127.51,107.51s-.82-.32-1.44-.11c-.63,.2-1.29,.29-1.38,.42-.09,.12-.27,.02-.28-.22,0-.24-.06-1.99-.06-2.05,0-.05-.12-.51-1.03-.38,0,0-.23,.09-.37,.26-.14,.17-.35,.39-.38,.43-.03,.04-.29,.45-.03,.44,.26,0,.39-.1,.47,.52,0,0,.13,.1,.13,.21,0,.11-.1,.61,.02,.77,.12,.16,.37,.55-.7,.9-1.07,.34-1.91,1.22-1.96,1.36,0,0-.24,.18-.66,.04-.42-.14-.54-.04-.54-.04,0,0-.32-.24-.45-.1-.13,.14-.35,.27,.05,1.04,.39,.79,.63,1.8,2.15,2.12,0,0,.12,.11,.22,.26,.1,.15,.77,.37,.94,.28,.17-.08,.95-.81,1.17-.6,.23,.21,0,.04,0,.04,0,0,.12,.49,.08,.67-.04,.17-.13,.5-.05,.56,.08,.07-.05,.58-.06,.64-.01,.06-.04,2.28,.12,2.56,.16,.28,.14,1.12,.35,1.32,.2,.19-.27,.51-.34,.54-.07,.03,.13,.32,.28,.11,.15-.22,.26-.52,.36-.5,.1,.02,.47-.67,.46-1.33,0-.66,.06-2.24,0-2.67-.05-.43,.17-1.25,.1-1.83-.07-.57-.03-.87,.5-.95,.53-.07,.5-.14,.62-.19,.12-.05,.5-.04,.62-.45,.13-.4-.43-.9-.88-.98-.46-.07,.13-.43,.13-.43,0,0,.59-.36,.71-.35,.12,.01,.63-.33,.88-.53,.24-.19,.75-.52,.85-.71,.11-.2,.07-.85-.61-1.06Zm-4.59,3.6c-.47,.28-.92,.7-1.15,.66-.24-.05-.82-1.2-.82-1.2,0,0,.48-.08,.7-.14,.22-.06,.34-.07,.56-.07,.23,0,.98-.11,1.02-.17,.04-.06,.16,.64-.31,.93Z"/>
        </g>
        <g>
          <path class="e" d="M152.53,166.88c-.27-1.44-6.06-4.31-10.3-5.13-4.23-.82-6.69-2.02-10.11-4.06-3.43-2.04-10.64-7.84-10.98-9.1-.34-1.25,7.11-5.09,8.37-4.95,1.26,.13,4.4,0,5.41-.3,1.01-.3,.92-1.66,.42-2.34-.49-.69-3.34-1.68-7-1.73-3.67-.05-4.58-1.17-5.16-1.45-.59-.29-1.02-1.03-.43-1.09,.59-.06,2.62-1.75,3.02-2.2,.4-.44,1.63-1.6,1.63-1.6,2.71-1.27,3.84-3.29,3.55-4.56-.29-1.28-2.54-2.05-4.78-2.35-2.24-.29-5.91,1.46-6.72,1.93-.81,.5-5.41,3.21-6.65,3.52-1.23,.31-1.43,1.17-1.43,1.79s1,1.13,1.17,1.41c.17,.27,.96,.29,2.84,.88,1.88,.59,1.47,3.67,1.47,3.67,0,0-.01,2.24-.59,3.82-.56,1.59-3.75,2.73-8.59,4.59-4.85,1.85-2.73,2.85-1.91,3.42,.81,.57,5.04,2.33,6.67,3.23,1.64,.88,.76,2.15,.12,2.62-.64,.47-2.36,3.31-3.53,5.08-1.17,1.78-2.71,2.42-5.76,3.79-3.05,1.36-1.23,2.54-.38,2.84,.84,.29,4.79-.79,8.93-2.84,4.14-2.04,5.03-8.08,5.03-8.85,.01-.76,1.74-4.4,2.33-4.4s5.96,8.2,5.96,8.2c0,0,8.54,9.51,17.22,10.11,8.68,.59,10.44-2.51,10.17-3.96Zm-29.98-26.28c.25-.34,.91-1.46,.91-1.46l.3-.16c.28-.16,.15,.25,.24,.58,.1,.33,.63,0,.63,.47s-.3,.34-1.04,.69c-.73,.35-1.29,.22-1.04-.13Z"/>
          <path class="d" d="M94.31,142.66c-.52-1.87-3.2-2.86-4.1-3.07-.13-.03-.28-.04-.45-.04-1.03,0-2.88,.54-4.67,1.06-.67,.19-1.3,.38-1.86,.53-.15,.04-.28,.07-.4,.09,.14-.22,.3-.46,.4-.72,.16-.41,.06-.71-.03-.9,.19-.13,.66-.39,1.83-.89,.84-.36,1.93-.94,1.74-1.85-.25-1.23-2.81-1.49-3.3-1.49-.3,0-.41-.2-.71-.99-.23-.62-.52-1.4-1.18-2.06-.11-.11-.22-.2-.32-.27,.7-.3,1.46-.46,2.17-.46,.46,0,.86,.07,1.18,.2,.34,.14,.71,.21,1.11,.21,1.4,0,2.78-.84,2.96-1.79,.06-.3,.06-1.06-1.11-1.51-1.11-.43-2.22-.81-3.48-.81-1.57,0-3.13,.63-4.77,1.92-.39,.31-.68,.52-.88,.66,.14-.58,.29-1.35-.14-1.87-.08-.09-.19-.26-.34-.46-1.12-1.56-3.74-5.23-7.2-5.23-.77,0-1.54,.19-2.29,.56l-.23,.11-.05,.25c-.01,.09-.37,2.17,1.18,3.72,.82,.82,1.67,2.07,1.1,3.41-.06,.13-.11,.26-.16,.4-.42,1.04-.85,2.11-3.24,3.41-2.14,1.17-6.1,2.27-7.61,2.27-.1,0-.18,0-.24-.01,.01-.18-.05-.31-.11-.4-.11-.16-.3-.26-.52-.26-.76,0-3.02,1.72-3.04,2.91,0,.31,.13,1.04,1.49,1.08,.08,0,.16,0,.24,0,1.59,0,3.16-.42,4.43-.76,.8-.22,1.49-.4,1.91-.4,.15,0,.2,.02,.2,.02,.33,.25,.53,.47,.57,.75,.03,.3-.12,.87-.99,1.92l-.28,.33c-1.58,1.88-1.86,2.32-2.67,6.8-2.01,11.07-6.2,18.91-12.46,23.29l-2.36,1.65,2.78-.75c.88-.24,8.62-2.41,9.97-5.2,1-2.05,3.8-11.81,5.65-18.26,.58-2.03,1.04-3.63,1.27-4.39l.18-.59c.21-.67,.4-1.31,.58-1.91,.21,.69,1.4,1.43,2.28,1.66,.45,.12,.6,.25,.64,.29-.04,.08-.23,.4-1.27,.91-1.79,.88-2.94,3.06-2.81,3.6,.06,.24,.26,.41,.51,.41,.31,0,.49-.26,.58-.4,.29-.42,1.45-.83,2.58-1.22,.74-.26,1.58-.55,2.35-.9,1.07-.49,1.56-.71,1.78-.71,.08,0,.17,.03,.34,.08,.07,.02,.16,.05,.25,.07,.02,0,.03,.01,.03,.01,0,0,.02,.13-.07,.34-.14,.33-.42,.66-.65,.75-.17,.06-.36,.12-.57,.19-.73,.23-1.63,.51-2.48,1.26-.59,.52-1.4,.6-1.83,.6-.16,0-.26,0-.26,0h-.13c-.88,.13-1.52,.49-1.89,1.07-.69,1.08-.26,2.59,.06,3.68,.1,.36,.2,.7,.21,.86,.07,1.3,3.13,4.75,4.76,6.27-.45,.27-1.21,.72-2.3,1.29-.46,.24-.92,.46-1.37,.67-1.64,.78-2.93,1.4-3.04,2.45-.08,.87-.35,3.5,1.49,4.67,.86,.54,2.07,1.19,3,1.19,.43,0,.77-.13,1.02-.39,.28-.28,.41-.7,.4-1.24-.02-.81-.19-1.69-.33-2.47-.16-.84-.37-1.99-.17-2.27,.12-.16,.3-.4,.51-.68,.92-1.22,1.51-2.02,1.81-2.5,.25,.1,.51,.15,.79,.15,1.62,0,3.11-1.87,3.99-2.98,.08-.1,.15-.19,.22-.27,.36-.44,.61-.65,.76-.74,0,.08,.01,.2,0,.38-.06,.72,.55,1.56,1.07,2.13,1.16,1.26,3.05,2.53,4.42,2.53,.11,0,.21,0,.31-.02-.27,.12-.53,.33-.56,.66-.05,.65,.76,.77,1.02,.81,1.01,.16,3.42,2.28,4.54,4.75,.68,1.51,1.9,1.83,2.81,1.83,1.17,0,2.36-.55,2.77-.94,.2-.19,.3-.47,.3-.82,0-1.11-1.03-2.91-2.39-4.2-1.81-1.72-7.67-2.21-7.92-2.23h-.06s-.09,0-.16,.01c2.27-1.21,6.36-12.36,6.4-12.47,.6-1.72-4.3-6.42-4.35-6.46-.31-.26-.85-.39-1.64-.39-1.35,0-3.33,.39-4.61,.9-.37,.15-.79,.29-1.19,.4,.08-.05,.17-.1,.26-.15,1.93-1.09,4.47-1.64,7.56-1.64,.95,0,1.95,.06,2.95,.17,1.24,.13,2.53,.92,3.47,1.49,.71,.44,1.15,.7,1.52,.7,.03,0,.05,0,.07,0,.26-.02,.48-.16,.63-.37,.32-.48,.27-1.34-.19-3Zm-21.85,10.65c-.11,.06-.21,.12-.3,.17-.7,.41-1.15,.68-1.36,1.56-.08,.34,0,.69,.23,.98,.29,.35,.76,.57,1.27,.57,.38,0,.74-.12,1.05-.34-.04,.24-.12,.54-.25,.78-.21,.37-.52,.58-.85,.58-.25,0-.52-.13-.78-.4-1.86-1.86-2.53-3.19-2.01-3.98v-.02l.02-.02c.5-.9,1.48-2.25,2.11-2.41,.39-.1,.74-.27,1.01-.41,.11-.05,.25-.12,.35-.16,0,.04,.01,.08,.02,.13,.21,2.17-.24,2.78-.52,2.95Zm.17-10.88s-.2-.15,.05-.01c.25,.13,6.28-1.38,7.22-1.64-.08,.03,.04,.32-.1,.4-.86,.09-6.44,1.93-7.01,2.21,.03-.14-.03-.8-.16-.96Zm8.85,4.63c.09,0,.16,.03,.23,.11,.12,.13,.48,.71,.26,2.68-.29,2.52-1.66,6.32-2.33,7.28-.17,.23-.27,.35-.33,.4-.09-.07-.22-.22-.33-.34l-.1-.12c-.1-.11-.18-.21-.25-.3-.27-.34-.48-.57-1.1-.57-.27,0-.63,.04-1.2,.12-.1,.01-.19,.02-.26,.02h-.02c.08-.19,.33-.59,1.05-1.36,.41-.45,.62-.54,1.02-.72,.26-.12,.59-.27,1.05-.55,.64-.38,.93-.96,.76-1.54-.23-.82-1.23-1.34-2.56-1.34-.24,0-.42-.05-.46-.12-.12-.22,.15-.92,.46-1.4l.08-.13v-.15c.04-.29,1.36-.85,2-1.11,.52-.22,1.06-.44,1.52-.69,.24-.13,.4-.16,.49-.16Zm-15.34-8.91c.32-.7,2.61-2.65,4.16-2.65,.23,0,.43,.05,.57,.15,1.17,.77,3.17,1.59,4.79,1.59s2.68-.8,2.99-2.25c.12-.56,.36-1.05,.68-1.47-.13,.48-.23,1.03-.32,1.57-.06,.34-.12,.65-.18,.92-.26,1.19-2.05,1.81-4.12,2.54-.21,.08-.43,.15-.64,.23-.49,.17-.89,.26-1.21,.26-.64,0-.9-.34-1.41-1.11-.15-.23-.33-.5-.54-.76-.18-.23-.46-.54-.85-.54-.83,0-.91,1.08-1.03,2.72-.05,.63-.09,1.29-.18,1.9-.14,.92-.58,1.03-.94,1.03-.4,0-.78-.17-.78-.17l-.05-.03h-.06c-.11-.03-.21-.05-.3-.05-.21,0-.37,.06-.49,.16,.53-1.99,.71-3.47-.09-4.05Z"/>
          <g>
            <g>
              <path class="e" d="M154.7,136.73s-5.01,3.86-5.31,4.59c-.29,.75-2.11,1.03-1.72,2.5,.4,1.47,.81,4.15,2.11,5.54,1.3,1.39,2.28,2.04,3.18,1.09,.91-.97,2.49-7.56,2.81-8.81,.32-1.24,.73-3.43,.48-3.75-.26-.33-.82-1.42-1.55-1.16Z"/>
              <path class="e" d="M185.16,132.19c-2.73-.75-11.03,.34-11.58,.33-.56-.01-.64-.74-.64-.74-2.49-6.69-4.04-7.35-5.29-7.86-1.25-.51-1.86,1.76-1.81,2.9,.05,1.15,.23,6.8-.27,7.61-.51,.8-2.97,1.36-3.88,1.52-.91,.15-2.01,1.94-1.58,2.15,.43,.21,.48,.38,1.17,1.14,.69,.75,2.78,.38,2.78,.38,1.03-1.02,5.46-2.02,5.95-2.12,.49-.1,1.76,.26,1.12,.62-.63,.35-3.51,2.43-3.94,2.78-.43,.38-1.51,1.87-4.78,3.8-3.27,1.93-2.41,3.28-2.39,5.81,.01,2.53,2.33,4.7,2.94,4.84,.62,.14,.66-.26-.86,4.16-1.52,4.42-.84,7.77-.06,9.51,.79,1.72,4.35,2.49,5.06,2.09,.71-.41,1.54-.94,1.87-1.26,.32-.3,7.68,0,8.26,0s2.82,1.08,4.07,.12c1.25-.95,.84-2.92,.33-3.53-.49-.62-.43-1.58-.16-1.58s1.9-1.24,3.51-3.66c1.63-2.42,.28-4.29-1.41-5.85-1.7-1.56-5.93-1.26-8.18-1.26s-7.29,1.89-7.29,1.89c0,0-.96-.23,1.48-2.76,2.44-2.52,4.87-1.86,5.48-1.86,.59,0,1.95-1.43,2.18-2.33,.22-.9-.58-.67-.94-1.5-.35-.83,2.26-1.38,3.47-3.44,1.19-2.06-.81-3.78-2.85-4.21-2.02-.41-6.78,.31-7.72,.58-.94,.26,.94-1.39,2.19-1.98,1.25-.58,1.55-1.64,1.55-1.64,0,0-.19,.39-.94,.48-.76,.08-.48-.3,.63-1.64,1.1-1.35,5.92-2.29,6.48-2.19,.55,.08-.4,.49-.84,.66-.44,.15-2.2,.98-1.82,1.1,.38,.12,1.71,.04,1.94,.04s3.2-.55,5.31,0c2.12,.55,3.25-.32,3.72-.91,.47-.59,.45-1.45-2.28-2.21Zm-16.27,27.93s5.37,.59,5.63-.01c.27-.61,1.15-.77,1.15-.43s-.46,1.98-.94,2.16c-.46,.17-1.31,1.43-1.79,1.55-.47,.11-2.48,.51-3.75,.87-1.26,.36-1.98,.47-3.03-1.55-1.06-2,.61-5.49,.61-5.49,.27-.63,.31,.32,.31,1.54s1.8,1.35,1.8,1.35Zm3.6-15.01c-.15,.66-1.35,2.3-2.81,2.73-1.47,.43-3.74,1.17-3.83,1.99-.08,.81-.33,1.23-.63,.77-.31-.46-.94-2.8-1.25-3.06-.3-.28,.71-2.74,1.57-2.55,0,0,1.26,.43,2,.18,.76-.25,5.13-.7,4.95-.05Zm8.35-11.98c-.35-.05-.34,0-.78,.31-.45,.3-.15-.61-.15-.61,0,0,.54-.04,.78-.04,.23,0,.5,.39,.15,.34Z"/>
            </g>
            <path class="e" d="M185.83,132.77s-1.57,4.76-2.58,5.11c0,0,4.68-.87,4.42-3.05-.27-2.19-1.83-2.06-1.83-2.06Z"/>
          </g>
        </g>
      </g>
    </g>
  </g>
</svg>