<?xml version="1.0" encoding="UTF-8"?>
<svg id="b" data-name="圖層 2" xmlns="http://www.w3.org/2000/svg" width="60.74" height="89.11" viewBox="0 0 60.74 89.11">
  <defs>
    <style>
      .d {
        fill: #fc462d;
      }

      .e {
        fill: none;
      }

      .e, .f, .g, .h, .i {
        stroke: #c99d4e;
        stroke-miterlimit: 10;
      }

      .e, .g, .i {
        stroke-width: .5px;
      }

      .f {
        stroke-width: .74px;
      }

      .f, .h, .i {
        fill: #e8382f;
      }

      .g {
        fill: #fffbf3;
      }

      .h {
        stroke-width: .37px;
      }
    </style>
  </defs>
  <g id="c" data-name="fix 按鈕">
    <g>
      <path class="i" d="M32.39,88.74h28.1V6.97c-3.65,0-6.6-2.95-6.6-6.6h-14.9c0,3.64-2.95,6.6-6.6,6.6V88.74Z"/>
      <path class="i" d="M32.39,88.74h28.1V6.97c-3.65,0-6.6-2.95-6.6-6.6h-14.9c0,3.64-2.95,6.6-6.6,6.6V88.74Z"/>
    </g>
    <g>
      <path class="i" d="M29.93,88.74h28.09V6.97c-3.65,0-6.6-2.95-6.6-6.6h-14.9c0,3.64-2.95,6.6-6.6,6.6V88.74Z"/>
      <path class="i" d="M29.93,88.74h28.09V6.97c-3.65,0-6.6-2.95-6.6-6.6h-14.9c0,3.64-2.95,6.6-6.6,6.6V88.74Z"/>
    </g>
    <g>
      <path class="i" d="M27.46,88.74h28.09V6.97c-3.65,0-6.6-2.95-6.6-6.6h-14.9c0,3.64-2.95,6.6-6.6,6.6V88.74Z"/>
      <path class="i" d="M27.46,88.74h28.09V6.97c-3.65,0-6.6-2.95-6.6-6.6h-14.9c0,3.64-2.95,6.6-6.6,6.6V88.74Z"/>
    </g>
    <g>
      <path class="i" d="M25,88.74h28.09V6.97c-3.65,0-6.6-2.95-6.6-6.6h-14.9c0,3.64-2.95,6.6-6.6,6.6V88.74Z"/>
      <path class="i" d="M25,88.74h28.09V6.97c-3.65,0-6.6-2.95-6.6-6.6h-14.9c0,3.64-2.95,6.6-6.6,6.6V88.74Z"/>
    </g>
    <g>
      <path class="i" d="M22.54,88.74h28.09V6.97c-3.65,0-6.6-2.95-6.6-6.6h-14.9c0,3.64-2.95,6.6-6.6,6.6V88.74Z"/>
      <path class="i" d="M22.54,88.74h28.09V6.97c-3.65,0-6.6-2.95-6.6-6.6h-14.9c0,3.64-2.95,6.6-6.6,6.6V88.74Z"/>
    </g>
    <g>
      <path class="i" d="M20.07,88.74h28.09V6.97c-3.65,0-6.6-2.95-6.6-6.6h-14.9c0,3.64-2.95,6.6-6.6,6.6V88.74Z"/>
      <path class="i" d="M20.07,88.74h28.09V6.97c-3.65,0-6.6-2.95-6.6-6.6h-14.9c0,3.64-2.95,6.6-6.6,6.6V88.74Z"/>
    </g>
    <g>
      <path class="i" d="M17.61,88.74h28.09V6.97c-3.65,0-6.6-2.95-6.6-6.6h-14.9c0,3.64-2.95,6.6-6.6,6.6V88.74Z"/>
      <path class="i" d="M17.61,88.74h28.09V6.97c-3.65,0-6.6-2.95-6.6-6.6h-14.9c0,3.64-2.95,6.6-6.6,6.6V88.74Z"/>
    </g>
    <g>
      <path class="i" d="M10.22,88.74H43.24V6.97c-3.65,0-6.6-2.95-6.6-6.6h-14.9c0,3.64-2.95,6.6-6.6,6.6l-4.93,81.78Z"/>
      <path class="i" d="M10.22,88.74H43.24V6.97c-3.65,0-6.6-2.95-6.6-6.6h-14.9c0,3.64-2.95,6.6-6.6,6.6l-4.93,81.78Z"/>
    </g>
    <g>
      <path class="i" d="M7.76,88.74H40.78V6.97c-3.65,0-6.6-2.95-6.6-6.6h-14.9c0,3.64-7.88,6.6-11.52,6.6V88.74Z"/>
      <path class="i" d="M7.76,88.74H40.78V6.97c-3.65,0-6.6-2.95-6.6-6.6h-14.9c0,3.64-7.88,6.6-11.52,6.6V88.74Z"/>
    </g>
    <g>
      <path class="i" d="M5.3,88.74H38.32V6.97c-3.64,0-6.6-2.95-6.6-6.6h-14.9c0,3.64-7.88,6.6-11.52,6.6V88.74Z"/>
      <path class="i" d="M5.3,88.74H38.32V6.97c-3.64,0-6.6-2.95-6.6-6.6h-14.9c0,3.64-7.88,6.6-11.52,6.6V88.74Z"/>
    </g>
    <g>
      <path class="i" d="M2.83,88.74H35.85V6.97c-3.65,0-6.6-2.95-6.6-6.6H14.35c0,3.64-7.88,6.6-11.52,6.6V88.74Z"/>
      <path class="i" d="M2.83,88.74H35.85V6.97c-3.65,0-6.6-2.95-6.6-6.6H14.35c0,3.64-7.88,6.6-11.52,6.6V88.74Z"/>
    </g>
    <g>
      <path class="h" d="M.37,88.74H33.39V6.97c-3.65,0-6.6-2.95-6.6-6.6H6.97c0,3.64-2.95,6.6-6.6,6.6V88.74Z"/>
      <path class="f" d="M.37,88.74H33.39V6.97c-3.65,0-6.6-2.95-6.6-6.6H6.97c0,3.64-2.95,6.6-6.6,6.6V88.74Z"/>
    </g>
    <g>
      <path class="g" d="M.37,88.74H33.39V6.97c-3.65,0-6.6-2.95-6.6-6.6H6.97c0,3.64-2.95,6.6-6.6,6.6V88.74Z"/>
      <path class="e" d="M.37,88.74H33.39V6.97c-3.65,0-6.6-2.95-6.6-6.6H6.97c0,3.64-2.95,6.6-6.6,6.6V88.74Z"/>
    </g>
    <g>
      <path class="d" d="M13.86,17.53h2.39v1.5h-1.46l.9,.23c-.25,.52-.52,1.03-.76,1.51h1.03v1.5h-2.09v1.2h2.39v1.5h-2.39v2.67h-1.64v-2.67h-2.58v-1.5h2.58v-1.2h-2.23v-1.5h1.06c-.1-.45-.33-1.02-.52-1.48l.84-.25h-1.72v-1.5h2.57v-1.04h-2.17v-1.47h2.17v-1.29h1.64v1.29h2.05v1.47h-2.05v1.04Zm-.42,3.24c.27-.55,.54-1.2,.72-1.74h-2.29c.25,.51,.51,1.11,.58,1.51l-.67,.23h1.66Zm9.74-.99c-.28,1.77-.81,3.4-1.55,4.8,.6,.67,1.28,1.21,2.05,1.6-.37,.33-.9,.97-1.17,1.41-.67-.4-1.28-.93-1.84-1.56-.49,.66-1.06,1.21-1.7,1.69-.16-.25-.43-.54-.7-.81v.75h-1.61V14.32h6.17v2.82c0,.77-.16,1.2-.75,1.44-.57,.24-1.37,.26-2.46,.26-.07-.48-.3-1.1-.51-1.53,.73,.03,1.55,.03,1.78,.03,.22-.02,.3-.06,.3-.23v-1.23h-2.91v3.58h3.56l.28-.08,1.08,.39Zm-4.91,6.37c.54-.44,.99-.94,1.39-1.51-.57-.92-1.02-1.96-1.39-3.09v4.6Zm1.24-5.28c.27,.78,.61,1.54,1.03,2.23,.33-.69,.58-1.45,.78-2.23h-1.81Z"/>
      <path class="d" d="M21.83,44.8h-1.84v-.66h-5.6v.66h-1.78v-4.65c-.73,.26-1.46,.45-2.21,.63-.16-.48-.58-1.25-.91-1.65,1.81-.36,3.6-.96,5.2-1.75-.64-.63-1.54-1.4-2.35-2.03-.42,.27-.87,.54-1.34,.77-.27-.44-.82-1.11-1.22-1.42,2.43-1.06,4.08-2.56,4.99-3.98l1.99,.42c-.27,.37-.54,.75-.84,1.12h4.36l.3-.09,1.23,.73c-1.03,2.16-2.73,3.87-4.8,5.17h4.83v6.72Zm-7.48-10.92c-.19,.17-.37,.31-.57,.46,.87,.63,1.9,1.44,2.55,2.07,1.11-.72,2.06-1.58,2.79-2.54h-4.78Zm5.65,8.65v-2.83h-5.6v2.83h5.6Z"/>
      <path class="d" d="M12.38,55c-.58-.5-1.84-1.2-2.79-1.62l.94-1.33c.93,.36,2.2,.97,2.84,1.47l-.99,1.48Zm-2.27,5.53c.81-1.14,1.94-2.98,2.82-4.72l1.31,1.2c-.79,1.56-1.75,3.27-2.63,4.73l-1.51-1.2Zm3.14-9.51c-.6-.51-1.82-1.23-2.78-1.67l.97-1.32c.94,.38,2.21,1.03,2.84,1.51l-1.03,1.47Zm8.52,10.87c-.1-.39-.28-.85-.52-1.32-4.97,.6-5.74,.72-6.23,.97-.1-.39-.4-1.27-.63-1.78,.34-.1,.63-.42,.97-.96,.27-.41,.99-1.73,1.58-3.21h-2.81v-1.68h3.54v-2.11h-2.94v-1.69h2.94v-2.23h1.81v2.23h3.05v1.69h-3.05v2.11h3.6v1.68h-4.06c-.6,1.36-1.34,2.71-2.08,3.85l3.51-.36c-.31-.54-.66-1.08-1-1.54l1.45-.72c.99,1.3,2.08,3.04,2.46,4.26l-1.6,.81Z"/>
      <path class="d" d="M17.77,65.42c-.07,.09-.15,.2-.22,.29,1.37,1.2,3.82,2.23,6.2,2.7-.37,.31-.88,.95-1.12,1.37-.3-.08-.61-.18-.93-.27v3.87H11.32v-3.78c-.31,.1-.63,.21-.93,.29-.18-.33-.66-1.05-.96-1.38,2.75-.65,5.41-1.89,6.77-3.63l1.57,.55Zm3.39,3.88c-.7-.25-1.37-.57-2.03-.91v.39h-5.24v-.3c-.58,.3-1.18,.58-1.81,.82h9.08Zm-9.01,4.56h8.78v5.07h-1.82v-.36h-5.21v.4h-1.75v-5.11Zm1.69-1.57c-.07-.47-.27-1.08-.51-1.56l1.15-.33h-1.69v1.89h1.05Zm.06,2.74v.6h5.21v-.6h-5.21Zm5.21,2.37v-.6h-5.21v.6h5.21Zm-3.39-7h-1.17c.27,.51,.51,1.15,.6,1.59l-.96,.3h1.52v-1.89Zm2.15-2.77c-.45-.31-.88-.65-1.25-.98-.39,.33-.82,.66-1.27,.98h2.52Zm-.72,2.77v1.89h1.39l-.9-.26c.21-.45,.45-1.14,.58-1.63h-1.08Zm2.96,0h-1.55l1.17,.29c-.3,.6-.58,1.18-.82,1.6h1.21v-1.89Z"/>
    </g>
  </g>
</svg>