<?xml version="1.0" encoding="UTF-8"?>
<svg id="b" data-name="圖層 2" xmlns="http://www.w3.org/2000/svg" width="374.51" height="82.49" viewBox="0 0 374.51 82.49">
  <defs>
    <style>
      .d {
        fill: #fff;
      }

      .e {
        opacity: .2;
      }
    </style>
  </defs>
  <g id="c" data-name="圖層 2">
    <g>
      <path class="d" d="M68,28.97c-.09,1.21-.14,2.21-.23,3.13h3.21v2.98h-3.56c-.2,1.21-.43,1.92-.75,2.35-.63,.92-1.41,1.2-2.38,1.35-.92,.14-2.38,.14-3.82,.06-.03-.75-.4-1.86-.83-2.61,1.29,.11,2.41,.14,3.01,.11,.49,0,.75-.06,1-.46,.11-.17,.23-.4,.34-.8h-15.43c.34-1.69,.69-3.84,1.03-6.11h-3.96v-3.04h4.39c.23-1.72,.43-3.5,.6-5.08-.72,.86-1.41,1.69-2.12,2.41-.72-.54-2.21-1.55-3.07-1.98,2.64-2.21,5.14-5.82,6.6-9.35l3.39,.98c-.26,.57-.55,1.18-.83,1.78h16.55v3.04h-18.33c-.49,.77-.98,1.49-1.49,2.21h16.98s-.03,1.09-.03,1.49c-.06,1.66-.11,3.13-.17,4.5h4.13v3.04h-4.25Zm-14.97-.12c-.17,1.15-.32,2.21-.49,3.24h6.28c-1-.77-2.27-1.58-3.41-2.12l1.15-1.12h-3.53Zm.77-5.94c-.11,1.03-.26,2.07-.4,3.13h5.71c-1-.75-2.21-1.49-3.33-1.98l1.18-1.15h-3.16Zm10.64,9.18c.06-.92,.14-1.95,.2-3.24h-5.97c1.32,.72,2.58,1.58,3.36,2.27l-.98,.98h3.39Zm.32-6.05c.06-.98,.09-1.98,.11-3.13h-5.82c1.26,.66,2.5,1.49,3.27,2.15l-.98,.98h3.41Z"/>
      <path class="d" d="M93.94,30.06c-3.47,1.32-7.2,2.67-10.07,3.7l-1.41-3.27c1.09-.32,2.47-.72,3.96-1.18v-11.02h-3.18v-3.16h9.81v3.16h-3.18v9.96l3.53-1.15,.55,2.95Zm3.79,3.16l2.64,1.87c-1.89,1.46-4.91,2.95-7.43,3.76-.46-.66-1.38-1.69-2.07-2.32,2.32-.72,5.16-2.12,6.63-3.3h-2.9v-15.15h4.5c.14-.66,.26-1.35,.37-1.98h-6.05v-2.87h16.24v2.87h-6.34c-.23,.69-.49,1.35-.72,1.98h6v15.15h-10.87Zm.03-10.81h7.52v-1.81h-7.52v1.81Zm0,4.13h7.52v-1.84h-7.52v1.84Zm0,4.19h7.52v-1.84h-7.52v1.84Zm6.68,2.58c1.81,.97,4.39,2.5,5.71,3.58l-2.7,2.01c-1.18-1.06-3.67-2.7-5.54-3.79l2.52-1.81Z"/>
      <path class="d" d="M129.75,17.84l1-.06v2.84l-1.03,.09c-.06,2.98-.43,6.54-1.81,10.01,1.09,1.15,2.07,2.24,2.73,3.1l-2.27,2.58c-.49-.75-1.2-1.63-1.98-2.58-1.09,1.75-2.47,3.41-4.3,4.91-.49-.66-1.52-1.69-2.24-2.21,1.92-1.55,3.36-3.3,4.39-5.11-1.23-1.32-2.52-2.64-3.61-3.76,.46-1.78,.86-4.02,1.26-6.43l-1.55,.11-.32-3.04,2.29-.11c.26-2.07,.46-4.1,.54-5.97l3.18,.14c-.14,1.81-.37,3.73-.63,5.68l1.41-.06v-1.89h2.93v1.75Zm-4.22,10.5c.92-2.58,1.18-5.19,1.26-7.43l-1.84,.11c-.32,2.01-.69,3.96-1.06,5.71l1.64,1.61Zm20.65-14.97v25.33h-3.1v-1.41h-8.95v1.61h-2.95V13.37h15Zm-12.05,3.04v14.89c1.92-2.27,2.67-4.91,2.95-7.4h-2.52v-2.75h2.67v-4.07h2.58v4.07h2.81v2.75h-2.93c-.03,.32-.06,.63-.09,.95,1.32,2.09,2.7,4.62,3.47,6.37v-14.8h-8.95Zm8.95,17.84v-2.5l-2.07,1.23c-.43-1.2-1.26-2.93-2.18-4.65-.57,1.89-1.55,3.7-3.07,5.31-.34-.46-1.03-1.12-1.64-1.58v2.18h8.95Z"/>
      <path class="d" d="M160.71,31.32c-.17,2.52-.6,5.25-1.18,7-.54-.32-1.75-.69-2.38-.86,.63-1.69,.95-4.25,1.09-6.54l2.47,.4Zm-3.44-10.64c.49-.14,.98-.69,1.52-1.55,.57-.77,2.27-3.99,3.27-6.97l2.73,1.12c-1.03,2.41-2.38,4.96-3.79,7.03l2.07-.14c.72-1.32,1.43-2.7,2.04-4.07l2.47,1.61c-1.61,3.16-3.76,6.4-5.91,9.04l3.33-.49c-.29-.83-.6-1.69-.95-2.44l2.18-.83c.83,1.69,1.64,3.96,1.86,5.36l-2.29,.97c-.03-.23-.09-.46-.14-.72-5.71,.95-6.68,1.23-7.31,1.52l-.03-.4c-.17-.69-.57-1.81-.8-2.47,.66-.17,1.26-.83,2.12-1.92,.37-.43,1-1.32,1.81-2.52-2.24,.26-2.87,.43-3.27,.6-.14-.57-.57-1.95-.89-2.72Zm6.34,10.04c.34,1.92,.66,4.33,.75,5.97l-2.38,.63c-.06-1.66-.32-4.13-.6-6.02l2.24-.57Zm20.42-4.39c-.8,.55-1.66,1.03-2.58,1.55,.46,2.81,1.35,5.42,2.9,6.77-.72,.52-1.61,1.64-2.04,2.44-1.78-1.72-2.7-4.68-3.21-7.95-.4,.17-.8,.37-1.18,.54,1.26,3.47,.52,7-.95,8.21-.8,.75-1.55,.95-2.73,.97-.54,.03-1.09,0-1.66-.03-.03-.8-.2-1.95-.75-2.87,.72,.12,1.2,.17,1.81,.17,.55,0,.95-.12,1.26-.63,.37-.4,.63-1.26,.63-2.41-1.89,1.61-4.3,3.13-6.4,4.07-.32-.52-.8-1.23-1.35-1.81l-1.89,.75c-.26-1.49-.89-3.76-1.49-5.51l2.09-.75c.57,1.52,1.15,3.38,1.49,4.82,2.5-.98,5.36-2.73,7.03-4.45-.11-.34-.26-.63-.43-.97-1.52,1.18-3.47,2.41-5.11,3.16-.4-.66-1.09-1.66-1.69-2.24,1.78-.54,4.04-1.72,5.54-2.87-.23-.23-.46-.49-.72-.75-1.12,.69-2.24,1.26-3.36,1.75-.34-.57-1.2-1.72-1.72-2.27,1.75-.6,3.61-1.46,5.11-2.5h-4.53v-2.7h9.24l.23-1.15h-8.18c.63-2.01,1.43-5.19,1.89-7.66l3.07,.29-.29,1.35h4.88l.49-.11,2.21,.32c-.32,2.18-.8,4.7-1.29,6.97h3.76v2.7h-7.6c-.54,.54-1.12,1.06-1.78,1.55,.83,.72,1.52,1.49,2.07,2.27,1.75-.89,3.73-2.09,5.05-3.07l2.18,2.04Zm-6-8.92l.26-1.43h-4.82l-.37,1.43h4.93Z"/>
      <path class="d" d="M209.43,24.09c-.34,.75-.72,1.46-1.03,2.09h9.95v12.71h-3.73v-.92h-12.19v.92h-3.56v-12.71h6.02c.32-.89,.6-1.89,.8-2.7-5.88,1.15-6.97,1.41-7.69,1.75-.23-.77-.98-2.15-1.46-2.75,.66-.4,1.64-1.23,1.64-2.58v-7.77h3.7v2.72h6.02v3.04h-6.02v3.21l6.31-1.06c-.11,.86-.11,2.27-.06,3.01l-2.09,.37,3.38,.66Zm5.19,4.93h-12.19v1.75h12.19v-1.75Zm0,6.17v-1.86h-12.19v1.86h12.19Zm2.5-13.51c.95,0,1.12-.4,1.26-2.52,.75,.54,2.18,1.09,3.16,1.29-.4,3.33-1.38,4.33-4.04,4.33h-4.1c-3.53,0-4.39-1.03-4.39-4.22V12.1h3.64v2.75h7.6v3.07h-7.6v2.61c0,1,.17,1.15,1.29,1.15h3.18Z"/>
      <path class="d" d="M242.77,18.73c-.32,.77-.72,1.52-1.15,2.27h13.34v14.17c0,1.69-.32,2.61-1.49,3.13-1.12,.54-2.75,.57-5.08,.57-.14-.95-.6-2.38-1.03-3.3,1.46,.09,3.13,.09,3.61,.09,.49-.03,.66-.17,.66-.57v-1.72h-10.79c-.49,2.15-1.41,4.25-3.18,5.71-.46-.72-1.75-2.15-2.47-2.61,2.47-2.15,2.67-5.22,2.67-7.89v-2.32c-1.09,1.15-2.24,2.21-3.56,3.13-.52-.77-1.58-2.01-2.24-2.64,2.9-1.92,5.19-4.82,6.88-8h-6.22v-3.21h7.69c.46-1.18,.83-2.32,1.15-3.47l3.53,.8c-.29,.89-.6,1.78-.92,2.67h14v3.21h-15.4Zm8.86,11.79v-1.86h-10.3c0,.6-.03,1.21-.06,1.86h10.36Zm0-6.51h-10.3v1.81h10.3v-1.81Z"/>
      <path class="d" d="M295.93,23.35v3.7h-26.39v-3.7h26.39Z"/>
      <path class="d" d="M316.11,22.06v1.15h10.99v2.24h-10.99v1.18h10.99v2.24h-10.99v1.18h16.49v2.81h-5.74c1.55,1.43,3.36,3.21,4.3,4.42l-3.07,1.61c-.32-.4-.75-.92-1.23-1.49-13.68,.6-15.32,.6-16.52,1.03-.17-.69-.66-2.24-1.03-3.1,.63-.12,1.2-.43,1.89-.92,.4-.23,1.21-.8,2.15-1.55h-5.97v-2.81h5.22v-7.57c-1.23,.89-2.58,1.69-4.1,2.41-.43-.75-1.41-1.95-2.12-2.52,3.13-1.38,5.57-3.1,7.46-4.99h-6.45v-2.84h8.75c.55-.83,.98-1.61,1.35-2.44l3.5,.66c-.32,.57-.6,1.18-.95,1.78h12.62v2.84h-6.43c2.09,1.89,4.91,3.61,7.46,4.65-.72,.63-1.72,1.84-2.21,2.61-1.46-.69-2.95-1.66-4.42-2.78v.23h-10.96Zm8.46,12.88c-.46-.49-.92-.95-1.35-1.35l1.52-.75h-6.68c-.95,.83-2.01,1.63-3.07,2.35l9.58-.26Zm-6.51-17.58c-.57,.75-1.2,1.43-1.92,2.15h8.23c-.72-.72-1.38-1.41-1.98-2.15h-4.33Z"/>
      <path class="d" d="M100.68,55.41h9.5v3.1h-6.11v15.23h-3.38v-18.33Z"/>
      <path class="d" d="M119.85,81.08c.8-1.29,1.55-3.27,1.92-4.88l2.5,.97c-.43,1.69-1.06,3.79-1.84,5.11l-2.58-1.21Zm6.02-5.05c-.03-.26-.06-.57-.11-.89-3.7,.37-4.45,.52-4.88,.72-.14-.49-.52-1.69-.8-2.29,.49-.11,.98-.52,1.52-1.15,.23-.23,.63-.75,1.15-1.43-1.12,.14-1.52,.26-1.78,.4-.14-.52-.55-1.61-.83-2.24,.29-.09,.6-.34,.83-.75,.23-.37,.92-1.66,1.26-3.04h-.83v-8.72h12.71v8.72h-3.76l1.89,.49c-.46,1-1.09,2.01-1.69,2.87l1.09-.06c.32-.52,.63-1.03,.89-1.55l2.52,.89c-1.18,1.81-2.55,3.62-3.96,5.11l1.69-.14c-.14-.37-.26-.75-.4-1.09l1.89-.75c.55,1.21,1.12,2.73,1.43,3.84v-13.57h3.1c.09-.6,.14-1.23,.2-1.84h-3.9v-2.87h11.39v2.87h-4.25c-.17,.63-.34,1.26-.52,1.84h4.22v15.17h-10.24v-1.15l-1.92,.78c-.06-.34-.17-.75-.29-1.15-4.1,.37-4.91,.52-5.36,.75v-.03c-.11-.52-.52-1.72-.8-2.35,.52-.11,1-.52,1.52-1.12,.26-.23,.69-.75,1.2-1.41-1.23,.14-1.66,.26-1.95,.4-.14-.52-.54-1.63-.8-2.29,.29-.06,.6-.32,.89-.69,.26-.34,1.03-1.61,1.46-2.95h-6.77l1.84,.43c-.37,1.09-.95,2.18-1.52,3.1l1-.09c.32-.54,.63-1.12,.92-1.69l2.44,.86c-1.09,1.89-2.5,3.76-3.84,5.28l1.55-.12c-.11-.43-.23-.86-.37-1.26l1.78-.52c.46,1.32,.92,3.01,1.06,4.13l-1.86,.54Zm-1.64-16.04h6.88v-1.32h-6.88v1.32Zm0,3.3h6.88v-1.35h-6.88v1.35Zm2.81,13.34c.34,1.52,.57,3.56,.57,4.88l-2.5,.37c.03-1.32-.17-3.36-.46-4.91l2.38-.34Zm2.93-.37c.52,1.38,1,3.18,1.18,4.39l-2.35,.63c-.14-1.21-.57-3.07-1.09-4.48l2.27-.54Zm2.93-.83c.69,1.21,1.43,2.73,1.78,3.76l-2.27,.95c-.26-1.06-1-2.67-1.66-3.87l2.15-.83Zm7.66,3.01c-1.23,1.46-3.24,3.07-4.93,3.96-.46-.57-1.38-1.49-2.04-2.01,1.66-.8,3.5-2.38,4.45-3.56l2.52,1.61Zm-2.18-12.77h4.79v-1.72h-4.79v1.72Zm0,4.19h4.79v-1.81h-4.79v1.81Zm0,4.16h4.79v-1.81h-4.79v1.81Zm5.28,2.93c1.18,1.06,2.78,2.64,3.53,3.7l-2.47,1.72c-.66-1.09-2.18-2.72-3.39-3.9l2.32-1.52Z"/>
      <path class="d" d="M160.71,74.8c-.17,2.52-.6,5.25-1.18,7-.54-.32-1.75-.69-2.38-.86,.63-1.69,.95-4.25,1.09-6.54l2.47,.4Zm-3.44-10.64c.49-.14,.98-.69,1.52-1.55,.57-.77,2.27-3.99,3.27-6.97l2.73,1.12c-1.03,2.41-2.38,4.96-3.79,7.03l2.07-.14c.72-1.32,1.43-2.7,2.04-4.07l2.47,1.61c-1.61,3.16-3.76,6.4-5.91,9.04l3.33-.49c-.29-.83-.6-1.69-.95-2.44l2.18-.83c.83,1.69,1.64,3.96,1.86,5.36l-2.29,.98c-.03-.23-.09-.46-.14-.72-5.71,.95-6.68,1.23-7.31,1.52l-.03-.4c-.17-.69-.57-1.81-.8-2.47,.66-.17,1.26-.83,2.12-1.92,.37-.43,1-1.32,1.81-2.52-2.24,.26-2.87,.43-3.27,.6-.14-.57-.57-1.95-.89-2.73Zm6.34,10.04c.34,1.92,.66,4.33,.75,5.97l-2.38,.63c-.06-1.66-.32-4.13-.6-6.02l2.24-.57Zm20.42-4.39c-.8,.54-1.66,1.03-2.58,1.55,.46,2.81,1.35,5.42,2.9,6.77-.72,.52-1.61,1.63-2.04,2.44-1.78-1.72-2.7-4.68-3.21-7.95-.4,.17-.8,.37-1.18,.54,1.26,3.47,.52,7-.95,8.2-.8,.75-1.55,.95-2.73,.98-.54,.03-1.09,0-1.66-.03-.03-.8-.2-1.95-.75-2.87,.72,.11,1.2,.17,1.81,.17,.55,0,.95-.11,1.26-.63,.37-.4,.63-1.26,.63-2.41-1.89,1.61-4.3,3.13-6.4,4.07-.32-.52-.8-1.23-1.35-1.81l-1.89,.75c-.26-1.49-.89-3.76-1.49-5.51l2.09-.75c.57,1.52,1.15,3.38,1.49,4.82,2.5-.98,5.36-2.73,7.03-4.45-.11-.34-.26-.63-.43-.98-1.52,1.18-3.47,2.41-5.11,3.16-.4-.66-1.09-1.66-1.69-2.24,1.78-.54,4.04-1.72,5.54-2.87-.23-.23-.46-.49-.72-.75-1.12,.69-2.24,1.26-3.36,1.75-.34-.57-1.2-1.72-1.72-2.27,1.75-.6,3.61-1.46,5.11-2.5h-4.53v-2.7h9.24l.23-1.15h-8.18c.63-2.01,1.43-5.19,1.89-7.66l3.07,.29-.29,1.35h4.88l.49-.12,2.21,.32c-.32,2.18-.8,4.71-1.29,6.97h3.76v2.7h-7.6c-.54,.54-1.12,1.06-1.78,1.55,.83,.72,1.52,1.49,2.07,2.27,1.75-.89,3.73-2.09,5.05-3.07l2.18,2.04Zm-6-8.92l.26-1.43h-4.82l-.37,1.43h4.93Z"/>
      <path class="d" d="M209.92,66.97v2.98h9.15v3.07h-4.53l2.87,1.03c-1,1.61-2.12,3.33-3.01,4.56h6.17v3.13h-24.81v-3.13h5.65c-.46-1.32-1.43-3.21-2.38-4.65l2.27-.95h-4.16v-3.07h9.12v-2.98h-5.82v-1.41c-1.2,.57-2.44,1.09-3.7,1.55-.46-1-1.41-2.29-2.27-3.16,5.39-1.55,10.56-4.45,13.28-8.72l3.24,1.46c-.26,.37-.52,.75-.8,1.15,2.81,2.52,7.46,4.91,11.76,6.11-.77,.75-1.84,2.09-2.35,2.98-1.29-.46-2.61-1.03-3.9-1.66v1.69h-5.77Zm-8,6.05c1,1.41,2.09,3.3,2.5,4.56l-2.35,1.03h4.19v-5.59h-4.33Zm11.25-9.18c-1.81-1.12-3.5-2.38-4.96-3.73-1.38,1.43-2.95,2.64-4.65,3.73h9.61Zm-3.24,9.18v5.59h3.59l-1.92-.8c.89-1.29,1.95-3.3,2.52-4.79h-4.19Z"/>
      <path class="d" d="M240.67,70.26c1.32,1.03,3.82,3.36,4.45,4.02l-2.15,2.64c-.55-.77-1.41-1.89-2.29-2.96v8.41h-3.27v-7.77c-1.12,1.84-2.38,3.53-3.61,4.76-.49-.83-1.35-2.04-2.07-2.67,1.81-1.55,3.82-4.36,5.08-7h-4.02v-3.07h4.62v-2.78h2.93c-.63-.77-1.49-1.63-2.24-2.29l1.32-1.15h-2.15c-.92,1.38-1.92,2.61-2.9,3.59-.55-.63-1.78-1.84-2.5-2.35,1.78-1.52,3.44-3.9,4.36-6.28l3.24,.92c-.17,.43-.37,.86-.57,1.29h6.34v2.84h-4.3c.89,.77,1.78,1.69,2.27,2.32l-2.21,1.98c-.09-.14-.2-.29-.32-.43v2.35h3.93v3.07h-3.93v.57Zm17.81-12.65v2.84h-4.65c.86,.75,1.75,1.55,2.24,2.18l-2.12,2.04c-.63-.92-2.04-2.29-3.18-3.24l1.06-.97h-2.41c-.8,1.32-1.69,2.52-2.58,3.41-.66-.52-2.12-1.49-2.93-1.92,1.81-1.55,3.36-4.07,4.19-6.6l3.33,.83c-.17,.46-.34,.95-.57,1.43h7.63Zm-13.2,7.23h12.28v17.27h-3.47v-.95h-5.51v1.12h-3.3v-17.44Zm3.3,3.01v1.78h5.51v-1.78h-5.51Zm5.51,6.14v-1.84h-5.51v1.84h5.51Zm0,4.42v-1.92h-5.51v1.92h5.51Z"/>
      <path class="d" d="M278.26,82.49h-9.52v-3.1h6.11v-15.23h3.41v18.33Z"/>
    </g>
    <g class="e">
      <g>
        <path class="d" d="M23.24,17.12h-4.39L34.83,.61h7.32V19.35h-7.32V6.58l2.2,.91-11.56,11.85h-8.78L5.09,7.52l2.22-.91v12.73H0V.61H7.32l15.92,16.51Z"/>
        <path class="d" d="M53.56,11.44v2.34h22.24v5.56h-29.56V.61h29.5V6.18h-22.18v2.34h18.15v2.93h-18.15Z"/>
        <path class="d" d="M79.61,19.35V.61h22.62c1.78,0,3.37,.2,4.79,.6,1.41,.4,2.54,1.07,3.37,2,.83,.94,1.24,2.21,1.24,3.83,0,1.07-.2,1.96-.59,2.66-.39,.7-.93,1.25-1.61,1.64-.68,.39-1.46,.67-2.34,.85-.88,.18-1.8,.28-2.75,.32l-2.14-.41c2.32,.02,4.11,.12,5.37,.29,1.26,.18,2.14,.49,2.63,.95,.5,.46,.75,1.12,.75,1.98v4.01h-7.32v-3.13c0-.58-.11-1.03-.34-1.33-.22-.3-.71-.51-1.46-.63-.75-.12-1.91-.18-3.47-.18h-11.44v5.27h-7.32Zm7.32-10.16h15.31c.59,0,1.08-.1,1.48-.29,.4-.19,.6-.57,.6-1.11,0-.51-.2-.85-.6-1.04-.4-.19-.89-.28-1.48-.28h-15.31v2.72Z"/>
        <path class="d" d="M150.35,11.53c-.1,1.85-.77,3.41-2.02,4.65-1.25,1.25-3.09,2.19-5.52,2.81-2.43,.62-5.5,.94-9.2,.94-2.83,0-5.37-.15-7.61-.45-2.24-.3-4.16-.82-5.74-1.55-1.58-.73-2.79-1.73-3.63-3-.84-1.27-1.26-2.87-1.26-4.8s.42-3.55,1.26-4.84c.84-1.3,2.05-2.33,3.63-3.1,1.58-.77,3.49-1.32,5.74-1.65,2.24-.33,4.78-.5,7.61-.5,3.71,0,6.78,.34,9.22,1.01,2.44,.67,4.28,1.66,5.53,2.97,1.25,1.31,1.92,2.9,2.02,4.77h-7.61c-.23-.62-.66-1.18-1.29-1.65-.62-.48-1.56-.85-2.81-1.13-1.25-.27-2.94-.41-5.06-.41-2.5,0-4.53,.15-6.09,.45-1.56,.3-2.7,.79-3.42,1.45-.72,.66-1.08,1.54-1.08,2.63,0,1,.36,1.81,1.08,2.43,.72,.62,1.86,1.08,3.42,1.38,1.56,.29,3.59,.44,6.09,.44,2.13,0,3.81-.13,5.05-.38,1.24-.25,2.17-.6,2.8-1.04,.62-.44,1.05-.91,1.29-1.42h7.61Z"/>
        <path class="d" d="M154.18,.61h7.32V19.35h-7.32V.61Zm6.26,6.47h20.6v5.56h-20.6V7.08ZM180.23,.61h7.32V19.35h-7.32V.61Z"/>
        <path class="d" d="M189.89,19.35L202.44,.61h8.14l12.67,18.73h-8.05l-10.86-16.77h4.36l-10.77,16.77h-8.05Zm6.56-2.84v-4.39h20.02v4.39h-20.02Z"/>
        <path class="d" d="M254.95,13.61l-2.72,1.55V.61h7.32V19.35h-7.32l-22.04-12.76,2.72-1.58v14.34h-7.32V.61h7.32l22.04,13Z"/>
        <path class="d" d="M284.71,.61c2.63,0,4.81,.25,6.53,.76,1.72,.51,3.06,1.2,4.04,2.08,.98,.88,1.66,1.88,2.06,3,.4,1.12,.6,2.3,.6,3.53s-.22,2.41-.67,3.53c-.45,1.12-1.19,2.12-2.21,3-1.02,.88-2.38,1.57-4.07,2.08-1.69,.51-3.78,.76-6.28,.76h-21.07V.61h21.07Zm-13.76,12.88h13.46c1.09,0,2.02-.07,2.78-.22,.76-.15,1.37-.37,1.83-.66,.46-.29,.79-.66,1-1.1s.31-.95,.31-1.54-.1-1.1-.31-1.54-.54-.8-1-1.1c-.46-.29-1.07-.51-1.83-.66s-1.69-.22-2.78-.22h-13.46v7.02Z"/>
        <path class="d" d="M302.19,.61h7.32V19.35h-7.32V.61Z"/>
        <path class="d" d="M313.01,12.47h7.99c.14,.41,.54,.76,1.2,1.04,.66,.28,1.56,.5,2.68,.64,1.12,.15,2.42,.22,3.91,.22s2.62-.04,3.47-.13c.85-.09,1.45-.24,1.8-.47,.35-.22,.53-.53,.53-.92,0-.37-.28-.66-.85-.86-.57-.2-1.57-.35-3.01-.42-1.44-.08-3.47-.12-6.09-.12-1.95,0-3.63-.09-5.05-.28-1.42-.19-2.58-.48-3.48-.88s-1.58-.91-2-1.52c-.43-.61-.64-1.35-.64-2.21,0-1.48,.5-2.71,1.51-3.67,1-.97,2.53-1.69,4.57-2.17,2.04-.48,4.59-.72,7.65-.72,4.49,0,7.92,.65,10.29,1.95,2.37,1.3,3.56,3.17,3.56,5.6h-7.58c-.1-.64-.7-1.14-1.81-1.48-1.11-.34-2.69-.51-4.74-.51s-3.54,.12-4.52,.35c-.99,.23-1.48,.63-1.48,1.2,0,.29,.14,.53,.41,.7,.27,.18,.75,.32,1.42,.42,.67,.11,1.62,.18,2.85,.22,1.23,.04,2.79,.06,4.68,.06,2.09,0,3.86,.1,5.33,.31,1.46,.2,2.65,.51,3.56,.92,.91,.41,1.57,.93,1.98,1.57,.41,.63,.61,1.38,.61,2.24,0,1.48-.47,2.69-1.4,3.63-.94,.94-2.42,1.63-4.45,2.08-2.03,.45-4.68,.67-7.96,.67-1.85,0-3.56-.11-5.11-.32-1.55-.21-2.93-.53-4.14-.95-1.21-.42-2.23-.94-3.07-1.55-.84-.61-1.48-1.31-1.92-2.08-.44-.77-.66-1.62-.66-2.56Z"/>
        <path class="d" d="M352.26,11.44v2.34h22.24v5.56h-29.56V.61h29.5V6.18h-22.18v2.34h18.15v2.93h-18.15Z"/>
      </g>
    </g>
  </g>
</svg>