<?xml version="1.0" encoding="UTF-8"?>
<svg id="b" data-name="圖層 2" xmlns="http://www.w3.org/2000/svg" width="30.3" height="30.3" viewBox="0 0 30.3 30.3">
  <defs>
    <style>
      .d {
        fill: #fff;
      }

      .e {
        fill: #ec6531;
      }
    </style>
  </defs>
  <g id="c" data-name="fix 按鈕">
    <g>
      <circle class="e" cx="15.15" cy="15.15" r="15.15"/>
      <g>
        <path class="d" d="M12.32,11.7h-1.02c-.16,0-.28,.13-.28,.28v6.35c0,.16,.13,.28,.28,.28h1.02c.16,0,.28-.13,.28-.28v-6.35c0-.16-.13-.28-.28-.28"/>
        <path class="d" d="M19.35,11.7h-1.02c-.16,0-.28,.13-.28,.28v3.77l-2.91-3.93s-.01-.02-.02-.03h0l-.02-.02h0l-.02-.02h0v-.02h-.04v-.02h-.03l-.02-.02h-1.1c-.16-.01-.28,.12-.28,.27v6.35c0,.16,.13,.28,.28,.28h1.02c.16,0,.28-.13,.28-.28v-3.77l2.91,3.93s.04,.05,.07,.07h.02v.02h.04v.02h.03s.05,.02,.07,.02h1.02c.16,0,.28-.13,.28-.28v-6.35c0-.16-.13-.28-.28-.28"/>
        <path class="d" d="M9.86,17.02h-2.78v-5.04c0-.16-.13-.28-.28-.28h-1.02c-.16,0-.28,.13-.28,.28v6.35h0c0,.08,.03,.15,.08,.2h0c.05,.06,.12,.09,.2,.09h4.08c.16,0,.28-.13,.28-.28v-1.02c0-.16-.13-.28-.28-.28"/>
        <path class="d" d="M24.99,13.28c.16,0,.28-.13,.28-.28v-1.02c0-.16-.13-.28-.28-.28h-4.08c-.08,0-.15,.03-.2,.08h0c-.05,.06-.08,.13-.08,.2h0v6.35h0c0,.08,.03,.15,.08,.2h0c.05,.06,.12,.09,.2,.09h4.08c.16,0,.28-.13,.28-.28v-1.02c0-.16-.13-.28-.28-.28h-2.78v-1.07h2.78c.16,0,.28-.13,.28-.28v-1.02c0-.16-.13-.28-.28-.28h-2.78v-1.07h2.78Z"/>
      </g>
    </g>
  </g>
</svg>