<?xml version="1.0" encoding="UTF-8"?><svg id="_層_2" xmlns="http://www.w3.org/2000/svg" viewBox="0 0 72.07 21.31"><defs><style>.cls-1{fill:#fff;}</style></defs><g id="_層_1-2"><g><path class="cls-1" d="M9.71,14.8c-.2-.52-.54-.84-1.01-.97s-1.24-.17-2.31-.1c-1.07,.06-1.93,.06-2.6-.02-1.82-.22-3-1.02-3.54-2.4-.28-.72-.33-1.43-.14-2.15,.18-.72,.59-1.38,1.22-1.99,.63-.61,1.42-1.1,2.36-1.47,.95-.37,1.86-.53,2.73-.48,.87,.05,1.64,.31,2.29,.78,.65,.46,1.14,1.09,1.45,1.89l-2.73,1.07c-.24-.61-.61-1-1.13-1.19-.51-.19-1.12-.15-1.81,.13-.67,.26-1.13,.6-1.39,1.03-.26,.43-.3,.87-.12,1.33,.17,.43,.53,.71,1.07,.83,.55,.12,1.29,.14,2.23,.07,1.73-.14,3.09,0,4.07,.41,.98,.41,1.67,1.14,2.08,2.17,.45,1.15,.37,2.21-.24,3.21-.61,.99-1.65,1.77-3.12,2.35-1.02,.4-2.02,.58-3,.53-.98-.05-1.82-.31-2.51-.78-.69-.48-1.21-1.14-1.54-2l2.74-1.07c.57,1.46,1.73,1.85,3.48,1.17,.65-.25,1.1-.58,1.36-.99,.26-.41,.3-.85,.11-1.32Z"/><path class="cls-1" d="M27.63,14.38l-2.88,.53-1.1-5.99-5.62,1.03,1.1,5.99-2.88,.53L13.68,2.49l2.88-.53,1.04,5.67,5.62-1.03-1.04-5.67,2.88-.53,2.57,13.98Z"/><path class="cls-1" d="M38.99,11.35l-5.14-.09-1.03,2.91-3.12-.05L35.25,0l2.71,.05,5.08,14.31-3.12-.05-.94-2.95Zm-4.3-2.45l3.55,.06-1.7-5.35-1.86,5.29Z"/><path class="cls-1" d="M51.15,10.69l-2.28-.48-1.06,5.1-2.87-.6L47.84,.79l5.17,1.08c1.64,.34,2.84,.97,3.58,1.89s.97,2.05,.69,3.39c-.2,.95-.57,1.7-1.11,2.25-.54,.55-1.27,.92-2.18,1.13l1.83,6.32-.03,.13-3.08-.64-1.55-5.64Zm-1.8-2.8l2.31,.48c.72,.15,1.32,.08,1.79-.2s.77-.75,.91-1.39c.14-.66,.06-1.21-.24-1.67-.29-.45-.83-.76-1.6-.92l-2.3-.48-.87,4.18Z"/><path class="cls-1" d="M68.19,15.23l-5.22-2.09-1.42,3.54,6.13,2.46-.88,2.18-8.85-3.54,5.29-13.2,8.83,3.54-.88,2.2-6.11-2.45-1.26,3.15,5.22,2.09-.85,2.13Z"/></g></g></svg>