<?xml version="1.0" encoding="UTF-8"?>
<svg id="b" data-name="圖層 2" xmlns="http://www.w3.org/2000/svg" width="81.61" height="74.79" viewBox="0 0 81.61 74.79">
  <defs>
    <style>
      .d {
        fill: #fff;
      }
    </style>
  </defs>
  <g id="c" data-name="圖層 2">
    <g>
      <path class="d" d="M32.36,.04c1.33-.13,5.43-.19,6.64,3.74,.13,.41,.22,.86,.28,1.36,0,.02,.23,2.84-1.98,5.43-1.46,1.71-3.68,2.97-6.59,3.75-2.29,.61-4.49,.8-6.61,.98-1.08,.09-2.15,.19-3.2,.33-.08,.01-.17,.02-.25,.04l-.13,.02c-2.99,.45-5.83,1.4-8.48,4.09h0c-.07,.04-.14,.07-.21,.1-.17,.08-.34,.16-.52,.25-.12,.06-.23,.12-.35,.18-.16,.08-.32,.17-.47,.25-.11,.06-.22,.12-.33,.18-.25,.14-.5,.28-.75,.44-.11,.06-.21,.13-.32,.19-.18,.11-.36,.22-.54,.34-.11,.07-.23,.14-.34,.22-.23,.15-.47,.3-.7,.46-.09,.06-.18,.12-.26,.18-.25,.17-.51,.35-.77,.54-.11,.07-.21,.15-.32,.23-.22,.16-.44,.32-.67,.49-.09,.07-.19,.14-.28,.21-.3,.23-.61,.46-.93,.7l-.07,.05h0s0-.05,0-.07c0-.13,0-.26,.02-.39,0-.02,0-.04,0-.06,.05-.72,.17-1.41,.37-2.06,.01-.04,.02-.09,.04-.13,.03-.09,.06-.18,.09-.26,.02-.06,.04-.12,.06-.18,.03-.08,.06-.15,.09-.23,.03-.07,.06-.14,.09-.21,.03-.07,.06-.14,.09-.2,.04-.07,.07-.15,.11-.22,.03-.06,.06-.12,.09-.18,.04-.08,.09-.16,.13-.24,.03-.05,.06-.11,.09-.16,.05-.09,.11-.17,.16-.26,.03-.05,.06-.09,.09-.13,.06-.1,.13-.19,.2-.28,.02-.03,.05-.07,.07-.1,.08-.11,.17-.22,.25-.32,.02-.02,.03-.04,.04-.05,.21-.26,.44-.51,.69-.75,4.96-4.94,15.53-6.27,20.61-6.91,1.19-.15,2.14-.27,2.75-.4,3.06-.63,5.59-3.49,5.68-5.06,.05-.87-.3-1.69-1.01-2.23-.7-.55-2.83,.18-4.18,.4-1.14,.19-2.03,.03-2.53-.44-.03-.03-.07-.06-.09-.09-.4-.45-.44-1.11-.13-1.81,.21-.47,1.86-1.47,4.27-1.71"/>
      <path class="d" d="M70.65,60.16s-.01,.03-.02,.04c-.03,.06-.05,.12-.08,.19l-.05,.1s-.04,.08-.06,.12c-.04,.09-.09,.18-.14,.27l-.02,.04c-.03,.06-.07,.12-.11,.18l-.02,.03c-.11,.18-.24,.36-.38,.52-.01,.02-.03,.03-.04,.05-.04,.05-.08,.09-.12,.14-.05,.05-.09,.1-.14,.14l-.04,.04c-.08-.6-.21-2.31-.27-3.19,.69,.18,1.3,.3,1.84,.3-.08,.27-.19,.64-.35,1.04"/>
      <path class="d" d="M57.83,55.24c-.56,.69-1.64,2.01-2.05,2.45,0-.03-.01-.06-.02-.08-.01-.06-.02-.12-.03-.18,0-.04-.01-.09-.02-.13,0-.05-.01-.1-.01-.15,0-.04,0-.09,0-.13,0-.08,0-.16,0-.24,0-.05,0-.1,0-.15,0-.04,0-.09,0-.13,0-.05,0-.1,.01-.15,0-.04,0-.08,.01-.11,.01-.1,.02-.2,.04-.3,0-.02,0-.04,.01-.07,0-.06,.02-.12,.03-.18,0-.02,0-.03,0-.05,.1-.48,.23-.9,.34-1.2,.44,.32,1.01,.56,1.68,.82"/>
      <path class="d" d="M79.35,51.71c-.02,.2-.04,.4-.07,.61,0,.02,0,.05,0,.07-.09,.61-.17,1.29-.26,2.01-.04,.3-.07,.61-.11,.92h.01s.03-.03,.05-.04c.09-.05,.18-.11,.27-.17,.03-.02,.06-.04,.09-.06,.07-.05,.14-.1,.21-.15,.03-.03,.07-.05,.1-.08,.07-.05,.13-.11,.2-.16,.03-.03,.06-.05,.09-.08,.07-.06,.13-.12,.19-.18,.03-.03,.05-.05,.08-.08,.07-.07,.13-.14,.2-.21,.02-.02,.04-.04,.06-.06,.08-.09,.15-.18,.23-.27h0c.15-.21,.29-.42,.41-.63v-.03c.07-.09,.11-.19,.16-.28,0-.02,.02-.04,.03-.06,.04-.08,.07-.17,.11-.25,0-.02,.02-.05,.03-.07,.03-.08,.05-.16,.08-.24,0-.02,.01-.05,.02-.07,.02-.08,.04-.16,.05-.24,0-.02,0-.04,.01-.06,.01-.09,.02-.18,.03-.27,0,0,0-.02,0-.03,0-.1,0-.2-.01-.29,0-.02-.01-.04-.02-.07-.04-.07-.06-.15-.07-.24h0c-.15-.37-.49-.66-.88-.9l-.04-.02s-.09-.05-.14-.08l-.06-.03c-.07-.04-.14-.07-.22-.1-.03-.02-.07-.03-.1-.04-.04-.02-.07-.03-.11-.05-.06-.02-.11-.04-.17-.06-.03-.01-.07-.02-.1-.04-.05-.02-.09-.03-.14-.05-.03,0-.06-.02-.09-.03-.06-.02-.12-.04-.18-.05,.1,.67,.13,1.37,.08,2.1,0,.03,0,.07,0,.1"/>
      <path class="d" d="M51.15,43.1s-.02,.07-.02,.1c-.01,.08-.03,.16-.04,.23,0,.03,0,.07-.01,.1,0,.08-.02,.17-.02,.25,0,.03,0,.06,0,.1,0,.09,0,.18,0,.26,0,.03,0,.06,0,.09,0,.09,0,.19,.01,.28,0,.02,0,.05,0,.07,0,.1,.02,.2,.03,.3v.05c.02,.11,.04,.21,.06,.32v.02c.12,.6,.32,1.19,.61,1.71h0c.19-.35,.37-.69,.55-1.02,.34-.64,.67-1.25,.94-1.8,.45-.91,1.01-1.69,1.64-2.35h-.03s-.1-.05-.15-.07c-.03-.01-.06-.02-.09-.03-.04-.01-.08-.03-.12-.04-.03-.01-.07-.02-.1-.03-.04-.01-.08-.02-.12-.04-.07-.02-.14-.04-.22-.06l-.07-.02c-.05-.01-.11-.03-.16-.04h-.03c-.65-.14-1.35-.15-1.81,.14h0c-.05,.06-.12,.11-.19,.15h0s-.04,.03-.05,.05c-.11,.12-.2,.26-.28,.41-.01,.02-.03,.04-.04,.07-.03,.06-.06,.13-.09,.19-.01,.03-.03,.06-.04,.09-.03,.07-.05,.14-.07,.21,0,.03-.02,.06-.03,.1-.02,.07-.04,.14-.05,.22"/>
      <path class="d" d="M77.58,54.24c.09-.73,.17-1.43,.27-2.06,.04-.23,.06-.46,.08-.69,0-.05,0-.09,0-.14,.01-.18,.01-.36,.01-.54,0-.05,0-.1,0-.14,0-.22-.02-.43-.04-.64v-.03c-.03-.2-.06-.39-.1-.58-.01-.06-.03-.12-.04-.18-.03-.14-.07-.28-.11-.42-.02-.06-.03-.12-.05-.18-.06-.18-.12-.35-.2-.52-.01,.01-.03,.02-.04,.03h-.02c-1.1,.66-1.99,.61-2.54,.46h0c-.39-.11-.74-.3-1.01-.56-.17-.15-.31-.33-.41-.52-.08-.15-.2-.28-.34-.36-.14-.08-.31-.1-.5,0-.67,.32-1.29,.37-1.83,.14-.32-.14-.61-.37-.87-.7-.15-.2-.31-.33-.45-.38-.05-.02-.09-.02-.13-.02-.1,0-.16,.07-.17,.1-.08,.17-.03,.42,.14,.65,.33,.47,.46,1.24-.86,2.24-.09,.07-.17,.14-.25,.21l-.02,.02c-.07,.06-.13,.13-.19,.19-.02,.02-.04,.04-.06,.06-.06,.07-.11,.14-.16,.21-.01,.02-.03,.03-.04,.05-.05,.08-.1,.15-.14,.23,0,0-.01,.02-.02,.03-.04,.08-.08,.16-.11,.24h0c-.1,.26-.13,.49-.08,.7h0c.33,.2,.61,.49,.82,.85l.02,.03c.03,.05,.06,.11,.08,.16,.01,.03,.02,.05,.04,.08,.02,.04,.04,.09,.05,.13,.01,.03,.03,.07,.04,.1,.01,.04,.02,.07,.03,.11,.01,.04,.02,.08,.03,.12,.18,.74-.01,1.24-.21,1.53-.23,.34-.57,.57-.93,.63-.44,.07-.83-.04-1.18-.32-.12-.09-.23-.21-.33-.34h0s-.19,0-.3,.02c-.05,0-.11,.01-.16,.02-.04,0-.08,0-.12,0h-.03c-.09,0-.2,0-.3,0h-.02l-.48,1.53h0l.03,.02,.06,.05c.52,.4,1.47,1.05,2.64,1.44l.04,.02c.11,.04,.23,.07,.35,.1,.34,.09,.65,.18,.95,.27,1.5,.42,2.59,.73,3.31,.38,.26-.13,.51-.3,.75-.47,.5-.35,1.04-.73,1.74-.7,.2,0,.41,.05,.63,.13,.04,.01,.08,.03,.12,.04,.08,.03,.15,.07,.22,.11,.49,.29,.81,.77,.88,1.34,.09,.78-.29,1.55-1.06,2.14-.07,.05-.14,.1-.22,.14,0,0-.02,.01-.03,.02-.07,.04-.13,.07-.2,.1-.02,0-.04,.01-.06,.02-.06,.02-.13,.04-.19,.06-.02,0-.05,.01-.07,.02-.06,.02-.13,.03-.19,.04-.02,0-.05,0-.07,.01-.07,.01-.14,.02-.21,.03-.02,0-.04,0-.06,0-.08,0-.15,.01-.23,.01-.01,0-.03,0-.04,0-.28,0-.57,0-.85-.04h-.03c-.08-.01-.16-.02-.24-.04h-.05c-.07-.02-.14-.03-.2-.04h-.06c-.06-.02-.13-.04-.19-.05h-.05c-.06-.03-.12-.04-.18-.05h-.04c-.06-.03-.12-.04-.18-.06h-.04c-.13,.26-.27,.54-.45,.81,0,.02-.02,.03-.03,.05-.05,.08-.1,.15-.16,.23-.02,.02-.03,.04-.05,.06-.05,.06-.1,.13-.15,.19-.02,.02-.04,.05-.06,.07-.05,.06-.1,.11-.15,.17-.02,.02-.05,.05-.07,.07-.06,.06-.12,.12-.18,.18-.03,.02-.05,.05-.08,.07-.06,.05-.12,.1-.19,.15l-.02,.02c-.15,.12-.4,.22-.66,.14h-.03c-.28-.11-.46-.38-.52-.81-.06-.37-.14-1.36-.21-2.26h-.04c-.07,0-.13-.01-.2-.02-.02,0-.04,0-.06,0-.07,0-.14-.01-.21-.02h-.06c-.07-.02-.15-.03-.23-.04h-.03c-.33-.05-.66-.11-.99-.18l-.11-.02s-.09-.02-.14-.03c-.05-.01-.1-.02-.15-.03-.04,0-.08-.02-.12-.03-.06-.01-.11-.03-.16-.04-.04,0-.07-.02-.1-.03-.06-.02-.12-.03-.17-.04-.03,0-.06-.02-.09-.02-.06-.02-.12-.03-.18-.05-.02,0-.05-.01-.07-.02-.06-.02-.12-.04-.18-.05-.02,0-.04-.01-.06-.02-.06-.02-.12-.04-.17-.05-.02,0-.03-.01-.05-.02-.06-.02-.11-.04-.16-.06h-.04c-.05-.03-.1-.05-.15-.07h-.02l-2.81-.9h0c-.05-.01-.11-.03-.16-.04-.11-.03-.23-.06-.36-.1-.26-.08-.54-.18-.85-.3l-.04-.02c-.12-.05-.25-.1-.38-.15-.05-.02-.11-.04-.16-.07-.09-.04-.17-.07-.26-.11-.08-.04-.16-.07-.24-.11-.06-.03-.12-.06-.18-.08-.1-.04-.19-.09-.28-.14-.04-.02-.08-.04-.12-.06-.1-.05-.21-.11-.31-.16-.02-.01-.04-.02-.07-.04-.11-.06-.22-.12-.32-.19h0c-.57,.69-1.21,1.45-1.47,1.72-.3,.31-.6,.43-.89,.35h-.03s-.06-.03-.09-.05h-.01s-.05-.03-.07-.05h0s-.05-.04-.07-.06h0c-.11-.1-.17-.23-.2-.34-.03-.1-.06-.2-.09-.31l-.02-.07c-.02-.08-.03-.16-.05-.24,0-.05-.02-.11-.02-.16v-.05c-.02-.12-.03-.24-.04-.36h0c0-.2,0-.4,0-.59h0c0-.11,.02-.22,.03-.33,0-.04,0-.08,.01-.11,0-.04,.01-.08,.02-.12,.01-.08,.03-.16,.04-.24v-.03h-.01l-.03-.02c-.05-.02-.1-.04-.16-.06-.02,0-.04-.02-.07-.02-.05-.02-.09-.04-.14-.06-.03-.01-.05-.02-.08-.03-.04-.02-.09-.04-.14-.06-.03-.01-.06-.03-.09-.04-.05-.02-.09-.04-.14-.06-.03-.02-.06-.03-.1-.05-.05-.02-.09-.05-.14-.07-.03-.02-.06-.03-.09-.05-.05-.03-.1-.06-.16-.09-.03-.01-.05-.03-.08-.04-.08-.05-.15-.09-.23-.14-.03-.02-.05-.04-.08-.06-.05-.03-.09-.07-.14-.1-.03-.02-.06-.05-.09-.07-.04-.03-.08-.06-.12-.09-.03-.03-.06-.06-.1-.08-.03-.03-.07-.06-.1-.1-.03-.03-.06-.06-.09-.09-.03-.03-.06-.07-.09-.1-.03-.03-.06-.07-.08-.1-.03-.03-.05-.07-.08-.1-.03-.03-.05-.07-.07-.11-.02-.04-.04-.07-.06-.11-.02-.04-.04-.07-.06-.11-.02-.04-.03-.08-.05-.13-.01-.03-.03-.07-.04-.1-.29-.92-.16-1.77,.36-2.35,.43-.48,1.08-.69,1.74-.55,.29,.06,.52,.16,.72,.29,.59,.38,.81,1,1.02,1.57,.1,.27,.2,.56,.34,.81,.14,.26,.38,.48,.7,.68,.54,.33,1.3,.59,2.22,.92,.3,.1,.61,.21,.93,.33,.12,.04,.23,.08,.35,.12,.01,0,.03,0,.04,.01,1.26,.38,2.47,.37,3.1,.33l.48-1.53c-.21-.12-.37-.26-.5-.38-.08-.07-.2-.17-.24-.19h0c-.4,.12-.76,.13-1.07,.01-.19-.07-.37-.18-.53-.34-.26-.25-.41-.65-.4-1.05,0-.35,.14-.87,.71-1.37,.07-.06,.14-.12,.21-.17h0c.07-.05,.14-.1,.21-.14h0c.45-.27,.93-.38,1.4-.35h0s.09-.09,.13-.15v-.02c.05-.06,.08-.11,.11-.18,0-.01,.01-.03,.02-.04,.02-.06,.04-.12,.06-.19,0-.03,.01-.06,.02-.08,.01-.06,.02-.12,.03-.19,0-.04,0-.09,.01-.14,0-.05,0-.1,0-.16,0-.07,0-.14,0-.21,0-.04,0-.08,0-.11-.01-.1-.03-.21-.05-.32v-.03c-.03-.12-.06-.25-.1-.37-.5-1.58,.05-2.14,.59-2.33,.27-.09,.46-.27,.49-.46,0-.03-.01-.12-.09-.18h-.01c-.13-.1-.38-.1-.69,0-.53,.16-1.01,.15-1.44-.03-.43-.19-.79-.54-1.08-1.06-.07-.13-.18-.21-.29-.26-.19-.07-.42-.02-.61,.07-.51,.25-1.18,.27-1.78,.06h0c-.53-.19-1.28-.66-1.82-1.83-.01-.02-.02-.05-.02-.07h0s-.07,.05-.11,.07c-.11,.07-.22,.14-.33,.22-.08,.06-.15,.12-.22,.18-.08,.07-.16,.13-.24,.2-.07,.06-.14,.13-.21,.19-.09,.09-.18,.18-.26,.27-.08,.08-.15,.16-.22,.25-.1,.12-.2,.23-.29,.36-.05,.07-.1,.14-.15,.22-.07,.1-.15,.21-.22,.32-.05,.07-.1,.15-.14,.23-.09,.15-.17,.3-.25,.45-.02,.04-.04,.08-.06,.12-.28,.57-.62,1.18-.96,1.83-1.79,3.33-4.24,7.9-3.07,11.52,.5,1.55,1.44,2.7,2.44,3.47,.01,0,.02,.02,.04,.03,.08,.07,.17,.13,.26,.19,.04,.03,.08,.06,.12,.09,.05,.03,.1,.06,.15,.09,.37,.24,.75,.43,1.1,.57l.05,.02c.07,.03,.14,.05,.21,.07,.02,0,.04,.02,.06,.02,.02,0,.05,.01,.07,.02,.05,.02,.1,.03,.15,.04,.09,.02,.18,.04,.27,.06h.02c.91,.18,1.69,.2,2.44,.22,.21,0,.43,.01,.65,.02h.02c.08,0,.17,0,.26,.01,.04,0,.08,0,.12,0,.08,0,.15,.01,.23,.02,.05,0,.1,0,.15,.01,.07,0,.15,.02,.22,.02,.05,0,.11,.01,.16,.02,.07,.01,.15,.02,.22,.03,.06,0,.12,.02,.18,.03,.07,.01,.14,.03,.22,.04,.07,.02,.15,.03,.22,.05,.06,.01,.12,.03,.19,.04l.84-2.66c.12-.38,.53-.59,.91-.47h0c.38,.12,.59,.53,.47,.91l-.84,2.66h0s.09,.04,.14,.06c.08,.03,.17,.07,.25,.1,.06,.03,.11,.05,.17,.08,.07,.03,.14,.06,.2,.09,.06,.03,.11,.06,.16,.08,.06,.03,.13,.06,.19,.1,.05,.03,.1,.06,.15,.09,.06,.03,.12,.07,.18,.11,.05,.03,.09,.05,.14,.08,.06,.04,.13,.08,.19,.12,.04,.02,.08,.05,.12,.08,.08,.05,.15,.1,.22,.15,.02,.02,.05,.03,.07,.05,.1,.07,.2,.13,.3,.2,.39,.26,.79,.52,1.24,.78,.03,.02,.06,.03,.09,.05,.06,.03,.12,.07,.18,.1,.06,.03,.12,.06,.19,.1,.04,.02,.07,.04,.1,.05,.06,.03,.12,.06,.18,.08,.04,.02,.08,.04,.13,.06h0c.09,.04,.18,.08,.28,.12,.04,.02,.09,.03,.14,.05,.03,0,.05,.02,.08,.03,.02,0,.05,.01,.07,.02,.07,.02,.14,.04,.21,.06,.02,0,.04,0,.05,.01,.38,.09,.81,.15,1.27,.17,.04,0,.08,0,.12,0,.07,0,.14,0,.21,0,.09,0,.17,0,.26,0,.04,0,.07,0,.1,0,1.09-.06,2.3-.37,3.44-1.08,.18-.11,.35-.23,.52-.35,3.04-2.29,3.66-7.43,4.11-11.19m-6.03,1.39c-1.85-.58-2.87-2.56-2.29-4.41,.58-1.85,2.56-2.87,4.41-2.29,1.85,.58,2.87,2.56,2.29,4.41-.58,1.85-2.56,2.87-4.41,2.29m-11.72-11.08c1.85,.58,2.87,2.56,2.29,4.41-.58,1.85-2.56,2.87-4.41,2.29-1.85-.58-2.87-2.56-2.29-4.41,.58-1.85,2.56-2.87,4.41-2.29"/>
      <path class="d" d="M58.1,41.44c.32,.69,.76,1.16,1.3,1.35,.44,.16,.85,.09,1.08-.02,.82-.4,1.68-.18,2.09,.56,.48,.86,1.06,.79,1.46,.67,.82-.26,1.31-.04,1.57,.19,.35,.31,.43,.73,.38,1-.05,.33-.24,.63-.52,.85-.16,.13-.35,.23-.56,.31-.04,.02-.08,.04-.1,.08-.17,.22-.03,.78,.08,1.13,.29,.92,.31,2.01-.16,2.76,.09,.05,.18,.11,.26,.18,.19,.16,.22,.44,.06,.64-.02,.03-.05,.05-.08,.08-.16,.12-.39,.12-.55-.02-.5-.42-1.26-.35-1.85,.17-.01,.01-.02,.02-.03,.03-.23,.22-.36,.45-.37,.68,0,.2,.08,.34,.13,.38,.18,.18,.39,.21,.72,.11,.5-.15,.84,.15,1.09,.38,.18,.16,.35,.31,.59,.37,.24,.08,.46,.06,.7,.03,.33-.04,.79-.09,1.11,.32,.21,.27,.4,.36,.65,.32,.04,0,.11-.04,.18-.09,.05-.04,.09-.08,.14-.14,.13-.2,.16-.48,.08-.82-.18-.76-.77-1.25-1.42-1.2-.25,.02-.47-.17-.49-.41,0-.13,.04-.25,.12-.34,.07-.08,.18-.13,.29-.14,.09,0,.17,0,.26,0,.02,0,.04,0,.06,0,.04-.76,.52-1.52,1.15-2.09,.1-.09,.2-.18,.3-.26,.07-.05,.15-.12,.23-.19,.3-.26,.6-.6,.45-.81-.36-.51-.45-1.1-.22-1.57,.04-.09,.11-.19,.2-.28,.16-.16,.39-.29,.69-.32,.35-.03,.87,.07,1.39,.75,.25,.33,.69,.72,1.58,.29,.75-.37,1.59-.06,2.03,.74,.12,.23,.41,.51,.87,.64,.54,.15,1.18,.03,1.84-.36,.01,0,.02,0,.03-.02,.03-.01,.05-.02,.08-.03-.99-1.65-2.73-2.93-5.14-3.69l-7.47-2.36c-2.41-.76-4.57-.72-6.33,.06,0,0,.01,.01,.02,.02,.02,.03,.04,.05,.05,.08"/>
      <path class="d" d="M58.65,50.15c1.25,.39,2.58-.3,2.97-1.54,.39-1.25-.3-2.58-1.54-2.97-1.25-.39-2.58,.3-2.97,1.54-.39,1.25,.3,2.58,1.54,2.97"/>
      <path class="d" d="M73.92,50.01c-1.25-.39-2.58,.3-2.97,1.54-.39,1.25,.3,2.58,1.54,2.97,1.25,.4,2.58-.3,2.97-1.54,.4-1.25-.3-2.58-1.54-2.97"/>
      <path class="d" d="M31.27,50.09c2.42-4.93,11.13-3.29,13.47,0,2.34,3.29,3.02,8,3.18,12.67,.16,4.67,4.32,4.47,7.29,6.25,0,0-3.61-.27-5.43,3.21-1.72,3.3-7.13-1.58-8.56-3.24-1.43-1.66,.83-4.08-1.55-6.85-2.38-2.77-10.86-7.04-8.4-12.04"/>
      <path class="d" d="M2.12,33.54c5.32-4.27,14.44,1.07,15.14,5.94,.8,5.57-.6,12.09-4.83,16.79-3.92,4.35,2.01,7.23,4.12,10.75,0,0-3.62-2.16-7.5,.8-3.67,2.81-6.58-5.43-7.14-8.03-.56-2.59,3.17-4.14,2.24-8.46-.93-4.32-7.41-13.46-2.02-17.79"/>
      <path class="d" d="M50.14,74.32s.83-4.08,2.89-3.92c2.06,.16,3.37,3.37,3.29,4.4l-6.18-.47Z"/>
      <path class="d" d="M54.61,70s2.22-1.9,4.12,.31c1.9,2.22,1.23,4.24,1.23,4.24l-3.09-.24s.67-2.02-2.26-4.32"/>
      <path class="d" d="M59.29,69.84s3.6,.28,3.84,3.92l-2.06-.16s.12-1.54-1.78-3.76"/>
      <path class="d" d="M7.32,72.09s.83-4.08,2.89-3.92c2.06,.16,3.37,3.37,3.29,4.4l-6.18-.47Z"/>
      <path class="d" d="M11.79,67.77s2.22-1.9,4.12,.31c1.9,2.22,1.23,4.24,1.23,4.24l-3.09-.24s.67-2.02-2.26-4.32"/>
      <path class="d" d="M16.47,67.6s3.6,.27,3.84,3.92l-2.06-.16s.12-1.54-1.78-3.76"/>
      <path class="d" d="M28.49,62.2c-1.31-.05-2.95,.27-4.64,1.56-3.67,2.81-6.58-5.43-7.14-8.03-.54-2.53,2.98-4.06,2.3-8.14,2.32,3.19,5.26,10.11,7.31,12.99,.49,.68,1.25,1.21,2.17,1.62"/>
      <path class="d" d="M22.13,68.04s.83-4.08,2.89-3.92c2.06,.16,3.37,3.37,3.29,4.4l-6.18-.47Z"/>
      <path class="d" d="M26.61,63.72s2.22-1.9,4.12,.31c1.9,2.22,1.23,4.24,1.23,4.24l-3.09-.24s.67-2.02-2.26-4.32"/>
      <path class="d" d="M31.28,63.55s3.61,.27,3.84,3.92l-2.06-.16s.12-1.54-1.78-3.76"/>
      <path class="d" d="M67.33,73.04s.83-4.08,2.89-3.92c2.06,.16,3.37,3.37,3.29,4.4l-6.18-.47Z"/>
      <path class="d" d="M71.81,68.72s2.22-1.9,4.12,.31c1.9,2.22,1.23,4.24,1.23,4.24l-3.09-.24s.67-2.02-2.26-4.32"/>
      <path class="d" d="M76.48,68.56s3.6,.28,3.84,3.92l-2.06-.16s.12-1.54-1.78-3.76"/>
      <path class="d" d="M48.26,37.92c-3.57-.79-7.57-2.65-10.86-7.04-3.29-4.4-10.07-10.61-18.82-11.28C9.82,18.92-.27,29.03,.96,33.27c6.57-4.68,13.03-1.08,16.4,2.29,3.37,3.36-.15,8.79,2.26,11.05,2.42,2.26,5.91,10.81,8.25,14.1,2.34,3.29,11.17,2.92,11.17,2.92,.08-1.03-2.38-2.77-4.84-4.51-2.46-1.74-5.35-4.55-5.11-7.64,.24-3.09,3.13-7.01,10.3-5.95,6.94,1.03,8.99,8.98,9.11,9.48-.19-4.15,2.1-7.07,2.1-7.07,0,0-2.26-4.32-.52-6.77,1.74-2.46,5.74-.6,5.74-.6,.59-.99-4-1.86-7.57-2.65m-12.4,23.4c.43,.03,.75,.4,.71,.83-.03,.43-.4,.75-.83,.71-.43-.03-.75-.4-.71-.83,.03-.43,.4-.75,.83-.71m-3.05-.75c.43,.03,.75,.4,.71,.83-.03,.43-.4,.75-.83,.71-.43-.03-.75-.4-.71-.83,.03-.43,.4-.75,.83-.71m-2.5-1.23c.43,.03,.75,.4,.71,.83-.03,.43-.4,.75-.83,.71-.43-.03-.75-.4-.71-.83,.03-.43,.4-.75,.83-.71m-1.19-1.39c-.03,.43-.4,.75-.83,.71-.43-.03-.75-.4-.71-.83,.03-.43,.4-.75,.83-.71,.43,.03,.75,.4,.71,.83"/>
    </g>
  </g>
</svg>