<?xml version="1.0" encoding="UTF-8"?>
<svg id="b" data-name="圖層 2" xmlns="http://www.w3.org/2000/svg" width="374.47" height="44.79" viewBox="0 0 374.47 44.79">
  <defs>
    <style>
      .d {
        fill: #fff;
      }

      .e {
        opacity: .2;
      }
    </style>
  </defs>
  <g id="c" data-name="圖層 2">
    <g class="e">
      <g>
        <path class="d" d="M23.89,17.57h-4.51L35.81,.6h7.52V19.86h-7.52V6.74l2.26,.93-11.89,12.19h-9.03L5.24,7.7l2.29-.93v13.09H0V.6H7.52L23.89,17.57Z"/>
        <path class="d" d="M45.74,19.86L58.64,.6h8.37l13.03,19.26h-8.27L60.6,2.62h4.48l-11.07,17.24h-8.27Zm6.74-2.92v-4.51h20.58v4.51h-20.58Z"/>
        <path class="d" d="M77.33,.6h31.29V6.32h-31.29V.6Zm11.89,5.33h7.52v13.93h-7.52V5.93Z"/>
        <path class="d" d="M145.78,11.83c-.1,1.91-.79,3.5-2.08,4.78s-3.17,2.25-5.67,2.89c-2.5,.64-5.65,.96-9.46,.96-2.91,0-5.52-.16-7.82-.47-2.31-.31-4.27-.84-5.9-1.59-1.62-.75-2.87-1.78-3.73-3.08-.86-1.3-1.29-2.95-1.29-4.94s.43-3.65,1.29-4.98c.86-1.33,2.11-2.4,3.73-3.19,1.62-.79,3.59-1.36,5.9-1.7,2.31-.34,4.91-.51,7.82-.51,3.81,0,6.97,.35,9.48,1.04,2.51,.69,4.4,1.71,5.69,3.05,1.28,1.34,1.98,2.98,2.08,4.9h-7.82c-.24-.64-.68-1.21-1.32-1.7-.64-.49-1.6-.88-2.89-1.16-1.28-.28-3.02-.42-5.21-.42-2.57,0-4.65,.16-6.26,.47-1.61,.31-2.78,.81-3.52,1.49-.74,.68-1.11,1.58-1.11,2.71,0,1.02,.37,1.86,1.11,2.5,.74,.64,1.92,1.11,3.52,1.41,1.6,.3,3.69,.45,6.26,.45,2.19,0,3.92-.13,5.19-.39,1.27-.26,2.23-.62,2.87-1.07,.64-.45,1.08-.94,1.32-1.46h7.82Z"/>
        <path class="d" d="M149.73,.6h7.52V19.86h-7.52V.6Zm6.44,6.65h21.18v5.72h-21.18V7.25ZM176.51,.6h7.52V19.86h-7.52V.6Z"/>
        <path class="d" d="M212.13,17.57h-4.51L224.05,.6h7.52V19.86h-7.52V6.74l2.26,.93-11.89,12.19h-9.03l-11.92-12.16,2.29-.93v13.09h-7.52V.6h7.52l16.37,16.97Z"/>
        <path class="d" d="M233.98,19.86L246.89,.6h8.37l13.03,19.26h-8.27l-11.16-17.24h4.48l-11.07,17.24h-8.27Zm6.74-2.92v-4.51h20.58v4.51h-20.58Z"/>
        <path class="d" d="M270.69,.6h7.52V19.86h-7.52V.6Zm16.04,9.78v-1.69l17.36,11.16h-11.19l-14.74-10.23,13.6-9.03h10.71l-15.74,9.78Z"/>
        <path class="d" d="M314.77,11.73v2.41h22.87v5.72h-30.39V.6h30.33V6.32h-22.81v2.41h18.66v3.01h-18.66Z"/>
        <path class="d" d="M341.55,19.86V.6h23.26c1.83,0,3.47,.21,4.92,.62,1.45,.41,2.61,1.1,3.46,2.06,.85,.96,1.28,2.28,1.28,3.94,0,1.1-.2,2.02-.6,2.74-.4,.72-.95,1.28-1.65,1.69-.7,.4-1.5,.69-2.41,.87-.9,.18-1.85,.29-2.83,.33l-2.2-.42c2.39,.02,4.23,.12,5.52,.3,1.29,.18,2.2,.51,2.71,.98,.51,.47,.77,1.15,.77,2.03v4.12h-7.52v-3.22c0-.6-.12-1.06-.35-1.37-.23-.31-.73-.53-1.5-.65-.77-.12-1.96-.18-3.57-.18h-11.77v5.42h-7.52Zm7.52-10.44h15.74c.6,0,1.11-.1,1.52-.3,.41-.2,.62-.58,.62-1.14,0-.52-.21-.88-.62-1.07-.41-.19-.92-.29-1.52-.29h-15.74v2.8Z"/>
      </g>
    </g>
    <g>
      <path class="d" d="M137.53,40.03v3.39h-25.59v-3.39h6.63c.49-2.32,1-5.02,1.49-7.83h-4.88v-3.36h5.39c.26-1.64,.49-3.3,.69-4.88h-7.69v-3.38h22.09v3.38h-10.61c-.23,1.58-.49,3.24-.75,4.88h5.31l.6-.11,2.73,.2c-.17,3.36-.54,7.4-.95,11.1h5.54Zm-13.74-7.83c-.49,2.84-.98,5.54-1.43,7.83h6c.29-2.61,.54-5.48,.72-7.83h-5.28Z"/>
      <path class="d" d="M165.74,29.19c1.89,5.59,5.36,10.1,10.73,12.28-.86,.72-1.98,2.24-2.52,3.21-5.19-2.44-8.52-6.63-10.76-12.16-1.55,4.79-4.65,9.27-10.73,12.19-.54-.95-1.55-2.18-2.55-2.9,6.57-2.93,9.29-7.69,10.41-12.62h-9.87v-3.53h10.44c.29-2.7,.26-5.31,.29-7.66h3.73c-.03,2.35-.06,4.99-.34,7.66h11.27v3.53h-10.1Z"/>
      <path class="d" d="M197.79,23.74l1-.06v2.84l-1.03,.09c-.06,2.98-.43,6.54-1.81,10.01,1.09,1.15,2.07,2.24,2.73,3.1l-2.27,2.58c-.49-.75-1.2-1.64-1.98-2.58-1.09,1.75-2.47,3.41-4.3,4.91-.49-.66-1.52-1.69-2.24-2.21,1.92-1.55,3.36-3.3,4.39-5.11-1.23-1.32-2.52-2.64-3.61-3.76,.46-1.78,.86-4.02,1.26-6.43l-1.55,.11-.32-3.04,2.29-.11c.26-2.07,.46-4.1,.54-5.97l3.18,.14c-.14,1.81-.37,3.73-.63,5.68l1.41-.06v-1.89h2.93v1.75Zm-4.22,10.5c.92-2.58,1.18-5.19,1.26-7.43l-1.84,.11c-.32,2.01-.69,3.96-1.06,5.71l1.64,1.61Zm20.65-14.97v25.33h-3.1v-1.41h-8.95v1.61h-2.95V19.26h15Zm-12.05,3.04v14.89c1.92-2.27,2.67-4.91,2.95-7.4h-2.52v-2.75h2.67v-4.07h2.58v4.07h2.81v2.75h-2.93c-.03,.32-.06,.63-.09,.95,1.32,2.09,2.7,4.62,3.47,6.37v-14.8h-8.95Zm8.95,17.84v-2.5l-2.07,1.23c-.43-1.2-1.26-2.93-2.18-4.65-.57,1.89-1.55,3.7-3.07,5.31-.34-.46-1.03-1.12-1.64-1.58v2.18h8.95Z"/>
      <path class="d" d="M229.9,37.22c-.17,2.52-.6,5.25-1.18,7-.55-.32-1.75-.69-2.38-.86,.63-1.69,.95-4.25,1.09-6.54l2.47,.4Zm-3.44-10.64c.49-.14,.98-.69,1.52-1.55,.57-.77,2.27-3.99,3.27-6.97l2.73,1.12c-1.03,2.41-2.38,4.96-3.79,7.03l2.07-.14c.72-1.32,1.43-2.7,2.04-4.07l2.47,1.61c-1.61,3.16-3.76,6.4-5.91,9.04l3.33-.49c-.29-.83-.6-1.69-.95-2.44l2.18-.83c.83,1.69,1.64,3.96,1.86,5.36l-2.29,.98c-.03-.23-.09-.46-.14-.72-5.71,.95-6.68,1.23-7.32,1.52l-.03-.4c-.17-.69-.57-1.81-.8-2.47,.66-.17,1.26-.83,2.12-1.92,.37-.43,1-1.32,1.81-2.52-2.24,.26-2.87,.43-3.27,.6-.14-.57-.57-1.95-.89-2.73Zm6.34,10.04c.34,1.92,.66,4.33,.75,5.97l-2.38,.63c-.06-1.66-.32-4.13-.6-6.02l2.24-.57Zm20.42-4.39c-.8,.55-1.66,1.03-2.58,1.55,.46,2.81,1.35,5.42,2.9,6.77-.72,.52-1.61,1.64-2.04,2.44-1.78-1.72-2.7-4.68-3.21-7.95-.4,.17-.8,.37-1.18,.54,1.26,3.47,.52,7-.95,8.2-.8,.75-1.55,.95-2.73,.98-.55,.03-1.09,0-1.66-.03-.03-.8-.2-1.95-.75-2.87,.72,.12,1.2,.17,1.81,.17,.54,0,.95-.11,1.26-.63,.37-.4,.63-1.26,.63-2.41-1.89,1.61-4.3,3.13-6.4,4.07-.32-.52-.8-1.23-1.35-1.81l-1.89,.75c-.26-1.49-.89-3.76-1.49-5.51l2.09-.75c.57,1.52,1.15,3.38,1.49,4.82,2.5-.98,5.36-2.73,7.03-4.45-.11-.34-.26-.63-.43-.98-1.52,1.18-3.47,2.41-5.11,3.16-.4-.66-1.09-1.66-1.69-2.24,1.78-.54,4.04-1.72,5.54-2.87-.23-.23-.46-.49-.72-.75-1.12,.69-2.24,1.26-3.36,1.75-.34-.57-1.2-1.72-1.72-2.27,1.75-.6,3.61-1.46,5.11-2.5h-4.53v-2.7h9.24l.23-1.15h-8.18c.63-2.01,1.43-5.19,1.89-7.66l3.07,.29-.29,1.35h4.88l.49-.11,2.21,.32c-.32,2.18-.8,4.7-1.29,6.97h3.76v2.7h-7.6c-.55,.54-1.12,1.06-1.78,1.55,.83,.72,1.52,1.49,2.07,2.27,1.75-.89,3.73-2.09,5.05-3.07l2.18,2.04Zm-6-8.92l.26-1.43h-4.82l-.37,1.43h4.93Z"/>
    </g>
  </g>
</svg>