<?xml version="1.0" encoding="UTF-8"?><svg id="_層_2" xmlns="http://www.w3.org/2000/svg" viewBox="0 0 45.95 45.95"><defs><style>.cls-1{fill:#fff;}.cls-2{fill:#ec6531;}</style></defs><g id="_層_1-2"><circle class="cls-1" cx="22.98" cy="22.98" r="22.98" transform="translate(-9.52 22.98) rotate(-45)"/><g><path class="cls-2" d="M18.68,17.73h-1.55c-.24,0-.43,.19-.43,.43v9.62c0,.24,.19,.43,.43,.43h1.55c.24,0,.43-.19,.43-.43v-9.62c0-.24-.19-.43-.43-.43"/><path class="cls-2" d="M29.34,17.73h-1.55c-.24,0-.43,.19-.43,.43v5.72l-4.41-5.96s-.02-.03-.03-.04h0s-.02-.02-.03-.03h0s-.01-.02-.02-.03h-.01l-.02-.02h-.01l-.02-.02h-.01l-.02-.02h-.04v-.02h-1.67c-.24-.01-.43,.18-.43,.42v9.62c0,.24,.19,.43,.43,.43h1.55c.24,0,.43-.19,.43-.43v-5.72l4.42,5.96s.07,.08,.11,.11h0l.03,.02h.01l.02,.02h.03l.03,.02h0s.07,.02,.11,.02h1.55c.24,0,.43-.19,.43-.43v-9.62c0-.24-.19-.43-.43-.43"/><path class="cls-2" d="M14.95,25.81h-4.21v-7.64c0-.24-.19-.43-.43-.43h-1.55c-.24,0-.43,.19-.43,.43v9.62h0c0,.12,.05,.22,.12,.3h.01c.08,.09,.18,.13,.3,.13h6.19c.24,0,.43-.19,.43-.43v-1.55c0-.24-.19-.43-.43-.43"/><path class="cls-2" d="M37.9,20.14c.24,0,.43-.19,.43-.43v-1.55c0-.24-.19-.43-.43-.43h-6.19c-.12,0-.22,.05-.3,.12h-.01c-.07,.09-.12,.19-.12,.31h0v9.62h0c0,.12,.05,.22,.12,.3h.01c.08,.09,.18,.13,.3,.13h6.19c.24,0,.43-.19,.43-.43v-1.55c0-.24-.19-.43-.43-.43h-4.21v-1.63h4.21c.24,0,.43-.19,.43-.43v-1.55c0-.24-.19-.43-.43-.43h-4.21v-1.63h4.21Z"/></g></g></svg>