<?xml version="1.0" encoding="UTF-8"?>
<svg id="b" data-name="圖層 2" xmlns="http://www.w3.org/2000/svg" width="30.71" height="30.71" viewBox="0 0 30.71 30.71">
  <defs>
    <style>
      .d {
        fill: #fff;
      }

      .e {
        fill: #ec6531;
      }
    </style>
  </defs>
  <g id="c" data-name="fix 按鈕">
    <g>
      <circle class="e" cx="15.35" cy="15.35" r="15.35" transform="translate(-2.26 28.05) rotate(-80.78)"/>
      <g>
        <path class="d" d="M14.38,18.53s-.05,.07-.08,.1c-.48,.48-.96,.96-1.44,1.44-.26,.26-.56,.46-.92,.57-.91,.26-1.78-.27-1.94-1.2-.09-.55,.1-1.02,.44-1.44,.05-.06,.1-.11,.15-.17,.91-.91,1.83-1.82,2.74-2.74,.7-.71,1.8-.84,2.51-.13,.34,.33,.91,.27,1.22-.08,.33-.37,.32-.91-.03-1.25-.66-.65-1.47-.96-2.39-.94-1.02,.02-1.88,.42-2.6,1.13-.91,.91-1.83,1.82-2.74,2.74-.52,.52-.89,1.14-1.05,1.86-.04,.19-.3,.91,.13,1.98,.55,1.45,2.04,2.31,3.59,2.07,.83-.13,1.53-.51,2.13-1.1,.81-.81,1.63-1.62,2.44-2.44,.02-.02,.04-.05,.05-.06-.78,.18-1.5,.06-2.22-.34Z"/>
        <path class="d" d="M22.28,10.29c-.74-1.79-3.29-3.11-5.6-1.08-.91,.8-1.72,1.71-2.58,2.57,0,0-.01,.03-.02,.03,.78-.17,1.5-.05,2.21,.35,.02-.03,.05-.07,.09-.11,.48-.48,.95-.96,1.44-1.43,.18-.17,.39-.34,.61-.45,.99-.51,2.09,.03,2.26,1.09,.09,.59-.12,1.1-.54,1.52-.95,.97-1.91,1.93-2.88,2.88-.65,.64-1.72,.76-2.42,.08-.35-.34-.91-.29-1.24,.05-.34,.36-.33,.91,.03,1.26,.17,.16,.35,.31,.55,.44,1.32,.83,3.06,.63,4.17-.41,1.07-1,2.18-1.97,3.12-3.1,1.53-1.84,1.07-3.05,.8-3.7Z"/>
      </g>
    </g>
  </g>
</svg>