<?xml version="1.0" encoding="UTF-8"?>
<svg id="b" data-name="圖層 2" xmlns="http://www.w3.org/2000/svg" width="81.61" height="74.79" viewBox="0 0 81.61 74.79">
  <defs>
    <style>
      .d {
        fill: #fff;
      }
    </style>
  </defs>
  <g id="c" data-name="圖層 2">
    <g>
      <path class="d" d="M49.25,.04c-1.33-.13-5.43-.19-6.64,3.74-.13,.41-.22,.86-.28,1.36,0,.02-.23,2.84,1.98,5.43,1.46,1.71,3.68,2.97,6.59,3.75,2.29,.61,4.49,.8,6.61,.98,1.08,.09,2.15,.19,3.2,.33,.08,.01,.17,.02,.25,.04l.13,.02c2.99,.45,5.83,1.4,8.48,4.09h0c.07,.04,.14,.07,.21,.1,.17,.08,.34,.16,.52,.25,.12,.06,.23,.12,.35,.18,.16,.08,.32,.17,.47,.25,.11,.06,.22,.12,.33,.18,.25,.14,.5,.28,.75,.44,.11,.06,.21,.13,.32,.19,.18,.11,.36,.22,.54,.34,.11,.07,.23,.14,.34,.22,.23,.15,.47,.3,.7,.46,.09,.06,.18,.12,.26,.18,.25,.17,.51,.35,.77,.54,.11,.07,.21,.15,.32,.23,.22,.16,.44,.32,.67,.49,.09,.07,.19,.14,.28,.21,.3,.23,.61,.46,.92,.7l.07,.05h0s0-.05,0-.07c0-.13,0-.26-.02-.39,0-.02,0-.04,0-.06-.05-.72-.17-1.41-.37-2.06-.01-.04-.02-.09-.04-.13-.03-.09-.06-.18-.09-.26-.02-.06-.04-.12-.06-.18-.03-.08-.06-.15-.09-.23-.03-.07-.06-.14-.09-.21-.03-.07-.06-.14-.09-.2-.04-.07-.07-.15-.11-.22-.03-.06-.06-.12-.1-.18-.04-.08-.09-.16-.13-.24-.03-.05-.06-.11-.09-.16-.05-.09-.11-.17-.16-.26-.03-.05-.06-.09-.09-.13-.06-.1-.13-.19-.2-.28-.02-.03-.05-.07-.07-.1-.08-.11-.17-.22-.25-.32-.02-.02-.03-.04-.04-.05-.21-.26-.44-.51-.69-.75-4.96-4.94-15.53-6.27-20.61-6.91-1.19-.15-2.14-.27-2.75-.4-3.06-.63-5.59-3.49-5.68-5.06-.05-.87,.3-1.69,1.01-2.23,.7-.55,2.83,.18,4.18,.4,1.14,.19,2.03,.03,2.53-.44,.03-.03,.07-.06,.09-.09,.4-.45,.44-1.11,.13-1.81-.21-.47-1.86-1.47-4.27-1.71"/>
      <path class="d" d="M10.96,60.16s.01,.03,.02,.04c.03,.06,.05,.12,.08,.19l.05,.1s.04,.08,.06,.12c.04,.09,.09,.18,.14,.27l.02,.04c.03,.06,.07,.12,.11,.18l.02,.03c.11,.18,.24,.36,.38,.52,.01,.02,.03,.03,.04,.05,.04,.05,.08,.09,.12,.14,.05,.05,.09,.1,.14,.14l.04,.04c.08-.6,.21-2.31,.27-3.19-.69,.18-1.3,.3-1.84,.3,.08,.27,.19,.64,.35,1.04"/>
      <path class="d" d="M23.78,55.24c.56,.69,1.64,2.01,2.05,2.45,0-.03,.01-.06,.02-.08,.01-.06,.02-.12,.03-.18,0-.04,.01-.09,.02-.13,0-.05,.01-.1,.01-.15,0-.04,0-.09,0-.13,0-.08,0-.16,0-.24,0-.05,0-.1,0-.15,0-.04,0-.09,0-.13,0-.05,0-.1-.01-.15,0-.04,0-.08-.01-.11-.01-.1-.02-.2-.04-.3,0-.02,0-.04-.01-.07,0-.06-.02-.12-.03-.18,0-.02,0-.03,0-.05-.1-.48-.23-.9-.34-1.2-.44,.32-1.01,.56-1.68,.82"/>
      <path class="d" d="M2.26,51.71c.02,.2,.04,.4,.07,.61,0,.02,0,.05,0,.07,.09,.61,.17,1.29,.26,2.01,.04,.3,.07,.61,.11,.92h-.01s-.03-.03-.05-.04c-.09-.05-.18-.11-.27-.17-.03-.02-.06-.04-.09-.06-.07-.05-.14-.1-.21-.15-.03-.03-.07-.05-.1-.08-.07-.05-.13-.11-.2-.16-.03-.03-.06-.05-.09-.08-.07-.06-.13-.12-.19-.18-.03-.03-.05-.05-.08-.08-.07-.07-.13-.14-.2-.21-.02-.02-.04-.04-.06-.06-.08-.09-.15-.18-.23-.27h0c-.15-.21-.29-.42-.41-.63v-.03c-.07-.09-.11-.19-.16-.28,0-.02-.02-.04-.03-.06-.04-.08-.07-.17-.11-.25,0-.02-.02-.05-.03-.07-.03-.08-.05-.16-.08-.24,0-.02-.01-.05-.02-.07-.02-.08-.04-.16-.05-.24,0-.02,0-.04-.01-.06-.01-.09-.02-.18-.03-.27,0,0,0-.02,0-.03,0-.1,0-.2,.01-.29,0-.02,.01-.04,.02-.07,.04-.07,.06-.15,.07-.24h0c.15-.37,.49-.66,.88-.9l.04-.02s.09-.05,.14-.08l.06-.03c.07-.04,.14-.07,.22-.1,.03-.02,.07-.03,.1-.04,.04-.02,.07-.03,.11-.05,.06-.02,.11-.04,.17-.06,.03-.01,.07-.02,.1-.04,.05-.02,.09-.03,.14-.05,.03,0,.06-.02,.09-.03,.06-.02,.12-.04,.18-.05-.1,.67-.13,1.37-.08,2.1,0,.03,0,.07,0,.1"/>
      <path class="d" d="M30.46,43.1s.02,.07,.02,.1c.01,.08,.03,.16,.04,.23,0,.03,0,.07,.01,.1,0,.08,.02,.17,.02,.25,0,.03,0,.06,0,.1,0,.09,0,.18,0,.26,0,.03,0,.06,0,.09,0,.09,0,.19-.01,.28,0,.02,0,.05,0,.07,0,.1-.02,.2-.03,.3v.05c-.02,.11-.04,.21-.06,.32v.02c-.12,.6-.32,1.19-.61,1.71h0c-.19-.35-.37-.69-.55-1.02-.34-.64-.67-1.25-.94-1.8-.45-.91-1.01-1.69-1.64-2.35h.03s.1-.05,.15-.07c.03-.01,.06-.02,.09-.03,.04-.01,.08-.03,.12-.04,.03-.01,.07-.02,.1-.03,.04-.01,.08-.02,.12-.04,.07-.02,.14-.04,.22-.06l.07-.02c.05-.01,.11-.03,.16-.04h.03c.65-.14,1.35-.15,1.81,.14h0c.05,.06,.12,.11,.19,.15h0s.04,.03,.05,.05c.11,.12,.2,.26,.28,.41,.01,.02,.03,.04,.04,.07,.03,.06,.06,.13,.09,.19,.01,.03,.03,.06,.04,.09,.03,.07,.05,.14,.07,.21,0,.03,.02,.06,.03,.1,.02,.07,.04,.14,.05,.22"/>
      <path class="d" d="M4.03,54.24c.45,3.76,1.07,8.9,4.11,11.19,.17,.13,.35,.24,.52,.35,1.14,.71,2.35,1.02,3.44,1.08,.04,0,.07,0,.1,0,.09,0,.17,0,.26,0,.07,0,.14,0,.21,0,.04,0,.08,0,.12,0,.46-.02,.89-.08,1.27-.17,.02,0,.04,0,.05-.01,.07-.02,.14-.04,.21-.06,.02,0,.05-.01,.07-.02,.03,0,.05-.02,.08-.03,.05-.02,.09-.03,.14-.05,.1-.04,.19-.07,.28-.11h0s.09-.04,.13-.06c.06-.03,.12-.06,.18-.08,.04-.02,.07-.04,.1-.05,.06-.03,.13-.06,.19-.1,.06-.03,.12-.07,.18-.1,.03-.02,.06-.03,.09-.05,.45-.26,.85-.52,1.24-.78,.1-.07,.2-.13,.3-.2,.02-.02,.05-.03,.07-.05,.07-.05,.15-.1,.22-.15,.04-.03,.08-.05,.12-.08,.06-.04,.13-.08,.19-.12,.05-.03,.09-.06,.14-.08,.06-.04,.12-.07,.18-.11,.05-.03,.1-.06,.15-.09,.06-.03,.12-.07,.19-.1,.05-.03,.11-.06,.16-.08,.07-.03,.13-.06,.2-.09,.06-.03,.11-.05,.17-.08,.08-.04,.17-.07,.25-.1,.05-.02,.09-.04,.14-.06h0l-.84-2.66c-.12-.38,.09-.79,.47-.91h0c.38-.12,.79,.09,.91,.47l.84,2.66c.06-.02,.13-.03,.19-.04,.07-.02,.15-.04,.22-.05,.07-.01,.15-.03,.22-.04,.06-.01,.12-.02,.18-.03,.07-.01,.15-.02,.22-.03,.05,0,.11-.02,.16-.02,.08,0,.15-.02,.22-.02,.05,0,.1,0,.15-.01,.08,0,.15-.01,.23-.02,.04,0,.08,0,.12,0,.09,0,.17,0,.26-.01h.02c.22-.01,.44-.02,.65-.02,.75-.02,1.53-.04,2.44-.21h.02c.09-.02,.18-.04,.27-.07,.05-.01,.1-.03,.15-.04,.02,0,.05-.01,.07-.02,.02,0,.04-.02,.06-.02,.07-.02,.14-.05,.21-.07l.05-.02c.35-.14,.73-.33,1.1-.57,.05-.03,.1-.06,.15-.09,.04-.03,.08-.06,.12-.09,.09-.06,.17-.12,.26-.19,.01,0,.02-.02,.03-.03,1-.78,1.94-1.93,2.44-3.47,1.17-3.62-1.28-8.19-3.07-11.52-.35-.65-.68-1.27-.96-1.83-.02-.04-.04-.08-.06-.12-.08-.15-.16-.3-.25-.45-.05-.08-.09-.15-.14-.23-.07-.11-.14-.22-.22-.32-.05-.07-.1-.15-.15-.22-.09-.12-.19-.24-.29-.36-.07-.08-.15-.17-.22-.25-.09-.09-.17-.18-.26-.27-.07-.07-.14-.13-.21-.19-.08-.07-.16-.14-.24-.2-.07-.06-.15-.12-.22-.18-.11-.08-.22-.15-.33-.22-.04-.02-.07-.05-.11-.07h0s-.01,.05-.02,.07c-.53,1.16-1.28,1.64-1.82,1.83h0c-.6,.22-1.27,.19-1.78-.06-.19-.09-.42-.14-.61-.07-.11,.04-.21,.12-.29,.26-.29,.52-.65,.87-1.08,1.06-.43,.18-.91,.2-1.44,.03-.31-.1-.56-.1-.69,0h-.01c-.07,.07-.09,.16-.09,.19,.03,.19,.22,.36,.49,.46,.54,.19,1.09,.75,.59,2.33-.04,.12-.07,.25-.1,.37v.03c-.03,.11-.04,.21-.05,.32,0,.04,0,.08,0,.11,0,.07,0,.14,0,.21,0,.06,0,.11,0,.16,0,.05,0,.09,.01,.14,0,.06,.02,.13,.03,.19,0,.03,.01,.06,.02,.08,.02,.07,.04,.13,.06,.19,0,.01,.01,.03,.02,.04,.03,.07,.06,.12,.1,.18v.02c.05,.06,.1,.11,.14,.15h0c.47-.03,.95,.08,1.4,.35h0c.07,.05,.14,.09,.21,.14h0c.07,.05,.14,.11,.21,.17,.57,.5,.7,1.02,.71,1.37,.01,.41-.14,.8-.4,1.05-.16,.15-.34,.27-.53,.34-.32,.11-.68,.11-1.07-.01h0s-.16,.12-.24,.19c-.13,.12-.3,.26-.5,.38l.48,1.53c.63,.04,1.85,.04,3.1-.33,.01,0,.03,0,.04-.01,.12-.03,.23-.07,.35-.12,.33-.12,.64-.23,.93-.33,.92-.32,1.68-.59,2.22-.92,.32-.2,.56-.41,.7-.68,.14-.26,.24-.54,.34-.81,.21-.57,.44-1.19,1.02-1.57,.2-.13,.43-.23,.72-.29,.65-.14,1.3,.07,1.74,.55,.52,.58,.66,1.44,.36,2.35-.01,.04-.03,.07-.04,.1-.02,.04-.03,.09-.05,.13-.02,.04-.04,.08-.06,.11-.02,.04-.04,.07-.06,.11-.02,.04-.05,.07-.07,.11-.02,.04-.05,.07-.08,.1-.03,.03-.06,.07-.08,.1-.03,.03-.06,.07-.09,.1-.03,.03-.06,.06-.09,.09-.03,.03-.07,.06-.1,.1-.03,.03-.06,.06-.1,.08-.04,.03-.08,.06-.12,.09-.03,.02-.06,.05-.09,.07-.05,.03-.09,.07-.14,.1-.03,.02-.05,.04-.08,.06-.07,.05-.15,.1-.23,.14-.03,.02-.05,.03-.08,.04-.05,.03-.1,.06-.16,.09-.03,.02-.06,.03-.09,.05-.05,.03-.1,.05-.14,.07-.03,.02-.06,.03-.1,.05-.05,.02-.09,.04-.14,.06-.03,.01-.06,.03-.09,.04-.05,.02-.09,.04-.14,.06-.03,.01-.05,.02-.08,.03-.05,.02-.1,.04-.14,.06-.02,0-.04,.02-.07,.02-.06,.02-.11,.04-.16,.06h-.03l-.02,.02v.03c.02,.08,.03,.16,.04,.24,0,.04,.01,.08,.02,.12,0,.04,0,.07,.01,.11,.01,.11,.02,.22,.03,.33h0c.01,.2,.01,.4,0,.59h0c0,.12-.01,.24-.03,.36v.05c-.01,.06-.02,.11-.03,.16-.01,.08-.03,.16-.05,.24l-.02,.07c-.03,.1-.05,.21-.09,.31-.03,.11-.1,.24-.2,.34h0s-.04,.04-.07,.06h0s-.05,.04-.07,.05h-.01s-.06,.03-.09,.04h-.03c-.29,.09-.59-.03-.89-.34-.26-.27-.9-1.03-1.47-1.73h0c-.1,.06-.21,.12-.32,.19-.02,.01-.04,.02-.07,.04-.1,.06-.2,.11-.31,.16-.04,.02-.08,.04-.12,.06-.09,.05-.19,.09-.28,.14-.06,.03-.12,.06-.18,.08-.08,.04-.16,.07-.24,.11-.09,.04-.17,.08-.26,.11-.06,.02-.11,.05-.16,.07-.13,.05-.25,.1-.38,.15l-.04,.02c-.3,.12-.59,.22-.85,.3-.13,.04-.25,.07-.36,.1-.05,.01-.11,.03-.16,.04h0l-2.81,.89h-.02s-.1,.05-.15,.07h-.04c-.05,.03-.11,.05-.16,.07-.02,0-.03,.01-.05,.02-.05,.02-.11,.04-.17,.05-.02,0-.04,.01-.06,.02-.06,.02-.12,.04-.18,.05-.02,0-.05,.01-.07,.02-.06,.02-.12,.03-.18,.05-.03,0-.06,.02-.09,.02-.06,.02-.11,.03-.17,.04-.04,0-.07,.02-.1,.03-.05,.01-.11,.03-.16,.04-.04,0-.08,.02-.12,.03-.05,.01-.1,.02-.15,.03-.05,.01-.1,.02-.14,.03l-.11,.02c-.33,.07-.67,.13-.99,.18h-.03c-.08,.02-.15,.03-.23,.03h-.06c-.07,.02-.14,.02-.21,.03-.02,0-.04,0-.06,0-.07,0-.13,.01-.2,.02h-.04c-.07,.89-.15,1.89-.21,2.26-.07,.43-.24,.7-.52,.8h-.03c-.26,.09-.51,0-.66-.13l-.02-.02c-.06-.05-.13-.1-.19-.15-.03-.02-.05-.05-.08-.07-.06-.06-.12-.12-.18-.18-.02-.02-.05-.05-.07-.07-.05-.06-.1-.11-.15-.17-.02-.02-.04-.05-.06-.07-.05-.06-.1-.13-.15-.19-.02-.02-.03-.04-.05-.06-.05-.07-.11-.15-.16-.23-.01-.02-.02-.03-.03-.05-.17-.27-.32-.55-.45-.82h-.04c-.06,.03-.12,.04-.18,.06h-.04c-.06,.02-.12,.04-.18,.05h-.05c-.06,.03-.12,.04-.19,.05h-.06c-.07,.02-.14,.04-.2,.05h-.05c-.08,.02-.16,.03-.24,.04h-.03c-.28,.04-.56,.05-.84,.05-.01,0-.03,0-.04,0-.08,0-.16,0-.23-.01-.02,0-.04,0-.06,0-.07,0-.14-.02-.21-.03-.02,0-.05,0-.07-.01-.07-.01-.13-.03-.19-.04-.02,0-.05-.01-.07-.02-.06-.02-.13-.04-.19-.06-.02,0-.04-.01-.06-.02-.07-.03-.14-.06-.2-.1,0,0-.02,0-.03-.02-.08-.04-.15-.09-.22-.14-.77-.58-1.15-1.36-1.06-2.14,.07-.56,.39-1.05,.88-1.34,.07-.04,.14-.08,.22-.11,.04-.02,.08-.03,.12-.04,.22-.08,.44-.13,.63-.13,.7-.03,1.24,.35,1.74,.7,.24,.17,.49,.34,.75,.47,.72,.35,1.8,.05,3.31-.38,.3-.08,.62-.17,.95-.27,.12-.03,.23-.07,.35-.1l.05-.02c1.17-.39,2.13-1.04,2.64-1.44,.02-.02,.04-.03,.06-.05l.03-.02h0l-.48-1.53h-.02c-.11,0-.21,.01-.3,0h-.03s-.08,0-.12,0c-.06,0-.11-.01-.16-.02-.1-.01-.26-.03-.3-.02h0c-.1,.13-.21,.25-.33,.34-.35,.28-.74,.39-1.18,.32-.36-.06-.71-.29-.93-.63-.19-.29-.39-.79-.21-1.53,0-.04,.02-.08,.03-.12,.01-.04,.02-.07,.03-.11,.01-.04,.03-.07,.04-.1,.02-.05,.03-.09,.05-.13,.01-.03,.02-.05,.04-.08,.03-.06,.05-.11,.08-.16l.02-.03c.21-.36,.49-.65,.82-.85h0c.05-.21,.02-.44-.08-.69h0c-.03-.09-.07-.17-.11-.25,0,0-.01-.02-.02-.03-.04-.08-.09-.15-.14-.23-.01-.02-.02-.03-.04-.05-.05-.07-.1-.14-.16-.21-.02-.02-.04-.04-.06-.06-.06-.06-.12-.13-.19-.19l-.02-.02c-.08-.07-.16-.14-.25-.21-1.31-1.01-1.19-1.78-.86-2.24,.17-.23,.22-.48,.14-.65-.01-.02-.08-.09-.17-.1-.04,0-.08,0-.13,.02-.14,.05-.29,.18-.45,.38-.25,.33-.54,.56-.87,.7-.54,.23-1.16,.18-1.83-.14-.19-.09-.36-.07-.5,0-.14,.08-.26,.21-.34,.36-.1,.19-.24,.36-.41,.52-.28,.25-.63,.45-1.01,.56h0c-.55,.15-1.43,.2-2.54-.45h-.02s-.03-.03-.04-.05c-.07,.17-.14,.34-.2,.52-.02,.06-.04,.12-.05,.18-.04,.14-.08,.28-.11,.42-.01,.06-.03,.12-.04,.18-.04,.19-.07,.38-.1,.58v.03c-.03,.21-.04,.42-.05,.64,0,.05,0,.1,0,.14,0,.18,0,.36,.01,.54,0,.05,0,.09,0,.14,.02,.23,.04,.46,.08,.69,.09,.63,.18,1.32,.27,2.06m6.03,1.39c-1.85,.58-3.83-.44-4.41-2.29-.58-1.85,.44-3.83,2.29-4.41,1.85-.58,3.83,.44,4.41,2.29,.58,1.85-.44,3.83-2.29,4.41m11.72-11.08c1.85-.58,3.83,.44,4.41,2.29,.58,1.85-.44,3.83-2.29,4.41-1.85,.58-3.83-.44-4.41-2.29-.58-1.85,.44-3.83,2.29-4.41"/>
      <path class="d" d="M23.51,41.44c-.32,.69-.76,1.16-1.3,1.35-.44,.16-.85,.09-1.08-.02-.82-.4-1.68-.18-2.09,.56-.48,.86-1.06,.79-1.46,.67-.82-.26-1.31-.04-1.57,.19-.35,.31-.43,.73-.38,1,.05,.33,.24,.63,.52,.85,.16,.13,.35,.23,.56,.31,.04,.02,.08,.04,.1,.08,.17,.22,.03,.78-.08,1.13-.29,.92-.31,2.01,.16,2.76-.09,.05-.18,.11-.26,.18-.19,.16-.22,.44-.06,.64,.02,.03,.05,.05,.08,.08,.16,.12,.39,.12,.55-.02,.5-.42,1.26-.35,1.85,.17,.01,.01,.02,.02,.03,.03,.23,.22,.36,.45,.37,.68,0,.2-.08,.34-.13,.38-.18,.18-.39,.21-.72,.11-.5-.15-.84,.15-1.09,.38-.18,.16-.35,.31-.59,.37-.24,.08-.46,.06-.7,.03-.33-.04-.79-.09-1.11,.32-.21,.27-.4,.36-.65,.32-.04,0-.11-.04-.18-.09-.05-.04-.09-.08-.14-.14-.13-.2-.16-.48-.08-.82,.18-.76,.77-1.25,1.42-1.2,.25,.02,.47-.17,.49-.41,0-.13-.04-.25-.12-.34-.07-.08-.18-.13-.29-.14-.09,0-.17,0-.26,0-.02,0-.04,0-.06,0-.04-.76-.52-1.52-1.15-2.09-.1-.09-.2-.18-.3-.26-.07-.05-.15-.12-.23-.19-.3-.26-.6-.6-.45-.81,.36-.51,.45-1.1,.22-1.57-.04-.09-.11-.19-.2-.28-.16-.16-.39-.29-.69-.32-.35-.03-.87,.07-1.39,.75-.25,.33-.69,.72-1.58,.29-.75-.37-1.59-.06-2.03,.74-.12,.23-.41,.51-.87,.64-.54,.15-1.18,.03-1.84-.36-.01,0-.02,0-.03-.02-.03-.01-.05-.02-.08-.03,.99-1.65,2.73-2.93,5.14-3.69l7.47-2.36c2.41-.76,4.57-.72,6.33,.06,0,0-.01,.01-.02,.02-.02,.03-.04,.05-.05,.08"/>
      <path class="d" d="M22.95,50.15c-1.25,.39-2.58-.3-2.97-1.54-.39-1.25,.3-2.58,1.54-2.97,1.25-.39,2.58,.3,2.97,1.54,.39,1.25-.3,2.58-1.54,2.97"/>
      <path class="d" d="M7.69,50.01c1.25-.39,2.58,.3,2.97,1.54,.39,1.25-.3,2.58-1.54,2.97-1.25,.4-2.58-.3-2.97-1.54-.4-1.25,.3-2.58,1.54-2.97"/>
      <path class="d" d="M50.34,50.09c-2.42-4.93-11.13-3.29-13.47,0-2.34,3.29-3.02,8-3.18,12.67-.16,4.67-4.32,4.47-7.29,6.25,0,0,3.61-.27,5.43,3.21,1.72,3.3,7.13-1.58,8.56-3.24,1.43-1.66-.83-4.08,1.55-6.85,2.38-2.77,10.86-7.04,8.4-12.04"/>
      <path class="d" d="M79.49,33.54c-5.32-4.27-14.44,1.07-15.14,5.94-.8,5.57,.6,12.09,4.83,16.79,3.92,4.35-2.01,7.23-4.12,10.75,0,0,3.62-2.16,7.5,.8,3.67,2.81,6.58-5.43,7.14-8.03,.56-2.59-3.17-4.14-2.24-8.46,.93-4.32,7.41-13.46,2.02-17.79"/>
      <path class="d" d="M31.47,74.32s-.83-4.08-2.89-3.92c-2.06,.16-3.37,3.37-3.29,4.4l6.18-.47Z"/>
      <path class="d" d="M26.99,70s-2.22-1.9-4.12,.31c-1.9,2.22-1.23,4.24-1.23,4.24l3.09-.24s-.67-2.02,2.26-4.32"/>
      <path class="d" d="M22.32,69.84s-3.6,.28-3.84,3.92l2.06-.16s-.12-1.54,1.78-3.76"/>
      <path class="d" d="M74.29,72.09s-.83-4.08-2.89-3.92c-2.06,.16-3.37,3.37-3.29,4.4l6.18-.47Z"/>
      <path class="d" d="M69.82,67.77s-2.22-1.9-4.12,.31c-1.9,2.22-1.23,4.24-1.23,4.24l3.09-.24s-.67-2.02,2.26-4.32"/>
      <path class="d" d="M65.14,67.6s-3.61,.27-3.84,3.92l2.06-.16s-.12-1.54,1.78-3.76"/>
      <path class="d" d="M53.12,62.2c1.31-.05,2.95,.27,4.64,1.56,3.67,2.81,6.58-5.43,7.14-8.03,.54-2.53-2.98-4.06-2.3-8.14-2.32,3.19-5.26,10.11-7.31,12.99-.49,.68-1.25,1.21-2.17,1.62"/>
      <path class="d" d="M59.48,68.04s-.83-4.08-2.89-3.92c-2.06,.16-3.37,3.37-3.29,4.4l6.18-.47Z"/>
      <path class="d" d="M55,63.72s-2.22-1.9-4.12,.31c-1.9,2.22-1.23,4.24-1.23,4.24l3.09-.24s-.67-2.02,2.26-4.32"/>
      <path class="d" d="M50.33,63.55s-3.61,.27-3.84,3.92l2.06-.16s-.12-1.54,1.78-3.76"/>
      <path class="d" d="M14.28,73.04s-.83-4.08-2.89-3.92c-2.06,.16-3.37,3.37-3.29,4.4l6.18-.47Z"/>
      <path class="d" d="M9.8,68.72s-2.22-1.9-4.12,.31c-1.9,2.22-1.23,4.24-1.23,4.24l3.09-.24s-.67-2.02,2.26-4.32"/>
      <path class="d" d="M5.13,68.56s-3.6,.28-3.84,3.92l2.06-.16s-.12-1.54,1.78-3.76"/>
      <path class="d" d="M33.35,37.92c-3.57,.79-8.16,1.66-7.57,2.65,0,0,4-1.86,5.74,.6,1.74,2.46-.52,6.77-.52,6.77,0,0,2.28,2.92,2.1,7.07,.12-.5,2.17-8.44,9.11-9.48,7.17-1.06,10.06,2.86,10.3,5.95,.24,3.09-2.66,5.9-5.11,7.64-2.46,1.74-4.91,3.48-4.84,4.51,0,0,8.83,.36,11.17-2.92,2.34-3.29,5.83-11.84,8.25-14.1,2.42-2.26-1.1-7.69,2.26-11.05,3.37-3.37,9.83-6.97,16.4-2.29,1.23-4.24-8.86-14.35-17.62-13.68-8.75,.67-15.53,6.88-18.82,11.28-3.29,4.39-7.29,6.25-10.86,7.04m12.4,23.4c.43-.03,.8,.29,.83,.71,.03,.43-.29,.8-.71,.83-.43,.03-.8-.29-.83-.71-.03-.43,.29-.8,.71-.83m3.05-.75c.43-.03,.8,.29,.83,.71,.03,.43-.29,.8-.71,.83-.43,.03-.8-.29-.83-.71-.03-.43,.29-.8,.71-.83m2.5-1.23c.43-.03,.8,.29,.83,.71,.03,.43-.29,.8-.71,.83-.43,.03-.8-.29-.83-.71-.03-.43,.29-.8,.71-.83m1.19-1.39c-.03-.43,.29-.8,.71-.83,.43-.03,.8,.29,.83,.71,.03,.43-.29,.8-.71,.83-.43,.03-.8-.29-.83-.71"/>
    </g>
  </g>
</svg>