<?xml version="1.0" encoding="UTF-8"?>
<svg id="b" data-name="圖層 2" xmlns="http://www.w3.org/2000/svg" width="1102.36" height="441.76" xmlns:xlink="http://www.w3.org/1999/xlink" viewBox="0 0 1102.36 441.76">
  <defs>
    <style>
      .h {
        filter: url(#f);
      }

      .h, .i {
        fill: #fff;
      }

      .j {
        stroke-width: 1.03px;
      }

      .j, .k {
        fill: none;
      }

      .j, .k, .l, .m {
        stroke-miterlimit: 10;
      }

      .j, .m {
        stroke: #9fa0a0;
      }

      .n {
        opacity: .35;
      }

      .o {
        fill: #e8b356;
        filter: url(#d);
      }

      .k {
        stroke-width: 1.04px;
      }

      .k, .l {
        stroke: #fff;
      }

      .l {
        fill: #fc462d;
        stroke-width: .75px;
      }

      .p, .m {
        fill: #595757;
      }

      .m {
        stroke-width: 1.04px;
      }
    </style>
    <filter id="d" data-name="drop-shadow-1" filterUnits="userSpaceOnUse">
      <feOffset dx="4.21" dy="4.21"/>
      <feGaussianBlur result="e" stdDeviation="4.21"/>
      <feFlood flood-color="#000" flood-opacity=".14"/>
      <feComposite in2="e" operator="in"/>
      <feComposite in="SourceGraphic"/>
    </filter>
    <filter id="f" data-name="drop-shadow-2" filterUnits="userSpaceOnUse">
      <feOffset dx="4.62" dy="4.62"/>
      <feGaussianBlur result="g" stdDeviation="4.62"/>
      <feFlood flood-color="#000" flood-opacity=".14"/>
      <feComposite in2="g" operator="in"/>
      <feComposite in="SourceGraphic"/>
    </filter>
  </defs>
  <g id="c" data-name="圖層 1">
    <path class="o" d="M193.35,9.18h878.41c6.08,0,11.01,4.93,11.01,11.01V102.3H182.34V20.19c0-6.08,4.93-11.01,11.01-11.01Z"/>
    <path class="h" d="M194.35,103.18h876.41c6.63,0,12.01,5.38,12.01,12.01V422.93H182.34V115.19c0-6.63,5.38-12.01,12.01-12.01Z" transform="translate(1265.1 526.11) rotate(180)"/>
    <g>
      <path class="i" d="M328.7,64.18h-4.58v1.78h-1.89v-15.59h6.47v13.82Zm-4.58-12.06v4.2h2.66v-4.2h-2.66Zm2.66,10.33v-4.41h-2.66v4.41h2.66Zm9.55-9.3v2.38h4.6v1.69h-1.78v2.01h2.35v1.71h-2.35v5.14c0,1-.24,1.53-.97,1.8-.77,.31-1.91,.33-3.61,.33-.09-.52-.4-1.3-.68-1.82,1.23,.04,2.44,.04,2.79,.04,.35-.02,.46-.1,.46-.4v-5.1h-7.99v-1.71h7.99v-2.01h-7.19v-1.69h4.36v-2.38h-5.21v-1.74h5.21v-2.38h2.02v2.38h5.26v1.74h-5.26Zm-4.36,8.32c.97,1.05,2.18,2.49,2.75,3.45l-1.8,1.02c-.51-.94-1.67-2.49-2.64-3.59l1.69-.88Z"/>
      <path class="i" d="M351.85,57.15v11.08h-2.02v-18.35h8.12v7.28h-6.09Zm0-5.81v1.44h4.16v-1.44h-4.16Zm4.16,4.37v-1.55h-4.16v1.55h4.16Zm11.99,10.1c0,1.11-.24,1.74-1.03,2.07-.77,.31-1.98,.33-3.83,.33-.09-.52-.37-1.36-.64-1.9h-5.94v1.04h-1.87v-8.76h8.25v7.65c1.08,.04,2.13,.02,2.49,.02,.4-.02,.51-.13,.51-.48v-8.59h-6.25v-7.32h8.32v15.93Zm-11.44-5.75v1.63h4.47v-1.63h-4.47Zm4.47,4.79v-1.73h-4.47v1.73h4.47Zm.62-13.5v1.44h4.29v-1.44h-4.29Zm4.29,4.41v-1.59h-4.29v1.59h4.29Z"/>
    </g>
    <g>
      <path class="i" d="M729.52,58.7c-.84-.75-2.6-1.71-4.03-2.3l1.08-1.46c1.41,.52,3.19,1.42,4.09,2.11l-1.14,1.65Zm2.11,2.63c-1.17,2.17-2.62,4.66-3.94,6.65l-1.72-1.32c1.17-1.59,2.86-4.24,4.14-6.63l1.52,1.3Zm-1.41-8.07c-.75-.79-2.42-1.88-3.76-2.55l1.14-1.42c1.34,.63,3.04,1.65,3.85,2.42l-1.23,1.55Zm3.3,5.64h1.85v2.11c0,2.3-.35,5.08-3.17,7.13-.31-.4-.99-1.02-1.43-1.27,2.49-1.76,2.75-4.06,2.75-5.9v-2.07Zm10.39,0c-.26-.4-.64-.9-1.06-1.42-8.56,.54-9.62,.63-10.32,.9-.11-.4-.44-1.32-.66-1.82,.48-.1,.99-.58,1.63-1.32,.31-.31,.86-.96,1.5-1.84h-3.3v-1.76h4.58c.53-.84,1.1-1.74,1.54-2.61l2,.75c-.37,.63-.79,1.25-1.19,1.86h6.67v1.76h-7.94c-.81,1.04-1.63,2.01-2.44,2.88l6.71-.38c-.48-.54-.95-1.09-1.34-1.59l1.54-.84c1.23,1.38,2.93,3.28,3.76,4.41l-1.67,1Zm-6.58,.17h1.8v8.26h-1.8v-8.26Zm7.13,7.19c.26,0,.73-.04,.99-.13,.02,.48,.09,1.11,.15,1.51-.29,.1-.73,.12-1.12,.12h-1.3c-1.72,0-2.05-.69-2.05-2.36v-6.5h1.89v6.54c0,.61,.04,.82,.33,.82h1.1Z"/>
      <path class="i" d="M759.53,62.13c-.29-.65-.95-1.8-1.54-2.8v8.93h-1.94v-8.68c-.73,2.01-1.63,3.95-2.6,5.21-.15-.54-.64-1.4-.95-1.9,1.14-1.42,2.35-3.91,3.06-6.12h-2.73v-1.8h3.21v-2.97c-.81,.15-1.63,.27-2.4,.38-.09-.42-.31-1.09-.55-1.5,2.2-.4,4.69-.98,6.21-1.67l1.14,1.59c-.73,.29-1.58,.52-2.46,.75v3.43h2.66v1.8h-2.66v.44c.59,.67,2.31,2.82,2.68,3.34l-1.14,1.59Zm13.31,3.91v1.74h-12.59v-1.74h5.46v-2.4h-4.29v-1.67h4.29v-2.15c-1.23,.13-2.49,.21-3.63,.25-.02-.42-.29-1.09-.48-1.5,3.08-.19,6.71-.56,8.8-1.15l1.3,1.46c-1.12,.29-2.51,.52-3.96,.71v2.38h4.22v1.67h-4.22v2.4h5.1Zm-1.12-9.18h-10.14v-6.81h10.14v6.81Zm-1.98-5.16h-6.25v3.51h6.25v-3.51Z"/>
      <path class="i" d="M798.89,65.85c0,1.11-.24,1.71-1.06,2.03-.81,.31-2.13,.33-3.98,.33-.09-.56-.42-1.44-.73-1.99,1.34,.06,2.77,.04,3.17,.04,.4-.02,.53-.13,.53-.44v-4.14c-.46,.38-1.12,1.15-1.45,1.67-2.6-1.34-4.2-3.49-5.15-6.25-.95,2.91-2.64,5.04-5.35,6.38-.24-.42-.81-1.09-1.25-1.48v6.23h-2.07v-14.57h7.88c-.09-.65-.15-1.34-.22-2.03h-3.81v-1.71h5.59c.07,1.34,.18,2.59,.4,3.74h7.5v12.19Zm-15.27-3.97c2.66-1.28,4.31-3.37,5.08-6.31h-5.08v6.31Zm8.21-6.31c.84,2.84,2.35,4.93,5,6.1v-6.1h-5Z"/>
      <path class="i" d="M818.95,55.96c-.11,.19-.24,.36-.37,.52,2.46,2.55,5.48,4.14,8.96,5.37-.48,.42-1.03,1.07-1.32,1.61-.88-.35-1.74-.77-2.55-1.17v5.87h-2.09v-.59h-8.32v.65h-2v-5.69c-.86,.44-1.76,.86-2.66,1.19-.29-.48-.84-1.15-1.3-1.57,4.03-1.36,7.83-3.85,9.88-6.94l1.78,.73Zm-8.69-1.05h-2v-4.05h8.3c-.22-.52-.48-1.07-.75-1.55l2.11-.44c.37,.58,.79,1.36,1.06,1.99h7.63v4.05h-2.07v-2.3h-14.28v2.3Zm5.3-.94c-1.41,1.82-3.63,3.55-5.63,4.62-.29-.36-.99-1.13-1.41-1.46,1.94-.88,3.94-2.3,5.13-3.78l1.91,.63Zm6.01,11.89v-2.93h-8.32v2.93h8.32Zm.2-4.64c-1.54-.94-2.93-2.03-4.27-3.39-1.14,1.25-2.51,2.4-3.98,3.39h8.25Zm-1.3-7.86c1.91,1.09,4.4,2.76,5.61,3.93l-1.47,1.25c-1.14-1.15-3.56-2.91-5.54-4.08l1.41-1.11Z"/>
    </g>
    <g>
      <line class="k" x1="500.33" y1="22.46" x2="500.33" y2="105.91"/>
      <line class="j" x1="500.33" y1="120.69" x2="500.33" y2="405.5"/>
    </g>
    <line class="m" x1="519.18" y1="168.94" x2="1017.7" y2="168.94"/>
    <line class="m" x1="519.18" y1="232.71" x2="1017.7" y2="232.71"/>
    <line class="m" x1="519.18" y1="296.24" x2="1017.7" y2="296.24"/>
    <g>
      <path class="p" d="M734.23,143.93v9.19h-1.66v-15.02h6.68v5.83h-5.02Zm0-4.65v1.15h3.46v-1.15h-3.46Zm3.46,3.49v-1.25h-3.46v1.25h3.46Zm4.77,6.36v3.68h-1.49v-3.68h-2.18c-.14,1.14-.72,2.89-2.36,3.93-.23-.29-.74-.72-1.08-.94,1.33-.77,1.84-2.05,1.98-2.99h-2.05v-1.32h2.11v-1.62h-1.78v-1.27h8.73v1.27h-1.87v1.62h2.23v1.32h-2.23Zm-1.49-1.32v-1.62h-2.14v1.62h2.14Zm6.5,3.35c0,.87-.18,1.33-.77,1.61-.58,.26-1.48,.31-2.83,.29-.05-.43-.29-1.15-.54-1.57,.92,.02,1.84,.02,2.12,.02,.27-.02,.36-.1,.36-.36v-7.18h-5.17v-5.87h6.82v13.07Zm-5.22-11.89v1.15h3.56v-1.15h-3.56Zm3.56,3.52v-1.28h-3.56v1.28h3.56Z"/>
      <path class="p" d="M766.99,142.73c2.02,1.04,4.12,2.29,5.31,3.22l-.97,1.23c-1.35-1.16-4.05-2.77-6.37-3.97v2.74h-1.73v-2.79c-1.69,1.68-4.07,3.08-6.34,3.85-.25-.39-.77-1.01-1.15-1.35,2.09-.58,4.29-1.66,5.85-2.93h-5.42v-1.44h7.06v-1.52c-1.75,.15-3.51,.26-5.17,.31-.04-.38-.25-.99-.41-1.33,3.98-.17,8.62-.58,11.25-1.25l1.22,1.28c-1.48,.34-3.26,.62-5.17,.84v1.68h7.08v1.44h-5.04Zm-8.21,3.63h10.91v6.74h-1.73v-.55h-7.53v.56h-1.66v-6.76Zm1.66,1.25v1.27h7.53v-1.27h-7.53Zm7.53,3.7v-1.3h-7.53v1.3h7.53Z"/>
      <path class="p" d="M795.57,142.11c-.34,2.48-.97,4.72-1.94,6.59,.79,1.28,1.78,2.29,2.97,2.99-.41,.33-.97,.96-1.26,1.42-1.06-.72-1.94-1.69-2.68-2.84-.88,1.18-1.96,2.16-3.31,2.84-.22-.34-.58-.75-.95-1.09h-1.39v-.72h-3.04v1.04h-1.44v-4.19c-.29,1.51-.76,2.99-1.49,4.21-.27-.29-.92-.77-1.28-.92,1.49-2.46,1.64-5.94,1.64-8.42v-4.38c2.16-.22,4.7-.62,6.14-1.08l1.28,1.15c-1.62,.5-3.84,.84-5.87,1.06v.94h5.55v3.93c1.15-1.78,1.78-4.45,2.12-7.2l1.67,.22c-.14,1.01-.32,2-.56,2.96h4.77v1.49h-.92Zm-7.08,9.49c1.35-.67,2.43-1.68,3.28-2.94-.58-1.21-1.04-2.57-1.4-4-.27,.56-.56,1.08-.9,1.54-.25-.31-.9-.89-1.28-1.16l.02-.03h-5.33c-.04,.46-.07,.91-.13,1.38h5.74v5.22Zm-5.56-9.61v1.71h4.05v-1.71h-4.05Zm4.07,8.02v-2.34h-3.04v2.34h3.04Zm4.34-7.9l-.07,.22c.32,1.64,.81,3.21,1.42,4.62,.65-1.4,1.08-3.04,1.39-4.84h-2.74Z"/>
      <path class="p" d="M809.68,148.99c-1.76,.69-3.64,1.44-5.13,1.98l-.56-1.62c.61-.19,1.35-.43,2.14-.68v-5.64h-1.84v-1.51h1.84v-3.92h1.57v3.92h1.46v1.51h-1.46v5.1l1.66-.56,.32,1.44Zm10.77,2.57v1.21h-12.05v-1.21h12.05Zm-.13-11.51h-11.47v-1.2h4.84c-.22-.38-.49-.75-.74-1.06l1.35-.6c.45,.5,.94,1.16,1.13,1.66h4.88v1.2Zm-.79,5.99h-9.83v-5.37h9.83v5.37Zm-9.29,4.88v-4.26h8.62v4.26h-8.62Zm7.85-9.27h-7.02v3.42h7.02v-3.42Zm-6.32,6.71h5.49v-.79h-5.49v.79Zm0,1.66h5.49v-.8h-5.49v.8Zm5.24-5.53h-4.9v-2.22h4.9v2.22Zm-1.17-1.47h-2.61v.72h2.61v-.72Z"/>
    </g>
    <g>
      <path class="p" d="M738.02,212.01c-.34-.48-.97-1.27-1.58-1.93v7h-1.6v-6.59c-.68,.7-1.39,1.32-2.11,1.81-.11-.46-.49-1.32-.7-1.62,1.71-1.08,3.46-2.98,4.5-4.98h-4.14v-1.44h3.17c-.32-.63-.94-1.45-1.49-2.07l1.24-.75c.67,.63,1.35,1.51,1.67,2.12l-1.06,.7h1.44l.32-.07,.88,.58c-.47,1.27-1.15,2.48-1.94,3.59,.67,.6,2.07,1.97,2.45,2.34l-1.04,1.3Zm8.91,3.64c.34,0,.41-.38,.47-2.38,.34,.24,.99,.5,1.39,.6-.13,2.41-.49,3.1-1.71,3.1h-1.42c-1.4,0-1.75-.46-1.75-1.93v-5.71h-1.44c-.2,3.71-.85,6.33-4.21,7.83-.2-.41-.7-.99-1.06-1.27,3.01-1.25,3.49-3.4,3.67-6.57h-1.78v-6.86h8.66v6.86h-2.21v5.71c0,.53,.07,.62,.41,.62h.99Zm-6.28-7.77h5.44v-3.99h-5.44v3.99Z"/>
      <path class="p" d="M770.51,211.87v.87h1.64v1.11h-1.64v1.88c0,.67-.13,.96-.61,1.14-.47,.19-1.15,.19-2.11,.19-.09-.38-.25-.82-.43-1.18,.59,.02,1.19,.02,1.37,.02s.23-.03,.23-.21v-1.85h-3.39c.59,.46,1.24,1.1,1.57,1.56l-1.13,.82c-.29-.49-.99-1.21-1.58-1.71l.97-.67h-1.57v-1.11h5.13v-.87h-12.69v-1.18h16.49v1.18h-2.25Zm-.13-3.47c.11-.41,.25-.94,.38-1.49h-14.08v-1.13h14.49l.27-.05,1.15,.21c-.23,.94-.54,2-.79,2.7l-1.42-.24Zm-6.77-5.04h-6.73v-1.04h6.73v-.96h1.69v.96h6.91v1.04h-6.91v.75h5.47v1.01h-12.51v-1.01h5.35v-.75Zm-.4,12.83h-4.1v.56h-1.44v-4.19h5.55v3.62Zm.41-7.03v-.72h-4.38v-.89h10.3v.89h-4.29v.72h5.83v.91h-13.22v-.91h5.74Zm-4.52,4.45v1.52h2.61v-1.52h-2.61Z"/>
      <path class="p" d="M789.97,207.75c1.22,3.56,3.49,6.45,6.9,7.8-.41,.34-.97,1.01-1.24,1.49-3.37-1.49-5.55-4.26-6.95-7.88-.92,3.1-2.86,6.05-6.95,7.88-.27-.43-.81-.99-1.28-1.33,4.29-1.78,6.03-4.86,6.75-7.95h-6.39v-1.64h6.7c.22-1.71,.2-3.35,.22-4.72h1.82c-.02,1.38-.04,3.03-.25,4.72h7.26v1.64h-6.57Z"/>
      <path class="p" d="M821,211.61v1.51h-16.51v-1.51h1.78v-8.24h3.78v-2.05h1.55v2.05h2.25v-2.05h1.6v2.05h3.93v8.24h1.62Zm-9.65,2.55c-1.39,1.06-3.64,2.22-5.47,2.91-.29-.33-.88-.86-1.28-1.15,1.87-.65,4.09-1.78,5.19-2.72l1.57,.96Zm-3.46-9.32v2.55h2.16v-2.55h-2.16Zm0,6.77h2.16v-2.75h-2.16v2.75Zm3.71-6.77v2.55h2.25v-2.55h-2.25Zm2.25,4.02h-2.25v2.75h2.25v-2.75Zm1.55,4.33c1.91,.85,4.01,1.95,5.26,2.75l-1.53,1.06c-1.13-.79-3.08-1.92-4.9-2.77l1.17-1.04Zm.05-8.35v2.55h2.23v-2.55h-2.23Zm0,6.77h2.23v-2.75h-2.23v2.75Z"/>
    </g>
    <g>
      <path class="p" d="M737.62,274.11c-.58,.19-1.19,.36-1.78,.53v4.57c0,.8-.18,1.21-.65,1.47-.49,.24-1.19,.31-2.3,.29-.05-.38-.25-1.06-.47-1.47,.7,.02,1.37,.02,1.57,.02,.23,0,.31-.07,.31-.31v-4.11l-1.98,.6-.38-1.54c.65-.17,1.46-.38,2.36-.62v-3.4h-2.12v-1.47h2.12v-3.3h1.55v3.3h1.8v1.47h-1.8v2.98c.5-.15,1.04-.31,1.55-.45l.23,1.44Zm9.17,1.27c-.41,1.16-.97,2.09-1.73,2.86,1.26,.55,2.43,1.1,3.29,1.61l-1.15,1.16c-.83-.53-2.03-1.15-3.42-1.76-1.31,.84-3.08,1.38-5.4,1.78-.13-.43-.45-1.01-.74-1.33,1.84-.24,3.28-.62,4.41-1.16-1.13-.48-2.29-.89-3.35-1.23,.43-.53,.94-1.21,1.39-1.92h-2.3v-1.35h3.15c.32-.56,.63-1.15,.85-1.66l1.58,.31c-.22,.43-.45,.91-.72,1.35h2.83c.07-.32,.14-.65,.22-1.01l1.62,.26c-.05,.26-.09,.5-.14,.75h1.51v1.35h-1.89Zm1.64-3.08h-10.43v-1.35h2.86c-.18-.55-.68-1.42-1.13-2.07l1.39-.48c.49,.63,1.03,1.47,1.22,2.04l-1.37,.51h3.01c.41-.7,.97-1.76,1.22-2.5l1.58,.41c-.4,.72-.81,1.47-1.21,2.09h2.84v1.35Zm-.34-3.93h-9.65v-1.35h4.16c-.18-.48-.43-1.01-.68-1.44l1.84-.31c.32,.51,.65,1.2,.88,1.74h3.46v1.35Zm-6.25,7.01c-.27,.46-.58,.91-.86,1.32,.79,.26,1.64,.56,2.48,.89,.68-.6,1.19-1.32,1.57-2.21h-3.19Z"/>
      <path class="p" d="M758.12,276.55c-.18,1.47-.49,3.06-.83,4.12-.29-.15-.9-.36-1.22-.45,.41-1.01,.65-2.53,.77-3.9l1.28,.22Zm-1.55-4.79c-.11-.31-.29-.92-.43-1.25,.29-.09,.59-.43,.94-.92,.38-.5,1.55-2.41,2.21-4.24l1.37,.56c-.7,1.52-1.62,3.13-2.56,4.38l1.64-.12c.45-.77,.92-1.59,1.3-2.39l1.26,.75c-1.08,1.97-2.47,3.95-3.87,5.54l2.72-.36c-.2-.55-.41-1.11-.65-1.61l1.1-.38c.52,1.03,1.03,2.38,1.21,3.22l-1.19,.46c-.04-.17-.07-.36-.13-.58-3.87,.6-4.43,.72-4.79,.91v-.14c-.11-.33-.31-.91-.43-1.23,.38-.09,.77-.51,1.3-1.15,.25-.29,.77-.92,1.33-1.76-1.67,.17-2.07,.27-2.32,.39v-.09Zm3.35,4.48c.22,1.15,.41,2.6,.47,3.58l-1.21,.29c-.04-.98-.22-2.46-.41-3.61l1.15-.26Zm12.62-2.72c-.52,.34-1.12,.67-1.75,1.01,.34,1.81,.99,3.51,2.11,4.34-.36,.26-.81,.79-1.04,1.16-1.19-1.03-1.85-2.88-2.23-4.94-.31,.15-.59,.29-.86,.41,.85,2.09,.45,4.28-.49,4.99-.45,.41-.88,.51-1.57,.53-.32,0-.72-.02-1.12-.04,0-.36-.09-.92-.36-1.33,.47,.05,.83,.09,1.17,.09s.65-.05,.88-.34c.31-.29,.52-1.06,.43-2-1.26,1.08-2.97,2.12-4.45,2.72-.18-.29-.49-.7-.79-.97l-.81,.27c-.16-.91-.58-2.26-.97-3.3l1.08-.32c.38,.97,.81,2.22,1.01,3.1,1.67-.6,3.56-1.74,4.63-2.87-.09-.26-.2-.55-.36-.84-.99,.77-2.34,1.57-3.42,2.05-.2-.32-.58-.8-.86-1.08,1.17-.36,2.7-1.15,3.64-1.92-.18-.21-.4-.43-.63-.63-.74,.46-1.53,.87-2.29,1.2-.18-.27-.61-.82-.88-1.08,1.24-.45,2.56-1.08,3.58-1.83h-3.44v-1.27h6.07l.18-.87h-5.2c.38-1.18,.85-3.04,1.13-4.48l1.53,.17c-.05,.29-.13,.58-.22,.91h3.53l.27-.07,1.1,.17c-.22,1.28-.54,2.82-.85,4.17h2.48v1.27h-4.75c-.36,.36-.76,.68-1.19,1.01,.54,.46,1.01,.99,1.35,1.52,1.13-.55,2.43-1.28,3.28-1.88l1.08,.97Zm-3.31-4.89c.07-.39,.16-.8,.23-1.15h-3.51c-.13,.39-.23,.79-.34,1.15h3.62Z"/>
      <path class="p" d="M795.19,280.81c-.27-.5-.65-1.11-1.08-1.78-9.89,.72-11,.79-11.74,1.08-.11-.31-.4-1.15-.61-1.59,.63-.12,1.33-.53,2.49-1.27,.7-.43,2.23-1.51,3.91-2.89-4.25,.27-4.92,.36-5.35,.51-.09-.33-.36-1.13-.58-1.57,.43-.09,.81-.39,1.31-.8,.5-.41,1.94-1.74,3.04-3.21h-5.82v-1.56h7.22c-.34-.62-.79-1.35-1.19-1.93l1.55-.51c.58,.77,1.22,1.76,1.55,2.43l-.05,.02h6.66v1.56h-8.66l.76,.38c-1.06,1.28-2.3,2.51-3.55,3.54l4.75-.24c.81-.74,1.62-1.52,2.34-2.31l1.57,1.01c-2.58,2.58-5.44,4.79-8.23,6.52l7.69-.46c-.52-.72-1.1-1.42-1.62-2.04l1.44-.72c1.42,1.54,2.97,3.61,3.73,4.96l-1.53,.89Z"/>
      <path class="p" d="M810.43,275.8c-.25-.51-.86-1.47-1.4-2.26v7.47h-1.62v-6.93c-.67,1.56-1.48,3.01-2.3,3.99-.16-.43-.56-1.08-.81-1.47,1.06-1.16,2.21-3.2,2.88-5.01h-2.65v-1.49h2.88v-2.29c-.77,.14-1.55,.24-2.27,.34-.05-.34-.29-.91-.47-1.23,2.02-.31,4.32-.8,5.73-1.38l.95,1.3c-.68,.26-1.48,.46-2.32,.65v2.62h2.52v1.49h-2.52v.24c.54,.53,2.07,2.28,2.41,2.72l-1.01,1.25Zm8.44,.84v4.38h-1.66v-4.11l-5.67,.91-.25-1.52,5.92-.94v-10.02h1.66v9.77l1.96-.31,.25,1.49-2.21,.36Zm-3.92-2.31c-.59-.74-1.91-1.83-3.01-2.55l1.06-.92c1.08,.68,2.45,1.71,3.08,2.43l-1.13,1.04Zm.45-4.5c-.54-.72-1.76-1.76-2.79-2.48l1.1-.91c1.03,.67,2.27,1.66,2.86,2.38l-1.17,1.01Z"/>
    </g>
    <line class="m" x1="227.36" y1="168.94" x2="474.86" y2="168.94"/>
    <line class="m" x1="227.36" y1="232.71" x2="474.86" y2="232.71"/>
    <line class="m" x1="227.36" y1="296.24" x2="474.86" y2="296.24"/>
    <line class="m" x1="519.18" y1="363.06" x2="1017.7" y2="363.06"/>
    <line class="m" x1="227.36" y1="363.06" x2="474.86" y2="363.06"/>
    <g>
      <path class="p" d="M314.39,145.41c0-4.36,1.67-6.48,4.29-6.48s4.29,2.14,4.29,6.48-1.69,6.57-4.29,6.57-4.29-2.19-4.29-6.57Zm6.59,0c0-3.61-.95-4.93-2.3-4.93s-2.3,1.32-2.3,4.93,.95,5.01,2.3,5.01,2.3-1.37,2.3-5.01Z"/>
      <path class="p" d="M327.35,149.43c.52,.56,1.33,.94,2.18,.94,1.6,0,2.99-1.23,3.12-4.82-.77,.91-1.91,1.47-2.92,1.47-2.21,0-3.71-1.32-3.71-3.95,0-2.5,1.8-4.14,3.94-4.14,2.54,0,4.59,1.95,4.59,6.11,0,4.96-2.38,6.95-4.93,6.95-1.53,0-2.61-.58-3.38-1.33l1.12-1.21Zm5.26-5.37c-.2-2.48-1.19-3.61-2.63-3.61-1.13,0-2.03,.98-2.03,2.62s.76,2.53,2.14,2.53c.81,0,1.73-.44,2.52-1.54Z"/>
      <path class="p" d="M343.73,143.89c0-.8,.61-1.4,1.39-1.4s1.39,.6,1.39,1.4-.61,1.37-1.39,1.37-1.39-.58-1.39-1.37Zm0,6.72c0-.8,.61-1.4,1.39-1.4s1.39,.6,1.39,1.4-.61,1.37-1.39,1.37-1.39-.56-1.39-1.37Z"/>
      <path class="p" d="M355.57,145.41c0-4.36,1.67-6.48,4.29-6.48s4.29,2.14,4.29,6.48-1.69,6.57-4.29,6.57-4.29-2.19-4.29-6.57Zm6.59,0c0-3.61-.95-4.93-2.3-4.93s-2.3,1.32-2.3,4.93,.95,5.01,2.3,5.01,2.3-1.37,2.3-5.01Z"/>
      <path class="p" d="M367.27,145.41c0-4.36,1.67-6.48,4.29-6.48s4.29,2.14,4.29,6.48-1.69,6.57-4.29,6.57-4.29-2.19-4.29-6.57Zm6.59,0c0-3.61-.95-4.93-2.3-4.93s-2.3,1.32-2.3,4.93,.95,5.01,2.3,5.01,2.3-1.37,2.3-5.01Z"/>
    </g>
    <g>
      <path class="p" d="M314.74,214.09h2.9v-8.76h-2.38v-1.25c1.24-.22,2.12-.51,2.88-.96h1.57v10.96h2.59v1.62h-7.56v-1.62Z"/>
      <path class="p" d="M326.44,214.09h2.9v-8.76h-2.38v-1.25c1.24-.22,2.12-.51,2.88-.96h1.57v10.96h2.59v1.62h-7.56v-1.62Z"/>
      <path class="p" d="M343.38,207.85c0-.8,.61-1.4,1.39-1.4s1.39,.6,1.39,1.4-.61,1.37-1.39,1.37-1.39-.58-1.39-1.37Zm0,6.72c0-.8,.61-1.4,1.39-1.4s1.39,.6,1.39,1.4-.61,1.37-1.39,1.37-1.39-.56-1.39-1.37Z"/>
      <path class="p" d="M354.88,214.21l1.01-1.27c.77,.75,1.76,1.38,3.13,1.38,1.49,0,2.52-.79,2.52-2.09,0-1.4-.94-2.31-3.93-2.31v-1.46c2.61,0,3.48-.94,3.48-2.21,0-1.11-.77-1.81-2.03-1.83-1.03,.02-1.89,.5-2.65,1.2l-1.08-1.23c1.04-.89,2.27-1.52,3.8-1.52,2.38,0,4.05,1.16,4.05,3.25,0,1.46-.88,2.46-2.29,2.96v.09c1.53,.36,2.74,1.46,2.74,3.15,0,2.27-2,3.61-4.43,3.61-2.09,0-3.44-.79-4.32-1.73Z"/>
      <path class="p" d="M366.92,209.37c0-4.36,1.67-6.48,4.29-6.48s4.29,2.14,4.29,6.48-1.69,6.57-4.29,6.57-4.29-2.19-4.29-6.57Zm6.59,0c0-3.61-.95-4.93-2.3-4.93s-2.3,1.32-2.3,4.93,.95,5.01,2.3,5.01,2.3-1.37,2.3-5.01Z"/>
    </g>
    <g>
      <path class="p" d="M314.74,278.06h2.9v-8.76h-2.38v-1.25c1.24-.22,2.12-.51,2.88-.96h1.57v10.96h2.59v1.62h-7.56v-1.62Z"/>
      <path class="p" d="M334.61,276.29h-1.69v3.39h-1.94v-3.39h-5.73v-1.32l5.28-7.88h2.39v7.68h1.69v1.52Zm-3.64-1.52v-3.3c0-.68,.07-1.74,.11-2.43h-.07c-.32,.63-.68,1.28-1.06,1.93l-2.61,3.8h3.64Z"/>
      <path class="p" d="M343.38,271.81c0-.8,.61-1.4,1.39-1.4s1.39,.6,1.39,1.4-.61,1.37-1.39,1.37-1.39-.58-1.39-1.37Zm0,6.72c0-.8,.61-1.4,1.39-1.4s1.39,.6,1.39,1.4-.61,1.37-1.39,1.37-1.39-.56-1.39-1.37Z"/>
      <path class="p" d="M355.22,273.34c0-4.36,1.67-6.48,4.29-6.48s4.29,2.14,4.29,6.48-1.69,6.57-4.29,6.57-4.29-2.19-4.29-6.57Zm6.59,0c0-3.61-.95-4.93-2.3-4.93s-2.3,1.32-2.3,4.93,.95,5.01,2.3,5.01,2.3-1.37,2.3-5.01Z"/>
      <path class="p" d="M366.92,273.34c0-4.36,1.67-6.48,4.29-6.48s4.29,2.14,4.29,6.48-1.69,6.57-4.29,6.57-4.29-2.19-4.29-6.57Zm6.59,0c0-3.61-.95-4.93-2.3-4.93s-2.3,1.32-2.3,4.93,.95,5.01,2.3,5.01,2.3-1.37,2.3-5.01Z"/>
    </g>
    <g>
      <path class="p" d="M737.03,336.16h-4.86v-1.28h4.86v1.28Zm-.47,10.61h-2.59v.75h-1.24v-5.75h3.84v5Zm-3.78-9.6h3.8v1.25h-3.8v-1.25Zm0,2.27h3.8v1.25h-3.8v-1.25Zm1.62-4.6c-.13-.6-.52-1.59-.92-2.31l1.21-.43c.4,.7,.85,1.64,.99,2.26l-1.28,.48Zm-.43,8.18v2.5h1.33v-2.5h-1.33Zm9.79-2.41c-.41,.63-.86,1.21-1.4,1.78v3.68c0,.68-.14,1.08-.61,1.32-.47,.22-1.21,.26-2.27,.26-.05-.36-.27-.97-.49-1.32,.74,.03,1.48,.02,1.67,.02,.23,0,.31-.07,.31-.29v-2.31c-1.1,.96-2.29,1.8-3.48,2.45-.13-.29-.49-.94-.7-1.25,1.42-.68,2.88-1.68,4.09-2.82-1.33,.15-2.63,.29-3.73,.39l-.13-1.25,.67-.05v-7.29h1.33c.2-.63,.4-1.35,.49-1.92l1.64,.26c-.23,.55-.49,1.15-.7,1.66h1.91v6.48l.16-.24,1.24,.44Zm-2.79-5.44h-1.91v1.2h1.91v-1.2Zm0,2.34h-1.91v1.18h1.91v-1.18Zm-1.91,3.56l1.91-.15v-1.08h-1.91v1.23Zm9.33-3.95h-.94v8.78c0,.8-.18,1.2-.68,1.44-.52,.24-1.31,.29-2.48,.29-.09-.38-.34-1.03-.54-1.42,.81,.03,1.6,.03,1.85,.03,.25-.02,.34-.09,.34-.36v-8.76h-3.13v-1.45h3.13v-3.52h1.51v3.52h.94v1.45Zm-4.07,5.54c-.16-1.01-.68-2.69-1.26-3.99l1.24-.33c.61,1.23,1.17,2.89,1.35,3.9l-1.33,.41Z"/>
      <path class="p" d="M761.61,343.6c-1.76,.68-3.64,1.44-5.13,1.98l-.56-1.62c.61-.19,1.35-.43,2.14-.68v-5.64h-1.84v-1.51h1.84v-3.92h1.57v3.92h1.46v1.51h-1.46v5.1l1.66-.56,.32,1.44Zm10.77,2.57v1.21h-12.05v-1.21h12.05Zm-.13-11.51h-11.47v-1.2h4.84c-.22-.38-.49-.75-.74-1.06l1.35-.6c.45,.5,.94,1.16,1.13,1.66h4.88v1.2Zm-.79,5.99h-9.83v-5.37h9.83v5.37Zm-9.29,4.88v-4.26h8.62v4.26h-8.62Zm7.85-9.27h-7.02v3.42h7.02v-3.42Zm-6.32,6.71h5.49v-.79h-5.49v.79Zm0,1.66h5.49v-.8h-5.49v.8Zm5.24-5.53h-4.9v-2.22h4.9v2.22Zm-1.17-1.47h-2.61v.72h2.61v-.72Z"/>
      <path class="p" d="M794.95,347.5c-.27-.5-.65-1.11-1.08-1.78-9.89,.72-11,.79-11.74,1.08-.11-.31-.4-1.15-.61-1.59,.63-.12,1.33-.53,2.48-1.27,.7-.43,2.23-1.51,3.91-2.89-4.25,.27-4.92,.36-5.35,.51-.09-.33-.36-1.13-.58-1.57,.43-.09,.81-.39,1.31-.8,.5-.41,1.94-1.74,3.04-3.21h-5.82v-1.56h7.22c-.34-.62-.79-1.35-1.19-1.93l1.55-.51c.58,.77,1.22,1.76,1.55,2.43l-.05,.02h6.66v1.56h-8.66l.76,.38c-1.06,1.28-2.3,2.51-3.55,3.54l4.75-.24c.81-.74,1.62-1.52,2.34-2.31l1.57,1.01c-2.57,2.58-5.44,4.79-8.23,6.52l7.69-.46c-.52-.72-1.1-1.42-1.62-2.04l1.44-.72c1.42,1.54,2.97,3.61,3.73,4.96l-1.53,.89Z"/>
      <path class="p" d="M810.2,342.49c-.25-.51-.86-1.47-1.4-2.26v7.47h-1.62v-6.93c-.67,1.56-1.48,3.01-2.3,3.99-.16-.43-.56-1.08-.81-1.47,1.06-1.16,2.21-3.2,2.88-5.01h-2.65v-1.49h2.88v-2.29c-.77,.14-1.55,.24-2.27,.34-.05-.34-.29-.91-.47-1.23,2.02-.31,4.32-.8,5.73-1.38l.95,1.3c-.68,.26-1.48,.46-2.32,.65v2.62h2.52v1.49h-2.52v.24c.54,.53,2.07,2.28,2.41,2.72l-1.01,1.25Zm8.44,.84v4.38h-1.66v-4.11l-5.67,.91-.25-1.52,5.92-.94v-10.02h1.66v9.77l1.96-.31,.25,1.49-2.21,.36Zm-3.93-2.31c-.59-.74-1.91-1.83-3.01-2.55l1.06-.92c1.08,.68,2.45,1.71,3.08,2.43l-1.13,1.04Zm.45-4.5c-.54-.72-1.76-1.76-2.79-2.48l1.1-.91c1.03,.67,2.27,1.66,2.86,2.38l-1.17,1.01Z"/>
    </g>
    <g>
      <path class="p" d="M314.74,344.74h2.9v-8.76h-2.38v-1.25c1.24-.22,2.12-.51,2.88-.96h1.57v10.96h2.59v1.62h-7.56v-1.62Z"/>
      <path class="p" d="M332,335.44h-6.23v-1.66h8.53v1.2c-3.11,3.69-3.6,6.46-3.82,11.39h-2.12c.23-4.6,1.08-7.54,3.64-10.93Z"/>
      <path class="p" d="M343.38,338.5c0-.8,.61-1.4,1.39-1.4s1.39,.6,1.39,1.4-.61,1.37-1.39,1.37-1.39-.58-1.39-1.37Zm0,6.72c0-.8,.61-1.4,1.39-1.4s1.39,.6,1.39,1.4-.61,1.37-1.39,1.37-1.39-.56-1.39-1.37Z"/>
      <path class="p" d="M354.88,344.86l1.01-1.27c.77,.75,1.76,1.39,3.13,1.39,1.49,0,2.52-.79,2.52-2.09,0-1.4-.94-2.31-3.93-2.31v-1.45c2.61,0,3.48-.94,3.48-2.21,0-1.11-.77-1.81-2.03-1.83-1.03,.02-1.89,.5-2.65,1.2l-1.08-1.23c1.04-.89,2.27-1.52,3.8-1.52,2.38,0,4.05,1.16,4.05,3.25,0,1.45-.88,2.46-2.29,2.96v.09c1.53,.36,2.74,1.45,2.74,3.15,0,2.27-2,3.61-4.43,3.61-2.09,0-3.44-.79-4.32-1.73Z"/>
      <path class="p" d="M366.92,340.02c0-4.36,1.67-6.48,4.29-6.48s4.29,2.14,4.29,6.48-1.69,6.57-4.29,6.57-4.29-2.19-4.29-6.57Zm6.59,0c0-3.61-.95-4.93-2.3-4.93s-2.3,1.32-2.3,4.93,.95,5.01,2.3,5.01,2.3-1.37,2.3-5.01Z"/>
    </g>
    <rect class="l" x="29.03" y="196.25" width="37.14" height="171.97"/>
    <g>
      <path class="i" d="M56.25,221.25c-1.13,.45-2.28,.92-3.34,1.26,1.23,.45,2.68,.72,4.34,.87-.45,.45-1.02,1.38-1.3,2-4.42-.6-7.17-2.19-8.81-5.11h-1.91v2.55l3.21-.62c-.04,.6-.04,1.47,0,1.96-4.55,1-5.3,1.15-5.72,1.4-.08-.55-.43-1.55-.7-1.98,.38-.17,.87-.57,.87-1.51v-1.81h-1.36c-.3,1.85-.92,3.72-2.04,5.19-.47-.38-1.53-1.04-2.13-1.3,1.85-2.28,2.06-5.47,2.06-7.68v-2.74h16.83v1.79h-14.42v.66h13.59v1.57h-13.61c-.02,.23-.04,.47-.04,.72h15.04v1.79h-1.7l1.15,.98Zm-.85-8.17h-15.83v-6.23h4.3v-1.3h2.47v1.3h2.04v-1.3h2.49v1.3h4.53v6.23Zm-13.51-3.85h1.98v-.85h-1.98v.85Zm0,2.3h1.98v-.85h-1.98v.85Zm4.45-3.15v.85h2.04v-.85h-2.04Zm0,2.3v.85h2.04v-.85h-2.04Zm3.21,9.59c.36,.47,.85,.89,1.4,1.23,.83-.3,1.79-.79,2.62-1.23h-4.02Zm3.42-11.89h-2.11v.85h2.11v-.85Zm0,2.3h-2.11v.85h2.11v-.85Z"/>
      <path class="i" d="M56.94,233.27h-2.3l1.02,1.34c-.66,.21-1.45,.4-2.3,.55v1.13h3.04v1.6h-3.02c.94,.53,3,1.89,3.53,2.28l-1.08,1.64c-.53-.51-1.55-1.34-2.47-2.04v2.15h-2.11v-2.4c-.64,.96-1.38,1.79-2.15,2.36-.32-.49-.94-1.17-1.38-1.53,.96-.53,1.96-1.45,2.66-2.45h-1.68v-1.6h2.55v-.85c-.66,.06-1.3,.11-1.89,.13-.06-.4-.28-.98-.49-1.38,1.89-.15,4.15-.45,5.55-.91h-13.55v4.28c0,.81,0,1.68-.04,2.62,.89-.53,1.79-1.4,2.45-2.32h-1.81v-1.57h2.45v-.77c-.64,.06-1.28,.11-1.83,.15-.06-.38-.28-.96-.49-1.36,1.83-.17,4.02-.49,5.25-.98l1.13,1.36c-.57,.21-1.25,.38-2,.51v1.08h2.06v1.57h-2.06v.04c.55,.32,1.87,1.15,2.23,1.43l-1.21,1.53c-.21-.26-.62-.62-1.02-1v2.06h-2.06v-2.11c-.55,.79-1.19,1.47-1.81,1.96-.3-.45-.85-1.02-1.28-1.4-.11,3.21-.47,7.04-1.47,9.74-.49-.36-1.57-.94-2.17-1.15,1.23-3.28,1.32-8.06,1.32-11.38v-6.57h18.42v2.28Zm-14.44,9.1h12.66v7.7h-2.62v-.66h-7.55v.68h-2.49v-7.72Zm2.49,1.74v1h7.55v-1h-7.55Zm7.55,3.53v-.98h-7.55v.98h7.55Z"/>
      <path class="i" d="M45.39,264.67c-.47,6.62-1.47,14.34-6.08,18.4-.45-.51-1.45-1.38-2.06-1.77,4.3-3.64,5.1-10.81,5.4-16.8l2.74,.17Zm5.59-.62c.72,6.85,2.4,13.76,6.19,17.36-.74,.38-1.89,1.17-2.55,1.77-3.55-3.85-5.13-10.21-5.91-16.57h-1.6v-2.55h3.87Z"/>
      <path class="i" d="M54.45,304.45c0,1.53-.36,2.25-1.34,2.68-1.02,.45-2.51,.49-4.7,.49-.15-.74-.66-1.96-1.06-2.66,1.49,.09,3.28,.06,3.74,.06,.51,0,.68-.17,.68-.62v-3.08h-9.1c-.55,2.38-1.62,4.7-3.59,6.36-.38-.53-1.4-1.47-1.96-1.83,3.21-2.74,3.51-6.81,3.51-10.04v-7h13.83v15.63Zm-2.68-5.57v-2.59h-8.53c-.02,.81-.06,1.7-.15,2.59h8.68Zm-8.53-7.59v2.59h8.53v-2.59h-8.53Z"/>
      <path class="i" d="M56.96,322.76h-8.32v9.59h-2.77v-9.59h-8.19v-2.64h8.19v-7.62h2.77v7.62h8.32v2.64Z"/>
      <path class="i" d="M56.79,353.52v2.51h-18.97v-2.51h4.91c.36-1.72,.74-3.72,1.11-5.81h-3.62v-2.49h4c.19-1.21,.36-2.45,.51-3.62h-5.7v-2.51h16.38v2.51h-7.87c-.17,1.17-.36,2.4-.55,3.62h3.94l.45-.08,2.02,.15c-.13,2.49-.4,5.49-.7,8.23h4.11Zm-10.19-5.81c-.36,2.11-.72,4.1-1.06,5.81h4.45c.21-1.94,.4-4.06,.53-5.81h-3.91Z"/>
    </g>
    <g class="n">
      <g>
        <path class="i" d="M20.65,33.15c0,2.9-.28,5.3-.84,7.2-.56,1.89-1.32,3.38-2.29,4.45-.97,1.08-2.07,1.83-3.31,2.28-1.24,.44-2.53,.66-3.89,.66s-2.65-.25-3.89-.74c-1.24-.5-2.34-1.31-3.31-2.44-.97-1.13-1.73-2.62-2.29-4.49-.56-1.86-.84-4.17-.84-6.92V9.92H20.65v23.23ZM6.45,17.99v14.84c0,1.21,.08,2.23,.24,3.07,.16,.84,.4,1.51,.73,2.02,.32,.5,.73,.87,1.21,1.1,.48,.23,1.05,.34,1.69,.34s1.21-.11,1.69-.34,.89-.59,1.21-1.1c.32-.51,.56-1.18,.73-2.02,.16-.84,.24-1.86,.24-3.07v-14.84H6.45Z"/>
        <path class="i" d="M0,48.06l20.65,13.84v8.97L0,84.85v-8.87l18.49-11.97v4.81L0,56.94v-8.87Zm3.13,7.23H7.97v22.07H3.13v-22.07Z"/>
        <path class="i" d="M20.65,114.05l-15.39-13.07H0v-8.07H5.26l15.39-13.07v9.52l-13.39,10.62v-5.97l13.39,10.52v9.52Z"/>
        <path class="i" d="M9.68,125.02h6.13v14H0v-7.74H9.68v-6.26Z"/>
      </g>
    </g>
    <g>
      <path class="i" d="M65.62,16.15h-6.55c.98,.8,2.01,1.7,2.61,2.39l-2.73,2.39h3.11v9.58h-12.01v2.23h13.86s-.04,1.1-.11,1.63c-.38,5.04-.83,7.5-1.82,8.48-.79,.91-1.7,1.21-2.88,1.33-1.06,.11-2.84,.15-4.81,.08-.08-1.33-.53-2.99-1.25-4.09,1.59,.15,3.18,.19,3.86,.15,.57,0,.95-.04,1.29-.34,.38-.38,.68-1.4,.91-3.48h-9.05v9.35h-4.43v-7.39c-3.18,3.11-7.38,5.68-11.51,7.23-.64-1.1-1.89-2.73-2.84-3.56,3.94-1.17,8.03-3.26,10.98-5.64h-8.14c.57-2.58,1.14-6.51,1.4-9.7h10.11v-2.16h-11.51v-3.71h7.73c-.83-1.06-2.31-2.46-3.48-3.48l1.44-1.25h-2.23c-1.21,1.89-2.58,3.6-3.86,4.89-.64-.76-2.16-2.35-3.03-3.03,2.23-1.97,4.32-4.96,5.49-7.95l3.98,1.14c-.19,.49-.42,1.02-.68,1.51h8.33v3.45h-5.42c1.02,.87,2.01,1.82,2.58,2.5l-2.42,2.23h15.98c-.83-1.02-2.46-2.39-3.67-3.37l1.63-1.4h-3.11c-.91,1.44-1.93,2.69-2.95,3.67-.76-.76-2.39-2.04-3.37-2.61,2.08-1.78,3.79-4.43,4.73-7.12l4.09,1.02c-.19,.53-.42,1.1-.64,1.63h10.42v3.41Zm-20,14.35h-6.17c-.11,.76-.19,1.52-.3,2.23h6.48v-2.23Zm11.97-5.87h-7.54v2.16h7.54v-2.16Z"/>
      <path class="i" d="M65.69,71.53v4.89H30.85v-4.89h34.84Z"/>
      <path class="i" d="M51.45,121.37c2.65,6.02,7.5,10.45,14.88,12.38-1.1,.95-2.46,2.92-3.11,4.2-7.12-2.27-11.7-6.67-14.88-12.88-2.08,5.04-6.36,9.81-14.88,12.99-.61-1.14-1.97-3.03-2.95-3.9,8.75-3.11,12.46-7.99,14.01-12.8h-12.69v-4.62h13.63c.08-1.02,.11-1.97,.11-2.92v-3.83h-12.38v-4.62h30v4.62h-12.88v3.9c0,.91-.04,1.86-.08,2.84h14.43v4.62h-13.22Z"/>
    </g>
  </g>
</svg>