<?xml version="1.0" encoding="UTF-8"?>
<svg id="b" data-name="圖層 2" xmlns="http://www.w3.org/2000/svg" width="316" height="479.12" xmlns:xlink="http://www.w3.org/1999/xlink" viewBox="0 0 316 479.12">
  <defs>
    <style>
      .h {
        filter: url(#f);
      }

      .h, .i {
        fill: #fff;
      }

      .j {
        fill: #fc462d;
        stroke-width: .45px;
      }

      .j, .k {
        stroke: #fff;
      }

      .j, .k, .l, .m {
        stroke-miterlimit: 10;
      }

      .k {
        stroke-width: .83px;
      }

      .k, .m {
        fill: none;
      }

      .n {
        opacity: .35;
      }

      .o {
        fill: #e8b356;
        filter: url(#d);
      }

      .p, .l {
        fill: #595757;
      }

      .l {
        stroke-width: .83px;
      }

      .l, .m {
        stroke: #9fa0a0;
      }

      .m {
        stroke-width: .82px;
      }
    </style>
    <filter id="d" data-name="drop-shadow-1" filterUnits="userSpaceOnUse">
      <feOffset dx="2.4" dy="2.4"/>
      <feGaussianBlur result="e" stdDeviation="2.4"/>
      <feFlood flood-color="#000" flood-opacity=".14"/>
      <feComposite in2="e" operator="in"/>
      <feComposite in="SourceGraphic"/>
    </filter>
    <filter id="f" data-name="drop-shadow-2" filterUnits="userSpaceOnUse">
      <feOffset dx="2.62" dy="2.62"/>
      <feGaussianBlur result="g" stdDeviation="2.62"/>
      <feFlood flood-color="#000" flood-opacity=".14"/>
      <feComposite in2="g" operator="in"/>
      <feComposite in="SourceGraphic"/>
    </filter>
  </defs>
  <g id="c" data-name="圖層 2">
    <rect class="j" x="182.31" y=".96" width="22.45" height="103.96"/>
    <g>
      <path class="i" d="M199.26,16.96c-.74,.29-1.5,.6-2.2,.83,.81,.29,1.77,.48,2.86,.57-.29,.29-.67,.91-.85,1.32-2.91-.39-4.72-1.44-5.8-3.36h-1.26v1.68l2.12-.41c-.03,.39-.03,.97,0,1.29-3,.66-3.49,.76-3.77,.92-.06-.36-.28-1.02-.46-1.3,.25-.11,.57-.38,.57-.99v-1.19h-.9c-.2,1.22-.6,2.45-1.34,3.42-.31-.25-1.01-.69-1.4-.85,1.22-1.5,1.36-3.6,1.36-5.06v-1.81h11.08v1.18h-9.5v.43h8.95v1.04h-8.96c-.01,.15-.03,.31-.03,.48h9.9v1.18h-1.12l.76,.64Zm-.56-5.38h-10.42V7.47h2.83v-.85h1.62v.85h1.34v-.85h1.64v.85h2.98v4.1Zm-8.9-2.54h1.3v-.56h-1.3v.56Zm0,1.51h1.3v-.56h-1.3v.56Zm2.93-2.07v.56h1.34v-.56h-1.34Zm0,1.51v.56h1.34v-.56h-1.34Zm2.12,6.32c.24,.31,.56,.59,.92,.81,.55-.2,1.18-.52,1.72-.81h-2.65Zm2.25-7.83h-1.39v.56h1.39v-.56Zm0,1.51h-1.39v.56h1.39v-.56Z"/>
      <path class="i" d="M199.71,23.46h-1.51l.67,.88c-.43,.14-.95,.27-1.51,.36v.74h2v1.05h-1.99c.62,.35,1.97,1.25,2.33,1.5l-.71,1.08c-.35-.34-1.02-.88-1.62-1.34v1.42h-1.39v-1.58c-.42,.63-.91,1.18-1.42,1.55-.21-.32-.62-.77-.91-1.01,.63-.35,1.29-.95,1.75-1.61h-1.11v-1.05h1.68v-.56c-.43,.04-.85,.07-1.25,.08-.04-.27-.18-.64-.32-.91,1.25-.1,2.73-.29,3.66-.6h-8.92v2.82c0,.53,0,1.11-.03,1.72,.59-.35,1.18-.92,1.61-1.53h-1.19v-1.04h1.61v-.5c-.42,.04-.84,.07-1.2,.1-.04-.25-.18-.63-.32-.9,1.2-.11,2.65-.32,3.46-.64l.74,.9c-.38,.14-.83,.25-1.32,.34v.71h1.36v1.04h-1.36v.03c.36,.21,1.23,.76,1.47,.94l-.8,1.01c-.14-.17-.41-.41-.67-.66v1.36h-1.36v-1.39c-.36,.52-.78,.97-1.19,1.29-.2-.29-.56-.67-.84-.92-.07,2.12-.31,4.64-.97,6.42-.32-.24-1.04-.62-1.43-.76,.81-2.16,.87-5.31,.87-7.49v-4.33h12.13v1.5Zm-9.51,6h8.33v5.07h-1.72v-.43h-4.97v.45h-1.64v-5.08Zm1.64,1.15v.66h4.97v-.66h-4.97Zm4.97,2.33v-.64h-4.97v.64h4.97Z"/>
      <path class="i" d="M192.1,41.33c-.31,4.36-.97,9.44-4.01,12.12-.29-.34-.95-.91-1.36-1.16,2.83-2.39,3.36-7.12,3.56-11.07l1.81,.11Zm3.68-.41c.48,4.51,1.58,9.06,4.08,11.43-.49,.25-1.25,.77-1.68,1.16-2.34-2.54-3.38-6.72-3.89-10.91h-1.05v-1.68h2.55Z"/>
      <path class="i" d="M198.07,66.11c0,1.01-.24,1.48-.88,1.76-.67,.29-1.65,.32-3.1,.32-.1-.49-.43-1.29-.7-1.75,.98,.06,2.16,.04,2.47,.04,.34,0,.45-.11,.45-.41v-2.03h-6c-.36,1.57-1.06,3.1-2.37,4.19-.25-.35-.92-.97-1.29-1.21,2.11-1.81,2.31-4.48,2.31-6.61v-4.61h9.1v10.3Zm-1.77-3.67v-1.71h-5.62c-.01,.53-.04,1.12-.1,1.71h5.71Zm-5.62-5v1.71h5.62v-1.71h-5.62Z"/>
      <path class="i" d="M199.72,76.76h-5.48v6.32h-1.82v-6.32h-5.39v-1.74h5.39v-5.01h1.82v5.01h5.48v1.74Z"/>
      <path class="i" d="M199.61,95.61v1.65h-12.49v-1.65h3.24c.24-1.13,.49-2.45,.73-3.82h-2.38v-1.64h2.63c.13-.8,.24-1.61,.34-2.38h-3.75v-1.65h10.79v1.65h-5.18c-.11,.77-.24,1.58-.36,2.38h2.59l.29-.06,1.33,.1c-.08,1.64-.27,3.61-.46,5.42h2.7Zm-6.71-3.82c-.24,1.39-.48,2.7-.7,3.82h2.93c.14-1.27,.27-2.67,.35-3.82h-2.58Z"/>
    </g>
    <g class="n">
      <g>
        <path class="i" d="M128.56,18.7c0,2.34-.23,4.27-.67,5.79-.45,1.52-1.06,2.72-1.84,3.58-.78,.87-1.67,1.48-2.66,1.83-1,.36-2.04,.53-3.13,.53s-2.13-.2-3.13-.6c-1-.4-1.88-1.05-2.66-1.96-.78-.91-1.39-2.11-1.84-3.61-.45-1.5-.68-3.35-.68-5.57V0h16.62V18.7Zm-11.42-12.2v11.94c0,.97,.06,1.79,.19,2.47,.13,.67,.32,1.22,.58,1.62,.26,.41,.58,.7,.97,.88,.39,.18,.84,.27,1.36,.27s.97-.09,1.36-.27c.39-.18,.71-.48,.97-.88,.26-.41,.45-.95,.58-1.62,.13-.68,.19-1.5,.19-2.47V6.49h-6.23Z"/>
        <path class="i" d="M111.94,30.69l16.62,11.14v7.22l-16.62,11.24v-7.14l14.88-9.63v3.87l-14.88-9.55v-7.14Zm2.52,5.82h3.89v17.76h-3.89v-17.76Z"/>
        <path class="i" d="M128.56,83.79l-12.39-10.52h-4.23v-6.49h4.23l12.39-10.52v7.66l-10.78,8.54v-4.8l10.78,8.46v7.66Z"/>
        <path class="i" d="M119.73,92.62h4.93v11.27h-12.72v-6.23h7.79v-5.04Z"/>
      </g>
    </g>
    <g>
      <path class="i" d="M164.73,5.01h-5.27c.79,.64,1.61,1.37,2.1,1.92l-2.19,1.92h2.5v7.71h-9.66v1.8h11.15s-.03,.88-.09,1.31c-.3,4.05-.67,6.03-1.46,6.83-.64,.73-1.37,.97-2.32,1.07-.85,.09-2.29,.12-3.87,.06-.06-1.07-.43-2.41-1.01-3.29,1.28,.12,2.56,.15,3.11,.12,.46,0,.76-.03,1.04-.27,.3-.3,.55-1.13,.73-2.8h-7.28v7.53h-3.56v-5.94c-2.56,2.5-5.94,4.57-9.26,5.82-.52-.88-1.52-2.19-2.29-2.86,3.17-.94,6.46-2.62,8.84-4.54h-6.55c.46-2.07,.91-5.24,1.13-7.8h8.14v-1.74h-9.26v-2.99h6.22c-.67-.85-1.86-1.98-2.8-2.8l1.16-1.01h-1.8c-.98,1.52-2.07,2.89-3.11,3.93-.52-.61-1.74-1.89-2.44-2.44,1.8-1.58,3.47-3.99,4.42-6.4l3.2,.91c-.15,.4-.34,.82-.55,1.22h6.7v2.77h-4.36c.82,.7,1.61,1.46,2.07,2.01l-1.95,1.8h12.86c-.67-.82-1.98-1.92-2.96-2.71l1.31-1.13h-2.5c-.73,1.16-1.55,2.16-2.38,2.96-.61-.61-1.92-1.65-2.71-2.1,1.68-1.43,3.05-3.56,3.81-5.73l3.29,.82c-.15,.43-.34,.88-.52,1.31h8.38v2.74Zm-16.09,11.55h-4.97c-.09,.61-.15,1.22-.24,1.8h5.21v-1.8Zm9.63-4.72h-6.06v1.74h6.06v-1.74Z"/>
      <path class="i" d="M164.8,49.57v3.93h-28.03v-3.93h28.03Z"/>
      <path class="i" d="M153.34,89.68c2.13,4.85,6.03,8.41,11.98,9.96-.88,.76-1.98,2.35-2.5,3.38-5.73-1.83-9.42-5.36-11.98-10.36-1.68,4.05-5.12,7.89-11.98,10.45-.49-.91-1.58-2.44-2.38-3.14,7.04-2.5,10.03-6.43,11.27-10.3h-10.21v-3.72h10.97c.06-.82,.09-1.58,.09-2.35v-3.08h-9.96v-3.72h24.13v3.72h-10.36v3.14c0,.73-.03,1.49-.06,2.29h11.61v3.72h-10.63Z"/>
    </g>
    <path class="o" d="M16.86,139.56H293.24c6.08,0,11.01,4.93,11.01,11.01v63.57H5.85v-63.57c0-6.08,4.93-11.01,11.01-11.01Z"/>
    <path class="h" d="M17.86,214.84H292.24c6.63,0,12.01,5.38,12.01,12.01v240.61H5.85V226.85c0-6.63,5.38-12.01,12.01-12.01Z" transform="translate(310.1 682.29) rotate(180)"/>
    <g>
      <path class="i" d="M64.22,183.6h-3.67v1.42h-1.52v-12.49h5.18v11.06Zm-3.67-9.66v3.36h2.13v-3.36h-2.13Zm2.13,8.27v-3.53h-2.13v3.53h2.13Zm7.65-7.45v1.91h3.68v1.36h-1.43v1.61h1.89v1.37h-1.89v4.12c0,.8-.19,1.22-.78,1.44-.62,.25-1.53,.27-2.89,.27-.07-.42-.32-1.04-.55-1.46,.99,.03,1.96,.03,2.24,.03,.28-.02,.37-.08,.37-.32v-4.08h-6.4v-1.37h6.4v-1.61h-5.76v-1.36h3.49v-1.91h-4.18v-1.39h4.18v-1.91h1.62v1.91h4.21v1.39h-4.21Zm-3.49,6.66c.78,.84,1.74,1.99,2.2,2.76l-1.44,.82c-.41-.75-1.34-1.99-2.11-2.88l1.36-.7Z"/>
      <path class="i" d="M82.76,177.98v8.87h-1.62v-14.7h6.5v5.83h-4.88Zm0-4.65v1.16h3.33v-1.16h-3.33Zm3.33,3.5v-1.24h-3.33v1.24h3.33Zm9.61,8.08c0,.89-.19,1.39-.83,1.66-.62,.25-1.59,.27-3.07,.27-.07-.42-.3-1.09-.51-1.52h-4.76v.84h-1.5v-7.01h6.61v6.13c.86,.03,1.71,.02,1.99,.02,.32-.02,.41-.1,.41-.38v-6.88h-5.01v-5.86h6.66v12.75Zm-9.16-4.6v1.31h3.58v-1.31h-3.58Zm3.58,3.83v-1.39h-3.58v1.39h3.58Zm.49-10.81v1.16h3.44v-1.16h-3.44Zm3.44,3.53v-1.27h-3.44v1.27h3.44Z"/>
    </g>
    <g>
      <path class="i" d="M178.52,179.22c-.67-.6-2.08-1.37-3.23-1.84l.86-1.17c1.13,.42,2.56,1.14,3.28,1.69l-.92,1.32Zm1.69,2.11c-.93,1.74-2.1,3.73-3.15,5.32l-1.37-1.05c.93-1.27,2.29-3.4,3.31-5.31l1.22,1.04Zm-1.13-6.46c-.6-.64-1.94-1.51-3.01-2.04l.92-1.14c1.07,.5,2.43,1.32,3.08,1.94l-.99,1.24Zm2.64,4.52h1.48v1.69c0,1.84-.28,4.07-2.54,5.71-.25-.32-.79-.82-1.15-1.02,1.99-1.41,2.2-3.25,2.2-4.72v-1.66Zm8.32,0c-.21-.32-.51-.72-.85-1.14-6.86,.43-7.7,.5-8.27,.72-.09-.32-.35-1.05-.53-1.46,.39-.08,.79-.47,1.3-1.05,.25-.25,.69-.77,1.2-1.47h-2.64v-1.41h3.67c.42-.67,.88-1.39,1.23-2.09l1.6,.6c-.3,.5-.63,1-.95,1.49h5.34v1.41h-6.36c-.65,.84-1.3,1.61-1.96,2.31l5.38-.3c-.39-.43-.76-.87-1.07-1.27l1.23-.67c.99,1.1,2.34,2.63,3.01,3.53l-1.34,.8Zm-5.27,.13h1.45v6.61h-1.45v-6.61Zm5.71,5.76c.21,0,.58-.03,.79-.1,.02,.38,.07,.89,.12,1.21-.23,.08-.58,.1-.9,.1h-1.04c-1.37,0-1.64-.55-1.64-1.89v-5.21h1.52v5.24c0,.49,.04,.65,.26,.65h.88Z"/>
      <path class="i" d="M202.55,181.96c-.23-.52-.76-1.44-1.23-2.24v7.15h-1.55v-6.95c-.58,1.61-1.3,3.16-2.08,4.17-.12-.44-.51-1.12-.76-1.52,.92-1.14,1.89-3.13,2.45-4.9h-2.19v-1.44h2.57v-2.38c-.65,.12-1.3,.22-1.92,.3-.07-.33-.25-.87-.44-1.21,1.76-.32,3.75-.79,4.97-1.34l.92,1.27c-.58,.23-1.27,.42-1.97,.6v2.75h2.13v1.44h-2.13v.35c.48,.54,1.85,2.26,2.15,2.68l-.92,1.27Zm10.66,3.13v1.39h-10.08v-1.39h4.37v-1.92h-3.44v-1.34h3.44v-1.72c-.99,.1-1.99,.17-2.91,.2-.02-.33-.23-.87-.39-1.21,2.47-.15,5.38-.45,7.05-.92l1.04,1.17c-.9,.23-2.01,.42-3.17,.57v1.91h3.38v1.34h-3.38v1.92h4.09Zm-.9-7.35h-8.12v-5.46h8.12v5.46Zm-1.59-4.13h-5v2.81h5v-2.81Z"/>
      <path class="i" d="M234.07,184.94c0,.89-.19,1.37-.85,1.62-.65,.25-1.71,.27-3.19,.27-.07-.45-.33-1.16-.58-1.59,1.07,.05,2.22,.03,2.54,.03,.32-.02,.42-.1,.42-.35v-3.31c-.37,.3-.9,.92-1.16,1.34-2.08-1.07-3.37-2.79-4.12-5-.76,2.33-2.11,4.03-4.28,5.11-.19-.33-.65-.87-1-1.19v4.99h-1.66v-11.67h6.31c-.07-.52-.12-1.07-.18-1.62h-3.05v-1.37h4.48c.05,1.07,.14,2.08,.32,3h6.01v9.76Zm-12.23-3.18c2.13-1.02,3.45-2.69,4.07-5.05h-4.07v5.05Zm6.57-5.05c.67,2.28,1.89,3.95,4,4.89v-4.89h-4Z"/>
      <path class="i" d="M250.13,177.02c-.09,.15-.19,.28-.3,.42,1.97,2.04,4.39,3.31,7.17,4.3-.39,.33-.83,.85-1.06,1.29-.71-.28-1.39-.62-2.04-.94v4.7h-1.67v-.47h-6.66v.52h-1.6v-4.55c-.69,.35-1.41,.69-2.13,.95-.23-.38-.67-.92-1.04-1.26,3.23-1.09,6.27-3.08,7.91-5.56l1.43,.59Zm-6.96-.84h-1.6v-3.25h6.64c-.18-.42-.39-.85-.6-1.24l1.69-.35c.3,.47,.63,1.09,.85,1.59h6.12v3.25h-1.66v-1.84h-11.44v1.84Zm4.25-.75c-1.13,1.46-2.91,2.85-4.51,3.7-.23-.28-.79-.9-1.13-1.17,1.55-.7,3.15-1.84,4.11-3.03l1.53,.5Zm4.81,9.52v-2.34h-6.66v2.34h6.66Zm.16-3.72c-1.23-.75-2.34-1.62-3.42-2.71-.92,1-2.01,1.92-3.19,2.71h6.61Zm-1.04-6.29c1.53,.87,3.52,2.21,4.49,3.15l-1.18,1c-.92-.92-2.85-2.33-4.44-3.26l1.13-.89Z"/>
    </g>
    <g>
      <line class="k" x1="146.52" y1="150.2" x2="146.52" y2="207.88"/>
      <line class="m" x1="146.52" y1="228.93" x2="146.52" y2="455.55"/>
    </g>
    <line class="l" x1="161.61" y1="267.5" x2="271.04" y2="267.5"/>
    <line class="l" x1="161.61" y1="320.06" x2="271.04" y2="320.06"/>
    <line class="l" x1="161.61" y1="380.56" x2="271.04" y2="380.56"/>
    <g>
      <path class="p" d="M184.97,243.42v7.65h-1.38v-12.51h5.56v4.86h-4.19Zm0-3.88v.96h2.88v-.96h-2.88Zm2.88,2.91v-1.04h-2.88v1.04h2.88Zm3.98,5.3v3.06h-1.25v-3.06h-1.81c-.12,.96-.6,2.41-1.96,3.28-.19-.24-.61-.6-.9-.78,1.11-.64,1.53-1.71,1.65-2.49h-1.71v-1.1h1.75v-1.35h-1.48v-1.05h7.27v1.05h-1.56v1.35h1.86v1.1h-1.86Zm-1.25-1.1v-1.35h-1.78v1.35h1.78Zm5.42,2.79c0,.73-.15,1.11-.65,1.34-.48,.21-1.23,.26-2.35,.24-.04-.36-.24-.96-.45-1.31,.77,.01,1.53,.01,1.77,.01,.23-.01,.3-.08,.3-.3v-5.99h-4.3v-4.89h5.69v10.89Zm-4.35-9.9v.96h2.97v-.96h-2.97Zm2.97,2.94v-1.07h-2.97v1.07h2.97Z"/>
      <path class="p" d="M210.17,242.42c1.68,.87,3.44,1.91,4.42,2.68l-.81,1.03c-1.12-.97-3.37-2.31-5.31-3.31v2.28h-1.44v-2.32c-1.41,1.4-3.39,2.57-5.28,3.21-.21-.33-.65-.84-.96-1.12,1.74-.48,3.57-1.38,4.88-2.44h-4.52v-1.2h5.88v-1.27c-1.45,.13-2.92,.21-4.3,.26-.03-.31-.21-.83-.35-1.11,3.31-.14,7.18-.48,9.37-1.04l1.02,1.07c-1.23,.29-2.72,.51-4.3,.7v1.4h5.89v1.2h-4.2Zm-6.84,3.02h9.09v5.62h-1.44v-.46h-6.27v.47h-1.38v-5.63Zm1.38,1.04v1.05h6.27v-1.05h-6.27Zm6.27,3.08v-1.08h-6.27v1.08h6.27Z"/>
      <path class="p" d="M231.89,241.91c-.28,2.07-.81,3.93-1.62,5.49,.66,1.07,1.48,1.91,2.47,2.49-.34,.27-.81,.8-1.05,1.18-.88-.6-1.62-1.41-2.23-2.37-.73,.98-1.63,1.79-2.76,2.37-.18-.29-.48-.63-.79-.91h-1.16v-.6h-2.53v.87h-1.2v-3.49c-.24,1.25-.63,2.49-1.24,3.51-.23-.24-.77-.64-1.06-.77,1.24-2.05,1.36-4.95,1.36-7.01v-3.65c1.8-.19,3.92-.51,5.11-.9l1.06,.96c-1.35,.41-3.19,.7-4.89,.88v.78h4.62v3.28c.96-1.48,1.48-3.71,1.77-6l1.4,.19c-.12,.84-.27,1.67-.46,2.46h3.97v1.24h-.76Zm-5.89,7.91c1.12-.56,2.02-1.4,2.73-2.45-.48-1.01-.87-2.14-1.17-3.33-.23,.47-.47,.9-.75,1.28-.21-.26-.75-.74-1.06-.97l.02-.03h-4.44c-.03,.38-.06,.76-.1,1.16h4.78v4.35Zm-4.63-8.01v1.43h3.38v-1.43h-3.38Zm3.39,6.68v-1.95h-2.53v1.95h2.53Zm3.61-6.58l-.06,.19c.27,1.37,.67,2.68,1.18,3.85,.54-1.17,.9-2.54,1.16-4.03h-2.28Z"/>
      <path class="p" d="M241.55,247.64c-1.47,.57-3.03,1.2-4.27,1.65l-.46-1.35c.51-.16,1.12-.36,1.78-.57v-4.7h-1.53v-1.25h1.53v-3.26h1.31v3.26h1.21v1.25h-1.21v4.25l1.38-.47,.27,1.2Zm8.97,2.14v1.01h-10.03v-1.01h10.03Zm-.1-9.59h-9.55v-1h4.03c-.18-.31-.4-.63-.61-.88l1.12-.5c.38,.41,.78,.97,.94,1.38h4.06v1Zm-.66,4.99h-8.19v-4.47h8.19v4.47Zm-7.74,4.06v-3.55h7.18v3.55h-7.18Zm6.54-7.72h-5.85v2.85h5.85v-2.85Zm-5.27,5.59h4.57v-.65h-4.57v.65Zm0,1.38h4.57v-.67h-4.57v.67Zm4.36-4.6h-4.08v-1.85h4.08v1.85Zm-.97-1.22h-2.18v.6h2.18v-.6Z"/>
    </g>
    <g>
      <path class="p" d="M187.78,298.06c-.29-.4-.81-1.05-1.32-1.61v5.83h-1.33v-5.49c-.57,.58-1.16,1.1-1.75,1.51-.09-.38-.41-1.1-.58-1.35,1.43-.9,2.88-2.48,3.75-4.15h-3.45v-1.2h2.64c-.27-.53-.78-1.21-1.24-1.72l1.03-.63c.56,.53,1.12,1.25,1.4,1.77l-.88,.58h1.2l.27-.06,.73,.48c-.39,1.05-.96,2.07-1.62,2.99,.55,.5,1.72,1.64,2.04,1.95l-.87,1.08Zm7.42,3.04c.28,0,.34-.31,.39-1.98,.29,.2,.83,.41,1.16,.5-.1,2.01-.41,2.58-1.43,2.58h-1.18c-1.17,0-1.45-.38-1.45-1.61v-4.76h-1.2c-.17,3.09-.7,5.27-3.51,6.53-.17-.34-.58-.83-.88-1.05,2.5-1.04,2.91-2.84,3.06-5.47h-1.48v-5.71h7.21v5.71h-1.84v4.76c0,.44,.06,.51,.34,.51h.82Zm-5.23-6.47h4.53v-3.32h-4.53v3.32Z"/>
      <path class="p" d="M212.75,297.94v.73h1.36v.93h-1.36v1.57c0,.56-.1,.8-.51,.96-.39,.16-.96,.16-1.75,.16-.07-.31-.21-.68-.36-.98,.5,.01,.99,.01,1.14,.01s.19-.03,.19-.17v-1.54h-2.82c.5,.38,1.04,.91,1.3,1.3l-.95,.69c-.24-.41-.82-1.01-1.32-1.43l.81-.56h-1.31v-.93h4.27v-.73h-10.57v-.98h13.74v.98h-1.88Zm-.1-2.89c.09-.34,.21-.79,.31-1.24h-11.73v-.94h12.07l.22-.04,.96,.17c-.19,.78-.45,1.67-.66,2.25l-1.19-.2Zm-5.64-4.21h-5.61v-.87h5.61v-.8h1.41v.8h5.76v.87h-5.76v.63h4.56v.84h-10.42v-.84h4.46v-.63Zm-.33,10.69h-3.42v.47h-1.2v-3.49h4.62v3.02Zm.34-5.86v-.6h-3.64v-.74h8.58v.74h-3.57v.6h4.86v.75h-11.01v-.75h4.78Zm-3.76,3.71v1.27h2.17v-1.27h-2.17Z"/>
      <path class="p" d="M226.87,294.51c1.02,2.96,2.91,5.37,5.74,6.5-.34,.29-.81,.84-1.03,1.24-2.8-1.24-4.62-3.55-5.79-6.57-.76,2.58-2.38,5.04-5.79,6.57-.23-.36-.68-.83-1.07-1.11,3.57-1.48,5.02-4.05,5.62-6.63h-5.32v-1.37h5.58c.18-1.43,.17-2.79,.18-3.93h1.51c-.01,1.15-.03,2.52-.21,3.93h6.04v1.37h-5.47Z"/>
      <path class="p" d="M250.63,297.73v1.26h-13.75v-1.26h1.48v-6.87h3.15v-1.71h1.29v1.71h1.87v-1.71h1.33v1.71h3.27v6.87h1.35Zm-8.04,2.12c-1.16,.88-3.03,1.85-4.56,2.42-.24-.27-.73-.71-1.06-.96,1.56-.54,3.4-1.48,4.32-2.27l1.3,.8Zm-2.88-7.77v2.12h1.8v-2.12h-1.8Zm0,5.64h1.8v-2.29h-1.8v2.29Zm3.09-5.64v2.12h1.87v-2.12h-1.87Zm1.87,3.35h-1.87v2.29h1.87v-2.29Zm1.29,3.61c1.59,.71,3.34,1.62,4.38,2.29l-1.27,.88c-.94-.66-2.56-1.6-4.08-2.31l.97-.87Zm.05-6.96v2.12h1.86v-2.12h-1.86Zm0,5.64h1.86v-2.29h-1.86v2.29Z"/>
    </g>
    <g>
      <path class="p" d="M187.46,351.97c-.48,.16-.99,.3-1.49,.44v3.8c0,.67-.15,1.01-.54,1.23-.41,.2-.99,.26-1.92,.24-.05-.31-.21-.88-.39-1.23,.58,.01,1.14,.01,1.3,.01,.2,0,.26-.06,.26-.26v-3.42l-1.65,.5-.32-1.28c.54-.14,1.22-.31,1.97-.51v-2.84h-1.77v-1.23h1.77v-2.75h1.29v2.75h1.5v1.23h-1.5v2.48c.42-.13,.87-.26,1.29-.37l.2,1.2Zm7.63,1.05c-.34,.97-.81,1.74-1.44,2.38,1.05,.46,2.02,.91,2.74,1.34l-.96,.97c-.69-.44-1.69-.96-2.85-1.47-1.09,.7-2.56,1.15-4.5,1.48-.1-.36-.38-.84-.62-1.11,1.53-.2,2.73-.51,3.68-.97-.95-.4-1.91-.74-2.79-1.03,.36-.44,.78-1.01,1.15-1.6h-1.92v-1.13h2.62c.27-.47,.52-.95,.71-1.38l1.32,.26c-.18,.36-.38,.75-.6,1.12h2.35c.06-.27,.12-.54,.18-.84l1.35,.21c-.04,.21-.07,.41-.12,.63h1.26v1.13h-1.57Zm1.36-2.56h-8.68v-1.13h2.38c-.15-.46-.57-1.18-.94-1.72l1.15-.4c.41,.53,.85,1.23,1.02,1.7l-1.14,.43h2.5c.35-.58,.81-1.47,1.02-2.08l1.32,.34c-.33,.6-.68,1.23-1.01,1.74h2.37v1.13Zm-.29-3.28h-8.04v-1.13h3.46c-.15-.4-.36-.84-.57-1.2l1.53-.26c.27,.43,.54,1,.73,1.45h2.88v1.13Zm-5.2,5.84c-.23,.38-.48,.76-.72,1.1,.66,.21,1.37,.47,2.07,.74,.57-.5,.99-1.1,1.3-1.84h-2.65Z"/>
      <path class="p" d="M202.45,354.01c-.15,1.23-.4,2.55-.69,3.43-.24-.13-.75-.3-1.02-.37,.35-.84,.54-2.11,.65-3.25l1.06,.18Zm-1.29-3.99c-.09-.26-.24-.77-.36-1.04,.24-.07,.5-.36,.78-.77,.31-.41,1.29-2.01,1.84-3.54l1.14,.47c-.58,1.27-1.35,2.61-2.13,3.65l1.36-.1c.38-.64,.76-1.33,1.08-2l1.05,.63c-.9,1.64-2.05,3.29-3.22,4.62l2.26-.3c-.17-.46-.34-.93-.54-1.34l.92-.31c.44,.86,.85,1.98,1,2.68l-.99,.38c-.03-.14-.06-.3-.11-.49-3.22,.5-3.69,.6-3.99,.76v-.11c-.09-.27-.26-.75-.36-1.03,.31-.07,.65-.43,1.08-.95,.21-.24,.65-.77,1.11-1.47-1.4,.14-1.72,.23-1.94,.33v-.07Zm2.79,3.73c.18,.95,.34,2.17,.39,2.98l-1.01,.24c-.03-.81-.18-2.05-.34-3.01l.96-.21Zm10.51-2.27c-.44,.29-.93,.56-1.46,.84,.29,1.51,.83,2.92,1.75,3.62-.3,.21-.67,.66-.87,.97-.99-.85-1.54-2.39-1.86-4.12-.26,.13-.49,.24-.72,.34,.71,1.74,.38,3.56-.41,4.16-.38,.34-.74,.43-1.3,.44-.27,0-.6-.01-.93-.03,0-.3-.07-.77-.3-1.11,.39,.04,.69,.07,.98,.07,.3,0,.54-.04,.73-.29,.25-.24,.44-.88,.36-1.67-1.05,.9-2.47,1.77-3.7,2.27-.15-.24-.41-.58-.66-.81l-.67,.23c-.14-.75-.48-1.88-.81-2.75l.9-.27c.31,.81,.68,1.85,.84,2.58,1.4-.5,2.97-1.45,3.85-2.39-.07-.21-.17-.46-.3-.7-.83,.64-1.95,1.31-2.85,1.71-.17-.27-.48-.67-.72-.9,.97-.3,2.25-.96,3.03-1.6-.15-.17-.33-.36-.52-.53-.62,.38-1.28,.73-1.91,1-.15-.23-.51-.68-.73-.9,1.04-.37,2.13-.9,2.98-1.52h-2.86v-1.05h5.05l.15-.73h-4.33c.32-.98,.7-2.54,.95-3.73l1.27,.14c-.04,.24-.1,.48-.18,.75h2.94l.23-.06,.92,.14c-.18,1.07-.45,2.35-.71,3.48h2.07v1.05h-3.96c-.3,.3-.63,.57-.99,.84,.45,.38,.84,.83,1.12,1.27,.94-.46,2.02-1.07,2.73-1.57l.9,.81Zm-2.76-4.08c.06-.33,.13-.67,.19-.95h-2.92c-.1,.33-.2,.66-.29,.95h3.02Z"/>
      <path class="p" d="M231.23,357.56c-.23-.41-.54-.93-.9-1.48-8.23,.6-9.16,.66-9.78,.9-.09-.26-.33-.96-.51-1.33,.52-.1,1.11-.44,2.07-1.05,.58-.36,1.86-1.25,3.25-2.41-3.54,.23-4.09,.3-4.45,.43-.07-.27-.3-.94-.48-1.31,.36-.07,.68-.33,1.09-.67,.42-.34,1.62-1.45,2.53-2.68h-4.84v-1.3h6.01c-.28-.51-.66-1.13-.99-1.61l1.29-.43c.48,.64,1.02,1.47,1.29,2.02h5.5v1.31h-7.21l.63,.31c-.89,1.07-1.92,2.09-2.96,2.95l3.96-.2c.68-.61,1.35-1.27,1.95-1.92l1.3,.84c-2.15,2.15-4.53,3.99-6.85,5.43l6.4-.38c-.43-.6-.91-1.18-1.35-1.7l1.2-.6c1.19,1.28,2.48,3.01,3.1,4.13l-1.27,.74Z"/>
      <path class="p" d="M241.84,353.38c-.21-.43-.72-1.23-1.17-1.88v6.23h-1.35v-5.77c-.56,1.3-1.23,2.51-1.92,3.32-.14-.36-.47-.9-.68-1.23,.89-.97,1.84-2.67,2.4-4.18h-2.2v-1.24h2.4v-1.91c-.65,.11-1.29,.2-1.89,.29-.04-.29-.24-.76-.39-1.03,1.68-.26,3.6-.67,4.77-1.15l.79,1.08c-.57,.21-1.23,.38-1.93,.54v2.18h2.1v1.24h-2.1v.2c.45,.44,1.72,1.9,2.01,2.27l-.84,1.04Zm7.03,.7v3.65h-1.38v-3.42l-4.72,.75-.21-1.27,4.93-.78v-8.35h1.38v8.14l1.63-.26,.21,1.24-1.84,.3Zm-3.27-1.92c-.5-.61-1.59-1.52-2.5-2.12l.89-.77c.9,.57,2.04,1.42,2.56,2.02l-.94,.87Zm.38-3.75c-.45-.6-1.47-1.47-2.32-2.07l.92-.76c.85,.56,1.89,1.38,2.39,1.98l-.98,.84Z"/>
    </g>
    <line class="l" x1="30.54" y1="267.5" x2="126.13" y2="267.5"/>
    <line class="l" x1="30.54" y1="320.06" x2="126.13" y2="320.06"/>
    <line class="l" x1="30.54" y1="380.56" x2="126.13" y2="380.56"/>
    <line class="l" x1="161.61" y1="437.73" x2="271.04" y2="437.73"/>
    <line class="l" x1="30.54" y1="437.73" x2="126.13" y2="437.73"/>
    <g>
      <path class="p" d="M55.38,243.27c0-3.63,1.39-5.4,3.57-5.4s3.57,1.78,3.57,5.4-1.41,5.47-3.57,5.47-3.57-1.82-3.57-5.47Zm5.49,0c0-3.01-.79-4.1-1.92-4.1s-1.92,1.1-1.92,4.1,.8,4.18,1.92,4.18,1.92-1.14,1.92-4.18Z"/>
      <path class="p" d="M66.18,246.62c.44,.47,1.11,.78,1.81,.78,1.33,0,2.49-1.03,2.59-4.02-.65,.76-1.59,1.23-2.43,1.23-1.84,0-3.09-1.1-3.09-3.29,0-2.08,1.5-3.45,3.28-3.45,2.11,0,3.82,1.62,3.82,5.09,0,4.13-1.98,5.79-4.11,5.79-1.27,0-2.17-.48-2.82-1.11l.93-1.01Zm4.38-4.47c-.17-2.07-.99-3.01-2.19-3.01-.95,0-1.7,.81-1.7,2.18s.63,2.11,1.79,2.11c.67,0,1.44-.37,2.1-1.28Z"/>
      <path class="p" d="M79.83,242c0-.67,.51-1.17,1.16-1.17s1.16,.5,1.16,1.17-.51,1.14-1.16,1.14-1.16-.48-1.16-1.14Zm0,5.6c0-.67,.51-1.17,1.16-1.17s1.16,.5,1.16,1.17-.51,1.14-1.16,1.14-1.16-.47-1.16-1.14Z"/>
      <path class="p" d="M89.7,243.27c0-3.63,1.39-5.4,3.57-5.4s3.57,1.78,3.57,5.4-1.41,5.47-3.57,5.47-3.57-1.82-3.57-5.47Zm5.49,0c0-3.01-.79-4.1-1.92-4.1s-1.92,1.1-1.92,4.1,.8,4.18,1.92,4.18,1.92-1.14,1.92-4.18Z"/>
      <path class="p" d="M99.45,243.27c0-3.63,1.4-5.4,3.57-5.4s3.57,1.78,3.57,5.4-1.41,5.47-3.57,5.47-3.57-1.82-3.57-5.47Zm5.49,0c0-3.01-.79-4.1-1.92-4.1s-1.92,1.1-1.92,4.1,.8,4.18,1.92,4.18,1.92-1.14,1.92-4.18Z"/>
    </g>
    <g>
      <path class="p" d="M55.96,299.8h2.41v-7.3h-1.98v-1.04c1.03-.19,1.77-.43,2.4-.8h1.3v9.14h2.16v1.35h-6.3v-1.35Z"/>
      <path class="p" d="M65.71,299.8h2.42v-7.3h-1.98v-1.04c1.04-.19,1.77-.43,2.4-.8h1.31v9.14h2.16v1.35h-6.3v-1.35Z"/>
      <path class="p" d="M79.83,294.59c0-.67,.51-1.17,1.16-1.17s1.16,.5,1.16,1.17-.51,1.14-1.16,1.14-1.16-.48-1.16-1.14Zm0,5.6c0-.67,.51-1.17,1.16-1.17s1.16,.5,1.16,1.17-.51,1.14-1.16,1.14-1.16-.47-1.16-1.14Z"/>
      <path class="p" d="M89.41,299.9l.84-1.05c.65,.63,1.47,1.15,2.61,1.15,1.25,0,2.1-.66,2.1-1.74,0-1.17-.78-1.92-3.27-1.92v-1.21c2.17,0,2.9-.78,2.9-1.84,0-.93-.65-1.51-1.69-1.53-.85,.01-1.58,.41-2.21,1l-.9-1.03c.87-.74,1.89-1.27,3.16-1.27,1.98,0,3.37,.97,3.37,2.71,0,1.21-.73,2.05-1.9,2.47v.07c1.27,.3,2.28,1.21,2.28,2.62,0,1.89-1.66,3.01-3.69,3.01-1.74,0-2.86-.66-3.6-1.44Z"/>
      <path class="p" d="M99.45,295.86c0-3.63,1.4-5.4,3.57-5.4s3.57,1.78,3.57,5.4-1.41,5.47-3.57,5.47-3.57-1.82-3.57-5.47Zm5.49,0c0-3.01-.79-4.11-1.92-4.11s-1.92,1.1-1.92,4.11,.8,4.18,1.92,4.18,1.92-1.14,1.92-4.18Z"/>
    </g>
    <g>
      <path class="p" d="M55.96,355.26h2.41v-7.3h-1.98v-1.04c1.03-.18,1.77-.43,2.4-.8h1.3v9.14h2.16v1.35h-6.3v-1.35Z"/>
      <path class="p" d="M72.52,353.79h-1.41v2.82h-1.62v-2.82h-4.77v-1.1l4.39-6.57h1.99v6.4h1.41v1.27Zm-3.03-1.27v-2.75c0-.57,.06-1.45,.09-2.02h-.06c-.27,.53-.57,1.07-.89,1.61l-2.18,3.16h3.03Z"/>
      <path class="p" d="M79.83,350.06c0-.67,.51-1.17,1.16-1.17s1.16,.5,1.16,1.17-.51,1.14-1.16,1.14-1.16-.48-1.16-1.14Zm0,5.6c0-.67,.51-1.17,1.16-1.17s1.16,.5,1.16,1.17-.51,1.14-1.16,1.14-1.16-.47-1.16-1.14Z"/>
      <path class="p" d="M89.7,351.33c0-3.63,1.39-5.4,3.57-5.4s3.57,1.78,3.57,5.4-1.41,5.47-3.57,5.47-3.57-1.82-3.57-5.47Zm5.49,0c0-3.01-.79-4.1-1.92-4.1s-1.92,1.1-1.92,4.1,.8,4.18,1.92,4.18,1.92-1.14,1.92-4.18Z"/>
      <path class="p" d="M99.45,351.33c0-3.63,1.4-5.4,3.57-5.4s3.57,1.78,3.57,5.4-1.41,5.47-3.57,5.47-3.57-1.82-3.57-5.47Zm5.49,0c0-3.01-.79-4.1-1.92-4.1s-1.92,1.1-1.92,4.1,.8,4.18,1.92,4.18,1.92-1.14,1.92-4.18Z"/>
    </g>
    <g>
      <path class="p" d="M187.16,406.72h-4.05v-1.07h4.05v1.07Zm-.39,8.84h-2.16v.63h-1.03v-4.79h3.19v4.16Zm-3.15-8h3.16v1.04h-3.16v-1.04Zm0,1.9h3.16v1.04h-3.16v-1.04Zm1.35-3.83c-.1-.5-.43-1.33-.76-1.92l1-.36c.33,.58,.71,1.37,.82,1.88l-1.06,.4Zm-.36,6.81v2.08h1.11v-2.08h-1.11Zm8.16-2.01c-.34,.53-.72,1.01-1.17,1.48v3.06c0,.57-.12,.9-.51,1.1-.39,.19-1,.21-1.89,.21-.04-.3-.23-.81-.4-1.1,.61,.03,1.23,.01,1.39,.01,.2,0,.26-.06,.26-.24v-1.92c-.92,.8-1.91,1.5-2.9,2.04-.1-.24-.41-.78-.58-1.04,1.19-.57,2.4-1.4,3.4-2.35-1.11,.13-2.19,.24-3.1,.33l-.1-1.04,.56-.04v-6.07h1.11c.17-.53,.33-1.13,.41-1.6l1.36,.21c-.2,.46-.41,.96-.58,1.38h1.59v5.4l.14-.2,1.03,.37Zm-2.32-4.53h-1.59v1h1.59v-1Zm0,1.95h-1.59v.98h1.59v-.98Zm-1.59,2.96l1.59-.13v-.9h-1.59v1.03Zm7.77-3.29h-.78v7.31c0,.67-.15,1-.57,1.2-.44,.2-1.09,.24-2.07,.24-.08-.31-.29-.85-.45-1.18,.68,.03,1.33,.03,1.55,.03,.21-.01,.28-.07,.28-.3v-7.3h-2.61v-1.21h2.61v-2.94h1.26v2.94h.78v1.21Zm-3.39,4.62c-.13-.84-.57-2.24-1.05-3.32l1.04-.27c.51,1.03,.97,2.41,1.12,3.25l-1.11,.34Z"/>
      <path class="p" d="M205.55,412.92c-1.47,.57-3.03,1.2-4.27,1.65l-.46-1.35c.51-.16,1.12-.36,1.78-.57v-4.7h-1.53v-1.25h1.53v-3.26h1.31v3.26h1.21v1.25h-1.21v4.25l1.38-.47,.27,1.2Zm8.97,2.14v1.01h-10.03v-1.01h10.03Zm-.1-9.59h-9.55v-1h4.03c-.18-.31-.4-.63-.61-.88l1.12-.5c.38,.41,.78,.97,.94,1.38h4.06v1Zm-.66,4.99h-8.19v-4.47h8.19v4.47Zm-7.74,4.06v-3.55h7.18v3.55h-7.18Zm6.54-7.72h-5.85v2.85h5.85v-2.85Zm-5.27,5.59h4.57v-.66h-4.57v.66Zm0,1.38h4.57v-.67h-4.57v.67Zm4.36-4.6h-4.08v-1.85h4.08v1.85Zm-.97-1.23h-2.18v.6h2.18v-.6Z"/>
      <path class="p" d="M231.23,416.17c-.23-.41-.54-.93-.9-1.48-8.23,.6-9.16,.66-9.78,.9-.09-.26-.33-.96-.51-1.33,.52-.1,1.11-.44,2.07-1.05,.58-.36,1.86-1.25,3.25-2.41-3.54,.23-4.09,.3-4.45,.43-.07-.27-.3-.94-.48-1.31,.36-.07,.68-.33,1.09-.67,.42-.34,1.62-1.45,2.53-2.68h-4.84v-1.3h6.01c-.28-.51-.66-1.13-.99-1.61l1.29-.43c.48,.64,1.02,1.47,1.29,2.02h5.5v1.31h-7.21l.63,.31c-.89,1.07-1.92,2.09-2.96,2.95l3.96-.2c.68-.61,1.35-1.27,1.95-1.92l1.3,.84c-2.15,2.15-4.53,3.99-6.85,5.43l6.4-.38c-.43-.6-.91-1.18-1.35-1.7l1.2-.6c1.19,1.28,2.48,3.01,3.1,4.13l-1.27,.74Z"/>
      <path class="p" d="M241.84,411.99c-.21-.43-.72-1.23-1.17-1.88v6.23h-1.35v-5.77c-.56,1.3-1.23,2.51-1.92,3.32-.14-.36-.47-.9-.68-1.23,.89-.97,1.84-2.67,2.4-4.18h-2.2v-1.24h2.4v-1.91c-.65,.11-1.29,.2-1.89,.29-.04-.29-.24-.76-.39-1.03,1.68-.26,3.6-.67,4.77-1.15l.79,1.08c-.57,.21-1.23,.38-1.93,.54v2.18h2.1v1.24h-2.1v.2c.45,.44,1.72,1.9,2.01,2.27l-.84,1.04Zm7.03,.7v3.65h-1.38v-3.42l-4.72,.75-.21-1.27,4.93-.78v-8.35h1.38v8.14l1.63-.26,.21,1.24-1.84,.3Zm-3.27-1.92c-.5-.61-1.59-1.52-2.5-2.12l.89-.77c.9,.57,2.04,1.42,2.56,2.02l-.94,.87Zm.38-3.75c-.45-.6-1.47-1.47-2.32-2.07l.92-.76c.85,.56,1.89,1.38,2.39,1.98l-.98,.84Z"/>
    </g>
    <g>
      <path class="p" d="M55.96,413.87h2.41v-7.3h-1.98v-1.04c1.03-.18,1.77-.43,2.4-.8h1.3v9.14h2.16v1.35h-6.3v-1.35Z"/>
      <path class="p" d="M70.35,406.12h-5.19v-1.38h7.11v1c-2.59,3.08-3,5.39-3.18,9.49h-1.77c.2-3.83,.9-6.29,3.03-9.11Z"/>
      <path class="p" d="M79.83,408.67c0-.67,.51-1.17,1.16-1.17s1.16,.5,1.16,1.17-.51,1.14-1.16,1.14-1.16-.48-1.16-1.14Zm0,5.6c0-.67,.51-1.17,1.16-1.17s1.16,.5,1.16,1.17-.51,1.14-1.16,1.14-1.16-.47-1.16-1.14Z"/>
      <path class="p" d="M89.41,413.97l.84-1.05c.65,.63,1.47,1.15,2.61,1.15,1.25,0,2.1-.66,2.1-1.74,0-1.17-.78-1.92-3.27-1.92v-1.21c2.17,0,2.9-.78,2.9-1.84,0-.93-.65-1.51-1.69-1.52-.85,.01-1.58,.41-2.21,1l-.9-1.03c.87-.74,1.89-1.27,3.16-1.27,1.98,0,3.37,.97,3.37,2.71,0,1.21-.73,2.05-1.9,2.46v.07c1.27,.3,2.28,1.21,2.28,2.62,0,1.9-1.66,3.01-3.69,3.01-1.74,0-2.86-.66-3.6-1.44Z"/>
      <path class="p" d="M99.45,409.94c0-3.63,1.4-5.4,3.57-5.4s3.57,1.78,3.57,5.4-1.41,5.47-3.57,5.47-3.57-1.82-3.57-5.47Zm5.49,0c0-3.01-.79-4.1-1.92-4.1s-1.92,1.1-1.92,4.1,.8,4.18,1.92,4.18,1.92-1.14,1.92-4.18Z"/>
    </g>
  </g>
</svg>