<?xml version="1.0" encoding="UTF-8"?><svg xmlns="http://www.w3.org/2000/svg" viewBox="0 0 46.57 46.57"><defs><style>.cls-1{fill:#fff;}.cls-2{isolation:isolate;}.cls-3{fill:#ec6531;}.cls-4{mix-blend-mode:darken;}</style></defs><g class="cls-2"><g id="_層_2"><g id="_層_1-2"><circle class="cls-1" cx="23.28" cy="23.28" r="23.28"/><g class="cls-4"><path class="cls-3" d="M21.81,28.1s-.07,.1-.12,.16c-.73,.73-1.46,1.46-2.19,2.19-.4,.4-.85,.7-1.39,.86-1.38,.4-2.71-.41-2.95-1.82-.14-.83,.15-1.55,.67-2.19,.07-.09,.15-.17,.23-.25,1.38-1.38,2.77-2.76,4.15-4.15,1.06-1.08,2.73-1.27,3.81-.2,.51,.51,1.38,.41,1.86-.12,.5-.56,.49-1.37-.05-1.9-1-.98-2.22-1.45-3.62-1.43-1.54,.03-2.85,.63-3.94,1.72-1.39,1.38-2.77,2.77-4.15,4.15-.79,.79-1.35,1.72-1.6,2.82-.07,.29-.45,1.38,.2,3,.83,2.2,3.09,3.51,5.45,3.14,1.26-.2,2.33-.78,3.22-1.67,1.23-1.23,2.46-2.46,3.7-3.7,.03-.03,.06-.08,.08-.1-1.18,.28-2.28,.09-3.37-.52Z"/><path class="cls-3" d="M33.78,15.61c-1.13-2.71-5-4.71-8.49-1.64-1.38,1.22-2.61,2.6-3.92,3.9-.02,.02-.02,.04-.03,.05,1.18-.25,2.28-.08,3.35,.53,.04-.04,.08-.11,.14-.16,.72-.73,1.44-1.46,2.18-2.17,.28-.26,.59-.51,.93-.68,1.5-.77,3.18,.04,3.42,1.65,.14,.9-.19,1.67-.81,2.31-1.44,1.47-2.9,2.92-4.36,4.37-.99,.97-2.6,1.15-3.66,.12-.54-.52-1.38-.45-1.88,.08-.51,.55-.51,1.38,.04,1.92,.25,.25,.54,.48,.84,.67,2,1.26,4.64,.95,6.32-.62,1.63-1.51,3.31-2.99,4.73-4.7,2.32-2.79,1.62-4.62,1.21-5.61Z"/></g></g></g></g></svg>