<?xml version="1.0" encoding="UTF-8"?>
<svg id="_圖層_2" data-name="圖層 2" xmlns="http://www.w3.org/2000/svg" width="377.57" height="115.8" xmlns:xlink="http://www.w3.org/1999/xlink" viewBox="0 0 377.57 115.8">
  <defs>
    <pattern id="Unnamed_Pattern" data-name="Unnamed Pattern" x="0" y="0" width="920.6" height="184.56" patternTransform="translate(-3110.96 -4369.41) scale(.5)" patternUnits="userSpaceOnUse" viewBox="0 0 920.6 184.56">
      <g>
        <rect width="920.6" height="184.56" style="fill: none;"/>
        <g style="opacity: .18;">
          <g>
            <path d="M0,26.15h129.49V2.49H0v23.66ZM49.18,82.17h31.13V24.53h-31.13v57.65Z" style="fill: #fc462d;"/>
            <path d="M173.06,82.17v-22.41h48.68c6.64,0,11.56.25,14.75.75,3.19.5,5.27,1.39,6.23,2.68.95,1.29,1.43,3.17,1.43,5.67v13.32h31.13v-17.06c0-3.65-1.06-6.45-3.17-8.4-2.12-1.95-5.85-3.3-11.21-4.05-5.35-.75-12.97-1.16-22.85-1.25l9.09,1.74c4.07-.17,7.97-.62,11.7-1.37,3.73-.75,7.05-1.95,9.96-3.61,2.9-1.66,5.19-3.98,6.85-6.97,1.66-2.99,2.49-6.76,2.49-11.33,0-6.89-1.76-12.33-5.29-16.31-3.53-3.98-8.3-6.83-14.32-8.53-6.02-1.7-12.8-2.55-20.36-2.55h-96.24v79.68h31.13ZM173.06,27.39h65.12c2.49,0,4.59.4,6.29,1.18,1.7.79,2.55,2.26,2.55,4.42,0,2.32-.85,3.9-2.55,4.73-1.7.83-3.8,1.24-6.29,1.24h-65.12v-11.58Z" style="fill: #fc462d;"/>
            <path d="M322.1,82.17l45.82-71.34h-18.55l46.19,71.34h34.24L375.88,2.49h-34.61l-53.41,79.68h34.24ZM400.91,70.1v-18.68h-85.16v18.68h85.16Z" style="fill: #fc462d;"/>
            <path d="M439.75,2.49v79.68h31.13v-24.28h77.19v-21.17h-77.19v-10.58h94.38V2.49h-125.5Z" style="fill: #fc462d;"/>
            <path d="M580.2,2.49v79.68h31.13v-24.28h77.19v-21.17h-77.19v-10.58h94.38V2.49h-125.5Z" style="fill: #fc462d;"/>
            <path d="M722.51,82.17h31.13V2.49h-31.13v79.68Z" style="fill: #fc462d;"/>
            <path d="M888.1,48.93c-1,2.16-2.82,4.17-5.48,6.04-2.66,1.87-6.62,3.34-11.89,4.42-5.27,1.08-12.43,1.62-21.48,1.62-10.63,0-19.26-.62-25.9-1.87-6.64-1.25-11.5-3.19-14.57-5.85-3.07-2.66-4.61-6.1-4.61-10.33,0-4.65,1.54-8.38,4.61-11.21,3.07-2.82,7.93-4.88,14.57-6.16,6.64-1.29,15.27-1.93,25.9-1.93,9.05,0,16.23.58,21.54,1.74,5.31,1.16,9.29,2.76,11.95,4.79,2.66,2.04,4.48,4.38,5.48,7.04h32.37c-.42-7.97-3.28-14.73-8.59-20.29-5.31-5.56-13.16-9.77-23.53-12.64-10.38-2.86-23.45-4.29-39.22-4.29-12.04,0-22.83.71-32.37,2.12-9.55,1.41-17.68,3.76-24.4,7.03-6.72,3.28-11.87,7.68-15.44,13.2-3.57,5.52-5.35,12.39-5.35,20.61s1.78,15.02,5.35,20.42c3.57,5.4,8.72,9.65,15.44,12.76,6.72,3.11,14.86,5.31,24.4,6.6,9.54,1.29,20.34,1.93,32.37,1.93,15.77,0,28.82-1.33,39.16-3.98,10.33-2.66,18.16-6.64,23.47-11.95,5.31-5.31,8.17-11.91,8.59-19.8h-32.37Z" style="fill: #fc462d;"/>
            <path d="M36.11,182.07v-22.41h48.68c6.64,0,11.56.25,14.75.75,3.19.5,5.27,1.39,6.23,2.68.95,1.29,1.43,3.17,1.43,5.67v13.32h31.13v-17.06c0-3.65-1.06-6.45-3.17-8.4-2.12-1.95-5.85-3.3-11.21-4.05-5.35-.75-12.97-1.16-22.85-1.25l9.09,1.74c4.07-.17,7.97-.62,11.7-1.37,3.73-.75,7.05-1.95,9.96-3.61,2.9-1.66,5.19-3.98,6.85-6.97,1.66-2.99,2.49-6.76,2.49-11.33,0-6.89-1.76-12.33-5.29-16.31-3.53-3.98-8.3-6.83-14.32-8.53-6.02-1.7-12.81-2.55-20.36-2.55H4.98v79.68h31.13ZM36.11,127.29h65.12c2.49,0,4.59.4,6.29,1.18,1.7.79,2.55,2.26,2.55,4.42,0,2.32-.85,3.9-2.55,4.73-1.7.83-3.8,1.24-6.29,1.24H36.11v-11.58Z" style="fill: #fc462d;"/>
            <path d="M276.16,179.77c11.04-3.19,19.07-7.93,24.09-14.19,5.02-6.27,7.53-14.05,7.53-23.34s-2.51-17.08-7.53-23.34c-5.02-6.27-13.05-11-24.09-14.19-11.04-3.19-25.61-4.79-43.7-4.79s-32.66,1.6-43.7,4.79c-11.04,3.2-19.07,7.93-24.09,14.19-5.02,6.27-7.53,14.05-7.53,23.34s2.51,17.08,7.53,23.34c5.02,6.27,13.05,11,24.09,14.19,11.04,3.19,25.61,4.79,43.7,4.79s32.66-1.6,43.7-4.79ZM209.98,159.35c-6.43-1.04-11.45-2.9-15.06-5.6-3.61-2.7-5.42-6.54-5.42-11.52s1.81-8.82,5.42-11.52c3.61-2.7,8.63-4.56,15.06-5.6,6.43-1.04,13.92-1.56,22.47-1.56s15.94.52,22.16,1.56c6.23,1.04,11.04,2.91,14.44,5.6,3.4,2.7,5.1,6.54,5.1,11.52s-1.7,8.82-5.1,11.52c-3.4,2.7-8.22,4.57-14.44,5.6-6.23,1.04-13.61,1.56-22.16,1.56s-16.04-.52-22.47-1.56Z" style="fill: #fc462d;"/>
            <path d="M430.98,151.81c-3.28,3.49-7.95,5.87-14.01,7.16-6.06,1.29-13.2,1.93-21.42,1.93s-15.71-.64-21.73-1.93c-6.02-1.29-10.65-3.67-13.88-7.16-3.24-3.49-4.86-8.55-4.86-15.19v-34.24h-31.13v39.84c0,7.06,1.26,13.05,3.8,17.99,2.53,4.94,6.04,9.01,10.52,12.2,4.48,3.2,9.73,5.67,15.75,7.41,6.02,1.74,12.55,2.97,19.61,3.67,7.05.71,14.36,1.06,21.91,1.06,7.14,0,14.17-.35,21.1-1.06,6.93-.71,13.43-1.93,19.48-3.67,6.06-1.74,11.41-4.21,16.06-7.41,4.65-3.19,8.28-7.26,10.89-12.2,2.61-4.94,3.92-10.94,3.92-17.99v-39.84h-31.13v34.24c0,6.64-1.64,11.7-4.92,15.19Z" style="fill: #fc462d;"/>
            <path d="M479.47,126.04h129.49v-23.66h-129.49v23.66ZM528.65,182.07h31.13v-57.65h-31.13v57.65Z" style="fill: #fc462d;"/>
            <path d="M729.73,148.45v-12.45h-77.19v-9.96h94.38v-23.66h-125.5v79.68h125.75v-23.66h-94.62v-9.96h77.19Z" style="fill: #fc462d;"/>
            <path d="M761.79,163.7c1.87,3.28,4.59,6.22,8.16,8.84,3.57,2.61,7.93,4.81,13.07,6.6,5.15,1.79,11.02,3.13,17.62,4.05,6.6.91,13.84,1.37,21.73,1.37,13.94,0,25.23-.96,33.87-2.86,8.63-1.91,14.94-4.86,18.92-8.84,3.98-3.98,5.98-9.13,5.98-15.44,0-3.65-.87-6.83-2.61-9.52-1.74-2.7-4.54-4.92-8.4-6.66-3.86-1.74-8.9-3.05-15.13-3.92-6.23-.87-13.78-1.31-22.66-1.31-8.05,0-14.69-.08-19.92-.25-5.23-.17-9.28-.48-12.14-.93-2.86-.46-4.88-1.06-6.04-1.81-1.16-.75-1.74-1.74-1.74-2.99,0-2.41,2.1-4.11,6.29-5.1,4.19-1,10.6-1.49,19.24-1.49s15.44.73,20.17,2.18c4.73,1.45,7.3,3.55,7.72,6.29h32.25c0-10.38-5.04-18.32-15.13-23.84-10.08-5.52-24.67-8.28-43.76-8.28-13.03,0-23.89,1.02-32.56,3.05-8.67,2.03-15.15,5.1-19.42,9.21-4.28,4.11-6.41,9.32-6.41,15.63,0,3.65.91,6.79,2.74,9.4,1.83,2.61,4.67,4.77,8.53,6.47,3.86,1.7,8.8,2.95,14.82,3.73,6.02.79,13.18,1.18,21.48,1.18,11.12,0,19.75.17,25.9.5,6.14.33,10.42.93,12.82,1.8,2.41.87,3.61,2.1,3.61,3.67,0,1.66-.75,2.97-2.24,3.92-1.49.96-4.05,1.62-7.66,1.99-3.61.37-8.53.56-14.75.56s-11.85-.31-16.62-.93c-4.77-.62-8.57-1.54-11.39-2.74-2.82-1.2-4.52-2.68-5.1-4.42h-33.99c0,3.98.93,7.62,2.8,10.89Z" style="fill: #fc462d;"/>
          </g>
        </g>
      </g>
    </pattern>
  </defs>
  <g id="_圖層_2-2" data-name="圖層 2">
    <g style="opacity: .18;">
      <path d="M33.13,21.81h-5.72L48.23.3h9.53v24.4h-9.53V8.08l2.86,1.18-15.06,15.44h-11.44l-15.1-15.41,2.9-1.18v16.59H2.85V.3h9.53l20.74,21.51Z" style="fill: #fc462d; stroke: url(#Unnamed_Pattern); stroke-miterlimit: 10; stroke-width: .6px;"/>
      <path d="M60.81,24.71L77.17.3h10.6l16.51,24.4h-10.49l-14.15-21.85h5.68l-14.03,21.85h-10.49ZM69.36,21.01v-5.72h26.08v5.72h-26.08Z" style="fill: #fc462d; stroke: url(#Unnamed_Pattern); stroke-miterlimit: 10; stroke-width: .6px;"/>
      <path d="M107.33.3h9.53v24.4h-9.53V.3ZM127.66,12.69v-2.14l22,14.15h-14.19l-18.68-12.96L134.03.3h13.57l-19.94,12.39Z" style="fill: #fc462d; stroke: url(#Unnamed_Pattern); stroke-miterlimit: 10; stroke-width: .6px;"/>
      <path d="M163.2,14.41v3.05h28.98v7.25h-38.51V.3h38.44v7.25h-28.9v3.05h23.64v3.81h-23.64Z" style="fill: #fc462d; stroke: url(#Unnamed_Pattern); stroke-miterlimit: 10; stroke-width: .6px;"/>
      <path d="M.57,55.3l16.36-24.4h10.6l16.51,24.4h-10.49l-14.15-21.85h5.68l-14.03,21.85H.57ZM9.11,51.6v-5.72h26.08v5.72H9.11Z" style="fill: #fc462d; stroke: url(#Unnamed_Pattern); stroke-miterlimit: 10; stroke-width: .6px;"/>
      <path d="M97.35,30.9v7.25h-28.9v3.24h23.64v6.48h-23.64v7.44h-9.53v-24.4h38.44Z" style="fill: #fc462d; stroke: url(#Unnamed_Pattern); stroke-miterlimit: 10; stroke-width: .6px;"/>
      <path d="M123.08,56.06c-5.54,0-10-.49-13.38-1.47-3.38-.98-5.84-2.43-7.38-4.35s-2.31-4.3-2.31-7.15.77-5.23,2.31-7.15c1.54-1.92,4-3.37,7.38-4.35,3.38-.98,7.84-1.47,13.38-1.47s10,.49,13.38,1.47c3.38.98,5.84,2.43,7.38,4.35,1.54,1.92,2.31,4.3,2.31,7.15s-.77,5.23-2.31,7.15c-1.54,1.92-4,3.37-7.38,4.35-3.38.98-7.84,1.47-13.38,1.47ZM123.08,48.82c2.62,0,4.88-.16,6.79-.48,1.91-.32,3.38-.89,4.42-1.72s1.56-2,1.56-3.53-.52-2.7-1.56-3.53c-1.04-.83-2.52-1.4-4.42-1.72-1.91-.32-4.17-.48-6.79-.48s-4.91.16-6.88.48c-1.97.32-3.51.89-4.61,1.72-1.11.83-1.66,2-1.66,3.53s.55,2.7,1.66,3.53c1.11.83,2.64,1.4,4.61,1.72,1.97.32,4.26.48,6.88.48Z" style="fill: #fc462d; stroke: url(#Unnamed_Pattern); stroke-miterlimit: 10; stroke-width: .6px;"/>
      <path d="M151.11,55.3v-24.4h29.48c2.31,0,4.39.26,6.23.78,1.84.52,3.3,1.39,4.39,2.61,1.08,1.22,1.62,2.89,1.62,5,0,1.4-.26,2.56-.76,3.47s-1.21,1.63-2.1,2.14c-.89.51-1.91.88-3.05,1.11s-2.34.37-3.58.42l-2.78-.53c3.02.03,5.36.15,7,.38,1.64.23,2.78.64,3.43,1.24.65.6.97,1.46.97,2.57v5.22h-9.53v-4.08c0-.76-.15-1.34-.44-1.73-.29-.39-.93-.67-1.91-.82-.98-.15-2.48-.23-4.52-.23h-14.91v6.86h-9.53ZM160.64,42.07h19.94c.76,0,1.4-.13,1.93-.38.52-.25.78-.74.78-1.45,0-.66-.26-1.11-.78-1.35-.52-.24-1.16-.36-1.93-.36h-19.94v3.55Z" style="fill: #fc462d; stroke: url(#Unnamed_Pattern); stroke-miterlimit: 10; stroke-width: .6px;"/>
      <path d="M196.56,30.9h39.66v7.25h-39.66v-7.25ZM211.63,37.65h9.53v17.66h-9.53v-17.66Z" style="fill: #fc462d; stroke: url(#Unnamed_Pattern); stroke-miterlimit: 10; stroke-width: .6px;"/>
      <path d="M274.31,41.38v-10.49h9.53v12.2c0,2.16-.4,4-1.2,5.51-.8,1.51-1.91,2.76-3.34,3.74-1.42.98-3.06,1.73-4.92,2.27-1.86.53-3.85.91-5.97,1.12-2.12.22-4.28.32-6.46.32-2.31,0-4.55-.11-6.71-.32-2.16-.22-4.16-.59-6.01-1.12-1.84-.53-3.45-1.29-4.82-2.27-1.37-.98-2.45-2.22-3.22-3.74-.78-1.51-1.16-3.35-1.16-5.51v-12.2h9.53v10.49c0,2.03.5,3.58,1.49,4.65s2.41,1.8,4.25,2.19c1.84.39,4.06.59,6.65.59s4.7-.2,6.56-.59c1.85-.39,3.29-1.12,4.29-2.19s1.51-2.62,1.51-4.65Z" style="fill: #fc462d; stroke: url(#Unnamed_Pattern); stroke-miterlimit: 10; stroke-width: .6px;"/>
      <path d="M327.43,47.83l-3.55,2.02v-18.95h9.53v24.4h-9.53l-28.71-16.63,3.55-2.06v18.68h-9.53v-24.4h9.53l28.71,16.93Z" style="fill: #fc462d; stroke: url(#Unnamed_Pattern); stroke-miterlimit: 10; stroke-width: .6px;"/>
      <path d="M348.29,45.01v3.05h28.98v7.25h-38.51v-24.4h38.44v7.25h-28.9v3.05h23.64v3.81h-23.64Z" style="fill: #fc462d; stroke: url(#Unnamed_Pattern); stroke-miterlimit: 10; stroke-width: .6px;"/>
    </g>
    <g>
      <circle cx="94" cy="83.52" r="28.82" style="fill: #ffe9d7; stroke: #da4e36; stroke-miterlimit: 10; stroke-width: 2.46px;"/>
      <circle cx="157.97" cy="83.52" r="28.82" style="fill: #ffe9d7; stroke: #da4e36; stroke-miterlimit: 10; stroke-width: 2.46px;"/>
      <circle cx="221.74" cy="83.52" r="28.82" style="fill: #ffe9d7; stroke: #da4e36; stroke-miterlimit: 10; stroke-width: 2.46px;"/>
      <circle cx="285.72" cy="83.52" r="28.82" style="fill: #ffe9d7; stroke: #da4e36; stroke-miterlimit: 10; stroke-width: 2.46px;"/>
      <path d="M111.78,79.14c-2.48,2.78-5.51,5.86-8.12,8.16,2.99,3.29,6.54,6.03,10.56,7.78-1.24,1.07-2.91,3.12-3.76,4.57-5.9-3.08-10.47-8.08-13.93-14.27v11.71c0,3.03-.6,4.4-2.39,5.26-1.75.9-4.53,1.07-8.33,1.03-.21-1.45-.94-3.8-1.71-5.34,2.56.13,5.26.09,6.11.09s1.11-.26,1.11-1.07v-6.58c-4.87,3.16-9.96,6.33-14.1,8.8l-3.25-4.62c4.1-2.09,11.03-5.9,17.35-9.53v-10.3h-16.07v-4.92h16.07v-6.37h5.21v6.37h8.51c-1.75-1.15-3.93-2.39-5.77-3.33l3.03-3.21c2.52,1.15,6.07,3.08,7.91,4.44l-1.88,2.09h4.66v4.92h-16.46v.51c1.11,2.86,2.52,5.64,4.32,8.25,2.27-2.31,4.83-5.17,6.45-7.56l4.49,3.12ZM83.48,87.22c-1.24-2.35-4.23-5.73-6.8-8.12l3.89-2.69c2.52,2.22,5.68,5.43,7.05,7.74l-4.15,3.08Z" style="fill: #da4e36;"/>
      <path d="M147.76,94.1c-1.37,3.55-3.76,7.14-6.11,9.32-.9-.85-2.91-2.22-4.06-2.86,2.27-1.88,4.27-4.79,5.34-7.65l4.83,1.2ZM156.1,92.56h-15.81v-27.44h15.81v27.44ZM151.14,69.14h-6.07v3.89h6.07v-3.89ZM151.14,76.79h-6.07v3.97h6.07v-3.97ZM151.14,84.53h-6.07v3.97h6.07v-3.97ZM152.8,92.82c1.88,2.09,3.8,4.87,4.7,6.84l-4.27,2.18c-.81-2.01-2.74-5-4.53-7.22l4.1-1.79ZM177.98,78.2h-4.62v19.4c0,2.56-.51,3.93-1.97,4.74-1.5.81-3.59,1.07-6.71,1.07-.21-1.41-.98-3.63-1.71-5,1.97.09,3.85.09,4.49.09.64-.04.9-.26.9-.9v-13.04c-2.52,4.87-5.64,9.15-9.02,12.1-.85-1.15-2.39-2.86-3.46-3.72,4.27-3.21,8.25-8.93,10.73-14.75h-9.4v-4.7h11.16v-9.92h5v9.92h4.62v4.7Z" style="fill: #da4e36;"/>
      <path d="M101.24,56.49c-.89-.23-1.72-.89-2.19-1.68-.98-1.69-2.44-3.26-5.06-3.28-1.83-.01-3.95.65-5.06,2.08-.08.1-.12.28,0,.43.22.31.27.6.19.9-.14.54-.74.84-1.27,1.12-.35.18-.72.33-1.11.43-.88.25-1.93.09-2.73-.36-1.7-.97-3.74-1.6-6.02-.31-1.59.9-3.09,2.54-3.35,4.33-.02.13.04.3.22.37.35.16.54.38.62.69.14.54-.22,1.09-.54,1.6-.21.33-.46.65-.75.93-.64.66-1.63,1.05-2.54,1.06-1.96,0-4.04.48-5.37,2.74-.93,1.57-1.41,3.74-.74,5.42.05.12.19.23.38.22.38-.04.65.05.88.28.4.4.36,1.06.33,1.66-.01.39-.07.78-.18,1.18-.23.9-.89,1.72-1.68,2.19-1.69.98-3.26,2.44-3.28,5.06-.01,1.83.65,3.95,2.08,5.06.1.08.28.11.43,0,.31-.23.6-.28.9-.2.54.14.84.74,1.12,1.27.18.35.33.72.43,1.11.25.89.09,1.93-.36,2.73-.97,1.7-1.6,3.74-.31,6.02.9,1.59,2.53,3.09,4.33,3.34.13.02.3-.04.37-.22.16-.35.38-.53.69-.62.54-.15,1.1.22,1.6.54.33.21.65.46.93.75.67.65,1.05,1.63,1.06,2.55,0,1.96.48,4.04,2.74,5.37,1.57.93,3.74,1.41,5.42.73.12-.05.23-.19.22-.37-.04-.38.05-.66.28-.88.4-.4,1.06-.36,1.66-.34.39.01.79.07,1.18.18.9.23,1.72.89,2.19,1.68.98,1.69,2.44,3.26,5.06,3.28,1.83.01,3.95-.65,5.06-2.07.08-.1.11-.28,0-.44-.23-.31-.28-.6-.2-.9.15-.55.74-.84,1.27-1.12.35-.19.73-.33,1.11-.43.89-.26,1.94-.09,2.73.36,1.7.97,3.74,1.6,6.02.31,1.59-.9,3.09-2.54,3.34-4.32.02-.13-.04-.29-.22-.37-.35-.16-.53-.38-.62-.68-.14-.55.22-1.1.54-1.6.21-.33.46-.65.75-.93.64-.67,1.63-1.05,2.55-1.05,1.96-.01,4.04-.49,5.37-2.74.92-1.58,1.4-3.75.73-5.42-.05-.12-.19-.23-.38-.21-.38.04-.66-.06-.88-.29-.4-.4-.36-1.06-.34-1.65.01-.39.07-.79.18-1.18.23-.9.89-1.72,1.68-2.19,1.69-.98,3.26-2.44,3.28-5.05.02-1.83-.65-3.95-2.07-5.06-.1-.08-.28-.12-.43,0-.31.22-.6.27-.9.19-.55-.14-.84-.74-1.12-1.27-.18-.35-.33-.72-.44-1.11-.25-.88-.09-1.93.36-2.73.97-1.7,1.6-3.74.31-6.02-.9-1.59-2.54-3.09-4.33-3.34-.13-.02-.29.04-.37.22-.16.35-.38.54-.68.62-.55.14-1.1-.22-1.6-.54-.33-.21-.65-.46-.93-.75-.67-.64-1.05-1.63-1.05-2.55-.01-1.96-.49-4.04-2.74-5.37-1.58-.93-3.75-1.41-5.42-.74-.12.05-.23.19-.21.38.04.38-.06.65-.29.88-.4.4-1.06.36-1.65.33-.39-.01-.79-.07-1.18-.18h0Z" style="fill: none; stroke: #fc462d; stroke-miterlimit: 10; stroke-width: .59px;"/>
      <path d="M165.22,56.49c-.89-.23-1.72-.89-2.19-1.68-.98-1.69-2.44-3.26-5.06-3.28-1.83-.01-3.95.65-5.06,2.08-.08.1-.12.28,0,.43.22.31.27.6.19.9-.14.54-.74.84-1.27,1.12-.35.18-.72.33-1.11.43-.88.25-1.93.09-2.73-.36-1.7-.97-3.74-1.6-6.02-.31-1.59.9-3.09,2.54-3.35,4.33-.02.13.04.3.22.37.35.16.54.38.62.69.14.54-.22,1.09-.54,1.6-.21.33-.46.65-.75.93-.64.66-1.63,1.05-2.54,1.06-1.96,0-4.04.48-5.37,2.74-.93,1.57-1.41,3.74-.74,5.42.05.12.19.23.38.22.38-.04.65.05.88.28.4.4.36,1.06.33,1.66-.01.39-.07.78-.18,1.18-.23.9-.89,1.72-1.68,2.19-1.69.98-3.26,2.44-3.28,5.06-.01,1.83.65,3.95,2.08,5.06.1.08.28.11.43,0,.31-.23.6-.28.9-.2.54.14.84.74,1.12,1.27.18.35.33.72.43,1.11.25.89.09,1.93-.36,2.73-.97,1.7-1.6,3.74-.31,6.02.9,1.59,2.53,3.09,4.33,3.34.13.02.3-.04.37-.22.16-.35.38-.53.69-.62.54-.15,1.1.22,1.6.54.33.21.65.46.93.75.67.65,1.05,1.63,1.06,2.55,0,1.96.48,4.04,2.74,5.37,1.57.93,3.74,1.41,5.42.73.12-.05.23-.19.22-.37-.04-.38.05-.66.28-.88.4-.4,1.06-.36,1.66-.34.39.01.79.07,1.18.18.9.23,1.72.89,2.19,1.68.98,1.69,2.44,3.26,5.06,3.28,1.83.01,3.95-.65,5.06-2.07.08-.1.11-.28,0-.44-.23-.31-.28-.6-.2-.9.15-.55.74-.84,1.27-1.12.35-.19.73-.33,1.11-.43.89-.26,1.94-.09,2.73.36,1.7.97,3.74,1.6,6.02.31,1.59-.9,3.09-2.54,3.34-4.32.02-.13-.04-.29-.22-.37-.35-.16-.53-.38-.62-.68-.14-.55.22-1.1.54-1.6.21-.33.46-.65.75-.93.64-.67,1.63-1.05,2.55-1.05,1.96-.01,4.04-.49,5.37-2.74.92-1.58,1.4-3.75.73-5.42-.05-.12-.19-.23-.38-.21-.38.04-.66-.06-.88-.29-.4-.4-.36-1.06-.34-1.65.01-.39.07-.79.18-1.18.23-.9.89-1.72,1.68-2.19,1.69-.98,3.26-2.44,3.28-5.05.02-1.83-.65-3.95-2.07-5.06-.1-.08-.28-.12-.43,0-.31.22-.6.27-.9.19-.55-.14-.84-.74-1.12-1.27-.18-.35-.33-.72-.44-1.11-.25-.88-.09-1.93.36-2.73.97-1.7,1.6-3.74.31-6.02-.9-1.59-2.54-3.09-4.33-3.34-.13-.02-.29.04-.37.22-.16.35-.38.54-.68.62-.55.14-1.1-.22-1.6-.54-.33-.21-.65-.46-.93-.75-.67-.64-1.05-1.63-1.05-2.55-.01-1.96-.49-4.04-2.74-5.37-1.58-.93-3.75-1.41-5.42-.74-.12.05-.23.19-.21.38.04.38-.06.65-.29.88-.4.4-1.06.36-1.65.33-.39-.01-.79-.07-1.18-.18h0Z" style="fill: none; stroke: #fc462d; stroke-miterlimit: 10; stroke-width: .59px;"/>
      <path d="M214.35,91.32c-.43-1.15-1.2-2.78-1.97-4.44v16.5h-4.7v-14.02c-1.15,2.86-2.44,5.47-3.8,7.35-.51-1.5-1.67-3.72-2.48-5,2.22-2.78,4.36-7.35,5.77-11.45h-4.62v-4.74h5.13v-5.17c-1.28.26-2.52.47-3.76.64-.21-1.11-.86-2.78-1.41-3.89,4.1-.77,8.63-2.05,11.67-3.42l2.95,4.1c-1.45.6-3.03,1.11-4.74,1.5v6.24h4.57v4.74h-4.57v.6c.9,1.07,3.38,4.32,4.49,5.86.85-3.29,1.41-7.27,1.67-10.73l3.76.85c-.34,4.49-1.07,10.39-2.31,13.89l-3.97-1.32c.09-.26.21-.51.3-.81l-1.97,2.74ZM233.46,98.33c1.24,0,1.5-1.03,1.67-5.86,1.07.77,2.99,1.58,4.36,1.92-.51,6.37-1.8,8.42-5.6,8.42h-4.87c-3.68,0-5.13-1.07-5.47-4.32-1.41,1.41-2.91,2.65-4.4,3.85-.85-.94-2.95-2.69-4.1-3.5,3.16-2.18,5.9-4.79,8.38-7.78v-17.52h4.87v10.21c2.82-5.21,5.04-11.15,6.67-17.65l4.87,1.03c-1.15,4.23-2.52,8.29-4.02,12.01l2.52-.68c1.58,3.93,3.03,8.89,3.63,12.27l-4.62,1.37c-.38-2.82-1.5-6.84-2.65-10.34-1.84,4.02-4.02,7.78-6.41,11.16v3.33c0,1.8.17,2.09,1.5,2.09h3.68ZM230,73.25c-1.67-1.75-5.21-4.53-7.78-6.5l3.12-3.46c2.44,1.71,6.11,4.32,7.91,5.98l-3.25,3.98Z" style="fill: #da4e36;"/>
      <path d="M303.16,86.24c-1.58,3.72-3.89,6.8-6.8,9.23,3.04,1.41,6.28,2.56,9.66,3.33-1.07,1.03-2.48,3.08-3.21,4.36-3.85-1.07-7.52-2.61-10.9-4.49-3.8,2.22-8.12,3.76-12.69,4.79-.56-1.28-2.14-3.59-3.16-4.53,4.06-.68,7.86-1.79,11.2-3.33-2.69-1.97-5-4.27-6.97-6.75h-.13c-1.58,5.56-4.7,10.81-11.16,14.53-.73-1.32-2.18-3.12-3.46-4.06,8.29-4.36,9.96-11.84,10.6-18.25h-6.88v-4.62h8.89c-.81-1.28-2.18-2.86-3.33-4.06l2.31-1.71h-3.55c-1.37,2.05-2.86,3.89-4.32,5.34-.81-.94-2.65-2.69-3.72-3.5,2.65-2.27,5.13-5.81,6.5-9.36l4.83,1.37c-.26.64-.56,1.28-.9,1.92h9.49v4.23h-6.58c1.15,1.2,2.44,2.65,3.12,3.63l-2.65,2.14h17.44c-1.15,2.61-2.56,5.6-3.85,8.03h5.9l.94-.21,3.38,1.97ZM281.66,81.07c-.13,1.15-.3,2.27-.51,3.42h6.41c.51-1.11,1.11-2.22,1.67-3.42h-7.57ZM291.71,70.77c-1.2,2.01-2.52,3.76-3.89,5.13-.94-.81-3.12-2.27-4.27-2.86,2.65-2.35,4.96-6.11,6.2-9.87l4.96,1.24c-.26.68-.51,1.41-.86,2.14h11.33v4.23h-7.14c1.33,1.32,2.65,2.78,3.42,3.85l-3.42,2.82c-.85-1.45-2.74-3.68-4.32-5.21l1.88-1.45h-3.89ZM286.45,88.85c1.5,1.5,3.29,2.86,5.3,4.1,1.58-1.2,2.99-2.52,4.1-4.1h-9.4Z" style="fill: #da4e36;"/>
      <path d="M228.98,56.49c-.89-.23-1.72-.89-2.19-1.68-.98-1.69-2.44-3.26-5.06-3.28-1.83-.01-3.95.65-5.06,2.08-.08.1-.12.28,0,.43.22.31.27.6.19.9-.14.54-.74.84-1.27,1.12-.35.18-.72.33-1.11.43-.88.25-1.93.09-2.73-.36-1.7-.97-3.74-1.6-6.02-.31-1.59.9-3.09,2.54-3.35,4.33-.02.13.04.3.22.37.35.16.54.38.62.69.14.54-.22,1.09-.54,1.6-.21.33-.46.65-.75.93-.64.66-1.63,1.05-2.54,1.06-1.96,0-4.04.48-5.37,2.74-.93,1.57-1.41,3.74-.74,5.42.05.12.19.23.38.22.38-.04.65.05.88.28.4.4.36,1.06.33,1.66-.01.39-.07.78-.18,1.18-.23.9-.89,1.72-1.68,2.19-1.69.98-3.26,2.44-3.28,5.06-.01,1.83.65,3.95,2.08,5.06.1.08.28.11.43,0,.31-.23.6-.28.9-.2.54.14.84.74,1.12,1.27.18.35.33.72.43,1.11.25.89.09,1.93-.36,2.73-.97,1.7-1.6,3.74-.31,6.02.9,1.59,2.53,3.09,4.33,3.34.13.02.3-.04.37-.22.16-.35.38-.53.69-.62.54-.15,1.1.22,1.6.54.33.21.65.46.93.75.67.65,1.05,1.63,1.06,2.55,0,1.96.48,4.04,2.74,5.37,1.57.93,3.74,1.41,5.42.73.12-.05.23-.19.22-.37-.04-.38.05-.66.28-.88.4-.4,1.06-.36,1.66-.34.39.01.79.07,1.18.18.9.23,1.72.89,2.19,1.68.98,1.69,2.44,3.26,5.06,3.28,1.83.01,3.95-.65,5.06-2.07.08-.1.11-.28,0-.44-.23-.31-.28-.6-.2-.9.15-.55.74-.84,1.27-1.12.35-.19.73-.33,1.11-.43.89-.26,1.94-.09,2.73.36,1.7.97,3.74,1.6,6.02.31,1.59-.9,3.09-2.54,3.34-4.32.02-.13-.04-.29-.22-.37-.35-.16-.53-.38-.62-.68-.14-.55.22-1.1.54-1.6.21-.33.46-.65.75-.93.64-.67,1.63-1.05,2.55-1.05,1.96-.01,4.04-.49,5.37-2.74.92-1.58,1.4-3.75.73-5.42-.05-.12-.19-.23-.38-.21-.38.04-.66-.06-.88-.29-.4-.4-.36-1.06-.34-1.65.01-.39.07-.79.18-1.18.23-.9.89-1.72,1.68-2.19,1.69-.98,3.26-2.44,3.28-5.05.02-1.83-.65-3.95-2.07-5.06-.1-.08-.28-.12-.43,0-.31.22-.6.27-.9.19-.55-.14-.84-.74-1.12-1.27-.18-.35-.33-.72-.44-1.11-.25-.88-.09-1.93.36-2.73.97-1.7,1.6-3.74.31-6.02-.9-1.59-2.54-3.09-4.33-3.34-.13-.02-.29.04-.37.22-.16.35-.38.54-.68.62-.55.14-1.1-.22-1.6-.54-.33-.21-.65-.46-.93-.75-.67-.64-1.05-1.63-1.05-2.55-.01-1.96-.49-4.04-2.74-5.37-1.58-.93-3.75-1.41-5.42-.74-.12.05-.23.19-.21.38.04.38-.06.65-.29.88-.4.4-1.06.36-1.65.33-.39-.01-.79-.07-1.18-.18h0Z" style="fill: none; stroke: #fc462d; stroke-miterlimit: 10; stroke-width: .59px;"/>
      <path d="M292.96,56.49c-.89-.23-1.72-.89-2.19-1.68-.98-1.69-2.44-3.26-5.06-3.28-1.83-.01-3.95.65-5.06,2.08-.08.1-.12.28,0,.43.22.31.27.6.19.9-.14.54-.74.84-1.27,1.12-.35.18-.72.33-1.11.43-.88.25-1.93.09-2.73-.36-1.7-.97-3.74-1.6-6.02-.31-1.59.9-3.09,2.54-3.35,4.33-.02.13.04.3.22.37.35.16.54.38.62.69.14.54-.22,1.09-.54,1.6-.21.33-.46.65-.75.93-.64.66-1.63,1.05-2.54,1.06-1.96,0-4.04.48-5.37,2.74-.93,1.57-1.41,3.74-.74,5.42.05.12.19.23.38.22.38-.04.65.05.88.28.4.4.36,1.06.33,1.66-.01.39-.07.78-.18,1.18-.23.9-.89,1.72-1.68,2.19-1.69.98-3.26,2.44-3.28,5.06-.01,1.83.65,3.95,2.08,5.06.1.08.28.11.43,0,.31-.23.6-.28.9-.2.54.14.84.74,1.12,1.27.18.35.33.72.43,1.11.25.89.09,1.93-.36,2.73-.97,1.7-1.6,3.74-.31,6.02.9,1.59,2.53,3.09,4.33,3.34.13.02.3-.04.37-.22.16-.35.38-.53.69-.62.54-.15,1.1.22,1.6.54.33.21.65.46.93.75.67.65,1.05,1.63,1.06,2.55,0,1.96.48,4.04,2.74,5.37,1.57.93,3.74,1.41,5.42.73.12-.05.23-.19.22-.37-.04-.38.05-.66.28-.88.4-.4,1.06-.36,1.66-.34.39.01.79.07,1.18.18.9.23,1.72.89,2.19,1.68.98,1.69,2.44,3.26,5.06,3.28,1.83.01,3.95-.65,5.06-2.07.08-.1.11-.28,0-.44-.23-.31-.28-.6-.2-.9.15-.55.74-.84,1.27-1.12.35-.19.73-.33,1.11-.43.89-.26,1.94-.09,2.73.36,1.7.97,3.74,1.6,6.02.31,1.59-.9,3.09-2.54,3.34-4.32.02-.13-.04-.29-.22-.37-.35-.16-.53-.38-.62-.68-.14-.55.22-1.1.54-1.6.21-.33.46-.65.75-.93.64-.67,1.63-1.05,2.55-1.05,1.96-.01,4.04-.49,5.37-2.74.92-1.58,1.4-3.75.73-5.42-.05-.12-.19-.23-.38-.21-.38.04-.66-.06-.88-.29-.4-.4-.36-1.06-.34-1.65.01-.39.07-.79.18-1.18.23-.9.89-1.72,1.68-2.19,1.69-.98,3.26-2.44,3.28-5.05.02-1.83-.65-3.95-2.07-5.06-.1-.08-.28-.12-.43,0-.31.22-.6.27-.9.19-.55-.14-.84-.74-1.12-1.27-.18-.35-.33-.72-.44-1.11-.25-.88-.09-1.93.36-2.73.97-1.7,1.6-3.74.31-6.02-.9-1.59-2.54-3.09-4.33-3.34-.13-.02-.29.04-.37.22-.16.35-.38.54-.68.62-.55.14-1.1-.22-1.6-.54-.33-.21-.65-.46-.93-.75-.67-.64-1.05-1.63-1.05-2.55-.01-1.96-.49-4.04-2.74-5.37-1.58-.93-3.75-1.41-5.42-.74-.12.05-.23.19-.21.38.04.38-.06.65-.29.88-.4.4-1.06.36-1.65.33-.39-.01-.79-.07-1.18-.18h0Z" style="fill: none; stroke: #fc462d; stroke-miterlimit: 10; stroke-width: .59px;"/>
    </g>
  </g>
</svg>