<?xml version="1.0" encoding="UTF-8"?>
<svg id="b" data-name="圖層 2" xmlns="http://www.w3.org/2000/svg" width="1231.86" height="291.55" viewBox="0 0 1231.86 291.55">
  <defs>
    <style>
      .e {
        opacity: .18;
      }

      .f {
        fill: none;
        stroke: #fc462d;
        stroke-width: .75px;
      }

      .f, .g {
        stroke-miterlimit: 10;
      }

      .h {
        fill: #fc462d;
      }

      .g {
        fill: #ffe9d7;
        stroke: #da4e36;
        stroke-width: 3.14px;
      }

      .i {
        fill: #da4e36;
      }
    </style>
  </defs>
  <g id="c" data-name="底圖">
    <g>
      <circle class="g" cx="41.31" cy="250.24" r="36.88"/>
      <circle class="g" cx="123.18" cy="250.24" r="36.88"/>
      <circle class="g" cx="204.78" cy="250.24" r="36.88"/>
      <circle class="g" cx="286.65" cy="250.24" r="36.88"/>
      <path class="i" d="M64.06,244.65c-3.17,3.55-7.05,7.49-10.39,10.45,3.83,4.21,8.37,7.71,13.51,9.95-1.59,1.37-3.72,3.99-4.81,5.85-7.55-3.94-13.4-10.34-17.83-18.27v14.98c0,3.88-.77,5.63-3.06,6.73-2.24,1.15-5.8,1.37-10.66,1.31-.27-1.86-1.2-4.87-2.19-6.84,3.28,.16,6.73,.11,7.82,.11s1.42-.33,1.42-1.37v-8.42c-6.23,4.05-12.74,8.09-18.05,11.27l-4.16-5.91c5.25-2.68,14.11-7.55,22.2-12.2v-13.18H17.3v-6.29h20.56v-8.15h6.67v8.15h10.88c-2.24-1.48-5.03-3.06-7.38-4.27l3.88-4.1c3.23,1.48,7.77,3.94,10.12,5.69l-2.41,2.68h5.96v6.29h-21.05v.66c1.42,3.66,3.23,7.22,5.52,10.55,2.9-2.95,6.18-6.62,8.26-9.68l5.74,3.99Zm-36.2,10.34c-1.59-3.01-5.41-7.33-8.7-10.39l4.98-3.45c3.23,2.84,7.27,6.95,9.02,9.9l-5.3,3.94Z"/>
      <path class="i" d="M110.11,263.79c-1.75,4.54-4.81,9.13-7.82,11.92-1.15-1.09-3.72-2.84-5.2-3.66,2.9-2.41,5.47-6.12,6.84-9.79l6.18,1.53Zm10.66-1.97h-20.23v-35.11h20.23v35.11Zm-6.34-29.97h-7.77v4.98h7.77v-4.98Zm0,9.79h-7.77v5.09h7.77v-5.09Zm0,9.9h-7.77v5.09h7.77v-5.09Zm2.13,10.61c2.41,2.68,4.87,6.23,6.02,8.75l-5.47,2.79c-1.04-2.57-3.5-6.4-5.8-9.24l5.25-2.3Zm32.21-18.7h-5.91v24.83c0,3.28-.66,5.03-2.52,6.07-1.91,1.04-4.59,1.37-8.59,1.37-.27-1.8-1.26-4.65-2.19-6.4,2.52,.11,4.92,.11,5.74,.11,.82-.05,1.15-.33,1.15-1.15v-16.68c-3.23,6.23-7.22,11.7-11.54,15.48-1.09-1.48-3.06-3.66-4.43-4.76,5.47-4.1,10.55-11.43,13.73-18.87h-12.03v-6.02h14.27v-12.69h6.4v12.69h5.91v6.02Z"/>
      <path class="f" d="M50.58,215.66c-1.14-.29-2.2-1.14-2.8-2.15-1.26-2.17-3.12-4.17-6.47-4.2-2.34-.02-5.05,.83-6.47,2.66-.11,.13-.15,.35,0,.55,.28,.4,.35,.76,.24,1.16-.18,.7-.94,1.08-1.62,1.43-.45,.23-.92,.42-1.42,.55-1.13,.32-2.48,.12-3.5-.46-2.17-1.24-4.79-2.05-7.7-.4-2.04,1.15-3.96,3.25-4.28,5.54-.02,.16,.06,.38,.28,.48,.45,.2,.69,.49,.79,.88,.18,.69-.28,1.4-.69,2.04-.27,.42-.58,.83-.96,1.19-.82,.85-2.09,1.34-3.25,1.35-2.51,.01-5.18,.62-6.87,3.51-1.19,2.01-1.81,4.79-.94,6.93,.06,.15,.24,.3,.49,.28,.48-.06,.83,.07,1.12,.36,.51,.51,.46,1.36,.43,2.12-.02,.5-.09,1-.23,1.5-.29,1.15-1.14,2.2-2.15,2.8-2.17,1.26-4.17,3.13-4.2,6.47-.01,2.34,.84,5.05,2.66,6.48,.13,.1,.36,.14,.55,0,.4-.29,.76-.35,1.16-.25,.7,.18,1.08,.94,1.43,1.62,.23,.45,.42,.92,.55,1.42,.32,1.13,.12,2.48-.46,3.49-1.24,2.17-2.04,4.79-.4,7.7,1.15,2.04,3.24,3.95,5.54,4.28,.16,.02,.38-.06,.48-.28,.2-.45,.49-.68,.88-.79,.69-.19,1.4,.28,2.04,.69,.43,.27,.83,.59,1.19,.96,.85,.83,1.34,2.09,1.35,3.26,.01,2.5,.62,5.17,3.51,6.87,2.01,1.18,4.79,1.8,6.93,.94,.15-.07,.3-.24,.28-.48-.05-.49,.07-.84,.36-1.12,.51-.51,1.36-.46,2.12-.43,.5,.02,1,.09,1.51,.23,1.15,.29,2.2,1.14,2.8,2.15,1.26,2.17,3.12,4.17,6.47,4.2,2.34,.02,5.05-.83,6.47-2.65,.1-.13,.14-.36,0-.56-.29-.4-.35-.76-.25-1.15,.19-.7,.94-1.08,1.62-1.43,.45-.24,.93-.43,1.42-.56,1.14-.33,2.48-.12,3.5,.46,2.18,1.25,4.79,2.05,7.71,.4,2.04-1.15,3.95-3.24,4.28-5.53,.02-.16-.05-.38-.28-.48-.45-.2-.68-.48-.79-.87-.18-.7,.28-1.41,.69-2.05,.27-.42,.59-.83,.96-1.19,.82-.85,2.09-1.34,3.26-1.35,2.5-.02,5.17-.62,6.87-3.51,1.18-2.02,1.8-4.79,.94-6.94-.07-.15-.24-.3-.48-.27-.49,.05-.84-.08-1.12-.37-.51-.51-.46-1.35-.43-2.12,.02-.5,.09-1.01,.23-1.51,.29-1.15,1.14-2.2,2.15-2.8,2.16-1.26,4.17-3.12,4.2-6.47,.02-2.34-.84-5.05-2.65-6.47-.13-.11-.36-.15-.55,0-.4,.28-.76,.35-1.16,.25-.7-.18-1.08-.94-1.43-1.62-.24-.45-.43-.92-.56-1.42-.32-1.13-.11-2.48,.46-3.5,1.24-2.17,2.05-4.79,.4-7.7-1.15-2.04-3.25-3.96-5.54-4.28-.16-.02-.37,.05-.48,.28-.2,.45-.48,.69-.87,.79-.7,.18-1.41-.28-2.05-.69-.42-.27-.83-.59-1.19-.95-.85-.82-1.34-2.09-1.35-3.26-.02-2.51-.62-5.17-3.51-6.87-2.02-1.19-4.79-1.81-6.94-.94-.15,.07-.3,.24-.27,.49,.05,.49-.08,.83-.37,1.13-.51,.51-1.35,.46-2.12,.42-.5-.02-1.01-.1-1.51-.23h0Z"/>
      <path class="f" d="M132.45,215.66c-1.14-.29-2.2-1.14-2.8-2.15-1.26-2.17-3.12-4.17-6.47-4.2-2.34-.02-5.05,.83-6.47,2.66-.11,.13-.15,.35,0,.55,.28,.4,.35,.76,.24,1.16-.18,.7-.94,1.08-1.62,1.43-.45,.23-.92,.42-1.42,.55-1.13,.32-2.48,.12-3.5-.46-2.17-1.24-4.79-2.05-7.7-.4-2.04,1.15-3.96,3.25-4.28,5.54-.02,.16,.06,.38,.28,.48,.45,.2,.69,.49,.79,.88,.18,.69-.28,1.4-.69,2.04-.27,.42-.58,.83-.96,1.19-.82,.85-2.09,1.34-3.25,1.35-2.51,.01-5.18,.62-6.87,3.51-1.19,2.01-1.81,4.79-.94,6.93,.06,.15,.24,.3,.49,.28,.48-.06,.83,.07,1.12,.36,.51,.51,.46,1.36,.43,2.12-.02,.5-.09,1-.23,1.5-.29,1.15-1.14,2.2-2.15,2.8-2.17,1.26-4.17,3.13-4.2,6.47-.01,2.34,.84,5.05,2.66,6.48,.13,.1,.36,.14,.55,0,.4-.29,.76-.35,1.16-.25,.7,.18,1.08,.94,1.43,1.62,.23,.45,.42,.92,.55,1.42,.32,1.13,.12,2.48-.46,3.49-1.24,2.17-2.04,4.79-.4,7.7,1.15,2.04,3.24,3.95,5.54,4.28,.16,.02,.38-.06,.48-.28,.2-.45,.49-.68,.88-.79,.69-.19,1.4,.28,2.04,.69,.43,.27,.83,.59,1.19,.96,.85,.83,1.34,2.09,1.35,3.26,.01,2.5,.62,5.17,3.51,6.87,2.01,1.18,4.79,1.8,6.93,.94,.15-.07,.3-.24,.28-.48-.05-.49,.07-.84,.36-1.12,.51-.51,1.36-.46,2.12-.43,.5,.02,1,.09,1.51,.23,1.15,.29,2.2,1.14,2.8,2.15,1.26,2.17,3.12,4.17,6.47,4.2,2.34,.02,5.05-.83,6.47-2.65,.1-.13,.14-.36,0-.56-.29-.4-.35-.76-.25-1.15,.19-.7,.94-1.08,1.62-1.43,.45-.24,.93-.43,1.42-.56,1.14-.33,2.48-.12,3.5,.46,2.18,1.25,4.79,2.05,7.71,.4,2.04-1.15,3.95-3.24,4.28-5.53,.02-.16-.05-.38-.28-.48-.45-.2-.68-.48-.79-.87-.19-.7,.28-1.41,.69-2.05,.27-.42,.59-.83,.96-1.19,.82-.85,2.09-1.34,3.26-1.35,2.5-.02,5.17-.62,6.87-3.51,1.18-2.02,1.8-4.79,.94-6.94-.07-.15-.24-.3-.48-.27-.49,.05-.84-.08-1.12-.37-.51-.51-.46-1.35-.43-2.12,.02-.5,.09-1.01,.23-1.51,.29-1.15,1.14-2.2,2.15-2.8,2.16-1.26,4.17-3.12,4.2-6.47,.02-2.34-.84-5.05-2.65-6.47-.13-.11-.36-.15-.55,0-.4,.28-.76,.35-1.16,.25-.7-.18-1.08-.94-1.43-1.62-.24-.45-.43-.92-.56-1.42-.32-1.13-.11-2.48,.46-3.5,1.24-2.17,2.05-4.79,.4-7.7-1.15-2.04-3.25-3.96-5.54-4.28-.16-.02-.37,.05-.48,.28-.2,.45-.48,.69-.87,.79-.7,.18-1.41-.28-2.05-.69-.42-.27-.83-.59-1.19-.95-.85-.82-1.34-2.09-1.35-3.26-.02-2.51-.62-5.17-3.51-6.87-2.02-1.19-4.79-1.81-6.94-.94-.15,.07-.3,.24-.27,.49,.05,.49-.08,.83-.37,1.13-.51,.51-1.35,.46-2.12,.42-.5-.02-1.01-.1-1.51-.23h0Z"/>
      <path class="i" d="M195.32,260.24c-.55-1.48-1.53-3.55-2.52-5.69v21.11h-6.02v-17.94c-1.48,3.66-3.12,7-4.87,9.41-.66-1.91-2.13-4.76-3.17-6.4,2.84-3.55,5.58-9.41,7.38-14.66h-5.91v-6.07h6.56v-6.62c-1.64,.33-3.23,.6-4.81,.82-.27-1.42-1.09-3.55-1.8-4.98,5.25-.98,11.05-2.62,14.93-4.38l3.77,5.25c-1.86,.77-3.88,1.42-6.07,1.91v7.98h5.85v6.07h-5.85v.77c1.15,1.37,4.32,5.52,5.74,7.49,1.09-4.21,1.8-9.3,2.13-13.73l4.81,1.09c-.44,5.74-1.37,13.29-2.95,17.77l-5.09-1.7c.11-.33,.27-.66,.38-1.04l-2.52,3.5Zm24.45,8.97c1.59,0,1.91-1.31,2.13-7.49,1.37,.98,3.83,2.02,5.58,2.46-.66,8.15-2.3,10.77-7.16,10.77h-6.23c-4.7,0-6.56-1.37-7-5.52-1.8,1.8-3.72,3.39-5.63,4.92-1.09-1.2-3.77-3.45-5.25-4.48,4.05-2.79,7.55-6.12,10.72-9.95v-22.42h6.23v13.07c3.61-6.67,6.45-14.27,8.53-22.59l6.23,1.31c-1.48,5.41-3.23,10.61-5.14,15.37l3.23-.88c2.02,5.03,3.88,11.38,4.65,15.7l-5.91,1.75c-.49-3.61-1.91-8.75-3.39-13.23-2.35,5.14-5.14,9.95-8.2,14.27v4.27c0,2.3,.22,2.68,1.91,2.68h4.7Zm-4.43-32.1c-2.13-2.24-6.67-5.8-9.95-8.31l3.99-4.43c3.12,2.19,7.82,5.52,10.12,7.66l-4.16,5.09Z"/>
      <path class="i" d="M308.97,253.73c-2.02,4.76-4.98,8.7-8.7,11.81,3.88,1.8,8.04,3.28,12.36,4.27-1.37,1.31-3.17,3.94-4.1,5.58-4.92-1.37-9.62-3.34-13.95-5.74-4.87,2.84-10.39,4.81-16.24,6.12-.71-1.64-2.73-4.59-4.05-5.8,5.2-.88,10.06-2.3,14.33-4.27-3.45-2.52-6.4-5.47-8.91-8.64h-.16c-2.02,7.11-6.02,13.84-14.27,18.59-.93-1.7-2.79-3.99-4.43-5.2,10.61-5.58,12.74-15.15,13.56-23.35h-8.8v-5.91h11.38c-1.04-1.64-2.79-3.66-4.27-5.2l2.95-2.19h-4.54c-1.75,2.62-3.66,4.98-5.52,6.84-1.04-1.2-3.39-3.45-4.76-4.48,3.39-2.9,6.56-7.44,8.31-11.98l6.18,1.75c-.33,.82-.71,1.64-1.15,2.46h12.14v5.41h-8.42c1.48,1.53,3.12,3.39,3.99,4.65l-3.39,2.73h22.31c-1.48,3.34-3.28,7.16-4.92,10.28h7.55l1.2-.27,4.32,2.52Zm-27.51-6.62c-.16,1.48-.38,2.9-.66,4.38h8.2c.66-1.42,1.42-2.84,2.13-4.38h-9.68Zm12.85-13.18c-1.53,2.57-3.23,4.81-4.98,6.56-1.2-1.04-3.99-2.9-5.47-3.66,3.39-3.01,6.34-7.82,7.93-12.63l6.34,1.59c-.33,.88-.66,1.8-1.09,2.73h14.49v5.41h-9.13c1.7,1.7,3.39,3.55,4.38,4.92l-4.38,3.61c-1.09-1.86-3.5-4.7-5.52-6.67l2.41-1.86h-4.98Zm-6.73,23.13c1.91,1.91,4.21,3.66,6.78,5.25,2.02-1.53,3.83-3.23,5.25-5.25h-12.03Z"/>
      <path class="f" d="M214.05,215.66c-1.14-.29-2.2-1.14-2.8-2.15-1.26-2.17-3.12-4.17-6.47-4.2-2.34-.02-5.05,.83-6.47,2.66-.11,.13-.15,.35,0,.55,.28,.4,.35,.76,.24,1.16-.18,.7-.94,1.08-1.62,1.43-.45,.23-.92,.42-1.42,.55-1.13,.32-2.48,.12-3.5-.46-2.17-1.24-4.79-2.05-7.7-.4-2.04,1.15-3.96,3.25-4.28,5.54-.02,.16,.06,.38,.28,.48,.45,.2,.69,.49,.79,.88,.18,.69-.28,1.4-.69,2.04-.27,.42-.58,.83-.96,1.19-.82,.85-2.09,1.34-3.25,1.35-2.51,.01-5.18,.62-6.87,3.51-1.19,2.01-1.81,4.79-.94,6.93,.06,.15,.24,.3,.49,.28,.48-.06,.83,.07,1.12,.36,.51,.51,.46,1.36,.43,2.12-.02,.5-.09,1-.23,1.5-.29,1.15-1.14,2.2-2.15,2.8-2.17,1.26-4.17,3.13-4.2,6.47-.01,2.34,.84,5.05,2.66,6.48,.13,.1,.36,.14,.55,0,.4-.29,.76-.35,1.16-.25,.7,.18,1.08,.94,1.43,1.62,.23,.45,.42,.92,.55,1.42,.32,1.13,.12,2.48-.46,3.49-1.24,2.17-2.04,4.79-.4,7.7,1.15,2.04,3.24,3.95,5.54,4.28,.16,.02,.38-.06,.48-.28,.2-.45,.49-.68,.88-.79,.69-.19,1.4,.28,2.04,.69,.43,.27,.83,.59,1.19,.96,.85,.83,1.34,2.09,1.35,3.26,.01,2.5,.62,5.17,3.51,6.87,2.01,1.18,4.79,1.8,6.93,.94,.15-.07,.3-.24,.28-.48-.05-.49,.07-.84,.36-1.12,.51-.51,1.36-.46,2.12-.43,.5,.02,1,.09,1.5,.23,1.15,.29,2.2,1.14,2.8,2.15,1.26,2.17,3.12,4.17,6.47,4.2,2.34,.02,5.05-.83,6.47-2.65,.1-.13,.14-.36,0-.56-.29-.4-.35-.76-.25-1.15,.19-.7,.94-1.08,1.62-1.43,.45-.24,.93-.43,1.42-.56,1.14-.33,2.48-.12,3.5,.46,2.18,1.25,4.79,2.05,7.71,.4,2.04-1.15,3.95-3.24,4.28-5.53,.02-.16-.05-.38-.28-.48-.45-.2-.68-.48-.79-.87-.19-.7,.28-1.41,.69-2.05,.27-.42,.59-.83,.96-1.19,.82-.85,2.09-1.34,3.26-1.35,2.5-.02,5.17-.62,6.87-3.51,1.18-2.02,1.8-4.79,.94-6.94-.07-.15-.24-.3-.48-.27-.49,.05-.84-.08-1.12-.37-.51-.51-.46-1.35-.43-2.12,.02-.5,.09-1.01,.23-1.51,.29-1.15,1.14-2.2,2.15-2.8,2.16-1.26,4.17-3.12,4.2-6.47,.02-2.34-.84-5.05-2.65-6.47-.13-.11-.36-.15-.55,0-.4,.28-.76,.35-1.16,.25-.7-.18-1.07-.94-1.43-1.62-.24-.45-.43-.92-.56-1.42-.32-1.13-.11-2.48,.46-3.5,1.24-2.17,2.05-4.79,.4-7.7-1.15-2.04-3.25-3.96-5.54-4.28-.16-.02-.37,.05-.48,.28-.2,.45-.48,.69-.87,.79-.7,.18-1.41-.28-2.05-.69-.42-.27-.83-.59-1.19-.95-.85-.82-1.34-2.09-1.35-3.26-.02-2.51-.62-5.17-3.51-6.87-2.02-1.19-4.79-1.81-6.94-.94-.15,.07-.3,.24-.27,.49,.05,.49-.08,.83-.37,1.13-.51,.51-1.35,.46-2.12,.42-.5-.02-1.01-.1-1.51-.23h0Z"/>
      <path class="f" d="M295.92,215.66c-1.14-.29-2.2-1.14-2.8-2.15-1.26-2.17-3.12-4.17-6.47-4.2-2.34-.02-5.05,.83-6.47,2.66-.11,.13-.15,.35,0,.55,.28,.4,.35,.76,.24,1.16-.18,.7-.94,1.08-1.62,1.43-.45,.23-.92,.42-1.42,.55-1.13,.32-2.48,.12-3.5-.46-2.17-1.24-4.79-2.05-7.7-.4-2.04,1.15-3.96,3.25-4.28,5.54-.02,.16,.06,.38,.28,.48,.45,.2,.69,.49,.79,.88,.18,.69-.28,1.4-.69,2.04-.27,.42-.58,.83-.96,1.19-.82,.85-2.09,1.34-3.25,1.35-2.51,.01-5.18,.62-6.87,3.51-1.19,2.01-1.81,4.79-.94,6.93,.06,.15,.24,.3,.49,.28,.48-.06,.83,.07,1.12,.36,.51,.51,.46,1.36,.43,2.12-.02,.5-.09,1-.23,1.5-.29,1.15-1.14,2.2-2.15,2.8-2.17,1.26-4.17,3.13-4.2,6.47-.01,2.34,.84,5.05,2.66,6.48,.13,.1,.36,.14,.55,0,.4-.29,.76-.35,1.16-.25,.7,.18,1.08,.94,1.43,1.62,.23,.45,.42,.92,.55,1.42,.32,1.13,.12,2.48-.46,3.49-1.24,2.17-2.04,4.79-.4,7.7,1.15,2.04,3.24,3.95,5.54,4.28,.16,.02,.38-.06,.48-.28,.2-.45,.49-.68,.88-.79,.69-.19,1.4,.28,2.04,.69,.43,.27,.83,.59,1.19,.96,.85,.83,1.34,2.09,1.35,3.26,.01,2.5,.62,5.17,3.51,6.87,2.01,1.18,4.79,1.8,6.93,.94,.15-.07,.3-.24,.28-.48-.05-.49,.07-.84,.36-1.12,.51-.51,1.36-.46,2.12-.43,.5,.02,1,.09,1.51,.23,1.15,.29,2.2,1.14,2.8,2.15,1.26,2.17,3.12,4.17,6.47,4.2,2.34,.02,5.05-.83,6.47-2.65,.1-.13,.14-.36,0-.56-.29-.4-.35-.76-.25-1.15,.19-.7,.94-1.08,1.62-1.43,.45-.24,.93-.43,1.42-.56,1.14-.33,2.48-.12,3.5,.46,2.18,1.25,4.79,2.05,7.71,.4,2.04-1.15,3.95-3.24,4.28-5.53,.02-.16-.05-.38-.28-.48-.45-.2-.68-.48-.79-.87-.18-.7,.28-1.41,.69-2.05,.27-.42,.59-.83,.96-1.19,.82-.85,2.09-1.34,3.26-1.35,2.5-.02,5.17-.62,6.87-3.51,1.18-2.02,1.8-4.79,.94-6.94-.07-.15-.24-.3-.48-.27-.49,.05-.84-.08-1.12-.37-.51-.51-.46-1.35-.43-2.12,.02-.5,.09-1.01,.23-1.51,.29-1.15,1.14-2.2,2.15-2.8,2.16-1.26,4.17-3.12,4.2-6.47,.02-2.34-.84-5.05-2.65-6.47-.13-.11-.36-.15-.55,0-.4,.28-.76,.35-1.16,.25-.7-.18-1.08-.94-1.43-1.62-.24-.45-.43-.92-.56-1.42-.32-1.13-.11-2.48,.46-3.5,1.24-2.17,2.05-4.79,.4-7.7-1.15-2.04-3.25-3.96-5.54-4.28-.16-.02-.37,.05-.48,.28-.2,.45-.48,.69-.87,.79-.7,.18-1.41-.28-2.05-.69-.42-.27-.83-.59-1.19-.95-.85-.82-1.34-2.09-1.35-3.26-.02-2.51-.62-5.17-3.51-6.87-2.02-1.19-4.79-1.81-6.94-.94-.15,.07-.3,.24-.27,.49,.05,.49-.08,.83-.37,1.13-.51,.51-1.35,.46-2.12,.42-.5-.02-1.01-.1-1.51-.23h0Z"/>
    </g>
  </g>
  <g id="d" data-name="UI">
    <g class="e">
      <g>
        <path class="h" d="M108.2,70.22h-18.68L157.5,0h31.13V79.68h-31.13V25.4l9.34,3.86-49.18,50.42h-37.35L31.01,29.38l9.46-3.86v54.16H9.34V0h31.13L108.2,70.22Z"/>
        <path class="h" d="M198.59,79.68L252,0h34.61l53.91,79.68h-34.24L260.1,8.34h18.55l-45.82,71.34h-34.24Zm27.89-12.08v-18.68h85.16v18.68h-85.16Z"/>
        <path class="h" d="M350.49,0h31.13V79.68h-31.13V0Zm66.36,40.46v-6.97l71.84,46.19h-46.32l-61.01-42.33L437.64,0h44.32l-65.12,40.46Z"/>
        <path class="h" d="M532.89,46.07v9.96h94.63v23.66h-125.75V0h125.5V23.66h-94.38v9.96h77.19v12.45h-77.19Z"/>
        <path class="h" d="M1.87,179.58L55.28,99.89h34.61l53.91,79.68h-34.24L63.38,108.24h18.55l-45.82,71.34H1.87Zm27.89-12.08v-18.68H114.92v18.68H29.76Z"/>
        <path class="h" d="M317.87,99.89v23.66h-94.38v10.58h77.19v21.17h-77.19v24.28h-31.13V99.89h125.5Z"/>
        <path class="h" d="M401.91,182.07c-18.1,0-32.66-1.6-43.7-4.79-11.04-3.19-19.07-7.93-24.09-14.19-5.02-6.27-7.53-14.05-7.53-23.34s2.51-17.08,7.53-23.35c5.02-6.27,13.05-11,24.09-14.19,11.04-3.19,25.61-4.79,43.7-4.79s32.66,1.6,43.7,4.79c11.04,3.2,19.07,7.93,24.09,14.19,5.02,6.27,7.53,14.05,7.53,23.35s-2.51,17.08-7.53,23.34c-5.02,6.27-13.05,11-24.09,14.19-11.04,3.19-25.61,4.79-43.7,4.79Zm0-23.66c8.55,0,15.94-.52,22.16-1.56,6.23-1.04,11.04-2.9,14.44-5.6,3.4-2.7,5.1-6.54,5.1-11.52s-1.7-8.82-5.1-11.52c-3.41-2.7-8.22-4.56-14.44-5.6-6.22-1.04-13.61-1.56-22.16-1.56s-16.04,.52-22.47,1.56c-6.43,1.04-11.45,2.91-15.07,5.6-3.61,2.7-5.42,6.54-5.42,11.52s1.81,8.82,5.42,11.52c3.61,2.7,8.63,4.57,15.07,5.6,6.43,1.04,13.92,1.56,22.47,1.56Z"/>
        <path class="h" d="M493.42,179.58V99.89h96.24c7.55,0,14.34,.85,20.36,2.55,6.02,1.7,10.79,4.54,14.32,8.53,3.53,3.98,5.29,9.42,5.29,16.31,0,4.57-.83,8.34-2.49,11.33-1.66,2.99-3.94,5.31-6.85,6.97-2.91,1.66-6.23,2.86-9.96,3.61-3.73,.75-7.64,1.2-11.7,1.37l-9.09-1.74c9.88,.08,17.49,.5,22.85,1.25s9.09,2.1,11.21,4.05c2.12,1.95,3.17,4.75,3.17,8.4v17.06h-31.13v-13.32c0-2.49-.48-4.38-1.43-5.67-.96-1.29-3.03-2.18-6.23-2.68-3.2-.5-8.11-.75-14.75-.75h-48.68v22.41h-31.13Zm31.13-43.2h65.12c2.49,0,4.59-.41,6.29-1.25,1.7-.83,2.55-2.41,2.55-4.73,0-2.16-.85-3.63-2.55-4.42-1.7-.79-3.8-1.18-6.29-1.18h-65.12v11.58Z"/>
        <path class="h" d="M641.83,99.89h129.49v23.66h-129.49v-23.66Zm49.18,22.04h31.13v57.65h-31.13v-57.65Z"/>
        <path class="h" d="M895.7,134.13v-34.24h31.13v39.84c0,7.06-1.31,13.05-3.92,17.99-2.61,4.94-6.25,9.01-10.89,12.2-4.65,3.2-10,5.67-16.06,7.41-6.06,1.74-12.56,2.97-19.48,3.67-6.93,.7-13.97,1.06-21.1,1.06-7.55,0-14.86-.35-21.91-1.06-7.06-.71-13.59-1.93-19.61-3.67-6.02-1.74-11.27-4.21-15.75-7.41-4.48-3.19-7.99-7.26-10.52-12.2-2.53-4.94-3.8-10.94-3.8-17.99v-39.84h31.13v34.24c0,6.64,1.62,11.7,4.86,15.19s7.86,5.87,13.88,7.16c6.02,1.29,13.26,1.93,21.73,1.93s15.36-.64,21.42-1.93c6.06-1.29,10.73-3.67,14.01-7.16,3.28-3.49,4.92-8.55,4.92-15.19Z"/>
        <path class="h" d="M1069.14,155.18l-11.58,6.6v-61.88h31.13v79.68h-31.13l-93.75-54.29,11.58-6.72v61.01h-31.13V99.89h31.13l93.75,55.28Z"/>
        <path class="h" d="M1137.24,145.96v9.96h94.63v23.66h-125.75V99.89h125.5v23.66h-94.38v9.96h77.19v12.45h-77.19Z"/>
      </g>
    </g>
  </g>
</svg>