<svg xmlns="http://www.w3.org/2000/svg" width="41.2" height="587.84" viewBox="0 0 41.2 587.84">
  <defs>
    <style>
      .cls-1 {
        fill: #ca954a;
      }
    </style>
  </defs>
  <g id="圖層_2" data-name="圖層 2">
    <g id="圖層_2-2" data-name="圖層 2">
      <g>
        <g>
          <path class="cls-1" d="M12.27,58.79A48.87,48.87,0,0,1,9,69.61c.67.42,1.46,1,2.58,1.66,2.83,1.71,6.74,2,11.61,2a141.65,141.65,0,0,0,16.85-1.08,19.25,19.25,0,0,0-1.41,5.07c-3.42.21-10.82.5-15.69.5-5.54,0-9-.45-12-2.2-1.74-1-3.24-2.33-4.07-2.33S4.41,76,3.37,78.39L.08,73.69a20.11,20.11,0,0,1,4.37-4,40.77,40.77,0,0,0,2.42-7.2H1.62c1-2.45,2-5.78,3-9H.87V49.05h9.74C9.74,52,8.74,55.29,7.74,58.21H9.45l.74-.17Zm-7-10.94C4.83,46,3.7,43,3,40.69L7.41,39.4c.75,2.21,1.83,5,2.41,6.87ZM23,60.66a29.72,29.72,0,0,0,.21,4.46c-7,1.95-8.45,2.53-9.28,3.16A12.54,12.54,0,0,0,12,64.49a3.56,3.56,0,0,0,1.66-3.2V43.56a36.75,36.75,0,0,0,7.91-4.12l2.78,3V41.9H37.87V63c0,2-.34,3.16-1.67,3.86s-3,.8-5.41.8a15.57,15.57,0,0,0-1.37-4.17c1.41,0,2.79,0,3.24,0s.67-.17.67-.67V46.06H28.88V71.77h-4.5V43.44A58.61,58.61,0,0,1,18.27,46V61.83Z"/>
          <path class="cls-1" d="M15.56,95H.83V91.08H7.16a41.44,41.44,0,0,0-2-5.45l4.16-1.21A50.91,50.91,0,0,1,11.61,90L8.32,91.08h7.24ZM14.4,106.18H1.91v-3.74H14.4Zm0,14.69H6.12v1.67H1.91V108.3H14.44ZM2,96.78H14.44v3.74H2Zm4.16,15.44V117h4v-4.78Zm31.29,6.45c0,2.08-.38,3.16-1.83,3.78s-3.33.71-5.95.67a15,15,0,0,0-1.29-3.91c1.54,0,3.28,0,3.78,0s.71-.17.71-.63v-1.74H21.55a14.63,14.63,0,0,1-3,6.61,17.83,17.83,0,0,0-3.5-3.12c2.46-2.91,2.71-6.82,2.71-10.07v-7.4H37.41Zm2-21v3.54H15.77V97.65H25V95.82H17.43V92.54H25V90.87H16.39V87.33H25v-3h4.78v3h9.07v3.54H29.79v1.67H38v3.28H29.79v1.83Zm-6.58,16v-2H22.18c0,.66-.09,1.33-.13,2Zm-10.65-7.15v2H32.83v-2Z"/>
          <path class="cls-1" d="M10.07,159.07a25.84,25.84,0,0,1-5.95,9.07,24.12,24.12,0,0,0-3.95-2.79,18.61,18.61,0,0,0,5.2-7.45Zm8.11-1.5H2.79V130.85H18.18Zm-4.82-22.8H7.45v3.78h5.91Zm0,7.44H7.45v3.87h5.91Zm0,7.54H7.45v3.87h5.91ZM15,157.82a30.5,30.5,0,0,1,4.58,6.66L15.4,166.6a33,33,0,0,0-4.42-7Zm24.51-14.23H35v18.89c0,2.49-.49,3.83-1.91,4.62s-3.5,1-6.53,1a18.15,18.15,0,0,0-1.67-4.87c1.92.08,3.75.08,4.37.08s.88-.25.88-.87V149.79a40.71,40.71,0,0,1-8.78,11.77A24.24,24.24,0,0,0,18,157.94c4.16-3.12,8-8.69,10.44-14.35H19.27V139H30.13v-9.65H35V139h4.5Z"/>
          <path class="cls-1" d="M15.73,182.78a39.56,39.56,0,0,1-4.5,8.78c1.63,1.46,4.42,4.33,5.16,5.16l-2.78,4.12c-.71-1.08-1.83-2.58-3-4.08V213H6.12V197.76a34.61,34.61,0,0,1-4.37,3.62A21,21,0,0,0,0,196.3a28.34,28.34,0,0,0,10-10.73H1.08v-4.45H8a47,47,0,0,0-3.08-4.91l3.87-2.08a34.5,34.5,0,0,1,3.49,5.2l-2.91,1.79h3.2l.8-.21Zm22.34-2.66V202.8H33.41v-1.5H29.63V213H24.8V201.3H21.05v1.91H16.56V180.12H24.8v-6h4.83v6Zm-17,4.41v4H24.8v-4Zm3.75,12.4v-4.08H21.05v4.08Zm4.83-12.4v4h3.78v-4Zm3.78,12.4v-4.08H29.63v4.08Z"/>
          <path class="cls-1" d="M29.75,226.47a22.85,22.85,0,0,1-4.45,3.24,66.19,66.19,0,0,0,14.35,2.08A21,21,0,0,0,37,236a55.06,55.06,0,0,1-17.06-3.83,82.54,82.54,0,0,1-16.52,3.87A24.82,24.82,0,0,0,.5,232,83.19,83.19,0,0,0,15,229.55a23.71,23.71,0,0,1-3.79-3.21l4-1.66a16.68,16.68,0,0,0,4.74,3.12,17.55,17.55,0,0,0,5.33-3.33Zm-13-5.54c-3.12,3-8.2,5.7-12.4,7.33A43.45,43.45,0,0,0,1,224.64c4.16-1.25,8.74-3.29,11.36-5.5ZM1.66,236.66H20.85v3.83H18.68V258H13.86v-3.16c-4.41.41-8.74.79-12.24,1.08l-.41-3.79c.91,0,2-.08,3-.17V240.49H1.66Zm12.2,3.83h-5v1.62h5Zm-5,6.28h5v-1.58h-5Zm5,4.54v-1.54h-5v1.87Zm24.26-13c-1.34,2.12-2.92,4.53-4.25,6.45,3,2.12,4,4.08,4,5.86A4.54,4.54,0,0,1,35.58,255a5.64,5.64,0,0,1-2.46.84,23.44,23.44,0,0,1-3.79.08A9.24,9.24,0,0,0,28,251.81a16.79,16.79,0,0,0,2.75.08,3.44,3.44,0,0,0,1.37-.21,1.55,1.55,0,0,0,.83-1.54c0-1.2-1.08-2.87-4.07-4.74.91-1.54,1.87-3.37,2.66-5H27.09V258H22.26V236.66H33.75l.79-.2Zm-3.29-10a59.88,59.88,0,0,0-12.4-6.41L25.88,219a68.34,68.34,0,0,1,12.69,6Z"/>
          <path class="cls-1" d="M15.73,272.65a39.56,39.56,0,0,1-4.5,8.78c1.63,1.46,4.42,4.33,5.16,5.16l-2.78,4.12c-.71-1.08-1.83-2.58-3-4.08v16.23H6.12V287.63a33.77,33.77,0,0,1-4.37,3.62A20.8,20.8,0,0,0,0,286.18a28.45,28.45,0,0,0,10-10.74H1.08V271H8a48.09,48.09,0,0,0-3.08-4.91L8.74,264a35,35,0,0,1,3.49,5.2L9.32,271h3.2l.8-.21ZM38.07,270v22.68H33.41v-1.5H29.63v11.69H24.8V291.17H21.05v1.91H16.56V270H24.8v-6h4.83v6Zm-17,4.41v4H24.8v-4Zm3.75,12.4v-4.08H21.05v4.08Zm4.83-12.4v4h3.78v-4Zm3.78,12.4v-4.08H29.63v4.08Z"/>
          <path class="cls-1" d="M39,339.73H30.29V343c0,2.33-.46,3.5-2.2,4.16s-3.91.67-7,.67a15.77,15.77,0,0,0-1.59-4.37c2.09.08,4.33.08,5,.08s.87-.16.87-.66v-3.12H13.19c1.91,1.16,4,2.45,5.28,3.41l-3,3.37a67.45,67.45,0,0,0-7.16-4.95L10,339.73H1.17v-4H25.38v-1.83H5.16V318.5h9.2v-1.58H1.87v-3.78h9a15,15,0,0,0-2.08-2.79l4-1.62a23.58,23.58,0,0,1,3,3.87l-1.29.54h9.91A33.92,33.92,0,0,0,26.63,309l5.2,1.29c-.87,1-1.7,2-2.45,2.87H38v3.78H25.42v1.58h9.91v15.44h-5v1.83H39ZM9.61,331h21v-5.45H25.88c-3.74,0-4.66-.71-4.66-3.58v-.62H18.39c-.37,2.49-2.12,4.57-6.53,5.86a12.38,12.38,0,0,0-2.25-2.91Zm0-9.65v2.83c3.21-.5,4.29-1.59,4.62-2.83ZM13,327H27.88v2.62H13Zm5.45-8.49h2.75v-1.58H18.47Zm7,2.88V322c0,.92.17,1,1.13,1h3.12c.66,0,.87,0,.95-.33v-1.37Z"/>
          <path class="cls-1" d="M26.8,366.06l-4.46,3.83a76.79,76.79,0,0,0-8.94-9.15L17.73,357A78.65,78.65,0,0,1,26.8,366.06Z"/>
          <path class="cls-1" d="M23.09,380.87a55.49,55.49,0,0,0,16.32,8.66,26.63,26.63,0,0,0-3.79,4.66,55.85,55.85,0,0,1-7.74-4.08v3.66H11.28v-3c-2.33,1.49-4.71,2.83-7,4a19.84,19.84,0,0,0-3.71-4.45c6.66-2.83,14.32-7.53,18.48-12.74l4.66,2.54Zm12.61,16.9c-3.29,3.7-7.57,8.19-11.52,12.19,1.24,1,2.41,1.79,3.28,2.58l-3.7,4.24c-2.71-2.7-8.66-6.86-12.94-9.73l3.41-3.67,5.53,3.54c2.17-2,4.46-4.24,6.41-6.28H6.37v-4.79H31.12l.84-.25Zm-9.19-8.53a54.73,54.73,0,0,1-6.66-5.08,67.33,67.33,0,0,1-6.33,5.08Z"/>
          <path class="cls-1" d="M39.28,453.81H32.79a46.16,46.16,0,0,1,5.91,5.54L35,462a45.94,45.94,0,0,0-6.25-6.24l2.83-1.92H23l3.7,1.29a34.34,34.34,0,0,1-7,6.95,30,30,0,0,0-3.54-2.91,24.07,24.07,0,0,0,6.08-5.33h-6v-4h4.24V438.17H17.81v-3.33a19.58,19.58,0,0,1-1.37,1.54,27.76,27.76,0,0,0-2.92-2.58H8.57c0,1.54,0,3-.08,4.49h6.74v1.92c-.21,13-.42,17.85-1.42,19.26a3.39,3.39,0,0,1-2.45,1.75,17.23,17.23,0,0,1-3.79.17,12.7,12.7,0,0,0-1.12-4.33c1.08.08,2,.12,2.54.12a1,1,0,0,0,1.08-.62c.5-.87.71-4.29.87-13.77H8.24c-.5,7.49-1.67,14.27-4.7,19.1a11.7,11.7,0,0,0-3.29-3.25c3.58-5.78,4-15.1,4.08-24.84H.67v-4.37H7.12A45.43,45.43,0,0,0,4.83,424L9,422.9a47.11,47.11,0,0,1,2.66,5.61l-2.83.92h6.2v1.79a26.53,26.53,0,0,0,4.08-8.53l4.33,1c-.29,1-.67,2-1,3H38.86v4H20.6a27,27,0,0,1-2.29,3.49h2.16v-2.29H24.8v2.29h6.41v-2.29h4.33v2.29h2.74v4H35.54v11.65h3.74ZM24.8,438.17v1.75h6.41v-1.75Zm0,6.66h6.41V443H24.8Zm0,5h6.41V447.9H24.8Z"/>
          <path class="cls-1" d="M8.32,488a34,34,0,0,0-7.7-4.49l2.58-3.79a33.39,33.39,0,0,1,7.87,4.16Zm4.54,5.2c-2.21,4.33-4.83,9.08-7.28,13.11L1.37,503a122.76,122.76,0,0,0,7.87-13.11ZM9.74,476.86A30.12,30.12,0,0,0,2.29,472l2.79-3.62c2.53,1.13,5.95,3,7.57,4.54Zm6.36,11.07h4.46v4c0,4.62-.67,10.44-6.16,14.64a14.47,14.47,0,0,0-3.5-3.24c4.66-3.41,5.2-7.95,5.2-11.57Zm19.39.17c-.45-.71-1.08-1.67-1.79-2.67-15.43,1.09-17.68,1.29-19.22,1.88a39.36,39.36,0,0,0-1.54-4.54c1-.29,1.91-1.16,3.16-2.62a26.83,26.83,0,0,0,2.25-2.83H12.9v-4.41h8.32c1-1.66,2-3.41,2.79-5.2l4.83,1.87c-.59,1.12-1.25,2.21-2,3.33H38.7v4.41H33c2.16,2.62,5.07,6.08,6.57,8.24ZM23.84,477.32c-1.25,1.71-2.54,3.29-3.83,4.79l10.78-.59c-.71-.87-1.37-1.74-2-2.49l2.92-1.71Zm-.75,11h4.33V505H23.09ZM36.87,502a8.22,8.22,0,0,0,2-.25c.09,1.16.21,2.7.38,3.74a6.77,6.77,0,0,1-2.33.29H34.83c-3.91,0-4.66-1.66-4.66-5.61V487.93H34.7v12.32c0,1.33,0,1.79.59,1.79Z"/>
          <path class="cls-1" d="M13.65,540.48c-.54-1.37-1.58-3.41-2.58-5.28v16.56H6.37V536.28a41.56,41.56,0,0,1-4.12,9,28.74,28.74,0,0,0-2.13-4.91A41.59,41.59,0,0,0,5.24,529.2H.67v-4.61h5.7v-5c-1.34.25-2.67.5-3.91.67a16.15,16.15,0,0,0-1.34-3.83,52.47,52.47,0,0,0,12-3.45l2.62,4.07a35,35,0,0,1-4.7,1.5v6h4.66v4.61H11.07v.67c1.08,1.21,4.45,5.53,5.2,6.57Zm25.46,6v4.41h-24v-4.41h10v-3.78H17.18v-4.25h7.91v-3.37c-2.2.17-4.45.29-6.53.38a15.35,15.35,0,0,0-1.21-3.75,103.85,103.85,0,0,0,17-2.24l3,3.74c-2.21.54-4.75,1-7.37,1.33v3.91h7.45v4.25H30v3.78Zm-2-17.55H17.39V514.64H37.12ZM32.33,518.8H22v6H32.33Z"/>
        </g>
        <path class="cls-1" d="M41.2,4.16V20.93H35V11.57a4.26,4.26,0,0,0-1.42.33c-.58.22-1.24.48-2,.79a18,18,0,0,1-2.35.79,10,10,0,0,1-2.54.33,4.05,4.05,0,0,1-3.33-1.72,12.24,12.24,0,0,1-2-4.54,31.65,31.65,0,0,1-.87-6.13h.83a30.26,30.26,0,0,1-.83,6.13,12.4,12.4,0,0,1-2,4.54A4.09,4.09,0,0,1,15,13.81a9.89,9.89,0,0,1-2.54-.33,17.5,17.5,0,0,1-2.35-.79c-.74-.31-1.4-.57-2-.79a4.21,4.21,0,0,0-1.41-.33v9.36H.51V4.16a11.18,11.18,0,0,1,4,.08A27.47,27.47,0,0,1,8.62,5.39L12.28,6.7A8.67,8.67,0,0,0,15,7.28a3,3,0,0,0,2.78-1.6q1-1.6,1-5.68h4.16q0,4.08,1,5.68a3.06,3.06,0,0,0,2.79,1.6,8.62,8.62,0,0,0,2.74-.58l3.66-1.31a27.72,27.72,0,0,1,4.1-1.15A11.14,11.14,0,0,1,41.2,4.16Z"/>
        <path class="cls-1" d="M26.68,580.56a3.06,3.06,0,0,0-2.79,1.62q-1,1.62-1,5.66H18.77q0-4-1-5.66A3,3,0,0,0,15,580.56a8.51,8.51,0,0,0-2.75.6l-3.66,1.31a30,30,0,0,1-4.08,1.13,11.18,11.18,0,0,1-4,.08V566.91H6.75v9.36a4.21,4.21,0,0,0,1.41-.33c.58-.22,1.24-.48,2-.79a17.5,17.5,0,0,1,2.35-.79A9.89,9.89,0,0,1,15,574a4.09,4.09,0,0,1,3.37,1.72,12.35,12.35,0,0,1,2,4.56,30.45,30.45,0,0,1,.83,6.12h-.83a31.88,31.88,0,0,1,.87-6.12,12.19,12.19,0,0,1,2-4.56A4.05,4.05,0,0,1,26.68,574a10,10,0,0,1,2.54.33,18,18,0,0,1,2.35.79c.73.31,1.39.57,2,.79a4.26,4.26,0,0,0,1.42.33v-9.36H41.2v16.77a11.14,11.14,0,0,1-4-.08,30.32,30.32,0,0,1-4.1-1.13l-3.66-1.31A8.46,8.46,0,0,0,26.68,580.56Z"/>
      </g>
    </g>
  </g>
</svg>
