<svg height="27.61" viewBox="0 0 53.68 27.61" width="53.68" xmlns="http://www.w3.org/2000/svg"><path d="m53.68 5.49v22.12h-8.23v-12.35a5.64 5.64 0 0 0 -1.87.44c-.76.29-1.63.64-2.6 1a26.82 26.82 0 0 1 -3.1 1.05 13.1 13.1 0 0 1 -3.35.43 5.35 5.35 0 0 1 -4.39-2.18 16.05 16.05 0 0 1 -2.69-6 41.36 41.36 0 0 1 -1.16-8.09h1.1a39.32 39.32 0 0 1 -1.1 8.09 16.21 16.21 0 0 1 -2.69 6 5.4 5.4 0 0 1 -4.44 2.27 13 13 0 0 1 -3.35-.43 26.19 26.19 0 0 1 -3.1-1.05c-1-.4-1.84-.75-2.61-1a5.64 5.64 0 0 0 -1.87-.44v12.26h-8.23v-22.12a14.47 14.47 0 0 1 5.32.11 35.8 35.8 0 0 1 5.38 1.51q2.64 1 4.83 1.73a11.63 11.63 0 0 0 3.63.77 4 4 0 0 0 3.67-2.12c.85-1.41 1.27-3.9 1.27-7.49h5.49c0 3.59.42 6.08 1.26 7.49a4 4 0 0 0 3.68 2.12 11.53 11.53 0 0 0 3.62-.77q2.19-.77 4.85-1.73a35.84 35.84 0 0 1 5.39-1.51 14.33 14.33 0 0 1 5.29-.11z" fill="#fff"/></svg>