<?xml version="1.0" encoding="UTF-8"?>
<svg id="_層_2" data-name="圖層 2" xmlns="http://www.w3.org/2000/svg" width="374.47" height="71.99" viewBox="0 0 374.47 71.99">
  <defs>
    <style>
      .cls-1 {
        fill: #fff;
      }

      .cls-2 {
        opacity: .2;
      }

      .cls-3 {
        fill: #ffe9d7;
        stroke-width: 2px;
      }

      .cls-3, .cls-4 {
        stroke: #efb970;
        stroke-miterlimit: 10;
      }

      .cls-5 {
        fill: #da4e36;
      }

      .cls-4 {
        fill: none;
        stroke-width: .75px;
      }
    </style>
  </defs>
  <g id="_層_1-2" data-name="圖層 1">
    <g class="cls-2">
      <g>
        <path class="cls-1" d="M23.89,17.57h-4.51L35.81,.6h7.52V19.86h-7.52V6.74l2.26,.93-11.89,12.19h-9.03L5.24,7.7l2.29-.93v13.09H0V.6H7.52L23.89,17.57Z"/>
        <path class="cls-1" d="M45.74,19.86L58.64,.6h8.37l13.03,19.26h-8.27L60.6,2.62h4.48l-11.07,17.24h-8.27Zm6.74-2.92v-4.51h20.58v4.51h-20.58Z"/>
        <path class="cls-1" d="M77.33,.6h31.29V6.32h-31.29V.6Zm11.89,5.33h7.52v13.93h-7.52V5.93Z"/>
        <path class="cls-1" d="M145.78,11.83c-.1,1.91-.79,3.5-2.08,4.78s-3.17,2.25-5.67,2.89c-2.5,.64-5.65,.96-9.46,.96-2.91,0-5.52-.16-7.82-.47-2.31-.31-4.27-.84-5.9-1.59-1.62-.75-2.87-1.78-3.73-3.08-.86-1.3-1.29-2.95-1.29-4.94s.43-3.65,1.29-4.98c.86-1.33,2.11-2.4,3.73-3.19,1.62-.79,3.59-1.36,5.9-1.7,2.31-.34,4.91-.51,7.82-.51,3.81,0,6.97,.35,9.48,1.04,2.51,.69,4.4,1.71,5.69,3.05,1.28,1.34,1.98,2.98,2.08,4.9h-7.82c-.24-.64-.68-1.21-1.32-1.7-.64-.49-1.6-.88-2.89-1.16-1.28-.28-3.02-.42-5.21-.42-2.57,0-4.65,.16-6.26,.47-1.61,.31-2.78,.81-3.52,1.49-.74,.68-1.11,1.58-1.11,2.71,0,1.02,.37,1.86,1.11,2.5,.74,.64,1.92,1.11,3.52,1.41,1.6,.3,3.69,.45,6.26,.45,2.19,0,3.92-.13,5.19-.39,1.27-.26,2.23-.62,2.87-1.07,.64-.45,1.08-.94,1.32-1.46h7.82Z"/>
        <path class="cls-1" d="M149.73,.6h7.52V19.86h-7.52V.6Zm6.44,6.65h21.18v5.72h-21.18V7.25ZM176.51,.6h7.52V19.86h-7.52V.6Z"/>
        <path class="cls-1" d="M212.13,17.57h-4.51L224.05,.6h7.52V19.86h-7.52V6.74l2.26,.93-11.89,12.19h-9.03l-11.92-12.16,2.29-.93v13.09h-7.52V.6h7.52l16.37,16.97Z"/>
        <path class="cls-1" d="M233.98,19.86L246.89,.6h8.37l13.03,19.26h-8.27l-11.16-17.24h4.48l-11.07,17.24h-8.27Zm6.74-2.92v-4.51h20.58v4.51h-20.58Z"/>
        <path class="cls-1" d="M270.69,.6h7.52V19.86h-7.52V.6Zm16.04,9.78v-1.69l17.36,11.16h-11.19l-14.74-10.23,13.6-9.03h10.71l-15.74,9.78Z"/>
        <path class="cls-1" d="M314.77,11.73v2.41h22.87v5.72h-30.39V.6h30.33V6.32h-22.81v2.41h18.66v3.01h-18.66Z"/>
        <path class="cls-1" d="M341.55,19.86V.6h23.26c1.83,0,3.47,.21,4.92,.62,1.45,.41,2.61,1.1,3.46,2.06,.85,.96,1.28,2.28,1.28,3.94,0,1.1-.2,2.02-.6,2.74-.4,.72-.95,1.28-1.65,1.69-.7,.4-1.5,.69-2.41,.87-.9,.18-1.85,.29-2.83,.33l-2.2-.42c2.39,.02,4.23,.12,5.52,.3,1.29,.18,2.2,.51,2.71,.98,.51,.47,.77,1.15,.77,2.03v4.12h-7.52v-3.22c0-.6-.12-1.06-.35-1.37-.23-.31-.73-.53-1.5-.65-.77-.12-1.96-.18-3.57-.18h-11.77v5.42h-7.52Zm7.52-10.44h15.74c.6,0,1.11-.1,1.52-.3,.41-.2,.62-.58,.62-1.14,0-.52-.21-.88-.62-1.07-.41-.19-.92-.29-1.52-.29h-15.74v2.8Z"/>
      </g>
    </g>
    <circle class="cls-3" cx="104.25" cy="44.02" r="24.86"/>
    <circle class="cls-3" cx="159.45" cy="44.02" r="24.86"/>
    <circle class="cls-3" cx="214.47" cy="44.02" r="24.86"/>
    <circle class="cls-3" cx="269.67" cy="44.02" r="24.86"/>
    <path class="cls-5" d="M120.8,55.07v4.35h-32.88v-4.35h8.52c.63-2.99,1.29-6.45,1.92-10.06h-6.27v-4.31h6.93c.33-2.1,.63-4.24,.88-6.27h-9.88v-4.35h28.39v4.35h-13.64c-.29,2.03-.63,4.17-.96,6.27h6.82l.77-.15,3.5,.26c-.22,4.31-.7,9.51-1.22,14.27h7.11Zm-17.66-10.06c-.63,3.65-1.25,7.11-1.84,10.06h7.7c.37-3.35,.7-7.04,.92-10.06h-6.78Z"/>
    <path class="cls-5" d="M162.84,41.14c2.43,7.19,6.89,12.98,13.79,15.78-1.11,.92-2.54,2.88-3.24,4.13-6.67-3.13-10.95-8.52-13.83-15.63-1.99,6.16-5.97,11.91-13.79,15.67-.7-1.22-1.99-2.8-3.28-3.72,8.44-3.76,11.94-9.88,13.38-16.22h-12.68v-4.53h13.42c.37-3.47,.33-6.82,.37-9.84h4.79c-.04,3.02-.07,6.42-.44,9.84h14.49v4.53h-12.98Z"/>
    <path class="cls-4" d="M110.5,20.7c-.77-.2-1.49-.77-1.89-1.45-.85-1.46-2.1-2.81-4.36-2.83-1.58-.01-3.4,.56-4.36,1.79-.07,.09-.1,.24,0,.37,.19,.27,.24,.51,.16,.78-.12,.47-.64,.73-1.09,.97-.3,.16-.62,.28-.96,.37-.76,.22-1.67,.08-2.36-.31-1.47-.84-3.23-1.38-5.19-.27-1.37,.78-2.67,2.19-2.89,3.73-.01,.11,.04,.26,.19,.32,.3,.14,.46,.33,.53,.59,.12,.47-.19,.94-.46,1.38-.18,.29-.39,.56-.64,.8-.55,.57-1.41,.9-2.19,.91-1.69,0-3.49,.42-4.63,2.36-.8,1.36-1.22,3.23-.64,4.67,.04,.1,.16,.2,.33,.19,.33-.04,.56,.05,.76,.24,.34,.35,.31,.92,.29,1.43-.01,.34-.06,.68-.15,1.01-.2,.77-.77,1.49-1.45,1.89-1.46,.85-2.81,2.11-2.83,4.36,0,1.58,.56,3.41,1.79,4.37,.09,.07,.24,.1,.37,0,.27-.2,.52-.24,.78-.17,.47,.12,.73,.64,.97,1.09,.16,.3,.28,.62,.37,.96,.22,.76,.08,1.67-.31,2.36-.83,1.47-1.38,3.23-.27,5.19,.78,1.37,2.19,2.67,3.73,2.88,.11,.02,.26-.04,.32-.19,.14-.3,.33-.46,.59-.53,.47-.13,.95,.19,1.38,.46,.29,.18,.56,.4,.8,.64,.57,.56,.91,1.41,.91,2.2,0,1.69,.41,3.48,2.36,4.63,1.36,.8,3.23,1.21,4.67,.63,.1-.04,.2-.16,.19-.32-.04-.33,.05-.57,.24-.76,.35-.34,.92-.31,1.43-.29,.34,.01,.68,.06,1.01,.16,.77,.19,1.48,.77,1.89,1.45,.85,1.46,2.11,2.81,4.36,2.83,1.58,.01,3.4-.56,4.36-1.79,.07-.09,.1-.24,0-.38-.2-.27-.24-.51-.17-.78,.13-.47,.64-.72,1.09-.96,.3-.16,.63-.29,.96-.37,.77-.22,1.67-.08,2.36,.31,1.47,.84,3.23,1.38,5.2,.27,1.37-.77,2.67-2.19,2.88-3.73,.01-.11-.04-.25-.19-.32-.3-.14-.46-.33-.53-.59-.12-.47,.19-.95,.46-1.38,.18-.29,.4-.56,.64-.8,.55-.57,1.41-.9,2.2-.91,1.69-.01,3.49-.42,4.63-2.36,.8-1.36,1.21-3.23,.63-4.68-.04-.1-.16-.2-.32-.18-.33,.03-.57-.05-.76-.25-.35-.34-.31-.91-.29-1.43,.01-.34,.06-.68,.15-1.02,.2-.77,.77-1.49,1.45-1.89,1.46-.85,2.81-2.1,2.83-4.36,.02-1.58-.56-3.4-1.79-4.36-.09-.07-.24-.1-.37,0-.27,.19-.51,.23-.78,.17-.47-.12-.72-.64-.96-1.09-.16-.3-.29-.62-.38-.96-.22-.76-.08-1.67,.31-2.36,.84-1.47,1.38-3.23,.27-5.19-.78-1.37-2.19-2.67-3.73-2.89-.11-.02-.25,.04-.32,.19-.14,.3-.32,.46-.59,.53-.47,.12-.95-.19-1.38-.46-.29-.18-.56-.39-.8-.64-.57-.55-.91-1.41-.91-2.2-.01-1.69-.42-3.49-2.36-4.63-1.36-.8-3.23-1.22-4.68-.64-.1,.04-.2,.16-.18,.33,.03,.33-.05,.56-.25,.76-.34,.34-.91,.31-1.43,.29-.34-.01-.68-.06-1.02-.15h0Z"/>
    <path class="cls-4" d="M165.7,20.7c-.77-.2-1.49-.77-1.89-1.45-.85-1.46-2.1-2.81-4.36-2.83-1.58-.01-3.4,.56-4.36,1.79-.07,.09-.1,.24,0,.37,.19,.27,.24,.51,.16,.78-.12,.47-.64,.73-1.09,.97-.3,.16-.62,.28-.96,.37-.76,.22-1.67,.08-2.36-.31-1.47-.84-3.23-1.38-5.19-.27-1.37,.78-2.67,2.19-2.89,3.73-.01,.11,.04,.26,.19,.32,.3,.14,.46,.33,.53,.59,.12,.47-.19,.94-.46,1.38-.18,.29-.39,.56-.64,.8-.55,.57-1.41,.9-2.19,.91-1.69,0-3.49,.42-4.63,2.36-.8,1.36-1.22,3.23-.64,4.67,.04,.1,.16,.2,.33,.19,.33-.04,.56,.05,.76,.24,.34,.35,.31,.92,.29,1.43-.01,.34-.06,.68-.15,1.01-.2,.77-.77,1.49-1.45,1.89-1.46,.85-2.81,2.11-2.83,4.36,0,1.58,.56,3.41,1.79,4.37,.09,.07,.24,.1,.37,0,.27-.2,.52-.24,.78-.17,.47,.12,.73,.64,.97,1.09,.16,.3,.28,.62,.37,.96,.22,.76,.08,1.67-.31,2.36-.83,1.47-1.38,3.23-.27,5.19,.78,1.37,2.19,2.67,3.73,2.88,.11,.02,.26-.04,.32-.19,.14-.3,.33-.46,.59-.53,.47-.13,.95,.19,1.38,.46,.29,.18,.56,.4,.8,.64,.57,.56,.91,1.41,.91,2.2,0,1.69,.41,3.48,2.36,4.63,1.36,.8,3.23,1.21,4.67,.63,.1-.04,.2-.16,.19-.32-.04-.33,.05-.57,.24-.76,.35-.34,.92-.31,1.43-.29,.34,.01,.68,.06,1.01,.16,.77,.19,1.48,.77,1.89,1.45,.85,1.46,2.11,2.81,4.36,2.83,1.58,.01,3.4-.56,4.36-1.79,.07-.09,.1-.24,0-.38-.2-.27-.24-.51-.17-.78,.13-.47,.64-.72,1.09-.96,.3-.16,.63-.29,.96-.37,.77-.22,1.67-.08,2.36,.31,1.47,.84,3.23,1.38,5.2,.27,1.37-.77,2.67-2.19,2.88-3.73,.01-.11-.04-.25-.19-.32-.3-.14-.46-.33-.53-.59-.12-.47,.19-.95,.46-1.38,.18-.29,.4-.56,.64-.8,.55-.57,1.41-.9,2.2-.91,1.69-.01,3.49-.42,4.63-2.36,.8-1.36,1.21-3.23,.63-4.68-.04-.1-.16-.2-.32-.18-.33,.03-.57-.05-.76-.25-.35-.34-.31-.91-.29-1.43,.01-.34,.06-.68,.15-1.02,.2-.77,.77-1.49,1.45-1.89,1.46-.85,2.81-2.1,2.83-4.36,.02-1.58-.56-3.4-1.79-4.36-.09-.07-.24-.1-.37,0-.27,.19-.51,.23-.78,.17-.47-.12-.72-.64-.96-1.09-.16-.3-.29-.62-.38-.96-.22-.76-.08-1.67,.31-2.36,.84-1.47,1.38-3.23,.27-5.19-.78-1.37-2.19-2.67-3.73-2.89-.11-.02-.25,.04-.32,.19-.14,.3-.32,.46-.59,.53-.47,.12-.95-.19-1.38-.46-.29-.18-.56-.39-.8-.64-.57-.55-.91-1.41-.91-2.2-.01-1.69-.42-3.49-2.36-4.63-1.36-.8-3.23-1.22-4.68-.64-.1,.04-.2,.16-.18,.33,.03,.33-.05,.56-.25,.76-.34,.34-.91,.31-1.43,.29-.34-.01-.68-.06-1.02-.15h0Z"/>
    <path class="cls-5" d="M209.64,34.13l1.29-.07v3.65l-1.33,.11c-.07,3.83-.55,8.4-2.32,12.87,1.4,1.47,2.65,2.88,3.5,3.98l-2.91,3.32c-.63-.96-1.55-2.1-2.54-3.32-1.4,2.25-3.17,4.39-5.53,6.3-.63-.85-1.95-2.17-2.88-2.84,2.47-1.99,4.31-4.24,5.64-6.56-1.58-1.7-3.24-3.39-4.65-4.83,.59-2.29,1.11-5.16,1.62-8.26l-1.99,.15-.41-3.91,2.95-.15c.33-2.65,.59-5.27,.7-7.67l4.09,.18c-.18,2.32-.48,4.79-.81,7.3l1.81-.07v-2.43h3.76v2.25Zm-5.42,13.49c1.18-3.32,1.51-6.67,1.62-9.55l-2.36,.15c-.41,2.58-.88,5.09-1.36,7.34l2.1,2.06Zm26.54-19.24V60.93h-3.98v-1.81h-11.5v2.06h-3.8V28.38h19.28Zm-15.48,3.91v19.13c2.47-2.91,3.43-6.3,3.8-9.51h-3.24v-3.54h3.43v-5.24h3.32v5.24h3.61v3.54h-3.76c-.04,.41-.07,.81-.11,1.22,1.7,2.69,3.46,5.93,4.46,8.18v-19.02h-11.5Zm11.5,22.93v-3.21l-2.65,1.58c-.55-1.55-1.62-3.76-2.8-5.97-.74,2.43-1.99,4.76-3.95,6.82-.44-.59-1.33-1.44-2.1-2.03v2.8h11.5Z"/>
    <path class="cls-5" d="M256.69,51.46c-.22,3.24-.77,6.75-1.51,9-.7-.41-2.25-.88-3.06-1.11,.81-2.18,1.22-5.46,1.4-8.41l3.17,.52Zm-4.42-13.68c.63-.18,1.25-.88,1.95-1.99,.74-1,2.91-5.12,4.2-8.96l3.5,1.44c-1.33,3.1-3.06,6.38-4.87,9.03l2.65-.18c.92-1.7,1.84-3.46,2.62-5.23l3.17,2.06c-2.06,4.05-4.83,8.22-7.59,11.61l4.28-.63c-.37-1.07-.77-2.17-1.22-3.13l2.8-1.07c1.07,2.17,2.1,5.09,2.4,6.89l-2.95,1.25c-.04-.29-.11-.59-.18-.92-7.34,1.22-8.59,1.58-9.4,1.95l-.04-.52c-.22-.88-.74-2.32-1.03-3.17,.85-.22,1.62-1.07,2.73-2.47,.48-.55,1.29-1.7,2.32-3.24-2.88,.33-3.69,.55-4.2,.77-.18-.74-.74-2.51-1.14-3.5Zm8.15,12.9c.44,2.47,.85,5.57,.96,7.67l-3.06,.81c-.07-2.14-.41-5.31-.77-7.74l2.88-.74Zm26.25-5.64c-1.03,.7-2.14,1.33-3.32,1.99,.59,3.61,1.73,6.97,3.72,8.7-.92,.66-2.06,2.1-2.62,3.13-2.29-2.21-3.47-6.01-4.13-10.21-.52,.22-1.03,.48-1.51,.7,1.62,4.46,.66,9-1.22,10.54-1.03,.96-1.99,1.22-3.5,1.25-.7,.04-1.4,0-2.14-.04-.04-1.03-.26-2.51-.96-3.69,.92,.15,1.55,.22,2.32,.22,.7,0,1.22-.15,1.62-.81,.48-.52,.81-1.62,.81-3.1-2.43,2.06-5.53,4.02-8.22,5.23-.41-.66-1.03-1.58-1.73-2.32l-2.43,.96c-.33-1.92-1.14-4.83-1.92-7.08l2.69-.96c.74,1.95,1.47,4.35,1.92,6.19,3.21-1.25,6.89-3.5,9.03-5.71-.15-.44-.33-.81-.55-1.25-1.95,1.51-4.46,3.1-6.56,4.06-.52-.85-1.4-2.14-2.17-2.88,2.29-.7,5.2-2.21,7.12-3.69-.29-.29-.59-.63-.92-.96-1.44,.88-2.88,1.62-4.31,2.25-.44-.74-1.55-2.21-2.21-2.91,2.25-.77,4.64-1.88,6.56-3.21h-5.83v-3.47h11.87l.29-1.47h-10.51c.81-2.58,1.84-6.67,2.43-9.84l3.94,.37-.37,1.73h6.27l.63-.15,2.84,.41c-.41,2.8-1.03,6.05-1.66,8.96h4.83v3.47h-9.77c-.7,.7-1.44,1.36-2.29,1.99,1.07,.92,1.95,1.92,2.65,2.91,2.25-1.14,4.79-2.69,6.49-3.95l2.8,2.62Zm-7.71-11.46l.33-1.84h-6.19l-.48,1.84h6.34Z"/>
    <path class="cls-4" d="M220.72,20.7c-.77-.2-1.49-.77-1.89-1.45-.85-1.46-2.1-2.81-4.36-2.83-1.58-.01-3.4,.56-4.36,1.79-.07,.09-.1,.24,0,.37,.19,.27,.24,.51,.16,.78-.12,.47-.64,.73-1.09,.97-.3,.16-.62,.28-.96,.37-.76,.22-1.67,.08-2.36-.31-1.47-.84-3.23-1.38-5.19-.27-1.37,.78-2.67,2.19-2.89,3.73-.01,.11,.04,.26,.19,.32,.3,.14,.46,.33,.53,.59,.12,.47-.19,.94-.46,1.38-.18,.29-.39,.56-.64,.8-.55,.57-1.41,.9-2.19,.91-1.69,0-3.49,.42-4.63,2.36-.8,1.36-1.22,3.23-.64,4.67,.04,.1,.16,.2,.33,.19,.33-.04,.56,.05,.76,.24,.34,.35,.31,.92,.29,1.43-.01,.34-.06,.68-.15,1.01-.2,.77-.77,1.49-1.45,1.89-1.46,.85-2.81,2.11-2.83,4.36,0,1.58,.56,3.41,1.79,4.37,.09,.07,.24,.1,.37,0,.27-.2,.52-.24,.78-.17,.47,.12,.73,.64,.97,1.09,.16,.3,.28,.62,.37,.96,.22,.76,.08,1.67-.31,2.36-.83,1.47-1.38,3.23-.27,5.19,.78,1.37,2.19,2.67,3.73,2.88,.11,.02,.26-.04,.32-.19,.14-.3,.33-.46,.59-.53,.47-.13,.95,.19,1.38,.46,.29,.18,.56,.4,.8,.64,.57,.56,.91,1.41,.91,2.2,0,1.69,.41,3.48,2.36,4.63,1.36,.8,3.23,1.21,4.67,.63,.1-.04,.2-.16,.19-.32-.04-.33,.05-.57,.24-.76,.35-.34,.92-.31,1.43-.29,.34,.01,.68,.06,1.01,.16,.77,.19,1.48,.77,1.89,1.45,.85,1.46,2.11,2.81,4.36,2.83,1.58,.01,3.4-.56,4.36-1.79,.07-.09,.1-.24,0-.38-.2-.27-.24-.51-.17-.78,.13-.47,.64-.72,1.09-.96,.3-.16,.63-.29,.96-.37,.77-.22,1.67-.08,2.36,.31,1.47,.84,3.23,1.38,5.2,.27,1.37-.77,2.67-2.19,2.88-3.73,.01-.11-.04-.25-.19-.32-.3-.14-.46-.33-.53-.59-.12-.47,.19-.95,.46-1.38,.18-.29,.4-.56,.64-.8,.55-.57,1.41-.9,2.2-.91,1.69-.01,3.49-.42,4.63-2.36,.8-1.36,1.21-3.23,.63-4.68-.04-.1-.16-.2-.32-.18-.33,.03-.57-.05-.76-.25-.35-.34-.31-.91-.29-1.43,.01-.34,.06-.68,.15-1.02,.2-.77,.77-1.49,1.45-1.89,1.46-.85,2.81-2.1,2.83-4.36,.02-1.58-.56-3.4-1.79-4.36-.09-.07-.24-.1-.37,0-.27,.19-.51,.23-.78,.17-.47-.12-.72-.64-.96-1.09-.16-.3-.29-.62-.38-.96-.22-.76-.08-1.67,.31-2.36,.84-1.47,1.38-3.23,.27-5.19-.78-1.37-2.19-2.67-3.73-2.89-.11-.02-.25,.04-.32,.19-.14,.3-.32,.46-.59,.53-.47,.12-.95-.19-1.38-.46-.29-.18-.56-.39-.8-.64-.57-.55-.91-1.41-.91-2.2-.01-1.69-.42-3.49-2.36-4.63-1.36-.8-3.23-1.22-4.68-.64-.1,.04-.2,.16-.18,.33,.03,.33-.05,.56-.25,.76-.34,.34-.91,.31-1.43,.29-.34-.01-.68-.06-1.02-.15h0Z"/>
    <path class="cls-4" d="M275.92,20.7c-.77-.2-1.49-.77-1.89-1.45-.85-1.46-2.1-2.81-4.36-2.83-1.58-.01-3.4,.56-4.36,1.79-.07,.09-.1,.24,0,.37,.19,.27,.24,.51,.16,.78-.12,.47-.64,.73-1.09,.97-.3,.16-.62,.28-.96,.37-.76,.22-1.67,.08-2.36-.31-1.47-.84-3.23-1.38-5.19-.27-1.37,.78-2.67,2.19-2.89,3.73-.01,.11,.04,.26,.19,.32,.3,.14,.46,.33,.53,.59,.12,.47-.19,.94-.46,1.38-.18,.29-.39,.56-.64,.8-.55,.57-1.41,.9-2.19,.91-1.69,0-3.49,.42-4.63,2.36-.8,1.36-1.22,3.23-.64,4.67,.04,.1,.16,.2,.33,.19,.33-.04,.56,.05,.76,.24,.34,.35,.31,.92,.29,1.43-.01,.34-.06,.68-.15,1.01-.2,.77-.77,1.49-1.45,1.89-1.46,.85-2.81,2.11-2.83,4.36,0,1.58,.56,3.41,1.79,4.37,.09,.07,.24,.1,.37,0,.27-.2,.52-.24,.78-.17,.47,.12,.73,.64,.97,1.09,.16,.3,.28,.62,.37,.96,.22,.76,.08,1.67-.31,2.36-.83,1.47-1.38,3.23-.27,5.19,.78,1.37,2.19,2.67,3.73,2.88,.11,.02,.26-.04,.32-.19,.14-.3,.33-.46,.59-.53,.47-.13,.95,.19,1.38,.46,.29,.18,.56,.4,.8,.64,.57,.56,.91,1.41,.91,2.2,0,1.69,.41,3.48,2.36,4.63,1.36,.8,3.23,1.21,4.67,.63,.1-.04,.2-.16,.19-.32-.04-.33,.05-.57,.24-.76,.35-.34,.92-.31,1.43-.29,.34,.01,.68,.06,1.01,.16,.77,.19,1.48,.77,1.89,1.45,.85,1.46,2.11,2.81,4.36,2.83,1.58,.01,3.4-.56,4.36-1.79,.07-.09,.1-.24,0-.38-.2-.27-.24-.51-.17-.78,.13-.47,.64-.72,1.09-.96,.3-.16,.63-.29,.96-.37,.77-.22,1.67-.08,2.36,.31,1.47,.84,3.23,1.38,5.2,.27,1.37-.77,2.67-2.19,2.88-3.73,.01-.11-.04-.25-.19-.32-.3-.14-.46-.33-.53-.59-.12-.47,.19-.95,.46-1.38,.18-.29,.4-.56,.64-.8,.55-.57,1.41-.9,2.2-.91,1.69-.01,3.49-.42,4.63-2.36,.8-1.36,1.21-3.23,.63-4.68-.04-.1-.16-.2-.32-.18-.33,.03-.57-.05-.76-.25-.35-.34-.31-.91-.29-1.43,.01-.34,.06-.68,.15-1.02,.2-.77,.77-1.49,1.45-1.89,1.46-.85,2.81-2.1,2.83-4.36,.02-1.58-.56-3.4-1.79-4.36-.09-.07-.24-.1-.37,0-.27,.19-.51,.23-.78,.17-.47-.12-.72-.64-.96-1.09-.16-.3-.29-.62-.38-.96-.22-.76-.08-1.67,.31-2.36,.84-1.47,1.38-3.23,.27-5.19-.78-1.37-2.19-2.67-3.73-2.89-.11-.02-.25,.04-.32,.19-.14,.3-.32,.46-.59,.53-.47,.12-.95-.19-1.38-.46-.29-.18-.56-.39-.8-.64-.57-.55-.91-1.41-.91-2.2-.01-1.69-.42-3.49-2.36-4.63-1.36-.8-3.23-1.22-4.68-.64-.1,.04-.2,.16-.18,.33,.03,.33-.05,.56-.25,.76-.34,.34-.91,.31-1.43,.29-.34-.01-.68-.06-1.02-.15h0Z"/>
  </g>
</svg>