<svg height="27.61" viewBox="0 0 53.68 27.61" width="53.68" xmlns="http://www.w3.org/2000/svg"><path d="m0 22.12v-22.12h8.23v12.35a5.64 5.64 0 0 0 1.87-.44c.77-.29 1.64-.64 2.61-1a24.49 24.49 0 0 1 3.1-1 12.63 12.63 0 0 1 3.35-.44 5.36 5.36 0 0 1 4.39 2.27 16.21 16.21 0 0 1 2.69 6 41.38 41.38 0 0 1 1.15 8.09h-1.1a39.32 39.32 0 0 1 1.1-8.09 16.21 16.21 0 0 1 2.69-6 5.4 5.4 0 0 1 4.45-2.27 12.68 12.68 0 0 1 3.35.44 25 25 0 0 1 3.1 1c1 .4 1.84.75 2.6 1a5.64 5.64 0 0 0 1.87.44v-12.35h8.23v22.12a14.47 14.47 0 0 1 -5.32-.12 36.13 36.13 0 0 1 -5.36-1.5l-4.83-1.73a11.53 11.53 0 0 0 -3.64-.77 4 4 0 0 0 -3.68 2.12c-.84 1.41-1.26 3.9-1.26 7.49h-5.49c0-3.59-.42-6.08-1.27-7.49a4 4 0 0 0 -3.67-2.12 11.63 11.63 0 0 0 -3.63.77l-4.83 1.73a35.39 35.39 0 0 1 -5.4 1.5 14.39 14.39 0 0 1 -5.3.12z" fill="#fff"/></svg>