<svg height="133.36" viewBox="0 0 1510.51 133.36" width="1510.51" xmlns="http://www.w3.org/2000/svg"><g fill="#fff" opacity=".18"><path d="m96.37 70.88h-18.2l66.27-68.45h30.34v77.68h-30.34v-52.92l9.1 3.76-47.94 49.16h-36.42l-48.06-49 9.22-3.76v52.8h-30.34v-77.72h30.34z"/><path d="m184.49 80.11 52.07-77.68h33.74l52.56 77.68h-33.38l-45-69.55h18.08l-44.69 69.55zm27.19-11.78v-18.2h83v18.2z"/><path d="m311.93 2.43h126.24v23.06h-126.24zm47.95 21.48h30.34v56.2h-30.34z"/><path d="m588.06 47.7a28.4 28.4 0 0 1 -8.37 19.3q-7.77 7.77-22.88 11.65t-38.17 3.89a236.91 236.91 0 0 1 -31.56-1.89 82.78 82.78 0 0 1 -23.79-6.43 35.23 35.23 0 0 1 -15.05-12.44q-5.24-7.89-5.24-19.9t5.22-20.09a36.43 36.43 0 0 1 15.07-12.87q9.82-4.8 23.79-6.86a218.11 218.11 0 0 1 31.56-2.06q23.05 0 38.23 4.19t22.94 12.32a30 30 0 0 1 8.38 19.78h-31.56a15.58 15.58 0 0 0 -5.34-6.86q-3.88-3-11.65-4.67t-21-1.7q-15.54 0-25.25 1.88t-14.2 6a14.14 14.14 0 0 0 -4.49 10.93 12.71 12.71 0 0 0 4.49 10.13q4.49 3.88 14.2 5.7t25.25 1.82q13.23 0 20.93-1.57t11.6-4.31a15.35 15.35 0 0 0 5.34-5.89z"/><path d="m604 2.43h30.35v77.68h-30.35zm26 26.82h85.45v23.06h-85.51zm82-26.82h30.34v77.68h-30.34z"/><path d="m855.7 70.88h-18.21l66.27-68.45h30.34v77.68h-30.34v-52.92l9.1 3.76-47.94 49.16h-36.41l-48.07-49 9.23-3.76v52.8h-30.35v-77.72h30.35z"/><path d="m943.81 80.11 52.07-77.68h33.75l52.55 77.68h-33.38l-45-69.55h18.09l-44.7 69.55zm27.19-11.78v-18.2h83v18.2z"/><path d="m1091.89 2.43h30.34v77.68h-30.34zm64.69 39.45v-6.8l70 45h-45.16l-59.42-41.24 54.86-36.41h43.21z"/><path d="m1269.7 47.34v9.71h92.3v23.06h-122.64v-77.68h122.35v23.06h-92v9.71h75.29v12.14z"/><path d="m1377.73 80.11v-77.68h93.82a73 73 0 0 1 19.85 2.49 28.4 28.4 0 0 1 13.95 8.31q5.16 5.82 5.16 15.9a22.68 22.68 0 0 1 -2.42 11.05 17.38 17.38 0 0 1 -6.68 6.79 32.13 32.13 0 0 1 -9.71 3.52 73 73 0 0 1 -11.41 1.34l-8.86-1.7a182.8 182.8 0 0 1 22.27 1.21q7.83 1.09 10.93 3.95t3.09 8.19v16.63h-30.34v-13a9.17 9.17 0 0 0 -1.4-5.52q-1.39-1.89-6.07-2.61a101.73 101.73 0 0 0 -14.38-.73h-47.46v21.86zm30.34-42.11h63.48a13.9 13.9 0 0 0 6.13-1.21q2.49-1.22 2.49-4.62a4.29 4.29 0 0 0 -2.49-4.3 14.51 14.51 0 0 0 -6.13-1.16h-63.48z"/></g><g fill="#ffe9d7"><circle cx="632.15" cy="92.05" r="36.88" stroke="#efb970" stroke-miterlimit="10" stroke-width="3.14446"/><circle cx="714.02" cy="92.05" r="36.88" stroke="#efb970" stroke-miterlimit="10" stroke-width="3.14446"/><circle cx="795.62" cy="92.05" r="36.88" stroke="#efb970" stroke-miterlimit="10" stroke-width="3.14446"/><circle cx="877.49" cy="92.05" r="36.88" stroke="#efb970" stroke-miterlimit="10" stroke-width="3.14446"/></g><path d="m656.7 108.45v6.45h-48.78v-6.45h12.63c.93-4.43 1.92-9.57 2.85-14.93h-9.3v-6.4h10.28c.5-3.12.93-6.29 1.32-9.3h-14.7v-6.45h42.11v6.45h-20.2c-.43 3-.93 6.18-1.42 9.3h10.12l1.15-.22 5.19.38c-.33 6.4-1 14.11-1.8 21.17zm-26.19-14.93c-.93 5.41-1.86 10.55-2.74 14.93h11.43c.55-5 1-10.45 1.37-14.93z" fill="#da4e36"/><path d="m719.05 87.78c3.61 10.66 10.23 19.25 20.45 23.4a26.27 26.27 0 0 0 -4.81 6.13c-9.9-4.65-16.24-12.64-20.51-23.19-2.95 9.13-8.86 17.66-20.45 23.24a19.29 19.29 0 0 0 -4.87-5.52c12.53-5.58 17.72-14.66 19.85-24.06h-18.81v-6.73h19.91c.54-5.14.49-10.12.54-14.6h7.11c-.05 4.48-.11 9.51-.65 14.6h21.49v6.73z" fill="#da4e36"/><path d="m641.41 57.47a4.73 4.73 0 0 1 -2.79-2.15c-1.26-2.17-3.12-4.17-6.47-4.2-2.34 0-5 .83-6.47 2.66a.43.43 0 0 0 0 .55 1.27 1.27 0 0 1 .24 1.15c-.18.7-.94 1.08-1.62 1.44a7 7 0 0 1 -1.42.55 4.75 4.75 0 0 1 -3.5-.46c-2.17-1.24-4.79-2-7.7-.4-2 1.15-4 3.24-4.28 5.53a.47.47 0 0 0 .28.48 1.27 1.27 0 0 1 .79.88 2.78 2.78 0 0 1 -.69 2 6.23 6.23 0 0 1 -.95 1.18 4.79 4.79 0 0 1 -3.26 1.36c-2.51 0-5.17.61-6.87 3.5-1.19 2-1.8 4.79-.94 6.93a.46.46 0 0 0 .48.28 1.29 1.29 0 0 1 1.13.36 2.85 2.85 0 0 1 .42 2.12 6.07 6.07 0 0 1 -.23 1.51 4.81 4.81 0 0 1 -2.14 2.8c-2.17 1.26-4.18 3.12-4.21 6.47 0 2.34.84 5 2.66 6.47a.46.46 0 0 0 .55 0 1.31 1.31 0 0 1 1.16-.25c.7.19 1.08.94 1.43 1.62a6.51 6.51 0 0 1 .55 1.43 4.68 4.68 0 0 1 -.46 3.49c-1.24 2.18-2.05 4.79-.4 7.71 1.15 2 3.24 4 5.54 4.27a.46.46 0 0 0 .48-.28 1.3 1.3 0 0 1 .87-.79 2.8 2.8 0 0 1 2 .69 7.19 7.19 0 0 1 1.19 1 4.75 4.75 0 0 1 1.35 3.26c0 2.51.62 5.17 3.51 6.88 2 1.18 4.79 1.8 6.93.93a.47.47 0 0 0 .28-.48 1.24 1.24 0 0 1 .36-1.12 2.8 2.8 0 0 1 2.12-.43 6.49 6.49 0 0 1 1.5.23 4.73 4.73 0 0 1 2.8 2.15c1.26 2.16 3.13 4.17 6.47 4.2 2.35 0 5.05-.84 6.48-2.65a.48.48 0 0 0 0-.56 1.26 1.26 0 0 1 -.25-1.15c.18-.7.94-1.08 1.62-1.43a6.46 6.46 0 0 1 1.42-.56 4.67 4.67 0 0 1 3.49.46c2.18 1.25 4.79 2.05 7.71.4 2-1.15 4-3.24 4.28-5.53a.47.47 0 0 0 -.28-.48 1.32 1.32 0 0 1 -.79-.88 2.82 2.82 0 0 1 .68-2 6.77 6.77 0 0 1 1-1.19 4.68 4.68 0 0 1 3.26-1.34c2.5 0 5.17-.62 6.87-3.51 1.19-2 1.8-4.79.94-6.94a.46.46 0 0 0 -.48-.27 1.29 1.29 0 0 1 -1.12-.36 2.71 2.71 0 0 1 -.43-2.12 6.07 6.07 0 0 1 .23-1.51 4.72 4.72 0 0 1 2.15-2.8c2.16-1.26 4.17-3.12 4.19-6.47 0-2.34-.83-5-2.65-6.47a.45.45 0 0 0 -.55 0 1.34 1.34 0 0 1 -1.16.25c-.7-.19-1.07-1-1.43-1.62a7.05 7.05 0 0 1 -.55-1.43 4.68 4.68 0 0 1 .46-3.49c1.24-2.18 2-4.79.4-7.7-1.15-2-3.25-4-5.54-4.28a.46.46 0 0 0 -.48.27 1.26 1.26 0 0 1 -.87.79 2.75 2.75 0 0 1 -2.05-.68 6.42 6.42 0 0 1 -1.19-1 4.71 4.71 0 0 1 -1.35-3.25c0-2.51-.62-5.18-3.5-6.87-2-1.19-4.8-1.81-6.94-1a.47.47 0 0 0 -.27.49 1.28 1.28 0 0 1 -.37 1.12 2.79 2.79 0 0 1 -2.12.43 7.27 7.27 0 0 1 -1.51-.23z" fill="none" stroke="#efb970" stroke-miterlimit="10" stroke-width=".75"/><path d="m723.28 57.47a4.73 4.73 0 0 1 -2.79-2.15c-1.26-2.17-3.12-4.17-6.47-4.2-2.34 0-5 .83-6.47 2.66a.43.43 0 0 0 0 .55 1.27 1.27 0 0 1 .24 1.15c-.18.7-.94 1.08-1.62 1.44a7 7 0 0 1 -1.42.55 4.75 4.75 0 0 1 -3.5-.46c-2.17-1.24-4.79-2-7.7-.4-2 1.15-4 3.24-4.28 5.53a.47.47 0 0 0 .28.48 1.27 1.27 0 0 1 .79.88 2.78 2.78 0 0 1 -.69 2 6.23 6.23 0 0 1 -.95 1.18 4.79 4.79 0 0 1 -3.26 1.36c-2.51 0-5.17.61-6.87 3.5-1.19 2-1.8 4.79-.94 6.93a.46.46 0 0 0 .48.28 1.29 1.29 0 0 1 1.13.36 2.85 2.85 0 0 1 .42 2.12 6.07 6.07 0 0 1 -.23 1.51 4.81 4.81 0 0 1 -2.14 2.8c-2.17 1.26-4.18 3.12-4.21 6.47 0 2.34.84 5 2.66 6.47a.46.46 0 0 0 .55 0 1.31 1.31 0 0 1 1.16-.25c.7.19 1.08.94 1.43 1.62a6.51 6.51 0 0 1 .55 1.43 4.68 4.68 0 0 1 -.46 3.49c-1.24 2.18-2.05 4.79-.4 7.71 1.15 2 3.24 4 5.54 4.27a.46.46 0 0 0 .48-.28 1.3 1.3 0 0 1 .87-.79 2.8 2.8 0 0 1 2 .69 7.19 7.19 0 0 1 1.19 1 4.75 4.75 0 0 1 1.35 3.26c0 2.51.62 5.17 3.51 6.88 2 1.18 4.79 1.8 6.93.93a.47.47 0 0 0 .28-.48 1.24 1.24 0 0 1 .36-1.12 2.8 2.8 0 0 1 2.12-.43 6.49 6.49 0 0 1 1.5.23 4.73 4.73 0 0 1 2.8 2.15c1.26 2.16 3.13 4.17 6.47 4.2 2.35 0 5.05-.84 6.48-2.65a.48.48 0 0 0 0-.56 1.26 1.26 0 0 1 -.25-1.15c.18-.7.94-1.08 1.62-1.43a6.46 6.46 0 0 1 1.42-.56 4.67 4.67 0 0 1 3.49.46c2.18 1.25 4.79 2.05 7.71.4 2-1.15 4-3.24 4.28-5.53a.47.47 0 0 0 -.28-.48 1.32 1.32 0 0 1 -.79-.88 2.82 2.82 0 0 1 .68-2 7.25 7.25 0 0 1 1-1.19 4.68 4.68 0 0 1 3.27-1.42c2.5 0 5.17-.62 6.87-3.51 1.19-2 1.8-4.79.94-6.94a.46.46 0 0 0 -.48-.27 1.29 1.29 0 0 1 -1.12-.36 2.71 2.71 0 0 1 -.43-2.12 6.07 6.07 0 0 1 .23-1.51 4.72 4.72 0 0 1 2.15-2.8c2.16-1.26 4.17-3.12 4.19-6.47 0-2.34-.83-5-2.65-6.47a.45.45 0 0 0 -.55 0 1.34 1.34 0 0 1 -1.16.25c-.7-.19-1.07-1-1.43-1.62a7.05 7.05 0 0 1 -.55-1.43 4.68 4.68 0 0 1 .46-3.49c1.24-2.18 2-4.79.4-7.7-1.15-2-3.25-4-5.54-4.28a.46.46 0 0 0 -.48.27 1.26 1.26 0 0 1 -.87.79 2.75 2.75 0 0 1 -2.05-.68 6.42 6.42 0 0 1 -1.19-1 4.71 4.71 0 0 1 -1.34-3.18c0-2.51-.62-5.18-3.5-6.87-2-1.19-4.8-1.81-6.94-1a.47.47 0 0 0 -.27.49 1.28 1.28 0 0 1 -.37 1.12 2.78 2.78 0 0 1 -2.12.43 7.27 7.27 0 0 1 -1.51-.23z" fill="none" stroke="#efb970" stroke-miterlimit="10" stroke-width=".75"/><path d="m788.46 77.38 1.91-.1v5.41l-2 .16a54.46 54.46 0 0 1 -3.37 19.09 78.47 78.47 0 0 1 5.19 5.91l-4.32 4.92c-.93-1.42-2.29-3.12-3.77-4.92a37.46 37.46 0 0 1 -8.2 9.35 23.67 23.67 0 0 0 -4.27-4.21 34.41 34.41 0 0 0 8.37-9.74c-2.35-2.51-4.81-5-6.89-7.16.87-3.39 1.64-7.66 2.41-12.25l-3 .22-.6-5.8 4.38-.26c.49-3.94.87-7.82 1-11.37l6.07.27c-.27 3.44-.71 7.11-1.2 10.83l2.68-.11v-3.57h5.58zm-8 20a47.7 47.7 0 0 0 2.41-14.16l-3.5.22c-.6 3.82-1.32 7.54-2 10.88zm39.34-28.53v48.29h-5.91v-2.68h-17.06v3.07h-5.64v-48.68zm-23 5.8v28.35a25.75 25.75 0 0 0 5.63-14.11h-4.81v-5.22h5.08v-7.76h4.92v7.76h5.38v5.25h-5.57l-.17 1.81a105.65 105.65 0 0 1 6.62 12.14v-28.22zm17.06 34v-4.76l-3.86 2.37a74.17 74.17 0 0 0 -4.15-8.86 25.19 25.19 0 0 1 -5.86 10.12 17.59 17.59 0 0 0 -3.11-3v4.16z" fill="#da4e36"/><path d="m858.24 103.09a60 60 0 0 1 -2.24 13.34 25 25 0 0 0 -4.54-1.64c1.21-3.23 1.81-8.09 2.08-12.47zm-6.56-20.29c.93-.27 1.86-1.31 2.9-3a66.14 66.14 0 0 0 6.23-13.29l5.2 2.13a82.91 82.91 0 0 1 -7.22 13.4l3.94-.28c1.37-2.51 2.73-5.14 3.88-7.76l4.7 3.06a100.26 100.26 0 0 1 -11.26 17.23l6.34-.93c-.54-1.59-1.15-3.23-1.8-4.65l4.15-1.59a43.2 43.2 0 0 1 3.56 10.28l-4.38 1.86a13.21 13.21 0 0 0 -.27-1.37c-10.88 1.81-12.74 2.35-13.95 2.9l-.05-.76c-.33-1.32-1.09-3.45-1.53-4.71 1.26-.33 2.4-1.58 4-3.66.71-.82 1.91-2.52 3.44-4.81-4.26.49-5.47.82-6.23 1.14a54.22 54.22 0 0 0 -1.65-5.19zm12.09 19.14a107.14 107.14 0 0 1 1.42 11.37l-4.54 1.21a112.78 112.78 0 0 0 -1.15-11.52zm38.93-8.37c-1.53 1-3.17 2-4.92 3 .88 5.35 2.57 10.33 5.53 12.9a16.09 16.09 0 0 0 -3.89 4.65c-3.39-3.28-5.14-8.91-6.12-15.15-.77.33-1.53.71-2.24 1 2.4 6.62 1 13.34-1.81 15.64a6.91 6.91 0 0 1 -5.19 1.86 30.93 30.93 0 0 1 -3.18 0 11.89 11.89 0 0 0 -1.42-5.47 20.2 20.2 0 0 0 3.45.33 2.43 2.43 0 0 0 2.4-1.21c.71-.76 1.21-2.4 1.21-4.59a55.22 55.22 0 0 1 -12.2 7.76 21.41 21.41 0 0 0 -2.57-3.44l-3.61 1.42a77.79 77.79 0 0 0 -2.84-10.5l4-1.42a82.68 82.68 0 0 1 2.84 9.19 41.24 41.24 0 0 0 13.4-8.48 13.7 13.7 0 0 0 -.82-1.86 54.37 54.37 0 0 1 -9.73 6 23.63 23.63 0 0 0 -3.23-4.27 37.37 37.37 0 0 0 10.56-5.47c-.44-.44-.88-.93-1.37-1.42a51.61 51.61 0 0 1 -6.4 3.34 33 33 0 0 0 -3.29-4.38 41.08 41.08 0 0 0 9.74-4.73h-8.64v-5.14h17.64l.44-2.19h-15.63a139.81 139.81 0 0 0 3.61-14.6l5.85.54-.54 2.58h9.27l.93-.22 4.22.6c-.61 4.15-1.54 9-2.47 13.29h7.17v5.14h-14.47a30.52 30.52 0 0 1 -3.39 3 24.07 24.07 0 0 1 3.93 4.32 74.1 74.1 0 0 0 9.63-5.85zm-11.43-17 .5-2.73h-9.19l-.71 2.73z" fill="#da4e36"/><path d="m804.89 57.47a4.75 4.75 0 0 1 -2.8-2.15c-1.26-2.17-3.12-4.17-6.47-4.2-2.34 0-5 .83-6.47 2.66a.45.45 0 0 0 0 .55 1.27 1.27 0 0 1 .24 1.15c-.18.7-.94 1.08-1.61 1.44a6.83 6.83 0 0 1 -1.43.55 4.73 4.73 0 0 1 -3.49-.46c-2.18-1.24-4.79-2-7.7-.4-2 1.15-4 3.24-4.29 5.53a.47.47 0 0 0 .28.48 1.31 1.31 0 0 1 .8.88 2.83 2.83 0 0 1 -.69 2 6.7 6.7 0 0 1 -1 1.18 4.78 4.78 0 0 1 -3.25 1.36c-2.51 0-5.18.61-6.87 3.5-1.19 2-1.81 4.79-.95 6.93a.48.48 0 0 0 .49.28 1.28 1.28 0 0 1 1.12.36 2.81 2.81 0 0 1 .43 2.12 7.17 7.17 0 0 1 -.23 1.51 4.78 4.78 0 0 1 -2.15 2.8c-2.17 1.26-4.17 3.12-4.2 6.47 0 2.34.83 5 2.66 6.47a.46.46 0 0 0 .55 0 1.29 1.29 0 0 1 1.15-.25c.7.19 1.08.94 1.44 1.62a7.05 7.05 0 0 1 .55 1.43 4.68 4.68 0 0 1 -.47 3.49c-1.23 2.18-2 4.79-.39 7.71 1.15 2 3.24 4 5.53 4.27a.46.46 0 0 0 .48-.28 1.32 1.32 0 0 1 .88-.79 2.79 2.79 0 0 1 2 .69 6.8 6.8 0 0 1 1.19 1 4.76 4.76 0 0 1 1.36 3.26c0 2.51.61 5.17 3.5 6.88 2 1.18 4.79 1.8 6.93.93a.45.45 0 0 0 .28-.48 1.27 1.27 0 0 1 .36-1.12 2.8 2.8 0 0 1 2.12-.43 6.58 6.58 0 0 1 1.51.23 4.78 4.78 0 0 1 2.8 2.15c1.25 2.16 3.12 4.17 6.47 4.2 2.34 0 5-.84 6.47-2.65a.48.48 0 0 0 0-.56 1.29 1.29 0 0 1 -.25-1.15c.19-.7.94-1.08 1.62-1.43a6.66 6.66 0 0 1 1.42-.56 4.69 4.69 0 0 1 3.5.46c2.18 1.25 4.79 2.05 7.7.4 2-1.15 4-3.24 4.28-5.53a.45.45 0 0 0 -.28-.48 1.34 1.34 0 0 1 -.79-.88 2.83 2.83 0 0 1 .69-2 7.19 7.19 0 0 1 1-1.19 4.7 4.7 0 0 1 3.29-1.42c2.51 0 5.17-.62 6.88-3.51 1.18-2 1.79-4.79.94-6.94a.48.48 0 0 0 -.49-.27 1.29 1.29 0 0 1 -1.12-.36 2.8 2.8 0 0 1 -.43-2.12 6.58 6.58 0 0 1 .23-1.51 4.75 4.75 0 0 1 2.15-2.8c2.16-1.26 4.17-3.12 4.2-6.47 0-2.34-.84-5-2.65-6.47a.46.46 0 0 0 -.56 0 1.33 1.33 0 0 1 -1.16.25c-.69-.19-1.07-1-1.42-1.62a6.54 6.54 0 0 1 -.56-1.43 4.73 4.73 0 0 1 .46-3.49c1.25-2.18 2.05-4.79.4-7.7-1.15-2-3.24-4-5.54-4.28a.44.44 0 0 0 -.47.27 1.29 1.29 0 0 1 -.88.79 2.76 2.76 0 0 1 -2-.68 6.77 6.77 0 0 1 -1.19-1 4.65 4.65 0 0 1 -1.34-3.25c0-2.51-.63-5.18-3.51-6.87-2-1.19-4.79-1.81-6.94-1a.47.47 0 0 0 -.27.49 1.28 1.28 0 0 1 -.36 1.12 2.8 2.8 0 0 1 -2.12.43 7.17 7.17 0 0 1 -1.51-.23z" fill="none" stroke="#efb970" stroke-miterlimit="10" stroke-width=".75"/><path d="m886.76 57.47a4.75 4.75 0 0 1 -2.8-2.15c-1.26-2.17-3.12-4.17-6.47-4.2-2.34 0-5 .83-6.47 2.66a.45.45 0 0 0 0 .55 1.27 1.27 0 0 1 .24 1.15c-.18.7-.94 1.08-1.61 1.44a6.83 6.83 0 0 1 -1.43.55 4.73 4.73 0 0 1 -3.49-.46c-2.18-1.24-4.79-2-7.7-.4-2 1.15-4 3.24-4.29 5.53a.47.47 0 0 0 .28.48 1.31 1.31 0 0 1 .8.88 2.83 2.83 0 0 1 -.69 2 6.7 6.7 0 0 1 -1 1.18 4.78 4.78 0 0 1 -3.25 1.36c-2.51 0-5.18.61-6.87 3.5-1.19 2-1.81 4.79-.95 6.93a.48.48 0 0 0 .49.28 1.28 1.28 0 0 1 1.12.36 2.81 2.81 0 0 1 .43 2.12 7.17 7.17 0 0 1 -.23 1.51 4.78 4.78 0 0 1 -2.15 2.8c-2.17 1.26-4.17 3.12-4.2 6.47 0 2.34.83 5 2.66 6.47a.46.46 0 0 0 .55 0 1.29 1.29 0 0 1 1.15-.25c.7.19 1.08.94 1.44 1.62a7.05 7.05 0 0 1 .55 1.43 4.68 4.68 0 0 1 -.47 3.49c-1.23 2.18-2 4.79-.39 7.71 1.15 2 3.24 4 5.53 4.27a.46.46 0 0 0 .48-.28 1.32 1.32 0 0 1 .88-.79 2.79 2.79 0 0 1 2 .69 6.8 6.8 0 0 1 1.19 1 4.76 4.76 0 0 1 1.36 3.26c0 2.51.61 5.17 3.5 6.88 2 1.18 4.79 1.8 6.93.93a.45.45 0 0 0 .28-.48 1.27 1.27 0 0 1 .36-1.12 2.8 2.8 0 0 1 2.12-.43 6.58 6.58 0 0 1 1.51.23 4.78 4.78 0 0 1 2.8 2.15c1.25 2.16 3.12 4.17 6.47 4.2 2.34 0 5-.84 6.47-2.65a.48.48 0 0 0 0-.56 1.29 1.29 0 0 1 -.25-1.15c.19-.7.94-1.08 1.62-1.43a6.66 6.66 0 0 1 1.42-.56 4.69 4.69 0 0 1 3.5.46c2.18 1.25 4.79 2.05 7.7.4 2-1.15 4-3.24 4.28-5.53a.45.45 0 0 0 -.28-.48 1.34 1.34 0 0 1 -.79-.88 2.83 2.83 0 0 1 .69-2 7.19 7.19 0 0 1 .95-1.19 4.7 4.7 0 0 1 3.26-1.34c2.51 0 5.17-.62 6.88-3.51 1.18-2 1.79-4.79.94-6.94a.48.48 0 0 0 -.49-.27 1.29 1.29 0 0 1 -1.12-.36 2.8 2.8 0 0 1 -.43-2.12 6.58 6.58 0 0 1 .23-1.51 4.75 4.75 0 0 1 2.15-2.8c2.16-1.26 4.17-3.12 4.2-6.47 0-2.34-.84-5-2.65-6.47a.46.46 0 0 0 -.56 0 1.33 1.33 0 0 1 -1.16.25c-.69-.19-1.07-1-1.42-1.62a6.54 6.54 0 0 1 -.56-1.43 4.73 4.73 0 0 1 .46-3.49c1.25-2.18 2.05-4.79.4-7.7-1.15-2-3.24-4-5.54-4.28a.44.44 0 0 0 -.47.27 1.27 1.27 0 0 1 -.88.79 2.76 2.76 0 0 1 -2-.68 6.77 6.77 0 0 1 -1.19-1 4.65 4.65 0 0 1 -1.34-3.25c0-2.51-.63-5.18-3.51-6.87-2-1.19-4.79-1.81-6.94-1a.47.47 0 0 0 -.27.49 1.28 1.28 0 0 1 -.36 1.12 2.8 2.8 0 0 1 -2.12.43 7.17 7.17 0 0 1 -1.51-.23z" fill="none" stroke="#efb970" stroke-miterlimit="10" stroke-width=".75"/></svg>