<?xml version="1.0" encoding="UTF-8"?>
<svg id="_圖層_2" data-name="圖層 2" xmlns="http://www.w3.org/2000/svg" width="128.57" height="109.16" viewBox="0 0 128.57 109.16">
  <g id="_圖層_3" data-name="圖層 3">
    <g>
      <g>
        <g>
          <path d="M118.7,82.53c.33,.42,.67,.85,1.02,1.29-.57,.7-1.18,1.34-1.95,1.82-1.64,1.03-3.6,.88-5.01-.44-1.27-1.19-1.65-2.68-1.1-4.33,.54-1.64,1.73-2.57,3.45-2.8,1.28-.17,2.35,.31,3.31,1.11,.94,.78,1.63,1.78,2.41,2.7,.6,.71,1.2,1.43,1.88,2.06,.81,.75,1.77,.96,2.81,.45,1.26-.62,1.74-2.17,1.07-3.4-.67-1.24-2.19-1.65-3.41-.93-.66,.39-1.16,.96-1.66,1.53-.06,.07-.13,.15-.21,.24-.35-.45-.69-.87-1.05-1.32,.8-.96,1.66-1.83,2.87-2.26,.95-.34,1.9-.29,2.84,.09,1.74,.7,2.81,2.54,2.54,4.38-.27,1.91-1.78,3.36-3.67,3.56-1.29,.14-2.37-.34-3.33-1.15-.84-.71-1.48-1.59-2.18-2.43-.62-.75-1.27-1.49-1.94-2.2-.38-.4-.87-.68-1.44-.78-1.06-.19-2.13,.36-2.62,1.34-.48,.96-.27,2.17,.52,2.9,.81,.76,1.94,.89,2.89,.34,.69-.4,1.21-.99,1.73-1.58,.05-.06,.09-.11,.14-.17,.01-.01,.03-.02,.07-.03Z" style="fill: #fff;"/>
          <path d="M9.86,82.53c-.33,.42-.67,.85-1.02,1.29,.57,.7,1.18,1.34,1.95,1.82,1.64,1.03,3.6,.88,5.01-.44,1.27-1.19,1.65-2.68,1.1-4.33-.54-1.64-1.73-2.57-3.45-2.8-1.28-.17-2.35,.31-3.31,1.11-.94,.78-1.63,1.78-2.41,2.7-.6,.71-1.2,1.43-1.88,2.06-.81,.75-1.77,.96-2.81,.45-1.26-.62-1.74-2.17-1.07-3.4,.67-1.24,2.19-1.65,3.41-.93,.66,.39,1.16,.96,1.66,1.53,.06,.07,.13,.15,.21,.24,.35-.45,.69-.87,1.05-1.32-.8-.96-1.66-1.83-2.87-2.26-.95-.34-1.9-.29-2.84,.09-1.74,.7-2.81,2.54-2.54,4.38,.27,1.91,1.78,3.36,3.67,3.56,1.29,.14,2.37-.34,3.33-1.15,.84-.71,1.48-1.59,2.18-2.43,.62-.75,1.27-1.49,1.94-2.2,.38-.4,.87-.68,1.44-.78,1.06-.19,2.13,.36,2.62,1.34,.48,.96,.27,2.17-.52,2.9-.81,.76-1.94,.89-2.89,.34-.69-.4-1.21-.99-1.73-1.58-.05-.06-.09-.11-.14-.17-.01-.01-.03-.02-.07-.03Z" style="fill: #fff;"/>
        </g>
        <g>
          <g>
            <path d="M66.22,1.85c-.33-.09-.64-.33-.82-.63C65.04,.59,64.5,0,63.52,0c-.68,0-1.47,.24-1.89,.77-.03,.04-.04,.1,0,.16,.08,.12,.1,.22,.07,.34-.05,.2-.27,.31-.47,.42-.13,.07-.27,.12-.41,.16-.33,.09-.72,.03-1.02-.14-.63-.36-1.4-.6-2.24-.12-.59,.34-1.15,.95-1.25,1.61,0,.05,.02,.11,.08,.14,.13,.06,.2,.14,.23,.26,.05,.2-.08,.41-.2,.6-.08,.12-.17,.24-.28,.35-.24,.25-.61,.39-.95,.39-.73,0-1.51,.18-2,1.02-.35,.59-.53,1.4-.27,2.02,.02,.04,.07,.09,.14,.08,.14-.02,.24,.02,.33,.1,.15,.15,.13,.4,.12,.62,0,.15-.03,.29-.07,.44-.08,.33-.33,.64-.63,.82-.63,.37-1.22,.91-1.22,1.89,0,.68,.24,1.47,.77,1.89,.04,.03,.1,.04,.16,0,.12-.08,.22-.1,.34-.07,.2,.05,.31,.27,.42,.47,.07,.13,.12,.27,.16,.41,.09,.33,.04,.72-.14,1.02-.36,.63-.6,1.4-.12,2.25,.34,.59,.95,1.15,1.61,1.25,.05,0,.11-.02,.14-.08,.06-.13,.14-.2,.26-.23,.2-.05,.41,.08,.6,.2,.12,.08,.24,.17,.35,.28,.25,.24,.39,.61,.39,.95,0,.73,.18,1.51,1.02,2,.59,.35,1.4,.52,2.02,.27,.04-.02,.09-.07,.08-.14-.02-.14,.02-.24,.1-.33,.15-.15,.4-.14,.62-.13,.15,0,.29,.03,.44,.07,.33,.08,.64,.33,.82,.63,.37,.63,.91,1.22,1.89,1.22,.68,0,1.47-.24,1.89-.77,.03-.04,.04-.11,0-.16-.08-.12-.1-.22-.07-.34,.05-.2,.28-.31,.47-.42,.13-.07,.27-.12,.41-.16,.33-.1,.72-.03,1.02,.13,.63,.36,1.4,.6,2.25,.12,.59-.33,1.15-.95,1.25-1.61,0-.05-.02-.11-.08-.14-.13-.06-.2-.14-.23-.25-.05-.2,.08-.41,.2-.6,.08-.12,.17-.24,.28-.35,.24-.25,.61-.39,.95-.39,.73,0,1.51-.18,2-1.02,.34-.59,.52-1.4,.27-2.02-.02-.04-.07-.09-.14-.08-.14,.01-.24-.02-.33-.11-.15-.15-.14-.39-.13-.62,0-.15,.03-.29,.07-.44,.08-.33,.33-.64,.63-.82,.63-.37,1.22-.91,1.22-1.89,0-.68-.24-1.47-.77-1.89-.04-.03-.1-.04-.16,0-.12,.08-.22,.1-.34,.07-.2-.05-.31-.28-.42-.47-.07-.13-.12-.27-.16-.41-.09-.33-.03-.72,.14-1.02,.36-.63,.6-1.4,.12-2.25-.34-.59-.95-1.15-1.61-1.25-.05,0-.11,.02-.14,.08-.06,.13-.14,.2-.25,.23-.2,.05-.41-.08-.6-.2-.12-.08-.24-.17-.35-.28-.25-.24-.39-.61-.39-.95,0-.73-.18-1.51-1.02-2-.59-.35-1.4-.53-2.02-.28-.04,.02-.09,.07-.08,.14,.01,.14-.02,.24-.11,.33-.15,.15-.39,.13-.62,.12-.15,0-.29-.03-.44-.07h0Zm-.29,1.08c.81,.22,1.55,.53,2.25,.93,.7,.41,1.37,.92,1.93,1.48,.58,.58,1.07,1.22,1.48,1.93,.41,.7,.73,1.49,.93,2.25,.21,.79,.32,1.59,.32,2.41s-.11,1.65-.32,2.41c-.21,.79-.52,1.54-.93,2.25-.4,.7-.92,1.37-1.48,1.93-.58,.58-1.22,1.07-1.93,1.48-.7,.41-1.48,.73-2.25,.93-.79,.21-1.59,.32-2.41,.32s-1.65-.11-2.41-.31c-.79-.21-1.54-.52-2.25-.93-.7-.4-1.37-.92-1.93-1.48-.58-.58-1.07-1.22-1.48-1.93-.41-.7-.73-1.49-.93-2.25-.21-.79-.31-1.59-.31-2.41s.11-1.65,.31-2.41c.21-.79,.52-1.54,.93-2.25,.41-.7,.92-1.37,1.48-1.93,.58-.58,1.22-1.07,1.93-1.48,.7-.4,1.48-.73,2.25-.93,.79-.21,1.59-.31,2.41-.31s1.63,.11,2.41,.31h0Z" style="fill: #fff; fill-rule: evenodd;"/>
            <g>
              <path d="M70.52,16.34c-.07,0-.13,.02-.19,.04-.38,.08-.84,.22-1.26,.26-1.11,.12-2.07,.2-3.42,.07-1.25-.12-1.94-.26-3.74-.9-.46-.16-.86-.25-1.38-.43-.38-.12-.82-.24-1.05-.27-.1-.01-.5-.06-.61-.04,.31-.14,.7-.41,.91-.55,.45-.29,.71-.5,1.06-.87,.15-.15,.29-.32,.42-.49,.08-.09,.12-.24,.08-.36-.03-.11-.14-.2-.24-.25-.16-.09-.4-.06-.56,.02-.19,.09-.17,.26-.3,.38-.28,.13-.51,.22-.78,.29,.15-.17,.28-.28,.45-.49,.21-.26,.3-.34,.49-.61,.17-.25,.3-.43,.14-.57,.34-.17,.92-.43,1.27-.56,.33-.14,.6-.24,.94-.36,.12-.04,.24-.09,.35-.12-.42,.53-.86,1.16-1.11,1.79-.3,.77-.52,1.6-.4,2.43,.03,.19,.19,.31,.34,.42,.1,.07,.26,.07,.36,0,.08-.05,.14-.15,.2-.24,.02,.02,.04,.03,.05,.05,.05,.05,.14,.06,.21,.05,.21-.04,.43-.08,.64-.12,.04,0,.08,.02,.1,.05,.13,.21,.21,.42,.38,.6,.07,.08,.16,.17,.27,.19,.12,.02,.23-.02,.29-.13,.14-.25,.18-.48,.21-.76,.02-.18-.05-.36-.04-.53,0-.11,0-.22,0-.33,0-.25,0-.5,.01-.76,.01-.28,.04-.56,.09-.84,.02-.13,.06-.29-.01-.41-.06-.11-.09-.2-.18-.29-.12-.11-.2-.19-.35-.26-.21-.11-.44-.17-.64-.02-.18,.13-.34,.23-.54,.32-.04,.02-.15,.07-.2,.06,.16-.27,.36-.52,.59-.72,.38-.34,.83-.59,1.26-.84,.24-.14,.97-.26,1.22-.37,.29-.12,.27-.49,0-.62-.24-.12-.65-.17-.9-.26-.2-.07-.47-.1-.66,.03-.4,.29-1.3,.91-1.29,.8,.01-.11,.15-.63,.43-.78,.27-.16,.7-.7,.88-.88,.17-.19,.15-.16,.22-.24,.07-.08,.12-.11,.15-.17,.14-.09,.55-.44,.61-.51,.1-.08,.02-.35,.03-.4,.01-.05-.17-.19-.5-.21-.33-.02-.47,.2-.55,.22-.15,.22-.33,.39-.54,.85-.03,.3-.2,.5-.33,.71-.06,.07-.09,.27-.22,.19-.03-.04,0-.29,0-.37,.03-.18,0-.39,.03-.57-.01-.14,.01-.3,.03-.4,.07-.12,.03-.28,0-.44-.03-.11-.31-.23-.42-.31-.11-.08-.25-.09-.34-.14-.11-.04-.27,.03-.31,.01-.07-.03-.06,.26-.06,.26,.18,.14,.22,.32,.27,.53,.02,.33-.02,.87-.07,1.18-.06,.41-.13,.78-.22,1.15-.03,.3-.02,.3-.12,.64-.08,.04-.13,.14-.2,.18-.34,.15-.36,.23-.74,.4-.52,.23-.74,.32-1.32,.57-.01-.2-.06-1.14-.06-1.32,.6-.45,.95-.69,1.52-1.19,.07-.06,.08-.16,.06-.25-.02-.1-.13-.18-.16-.25-.15-.33-.26-.33-.54-.55-.21-.16-.39-.32-.56-.52-.13-.16-.31-.37-.44-.56-.01-.12,0-.15,0-.21,0-.08,0-.14,0-.23,0-.43,.02-.51,.12-.61,.13-.11-.06-.28-.31-.37-.16-.06-.29-.03-.38,.05-.13,.1-.26,.21-.31,.43-.03,.13-.05,.29,.01,.41,.06,.14,.1,.19,.11,.29,.02,.3,.05,.42,.07,.71,.04,.54,.08,1.11,.06,1.66-.72,.49-1.37,.8-2.2,1.06-.14,.05-.27,.05-.41,.02-.06-.01-.12-.02-.18-.04-.04,0-.09-.02-.13-.04,0,0-.02,0-.01,.01,.03,.04,.05,.07,.08,.12,.19,.29,.32,.28,.61,.44,.29,.17,.54,.33,.87,.41,.31,.07,.75,.06,1.02-.09,.12-.07,.33-.22,.44-.29,.02,.18,.04,1.1,.04,1.24-.21,.15-.51,.3-.75,.43-.37,.2-.7,.37-1.08,.54-.11,.05-.23,.01-.28-.1-.04-.09-.02-.23,0-.33,0-.05,.02-.11,.03-.15,0-.02-.01-.02-.03,0-.04,.04-.07,.07-.11,.11-.12,.13-.24,.34-.3,.5-.04,.12,0,.21,.1,.29,.18,.14,.35,.2,.59,.21,.15,0,.35,.03,.5,.04,.16,0,.31-.05,.42-.16,.54-.41,1.07-.75,1.58-1.09-.18,.42-.3,.66-.59,1.02-.16,.2-.28,.31-.5,.49-.07,.05-.16,.09-.23,.13-.07,0-.19,.06-.25,.1-.1,.07-.15,.19-.08,.3,.04,.07,.09,.11,.15,.17,.1,.1,.3,.14,.38,.07,.15-.14,.31-.13,.49-.21,.04-.01,.4-.12,.43-.13-.11,.18-.37,.38-.55,.5-.09,.06-.31,.22-.39,.27-.28,.18-.35,.23-.59,.33-.16,.01-.29-.02-.44-.05-.23-.05-.32-.07-.56-.08-.18,0-.28,.08-.34,.24-.09,.22-.18,.52-.06,.74,.08,.14,.11,.24,.28,.28,.12,.02,.27,.03,.37-.04,.28-.17,.58-.21,.9-.25,.22-.03,.43-.02,.65,0,.32,.03,.63,.09,.94,.17,.25,.07,.49,.15,.72,.25,.19,.08,1.12,.45,1.31,.54,1.08,.54,1.5,.71,2.11,.99,.53,.23,1.96,.83,2.85,.44,.92-.4,1.62-.34,3.01-1.13,.36-.13,.54-.21,.74-.43l.12-.2c.04-.06,.08-.09-.03-.07Zm-6.67-2.08s0,.15-.03,.19c-.09-.07-.2-.14-.3-.19-.07-.03-.12-.02-.18,0-.1,.03-.15,.04-.23,.07-.15,.05-.29,.09-.44,.12-.06,.01-.09,.01-.15,0-.02,0-.04,0-.07,0-.02-.03-.04-.06-.05-.09-.02-.08,0-.18,0-.26,0-.09,0-.18-.01-.27-.01-.07-.06-.15-.05-.21,0-.2,.02-.4,.05-.59l.04,.07c.1,.16,.22,.25,.4,.32,.07,.03,.15,.05,.22,.07,.07,.03,.16,.02,.17,.09,0,.04-.01,.07-.04,.09-.04,.04-.05,.05-.15,.09-.02,0-.02,.02,.01,.01,.07-.01,.13-.03,.19-.05,.04-.01,.07-.01,.15-.04,.04-.01,.1-.03,.15-.05,.05,0,.12,.02,.19,0,.06-.01,.1-.01,.15-.04,0,.22,0,.44-.02,.65Zm-1.01-2.21c.09,.05,.17,.09,.27,.11,.12,.03,.24,.01,.36-.02,.1-.03,.2-.06,.3-.06,.11,0,.15,.08,.16,.18,0,.28,0,.56-.01,.83-.05-.03-.1-.07-.15-.1-.21-.11-.45-.16-.68-.18-.12-.01-.21,0-.32,.06-.09,.06-.18,.1-.28,.12h-.08c.04-.29,.1-.58,.22-.87,.03-.07,.06-.14,.09-.2,.03,.05,.07,.09,.13,.12Zm-3.35-3.96c0-.19,0-.74,.01-.93,.11,.21,.29,.57,.43,.75,.07,.09,.1,.16,.12,.27,0,.07-.04,.14-.1,.17-.13,.07-.26,.14-.41,.18-.02-.14-.05-.29-.05-.44Z" style="fill: #fff;"/>
              <path d="M65.84,8.57c.22,.18,.53,.3,.82,.25,.35-.06,.61-.19,.9-.37,0,.22,.03,.46,0,.67,0,.02,0,.07-.02,.08-.18-.02-.36-.05-.53-.11-.07-.03-.14-.05-.21-.09-.02-.01-.03,0-.01,.02,.05,.06,.1,.11,.16,.16,.11,.11,.32,.3,.44,.41-.17,.21-.27,.39-.37,.6-.2,.41-.36,.8-.53,1.24-.14,.36-.29,.72-.43,1.09-.2,.5-.36,1-.51,1.51-.03,.12-.08,.21-.07,.34,0,.16,.03,.31,.12,.45,.05,.08,.1,.14,.14,.22,0,.07,.04,.12,.09,.15,.06,.05,.33,.07,.39-.11,.11-.31,.19-.63,.25-.96,.12-.61,.27-1.18,.45-1.78,.11,.07,.26,.08,.38,.03,.07-.04,.18-.1,.24-.16,0,0,.03-.03,.04-.03,0,0,.03,.03,.04,.04,.04,.04,.04,.14,.03,.19-.05,.18-.19,.35-.29,.49-.08,.11-.16,.21-.26,.3-.09,.09-.17,.15-.25,.25-.05,.07-.04,.19,.04,.22,.06,.03,.12,.03,.18,.04,.04,0,.1,0,.14,.02,0,0,.02,0,.03,.01,.09,.05,.18,.14,.2,.25,.02,.09-.03,.2-.08,.27-.04,.06-.14,.11-.2,.15-.06,.03-.14,.07-.19,.11-.01,0-.02,.02,0,.01,.1-.02,.15-.03,.23-.04,.15-.03,.29,.03,.43-.01,.22-.07,.46-.19,.59-.4,.09-.16,0-.37-.09-.51-.1-.14-.26-.19-.41-.24-.1-.04-.31-.03-.56,.08,.25-.18,.63-.52,.79-.75,.14-.2,.23-.47,.21-.71-.02-.19-.13-.41-.31-.49-.16-.08-.34,.05-.46,.13-.11,.08-.24,.14-.36,.19,.04-.13,.09-.27,.14-.4,.11-.22,.15-.27,.26-.38,.07-.07,.14-.12,.22-.17,.15-.1,.39-.2,.54-.19,.12,0,.14,.19,.14,.29,0,.63,.03,1.26,.03,1.88,0,.71-.02,1.4-.09,2.1-.04,.4-.42,.85-.84,1-.18,.06-.36,.09-.6-.02-.15-.07-.25-.16-.32-.31-.01-.03-.03-.03-.04-.05-.01-.01-.02-.04-.02-.08,0-.02-.02-.01-.02,0,0,.03,0,.06,0,.09,0,.06,.02,.09,.02,.12,.03,.11,.06,.15,.11,.22,.17,.24,.48,.39,.87,.42,.34,.02,.65-.02,.92-.2,.3-.19,.67-.47,.72-.85,.06-.51,.14-1.02,.15-1.54,.02-1.01,.09-2.04-.06-3.05-.04-.26-.26-.54-.51-.6-.22-.06-.43-.09-.66,0-.09,.04-.28,.16-.36,.22-.12,.09-.48,.4-.82,.88,.13-.3,.33-.68,.48-.92,.05-.08,.34-.39,.46-.48,.38,0,.38-.26,.39-.46,.21-.26,.48-.57,.7-.83,.34-.38,.58-.58,.86-.98,.03-.05,.12-.18,.15-.26,.06-.15-.12-.36-.22-.43-.13-.1-.24-.19-.41-.24-.1-.03-.25-.02-.33,.06-.05,.05-.09,.12-.11,.19-.02,.05-.03,.1-.05,.15-.18,.24-.38,.44-.63,.6,0-.39,0-.78,.01-1.17,0-.18,0-.3,.07-.46,.06-.15,.09-.35-.03-.48-.04-.04-.1-.07-.14-.12-.07-.07-.1-.14-.18-.21-.12-.09-.24-.16-.35-.26-.04-.03-.07-.07-.11-.1,0,0,0,0,0,0,0,.05,0,.1,.01,.14,0,.05,.02,.13,.03,.18,.03,.12,.01,.25,.02,.37,.03,.32,.01,.65,.07,.97,.06,.29,.09,.59,.1,.88,0,.16,0,.32,0,.49-.27,.14-.46,.21-.78,.2-.21,0-.43-.03-.63-.11-.18-.08-.34-.17-.49-.31-.1-.09-.15-.17-.19-.3-.03-.09-.05-.18-.07-.27,0-.04-.03-.04-.04,0-.01,.1-.02,.18-.03,.28-.01,.15-.01,.31,0,.46,.03,.31,.2,.58,.44,.78Zm2.27-.35c.24-.23,.41-.52,.63-.85,.03-.04,.03-.02,.02,.01-.17,.74-.39,1.02-.67,1.43,0-.11,.01-.48,.02-.6Z" style="fill: #fff;"/>
            </g>
          </g>
          <g>
            <path d="M44.62,33.41l-1.51,.37,1.18,4.77-1.13,.28-1.18-4.77-1.51,.37-.25-1.01,4.15-1.03,.25,1.01Z" style="fill: #fff;"/>
            <path d="M51.49,37.16l-1.19,.21-.53-.98-2.08,.36-.17,1.1-1.19,.21,1.12-6.23,.9-.16,3.16,5.49Zm-2.19-1.68l-1.09-2.01-.37,2.26,1.46-.25Z" style="fill: #fff;"/>
            <path d="M53.64,36.94l-1.15,.14-.7-5.91,1.15-.14,.7,5.91Z" style="fill: #fff;"/>
            <path d="M59.33,34.66c-.06,.59-.27,1.06-.63,1.42-.37,.36-.84,.56-1.43,.59-.63,.04-1.18-.14-1.64-.55-.28-.24-.47-.58-.58-.99-.06-.23-.11-.67-.15-1.34-.04-.66-.05-1.11-.02-1.35,.05-.43,.2-.78,.45-1.06,.41-.46,.93-.71,1.56-.75,.6-.04,1.09,.1,1.5,.4,.4,.31,.67,.75,.81,1.33l-1.18,.08c-.17-.55-.52-.81-1.06-.78-.35,.02-.61,.17-.78,.44-.14,.22-.18,.76-.12,1.61l.03,.53c0,.11,.02,.22,.04,.33,.12,.74,.48,1.09,1.09,1.05,.53-.03,.84-.34,.95-.91l1.18-.08Z" style="fill: #fff;"/>
            <path d="M65.02,36.49h-1.16s.02-2.49,.02-2.49l-2.01-.02-.02,2.48h-1.16s.05-5.96,.05-5.96h1.16s-.02,2.44-.02,2.44l2.01,.02,.02-2.43h1.16s-.05,5.96-.05,5.96Z" style="fill: #fff;"/>
            <path d="M71.08,34.88c-.05,.62-.3,1.11-.75,1.46-.45,.35-.98,.5-1.61,.45-.63-.05-1.13-.28-1.5-.69-.39-.42-.56-.95-.51-1.57l.32-3.9,1.16,.1-.32,3.86c-.03,.33,.04,.6,.21,.81,.16,.21,.41,.34,.73,.36,.33,.03,.59-.05,.79-.24s.31-.44,.34-.77l.32-3.86,1.15,.1-.32,3.9Z" style="fill: #fff;"/>
            <path d="M76.92,37.82l-1.02-.16-1.75-3.98-.58,3.6-1.15-.19,.95-5.88,1.02,.17,1.75,3.97,.58-3.6,1.15,.19-.95,5.88Z" style="fill: #fff;"/>
            <path d="M83.19,36.78c-.18,.74-.5,1.27-.95,1.61-.49,.36-1.1,.45-1.82,.28-.62-.15-1.09-.49-1.4-1.01-.19-.32-.28-.69-.26-1.12,.01-.23,.1-.67,.25-1.32,.16-.64,.28-1.07,.38-1.29,.18-.39,.43-.68,.75-.88,.53-.32,1.1-.4,1.72-.25,.59,.14,1.04,.43,1.34,.84,.3,.42,.43,.93,.39,1.54l-1.15-.28c0-.6-.27-.96-.84-1.1-.57-.14-.99,.14-1.26,.85l-.21,.84c-.11,.41-.17,.7-.2,.85-.12,.73,.13,1.18,.73,1.32,.33,.08,.61,.04,.85-.11,.24-.15,.4-.4,.48-.73l.05-.22-1.06-.26,.23-.94,2.18,.53-.21,.84Z" style="fill: #fff;"/>
          </g>
          <g>
            <path d="M25.3,52.72c.4,.64,.56,1.24,.49,1.81-.08,.6-.44,1.1-1.07,1.5-.54,.34-1.11,.44-1.71,.3-.36-.08-.69-.28-.98-.6-.16-.17-.42-.54-.77-1.11-.35-.56-.57-.95-.66-1.18-.16-.4-.19-.78-.11-1.15,.14-.6,.48-1.07,1.02-1.41,.52-.32,1.03-.45,1.54-.37,.51,.07,.97,.34,1.37,.8l-1,.63c-.42-.42-.88-.48-1.38-.17-.5,.31-.59,.81-.27,1.49l.46,.74c.22,.36,.38,.61,.47,.74,.45,.6,.93,.73,1.45,.4,.29-.18,.46-.41,.52-.69,.06-.28,0-.56-.19-.85l-.12-.19-.93,.58-.51-.82,1.91-1.19,.46,.74Z" style="fill: #fff;"/>
            <path d="M30.95,50.74c.24,.58,.24,1.12,0,1.64-.24,.51-.65,.89-1.23,1.13-.58,.24-1.13,.26-1.65,.07-.54-.2-.93-.59-1.17-1.17l-1.49-3.62,1.07-.44,1.47,3.58c.13,.3,.31,.51,.55,.63,.24,.12,.52,.11,.81,0,.3-.12,.5-.31,.59-.57,.09-.25,.07-.53-.05-.84l-1.47-3.58,1.07-.44,1.49,3.62Z" style="fill: #fff;"/>
            <path d="M37.55,50.87l-1.16,.34-.63-.91-2.03,.59-.05,1.11-1.16,.34,.41-6.32,.87-.26,3.76,5.1Zm-2.37-1.42l-1.31-1.87-.11,2.29,1.42-.42Z" style="fill: #fff;"/>
            <path d="M42.94,49.74l-1.01,.21-3.05-3.09,.74,3.57-1.14,.24-1.21-5.83,1.02-.21,3.05,3.09-.74-3.57,1.14-.24,1.21,5.83Z" style="fill: #fff;"/>
            <path d="M48.41,46.47c.11,.75,0,1.37-.29,1.85-.32,.52-.85,.83-1.59,.93-.63,.09-1.19-.05-1.68-.42-.3-.22-.51-.54-.66-.95-.08-.22-.16-.66-.25-1.32-.09-.65-.13-1.1-.12-1.34,.02-.43,.14-.79,.37-1.09,.38-.49,.88-.78,1.5-.87,.6-.08,1.12,.01,1.56,.29,.44,.28,.75,.71,.93,1.29l-1.17,.16c-.21-.56-.61-.79-1.19-.71-.58,.08-.87,.5-.85,1.25l.12,.86c.05,.42,.1,.71,.13,.87,.16,.73,.55,1.05,1.16,.96,.34-.05,.59-.19,.75-.42,.16-.23,.22-.52,.18-.85l-.03-.22-1.08,.15-.14-.96,2.23-.31,.12,.86Z" style="fill: #fff;"/>
            <path d="M53.56,43.5l-1.55,.14,.43,4.9-1.16,.1-.43-4.9-1.55,.14-.09-1.03,4.26-.38,.09,1.03Z" style="fill: #fff;"/>
            <path d="M56.39,48.28l-1.16,.06-.32-5.94,1.16-.06,.32,5.94Z" style="fill: #fff;"/>
            <path d="M62.65,48.11l-1.21,.02-.37-1.05-2.11,.04-.34,1.06-1.21,.02,2.06-5.99,.91-.02,2.28,5.91Zm-1.91-2l-.77-2.15-.71,2.18,1.48-.03Z" style="fill: #fff;"/>
            <path d="M68.21,48.26l-1.03-.03-2.25-3.72-.11,3.65-1.16-.04,.18-5.95,1.04,.03,2.24,3.72,.11-3.64,1.16,.04-.18,5.95Z" style="fill: #fff;"/>
            <path d="M76.4,44.02l-1.55-.15-.49,4.89-1.16-.12,.49-4.89-1.55-.15,.1-1.03,4.25,.42-.1,1.03Z" style="fill: #fff;"/>
            <path d="M80.98,49.65l-3.88-.59,.89-5.89,3.88,.59-.16,1.03-2.73-.41-.21,1.38,2.32,.35-.16,1.02-2.32-.35-.22,1.43,2.73,.41-.15,1.02Z" style="fill: #fff;"/>
            <path d="M87.6,51.06l-1.13-.25,.76-3.39-1.6,1.95-.77-.17-.63-2.45-.76,3.39-1.13-.25,1.3-5.81,1.11,.25,.82,3.48,2.21-2.8,1.12,.25-1.3,5.81Z" style="fill: #fff;"/>
            <path d="M94.46,48.9c-.17,.53-.49,.9-.94,1.11-.46,.21-.96,.23-1.49,.06l-1.09-.35-.69,2.13-1.11-.36,1.82-5.67,2.2,.71c.54,.17,.93,.48,1.18,.92,.25,.44,.29,.92,.12,1.45Zm-1.11-.35c.08-.24,.06-.45-.04-.64-.11-.19-.28-.32-.52-.4l-1.03-.33-.5,1.56,1.03,.33c.24,.08,.46,.07,.66-.02,.2-.09,.33-.26,.41-.5Z" style="fill: #fff;"/>
            <path d="M97.81,54.8l-3.53-1.57,2.42-5.44,1.06,.47-2,4.49,2.47,1.1-.42,.95Z" style="fill: #fff;"/>
            <path d="M102,57.45l-3.27-2.16,3.29-4.96,3.27,2.16-.57,.86-2.3-1.52-.77,1.16,1.96,1.3-.57,.86-1.96-1.3-.8,1.21,2.3,1.52-.57,.86Z" style="fill: #fff;"/>
          </g>
        </g>
      </g>
      <g>
        <g>
          <g>
            <path d="M60.88,61.79c.37-.11,1.18-.53,.9-.99-.28-.46-1.73-1.56-2.12-.8,0,0-.08,.26,.19,.46,.27,.2-.33,.35-.64,.44-.3,.09-1.56,.57-1.71,.51-.15-.06,.41-.34,.64-.62,.23-.28,1.24-1.3,1.24-1.63,0-.34-.02-1.13-.49-1.35-.47-.21-.57-.14-.57-.14,0,0-.19,.23-.11,.42,.07,.19-2,3.03-2.61,3.59-.61,.56,.21,1.51,.54,1.48,.34-.03,3.78-1.76,3.46-1.3-.32,.46-1.48,1.46-2.25,1.8-.77,.34-.71,1.3-.61,1.59,.1,.29,.76,1.14,.92,1.09,.17-.04,.42-.04,.59-.23,.17-.19,.98,.03,1.1,.08,.13,.04,1.34,.07,1.51-.08,.17-.15,.33-.89-.07-.92-.41-.03-.55-.06-.49-.17,.06-.11,.5-.73,.63-.82,.13-.08,.51-.43,.11-.7-.39-.27-.95-.29-1.05-.26-.1,.03-1.02,.08-1.14,.06-.12-.03,1.64-1.42,2.01-1.53Zm-1.85,2.37c-.89,.56-.76,.87-.98,.87-.22,0-.18-.72-.18-.78,0-.06-.03-.19-.03-.19,.48-.04,1.19,.11,1.19,.11Z" style="fill: #fff; fill-rule: evenodd;"/>
            <path d="M69.81,58.9s-.53-.2-.93-.07c-.41,.13-.83,.18-.89,.27-.06,.08-.17,.01-.18-.14,0-.15-.04-1.28-.04-1.32,0-.03-.08-.33-.66-.25,0,0-.15,.06-.24,.17-.09,.11-.23,.25-.25,.28-.02,.03-.19,.29-.02,.29,.17,0,.25-.07,.3,.33,0,0,.08,.06,.08,.13,0,.07-.07,.39,.01,.5,.08,.11,.24,.36-.45,.58-.69,.22-1.23,.79-1.26,.88,0,0-.16,.11-.42,.03-.27-.09-.35-.03-.35-.03,0,0-.21-.16-.29-.07-.08,.09-.22,.17,.03,.67,.25,.51,.4,1.16,1.39,1.37,0,0,.08,.07,.14,.17,.06,.1,.5,.24,.61,.18,.11-.05,.61-.52,.75-.39,.15,.14,0,.02,0,.02,0,0,.08,.32,.05,.43-.03,.11-.08,.32-.03,.36,.05,.04-.03,.38-.04,.41,0,.04-.03,1.47,.07,1.65,.1,.18,.09,.72,.22,.85,.13,.12-.18,.33-.22,.35-.04,.02,.09,.21,.18,.07,.09-.14,.17-.33,.23-.32,.06,.01,.3-.43,.3-.86,0-.43,.04-1.44,0-1.72-.03-.28,.11-.8,.07-1.18-.04-.37-.02-.56,.32-.61,.34-.05,.32-.09,.4-.12,.08-.03,.32-.03,.4-.29,.08-.26-.27-.58-.57-.63-.29-.04,.08-.28,.08-.28,0,0,.38-.23,.46-.22,.08,0,.41-.22,.57-.34,.16-.12,.48-.34,.55-.46,.07-.13,.04-.55-.39-.68Zm-2.96,2.32c-.3,.18-.59,.45-.74,.42-.15-.03-.53-.77-.53-.77,0,0,.31-.05,.45-.09,.14-.04,.22-.05,.36-.05,.15,0,.63-.07,.66-.11,.03-.04,.1,.41-.2,.6Z" style="fill: #fff; fill-rule: evenodd;"/>
          </g>
          <g>
            <path d="M82.41,92.51c-.15-.79-3.31-2.35-5.62-2.8-2.31-.45-3.65-1.1-5.52-2.22-1.87-1.11-5.81-4.28-6-4.97-.19-.68,3.88-2.78,4.57-2.7,.69,.07,2.41,0,2.96-.16,.55-.17,.5-.91,.23-1.28-.27-.38-1.82-.92-3.82-.95-2.01-.03-2.5-.64-2.82-.79-.32-.16-.56-.56-.23-.59,.32-.03,1.43-.95,1.65-1.2,.22-.24,.89-.87,.89-.87,1.48-.7,2.1-1.8,1.94-2.49-.16-.7-1.39-1.12-2.61-1.28-1.22-.16-3.23,.8-3.67,1.06-.44,.27-2.96,1.75-3.63,1.93-.67,.17-.78,.64-.78,.98s.55,.62,.64,.77c.09,.15,.52,.16,1.55,.48,1.02,.32,.8,2.01,.8,2.01,0,0,0,1.22-.32,2.09-.31,.87-2.05,1.49-4.69,2.51-2.65,1.01-1.49,1.56-1.04,1.87,.44,.31,2.75,1.27,3.64,1.76,.9,.48,.42,1.17,.06,1.43-.35,.26-1.29,1.81-1.93,2.77-.64,.97-1.48,1.32-3.14,2.07-1.67,.74-.67,1.39-.21,1.55,.46,.16,2.61-.43,4.88-1.55,2.26-1.11,2.75-4.42,2.75-4.83,0-.42,.95-2.4,1.27-2.4s3.25,4.48,3.25,4.48c0,0,4.67,5.2,9.41,5.52,4.74,.32,5.7-1.37,5.56-2.16Zm-16.37-14.35c.14-.18,.5-.79,.5-.79l.16-.09c.16-.09,.08,.14,.13,.32,.05,.18,.34,0,.34,.26s-.17,.18-.57,.38c-.4,.19-.7,.12-.57-.07Z" style="fill: #fff; fill-rule: evenodd;"/>
            <path d="M50.61,79.28c-.28-1.02-1.75-1.56-2.24-1.67-.07-.01-.15-.02-.25-.02-.56,0-1.57,.29-2.55,.58-.37,.1-.71,.21-1.02,.29-.08,.02-.15,.04-.22,.05,.08-.12,.16-.25,.22-.39,.09-.22,.03-.39-.02-.49,.1-.07,.36-.21,1-.49,.46-.2,1.05-.52,.95-1.01-.14-.67-1.53-.81-1.8-.81-.16,0-.23-.11-.39-.54-.13-.34-.29-.76-.65-1.12-.06-.06-.12-.11-.18-.14,.38-.16,.8-.25,1.18-.25,.25,0,.47,.04,.65,.11,.18,.07,.39,.11,.61,.11,.76,0,1.52-.46,1.62-.98,.03-.16,.03-.58-.61-.82-.61-.24-1.21-.44-1.9-.44-.86,0-1.71,.34-2.6,1.05-.21,.17-.37,.28-.48,.36,.08-.32,.16-.74-.08-1.02-.04-.05-.11-.14-.19-.25-.61-.85-2.05-2.85-3.94-2.85-.42,0-.84,.1-1.25,.31l-.12,.06-.03,.13s-.2,1.19,.64,2.03c.45,.45,.91,1.13,.6,1.86-.03,.07-.06,.14-.09,.22-.23,.57-.46,1.15-1.77,1.86-1.17,.64-3.33,1.24-4.16,1.24-.05,0-.1,0-.13,0,0-.1-.03-.17-.06-.22-.06-.09-.17-.14-.28-.14-.42,0-1.65,.94-1.66,1.59,0,.17,.07,.57,.81,.59,.04,0,.09,0,.13,0,.87,0,1.73-.23,2.42-.42,.44-.12,.82-.22,1.04-.22,.08,0,.11,.01,.11,.01,.18,.14,.29,.26,.31,.41,.02,.16-.06,.47-.54,1.05l-.15,.18c-.86,1.03-1.02,1.27-1.46,3.71-1.1,6.05-3.39,10.33-6.81,12.72l-1.29,.9,1.52-.41c.48-.13,4.71-1.31,5.45-2.84,.54-1.12,2.07-6.45,3.09-9.98,.32-1.11,.57-1.98,.7-2.4l.1-.32c.11-.36,.22-.71,.32-1.04,.12,.38,.77,.78,1.25,.91,.25,.07,.33,.14,.35,.16-.02,.04-.13,.22-.69,.5-.98,.48-1.6,1.67-1.53,1.97,.03,.13,.14,.22,.28,.22,.17,0,.27-.14,.32-.22,.16-.23,.79-.45,1.41-.67,.4-.14,.86-.3,1.28-.49,.59-.27,.85-.39,.97-.39,.04,0,.09,.01,.19,.04,.04,.01,.09,.03,.14,.04,.01,0,.02,0,.02,0,0,0,0,.07-.04,.19-.07,.18-.23,.36-.36,.41-.09,.04-.2,.07-.31,.1-.4,.13-.89,.28-1.36,.69-.32,.28-.77,.33-1,.33-.09,0-.14,0-.14,0h-.04s-.04,0-.04,0c-.48,.07-.83,.27-1.03,.58-.38,.59-.14,1.41,.03,2.01,.06,.2,.11,.38,.12,.47,.04,.71,1.71,2.6,2.6,3.43-.25,.15-.66,.39-1.26,.71-.25,.13-.5,.25-.75,.37-.9,.43-1.6,.76-1.66,1.34-.05,.47-.19,1.91,.82,2.55,.47,.3,1.13,.65,1.64,.65,.23,0,.42-.07,.56-.21,.15-.15,.22-.38,.22-.68-.01-.44-.1-.92-.18-1.35-.09-.46-.2-1.09-.09-1.24,.07-.09,.16-.22,.28-.37,.5-.67,.82-1.1,.99-1.37,.14,.06,.28,.08,.43,.08,.89,0,1.7-1.02,2.18-1.63,.04-.05,.08-.1,.12-.15,.19-.24,.34-.36,.42-.4,0,.04,0,.11,0,.21-.03,.4,.3,.85,.58,1.16,.63,.69,1.66,1.38,2.41,1.38,.06,0,.11,0,.17-.01-.14,.06-.29,.18-.31,.36-.03,.35,.41,.42,.56,.44,.55,.09,1.87,1.24,2.48,2.6,.37,.83,1.04,1,1.54,1,.64,0,1.29-.3,1.51-.51,.11-.1,.16-.26,.16-.45,0-.6-.56-1.59-1.3-2.3-.99-.94-4.19-1.21-4.32-1.22h-.01s-.02,0-.02,0c-.02,0-.05,0-.09,.01,1.24-.66,3.47-6.75,3.5-6.81,.33-.94-2.35-3.51-2.38-3.53-.17-.14-.46-.21-.89-.21-.74,0-1.82,.21-2.52,.49-.2,.08-.43,.16-.65,.22,.04-.03,.09-.05,.14-.08,1.05-.59,2.44-.9,4.13-.9,.52,0,1.06,.03,1.61,.09,.68,.07,1.38,.5,1.9,.81,.39,.24,.63,.38,.83,.38,.01,0,.03,0,.04,0,.14-.01,.26-.09,.34-.2,.18-.26,.15-.73-.1-1.64Zm-11.94,5.82c-.06,.03-.11,.07-.16,.09-.38,.22-.63,.37-.74,.85-.04,.19,0,.38,.13,.53,.16,.19,.42,.31,.7,.31,.21,0,.4-.07,.57-.19-.02,.13-.06,.3-.14,.43-.11,.2-.29,.32-.46,.32-.14,0-.29-.07-.43-.22-1.01-1.01-1.38-1.74-1.1-2.17h0s0-.02,0-.02c.27-.49,.81-1.23,1.15-1.32,.21-.06,.4-.15,.55-.22,.06-.03,.13-.07,.19-.09,0,.02,0,.04,0,.07,.11,1.18-.13,1.52-.29,1.61Zm.09-5.94s-.11-.08,.03,0c.14,.07,3.43-.75,3.95-.9-.05,.02,.02,.18-.06,.22-.47,.05-3.52,1.05-3.83,1.2,.01-.08-.02-.44-.09-.52Zm4.84,2.53c.05,0,.09,.02,.12,.06,.06,.07,.26,.39,.14,1.46-.16,1.37-.91,3.45-1.28,3.97-.09,.13-.15,.19-.18,.22-.05-.04-.12-.12-.18-.18l-.06-.06c-.06-.06-.1-.11-.14-.16-.14-.19-.26-.31-.6-.31-.15,0-.35,.02-.66,.06-.05,0-.1,0-.14,0h-.01c.04-.1,.18-.32,.58-.74,.23-.24,.34-.29,.56-.4,.14-.06,.32-.15,.57-.3,.35-.21,.51-.52,.42-.84-.12-.45-.67-.73-1.4-.73-.13,0-.23-.02-.25-.07-.06-.12,.08-.5,.25-.77l.05-.07v-.08c.02-.16,.74-.46,1.09-.61,.28-.12,.58-.24,.83-.38,.13-.07,.22-.08,.27-.08Zm-8.38-4.87c.17-.38,1.42-1.45,2.27-1.45,.13,0,.23,.03,.31,.08,.64,.42,1.73,.87,2.62,.87s1.46-.44,1.63-1.23c.07-.31,.2-.57,.37-.8-.07,.26-.12,.56-.18,.86-.03,.18-.06,.36-.1,.5-.14,.65-1.12,.99-2.25,1.39-.12,.04-.23,.08-.35,.12-.27,.09-.49,.14-.66,.14-.35,0-.49-.19-.77-.6-.08-.13-.18-.27-.3-.42-.1-.13-.25-.29-.46-.29-.45,0-.5,.59-.56,1.48-.02,.35-.05,.71-.1,1.04-.08,.5-.32,.56-.52,.56-.22,0-.42-.09-.43-.1h-.03s-.03-.02-.03-.02c-.06-.01-.11-.02-.17-.02-.11,0-.2,.03-.26,.09,.29-1.08,.39-1.9-.05-2.21Z" style="fill: #fff;"/>
            <g>
              <g>
                <path d="M83.6,76.04s-2.74,2.11-2.9,2.51c-.16,.41-1.15,.56-.94,1.37,.22,.8,.44,2.27,1.15,3.02,.71,.76,1.25,1.12,1.74,.59,.5-.53,1.36-4.13,1.53-4.81,.17-.68,.4-1.87,.26-2.05-.14-.18-.45-.77-.85-.63Z" style="fill: #fff; fill-rule: evenodd;"/>
                <path d="M100.24,73.56c-1.49-.41-6.03,.19-6.32,.18-.3,0-.35-.4-.35-.4-1.36-3.65-2.21-4.01-2.89-4.29-.68-.28-1.01,.96-.99,1.59,.03,.63,.13,3.71-.15,4.16-.28,.44-1.62,.74-2.12,.83-.5,.08-1.1,1.06-.86,1.17,.23,.12,.26,.21,.64,.62,.38,.41,1.52,.21,1.52,.21,.56-.56,2.98-1.1,3.25-1.16,.27-.05,.96,.14,.61,.34-.35,.19-1.92,1.33-2.15,1.52-.23,.21-.82,1.02-2.61,2.08-1.79,1.06-1.32,1.79-1.31,3.17,0,1.38,1.27,2.56,1.61,2.65,.34,.08,.36-.14-.47,2.27-.83,2.41-.46,4.24-.03,5.19,.43,.94,2.38,1.36,2.77,1.14,.39-.23,.84-.51,1.02-.69,.17-.17,4.2,0,4.51,0s1.54,.59,2.22,.07c.68-.52,.46-1.59,.18-1.93-.27-.34-.24-.86-.09-.86s1.04-.68,1.92-2c.89-1.32,.15-2.35-.77-3.19-.93-.85-3.24-.69-4.47-.69s-3.98,1.03-3.98,1.03c0,0-.52-.13,.81-1.51,1.33-1.38,2.66-1.02,2.99-1.02,.32,0,1.07-.78,1.19-1.27,.12-.49-.32-.36-.51-.82-.19-.45,1.23-.75,1.89-1.88,.65-1.13-.44-2.07-1.55-2.3-1.1-.22-3.7,.17-4.22,.32-.51,.14,.51-.76,1.2-1.08,.68-.32,.85-.9,.85-.9,0,0-.1,.21-.51,.26-.42,.04-.26-.16,.35-.89,.6-.74,3.23-1.25,3.54-1.2,.3,.04-.22,.27-.46,.36-.24,.08-1.2,.54-.99,.6,.21,.06,.93,.02,1.06,.02s1.75-.3,2.9,0c1.16,.3,1.78-.17,2.03-.5,.26-.32,.24-.79-1.24-1.21Zm-8.89,15.26s2.93,.32,3.08,0c.15-.33,.63-.42,.63-.23s-.25,1.08-.51,1.18c-.25,.09-.71,.78-.98,.85-.26,.06-1.35,.28-2.05,.48-.69,.19-1.08,.26-1.65-.84-.58-1.09,.33-3,.33-3,.15-.34,.17,.17,.17,.84s.98,.74,.98,.74Zm1.97-8.2c-.08,.36-.74,1.25-1.54,1.49-.8,.23-2.04,.64-2.09,1.08-.04,.44-.18,.67-.34,.42-.17-.25-.51-1.53-.68-1.67-.17-.15,.39-1.5,.86-1.39,0,0,.69,.23,1.1,.1,.41-.13,2.8-.38,2.7-.03Zm4.56-6.54c-.19-.03-.18,0-.43,.17-.24,.16-.08-.33-.08-.33,0,0,.3-.02,.43-.02,.12,0,.27,.21,.08,.18Z" style="fill: #fff; fill-rule: evenodd;"/>
              </g>
              <path d="M100.6,73.88s-.86,2.6-1.41,2.79c0,0,2.56-.47,2.41-1.67-.15-1.19-1-1.12-1-1.12Z" style="fill: #fff; fill-rule: evenodd;"/>
            </g>
          </g>
        </g>
        <g>
          <path d="M30.49,103.65c0,.09,0,.17-.03,.22-.21,.21-.43,.41-.64,.57,.12-.04,.23-.07,.34-.07,.11,.04,.21,.12,.28,.25,0,.11-.02,.2-.04,.27-.28,.29-.6,.54-.94,.75,.14-.21,.23-.4,.27-.59-.16,0-.29-.02-.4-.07,0,.16,.02,.37,.05,.65,0,.13,.02,.25,.03,.35,.28-.14,.48-.29,.59-.44,.23,0,.4,.12,.53,.37,0,.08-.15,.36-.45,.83-.1,.23-.34,.57-.72,1-.12,.11-.29,.17-.49,.18-.05,0-.12-.03-.18-.06,.23-.18,.44-.47,.63-.87,.14-.27,.22-.45,.22-.54-.31,.31-.59,.46-.82,.46-.23-.09-.42-.22-.55-.4,0-.1,.03-.18,.1-.23,.04,.05,.12,.08,.26,.08,.2-.07,.37-.13,.53-.21-.08-.1-.14-.23-.2-.4,.02-.09,.03-.47,.04-1.14,0-.26,0-.52,.04-.78l.09-.64c.02-.06,.08-.22,.2-.48h.06c.09,.14,.13,.36,.13,.64-.02,.16-.03,.31-.03,.45,.33-.27,.62-.41,.89-.41,.08,.05,.15,.14,.21,.27m-1.15,1.1s.09-.07,.13-.11c.22-.21,.37-.4,.44-.6-.23,0-.41-.03-.54-.09-.02,.27-.04,.53-.04,.79m1.54-2.56c.24,.11,.36,.28,.36,.52,0,.08-.02,.28-.04,.6-.02,.41-.03,.8-.03,1.17-.02,.34-.02,.88-.02,1.63,0,.37,0,.56-.03,.58-.12,0-.23-.11-.36-.32-.18-.42-.27-.72-.27-.92l.02-1c0-.49,.02-.86,.02-1.1,0-.08,0-.21,0-.37v-.21c0-.08-.07-.13-.21-.15-.41,.05-.69,.16-.86,.31,.04-.23,.12-.43,.26-.58,.09-.12,.24-.23,.44-.31,.19,0,.42,.05,.69,.16m-.18,4.45c.09,.04,.17,.08,.26,.13,.07,.03,.16,.12,.25,.24,.06,.07,.1,.12,.11,.12,.03,.03,.07,.1,.12,.22,.04,.13,.05,.23,.05,.3s-.04,.16-.1,.27c-.11,.07-.2,.1-.28,.1-.03,0-.11-.11-.25-.34-.12-.13-.21-.26-.27-.37-.05-.11-.11-.19-.14-.27-.09-.18-.17-.33-.24-.44,.02,0,.04,0,.08,.02,.03-.04,.12-.06,.23-.06,0,0,.06,.03,.17,.06m2.81-3.69c0-.7-.09-1.19-.26-1.48,.37,0,.62,.04,.77,.11,.23,.11,.35,.3,.35,.55-.04,.32-.08,.64-.15,.96,.47,.02,.81,.15,1.02,.39-.02,.2-.29,.29-.82,.3-.14,.07-.28,.14-.39,.2,0,.04-.02,.07-.02,.1,.04,.02,.1,.03,.15,.04,.36,.09,.55,.19,.55,.33,0,.16-.29,.48-.88,.98,0,.04,0,.07,0,.09,0,.91,.04,1.65,.14,2.23,0,.54-.06,.85-.18,.91-.43,0-1-.59-1.71-1.78,.5,.3,.92,.45,1.25,.45,0-.53,0-1.04,.02-1.54-.24,.18-.48,.36-.73,.54-.37,.3-.71,.48-1.03,.53-.22,0-.33-.05-.33-.16,.48-.23,.97-.61,1.47-1.14,.27-.24,.48-.44,.64-.61,0-.21,0-.43,.02-.62v-.04c-.58,.29-.89,.42-.93,.42-.16,0-.37-.07-.61-.23-.17-.18-.25-.35-.25-.51,.27,0,.67-.09,1.19-.29,.27-.13,.5-.25,.69-.34,.02-.14,.03-.27,.04-.4" style="fill: #fff;"/>
          <path d="M44.3,103.88c-.3,.1-.68,.26-1.14,.47,.06,.06,.12,.13,.17,.21,.05,.12,.09,.27,.09,.43-.05,.07-.12,.19-.2,.35-.05,.86-.09,1.41-.11,1.63,.02,.32,.05,.63,.09,.95-.05,.3-.13,.46-.26,.5-.16-.04-.29-.23-.38-.61,0-.39,.04-.91,.13-1.55,.04-.63,.07-1.18,.07-1.66,0,0,0-.02,0-.03-.5,.29-.94,.52-1.34,.71-.04,0-.07-.02-.11-.02-.11,0-.18-.14-.22-.4,0-.21,.04-.42,.15-.6,0,.04,.04,.09,.07,.14,.25,0,.71-.16,1.39-.48,.76-.36,1.21-.54,1.36-.58,.12,.02,.23,.07,.33,.17v.02c.27,.03,.48,.13,.64,.32,.21,.68,.31,1.25,.31,1.69,.21-.05,.41-.11,.61-.16,0-.09,0-.16,0-.23-.03,.02-.05,.04-.07,.05-.21,.09-.32,.13-.35,.13,0-.03,.08-.11,.25-.24,.06-.04,.12-.09,.17-.14v-.36c-.09,.02-.18,.04-.26,.04-.18-.04-.3-.2-.37-.45,0-.02,.04-.04,.08-.04,.05,.02,.09,.02,.11,.02,.16-.05,.3-.11,.45-.16,0-.21,.02-.43,.04-.65-.16,.09-.3,.19-.45,.29-.48,0-.72-.1-.72-.31,.32-.32,.73-.55,1.22-.69,0-.11,.02-.21,.03-.31,.02-.41,.04-.71,.1-.93-.04-.05-.09-.12-.13-.21-.12,.14-.23,.28-.34,.42v-.44s.05-.07,.09-.14c.06-.02,.11-.04,.13-.05h.25c.09,.04,.16,.07,.21,.09,.04,.02,.08,.03,.13,.03,.27,.2,.41,.34,.41,.41-.07,.22-.11,.54-.13,.96v.05c.1,0,.2-.02,.3-.02,.41,0,.74,.07,.99,.21,.29,.2,.43,.42,.43,.63-.02,.21-.26,.84-.7,1.87-.23,.43-.41,.64-.52,.64-.14-.02-.21-.07-.25-.15-.14,.04-.29,.06-.41,.1-.05,.89-.11,1.79-.16,2.68-.11,.43-.19,.66-.23,.69-.02,0-.06-.18-.14-.52-.04-.23-.06-.5-.1-.82-.02-.64-.03-1.25-.04-1.84-.2,.06-.37,.12-.53,.18-.08,0-.18-.03-.29-.08-.08-.03-.16-.08-.23-.16-.08-.08-.13-.22-.15-.44-.07-.79-.2-1.35-.42-1.68-.02,.04-.03,.06-.04,.08m-2.01,1.54c.05,.18,.09,.41,.09,.69-.02,.23-.08,.46-.18,.69-.09,.27-.19,.45-.29,.54-.17,0-.28-.06-.31-.19,.11-.37,.18-.76,.21-1.14,0-.26-.04-.46-.1-.61,.08-.12,.19-.19,.33-.19,.12,0,.2,.07,.25,.21m.02-2.92c.55-.23,1.01-.4,1.38-.52,.25,.06,.43,.17,.54,.33,0,.11-.03,.2-.08,.28-.56,.35-1.1,.69-1.64,1.01-.29,.12-.45,.19-.49,.19,0-.04,.12-.14,.36-.33,.12-.11,.24-.21,.34-.3-.05,0-.1,.02-.13,.02-.26-.05-.44-.27-.54-.63,.02-.04,.05-.05,.11-.05,.07,.02,.12,.03,.16,.03m1.73,2.24c.08,.25,.12,.42,.12,.52-.06,.11-.11,.26-.13,.46-.02,.15-.02,.28-.02,.37,.03,0,.07-.17,.14-.51,.09-.21,.15-.37,.2-.45-.05,.2-.12,.51-.2,.93-.04,.7-.09,1.03-.14,1.03-.12,0-.24-.08-.38-.25-.09-.15-.13-.29-.13-.44,.08-.02,.13-.33,.16-.93,0-.3,0-.53,.03-.69,.02-.14,.05-.22,.11-.22s.13,.06,.24,.17m2.71-1.01c.09-.03,.17-.05,.25-.08,.18,.05,.3,.13,.37,.24,0,.07-.02,.14-.05,.2-.21,.17-.42,.33-.62,.48-.02,.21-.03,.43-.03,.62,.12-.03,.25-.07,.37-.11h.07c.07-.25,.17-.53,.3-.85,.16-.46,.24-.87,.24-1.24,0-.12-.04-.18-.13-.18-.27,.05-.52,.12-.75,.19-.02,.23-.03,.47-.03,.72" style="fill: #fff;"/>
          <path d="M55.44,102.51h0c.16-.1,.33-.18,.5-.24,.14-.09,.28-.18,.42-.27,.13-.07,.28-.11,.44-.11,.36,.04,.62,.21,.82,.5,.02,.07,.04,.13,.06,.19-.02,.07-.03,.13-.03,.2-.15,.14-.29,.39-.44,.75,.05-.04,.11-.07,.19-.12,.12-.09,.21-.2,.29-.32,0,.19-.06,.33-.16,.44-.09,.14-.18,.24-.26,.29-.07,.05-.14,.12-.21,.18-.04,.11-.07,.23-.11,.34-.11,0-.21,0-.28-.05-.05,.05-.11,.09-.15,.13-.19,.16-.36,.31-.53,.44-.1,.09-.19,.14-.27,.16,0,.05,0,.1,0,.13,0,.42-.04,1.2-.09,2.34-.04,.53-.12,.8-.22,.8-.22,0-.36-.36-.4-1.08,.11-.55,.18-1.25,.21-2.08,0-.64,.04-1.28,.11-1.91,0-.21-.14-.37-.41-.52,0-.2,.08-.29,.25-.31,.08,0,.18,.04,.29,.13m.77,1.51c.11-.04,.2-.09,.28-.13,.14-.29,.26-.73,.34-1.3,0-.08-.06-.12-.19-.12-.18,.09-.43,.18-.76,.27-.09,0-.17,0-.22-.03,.07,.11,.12,.21,.14,.28,.35,.06,.59,.16,.73,.29,0,.31-.12,.47-.35,.49-.16-.02-.29-.05-.37-.1-.02,.19-.03,.36-.04,.52v.03c.11-.03,.25-.09,.44-.19m4.61-1.82c-.11,.39-.18,.93-.2,1.59v3.54c.04,.18,.05,.43,.05,.74-.09,.44-.2,.68-.34,.72-.73-.09-1.35-.61-1.83-1.59,.36,.41,.82,.61,1.39,.61,.04-.7,.07-1.38,.08-2.06,0-.61,0-1.21,0-1.83-.42,.21-.82,.39-1.2,.57,0,.07-.02,.12-.05,.18-.12,.08-.25,.16-.37,.23,.09,.08,.16,.19,.21,.32-.02,.09-.03,.21-.03,.36,.2-.04,.37-.07,.52-.09,.21,.02,.37,.19,.45,.51,0,.11-.03,.19-.08,.24-.1,0-.4,0-.9-.04h-.03c0,.05,0,.09,0,.13-.04,1.3-.11,1.94-.22,1.94s-.2-.08-.23-.25c-.05-.23-.08-.46-.09-.69,0-.36,0-.7,.03-1.06-.11,.02-.23,.04-.36,.07-.13,.05-.25,.1-.35,.13,0,.03-.02,.05-.02,.07,0,.09-.03,.27-.06,.53,0,.36-.03,.6-.06,.7-.04,.08-.08,.12-.14,.12-.07-.02-.14-.09-.22-.2-.07-.14-.11-.3-.11-.47,.06-.05,.11-.25,.13-.57-.16,.05-.25,.08-.28,.08-.05,0-.13-.03-.23-.1-.09-.05-.15-.11-.2-.17-.04-.02-.06-.06-.08-.14-.02-.05-.03-.09-.03-.13,.02,.02,.05,.04,.11,.05,.26-.08,.5-.15,.73-.22v-.21c-.06,.03-.1,.04-.11,.04,0-.02,.04-.05,.11-.11-.04-.13-.05-.25-.05-.38,.12,.04,.22,.1,.33,.18,.2-.12,.36-.25,.48-.37-.18,.05-.36,.08-.53,.1-.2-.04-.34-.21-.41-.5,0-.03,.04-.04,.08-.04,.05,.02,.1,.02,.12,.02,.61-.23,1.13-.42,1.55-.54,.15,.04,.27,.11,.35,.19,.12-.05,.21-.12,.3-.18-.12,.02-.24,.04-.36,.04-.2-.04-.32-.2-.39-.46,0-.03,.04-.04,.08-.04h0c-.04-.11-.06-.23-.06-.37,.05-.04,.08-.27,.1-.66h-.02c-.2-.11-.29-.3-.29-.6,.84-.45,1.5-.7,1.97-.77,.43,.16,.69,.45,.77,.85m-3.48,3.66v.02c.23-.06,.45-.12,.63-.17v-.08c0-.23-.04-.36-.12-.42-.22,.14-.44,.29-.65,.41,.09,.08,.13,.16,.13,.24m2.49-2.48c.05,.02,.1,.03,.13,.04v-.29c0-.23,0-.56,.02-1,0-.13-.04-.22-.12-.27-.21,.07-.47,.21-.8,.41-.09,.07-.15,.13-.21,.17,.02,.04,.04,.08,.04,.11,0,.04,0,.07,0,.1,.26-.1,.48-.18,.67-.24,.16,.05,.29,.12,.36,.22,0,.07-.02,.13-.05,.19-.3,.26-.59,.51-.87,.74-.07,.04-.12,.05-.15,.06v.03c.39-.11,.72-.2,1.01-.27m-1.01,.05v.12s.05-.05,.08-.06c.11-.12,.2-.24,.27-.36-.12,.04-.23,.06-.34,.07,0,.07,0,.15,0,.23" style="fill: #fff;"/>
          <path d="M71.55,107.9c.15,.11,.24,.18,.27,.2,.02,0,.03,.07,.04,.18,.02,.11,.03,.18,.03,.21,0,.03-.05,.1-.14,.19-.09,.04-.15,.07-.2,.07-.02,0-.13-.06-.35-.17-.13-.04-.25-.05-.36-.05-.3,0-.73,.04-1.3,.12-.44,.12-.68,.19-.73,.2-.02,0-.11-.09-.26-.27-.16-.16-.24-.26-.24-.29,0-.09,0-.15,.04-.2h.18s0,.08,0,.11c.04,0,.23-.04,.58-.13,.18-.04,.36-.07,.54-.09,.02-.13,.03-.27,.04-.39-.11,.04-.18,.05-.21,.05-.14,0-.29-.09-.45-.28-.09-.1-.14-.19-.17-.26-.23,.26-.56,.62-1,1.08-.44,.39-.77,.59-.97,.59-.07,0-.14,0-.23-.03-.09-.02-.13-.04-.13-.07,.33-.16,.63-.38,.9-.65,.32-.3,.6-.68,.84-1.12,.21-.32,.36-.58,.46-.76-.61,.25-.93,.37-1.01,.37-.06,0-.15-.04-.26-.12-.09-.05-.17-.11-.22-.19-.04-.02-.07-.07-.09-.16-.02-.04-.03-.09-.03-.14,.02,.03,.05,.05,.11,.06,.58-.16,1.1-.31,1.58-.44,0-.72,.02-1.44,.03-2.16-.17,.07-.27,.1-.29,.1-.07,0-.17-.04-.3-.13-.11-.07-.19-.14-.25-.22-.05-.02-.09-.08-.11-.19-.03-.05-.04-.11-.04-.15,.02,.02,.07,.04,.14,.06,.3-.09,.59-.17,.85-.24v-.39c-.1-.19-.17-.35-.21-.47,.29,0,.56,.11,.79,.34v.37c.37-.1,.71-.18,1.01-.25,0-.11,0-.2,0-.3-.11-.23-.2-.43-.26-.58,.37,0,.69,.14,.98,.42,0,.11,0,.22,0,.33,.1-.02,.19-.03,.27-.03,.23,0,.39,.2,.48,.56,0,.12-.03,.21-.08,.26-.09,0-.33,0-.7-.03l-.05,.59c-.07,.62-.14,1.18-.21,1.65,.34-.06,.63-.11,.87-.13,.22,0,.38,.19,.46,.54,0,.11-.03,.19-.08,.24-.13,0-.48,0-1.05-.03,.04,.04,.08,.09,.14,.12,.28,.27,.55,.53,.82,.77,.29,.2,.58,.39,.88,.56,.51,.27,.82,.42,.93,.45,.02,0,.04,.04,.1,.12,.05,.05,.09,.1,.1,.13,0,.06,0,.12-.03,.19,0,.05-.03,.09-.05,.11-.09,0-.31,0-.67-.04-.23,0-.4-.04-.49-.07-.09,0-.22-.04-.38-.11-.15-.08-.24-.14-.27-.19-.05-.04-.2-.18-.43-.41-.14-.21-.27-.4-.41-.57-.14-.15-.26-.32-.37-.5-.21-.3-.34-.47-.37-.52-.02-.02-.04-.03-.07-.04-.27,.04-.63,.1-1.1,.2l-.04,.02c.05,.08,.08,.15,.08,.22,0,.06-.03,.13-.06,.22-.07,.16-.12,.26-.14,.29,0,.04-.1,.17-.28,.37,.04,.02,.09,.03,.13,.04,.11,0,.27-.02,.48-.07,.06,0,.13-.03,.2-.05,0-.06,0-.12,.02-.2-.03-.25-.1-.43-.21-.53v-.06c.12-.04,.23-.06,.33-.06,.39,.12,.6,.3,.63,.53,0,.04,0,.07,0,.09,.04,0,.08-.02,.11-.02,.11,.02,.26,.09,.45,.21,.03,.05,.04,.13,.04,.23,0,.11-.08,.16-.21,.17-.18,.03-.34,.05-.48,.08-.04,.2-.07,.37-.11,.55,.09,0,.17,0,.24-.03,.3-.04,.53-.06,.68-.06,.06,0,.16,.03,.29,.07m-1.91-3.01c-.06,.02-.11,.03-.17,.03-.05,0-.11-.03-.14-.06-.02,.16-.03,.31-.03,.44,.14-.13,.26-.27,.34-.4m-.3,.53c.37-.1,.69-.18,.99-.24,0-.18,0-.36,.03-.54-.36,.28-.69,.54-1.02,.78m.34-1.49c-.05,.02-.11,.03-.16,.03-.05,0-.09-.03-.12-.05,0,.14-.02,.28-.03,.4,.13-.12,.23-.25,.31-.37m.41-.73c.13,.04,.24,.1,.31,.17,0-.18,.02-.35,.03-.52-.18,.04-.39,.07-.62,.12-.14,.07-.27,.12-.37,.17,0,.1,0,.2,0,.29,.27-.09,.49-.17,.67-.23m-.04,.97c.14,.03,.25,.09,.32,.16,0-.22,.02-.45,.03-.66-.3,.24-.6,.46-.87,.67,.21-.07,.38-.12,.52-.17" style="fill: #fff;"/>
          <path d="M79.54,105.32s-.08-.02-.12-.02c-.11,0-.19-.14-.23-.41,0-.23,.05-.44,.16-.62,0,.04,.04,.09,.07,.14,.26,0,.73-.16,1.42-.48,.77-.35,1.23-.53,1.38-.57,.13,.02,.25,.08,.35,.19,0,.16-.04,.29-.09,.38-.29,.09-.67,.24-1.12,.45,.05,.06,.11,.12,.14,.19,.06,.14,.1,.29,.1,.46-.05,.07-.12,.18-.21,.34-.05,.85-.1,1.38-.12,1.6,.02,.31,.05,.62,.1,.93-.05,.32-.14,.5-.28,.53-.16-.04-.29-.25-.4-.64,0-.39,.04-.9,.13-1.54,.05-.62,.08-1.17,.08-1.63-.52,.28-.97,.51-1.37,.7m.89,.14c.06,.18,.1,.4,.1,.69-.02,.23-.08,.45-.19,.69-.09,.27-.2,.44-.31,.53-.17,0-.28-.06-.32-.2,.12-.37,.19-.76,.21-1.13,0-.25-.04-.45-.1-.59,.08-.13,.2-.21,.35-.21,.12,0,.2,.07,.26,.21m.02-2.96c.55-.21,1.01-.37,1.39-.5,.26,.07,.44,.19,.56,.35,0,.12-.03,.21-.08,.29-.07,.05-.14,.09-.2,.12-.5,.3-.99,.58-1.46,.85-.3,.13-.47,.19-.52,.19,0-.04,.12-.15,.37-.35,.13-.09,.22-.19,.31-.27-.04,0-.07,.02-.1,.02-.27-.06-.46-.29-.56-.67,.02-.04,.05-.05,.11-.05,.08,.02,.13,.03,.16,.03m1.76,2.28c.08,.27,.12,.45,.12,.55-.05,.09-.1,.22-.12,.4-.02,.13-.02,.24-.02,.33,.02,0,.06-.15,.13-.47,.09-.2,.15-.33,.2-.42-.05,.2-.12,.5-.2,.93-.04,.7-.08,1.03-.13,1.03-.12,0-.26-.08-.4-.26-.11-.16-.15-.32-.15-.46,.09-.03,.14-.33,.17-.91,0-.3,0-.53,.04-.69,.02-.14,.05-.21,.11-.21,.06,0,.15,.06,.26,.18m1.29-.83c.27-.18,.52-.27,.75-.27,.12,.06,.21,.17,.29,.33,0,.12,0,.22-.03,.3-.31,.37-.64,.69-.99,.95,.26-.14,.5-.21,.72-.21,.14,.05,.26,.17,.35,.34,0,.14-.02,.26-.03,.35-.37,.37-.75,.7-1.16,.99,.02,.13,.04,.26,.06,.37,.12-.02,.25-.04,.37-.04,.29-.03,.53-.05,.76-.09l.11-1.39c.04-.7,.08-1.23,.11-1.58,.02-.11,.03-.29,.04-.53,0-.12,0-.23,.03-.3,0-.06-.09-.11-.25-.13-.49,.05-.84,.13-1.05,.25,.05-.25,.16-.46,.34-.62,.12-.14,.31-.26,.58-.34,.2,0,.43,.06,.71,.18,.25,.12,.38,.32,.38,.61,0,.09-.04,.35-.11,.77-.04,.54-.08,1.03-.1,1.52-.03,.33-.04,.8-.04,1.43,.28-.05,.49-.08,.65-.08,.07,0,.19,.04,.34,.09,.17,.12,.27,.2,.3,.22,.02,0,.04,.08,.05,.21,.02,.12,.03,.21,.03,.24s-.05,.11-.16,.2c-.1,.05-.17,.08-.22,.08-.02,0-.15-.06-.39-.19-.15-.04-.29-.06-.42-.06h-.18c0,.46-.05,.71-.1,.73-.12,0-.24-.11-.37-.33-.05-.12-.1-.25-.13-.36-.38,.04-.83,.1-1.34,.18-.71,.22-1.1,.34-1.18,.35-.02,0-.1-.07-.24-.23-.13-.15-.21-.24-.21-.26,0-.08,0-.14,.03-.18h.15s0,.07,0,.09c.05,0,.34-.08,.85-.25,.07-.03,.15-.05,.22-.08-.04-.06-.06-.12-.08-.19-.1,.07-.19,.12-.28,.18,.09-.08,.18-.16,.26-.23-.05-.11-.08-.22-.1-.33,.06-1.33,.14-2.23,.25-2.7,.09-.36,.24-.54,.45-.54-.02,.2-.03,.37-.04,.55m.17,2.01c-.12,0-.21,0-.29-.04,0,.16-.02,.32-.03,.47,0,.04,0,.07,.02,.11,.13-.18,.23-.36,.3-.53m.11-1.43c-.12,0-.22,0-.31-.04-.02,.25-.04,.48-.05,.71,.17-.23,.29-.45,.36-.67" style="fill: #fff;"/>
          <path d="M95.08,101.24c.19,.04,.38,.11,.58,.21,.12,.11,.2,.2,.27,.28,.06,.09,.1,.17,.1,.22-.04,.12-.08,.21-.12,.26,.04,0,.06-.02,.08-.02,.53,0,.91,.13,1.13,.38-.02,.21-.36,.32-1.02,.32-.28,.12-.55,.24-.78,.33l.05,.05c.15,.16,.23,.29,.23,.39,0,.04,0,.08-.03,.13,.04,.03,.06,.04,.09,.06,.34,.1,.54,.21,.62,.31,0,.09-.03,.17-.06,.24-.29,0-.58,.05-.87,.12-.02,.08-.04,.15-.05,.22,.06,0,.12-.02,.19-.02,.32,.04,.56,.19,.73,.45,.02,.06,.04,.12,.06,.16-.02,.06-.03,.12-.04,.18-.13,.1-.25,.29-.37,.6,.03,.03,.04,.05,.06,.07,0,.06-.02,.12-.04,.16-.28,.16-.57,.32-.85,.46,0,.02,0,.03,0,.03,.21-.05,.44-.09,.65-.14,.16,0,.27,.03,.34,.08,.05,.06,.09,.14,.09,.25-.05,.13-.17,.2-.35,.2-.27,.02-.53,.05-.77,.11,0,.04,0,.06,0,.08-.04,.21-.04,.38-.04,.51-.03,.18-.05,.34-.07,.5,0,.32-.03,.49-.06,.51-.03,0-.07-.07-.13-.21-.04-.09-.1-.18-.17-.27-.07-.17-.1-.33-.1-.51,.04-.11,.08-.22,.1-.35,0-.04,.02-.09,.03-.13-.3,.09-.61,.21-.94,.33-.21,0-.38-.03-.49-.1-.07-.02-.11-.09-.12-.2,0-.1,.03-.17,.08-.22,.18-.02,.61-.11,1.28-.29,.02,0,.04,0,.06,0,.04-.03,.08-.05,.12-.08,0-.05-.02-.1-.03-.13-.08,.02-.16,.03-.23,.03-.15-.04-.25-.15-.3-.36,0-.02,.03-.03,.06-.03h.02c-.07-.09-.12-.22-.17-.37-.02,0-.04-.05-.04-.12,0-.05,0-.12,0-.18v-.14c0-.07,.08-.24,.21-.51h.06c.08,.14,.12,.33,.13,.57h0c.1-.04,.26-.11,.49-.2,.24-.04,.4-.05,.48-.05,.03,0,.07,.03,.11,.08,.03,.05,.04,.11,.04,.14s-.08,.1-.22,.19c-.1,.07-.21,.14-.35,.21-.18,.12-.34,.21-.46,.29,0,.02,0,.04,.02,.04,.36-.11,.69-.2,.95-.27,.09-.2,.15-.47,.2-.85,0-.05-.05-.09-.16-.09-.17,.07-.41,.13-.71,.21-.15,0-.27-.02-.35-.05-.04,0-.06-.04-.06-.12,.15-.07,.3-.12,.46-.18,.04-.02,.08-.04,.12-.06,0-.09,.02-.18,.02-.27-.2,.07-.41,.16-.62,.25-.18,0-.3-.1-.37-.29-.14,.39-.32,.83-.54,1.31-.3,.81-.61,1.63-.93,2.45-.19,.37-.4,.57-.63,.57-.13-.07-.21-.2-.23-.39,.04-.12,.11-.28,.21-.45,0,.07,0,.13,.02,.21,.23-.14,.44-.48,.61-1.02,.22-.41,.4-.95,.53-1.63,.14-.41,.29-.83,.45-1.26,.07-.19,.15-.37,.26-.56-.16-.02-.34-.1-.54-.24-.18-.18-.27-.36-.27-.52,.35,0,.86-.1,1.53-.3,.57-.23,.99-.39,1.27-.5h-.12c-.1,0-.2,0-.29,0h-.75c.06-.04,.12-.1,.19-.17,.1-.03,.2-.08,.29-.14,.05-.08,.08-.16,.08-.25-.09-.11-.16-.21-.23-.29-.06-.08-.1-.18-.12-.29,.1,0,.26,.03,.47,.06m-.46,2.92c.09-.03,.18-.05,.26-.07,0-.11,.02-.21,.03-.32,0-.13-.05-.24-.1-.32-.28,.12-.5,.21-.68,.28-.05,.2-.12,.4-.2,.62,.23-.04,.46-.11,.69-.19m-.31,2.06v.02l.03-.03c.05-.07,.12-.14,.21-.22-.11-.02-.2-.06-.29-.13,.02,.12,.04,.25,.05,.36m2.59-1.33s-.02,.04-.02,.06c.12-.1,.26-.15,.42-.16,.12,.23,.2,.49,.22,.77-.05,.1-.12,.21-.21,.33,.04,.04,.08,.07,.14,.07,.04,0,.06,.03,.09,.06,.04,.05,.07,.11,.1,.16,0-.39-.02-.88-.04-1.47,0-.31,0-.5-.02-.56-.3,0-.54,.1-.71,.28-.12,0-.18-.12-.18-.36,.14-.29,.42-.46,.83-.51,.48,0,.74,.19,.76,.56-.12,.41-.19,.89-.19,1.44,0,.77,.05,1.51,.17,2.2,0,.73-.18,1.11-.53,1.17-.29-.03-.57-.39-.84-1.1,.14,.13,.29,.2,.45,.2,.17,0,.27-.48,.28-1.44-.14,.23-.34,.44-.58,.64-.09,.04-.18,.05-.25,.07-.06-.02-.12-.03-.18-.04-.18,.82-.51,1.23-.98,1.23,.45-.59,.69-1.73,.69-3.41-.02-.24-.05-.41-.12-.52,.41,0,.64,.12,.68,.35m.33,1.6c-.09,0-.19-.03-.28-.04-.1-.14-.16-.27-.19-.36,0,.11,0,.2,0,.31-.03,.27-.05,.52-.09,.73,.21-.2,.4-.41,.57-.64m-.29-.66c.03-.07,.08-.13,.12-.19-.04-.07-.05-.15-.06-.23-.07,0-.14,0-.21,0-.02,.17-.04,.35-.04,.53,.08-.04,.14-.08,.18-.12" style="fill: #fff;"/>
        </g>
      </g>
    </g>
  </g>
</svg>