<svg xmlns="http://www.w3.org/2000/svg" width="58.76" height="57.76" viewBox="0 0 58.76 57.76">
  <defs>
    <style>
      .cls-1 {
        fill: none;
        stroke: #fff;
        stroke-miterlimit: 10;
        stroke-width: 1.5px;
      }

      .cls-2 {
        fill: #fff;
      }
    </style>
  </defs>
  <g id="圖層_2" data-name="圖層 2">
    <g id="圖層_1-2" data-name="圖層 1">
      <g>
        <line class="cls-1" x1="58.22" y1="33.32" x2="0.37" y2="0.65"/>
        <line class="cls-1" x1="58.22" y1="33.32" x2="0.37" y2="0.65"/>
        <line class="cls-1" x1="0.55" y1="33.32" x2="58.39" y2="0.65"/>
      </g>
      <g>
        <path class="cls-2" d="M12,53.37a4.51,4.51,0,0,1-.7,2.29,4.27,4.27,0,0,1-1.8,1.55,6.21,6.21,0,0,1-2.65.55A4.89,4.89,0,0,1,3,56.16a6.59,6.59,0,0,1-1.42-4.52V51a7.61,7.61,0,0,1,.64-3.2A4.89,4.89,0,0,1,4.05,45.7,5.08,5.08,0,0,1,6.82,45a5.39,5.39,0,0,1,3.64,1.19A4.76,4.76,0,0,1,12,49.43H9a2.22,2.22,0,0,0-.57-1.63,2.37,2.37,0,0,0-1.64-.5,1.8,1.8,0,0,0-1.65.84,5.41,5.41,0,0,0-.54,2.68v.88a5.89,5.89,0,0,0,.5,2.85,1.82,1.82,0,0,0,1.72.85,2.31,2.31,0,0,0,1.58-.48A2.06,2.06,0,0,0,9,53.37Z"/>
        <path class="cls-2" d="M17.12,55.27h5.23v2.31H14.12V45.13h3Z"/>
        <path class="cls-2" d="M34.31,51.61a7.37,7.37,0,0,1-.67,3.23A5,5,0,0,1,31.72,57a5.71,5.71,0,0,1-5.66,0,4.93,4.93,0,0,1-1.92-2.09,7,7,0,0,1-.72-3.12v-.7a7.34,7.34,0,0,1,.67-3.23A5,5,0,0,1,26,45.72a5.72,5.72,0,0,1,5.68,0,5.15,5.15,0,0,1,1.93,2.14A7.09,7.09,0,0,1,34.31,51Zm-3.05-.52a5.29,5.29,0,0,0-.62-2.82,2,2,0,0,0-1.78-1c-1.5,0-2.3,1.13-2.38,3.39v.91a5.37,5.37,0,0,0,.61,2.82,2,2,0,0,0,1.8,1,2,2,0,0,0,1.75-1,5.16,5.16,0,0,0,.63-2.77Z"/>
        <path class="cls-2" d="M43,54.27a1.21,1.21,0,0,0-.46-1,5.63,5.63,0,0,0-1.64-.76A18.74,18.74,0,0,1,39,51.73c-1.61-.8-2.42-1.89-2.42-3.27a3,3,0,0,1,.61-1.83,3.85,3.85,0,0,1,1.7-1.23A6.76,6.76,0,0,1,41.33,45a5.79,5.79,0,0,1,2.41.48A3.86,3.86,0,0,1,45.4,46.8a3.61,3.61,0,0,1,.59,2H43a1.5,1.5,0,0,0-.46-1.18,1.82,1.82,0,0,0-1.27-.42,2.07,2.07,0,0,0-1.26.35,1.08,1.08,0,0,0-.47.9,1.1,1.1,0,0,0,.51.87,6.56,6.56,0,0,0,1.81.81,10.56,10.56,0,0,1,2.12.89,3.58,3.58,0,0,1,2,3.21,3,3,0,0,1-1.24,2.56,5.46,5.46,0,0,1-3.37.94,6.7,6.7,0,0,1-2.74-.55,4.1,4.1,0,0,1-1.85-1.49,3.81,3.81,0,0,1-.62-2.17h3A1.88,1.88,0,0,0,39.7,55a2.41,2.41,0,0,0,1.68.48,2,2,0,0,0,1.17-.32A1.07,1.07,0,0,0,43,54.27Z"/>
        <path class="cls-2" d="M56,52.3H51.23v3H56.8v2.31H48.23V45.13h8.59v2.32H51.23v2.62H56Z"/>
      </g>
    </g>
  </g>
</svg>
