<?xml version="1.0" encoding="UTF-8"?>
<svg id="b" data-name="圖層 2" xmlns="http://www.w3.org/2000/svg" width="54.84" height="19.68" viewBox="0 0 54.84 19.68">
  <defs>
    <style>
      .d {
        fill: #fff;
      }

      .e {
        fill: #efb970;
      }
    </style>
  </defs>
  <g id="c" data-name="圖層 2">
    <rect class="e" width="54.84" height="19.68"/>
    <g>
      <path class="d" d="M11.81,12.56c-1.91,.54-3.94,1.1-5.45,1.52l-.33-1.35c.6-.11,1.35-.29,2.16-.5V6.53h-1.98v-1.23h5.22v1.23h-1.93v5.36l2.13-.56,.17,1.23Zm7-5.15c-.21,5.66-.37,7.68-.91,8.33-.33,.42-.65,.56-1.15,.61-.47,.06-1.27,.06-2.05,.01-.03-.36-.19-.92-.43-1.27,.81,.06,1.56,.07,1.89,.07,.26,0,.41-.04,.57-.22,.38-.42,.58-2.25,.75-6.9h-2.43c-.23,3.7-1.05,6.74-4.22,8.52-.19-.35-.61-.81-.94-1.05,2.9-1.53,3.64-4.18,3.84-7.48h-2.13v-1.24h2.19c.03-.92,.03-1.85,.03-2.85h1.34c0,.98-.01,1.92-.04,2.85h3.7v.61Z"/>
      <path class="d" d="M25.09,7.18c-.33,.64-.73,1.28-1.14,1.91v7.46h-1.24v-5.76c-.41,.53-.84,1-1.25,1.39-.14-.28-.53-.89-.75-1.19,1.17-1.06,2.4-2.68,3.19-4.24l1.19,.42Zm-.24-2.94c-.91,1.23-2.26,2.68-3.41,3.64-.13-.29-.44-.79-.63-1.06,.98-.81,2.22-2.09,2.83-3.07l1.21,.49Zm-.58,11.24c.51-.66,.94-1.72,1.19-2.58l1,.39c-.26,.89-.64,2.01-1.19,2.75l-1-.56Zm9.66-3.38h-4.57c.36,.53,.77,1.24,.98,1.66l-1.02,.39c-.21-.45-.61-1.2-.97-1.73l.91-.32h-4.39v-1.05h9.06v1.05Zm-5.48-5.38c.06-.26,.1-.56,.14-.86h-3.57v-1.05h3.68c.04-.39,.07-.78,.09-1.1l1.39,.04-.16,1.06h3.83v1.05h-4c-.04,.32-.1,.6-.14,.86h3.65v3.56h-7.78v-3.56h2.86Zm-.6,.96h-1.22v1.63h1.22v-1.63Zm2.46,7.67c.43,0,.5-.15,.55-1.24,.24,.17,.71,.33,1.04,.4-.13,1.48-.46,1.84-1.46,1.84h-1.95c-1.29,0-1.61-.32-1.61-1.35v-1.92h1.15v1.91c0,.32,.1,.36,.6,.36h1.68Zm-.26-7.67h-1.27v1.63h1.27v-1.63Zm.94,1.63h1.29v-1.63h-1.29v1.63Zm1.54,3.47c.58,.82,1.22,1.91,1.48,2.64l-1.05,.46c-.23-.73-.81-1.84-1.41-2.68l.98-.42Z"/>
      <path class="d" d="M42.85,9.02v1.69h4.76v1.17h-4.76v3.11h5.45v1.19h-12.2v-1.19h5.35v-3.11h-4.69v-1.17h4.69v-1.69h-2.97v-.73c-.67,.35-1.35,.64-2.06,.89-.18-.38-.55-.88-.88-1.2,2.65-.79,5.22-2.33,6.57-4.38l1.24,.54c-.13,.18-.24,.36-.37,.53,1.39,1.37,3.78,2.69,5.92,3.32-.3,.27-.71,.78-.91,1.13-.7-.25-1.41-.57-2.12-.96v.85h-3Zm-3.94,3c.54,.74,1.11,1.76,1.34,2.41l-1.15,.49c-.2-.66-.75-1.7-1.27-2.48l1.08-.42Zm6.3-4.2c-1.11-.66-2.16-1.42-3.01-2.26-.82,.88-1.79,1.63-2.86,2.26h5.87Zm-1.28,6.69c.48-.67,1.08-1.73,1.38-2.5l1.28,.46c-.54,.88-1.17,1.83-1.65,2.45l-1.01-.42Z"/>
    </g>
  </g>
</svg>