<svg height="28.68" viewBox="0 0 120.89 28.68" width="120.89" xmlns="http://www.w3.org/2000/svg"><path d="m.38.38h120.12v27.91h-120.12z" fill="#efb970" stroke="#fff" stroke-miterlimit="10" stroke-width=".77"/><g fill="#fff"><path d="m12.78 14.65a19.13 19.13 0 0 0 -3.71-2.13l1-1.39a17.75 17.75 0 0 1 3.75 2zm-3 7.7a56.24 56.24 0 0 0 3.81-6.27l1.37 1.22c-1.05 2.06-2.38 4.43-3.57 6.29zm1.45-16.46a20.86 20.86 0 0 1 3.79 2l-1.09 1.54a17.17 17.17 0 0 0 -3.75-2.19zm14.31 17.92a9.5 9.5 0 0 0 -.83-1.81c-7.11.85-8 1-8.62 1.29a18.88 18.88 0 0 0 -.65-1.84c.42-.1.81-.56 1.29-1.29a27.72 27.72 0 0 0 2.48-4.57h-4.15v-1.79h5v-3.2h-4.16v-1.74h4.1v-3.18h2v3.18h4.29v1.74h-4.29v3.2h5v1.74h-5.55a36.91 36.91 0 0 1 -3.21 5.46l5.61-.59c-.49-.79-1.05-1.58-1.58-2.32l1.52-.71a23.67 23.67 0 0 1 3.44 5.62z"/><path d="m40.62 6.15c-.1.12-.18.26-.3.38a19.48 19.48 0 0 0 8.42 3.85 7.36 7.36 0 0 0 -1.18 1.41c-.49-.14-1-.3-1.52-.48v5.12h-13.62v-5c-.51.18-1 .34-1.49.47a7.34 7.34 0 0 0 -1-1.4c3.65-.91 7.21-2.63 9-4.94zm5.38 5.14a19.86 19.86 0 0 1 -3.22-1.4v.57h-7v-.46a20.73 20.73 0 0 1 -2.92 1.3zm-12.43 5.93h11.49v6.51h-1.92v-.53h-7.72v.61h-1.85zm2.74-4.6a8.46 8.46 0 0 1 1 2.17l-1.31.44h2.37v-2.73h-4.37v2.73h2a8.82 8.82 0 0 0 -1-2.23zm-.89 5.87v1.09h7.72v-1.09zm7.72 3.51v-1.16h-7.72v1.16zm-1.59-12.8a13.7 13.7 0 0 1 -2.22-1.67 15 15 0 0 1 -2.2 1.67zm2.84 3.3h-4.47v2.73h2.25l-1.25-.38a13.83 13.83 0 0 0 1-2.31l1.58.46c-.44.85-.88 1.68-1.25 2.26h2.14z"/><path d="m59.07 18.19c-2.7.77-5.58 1.57-7.72 2.16l-.46-1.92c.84-.16 1.91-.41 3.06-.71v-8.07h-2.8v-1.74h7.4v1.74h-2.75v7.59l3-.79zm9.93-7.29c-.3 8-.53 10.89-1.29 11.8a2.12 2.12 0 0 1 -1.64.87 19.35 19.35 0 0 1 -2.9 0 4.22 4.22 0 0 0 -.6-1.8c1.15.08 2.21.1 2.68.1a.9.9 0 0 0 .8-.32c.55-.59.83-3.18 1.07-9.78h-3.45c-.33 5.24-1.5 9.55-6 12.08a5.08 5.08 0 0 0 -1.33-1.48c4.11-2.18 5.16-5.94 5.44-10.6h-3v-1.77h3.1c0-1.31 0-2.63 0-4h1.9c0 1.39 0 2.73-.06 4h5.28z"/><path d="m77.9 10.56a29.23 29.23 0 0 1 -1.61 2.71v10.58h-1.75v-8.17a17.67 17.67 0 0 1 -1.78 2 12.69 12.69 0 0 0 -1.07-1.68 21.91 21.91 0 0 0 4.52-6zm-.34-4.17a32.91 32.91 0 0 1 -4.84 5.16 10.71 10.71 0 0 0 -.88-1.5 21.77 21.77 0 0 0 4-4.35zm-.83 15.94a12.18 12.18 0 0 0 1.7-3.66l1.41.55a12.85 12.85 0 0 1 -1.7 3.9zm13.69-4.79h-6.42a27.3 27.3 0 0 1 1.39 2.35l-1.45.56a21.69 21.69 0 0 0 -1.42-2.45l1.29-.46h-6.23v-1.48h12.84zm-7.76-7.63c.08-.38.14-.79.2-1.23h-5.06v-1.48h5.2c.06-.56.1-1.11.12-1.56l2 .06-.22 1.5h5.42v1.48h-5.67c-.06.46-.14.85-.2 1.23h5.18v5h-11v-5zm-.85 1.36h-1.73v2.32h1.73zm3.49 10.88c.6 0 .71-.22.79-1.76a4.7 4.7 0 0 0 1.47.57c-.18 2.1-.65 2.61-2.08 2.61h-2.76c-1.83 0-2.28-.45-2.28-1.92v-2.72h1.63v2.7c0 .46.15.52.85.52zm-.36-10.88h-1.8v2.32h1.8zm1.33 2.32h1.83v-2.32h-1.83zm2.17 4.92a18 18 0 0 1 2.1 3.74l-1.49.65a15.58 15.58 0 0 0 -2-3.8z"/><path d="m103.08 13.17v2.39h6.76v1.66h-6.76v4.41h7.72v1.68h-17.29v-1.68h7.58v-4.41h-6.65v-1.66h6.65v-2.39h-4.21v-1a22.35 22.35 0 0 1 -2.88 1.24 6.71 6.71 0 0 0 -1.25-1.7c3.75-1.13 7.4-3.31 9.32-6.21l1.75.77c-.18.26-.34.51-.52.75a21.79 21.79 0 0 0 8.38 4.71 7.42 7.42 0 0 0 -1.29 1.6 20.42 20.42 0 0 1 -3-1.37v1.21zm-5.58 4.25a15.64 15.64 0 0 1 1.9 3.42l-1.64.7a16.48 16.48 0 0 0 -1.76-3.54zm8.93-6a22.89 22.89 0 0 1 -4.27-3.2 18.39 18.39 0 0 1 -4 3.2zm-1.81 9.58a18.49 18.49 0 0 0 1.95-3.54l1.82.65c-.77 1.25-1.66 2.6-2.34 3.49z"/></g></svg>