<svg height="28.68" viewBox="0 0 120.89 28.68" width="120.89" xmlns="http://www.w3.org/2000/svg"><path d="m.38.38h120.12v27.91h-120.12z" fill="#efb970" stroke="#fff" stroke-miterlimit="10" stroke-width=".77"/><g fill="#fff"><path d="m16.23 15.76c-.83.24-1.68.46-2.52.69v5.3c0 1-.21 1.45-.79 1.72a7 7 0 0 1 -2.86.32 6.87 6.87 0 0 0 -.55-1.66h2s.38-.1.38-.38v-4.75l-2.4.65-.49-1.79c.83-.18 1.81-.44 2.9-.71v-3.9h-2.67v-1.7h2.64v-3.85h1.84v3.85h2.48v1.7h-2.48v3.42c.74-.19 1.53-.41 2.27-.63zm10.58 6.07c0 .93-.2 1.43-.83 1.7a8.44 8.44 0 0 1 -3 .3 6.37 6.37 0 0 0 -.55-1.7h2.14s.38-.08.38-.34v-1.91l-5.82 1.48-.65-1.72a9 9 0 0 1 -1.83 4.36 6.66 6.66 0 0 0 -1.55-1.07c1.59-1.92 1.77-4.61 1.77-6.58v-3.5h9.94zm-.59-10.26h-8.89v-5.24h8.89zm-7.51 4.78a18.45 18.45 0 0 1 -.27 3.27c1.68-.28 4.07-.79 6.47-1.31v-3.89h-6.2zm1-1a20.49 20.49 0 0 1 4.68 1.36l-.75 1.4a22 22 0 0 0 -4.64-1.48zm4.7-7.54h-5.3v2.28h5.3z"/><path d="m32.5 9.73v4.85c0 2.61-.22 6.34-1.41 8.81a4.91 4.91 0 0 0 -1.31-.94c1.07-2.28 1.15-5.5 1.15-7.9v-6.09h3.56v-2.8h1.74v.91h3.77v1.12h-3.77v.77h3.24l.27-.05 1.08.27c-.26.85-.58 1.84-.86 2.49l-1.33-.31c.08-.32.22-.71.34-1.13h-3.21v.79l2.46-.26.14.89-2.6.28c0 .44.06.55.45.55h2.23a9.08 9.08 0 0 0 1.3-.08c0 .32.06.68.09 1a4.94 4.94 0 0 1 -1.33.1h-2.5c-1.21 0-1.5-.43-1.52-1.46l-1.61.18-.14-.89 1.75-.18v-.92zm12.5 2.95c.48 4.11 1.49 7.79 3.52 9.69a7.28 7.28 0 0 0 -1.31 1.5 13.62 13.62 0 0 1 -3-6.55 14.51 14.51 0 0 1 -3.21 6.53 5.13 5.13 0 0 0 -.94-.91.84.84 0 0 1 -.41.4 4 4 0 0 1 -1.75.21 4 4 0 0 0 -.38-1.14h1.07c.14 0 .18-.06.18-.2v-3.09h-1.17l.76.32c-.26.36-.54.71-.82 1h1v.85h-1.65v2.05h-1.17v-2h-1.59v-.85h.87a7 7 0 0 0 -.67-1l.77-.34h-1.17v4.45h-1.35v-5.51h7.6v3.91c2.28-2.73 2.74-6.37 2.84-9.29h-2.62v-1.71h2.6v-5.28h1.79v5.28h3.51v1.66zm-4.86 1.78h-7.5v-1h7.52zm-6.63 3.06v-2.47h5.7v2.47zm1.25-.87h3.14v-.75h-3.12zm1.63 3.84a16.45 16.45 0 0 0 1-1.37h-2.15a5.09 5.09 0 0 1 .87 1.37zm10.5-10.42a12.5 12.5 0 0 0 -1.69-3.19l1.39-.55a12.54 12.54 0 0 1 1.79 3.1z"/><path d="m59.07 18.19c-2.7.77-5.58 1.57-7.72 2.16l-.46-1.92c.84-.16 1.91-.41 3.06-.71v-8.07h-2.8v-1.74h7.4v1.74h-2.75v7.59l3-.79zm9.93-7.29c-.31 8-.53 10.89-1.29 11.8a2.12 2.12 0 0 1 -1.64.87 19.35 19.35 0 0 1 -2.9 0 4.22 4.22 0 0 0 -.6-1.8c1.15.08 2.21.1 2.68.1a.92.92 0 0 0 .8-.31c.55-.6.83-3.19 1.07-9.79h-3.45c-.33 5.24-1.5 9.55-6 12.08a5.21 5.21 0 0 0 -1.33-1.48c4.11-2.18 5.16-5.94 5.44-10.6h-3v-1.77h3.1c0-1.31 0-2.63 0-4h1.9c0 1.39 0 2.73-.06 4h5.28z"/><path d="m77.9 10.56a29.23 29.23 0 0 1 -1.61 2.71v10.58h-1.75v-8.17a17.67 17.67 0 0 1 -1.78 2 12.69 12.69 0 0 0 -1.07-1.68 21.91 21.91 0 0 0 4.52-6zm-.34-4.17a33.39 33.39 0 0 1 -4.84 5.16 9.87 9.87 0 0 0 -.89-1.5 21.53 21.53 0 0 0 4-4.35zm-.83 15.94a12.18 12.18 0 0 0 1.7-3.66l1.41.55a12.85 12.85 0 0 1 -1.7 3.9zm13.69-4.79h-6.42a27.3 27.3 0 0 1 1.39 2.35l-1.45.56a22.6 22.6 0 0 0 -1.42-2.45l1.29-.46h-6.23v-1.48h12.84zm-7.76-7.63c.08-.38.14-.79.2-1.23h-5.06v-1.48h5.2c.06-.56.1-1.11.12-1.56l2 .06-.22 1.5h5.42v1.48h-5.66c-.07.46-.15.85-.21 1.23h5.18v5h-11v-5zm-.85 1.36h-1.73v2.32h1.73zm3.49 10.88c.61 0 .7-.22.79-1.76a4.7 4.7 0 0 0 1.47.57c-.18 2.1-.65 2.61-2.08 2.61h-2.76c-1.83 0-2.28-.45-2.28-1.92v-2.72h1.63v2.7c0 .46.15.52.85.52zm-.36-10.88h-1.8v2.32h1.8zm1.33 2.32h1.83v-2.32h-1.83zm2.17 4.92a18 18 0 0 1 2.1 3.74l-1.49.65a15.58 15.58 0 0 0 -2-3.8z"/><path d="m103.08 13.17v2.39h6.76v1.66h-6.76v4.41h7.72v1.69h-17.29v-1.69h7.58v-4.41h-6.65v-1.66h6.65v-2.39h-4.21v-1a22.35 22.35 0 0 1 -2.88 1.24 6.71 6.71 0 0 0 -1.25-1.7c3.75-1.13 7.4-3.3 9.32-6.21l1.75.77c-.18.26-.34.51-.53.75a21.91 21.91 0 0 0 8.39 4.71 7.67 7.67 0 0 0 -1.29 1.6 20.42 20.42 0 0 1 -3-1.37v1.21zm-5.58 4.25a15.64 15.64 0 0 1 1.9 3.42l-1.64.7a16.48 16.48 0 0 0 -1.76-3.54zm8.93-6a22.89 22.89 0 0 1 -4.27-3.2 18.21 18.21 0 0 1 -4.06 3.2zm-1.81 9.58a18.49 18.49 0 0 0 1.95-3.54l1.82.66c-.77 1.24-1.66 2.59-2.34 3.48z"/></g></svg>