<svg height="18.72" viewBox="0 0 66.88 18.72" width="66.88" xmlns="http://www.w3.org/2000/svg"><path d="m0 0h66.88v18.72h-66.88z" fill="#efb970"/><g fill="#fff"><path d="m10 13.46a17.18 17.18 0 0 1 -3.24 2 8.31 8.31 0 0 0 -1-.8 12.14 12.14 0 0 0 3.13-1.66zm2.64-1v2c0 .6-.12.89-.58 1.06a5.6 5.6 0 0 1 -2 .19 4.24 4.24 0 0 0 -.45-1.1h1.46c.19 0 .24 0 .24-.19v-1.89c-3.51.16-4.07.2-4.5.35a10.85 10.85 0 0 0 -.3-1.07 6.68 6.68 0 0 0 1.79-.47 21.35 21.35 0 0 0 2.05-.81 13.23 13.23 0 0 0 -2.86.3c-.06-.21-.22-.75-.33-1a3.07 3.07 0 0 0 .92-.32 11.72 11.72 0 0 0 1.57-.85h-2.54v-4.66h9.89v4.62h-5.44a17.53 17.53 0 0 1 -1.76 1l2.71-.13c.52-.26 1-.57 1.54-.86l.93.71a32.86 32.86 0 0 1 -4.72 2.21l4.79-.19c-.31-.28-.65-.56-1-.78l.95-.58a12.84 12.84 0 0 1 2.58 2.37l-.93.71c-.17-.24-.4-.49-.66-.79zm-4.35-6.61h3.05v-.85h-3.05zm0 1.81h3.05v-.91h-3.05zm7.43-2.66h-3.16v.9h3.16zm0 1.8h-3.16v.91h3.16zm-1.24 6.2a20.7 20.7 0 0 1 3.27 1.84l-1 .71a20 20 0 0 0 -3.21-1.91z"/><path d="m25.77 6.75h-5.58v-1h2.5a11.82 11.82 0 0 0 -1-1.79l1-.49a12.68 12.68 0 0 1 1 1.73l-1 .55h3.05zm-5 1.75v-1h4.43v1zm4.39 1.74h-4.39v-1h4.39zm.06 4.76h-3.29v.59h-1.08v-4.52h4.37zm-3.29-2.89v1.89h2.19v-1.93zm10.26-2.87h-2.65v6.49h-1.29v-6.49h-2.5v-1.24h2.5v-4.19h1.29v4.19h2.65z"/><path d="m40.76 8.58v1.6h4.53v1.12h-4.53v2.95h5.17v1.13h-11.6v-1.13h5.09v-2.95h-4.42v-1.12h4.46v-1.6h-2.87v-.69a14.87 14.87 0 0 1 -2 .85 4.53 4.53 0 0 0 -.84-1.14 11.51 11.51 0 0 0 6.25-4.17l1.22.57c-.13.17-.23.35-.36.51a14.73 14.73 0 0 0 5.63 3.15 5 5 0 0 0 -.87 1.07 13.17 13.17 0 0 1 -2-.91v.81zm-3.76 2.85a9.84 9.84 0 0 1 1.27 2.29l-1.09.47a10.81 10.81 0 0 0 -1.18-2.36zm6-4a15.25 15.25 0 0 1 -2.87-2.15 12.11 12.11 0 0 1 -2.71 2.15zm-1.22 6.37a12.48 12.48 0 0 0 1.32-2.37l1.21.44c-.51.83-1.11 1.73-1.57 2.33z"/><path d="m53.39 11.73v3.94h-1.11v-.37h-2.12v.39h-1.07v-3.81l-.6.24a4.1 4.1 0 0 0 -.62-1 8.57 8.57 0 0 0 2.49-1.25l-.89-.51.71-.75 1 .56a5.24 5.24 0 0 0 .92-1.17h-1.81a6.15 6.15 0 0 1 -1.51 1.55 2.83 2.83 0 0 0 -.64-.81 5.06 5.06 0 0 0 2-2.57l1 .19a7 7 0 0 1 -.3.7h1.85.18l.63.45a7.7 7.7 0 0 1 -1.39 2.24c.77.45 1.51.9 2 1.24zm-4.22-4.61h-.93v-2.28h2.4c-.1-.32-.24-.64-.35-.91l1-.35c.19.37.39.88.55 1.26h2.16v2.28h-1v-1.29h-3.83zm4 4.55c-.47-.35-1.14-.78-1.84-1.22a8.59 8.59 0 0 1 -1.81 1.22zm-.88 2.66v-1.69h-2.13v1.69zm4.71-.25a16.23 16.23 0 0 1 -2.81 1.71c-.12-.25-.38-.66-.54-.91a12 12 0 0 0 2.56-1.57zm-.5-7.75c.08-.35.15-.76.21-1.13h-2.31v-1h5.9v1h-2.42c-.12.38-.23.78-.34 1.13h2.38v6.86h-5.17v-6.86zm2.23 1h-2.84v1h2.84zm0 1.94h-2.84v1h2.84zm0 1.95h-2.84v1.05h2.84zm-.53 2.08a15.58 15.58 0 0 1 2.25 1.63l-.71.85a15.9 15.9 0 0 0 -2.21-1.78z"/></g></svg>