<svg height="41.82" viewBox="0 0 134.25 41.82" width="134.25" xmlns="http://www.w3.org/2000/svg"><path d="m116.08 41.82 18.17-16.39a6.4 6.4 0 0 1 0-9l-18.17-16.43h-97.91l-18.17 16.39a6.4 6.4 0 0 1 0 9l18.17 16.43z" fill="#ec6531"/><g fill="#fff"><path d="m52.63 20.79a19 19 0 0 1 -1.47 4.21c.24.16.52.38.91.63a8 8 0 0 0 4.2.75 54 54 0 0 0 6.08-.38 5.76 5.76 0 0 0 -.43 1.5c-1.17.08-3.92.17-5.71.17a8.21 8.21 0 0 1 -4.38-.83c-.61-.36-1.16-.9-1.48-.9s-.86 1-1.26 2l-1-1.36a5.67 5.67 0 0 1 1.8-1.77 14.88 14.88 0 0 0 1.11-2.97h-2.06c.38-.91.84-2.16 1.23-3.35h-1.81v-1.31h3.54c-.35 1.08-.8 2.33-1.2 3.39h1.08l.22-.06zm-2.52-4.19c-.18-.67-.56-1.74-.8-2.55l1.29-.36c.27.8.64 1.8.83 2.45zm4.73 2.08a17.08 17.08 0 0 1 -1.34 6.85 5.37 5.37 0 0 0 -1.23-.72c1.11-2.13 1.22-5.1 1.22-7.13v-3.43h7.67v1.32h-6.31v1.81h5.26l.26-.05.88.32a12 12 0 0 1 -1.91 4.44 25.12 25.12 0 0 1 2.38 2.42l-1 1a25.38 25.38 0 0 0 -2.2-2.37 10.46 10.46 0 0 1 -3.4 2.39 5.76 5.76 0 0 0 -.81-1.24 8.42 8.42 0 0 0 3.19-2.12c-.77-.71-1.56-1.4-2.28-2l.93-.84c.68.54 1.43 1.17 2.17 1.81a10.13 10.13 0 0 0 1.28-2.47z"/><path d="m81.08 14.06v13.77h-1.52v-.83h-9.71v.85h-1.46v-13.79zm-1.52 11.56v-10.07h-9.71v10.07zm-1.89-7.93v5.74h-6v-5.74zm-1.41 1.31h-3.26v3.19h3.24z"/></g></svg>