<svg height="46.57" viewBox="0 0 46.57 46.57" width="46.57" xmlns="http://www.w3.org/2000/svg"><circle cx="23.28" cy="23.28" fill="#ec6531" r="23.28"/><g fill="#fff"><path d="m21.81 28.1-.12.16c-.73.73-1.47 1.46-2.19 2.19a3.23 3.23 0 0 1 -1.4.86 2.28 2.28 0 0 1 -3-1.82 2.68 2.68 0 0 1 .68-2.19l.23-.25 4.15-4.15a2.66 2.66 0 0 1 3.84-.2 1.32 1.32 0 0 0 1.86-.12 1.35 1.35 0 0 0 -.05-1.9 4.81 4.81 0 0 0 -3.62-1.43 5.57 5.57 0 0 0 -3.91 1.75l-4.15 4.16a5.67 5.67 0 0 0 -1.6 2.82 4.31 4.31 0 0 0 .2 3 5 5 0 0 0 5.45 3.15 5.7 5.7 0 0 0 3.22-1.68l3.7-3.69.08-.1a4.51 4.51 0 0 1 -3.37-.56z"/><path d="m33.78 15.61a5.19 5.19 0 0 0 -8.48-1.61c-1.39 1.22-2.62 2.6-3.92 3.9v.05a4.6 4.6 0 0 1 3.34.53l.14-.16c.73-.72 1.44-1.46 2.18-2.17a4.11 4.11 0 0 1 .93-.68 2.29 2.29 0 0 1 3.42 1.65 2.61 2.61 0 0 1 -.81 2.3c-1.44 1.47-2.9 2.92-4.36 4.37a2.61 2.61 0 0 1 -3.66.12 1.32 1.32 0 0 0 -1.88.08 1.36 1.36 0 0 0 0 1.92 5.43 5.43 0 0 0 .84.66 5.27 5.27 0 0 0 6.32-.61 53.79 53.79 0 0 0 4.73-4.7c2.33-2.83 1.63-4.66 1.21-5.65z"/></g></svg>