<svg height="45.95" viewBox="0 0 45.95 45.95" width="45.95" xmlns="http://www.w3.org/2000/svg"><circle cx="22.98" cy="22.98" fill="#ec6531" r="22.98" transform="matrix(.70710678 -.70710678 .70710678 .70710678 -9.52 22.98)"/><g fill="#fff"><path d="m18.68 17.73h-1.55a.43.43 0 0 0 -.43.43v9.63a.43.43 0 0 0 .43.43h1.55a.43.43 0 0 0 .43-.43v-9.63a.43.43 0 0 0 -.43-.43"/><path d="m29.34 17.73h-1.55a.44.44 0 0 0 -.43.43v5.72l-4.36-5.95v-.05a0 0 0 0 0 0 0h-1.95a.43.43 0 0 0 -.43.43v9.63a.43.43 0 0 0 .43.43h1.55a.44.44 0 0 0 .43-.43v-5.87l4.41 6a.38.38 0 0 0 .11.11h.1.11 1.55a.43.43 0 0 0 .43-.43v-9.59a.43.43 0 0 0 -.43-.43"/><path d="m15 25.81h-4.26v-7.65a.44.44 0 0 0 -.43-.43h-1.55a.43.43 0 0 0 -.43.43v9.63a.38.38 0 0 0 .12.29.45.45 0 0 0 .3.12h6.25a.44.44 0 0 0 .43-.43v-1.53a.43.43 0 0 0 -.43-.43"/><path d="m37.9 20.14a.43.43 0 0 0 .43-.43v-1.55a.43.43 0 0 0 -.43-.43h-6.19a.42.42 0 0 0 -.3.13.38.38 0 0 0 -.12.29v9.63a.43.43 0 0 0 .12.29.45.45 0 0 0 .3.12h6.19a.43.43 0 0 0 .43-.43v-1.52a.43.43 0 0 0 -.43-.43h-4.21v-1.63h4.21a.43.43 0 0 0 .43-.43v-1.55a.43.43 0 0 0 -.43-.43h-4.21v-1.63z"/></g></svg>