<svg height="21.31" viewBox="0 0 72.07 21.31" width="72.07" xmlns="http://www.w3.org/2000/svg"><g fill="#ca954a"><path d="m9.71 14.8a1.5 1.5 0 0 0 -1-1 7.65 7.65 0 0 0 -2.31-.1 15.43 15.43 0 0 1 -2.6 0 3.93 3.93 0 0 1 -3.55-2.4 3.45 3.45 0 0 1 -.14-2.15 4.19 4.19 0 0 1 1.22-2 7.07 7.07 0 0 1 2.36-1.46 6.42 6.42 0 0 1 2.73-.48 4.28 4.28 0 0 1 2.29.79 4.14 4.14 0 0 1 1.45 1.88l-2.73 1.06a2 2 0 0 0 -1.13-1.19 2.58 2.58 0 0 0 -1.81.13 2.71 2.71 0 0 0 -1.39 1 1.4 1.4 0 0 0 -.1 1.36 1.35 1.35 0 0 0 1.07.83 8.11 8.11 0 0 0 2.23.07 8.83 8.83 0 0 1 4.08.41 3.68 3.68 0 0 1 2.07 2.16 3.43 3.43 0 0 1 -.24 3.21 6.18 6.18 0 0 1 -3.12 2.35 7.33 7.33 0 0 1 -3 .53 4.76 4.76 0 0 1 -2.53-.8 4.24 4.24 0 0 1 -1.56-2l2.76-1c.57 1.46 1.73 1.84 3.47 1.16a2.7 2.7 0 0 0 1.37-1 1.37 1.37 0 0 0 .11-1.36z"/><path d="m27.63 14.38-2.88.53-1.1-6-5.65 1.09 1.1 6-2.88.53-2.57-14 2.91-.53 1 5.67 5.62-1-1-5.66 2.88-.61z"/><path d="m39 11.35-5.14-.08-1 2.91h-3.12l5.51-14.18 2.75.05 5 14.3h-3.11zm-4.3-2.44 3.54.09-1.7-5.35z"/><path d="m51.15 10.69-2.28-.48-1.07 5.1-2.86-.6 2.9-13.92 5.16 1.08a6 6 0 0 1 3.57 1.89 3.89 3.89 0 0 1 .7 3.38 4.36 4.36 0 0 1 -1.12 2.25 4.33 4.33 0 0 1 -2.15 1.13l1.83 6.31v.14l-3.08-.65zm-1.8-2.8 2.31.48a2.45 2.45 0 0 0 1.79-.2 2 2 0 0 0 .91-1.4 2.1 2.1 0 0 0 -.24-1.66 2.38 2.38 0 0 0 -1.6-.92l-2.3-.48z"/><path d="m68.19 15.23-5.19-2.09-1.41 3.53 6.13 2.46-.88 2.18-8.84-3.54 5.29-13.2 8.83 3.54-.88 2.2-6.16-2.45-1.26 3.14 5.18 2.1z"/></g></svg>