<svg height="118.58" viewBox="0 0 655.9 118.58" width="655.9" xmlns="http://www.w3.org/2000/svg">
	<g fill="#da4e36" opacity=".2">
		<path d="m124.88 57.9-11.58 6.59v-61.88h31.13v79.69h-31.13l-93.75-54.3 11.58-6.72v61h-31.13v-79.67h31.13z" />
		<path d="m193 48.68v10h94.63v23.62h-125.77v-79.69h125.5v23.66h-94.36v10h77.2v12.41z" />
		<path d="m342.14 82.3-44.57-79.69h35.11l37.6 74.09-11.83.3 35.24-74.39h37.6l35.24 74.39-11.83-.3 37.6-74.09h34.61l-44.07 79.69h-42.09l-34.36-67.11h12.2l-34.36 67.11z" />
		<path d="m533.76 53h34c.58 1.74 2.28 3.22 5.1 4.42a44.46 44.46 0 0 0 11.4 2.74 130.53 130.53 0 0 0 16.62.93q9.33 0 14.75-.56t7.66-2a4.44 4.44 0 0 0 2.24-3.92q0-2.37-3.61-3.67t-12.83-1.81q-9.21-.49-25.89-.5a168 168 0 0 1 -21.48-1.18 54.63 54.63 0 0 1 -14.82-3.74 19.84 19.84 0 0 1 -8.53-6.47 16.06 16.06 0 0 1 -2.73-9.4 20.73 20.73 0 0 1 6.36-15.58q6.4-6.15 19.42-9.21t32.58-3.05q28.63 0 43.76 8.28t15.13 23.84h-32.23q-.66-4.12-7.72-6.29t-20.17-2.17q-12.94 0-19.23 1.49t-6.29 5.1a3.4 3.4 0 0 0 1.74 3 16.87 16.87 0 0 0 6 1.81 101 101 0 0 0 12.14.93q7.85.26 19.92.25a167 167 0 0 1 22.66 1.31 56.39 56.39 0 0 1 15.13 3.92 18.87 18.87 0 0 1 8.4 6.66 17.14 17.14 0 0 1 2.62 9.53q0 9.47-6 15.43t-18.86 8.84q-13 2.85-33.87 2.86a159.47 159.47 0 0 1 -21.72-1.37 92.71 92.71 0 0 1 -17.62-4 49.09 49.09 0 0 1 -13.08-6.6 28.55 28.55 0 0 1 -8.15-8.84 21.57 21.57 0 0 1 -2.8-10.98z" />
	</g>
	<circle cx="274.34" cy="68.98" fill="#fff" r="44.32" stroke="#da4e36" stroke-miterlimit="10" stroke-width="3.39447" transform="matrix(.2254612 -.97425215 .97425215 .2254612 145.29 320.7)" />
	<path d="m285.48 27.41a5.7 5.7 0 0 1 -3.36-2.59c-1.52-2.6-3.75-5-7.78-5-2.81 0-6.06 1-7.77 3.19a.52.52 0 0 0 0 .66 1.55 1.55 0 0 1 .29 1.39c-.22.84-1.13 1.3-1.95 1.73a8 8 0 0 1 -1.71.66 5.71 5.71 0 0 1 -4.2-.56c-2.61-1.49-5.75-2.46-9.25-.48-2.45 1.39-4.76 3.9-5.15 6.66a.56.56 0 0 0 .34.57 1.58 1.58 0 0 1 .95 1.06 3.38 3.38 0 0 1 -.83 2.46 7.7 7.7 0 0 1 -1.15 1.42 5.63 5.63 0 0 1 -3.91 1.59c-3 0-6.22.74-8.26 4.21-1.43 2.42-2.17 5.76-1.13 8.33a.58.58 0 0 0 .58.34 1.51 1.51 0 0 1 1.35.43 3.36 3.36 0 0 1 .51 2.55 8.09 8.09 0 0 1 -.27 1.81 5.69 5.69 0 0 1 -2.58 3.36c-2.61 1.52-5 3.76-5 7.78 0 2.81 1 6.07 3.19 7.78a.55.55 0 0 0 .66 0 1.56 1.56 0 0 1 1.39-.3c.84.22 1.3 1.13 1.73 2a8.41 8.41 0 0 1 .66 1.71 5.66 5.66 0 0 1 -.56 4.2c-1.49 2.61-2.46 5.75-.48 9.26 1.39 2.45 3.9 4.75 6.66 5.14a.55.55 0 0 0 .57-.34 1.58 1.58 0 0 1 1.06-.95 3.35 3.35 0 0 1 2.45.83 7.52 7.52 0 0 1 1.43 1.15 5.63 5.63 0 0 1 1.63 3.91c0 3 .74 6.22 4.22 8.26 2.41 1.43 5.75 2.17 8.32 1.13a.58.58 0 0 0 .34-.58 1.5 1.5 0 0 1 .43-1.35 3.36 3.36 0 0 1 2.55-.51 8.09 8.09 0 0 1 1.81.27 5.69 5.69 0 0 1 3.36 2.58c1.52 2.61 3.76 5 7.78 5 2.81 0 6.07-1 7.78-3.18a.57.57 0 0 0 0-.67 1.56 1.56 0 0 1 -.3-1.39c.23-.84 1.13-1.29 1.95-1.72a7.89 7.89 0 0 1 1.71-.67 5.65 5.65 0 0 1 4.2.56c2.61 1.49 5.75 2.46 9.26.48 2.45-1.38 4.75-3.9 5.14-6.65a.57.57 0 0 0 -.34-.58 1.56 1.56 0 0 1 -.95-1 3.39 3.39 0 0 1 .83-2.47 7.78 7.78 0 0 1 1.15-1.42 5.64 5.64 0 0 1 3.92-1.62c3 0 6.21-.75 8.26-4.22 1.42-2.42 2.16-5.76 1.12-8.33a.56.56 0 0 0 -.58-.33 1.53 1.53 0 0 1 -1.35-.44 3.34 3.34 0 0 1 -.51-2.54 8.09 8.09 0 0 1 .27-1.82 5.67 5.67 0 0 1 2.59-3.36c2.6-1.51 5-3.75 5-7.78 0-2.81-1-6.06-3.18-7.77a.54.54 0 0 0 -.67 0 1.58 1.58 0 0 1 -1.39.29c-.84-.22-1.29-1.13-1.72-2a8.22 8.22 0 0 1 -.67-1.71 5.71 5.71 0 0 1 .56-4.2c1.49-2.61 2.46-5.75.48-9.25-1.39-2.45-3.9-4.76-6.66-5.15a.56.56 0 0 0 -.57.34 1.56 1.56 0 0 1 -1.05 1 3.36 3.36 0 0 1 -2.46-.83 7.15 7.15 0 0 1 -1.43-1.15 5.58 5.58 0 0 1 -1.62-3.91c0-3-.75-6.22-4.22-8.26-2.42-1.43-5.76-2.17-8.34-1.13a.56.56 0 0 0 -.32.58 1.53 1.53 0 0 1 -.44 1.35 3.34 3.34 0 0 1 -2.54.51 8.09 8.09 0 0 1 -1.82-.27z" fill="none" stroke="#fc462d" stroke-miterlimit="10" stroke-width=".80963" />
	<path d="m255.15 81.2a62.62 62.62 0 0 1 -6.64 13.47 52.47 52.47 0 0 0 -5.12-3.55 47 47 0 0 0 5.78-11.63zm9.2-3.81v21.82h-7.56v-21.82h-12.22v-6.57h12.22v-5.06h-12.61v-6.44h6.37a40.3 40.3 0 0 0 -1.9-6.84l5.35-1.31h-8.87v-6.38h11.27c-.59-1.77-1.31-3.61-2-5.19l7.82-1.91c1 2.17 2.17 4.87 3 7.1h9.39v6.38h-8.21l5.32 1c-1 2.49-2 5.06-2.95 7.1h6.83v6.44h-11.25v5.06h10.19v6.57zm-9.46-26.22a32.77 32.77 0 0 1 2.17 6.83l-4.73 1.32h9.46a77.12 77.12 0 0 0 2.83-8.15zm50 16h-6.11v32.23h-7.62v-32.26h-6.12v.78c0 9.66-.85 23.2-6.44 31.62a29.18 29.18 0 0 0 -6-4.67 25.66 25.66 0 0 0 2.95-6.38l-4.66 2.9a79 79 0 0 0 -5.13-9.86l5.13-2.76a65.72 65.72 0 0 1 4.93 8.61c1.84-6.31 2-13.41 2-19.46v-23.39c7.17-1.32 15.12-3.35 19.92-5.59l6 5.72a101.58 101.58 0 0 1 -18.67 4.93v10.32h19.83z" fill="#da4e36" />
	<circle cx="372.74" cy="68.98" fill="#fff" r="44.32" stroke="#da4e36" stroke-miterlimit="10" stroke-width="3.39447" transform="matrix(.2254612 -.97425215 .97425215 .2254612 221.5 416.57)" />
	<path d="m352.82 62.08v37.46h-7.62v-59.28h25.3v21.82zm0-16.63v3.22h10.32v-3.22zm10.32 11.55v-3.34h-10.32v3.34zm21.56 33.73v7h-7v-7h-22.51v-5.32h5.32v-15.78h-3.81v-5.32h31.88v5.32h-3.88v15.78h4.73v5.32zm-17.35-21.1v2.3h10.32v-2.3zm0 9h10.32v-2.36h-10.32zm10.32 6.77v-2.4h-10.32v2.44zm22.93 6.24c0 3.55-.66 5.26-2.76 6.51s-5.12 1.31-9.13 1.31a23.67 23.67 0 0 0 -2.17-6.77c2.17.07 4.53.07 5.32 0s1.05-.33 1.05-1.12v-29.49h-18.07v-21.82h25.76zm-18.33-46.2v3.22h10.64v-3.21zm10.64 11.56v-3.34h-10.64v3.34z" fill="#da4e36" />
	<path d="m383.88 27.41a5.72 5.72 0 0 1 -3.37-2.59c-1.51-2.6-3.75-5-7.77-5-2.81 0-6.07 1-7.78 3.19a.52.52 0 0 0 0 .66 1.55 1.55 0 0 1 .29 1.39c-.22.84-1.13 1.3-1.94 1.73a8.41 8.41 0 0 1 -1.71.66 5.7 5.7 0 0 1 -4.2-.56c-2.62-1.49-5.76-2.46-9.26-.48-2.45 1.39-4.76 3.9-5.14 6.66a.54.54 0 0 0 .33.57 1.53 1.53 0 0 1 .95 1.06 3.37 3.37 0 0 1 -.82 2.46 8.13 8.13 0 0 1 -1.15 1.42 5.63 5.63 0 0 1 -3.91 1.63c-3 0-6.22.74-8.26 4.21-1.43 2.42-2.17 5.76-1.13 8.33a.56.56 0 0 0 .58.34 1.51 1.51 0 0 1 1.35.43 3.36 3.36 0 0 1 .51 2.55 7.57 7.57 0 0 1 -.28 1.81 5.69 5.69 0 0 1 -2.58 3.36c-2.6 1.52-5 3.76-5 7.78 0 2.81 1 6.07 3.2 7.78a.55.55 0 0 0 .66 0 1.56 1.56 0 0 1 1.39-.3c.84.22 1.3 1.13 1.72 2a7.86 7.86 0 0 1 .66 1.71 5.65 5.65 0 0 1 -.55 4.2c-1.49 2.61-2.46 5.75-.48 9.26 1.38 2.45 3.9 4.75 6.65 5.14a.56.56 0 0 0 .58-.34 1.56 1.56 0 0 1 1.05-.95 3.36 3.36 0 0 1 2.46.83 7.84 7.84 0 0 1 1.43 1.15 5.72 5.72 0 0 1 1.63 3.91c0 3 .73 6.22 4.21 8.26 2.42 1.43 5.75 2.17 8.33 1.13a.57.57 0 0 0 .33-.58 1.55 1.55 0 0 1 .43-1.35 3.39 3.39 0 0 1 2.56-.51 8 8 0 0 1 1.8.27 5.74 5.74 0 0 1 3.37 2.58c1.51 2.61 3.75 5 7.78 5 2.81 0 6.06-1 7.78-3.18a.58.58 0 0 0 0-.67 1.56 1.56 0 0 1 -.31-1.39c.23-.84 1.14-1.29 1.95-1.72a8.1 8.1 0 0 1 1.71-.67 5.64 5.64 0 0 1 4.2.56c2.62 1.49 5.76 2.46 9.26.48 2.45-1.38 4.76-3.9 5.14-6.65a.55.55 0 0 0 -.33-.58 1.54 1.54 0 0 1 -.95-1 3.38 3.38 0 0 1 .82-2.47 8.22 8.22 0 0 1 1.15-1.42 5.64 5.64 0 0 1 3.92-1.62c3 0 6.21-.75 8.26-4.22 1.42-2.42 2.16-5.76 1.13-8.33a.56.56 0 0 0 -.58-.33 1.52 1.52 0 0 1 -1.35-.44 3.3 3.3 0 0 1 -.52-2.54 7.57 7.57 0 0 1 .28-1.82 5.65 5.65 0 0 1 2.58-3.36c2.6-1.51 5-3.75 5.05-7.78 0-2.81-1-6.06-3.19-7.77a.54.54 0 0 0 -.67 0 1.57 1.57 0 0 1 -1.39.29c-.84-.22-1.29-1.13-1.71-2a7.7 7.7 0 0 1 -.67-1.71 5.7 5.7 0 0 1 .55-4.2c1.5-2.61 2.47-5.75.48-9.25-1.38-2.45-3.9-4.76-6.65-5.15a.58.58 0 0 0 -.58.34 1.55 1.55 0 0 1 -1 1 3.37 3.37 0 0 1 -2.47-.83 7.44 7.44 0 0 1 -1.43-1.15 5.66 5.66 0 0 1 -1.62-3.91c0-3-.74-6.22-4.21-8.26-2.43-1.43-5.76-2.17-8.34-1.13a.57.57 0 0 0 -.33.58 1.55 1.55 0 0 1 -.43 1.35 3.35 3.35 0 0 1 -2.55.51 8.09 8.09 0 0 1 -1.81-.27z" fill="none" stroke="#fc462d" stroke-miterlimit="10" stroke-width=".80963" />
</svg>
