<?xml version="1.0" encoding="UTF-8"?>
<svg id="b" xmlns="http://www.w3.org/2000/svg" width="252.54" viewBox="0 0 252.54 76.08">
	<defs>
		<style>
			.d{fill:none;stroke-width:.75px;}.d,.e{stroke:#fc462d;stroke-miterlimit:10;}.f{fill:#fc462d;}.g{opacity:.2;}.e{fill:#fff;stroke-width:2px;}.h{fill:#da4e36;}
		</style>
	</defs>
	<g id="c">
		<g class="g">
			<g>
				<path class="f" d="M48.08,22.29l-4.46,2.54V1.01h11.98V31.69h-11.98L7.53,10.79l4.46-2.59V31.69H0V1.01H11.99L48.08,22.29Z" />
				<path class="f" d="M74.31,18.74v3.84h36.43v9.11H62.32V1.01h48.32V10.12h-36.34v3.84h29.72v4.79h-29.72Z" />
				<path class="f" d="M131.74,31.69L114.57,1.01h13.52l14.48,28.52-4.55,.1L151.58,1.01h14.48l13.57,28.62-4.55-.1L189.55,1.01h13.33l-16.97,30.68h-16.2l-13.23-25.84h4.7l-13.23,25.84h-16.2Z" />
				<path class="f" d="M205.51,20.42h13.09c.22,.67,.88,1.24,1.96,1.7,1.09,.46,2.55,.81,4.39,1.05,1.84,.24,3.97,.36,6.4,.36s4.29-.07,5.68-.22c1.39-.14,2.37-.4,2.95-.77,.58-.37,.86-.87,.86-1.51,0-.61-.46-1.08-1.39-1.41-.93-.34-2.57-.57-4.94-.7-2.37-.13-5.69-.19-9.97-.19-3.2,0-5.95-.15-8.27-.46-2.32-.3-4.22-.78-5.71-1.44-1.49-.65-2.58-1.49-3.28-2.49s-1.05-2.21-1.05-3.62c0-2.43,.82-4.43,2.47-6.02,1.65-1.58,4.14-2.76,7.48-3.55,3.34-.78,7.52-1.17,12.54-1.17,7.35,0,12.97,1.06,16.85,3.19,3.88,2.13,5.82,5.19,5.82,9.18h-12.42c-.16-1.05-1.15-1.86-2.97-2.42-1.82-.56-4.41-.84-7.77-.84s-5.79,.19-7.41,.58c-1.61,.38-2.42,1.04-2.42,1.97,0,.48,.22,.86,.67,1.15,.45,.29,1.22,.52,2.32,.7,1.1,.18,2.66,.3,4.67,.36,2.01,.06,4.57,.1,7.67,.1,3.42,0,6.33,.17,8.72,.5,2.4,.34,4.34,.84,5.83,1.51,1.49,.67,2.56,1.53,3.24,2.56,.67,1.04,1.01,2.26,1.01,3.67,0,2.43-.77,4.41-2.3,5.94s-3.96,2.67-7.29,3.4c-3.32,.73-7.67,1.1-13.04,1.1-3.04,0-5.83-.18-8.37-.53-2.54-.35-4.8-.87-6.78-1.56-1.98-.69-3.66-1.53-5.03-2.54s-2.42-2.14-3.14-3.4c-.72-1.26-1.08-2.66-1.08-4.19Z" />
			</g>
		</g>
		<g>
			<circle class="e" cx="97.74" cy="48.11" r="24.86" />
			<circle class="e" cx="152.94" cy="48.11" r="24.86" />
			<path class="h" d="M86.97,54.89c-.92,2.65-2.43,5.68-3.72,7.56-.66-.55-2.06-1.51-2.88-1.99,1.25-1.73,2.47-4.24,3.24-6.53l3.36,.96Zm5.16-2.14v12.24h-4.24v-12.24h-6.86v-3.69h6.86v-2.84h-7.08v-3.61h3.58c-.18-1.11-.63-2.69-1.07-3.83l3.02-.74h-4.98v-3.58h6.3c-.33-1-.74-2.03-1.11-2.91l4.39-1.07c.55,1.22,1.22,2.73,1.66,3.98h5.27v3.58h-4.61l2.99,.59c-.55,1.4-1.11,2.84-1.66,3.98h3.83v3.61h-6.3v2.84h5.71v3.69h-5.71Zm-5.31-14.71c.55,1.22,1.03,2.8,1.22,3.83l-2.65,.74h5.31c.55-1.33,1.22-3.21,1.59-4.57h-5.46Zm28.05,8.96h-3.43v18.1h-4.28v-18.1h-3.43v.44c0,5.42-.48,13.01-3.61,17.73-.74-.77-2.47-2.18-3.39-2.62,.7-1.07,1.25-2.29,1.66-3.58l-2.62,1.62c-.59-1.47-1.84-3.83-2.88-5.53l2.88-1.55c1,1.47,2.14,3.43,2.76,4.83,1.03-3.54,1.14-7.52,1.14-10.91v-13.12c4.02-.74,8.48-1.88,11.17-3.13l3.35,3.21c-3.02,1.22-6.86,2.1-10.47,2.77v5.79h11.13v4.06Z" />
			<path class="h" d="M141.77,44.16v21.01h-4.28V31.92h14.19v12.24h-9.92Zm0-9.33v1.81h5.79v-1.81h-5.79Zm5.79,6.45v-1.84h-5.79v1.84h5.79Zm12.09,18.95v3.94h-3.94v-3.94h-12.61v-2.99h2.99v-8.85h-2.14v-2.99h17.88v2.99h-2.18v8.85h2.65v2.99h-2.65Zm-9.73-11.83v1.29h5.79v-1.29h-5.79Zm0,5.05h5.79v-1.33h-5.79v1.33Zm5.79,3.8v-1.36h-5.79v1.36h5.79Zm12.87,3.5c0,1.99-.37,2.95-1.55,3.65-1.14,.63-2.88,.74-5.12,.74-.15-1.11-.66-2.76-1.22-3.8,1.22,.04,2.54,.04,2.99,0,.44,0,.59-.18,.59-.63v-16.55h-10.14v-12.24h14.45v28.83Zm-10.29-25.92v1.81h5.97v-1.81h-5.97Zm5.97,6.45v-1.84h-5.97v1.84h5.97Z" />
			<path class="d" d="M103.99,24.79c-.77-.2-1.49-.77-1.89-1.45-.85-1.46-2.1-2.81-4.36-2.83-1.58-.01-3.4,.56-4.36,1.79-.07,.09-.1,.24,0,.37,.19,.27,.24,.51,.16,.78-.12,.47-.64,.73-1.09,.97-.3,.16-.62,.28-.96,.37-.76,.22-1.67,.08-2.36-.31-1.47-.84-3.23-1.38-5.19-.27-1.37,.78-2.67,2.19-2.89,3.73-.01,.11,.04,.26,.19,.32,.3,.14,.46,.33,.53,.59,.12,.47-.19,.94-.46,1.38-.18,.29-.39,.56-.64,.8-.55,.57-1.41,.9-2.19,.91-1.69,0-3.49,.42-4.63,2.36-.8,1.36-1.22,3.23-.64,4.67,.04,.1,.16,.2,.33,.19,.33-.04,.56,.05,.76,.24,.34,.35,.31,.92,.29,1.43-.01,.34-.06,.68-.15,1.01-.2,.77-.77,1.49-1.45,1.89-1.46,.85-2.81,2.11-2.83,4.36,0,1.58,.56,3.41,1.79,4.37,.09,.07,.24,.1,.37,0,.27-.2,.52-.24,.78-.17,.47,.12,.73,.64,.97,1.09,.16,.3,.28,.62,.37,.96,.22,.76,.08,1.67-.31,2.36-.83,1.47-1.38,3.23-.27,5.19,.78,1.37,2.19,2.67,3.73,2.88,.11,.02,.26-.04,.32-.19,.14-.3,.33-.46,.59-.53,.47-.13,.95,.19,1.38,.46,.29,.18,.56,.4,.8,.64,.57,.56,.91,1.41,.91,2.2,0,1.69,.41,3.48,2.36,4.63,1.36,.8,3.23,1.21,4.67,.63,.1-.04,.2-.16,.19-.32-.04-.33,.05-.57,.24-.76,.35-.34,.92-.31,1.43-.29,.34,.01,.68,.06,1.01,.16,.77,.19,1.48,.77,1.89,1.45,.85,1.46,2.11,2.81,4.36,2.83,1.58,.01,3.4-.56,4.36-1.79,.07-.09,.1-.24,0-.38-.2-.27-.24-.51-.17-.78,.13-.47,.64-.72,1.09-.96,.3-.16,.63-.29,.96-.37,.77-.22,1.67-.08,2.36,.31,1.47,.84,3.23,1.38,5.2,.27,1.37-.77,2.67-2.19,2.88-3.73,.01-.11-.04-.25-.19-.32-.3-.14-.46-.33-.53-.59-.12-.47,.19-.95,.46-1.38,.18-.29,.4-.56,.64-.8,.55-.57,1.41-.9,2.2-.91,1.69-.01,3.49-.42,4.63-2.36,.8-1.36,1.21-3.23,.63-4.68-.04-.1-.16-.2-.32-.18-.33,.03-.57-.05-.76-.25-.35-.34-.31-.91-.29-1.43,.01-.34,.06-.68,.15-1.02,.2-.77,.77-1.49,1.45-1.89,1.46-.85,2.81-2.1,2.83-4.36,.02-1.58-.56-3.4-1.79-4.36-.09-.07-.24-.1-.37,0-.27,.19-.51,.23-.78,.17-.47-.12-.72-.64-.96-1.09-.16-.3-.29-.62-.38-.96-.22-.76-.08-1.67,.31-2.36,.84-1.47,1.38-3.23,.27-5.19-.78-1.37-2.19-2.67-3.73-2.89-.11-.02-.25,.04-.32,.19-.14,.3-.32,.46-.59,.53-.47,.12-.95-.19-1.38-.46-.29-.18-.56-.39-.8-.64-.57-.55-.91-1.41-.91-2.2-.01-1.69-.42-3.49-2.36-4.63-1.36-.8-3.23-1.22-4.68-.64-.1,.04-.2,.16-.18,.33,.03,.33-.05,.56-.25,.76-.34,.34-.91,.31-1.43,.29-.34-.01-.68-.06-1.02-.15h0Z" />
			<path class="d" d="M159.19,24.79c-.77-.2-1.49-.77-1.89-1.45-.85-1.46-2.1-2.81-4.36-2.83-1.58-.01-3.4,.56-4.36,1.79-.07,.09-.1,.24,0,.37,.19,.27,.24,.51,.16,.78-.12,.47-.64,.73-1.09,.97-.3,.16-.62,.28-.96,.37-.76,.22-1.67,.08-2.36-.31-1.47-.84-3.23-1.38-5.19-.27-1.37,.78-2.67,2.19-2.89,3.73-.01,.11,.04,.26,.19,.32,.3,.14,.46,.33,.53,.59,.12,.47-.19,.94-.46,1.38-.18,.29-.39,.56-.64,.8-.55,.57-1.41,.9-2.19,.91-1.69,0-3.49,.42-4.63,2.36-.8,1.36-1.22,3.23-.64,4.67,.04,.1,.16,.2,.33,.19,.33-.04,.56,.05,.76,.24,.34,.35,.31,.92,.29,1.43-.01,.34-.06,.68-.15,1.01-.2,.77-.77,1.49-1.45,1.89-1.46,.85-2.81,2.11-2.83,4.36,0,1.58,.56,3.41,1.79,4.37,.09,.07,.24,.1,.37,0,.27-.2,.52-.24,.78-.17,.47,.12,.73,.64,.97,1.09,.16,.3,.28,.62,.37,.96,.22,.76,.08,1.67-.31,2.36-.83,1.47-1.38,3.23-.27,5.19,.78,1.37,2.19,2.67,3.73,2.88,.11,.02,.26-.04,.32-.19,.14-.3,.33-.46,.59-.53,.47-.13,.95,.19,1.38,.46,.29,.18,.56,.4,.8,.64,.57,.56,.91,1.41,.91,2.2,0,1.69,.41,3.48,2.36,4.63,1.36,.8,3.23,1.21,4.67,.63,.1-.04,.2-.16,.19-.32-.04-.33,.05-.57,.24-.76,.35-.34,.92-.31,1.43-.29,.34,.01,.68,.06,1.01,.16,.77,.19,1.48,.77,1.89,1.45,.85,1.46,2.11,2.81,4.36,2.83,1.58,.01,3.4-.56,4.36-1.79,.07-.09,.1-.24,0-.38-.2-.27-.24-.51-.17-.78,.13-.47,.64-.72,1.09-.96,.3-.16,.63-.29,.96-.37,.77-.22,1.67-.08,2.36,.31,1.47,.84,3.23,1.38,5.2,.27,1.37-.77,2.67-2.19,2.88-3.73,.01-.11-.04-.25-.19-.32-.3-.14-.46-.33-.53-.59-.12-.47,.19-.95,.46-1.38,.18-.29,.4-.56,.64-.8,.55-.57,1.41-.9,2.2-.91,1.69-.01,3.49-.42,4.63-2.36,.8-1.36,1.21-3.23,.63-4.68-.04-.1-.16-.2-.32-.18-.33,.03-.57-.05-.76-.25-.35-.34-.31-.91-.29-1.43,.01-.34,.06-.68,.15-1.02,.2-.77,.77-1.49,1.45-1.89,1.46-.85,2.81-2.1,2.83-4.36,.02-1.58-.56-3.4-1.79-4.36-.09-.07-.24-.1-.37,0-.27,.19-.51,.23-.78,.17-.47-.12-.72-.64-.96-1.09-.16-.3-.29-.62-.38-.96-.22-.76-.08-1.67,.31-2.36,.84-1.47,1.38-3.23,.27-5.19-.78-1.37-2.19-2.67-3.73-2.89-.11-.02-.25,.04-.32,.19-.14,.3-.32,.46-.59,.53-.47,.12-.95-.19-1.38-.46-.29-.18-.56-.39-.8-.64-.57-.55-.91-1.41-.91-2.2-.01-1.69-.42-3.49-2.36-4.63-1.36-.8-3.23-1.22-4.68-.64-.1,.04-.2,.16-.18,.33,.03,.33-.05,.56-.25,.76-.34,.34-.91,.31-1.43,.29-.34-.01-.68-.06-1.02-.15h0Z" />
		</g>
	</g>
</svg>
