<?xml version="1.0" encoding="UTF-8"?><svg id="b" xmlns="http://www.w3.org/2000/svg" viewBox="0 0 38.65 38.65"><defs><style>.d{fill:#fff;}.e{fill:#ec6531;}</style></defs><g id="c"><g><circle class="e" cx="19.32" cy="19.32" r="19.32" transform="translate(-8 19.32) rotate(-45)"/><g><path class="d" d="M15.71,14.92h-1.3c-.2,0-.36,.16-.36,.36v8.09c0,.2,.16,.36,.36,.36h1.3c.2,0,.36-.16,.36-.36V15.28c0-.2-.16-.36-.36-.36"/><path class="d" d="M24.68,14.92h-1.3c-.2,0-.36,.16-.36,.36v4.81l-3.71-5.01s-.02-.02-.03-.04h0l-.02-.02h0l-.02-.02h0l-.02-.02h-.01l-.02-.02h-.03v-.02h-.07l-.02-.02h-1.35c-.2,0-.36,.16-.36,.36v8.09c0,.2,.16,.36,.36,.36h1.3c.2,0,.36-.16,.36-.36v-4.81l3.71,5.02s.06,.07,.09,.09h0l.02,.02h.03l.02,.02h.04s.06,.03,.09,.03h1.3c.2,0,.36-.16,.36-.36V15.28c0-.2-.16-.36-.36-.36"/><path class="d" d="M12.57,21.7h-3.54v-6.43c0-.2-.16-.36-.36-.36h-1.3c-.2,0-.36,.16-.36,.36v8.09h0c0,.1,.04,.19,.1,.25h.01c.07,.07,.15,.11,.25,.11h5.21c.2,0,.36-.16,.36-.36v-1.3c0-.2-.16-.36-.36-.36"/><path class="d" d="M31.87,16.94c.2,0,.36-.16,.36-.36v-1.3c0-.2-.16-.36-.36-.36h-5.21c-.1,0-.19,.04-.25,.1h-.01c-.06,.08-.1,.16-.1,.26h0v8.09h0c0,.1,.04,.19,.1,.25h.01c.06,.07,.15,.11,.25,.11h5.21c.2,0,.36-.16,.36-.36v-1.3c0-.2-.16-.36-.36-.36h-3.54v-1.37h3.54c.2,0,.36-.16,.36-.36v-1.3c0-.2-.16-.36-.36-.36h-3.54v-1.37h3.54Z"/></g></g></g></svg>