<?xml version="1.0" encoding="UTF-8"?>
<svg id="_圖層_2" data-name="圖層 2" xmlns="http://www.w3.org/2000/svg" width="261.1" height="52.57" viewBox="0 0 261.1 52.57">
  <g id="_圖層_1-2" data-name="圖層 1">
    <g>
      <g style="opacity: .2;">
        <g>
          <path d="M26.62,29.92c-6.4,0-11.54-.56-15.44-1.69-3.9-1.13-6.74-2.8-8.51-5.02C.89,21,0,18.25,0,14.96S.89,8.93,2.66,6.71c1.77-2.21,4.61-3.89,8.51-5.02,3.9-1.13,9.05-1.69,15.44-1.69s11.54,.57,15.44,1.69c3.9,1.13,6.74,2.8,8.51,5.02,1.77,2.22,2.66,4.97,2.66,8.25s-.89,6.04-2.66,8.25c-1.77,2.22-4.61,3.89-8.51,5.02-3.9,1.13-9.05,1.69-15.44,1.69Zm0-8.36c3.02,0,5.63-.18,7.83-.55,2.2-.37,3.9-1.03,5.1-1.98,1.2-.95,1.8-2.31,1.8-4.07s-.6-3.12-1.8-4.07c-1.2-.95-2.9-1.61-5.1-1.98-2.2-.37-4.81-.55-7.83-.55s-5.67,.18-7.94,.55c-2.27,.37-4.05,1.03-5.32,1.98-1.28,.95-1.91,2.31-1.91,4.07s.64,3.12,1.91,4.07c1.28,.95,3.05,1.61,5.32,1.98,2.27,.37,4.92,.55,7.94,.55Z" style="fill: #e8b356;"/>
          <path d="M56.32,.88h45.76V9.24H56.32V.88Zm17.38,7.79h11V29.04h-11V8.67Z" style="fill: #e8b356;"/>
          <path d="M106.48,.88h11V29.04h-11V.88Zm9.42,9.72h30.98v8.36h-30.98V10.6ZM145.64,.88h11V29.04h-11V.88Z" style="fill: #e8b356;"/>
          <path d="M173.8,17.16v3.52h33.44v8.36h-44.44V.88h44.35V9.24h-33.35v3.52h27.28v4.4h-27.28Z" style="fill: #e8b356;"/>
          <path d="M212.96,29.04V.88h34.01c2.67,0,5.07,.3,7.19,.9,2.13,.6,3.81,1.61,5.06,3.01,1.25,1.41,1.87,3.33,1.87,5.76,0,1.61-.29,2.95-.88,4-.59,1.06-1.39,1.88-2.42,2.46-1.03,.59-2.2,1.01-3.52,1.28-1.32,.26-2.7,.43-4.14,.48l-3.21-.62c3.49,.03,6.18,.18,8.07,.44,1.89,.26,3.21,.74,3.96,1.43,.75,.69,1.12,1.68,1.12,2.97v6.03h-11v-4.71c0-.88-.17-1.55-.51-2-.34-.45-1.07-.77-2.2-.95-1.13-.18-2.87-.26-5.21-.26h-17.2v7.92h-11Zm11-15.27h23.01c.88,0,1.62-.15,2.22-.44,.6-.29,.9-.85,.9-1.67,0-.76-.3-1.28-.9-1.56-.6-.28-1.34-.42-2.22-.42h-23.01v4.09Z" style="fill: #e8b356;"/>
        </g>
      </g>
      <g>
        <path d="M46.19,46.17l2.73,2.15c-2.58,1.49-6.48,3.07-9.52,3.99-.52-.72-1.46-1.86-2.21-2.52,2.95-.8,6.71-2.35,8.75-3.61h-8.38v-3.13h4.85v-11.5h-3.99v-3.13h3.99v-2.78h3.38v2.78h9.04v-2.78h3.47v2.78h4.19v3.13h-4.19v11.5h4.91v3.13h-17.01Zm-.4-14.63v1.78h9.04v-1.78h-9.04Zm0,6.54h9.04v-1.92h-9.04v1.92Zm0,4.96h9.04v-2.09h-9.04v2.09Zm8.46,3.33c3.24,1.12,6.94,2.64,9.09,3.73l-3.27,2.15c-1.84-1.09-5.11-2.64-8.26-3.79l2.44-2.09Z" style="fill: #ca954a;"/>
        <path d="M77.81,26.67c-.77,2.04-1.75,4.1-2.84,6.11v19.51h-3.27v-14.46c-.6,.77-1.21,1.46-1.78,2.09-.32-.83-1.26-2.73-1.86-3.56,2.61-2.58,5.11-6.63,6.54-10.73l3.21,1.03Zm12.42,22.35c1.69,0,2.01-.72,2.21-3.93,.77,.52,2.12,1.06,3.01,1.26-.43,4.27-1.43,5.71-4.96,5.71h-6.51c-3.99,0-5.14-1.03-5.14-5.02v-8.03l-2.18,.86-1.29-3.01,3.47-1.35v-6.77h3.21v5.48l2.87-1.12v-7.43h3.07v6.23l3.84-1.49,.29-.2,2.55,.77-.11,.54c-.14,4.1-.52,9.5-1.15,13.05l-2.81-.8c.32-2.41,.52-6.2,.63-9.7l-3.24,1.32v10.16h-3.07v-8.98l-2.87,1.18v9.29c0,1.69,.29,1.98,2.18,1.98h6Z" style="fill: #ca954a;"/>
        <path d="M110.72,40.75c-1.12,.32-2.24,.6-3.38,.92v6.97c0,1.66-.32,2.5-1.29,3.01-.95,.49-2.32,.63-4.33,.6-.11-.86-.54-2.21-.98-3.1,1.15,.06,2.32,.06,2.7,.06,.4-.03,.54-.14,.54-.57v-6.08l-3.01,.75-.89-3.24c1.12-.23,2.47-.55,3.9-.89v-5.02h-3.53v-3.16h3.53v-5.45h3.36v5.45h3.33v3.16h-3.33v4.19l2.95-.75,.43,3.16Zm15.23,8.09c0,1.61-.32,2.44-1.38,2.95-1.03,.52-2.5,.57-4.48,.57-.14-.98-.57-2.29-.98-3.16,1.12,.06,2.44,.06,2.81,.06s.52-.14,.52-.49v-1.95c-2.58,.75-5.19,1.43-7.34,2.01l-.8-2.29c-.43,2.18-1.21,4.33-2.5,6.02-.63-.55-2.15-1.55-2.93-1.89,2.29-2.9,2.52-7.03,2.52-9.95v-4.7h14.54v12.82Zm-.89-14.29h-12.94v-8.06h12.94v8.06Zm-4.39,9.52c-1.35-.69-3.9-1.49-5.91-1.95-.03,1.09-.11,2.27-.32,3.44,2.12-.37,5.08-.98,8-1.58v-5.08h-7.66v1.86c0,.4,0,.8-.03,1.23l1.26-2.18c1.98,.32,4.62,1.03,6.02,1.72l-1.38,2.52Zm1.06-14.89h-6.4v2.64h6.4v-2.64Z" style="fill: #ca954a;"/>
        <path d="M135.74,38.77c0,3.93-.34,9.41-2.09,12.97-.49-.52-1.69-1.46-2.32-1.78,1.49-3.24,1.64-7.92,1.64-11.42v-8.92h5.11v-4.1h3.16v1.18h5.25v1.95h-5.25v.98h3.99l.4-.11,2.04,.49c-.43,1.35-.92,2.9-1.38,3.96l-2.41-.57c.14-.43,.32-.98,.49-1.55h-4.07v.92l3.27-.34,.23,1.49-3.5,.4c.03,.46,.17,.6,.69,.6h3.1c.52,0,1.52-.03,2.01-.14,.03,.54,.06,1.12,.14,1.64-.43,.11-1.29,.14-2.04,.14h-3.61c-1.78,0-2.32-.6-2.41-2.04l-1.95,.23-.23-1.52,2.18-.23v-1.15h-2.41v5.25h10.9v1.69h-10.9Zm18.07-2.5c.69,5.56,2.04,10.64,4.82,13.34-.77,.63-1.86,1.86-2.38,2.75-1.84-2.01-3.07-4.88-3.9-8.29-.8,2.95-2.12,5.85-4.22,8.26-.34-.43-.95-1.03-1.55-1.52-.11,.32-.29,.57-.63,.77-.6,.34-1.43,.37-2.5,.37-.09-.63-.34-1.46-.63-2.04h1.23c.2,0,.26-.06,.26-.29v-4.02h-1.43l1.12,.46c-.37,.49-.72,.95-1.03,1.38h1.2v1.43h-2.12v2.75h-1.98v-2.75h-2.15v-1.43h1.15c-.23-.46-.52-.92-.8-1.32l1.18-.52h-1.55v6.31h-2.38v-8.03h11.22v4.73c2.7-3.7,3.38-8.46,3.53-12.36h-3.3v-3.1h3.36v-7.57h3.24v7.57h4.62v3.1h-4.36Zm-16.87,6.94v-3.73h8.38v3.73h-8.38Zm2.18-1.43h3.9v-.86h-3.9v.86Zm1.95,5.68c.43-.57,.89-1.29,1.18-1.84h-2.47c.46,.55,.92,1.26,1.12,1.84h.17Zm14.57-15.15c-.29-1.35-1.12-3.36-2.04-4.91l2.52-.92c.95,1.46,1.89,3.47,2.21,4.76l-2.7,1.06Z" style="fill: #ca954a;"/>
        <path d="M174.36,43.54c-3.47,1.32-7.2,2.67-10.07,3.7l-1.41-3.27c1.09-.32,2.47-.72,3.96-1.18v-11.02h-3.18v-3.16h9.81v3.16h-3.18v9.95l3.53-1.15,.54,2.95Zm3.79,3.16l2.64,1.86c-1.89,1.46-4.91,2.95-7.43,3.76-.46-.66-1.38-1.69-2.07-2.32,2.32-.72,5.16-2.12,6.63-3.3h-2.9v-15.15h4.5c.14-.66,.26-1.35,.37-1.98h-6.05v-2.87h16.24v2.87h-6.34c-.23,.69-.49,1.35-.72,1.98h6v15.15h-10.87Zm.03-10.81h7.52v-1.81h-7.52v1.81Zm0,4.13h7.52v-1.84h-7.52v1.84Zm0,4.19h7.52v-1.84h-7.52v1.84Zm6.68,2.58c1.81,.98,4.39,2.5,5.71,3.59l-2.7,2.01c-1.18-1.06-3.67-2.7-5.54-3.79l2.52-1.81Z" style="fill: #ca954a;"/>
        <path d="M218.29,27.1v24.93h-3.61v-1.78h-13.28v1.78h-3.44V27.1h20.34Zm-16.9,3.33v3.3h13.28v-3.3h-13.28Zm0,6.51v3.39h13.28v-3.39h-13.28Zm13.28,9.98v-3.39h-13.28v3.39h13.28Z" style="fill: #ca954a;"/>
      </g>
    </g>
  </g>
</svg>