<svg xmlns="http://www.w3.org/2000/svg" width="738.82" height="84.67" viewBox="0 0 738.82 84.67">
  <defs>
    <style>
      .cls-1 {
        opacity: 0.2;
      }

      .cls-2 {
        fill: #e8b356;
      }

      .cls-3 {
        fill: #ca954a;
      }
    </style>
  </defs>
  <g id="圖層_2" data-name="圖層 2">
    <g id="圖層_1-2" data-name="圖層 1">
      <g class="cls-1">
        <g>
          <path class="cls-2" d="M75.33,84.67q-27.15,0-43.71-4.8T7.53,65.68Q0,56.27,0,42.33T7.53,19q7.53-9.4,24.09-14.2T75.33,0Q102.47,0,119,4.79T143.12,19q7.53,9.39,7.53,23.34t-7.53,23.35Q135.59,75.09,119,79.87T75.33,84.67Zm0-23.66a136.49,136.49,0,0,0,22.16-1.56q9.33-1.55,14.44-5.6T117,42.33q0-7.47-5.11-11.51T97.49,25.21a137.73,137.73,0,0,0-22.16-1.55,143.8,143.8,0,0,0-22.48,1.55q-9.65,1.56-15.06,5.61T32.37,42.33q0,7.47,5.42,11.52t15.06,5.6A142.49,142.49,0,0,0,75.33,61Z"/>
          <path class="cls-2" d="M159.37,2.49H288.86V26.15H159.37Zm49.18,22h31.13V82.17H208.55Z"/>
          <path class="cls-2" d="M301.31,2.49h31.12V82.17H301.31ZM328,30H415.6V53.66H328ZM412.12,2.49h31.12V82.17H412.12Z"/>
          <path class="cls-2" d="M491.8,48.56v10h94.63V82.17H460.67V2.49H586.18V26.15H491.8v10H569V48.56Z"/>
          <path class="cls-2" d="M602.61,82.17V2.49h96.25A74.88,74.88,0,0,1,719.21,5a29.27,29.27,0,0,1,14.32,8.53q5.29,6,5.29,16.31a23.12,23.12,0,0,1-2.49,11.33,17.8,17.8,0,0,1-6.85,7,32.42,32.42,0,0,1-10,3.61,74,74,0,0,1-11.7,1.37l-9.09-1.74a186.67,186.67,0,0,1,22.85,1.25q8,1.11,11.2,4c2.12,1.95,3.18,4.76,3.18,8.41v17H704.83V68.85a9.43,9.43,0,0,0-1.43-5.66c-1-1.29-3-2.18-6.23-2.68a104.67,104.67,0,0,0-14.75-.75H633.74V82.17ZM633.74,39h65.12a14.23,14.23,0,0,0,6.28-1.24c1.7-.83,2.56-2.41,2.56-4.74a4.44,4.44,0,0,0-2.56-4.42,15,15,0,0,0-6.28-1.18H633.74Z"/>
        </g>
      </g>
      <g>
        <path class="cls-3" d="M242.39,72.47l4.2,3.32a78,78,0,0,1-14.69,6.15,27.77,27.77,0,0,0-3.41-3.9A59.86,59.86,0,0,0,242,72.47H229.07V67.64h7.48V49.89h-6.16V45.07h6.16v-4.3h5.22v4.3h13.94v-4.3h5.36v4.3h6.46v4.82h-6.46V67.64h7.57v4.83Zm-.62-22.58v2.75h13.94V49.89Zm0,10.09h13.94V57H241.77Zm0,7.66h13.94V64.41H241.77Zm13.06,5.14a127.05,127.05,0,0,1,14,5.75l-5.05,3.32A85,85,0,0,0,251.07,76Z"/>
        <path class="cls-3" d="M289.39,42.37A77.37,77.37,0,0,1,285,51.79V81.9H280V59.58c-.92,1.2-1.85,2.26-2.74,3.24a32.55,32.55,0,0,0-2.88-5.49,45.82,45.82,0,0,0,10.1-16.56Zm19.17,34.48c2.61,0,3.1-1.11,3.41-6.07a16.23,16.23,0,0,0,4.65,2c-.67,6.6-2.22,8.81-7.66,8.81h-10c-6.15,0-7.92-1.59-7.92-7.75V61.4l-3.37,1.33-2-4.65L291,56V45.55h4.95V54l4.43-1.73V40.82h4.74v9.6l5.93-2.3.44-.31L315.42,49l-.18.85A164.06,164.06,0,0,1,313.47,70l-4.33-1.24c.48-3.72.79-9.56,1-15l-5,2V71.49h-4.74V57.64l-4.43,1.81V73.79c0,2.62.45,3.06,3.37,3.06Z"/>
        <path class="cls-3" d="M338.39,64.1c-1.73.49-3.45.93-5.22,1.42V76.27c0,2.57-.49,3.85-2,4.65s-3.58,1-6.68.93A18.47,18.47,0,0,0,323,77.07c1.77.09,3.59.09,4.17.09s.84-.22.84-.89V66.89L323.34,68,322,63c1.72-.36,3.8-.84,6-1.37V53.92h-5.45V49.05H328V40.64h5.18v8.41h5.13v4.87h-5.13v6.46l4.55-1.15Zm23.5,12.48c0,2.48-.48,3.77-2.12,4.56s-3.85.89-6.91.89a20,20,0,0,0-1.5-4.87c1.72.09,3.76.09,4.34.09s.79-.22.79-.76v-3c-4,1.16-8,2.22-11.33,3.1L343.92,73a22.5,22.5,0,0,1-3.85,9.3,25.41,25.41,0,0,0-4.51-2.92c3.54-4.47,3.89-10.85,3.89-15.36V56.8h22.44Zm-1.37-22h-20V42.1h20Zm-6.77,14.7a46.36,46.36,0,0,0-9.12-3,37.06,37.06,0,0,1-.49,5.32C347.42,71,352,70,356.49,69.1V61.27H344.67v2.87c0,.62,0,1.24,0,1.91l1.95-3.37a39.29,39.29,0,0,1,9.29,2.66Zm1.64-23h-9.87v4.07h9.87Z"/>
        <path class="cls-3" d="M375.21,61.05c0,6.06-.53,14.52-3.23,20a18.06,18.06,0,0,0-3.59-2.74c2.31-5,2.53-12.22,2.53-17.62V46.92h7.88V40.59h4.87v1.82h8.1v3h-8.1v1.5h6.15l.62-.17,3.14.75c-.66,2.08-1.41,4.47-2.12,6.11l-3.72-.89c.22-.66.49-1.5.75-2.39h-6.28v1.42l5-.53.36,2.3-5.4.62c0,.71.26.93,1.06.93h4.78a17.69,17.69,0,0,0,3.1-.22,22.7,22.7,0,0,0,.22,2.52,15.29,15.29,0,0,1-3.14.22h-5.58c-2.75,0-3.59-.93-3.72-3.14l-3,.35-.35-2.34,3.36-.36V50.33h-3.72v8.1H392v2.62Zm27.89-3.86c1.06,8.59,3.14,16.43,7.44,20.59A18.78,18.78,0,0,0,406.86,82c-2.83-3.1-4.74-7.53-6-12.79A32,32,0,0,1,394.33,82a17.24,17.24,0,0,0-2.39-2.34,2.1,2.1,0,0,1-1,1.19,8,8,0,0,1-3.85.58,11.28,11.28,0,0,0-1-3.15h1.9c.31,0,.4-.08.4-.44v-6.2h-2.22l1.73.71c-.58.76-1.11,1.46-1.59,2.13h1.86v2.21H385v4.25H381.9V76.67h-3.32V74.46h1.77a16.52,16.52,0,0,0-1.24-2l1.81-.8h-2.39v9.74h-3.67V69h17.31v7.3c4.16-5.71,5.22-13.06,5.44-19.08h-5.09V52.41h5.18V40.73h5V52.41h7.13v4.78Zm-26,10.72V62.15H390v5.76Zm3.36-2.22h6V64.37h-6Zm3,8.77a23.05,23.05,0,0,0,1.81-2.84h-3.81a10.22,10.22,0,0,1,1.73,2.84Zm22.48-23.37a28.38,28.38,0,0,0-3.14-7.57l3.89-1.42a27.94,27.94,0,0,1,3.41,7.35Z"/>
        <path class="cls-3" d="M433,68.39c-5.36,2-11.11,4.12-15.54,5.71l-2.17-5c1.68-.49,3.81-1.11,6.11-1.82v-17h-4.91V45.38h15.13v4.87h-4.91V65.61l5.45-1.78Zm5.84,4.87,4.07,2.88a41,41,0,0,1-11.46,5.8,26.7,26.7,0,0,0-3.19-3.59,35.3,35.3,0,0,0,10.23-5.09H434V49.89h7c.23-1,.4-2.08.58-3h-9.34V42.41h25v4.43h-9.78c-.35,1.06-.75,2.08-1.11,3h9.26V73.26Zm0-16.68h11.6V53.79H438.9Zm0,6.37h11.6V60.12H438.9Zm0,6.46h11.6V66.58H438.9Zm10.32,4A65.44,65.44,0,0,1,458,78.93L453.87,82a64,64,0,0,0-8.55-5.85Z"/>
        <path class="cls-3" d="M499,43V81.5h-5.58V78.75H472.94V81.5h-5.31V43Zm-26.07,5.13v5.09h20.49V48.16Zm0,10.05v5.23h20.49V58.21Zm20.49,15.41V68.39H472.94v5.23Z"/>
      </g>
    </g>
  </g>
</svg>
