<svg height="28.68" viewBox="0 0 120.89 28.68" width="120.89" xmlns="http://www.w3.org/2000/svg"><path d="m.38.38h120.12v27.91h-120.12z" fill="#efb970" stroke="#fff" stroke-miterlimit="10" stroke-width=".77"/><g fill="#fff"><path d="m16.23 15.76c-.83.24-1.68.46-2.52.69v5.3c0 1-.2 1.45-.79 1.72a7 7 0 0 1 -2.86.32 6.73 6.73 0 0 0 -.55-1.66h2s.38-.1.38-.38v-4.75l-2.4.65-.49-1.79c.83-.18 1.81-.44 2.9-.71v-3.9h-2.67v-1.7h2.64v-3.85h1.84v3.85h2.48v1.7h-2.48v3.42c.74-.19 1.53-.41 2.27-.63zm10.58 6.07c0 .93-.2 1.43-.83 1.7a8.44 8.44 0 0 1 -3 .3 6.26 6.26 0 0 0 -.55-1.7h2.14s.38-.08.38-.34v-1.92c-2.05.54-4.15 1.07-5.82 1.49l-.65-1.72a9 9 0 0 1 -1.83 4.36 6.66 6.66 0 0 0 -1.55-1.07c1.59-1.92 1.77-4.61 1.77-6.59v-3.49h9.94zm-.59-10.26h-8.88v-5.24h8.88zm-7.51 4.78a18.45 18.45 0 0 1 -.27 3.27c1.68-.28 4.08-.79 6.47-1.31v-3.89h-6.2zm1-1a20.49 20.49 0 0 1 4.68 1.36l-.75 1.4a21.76 21.76 0 0 0 -4.64-1.48zm4.7-7.54h-5.3v2.27h5.3z"/><path d="m32.5 9.73v4.85c0 2.6-.22 6.34-1.41 8.81a5 5 0 0 0 -1.31-.95c1.07-2.27 1.15-5.49 1.15-7.89v-6.09h3.56v-2.8h1.74v.91h3.77v1.12h-3.77v.77h3.24l.27-.05 1.08.27c-.26.85-.58 1.84-.86 2.49l-1.33-.31c.08-.32.22-.71.34-1.13h-3.21v.79l2.46-.26.14.89-2.6.28c0 .44.06.55.45.55h2.24a9 9 0 0 0 1.29-.08c0 .32.06.68.1 1a5 5 0 0 1 -1.33.1h-2.51c-1.21 0-1.5-.43-1.52-1.46l-1.61.18-.14-.89 1.75-.18v-.92zm12.5 2.95c.48 4.11 1.49 7.79 3.52 9.69a7.32 7.32 0 0 0 -1.31 1.5 13.71 13.71 0 0 1 -3-6.55 14.59 14.59 0 0 1 -3.21 6.53 5.58 5.58 0 0 0 -1-.91.78.78 0 0 1 -.41.39 3.85 3.85 0 0 1 -1.75.22 4 4 0 0 0 -.38-1.14h1.07c.14 0 .18-.06.18-.2v-3.09h-1.11l.76.32c-.26.36-.54.71-.82 1h1v.85h-1.65v2.05h-1.17v-2h-1.59v-.85h.87a6.5 6.5 0 0 0 -.67-1l.77-.34h-1.17v4.45h-1.35v-5.51h7.6v3.91c2.28-2.73 2.74-6.37 2.84-9.29h-2.62v-1.71h2.6v-5.28h1.8v5.28h3.5v1.67zm-4.86 1.78h-7.5v-1h7.52zm-6.63 3.06v-2.47h5.7v2.47zm1.25-.87h3.14v-.75h-3.12zm1.63 3.84a16.45 16.45 0 0 0 1-1.37h-2.15a5.09 5.09 0 0 1 .87 1.37zm10.5-10.42a12.5 12.5 0 0 0 -1.69-3.19l1.39-.55a12.54 12.54 0 0 1 1.79 3.1z"/><path d="m64.69 21.46c2.14 0 2.46-.6 2.73-3.64a6.89 6.89 0 0 0 1.91.73c-.4 3.66-1.15 4.73-4.62 4.73h-7.13c-3.49 0-4.58-.64-4.58-3.28v-9.58h1.94v3h9.88v-4.76h-12.74v-1.8h14.67v9.3h-1.93v-.95h-9.88v4.79c0 1.23.4 1.49 2.58 1.49z"/><path d="m80 17.88v5.87h-1.67v-.55h-3.17v.57h-1.59v-5.68l-.89.36a6.88 6.88 0 0 0 -.92-1.5 13 13 0 0 0 3.7-1.86c-.46-.28-.9-.54-1.33-.77l1.07-1.11c.47.26 1 .53 1.49.83a8 8 0 0 0 1.37-1.76h-2.7a9.1 9.1 0 0 1 -2.25 2.31 4.71 4.71 0 0 0 -1-1.2 7.57 7.57 0 0 0 3-3.84l1.47.28c-.12.35-.28.69-.44 1.05h2.76l.26-.06 1 .67a11.7 11.7 0 0 1 -2.16 3.34c1.15.67 2.26 1.35 3 1.84zm-6.31-6.88h-1.39v-3.41h3.59c-.16-.47-.37-1-.53-1.36l1.47-.51c.29.55.59 1.3.83 1.87h3.34v3.41h-1.53v-1.92h-5.78zm6 6.78c-.71-.52-1.7-1.17-2.75-1.82a12.68 12.68 0 0 1 -2.7 1.82zm-1.31 4v-2.56h-3.22v2.53zm7.07-.37a24.43 24.43 0 0 1 -4.19 2.55c-.18-.38-.57-1-.81-1.37a18 18 0 0 0 3.81-2.33zm-.83-11.6c.12-.52.22-1.13.32-1.68h-3.45v-1.56h8.79v1.56h-3.61c-.18.57-.34 1.16-.5 1.68h3.54v10.24h-7.71v-10.24zm3.32 1.44h-4.23v1.52h4.23zm0 2.89h-4.23v1.54h4.23zm0 2.91h-4.23v1.56h4.23zm-.79 3.1a22.86 22.86 0 0 1 3.35 2.43l-1 1.27a23.41 23.41 0 0 0 -3.3-2.55z"/><path d="m96.05 14.36a13.84 13.84 0 0 0 -3.23-1.92l1.05-1.35a12.53 12.53 0 0 1 3.27 1.78zm-2.84 8.26a54.54 54.54 0 0 0 2.7-6.27l1.53 1c-.75 2.08-1.69 4.41-2.54 6.25zm12-10.68v1.19h5.54v9c0 .75-.16 1.15-.68 1.4a7.62 7.62 0 0 1 -2.52.22 5.6 5.6 0 0 0 -.46-1.36h1.69c.24 0 .3-.07.3-.27v-1.59a2.56 2.56 0 0 0 -.64.63 5.39 5.39 0 0 1 -1.15-2.1 4.5 4.5 0 0 1 -1.43 2.16 3.41 3.41 0 0 0 -.65-.67v3.08h-1.63v-3a3.83 3.83 0 0 0 -.61.59 5.19 5.19 0 0 1 -1.06-2.06 4.81 4.81 0 0 1 -1.4 2.26 2.66 2.66 0 0 0 -.7-.72v3.11h-1.58v-10.68h5.36v-1.19h-2.88v-2.94h-2.87v-1.13l-1.06 1.38a14.47 14.47 0 0 0 -3.11-2.07l1-1.31a13.14 13.14 0 0 1 3.12 1.86v-.41h2.87v-1.66h1.79v1.66h3.93v-1.66h1.83v1.66h3v1.68h-3v3zm-2.78 3.68a8.07 8.07 0 0 0 1.15 4.55v-5.48h-3.76v5.9a4.84 4.84 0 0 0 1.39-3.15h.38l-.06-.65h-1v-1.17zm.06-5.24h3.93v-1.38h-3.92zm2.72 4.31v5.68a4.37 4.37 0 0 0 1.35-2.95h.36q0-.3-.06-.63h-1v-1.17h1.93c.08 2 .5 3.7 1.31 4.57v-5.5z"/></g></svg>