<?xml version="1.0" encoding="UTF-8"?>
<svg id="_圖層_2" data-name="圖層 2" xmlns="http://www.w3.org/2000/svg" width="377.46" height="20.09" viewBox="0 0 377.46 20.09">
  <g id="_圖層_3" data-name="圖層 3">
    <g style="opacity: .2;">
      <g>
        <path d="M23.42,17.26h-4.42L35.1,.62h7.37V19.5h-7.37V6.64l2.21,.91-11.65,11.95h-8.85L5.13,7.58l2.24-.91v12.83H0V.62H7.37L23.42,17.26Z" style="fill: #fff;"/>
        <path d="M53.98,11.53v2.36h22.42v5.6h-29.79V.62h29.73V6.22h-22.36v2.36h18.29v2.95h-18.29Z" style="fill: #fff;"/>
        <path d="M80.24,19.5V.62h22.8c1.79,0,3.4,.2,4.82,.6,1.43,.4,2.56,1.08,3.39,2.02,.84,.94,1.25,2.23,1.25,3.86,0,1.08-.2,1.98-.59,2.68-.39,.71-.93,1.26-1.62,1.65-.69,.39-1.47,.68-2.36,.86-.88,.18-1.81,.29-2.77,.32l-2.15-.41c2.34,.02,4.14,.12,5.41,.3,1.27,.18,2.15,.5,2.66,.96,.5,.46,.75,1.13,.75,1.99v4.04h-7.37v-3.16c0-.59-.11-1.04-.34-1.34-.23-.3-.72-.52-1.48-.63-.76-.12-1.92-.18-3.5-.18h-11.53v5.31h-7.37Zm7.37-10.24h15.43c.59,0,1.09-.1,1.49-.3,.4-.2,.6-.57,.6-1.12,0-.51-.2-.86-.6-1.05-.4-.19-.9-.28-1.49-.28h-15.43v2.74Z" style="fill: #fff;"/>
        <path d="M151.53,11.62c-.1,1.87-.78,3.43-2.04,4.69s-3.11,2.2-5.56,2.83c-2.45,.63-5.54,.94-9.28,.94-2.85,0-5.41-.15-7.67-.46-2.26-.3-4.19-.83-5.78-1.56-1.59-.74-2.81-1.75-3.66-3.02-.85-1.28-1.27-2.89-1.27-4.84s.42-3.57,1.27-4.88c.85-1.31,2.06-2.35,3.66-3.13,1.59-.78,3.52-1.33,5.78-1.67,2.26-.33,4.82-.5,7.67-.5,3.74,0,6.83,.34,9.29,1.02,2.46,.68,4.32,1.68,5.58,2.99,1.26,1.32,1.94,2.92,2.04,4.81h-7.67c-.24-.63-.67-1.18-1.3-1.67-.63-.48-1.57-.86-2.83-1.14-1.26-.28-2.96-.41-5.1-.41-2.52,0-4.56,.15-6.14,.46-1.57,.31-2.72,.79-3.45,1.46-.73,.67-1.09,1.55-1.09,2.65,0,1,.36,1.82,1.09,2.45,.73,.63,1.88,1.09,3.45,1.39,1.57,.29,3.62,.44,6.14,.44,2.14,0,3.84-.13,5.09-.38,1.25-.26,2.19-.6,2.82-1.05,.63-.44,1.06-.92,1.3-1.43h7.67Z" style="fill: #fff;"/>
        <path d="M155.4,.62h7.37V19.5h-7.37V.62Zm6.31,6.52h20.77v5.6h-20.77V7.14ZM181.65,.62h7.38V19.5h-7.38V.62Z" style="fill: #fff;"/>
        <path d="M191.39,19.5L204.04,.62h8.2l12.77,18.88h-8.11l-10.94-16.9h4.4l-10.86,16.9h-8.11Zm6.61-2.86v-4.42h20.18v4.42h-20.18Z" style="fill: #fff;"/>
        <path d="M256.96,13.72l-2.74,1.56V.62h7.37V19.5h-7.37l-22.21-12.86,2.74-1.59v14.45h-7.37V.62h7.37l22.21,13.1Z" style="fill: #fff;"/>
        <path d="M286.96,.62c2.66,0,4.85,.26,6.58,.77,1.73,.51,3.09,1.21,4.07,2.09,.98,.88,1.68,1.89,2.08,3.02,.4,1.13,.6,2.32,.6,3.55s-.23,2.42-.68,3.55c-.45,1.13-1.19,2.14-2.23,3.02-1.03,.88-2.4,1.58-4.1,2.09-1.7,.51-3.81,.77-6.33,.77h-21.24V.62h21.24Zm-13.86,12.98h13.57c1.1,0,2.04-.07,2.8-.22,.77-.15,1.38-.37,1.84-.66,.46-.29,.8-.66,1-1.11,.21-.44,.31-.96,.31-1.55s-.1-1.11-.31-1.55c-.21-.44-.54-.81-1-1.11-.46-.3-1.08-.52-1.84-.66-.77-.15-1.7-.22-2.8-.22h-13.57v7.08Z" style="fill: #fff;"/>
        <path d="M304.57,.62h7.37V19.5h-7.37V.62Z" style="fill: #fff;"/>
        <path d="M315.49,12.57h8.05c.14,.41,.54,.76,1.21,1.05,.67,.29,1.57,.5,2.7,.65,1.13,.15,2.44,.22,3.94,.22s2.64-.04,3.5-.13,1.46-.25,1.81-.47c.35-.23,.53-.54,.53-.93s-.29-.66-.86-.87c-.57-.21-1.58-.35-3.04-.43-1.46-.08-3.5-.12-6.14-.12-1.97,0-3.66-.09-5.09-.28-1.43-.19-2.6-.48-3.51-.89-.91-.4-1.59-.91-2.02-1.53-.43-.62-.65-1.36-.65-2.23,0-1.49,.51-2.73,1.52-3.7,1.01-.97,2.55-1.7,4.6-2.18,2.05-.48,4.63-.72,7.71-.72,4.52,0,7.98,.65,10.37,1.96,2.39,1.31,3.58,3.19,3.58,5.65h-7.64c-.1-.65-.71-1.15-1.83-1.49-1.12-.34-2.71-.52-4.78-.52s-3.56,.12-4.56,.35c-.99,.24-1.49,.64-1.49,1.21,0,.3,.14,.53,.41,.71s.75,.32,1.43,.43c.68,.11,1.64,.18,2.88,.22,1.24,.04,2.81,.06,4.72,.06,2.1,0,3.89,.1,5.37,.31,1.48,.21,2.67,.52,3.58,.93,.91,.41,1.58,.94,1.99,1.58,.41,.64,.62,1.39,.62,2.26,0,1.49-.47,2.71-1.42,3.66s-2.44,1.64-4.48,2.09-4.72,.68-8.02,.68c-1.87,0-3.58-.11-5.15-.32-1.56-.22-2.95-.54-4.17-.96-1.22-.42-2.25-.94-3.1-1.56-.85-.62-1.49-1.32-1.93-2.09-.44-.78-.66-1.64-.66-2.58Z" style="fill: #fff;"/>
        <path d="M355.05,11.53v2.36h22.42v5.6h-29.79V.62h29.73V6.22h-22.36v2.36h18.29v2.95h-18.29Z" style="fill: #fff;"/>
      </g>
    </g>
  </g>
</svg>