<svg viewBox="0 0 72.51 121.26" xmlns="http://www.w3.org/2000/svg"><g fill="#da4e36"><path d="m42.67 4.4a3.27 3.27 0 0 1 -1.93-1.49 5.06 5.06 0 0 0 -4.48-2.91 5.81 5.81 0 0 0 -4.49 1.84.31.31 0 0 0 0 .38.9.9 0 0 1 .17.8c-.13.49-.65.75-1.12 1a4.72 4.72 0 0 1 -1 .38 3.3 3.3 0 0 1 -2.42-.32 5.06 5.06 0 0 0 -5.33-.28 5.78 5.78 0 0 0 -3 3.84.33.33 0 0 0 .23.36.88.88 0 0 1 .55.61 1.91 1.91 0 0 1 -.47 1.39 4.43 4.43 0 0 1 -.67.83 3.2 3.2 0 0 1 -2.25.93 5.05 5.05 0 0 0 -4.76 2.43 5.76 5.76 0 0 0 -.65 4.81.33.33 0 0 0 .33.19.87.87 0 0 1 .78.25 1.91 1.91 0 0 1 .29 1.47 4.75 4.75 0 0 1 -.15 1 3.33 3.33 0 0 1 -1.49 1.94 5.05 5.05 0 0 0 -2.91 4.51 5.81 5.81 0 0 0 1.84 4.49.35.35 0 0 0 .38 0 .9.9 0 0 1 .8-.18c.48.13.75.66 1 1.13a4.18 4.18 0 0 1 .39 1 3.24 3.24 0 0 1 -.31 2.4 5.1 5.1 0 0 0 -.27 5.34 5.77 5.77 0 0 0 3.83 3 .32.32 0 0 0 .34-.19.9.9 0 0 1 .6-.55 1.9 1.9 0 0 1 1.42.48 4.32 4.32 0 0 1 .82.66 3.3 3.3 0 0 1 .94 2.26 5.07 5.07 0 0 0 2.43 4.76 5.78 5.78 0 0 0 4.8.65.34.34 0 0 0 .2-.33.86.86 0 0 1 .24-.78 1.93 1.93 0 0 1 1.47-.3 4.24 4.24 0 0 1 1.05.16 3.32 3.32 0 0 1 1.94 1.49 5.05 5.05 0 0 0 4.48 2.91 5.78 5.78 0 0 0 4.48-1.84.33.33 0 0 0 0-.39.89.89 0 0 1 -.17-.8c.13-.48.65-.74 1.12-1a5.18 5.18 0 0 1 1-.38 3.24 3.24 0 0 1 2.42.32 5.06 5.06 0 0 0 5.34.27 5.73 5.73 0 0 0 3-3.83.32.32 0 0 0 -.19-.33.92.92 0 0 1 -.55-.61 1.91 1.91 0 0 1 .48-1.42 4.24 4.24 0 0 1 .66-.82 3.23 3.23 0 0 1 2.18-.93 5.09 5.09 0 0 0 4.76-2.43 5.84 5.84 0 0 0 .65-4.81.34.34 0 0 0 -.34-.19.84.84 0 0 1 -.77-.25 1.87 1.87 0 0 1 -.3-1.47 4.17 4.17 0 0 1 .16-1 3.26 3.26 0 0 1 1.49-1.94 5.06 5.06 0 0 0 2.9-4.48 5.77 5.77 0 0 0 -1.83-4.49.33.33 0 0 0 -.39 0 .89.89 0 0 1 -.8.17c-.48-.12-.74-.65-1-1.12a4.85 4.85 0 0 1 -.38-1 3.27 3.27 0 0 1 .32-2.43 5 5 0 0 0 .27-5.33 5.79 5.79 0 0 0 -3.83-3 .32.32 0 0 0 -.33.2.88.88 0 0 1 -.64.57 1.94 1.94 0 0 1 -1.42-.47 5.16 5.16 0 0 1 -.82-.66 3.3 3.3 0 0 1 -.94-2.26 5.06 5.06 0 0 0 -2.39-4.81 5.78 5.78 0 0 0 -4.8-.65.3.3 0 0 0 -.19.33.9.9 0 0 1 -.25.78 2 2 0 0 1 -1.47.3 4.77 4.77 0 0 1 -1-.16zm-.67 2.6a22.29 22.29 0 0 1 5.34 2.22 22.39 22.39 0 0 1 8.11 8.1 22.49 22.49 0 0 1 2.21 5.34 22.26 22.26 0 0 1 0 11.46 22.18 22.18 0 0 1 -5.75 9.88 22.08 22.08 0 0 1 -15.65 6.48 22.67 22.67 0 0 1 -5.73-.74 22.32 22.32 0 0 1 -5.34-2.22 22 22 0 0 1 -4.58-3.52 22.34 22.34 0 0 1 -3.52-4.58 22 22 0 0 1 -3-11.07 22.35 22.35 0 0 1 .75-5.73 22.09 22.09 0 0 1 2.22-5.34 22.35 22.35 0 0 1 3.51-4.58 21.79 21.79 0 0 1 4.59-3.52 21.9 21.9 0 0 1 11.07-3 22.07 22.07 0 0 1 5.77.82z" fill-rule="evenodd"/><path d="m52.88 38.83a3.26 3.26 0 0 0 -.45.09c-.91.19-2 .51-3 .62a35.41 35.41 0 0 1 -8.12.16 30.41 30.41 0 0 1 -8.89-2.14c-1.1-.39-2-.58-3.27-1a18.05 18.05 0 0 0 -2.5-.64 8.73 8.73 0 0 0 -1.46-.1 19.57 19.57 0 0 0 2.18-1.31 11.81 11.81 0 0 0 2.52-2.06 13.84 13.84 0 0 0 1-1.15 1 1 0 0 0 .19-.86 1.15 1.15 0 0 0 -.57-.6 1.57 1.57 0 0 0 -1.34.05c-.45.22-.4.61-.72.89a9.75 9.75 0 0 1 -1.85.69c.36-.4.66-.66 1.07-1.16a15.49 15.49 0 0 0 1.16-1.46c.41-.58.72-1 .32-1.36.81-.4 2.18-1 3-1.34s1.42-.58 2.22-.85l.83-.3a18.35 18.35 0 0 0 -2.63 4.25 11.5 11.5 0 0 0 -.91 5.75 1.6 1.6 0 0 0 .8 1 .85.85 0 0 0 .86 0 1.49 1.49 0 0 0 .46-.56l.13.13a.66.66 0 0 0 .5.12l1.52-.29a.3.3 0 0 1 .25.13 9.34 9.34 0 0 0 .91 1.47 1.33 1.33 0 0 0 .65.45.61.61 0 0 0 .68-.31 4.25 4.25 0 0 0 .49-1.81c0-.42-.11-.85-.1-1.26 0-.26 0-.53 0-.79 0-.6 0-1.2 0-1.8a14.77 14.77 0 0 1 .22-2 1.56 1.56 0 0 0 0-1 3 3 0 0 0 -.44-.68 3.64 3.64 0 0 0 -.83-.63 1.34 1.34 0 0 0 -1.53 0 6.43 6.43 0 0 1 -1.29.76c-.1 0-.35.17-.47.14a6.81 6.81 0 0 1 1.4-1.71 17.41 17.41 0 0 1 3-2c.57-.33 2.29-.63 2.9-.89a.79.79 0 0 0 0-1.47c-.58-.27-1.53-.4-2.14-.62a1.75 1.75 0 0 0 -1.56.09c-.94.69-3.1 2.16-3.07 1.89a3.07 3.07 0 0 1 1-1.86 13.28 13.28 0 0 0 2.08-2.1l.52-.57a2.92 2.92 0 0 0 .36-.4 15.9 15.9 0 0 0 1.46-1.21c.23-.19 0-.83.07-.95s-.4-.46-1.18-.5a2 2 0 0 0 -1.31.53 9.73 9.73 0 0 0 -1.29 2 3.92 3.92 0 0 1 -.71 1.7c-.15.16-.21.64-.51.45a2.61 2.61 0 0 1 0-.88c.07-.42 0-.92.06-1.35a4.54 4.54 0 0 1 .07-.95 1.54 1.54 0 0 0 0-1c-.08-.26-.73-.53-1-.72a5.25 5.25 0 0 0 -.8-.33c-.27-.09-.65.06-.73 0s-.15.61-.15.61a2 2 0 0 1 .64 1.26 14.28 14.28 0 0 1 -.18 2.8c-.15 1-.32 1.86-.53 2.74a6.21 6.21 0 0 1 -.29 1.52c-.18.08-.3.34-.48.42-.8.36-.85.54-1.77.95-1.25.56-1.77.76-3.15 1.37 0-.47-.15-2.71-.14-3.13 1.43-1.06 2.25-1.65 3.6-2.82a.63.63 0 0 0 .15-.6c-.05-.23-.31-.43-.39-.59-.35-.8-.62-.79-1.29-1.31a8.65 8.65 0 0 1 -1.33-1.24 16.72 16.72 0 0 1 -1.06-1.33 4.82 4.82 0 0 1 0-.51c0-.19 0-.33 0-.53 0-1 0-1.23.29-1.45s-.13-.66-.74-.88a.88.88 0 0 0 -.91.11 1.73 1.73 0 0 0 -.74 1 1.64 1.64 0 0 0 0 1 2.23 2.23 0 0 1 .26.69c.05.7.11 1 .17 1.7a34.42 34.42 0 0 1 .14 3.93 19.25 19.25 0 0 1 -5.19 2.52 1.72 1.72 0 0 1 -1 .05l-.42-.09-.31-.08s0 0 0 0a2.68 2.68 0 0 0 .18.28c.45.7.76.66 1.44 1a7.51 7.51 0 0 0 2.07 1 3.8 3.8 0 0 0 2.43-.22c.27-.16.77-.53 1.05-.68 0 .42.1 2.6.09 2.94a18.18 18.18 0 0 1 -1.78 1c-.87.49-1.66.88-2.57 1.29a.48.48 0 0 1 -.66-.24 1.59 1.59 0 0 1 0-.78 2.38 2.38 0 0 1 .06-.37s0-.05-.06 0a3.19 3.19 0 0 0 -.26.26 3.66 3.66 0 0 0 -.71 1.2.56.56 0 0 0 .22.68 2.25 2.25 0 0 0 1.4.49c.36 0 .82.08 1.18.09a1.47 1.47 0 0 0 1-.37c1.28-1 2.55-1.79 3.75-2.59a8.94 8.94 0 0 1 -1.4 2.43 6.91 6.91 0 0 1 -1.19 1.16 2.94 2.94 0 0 1 -.55.3 1.52 1.52 0 0 0 -.59.23.52.52 0 0 0 -.19.71 1.83 1.83 0 0 0 .34.39c.25.24.7.34.9.16a3.48 3.48 0 0 1 1.17-.5l1-.32a5.21 5.21 0 0 1 -1.31 1.2c-.2.14-.72.52-.93.65a8.32 8.32 0 0 1 -1.41.79 3.18 3.18 0 0 1 -1.06-.13 5.85 5.85 0 0 0 -1.33-.2.76.76 0 0 0 -.8.56 2.14 2.14 0 0 0 -.14 1.76c.19.33.26.58.68.67a1.24 1.24 0 0 0 .89-.1 5.28 5.28 0 0 1 2.13-.61 5.75 5.75 0 0 1 1.55 0 15.43 15.43 0 0 1 2.24.39 13 13 0 0 1 1.72.6c.45.19 2.67 1.08 3.12 1.29 2.57 1.28 3.56 1.69 5 2.35 1.26.55 4.67 2 6.78 1s3.85-.8 7.15-2.69a3.85 3.85 0 0 0 1.76-1l.37-.4c0-.14.13-.21-.12-.17zm-15.83-4.93a1.65 1.65 0 0 1 -.08.45 3.1 3.1 0 0 0 -.71-.44.58.58 0 0 0 -.43 0c-.25.07-.37.09-.54.15a9.65 9.65 0 0 1 -1 .3.59.59 0 0 1 -.35 0 .3.3 0 0 0 -.16 0 .58.58 0 0 1 -.11-.2 3.24 3.24 0 0 1 0-.62c0-.21 0-.42 0-.63a2.73 2.73 0 0 1 -.13-.51c0-.48.05-1 .11-1.41l.1.16a1.92 1.92 0 0 0 1 .76c.17.07.35.12.52.18s.38.06.39.21a.25.25 0 0 1 -.1.23.82.82 0 0 1 -.35.2c-.05 0-.05 0 0 0a3.84 3.84 0 0 0 .46-.11c.1 0 .16 0 .35-.09l.37-.11a2.89 2.89 0 0 0 .44 0 1 1 0 0 0 .35-.1 13.31 13.31 0 0 1 -.13 1.58zm-2.41-5.25a2.33 2.33 0 0 0 .64.26 1.61 1.61 0 0 0 .87-.05 2.42 2.42 0 0 1 .71-.14c.26 0 .37.18.37.42v2a2.64 2.64 0 0 0 -.35-.23 4.37 4.37 0 0 0 -1.63-.42 1.13 1.13 0 0 0 -.76.15 1.67 1.67 0 0 1 -.67.29h-.19a8.59 8.59 0 0 1 .51-2.1c.07-.16.14-.32.22-.48a.73.73 0 0 0 .28.3zm-7.95-9.42c0-.45 0-1.75 0-2.2a12.87 12.87 0 0 0 1 1.78 1.12 1.12 0 0 1 .28.65.42.42 0 0 1 -.24.39 5.22 5.22 0 0 1 -1 .43 9.38 9.38 0 0 1 -.04-1.05z"/><path d="m41.76 20.38a2.56 2.56 0 0 0 2 .59 5.48 5.48 0 0 0 2.14-.88 12.22 12.22 0 0 1 0 1.6.69.69 0 0 1 0 .2 5.24 5.24 0 0 1 -1.25-.26l-.51-.21s-.06 0 0 0l.37.38c.26.27.76.71 1 1a6 6 0 0 0 -.87 1.42c-.48 1-.87 1.91-1.26 2.94-.33.87-.67 1.72-1 2.59a31 31 0 0 0 -1.2 3.6 2.45 2.45 0 0 0 -.18.8 2 2 0 0 0 .29 1.06 4.32 4.32 0 0 1 .34.53.5.5 0 0 0 .21.36c.15.13.79.17.93-.26a15.92 15.92 0 0 0 .6-2.28c.3-1.45.65-2.8 1.08-4.23a.94.94 0 0 0 .89.07 2.4 2.4 0 0 0 .56-.38s.08-.08.11-.08-.01.06-.01.06a.53.53 0 0 1 .07.46 4.23 4.23 0 0 1 -.7 1.17 4.64 4.64 0 0 1 -.62.71 3.72 3.72 0 0 0 -.59.6.38.38 0 0 0 .1.53 1.12 1.12 0 0 0 .44.09 1.26 1.26 0 0 1 .33 0h.06a1 1 0 0 1 .47.59 1 1 0 0 1 -.2.64 1.83 1.83 0 0 1 -.47.34 4.87 4.87 0 0 0 -.45.27s-.06 0 0 0l.54-.1c.36-.07.68.08 1 0a2.41 2.41 0 0 0 1.39-1 1.18 1.18 0 0 0 -.21-1.2 2 2 0 0 0 -1-.58 2.17 2.17 0 0 0 -1.34.19 10.07 10.07 0 0 0 1.89-1.78 2.65 2.65 0 0 0 .5-1.69 1.44 1.44 0 0 0 -.73-1.17c-.37-.19-.8.11-1.1.32a3.81 3.81 0 0 1 -.85.44c.1-.3.2-.64.32-.94a2.41 2.41 0 0 1 .62-.9 2.93 2.93 0 0 1 .52-.41 2.81 2.81 0 0 1 1.28-.46c.29 0 .32.45.33.69 0 1.49.07 3 .08 4.48a43.75 43.75 0 0 1 -.22 5 3.19 3.19 0 0 1 -2 2.37 1.79 1.79 0 0 1 -1.43 0 1.39 1.39 0 0 1 -.76-.73.22.22 0 0 0 -.1-.11.36.36 0 0 1 -.05-.19s-.06 0 0 0a1.62 1.62 0 0 0 0 .22c0 .13 0 .22.05.28a1.58 1.58 0 0 0 .26.52 2.7 2.7 0 0 0 2.07 1 3.54 3.54 0 0 0 2.2-.46 3.24 3.24 0 0 0 1.7-2 34.33 34.33 0 0 0 .34-3.66 43.76 43.76 0 0 0 -.14-7.24 1.82 1.82 0 0 0 -1.18-1.29 2.26 2.26 0 0 0 -1.56 0 4.07 4.07 0 0 0 -.86.53 10.5 10.5 0 0 0 -2 2.09 23.67 23.67 0 0 1 1.14-2.2 7.12 7.12 0 0 1 1.09-1.13c.91 0 .91-.62.94-1.1.51-.63 1.14-1.36 1.67-2a24.11 24.11 0 0 0 2-2.31 5.68 5.68 0 0 0 .36-.62c.14-.35-.29-.85-.52-1a2.62 2.62 0 0 0 -1-.56.87.87 0 0 0 -.78.15 1.23 1.23 0 0 0 -.27.45c0 .11-.07.24-.12.36a6 6 0 0 1 -1.49 1.43c0-.93 0-1.86 0-2.79a2.9 2.9 0 0 1 .17-1.09 1.1 1.1 0 0 0 .07-1.21c-.1-.1-.23-.18-.34-.28a3.87 3.87 0 0 0 -.43-.49 7.16 7.16 0 0 1 -.83-.62l-.26-.24s0 0 0 0a1.34 1.34 0 0 1 0 .34 2.13 2.13 0 0 0 .07.44 3.77 3.77 0 0 1 .06.89 19.62 19.62 0 0 0 .18 2.29 13.49 13.49 0 0 1 .23 2.1v1.15a3.58 3.58 0 0 1 -1.85.49 4.17 4.17 0 0 1 -1.48-.27 4 4 0 0 1 -1.16-.74 1.29 1.29 0 0 1 -.45-.7c-.06-.22-.12-.42-.16-.65s-.08-.1-.1 0 0 .43-.06.66a5.67 5.67 0 0 0 0 1.09 2.88 2.88 0 0 0 1.08 1.92zm5.38-.83a11.33 11.33 0 0 0 1.51-2c.06-.1.06 0 0 0a8.24 8.24 0 0 1 -1.54 3.45c0-.3.03-1.17.03-1.45z"/><g fill-rule="evenodd"><path d="m32.37 81.06c.75-.22 2.37-1.07 1.82-2s-3.48-3.12-4.26-1.6a.86.86 0 0 0 .39.92c.55.4-.67.7-1.28.9a20.16 20.16 0 0 1 -3.44 1c-.3-.12.83-.68 1.29-1.24s2.48-2.6 2.5-3.28 0-2.27-1-2.7-1.14-.28-1.14-.28-.37.46-.22.85-4 6.07-5.25 7.2.42 3 1.09 3 7.59-3.53 7-2.61a14.71 14.71 0 0 1 -4.52 3.61c-1.55.67-1.43 2.6-1.23 3.2s1.52 2.28 1.86 2.2a1.89 1.89 0 0 0 1.17-.47c.34-.38 2 .07 2.22.16a8.08 8.08 0 0 0 3-.15c.35-.3.67-1.78-.14-1.85s-1.11-.11-1-.34a9.32 9.32 0 0 1 1.27-1.65c.27-.16 1-.86.23-1.39a3.35 3.35 0 0 0 -2.09-.54 14.42 14.42 0 0 1 -2.3.11c-.24-.05 3.29-2.84 4.03-3.05zm-3.72 4.76c-1.79 1.13-1.52 1.76-2 1.75s-.36-1.44-.36-1.57-.06-.39-.06-.39a10.19 10.19 0 0 1 2.42.21z"/><path d="m50.31 75.24a3.24 3.24 0 0 0 -1.86-.14 9.29 9.29 0 0 0 -1.79.54c-.11.15-.35 0-.35-.29s-.07-2.58-.09-2.65-.15-.66-1.33-.5a1.53 1.53 0 0 0 -.48.33c-.18.22-.45.5-.49.56s-.38.58 0 .58.5-.13.61.67a.45.45 0 0 1 .17.26c0 .14-.14.79 0 1s.49.72-.9 1.17a5.44 5.44 0 0 0 -2.54 1.76 1 1 0 0 1 -.85 0c-.54-.18-.7 0-.7 0s-.41-.32-.57-.14-.46.35.05 1.36.81 2.33 2.81 2.74a1.82 1.82 0 0 1 .29.34 1.74 1.74 0 0 0 1.21.36c.22-.11 1.23-1 1.52-.78s0 0 0 0a2.86 2.86 0 0 1 .1.86c0 .22-.16.64-.06.72s-.06.75-.07.83a16.8 16.8 0 0 0 .15 3.31c.2.36.18 1.46.44 1.7s-.35.66-.44.71.18.42.36.14.34-.67.46-.65a2.47 2.47 0 0 0 .6-1.72c0-.86.08-2.9 0-3.46s.22-1.61.13-2.36 0-1.12.64-1.23a1.58 1.58 0 0 0 .81-.24c.15-.06.64 0 .8-.58s-.55-1.16-1.14-1.26.16-.56.16-.56a4.05 4.05 0 0 1 .91-.45 3.93 3.93 0 0 0 1.13-.64 5.65 5.65 0 0 0 1.11-.92 1.08 1.08 0 0 0 -.8-1.37zm-5.94 4.66c-.61.36-1.19.91-1.5.85s-1-1.55-1-1.55.61-.1.9-.18a2 2 0 0 1 .73-.1 6 6 0 0 0 1.32-.22 1.08 1.08 0 0 1 -.45 1.2z"/><path d="m54.57 117.64c-.14-.74-3.09-2.2-5.25-2.62a14.33 14.33 0 0 1 -5.17-2.02c-1.75-1-5.43-4-5.6-4.65s3.62-2.59 4.27-2.52a11.78 11.78 0 0 0 2.76-.15c.52-.16.47-.85.22-1.2a5.93 5.93 0 0 0 -3.57-.88 4 4 0 0 1 -2.64-.75c-.3-.15-.52-.52-.22-.55a5.56 5.56 0 0 0 1.54-1.13c.21-.22.84-.81.84-.81 1.38-.65 2-1.68 1.81-2.33s-1.3-1-2.44-1.2a7.32 7.32 0 0 0 -3.43 1 25.66 25.66 0 0 1 -3.39 1.8.87.87 0 0 0 -.73.92c0 .31.51.57.59.72s.49.14 1.45.44.75 1.88.75 1.88a7.16 7.16 0 0 1 -.3 2c-.29.81-1.92 1.39-4.39 2.34s-1.39 1.46-1 1.75 2.57 1.18 3.4 1.64.39 1.1.06 1.34a20.85 20.85 0 0 0 -1.8 2.59c-.6.91-1.38 1.24-2.94 1.93s-.62 1.3-.19 1.45 2.44-.4 4.56-1.45 2.57-4.12 2.57-4.52.89-2.24 1.19-2.24 3 4.19 3 4.19 4.36 4.85 8.79 5.15 5.4-1.39 5.26-2.12zm-15.3-13.42c.13-.17.47-.74.47-.74l.15-.08c.14-.08.07.13.12.3s.32 0 .32.24-.15.17-.53.35-.66.11-.53-.07z"/></g><path d="m24.85 105.27c-.26-1-1.63-1.46-2.09-1.56a.8.8 0 0 0 -.23 0 11.54 11.54 0 0 0 -2.38.54l-.95.27-.21.05a1.68 1.68 0 0 0 .21-.37.59.59 0 0 0 0-.46 5.9 5.9 0 0 1 .93-.45c.43-.19 1-.48.89-.94-.13-.63-1.44-.76-1.69-.76s-.21-.1-.36-.51a2.92 2.92 0 0 0 -.6-1 1 1 0 0 0 -.17-.13 2.78 2.78 0 0 1 1.11-.24 1.53 1.53 0 0 1 .6.11 1.56 1.56 0 0 0 .57.1c.72 0 1.42-.42 1.51-.91 0-.15 0-.54-.57-.77a4.79 4.79 0 0 0 -1.77-.42 3.92 3.92 0 0 0 -2.44 1c-.2.16-.34.27-.45.34a1.11 1.11 0 0 0 -.07-1 2.29 2.29 0 0 1 -.17-.23c-.58-.8-1.91-2.67-3.68-2.67a2.47 2.47 0 0 0 -1.17.29l-.11.05v.13a2.27 2.27 0 0 0 .6 1.9 1.6 1.6 0 0 1 .56 1.74 1.67 1.67 0 0 1 -.08.2 2.93 2.93 0 0 1 -1.64 1.68 11.36 11.36 0 0 1 -3.89 1.16h-.17a.28.28 0 0 0 -.05-.2.34.34 0 0 0 -.27-.13c-.39 0-1.54.88-1.55 1.49 0 .16.07.53.76.55h.17a8.52 8.52 0 0 0 2.26-.39 4.8 4.8 0 0 1 1-.2h.1a.66.66 0 0 1 .29.38c0 .15-.06.44-.51 1l-.14.17c-.8 1-.95 1.18-1.36 3.47-1 5.65-3.17 9.65-6.37 11.89l-1.2.84 1.42-.38c.45-.13 4.4-1.23 5.09-2.66.51-1 1.93-6 2.88-9.32.3-1 .53-1.85.65-2.24l.09-.3c.11-.34.21-.67.3-1a1.88 1.88 0 0 0 1.16.85.66.66 0 0 1 .33.15s-.12.2-.65.46a2.69 2.69 0 0 0 -1.43 1.84.27.27 0 0 0 .26.21.38.38 0 0 0 .3-.2 3.36 3.36 0 0 1 1.31-.63c.38-.13.81-.28 1.2-.45a3.66 3.66 0 0 1 .91-.37h.17.13a.33.33 0 0 1 0 .17.7.7 0 0 1 -.33.38l-.29.1a3.37 3.37 0 0 0 -1.27.64 1.41 1.41 0 0 1 -.93.31h-.2a1.32 1.32 0 0 0 -1 .55 2.37 2.37 0 0 0 0 1.88 3.94 3.94 0 0 1 .11.44c0 .66 1.59 2.42 2.42 3.2q-.33.21-1.17.66l-.7.34c-.84.4-1.5.72-1.55 1.25s-.18 1.79.76 2.39a3.48 3.48 0 0 0 1.53.6.69.69 0 0 0 .52-.19.85.85 0 0 0 .2-.64 7.63 7.63 0 0 0 -.17-1.26c-.08-.43-.19-1-.08-1.16l.25-.34c.48-.63.77-1 .93-1.28a1.1 1.1 0 0 0 .4.08c.83 0 1.59-1 2-1.53l.11-.13a1.39 1.39 0 0 1 .39-.38.58.58 0 0 1 0 .19 1.72 1.72 0 0 0 .54 1.09 3.8 3.8 0 0 0 2.28 1.4h.16a.44.44 0 0 0 -.29.34c0 .33.39.39.52.41a4.76 4.76 0 0 1 2.32 2.43 1.49 1.49 0 0 0 1.44.93 2.38 2.38 0 0 0 1.41-.48.56.56 0 0 0 .15-.41 3.69 3.69 0 0 0 -1.21-2.22c-.93-.88-3.92-1.13-4.05-1.14h-.1c1.15-.62 3.24-6.31 3.26-6.37.31-.87-2.19-3.27-2.22-3.3a1.33 1.33 0 0 0 -.83-.19 7.06 7.06 0 0 0 -2.35.46l-.61.2.13-.07a7.83 7.83 0 0 1 3.86-.84c.49 0 1 0 1.51.08a4.78 4.78 0 0 1 1.77.76 1.78 1.78 0 0 0 .78.36.42.42 0 0 0 .32-.19c.2-.2.18-.64-.06-1.49zm-11.15 5.44-.15.09a1.12 1.12 0 0 0 -.7.8.58.58 0 0 0 .12.49.82.82 0 0 0 .65.3.88.88 0 0 0 .54-.18 1.17 1.17 0 0 1 -.13.4.53.53 0 0 1 -.43.3.59.59 0 0 1 -.4-.2c-.95-.95-1.29-1.63-1-2 .26-.46.76-1.15 1.08-1.23a3.29 3.29 0 0 0 .52-.21l.18-.08a.15.15 0 0 0 0 .06c.09 1.06-.14 1.37-.28 1.46zm.09-5.56s-.1-.07 0 0 3.21-.71 3.69-.84c0 0 0 .16-.05.21a32.76 32.76 0 0 0 -3.58 1.12 1.23 1.23 0 0 0 -.06-.49zm4.52 2.37a.13.13 0 0 1 .11 0c.06.07.25.36.13 1.37a11.35 11.35 0 0 1 -1.19 3.71c-.08.12-.14.18-.16.21s-.11-.12-.17-.18l-.05-.06a.87.87 0 0 1 -.13-.15.61.61 0 0 0 -.56-.29c-.14 0-.32 0-.61.06h-.15a3.3 3.3 0 0 1 .54-.69 1.26 1.26 0 0 1 .52-.37 4.82 4.82 0 0 0 .54-.28.7.7 0 0 0 .39-.79c-.12-.42-.63-.69-1.31-.69-.12 0-.21 0-.23-.06s.08-.47.24-.71v-.07-.08c0-.15.7-.43 1-.56s.54-.23.78-.35a.48.48 0 0 1 .31-.02zm-7.83-4.52a3.37 3.37 0 0 1 2.12-1.35.5.5 0 0 1 .29.07 5 5 0 0 0 2.45.82 1.42 1.42 0 0 0 1.53-1.15 1.84 1.84 0 0 1 .34-.75c-.06.24-.11.52-.16.8s-.06.33-.09.47c-.13.6-1.05.93-2.1 1.3l-.33.11a2 2 0 0 1 -.62.14c-.33 0-.46-.18-.72-.57l-.27-.39a.6.6 0 0 0 -.44-.27c-.42 0-.46.55-.52 1.38 0 .33-.05.66-.1 1-.07.47-.29.53-.48.53a1.2 1.2 0 0 1 -.38-.14h-.21a.37.37 0 0 0 -.25.08c.26-1.08.35-1.82-.06-2.08z"/><path d="m55.68 102.24a23.38 23.38 0 0 0 -2.68 2.34c-.15.39-1.08.53-.87 1.28a6.94 6.94 0 0 0 1.07 2.83c.66.71 1.16 1 1.63.55s1.27-3.86 1.43-4.49a5.3 5.3 0 0 0 .24-1.92c-.16-.16-.44-.72-.82-.59z" fill-rule="evenodd"/><path d="m71.23 99.92c-1.39-.38-5.63.18-5.91.17s-.32-.37-.32-.37c-1.27-3.42-2.07-3.76-2.7-4s-.95.9-.93 1.49a17 17 0 0 1 -.14 3.88c-.26.41-1.51.69-2 .78s-1 1-.8 1.09.24.2.59.59 1.42.19 1.42.19a9.91 9.91 0 0 1 3-1.08c.25 0 .89.13.57.31s-1.79 1.24-2 1.43a10 10 0 0 1 -2.44 1.94c-1.67 1-1.23 1.67-1.22 3a3.1 3.1 0 0 0 1.5 2.47c.31.08.34-.13-.44 2.13a6.63 6.63 0 0 0 0 4.85 2.81 2.81 0 0 0 2.59 1.01 5.88 5.88 0 0 0 .95-.65 39.58 39.58 0 0 1 4.22 0c.29 0 1.44.56 2.08.07a1.41 1.41 0 0 0 .17-1.81c-.25-.32-.22-.8-.09-.8a5.34 5.34 0 0 0 1.79-1.87c.84-1.24.15-2.19-.72-3s-3-.64-4.17-.64a16.36 16.36 0 0 0 -3.73 1s-.48-.12.76-1.41a3 3 0 0 1 2.79-1c.31 0 1-.73 1.12-1.19s-.3-.34-.48-.76 1.15-.71 1.77-1.76-.42-1.93-1.45-2.14a13.34 13.34 0 0 0 -4 .29c-.47.13.48-.71 1.12-1a1.5 1.5 0 0 0 .8-.83s-.1.19-.48.24-.25-.15.32-.84 3-1.16 3.31-1.12-.21.26-.43.34-1.12.5-.93.56a5.59 5.59 0 0 0 1 0 8.19 8.19 0 0 1 2.71 0 1.7 1.7 0 0 0 1.9-.47c.3-.26.29-.7-1.1-1.09zm-8.3 14.26s2.73.3 2.87 0 .59-.39.59-.21-.24 1-.48 1.1-.67.73-.91.79-1.27.26-1.92.45-1 .24-1.54-.79.31-2.8.31-2.8c.14-.32.16.16.16.78s.92.68.92.68zm1.83-7.66a2.45 2.45 0 0 1 -1.43 1.39c-.75.22-1.91.6-2 1s-.16.63-.32.39-.48-1.43-.64-1.57.37-1.39.8-1.3a2.16 2.16 0 0 0 1 .1c.45-.11 2.68-.34 2.59-.01zm4.24-6.11c-.18 0-.18 0-.4.16s-.08-.32-.08-.32h.4c.14-.01.28.18.08.16z" fill-rule="evenodd"/><path d="m71.57 100.22s-.8 2.43-1.32 2.61c0 0 2.39-.44 2.26-1.56s-.94-1.05-.94-1.05z" fill-rule="evenodd"/></g></svg>