<?xml version="1.0" encoding="UTF-8"?>
<svg id="b" data-name="圖層 2" xmlns="http://www.w3.org/2000/svg" width="242.14" height="242.14" viewBox="0 0 242.14 242.14">
  <g id="c" data-name="圖層 2">
    <g>
      <circle cx="121.07" cy="121.07" r="119.07" style="fill: #4d4d4d;"/>
      <circle cx="121.07" cy="121.07" r="119.07" style="fill: none; stroke: #cc9533; stroke-miterlimit: 10; stroke-width: 4px;"/>
      <circle cx="121.05" cy="121.07" r="105.3" style="fill: none; stroke: #cc9533; stroke-miterlimit: 10; stroke-width: 4px;"/>
      <path d="M163.4,121.33c-3.82,9.37-8.96,17.33-15.44,23.87,17.76,5.78,34.2,11.81,45.82,17.45l-14.61,13.48c-11.29-5.9-28.05-12.58-46.65-19.12-17.1,10.14-40.5,15.79-71.88,19.25-1.83-4.11-8.13-11.55-12.28-15.4,26.23-1.8,46.15-5.26,60.92-11.42-14.28-4.62-29.05-8.73-42.16-11.94,4.32-4.62,8.96-10.14,13.45-16.17H48.2v-14.37h42.33c4.48-6.8,8.13-13.6,10.96-19.89l23.07,3.34c-2.66,5.26-5.81,10.91-9.3,16.56h29.22c.83-3.59,1.33-7.57,1.83-11.68l23.9,1.15v-12.45H71.44v14.37h-20.09v-28.49h58.93c-1.83-3.72-3.98-7.7-5.81-11.17l22.24-3.98c2.82,4.62,6.31,10.4,8.63,15.14h55.94v28.49h-20.92c-.66,2.95-1.33,5.78-1.99,8.6h26.06v14.37h-31.04Zm-57.6,0c-2.49,3.34-4.81,6.42-7.3,9.5,9.3,2.31,18.76,5.01,28.55,7.83,5.31-4.75,9.46-10.52,12.62-17.33h-33.86Z" style="fill: #f2bf57;"/>
    </g>
  </g>
</svg>