<svg xmlns="http://www.w3.org/2000/svg" width="394.39" height="99.2" viewBox="0 0 394.39 99.2">
  <defs>
    <style>
      .cls-1 {
        fill: #fff;
        stroke: #da4e36;
        stroke-width: 3.39px;
      }

      .cls-1, .cls-2 {
        stroke-miterlimit: 10;
      }

      .cls-2 {
        fill: none;
        stroke: #e8382f;
        stroke-width: 0.81px;
      }

      .cls-3 {
        fill: #da4e36;
      }
    </style>
  </defs>
  <g id="圖層_2" data-name="圖層 2">
    <g id="圖層_1-2" data-name="圖層 1">
      <circle class="cls-1" cx="49.6" cy="49.6" r="44.32"/>
      <path class="cls-2" d="M60.74,8a5.67,5.67,0,0,1-3.36-2.59c-1.52-2.6-3.75-5-7.78-5-2.81,0-6.07,1-7.78,3.19a.55.55,0,0,0,0,.66,1.56,1.56,0,0,1,.3,1.39C41.9,6.49,41,7,40.17,7.37A8.22,8.22,0,0,1,38.46,8a5.7,5.7,0,0,1-4.2-.56C31.65,6,28.5,5,25,7c-2.45,1.38-4.76,3.9-5.15,6.65a.56.56,0,0,0,.33.58,1.56,1.56,0,0,1,1,1,3.36,3.36,0,0,1-.83,2.46,7.44,7.44,0,0,1-1.15,1.43,5.66,5.66,0,0,1-3.91,1.62c-3,0-6.22.75-8.26,4.22-1.43,2.42-2.17,5.75-1.13,8.33a.56.56,0,0,0,.58.34,1.53,1.53,0,0,1,1.35.42,3.39,3.39,0,0,1,.51,2.56A8,8,0,0,1,8,38.46a5.72,5.72,0,0,1-2.59,3.37c-2.6,1.51-5,3.75-5,7.78,0,2.81,1,6.07,3.19,7.78a.55.55,0,0,0,.66,0,1.53,1.53,0,0,1,1.39-.3c.84.22,1.3,1.13,1.72,1.94A8.44,8.44,0,0,1,8,60.74a5.69,5.69,0,0,1-.56,4.2C6,67.56,5,70.7,7,74.2c1.38,2.45,3.9,4.76,6.65,5.14a.55.55,0,0,0,.58-.33,1.54,1.54,0,0,1,1-1,3.35,3.35,0,0,1,2.46.82A8.29,8.29,0,0,1,19.17,80,5.7,5.7,0,0,1,20.8,84c0,3,.74,6.21,4.21,8.26,2.42,1.42,5.76,2.16,8.33,1.13a.58.58,0,0,0,.34-.58,1.49,1.49,0,0,1,.43-1.35,3.35,3.35,0,0,1,2.55-.52,7.57,7.57,0,0,1,1.81.28,5.75,5.75,0,0,1,3.36,2.58c1.51,2.6,3.76,5,7.78,5,2.81,0,6.07-1,7.78-3.19a.57.57,0,0,0,0-.67,1.53,1.53,0,0,1-.3-1.39c.22-.84,1.13-1.29,1.94-1.71a7.78,7.78,0,0,1,1.71-.67,5.67,5.67,0,0,1,4.21.55c2.61,1.5,5.75,2.47,9.26.48,2.44-1.38,4.75-3.9,5.14-6.65A.58.58,0,0,0,79,85a1.57,1.57,0,0,1-1-1,3.38,3.38,0,0,1,.83-2.47A8.2,8.2,0,0,1,80,80,5.65,5.65,0,0,1,84,78.41c3,0,6.22-.74,8.26-4.21,1.42-2.43,2.16-5.76,1.13-8.34a.55.55,0,0,0-.58-.32,1.58,1.58,0,0,1-1.35-.44,3.35,3.35,0,0,1-.52-2.55,8.73,8.73,0,0,1,.28-1.81,5.74,5.74,0,0,1,2.58-3.37c2.6-1.51,5-3.74,5-7.77,0-2.81-1-6.07-3.19-7.78a.52.52,0,0,0-.66,0,1.59,1.59,0,0,1-1.39.3c-.84-.23-1.3-1.14-1.72-1.95a8.44,8.44,0,0,1-.67-1.71,5.65,5.65,0,0,1,.56-4.2c1.49-2.62,2.46-5.76.48-9.26-1.39-2.45-3.9-4.76-6.66-5.14a.54.54,0,0,0-.57.33,1.54,1.54,0,0,1-1,.95,3.38,3.38,0,0,1-2.47-.82A7.45,7.45,0,0,1,80,19.17a5.58,5.58,0,0,1-1.62-3.92c0-3-.75-6.21-4.22-8.25-2.43-1.43-5.76-2.17-8.34-1.14a.56.56,0,0,0-.32.59A1.54,1.54,0,0,1,65.1,7.8a3.35,3.35,0,0,1-2.55.51A8.09,8.09,0,0,1,60.74,8Z"/>
      <path class="cls-3" d="M33.89,66a40.71,40.71,0,0,1-9.4,14.33A38.31,38.31,0,0,0,18.25,76a29.49,29.49,0,0,0,8.22-11.77Zm12.82-2.36H22.39V21.47H46.71Zm-7.63-36H29.75v6h9.33Zm0,11.77H29.75v6.11h9.33Zm0,11.89H29.75v6.11h9.33Zm2.57,12.75a47.82,47.82,0,0,1,7.23,10.52L42.3,77.93a51.49,51.49,0,0,0-7-11.11ZM80.36,41.58h-7.1V71.42c0,3.94-.79,6-3,7.3s-5.53,1.64-10.32,1.64a28.72,28.72,0,0,0-2.63-7.69c3,.13,5.91.13,6.9.13s1.38-.39,1.38-1.38v-20C61.69,58.87,56.89,65.44,51.7,70a36.31,36.31,0,0,0-5.32-5.72C53,59.33,59.06,50.52,62.87,41.58H48.42V34.36H65.57V19.11h7.69V34.36h7.1Z"/>
      <circle class="cls-1" cx="148" cy="49.6" r="44.32"/>
      <path class="cls-2" d="M159.13,8a5.73,5.73,0,0,1-3.36-2.59c-1.51-2.6-3.75-5-7.77-5-2.81,0-6.07,1-7.78,3.19a.52.52,0,0,0,0,.66,1.55,1.55,0,0,1,.29,1.39c-.22.84-1.13,1.3-1.94,1.72a8.44,8.44,0,0,1-1.71.67,5.73,5.73,0,0,1-4.21-.56C130,6,126.9,5,123.4,7c-2.45,1.38-4.76,3.9-5.15,6.65a.57.57,0,0,0,.34.58,1.54,1.54,0,0,1,1,1,3.31,3.31,0,0,1-.83,2.46,7.78,7.78,0,0,1-1.14,1.43,5.69,5.69,0,0,1-3.92,1.62c-3,0-6.22.75-8.25,4.22-1.43,2.42-2.17,5.75-1.14,8.33a.58.58,0,0,0,.59.34,1.5,1.5,0,0,1,1.34.42,3.39,3.39,0,0,1,.52,2.56,8,8,0,0,1-.28,1.8,5.74,5.74,0,0,1-2.58,3.37c-2.6,1.51-5,3.75-5,7.78,0,2.81,1,6.07,3.19,7.78a.55.55,0,0,0,.66,0,1.55,1.55,0,0,1,1.4-.3c.83.22,1.29,1.13,1.72,1.94a8.41,8.41,0,0,1,.66,1.71,5.6,5.6,0,0,1-.56,4.2c-1.48,2.62-2.45,5.76-.47,9.26,1.38,2.45,3.89,4.76,6.65,5.14a.54.54,0,0,0,.57-.33,1.57,1.57,0,0,1,1.06-1,3.37,3.37,0,0,1,2.46.82A8.69,8.69,0,0,1,117.57,80,5.69,5.69,0,0,1,119.19,84c0,3,.74,6.21,4.22,8.26,2.42,1.42,5.75,2.16,8.33,1.13a.57.57,0,0,0,.33-.58,1.54,1.54,0,0,1,.43-1.35,3.37,3.37,0,0,1,2.55-.52,7.57,7.57,0,0,1,1.81.28,5.74,5.74,0,0,1,3.37,2.58c1.51,2.6,3.75,5,7.77,5,2.82,0,6.07-1,7.78-3.19a.55.55,0,0,0,0-.67,1.59,1.59,0,0,1-.3-1.39c.23-.84,1.14-1.29,2-1.71a7.41,7.41,0,0,1,1.71-.67,5.64,5.64,0,0,1,4.2.55c2.62,1.5,5.76,2.47,9.26.48,2.45-1.38,4.75-3.9,5.14-6.65a.55.55,0,0,0-.33-.58,1.55,1.55,0,0,1-.95-1,3.33,3.33,0,0,1,.82-2.47A8.2,8.2,0,0,1,178.43,80a5.69,5.69,0,0,1,3.92-1.62c3,0,6.21-.74,8.26-4.21,1.42-2.43,2.16-5.76,1.13-8.34a.55.55,0,0,0-.58-.32,1.58,1.58,0,0,1-1.35-.44,3.31,3.31,0,0,1-.52-2.55,8.09,8.09,0,0,1,.27-1.81,5.76,5.76,0,0,1,2.59-3.37c2.6-1.51,5-3.74,5-7.77,0-2.81-1-6.07-3.18-7.78a.54.54,0,0,0-.67,0,1.59,1.59,0,0,1-1.39.3c-.84-.23-1.29-1.14-1.71-1.95a7.92,7.92,0,0,1-.68-1.71,5.75,5.75,0,0,1,.56-4.2c1.5-2.62,2.47-5.76.48-9.26-1.38-2.45-3.9-4.76-6.65-5.14a.55.55,0,0,0-.58.33,1.52,1.52,0,0,1-1.05.95,3.35,3.35,0,0,1-2.46-.82,7.84,7.84,0,0,1-1.43-1.15,5.67,5.67,0,0,1-1.62-3.92c0-3-.75-6.21-4.21-8.25-2.43-1.43-5.77-2.17-8.34-1.14a.57.57,0,0,0-.33.59,1.54,1.54,0,0,1-.44,1.35,3.33,3.33,0,0,1-2.54.51A8.26,8.26,0,0,1,159.13,8Z"/>
      <path class="cls-3" d="M141.23,32.52a63.18,63.18,0,0,1-7.1,13.86c2.56,2.3,7,6.84,8.15,8.15L137.87,61c-1.11-1.71-2.89-4.08-4.66-6.44V80.23H126V56.17a53.73,53.73,0,0,1-6.9,5.72,32.82,32.82,0,0,0-2.76-8c6.12-3.54,12-10,15.78-16.95H118.09v-7h10.85a74.47,74.47,0,0,0-4.87-7.76l6.11-3.28a55.43,55.43,0,0,1,5.52,8.21l-4.6,2.83h5.06l1.25-.33Zm35.29-4.21V64.13h-7.36V61.76h-6V80.23h-7.63V61.76h-5.91v3h-7.1V28.31h13V18.85h7.63v9.46Zm-26.88,7v6.3h5.91v-6.3Zm5.91,19.58V48.42h-5.91v6.44Zm7.63-19.58v6.3h6v-6.3Zm6,19.58V48.42h-6v6.44Z"/>
      <circle class="cls-1" cx="246.39" cy="49.6" r="44.32"/>
      <path class="cls-2" d="M257.53,8a5.67,5.67,0,0,1-3.36-2.59c-1.52-2.6-3.75-5-7.78-5-2.81,0-6.07,1-7.78,3.19a.55.55,0,0,0,0,.66,1.59,1.59,0,0,1,.3,1.39c-.22.84-1.14,1.3-1.95,1.72a8.22,8.22,0,0,1-1.71.67,5.7,5.7,0,0,1-4.2-.56C228.44,6,225.29,5,221.8,7c-2.45,1.38-4.76,3.9-5.15,6.65a.56.56,0,0,0,.33.58,1.56,1.56,0,0,1,1,1,3.36,3.36,0,0,1-.83,2.46A7.44,7.44,0,0,1,216,19.17a5.66,5.66,0,0,1-3.91,1.62c-3,0-6.22.75-8.26,4.22-1.43,2.42-2.17,5.75-1.13,8.33a.56.56,0,0,0,.58.34,1.53,1.53,0,0,1,1.35.42,3.39,3.39,0,0,1,.51,2.56,8,8,0,0,1-.27,1.8,5.72,5.72,0,0,1-2.59,3.37c-2.6,1.51-5,3.75-5,7.78,0,2.81,1,6.07,3.19,7.78a.55.55,0,0,0,.66,0,1.53,1.53,0,0,1,1.39-.3c.84.22,1.3,1.13,1.72,1.94a8.44,8.44,0,0,1,.67,1.71,5.69,5.69,0,0,1-.56,4.2c-1.49,2.62-2.46,5.76-.48,9.26,1.38,2.45,3.9,4.76,6.65,5.14A.55.55,0,0,0,211,79a1.54,1.54,0,0,1,1-1,3.35,3.35,0,0,1,2.46.82A8.29,8.29,0,0,1,216,80,5.7,5.7,0,0,1,217.59,84c0,3,.74,6.21,4.21,8.26,2.42,1.42,5.76,2.16,8.33,1.13a.58.58,0,0,0,.34-.58,1.49,1.49,0,0,1,.43-1.35,3.35,3.35,0,0,1,2.55-.52,7.57,7.57,0,0,1,1.81.28,5.75,5.75,0,0,1,3.36,2.58c1.51,2.6,3.76,5,7.78,5,2.81,0,6.07-1,7.78-3.19a.57.57,0,0,0,0-.67,1.53,1.53,0,0,1-.3-1.39c.22-.84,1.13-1.29,1.94-1.71a7.78,7.78,0,0,1,1.71-.67,5.67,5.67,0,0,1,4.21.55c2.61,1.5,5.75,2.47,9.26.48,2.44-1.38,4.75-3.9,5.14-6.65a.58.58,0,0,0-.34-.58,1.57,1.57,0,0,1-.95-1,3.38,3.38,0,0,1,.83-2.47A8.2,8.2,0,0,1,276.83,80a5.65,5.65,0,0,1,3.91-1.62c3,0,6.22-.74,8.26-4.21,1.42-2.43,2.16-5.76,1.13-8.34a.55.55,0,0,0-.58-.32,1.58,1.58,0,0,1-1.35-.44,3.35,3.35,0,0,1-.52-2.55,8.73,8.73,0,0,1,.28-1.81,5.74,5.74,0,0,1,2.58-3.37c2.6-1.51,5-3.74,5-7.77,0-2.81-1-6.07-3.19-7.78a.52.52,0,0,0-.66,0,1.59,1.59,0,0,1-1.39.3c-.84-.23-1.3-1.14-1.72-1.95a8.44,8.44,0,0,1-.67-1.71,5.65,5.65,0,0,1,.56-4.2C290,31.64,291,28.5,289,25c-1.39-2.45-3.9-4.76-6.66-5.14a.54.54,0,0,0-.57.33,1.54,1.54,0,0,1-1,.95,3.38,3.38,0,0,1-2.47-.82,7.45,7.45,0,0,1-1.42-1.15,5.58,5.58,0,0,1-1.62-3.92c0-3-.75-6.21-4.22-8.25-2.43-1.43-5.76-2.17-8.34-1.14a.56.56,0,0,0-.32.59,1.54,1.54,0,0,1-.44,1.35,3.35,3.35,0,0,1-2.55.51A8.09,8.09,0,0,1,257.53,8Z"/>
      <path class="cls-3" d="M237.58,44.08a84.56,84.56,0,0,1,4.14,13.67l-5.91,2.1a30.72,30.72,0,0,0-.59-3c-13.28,1.84-15.64,2.43-17.16,3.16a65.55,65.55,0,0,0-2.36-6.84c1.71-.39,3.09-1.84,5.19-4.2a57,57,0,0,0,4.34-5.53c-5.19.6-6.71,1-7.63,1.45-.39-1.45-1.51-4.73-2.3-6.64,1.32-.33,2.37-1.57,3.75-3.55a77.52,77.52,0,0,0,8.22-16.16l6.9,2.89a97.2,97.2,0,0,1-9.27,15.84l4.67-.33c1.57-2.63,3.22-5.52,4.53-8.28l6.37,4a117.49,117.49,0,0,1-13.6,18.92l6.77-.72c-.46-1.77-1-3.48-1.58-5.06Zm-13.21,19a76.23,76.23,0,0,1-3,16.24,38.59,38.59,0,0,0-5.92-2.11c1.51-3.81,2.3-9.79,2.7-15.11Zm7-1.18a130,130,0,0,1,2,14.85l-5.91,1.19a131.47,131.47,0,0,0-1.65-15Zm6.64-2a82.74,82.74,0,0,1,3.68,12.88l-5.46,1.84a98,98,0,0,0-3.41-13Zm24.31-25.76v7.49h12.42v7.16H242.84V41.65h11.44V34.16H241V26.93h13.28V18.85h8v8.08h14v7.23ZM244,53.87h29.12V80h-7.63V77.47H251.32v2.82H244Zm7.3,7v9.53h14.19V60.91Z"/>
      <circle class="cls-1" cx="344.79" cy="49.6" r="44.32"/>
      <path class="cls-2" d="M355.92,8a5.73,5.73,0,0,1-3.36-2.59c-1.51-2.6-3.75-5-7.77-5-2.81,0-6.07,1-7.78,3.19a.52.52,0,0,0,0,.66,1.55,1.55,0,0,1,.29,1.39c-.22.84-1.13,1.3-1.94,1.72a8.44,8.44,0,0,1-1.71.67,5.73,5.73,0,0,1-4.21-.56C326.83,6,323.69,5,320.19,7c-2.45,1.38-4.76,3.9-5.15,6.65a.57.57,0,0,0,.34.58,1.54,1.54,0,0,1,.95,1,3.31,3.31,0,0,1-.83,2.46,7.78,7.78,0,0,1-1.14,1.43,5.69,5.69,0,0,1-3.92,1.62c-3,0-6.22.75-8.25,4.22-1.43,2.42-2.17,5.75-1.14,8.33a.58.58,0,0,0,.59.34,1.5,1.5,0,0,1,1.34.42,3.39,3.39,0,0,1,.52,2.56,8,8,0,0,1-.28,1.8,5.74,5.74,0,0,1-2.58,3.37c-2.6,1.51-5,3.75-5.05,7.78,0,2.81,1,6.07,3.19,7.78a.55.55,0,0,0,.66,0,1.55,1.55,0,0,1,1.4-.3c.83.22,1.29,1.13,1.72,1.94a8.41,8.41,0,0,1,.66,1.71,5.6,5.6,0,0,1-.56,4.2c-1.48,2.62-2.45,5.76-.47,9.26,1.38,2.45,3.89,4.76,6.65,5.14a.54.54,0,0,0,.57-.33,1.57,1.57,0,0,1,1.06-1,3.37,3.37,0,0,1,2.46.82A8.69,8.69,0,0,1,314.36,80,5.69,5.69,0,0,1,316,84c0,3,.74,6.21,4.22,8.26,2.42,1.42,5.75,2.16,8.33,1.13a.57.57,0,0,0,.33-.58,1.54,1.54,0,0,1,.43-1.35,3.37,3.37,0,0,1,2.55-.52,7.57,7.57,0,0,1,1.81.28A5.74,5.74,0,0,1,337,93.75c1.51,2.6,3.75,5,7.77,5,2.82,0,6.07-1,7.78-3.19a.55.55,0,0,0,0-.67,1.59,1.59,0,0,1-.3-1.39c.23-.84,1.14-1.29,2-1.71a7.41,7.41,0,0,1,1.71-.67,5.64,5.64,0,0,1,4.2.55c2.62,1.5,5.76,2.47,9.26.48,2.45-1.38,4.75-3.9,5.14-6.65a.55.55,0,0,0-.33-.58,1.55,1.55,0,0,1-.95-1,3.33,3.33,0,0,1,.82-2.47A8.2,8.2,0,0,1,375.22,80a5.69,5.69,0,0,1,3.92-1.62c3,0,6.21-.74,8.26-4.21,1.42-2.43,2.16-5.76,1.13-8.34a.55.55,0,0,0-.58-.32,1.58,1.58,0,0,1-1.35-.44,3.31,3.31,0,0,1-.52-2.55,8.09,8.09,0,0,1,.27-1.81,5.72,5.72,0,0,1,2.59-3.37c2.6-1.51,5-3.74,5-7.77,0-2.81-1-6.07-3.18-7.78a.54.54,0,0,0-.67,0,1.59,1.59,0,0,1-1.39.3c-.84-.23-1.29-1.14-1.71-1.95a7.92,7.92,0,0,1-.68-1.71,5.75,5.75,0,0,1,.56-4.2c1.5-2.62,2.47-5.76.48-9.26-1.38-2.45-3.9-4.76-6.65-5.14a.55.55,0,0,0-.58.33,1.52,1.52,0,0,1-1.05.95,3.35,3.35,0,0,1-2.46-.82,7.84,7.84,0,0,1-1.43-1.15,5.67,5.67,0,0,1-1.62-3.92c0-3-.75-6.21-4.21-8.25-2.43-1.43-5.77-2.17-8.34-1.14a.57.57,0,0,0-.33.59,1.54,1.54,0,0,1-.44,1.35,3.33,3.33,0,0,1-2.54.51A8.26,8.26,0,0,1,355.92,8Z"/>
      <path class="cls-3" d="M321.65,63A73.1,73.1,0,0,1,319,79a30.51,30.51,0,0,0-5.46-2c1.45-3.87,2.17-9.72,2.5-15Zm-7.88-24.38c1.11-.33,2.23-1.58,3.48-3.55a79.61,79.61,0,0,0,7.49-16L331,21.67a98.68,98.68,0,0,1-8.67,16.1l4.73-.33c1.64-3,3.29-6.17,4.67-9.33l5.65,3.68a120.45,120.45,0,0,1-13.54,20.7l7.62-1.11a59.1,59.1,0,0,0-2.17-5.59l5-1.91a51.47,51.47,0,0,1,4.27,12.29l-5.26,2.24a14,14,0,0,0-.33-1.64c-13.07,2.16-15.31,2.82-16.75,3.48l-.07-.92c-.39-1.58-1.31-4.14-1.84-5.65,1.51-.4,2.89-1.91,4.86-4.41a67.13,67.13,0,0,0,4.14-5.78c-5.12.59-6.57,1-7.49,1.38A62.58,62.58,0,0,0,313.77,38.63Zm14.52,23A125.24,125.24,0,0,1,330,75.3l-5.46,1.44a135,135,0,0,0-1.38-13.8Zm46.79-10.06c-1.84,1.25-3.81,2.37-5.91,3.55,1.05,6.44,3.09,12.42,6.63,15.51a19.3,19.3,0,0,0-4.66,5.59C367.06,72.28,365,65.51,363.78,58c-.92.4-1.84.86-2.7,1.25,2.89,8,1.19,16-2.17,18.8-1.84,1.71-3.54,2.17-6.24,2.23a37.53,37.53,0,0,1-3.81-.06,14.42,14.42,0,0,0-1.71-6.57,24.56,24.56,0,0,0,4.14.39,2.92,2.92,0,0,0,2.89-1.45c.86-.92,1.45-2.89,1.45-5.52A66.5,66.5,0,0,1,341,76.42a25.18,25.18,0,0,0-3.09-4.14L333.55,74a95.43,95.43,0,0,0-3.42-12.61l4.8-1.71a98.86,98.86,0,0,1,3.41,11c5.72-2.24,12.29-6.25,16.11-10.19a18.11,18.11,0,0,0-1-2.23,64.8,64.8,0,0,1-11.7,7.23,28,28,0,0,0-3.88-5.13,44.81,44.81,0,0,0,12.69-6.57c-.53-.53-1.05-1.12-1.65-1.71a61.42,61.42,0,0,1-7.68,4,39.36,39.36,0,0,0-3.95-5.19A49.44,49.44,0,0,0,349,45.2H338.61V39h21.16l.52-2.63H341.56a169.79,169.79,0,0,0,4.34-17.54l7,.65-.65,3.09h11.17l1.12-.26,5.06.72c-.73,5-1.84,10.78-3,16h8.61V45.2H357.86a36.2,36.2,0,0,1-4.07,3.55,29,29,0,0,1,4.73,5.19,91,91,0,0,0,11.57-7ZM361.35,31.14l.59-3.29h-11L350,31.14Z"/>
    </g>
  </g>
</svg>
