<svg height="84.79" viewBox="0 0 1593.18 84.79" width="1593.18" xmlns="http://www.w3.org/2000/svg"><g fill="#fff" opacity=".2"><path d="m98.86 72.84h-18.68l68-70.22h31.13v79.68h-31.15v-54.3l9.34 3.86-49.18 50.44h-37.32l-49.34-50.3 9.47-3.86v54.16h-31.13v-79.68h31.13z"/><path d="m227.85 48.68v10h94.62v23.62h-125.75v-79.68h125.5v23.65h-94.37v10h77.15v12.41z"/><path d="m338.66 82.3v-79.68h96.24a75 75 0 0 1 20.36 2.55 29.17 29.17 0 0 1 14.32 8.53q5.28 6 5.29 16.31a23.14 23.14 0 0 1 -2.49 11.33 17.93 17.93 0 0 1 -6.85 7 33.14 33.14 0 0 1 -10 3.61 75.52 75.52 0 0 1 -11.7 1.37l-9.09-1.74a186.87 186.87 0 0 1 22.84 1.24q8 1.13 11.21 4.05c2.12 1.95 3.17 4.75 3.17 8.4v17.03h-31.08v-13.3a9.41 9.41 0 0 0 -1.44-5.67c-.95-1.28-3-2.18-6.22-2.68a106.7 106.7 0 0 0 -14.75-.74h-48.69v22.39zm31.12-43.2h65.12a14.27 14.27 0 0 0 6.29-1.25q2.55-1.24 2.55-4.73a4.42 4.42 0 0 0 -2.55-4.42 14.9 14.9 0 0 0 -6.29-1.18h-65.12z"/><path d="m639.59 49.06a29.19 29.19 0 0 1 -8.59 19.79q-8 8-23.47 12t-39.16 4a243.51 243.51 0 0 1 -32.37-1.99q-14.32-1.94-24.4-6.6a36 36 0 0 1 -15.44-12.76q-5.36-8.1-5.36-20.42t5.36-20.61a37.2 37.2 0 0 1 15.44-13.19 83.42 83.42 0 0 1 24.4-7 223 223 0 0 1 32.37-2.16q23.65 0 39.22 4.3t23.53 12.64a30.7 30.7 0 0 1 8.59 20.29h-32.37a15.88 15.88 0 0 0 -5.48-7c-2.65-2-6.64-3.63-12-4.8s-12.49-1.74-21.54-1.74q-15.93 0-25.9 1.93t-14.56 6.16a14.48 14.48 0 0 0 -4.61 11.21 13 13 0 0 0 4.61 10.33q4.61 4 14.56 5.86t25.9 1.86q13.57 0 21.48-1.62t11.89-4.42a15.72 15.72 0 0 0 5.48-6z"/><path d="m655.9 2.62h31.1v79.68h-31.1zm26.64 27.51h87.66v23.66h-87.66zm84.17-27.51h31.13v79.68h-31.13z"/><path d="m807.8 82.3 53.41-79.68h34.61l53.91 79.68h-34.24l-46.19-71.3h18.55l-45.85 71.3zm27.89-12.08v-18.67h85.16v18.67z"/><path d="m1084.57 57.9-11.57 6.6v-61.88h31.13v79.68h-31.13l-93.76-54.3 11.58-6.72v61h-31.13v-79.66h31.13z"/><path d="m1211.2 2.62q16.8 0 27.76 3.23t17.18 8.84a31.2 31.2 0 0 1 8.78 12.76 44.44 44.44 0 0 1 2.55 15 40 40 0 0 1 -2.86 15 32.79 32.79 0 0 1 -9.4 12.76q-6.54 5.61-17.31 8.84t-26.7 3.24h-89.65v-79.67zm-58.52 54.78h57.32a63.14 63.14 0 0 0 11.83-.94 22.15 22.15 0 0 0 7.78-2.8 11 11 0 0 0 4.23-4.67 15.13 15.13 0 0 0 1.31-6.53 15.21 15.21 0 0 0 -1.31-6.54 11.09 11.09 0 0 0 -4.23-4.67 22.35 22.35 0 0 0 -7.78-2.8 64.09 64.09 0 0 0 -11.83-.93h-57.27z"/><path d="m1285.52 2.62h31.13v79.68h-31.13z"/><path d="m1331.59 53h34c.58 1.74 2.28 3.22 5.11 4.42a44.48 44.48 0 0 0 11.39 2.74 130.53 130.53 0 0 0 16.62.93c6.23 0 11.14-.18 14.76-.56s6.16-1 7.65-2a4.42 4.42 0 0 0 2.24-3.92q0-2.37-3.61-3.67t-12.82-1.81q-9.23-.49-25.9-.5a168 168 0 0 1 -21.48-1.18 54.55 54.55 0 0 1 -14.81-3.74 19.78 19.78 0 0 1 -8.53-6.47 16 16 0 0 1 -2.74-9.4 20.77 20.77 0 0 1 6.41-15.63q6.42-6.15 19.42-9.21t32.56-3q28.64 0 43.77 8.28t15.12 23.84h-32.25q-.63-4.11-7.72-6.28t-20.17-2.18q-13 0-19.24 1.49t-6.29 5.11a3.39 3.39 0 0 0 1.75 3 16.81 16.81 0 0 0 6 1.81 100.87 100.87 0 0 0 12.17.93q7.83.26 19.92.25a167.08 167.08 0 0 1 22.66 1.31 56.41 56.41 0 0 1 15.12 3.92 18.9 18.9 0 0 1 8.41 6.66 17.21 17.21 0 0 1 2.61 9.53q0 9.47-6 15.44t-18.93 8.84q-12.94 2.85-33.86 2.86a159.62 159.62 0 0 1 -21.73-1.37 92.13 92.13 0 0 1 -17.62-4 49 49 0 0 1 -13.07-6.6 28.59 28.59 0 0 1 -8.16-8.84 21.67 21.67 0 0 1 -2.76-11z"/><path d="m1498.56 48.68v10h94.62v23.62h-125.75v-79.68h125.5v23.65h-94.37v10h77.19v12.41z"/></g></svg>