<?xml version="1.0" encoding="UTF-8"?>
<svg id="_圖層_2" data-name="圖層 2" xmlns="http://www.w3.org/2000/svg" width="377.47" height="70.78" viewBox="0 0 377.47 70.78">
  <g id="_圖層_2-2" data-name="圖層 2">
    <g style="opacity: .2;">
      <g>
        <path d="M23.42,17.26h-4.42L35.1,.62h7.37V19.5h-7.37V6.64l2.21,.91-11.65,11.95h-8.85L5.13,7.58l2.24-.91v12.83H0V.62H7.37L23.42,17.26Z" style="fill: #fff;"/>
        <path d="M53.98,11.53v2.36h22.42v5.6h-29.79V.62h29.73V6.22h-22.36v2.36h18.29v2.95h-18.29Z" style="fill: #fff;"/>
        <path d="M80.24,19.5V.62h22.8c1.79,0,3.4,.2,4.82,.6,1.43,.4,2.56,1.08,3.39,2.02,.84,.94,1.25,2.23,1.25,3.86,0,1.08-.2,1.98-.59,2.68-.39,.71-.93,1.26-1.62,1.65-.69,.39-1.47,.68-2.36,.86-.88,.18-1.81,.29-2.77,.32l-2.15-.41c2.34,.02,4.14,.12,5.41,.3s2.15,.5,2.65,.96c.5,.46,.75,1.13,.75,1.99v4.04h-7.37v-3.16c0-.59-.11-1.04-.34-1.34-.23-.3-.72-.52-1.47-.63-.76-.12-1.92-.18-3.5-.18h-11.53v5.31h-7.37Zm7.37-10.24h15.43c.59,0,1.09-.1,1.49-.3,.4-.2,.6-.57,.6-1.12,0-.51-.2-.86-.6-1.05-.4-.19-.9-.28-1.49-.28h-15.43v2.74Z" style="fill: #fff;"/>
        <path d="M151.53,11.62c-.1,1.87-.78,3.43-2.04,4.69s-3.11,2.2-5.56,2.83c-2.45,.63-5.54,.94-9.28,.94-2.85,0-5.41-.15-7.67-.46-2.26-.3-4.19-.83-5.78-1.56-1.59-.74-2.81-1.75-3.66-3.02-.85-1.28-1.27-2.89-1.27-4.84s.42-3.57,1.27-4.88c.85-1.31,2.06-2.35,3.66-3.13,1.59-.78,3.52-1.33,5.78-1.67,2.26-.33,4.82-.5,7.67-.5,3.74,0,6.83,.34,9.29,1.02,2.46,.68,4.32,1.68,5.58,2.99,1.26,1.32,1.94,2.92,2.04,4.81h-7.67c-.24-.63-.67-1.18-1.3-1.67-.63-.48-1.57-.86-2.83-1.14-1.26-.28-2.96-.41-5.1-.41-2.52,0-4.56,.15-6.14,.46-1.57,.31-2.72,.79-3.45,1.46-.73,.67-1.09,1.55-1.09,2.65,0,1,.36,1.82,1.09,2.45,.73,.63,1.88,1.09,3.45,1.39,1.57,.29,3.62,.44,6.14,.44,2.14,0,3.84-.13,5.09-.38,1.25-.26,2.19-.6,2.82-1.05,.63-.44,1.06-.92,1.3-1.43h7.67Z" style="fill: #fff;"/>
        <path d="M155.4,.62h7.37V19.5h-7.37V.62Zm6.31,6.52h20.77v5.6h-20.77V7.14ZM181.65,.62h7.37V19.5h-7.37V.62Z" style="fill: #fff;"/>
        <path d="M191.39,19.5L204.04,.62h8.2l12.77,18.88h-8.11l-10.94-16.9h4.4l-10.86,16.9h-8.11Zm6.61-2.86v-4.42h20.18v4.42h-20.18Z" style="fill: #fff;"/>
        <path d="M256.96,13.72l-2.74,1.56V.62h7.37V19.5h-7.37l-22.21-12.86,2.74-1.59v14.45h-7.37V.62h7.37l22.21,13.1Z" style="fill: #fff;"/>
        <path d="M286.96,.62c2.65,0,4.85,.26,6.58,.77,1.73,.51,3.09,1.21,4.07,2.09,.98,.88,1.68,1.89,2.08,3.02,.4,1.13,.6,2.32,.6,3.55s-.23,2.42-.68,3.55c-.45,1.13-1.19,2.14-2.23,3.02-1.03,.88-2.4,1.58-4.1,2.09-1.7,.51-3.81,.77-6.33,.77h-21.24V.62h21.24Zm-13.86,12.98h13.57c1.1,0,2.04-.07,2.8-.22,.77-.15,1.38-.37,1.84-.66,.46-.29,.8-.66,1-1.11,.21-.44,.31-.96,.31-1.55s-.1-1.11-.31-1.55c-.21-.44-.54-.81-1-1.11-.46-.3-1.08-.52-1.84-.66-.77-.15-1.7-.22-2.8-.22h-13.57v7.08Z" style="fill: #fff;"/>
        <path d="M304.57,.62h7.37V19.5h-7.37V.62Z" style="fill: #fff;"/>
        <path d="M315.49,12.57h8.05c.14,.41,.54,.76,1.21,1.05,.67,.29,1.57,.5,2.7,.65,1.13,.15,2.44,.22,3.94,.22s2.64-.04,3.5-.13,1.46-.25,1.81-.47c.35-.23,.53-.54,.53-.93s-.29-.66-.86-.87c-.57-.21-1.58-.35-3.04-.43-1.46-.08-3.5-.12-6.14-.12-1.97,0-3.66-.09-5.09-.28-1.43-.19-2.6-.48-3.51-.89-.91-.4-1.59-.91-2.02-1.53-.43-.62-.65-1.36-.65-2.23,0-1.49,.51-2.73,1.52-3.7,1.01-.97,2.55-1.7,4.6-2.18,2.05-.48,4.63-.72,7.71-.72,4.52,0,7.98,.65,10.37,1.96,2.39,1.31,3.58,3.19,3.58,5.65h-7.64c-.1-.65-.71-1.15-1.83-1.49-1.12-.34-2.71-.52-4.78-.52s-3.56,.12-4.56,.35c-.99,.24-1.49,.64-1.49,1.21,0,.3,.14,.53,.41,.71,.28,.18,.75,.32,1.43,.43,.68,.11,1.64,.18,2.88,.22,1.24,.04,2.81,.06,4.72,.06,2.1,0,3.89,.1,5.37,.31,1.47,.21,2.67,.52,3.58,.93,.91,.41,1.58,.94,1.99,1.58,.41,.64,.62,1.39,.62,2.26,0,1.49-.47,2.71-1.42,3.66-.94,.94-2.44,1.64-4.48,2.09-2.05,.45-4.72,.68-8.02,.68-1.87,0-3.58-.11-5.15-.32-1.56-.22-2.95-.54-4.17-.96-1.22-.42-2.25-.94-3.1-1.56-.85-.62-1.49-1.32-1.93-2.09-.44-.78-.66-1.64-.66-2.58Z" style="fill: #fff;"/>
        <path d="M355.05,11.53v2.36h22.42v5.6h-29.79V.62h29.73V6.22h-22.36v2.36h18.29v2.95h-18.29Z" style="fill: #fff;"/>
      </g>
    </g>
    <g>
      <circle cx="92.79" cy="38.63" r="28.73" style="fill: #fff; stroke: #da4e36; stroke-miterlimit: 10; stroke-width: 2.2px;"/>
      <path d="M100.01,11.68c-.89-.23-1.72-.89-2.18-1.68-.98-1.69-2.43-3.25-5.04-3.27-1.82-.01-3.93,.65-5.04,2.07-.08,.1-.12,.28,0,.43,.22,.31,.27,.59,.19,.9-.14,.54-.74,.84-1.26,1.12-.35,.18-.72,.33-1.11,.43-.88,.25-1.93,.09-2.72-.36-1.69-.97-3.73-1.59-6-.31-1.59,.9-3.09,2.53-3.34,4.31-.02,.13,.04,.3,.22,.37,.35,.16,.53,.38,.62,.69,.14,.54-.22,1.09-.54,1.59-.21,.33-.45,.65-.74,.93-.64,.66-1.63,1.04-2.54,1.05-1.96,0-4.03,.48-5.35,2.73-.93,1.57-1.41,3.73-.73,5.4,.05,.12,.19,.23,.38,.22,.38-.04,.65,.05,.87,.28,.39,.4,.36,1.06,.33,1.65-.01,.39-.07,.78-.18,1.17-.23,.89-.89,1.72-1.67,2.18-1.69,.98-3.25,2.44-3.27,5.04-.01,1.82,.65,3.94,2.07,5.04,.1,.08,.28,.11,.43,0,.31-.23,.6-.28,.9-.2,.54,.14,.84,.73,1.12,1.26,.18,.35,.33,.72,.43,1.11,.25,.88,.09,1.93-.36,2.72-.96,1.69-1.59,3.73-.31,6,.9,1.59,2.53,3.08,4.31,3.33,.13,.02,.3-.04,.37-.22,.16-.35,.38-.53,.68-.62,.54-.14,1.09,.22,1.59,.53,.33,.21,.65,.46,.93,.74,.66,.64,1.05,1.63,1.05,2.54,0,1.95,.48,4.03,2.73,5.35,1.57,.92,3.73,1.4,5.4,.73,.12-.05,.23-.19,.22-.37-.04-.38,.05-.65,.28-.88,.4-.4,1.06-.36,1.65-.34,.39,.01,.78,.07,1.17,.18,.89,.22,1.72,.89,2.18,1.67,.98,1.69,2.43,3.25,5.04,3.27,1.82,.01,3.93-.65,5.04-2.07,.08-.1,.11-.28,0-.43-.23-.31-.28-.59-.2-.9,.15-.54,.74-.84,1.26-1.11,.35-.19,.72-.33,1.11-.43,.89-.26,1.93-.09,2.72,.36,1.7,.97,3.73,1.6,6,.31,1.59-.9,3.08-2.53,3.33-4.31,.02-.13-.04-.29-.22-.37-.35-.16-.53-.38-.62-.68-.14-.54,.22-1.1,.53-1.6,.21-.33,.46-.65,.75-.93,.64-.66,1.63-1.04,2.54-1.05,1.95-.01,4.03-.48,5.36-2.73,.92-1.57,1.4-3.74,.73-5.4-.05-.12-.19-.23-.37-.21-.38,.04-.65-.06-.88-.29-.4-.39-.36-1.05-.34-1.65,.01-.39,.07-.79,.18-1.18,.23-.89,.89-1.72,1.68-2.18,1.69-.98,3.25-2.43,3.27-5.04,.02-1.82-.65-3.93-2.07-5.04-.1-.08-.28-.11-.43,0-.31,.22-.59,.27-.9,.19-.54-.14-.84-.74-1.11-1.26-.18-.35-.33-.72-.43-1.11-.25-.88-.09-1.93,.36-2.72,.97-1.69,1.6-3.73,.31-6-.9-1.59-2.53-3.08-4.31-3.33-.13-.02-.29,.04-.37,.22-.16,.35-.37,.54-.68,.62-.55,.14-1.1-.22-1.6-.53-.33-.21-.65-.46-.93-.74-.66-.64-1.05-1.63-1.05-2.54-.01-1.95-.48-4.03-2.73-5.35-1.57-.93-3.73-1.41-5.41-.74-.12,.05-.23,.19-.21,.38,.04,.38-.06,.65-.28,.88-.39,.39-1.05,.36-1.65,.33-.39-.01-.78-.07-1.18-.18h0Z" style="fill: none; stroke: #e8382f; stroke-miterlimit: 10; stroke-width: .52px;"/>
      <path d="M82.6,49.28c-1.36,3.54-3.75,7.11-6.09,9.29-.89-.85-2.9-2.22-4.05-2.85,2.26-1.87,4.26-4.77,5.33-7.63l4.81,1.19Zm8.31-1.53h-15.76V20.4h15.76v27.35Zm-4.94-23.35h-6.05v3.88h6.05v-3.88Zm0,7.63h-6.05v3.96h6.05v-3.96Zm0,7.71h-6.05v3.96h6.05v-3.96Zm1.66,8.26c1.87,2.09,3.79,4.86,4.69,6.82l-4.26,2.17c-.81-2-2.73-4.98-4.52-7.2l4.09-1.79Zm25.09-14.57h-4.6v19.34c0,2.56-.51,3.92-1.96,4.73-1.49,.81-3.58,1.07-6.69,1.07-.21-1.41-.98-3.62-1.7-4.98,1.96,.09,3.83,.09,4.47,.09,.64-.04,.89-.26,.89-.89v-12.99c-2.51,4.86-5.62,9.12-8.99,12.06-.85-1.15-2.39-2.85-3.45-3.71,4.26-3.2,8.22-8.9,10.69-14.7h-9.37v-4.69h11.12v-9.88h4.98v9.88h4.6v4.69Z" style="fill: #da4e36;"/>
      <circle cx="156.57" cy="38.63" r="28.73" style="fill: #fff; stroke: #da4e36; stroke-miterlimit: 10; stroke-width: 2.2px;"/>
      <path d="M163.79,11.68c-.89-.23-1.72-.89-2.18-1.68-.98-1.69-2.43-3.25-5.04-3.27-1.82-.01-3.93,.65-5.04,2.07-.08,.1-.12,.28,0,.43,.22,.31,.27,.59,.19,.9-.14,.54-.74,.84-1.26,1.12-.35,.18-.72,.33-1.11,.43-.88,.25-1.93,.09-2.72-.36-1.69-.97-3.73-1.59-6-.31-1.59,.9-3.09,2.53-3.34,4.31-.02,.13,.04,.3,.22,.37,.35,.16,.53,.38,.62,.69,.14,.54-.22,1.09-.54,1.59-.21,.33-.45,.65-.74,.93-.64,.66-1.63,1.04-2.54,1.05-1.96,0-4.03,.48-5.35,2.73-.93,1.57-1.41,3.73-.73,5.4,.05,.12,.19,.23,.38,.22,.38-.04,.65,.05,.87,.28,.39,.4,.36,1.06,.33,1.65-.01,.39-.07,.78-.18,1.17-.23,.89-.89,1.72-1.67,2.18-1.69,.98-3.25,2.44-3.27,5.04-.01,1.82,.65,3.94,2.07,5.04,.1,.08,.28,.11,.43,0,.31-.23,.6-.28,.9-.2,.54,.14,.84,.73,1.12,1.26,.18,.35,.33,.72,.43,1.11,.25,.88,.09,1.93-.36,2.72-.96,1.69-1.59,3.73-.31,6,.9,1.59,2.53,3.08,4.31,3.33,.13,.02,.3-.04,.37-.22,.16-.35,.38-.53,.68-.62,.54-.14,1.09,.22,1.59,.53,.33,.21,.65,.46,.93,.74,.66,.64,1.05,1.63,1.05,2.54,0,1.95,.48,4.03,2.73,5.35,1.57,.92,3.73,1.4,5.4,.73,.12-.05,.23-.19,.22-.37-.04-.38,.05-.65,.28-.88,.4-.4,1.06-.36,1.65-.34,.39,.01,.78,.07,1.17,.18,.89,.22,1.72,.89,2.18,1.67,.98,1.69,2.43,3.25,5.04,3.27,1.82,.01,3.93-.65,5.04-2.07,.08-.1,.11-.28,0-.43-.23-.31-.28-.59-.2-.9,.15-.54,.74-.84,1.26-1.11,.35-.19,.72-.33,1.11-.43,.89-.26,1.93-.09,2.72,.36,1.7,.97,3.73,1.6,6,.31,1.59-.9,3.08-2.53,3.33-4.31,.02-.13-.04-.29-.22-.37-.35-.16-.53-.38-.62-.68-.14-.54,.22-1.1,.53-1.6,.21-.33,.46-.65,.75-.93,.64-.66,1.63-1.04,2.54-1.05,1.95-.01,4.03-.48,5.36-2.73,.92-1.57,1.4-3.74,.73-5.4-.05-.12-.19-.23-.37-.21-.38,.04-.65-.06-.88-.29-.4-.39-.36-1.05-.34-1.65,.01-.39,.07-.79,.18-1.18,.23-.89,.89-1.72,1.68-2.18,1.69-.98,3.25-2.43,3.27-5.04,.02-1.82-.65-3.93-2.07-5.04-.1-.08-.28-.11-.43,0-.31,.22-.59,.27-.9,.19-.54-.14-.84-.74-1.11-1.26-.18-.35-.33-.72-.43-1.11-.25-.88-.09-1.93,.36-2.72,.97-1.69,1.6-3.73,.31-6-.9-1.59-2.53-3.08-4.31-3.33-.13-.02-.29,.04-.37,.22-.16,.35-.37,.54-.68,.62-.55,.14-1.1-.22-1.6-.53-.33-.21-.65-.46-.93-.74-.66-.64-1.05-1.63-1.05-2.54-.01-1.95-.48-4.03-2.73-5.35-1.57-.93-3.73-1.41-5.41-.74-.12,.05-.23,.19-.21,.38,.04,.38-.06,.65-.28,.88-.39,.39-1.05,.36-1.65,.33-.39-.01-.78-.07-1.18-.18h0Z" style="fill: none; stroke: #e8382f; stroke-miterlimit: 10; stroke-width: .52px;"/>
      <path d="M152.18,27.55c-1.15,3.2-2.73,6.22-4.6,8.99,1.66,1.49,4.52,4.43,5.28,5.28l-2.85,4.22c-.72-1.11-1.87-2.64-3.02-4.18v16.61h-4.64v-15.59c-1.49,1.41-2.94,2.68-4.47,3.71-.26-1.45-1.19-4.22-1.79-5.2,3.96-2.3,7.8-6.48,10.22-10.99h-9.12v-4.56h7.03c-.81-1.53-2.09-3.54-3.15-5.03l3.96-2.13c1.32,1.66,2.85,3.88,3.58,5.33l-2.98,1.83h3.28l.81-.21,2.47,1.92Zm22.88-2.73v23.22h-4.77v-1.53h-3.88v11.97h-4.94v-11.97h-3.83v1.96h-4.6V24.83h8.44v-6.13h4.94v6.13h8.65Zm-17.42,4.52v4.09h3.83v-4.09h-3.83Zm3.83,12.7v-4.18h-3.83v4.18h3.83Zm4.94-12.7v4.09h3.88v-4.09h-3.88Zm3.88,12.7v-4.18h-3.88v4.18h3.88Z" style="fill: #da4e36;"/>
      <circle cx="220.36" cy="38.63" r="28.73" style="fill: #fff; stroke: #da4e36; stroke-miterlimit: 10; stroke-width: 2.2px;"/>
      <path d="M227.58,11.68c-.89-.23-1.72-.89-2.18-1.68-.98-1.69-2.43-3.25-5.04-3.27-1.82-.01-3.93,.65-5.04,2.07-.08,.1-.12,.28,0,.43,.22,.31,.27,.59,.19,.9-.14,.54-.74,.84-1.26,1.12-.35,.18-.72,.33-1.11,.43-.88,.25-1.93,.09-2.72-.36-1.69-.97-3.73-1.59-6-.31-1.59,.9-3.09,2.53-3.34,4.31-.02,.13,.04,.3,.22,.37,.35,.16,.53,.38,.62,.69,.14,.54-.22,1.09-.54,1.59-.21,.33-.45,.65-.74,.93-.64,.66-1.63,1.04-2.54,1.05-1.96,0-4.03,.48-5.35,2.73-.93,1.57-1.41,3.73-.73,5.4,.05,.12,.19,.23,.38,.22,.38-.04,.65,.05,.87,.28,.39,.4,.36,1.06,.33,1.65-.01,.39-.07,.78-.18,1.17-.23,.89-.89,1.72-1.67,2.18-1.69,.98-3.25,2.44-3.27,5.04-.01,1.82,.65,3.94,2.07,5.04,.1,.08,.28,.11,.43,0,.31-.23,.6-.28,.9-.2,.54,.14,.84,.73,1.12,1.26,.18,.35,.33,.72,.43,1.11,.25,.88,.09,1.93-.36,2.72-.96,1.69-1.59,3.73-.31,6,.9,1.59,2.53,3.08,4.31,3.33,.13,.02,.3-.04,.37-.22,.16-.35,.38-.53,.68-.62,.54-.14,1.09,.22,1.59,.53,.33,.21,.65,.46,.93,.74,.66,.64,1.05,1.63,1.05,2.54,0,1.95,.48,4.03,2.73,5.35,1.57,.92,3.73,1.4,5.4,.73,.12-.05,.23-.19,.22-.37-.04-.38,.05-.65,.28-.88,.4-.4,1.06-.36,1.65-.34,.39,.01,.78,.07,1.17,.18,.89,.22,1.72,.89,2.18,1.67,.98,1.69,2.43,3.25,5.04,3.27,1.82,.01,3.93-.65,5.04-2.07,.08-.1,.11-.28,0-.43-.23-.31-.28-.59-.2-.9,.15-.54,.74-.84,1.26-1.11,.35-.19,.72-.33,1.11-.43,.89-.26,1.93-.09,2.72,.36,1.7,.97,3.73,1.6,6,.31,1.59-.9,3.08-2.53,3.33-4.31,.02-.13-.04-.29-.22-.37-.35-.16-.53-.38-.62-.68-.14-.54,.22-1.1,.53-1.6,.21-.33,.46-.65,.75-.93,.64-.66,1.63-1.04,2.54-1.05,1.95-.01,4.03-.48,5.36-2.73,.92-1.57,1.4-3.74,.73-5.4-.05-.12-.19-.23-.37-.21-.38,.04-.65-.06-.88-.29-.4-.39-.36-1.05-.34-1.65,.01-.39,.07-.79,.18-1.18,.23-.89,.89-1.72,1.68-2.18,1.69-.98,3.25-2.43,3.27-5.04,.02-1.82-.65-3.93-2.07-5.04-.1-.08-.28-.11-.43,0-.31,.22-.59,.27-.9,.19-.54-.14-.84-.74-1.11-1.26-.18-.35-.33-.72-.43-1.11-.25-.88-.09-1.93,.36-2.72,.97-1.69,1.6-3.73,.31-6-.9-1.59-2.53-3.08-4.31-3.33-.13-.02-.29,.04-.37,.22-.16,.35-.37,.54-.68,.62-.55,.14-1.1-.22-1.6-.53-.33-.21-.65-.46-.93-.74-.66-.64-1.05-1.63-1.05-2.54-.01-1.95-.48-4.03-2.73-5.35-1.57-.93-3.73-1.41-5.41-.74-.12,.05-.23,.19-.21,.38,.04,.38-.06,.65-.28,.88-.39,.39-1.05,.36-1.65,.33-.39-.01-.78-.07-1.18-.18h0Z" style="fill: none; stroke: #e8382f; stroke-miterlimit: 10; stroke-width: .52px;"/>
      <path d="M214.65,35.05c1.11,2.85,2.3,6.6,2.68,8.86l-3.83,1.36c-.09-.6-.21-1.28-.38-1.96-8.61,1.19-10.14,1.58-11.12,2.04-.26-.94-.98-3.15-1.53-4.43,1.11-.26,2-1.19,3.37-2.73,.55-.6,1.62-1.87,2.81-3.58-3.37,.38-4.35,.64-4.94,.94-.26-.94-.98-3.07-1.49-4.3,.85-.21,1.53-1.02,2.43-2.3,.94-1.24,3.71-5.96,5.33-10.48l4.47,1.87c-1.62,3.54-3.79,7.2-6.01,10.27l3.02-.21c1.02-1.7,2.09-3.58,2.94-5.37l4.13,2.6c-2.47,4.26-5.58,8.65-8.82,12.27l4.39-.47c-.3-1.15-.68-2.26-1.02-3.28l3.58-1.11Zm-8.56,12.31c-.34,3.83-1.02,7.92-1.92,10.52-.85-.47-2.81-1.07-3.83-1.36,.98-2.47,1.49-6.35,1.75-9.8l4,.64Zm4.52-.77c.6,3.02,1.11,6.99,1.28,9.63l-3.83,.77c-.09-2.6-.55-6.65-1.07-9.71l3.62-.68Zm4.3-1.28c.98,2.68,2,6.05,2.39,8.35l-3.54,1.19c-.34-2.26-1.36-5.79-2.22-8.44l3.37-1.11Zm15.76-16.7v4.86h8.05v4.64h-20.66v-4.64h7.41v-4.86h-8.61v-4.69h8.61v-5.24h5.2v5.24h9.07v4.69h-9.07Zm-11.84,12.78h18.87v16.96h-4.94v-1.66h-9.2v1.83h-4.73v-17.13Zm4.73,4.56v6.18h9.2v-6.18h-9.2Z" style="fill: #da4e36;"/>
      <circle cx="284.15" cy="38.63" r="28.73" style="fill: #fff; stroke: #da4e36; stroke-miterlimit: 10; stroke-width: 2.2px;"/>
      <path d="M291.36,11.68c-.89-.23-1.72-.89-2.18-1.68-.98-1.69-2.43-3.25-5.04-3.27-1.82-.01-3.93,.65-5.04,2.07-.08,.1-.12,.28,0,.43,.22,.31,.27,.59,.19,.9-.14,.54-.74,.84-1.26,1.12-.35,.18-.72,.33-1.11,.43-.88,.25-1.93,.09-2.72-.36-1.69-.97-3.73-1.59-6-.31-1.59,.9-3.09,2.53-3.34,4.31-.02,.13,.04,.3,.22,.37,.35,.16,.53,.38,.62,.69,.14,.54-.22,1.09-.54,1.59-.21,.33-.45,.65-.74,.93-.64,.66-1.63,1.04-2.54,1.05-1.96,0-4.03,.48-5.35,2.73-.93,1.57-1.41,3.73-.73,5.4,.05,.12,.19,.23,.38,.22,.38-.04,.65,.05,.87,.28,.39,.4,.36,1.06,.33,1.65-.01,.39-.07,.78-.18,1.17-.23,.89-.89,1.72-1.67,2.18-1.69,.98-3.25,2.44-3.27,5.04-.01,1.82,.65,3.94,2.07,5.04,.1,.08,.28,.11,.43,0,.31-.23,.6-.28,.9-.2,.54,.14,.84,.73,1.12,1.26,.18,.35,.33,.72,.43,1.11,.25,.88,.09,1.93-.36,2.72-.96,1.69-1.59,3.73-.31,6,.9,1.59,2.53,3.08,4.31,3.33,.13,.02,.3-.04,.37-.22,.16-.35,.38-.53,.68-.62,.54-.14,1.09,.22,1.59,.53,.33,.21,.65,.46,.93,.74,.66,.64,1.05,1.63,1.05,2.54,0,1.95,.48,4.03,2.73,5.35,1.57,.92,3.73,1.4,5.4,.73,.12-.05,.23-.19,.22-.37-.04-.38,.05-.65,.28-.88,.4-.4,1.06-.36,1.65-.34,.39,.01,.78,.07,1.17,.18,.89,.22,1.72,.89,2.18,1.67,.98,1.69,2.43,3.25,5.04,3.27,1.82,.01,3.93-.65,5.04-2.07,.08-.1,.11-.28,0-.43-.23-.31-.28-.59-.2-.9,.15-.54,.74-.84,1.26-1.11,.35-.19,.72-.33,1.11-.43,.89-.26,1.93-.09,2.72,.36,1.7,.97,3.73,1.6,6,.31,1.59-.9,3.08-2.53,3.33-4.31,.02-.13-.04-.29-.22-.37-.35-.16-.53-.38-.62-.68-.14-.54,.22-1.1,.53-1.6,.21-.33,.46-.65,.75-.93,.64-.66,1.63-1.04,2.54-1.05,1.95-.01,4.03-.48,5.36-2.73,.92-1.57,1.4-3.74,.73-5.4-.05-.12-.19-.23-.37-.21-.38,.04-.65-.06-.88-.29-.4-.39-.36-1.05-.34-1.65,.01-.39,.07-.79,.18-1.18,.23-.89,.89-1.72,1.68-2.18,1.69-.98,3.25-2.43,3.27-5.04,.02-1.82-.65-3.93-2.07-5.04-.1-.08-.28-.11-.43,0-.31,.22-.59,.27-.9,.19-.54-.14-.84-.74-1.11-1.26-.18-.35-.33-.72-.43-1.11-.25-.88-.09-1.93,.36-2.72,.97-1.69,1.6-3.73,.31-6-.9-1.59-2.53-3.08-4.31-3.33-.13-.02-.29,.04-.37,.22-.16,.35-.37,.54-.68,.62-.55,.14-1.1-.22-1.6-.53-.33-.21-.65-.46-.93-.74-.66-.64-1.05-1.63-1.05-2.54-.01-1.95-.48-4.03-2.73-5.35-1.57-.93-3.73-1.41-5.41-.74-.12,.05-.23,.19-.21,.38,.04,.38-.06,.65-.28,.88-.39,.39-1.05,.36-1.65,.33-.39-.01-.78-.07-1.18-.18h0Z" style="fill: none; stroke: #e8382f; stroke-miterlimit: 10; stroke-width: .52px;"/>
      <path d="M269.15,47.32c-.26,3.75-.89,7.8-1.75,10.4-.81-.47-2.6-1.02-3.54-1.28,.94-2.51,1.41-6.31,1.62-9.71l3.66,.6Zm-5.11-15.81c.72-.21,1.45-1.02,2.26-2.3,.85-1.15,3.37-5.92,4.86-10.35l4.05,1.66c-1.53,3.58-3.54,7.37-5.62,10.44l3.07-.21c1.07-1.96,2.13-4,3.02-6.05l3.66,2.39c-2.39,4.69-5.58,9.5-8.78,13.42l4.94-.72c-.43-1.24-.89-2.51-1.41-3.62l3.24-1.24c1.24,2.51,2.43,5.88,2.77,7.97l-3.41,1.45c-.04-.34-.13-.68-.21-1.07-8.48,1.41-9.93,1.83-10.86,2.26l-.04-.6c-.26-1.02-.85-2.68-1.19-3.66,.98-.26,1.87-1.24,3.15-2.85,.55-.64,1.49-1.96,2.68-3.75-3.32,.38-4.26,.64-4.86,.89-.21-.85-.85-2.9-1.32-4.05Zm9.42,14.91c.51,2.85,.98,6.43,1.11,8.86l-3.54,.94c-.09-2.47-.47-6.13-.89-8.95l3.32-.85Zm30.33-6.52c-1.19,.81-2.47,1.53-3.83,2.3,.68,4.18,2,8.05,4.3,10.05-1.07,.77-2.39,2.43-3.02,3.62-2.64-2.56-4-6.94-4.77-11.8-.6,.26-1.19,.55-1.75,.81,1.87,5.15,.77,10.4-1.41,12.18-1.19,1.11-2.3,1.41-4.05,1.45-.81,.04-1.62,0-2.47-.04-.04-1.19-.3-2.9-1.11-4.26,1.07,.17,1.79,.26,2.68,.26,.81,0,1.41-.17,1.87-.94,.55-.6,.94-1.87,.94-3.58-2.81,2.39-6.39,4.64-9.5,6.05-.47-.77-1.19-1.83-2-2.68l-2.81,1.11c-.38-2.22-1.32-5.58-2.22-8.18l3.11-1.11c.85,2.26,1.7,5.03,2.22,7.16,3.71-1.45,7.97-4.05,10.44-6.6-.17-.51-.38-.94-.64-1.45-2.26,1.75-5.15,3.58-7.58,4.69-.6-.98-1.62-2.47-2.51-3.32,2.64-.81,6.01-2.56,8.22-4.26-.34-.34-.68-.72-1.07-1.11-1.66,1.02-3.32,1.87-4.98,2.6-.51-.85-1.79-2.56-2.56-3.37,2.6-.89,5.37-2.17,7.58-3.71h-6.73v-4h13.72l.34-1.7h-12.14c.94-2.98,2.13-7.71,2.81-11.37l4.56,.43-.43,2h7.24l.72-.17,3.28,.47c-.47,3.24-1.19,6.99-1.92,10.35h5.58v4h-11.29c-.81,.81-1.66,1.58-2.64,2.3,1.24,1.07,2.26,2.22,3.07,3.37,2.6-1.32,5.54-3.11,7.5-4.56l3.24,3.02Zm-8.9-13.25l.38-2.13h-7.16l-.55,2.13h7.33Z" style="fill: #da4e36;"/>
    </g>
  </g>
</svg>