<svg height="118.58" viewBox="0 0 1593.18 118.58" width="1593.18" xmlns="http://www.w3.org/2000/svg"><g fill="#fff" opacity=".2"><path d="m98.86 72.84h-18.68l68-70.22h31.13v79.68h-31.15v-54.3l9.34 3.86-49.18 50.44h-37.32l-49.34-50.3 9.47-3.86v54.16h-31.13v-79.68h31.13z"/><path d="m227.85 48.68v10h94.62v23.62h-125.75v-79.68h125.5v23.65h-94.37v10h77.15v12.41z"/><path d="m338.66 82.3v-79.68h96.24a75 75 0 0 1 20.36 2.55 29.17 29.17 0 0 1 14.32 8.53q5.28 6 5.29 16.31a23.14 23.14 0 0 1 -2.49 11.33 17.93 17.93 0 0 1 -6.85 7 33.14 33.14 0 0 1 -10 3.61 75.52 75.52 0 0 1 -11.7 1.37l-9.09-1.74a186.87 186.87 0 0 1 22.84 1.24q8 1.13 11.21 4.05c2.12 1.95 3.17 4.75 3.17 8.4v17.03h-31.08v-13.3a9.41 9.41 0 0 0 -1.44-5.67c-.95-1.28-3-2.18-6.22-2.68a106.7 106.7 0 0 0 -14.75-.74h-48.69v22.39zm31.12-43.2h65.12a14.27 14.27 0 0 0 6.29-1.25q2.55-1.24 2.55-4.73a4.42 4.42 0 0 0 -2.55-4.42 14.9 14.9 0 0 0 -6.29-1.18h-65.12z"/><path d="m639.59 49.06a29.19 29.19 0 0 1 -8.59 19.79q-8 8-23.47 12t-39.16 4a243.51 243.51 0 0 1 -32.37-1.99q-14.32-1.94-24.4-6.6a36 36 0 0 1 -15.44-12.76q-5.36-8.1-5.36-20.42t5.36-20.61a37.2 37.2 0 0 1 15.44-13.19 83.42 83.42 0 0 1 24.4-7 223 223 0 0 1 32.37-2.16q23.65 0 39.22 4.3t23.53 12.64a30.7 30.7 0 0 1 8.59 20.29h-32.37a15.88 15.88 0 0 0 -5.48-7c-2.65-2-6.64-3.63-12-4.8s-12.49-1.74-21.54-1.74q-15.93 0-25.9 1.93t-14.56 6.16a14.48 14.48 0 0 0 -4.61 11.21 13 13 0 0 0 4.61 10.33q4.61 4 14.56 5.86t25.9 1.86q13.57 0 21.48-1.62t11.89-4.42a15.72 15.72 0 0 0 5.48-6z"/><path d="m655.9 2.62h31.1v79.68h-31.1zm26.64 27.51h87.66v23.66h-87.66zm84.17-27.51h31.13v79.68h-31.13z"/><path d="m807.8 82.3 53.41-79.68h34.61l53.91 79.68h-34.24l-46.19-71.3h18.55l-45.85 71.3zm27.89-12.08v-18.67h85.16v18.67z"/><path d="m1084.57 57.9-11.57 6.6v-61.88h31.13v79.68h-31.13l-93.76-54.3 11.58-6.72v61h-31.13v-79.66h31.13z"/><path d="m1211.2 2.62q16.8 0 27.76 3.23t17.18 8.84a31.2 31.2 0 0 1 8.78 12.76 44.44 44.44 0 0 1 2.55 15 40 40 0 0 1 -2.86 15 32.79 32.79 0 0 1 -9.4 12.76q-6.54 5.61-17.31 8.84t-26.7 3.24h-89.65v-79.67zm-58.52 54.78h57.32a63.14 63.14 0 0 0 11.83-.94 22.15 22.15 0 0 0 7.78-2.8 11 11 0 0 0 4.23-4.67 15.13 15.13 0 0 0 1.31-6.53 15.21 15.21 0 0 0 -1.31-6.54 11.09 11.09 0 0 0 -4.23-4.67 22.35 22.35 0 0 0 -7.78-2.8 64.09 64.09 0 0 0 -11.83-.93h-57.27z"/><path d="m1285.52 2.62h31.13v79.68h-31.13z"/><path d="m1331.59 53h34c.58 1.74 2.28 3.22 5.11 4.42a44.48 44.48 0 0 0 11.39 2.74 130.53 130.53 0 0 0 16.62.93c6.23 0 11.14-.18 14.76-.56s6.16-1 7.65-2a4.42 4.42 0 0 0 2.24-3.92q0-2.37-3.61-3.67t-12.82-1.81q-9.23-.49-25.9-.5a168 168 0 0 1 -21.48-1.18 54.55 54.55 0 0 1 -14.81-3.74 19.78 19.78 0 0 1 -8.53-6.47 16 16 0 0 1 -2.74-9.4 20.77 20.77 0 0 1 6.41-15.63q6.42-6.15 19.42-9.21t32.56-3q28.64 0 43.77 8.28t15.12 23.84h-32.25q-.63-4.11-7.72-6.28t-20.17-2.18q-13 0-19.24 1.49t-6.29 5.11a3.39 3.39 0 0 0 1.75 3 16.81 16.81 0 0 0 6 1.81 100.87 100.87 0 0 0 12.17.93q7.83.26 19.92.25a167.08 167.08 0 0 1 22.66 1.31 56.41 56.41 0 0 1 15.12 3.92 18.9 18.9 0 0 1 8.41 6.66 17.21 17.21 0 0 1 2.61 9.53q0 9.47-6 15.44t-18.93 8.84q-12.94 2.85-33.86 2.86a159.62 159.62 0 0 1 -21.73-1.37 92.13 92.13 0 0 1 -17.62-4 49 49 0 0 1 -13.07-6.6 28.59 28.59 0 0 1 -8.16-8.84 21.67 21.67 0 0 1 -2.76-11z"/><path d="m1498.56 48.68v10h94.62v23.62h-125.75v-79.68h125.5v23.65h-94.37v10h77.19v12.41z"/></g><circle cx="648.38" cy="68.98" fill="#fff" r="44.32" stroke="#da4e36" stroke-miterlimit="10" stroke-width="3.39"/><path d="m659.51 27.41a5.72 5.72 0 0 1 -3.36-2.58c-1.51-2.61-3.75-5-7.77-5-2.82 0-6.07 1-7.78 3.19a.52.52 0 0 0 0 .66 1.55 1.55 0 0 1 .29 1.39c-.22.84-1.13 1.3-1.95 1.73a8 8 0 0 1 -1.71.66 5.71 5.71 0 0 1 -4.2-.56c-2.61-1.49-5.75-2.46-9.25-.48-2.45 1.39-4.76 3.9-5.15 6.66a.56.56 0 0 0 .34.57 1.55 1.55 0 0 1 .95 1.06 3.38 3.38 0 0 1 -.83 2.46 7.38 7.38 0 0 1 -1.15 1.42 5.63 5.63 0 0 1 -3.94 1.58c-3 0-6.22.74-8.26 4.21-1.43 2.42-2.17 5.76-1.13 8.34a.58.58 0 0 0 .58.33 1.51 1.51 0 0 1 1.35.43 3.36 3.36 0 0 1 .51 2.55 8.09 8.09 0 0 1 -.27 1.81 5.69 5.69 0 0 1 -2.58 3.36c-2.6 1.52-5 3.76-5.05 7.78 0 2.81 1 6.07 3.19 7.78a.55.55 0 0 0 .66 0 1.56 1.56 0 0 1 1.39-.3c.84.22 1.3 1.13 1.73 2a8.41 8.41 0 0 1 .66 1.71 5.66 5.66 0 0 1 -.56 4.2c-1.49 2.61-2.46 5.75-.48 9.26 1.39 2.45 3.9 4.75 6.66 5.14a.55.55 0 0 0 .57-.34 1.6 1.6 0 0 1 1.06-.95 3.35 3.35 0 0 1 2.45.83 7.52 7.52 0 0 1 1.43 1.15 5.64 5.64 0 0 1 1.63 3.92c0 3 .74 6.21 4.22 8.25 2.41 1.43 5.75 2.17 8.33 1.13a.58.58 0 0 0 .33-.58 1.51 1.51 0 0 1 .43-1.35 3.37 3.37 0 0 1 2.55-.51 8.09 8.09 0 0 1 1.81.27 5.69 5.69 0 0 1 3.36 2.58c1.52 2.61 3.76 5 7.78 5 2.82 0 6.07-1 7.78-3.18a.57.57 0 0 0 0-.67 1.56 1.56 0 0 1 -.3-1.39c.23-.84 1.13-1.29 1.95-1.72a7.89 7.89 0 0 1 1.71-.67 5.65 5.65 0 0 1 4.2.56c2.62 1.5 5.75 2.46 9.26.48 2.45-1.38 4.75-3.9 5.14-6.65a.58.58 0 0 0 -.33-.58 1.58 1.58 0 0 1 -1-1 3.39 3.39 0 0 1 .83-2.47 7.78 7.78 0 0 1 1.15-1.42 5.64 5.64 0 0 1 3.92-1.62c3 0 6.21-.75 8.26-4.22 1.42-2.42 2.16-5.76 1.12-8.33a.56.56 0 0 0 -.57-.33 1.52 1.52 0 0 1 -1.35-.44 3.3 3.3 0 0 1 -.52-2.54 8.09 8.09 0 0 1 .27-1.82 5.67 5.67 0 0 1 2.59-3.36c2.6-1.51 5-3.75 5-7.78 0-2.81-1-6.06-3.18-7.77a.54.54 0 0 0 -.67 0 1.58 1.58 0 0 1 -1.39.29c-.84-.22-1.29-1.13-1.72-2a8.22 8.22 0 0 1 -.67-1.71 5.75 5.75 0 0 1 .56-4.2c1.61-2.63 2.61-5.75.61-9.25-1.39-2.45-3.9-4.76-6.65-5.15a.57.57 0 0 0 -.58.34 1.56 1.56 0 0 1 -1 1 3.36 3.36 0 0 1 -2.46-.83 7.44 7.44 0 0 1 -1.43-1.15 5.62 5.62 0 0 1 -1.62-3.91c0-3-.75-6.22-4.22-8.26-2.42-1.42-5.76-2.17-8.33-1.13a.56.56 0 0 0 -.33.58 1.53 1.53 0 0 1 -.44 1.35 3.33 3.33 0 0 1 -2.54.51 8.17 8.17 0 0 1 -1.82-.27z" fill="none" stroke="#e8382f" stroke-miterlimit="10" stroke-width=".81"/><path d="m632.67 85.41a41 41 0 0 1 -9.4 14.32 39.67 39.67 0 0 0 -6.25-4.4 29.26 29.26 0 0 0 8.22-11.76zm12.81-2.41h-24.32v-42.15h24.32zm-7.62-36h-9.33v6h9.33zm0 11.76h-9.33v6.14h9.33zm0 11.9h-9.33v6.14h9.33zm2.56 12.75a48 48 0 0 1 7.23 10.59l-6.57 3.35a51.67 51.67 0 0 0 -7-11.1zm38.71-22.41h-7.13v29.8c0 3.94-.79 6-3 7.29s-5.52 1.64-10.32 1.64a28.84 28.84 0 0 0 -2.62-7.73c3 .14 5.92.14 6.9.14s1.38-.4 1.38-1.38v-20c-3.88 7.49-8.67 14.07-13.86 18.6a37.27 37.27 0 0 0 -5.33-5.72c6.57-4.93 12.69-13.73 16.5-22.67h-14.46v-7.24h17.15v-15.25h7.66v15.25h7.1z" fill="#da4e36"/><circle cx="746.77" cy="68.98" fill="#fff" r="44.32" stroke="#da4e36" stroke-miterlimit="10" stroke-width="3.39"/><path d="m757.91 27.41a5.69 5.69 0 0 1 -3.36-2.58c-1.52-2.61-3.76-5-7.78-5-2.81 0-6.07 1-7.78 3.19a.54.54 0 0 0 0 .66 1.59 1.59 0 0 1 .3 1.39c-.23.84-1.14 1.3-1.95 1.73a8.41 8.41 0 0 1 -1.71.66 5.7 5.7 0 0 1 -4.2-.56c-2.62-1.49-5.76-2.46-9.26-.48-2.45 1.39-4.76 3.9-5.14 6.66a.54.54 0 0 0 .33.57 1.53 1.53 0 0 1 .95 1.06 3.33 3.33 0 0 1 -.82 2.46 7.78 7.78 0 0 1 -1.15 1.42 5.63 5.63 0 0 1 -3.91 1.63c-3 0-6.22.74-8.26 4.21-1.43 2.42-2.17 5.76-1.13 8.34a.56.56 0 0 0 .58.33 1.51 1.51 0 0 1 1.35.43 3.36 3.36 0 0 1 .51 2.55 7.57 7.57 0 0 1 -.28 1.81 5.65 5.65 0 0 1 -2.58 3.36c-2.6 1.52-5 3.76-5 7.78 0 2.81 1 6.07 3.2 7.78a.55.55 0 0 0 .66 0 1.56 1.56 0 0 1 1.39-.3c.84.22 1.3 1.13 1.72 2a7.86 7.86 0 0 1 .66 1.71 5.65 5.65 0 0 1 -.55 4.2c-1.49 2.61-2.46 5.75-.48 9.26 1.38 2.45 3.9 4.75 6.65 5.14a.56.56 0 0 0 .58-.34 1.56 1.56 0 0 1 1.05-.95 3.36 3.36 0 0 1 2.46.83 7.84 7.84 0 0 1 1.43 1.15 5.72 5.72 0 0 1 1.63 3.92c0 3 .74 6.21 4.21 8.25 2.42 1.43 5.75 2.17 8.33 1.13a.57.57 0 0 0 .33-.58 1.54 1.54 0 0 1 .44-1.35 3.35 3.35 0 0 1 2.55-.51 8.17 8.17 0 0 1 1.81.27 5.75 5.75 0 0 1 3.36 2.58c1.51 2.61 3.75 5 7.78 5 2.81 0 6.07-1 7.78-3.18a.57.57 0 0 0 0-.67 1.53 1.53 0 0 1 -.3-1.39c.22-.84 1.13-1.29 1.94-1.72a8.31 8.31 0 0 1 1.71-.67 5.64 5.64 0 0 1 4.2.56c2.62 1.5 5.76 2.46 9.26.48 2.45-1.38 4.76-3.9 5.14-6.65a.55.55 0 0 0 -.33-.58 1.54 1.54 0 0 1 -.95-1 3.38 3.38 0 0 1 .82-2.47 8.22 8.22 0 0 1 1.15-1.42 5.64 5.64 0 0 1 3.92-1.62c3 0 6.21-.75 8.26-4.22 1.42-2.42 2.16-5.76 1.13-8.33a.57.57 0 0 0 -.58-.33 1.52 1.52 0 0 1 -1.35-.44 3.3 3.3 0 0 1 -.52-2.54 8.11 8.11 0 0 1 .28-1.82 5.69 5.69 0 0 1 2.58-3.36c2.6-1.51 5-3.75 5.05-7.78 0-2.81-1-6.06-3.19-7.77a.54.54 0 0 0 -.67 0 1.57 1.57 0 0 1 -1.39.29c-.83-.22-1.29-1.13-1.71-2a8.22 8.22 0 0 1 -.67-1.71 5.66 5.66 0 0 1 .56-4.2c1.49-2.61 2.46-5.75.47-9.25-1.38-2.45-3.9-4.76-6.65-5.15a.58.58 0 0 0 -.58.34 1.55 1.55 0 0 1 -1 1 3.38 3.38 0 0 1 -2.47-.83 7.44 7.44 0 0 1 -1.43-1.15 5.66 5.66 0 0 1 -1.62-3.91c0-3-.74-6.22-4.21-8.26-2.43-1.42-5.76-2.17-8.34-1.13a.57.57 0 0 0 -.33.58 1.55 1.55 0 0 1 -.43 1.35 3.35 3.35 0 0 1 -2.55.51 8.09 8.09 0 0 1 -1.81-.27z" fill="none" stroke="#e8382f" stroke-miterlimit="10" stroke-width=".81"/><path d="m740 51.89a63.26 63.26 0 0 1 -7.1 13.87c2.56 2.3 7 6.83 8.15 8.15l-4.4 6.5c-1.12-1.71-2.89-4.07-4.67-6.44v25.63h-7.16v-24a54.42 54.42 0 0 1 -6.9 5.72 33 33 0 0 0 -2.76-8c6.11-3.55 12-10 15.77-17h-14.06v-7h10.84a77.05 77.05 0 0 0 -4.86-7.75l6.15-3.35a56.55 56.55 0 0 1 5.52 8.22l-4.6 2.82h5.06l1.25-.33zm35.29-4.21v35.82h-7.36v-2.36h-6v18.46h-7.62v-18.46h-5.92v3h-7.1v-36.46h13v-9.46h7.71v9.46zm-26.88 7v6.32h5.92v-6.35zm5.92 19.58v-6.47h-5.92v6.44zm7.67-19.61v6.35h6v-6.35zm6 19.58v-6.44h-6v6.44z" fill="#da4e36"/><circle cx="845.17" cy="68.98" fill="#fff" r="44.32" stroke="#da4e36" stroke-miterlimit="10" stroke-width="3.39"/><path d="m856.3 27.41a5.72 5.72 0 0 1 -3.36-2.58c-1.51-2.61-3.75-5-7.77-5-2.82 0-6.07 1-7.78 3.19a.52.52 0 0 0 0 .66 1.55 1.55 0 0 1 .29 1.39c-.22.84-1.13 1.3-1.95 1.73a8 8 0 0 1 -1.71.66 5.71 5.71 0 0 1 -4.2-.56c-2.61-1.49-5.75-2.46-9.25-.48-2.45 1.39-4.76 3.9-5.15 6.66a.56.56 0 0 0 .34.57 1.55 1.55 0 0 1 1 1.06 3.38 3.38 0 0 1 -.83 2.46 7.38 7.38 0 0 1 -1.15 1.42 5.63 5.63 0 0 1 -3.91 1.63c-3 0-6.22.74-8.26 4.21-1.43 2.42-2.17 5.76-1.13 8.34a.58.58 0 0 0 .58.33 1.51 1.51 0 0 1 1.35.43 3.36 3.36 0 0 1 .51 2.55 8.09 8.09 0 0 1 -.27 1.81 5.69 5.69 0 0 1 -2.65 3.31c-2.6 1.52-5 3.76-5 7.78 0 2.81 1 6.07 3.19 7.78a.55.55 0 0 0 .66 0 1.56 1.56 0 0 1 1.39-.3c.84.22 1.3 1.13 1.73 2a8.41 8.41 0 0 1 .66 1.71 5.66 5.66 0 0 1 -.56 4.2c-1.49 2.61-2.46 5.75-.48 9.26 1.39 2.45 3.9 4.75 6.66 5.14a.55.55 0 0 0 .57-.34 1.6 1.6 0 0 1 1.06-.95 3.35 3.35 0 0 1 2.45.83 7.52 7.52 0 0 1 1.43 1.15 5.64 5.64 0 0 1 1.63 3.92c0 3 .74 6.21 4.22 8.25 2.41 1.43 5.75 2.17 8.33 1.13a.58.58 0 0 0 .33-.58 1.51 1.51 0 0 1 .43-1.35 3.37 3.37 0 0 1 2.55-.51 8.09 8.09 0 0 1 1.81.27 5.69 5.69 0 0 1 3.36 2.58c1.52 2.61 3.76 5 7.78 5 2.82 0 6.07-1 7.78-3.18a.57.57 0 0 0 0-.67 1.56 1.56 0 0 1 -.3-1.39c.23-.84 1.13-1.29 2-1.72a7.89 7.89 0 0 1 1.71-.67 5.65 5.65 0 0 1 4.2.56c2.62 1.5 5.75 2.46 9.26.48 2.45-1.38 4.75-3.9 5.14-6.65a.58.58 0 0 0 -.33-.58 1.58 1.58 0 0 1 -1-1 3.39 3.39 0 0 1 .83-2.47 7.78 7.78 0 0 1 1.15-1.42 5.64 5.64 0 0 1 3.92-1.62c3 0 6.21-.75 8.26-4.22 1.42-2.42 2.16-5.76 1.12-8.33a.56.56 0 0 0 -.57-.33 1.52 1.52 0 0 1 -1.35-.44 3.3 3.3 0 0 1 -.52-2.54 8.09 8.09 0 0 1 .27-1.82 5.67 5.67 0 0 1 2.59-3.36c2.6-1.51 5-3.75 5-7.78 0-2.81-1-6.06-3.18-7.77a.54.54 0 0 0 -.67 0 1.58 1.58 0 0 1 -1.39.29c-.84-.22-1.29-1.13-1.72-2a8.22 8.22 0 0 1 -.67-1.71 5.75 5.75 0 0 1 .56-4.2c1.49-2.61 2.47-5.75.48-9.25-1.39-2.45-3.9-4.76-6.65-5.15a.57.57 0 0 0 -.58.34 1.56 1.56 0 0 1 -1 1 3.36 3.36 0 0 1 -2.46-.83 7.44 7.44 0 0 1 -1.43-1.15 5.62 5.62 0 0 1 -1.65-3.96c0-3-.75-6.22-4.22-8.26-2.42-1.42-5.76-2.17-8.33-1.13a.56.56 0 0 0 -.33.58 1.53 1.53 0 0 1 -.44 1.35 3.33 3.33 0 0 1 -2.54.51 8.17 8.17 0 0 1 -1.82-.27z" fill="none" stroke="#e8382f" stroke-miterlimit="10" stroke-width=".81"/><path d="m836.36 63.46a85 85 0 0 1 4.14 13.67l-5.92 2.1a30.72 30.72 0 0 0 -.59-3c-13.28 1.84-15.64 2.43-17.15 3.15a66.54 66.54 0 0 0 -2.37-6.83c1.71-.4 3.09-1.84 5.19-4.21a54.93 54.93 0 0 0 4.34-5.54c-5.19.59-6.7 1-7.62 1.45-.4-1.45-1.51-4.74-2.3-6.64 1.31-.33 2.36-1.58 3.74-3.55a77.67 77.67 0 0 0 8.18-16.17l6.9 2.89a96.78 96.78 0 0 1 -9.27 15.84l4.67-.33c1.58-2.63 3.22-5.52 4.53-8.28l6.38 4a118.08 118.08 0 0 1 -13.57 18.99l6.77-.72c-.46-1.78-1-3.49-1.57-5.06zm-13.21 19a76.83 76.83 0 0 1 -3 16.23 39.67 39.67 0 0 0 -5.92-2.1c1.52-3.81 2.3-9.79 2.7-15.12zm7-1.18a129.38 129.38 0 0 1 2 14.85l-5.91 1.18a130.93 130.93 0 0 0 -1.64-15zm6.64-2a83.16 83.16 0 0 1 3.68 12.89l-5.47 1.83a99.85 99.85 0 0 0 -3.42-13zm24.32-25.76v7.48h12.42v7.17h-31.92v-7.17h11.44v-7.47h-13.28v-7.23h13.28v-8.08h8v8.08h14v7.23zm-18.31 19.73h29.11v26.16h-7.62v-2.57h-14.2v2.83h-7.29zm7.29 7v9.53h14.2v-9.5z" fill="#da4e36"/><circle cx="943.56" cy="68.98" fill="#fff" r="44.32" stroke="#da4e36" stroke-miterlimit="10" stroke-width="3.39"/><path d="m954.7 27.41a5.74 5.74 0 0 1 -3.37-2.58c-1.51-2.61-3.75-5-7.77-5-2.81 0-6.07 1-7.78 3.19a.54.54 0 0 0 0 .66 1.59 1.59 0 0 1 .3 1.39c-.23.84-1.14 1.3-2 1.73a8.41 8.41 0 0 1 -1.71.66 5.7 5.7 0 0 1 -4.2-.56c-2.62-1.49-5.76-2.46-9.26-.48-2.45 1.39-4.76 3.9-5.14 6.66a.54.54 0 0 0 .33.57 1.53 1.53 0 0 1 1 1.06 3.33 3.33 0 0 1 -.82 2.46 7.78 7.78 0 0 1 -1.15 1.42 5.63 5.63 0 0 1 -3.91 1.63c-3 0-6.22.74-8.26 4.21-1.43 2.42-2.17 5.76-1.13 8.34a.56.56 0 0 0 .58.33 1.51 1.51 0 0 1 1.35.43 3.36 3.36 0 0 1 .51 2.55 7.57 7.57 0 0 1 -.28 1.81 5.69 5.69 0 0 1 -2.58 3.36c-2.6 1.52-5 3.76-5 7.78 0 2.81 1 6.07 3.2 7.78a.55.55 0 0 0 .66 0 1.56 1.56 0 0 1 1.39-.3c.84.22 1.3 1.13 1.72 2a7.86 7.86 0 0 1 .66 1.71 5.65 5.65 0 0 1 -.55 4.2c-1.49 2.51-2.49 5.65-.49 9.16 1.38 2.45 3.9 4.75 6.65 5.14a.56.56 0 0 0 .58-.34 1.56 1.56 0 0 1 1-.95 3.36 3.36 0 0 1 2.46.83 7.84 7.84 0 0 1 1.43 1.15 5.72 5.72 0 0 1 1.63 3.92c0 3 .74 6.21 4.21 8.25 2.42 1.43 5.75 2.17 8.33 1.13a.57.57 0 0 0 .33-.58 1.54 1.54 0 0 1 .44-1.35 3.35 3.35 0 0 1 2.55-.51 8.17 8.17 0 0 1 1.81.27 5.75 5.75 0 0 1 3.36 2.58c1.51 2.61 3.75 5 7.78 5 2.81 0 6.07-1 7.78-3.18a.57.57 0 0 0 0-.67 1.53 1.53 0 0 1 -.3-1.39c.22-.84 1.13-1.29 1.94-1.72a8.31 8.31 0 0 1 1.71-.67 5.64 5.64 0 0 1 4.2.56c2.62 1.5 5.76 2.46 9.26.48 2.45-1.38 4.76-3.9 5.14-6.65a.55.55 0 0 0 -.33-.58 1.54 1.54 0 0 1 -1-1 3.38 3.38 0 0 1 .82-2.47 8.22 8.22 0 0 1 1.22-1.42 5.64 5.64 0 0 1 3.92-1.62c3 0 6.21-.75 8.26-4.22 1.42-2.42 2.16-5.76 1.13-8.33a.57.57 0 0 0 -.58-.33 1.52 1.52 0 0 1 -1.35-.44 3.3 3.3 0 0 1 -.52-2.54 8.11 8.11 0 0 1 .28-1.82 5.69 5.69 0 0 1 2.58-3.36c2.6-1.51 5-3.75 5-7.78 0-2.81-1-6.06-3.19-7.77a.54.54 0 0 0 -.67 0 1.57 1.57 0 0 1 -1.39.29c-.83-.22-1.29-1.13-1.71-2a8.22 8.22 0 0 1 -.67-1.71 5.66 5.66 0 0 1 .56-4.2c1.49-2.61 2.46-5.75.47-9.25-1.38-2.45-3.9-4.76-6.65-5.15a.58.58 0 0 0 -.58.34 1.55 1.55 0 0 1 -1 1 3.38 3.38 0 0 1 -2.47-.83 7.44 7.44 0 0 1 -1.42-1.15 5.66 5.66 0 0 1 -1.62-3.91c0-3-.74-6.22-4.21-8.26-2.43-1.42-5.76-2.17-8.34-1.13a.57.57 0 0 0 -.33.58 1.55 1.55 0 0 1 -.43 1.35 3.35 3.35 0 0 1 -2.55.51 8.09 8.09 0 0 1 -1.81-.27z" fill="none" stroke="#e8382f" stroke-miterlimit="10" stroke-width=".81"/><path d="m920.42 82.38a73.2 73.2 0 0 1 -2.69 16 29.93 29.93 0 0 0 -5.45-2c1.44-3.88 2.16-9.73 2.49-15zm-7.88-24.38c1.12-.33 2.23-1.58 3.48-3.55 1.32-1.77 5.19-9.13 7.49-16l6.25 2.57a99.49 99.49 0 0 1 -8.68 16.1l4.73-.33c1.65-3 3.29-6.18 4.67-9.33l5.65 3.68a120.84 120.84 0 0 1 -13.54 20.7l7.63-1.12c-.66-1.9-1.38-3.88-2.17-5.58l5-1.91a51.47 51.47 0 0 1 4.27 12.29l-5.25 2.23c-.07-.52-.2-1-.33-1.64-13.09 2.2-15.32 2.89-16.74 3.51l-.07-.92c-.39-1.57-1.31-4.14-1.84-5.65 1.52-.39 2.9-1.9 4.87-4.4.85-1 2.3-3 4.14-5.78-5.13.59-6.57 1-7.49 1.38a63 63 0 0 0 -2.07-6.25zm14.52 23a125.85 125.85 0 0 1 1.71 13.67l-5.45 1.45c-.14-3.81-.73-9.46-1.38-13.8zm46.79-10c-1.85 1.2-3.85 2.31-5.91 3.5 1 6.44 3.09 12.42 6.64 15.51a19.16 19.16 0 0 0 -4.67 5.58c-4.07-3.94-6.18-10.71-7.36-18.2-.92.39-1.84.85-2.69 1.25 2.89 8 1.18 16-2.17 18.79-1.84 1.71-3.55 2.17-6.25 2.24a37.68 37.68 0 0 1 -3.81-.07 14.3 14.3 0 0 0 -1.71-6.6 24.66 24.66 0 0 0 4.14.39 3 3 0 0 0 2.94-1.39c.85-.92 1.44-2.89 1.44-5.52a66.62 66.62 0 0 1 -14.65 9.33 26.21 26.21 0 0 0 -3.09-4.14l-4.34 1.71a93.63 93.63 0 0 0 -3.42-12.62l4.76-1.76a102.49 102.49 0 0 1 3.42 11c5.71-2.23 12.29-6.24 16.1-10.18a15.63 15.63 0 0 0 -1-2.24 64.24 64.24 0 0 1 -11.7 7.23 28.66 28.66 0 0 0 -3.87-5.13 44.63 44.63 0 0 0 12.68-6.57c-.52-.52-1.05-1.11-1.64-1.71a60.89 60.89 0 0 1 -7.69 4 40.84 40.84 0 0 0 -3.94-5.19 49.37 49.37 0 0 0 11.69-5.72h-10.37v-6.09h21.16l.53-2.63h-18.73a172.7 172.7 0 0 0 4.33-17.55l7 .66-.62 3.12h11.17l1.12-.27 5.06.73c-.72 5-1.84 10.77-3 16h8.61v6.17h-17.37a35.33 35.33 0 0 1 -4.08 3.55 29 29 0 0 1 4.73 5.19 88.08 88.08 0 0 0 11.57-7zm-13.73-20.49.59-3.29h-11l-.85 3.29z" fill="#da4e36"/></svg>