<svg height="41.82" viewBox="0 0 134.25 41.82" width="134.25" xmlns="http://www.w3.org/2000/svg"><path d="m116.08 41.82 18.17-16.39a6.4 6.4 0 0 1 0-9l-18.17-16.43h-97.91l-18.17 16.39a6.4 6.4 0 0 1 0 9l18.17 16.43z" fill="#ec6531"/><g fill="#fff"><path d="m58.47 15.46a4.92 4.92 0 0 1 -2.87 4.13 3.94 3.94 0 0 0 -.67-.91v7.65c0 .62-.12 1-.53 1.25a5.15 5.15 0 0 1 -2 .22 4.71 4.71 0 0 0 -.44-1.22h1.55c.2 0 .27-.07.27-.28v-2.54h-3.39a9.47 9.47 0 0 1 -1.17 4.08 6.42 6.42 0 0 0 -1-.64c1-1.64 1.13-3.94 1.13-5.69v-2.51l-.14.17a9.7 9.7 0 0 0 -1-.85 11.46 11.46 0 0 0 2.29-4.89l1.3.3c-.11.38-.22.75-.34 1.13h1.54l.19-.06.83.53a20.66 20.66 0 0 1 -.92 2.06h1.81v1.13a3.8 3.8 0 0 0 2.24-3.08h-1.87v-1.19h6.61s0 .35 0 .5c-.11 2.54-.25 3.59-.56 4a1.18 1.18 0 0 1 -.87.44 10.79 10.79 0 0 1 -1.54 0 3.56 3.56 0 0 0 -.32-1.2 11.12 11.12 0 0 0 1.24.06.39.39 0 0 0 .41-.14 5.94 5.94 0 0 0 .35-2.42zm-7.47.54c-.2.49-.41 1-.64 1.41h1.55a12.55 12.55 0 0 0 .56-1.41zm-.52 5.53v1.12h1.17v-1.58h-1.17zm0-1.54h1.15v-1.48h-1.15zm2.14 0h1.14v-1.48h-1.14zm1.14 2.66v-1.58h-1.14v1.58zm8.54 2.35h-2.76v2.75h-1.34v-2.75h-3v-1.27h3v-1.73h-1.49a8.17 8.17 0 0 1 -.71 1.43 6.84 6.84 0 0 0 -1.07-.57 8.91 8.91 0 0 0 1.31-3.45l1.17.25c-.08.38-.17.76-.27 1.13h1.06v-1.5h1.34v1.5h2.46v1.21h-2.46v1.69h2.76z"/><path d="m70.28 15.41a10.22 10.22 0 0 1 -1.51 1.59 7.81 7.81 0 0 0 -.94-1 8.06 8.06 0 0 0 2.23-2.71l1.25.41c-.12.25-.26.47-.4.72h3.7v.95h-2.36a8.67 8.67 0 0 1 1.14 1.11l-1.12.61a9.11 9.11 0 0 0 -1.27-1.27l.79-.41zm10.66 5.82a11.66 11.66 0 0 1 -2 3.92c.35.82.74 1.27 1.18 1.27.29 0 .41-.36.47-1.42a3.4 3.4 0 0 0 1 .64c-.19 1.64-.59 2.08-1.58 2.08-.82 0-1.47-.56-2-1.53a12 12 0 0 1 -2.28 1.72 4.8 4.8 0 0 0 -.73-.91l.23-.14c-2.55.24-5.15.41-7.07.53l-.16-1.11 2.56-.13v-.82h-2.19v-.85h2.15v-.75h-1.83v-.8h1.83v-.7h-2v-.83h2v-.8h-2.62v-1.06h1.16a6 6 0 0 0 -.7-.72 3.26 3.26 0 0 0 1.92-2.17l1.09.15a4.07 4.07 0 0 1 -.26.74 8.2 8.2 0 0 1 1.28 1.3 3.14 3.14 0 0 0 1.61-2.08l1.09.12a4.11 4.11 0 0 1 -.23.75 8.29 8.29 0 0 1 1.33 1.37l-.73.55h1.17c-.06-.83-.09-1.71-.11-2.61h1.32c0 .9 0 1.78.08 2.61h3.63v1.05h-3.55a23.87 23.87 0 0 0 .51 3.15 9.68 9.68 0 0 0 1.29-2.85zm-9.42-1.71a6.53 6.53 0 0 0 -.94-1.11 5.08 5.08 0 0 1 -1.32 1.13h3.74a4.88 4.88 0 0 0 -.65-.64zm.14 6.57 1.21-.09v-5.4h-1.21zm3.6-6.55a12.93 12.93 0 0 0 -.91-1 4.61 4.61 0 0 1 -1 1zm.74 6.8a8.84 8.84 0 0 0 1.55-1.34 20.84 20.84 0 0 1 -.83-4.38h-2.72v.8h2v.81h-2v.71h1.86v.8h-1.86v.7h2.1v.84h-2.1v.72l2-.11zm.72-10.93a8.68 8.68 0 0 1 -1.31 1.53 7.56 7.56 0 0 0 -1.06-.87 6.8 6.8 0 0 0 2-2.72l1.29.34a5.25 5.25 0 0 1 -.33.77h4.34v.95h-2.93a6.7 6.7 0 0 1 1 1l-1.21.59a6.94 6.94 0 0 0 -.94-1.11l1-.47zm2.8 1.53a9.36 9.36 0 0 1 1.48 1.72l-1 .61a9.24 9.24 0 0 0 -1.4-1.79z"/></g></svg>