<svg height="985.43" viewBox="0 0 174.23 985.43" width="174.23" xmlns="http://www.w3.org/2000/svg"><g fill="#fc462d" opacity=".2"><path d="m171.88 122.59h-22.33v-89.09h-10v72.87h-20v-72.87h-22.9v-29.39h75.23z"/><path d="m94.3 201.93q0-25.62 4.53-41.26t13.4-22.74q8.86-7.11 22-7.11t22 7.11q8.88 7.11 13.4 22.74t4.53 41.26q0 25.62-4.53 41.26t-13.4 22.74q-8.87 7.11-22 7.11t-22-7.11q-8.88-7.11-13.4-22.74t-4.53-41.26zm22.34 0a129.1 129.1 0 0 0 1.46 20.92q1.47 8.82 5.29 13.64t10.88 4.82q7 0 10.87-4.82t5.29-13.64a129 129 0 0 0 1.47-20.92 134.83 134.83 0 0 0 -1.47-21.22q-1.47-9.11-5.29-14.22t-10.87-5.11q-7.07 0-10.88 5.11t-5.29 14.22a134.93 134.93 0 0 0 -1.46 21.22z"/><path d="m96.65 288.32h75.23v90.86a70.84 70.84 0 0 1 -2.41 19.21 27.59 27.59 0 0 1 -8.05 13.52q-5.64 5-15.4 5a22 22 0 0 1 -10.7-2.35 16.91 16.91 0 0 1 -6.58-6.47 31.19 31.19 0 0 1 -3.41-9.4 72.17 72.17 0 0 1 -1.33-11.05l1.65-8.58a176.8 176.8 0 0 1 -1.18 21.57q-1 7.58-3.82 10.58c-1.84 2-4.49 3-7.93 3h-16.07v-29.39h12.58a8.93 8.93 0 0 0 5.35-1.35c1.21-.91 2.06-2.86 2.53-5.88a99.57 99.57 0 0 0 .7-13.93v-46h-21.16zm40.79 29.38v61.48a13.48 13.48 0 0 0 1.17 5.93q1.19 2.42 4.47 2.41a4.16 4.16 0 0 0 4.17-2.41 14 14 0 0 0 1.12-5.93v-61.48z"/><path d="m151.07 474.85v29.39h-54.42v-29.39zm20.81-46.43v122.24h-22.33v-122.24z"/><path d="m139.56 668.08h32.32v29.39h-37.61q-10 0-17-3.7a32 32 0 0 1 -11.52-10.29 52.13 52.13 0 0 1 -7-15.16 104.78 104.78 0 0 1 -3.47-18.4 198.27 198.27 0 0 1 -1-19.92q0-10.69 1-20.69a103.47 103.47 0 0 1 3.47-18.51 49 49 0 0 1 7-14.87 31.75 31.75 0 0 1 11.53-9.93q7-3.59 17-3.58h37.61v29.38h-32.33q-9.41 0-14.34 4.59t-6.76 13.1a99.2 99.2 0 0 0 -1.82 20.51 98 98 0 0 0 1.82 20.22q1.82 8.58 6.76 13.22t14.34 4.64z"/><path d="m119.69 831.81-6.23-10.93h58.42v29.39h-75.23v-29.39l51.25-88.5 6.35 10.93h-57.6v-29.39h75.23v29.39z"/><path d="m128.39 896.1h-9.39v89.33h-22.35v-118.71h75.23v118.48h-22.33v-89.1h-9.41v72.9h-11.75z"/><path d="m30 0v32.09c-1.64.55-3 2.15-4.17 4.82a41.75 41.75 0 0 0 -2.59 10.75 124.34 124.34 0 0 0 -.88 15.69q0 8.82.53 13.93t1.88 7.23a4.2 4.2 0 0 0 3.7 2.12q2.23 0 3.47-3.41t1.71-12.11q.47-8.7.47-24.45a159.58 159.58 0 0 1 1.08-20.27 51.87 51.87 0 0 1 3.53-14 18.61 18.61 0 0 1 6.11-8 15.07 15.07 0 0 1 8.87-2.59 19.59 19.59 0 0 1 14.76 6.02q5.81 6 8.69 18.33t2.84 30.74q0 27-7.81 41.31t-22.47 14.28v-30.48q3.87-.58 5.93-7.29t2.06-19q0-12.23-1.41-18.16t-4.82-5.93a3.24 3.24 0 0 0 -2.82 1.64 16.06 16.06 0 0 0 -1.66 5.74 95.73 95.73 0 0 0 -.89 11.46q-.23 7.41-.23 18.81a157.94 157.94 0 0 1 -1.23 21.39 53.2 53.2 0 0 1 -3.75 14.24 17.77 17.77 0 0 1 -6.29 7.94 16.22 16.22 0 0 1 -9 2.47q-8.93 0-14.57-5.65t-8.34-17.86q-2.7-12.22-2.7-31.97a150.48 150.48 0 0 1 1.29-20.51 88.33 88.33 0 0 1 3.82-16.63 46.77 46.77 0 0 1 6.23-12.35 27.08 27.08 0 0 1 8.35-7.7 20.41 20.41 0 0 1 10.31-2.64z"/><path d="m56.77 170v29.38h-54.42v-29.38zm20.81-46.43v122.2h-22.34v-122.24z"/><path d="m77.58 259.29v29.38h-75.23v-29.38z"/><path d="m33.73 446.17a27.53 27.53 0 0 1 -18.73-8.11q-7.51-7.51-11.28-22.15t-3.72-36.97a231.37 231.37 0 0 1 1.82-30.56 80.73 80.73 0 0 1 6.23-23 34.12 34.12 0 0 1 12.05-14.61q7.63-5.06 19.28-5t19.45 5a35.29 35.29 0 0 1 12.46 14.57 79.38 79.38 0 0 1 6.64 23 210.79 210.79 0 0 1 2 30.56q0 22.33-4.06 37t-11.93 22.28a29 29 0 0 1 -19.16 8.11v-30.56a15 15 0 0 0 6.64-5.17q2.88-3.76 4.58-11.28t1.64-20.34q0-15-1.82-24.45t-5.82-13.75a13.67 13.67 0 0 0 -10.57-4.35 12.3 12.3 0 0 0 -9.76 4.35q-3.77 4.35-5.52 13.75a136.84 136.84 0 0 0 -1.77 24.45q0 12.81 1.53 20.28t4.09 11.22a14.84 14.84 0 0 0 5.7 5.17z"/><path d="m77.58 461.57v29.43h-75.23v-29.43zm-38.2 62.65h6.62l-43.65 67.78v-43.69l40-57.59 35.27 53.13v41.84z"/><path d="m30 600.27v32.08c-1.64.55-3 2.16-4.17 4.82a41.84 41.84 0 0 0 -2.59 10.76 124.11 124.11 0 0 0 -.88 15.69q0 8.8.53 13.93t1.88 7.22a4.18 4.18 0 0 0 3.7 2.12q2.23 0 3.47-3.41t1.71-12.1q.47-8.7.47-24.45a159.64 159.64 0 0 1 1.11-20.28 52 52 0 0 1 3.53-14 18.67 18.67 0 0 1 6.11-8 15.14 15.14 0 0 1 8.84-2.65 19.58 19.58 0 0 1 14.76 6.05q5.81 6.06 8.69 18.34t2.84 30.76q0 27-7.81 41.32t-22.47 14.28v-30.44c2.58-.4 4.56-2.82 5.93-7.29s2.06-10.81 2.06-19-.47-14.21-1.41-18.16-2.55-5.94-4.82-5.94a3.23 3.23 0 0 0 -2.82 1.65 15.92 15.92 0 0 0 -1.7 5.7 95.37 95.37 0 0 0 -.89 11.46q-.23 7.41-.23 18.8a158.1 158.1 0 0 1 -1.23 21.4 53.41 53.41 0 0 1 -3.71 14.28 17.74 17.74 0 0 1 -6.29 7.93 16.14 16.14 0 0 1 -9 2.47q-8.93 0-14.57-5.64t-8.34-17.91q-2.7-12.22-2.7-31.97a150.59 150.59 0 0 1 1.29-20.51 88.52 88.52 0 0 1 3.82-16.58 46.69 46.69 0 0 1 6.23-12.34 27 27 0 0 1 8.35-7.7 20.41 20.41 0 0 1 10.31-2.69z"/></g></svg>