<svg height="68.56" preserveAspectRatio="none" width="68.56" xmlns="http://www.w3.org/2000/svg"><path d="m42 5.63a3.92 3.92 0 0 1 -2.31-1.78c-1.1-1.79-2.64-3.45-5.41-3.47a6.88 6.88 0 0 0 -5.36 2.2.36.36 0 0 0 0 .45 1.08 1.08 0 0 1 .2 1c-.15.58-.78.89-1.34 1.19a5.76 5.76 0 0 1 -1.18.45 3.89 3.89 0 0 1 -2.89-.38c-1.81-1-4-1.7-6.38-.33a6.91 6.91 0 0 0 -3.55 4.54.39.39 0 0 0 .23.4 1.08 1.08 0 0 1 .66.73 2.31 2.31 0 0 1 -.57 1.69 5.29 5.29 0 0 1 -.79 1 4 4 0 0 1 -2.7 1.12c-2.08 0-4.28.51-5.69 2.9a6.9 6.9 0 0 0 -.78 5.74.38.38 0 0 0 .4.23 1.07 1.07 0 0 1 .93.3 2.31 2.31 0 0 1 .35 1.76 4.84 4.84 0 0 1 -.19 1.24 3.91 3.91 0 0 1 -1.78 2.32c-1.79 1.07-3.45 2.58-3.47 5.35a6.87 6.87 0 0 0 2.2 5.36.36.36 0 0 0 .45 0 1.05 1.05 0 0 1 1-.2c.58.15.89.78 1.19 1.34a5.24 5.24 0 0 1 .41 1.22 3.88 3.88 0 0 1 -.38 2.89c-1 1.8-1.69 4-.33 6.38a6.9 6.9 0 0 0 4.59 3.55.39.39 0 0 0 .39-.24 1.09 1.09 0 0 1 .73-.65 2.31 2.31 0 0 1 1.69.57 5.37 5.37 0 0 1 1 .79 4 4 0 0 1 1.11 2.71c0 2.07.51 4.28 2.9 5.69a6.94 6.94 0 0 0 5.74.78.39.39 0 0 0 .23-.4 1.07 1.07 0 0 1 .3-.93 2.37 2.37 0 0 1 1.76-.36 5.51 5.51 0 0 1 1.25.2 3.88 3.88 0 0 1 2.31 1.77c1 1.8 2.59 3.46 5.36 3.48a6.93 6.93 0 0 0 5.37-2.23.4.4 0 0 0 0-.46 1.06 1.06 0 0 1 -.21-1c.15-.58.78-.89 1.34-1.19a5.42 5.42 0 0 1 1.22-.42 3.84 3.84 0 0 1 2.89.38c1.81 1 4 1.7 6.39.33a6.92 6.92 0 0 0 3.54-4.59.39.39 0 0 0 -.23-.39 1.08 1.08 0 0 1 -.66-.73 2.33 2.33 0 0 1 .57-1.7 5.66 5.66 0 0 1 .79-1 3.9 3.9 0 0 1 2.71-1.1c2.08 0 4.28-.51 5.7-2.9a7 7 0 0 0 .77-5.75.39.39 0 0 0 -.4-.22 1.07 1.07 0 0 1 -.93-.3 2.3 2.3 0 0 1 -.35-1.76 5 5 0 0 1 .14-1.2 3.89 3.89 0 0 1 1.78-2.31c1.79-1 3.45-2.59 3.47-5.36a6.91 6.91 0 0 0 -2.18-5.41.37.37 0 0 0 -.46 0 1.11 1.11 0 0 1 -1 .2c-.58-.15-.89-.78-1.18-1.34a5.26 5.26 0 0 1 -.46-1.18 3.92 3.92 0 0 1 .38-2.9c1-1.8 1.7-4 .33-6.37a6.9 6.9 0 0 0 -4.59-3.55.38.38 0 0 0 -.39.23 1.08 1.08 0 0 1 -.73.66 2.31 2.31 0 0 1 -1.69-.57 5.37 5.37 0 0 1 -1-.79 3.89 3.89 0 0 1 -1.11-2.7c0-2.08-.52-4.29-2.91-5.69a6.87 6.87 0 0 0 -5.74-.78.38.38 0 0 0 -.23.4 1.07 1.07 0 0 1 -.3.93 2.3 2.3 0 0 1 -1.76.35 5.49 5.49 0 0 1 -1.16-.19z" fill="none" stroke="#fc462d" stroke-miterlimit="10" stroke-width=".75"/></svg>