<?xml version="1.0" encoding="UTF-8"?>
<svg id="b" xmlns="http://www.w3.org/2000/svg" width="288.17" viewBox="0 0 288.17 54.62">
	<g id="c">
		<g opacity=".2">
			<g>
				<path d="M35.85,.69V7.22H9.8v2.92H31.11v5.84H9.8v6.7H1.2V.69H35.85Z" fill="#fc462d" />
				<path d="M59.05,23.37c-5,0-9.02-.44-12.06-1.32-3.05-.88-5.26-2.19-6.65-3.92-1.39-1.73-2.08-3.88-2.08-6.44s.69-4.71,2.08-6.44c1.39-1.73,3.6-3.04,6.65-3.92,3.05-.88,7.07-1.32,12.06-1.32s9.02,.44,12.06,1.32c3.05,.88,5.26,2.19,6.65,3.92,1.39,1.73,2.08,3.88,2.08,6.44s-.69,4.71-2.08,6.44c-1.39,1.73-3.6,3.04-6.65,3.92s-7.07,1.32-12.06,1.32Zm0-6.53c2.36,0,4.4-.14,6.12-.43,1.72-.29,3.05-.8,3.99-1.55,.94-.74,1.41-1.8,1.41-3.18s-.47-2.43-1.41-3.18-2.27-1.26-3.99-1.55c-1.72-.29-3.76-.43-6.12-.43s-4.43,.14-6.2,.43c-1.78,.29-3.16,.8-4.16,1.55s-1.5,1.8-1.5,3.18,.5,2.44,1.5,3.18c1,.75,2.38,1.26,4.16,1.55,1.78,.29,3.84,.43,6.2,.43Z" fill="#fc462d" />
				<path d="M84.31,22.69V.69h26.57c2.08,0,3.96,.24,5.62,.7,1.66,.47,2.98,1.25,3.95,2.35,.97,1.1,1.46,2.6,1.46,4.5,0,1.26-.23,2.3-.69,3.13-.46,.82-1.09,1.47-1.89,1.92s-1.72,.79-2.75,1-2.11,.33-3.23,.38l-2.51-.48c2.73,.02,4.83,.14,6.31,.34,1.48,.21,2.51,.58,3.09,1.12s.88,1.31,.88,2.32v4.71h-8.59v-3.68c0-.69-.13-1.21-.39-1.56-.26-.35-.84-.6-1.72-.74-.88-.14-2.24-.21-4.07-.21h-13.44v6.19h-8.59Zm8.59-11.93h17.98c.69,0,1.27-.11,1.74-.34s.71-.66,.71-1.31c0-.6-.24-1-.71-1.22s-1.05-.33-1.74-.33h-17.98v3.2Z" fill="#fc462d" />
				<path d="M125.28,.69h35.75V7.22h-35.75V.69Zm13.58,6.08h8.59v15.91h-8.59V6.77Z" fill="#fc462d" />
				<path d="M195.37,10.14V.69h8.59V11.69c0,1.95-.36,3.6-1.08,4.97-.72,1.36-1.72,2.49-3.01,3.37s-2.76,1.56-4.43,2.04c-1.67,.48-3.47,.82-5.38,1.01-1.91,.19-3.86,.29-5.83,.29-2.09,0-4.1-.1-6.05-.29-1.95-.2-3.75-.53-5.41-1.01-1.66-.48-3.11-1.16-4.35-2.04-1.24-.88-2.21-2-2.9-3.37-.7-1.36-1.05-3.02-1.05-4.97V.69h8.59V10.14c0,1.83,.45,3.23,1.34,4.19,.89,.96,2.17,1.62,3.83,1.98,1.66,.36,3.66,.53,6,.53s4.24-.18,5.91-.53c1.67-.35,2.96-1.01,3.87-1.98,.9-.96,1.36-2.36,1.36-4.19Z" fill="#fc462d" />
				<path d="M243.25,15.95l-3.2,1.82V.69h8.59V22.69h-8.59l-25.88-14.99,3.2-1.86V22.69h-8.59V.69h8.59l25.88,15.26Z" fill="#fc462d" />
				<path d="M262.05,13.41v2.75h26.12v6.53h-34.71V.69h34.65V7.22h-26.05v2.75h21.31v3.44h-21.31Z" fill="#fc462d" />
				<path d="M0,45.85H9.38c.16,.48,.63,.89,1.41,1.22s1.83,.58,3.15,.76,2.85,.26,4.59,.26,3.08-.05,4.07-.15c1-.1,1.7-.29,2.12-.55,.41-.26,.62-.62,.62-1.08s-.33-.77-1-1.01-1.84-.41-3.54-.5c-1.7-.09-4.08-.14-7.15-.14-2.29,0-4.27-.11-5.93-.33-1.66-.22-3.02-.56-4.09-1.03-1.07-.47-1.85-1.07-2.35-1.79s-.76-1.59-.76-2.6c0-1.74,.59-3.18,1.77-4.31,1.18-1.13,2.97-1.98,5.36-2.54s5.39-.84,8.99-.84c5.27,0,9.3,.76,12.08,2.29,2.78,1.52,4.18,3.72,4.18,6.58h-8.9c-.12-.76-.82-1.33-2.13-1.74s-3.16-.6-5.57-.6-4.15,.14-5.31,.41c-1.16,.28-1.74,.75-1.74,1.41,0,.34,.16,.62,.48,.82,.32,.21,.88,.37,1.67,.5,.79,.13,1.91,.21,3.35,.26s3.28,.07,5.5,.07c2.45,0,4.54,.12,6.26,.36,1.72,.24,3.11,.6,4.18,1.08,1.07,.48,1.84,1.09,2.32,1.84,.48,.75,.72,1.62,.72,2.63,0,1.74-.55,3.16-1.65,4.26-1.1,1.1-2.84,1.91-5.22,2.44-2.38,.53-5.5,.79-9.35,.79-2.18,0-4.18-.13-6-.38-1.82-.25-3.44-.62-4.86-1.12-1.42-.49-2.62-1.1-3.61-1.82s-1.74-1.54-2.25-2.44c-.52-.9-.77-1.91-.77-3.01Z" fill="#fc462d" />
				<path d="M36.12,31.93h35.75v6.53H36.12v-6.53Zm13.58,6.08h8.59v15.91h-8.59v-15.91Z" fill="#fc462d" />
				<path d="M75.82,31.93h8.59v22h-8.59V31.93Z" fill="#fc462d" />
				<path d="M130.47,44.75c-.12,2.18-.91,4-2.37,5.47s-3.63,2.57-6.48,3.3c-2.85,.73-6.46,1.1-10.81,1.1-3.32,0-6.3-.18-8.94-.53s-4.88-.96-6.74-1.82c-1.86-.86-3.28-2.03-4.26-3.52-.99-1.49-1.48-3.37-1.48-5.64s.49-4.16,1.48-5.69c.99-1.52,2.41-2.74,4.26-3.64,1.86-.9,4.1-1.55,6.74-1.94,2.64-.39,5.61-.58,8.94-.58,4.35,0,7.96,.4,10.83,1.19,2.86,.79,5.03,1.95,6.5,3.49,1.47,1.54,2.26,3.4,2.37,5.6h-8.94c-.27-.73-.78-1.38-1.51-1.94s-1.83-1-3.3-1.32c-1.47-.32-3.45-.48-5.95-.48-2.93,0-5.32,.18-7.15,.53-1.83,.36-3.17,.92-4.02,1.7-.85,.78-1.27,1.81-1.27,3.09,0,1.17,.42,2.12,1.27,2.85,.85,.73,2.19,1.27,4.02,1.62,1.83,.34,4.21,.52,7.15,.52,2.5,0,4.47-.15,5.93-.45,1.46-.3,2.55-.7,3.28-1.22s1.24-1.07,1.51-1.67h8.94Z" fill="#fc462d" />
				<path d="M134.98,31.93h8.59v22h-8.59V31.93Zm18.32,11.17v-1.92l19.83,12.75h-12.79l-16.84-11.69,15.54-10.31h12.24l-17.98,11.17Z" fill="#fc462d" />
				<path d="M175.54,45.85h9.38c.16,.48,.63,.89,1.41,1.22,.78,.33,1.83,.58,3.15,.76,1.32,.17,2.85,.26,4.59,.26s3.08-.05,4.07-.15c1-.1,1.7-.29,2.11-.55,.41-.26,.62-.62,.62-1.08s-.33-.77-1-1.01c-.66-.24-1.84-.41-3.54-.5-1.7-.09-4.08-.14-7.15-.14-2.29,0-4.27-.11-5.93-.33-1.66-.22-3.02-.56-4.09-1.03-1.06-.47-1.85-1.07-2.35-1.79s-.76-1.59-.76-2.6c0-1.74,.59-3.18,1.77-4.31,1.18-1.13,2.97-1.98,5.36-2.54s5.39-.84,8.99-.84c5.27,0,9.3,.76,12.08,2.29,2.78,1.52,4.18,3.72,4.18,6.58h-8.9c-.11-.76-.82-1.33-2.13-1.74-1.31-.4-3.16-.6-5.57-.6s-4.15,.14-5.31,.41c-1.16,.28-1.73,.75-1.73,1.41,0,.34,.16,.62,.48,.82,.32,.21,.88,.37,1.67,.5s1.91,.21,3.35,.26c1.44,.05,3.28,.07,5.5,.07,2.45,0,4.54,.12,6.26,.36,1.72,.24,3.11,.6,4.18,1.08,1.07,.48,1.84,1.09,2.32,1.84,.48,.75,.72,1.62,.72,2.63,0,1.74-.55,3.16-1.65,4.26-1.1,1.1-2.84,1.91-5.22,2.44s-5.5,.79-9.35,.79c-2.18,0-4.18-.13-6-.38-1.82-.25-3.44-.62-4.86-1.12s-2.62-1.1-3.61-1.82c-.98-.72-1.73-1.54-2.25-2.44-.52-.9-.77-1.91-.77-3.01Z" fill="#fc462d" />
			</g>
		</g>
	</g>
</svg>
