<svg height="563.37" viewBox="0 0 571.91 563.37" width="571.91" xmlns="http://www.w3.org/2000/svg"><path d="m571.16 562.62h-570.41v-532a29.91 29.91 0 0 0 29.91-29.87h510.59a29.91 29.91 0 0 0 29.91 29.91z" fill="#fff" stroke="#e8b356" stroke-miterlimit="10" stroke-width="1.49571"/><g fill="#4b4240"><path d="m47.82 511.71c-1 .08-.43.28 2.3.24l1.94-.33z"/><path d="m66.21 512.32c3.22-.16 6.93-.44 4.84-.74-3.18.31-4 .18-7.38.56-2.74 0-4.77-.11-4.31-.23-1 .09-4.25-.07-5.72.14a116.56 116.56 0 0 0 12.77.05c1.01.07.03.16-.2.22z"/><path d="m333.5 512.84h-1.72z"/><path d="m499.1 513a13.53 13.53 0 0 0 -1.85.07 11.58 11.58 0 0 0 1.85-.07z"/><path d="m525.1 509.09v1.66a15.91 15.91 0 0 0 0-1.66z"/><path d="m333.5 512.84 4.42.1a37 37 0 0 0 -4.42-.1z"/><path d="m103.07 511.52c-.93 0-1.7.05-2.4.09h2.26z"/><path d="m260.49 513.11h-1.34c-.4 0-.77.08-1.12.13z"/><path d="m204.47 513.16a5.94 5.94 0 0 0 2.19-.39 21.67 21.67 0 0 1 -2.76.19s.1.12.57.2z"/><path d="m115.63 512.66h-1.58z"/><path d="m300.59 513.17a2.17 2.17 0 0 0 .51.1s-.2-.07-.51-.1z"/><path d="m49.14 447.43s0 0 0 0c-.02.33 0 .43 0 0z"/><path d="m47.75 512.37v-.9c0-.09-.1-.19-.16-.19z"/><path d="m525.46 457.34v.23c.03 1.36.02.59 0-.23z"/><path d="m460.13 45.1c5.38.25-8.76.32-.66.6-.75-.11 7.37-.44.66-.6z"/><path d="m459.47 45.7h.84z"/><path d="m525.29 338.11a11 11 0 0 0 -.12 1.22 6.69 6.69 0 0 0 .12-1.22z"/><path d="m524.89 426.93v-2.19c.02.87.01 1.58 0 2.19z"/><path d="m524.89 292c0-1.19.07-1.6 0-3.23v.5a25.59 25.59 0 0 1 0 2.73z"/><path d="m524.89 244v.89 1.52z"/><path d="m49 301.55c-.08 1.05-.16 1.7-.25 2.21.25-.76.25 6.32.25-2.21z"/><path d="m103.1 511.68a7.31 7.31 0 0 1 1.42-.12h-1.59c-.14.06-.17.1.17.12z"/><path d="m522.68 290v-7.62c.03 2.17.01 4.94 0 7.62z"/><path d="m136.91 47.41h-1.75c.67.04 1.29.03 1.75 0z"/><path d="m522.68 259.78c.1-1.36.15-2.8.19-4.29 0-.32 0-.68-.07-.89z"/><path d="m49.42 354c0-7.27-.37-3.42-.58-5-.1-8.67.27-4 .46-7-.09-5.41-.43-9.57-.42-13.6.06-.31.08-1.09.16-.17-.29-5.73 0-17-.38-23.67a6.24 6.24 0 0 1 .09-.87c-.19 1.08-.37 1.25-.51 1a69.63 69.63 0 0 1 0-7.28 22.24 22.24 0 0 0 .16 3.1l-.1-3.41c.35-3.07.12 4.66.38 4.66-.12-6.66-.4-14.42-.3-19.52.33-1.06.11 11.93.41 5.12l-.13 7.9c.54-6 0 4.79.54-.75.1-10.38-.18-11.62-.08-22-.19-2.33-.28.78-.46-1.56-.34-14.72.85-11.59.4-22.42a63 63 0 0 1 -.43-11.59l.38 2.63c0-10.06-.55-5.74-.29-16.28.15 1.88.13 7.91.17 6.39.3-6.83-.22-4.83-.22-10.07l.34-1.09c-.11-10.71-.23-22.5-.36-34.35.1.65.21 2.68.31-.09-.17-14.95.05-31.92.25-46.35l-.3-5.51c0-1.28.14-2.38.19-1 .11-5.62-.18-.29-.3-3 0-3.2.17-4.23.26-2.2-.25-9.92-.54-28.26-.22-38.71l.08 2c.12-8.14-.6-9.18-.32-16.73v1.44c0-4.59 0-9.31 0-14 0-4.42 0-8.81 0-13.07l11.2.06c3.82 0 7.4.11 10.63.21 2.65-.22 17.57.37 18.71-.22 10.08.29 7.2.4 21.4.6 3.79 0 5.65-.37 10.34-.43l.12.3 6.37-.32 3.39.37 4.4-.08a15.91 15.91 0 0 1 -3.46-.23c3.43-.07 7.62 0 11 .08 1.68 0 3.14.1 4.2.15a12.43 12.43 0 0 1 1.75.15l16.25-.26c-.36.12-3.08.16-5.23.24 8.68-.31 1.58.33 9.53 0-1.07-.07.57-.19.75-.25 4 .19 13 .19 19.67.11l-1.28.21c12.06.06 25.42-.1 38.95-.09-4.85-.1-3.74-.47.23-.51l1.59.33c2.56-.2-4.15-.12 1.11-.37 5.06 0 3.4.37.5.48l6.15-.12c.36.1-1.08.15-1.46.28 2.52-.21 10.61.32 14.25 0l.34.1 30.69-.13c.22-.28 4.52-.22 7.81-.44 8.1.09 17.09.31 26.84.28 6.86-.14 2-.24 5.09-.4.5.25 10.25.23 5.2.41 11.71 0 14.95 0 29.77-.26-1.61-.1-3.42-.15-2.48-.23 2.69 0 6.11.1 5.73.23h-.71c16.62-.38 38.37.75 51.61.22h-.74l13.73-.28c6.31.05-3.79.2.88.36 14.81-.43 23.4.06 35.6-.23 9.44.76 33.5 0 46.24.43l-.73-.18a59 59 0 0 1 6.41.15c-.35-.14-3.58-.16-1.53-.26h13.59c0 5.48 0 11-.06 16.59 0 6-.08 11.94-.13 17.93-.09 12-.19 24-.29 35.81 0 10.46.92 5.94.5 19.12l-.33-3.74c.39 21.11 0 43.17.32 63.83a28.84 28.84 0 0 1 -.17-3.28c-.12 2.18-.13 6.22-.07 9.72 0 1.75.06 3.36.11 4.55a11 11 0 0 0 .14 1.95c0 3.22-.18.74-.28 2.73-.14 4.37.31 11 .07 13.31a13.35 13.35 0 0 1 -.09-2c.11 2.85 0 13.3.24 10.56-.13 7.76.13 14.84 0 21 .31 4-.15 13.28.29 14.56-.45-.56-.36 13.6-.15 18.5-.14-1.64-.14 4.27-.33 2.34 0 5.6.09 10.73.32 9.75-.54 10.31.44 20.73-.26 26.53.25 16.63.41 32 .52 47-.46-.54 0-16.53-.52-15.89.18 14.19.57 22.37.46 36.44-.06 3.65-.19-2.07-.27-3.3.18 14.18 0 27.41.2 40 0 0-.08-1.39-.12-2.68 0 2.49-.06 5.78.14 5.5l-.06-2.42c.3-4 .63 9.87.78 10.32-.58-4.22-.14 12.45-.89 5.75 0 1.64.14 3.69.28 3.32 0 2.42-.12 3.19-.28.73.11 8.9.33 5.74.32 13.81-.09 0-.13-1.66-.25-2.49.19 4.08.39 8.19.3 15-.06-.41-.13.38-.13-1.65 0 11.71.51 19.95.33 32.8-.16-1.34-.22-1.19-.25-.41v1.54.56.42c-.25 0-.47 0-.63-.07h-.11-.2a.8.8 0 0 1 -.26-.08l-6.91.12 2.77.18c-6.05 0-11.39.26-16.6.14l4.5-.15-11.34.07 6.42.14c-6.12.19.66.47-7.4.37 1.64 0-6 0-9.2-.23-3 .12-6.07.25-10.55.15-1.16-.12.94-.41.18-.49-3 .31-14.17.09-17.91.42 1.25-.08 1.32-.27.91-.31l-2.48.25c-2.8-.08-3.21-.12-2.76-.28-8.43 0 2.68.48-7.33.27.79 0 .41-.06 2.05-.1-10.05-.1-19.41.17-28.65 0-2.72-.37 8.07-.09 4.95-.41-13.31.07-27.57.45-40.45.36h2.4c-1.78.53-9.59-.27-16.11 0 1.6 0 2.09-.29 1.66-.23-8.82-.09-18 .13-31.4.3l1.65-.14c-5.2-.12-13.69-.07-19.31-.13-1.66.13-4.88.11-2.92.31-17.32-.78-33 .41-48.4-.23 1.84 0 4.38-.12 2.92-.12l-13.09.12a33.47 33.47 0 0 0 4.46.32c-1.65.14-5.35.25-8.59.25 5.88-.16 0-.37-2.59-.5.42.07-.45.15-.23.22-6.84-.41-1.15.46-10.48.19l.49-.13c-3.49.07-6.71.23-10.48.19-1.56-.26 3.72-.12 4-.34-5.29 0-10.44.5-15.23.24l7.73-.15c-5.22-.32-5.82-.24-9.7-.29h.38l-9-.14 2.29.08c-6.63.7-13.49.13-22.41.59 8.67-.43 1.44-.25 2.1-.55-2.28-.09-5.74-.18-4.75-.27-4.22.25-7-.19-13 .17-.27-.1-4.51 0-3.56-.26-5.48.08 1.29.17.83.29-8.44.34-19.86-.4-32 .06-10.48.19-12.42.51-22.14.68-3.28-.16 2.69-.36 2.69-.36-5.3-.14-9.28-.11-14.27 0 1-.09 0-.16-1.55-.27-4 0-2.68.36-8 .21.9-.11 2.07-.28 4-.39l-14.38.41c-1.29-.17 2.95-.26 4.67-.37-5.49.08-14.22.16-15.92.42l3.53.1c-2 0-1-.23.44-.28 4.71-.21 6.79.09 7 .19l-3.47.06c3.57.58 14-.09 21-.05l-2.92.41 7.19-.34c1.52.1 2.57.34-.89.4 5 .2 4.44-.15 8.76.08.47 0 .26.06-.18.07l4.9-.12c-1 .09.82.29-2.19.23 8.8.24 14.19-.31 17.51 0h-.74c12.22-.14 1.18-.3 10.35-.66l6.16.75 1.21-.3c1.26 0 3.75 0 3.29.15 4.69-.21-.8-.13 1.92-.33 6.07.28 16.73-.13 18.09.36 2.18-.23-5.8-.18.68-.34 1.85.52 7.49-.09 13 .15-1.7.27-7 .12-1.41.37 3.34-.46 10.79.1 15.47 0 .22-.37 10.16-.15 18-.27-.49.12 14.76.19 22.06.33l-.21.06c1.41-.37 8.94-.3 14.42-.38-.22.22-1.21.31-4.17.41h5.15c1.21-.12 2.82-.18 6.16-.23l-1.29.28c6.85 0 13.81-.32 22.63-.14.5-.26-7-.71 2.31-.88.35.13.69.37-1.75.43.8 0 2.85-.12 4.46-.06l-3.72.23c4 .11 2.1-.19 5.31-.17-.06.2 2.38.14 1.92.3-.82 0-2.8-.08-4 0 3.62 0 8 .16 9.44.31-.31-.12 0-.27 2.66-.29 6.85 0 2.34.23 6.34.33 1.66-.13 6 0 6.15-.29a19.77 19.77 0 0 1 3.16.22c3.55-.13 16.57 0 12.57-.35h-.91.58c11.64-.3 24.17.17 35.71 0v.1c6.89-.11 15.34-.07 20.26-.28 2 0 4.81.18 3.93.3 5.27-.08 5.86-.19 13.47 0-5.3.18 1.83.16-5.43.13 6.85.09 8.4.24 15.74 0-2.5.26 5.15.32 8.41.25l-4.8-.18h10.11l-1.76.34c14 .4 25.26-.69 35.92 0 3.7-.23-7.61-.16-4.3-.43 6.44 0 13.16.52 15.17.52 8.83.19 8.24-.48 17.47-.36-1.18-.12-2.3-.43 4.6-.54 6.45 0 7.93.49 3.86.59a11.72 11.72 0 0 1 -2.23-.07c-2.08 0-4.81.09-2.26.22l.84-.12c3.19.13 12.06.11 10 .31 4.87-.12 2.08-.2-1.53-.26 3.85.08 6.91.09 10 .08h10.82c0-.71 0-1.63 0-2.59 0 1.08-.08 2-.13 2.49-.42 0-.51-.07-.07-.08v-.55c0-1.81 0-3.26 0-4.44 0-1 0-1.8 0-2.42 0-1.23 0-1.79-.09-2.23a41.77 41.77 0 0 1 -.21-5.47c.18-4.8.43 1.72.28-6.79.12-5.2.31-1.1.41 1-.23-7.75.15-14.49.19-18.92l.1 4.09c-.06-2.45-.06-4.45-.06-6.49l-.23 2.34a38.64 38.64 0 0 1 .14-4.39c-.16-2.47-.4 1.89-.61-3 .12-3.2-.13-9.74.18-10.85-.1 10.06.32-1.11.37 7.41 0-1.65 0-3.65 0-6.06 0-.36.06.35.08 1 .28-9.62-.36-4.42-.35-14.4.18 1.27.34-2.31.3-3.94 0 4-.3 1.92-.43-1.76.14-6.4-.1-7-.09-10.31l-.06 3.83c-.18-1.3-.16-4.5-.21-8.95.13-.39.09 4 .15 2.45-.31-4.95.33-11.18.12-18.09.12-3.19.33-.31.41-3.11-.23-7.74.24-8.38.05-16.52-.24 2.35-.18 2.76-.41-3l.17 13.37-.35-8.58c0 4 .15 8.51.11 10.93-.19-4.09-.13-3.67-.33-1.73.36-5.53-.21-10.95 0-17.33l.59.19c.27-9.59-.3-17-.15-29.5l-.11 4c-.23-1.67 0-7.69-.12-11.72.19.37.27-2.15.39-3.87-.15.21 0-9.12-.38-10.25l.26-5.56c.1-10.06-.56-11.49-.5-21.16.22 2.92.36-1.48.51 5a56.68 56.68 0 0 0 -.1-6.18c.13-1.89-.26-8.95-.08-11.92a42 42 0 0 1 -.27-5.43c0-.4.09 0 .09 0s-.13-5.67-.35-2.51c.62-9.94 0-27.79.49-36.45-.05-7-.11-15.54-.15-21.93a3 3 0 0 1 .08 1.23c.18-8.83-.57-5.43-.36-15.47.32-5.13.17 5.33.29 2.13.65-1.39-.09-12.11.29-18.87v1.64c.22-5.17-.25-12.61-.2-21 0 0 .06.41.1 0-.33-5.77-.44-16.69-.53-24.81.25 2.53.13 3.69.39 2.15 0-3.64-.42 1.06-.49-6.2.14-2.36.26-7.6.54-8.3v6.85c.36-3.51 0-8.86 0-12.47l.16.46c0-10.5-.44-10.65-.42-21.93l-.11 1.16c-.39-6.16.21-5.17-.07-11.32l.39-1.86c-.1-4.07-.38-14.26-.46-21.55.3 4.13.45 12.67.62 17.95 0-4 0-13.7-.22-15.81 0 1.63.13 3.68.07 5.28q-.47-7.42-.46-19.5c.25.47.36-1.61.41-4.82 0-3.43.05-8.08.08-12.43h-3.95-2.88c-1.79-.05-3.29-.12-4.3-.22-14.22.28-28.21-.12-44.78-.07 5.88.59-4.83 0-3.81.62-3.86 0-5.33 0-5.68 0l-11.69-.36c-2.77-.18 3.67-.14 3.31-.27-8.45 0-3.54-.26-9.13-.42 1.14.21-2.94.31-7.76.23l6.79.28c-11.81.32-10.21-.52-22.11-.19l3.76-.2c-6.1.12-22.52 0-28.51.49-1.08-.07-2.51-.24.18-.28-14.59-.07-32.49.52-43.83.22l1.11-.15c-2.73 0-4.74.28-8.15.13.17-.06 1.09-.15-.17-.16-1.44 0-7.23.26-10.84.18l3.09-.17c-14.24-.2-21.85.41-33.79.51 0-.44-11.17-.58-16.76-.65l.19-.07c-16.57 0-28.15.37-43.5.54-9.53-.48-32.28-.2-47.6-.47 2.35.08-.38.35-3.1.39-3.59-.09-9.93.31-9.36-.1h1.28c-2.71-.4-10.1-.29-15.86-.3l-1 .53c-15.08-.77-39.52.28-47.75-.41l-11.76.26.2-.28c-10.09-.07-15.13-.11-27.59 0l2.54-.2c-7 0-8.88.81-15.36.83l-2-.42-17.6-.34q0 5.7 0 11.37c0 3.38.07 6.74.17 10.08a8.88 8.88 0 0 1 -.2-2.55c0 5.77-.28 22.34.3 20.24-.38.14 0 12.66.13 19.28l-.28-1c.35 5.59.45 5.77.55 13.58 0 1.85-.22 1.62-.15-.84-.15 6.17.26 4.81.11 12.29l-.23-2.78a84.56 84.56 0 0 0 .3 9.33 121.82 121.82 0 0 1 -.3 13 60.56 60.56 0 0 1 .29 8.07c-.09.5-.15-.86-.18-1.55-.19 10.61.32 15.78.05 23.08a3.92 3.92 0 0 0 -.17 1.23c0-8.43 0-15.22 0-14.58-.25 0-.3 6.81-.65 1.39.19 5.47.61 14.81.49 21.45 0 .32-.05.63-.09.87v-.68 4.19c0 2.12-.07 3.46-.07 5.5-.22.78-.12 7.8-.13 11.2.28-.28.24 4.16.47 0a27.47 27.47 0 0 1 0-2.9c0-.51 0-1.11 0-1.45a2 2 0 0 0 0 .23c0-2.22 0-5.13 0-8.43.14 2.68.26 5.48.11 9.23.18 1.75.37 3.66.45 4.74-.39 4.65-.6 13.6-.84 14.85.15 10.37.1 24.42.63 30.94a23.83 23.83 0 0 1 -.24 4.49c0-1.71 0-3.73-.12-4.65.14 5.89.06 17.46.43 18.86-.17 7.43-.34-4.17-.28 6l-.15-1.36c-.59 20.07.94 32.64.19 54.89a24.87 24.87 0 0 1 .11-2.61c-.34 25.37.31 52.29-.22 77.33-.11 7.12.13 7.89.31 12.23l-.3 1.54.35 7.43c.25 10.53-.75 18.24-.26 31.57l.2-1.72c0 4.79.12 15.17-.11 14.37a20 20 0 0 1 .1 3.44l-.16.15.28 11.76c-.12 9.12-.63-1.43-.66 11.88.06 4.95.46 14.09.56 12.23a35.59 35.59 0 0 1 .26-5.25l.08 4.52c.47.82.94 4.3 1.27-6.8l-.29-7.74.23-2.49v6.55a68.45 68.45 0 0 0 -.1-8.66 24.12 24.12 0 0 0 .25-3.24l-.45-7.6c.19-.92.37 3.41.47-1.69-.21-3.56-.41 3.41-.55-2.48a39.48 39.48 0 0 0 .21-7c.12-.61.19.31.24 2-.14-3.86-.06-10.23-.3-12.23.26-3.86-.07-13.06.37-12.68-.11-1.21-.35-6.81-.37-10.36.53 6.49 0-13.3.6-11.58-.47-4.81-.21-17.36-.47-25.86a21.57 21.57 0 0 1 .09 2.16c0-4.79.18-6.18.27-9.26-.39-.62-.48-8.07-.72-12.09.37-5.87.46 3.56.82 1.72-.32.29-.32-10.2-.58-8.2a46.86 46.86 0 0 1 .44-6.18c-.49-.79-.09-4.18-.39-7.91.24-6.49.46-1.67.31-8.81.16-3.38.34 2.95.34 2.95zm-.85-169.74v3.51c.02-.71.01-1.72 0-3.49zm0-14.26v6.19c-.09.5-.19 0-.19-1.48.05.8.1-2.56.18-4.71zm-1.94 30.17a21.05 21.05 0 0 1 .07-3.32v3.95.26a4.12 4.12 0 0 1 -.08-.87z"/><path d="m47 204.25v.93l.06-1.35c0-.27-.06-.55-.09-.8.03.41.03.84.03 1.22z"/><path d="m331.47 512.79h.31-.64z"/><path d="m121.02 47.55-.02-.07-1.25.06z"/><path d="m252.92 511.83a8.26 8.26 0 0 0 -1-.07z"/><path d="m219 511.76-4.8-.1z"/><path d="m192.89 511.62a1.66 1.66 0 0 0 -.51.13h.05z"/><path d="m523 428.73c0-.35 0-.69 0-1-.06-2.37 0-.73 0 1z"/><path d="m484.28 512 4-.13a17.69 17.69 0 0 0 -4 .13z"/><path d="m494 511.82c-2.2-.05-4 0-5.74 0 1.79.02 3.91.05 5.74 0z"/><path d="m79.81 511.5h-1.26s0 0-.15 0z"/><path d="m78.4 511.53h-1.4c.65.03 1.2.03 1.4 0z"/><path d="m74.07 511.63 2.93-.07c-1 0-2.27-.01-2.93.07z"/><path d="m114.35 511.63.39-.1c-.21.02-.35.05-.39.1z"/><path d="m124.84 511.6c-2.5 0-6.28-.22-9.77-.16l-.33.09c1.64-.16 7.72.24 10.1.07z"/><path d="m168.65 512.86-8.79-.08c1.53.1 3.56.25-.44.28 11.08.32-2.29-.25 9.23-.2z"/><path d="m195.92 513c-4.72.05.06.15-.19.21 3-.07 3.72-.1.19-.21z"/><path d="m393 513-.48.25c3.65-.01.05-.08.48-.25z"/><path d="m430.68 511.69-3.54-.15-1.69.23z"/><path d="m452.94 513.52-1.59.03 6.07-.09z"/><path d="m525.14 252.53-.31 1.1c.05 2.46.41 2.98.31-1.1z"/><path d="m524.82 109.64a66.73 66.73 0 0 0 .11-8.06c-.03 3.22-.15 6.42-.11 8.06z"/><path d="m158.92 45.02 2.87-.11-5.41.09z"/><path d="m112.47 512.37c.08.48.28.21.24-1.1l-.33-.92z"/><path d="m113.08 503.59c-.16-1.54-.44-3.31-.75-2.31.32 1.52.19 1.89.57 3.52 0 1.31-.11 2.28-.23 2.06a23 23 0 0 0 .13 2.74 26.15 26.15 0 0 0 .06-6.11c.07-.49.14-.01.22.1z"/><path d="m113.6 375.93v.82c-.02-.22-.01-.5 0-.82z"/><path d="m113.78 296.83a3.13 3.13 0 0 0 .07.89c-.02-.56-.04-1.02-.07-.89z"/><path d="m114.14 283.33v.8a3.71 3.71 0 0 0 0-.8z"/><path d="m113.6 375.93.1-2.11a8.47 8.47 0 0 0 -.1 2.11z"/><path d="m112.28 486c0 .44 0 .81.09 1.14 0-.36 0-.71 0-1.08-.06-.06-.07-.06-.09-.06z"/><path d="m113.86 410.8v.64c0 .19.09.37.14.53z"/><path d="m113.91 437.56a1.52 1.52 0 0 0 -.39-1.05 5 5 0 0 1 .2 1.32s.11-.07.19-.27z"/><path d="m113.42 480v.75c.03-.2.01-.53 0-.75z"/><path d="m113.92 391.65a.65.65 0 0 0 .11-.25s-.03.1-.11.25z"/><path d="m82.11 511.05s0 0 0 .05.21-.04 0-.05z"/><path d="m113.13 512.45h-.43c0 .06-.09.11-.09.16z"/><path d="m114.5 258.62v.1c.03.65.02.28 0-.1z"/><path d="m46.66 158.14c.25-2.57.32 4.18.6.31-.11.36-.44-3.52-.6-.31z"/><path d="m112.32 485.29c0-.36 0-.73 0-1.09-.01.49-.01.8 0 1.09z"/><path d="m47.26 158.45v-.4c.02.17.01.26 0 .4z"/><path d="m114.33 201.67a3.36 3.36 0 0 0 -.12.58s.06-.15.12-.58z"/><path d="m113.93 244.09v-1.05c.01.42.01.76 0 1.05z"/><path d="m113.94 179.64a12.49 12.49 0 0 0 0-1.54 1.33 1.33 0 0 0 0 .24 6.3 6.3 0 0 1 0 1.3z"/><path d="m113.93 156.72c0 .12 0 .28-.05.42s0 .49 0 .73z"/><path d="m49 477a5.54 5.54 0 0 1 -.25 1.06c.25-.36.25 3.01.25-1.06z"/><path d="m112.44 486a1.57 1.57 0 0 1 -.12-.68v.76c.05.04.09.06.12-.08z"/><path d="m111.72 178.71v-3.64c.01 1.02 0 2.34 0 3.64z"/><path d="m49 312.52v.83a5 5 0 0 0 0-.83z"/><path d="m111.72 164.26a18.79 18.79 0 0 0 .19-2 3.51 3.51 0 0 0 -.07-.43z"/><path d="m49.42 502.05c0-3.47-.37-1.63-.58-2.37-.1-4.14.27-1.91.46-3.32-.09-2.59-.43-4.57-.42-6.5.06-.15.08-.52.16-.08-.29-2.74 0-8.12-.38-11.31a1.48 1.48 0 0 1 .09-.41c-.19.51-.37.59-.51.49a15.84 15.84 0 0 1 0-3.47 5.09 5.09 0 0 0 .16 1.47l-.1-1.63c.35-1.46.12 2.23.38 2.23-.12-3.18-.4-6.88-.3-9.32.33-.51.11 5.7.41 2.45l-.13 3.77c.54-2.89 0 2.29.54-.36.1-5-.18-5.55-.08-10.5-.19-1.11-.28.37-.46-.74-.34-7 .85-5.54.4-10.71a14.69 14.69 0 0 1 -.43-5.54l.38 1.26c0-4.81-.55-2.75-.29-7.78.15.9.13 3.78.17 3.05.3-3.26-.22-2.3-.22-4.81l.34-.52c-.05-5.11-.3-10.74-.36-16.4.1.31.21 1.28.31-.05-.17-7.14.05-15.24.25-22.13l-.3-2.63c0-.62.14-1.14.19-.48.11-2.68-.18-.14-.3-1.43 0-1.52.17-2 .26-1-.25-4.73-.54-13.49-.22-18.48l.08 1c.12-3.89-.6-4.39-.32-8v.69c.13-8.44-.14-17.76.3-24.2-.42-1.22.19-8.35-.4-8.89.29-4.82.4-3.44.59-10.22 0-1.81-.37-2.7-.43-4.94l.31-.06-.32-3 .37-1.62-.08-2.1c0 .84-.14 1.78-.23 1.65a45.75 45.75 0 0 1 .37-8.08l-.26-7.76a14.58 14.58 0 0 1 .25 2.5c-.32-4.15.32-.76 0-4.55-.07.51-.18-.28-.24-.36.18-1.9.19-6.21.11-9.4l.21.62c0-5.76-.1-12.15-.1-18.61-.1 2.32-.46 1.79-.5-.11l.32-.76c-.2-1.22-.12 2-.36-.53 0-2.42.37-1.62.47-.24l.02-3.04c.1-.18.15.51.27.69-.2-1.2.33-5.06 0-6.8l.09-.17c0-6.46-.11-9.39-.12-14.65-.28-.11-.22-2.16-.45-3.73.09-3.87.31-8.16.29-12.83-.14-3.27-.24-1-.41-2.42.26-.25.24-4.9.42-2.49 0-5.59-.05-7.14-.26-14.21-.1.76-.15 1.63-.24 1.18a7.64 7.64 0 0 1 .23-2.74v.34c-.38-7.94.75-18.33.21-24.65v.35l-.28-6.55c0-3 .19 1.81.35-.43-.42-7.07.06-11.17-.22-17 .76-4.51-.05-16 .43-22.08l-.18.35a13.6 13.6 0 0 1 .14-3.06c-.13.16-.16 1.7-.25.73 0-1.94 0-3.89-.06-5.89l7.33.06 8.56.13 17.11.29c5 0 2.83-.92 9.13-.5l-1.79.29c3.93-.15 7.92-.18 11.91-.19h10.66v.42 1.67c0 1.11 0 2.22.08 3.31a7.31 7.31 0 0 1 -.17-1.57 40.42 40.42 0 0 0 .18 7.75c0 1.53-.18.35-.27 1.3-.15 2.09.3 5.25.06 6.36 0 .19-.08-.59-.09-1 .11 1.36 0 6.35.24 5-.13 3.7.13 7.08 0 10 .31 1.92-.15 6.34.29 6.95-.45-.26-.36 6.5-.15 8.84-.14-.79-.14 2-.33 1.12 0 2.67.09 5.12.32 4.65-.54 4.93.44 9.9-.26 12.68.25 7.94.41 15.28.52 22.43-.45-.26 0-7.9-.52-7.59.18 6.78.57 10.68.46 17.4-.06 1.74-.19-1-.27-1.57.19 6.77 0 13.09.2 19.11a8.48 8.48 0 0 1 -.12-1.28c0 1.19-.06 2.76.14 2.63v-1.16c.29-1.89.62 4.72.77 4.93-.58-2-.14 6-.89 2.75 0 .78.14 1.76.28 1.58 0 1.16-.12 1.53-.28.35.11 4.25.33 2.74.33 6.6-.1 0-.14-.8-.26-1.19a48.9 48.9 0 0 1 .3 7.16c-.06-.19-.13.18-.13-.79 0 5.6.51 9.53.33 15.67-.43-1.81-.15 2.09-.52 2.41l.11 3.3.18-1.32c0 2.88.27 5.44.15 7.92l-.16-2.15.07 5.42.15-3.07c.19 2.93.47-.31.36 3.54 0-.78 0 2.89-.22 4.39a36.33 36.33 0 0 1 .15 5c-.12.56-.41-.45-.49-.08.31 1.41.08 6.76.42 8.55-.08-.6-.28-.63-.32-.43l.26 1.18c-.08 1.34-.12 1.54-.28 1.32 0 4 .47-1.28.27 3.5 0-.38-.06-.2-.1-1-.1 4.8.16 9.27 0 13.68-.38 1.3-.09-3.85-.41-2.36.07 6.36.45 13.17.36 19.32v-1.15c.53.86-.26 4.58 0 7.7 0-.77-.29-1-.23-.8-.09 4.22.13 8.62.29 15l-.13-.79c-.13 2.49-.07 6.54-.14 9.23.14.79.12 2.33.32 1.39-.78 8.27.41 15.78-.23 23.12 0-.88-.12-2.09-.12-1.39l.12 6.25a8.47 8.47 0 0 0 .32-2.14 30.16 30.16 0 0 1 .24 4.11c-.15-2.81-.37 0-.5 1.24.08-.21.15.21.23.11-.42 3.26.46.54.18 5l-.12-.23c.06 1.66.22 3.2.19 5-.27.75-.12-1.77-.34-1.89 0 2.53.5 5 .24 7.27-.08-1.07-.08-2.61-.15-3.69a31 31 0 0 0 -.29 4.63v-.18l-.14 4.28.08-1.09c.7 3.16.13 6.44.59 10.7-.44-4.14-.25-.68-.56-1-.08 1.09-.18 2.74-.26 2.27.24 2-.19 3.36.16 6.2-.09.13 0 2.16-.25 1.7.08 2.62.17-.62.29-.4.34 4-.4 9.49.06 15.29.18 5 .51 5.93.68 10.58-.16 1.57-.36-1.28-.36-1.28a61.92 61.92 0 0 0 0 6.81c-.08-.48-.15 0-.26.74 0 1.91.35 1.28.21 3.8a12.23 12.23 0 0 1 -.39-1.91c.12 2.26.23 4.48.36 6.82-.17.61-.26-1.41-.37-2.23a64.66 64.66 0 0 0 .42 7.6l.1-1.68c0 .95-.23.49-.28-.22-.21-2.24.09-3.24.19-3.36l.06 1.66c.57-1.71-.09-6.68-.06-10l.42 1.39-.35-3.43c.11-.73.34-1.23.41.42.2-2.39-.15-2.12.08-4.18 0-.23.05-.12.07.09l-.12-2.35c.08.46.29-.38.23 1.05.24-4.2-.31-6.78 0-8.36v.35c-.14-5.83-.31-.56-.67-4.94l.76-2.94-.31-.58c0-.6 0-1.79.16-1.57-.21-2.24-.13.38-.33-.92.28-2.9-.13-8 .36-8.64-.24-1-.18 2.77-.35-.32.53-.89-.09-3.58.15-6.23.27.82.13 3.32.37.68-.45-1.6.1-5.16 0-7.39-.37-.11-.16-4.86-.28-8.6.12.24.2-7.05.33-10.54l.06.11c-.36-.68-.29-4.27-.37-6.89.22.1.31.57.41 2v-2.46a18.69 18.69 0 0 1 -.22-2.94l.28.61c0-3.27-.33-6.59-.14-10.8-.26-.24-.72 3.35-.89-1.11.14-.16.38-.33.43.84a18.85 18.85 0 0 1 0-2.13l.23 1.78c.1-1.92-.19-1-.17-2.54.2 0 .14-1.14.3-.92 0 .39-.09 1.34 0 1.93a39.19 39.19 0 0 1 .3-4.51c-.11.15-.26 0-.29-1.27 0-3.28.24-1.12.34-3-.14-.8 0-2.89-.29-2.94a4.39 4.39 0 0 1 .22-1.51c-.13-1.69 0-7.91-.35-6v.43c0-.08 0-.18 0-.28-.3-5.55.16-11.54 0-17.05h.1c-.12-3.29-.07-7.32-.28-9.67 0-1 .18-2.3.29-1.89a58 58 0 0 1 0-6.43c.17 2.53.15-.87.13 2.6a54 54 0 0 0 0-7.52c.26 1.19.32-2.46.25-4l-.19 2.29c0-1.74 0-3.27 0-4.82l.33.84c.41-6.69-.69-12.07 0-17.16-.23-1.77-.16 3.63-.43 2 0-3.07.52-6.28.52-7.24.18-4.22-.49-3.94-.36-8.35-.12.57-.44 1.1-.55-2.19.05-3.08.5-3.79.6-1.85 0 .74 0 1.1-.07 1.07 0 1 .09 2.3.22 1.08l-.12-.4c.12-1.53.11-5.76.31-4.77-.12-2.33-.2-1-.26.73.17-3.95 0-6.17.12-10.23-.07.64-.21 1.24-.2.59.14-6-.23-2.62-.28-6.66.18-2.3.43.82.28-3.24.12-2.49.31-.53.41.46a88.27 88.27 0 0 1 .19-9l.1 1.95c-.06-1.17-.06-2.12-.06-3.1l-.23 1.12a8.92 8.92 0 0 1 .14-2.1c-.16-1.18-.4.91-.61-1.44.12-1.52-.13-4.65.19-5.18-.11 4.81.31-.53.36 3.54 0-.78 0-1.74 0-2.89 0-.17.06.16.08.48.28-4.6-.35-2.12-.35-6.88.18.6.34-1.11.3-1.88 0 1.92-.29.91-.43-.85a49.1 49.1 0 0 0 -.09-4.92l-.06 1.83a28 28 0 0 1 -.21-4.28c.14-.18.09 1.94.15 1.18-.31-2.37.33-5.35.12-8.64.12-1.53.33-.15.41-1.49-.23-3.7.24-4 0-7.89-.23 1.12-.18 1.32-.41-1.42l.17 6.39-.35-4.1c0 1.93.15 4.07.11 5.22-.19-1.95-.13-1.75-.33-.83.36-2.64-.21-5.23 0-8.28l.59.1c.27-4.58-.3-8.14-.15-14.09l-.1 1.91c-.24-.8 0-3.68-.13-5.6.2.18.27-1 .39-1.85-.15.1 0-4.36-.38-4.9l.26-2.65c.11-4.81-.56-5.49-.5-10.1.22 1.39.36-.71.51 2.38a13 13 0 0 0 -.04-2.83c.13-.9-.26-4.28-.08-5.69a9.84 9.84 0 0 1 -.27-2.6c0-.19.1 0 .1 0s-.14-2.71-.36-1.2c.62-4.75 0-13.28.49-17.41-.07-3.37-.13-7.42-.15-10.48.06.2.1 0 .08.59.19-4.21-.56-2.59-.36-7.38.32-2.45.17 2.54.29 1 .65-.66-.09-5.78.29-9v.78a21.29 21.29 0 0 0 .05-2.31c0-1.12-.07-2.33-.11-3.63-2.79.08-4 .16-5.87.14 0 0 .2-.06 0-.1-2.76.33-8 .44-11.85.53 1.2-.25 1.76-.13 1-.39-1.74 0 .51.42-3 .49-1.13-.14-3.63-.26-4-.54h3.27c-1.68-.36-4.24 0-6 0l.22-.16c-5 0-5.08.44-10.47.42l.55.11c-2.94.39-2.47-.21-5.4.08l-.89-.4c-1.95.1-6.81.38-10.3.46 2-.3 6.06-.45 8.58-.62-1.93 0-6.55 0-7.55.22a23.56 23.56 0 0 1 2.52-.07 74.71 74.71 0 0 1 -9.31.46c.22-.25-.77-.36-2.31-.41l-2.62-.05h-3.73q0 1.15 0 2.25c0 .5 0 1-.06 1.43a14.3 14.3 0 0 1 -.21 2.05c.28 6.8-.12 13.48-.08 21.39.6-2.81 0 2.31.63 1.82a22.21 22.21 0 0 1 0 2.71l-.19 5.51c-.18 1.32-.14-1.75-.28-1.58 0 4-.26 1.69-.42 4.36.22-.55.32 1.4.23 3.7l.28-3.24c.33 5.64-.51 4.88-.19 10.56l-.19-1.8c.11 2.92 0 10.76.49 13.62-.07.52-.24 1.2-.28-.08-.08 7 .52 15.51.22 20.93l-.15-.53a25.07 25.07 0 0 1 .13 3.89c-.06-.08-.15-.52-.16.08a50.44 50.44 0 0 1 .17 5.18l-.16-1.47c-.2 6.8.41 10.43.51 16.13-.44 0-.59 5.34-.66 8l-.06-.09c-.05 7.91.37 13.44.54 20.78-.48 4.55-.2 15.41-.47 22.73.08-1.12.34.18.39 1.48-.09 1.71.3 4.74-.1 4.47v-.61c-.4 1.29-.29 4.82-.3 7.57l.52.46c-.76 7.2.29 18.88-.4 22.81.13 1.74.13 3.89.26 5.61l-.28-.09c-.08 4.82-.11 7.22 0 13.18l-.21-1.22c0 3.36.82 4.24.84 7.34l-.43.93c0 5.86-.36 11.79 0 17.58-.06-.09-.18-.26-.2-1.21 0 2.76-.28 10.67.3 9.66-.38.07 0 6.05.13 9.21l-.28-.49a41.23 41.23 0 0 1 .55 6.49c0 .88-.22.77-.15-.4-.15 2.94.26 2.29.11 5.86l-.2-1.29a19.53 19.53 0 0 0 .3 4.49 28 28 0 0 1 -.33 6.2 14 14 0 0 1 .29 3.85c-.09.24-.15-.41-.18-.74-.19 5.07.32 7.54.05 11a1.05 1.05 0 0 0 -.17.59c0-4 0-7.26 0-7-.25 0-.3 3.25-.65.66.19 2.61.61 7.08.49 10.25a2.38 2.38 0 0 1 -.09.42v-.33 2c0 1-.07 1.65-.07 2.63a38.51 38.51 0 0 0 -.13 5.35c.28-.14.24 2 .47 0a6.52 6.52 0 0 1 0-1.39c0-.24 0-.53 0-.69a.52.52 0 0 0 0 .11c0-1.06 0-2.45 0-4a21.34 21.34 0 0 1 .11 4.41c.18.83.37 1.75.45 2.27-.39 2.22-.6 6.49-.84 7.09.15 4.95.1 11.66.63 14.77a5.6 5.6 0 0 1 -.24 2.15c0-.82 0-1.78-.12-2.22.14 2.81.06 8.34.43 9-.17 3.55-.34-2-.28 2.88l-.12-.66c-.59 9.59.94 15.59.19 26.22a6 6 0 0 1 .13-1.26c-.1 3.57-.11 7.19-.1 10.84 0 3.82.06 7.67.09 11.5h4.36 3.81q3.8 0 7.5.19a30.89 30.89 0 0 0 5.84-.31l.73.31 3.55-.35c5-.26 8.71.74 15.08.26l-.82-.21c2.29 0 7.24-.12 6.86.12a4.58 4.58 0 0 1 1.65-.11l.07.16 5.61-.27c4.36.11-.68.63 5.68.66 2.36-.06 6.73-.46 5.84-.57a8.27 8.27 0 0 1 -2.51-.26l2.16-.08c.39-.46 2.06-.94-3.25-1.27l-3.7.29-1.19-.23h3.11a16.08 16.08 0 0 0 -4.13.1 5.77 5.77 0 0 0 -1.55-.25l-3.63.45c-.44-.18 1.63-.36-.81-.46-1.7.2 1.63.41-1.18.54a9.13 9.13 0 0 0 -3.33-.2c-.29-.12.15-.2 1-.25-1.84.14-4.89.06-5.84.31-1.84-.26-6.24.07-6-.38a46.57 46.57 0 0 1 -5 .37c3.1-.53-6.35 0-5.53-.6-2.29.48-8.28.21-12.35.48a4.43 4.43 0 0 1 1-.09c-2.28 0-3-.19-4.42-.28-.29.4-3.85.49-5.77.73a4.62 4.62 0 0 1 -.71-.13c-.07 0-.09-.08-.08-.11s0-.06.08-.09a2.24 2.24 0 0 1 .4-.09c.66-.11 1.57-.22 1.13-.41 0 .11-.43.17-1.07.23h-.45-.14l-.34.06c-.06-.15-.12-.33-.21-.13l.07-.32a1.05 1.05 0 0 0 0-.2c0-.08 0-.16 0-.24 0-.29 0-.48.06-.65a5.58 5.58 0 0 1 .26-1.09c-.49-.37-.09-2-.39-3.77.24-3.1.46-.8.31-4.21.17-1.55.35 1.5.35 1.5zm-.85-81.05v1.67c.02-.36.01-.84 0-1.67zm0-6.82v3c-.09.24-.19 0-.19-.71a11.89 11.89 0 0 0 .18-2.3zm-1.94 14.41a4.77 4.77 0 0 1 .07-1.58v1.88.13a1.07 1.07 0 0 1 -.08-.44z"/><path d="m47 430.52v.45l.06-.65-.09-.38c.03.2.03.4.03.58z"/><path d="m113.55 376.9v-.15.3a1.3 1.3 0 0 1 0-.15z"/><path d="m49.1 320.1-.07.01.06.6z"/><path d="m112.58 414.42a2.48 2.48 0 0 0 -.07.49 2.1 2.1 0 0 0 .07-.49z"/><path d="m112.52 430.62-.1 2.3c.06-1 .09-1.72.1-2.3z"/><path d="m112.38 443.09a.7.7 0 0 0 .12.24z"/><path d="m112.05 245c0-.17 0-.33 0-.48-.05-1.18-.05-.41 0 .48z"/><path d="m112.71 303.91c0-.62-.1-1.24-.13-1.89-.03 1.05-.03 1.86.13 1.89z"/><path d="m112.58 299.28v2.74c.01-.86.04-1.88 0-2.74z"/><path d="m112.26 497.1v.6s0 0 .05.07z"/><path d="m112.29 497.77v.67a3.55 3.55 0 0 0 0-.67z"/><path d="m112.39 499.84-.07-1.4a7.42 7.42 0 0 0 .07 1.4z"/><path d="m112.38 480.6-.1-.19a.28.28 0 0 0 .1.19z"/><path d="m112.36 475.59c0 1.19-.22 3-.16 4.67l.08.15c-.15-.78.25-3.69.08-4.82z"/><path d="m113.62 454.66-.09 4.2c.11-.73.26-1.7.28.21.33-5.29-.24 1.1-.19-4.41z"/><path d="m113.77 441.64c0 2.25.16 0 .22.09-.1-1.43-.12-1.73-.22-.09z"/><path d="m113.77 347.51.26.22c-.03-1.73-.1-.01-.26-.22z"/><path d="m112.45 329.51-.16 1.7.24.8z"/><path d="m114.27 318.88.04.76-.09-2.9z"/><path d="m114.18 160.79-.31.53c.05 1.18.41 1.42.31-.53z"/><path d="m78.09 126.86a14.9 14.9 0 0 0 -3.85-.1c1.54.02 3.07.14 3.85.1z"/><path d="m46.58 302-.11-1.37.09 2.59z"/><path d="m523.43 512.37c.08.48.28.21.24-1.1l-.33-.92z"/><path d="m524 503.59c-.16-1.54-.44-3.31-.75-2.31.32 1.52.19 1.89.57 3.52 0 1.31-.11 2.28-.23 2.06a21.1 21.1 0 0 0 .13 2.74 26.15 26.15 0 0 0 .06-6.11c.11-.49.22-.01.22.1z"/><path d="m524.55 375.93v.82a6.4 6.4 0 0 0 0-.82z"/><path d="m524.74 296.83a2.72 2.72 0 0 0 .07.89 4 4 0 0 0 -.07-.89z"/><path d="m525.1 283.33v.8a3.71 3.71 0 0 0 0-.8z"/><path d="m524.55 375.93.11-2.11a8.74 8.74 0 0 0 -.11 2.11z"/><path d="m523.24 486c0 .44 0 .81.09 1.14 0-.36 0-.71 0-1.08-.06-.06-.07-.06-.09-.06z"/><path d="m524.82 410.8v.64c0 .19.09.37.14.53z"/><path d="m524.87 437.56a1.57 1.57 0 0 0 -.39-1.05 4.68 4.68 0 0 1 .19 1.32c.06.01.12-.07.2-.27z"/><path d="m524.38 480v.75c.03-.2.01-.53 0-.75z"/><path d="m524.88 391.65a.52.52 0 0 0 .1-.25s-.07.1-.1.25z"/><path d="m493.07 511.05s0 0 0 .05c.16-.02.21-.04 0-.05z"/><path d="m524.09 512.45h-.43a.29.29 0 0 0 -.09.16z"/><path d="m525.46 258.62v.1c.03.65.02.28 0-.1z"/><path d="m457.62 158.14c.25-2.57.32 4.18.6.31-.11.36-.44-3.52-.6-.31z"/><path d="m523.28 485.29v-1.09c-.02.49-.01.8 0 1.09z"/><path d="m458.22 158.45v-.4c.01.17.01.26 0 .4z"/><path d="m525.29 201.67a2.62 2.62 0 0 0 -.12.58s.06-.15.12-.58z"/><path d="m524.89 244.09v-1.05c.01.42 0 .76 0 1.05z"/><path d="m524.89 179.64a10.58 10.58 0 0 0 0-1.54 1.33 1.33 0 0 0 0 .24 5.81 5.81 0 0 1 0 1.3z"/><path d="m524.89 156.72v.42s0 .49 0 .73z"/><path d="m460 477a5.54 5.54 0 0 1 -.25 1.06c.16-.36.25 3.01.25-1.06z"/><path d="m523.4 486a1.57 1.57 0 0 1 -.12-.68v.76c.05.04.09.06.12-.08z"/><path d="m522.68 178.71v-3.64c.01 1.02 0 2.34 0 3.64z"/><path d="m459.92 312.52v.83a6.47 6.47 0 0 0 0-.83z"/><path d="m522.68 164.26c.1-.65.15-1.34.19-2a3.51 3.51 0 0 0 -.07-.43z"/><path d="m460.37 502.05c0-3.47-.36-1.63-.57-2.37-.1-4.14.27-1.91.46-3.32-.1-2.59-.43-4.57-.42-6.5.06-.15.08-.52.16-.08-.29-2.74 0-8.12-.38-11.31a1.48 1.48 0 0 1 .09-.41c-.19.51-.38.59-.51.49a15.22 15.22 0 0 1 0-3.47 5.09 5.09 0 0 0 .16 1.47l-.1-1.63c.35-1.46.12 2.23.38 2.23-.12-3.18-.4-6.88-.31-9.32.34-.51.12 5.7.42 2.45l-.13 3.77c.54-2.89 0 2.29.54-.36.09-5-.18-5.55-.08-10.5-.19-1.11-.28.37-.47-.74-.33-7 .86-5.54.41-10.71a14.69 14.69 0 0 1 -.43-5.54l.38 1.26c0-4.81-.55-2.75-.29-7.78.15.9.12 3.78.17 3.05.3-3.26-.22-2.3-.22-4.81l.34-.52c-.05-5.11-.3-10.74-.36-16.4.1.31.21 1.28.31-.05-.17-7.14 0-15.24.25-22.13l-.3-2.63c0-.62.14-1.14.19-.48.11-2.68-.18-.14-.3-1.43 0-1.52.17-2 .26-1-.25-4.73-.54-13.49-.22-18.48l.08 1c.12-3.89-.6-4.39-.32-8l.05.69c.12-8.44-.14-17.76.3-24.2-.42-1.22.19-8.35-.4-8.89.29-4.82.39-3.44.59-10.22 0-1.81-.37-2.7-.43-4.94l.31-.06-.32-3 .37-1.62-.08-2.1c0 .84-.14 1.78-.23 1.65a44.73 44.73 0 0 1 .37-8.08l-.26-7.76a14.58 14.58 0 0 1 .25 2.5c-.32-4.15.32-.76 0-4.55-.07.51-.18-.28-.24-.36.18-1.9.19-6.21.11-9.4l.21.62c.05-5.76-.1-12.15-.1-18.61-.1 2.32-.47 1.79-.5-.11l.32-.76c-.2-1.22-.12 2-.37-.53 0-2.42.38-1.62.48-.24l-.11-2.93c.1-.18.15.51.27.69-.2-1.2.33-5.06 0-6.8l.09-.17c0-6.46-.11-9.39-.12-14.65-.28-.11-.22-2.16-.45-3.73.09-3.87.31-8.16.29-12.83-.14-3.27-.24-1-.41-2.42.26-.25.24-4.9.42-2.49 0-5.59-.05-7.14-.26-14.21-.11.76-.15 1.63-.24 1.18a7.64 7.64 0 0 1 .23-2.74v.34c-.38-7.94.75-18.33.21-24.65v.35l-.28-6.55c0-3 .19 1.81.35-.43-.43-7.07.06-11.17-.22-17 .75-4.51 0-16 .43-22.08l-.18.35a13 13 0 0 1 .14-3.06c-.14.16-.16 1.7-.25.73 0-1.94 0-3.89-.06-5.89l7.33.06 8.56.13 17.11.29c5 0 2.83-.92 9.13-.5l-1.79.33c3.93-.15 7.92-.18 11.91-.19h10.66v.42 1.67c0 1.11.06 2.22.09 3.31a6.71 6.71 0 0 1 -.17-1.57 39.59 39.59 0 0 0 .18 7.75c0 1.53-.18.35-.28 1.3-.14 2.09.31 5.25.07 6.36 0 .19-.08-.59-.09-1 .11 1.36 0 6.35.24 5-.13 3.7.13 7.08 0 10 .31 1.92-.15 6.34.29 6.95-.45-.26-.36 6.5-.15 8.84-.14-.79-.14 2-.33 1.12 0 2.67.09 5.12.32 4.65-.54 4.93.44 9.9-.26 12.68.25 7.94.41 15.28.52 22.43-.46-.26 0-7.9-.52-7.59.18 6.78.57 10.68.46 17.4-.06 1.74-.19-1-.27-1.57.18 6.77 0 13.09.2 19.11a8.48 8.48 0 0 1 -.05-1.22c0 1.19-.06 2.76.14 2.63l-.06-1.16c.3-1.89.63 4.72.78 4.93-.58-2-.14 6-.89 2.75 0 .78.14 1.76.28 1.58 0 1.16-.12 1.53-.28.35.11 4.25.33 2.74.32 6.6a10 10 0 0 1 -.25-1.19 50.36 50.36 0 0 1 .3 7.16c-.06-.19-.13.18-.13-.79 0 5.6.51 9.53.33 15.67-.44-1.81-.15 2.09-.52 2.41l.11 3.3.18-1.32c0 2.88.27 5.44.15 7.92l-.16-2.15.07 5.42.14-3.07c.2 2.93.48-.31.37 3.54 0-.78 0 2.89-.22 4.39a36.33 36.33 0 0 1 .15 5c-.12.56-.41-.45-.49-.08.31 1.41.08 6.76.42 8.55-.08-.6-.28-.63-.32-.43l.26 1.18c-.09 1.34-.13 1.54-.28 1.32 0 4 .47-1.28.27 3.5 0-.38-.06-.2-.1-1-.11 4.8.16 9.27 0 13.68-.38 1.3-.09-3.85-.41-2.36.07 6.36.45 13.17.36 19.32v-1.15c.53.86-.26 4.58 0 7.7 0-.77-.29-1-.24-.8-.08 4.22.13 8.62.3 15l-.13-.79c-.13 2.49-.07 6.54-.14 9.23.14.79.12 2.33.32 1.39-.78 8.27.41 15.78-.24 23.12 0-.88-.11-2.09-.11-1.39l.12 6.25a8.47 8.47 0 0 0 .32-2.14 30.16 30.16 0 0 1 .24 4.11c-.15-2.81-.37 0-.5 1.24.07-.21.15.21.22.11-.41 3.26.47.54.19 5l-.12-.23c.06 1.66.22 3.2.19 5-.27.75-.13-1.77-.35-1.89 0 2.53.51 5 .24 7.27-.07-1.07-.07-2.61-.15-3.69a32.22 32.22 0 0 0 -.28 4.63v-.18l-.14 4.28.08-1.09c.7 3.16.13 6.44.58 10.7-.43-4.14-.25-.68-.55-1-.08 1.09-.18 2.74-.26 2.27.24 2-.19 3.36.16 6.2-.09.13 0 2.16-.25 1.7.08 2.62.17-.62.29-.4.33 4-.4 9.49.05 15.29.19 5 .52 5.93.68 10.58-.15 1.57-.35-1.28-.35-1.28a61.92 61.92 0 0 0 0 6.81c-.08-.48-.15 0-.26.74 0 1.91.35 1.28.21 3.8a12.23 12.23 0 0 1 -.39-1.91c.12 2.26.23 4.48.36 6.82-.17.61-.26-1.41-.37-2.23a62.51 62.51 0 0 0 .42 7.6l.1-1.68c0 .95-.23.49-.28-.22-.21-2.24.09-3.24.19-3.36l.06 1.66c.57-1.71-.09-6.68-.06-10l.42 1.39-.35-3.43c.11-.73.34-1.23.41.42.2-2.39-.15-2.12.08-4.18 0-.23.05-.12.07.09l-.13-2.35c.09.46.3-.38.24 1.05.24-4.2-.31-6.78 0-8.36v.35c-.14-5.83-.31-.56-.67-4.94l.76-2.94-.31-.58c0-.6 0-1.79.16-1.57-.21-2.24-.14.38-.33-.92.28-2.9-.13-8 .35-8.64-.23-1-.18 2.77-.34-.32.53-.89-.09-3.58.15-6.23.27.82.13 3.32.37.68-.45-1.6.1-5.16 0-7.39-.36-.11-.15-4.86-.27-8.6.12.24.2-7.05.33-10.54l.06.11c-.36-.68-.29-4.27-.37-6.89.22.1.31.57.4 2v-2.46a18.69 18.69 0 0 1 -.22-2.94l.28.61c0-3.27-.33-6.59-.14-10.8-.26-.24-.72 3.35-.89-1.11.14-.16.38-.33.43.84a18.85 18.85 0 0 1 0-2.13l.23 1.78c.1-1.92-.19-1-.17-2.54.2 0 .14-1.14.3-.92a17.39 17.39 0 0 0 0 1.93 37 37 0 0 1 .3-4.51c-.11.15-.26 0-.29-1.27 0-3.28.24-1.12.34-3-.14-.8 0-2.89-.29-2.94a4.39 4.39 0 0 1 .22-1.51c-.13-1.69 0-7.91-.35-6v.43c0-.08 0-.18 0-.28-.29-5.55.17-11.54 0-17.05h.09c-.11-3.29-.06-7.32-.27-9.67 0-1 .18-2.3.29-1.89a58 58 0 0 1 0-6.43c.17 2.53.15-.87.13 2.6a54 54 0 0 0 0-7.52c.25 1.19.32-2.46.24-4l-.18 2.29c0-1.74 0-3.27 0-4.82l.33.84c.41-6.69-.69-12.07 0-17.16-.23-1.77-.16 3.63-.43 2 0-3.07.52-6.28.52-7.24.18-4.22-.49-3.94-.36-8.35-.12.57-.44 1.1-.55-2.19.05-3.08.5-3.79.59-1.85 0 .74 0 1.1-.06 1.07 0 1 .09 2.3.22 1.08l-.12-.4c.12-1.53.11-5.76.3-4.77-.11-2.33-.19-1-.25.73.17-3.95 0-6.17.12-10.23-.07.64-.21 1.24-.21.59.15-6-.22-2.62-.27-6.66.18-2.3.43.82.28-3.24.12-2.49.31-.53.41.46a88.27 88.27 0 0 1 .19-9l.1 1.95c-.06-1.17-.06-2.12-.06-3.1l-.23 1.12a8.92 8.92 0 0 1 .14-2.1c-.16-1.18-.4.91-.61-1.44.12-1.52-.13-4.65.18-5.18-.1 4.81.32-.53.37 3.54 0-.78 0-1.74 0-2.89 0-.17.06.16.08.48.28-4.6-.36-2.12-.35-6.88.18.6.34-1.11.3-1.88 0 1.92-.3.91-.43-.85a49.1 49.1 0 0 0 -.09-4.92l-.06 1.83a28 28 0 0 1 -.21-4.28c.13-.18.09 1.94.15 1.18-.31-2.37.33-5.35.12-8.64.12-1.53.33-.15.41-1.49-.23-3.7.24-4 .05-7.89-.24 1.12-.18 1.32-.41-1.42l.17 6.39-.35-4.1c0 1.93.15 4.07.11 5.22-.19-1.95-.13-1.75-.33-.83.36-2.64-.21-5.23 0-8.28l.59.1c.27-4.58-.3-8.14-.15-14.09l-.11 1.91c-.23-.8 0-3.68-.12-5.6.19.18.27-1 .39-1.85-.15.1 0-4.36-.38-4.9l.26-2.65c.1-4.81-.56-5.49-.5-10.1.22 1.39.36-.71.51 2.38a13 13 0 0 0 0-3.04c.13-.9-.26-4.28-.08-5.69a9.84 9.84 0 0 1 -.27-2.6c0-.19.09 0 .09 0s-.13-2.71-.35-1.2c.62-4.75 0-13.28.49-17.41-.07-3.37-.13-7.42-.15-10.48.06.2.1 0 .08.59.18-4.21-.57-2.59-.36-7.38.32-2.45.17 2.54.29 1 .65-.66-.09-5.78.29-9v.78a21.29 21.29 0 0 0 .05-2.31c0-1.12-.07-2.33-.11-3.63-2.79.08-4 .16-5.87.14 0 0 .2-.06 0-.1-2.76.33-8 .44-11.86.53 1.21-.25 1.77-.13 1-.39-1.74 0 .51.42-3 .49-1.13-.14-3.63-.26-4-.54h3.27c-1.68-.36-4.24 0-6 0l.22-.16c-5 0-5.09.44-10.48.42l.56.11c-2.94.39-2.47-.21-5.41.08l-.88-.4c-1.95.1-6.81.38-10.3.46 2-.3 6.05-.45 8.58-.62-1.93 0-6.55 0-7.55.22a23.56 23.56 0 0 1 2.52-.07 74.82 74.82 0 0 1 -9.31.46c.22-.25-.77-.36-2.31-.41l-2.62-.05h-3.73q0 1.15 0 2.25c0 .5 0 1-.06 1.43a14.3 14.3 0 0 1 -.21 2.05c.28 6.8-.12 13.48-.08 21.39.6-2.81 0 2.31.63 1.82a22.21 22.21 0 0 1 0 2.71l-.37 5.59c-.17 1.32-.13-1.75-.27-1.58 0 4-.26 1.69-.42 4.36.22-.55.31 1.4.23 3.7l.28-3.24c.33 5.64-.51 4.88-.19 10.56l-.19-1.8c.11 2.92 0 10.76.49 13.62-.07.52-.24 1.2-.29-.08-.07 7 .53 15.51.22 20.93l-.14-.53a25.07 25.07 0 0 1 .13 3.89c-.07-.08-.15-.52-.16.08a50.44 50.44 0 0 1 .17 5.18l-.17-1.47c-.19 6.8.41 10.43.52 16.13-.44 0-.59 5.34-.66 8l-.06-.09c0 7.91.36 13.44.54 20.78-.48 4.55-.2 15.41-.47 22.73.08-1.12.34.18.39 1.48-.09 1.71.3 4.74-.1 4.47v-.61c-.4 1.29-.3 4.82-.31 7.57l.53.46c-.77 7.2.28 18.88-.4 22.81.13 1.74.13 3.89.26 5.61l-.28-.09c-.08 4.82-.11 7.22 0 13.18l-.21-1.22c0 3.36.82 4.24.84 7.34l-.43.93c0 5.86-.36 11.79 0 17.58-.06-.09-.18-.26-.2-1.21 0 2.76-.28 10.67.3 9.66-.38.07 0 6.05.12 9.21l-.27-.49a41.23 41.23 0 0 1 .55 6.49c0 .88-.22.77-.15-.4-.15 2.94.26 2.29.11 5.86l-.18-1.33a20 20 0 0 0 .29 4.46 28 28 0 0 1 -.33 6.2 14 14 0 0 1 .29 3.85c-.1.24-.15-.41-.18-.74-.19 5.07.32 7.54 0 11-.1.08-.14.3-.17.59 0-4 0-7.26 0-7-.25 0-.3 3.25-.65.66.19 2.61.61 7.08.49 10.25a3.82 3.82 0 0 1 -.09.42v-.33 2c0 1-.07 1.65-.07 2.63a38.51 38.51 0 0 0 -.13 5.35c.28-.14.24 2 .47 0a6.59 6.59 0 0 1 -.05-1.39 6.73 6.73 0 0 0 0-.69v.11c0-1.06 0-2.45 0-4a21.34 21.34 0 0 1 .11 4.41c.18.83.36 1.75.45 2.27-.39 2.22-.6 6.49-.84 7.09.15 4.95.1 11.66.63 14.77a5.6 5.6 0 0 1 -.24 2.15c0-.82 0-1.78-.12-2.22.14 2.81.06 8.34.42 9-.16 3.55-.34-2-.28 2.88l-.11-.66c-.59 9.59.94 15.59.19 26.22a5.31 5.31 0 0 1 .13-1.26c-.1 3.57-.12 7.19-.1 10.84 0 3.82.06 7.67.09 11.5h4.36 3.81q3.79 0 7.49.19a31 31 0 0 0 5.85-.31l.73.31 3.55-.35c5-.26 8.71.74 15.08.26l-.82-.21c2.29 0 7.24-.12 6.86.12a4.51 4.51 0 0 1 1.64-.11l.07.16 5.62-.27c4.36.11-.68.63 5.68.66 2.36-.06 6.72-.46 5.84-.57a8.27 8.27 0 0 1 -2.51-.26l2.16-.08c.39-.46 2.05-.94-3.25-1.27l-3.7.29-1.19-.23h3.11a16.08 16.08 0 0 0 -4.13.1 5.77 5.77 0 0 0 -1.55-.25l-3.63.45c-.44-.18 1.63-.36-.81-.46-1.7.2 1.63.41-1.18.54a9.13 9.13 0 0 0 -3.33-.2c-.29-.12.15-.2 1-.25-1.85.14-4.89.06-5.84.31-1.84-.26-6.24.07-6.06-.38a46.11 46.11 0 0 1 -4.95.37c3.1-.53-6.35 0-5.53-.6-2.29.48-8.29.21-12.35.48a4.38 4.38 0 0 1 1-.09c-2.28 0-2.95-.19-4.42-.28-.29.4-3.85.49-5.78.73a4.67 4.67 0 0 1 -.7-.13c-.07 0-.09-.08-.08-.11s0-.06.08-.09a2.24 2.24 0 0 1 .4-.09c.66-.11 1.57-.22 1.13-.41 0 .11-.44.17-1.07.23h-.45-.14l-.34.06c-.06-.15-.12-.33-.21-.13 0-.12.05-.23.07-.32a1.05 1.05 0 0 0 0-.2 1.94 1.94 0 0 1 0-.24c0-.29.05-.48.06-.65a6.19 6.19 0 0 1 .25-1.09c-.49-.37-.08-2-.38-3.77.24-3.1.46-.8.31-4.21.41-1.56.58 1.49.58 1.49zm-.84-81.05v1.67c.01-.36.01-.84 0-1.67zm0-6.82v3c-.1.24-.19 0-.19-.71a13 13 0 0 0 .18-2.3zm-1.94 14.41a4.77 4.77 0 0 1 .07-1.58v1.88.13a1.07 1.07 0 0 1 -.08-.44z"/><path d="m457.94 430.52v.45c0-.22.05-.43.07-.65l-.09-.38z"/><path d="m524.51 376.9v-.15a1.82 1.82 0 0 1 0 .3c-.02-.05-.01-.05 0-.15z"/><path d="m460.06 320.1-.07.01.06.6z"/><path d="m523.54 414.42a2.48 2.48 0 0 0 -.07.49 2.1 2.1 0 0 0 .07-.49z"/><path d="m523.48 430.62-.1 2.3c.06-1 .08-1.72.1-2.3z"/><path d="m523.34 443.09a.7.7 0 0 0 .12.24z"/><path d="m523 245v-.48c-.06-1.18 0-.41 0 .48z"/><path d="m523.67 303.91c0-.62-.1-1.24-.14-1.89-.02 1.05-.02 1.86.14 1.89z"/><path d="m523.54 299.28c-.06 1.05 0 1.92 0 2.74.01-.86.04-1.88 0-2.74z"/><path d="m523.21 497.1v.6s0 0 0 .07z"/><path d="m523.25 497.77v.67a3.55 3.55 0 0 0 0-.67z"/><path d="m523.35 499.84-.07-1.4a7.42 7.42 0 0 0 .07 1.4z"/><path d="m523.34 480.6-.1-.19a.28.28 0 0 0 .1.19z"/><path d="m523.31 475.59c0 1.19-.21 3-.15 4.67l.08.15c-.15-.78.25-3.69.07-4.82z"/><path d="m524.57 454.66-.08 4.2c.11-.73.26-1.7.28.21.33-5.29-.24 1.1-.2-4.41z"/><path d="m524.73 441.64c0 2.25.16 0 .22.09-.1-1.43-.12-1.73-.22-.09z"/><path d="m524.73 347.51.26.22c.01-1.73-.1-.01-.26-.22z"/><path d="m523.41 329.51-.16 1.7.24.8z"/><path d="m525.23 318.88.04.76-.09-2.9z"/><path d="m525.14 160.79-.31.53c.05 1.18.41 1.42.31-.53z"/><path d="m489.05 126.86a14.9 14.9 0 0 0 -3.85-.1c1.53.02 3.07.14 3.85.1z"/><path d="m457.54 302-.11-1.37.09 2.59z"/></g><path d="m123.84 78.65a3 3 0 0 1 -1 3.16 1.28 1.28 0 0 1 -1.95-.46 1.34 1.34 0 0 1 .87-1.64 3.12 3.12 0 0 0 1-3.11h.43a7.37 7.37 0 0 1 .48 1.29h8.33v-1.48h-7.59l-.21-.78h14.9l1.26-1.57s1.49 1.11 2.41 1.92c-.08.3-.33.43-.7.43h-7.56v1.46h8.15l1.34-1.38 2.4 2.33a1.43 1.43 0 0 1 -1 .29 16.74 16.74 0 0 1 -2.81 2.38l-.33-.19a19.13 19.13 0 0 0 .57-2.65h-2.27l1.14 1.87c-.19.13-.46.08-.73-.17a47.17 47.17 0 0 1 -5.62.54l-.1-.35a36 36 0 0 0 4.75-1.89h-5.45v4.67c0 .14-.81.57-2.08.57h-.47v-5.24zm19.28 17.6s1.43 1.14 2.32 2c-.08.3-.32.43-.7.43h-22.74l-.24-.78h10.34v-6.24h-8.8l-.24-.78h17.3l1.13-1.29v-.38h-2.18v.4c0 .16-.87.54-1.63.54h-.29v-6.26l2 .84h1.87l.94-1 2.11 1.59a1.75 1.75 0 0 1 -.92.43v3.57a2.27 2.27 0 0 1 -1.16.51c.51.35 1.27.92 1.83 1.4-.05.3-.35.43-.73.43h-5l2.8 1c-.1.29-.45.51-1 .43a7.89 7.89 0 0 1 -.46.92c4.32 1.16 2.76 4.18 1.06 3a5.5 5.5 0 0 0 -1.46-2.35 9.3 9.3 0 0 1 -3.89 3.18l-.32-.32a11.85 11.85 0 0 0 3.24-5.81h-3.78v6.19h7.34zm-13.85-3.45a.9.9 0 0 1 -1 .46 6.66 6.66 0 0 1 -.46.78c4.92 1 3.46 4.48 1.6 3.32a6.84 6.84 0 0 0 -2-2.78 9.68 9.68 0 0 1 -4.41 3.35l-.33-.35a10.54 10.54 0 0 0 3.75-5.89zm-2.05-2.8v-.78h-2.4v.56c0 .17-.81.57-1.6.57h-.22v-6.46l2 .84h2l1-1 2 1.51a1.59 1.59 0 0 1 -.84.41v3.72c0 .19-1 .57-1.59.57zm3.7-8.45c-1.14.46-2.81 1.14-5 2a1 1 0 0 1 -.62.6l-1-2.19c1.22-.11 3.89-.43 6.56-.81zm-6.16-2.32c5.91-.78 6.24 2.11 4.62 2a21 21 0 0 0 -4.75-1.57zm2.46 9.21v-2.93h-2.4v2.92zm7.18 1.51v-.73h-2.4v.4c0 .16-.83.57-1.59.57h-.3v-6.3l2 .84h2.05l.95-1 2 1.51a1.76 1.76 0 0 1 -.86.41v3.67a2.66 2.66 0 0 1 -1.59.57zm0-1.51v-2.93h-2.4v2.92zm.92-7.13c7-.35 7.29 2.78 5.48 2.62a28.54 28.54 0 0 0 -5.62-2.16zm6.15 7.13v-2.93h-2.18v2.92z" fill="#302725"/><path d="m496.76 153.24c10.88 3.54 9.32 10.47 6.18 8.53a13.15 13.15 0 0 0 -1.59-3.05c-4.41.79-10.77 1.74-18.36 2.64a1.57 1.57 0 0 1 -.73.55l-1.1-3.24a4.68 4.68 0 0 0 1-.32c3.17-1.83 7.55-6.7 9.08-9.46l3.92 1.68a1 1 0 0 1 -1.16.43 46.86 46.86 0 0 1 -10.07 7.68c3.89-.05 10.3-.31 17-.63a26.16 26.16 0 0 0 -4.38-4.56zm3.49 9.08 3 2.38a2.29 2.29 0 0 1 -1.3.67v9.48a4.64 4.64 0 0 1 -2.41.7h-.47v-2.29h-12.07v1.59c0 .29-1.28.93-2.44.93h-.43v-13.11l3 1.27h11.6zm-1.14 10.1v-7.63h-12.11v7.63z" fill="#999"/><path d="m505.84 193.06a2.19 2.19 0 0 1 -1.22.61v9.74a4.28 4.28 0 0 1 -2.4.73h-.5v-2.41h-7.33v10.27c0 .32-1.25 1.05-2.35 1.05h-.56v-11.32h-7.33v1.89c0 .26-1.25.93-2.41.93h-.44v-13.55l3.11 1.3h7.07v-6.3l4 .4c-.09.41-.29.73-1.07.85v5h7l1.43-1.56zm-14.36 7.83v-7.72h-7.33v7.72zm10.24 0v-7.72h-7.33v7.72z" fill="#999"/><path d="m484.61 234.33c0 5-.23 11.37-4.84 15.72l-.38-.26c2.41-4.5 2.55-10.24 2.55-15.46v-9.11l3.1 1.19h8.53-.06a7.38 7.38 0 0 0 -2.14-3.13l.23-.21c4.76 0 5 2.53 3.77 3.37h6.79l1.59-2.09s1.8 1.45 2.91 2.47c-.09.31-.38.46-.79.46h-21.26zm-1.28 15.31a27.51 27.51 0 0 0 8.36-4.38l2.93 2.15c-.26.26-.79.32-1.54.12a35.32 35.32 0 0 1 -9.63 2.52zm20.51-16.24s1.71 1.33 2.79 2.29c-.09.32-.38.46-.79.46h-20.84l-.23-.84h17.52zm-6.32 1.36v-1.07h-5.72v.67c0 .17-1 .52-1.88.52h-.52v-3.95h-3.51l-.24-.84h3.75v-2.46l3.3.34c-.06.32-.26.58-.9.67v1.45h5.72v-2.43l3.31.34c-.06.32-.29.58-.93.67v1.42h1.16l1.42-1.83s1.68 1.25 2.7 2.21c-.06.32-.35.46-.76.46h-4.52v3.31c0 .17-1 .52-1.86.52zm3.1 11.32v-1h-11.08v.58c0 .26-1.16.81-2.17.81h-.37v-9.92l2.75 1.16h10.68l1.25-1.33 2.61 2a1.57 1.57 0 0 1 -.93.49v6.5a3.9 3.9 0 0 1 -2.23.76zm-11.08-7.55v2.32h4.24v-2.32zm0 5.69h4.24v-2.53h-4.24zm8-11.37v-1.92h-5.74v1.92zm-1.77 13.2c14.59.75 9.57 5.57 7 3.8a23.16 23.16 0 0 0 -7.08-3.4zm.69-7.52v2.32h4.18v-2.32zm4.18 5.69v-2.53h-4.18v2.53z" fill="#999"/><path d="m494.07 272.52c1.1 4.53 4.43 9.08 12.64 11.92v.35a2.68 2.68 0 0 0 -2.55 2.44c-7.28-3.48-9.63-9.29-10.53-14.27-1 6.26-4 11-13.89 14.3l-.29-.47c8.12-3.8 10.53-8.41 11.28-14.27h-10.3l-.23-.84h10.59c.23-2.32.2-4.84.23-7.57h-8.88l-.23-.84h17.7l1.77-2.21s2 1.51 3.22 2.58c-.09.32-.38.47-.79.47h-9.69c-.05 2.73-.08 5.25-.34 7.57h7.51l1.83-2.26s2 1.51 3.27 2.64c-.08.32-.4.46-.84.46z" fill="#999"/><path d="m501.43 306.22.09-.32a4.44 4.44 0 0 1 -1 .41v5.48a3.73 3.73 0 0 1 -2.27.78h-.43v-1.57h-3.31a38.79 38.79 0 0 1 -2.32 4.12h7.43l1.36-1.51 2.93 2.24a2.06 2.06 0 0 1 -1.28.64v6.81a3.9 3.9 0 0 1 -2.26.78h-.37v-2h-13.7v1.4c0 .23-1.19.84-2.29.84h-.38v-10.32l2.88 1.19h4.38c.2-1.25.43-2.93.55-4.12h-2.93v1c0 .26-1.19.84-2.29.84h-.38v-9l2.84 1.16h8.91l1.3-1.45 2.73 2.06c.29-1 .55-2.18.75-3.19h-18.37a4.32 4.32 0 0 1 -1.71 4 1.71 1.71 0 0 1 -2.52-.52 1.66 1.66 0 0 1 1-2 4.41 4.41 0 0 0 2.35-3.8h.44a7.8 7.8 0 0 1 .34 1.54h8.82a2.14 2.14 0 0 1 -.75-.44 5.61 5.61 0 0 0 -1.48-3.8l.26-.17c5.11.69 4.76 3.77 3.13 4.41h8.27l1.55-1.71 2.75 2.64a1.75 1.75 0 0 1 -1.13.35 22.77 22.77 0 0 1 -3.6 3.45zm-15.17 9.78v5.25h13.74v-5.25zm11.58-5.8v-4.38h-9.37v4.38z" fill="#999"/><path d="m72 168.76a.27.27 0 0 1 -.09.15l2.93 1.42c-.14.29-.41.46-1.07.37a17.08 17.08 0 0 1 -5.92 5.14l-.29-.35a18.55 18.55 0 0 0 3.66-6.21 3.83 3.83 0 0 1 -1.4.23h-.43v-19.81l3 1.16h4l1.31-1.56 2.69 2.08a1.66 1.66 0 0 1 -1.19.56v16.24a2.94 2.94 0 0 1 -2.23.75h-.46v-1.42h-4.51zm0-17.06v4.3h4.47v-4.3zm4.47 5.17h-4.47v4.44h4.47zm0 9.83v-4.55h-4.47v4.55zm-1.37 2.23c7.08 2.3 4.53 7.57 2 5.49a11.49 11.49 0 0 0 -2.26-5.31zm17.75-14.85s1.57 1.48 2.47 2.5c-.09.32-.35.46-.75.46h-3.91v15.29c0 2-.44 3.22-3.92 3.54a3.26 3.26 0 0 0 -.72-2 4.62 4.62 0 0 0 -2.7-1v-.44s3.22.23 3.89.23.72-.17.72-.6v-9.95a24.86 24.86 0 0 1 -8.9 8.23l-.32-.34a27.3 27.3 0 0 0 8.44-13h-7.51l-.24-.84h8.53v-7l3.8.41c-.08.4-.37.69-1.07.78v5.83h.78z" fill="#999"/><path d="m79.14 193.29c-.23.23-.61.29-1.27.35a25.6 25.6 0 0 1 -2.93 4.7v.46c5.83 1.86 3.91 5.77 1.88 4.27a9.91 9.91 0 0 0 -1.88-3.46v12.39a2.49 2.49 0 0 1 -2.15.9h-.46v-11.63a25.75 25.75 0 0 1 -4.33 3.54l-.32-.29a31 31 0 0 0 7.42-11.43h-6.9l-.26-.84h7l1.59-1.54zm-8-7.22c6.76 1.62 4.14 6.29 1.79 4.35a10.49 10.49 0 0 0 -2-4.18zm23.7 6.61a2.06 2.06 0 0 1 -1.22.58v11.63a3.29 3.29 0 0 1 -2.15.85h-.41v-2h-3.3v8.33c0 .32-1.13 1-2.09 1h-.49v-9.31h-3.34v1.4c0 .26-1.07.84-2.17.84h-.41v-15.2l2.74 1.2h3.16v-6l3.62.38c0 .4-.29.69-1 .81v4.81h3l1.31-1.48zm-13 .12v4.44h3.34v-4.44zm3.34 10.09v-4.81h-3.34v4.81zm2.58-10.09v4.44h3.33v-4.44zm3.33 10.09v-4.81h-3.33v4.81z" fill="#999"/><path d="m72 233.2v15.92c0 .35-1 1-2.21 1h-.46v-26.12l2.81 1.25h4.58l1.28-1.31 2.67 2a1.81 1.81 0 0 1 -1.07.53v7.22a3.36 3.36 0 0 1 -2.15.81h-.45v-1.3zm0-7.08v2.67h5v-2.67zm5 6.24v-2.76h-5v2.76zm8.09 9.57v6.26c0 .15-.78.61-2 .61h-.44v-6.87h-3.13c-.29 2.52-1.45 5.31-5.54 7.13l-.29-.35a9.06 9.06 0 0 0 3.54-6.78h-3.6l-.23-.82h3.86c0-.31 0-.66 0-1v-3.11h-3l-.23-.84h10.86l1.39-1.8s1.57 1.24 2.52 2.17c0 .32-.34.47-.75.47h-2.93v4.14h.46l1.34-1.79s1.51 1.24 2.43 2.14c-.08.32-.37.47-.78.47zm-2.41-.82v-4.11h-3.04v3.16 1zm11.72-15.11a2.28 2.28 0 0 1 -1.22.61v20.16c0 2-.37 3.08-3.48 3.4a3.55 3.55 0 0 0 -.49-1.92 3.22 3.22 0 0 0 -2-1v-.4s2.26.14 2.73.14.58-.17.58-.55v-13.24h-5.2v.32c0 .23-1.13.81-2.2.81h-.38v-10.18l2.7 1.13h4.76l1.27-1.54zm-9.11.15v2.67h5.2v-2.67zm5.2 6.24v-2.79h-5.2v2.76z" fill="#999"/><path d="m86.19 275.54c2.18 2 6 3.19 9 3.59v.41a3.77 3.77 0 0 0 -1.8 2.87 17.11 17.11 0 0 1 -8.1-6.87h-7c-2.11 3.19-5.74 5.57-10.27 7.13l-.26-.43a18.52 18.52 0 0 0 7-6.7h-6.67l-.23-.84h6.76v-9.93h-5.37l-.23-.84h5.6v-3.59l3.86.37c-.09.41-.32.7-1.08.82v2.4h7.84v-3.59l3.88.37c-.06.41-.32.7-1.07.82v2.4h1.57l1.56-2s1.82 1.37 2.82 2.38c-.09.32-.35.46-.76.46h-5.19v9.93h2.29l1.66-2.18s1.8 1.51 2.91 2.55c-.09.32-.38.47-.82.47zm4.06 7.94s2 1.51 3.28 2.62c-.06.31-.38.46-.81.46h-23.15l-.26-.84h10.53v-4.18h-5.84l-.23-.84h6.09v-3.7l3.8.32c0 .4-.26.69-1 .78v2.64h2l1.47-1.92s1.74 1.34 2.76 2.3c-.09.32-.38.46-.78.46h-5.43v4.18h5.8zm-12.85-18.71v2.73h7.84v-2.73zm0 6.3h7.84v-2.73h-7.84zm7.84 3.63v-2.82h-7.84v2.82z" fill="#999"/><path d="m74.62 310.05c6.32 2.14 4.23 6.35 2.06 4.67a11.58 11.58 0 0 0 -2.06-3.92v12.68a2.49 2.49 0 0 1 -2.15.9h-.47v-11.61a25.62 25.62 0 0 1 -4.18 3.4l-.32-.29a31.4 31.4 0 0 0 7.19-11.43h-6.42l-.27-.84h6.65l1.59-1.51 2.64 2.55a2.15 2.15 0 0 1 -1.3.35 24.82 24.82 0 0 1 -3 4.79zm-3.69-12.71c6.85 1.71 4.27 6.47 1.86 4.5a10.36 10.36 0 0 0 -2.12-4.32zm22.11 23s1.3 1.28 2.06 2.21c-.09.32-.35.46-.76.46h-17.72l-.23-.84h3.42v-23.46l2.9 1.16h5.92l1.25-1.63 3.12 2.26a1.76 1.76 0 0 1 -1.33.55v21.15h.26zm-10.65-19.63v6.2h6.53v-6.2zm0 13.72h6.53v-6.67h-6.53zm0 7.77h6.53v-6.93h-6.53z" fill="#999"/><path d="m91.94 335.74s1.82 1.45 2.93 2.46c-.09.32-.38.47-.82.47h-21.38v10.15c0 4.73-.23 9.4-4.67 12.62l-.37-.26c2.43-3.22 2.58-7.55 2.58-12.36v-12.13l2.9 1.14h9-.06a8.57 8.57 0 0 0 -2.35-3.25l.26-.2c4.65.14 4.94 2.66 3.81 3.48h6.63zm-11.94 20.88v3.86a2.7 2.7 0 0 1 -2 .64h-.43v-4.5h-4.37l-.24-.84h4.56v-3h-1.07v.47c0 .2-1 .66-1.83.66h-.32v-9l2.29 1h.93v-2.38h-3.92l-.23-.84h4.15v-3l3.34.32c0 .35-.27.61-.88.73v2h1l1.3-1.74s1.48 1.19 2.38 2.09c-.09.32-.35.46-.76.46h-3.9v2.38h1.31l1-1.13 2.12 1.85a1.82 1.82 0 0 1 -1 .5v5.71a2.52 2.52 0 0 1 -1.77.67h-.46v-.73h-1.2v3h1.17l1.24-1.57s1.48 1.11 2.38 2a.69.69 0 0 1 -.75.46zm-3.53-9.86v2.18h4.73v-2.18zm0 5.19h4.73v-2.17h-4.75zm15.49-12 2.73 2.05a2.13 2.13 0 0 1 -1.22.58v15.58c0 1.8-.37 2.9-3.39 3.19a3.06 3.06 0 0 0 -.58-1.77 3.85 3.85 0 0 0 -2.29-.87v-.46s2.64.2 3.22.2.58-.18.58-.58v-5.63h-3.31c-.12 4-1 7.08-6.26 9.08l-.32-.35c3.65-2.2 4.17-5.31 4.17-9.6v-11.17l2.82 1.14h2.61zm-4.24 2.27v4.12h3.28v-4.12zm3.28 9.21v-4.29h-3.3v4.29z" fill="#999"/><path d="m422.6 91c2 7.69-3.32 6.66-1.71 4.29.82-.73 1.25-2.27 1.3-4.29zm9.63-2.54a2.3 2.3 0 0 1 -.81.24c-.21 6.16-.78 8.77-1.86 9.75a3.85 3.85 0 0 1 -2.65.83 2.15 2.15 0 0 0 -.37-1.43 3 3 0 0 0 -1.62-.67v-.46c.73.08 1.89.16 2.35.16a1.09 1.09 0 0 0 .83-.24c.41-.38.73-1.57.95-3.78a.82.82 0 0 1 -.87-.14 5.27 5.27 0 0 0 -1.72-2.8l.29-.22a4.25 4.25 0 0 1 2.46 1.51c.05-.83.11-1.78.16-2.8h-5.32v1a2 2 0 0 1 -1.72.65h-.33v-14.67l2.4 1h4.46l1.24-1.57s1.46 1.11 2.37 1.92c-.08.3-.35.43-.72.43h-3.75v2.94h.83l1.11-1.45s1.3 1.05 2 1.81c0 .29-.3.43-.67.43h-3.27v2.94h.78l1.11-1.43s1.26 1 2.05 1.78c-.06.3-.33.43-.7.43h-3.24v3h1.13l1.13-1.19 2 1.62v-4.59l2.08.84h1.51l.89-1 2 1.48a1.31 1.31 0 0 1 -.94.44v5a2.17 2.17 0 0 1 -1.54.51h-.3v-1h-1.96v.71c0 .16-.54.54-1.46.54h-.3zm-8.37 2.29c2.81 3.35 1 6.32-.16 4.84a11.94 11.94 0 0 0 -.24-4.73zm.19-13.63v2.94h1.87v-2.92zm1.87 3.73h-1.87v2.94h1.87zm-1.87 6.77h1.87v-3h-1.87zm1.27 2.65c3.65 2.62 2.11 5.45.87 4.24a9.4 9.4 0 0 0 -1.19-4.06zm12.12 1.91c-.11.3-.32.46-1 .44a17.47 17.47 0 0 1 -.76 1.59c4.38.94 2.57 4.29.73 2.94a4.43 4.43 0 0 0 -1.1-2.27 12.08 12.08 0 0 1 -4.86 4.51l-.22-.35c2.3-1.94 3.59-5.24 4.05-7.91zm2.84-16.87c-.09.27-.3.44-1 .52a13.79 13.79 0 0 0 7.15 4.34v.33a3 3 0 0 0 -1.43 2.5 15.44 15.44 0 0 1 -6-7 20 20 0 0 1 -7.86 7.32l-.16-.27a21.83 21.83 0 0 0 5.94-8.72zm-6.28 9.77v3.83h1.91v-3.83zm6.39-5.1s1.33 1 2.14 1.83c-.06.3-.33.43-.71.43h-7.15l-.21-.78h4.75zm3.49 12.14c-.11.27-.33.46-1 .46a13.12 13.12 0 0 1 -1.05 2.13c5.8 1.57 4.43 5.56 2.27 4.3a13.17 13.17 0 0 0 -2.7-3.59 11.51 11.51 0 0 1 -4.59 4l-.22-.35c2.33-1.94 3.62-5.18 4.11-7.91zm-1.22-1.4v-1h-1.92v.71c0 .13-.59.54-1.53.54h-.3v-7.54l2.13.87h1.54l.92-1.06 2 1.51a1.35 1.35 0 0 1 -.92.44v5a2.32 2.32 0 0 1 -1.62.51zm0-1.81v-3.83h-1.92v3.83z" fill="#302725"/><path d="m523.43 127.59c.08.59.28.25.24-1.36l-.33-1.15z" fill="#4b4240"/><path d="m524 116.7c-.16-1.91-.44-4.1-.75-2.87.32 1.89.19 2.34.57 4.37 0 1.62-.11 2.83-.23 2.56a32.37 32.37 0 0 0 .13 3.39 40.09 40.09 0 0 0 .06-7.57c.11-.58.22-.02.22.12z" fill="#4b4240"/><path d="m436.71 45.34h1a10.07 10.07 0 0 0 -1 0z" fill="#4b4240"/><path d="m338.64 45.15a4 4 0 0 0 1.09-.07 5.76 5.76 0 0 0 -1.09.07z" fill="#4b4240"/><path d="m321.89 44.79h1a6.84 6.84 0 0 0 -1 0z" fill="#4b4240"/><path d="m436.71 45.34-2.62-.11a13.38 13.38 0 0 0 2.62.11z" fill="#4b4240"/><path d="m523.24 94.87c0 .55 0 1 .09 1.42 0-.45 0-.88 0-1.33z" fill="#4b4240"/><path d="m479.94 45.07h.8l.66-.14z" fill="#4b4240"/><path d="m513.12 45a2.33 2.33 0 0 0 -1.3.39 7.08 7.08 0 0 1 1.63-.19c.02-.04-.08-.1-.33-.2z" fill="#4b4240"/><path d="m524.38 87.44v.93c.03-.24.01-.65 0-.93z" fill="#4b4240"/><path d="m456.19 45a.74.74 0 0 0 -.3-.1s.11.1.3.1z" fill="#4b4240"/><path d="m485.63 126.27s0 0 0 0c.2.02.26 0 0 0z" fill="#4b4240"/><path d="m524.09 127.66h-.53c-.06 0-.12.1-.12.16z" fill="#4b4240"/><path d="m291.25 44.43h.14c.8-.03.35-.02-.14 0z" fill="#4b4240"/><path d="m46.66 83.68c.25-3.19.32 5.18.6.38-.11.45-.44-4.36-.6-.38z" fill="#4b4240"/><path d="m523.28 94v-1.35c-.02.62-.01 1.04 0 1.35z" fill="#4b4240"/><path d="m47.26 84.06v-.49c.02.2.01.32 0 .49z" fill="#4b4240"/><path d="m220.65 44.6a3.77 3.77 0 0 0 .72.12 2.51 2.51 0 0 0 -.72-.12z" fill="#4b4240"/><path d="m273.25 45h-1.31z" fill="#4b4240"/><path d="m193.34 45a19 19 0 0 0 -1.92 0h.3a9 9 0 0 1 1.62 0z" fill="#4b4240"/><path d="m164.91 45h.53.9z" fill="#4b4240"/><path d="m399.24 126.41a7.38 7.38 0 0 1 1.32.25c-.44-.2 3.73-.27-1.32-.25z" fill="#4b4240"/><path d="m523.4 94.86a2.42 2.42 0 0 1 -.12-.85v.95c.05.04.09.1.12-.1z" fill="#4b4240"/><path d="m192.18 47.21h-4.52c1.27-.01 2.91 0 4.52 0z" fill="#4b4240"/><path d="m195.31 126.45h1a8 8 0 0 0 -1 0z" fill="#4b4240"/><path d="m174.26 47.21c-.8-.1-1.66-.15-2.54-.19a5.33 5.33 0 0 0 -.53.07z" fill="#4b4240"/><path d="m430.31 126c-4.3 0-2 .37-2.93.58-5.14.1-2.38-.27-4.13-.46-3.2.09-5.66.43-8.05.42-.18-.06-.65-.08-.1-.16-3.39.29-10.07 0-14 .38a2.12 2.12 0 0 1 -.51-.09c.64.19.73.37.6.51-1.93 0-3.58.23-4.3 0a7.16 7.16 0 0 0 1.83-.17l-2 .11c-1.82-.35 2.76-.12 2.76-.38-3.94.12-8.54.4-11.56.3-.63-.34 7.07-.11 3-.41l4.67.13c-3.57-.54 2.84 0-.44-.54-6.15-.1-6.88.18-13 .08-1.38.18.46.28-.92.46-8.72.34-6.87-.85-13.28-.4a22.33 22.33 0 0 1 -6.86.43l1.55-.38c-5.95 0-3.4.55-9.63.29 1.1-.15 4.68-.13 3.78-.17-4-.31-2.86.22-6 .22l-.64-.34-20.35.36c.39-.1 1.6-.21-.05-.31-8.85.17-18.9 0-27.44-.25l-3.27.3c-.75 0-1.4-.14-.58-.19-3.33-.12-.17.18-1.77.3-1.9 0-2.51-.17-1.31-.26-5.87.25-16.73.54-22.92.22l1.21-.08c-4.82-.12-5.44.6-9.91.32h.86c-10.46-.13-22 .14-30-.3-1.52.42-10.36-.19-11 .4-6-.29-4.26-.4-12.67-.59-2.25 0-3.35.37-6.13.43l-.07-.31-3.77.32-2-.37-2.61.08a5.74 5.74 0 0 1 2.05.23c-2 .07-4.52 0-6.5-.08a23.36 23.36 0 0 1 -3.52-.29l-9.63.26a22.37 22.37 0 0 1 3.1-.25c-5.14.32-.93-.32-5.64 0 .63.07-.34.18-.45.24-2.35-.19-7.69-.19-11.64-.11l.75-.21c-7.14 0-15.05.1-23.06.1 2.87.1 2.21.46-.14.5l-.94-.33c-1.52.21 2.46.13-.66.37-3 0-2-.37-.29-.47l-3.64.11c-.22-.1.64-.15.86-.27-1.49.2-6.28-.33-8.44 0l-.2-.09c-8 0-11.65.1-18.18.12-.12.28-2.67.22-4.62.45-4.79-.09-10.12-.31-15.9-.29-4.06.14-1.18.24-3 .41-.3-.26-6.07-.24-3.08-.42-6.93 0-8.85.05-17.62.26 1 .1 2 .15 1.46.24a11.52 11.52 0 0 1 -3.39-.23h.42c-2.55.1-5.31.1-8.12 0l-4.26-.1-2.13-.07h-.5-.17-.29v-.29a3.72 3.72 0 0 0 0-.5c0-.64 0-1.28 0-1.91q0-1.89.06-3.66c0-2.36 0-4.54-.14-6.43v.44l-.17-8.21c0-3.74.19 2.24.35-.53-.42-8.77.06-13.86-.22-21.08.76-5.59-.05-19.84.43-27.38l-.18.43a20.76 20.76 0 0 1 .14-3.79c-.13.2-.16 2.11-.25.9 0-2.49 0-5-.06-7.57l9.36.06 10.62.13 21.21.29c6.19 0 3.51-.92 11.32-.5l-2.22.33c12.51-.39 25.57 0 37.81-.32a9.51 9.51 0 0 1 -1.95.17 60.62 60.62 0 0 0 9.6-.18c1.91 0 .45.18 1.62.28 2.59.14 6.51-.31 7.89-.07.23 0-.73.08-1.21.1 1.69-.12 7.88 0 6.26-.25 4.59.13 8.78-.13 12.45 0 2.39-.31 7.86.15 8.62-.29-.33.45 8 .36 11 .15-1 .14 2.52.14 1.38.33 3.32 0 6.36-.09 5.78-.32 6.1.54 12.27-.44 15.71.26 9.85-.24 19-.41 27.81-.52-.32.46-9.79 0-9.41.52 8.41-.18 13.25-.57 21.58-.46 2.16.06-1.22.19-2 .27 8.39-.18 16.23 0 23.7-.2a11.37 11.37 0 0 1 -1.59.12c1.47 0 3.42.07 3.26-.14l-1.44.06c-2.35-.3 5.85-.63 6.11-.78-2.5.59 7.38.15 3.41.89 1 0 2.18-.14 2-.28 1.44 0 1.9.12.44.28 5.27-.11 3.4-.33 8.17-.32a11.51 11.51 0 0 1 -1.47.25 77.37 77.37 0 0 1 8.88-.3c-.24.06.23.13-1 .13 6.93 0 11.81-.51 19.42-.33-2.24.44 2.59.15 3 .52l4.09-.11-1.64-.18c3.58 0 6.75-.27 9.83-.15l-2.67.16 6.72-.07-3.8-.14c3.62-.2-.39-.48 4.38-.37-1 0 3.58 0 5.45.22a55.62 55.62 0 0 1 6.24-.15c.69.12-.55.41-.1.49 1.74-.31 8.39-.08 10.6-.42-.74.08-.78.28-.53.32l1.46-.25c1.66.08 1.91.12 1.64.27 5 .05-1.59-.47 4.34-.27-.47 0-.25.06-1.22.1 6 .11 11.5-.16 17 0 1.61.38-4.78.1-2.93.41 7.88-.07 16.32-.45 23.95-.36h-1.42c1.06-.53 5.68.26 9.54 0-.94 0-1.24.3-1 .24 5.22.08 10.68-.13 18.6-.3l-1 .14c3.08.12 8.11.07 11.44.13 1-.14 2.89-.12 1.73-.31 10.26.77 19.56-.42 28.66.23-1.09 0-2.59.11-1.72.11l7.75-.12a12.86 12.86 0 0 0 -2.65-.32 46.16 46.16 0 0 1 5.09-.24c-3.49.15 0 .37 1.54.5-.26-.07.26-.15.13-.22 4.05.41.68-.47 6.21-.19l-.29.12c2.06-.06 4-.22 6.2-.19.93.27-2.2.13-2.34.35 3.13 0 6.18-.51 9-.24l-4.58.15a49.36 49.36 0 0 0 5.74.28h-.22l5.3.14-1.35-.08c3.92-.7 8-.13 13.27-.58-5.14.43-.85.25-1.25.55l2.14.13c.39 0 .48.09.34.13a4.7 4.7 0 0 1 .51-.06 5.55 5.55 0 0 1 0 .71v1.42a28.22 28.22 0 0 0 .13 3.73c-.09.16 0 2.67-.25 2.11.08 3.24.17-.77.29-.5.33 5-.4 11.76.05 19 .19 6.21.52 7.35.68 13.11-.15 2-.35-1.59-.35-1.59-.14 3.14-.12 5.5 0 8.45-.08-.6-.15 0-.26.92 0 2.37.35 1.59.21 4.71a18.42 18.42 0 0 1 -.39-2.37c.12 2.8.23 5.56.36 8.45-.17.77-.26-1.74-.37-2.76.07 3.25.15 8.42.42 9.42l.1-2.08c0 1.18-.23.61-.28-.27-.21-2.78.09-4 .19-4.17l.06 2.06c.57-2.12-.09-8.28-.06-12.42l.42 1.72-.39-4.36c.11-.9.34-1.52.41.52.2-3-.15-2.63.08-5.18 0-.28.05-.16.07.11l-.13-2.91c.09.57.3-.48.24 1.3.24-5.21-.31-8.41 0-10.37v.44c-.14-7.24-.31-.7-.67-6.13l.76-3.65-.31-.71c0-.75 0-2.23.16-1.95-.21-2.78-.14.47-.33-1.14.28-3.59-.13-9.91.35-10.72-.23-1.29-.18 3.44-.34-.4a5.3 5.3 0 0 0 .22-2.1c0-.47 0-1-.06-1.55s0-1.24-.06-1.9c-.81 0-1.71 0-2.46 0 .83-.27 5.15-.13.88-.37-2.08.46-6.42-.1-9.21 0-.13.36-6 .15-10.66.27.29-.12-8.74-.2-13.06-.33l.13-.06c-.84.36-5.3.29-8.54.37.12-.22.71-.31 2.47-.4h-3.05a26.91 26.91 0 0 1 -3.65.22l.76-.28c-4.06 0-8.18.33-13.4.14-.29.26 4.16.72-1.37.89-.2-.14-.41-.38 1-.43-.48 0-1.69.11-2.65 0l2.21-.23c-2.38-.1-1.24.19-3.15.17 0-.19-1.4-.14-1.13-.29.48 0 1.66.08 2.39 0-2.15 0-4.74-.15-5.6-.3.19.11 0 .26-1.57.29-4.06 0-1.39-.24-3.76-.34-1 .14-3.57 0-3.64.29a6.63 6.63 0 0 1 -1.87-.22c-2.1.13-9.81 0-7.44.35h.53-.34c-6.89.29-14.31-.17-21.14-.05v-.09c-4.08.11-9.08.06-12 .28-1.2 0-2.85-.19-2.33-.3-3.12.07-3.47.18-8 0 3.13-.17-1.08-.15 3.21-.13a83 83 0 0 0 -9.32 0c1.48-.25-3.05-.32-5-.24l2.84.18c-2.16 0-4.06 0-6 0l1-.33c-8.29-.41-15 .69-21.27 0-2.19.23 4.5.16 2.54.44-3.81 0-7.79-.53-9-.53-5.23-.18-4.88.49-10.34.36.69.12 1.36.44-2.73.55-3.82 0-4.69-.5-2.28-.59a4.37 4.37 0 0 1 1.31.06c1.24 0 2.86-.09 1.35-.22l-.5.12c-1.89-.12-7.15-.11-5.91-.3-2.89.11-1.24.19.9.25-4.9-.17-7.65 0-12.69-.12.8.07 1.54.21.74.21-7.39-.15-3.25.22-8.26.27-2.85-.18 1-.43-4-.28-3.08-.12-.65-.31.57-.41-4.59.23-8.58-.15-11.21-.19l2.42-.1c-1.44.06-2.63.06-3.84.06l1.39.24a14 14 0 0 1 -2.6-.15c-1.47.16 1.12.4-1.79.61-1.89-.12-5.76.13-6.42-.18 6 .1-.66-.32 4.39-.37-1 0-2.16 0-3.59 0-.21 0 .2-.06.59-.08-5.7-.28-2.62.36-8.52.35.75-.18-1.37-.34-2.34-.3 2.38 0 1.14.3-1 .43-3.79-.14-4.12.1-6.1.09l2.26.06a42.84 42.84 0 0 1 -5.3.21c-.23-.13 2.4-.09 1.45-.15-2.93.31-6.62-.33-10.71-.11-1.89-.13-.18-.34-1.84-.42-4.59.23-5-.24-9.78-.05 1.39.24 1.63.18-1.76.41l7.91-.17-5.08.35c2.39 0 5-.15 6.48-.11-2.42.19-2.18.13-1 .33-3.27-.36-6.48.21-10.26 0l.11-.59c-5.68-.26-10.09.3-17.47.15l2.37.11c-1 .23-4.55 0-6.94.12.22-.19-1.27-.27-2.29-.39.12.15-5.4 0-6.07.38l-3.3-.26c-5.95-.1-6.8.57-12.52.5 1.72-.22-.88-.36 3-.51a19.9 19.9 0 0 0 -3.66.1c-1.12-.12-5.31.26-7.06.08a14.93 14.93 0 0 1 -3.22.27c-.23 0 0-.09 0-.09s-3.36.13-1.49.35c-5.89-.62-16.46 0-21.58-.49l-13 .15c.24-.06 0-.1.73-.08-5.23-.18-3.22.57-9.16.36-3-.32 3.16-.17 1.26-.29-.82-.65-7.17.09-11.18-.29h1c-3.06-.22-7.46.25-12.46.2 0 0 .25-.06 0-.1-3.41.33-9.88.44-14.69.53 1.49-.25 2.18-.13 1.27-.39-2.16 0 .63.42-3.67.49-1.4-.14-4.5-.26-4.91-.54h4c-2.08-.36-5.25 0-7.39 0l.28-.16c-6.22.05-6.31.44-13 .42l.69.11c-3.65.39-3.06-.21-6.7.08l-.95-.51c-2.41.1-8.44.38-12.76.46 2.45-.3 7.51-.45 10.63-.62-2.38 0-8.11 0-9.36.22 1 0 2.18-.13 3.13-.07a114.87 114.87 0 0 1 -11.55.46c.28-.25-1-.36-2.86-.41h-3.25l-4.45-.04v2.67c0 .6 0 1.17-.06 1.7a22 22 0 0 1 -.21 2.55c.28 8.42-.12 16.7-.08 26.51.6-3.48 0 2.87.63 2.26v3.36l-.38 6.95c-.18 1.64-.14-2.17-.28-2 0 5-.26 2.1-.42 5.41.22-.68.32 1.74.23 4.59l.28-4c.33 7-.51 6-.19 13.09l-.19-2.23c.11 3.62 0 13.34.49 16.89-.07.64-.24 1.48-.28-.11v6.22l4.09-.05 2.84-.06 5.59-.12c3.63-.07 7-.1 9.76 0l-.66.15a38.61 38.61 0 0 1 4.83-.13c-.11.06-.65.15.09.16s4.29-.26 6.42-.17l-1.82.16c8.43.2 12.94-.41 20-.51 0 .44 6.62.59 9.93.66l-.11.06c9.81.05 16.67-.37 25.76-.54 5.64.48 19.11.2 28.18.47-1.38-.08.23-.34 1.84-.39 2.13.09 5.88-.3 5.55.1h-.76c1.6.4 6 .29 9.39.3l.56-.52c8.94.76 23.41-.29 28.28.4 2.16-.13 4.83-.13 7-.26l-.12.28c6 .07 9 .11 16.34 0l-1.51.21c4.17 0 5.26-.82 9.1-.84l1.16.42c7.26 0 14.62.37 21.79 0-.11.06-.33.18-1.5.2 3.42 0 13.22.28 12-.3.09.38 7.5 0 11.42-.13l-.61.28a63 63 0 0 1 8-.55c1.1 0 1 .22-.49.15 3.65.15 2.84-.26 7.27-.11l-1.65.17a29.88 29.88 0 0 0 5.53-.28 42.83 42.83 0 0 1 7.68.33 21.41 21.41 0 0 1 4.78-.29c.3.09-.51.15-.92.18 6.29.19 9.35-.32 13.67-.05a1.49 1.49 0 0 0 .73.17c-5 0-9 0-8.64 0 0 .25 4 .3.83.65 3.23-.19 8.77-.61 12.7-.49a3.5 3.5 0 0 1 .52.09h-.41c.91 0 1.72 0 2.48-.05 1.26.05 2.05.08 3.26.08a61.73 61.73 0 0 0 6.63.13c-.16-.28 2.47-.24 0-.47a9.6 9.6 0 0 1 -1.71 0h-.86.14-5a30.76 30.76 0 0 1 5.47-.11c1-.18 2.17-.37 2.81-.45 2.75.39 8.05.6 8.79.84 6.14-.15 14.46-.1 18.32-.63a8.51 8.51 0 0 1 2.66.24c-1 0-2.21 0-2.76.12 3.49-.14 10.34-.06 11.18-.43 4.39.17-2.48.34 3.57.28l-.82.12c11.89.59 19.33-1 32.51-.19a9.06 9.06 0 0 1 -1.56-.13c15 .34 31-.31 45.8.22a48.68 48.68 0 0 0 7.24-.31l.92.3 4.39-.35c6.24-.25 10.8.74 18.7.26l-1-.2c2.84 0 9-.12 8.51.11a7.08 7.08 0 0 1 2-.1l.08.16 7-.28c5.4.12-.84.63 7 .66 2.93-.06 8.34-.46 7.24-.56a12.6 12.6 0 0 1 -3.11-.26l2.68-.08c.48-.47 2.54-.94-4-1.27l-4.59.28-1.47-.22h3.85a24.6 24.6 0 0 0 -5.12.11 8.64 8.64 0 0 0 -1.92-.25l-4.5.45c-.55-.19 2-.37-1-.47-2.11.21 2 .41-1.47.55a13.94 13.94 0 0 0 -4.13-.21c-.36-.12.19-.19 1.21-.24-2.3.14-6.07.06-7.25.3-2.28-.26-7.73.07-7.51-.37-.72.11-4 .35-6.13.36 3.84-.52-7.88 0-6.86-.59-2.85.47-10.28.21-15.32.47a7.76 7.76 0 0 1 1.28-.09c-2.83 0-3.66-.18-5.48-.27-.36.39-4.78.48-7.16.72-3.48-.37 2.11-.46 1-.82.17.32-6 .32-4.86.58a16.75 16.75 0 0 1 -3.66-.44c-.46.49-2.47.09-4.68.39-3.85-.24-1-.46-5.21-.31-2-.07 1.76-.24 1.76-.24zm-100.51.85h2.08zm-8.45 0h3.65c.3.09 0 .19-.88.19a17.88 17.88 0 0 0 -2.77-.19zm17.87 1.94a7.49 7.49 0 0 1 -2-.07h2.34.16a1.58 1.58 0 0 1 -.5.07z" fill="#4b4240"/><path d="m341.63 128.42h.55l-.8-.06-.47.09z" fill="#4b4240"/><path d="m437.91 45.38h-.18a2.78 2.78 0 0 1 .37 0z" fill="#4b4240"/><path d="m204.72 126.31.01.07.74-.06z" fill="#4b4240"/><path d="m484.43 46.35a3.65 3.65 0 0 0 .61.07 3.34 3.34 0 0 0 -.61-.07z" fill="#4b4240"/><path d="m504.52 46.41 2.84.1c-1.23-.06-2.12-.08-2.84-.1z" fill="#4b4240"/><path d="m520 46.55a.84.84 0 0 0 .3-.12z" fill="#4b4240"/><path d="m274.31 46.88h-.6c-1.39.12-.44.05.6 0z" fill="#4b4240"/><path d="m347.42 46.22-2.35.14a6.18 6.18 0 0 0 2.35-.14z" fill="#4b4240"/><path d="m341.67 46.35c1.3.06 2.39 0 3.4 0-1.07-.01-2.33-.04-3.4 0z" fill="#4b4240"/><path d="m523.21 108.65v.74s0 0 0 .09z" fill="#4b4240"/><path d="m523.25 109.48v.83a5.53 5.53 0 0 0 0-.83z" fill="#4b4240"/><path d="m523.35 112.05-.07-1.74a11.42 11.42 0 0 0 .07 1.74z" fill="#4b4240"/><path d="m523.34 88.19-.1-.23c.02.13.06.21.1.23z" fill="#4b4240"/><path d="m523.31 82c0 1.48-.21 3.72-.15 5.79l.08.19c-.15-.98.25-4.59.07-5.98z" fill="#4b4240"/><path d="m524.57 56-.08 5.2c.11-.91.26-2.1.28.26.33-6.52-.24 1.4-.2-5.46z" fill="#4b4240"/><path d="m518.18 45.16c2.79 0 0-.16.11-.22-1.77.06-2.2.12-.11.22z" fill="#4b4240"/><path d="m401.47 45.16.28-.26c-2.16.04-.02.1-.28.26z" fill="#4b4240"/><path d="m379.16 46.48 2.1.16.99-.23z" fill="#4b4240"/><path d="m365.98 44.66.94-.04-3.6.09z" fill="#4b4240"/><path d="m170 44.75.65.31c1.43-.06 1.73-.41-.65-.31z" fill="#4b4240"/><path d="m85.35 45.07a22.79 22.79 0 0 0 -4.77-.1c1.9.03 3.8.14 4.77.1z" fill="#4b4240"/><path d="m182.28 128.83-1.7.11 3.2-.09z" fill="#4b4240"/><path d="m232.56 97c0 2.59-.61 3.82-2.26 4.54s-4.25.82-8 .82a17.88 17.88 0 0 0 -1.8-4.49c2.52.14 5.55.1 6.34.1s1.15-.29 1.15-1v-5.27h-15.37a19.31 19.31 0 0 1 -6.08 10.76 17 17 0 0 0 -3.31-3.09c5.43-4.65 5.94-11.52 5.94-17v-11.84h23.39zm-4.56-9.44v-4.39h-14.41c0 1.37-.1 2.88-.25 4.39zm-14.41-12.85v4.39h14.41v-4.39z"/><path d="m272.24 97.71c2.41 0 2.84-.61 3.13-4.18a12.23 12.23 0 0 0 4.14 1.55c-.61 5.22-2 6.55-7 6.55h-9.11c-6 0-7.71-1.22-7.71-5.5v-4.9a67.64 67.64 0 0 1 -7.05 3.24 33.55 33.55 0 0 0 -3.1-3.78 63.32 63.32 0 0 0 13-6.12h-12v-4h11.37v-3.52h-8.13v-3.89h8.13v-4.35h4.32v4.35h7.85v2a40.83 40.83 0 0 0 3.85-4.86l4.1 2a55.2 55.2 0 0 1 -7.23 8.35h8.38v4h-13a65.17 65.17 0 0 1 -5.86 4.07h14.65v3.82h-14.76v3.63c0 1.4.51 1.62 3.42 1.62zm-8.1-17.1a48.45 48.45 0 0 0 4.07-3.56h-6.38v3.56z"/><path d="m321.59 98.61v2.77h-32.59v-2.77h4.07a14.79 14.79 0 0 0 -1.91-2c2.34-.82 4.32-2.15 5.15-3.85l3 .58a8.89 8.89 0 0 1 -.65 1.22 20.63 20.63 0 0 1 3.7 2l-1.36 2h2.08v-6h-12.08v-2.62h28.61v2.66h-12.45v6h2.12a12.13 12.13 0 0 0 -1.8-2c2.16-.83 3.78-2.09 4.36-3.85l3.09.43a5.19 5.19 0 0 1 -.5 1.15 27.77 27.77 0 0 1 4.61 2.2l-1.26 2.12zm-27.89-18.25h-4.14v-6.26h13.57v-1.48h-11.81v-2.62h28.15v2.59h-12.13v1.51h14v6.26h-4.34v-3.78h-2l1.19 1.58a40.73 40.73 0 0 1 -5.32 1.55 39.84 39.84 0 0 1 6.26 1.44l-.58 1.95h3.24v5.83h-8.79v-5.83h4.71a58.68 58.68 0 0 0 -7.55-1.77l.64-1.9.76.1-.83-1.29a49.4 49.4 0 0 0 5.27-1.66h-6.66v5.47h-4.21v-5.47h-7.06a34.9 34.9 0 0 1 5.65 1.55l-.83 1.69 1.3-.18.14 1.87c-2.55.58-5.07 1.08-7.34 1.55h4.54v5.83h-8.61v-5.83h3.53l-.83-2.2c1.88-.21 4.25-.57 6.73-1a52.67 52.67 0 0 0 -5.61-1.59l.86-1.69h-1.9zm6.91 18.25a22.1 22.1 0 0 0 -3.67-2.12 14.65 14.65 0 0 1 -3.21 2.12zm-4.14-13.61h-2.63v1.91h2.63zm4.46-1.9h8.71v5.83h-8.71zm2.88 3.9h2.74v-2h-2.74zm13.46 11.66a24.15 24.15 0 0 0 -4.27-2.21 11.47 11.47 0 0 1 -3 2.16zm-.54-13.66h-2.84v2h2.84z"/><path d="m337.47 73.67a25.14 25.14 0 0 1 -3.6 3.67 26.81 26.81 0 0 0 -2.87-2.92 18 18 0 0 0 5.29-5.9l3.78 1.15a12.88 12.88 0 0 1 -.76 1.33h8v2.67h-4.54a19.75 19.75 0 0 1 2.34 2.19l-3.38 1.73a15.52 15.52 0 0 0 -2.92-3l2-1zm25.67 13.6a28 28 0 0 1 -4.83 9.07c.65 1.26 1.37 2 2.16 2 .61 0 .87-.83 1-3.24a10.13 10.13 0 0 0 3 1.87c-.54 4.14-1.65 5.18-4.32 5.18-1.9 0-3.38-1.08-4.6-3a29.4 29.4 0 0 1 -4.83 3.39 12.49 12.49 0 0 0 -1.9-2.27c-6.12.5-12.39 1-16.92 1.26l-.43-3.1c1.65-.07 3.67-.18 5.83-.29v-1.47h-4.9v-2.27h4.93v-1.4h-4.11v-2.09h4.11v-1.3h-4.43v-2.19h4.43v-1.52h-6v-2.9h3.1a13.48 13.48 0 0 0 -2-2 7 7 0 0 0 4.43-4.72l3.2.43a11 11 0 0 1 -.54 1.59 23.42 23.42 0 0 1 2.7 2.62 6.45 6.45 0 0 0 3.38-4.46l3.17.4a13.1 13.1 0 0 1 -.5 1.65 17.6 17.6 0 0 1 2.95 3l-2 1.47h2.55c-.1-1.87-.18-3.81-.21-5.79h4c0 2 0 3.92.15 5.79h8.49v3h-8.2a51.57 51.57 0 0 0 1 6.34 22.54 22.54 0 0 0 2.81-5.87zm-23.4-4.27a14.77 14.77 0 0 0 -1.84-2.12 12.79 12.79 0 0 1 -2.66 2.12zm.39 0h3.6c-.43-.5-1-1.11-1.54-1.58zm.58 15 2.12-.1v-12h-2.12zm7.67-15a22.43 22.43 0 0 0 -1.62-1.8 10.76 10.76 0 0 1 -2 1.8zm2.19 15.62a20 20 0 0 0 3.43-2.82 45.58 45.58 0 0 1 -1.9-9.9h-5.87v1.44h4.35v2.24h-4.35v1.26h4.14v2.16h-4.14v1.26h4.71v2.27h-4.71v1.22l4.35-.25zm2.31-24.94a17.77 17.77 0 0 1 -3 3.49 23.29 23.29 0 0 0 -3.16-2.52 14.59 14.59 0 0 0 4.5-6.08l3.92 1c-.22.5-.43 1-.68 1.51h9.93v2.59h-6.05a12.32 12.32 0 0 1 2 2.12l-3.53 1.59a15 15 0 0 0 -2.3-2.63l2.49-1.12zm7 3.13a22.7 22.7 0 0 1 3.1 4l-3.17 1.72a19.42 19.42 0 0 0 -2.92-4.17z"/></svg>