<svg height="49.44" viewBox="0 0 369.14 49.44" width="369.14" xmlns="http://www.w3.org/2000/svg"><g fill="#e8b356" opacity=".2"><path d="m0 1.45h18.18v46.55h-18.18z"/><path d="m99.47 33.74-6.77 3.85v-36.14h18.18v46.55h-18.18l-54.7-31.71 6.77-3.93v35.64h-18.23v-46.55h18.18z"/><path d="m115.24 1.45h75.62v13.82h-75.62zm28.76 12.87h18.18v33.68h-18.18z"/><path d="m195.22 48v-46.55h56.21a43.77 43.77 0 0 1 11.88 1.49 17.07 17.07 0 0 1 8.37 5q3.09 3.48 3.09 9.52a13.51 13.51 0 0 1 -1.46 6.62 10.44 10.44 0 0 1 -4 4.07 19.24 19.24 0 0 1 -5.81 2.11 45.24 45.24 0 0 1 -6.84.8l-5.31-1a109.38 109.38 0 0 1 13.35.73q4.68.64 6.54 2.36a6.32 6.32 0 0 1 1.85 4.85v10h-18.17v-7.79a5.48 5.48 0 0 0 -.84-3.31c-.56-.75-1.77-1.27-3.64-1.56a61.25 61.25 0 0 0 -8.61-.44h-28.43v13.1zm18.18-25.24h38a8.28 8.28 0 0 0 3.7-.76 2.77 2.77 0 0 0 1.49-2.76 2.58 2.58 0 0 0 -1.49-2.58 8.74 8.74 0 0 0 -3.67-.69h-38z"/><path d="m325.15 49.44q-15.86 0-25.52-2.8t-14.07-8.29a21.11 21.11 0 0 1 -4.4-13.63 21.11 21.11 0 0 1 4.4-13.63q4.44-5.49 14.07-8.29t25.52-2.8q15.85 0 25.52 2.8t14.07 8.29a21.11 21.11 0 0 1 4.4 13.63 21.11 21.11 0 0 1 -4.4 13.63q-4.39 5.49-14.07 8.29t-25.52 2.8zm0-13.81a79.36 79.36 0 0 0 12.94-.91 18.42 18.42 0 0 0 8.44-3.27 8.09 8.09 0 0 0 3-6.73 8.06 8.06 0 0 0 -3-6.72 18.31 18.31 0 0 0 -8.44-3.28 80.5 80.5 0 0 0 -12.94-.91 84.07 84.07 0 0 0 -13.12.91 19.89 19.89 0 0 0 -8.8 3.28 7.87 7.87 0 0 0 -3.16 6.72 7.9 7.9 0 0 0 3.16 6.73 20 20 0 0 0 8.8 3.27 82.87 82.87 0 0 0 13.12.91z"/></g></svg>