<svg height="41.96" viewBox="0 0 181.25 41.96" width="181.25" xmlns="http://www.w3.org/2000/svg"><g fill="#ca954a"><path d="m15.94 29a77.22 77.22 0 0 1 6 9.56l-4.29 2.21c-.4-.93-1-2-1.68-3.23-9.77 2.46-11.45 2.92-12.47 3.54a14.36 14.36 0 0 0 -2.35-4.08 4.77 4.77 0 0 0 1.85-3.89v-19.39a37 37 0 0 0 -3-3.85 25.91 25.91 0 0 0 6.68-9.65l5.18 1.55c-.17.49-.4.93-.62 1.42h9.26v4.42h-6.73a26.48 26.48 0 0 1 3.14 3.15l-2.74 2.3h6.19v15.8h-12.53v5.93l5.67-1.24c-.57-.93-1.19-1.81-1.73-2.65zm-7.09-21.39a42.15 42.15 0 0 1 -4.11 5.45h7.61a37.3 37.3 0 0 0 -3.19-3.32l2.57-2.13zm6.6 9.39h-7.62v2.3h7.62zm0 7.92v-1.86h-7.62v1.86zm25.55-17.31h-7.4a26.83 26.83 0 0 1 2.74 2.79l-3.14 2.66h6.33v18.32c0 2.44-.4 3.77-2.13 4.56s-3.85.85-7.08.85a18.76 18.76 0 0 0 -1.5-4.79c2 .09 4.2.09 4.82 0s.89-.17.89-.75v-13.41h-6.91v24h-5v-27.28a31.49 31.49 0 0 0 -3.81-3.56 25.41 25.41 0 0 0 5.8-10.78l5.39 1.33c-.18.53-.36 1.11-.53 1.64h11.53zm-8.85 5.45a32.41 32.41 0 0 0 -3.46-3.63l2.21-1.82h-3.32a39.75 39.75 0 0 1 -3.19 5.45z"/><path d="m83.12 3.23v38.07h-5.66v-2.79h-19.66v2.88h-5.44v-38.16zm-25.32 5.31v9.52h19.66v-9.52zm19.66 24.66v-9.92h-19.66v9.92z"/><path d="m118.58 3c-.27.4-.54.8-.85 1.2 3.94 4.64 10.85 8.58 18.37 10.35a20.49 20.49 0 0 0 -3.76 5 38.28 38.28 0 0 1 -17.84-11.49 52.2 52.2 0 0 1 -18.06 12.08 27.9 27.9 0 0 0 -3.23-5.09c8.46-2.52 17-8.63 21.07-15zm-14.83 15.8h5.57v5c0 5.89-1 13.2-9.74 18.15a19.78 19.78 0 0 0 -4.42-3.95c7.75-4.11 8.59-9.73 8.59-14.34zm16.64-.09h5.61v23.2h-5.62z"/><path d="m154.6 28.2c-.09-.62-.22-1.37-.4-2.17-9.2 1.37-10.8 1.77-11.82 2.26a45.48 45.48 0 0 0 -1.68-4.74c1.15-.31 2.17-1.28 3.59-2.92a44.38 44.38 0 0 0 2.87-3.54c-3.45.4-4.47.66-5.13 1a39.38 39.38 0 0 0 -1.59-4.51 5.45 5.45 0 0 0 2.56-2.47 49.51 49.51 0 0 0 5.54-10.84l4.78 1.94a64.27 64.27 0 0 1 -6.32 10.67l3.23-.22c1.11-1.86 2.26-3.76 3.19-5.71l4.42 2.88a75.27 75.27 0 0 1 -9.47 12.83l4.78-.57c-.31-1.2-.71-2.3-1.06-3.37l3.8-1.23a67.47 67.47 0 0 1 2.84 9.25zm-7.83 2.17a48.61 48.61 0 0 1 -2 10.84 26.24 26.24 0 0 0 -4.16-1.46 37.82 37.82 0 0 0 1.81-10zm4.95-.84a87 87 0 0 1 1.28 9.47l-4.2.88a82.33 82.33 0 0 0 -1-9.65zm4.74-1.38a51.31 51.31 0 0 1 2.35 7.93l-4 1.41a55.51 55.51 0 0 0 -2.13-8.1zm24.79-25.54s0 1.37-.09 2c-.44 9.34-.93 13.24-2.12 14.61a4.26 4.26 0 0 1 -3.19 1.73 29.46 29.46 0 0 1 -5 .13 11.57 11.57 0 0 0 -1.37-4.82c1.64.13 3.14.17 3.94.17a1.6 1.6 0 0 0 1.37-.53c.58-.66 1-3 1.29-8.67h-5.67c-.8 6.28-2.79 11.68-9.25 15.09a13.83 13.83 0 0 0 -3.14-4c5.09-2.53 6.59-6.56 7.21-11.11h-6.77v-4.6zm-21.6 20.67h20.35v18.51h-5.45v-1.79h-9.74v2h-5.13zm5.13 4.61v7.48h9.74v-7.48z"/></g></svg>