<?xml version="1.0" encoding="UTF-8"?>
<svg id="_圖層_2" data-name="圖層 2" xmlns="http://www.w3.org/2000/svg" width="197.42" height="48.21" viewBox="0 0 197.42 48.21">
  <defs>
    <style>
      .cls-1 {
        fill: #e8b356;
      }

      .cls-2 {
        fill: #ca954a;
      }

      .cls-3 {
        opacity: .2;
      }
    </style>
  </defs>
  <g id="_圖層_2-2" data-name="圖層 2">
    <g>
      <path class="cls-2" d="M46.36,39.84c1.41,1.98,3.07,4.5,3.87,6.2l-2.78,1.43c-.26-.6-.66-1.32-1.09-2.09-6.31,1.55-7.4,1.86-8.06,2.27-.23-.75-1-2.07-1.52-2.64,.54-.4,1.2-1.23,1.2-2.52v-12.56c-.55-.8-1.43-1.95-1.95-2.5,1.75-1.52,3.41-3.9,4.33-6.25l3.36,1c-.11,.32-.26,.6-.4,.92h6v2.87h-4.36c.77,.66,1.58,1.46,2.04,2.04l-1.78,1.49h4.02v10.24h-8.12v3.84l3.67-.8c-.37-.6-.77-1.18-1.12-1.72l2.7-1.2Zm-4.59-13.88c-.83,1.32-1.75,2.5-2.67,3.53h4.93c-.6-.72-1.41-1.55-2.07-2.15l1.66-1.38h-1.86Zm4.27,6.08h-4.93v1.49h4.93v-1.49Zm0,5.13v-1.2h-4.93v1.2h4.93Zm16.55-11.22h-4.79c.69,.63,1.41,1.32,1.78,1.81l-2.04,1.72h4.1v11.88c0,1.58-.26,2.44-1.38,2.95-1.03,.52-2.5,.54-4.59,.54-.11-.92-.57-2.27-.98-3.13,1.29,.06,2.73,.06,3.13,.03,.43,0,.57-.11,.57-.49v-8.69h-4.48v15.52h-3.21V30.45c-.63-.69-1.78-1.81-2.5-2.32,1.64-1.66,3.04-4.3,3.76-6.97l3.47,.86c-.11,.34-.23,.72-.34,1.06h7.49v2.87Zm-5.74,3.53c-.57-.72-1.46-1.66-2.24-2.35l1.43-1.18h-2.15c-.63,1.32-1.35,2.5-2.07,3.53h5.02Z"/>
      <path class="cls-2" d="M91.06,23.11v24.67h-3.67v-1.81h-12.74v1.86h-3.53V23.11h19.94Zm-16.41,3.44v6.17h12.74v-6.17h-12.74Zm12.74,15.98v-6.43h-12.74v6.43h12.74Z"/>
      <path class="cls-2" d="M115.19,22.97c-.17,.26-.34,.52-.55,.77,2.55,3.01,7.03,5.57,11.91,6.71-.83,.75-1.95,2.24-2.44,3.21-4.59-1.38-8.63-4.04-11.56-7.43-3.16,3.3-7.49,6.2-11.7,7.83-.46-.95-1.32-2.38-2.09-3.3,5.48-1.64,11.02-5.59,13.65-9.75l2.78,1.95Zm-9.61,10.24h3.61v3.24c0,3.82-.63,8.55-6.31,11.76-.6-.8-1.95-1.98-2.87-2.55,5.02-2.67,5.56-6.31,5.56-9.29v-3.16Zm10.79-.06h3.64v15.03h-3.64v-15.03Z"/>
      <path class="cls-2" d="M139.7,39.29c-.06-.4-.14-.89-.26-1.41-5.97,.89-7,1.15-7.66,1.46-.17-.63-.72-2.21-1.09-3.07,.75-.2,1.41-.83,2.32-1.89,.34-.37,1.06-1.2,1.86-2.29-2.24,.26-2.9,.43-3.33,.63-.17-.63-.66-2.12-1.03-2.93,.57-.17,1.09-.72,1.66-1.58,.63-.8,2.52-4.02,3.59-7.03l3.1,1.26c-1.12,2.38-2.58,4.88-4.1,6.91l2.09-.14c.72-1.2,1.46-2.44,2.07-3.7l2.87,1.86c-1.72,2.93-3.87,5.88-6.14,8.32l3.1-.37c-.2-.77-.46-1.49-.69-2.18l2.47-.8c.75,1.92,1.52,4.48,1.84,6l-2.67,.95Zm-5.08,1.41c-.2,2.55-.66,5.28-1.26,7.03-.63-.32-1.98-.77-2.7-.95,.66-1.66,1-4.22,1.18-6.51l2.78,.43Zm3.21-.54c.37,1.95,.69,4.48,.8,6.14l-2.73,.57c-.03-1.66-.34-4.25-.66-6.25l2.58-.46Zm3.07-.89c.63,1.64,1.26,3.73,1.52,5.13l-2.61,.92c-.2-1.43-.83-3.59-1.38-5.25l2.47-.8Zm16.06-16.55s-.03,.89-.06,1.29c-.29,6.05-.6,8.58-1.38,9.47-.57,.75-1.18,1-2.07,1.12-.72,.11-1.95,.14-3.27,.09-.03-.98-.4-2.27-.89-3.13,1.06,.09,2.04,.11,2.55,.11,.37,0,.63-.06,.89-.34,.37-.43,.63-1.95,.83-5.62h-3.67c-.52,4.07-1.81,7.57-6,9.78-.4-.83-1.32-2.01-2.04-2.58,3.3-1.64,4.27-4.25,4.68-7.2h-4.39v-2.98h14.8Zm-14,13.4h13.17v11.99h-3.53v-1.18h-6.31v1.29h-3.33v-12.11Zm3.33,2.98v4.85h6.31v-4.85h-6.31Z"/>
    </g>
    <g class="cls-3">
      <g>
        <path class="cls-1" d="M0,.75H9.42V24.88H0V.75Z"/>
        <path class="cls-1" d="M53.08,17.49l-3.51,2V.75h9.42V24.88h-9.42L21.19,8.44l3.51-2.04V24.88H15.27V.75h9.42l28.39,16.74Z"/>
        <path class="cls-1" d="M62.77,.75h39.21V7.92H62.77V.75Zm14.89,6.67h9.42V24.88h-9.42V7.43Z"/>
        <path class="cls-1" d="M105.74,24.88V.75h29.14c2.29,0,4.34,.26,6.16,.77,1.82,.52,3.27,1.38,4.34,2.58,1.07,1.21,1.6,2.85,1.6,4.94,0,1.38-.25,2.53-.75,3.43-.5,.9-1.19,1.61-2.07,2.11-.88,.5-1.89,.87-3.02,1.09-1.13,.23-2.31,.36-3.54,.41l-2.75-.53c2.99,.03,5.3,.15,6.92,.38,1.62,.23,2.75,.64,3.39,1.23,.64,.59,.96,1.44,.96,2.54v5.16h-9.42v-4.03c0-.75-.15-1.33-.43-1.72-.29-.39-.92-.66-1.88-.81-.97-.15-2.46-.23-4.47-.23h-14.74v6.79h-9.42Zm9.42-13.08h19.72c.75,0,1.39-.13,1.9-.38,.51-.25,.77-.73,.77-1.43,0-.65-.26-1.1-.77-1.34-.52-.24-1.15-.36-1.9-.36h-19.72v3.51Z"/>
        <path class="cls-1" d="M174.62,25.63c-5.48,0-9.89-.48-13.23-1.45-3.34-.97-5.77-2.4-7.29-4.3-1.52-1.9-2.28-4.25-2.28-7.07s.76-5.17,2.28-7.07c1.52-1.9,3.95-3.33,7.29-4.3,3.34-.97,7.75-1.45,13.23-1.45s9.89,.48,13.23,1.45c3.34,.97,5.77,2.4,7.29,4.3,1.52,1.9,2.28,4.25,2.28,7.07s-.76,5.17-2.28,7.07c-1.52,1.9-3.95,3.33-7.29,4.3-3.34,.97-7.75,1.45-13.23,1.45Zm0-7.16c2.59,0,4.83-.16,6.71-.47,1.89-.31,3.34-.88,4.37-1.7,1.03-.82,1.55-1.98,1.55-3.49s-.52-2.67-1.55-3.49c-1.03-.82-2.49-1.38-4.37-1.7-1.89-.31-4.12-.47-6.71-.47s-4.86,.16-6.8,.47c-1.95,.31-3.47,.88-4.56,1.7-1.09,.82-1.64,1.98-1.64,3.49s.55,2.67,1.64,3.49c1.09,.82,2.61,1.38,4.56,1.7,1.95,.31,4.22,.47,6.8,.47Z"/>
      </g>
    </g>
  </g>
</svg>