<svg height="86.03" viewBox="0 0 1102.71 86.03" width="1102.71" xmlns="http://www.w3.org/2000/svg"><g fill="#e8b356"><g opacity=".2"><path d="m33 60.92-33-58.98h26l27.82 54.83-8.75.23 26.08-55h27.85l26.08 55-8.75-.19 27.81-54.87h25.62l-32.62 59h-31.14l-25.45-49.7h9l-25.41 49.68z"/><path d="m226.44 62.76q-20.08 0-32.35-3.55t-17.83-10.5q-5.58-7-5.58-17.28t5.58-17.28q5.58-7 17.83-10.51t32.35-3.55q20.1 0 32.35 3.55t17.83 10.51q5.58 7 5.58 17.28t-5.58 17.28q-5.56 7-17.83 10.5t-32.35 3.55zm0-17.51a101.13 101.13 0 0 0 16.41-1.15q6.9-1.16 10.69-4.15a10.23 10.23 0 0 0 3.78-8.52 10.25 10.25 0 0 0 -3.78-8.53q-3.78-3-10.69-4.15a102.27 102.27 0 0 0 -16.41-1.15 106.57 106.57 0 0 0 -16.63 1.15c-4.77.77-8.48 2.16-11.16 4.15a10 10 0 0 0 -4 8.53 10 10 0 0 0 4 8.52c2.68 2 6.39 3.38 11.16 4.15a105.36 105.36 0 0 0 16.63 1.15z"/><path d="m294.18 60.92v-59h71.24a55.83 55.83 0 0 1 15.07 1.88 21.62 21.62 0 0 1 10.6 6.32q3.91 4.45 3.91 12.09a17.11 17.11 0 0 1 -1.84 8.39 13.24 13.24 0 0 1 -5.07 5.16 24.31 24.31 0 0 1 -7.37 2.67 57 57 0 0 1 -8.66 1l-6.73-1.29a137.43 137.43 0 0 1 16.91.92c4 .55 6.73 1.55 8.29 3a8 8 0 0 1 2.35 6.22v12.64h-23v-9.86a7 7 0 0 0 -1.06-4.2c-.7-1-2.24-1.61-4.6-2a77.84 77.84 0 0 0 -10.92-.55h-36v16.61zm23-32h48.2a10.62 10.62 0 0 0 4.65-.92 3.53 3.53 0 0 0 1.97-3.49 3.28 3.28 0 0 0 -1.89-3.27 11.09 11.09 0 0 0 -4.65-.87h-48.2z"/><path d="m404.5 39.26h25.16q.64 1.93 3.78 3.27a32.7 32.7 0 0 0 8.43 2 96.36 96.36 0 0 0 12.3.69q6.91 0 10.92-.41a13.74 13.74 0 0 0 5.67-1.48 3.26 3.26 0 0 0 1.66-2.9c0-1.17-.89-2.07-2.67-2.72s-4.95-1.09-9.5-1.34-10.93-.37-19.17-.37a124.89 124.89 0 0 1 -15.89-.88 40.09 40.09 0 0 1 -11-2.77 14.5 14.5 0 0 1 -6.31-4.79 11.77 11.77 0 0 1 -2-7 15.34 15.34 0 0 1 4.75-11.56q4.74-4.48 14.37-6.74t24.1-2.26q21.19 0 32.4 6.13t11.2 17.65h-23.87q-.46-3-5.72-4.66t-14.93-1.61q-9.58 0-14.24 1.11t-4.65 3.78a2.53 2.53 0 0 0 1.29 2.21 12.4 12.4 0 0 0 4.47 1.33 75 75 0 0 0 9 .69q5.81.2 14.75.19a122.56 122.56 0 0 1 16.77 1 41.57 41.57 0 0 1 11.2 2.9 13.92 13.92 0 0 1 6.23 4.9 12.72 12.72 0 0 1 1.94 7.05 15.47 15.47 0 0 1 -4.43 11.43q-4.43 4.42-14 6.54t-25.07 2.12a118.9 118.9 0 0 1 -16.09-1 68.33 68.33 0 0 1 -13-3 36.59 36.59 0 0 1 -9.67-4.88 21.19 21.19 0 0 1 -6-6.54 16.05 16.05 0 0 1 -2.18-8.08z"/><path d="m505.05 1.94h23v59h-23zm19.72 20.36h64.88v17.51h-64.88zm62.3-20.36h23v59h-23z"/><path d="m624.4 1.94h23v59h-23z"/><path d="m683.1 45.71v-16.13h46a11.09 11.09 0 0 0 4.65-.87c1.26-.59 1.89-1.83 1.89-3.73s-.63-3.23-1.89-3.78a11.45 11.45 0 0 0 -4.65-.83h-44.52v40.55h-23v-59h64a82.44 82.44 0 0 1 12.94 1 32.4 32.4 0 0 1 10.48 3.44 18.07 18.07 0 0 1 7.09 7q2.58 4.52 2.58 11.62t-2.58 11.24a15.77 15.77 0 0 1 -7.09 6.17 34.46 34.46 0 0 1 -10.56 2.68 122.09 122.09 0 0 1 -12.94.64z"/><path d="m891.66 1.94v17.51h-69.85v7.83h57.13v15.72h-57.13v18h-23v-59z"/><path d="m885.21 60.92 39.54-59h25.62l39.91 59h-25.35l-34.19-52.81h13.73l-33.91 52.81zm20.65-8.92v-13.84h63v13.84z"/><path d="m1047 62.76q-20.1 0-32.35-3.55t-17.84-10.5q-5.57-7-5.57-17.28t5.57-17.28q5.58-7 17.84-10.51t32.35-3.55q20.08 0 32.35 3.55t17.83 10.51q5.56 7 5.57 17.28t-5.57 17.28q-5.58 7-17.83 10.5t-32.35 3.55zm0-17.51a101.08 101.08 0 0 0 16.4-1.15q6.92-1.16 10.69-4.15a10.23 10.23 0 0 0 3.78-8.52 10.25 10.25 0 0 0 -3.78-8.53q-3.78-3-10.69-4.15a102.22 102.22 0 0 0 -16.4-1.15 106.7 106.7 0 0 0 -16.64 1.15q-7.14 1.16-11.15 4.15a10 10 0 0 0 -4 8.53 10 10 0 0 0 4 8.52q4 3 11.15 4.15a105.49 105.49 0 0 0 16.64 1.15zm-11.1 11.75h22.1v22.35h-22.1z"/></g><path d="m484.65 61.53c-.2-.6-.5-1.25-.8-2-3.88.25-6.37.45-8 .65a51 51 0 0 0 14.67 5.82 22.13 22.13 0 0 0 -3.73 4.6 50 50 0 0 1 -20.79-11.82 38.09 38.09 0 0 1 -11.31 8.6c4.53-1.2 9.76-3.15 12.7-5.15l4.13 2.15c-4.13 3-10.45 5.55-15.63 7a22.56 22.56 0 0 0 -2.79-3.25 59.62 59.62 0 0 1 -6.87 2.75 26.91 26.91 0 0 0 -3.19-4.7 43.89 43.89 0 0 0 13.96-6.25c-7.22.5-8.66.75-9.65 1.15a41.58 41.58 0 0 0 -1.9-4.65 4 4 0 0 0 1.85-1.3 20.7 20.7 0 0 0 3-5.15l.15.05c-.3-1.1-1-3.2-1.54-4.45a12.55 12.55 0 0 0 3.29-1.25 41.73 41.73 0 0 0 8.56-5.4l5.18 2.55a57.81 57.81 0 0 1 -5.94 3.65l13-.3a43.3 43.3 0 0 0 -3.74-2.83l4.48-2.1a73.45 73.45 0 0 1 10.26 8.68l-4.73 2.3c-.5-.55-1.09-1.25-1.79-2-20.81.75-24.5.8-26.59 1.35l4.63 1.85a25.3 25.3 0 0 1 -2.89 3.9l3.59-.15a15.69 15.69 0 0 0 -1.1-2l4.23-1.2c.6 1.15 1.3 2.45 1.9 3.7a18.61 18.61 0 0 0 3.33-4.6l5.42 1.5c-.3.55-.65 1.05-.9 1.55a19.2 19.2 0 0 0 1.4 1.5v-.05a3.3 3.3 0 0 0 1.69-1.3 19.59 19.59 0 0 0 2.39-5l5.23 2.1a29.88 29.88 0 0 1 -2.39 3.7l4.18-.2c-.5-.75-1-1.45-1.49-2.1l4.08-1.6a29.39 29.39 0 0 1 4.81 7.8zm-1.84 12.55c-6.58 7-18 10.25-30.77 12a18.16 18.16 0 0 0 -2.64-4.75c11.9-1.15 23.1-3.9 28.63-9.5zm-5.81-5.08c-5.38 4.5-14 7.65-22.21 9.35a20 20 0 0 0 -2.93-4.2c7.61-1.25 16.28-3.8 20.71-7.35z"/><path d="m551.36 76.48h-9.51v9.52h-6v-9.5h-10.38v-5.9h10.41v-4.1h-8.42v-5.8h8.42v-4h-8.27v-5.77h8.27v-3.75h-9.66v-2.65a64.76 64.76 0 0 1 -7.52 2.1v6.75h6v5.62h-6v.65c0 1.9-.05 3.85-.15 5.8h6.57v5.8h-7.32a26.06 26.06 0 0 1 -7.56 14.75 28.28 28.28 0 0 0 -5.18-4 22.19 22.19 0 0 0 6.42-10.7h-6.48v-5.8h7.47c.15-2 .2-4 .2-5.9v-.6h-6.63v-5.62h6.63v-5.7c-2.24.35-4.39.6-6.48.8a22.12 22.12 0 0 0 -1.64-4.95c6.32-.8 13.34-2.2 17.82-4l3.84 4.75v-3h24.49v5.9h-8.86v3.75h7.67v5.75h-7.67v4h7.77v5.8h-7.77v4.1h9.51z"/><path d="m575 59.78v26.22h-5.88v-44.82h19v18.6zm0-14.05v2.7h7.61v-2.7zm7.61 9.55v-2.85h-7.61v2.85zm3 23.65v2.8h-5.52v-18.5h19.26v15.7zm0-10.8v5.87h8.22v-5.9zm25.45 10.75c0 3.3-.7 5-2.79 6s-5.18 1.12-9.76 1.12a21.58 21.58 0 0 0 -2-6.1c2.88.2 6.27.15 7.22.1s1.29-.3 1.29-1.2v-19h-13.48v-18.62h19.52zm-13.9-33.2v2.75h7.84v-2.75zm7.84 9.65v-2.9h-7.87v2.9z"/><path d="m656 53.13c-.35.5-.75.95-1.09 1.45a81.63 81.63 0 0 0 20.71 8.85 29.26 29.26 0 0 0 -4.08 5.2 69.56 69.56 0 0 1 -9.81-4.35v2.72h-20v-2a62.1 62.1 0 0 1 -9.81 4.35 23 23 0 0 0 -3.68-4.85c9.41-2.85 18.12-7.85 22.5-13.65l3.34 1.45a33.25 33.25 0 0 0 -4.13-3.85l.45-.4h-8.07a34.3 34.3 0 0 1 4.43 4.5l-4.33 3.7a34.55 34.55 0 0 0 -4.93-5.5l3.39-2.7h-3.14a41.44 41.44 0 0 1 -5.58 6.85 36.18 36.18 0 0 0 -3.88-5.1 29.57 29.57 0 0 0 7.57-10.9l5.77 1.75c-.3.75-.64 1.5-1 2.25h10.7v4.1a23.28 23.28 0 0 0 4.63-8.1l6 1.55c-.3.8-.6 1.6-1 2.4h13.19v5.15h-9.85a26.54 26.54 0 0 1 4.08 4.1l-4.23 3.65a33.72 33.72 0 0 0 -4.88-5.4l2.92-2.35h-3.89a23.86 23.86 0 0 1 -3.53 4.55zm-19.12 16.6h29.68v16.15h-5.93v-1.35h-18.11v1.47h-5.68zm5.68 5.1v4.55h18.07v-4.55zm15.33-12.7c-2.34-1.4-4.48-2.8-6.27-4.1a46.09 46.09 0 0 1 -5.13 4.1z"/></g></svg>