<svg height="86.23" viewBox="0 0 1039.31 86.23" width="1039.31" xmlns="http://www.w3.org/2000/svg"><g fill="#e8b356"><g opacity=".2"><path d="m33 60.92-33-58.98h26l27.82 54.83-8.75.23 26.08-55h27.85l26.08 55-8.75-.19 27.81-54.87h25.62l-32.62 59h-31.14l-25.45-49.7h9l-25.41 49.68z"/><path d="m226.44 62.76q-20.08 0-32.35-3.55t-17.83-10.5q-5.58-7-5.58-17.28t5.58-17.28q5.58-7 17.83-10.51t32.35-3.55q20.1 0 32.35 3.55t17.83 10.51q5.58 7 5.58 17.28t-5.58 17.28q-5.56 7-17.83 10.5t-32.35 3.55zm0-17.51a101.13 101.13 0 0 0 16.41-1.15q6.9-1.16 10.69-4.15a10.23 10.23 0 0 0 3.78-8.52 10.25 10.25 0 0 0 -3.78-8.53q-3.78-3-10.69-4.15a102.27 102.27 0 0 0 -16.41-1.15 106.57 106.57 0 0 0 -16.63 1.15c-4.77.77-8.48 2.16-11.16 4.15a10 10 0 0 0 -4 8.53 10 10 0 0 0 4 8.52c2.68 2 6.39 3.38 11.16 4.15a105.36 105.36 0 0 0 16.63 1.15z"/><path d="m294.18 60.92v-59h71.24a55.83 55.83 0 0 1 15.07 1.88 21.62 21.62 0 0 1 10.6 6.32q3.91 4.45 3.91 12.09a17.11 17.11 0 0 1 -1.84 8.39 13.24 13.24 0 0 1 -5.07 5.16 24.31 24.31 0 0 1 -7.37 2.67 57 57 0 0 1 -8.66 1l-6.73-1.29a137.43 137.43 0 0 1 16.91.92c4 .55 6.73 1.55 8.29 3a8 8 0 0 1 2.35 6.22v12.64h-23v-9.86a7 7 0 0 0 -1.06-4.2c-.7-1-2.24-1.61-4.6-2a77.84 77.84 0 0 0 -10.92-.55h-36v16.61zm23-32h48.2a10.62 10.62 0 0 0 4.65-.92 3.53 3.53 0 0 0 1.97-3.49 3.28 3.28 0 0 0 -1.89-3.27 11.09 11.09 0 0 0 -4.65-.87h-48.2z"/><path d="m404.5 39.26h25.16q.64 1.93 3.78 3.27a32.7 32.7 0 0 0 8.43 2 96.36 96.36 0 0 0 12.3.69q6.91 0 10.92-.41a13.74 13.74 0 0 0 5.67-1.48 3.26 3.26 0 0 0 1.66-2.9c0-1.17-.89-2.07-2.67-2.72s-4.95-1.09-9.5-1.34-10.93-.37-19.17-.37a124.89 124.89 0 0 1 -15.89-.88 40.09 40.09 0 0 1 -11-2.77 14.5 14.5 0 0 1 -6.31-4.79 11.77 11.77 0 0 1 -2-7 15.34 15.34 0 0 1 4.75-11.56q4.74-4.48 14.37-6.74t24.1-2.26q21.19 0 32.4 6.13t11.2 17.65h-23.87q-.46-3-5.72-4.66t-14.93-1.61q-9.58 0-14.24 1.11t-4.65 3.78a2.53 2.53 0 0 0 1.29 2.21 12.4 12.4 0 0 0 4.47 1.33 75 75 0 0 0 9 .69q5.81.2 14.75.19a122.56 122.56 0 0 1 16.77 1 41.57 41.57 0 0 1 11.2 2.9 13.92 13.92 0 0 1 6.23 4.9 12.72 12.72 0 0 1 1.94 7.05 15.47 15.47 0 0 1 -4.43 11.43q-4.43 4.42-14 6.54t-25.07 2.12a118.9 118.9 0 0 1 -16.09-1 68.33 68.33 0 0 1 -13-3 36.59 36.59 0 0 1 -9.67-4.88 21.19 21.19 0 0 1 -6-6.54 16.05 16.05 0 0 1 -2.18-8.08z"/><path d="m505 1.94h23.05v59h-23.05zm19.77 20.36h64.88v17.51h-64.88zm62.3-20.36h23v59h-23z"/><path d="m624.4 1.94h23v59h-23z"/><path d="m683.1 45.71v-16.13h46a11.14 11.14 0 0 0 4.66-.87c1.25-.59 1.88-1.83 1.88-3.73s-.63-3.23-1.88-3.78a11.5 11.5 0 0 0 -4.66-.83h-44.52v40.55h-23v-59h64a82.57 82.57 0 0 1 13 1 32.42 32.42 0 0 1 10.42 3.44 18.07 18.07 0 0 1 7.09 7q2.58 4.52 2.58 11.62t-2.58 11.24a15.77 15.77 0 0 1 -7.09 6.17 34.47 34.47 0 0 1 -10.55 2.68 122.28 122.28 0 0 1 -13 .64z"/><path d="m771.58 1.94h23v59h-23z"/><path d="m901.34 42.86-8.57 4.88v-45.8h23v59h-23l-69.4-40.18 8.57-5v45.16h-23v-59h23z"/><path d="m982.44 62.76a155 155 0 0 1 -22-1.43 60.61 60.61 0 0 1 -17.32-4.88 27.12 27.12 0 0 1 -11.32-9.45q-4-6-4-15.11t4.06-15.26a28.1 28.1 0 0 1 11.64-9.76 63.43 63.43 0 0 1 18.16-5.21 161.74 161.74 0 0 1 23.55-1.57q17 0 28.61 3.14t17.65 8.89a19.9 19.9 0 0 1 6.53 13.69h-24a11.46 11.46 0 0 0 -4-3.92 26.82 26.82 0 0 0 -8.85-3.09 83.6 83.6 0 0 0 -15.94-1.2 104.39 104.39 0 0 0 -19.21 1.4q-7.38 1.42-10.79 4.56a10.75 10.75 0 0 0 -3.41 8.3 9.32 9.32 0 0 0 3.51 7.46q3.49 3 11.24 4.43a114 114 0 0 0 20.46 1.47 134.12 134.12 0 0 0 15.53-.78 68.46 68.46 0 0 0 12-2.44 84.44 84.44 0 0 0 10.74-4.15l2.21 2.67a38.29 38.29 0 0 1 -17 16.5q-11.19 5.75-28.05 5.74zm38.8-1.84a31 31 0 0 1 .74-6.27q.74-3.49 1.89-7.32c.77-2.55 1.52-5 2.26-7.24h-36v-9.68h49.13v30.51z"/></g><path d="m428.56 71.33c-.85-1.3-2.24-3.15-3.64-4.85v19.45h-5.82v-18.3a43 43 0 0 1 -5.53 4.37 29.89 29.89 0 0 0 -2.24-6.1 35.28 35.28 0 0 0 12.67-12.9h-11.2v-5.37h8.51a34.42 34.42 0 0 0 -3.83-5.75l4.68-2.5a30.09 30.09 0 0 1 4.58 6.3l-3.29 2h3.74l1-.25 3.14 2.3a51.14 51.14 0 0 1 -5.73 10.45c2 1.8 5.63 5.25 6.57 6.25zm29.72-10.6h-5.57v25.1h-6.08v-25.1h-7.07c-.15 7.9-1.14 18.3-5.42 25.2a21.75 21.75 0 0 0 -5.38-3.2c4.38-7 4.73-17.1 4.73-24.35v-13.7c7-1.15 14.64-3.1 19.37-5.15l4.93 4.95a111.54 111.54 0 0 1 -18.23 4.7v5.82h18.72z"/><path d="m517.63 57.63a122.08 122.08 0 0 1 -9.46 9.55 36.62 36.62 0 0 0 12.3 9.1 25 25 0 0 0 -4.38 5.35c-6.88-3.6-12.2-9.45-16.24-16.7v13.7c0 3.55-.69 5.15-2.78 6.15s-5.28 1.22-9.71 1.22a24.83 24.83 0 0 0 -2-6.25c3 .15 6.12.1 7.12.1s1.29-.3 1.29-1.25v-7.7c-5.68 3.7-11.6 7.4-16.43 10.3l-3.78-5.4c4.78-2.45 12.84-6.9 20.21-11.15v-12h-18.71v-5.82h18.72v-7.45h6.07v7.45h9.91a75.58 75.58 0 0 0 -6.72-3.9l3.54-3.75a61.54 61.54 0 0 1 9.21 5.2l-2.19 2.45h5.4v5.75h-19.15v.6a47.19 47.19 0 0 0 5 9.65 70.73 70.73 0 0 0 7.55-8.83zm-33 9.45c-1.45-2.75-4.93-6.7-7.92-9.5l4.53-3.15c2.94 2.6 6.63 6.35 8.22 9z"/><path d="m555.66 53.13c-.15 2-.24 4-.49 6h21.36a24.33 24.33 0 0 1 -.2 2.6c-.9 13.55-2 19.1-4 21.25-1.49 1.65-3.08 2.1-5.32 2.35a69.72 69.72 0 0 1 -8.62 0 13 13 0 0 0 -2.09-5.85c3.39.35 6.87.4 8.37.4a3.47 3.47 0 0 0 2.44-.65c1.29-1.1 2.19-5.4 2.88-14.35h-15.67c-1.69 8.35-5.38 16.12-14.32 21.35a18.56 18.56 0 0 0 -4.33-5c12-6.35 12.89-17.6 13.39-28.15h-12.56v-5.8h21c-.8-2-2-4.45-3-6.45l5.82-2.2a56.18 56.18 0 0 1 3.59 7.15l-3.44 1.5h20.42v5.85z"/><path d="m629.2 53.58c1 14.6 4.08 26.15 7.72 26.15 1 0 1.64-2.65 1.89-9a15.72 15.72 0 0 0 5.18 3.5c-.9 9.45-2.89 11.75-7.62 11.75-8.51 0-12.25-14.8-13.44-32.4h-24.75v-5.8h24.45c-.1-2.7-.15-5.5-.15-8.25h6.37c-.05 2.75-.05 5.55 0 8.25h7.87a35.64 35.64 0 0 0 -5.83-5.25l3.94-3.25a37.44 37.44 0 0 1 6.52 5.55l-3.39 3h4.68v5.8zm-15.73 22.42c3-.55 6.22-1.15 9.26-1.75l.44 5.3c-8.16 1.8-16.92 3.65-23.35 5l-1.64-6c2.54-.4 5.83-.9 9.41-1.5v-12.05h-7.52v-5.72h21.36v5.72h-8z"/></g></svg>