<?xml version="1.0" encoding="UTF-8"?>
<svg id="_層_2" data-name="圖層 2" xmlns="http://www.w3.org/2000/svg" width="376.73" height="48.37" viewBox="0 0 376.73 48.37">
  <defs>
    <style>
      .cls-1 {
        fill: #e8b356;
      }

      .cls-2 {
        opacity: .18;
      }

      .cls-3 {
        fill: #ca954a;
      }
    </style>
  </defs>
  <g id="_層_1-2" data-name="圖層 1">
    <g>
      <path class="cls-3" d="M133.69,39.83c-.49-.75-1.29-1.81-2.09-2.78v11.16h-3.36v-10.5c-1.06,.95-2.09,1.81-3.18,2.5-.23-.98-.89-2.84-1.29-3.5,2.81-1.55,5.57-4.39,7.29-7.4h-6.45v-3.07h4.91c-.52-1.03-1.41-2.32-2.21-3.3l2.7-1.43c1.06,1.09,2.12,2.61,2.64,3.61l-1.89,1.12h2.15l.6-.14,1.81,1.32c-.83,2.09-1.98,4.13-3.3,6,1.15,1.03,3.24,3.01,3.79,3.59l-2.09,2.84Zm17.13-6.08h-3.21v14.4h-3.5v-14.4h-4.07c-.09,4.53-.66,10.5-3.13,14.46-.66-.57-2.24-1.55-3.1-1.84,2.52-4.02,2.73-9.81,2.73-13.97v-7.86c4.02-.66,8.43-1.78,11.16-2.96l2.84,2.84c-3.07,1.15-6.88,2.04-10.5,2.7v3.33h10.79v3.3Z"/>
      <path class="cls-3" d="M181,31.96c-1.66,1.86-3.7,3.93-5.45,5.48,2.01,2.21,4.39,4.04,7.09,5.22-.83,.72-1.95,2.09-2.52,3.07-3.96-2.07-7.03-5.42-9.35-9.58v7.86c0,2.04-.4,2.95-1.61,3.53-1.18,.6-3.04,.72-5.59,.69-.14-.98-.63-2.55-1.15-3.59,1.72,.09,3.53,.06,4.1,.06s.75-.17,.75-.72v-4.42c-3.27,2.12-6.68,4.25-9.47,5.91l-2.18-3.1c2.75-1.41,7.4-3.96,11.65-6.4v-6.91h-10.79v-3.3h10.79v-4.27h3.5v4.27h5.71c-1.18-.77-2.64-1.61-3.87-2.24l2.04-2.15c1.69,.77,4.07,2.07,5.31,2.98l-1.26,1.41h3.13v3.3h-11.04v.34c.75,1.92,1.69,3.79,2.9,5.54,1.52-1.55,3.24-3.47,4.33-5.08l3.01,2.09Zm-18.99,5.42c-.83-1.58-2.84-3.84-4.56-5.45l2.61-1.81c1.69,1.49,3.82,3.64,4.73,5.19l-2.78,2.07Z"/>
      <path class="cls-3" d="M198.9,29.38c-.09,1.15-.14,2.29-.29,3.44h12.31s-.03,1.03-.11,1.49c-.52,7.77-1.12,10.96-2.29,12.19-.86,.95-1.78,1.21-3.07,1.35-1.12,.11-3.01,.09-4.96,0-.06-.98-.55-2.41-1.21-3.36,1.95,.2,3.96,.23,4.82,.23,.63,0,1-.06,1.41-.37,.75-.63,1.26-3.1,1.66-8.23h-9.04c-.98,4.79-3.1,9.27-8.26,12.25-.52-.95-1.58-2.12-2.5-2.84,6.88-3.64,7.43-10.1,7.72-16.15h-7.23v-3.36h12.11c-.46-1.12-1.15-2.55-1.72-3.7l3.36-1.26c.77,1.29,1.64,3.01,2.07,4.1l-1.98,.86h11.76v3.36h-14.54Z"/>
      <path class="cls-3" d="M237.27,29.64c.6,8.38,2.35,15,4.45,15,.6,0,.95-1.52,1.09-5.16,.77,.8,2.04,1.66,2.98,2.01-.52,5.42-1.66,6.74-4.39,6.74-4.91,0-7.06-8.49-7.75-18.59h-14.26v-3.33h14.08c-.06-1.55-.09-3.16-.09-4.73h3.67c-.03,1.58-.03,3.18,.03,4.73h4.53c-.77-.98-2.21-2.15-3.36-3.01l2.27-1.86c1.29,.89,2.98,2.24,3.76,3.18l-1.95,1.69h2.7v3.33h-7.77Zm-9.07,12.88c1.75-.32,3.59-.66,5.34-1l.26,3.04c-4.71,1.03-9.75,2.09-13.45,2.87l-.95-3.44c1.46-.23,3.36-.52,5.42-.86v-6.91h-4.33v-3.3h12.31v3.3h-4.59v6.31Z"/>
    </g>
    <g class="cls-2">
      <g>
        <path class="cls-1" d="M16.38,30.25L0,.96H12.91l13.82,27.23-4.35,.09L35.33,.96h13.82l12.95,27.32-4.35-.09L71.58,.96h12.72l-16.2,29.29h-15.47L40,5.58h4.48l-12.63,24.67h-15.47Z"/>
        <path class="cls-1" d="M112.44,31.17c-6.65,0-12.01-.59-16.06-1.76-4.06-1.17-7.01-2.91-8.86-5.22-1.85-2.3-2.77-5.16-2.77-8.58s.92-6.28,2.77-8.58c1.85-2.3,4.8-4.04,8.86-5.22C100.44,.63,105.79,.05,112.44,.05s12,.59,16.06,1.76c4.06,1.17,7.01,2.91,8.86,5.22,1.85,2.3,2.77,5.16,2.77,8.58s-.92,6.28-2.77,8.58c-1.85,2.3-4.8,4.04-8.86,5.22-4.06,1.17-9.41,1.76-16.06,1.76Zm0-8.7c3.14,0,5.86-.19,8.15-.57,2.29-.38,4.06-1.07,5.31-2.06,1.25-.99,1.88-2.4,1.88-4.23s-.63-3.24-1.88-4.23c-1.25-.99-3.02-1.68-5.31-2.06-2.29-.38-5-.57-8.15-.57s-5.9,.19-8.26,.57c-2.36,.38-4.21,1.07-5.54,2.06-1.33,.99-1.99,2.4-1.99,4.23s.66,3.24,1.99,4.23,3.17,1.68,5.54,2.06c2.36,.38,5.12,.57,8.26,.57Z"/>
        <path class="cls-1" d="M146.08,30.25V.96h35.38c2.78,0,5.27,.31,7.48,.94,2.21,.62,3.96,1.67,5.26,3.13,1.29,1.46,1.94,3.46,1.94,6,0,1.68-.3,3.07-.91,4.16-.61,1.1-1.45,1.95-2.52,2.56-1.07,.61-2.29,1.05-3.66,1.33-1.37,.28-2.81,.44-4.3,.5l-3.34-.64c3.63,.03,6.43,.18,8.4,.46,1.97,.27,3.34,.77,4.12,1.49s1.17,1.75,1.17,3.09v6.27h-11.44v-4.9c0-.92-.18-1.61-.53-2.08-.35-.47-1.11-.8-2.29-.98-1.17-.18-2.98-.27-5.42-.27h-17.89v8.24h-11.44Zm11.44-15.88h23.94c.92,0,1.69-.15,2.31-.46,.62-.3,.94-.88,.94-1.74,0-.79-.31-1.33-.94-1.62-.63-.29-1.4-.44-2.31-.44h-23.94v4.26Z"/>
        <path class="cls-1" d="M200.86,19.5h12.49c.21,.64,.84,1.18,1.88,1.62s2.43,.78,4.19,1.01c1.75,.23,3.79,.34,6.11,.34s4.1-.07,5.42-.21c1.33-.14,2.27-.38,2.82-.73,.55-.35,.82-.83,.82-1.44,0-.58-.44-1.03-1.33-1.35s-2.46-.54-4.71-.66c-2.26-.12-5.43-.18-9.52-.18-3.05,0-5.68-.14-7.89-.43-2.21-.29-4.03-.75-5.45-1.37-1.42-.62-2.46-1.42-3.13-2.38s-1.01-2.11-1.01-3.46c0-2.32,.79-4.23,2.36-5.74,1.57-1.51,3.95-2.64,7.14-3.39,3.19-.75,7.18-1.12,11.97-1.12,7.02,0,12.38,1.01,16.09,3.04,3.71,2.03,5.56,4.95,5.56,8.76h-11.85c-.15-1.01-1.1-1.78-2.84-2.31s-4.21-.8-7.41-.8-5.53,.18-7.07,.55c-1.54,.37-2.31,.99-2.31,1.88,0,.46,.21,.82,.64,1.1s1.17,.5,2.22,.66,2.54,.28,4.46,.34c1.92,.06,4.36,.09,7.32,.09,3.26,0,6.04,.16,8.33,.48,2.29,.32,4.14,.8,5.56,1.44s2.45,1.46,3.09,2.45c.64,.99,.96,2.16,.96,3.5,0,2.32-.73,4.21-2.2,5.67-1.46,1.46-3.78,2.55-6.96,3.25-3.17,.7-7.32,1.05-12.45,1.05-2.9,0-5.56-.17-7.99-.5-2.43-.34-4.58-.83-6.48-1.49-1.89-.66-3.49-1.46-4.81-2.43-1.31-.96-2.31-2.04-3-3.25s-1.03-2.54-1.03-4Z"/>
        <path class="cls-1" d="M250.79,.96h11.44V30.25h-11.44V.96Zm9.79,10.11h32.22v8.7h-32.22V11.07ZM291.52,.96h11.44V30.25h-11.44V.96Z"/>
        <path class="cls-1" d="M310.05,.96h11.44V30.25h-11.44V.96Z"/>
        <path class="cls-1" d="M339.2,22.7V14.69h22.84c.92,0,1.69-.14,2.31-.44,.62-.29,.94-.91,.94-1.85s-.31-1.6-.94-1.88c-.63-.27-1.4-.41-2.31-.41h-22.1V30.25h-11.44V.96h31.76c2.29,0,4.43,.16,6.43,.48,2,.32,3.74,.89,5.24,1.72,1.5,.82,2.67,1.98,3.52,3.48,.85,1.5,1.28,3.42,1.28,5.77s-.43,4.21-1.28,5.58c-.85,1.37-2.03,2.4-3.52,3.07s-3.24,1.11-5.24,1.33c-2,.21-4.14,.32-6.43,.32h-21.05Z"/>
      </g>
    </g>
  </g>
</svg>