<svg viewBox="0 0 35.73 36.51" xmlns="http://www.w3.org/2000/svg"><path d="m6.9 4.88a21.76 21.76 0 0 1 -6.43 5.53l-.47-.41a28.51 28.51 0 0 0 5.54-9.88l4.6 1.6c-.19.43-.66.74-1.52.7a13.62 13.62 0 0 1 -.86 1.32h5.81l1.72-2.3s2 1.6 3.27 2.81a.92.92 0 0 1 -1 .63zm27.54 28.12c1.09 1.44 1.25 2.14.86 2.73-1.06 1.36-3.36.39-4.92-.75a14.63 14.63 0 0 1 -3.9-4.17 26.55 26.55 0 0 1 -9.2 5.7l-.39-.51a27.8 27.8 0 0 0 8.34-7.45 35 35 0 0 1 -2.57-10.92h-6.08v2.81h1.75l1.48-1.76a35.06 35.06 0 0 1 2.85 2.26c-.08.43-.47.63-1 .63h-5.1v2.53h2l1.44-1.75s1.71 1.29 2.81 2.26a.89.89 0 0 1 -1 .62h-5.23v2.7h2.34l1.48-1.8s1.75 1.29 2.88 2.3a.88.88 0 0 1 -1 .63h-5.7v1.67l6.24-.66.11.62c-4.09 1.21-9.93 2.7-18.45 4.61a1.5 1.5 0 0 1 -1 .89l-2.07-4c1.49-.08 3.71-.28 6.44-.55v-2.64h-4.85l-.35-1.13h5.19v-2.64h-4.64l-.35-1.13h5v-2.53h-4.85l-.35-1.13h5.19v-2.81h-5.93l-.31-1.13h20.94c-.15-2.3-.23-4.72-.27-7.26l4.64.47c0 .47-.39.9-1.29 1 0 2 0 3.87.16 5.74h3.82l2-2.5s2.26 1.76 3.63 3c-.12.43-.51.63-1.06.63h-8.31a33.79 33.79 0 0 0 1.52 7.64 30.66 30.66 0 0 0 2.88-6.86l4.49 1.71c-.19.47-.66.79-1.56.67a29.41 29.41 0 0 1 -4.45 7.56 12.36 12.36 0 0 0 3.2 3.51c.55.43.78.39 1.06-.23a26.81 26.81 0 0 0 1.52-3.9l.46.08zm-23.32-23.13a1.28 1.28 0 0 1 -1.49.62 9.86 9.86 0 0 1 -.63 1.09c4.68 1.25 2.65 5.07.43 3.51a5.64 5.64 0 0 0 -1.28-2.49 12.86 12.86 0 0 1 -4.91 3.59l-.47-.43a15.28 15.28 0 0 0 4.23-7.49zm-1.68-4.49c6.78.47 4.17 5.31 1.6 3.47a5.42 5.42 0 0 0 -2-3.19zm4.05 12.25h-2.57v13.69l2.57-.27zm6.4-7.88c-.16.47-.62.78-1.44.7-.24.47-.51.9-.78 1.33 5.85.82 4.29 5.38 1.83 4a7.55 7.55 0 0 0 -2.5-3.14 12.23 12.23 0 0 1 -4.71 3.55l-.47-.47a14.78 14.78 0 0 0 4-7.45zm12.25-8.62s2.22 1.76 3.59 3c-.12.43-.51.63-1.06.63h-12.24a17.91 17.91 0 0 1 -4.8 3.74l-.51-.43a22.85 22.85 0 0 0 3.98-8.07l4.64 1.83a1.4 1.4 0 0 1 -1.52.67l-.82 1.17h6.75zm-7.69 4.29c7.18.31 4.49 5.46 1.76 3.59a6 6 0 0 0 -2.11-3.28zm2.89 4.58c6.71 1.84 3.7 6.44 1.37 4.33a8.6 8.6 0 0 0 -1.71-4.07z" fill="#302725"/></svg>