<?xml version="1.0" encoding="UTF-8"?>
<svg id="_圖層_2" data-name="圖層 2" xmlns="http://www.w3.org/2000/svg" width="371.44" height="80.85" viewBox="0 0 371.44 80.85">
  <defs>
    <style>
      .cls-1 {
        fill: #e8b356;
      }

      .cls-2 {
        fill: #ca954a;
      }

      .cls-3 {
        opacity: .2;
      }
    </style>
  </defs>
  <g id="_圖層_2-2" data-name=" 圖層 2">
    <g id="_圖層_2-2" data-name=" 圖層 2-2">
      <g>
        <g class="cls-3">
          <g>
            <path class="cls-1" d="M44.09,27.44V.83h31.34c2.46,0,4.67,.28,6.63,.85,1.96,.57,3.51,1.52,4.66,2.85,1.15,1.33,1.72,3.15,1.72,5.45,0,1.52-.27,2.79-.81,3.78-.54,1-1.28,1.77-2.23,2.33-.95,.55-2.03,.96-3.24,1.21-1.22,.25-2.49,.4-3.81,.46l-2.96-.58c3.22,.03,5.7,.17,7.44,.42,1.74,.25,2.96,.7,3.65,1.35s1.03,1.59,1.03,2.81v5.7h-10.14v-4.45c0-.83-.16-1.46-.47-1.89s-.99-.73-2.03-.89c-1.04-.17-2.64-.25-4.8-.25h-15.85v7.48h-10.14v-.02Zm10.15-14.43h21.2c.81,0,1.49-.14,2.05-.42,.55-.28,.83-.8,.83-1.58,0-.72-.28-1.21-.83-1.48-.55-.26-1.24-.39-2.05-.39h-21.2v3.87Z"/>
            <path class="cls-1" d="M104.17,16.21v3.33h30.81v7.9h-40.95V.83h40.87v7.9h-30.73v3.33h25.14v4.16h-25.14Z"/>
            <path class="cls-1" d="M187.49,16.34c-.14,2.63-1.07,4.84-2.8,6.61s-4.28,3.1-7.64,3.99-7.62,1.33-12.75,1.33c-3.92,0-7.43-.22-10.54-.64-3.11-.43-5.76-1.16-7.95-2.2s-3.87-2.46-5.03-4.26c-1.16-1.8-1.74-4.07-1.74-6.82s.58-5.04,1.74-6.88,2.84-3.31,5.03-4.41c2.19-1.09,4.84-1.88,7.95-2.35,3.11-.47,6.62-.71,10.54-.71,5.13,0,9.39,.48,12.77,1.43,3.38,.96,5.93,2.36,7.66,4.22,1.73,1.86,2.66,4.12,2.8,6.78h-10.54c-.32-.89-.92-1.67-1.78-2.35-.87-.68-2.16-1.21-3.89-1.6s-4.07-.58-7.01-.58c-3.46,0-6.27,.22-8.43,.64-2.16,.43-3.74,1.12-4.74,2.06-1,.94-1.5,2.19-1.5,3.74,0,1.41,.5,2.56,1.5,3.45,1,.89,2.58,1.54,4.74,1.95,2.16,.42,4.97,.62,8.43,.62,2.95,0,5.28-.18,6.99-.54,1.72-.36,3.01-.85,3.87-1.48,.86-.62,1.46-1.3,1.78-2.02h10.54v.02Z"/>
            <path class="cls-1" d="M202.93,16.21v3.33h30.81v7.9h-40.95V.83h40.87v7.9h-30.73v3.33h25.14v4.16h-25.14Z"/>
            <path class="cls-1" d="M279.68,19.29l-3.77,2.2V.83h10.14V27.44h-10.14l-30.53-18.12,3.77-2.24V27.44h-10.14V.83h10.14l30.53,18.46h0Z"/>
            <path class="cls-1" d="M290.09,.83h42.16v7.9h-42.16V.83Zm16.01,7.36h10.14V27.44h-10.14s0-19.25,0-19.25Z"/>
          </g>
        </g>
        <g class="cls-3">
          <g>
            <path class="cls-1" d="M0,68.65l17.39-26.61h11.27l17.55,26.61h-11.15l-15.04-23.82h6.04l-14.92,23.82H0Zm9.08-4.03v-6.24h27.73v6.24H9.08Z"/>
            <path class="cls-1" d="M95.07,57.56c-.14,2.63-1.07,4.84-2.8,6.61s-4.28,3.1-7.64,3.99-7.62,1.33-12.75,1.33c-3.92,0-7.43-.22-10.54-.64-3.11-.43-5.76-1.16-7.95-2.2s-3.87-2.46-5.03-4.26c-1.16-1.8-1.74-4.07-1.74-6.82s.58-5.04,1.74-6.88,2.84-3.31,5.03-4.41c2.19-1.09,4.84-1.88,7.95-2.35,3.11-.47,6.62-.71,10.54-.71,5.13,0,9.39,.48,12.77,1.43,3.38,.96,5.93,2.36,7.66,4.22s2.66,4.12,2.8,6.78h-10.54c-.32-.89-.92-1.67-1.78-2.35-.87-.68-2.16-1.21-3.89-1.6-1.73-.39-4.07-.58-7.01-.58-3.46,0-6.27,.22-8.43,.64-2.16,.43-3.74,1.12-4.74,2.06-1,.94-1.5,2.19-1.5,3.74,0,1.41,.5,2.56,1.5,3.45s2.58,1.54,4.74,1.95c2.16,.42,4.97,.62,8.43,.62,2.95,0,5.28-.18,6.99-.54,1.72-.36,3.01-.85,3.87-1.48,.86-.62,1.46-1.3,1.78-2.02h10.54v.02Z"/>
            <path class="cls-1" d="M97.95,42.05h42.16v7.9h-42.16v-7.9Zm16.01,7.36h10.14v19.25h-10.14v-19.25Z"/>
            <path class="cls-1" d="M144.77,42.05h10.14v26.61h-10.14v-26.61Z"/>
            <path class="cls-1" d="M174.89,68.65l-15.73-26.61h11.43l13.42,25.57h-4.14l13.42-25.57h11.27l-15.57,26.61h-14.1Z"/>
            <path class="cls-1" d="M208.83,42.05h10.14v26.61h-10.14v-26.61Z"/>
            <path class="cls-1" d="M223.62,42.05h42.16v7.9h-42.16v-7.9Zm16.01,7.36h10.14v19.25h-10.14v-19.25Z"/>
            <path class="cls-1" d="M270.45,42.05h10.14v26.61h-10.14v-26.61Z"/>
            <path class="cls-1" d="M297,57.43v3.33h30.81v7.9h-40.95v-26.61h40.87v7.9h-30.73v3.33h25.14v4.16h-25.14Z"/>
            <path class="cls-1" d="M331.66,58.89h11.07c.19,.58,.74,1.07,1.66,1.48,.92,.4,2.16,.71,3.71,.91,1.55,.21,3.36,.31,5.41,.31s3.63-.06,4.8-.19,2.01-.35,2.49-.67c.49-.32,.73-.75,.73-1.31,0-.53-.39-.94-1.18-1.23-.78-.29-2.18-.49-4.18-.6-2-.11-4.81-.17-8.43-.17-2.7,0-5.03-.13-6.99-.39s-3.57-.68-4.82-1.25c-1.26-.57-2.18-1.29-2.78-2.16-.59-.87-.89-1.92-.89-3.14,0-2.11,.7-3.85,2.09-5.22,1.39-1.37,3.5-2.4,6.32-3.08,2.82-.68,6.36-1.02,10.6-1.02,6.22,0,10.97,.92,14.25,2.76s4.93,4.5,4.93,7.96h-10.5c-.14-.91-.97-1.61-2.51-2.1-1.54-.48-3.73-.73-6.57-.73s-4.9,.17-6.26,.5c-1.36,.33-2.05,.9-2.05,1.7,0,.42,.19,.75,.57,1s1.03,.45,1.97,.6c.93,.15,2.25,.26,3.95,.31,1.7,.06,3.86,.08,6.49,.08,2.89,0,5.35,.15,7.38,.44,2.03,.29,3.67,.73,4.93,1.31,1.26,.58,2.17,1.32,2.74,2.22,.57,.9,.85,1.96,.85,3.18,0,2.11-.65,3.82-1.95,5.16-1.3,1.33-3.35,2.31-6.16,2.95s-6.49,.96-11.03,.96c-2.57,0-4.93-.15-7.07-.46-2.15-.31-4.06-.75-5.74-1.35s-3.09-1.33-4.26-2.2c-1.16-.87-2.05-1.86-2.66-2.95-.61-1.09-.91-2.31-.91-3.64v.03Z"/>
          </g>
        </g>
      </g>
      <g>
        <path class="cls-2" d="M134.24,67.18c-.63,2.78-1.58,5.59-2.7,7.8,.37,.26,.77,.57,1.32,.89,1.95,1.18,4.65,1.35,7.97,1.35s8.43-.29,11.62-.75c-.4,.92-.95,2.58-.98,3.5-2.41,.14-7.43,.34-10.76,.34-3.82,0-6.2-.32-8.29-1.52-1.18-.66-2.21-1.61-2.78-1.61-.63,0-1.61,1.95-2.27,3.59l-2.27-3.27c1.18-1.46,2.47-2.55,3.56-3.04,.66-1.38,1.26-3.16,1.72-4.85h-3.84c.66-1.61,1.43-3.87,2.15-6.02h-3.04v-3.04h7.03c-.6,1.95-1.32,4.19-2.04,6.14h1.64l.49-.14,1.46,.63h0Zm-5.39-7.32c-.37-1.29-1.09-3.3-1.61-4.82l3.13-.92c.55,1.52,1.26,3.41,1.66,4.62l-3.18,1.12Zm10.76,5.16c-.23,3.56-1,7.63-2.98,10.47-.63-.6-2.12-1.69-2.95-2.07,2.35-3.36,2.58-8.2,2.58-11.7v-6.2c4.39-.14,9.32-.69,12.16-1.58l2.78,2.5c-3.18,1.03-7.49,1.58-11.47,1.81v3.61h11.99v3.16h-4.48v10.9h-3.5v-10.9h-4.13Z"/>
        <path class="cls-2" d="M163.76,75.01c-1,2.09-2.7,4.33-4.25,5.74-.63-.6-1.95-1.58-2.73-2.04,1.49-1.12,2.98-2.93,3.79-4.65l3.18,.95h.01Zm7.34-1.15h-14.09v-2.98h2.58v-10.64h-2.24v-2.98h2.24v-3.04h3.07v3.04h3.56v-3.04h3.13v3.04h1.95v2.98h-1.95v10.64h1.75v2.98h0Zm-8.43-13.63v1.66h3.56v-1.66h-3.56Zm0,6.08h3.56v-1.81h-3.56v1.81Zm0,4.56h3.56v-1.95h-3.56v1.95Zm20.22,6c0,1.69-.32,2.58-1.32,3.13s-2.47,.63-4.59,.6c-.11-.89-.55-2.38-.98-3.24,1.23,.09,2.61,.06,3.01,.06,.43,0,.57-.14,.57-.6v-5.65h-4.36c-.32,3.39-1.03,6.97-2.58,9.55-.55-.6-1.95-1.64-2.7-1.92,.09-.17,.2-.32,.29-.49l-2.38,1.35c-.57-1.12-1.95-3.01-3.07-4.33l2.58-1.41c1.03,1.15,2.38,2.73,3.1,3.9,1.66-3.59,1.81-8.43,1.81-12.16v-10.53h10.61v21.74h.01Zm-3.3-8.75v-3.53h-4.13v1.06c0,.75,0,1.58-.03,2.47h4.16Zm-4.13-9.9v3.36h4.13v-3.36h-4.13Z"/>
        <path class="cls-2" d="M194.06,67.7c-1.18-.83-3.64-2.18-5.34-3.1l1.84-2.52c1.58,.77,4.13,2.01,5.39,2.78l-1.89,2.84Zm-4.93,10.33c1.52-2.15,3.73-5.71,5.45-9.04l2.5,2.29c-1.52,3.01-3.33,6.28-5.08,9.06l-2.87-2.32h0Zm6.17-18.15c-1.12-.86-3.56-2.21-5.22-3.16l1.92-2.47c1.61,.8,4.1,2.07,5.34,2.87l-2.04,2.75h0Zm12.71,5.6v3.61h5.85v11.45h-3.24v-1.03h-8.63v1.18h-3.07v-11.59h5.85v-3.61h-7.63v-3.27h7.63v-3.36c-1.89,.29-3.79,.49-5.59,.66-.11-.83-.57-2.15-.95-2.93,4.88-.49,10.24-1.43,13.4-2.7l2.64,2.7c-1.86,.72-3.99,1.26-6.25,1.69v3.93h7.29v3.27h-7.3Zm2.61,6.71h-8.63v4.22h8.63v-4.22Z"/>
        <path class="cls-2" d="M246.33,60.33s-.03,1.12-.03,1.52c-.26,11.73-.49,15.89-1.41,17.21-.66,.95-1.32,1.23-2.27,1.43-.86,.17-2.18,.14-3.56,.11-.06-.95-.43-2.32-1-3.27,1.26,.11,2.35,.14,2.9,.14,.43,0,.72-.11,.98-.49,.6-.77,.89-4.27,1.06-13.54h-2.58c-.37,7.69-1.69,13.6-6.51,17.41-.43-.69-1.26-1.64-2.01-2.27-4.13,.43-8.26,.86-11.36,1.12l-.4-2.87c1.61-.11,3.61-.26,5.82-.4v-1.72h-5.05v-2.41h5.05v-1.12h-4.93v-8.86h4.93v-1.12h-5.65v-2.47h5.65v-1.15c-1.66,.11-3.3,.2-4.85,.23-.11-.69-.43-1.75-.75-2.41,4.25-.23,9.21-.72,12.36-1.41l1.49,2.55c-1.52,.32-3.3,.57-5.16,.77v1.41h5.51v1.58h2.7c.03-1.89,.03-3.87,.03-6h3.27c0,2.09,0,4.1-.06,6h5.82v.03Zm-22.59,5.42h2.24v-1.26h-2.24v1.26Zm2.24,3.33v-1.29h-2.24v1.29h2.24Zm3.1,7.11c1.64-.11,3.33-.26,4.99-.4,2.24-3.1,2.93-7.2,3.13-12.34h-2.61v-2.24h-5.51v1.12h5.08v8.86h-5.08v1.12h5.19v2.41h-5.19v1.46h0Zm2.24-10.43v-1.26h-2.24v1.26h2.24Zm-2.24,2.04v1.29h2.24v-1.29h-2.24Z"/>
      </g>
    </g>
  </g>
</svg>