<svg xmlns="http://www.w3.org/2000/svg" width="1574.59" height="85.93" viewBox="0 0 1574.59 85.93">
  <defs>
    <style>
      .cls-1 {
        opacity: 0.2;
      }

      .cls-2 {
        fill: #e8b356;
      }

      .cls-3 {
        fill: #ca954a;
      }
    </style>
  </defs>
  <g id="圖層_2" data-name="圖層 2">
    <g id="圖層_2-2" data-name="圖層 2">
      <g class="cls-1">
        <g>
          <path class="cls-2" d="M0,62.62V2H73.23A57.13,57.13,0,0,1,88.72,3.93a22.29,22.29,0,0,1,10.9,6.49q4,4.55,4,12.41a17.6,17.6,0,0,1-1.9,8.62,13.51,13.51,0,0,1-5.21,5.31A25.23,25.23,0,0,1,89,39.51a57.5,57.5,0,0,1-8.9,1l-6.92-1.33a143.83,143.83,0,0,1,17.38,1q6.12.86,8.53,3.08a8.26,8.26,0,0,1,2.42,6.39v13H77.78V52.49a7.14,7.14,0,0,0-1.09-4.31q-1.08-1.47-4.73-2a80,80,0,0,0-11.23-.57h-37v17ZM23.69,29.75H73.23A10.9,10.9,0,0,0,78,28.8,3.63,3.63,0,0,0,80,25.2,3.37,3.37,0,0,0,78,21.84a11.38,11.38,0,0,0-4.79-.9H23.69Z"/>
          <path class="cls-2" d="M140.41,37v7.58h72v18H116.72V2h95.5V20H140.41v7.58h58.73V37Z"/>
          <path class="cls-2" d="M335.1,37.33a22.21,22.21,0,0,1-6.54,15.06q-6.06,6.06-17.86,9.1t-29.79,3a185.82,185.82,0,0,1-24.64-1.47,65,65,0,0,1-18.57-5A27.53,27.53,0,0,1,226,48.32q-4.08-6.16-4.08-15.54T226,17.1a28.32,28.32,0,0,1,11.74-10,63.41,63.41,0,0,1,18.57-5.35A168.85,168.85,0,0,1,280.91.09q18,0,29.84,3.27T328.66,13a23.36,23.36,0,0,1,6.53,15.44H310.56a12.17,12.17,0,0,0-4.17-5.35q-3-2.33-9.09-3.65a80.54,80.54,0,0,0-16.39-1.32,108.09,108.09,0,0,0-19.71,1.46q-7.58,1.47-11.08,4.69a11,11,0,0,0-3.51,8.53,9.9,9.9,0,0,0,3.51,7.86q3.49,3,11.08,4.46a111.4,111.4,0,0,0,19.71,1.42,85.41,85.41,0,0,0,16.34-1.23,24.57,24.57,0,0,0,9.05-3.37,12,12,0,0,0,4.17-4.59Z"/>
          <path class="cls-2" d="M371.19,37v7.58h72v18H347.51V2H443V20H371.19v7.58h58.74V37Z"/>
          <path class="cls-2" d="M550.54,44.05l-8.81,5V2h23.68V62.62H541.73l-71.34-41.3,8.81-5.12V62.62H455.51V2H479.2Z"/>
          <path class="cls-2" d="M574.89,2h98.53V20H574.89Zm37.42,16.77H636V62.62H612.31Z"/>
          <path class="cls-2" d="M706.57,62.62,747.22,2h26.34l41,60.63H788.52L753.38,8.34h14.11L732.63,62.62Zm21.23-9.19V39.22h64.8V53.43Z"/>
          <path class="cls-2" d="M928.74,37.33a22.21,22.21,0,0,1-6.54,15.06q-6.06,6.06-17.86,9.1t-29.79,3a185.55,185.55,0,0,1-24.63-1.47,64.8,64.8,0,0,1-18.57-5,27.5,27.5,0,0,1-11.75-9.71q-4.08-6.16-4.07-15.54T819.6,17.1a28.29,28.29,0,0,1,11.75-10,63.23,63.23,0,0,1,18.57-5.35A168.61,168.61,0,0,1,874.55.09q18,0,29.84,3.27T922.3,13a23.42,23.42,0,0,1,6.54,15.44H904.2A12.17,12.17,0,0,0,900,23.07q-3-2.33-9.09-3.65a80.47,80.47,0,0,0-16.39-1.32,108.09,108.09,0,0,0-19.71,1.46q-7.58,1.47-11.08,4.69a11,11,0,0,0-3.51,8.53,9.9,9.9,0,0,0,3.51,7.86q3.5,3,11.08,4.46a111.4,111.4,0,0,0,19.71,1.42,85.41,85.41,0,0,0,16.34-1.23,24.57,24.57,0,0,0,9.05-3.37,12,12,0,0,0,4.17-4.59Z"/>
          <path class="cls-2" d="M935.47,2H1034V20H935.47Zm37.42,16.77h23.69V62.62H972.89Z"/>
          <path class="cls-2" d="M1044.89,2h23.69V62.62h-23.69Z"/>
          <path class="cls-2" d="M1115.28,62.62,1078.52,2h26.72l31.36,58.27h-9.66L1158.3,2h26.33l-36.38,60.63Z"/>
          <path class="cls-2" d="M1194.58,2h23.69V62.62h-23.69Z"/>
          <path class="cls-2" d="M1229.16,2h98.53V20h-98.53Zm37.42,16.77h23.69V62.62h-23.69Z"/>
          <path class="cls-2" d="M1338.59,2h23.68V62.62h-23.68Z"/>
          <path class="cls-2" d="M1400.64,37v7.58h72v18H1377V2h95.49V20h-71.81v7.58h58.74V37Z"/>
          <path class="cls-2" d="M1481.64,40.36h25.87q.66,2,3.88,3.36a33.94,33.94,0,0,0,8.67,2.09,99.69,99.69,0,0,0,12.65.71q7.11,0,11.23-.43a14.21,14.21,0,0,0,5.82-1.51,3.38,3.38,0,0,0,1.71-3c0-1.2-.92-2.13-2.75-2.79s-5.08-1.12-9.76-1.38-11.24-.38-19.7-.38a128,128,0,0,1-16.35-.9,41.57,41.57,0,0,1-11.27-2.84,15,15,0,0,1-6.49-4.93,12.14,12.14,0,0,1-2.08-7.15,15.79,15.79,0,0,1,4.87-11.89q4.89-4.68,14.78-7T1527.5,0q21.8,0,33.3,6.3t11.51,18.14h-24.54c-.31-2.08-2.27-3.68-5.87-4.78S1533.18,18,1526.55,18s-11.45.38-14.64,1.14-4.78,2.05-4.78,3.88a2.6,2.6,0,0,0,1.33,2.28,13,13,0,0,0,4.59,1.37,78.54,78.54,0,0,0,9.24.71q6,.2,15.16.19a127.61,127.61,0,0,1,17.24,1,43,43,0,0,1,11.51,3,14.42,14.42,0,0,1,6.4,5.07,13.1,13.1,0,0,1,2,7.24A15.89,15.89,0,0,1,1570,55.61q-4.55,4.55-14.4,6.73t-25.77,2.18a121.82,121.82,0,0,1-16.53-1,70.57,70.57,0,0,1-13.41-3.08,37.64,37.64,0,0,1-10-5,21.77,21.77,0,0,1-6.2-6.73A16.36,16.36,0,0,1,1481.64,40.36Z"/>
        </g>
      </g>
      <g>
        <path class="cls-3" d="M681.62,61.61a62.45,62.45,0,0,1-4.8,13.87c.67.46,1.38,1,2.35,1.58,3.47,2.09,8.26,2.39,14.18,2.39A174,174,0,0,0,714,78.13a22,22,0,0,0-1.73,6.22c-4.29.26-13.21.61-19.13.61-6.78,0-11-.56-14.73-2.7-2.1-1.17-3.93-2.86-4.95-2.86s-2.86,3.47-4,6.38l-4-5.82a19,19,0,0,1,6.32-5.4,52.07,52.07,0,0,0,3.06-8.62H668c1.17-2.85,2.55-6.88,3.83-10.71h-5.41v-5.4h12.49c-1.07,3.46-2.34,7.44-3.62,10.91h2.91l.87-.26ZM672,48.6c-.66-2.29-1.94-5.86-2.85-8.56l5.55-1.64c1,2.71,2.25,6.07,3,8.21Zm19.12,9.18c-.4,6.33-1.78,13.57-5.3,18.62a25.36,25.36,0,0,0-5.25-3.68c4.18-6,4.59-14.58,4.59-20.8v-11c7.8-.25,16.57-1.22,21.62-2.8l5,4.43c-5.66,1.84-13.31,2.81-20.4,3.22v6.42h21.31v5.61h-7.95V77.16H698.5V57.78Z"/>
        <path class="cls-3" d="M738.18,75.53a36.11,36.11,0,0,1-7.55,10.2,34.08,34.08,0,0,0-4.84-3.62,23.73,23.73,0,0,0,6.73-8.26Zm13.05-2h-25V68.18h4.59V49.27h-4V44h4v-5.4h5.46V44h6.32v-5.4h5.56V44h3.47v5.31h-3.47V68.18h3.11Zm-15-24.22v2.95h6.32V49.27Zm0,10.81h6.32V56.86h-6.32Zm0,8.1h6.32V64.72h-6.32Zm36,10.66c0,3-.56,4.59-2.34,5.56s-4.39,1.12-8.16,1.07A22,22,0,0,0,760,79.71c2.19.15,4.64.1,5.36.1s1-.25,1-1.07v-10h-7.75c-.57,6-1.84,12.4-4.59,17a17.54,17.54,0,0,0-4.8-3.42c.16-.31.36-.56.51-.87l-4.23,2.4a50.32,50.32,0,0,0-5.46-7.7l4.59-2.5a54.17,54.17,0,0,1,5.51,6.94c3-6.38,3.21-15,3.21-21.63V40.19h18.87Zm-5.86-15.55V57H759V58.9c0,1.33,0,2.81-.05,4.39ZM759,45.7v6h7.35v-6Z"/>
        <path class="cls-3" d="M796.11,62.52c-2.09-1.47-6.47-3.87-9.48-5.5l3.26-4.49c2.81,1.38,7.35,3.57,9.59,4.95Zm-8.77,18.36A151.21,151.21,0,0,0,797,64.82l4.44,4.08c-2.7,5.35-5.92,11.17-9,16.11Zm11-32.28A107.36,107.36,0,0,0,789,43l3.42-4.38c2.86,1.43,7.29,3.67,9.49,5.1Zm22.59,9.95V65h10.4V85.32h-5.76V83.48H810.19v2.09h-5.46V65h10.4V58.55H801.57V52.73h13.56v-6c-3.36.51-6.73.86-9.94,1.17a21.34,21.34,0,0,0-1.68-5.2c8.67-.87,18.2-2.55,23.81-4.8l4.69,4.8a65.87,65.87,0,0,1-11.11,3v7h13v5.82Zm4.64,11.93H810.19V78h15.35Z"/>
        <path class="cls-3" d="M893.11,49.42s-.05,2-.05,2.7c-.46,20.86-.87,28.25-2.5,30.6a5.69,5.69,0,0,1-4,2.55,34.84,34.84,0,0,1-6.32.2,14.14,14.14,0,0,0-1.78-5.81c2.24.2,4.18.25,5.15.25a1.85,1.85,0,0,0,1.73-.86c1.07-1.38,1.58-7.6,1.89-24.07h-4.59c-.67,13.66-3,24.17-11.58,31a19.66,19.66,0,0,0-3.57-4c-7.34.77-14.69,1.53-20.19,2l-.72-5.1c2.86-.2,6.43-.46,10.36-.71V75h-9V70.73h9v-2h-8.78V53h8.78V51h-10V46.61h10v-2c-3,.21-5.87.36-8.62.41A19.25,19.25,0,0,0,847,40.7a158.87,158.87,0,0,0,22-2.5l2.65,4.54c-2.7.56-5.86,1-9.18,1.38v2.49h9.79v2.81H877c0-3.37,0-6.89,0-10.66h5.81c0,3.72,0,7.29-.1,10.66Zm-40.18,9.64h4V56.81h-4Zm4,5.91V62.68h-4V65Zm5.5,12.65c2.91-.21,5.92-.46,8.88-.72,4-5.5,5.2-12.79,5.55-21.92H872.2V51h-9.79v2h9V68.75h-9v2h9.23V75h-9.23Zm4-18.56V56.81h-4v2.25Zm-4,3.62V65h4V62.68Z"/>
      </g>
    </g>
  </g>
</svg>
