<?xml version="1.0" encoding="UTF-8"?>
<svg id="b" data-name="圖層 2" xmlns="http://www.w3.org/2000/svg" width="549.91" height="885.97" viewBox="0 0 549.91 885.97">
  <defs>
    <style>
      .d {
        fill-rule: evenodd;
      }

      .d, .e {
        fill: #fa7a18;
      }

      .f {
        fill: #900;
      }

      .g {
        fill: #db0000;
      }

      .h {
        fill: #ffbc00;
      }
    </style>
  </defs>
  <g id="c" data-name="說明">
    <g>
      <path class="g" d="M502.34,885.97H47.57C21.3,885.97,0,864.67,0,838.4V47.57C0,21.3,21.3,0,47.57,0H502.34c26.27,0,47.57,21.3,47.57,47.57V838.4c0,26.27-21.3,47.57-47.57,47.57Z"/>
      <path class="f" d="M530.83,130.34l-255.88,204.61L19.08,130.34C7.07,121.36,0,107.24,0,92.24V47.57C0,21.3,21.3,0,47.57,0H502.34c26.27,0,47.57,21.3,47.57,47.57v44.67c0,14.99-7.07,29.11-19.08,38.09Z"/>
      <path class="f" d="M502.34,885.97H47.57C21.3,885.97,0,864.67,0,838.4v-67.14H549.91v67.14c0,26.27-21.3,47.57-47.57,47.57Z"/>
      <circle class="h" cx="274.95" cy="300.06" r="102.71" transform="translate(-131.64 282.31) rotate(-45)"/>
      <path class="d" d="M293.6,230.46c-2.3-.59-4.43-2.29-5.63-4.33-2.54-4.36-6.28-8.39-13.02-8.45-4.71-.03-10.16,1.68-13.02,5.35-.21,.26-.3,.71,0,1.11,.57,.8,.7,1.54,.49,2.33-.37,1.4-1.9,2.17-3.26,2.88-.9,.47-1.85,.84-2.86,1.11-2.27,.64-4.98,.23-7.03-.93-4.38-2.49-9.64-4.12-15.49-.8-4.1,2.32-7.97,6.53-8.62,11.14-.04,.33,.11,.77,.56,.96,.9,.4,1.38,.98,1.59,1.77,.37,1.39-.56,2.82-1.38,4.11-.54,.85-1.17,1.67-1.92,2.39-1.65,1.71-4.2,2.7-6.55,2.72-5.05,.02-10.41,1.24-13.83,7.06-2.4,4.05-3.63,9.64-1.9,13.95,.13,.31,.48,.6,.98,.56,.97-.11,1.67,.14,2.26,.72,1.02,1.04,.92,2.73,.86,4.27-.03,1.01-.19,2.02-.46,3.03-.58,2.3-2.29,4.44-4.32,5.63-4.36,2.54-8.4,6.29-8.45,13.02-.03,4.71,1.68,10.17,5.35,13.03,.26,.2,.72,.28,1.11,0,.81-.58,1.54-.71,2.33-.5,1.4,.37,2.17,1.9,2.89,3.26,.47,.9,.85,1.86,1.11,2.86,.65,2.28,.24,4.98-.93,7.03-2.49,4.38-4.11,9.64-.8,15.5,2.31,4.1,6.53,7.96,11.14,8.6,.33,.05,.76-.11,.96-.56,.41-.9,.98-1.37,1.77-1.59,1.4-.37,2.82,.56,4.11,1.38,.86,.54,1.67,1.19,2.39,1.92,1.71,1.66,2.7,4.2,2.72,6.56,.02,5.04,1.24,10.4,7.06,13.83,4.05,2.38,9.63,3.62,13.95,1.89,.31-.13,.6-.48,.56-.96-.11-.99,.14-1.69,.72-2.26,1.03-1.03,2.74-.93,4.27-.87,1.01,.03,2.02,.19,3.03,.46,2.31,.58,4.43,2.29,5.63,4.32,2.53,4.36,6.29,8.4,13.02,8.45,4.71,.04,10.16-1.68,13.03-5.33,.2-.26,.29-.73,0-1.12-.58-.8-.71-1.54-.5-2.32,.38-1.41,1.9-2.16,3.26-2.88,.91-.48,1.87-.86,2.86-1.12,2.3-.66,5-.23,7.03,.93,4.38,2.51,9.64,4.13,15.51,.8,4.1-2.31,7.96-6.53,8.61-11.14,.04-.33-.11-.76-.56-.96-.9-.41-1.37-.97-1.59-1.76-.37-1.41,.56-2.83,1.38-4.13,.54-.85,1.19-1.67,1.93-2.39,1.66-1.71,4.2-2.7,6.56-2.71,5.04-.03,10.4-1.25,13.83-7.05,2.38-4.06,3.62-9.65,1.89-13.96-.13-.3-.49-.6-.97-.55-.99,.1-1.69-.16-2.26-.74-1.03-1.02-.93-2.72-.87-4.26,.04-1.01,.19-2.03,.46-3.04,.58-2.31,2.29-4.44,4.33-5.63,4.35-2.53,8.39-6.28,8.45-13.02,.05-4.71-1.68-10.16-5.34-13.02-.26-.21-.72-.3-1.12,0-.8,.57-1.54,.7-2.33,.49-1.4-.37-2.16-1.9-2.87-3.26-.47-.9-.86-1.85-1.12-2.86-.65-2.28-.23-4.98,.93-7.03,2.5-4.38,4.13-9.64,.8-15.5-2.32-4.1-6.53-7.97-11.14-8.61-.33-.05-.75,.11-.97,.56-.4,.9-.97,1.38-1.75,1.59-1.41,.37-2.83-.56-4.13-1.38-.85-.54-1.67-1.18-2.39-1.92-1.71-1.65-2.7-4.2-2.71-6.56-.03-5.05-1.25-10.41-7.06-13.82-4.06-2.39-9.65-3.63-13.96-1.9-.3,.13-.6,.49-.55,.98,.1,.98-.15,1.68-.73,2.26-1.02,1.02-2.72,.92-4.26,.85-1.01-.03-2.03-.19-3.04-.46h0Zm-2.02,7.47c5.56,1.52,10.67,3.65,15.51,6.44,4.85,2.8,9.48,6.37,13.31,10.22,3.98,4,7.4,8.41,10.23,13.31,2.8,4.85,5.04,10.26,6.43,15.51,1.45,5.47,2.19,11,2.19,16.65s-.77,11.39-2.19,16.64c-1.47,5.45-3.6,10.61-6.43,15.51-2.79,4.85-6.37,9.48-10.21,13.31-4.01,3.98-8.42,7.41-13.32,10.23-4.84,2.8-10.25,5.04-15.51,6.43-5.45,1.45-10.99,2.19-16.64,2.19s-11.4-.76-16.65-2.17c-5.46-1.48-10.61-3.61-15.51-6.44-4.85-2.78-9.48-6.37-13.31-10.21-3.98-4.02-7.4-8.43-10.23-13.32-2.8-4.84-5.04-10.25-6.44-15.51-1.43-5.45-2.17-10.98-2.17-16.64s.75-11.4,2.17-16.64c1.48-5.46,3.61-10.62,6.44-15.51,2.8-4.85,6.37-9.48,10.22-13.32,4.01-3.99,8.42-7.39,13.31-10.22,4.85-2.79,10.25-5.04,15.51-6.44,5.47-1.44,11-2.17,16.65-2.17s11.27,.73,16.63,2.17h0Z"/>
      <g>
        <path class="e" d="M323.26,330.48c-.45,.06-.9,.16-1.33,.25-2.62,.55-5.82,1.49-8.71,1.81-7.64,.86-14.26,1.37-23.58,.48-8.6-.83-13.4-1.77-25.84-6.22-3.2-1.14-5.92-1.7-9.5-2.99-2.63-.86-5.67-1.63-7.25-1.87-.66-.1-3.48-.39-4.22-.29,2.15-.97,4.85-2.83,6.31-3.78,3.09-1.97,4.93-3.43,7.34-5.99,1.06-1.03,1.97-2.22,2.92-3.35,.54-.65,.82-1.68,.55-2.5-.24-.73-.98-1.39-1.66-1.74-1.13-.61-2.78-.4-3.9,.15-1.29,.64-1.16,1.78-2.08,2.6-1.95,.89-3.49,1.54-5.38,2,1.07-1.15,1.92-1.92,3.11-3.36,1.47-1.77,2.04-2.32,3.38-4.24,1.18-1.71,2.09-2.99,.93-3.96,2.36-1.16,6.32-2.98,8.79-3.9,2.26-.98,4.13-1.68,6.48-2.48,.86-.3,1.68-.61,2.4-.85-2.88,3.67-5.93,8.02-7.63,12.34-2.08,5.29-3.62,11.07-2.76,16.79,.21,1.34,1.28,2.17,2.32,2.91,.68,.48,1.77,.46,2.48,.03,.58-.36,1-1.02,1.36-1.62,.12,.11,.25,.23,.36,.36,.34,.33,.99,.42,1.45,.36,1.48-.26,2.95-.58,4.43-.83,.27-.04,.58,.16,.71,.38,.91,1.42,1.48,2.88,2.65,4.15,.51,.55,1.13,1.15,1.88,1.29,.83,.16,1.56-.13,1.98-.9,.95-1.76,1.25-3.28,1.43-5.25,.12-1.21-.33-2.46-.3-3.66,.01-.76,.02-1.54,.03-2.31,0-1.74,0-3.48,.1-5.22,.09-1.95,.3-3.87,.65-5.79,.16-.87,.39-2.02-.07-2.83-.41-.73-.65-1.38-1.27-2-.81-.78-1.41-1.28-2.4-1.82-1.45-.77-3.02-1.19-4.44-.12-1.22,.91-2.36,1.61-3.76,2.23-.27,.12-1,.49-1.35,.41,1.08-1.87,2.47-3.57,4.06-4.98,2.6-2.32,5.7-4.06,8.7-5.8,1.67-.96,6.67-1.83,8.44-2.58,1.98-.85,1.89-3.37-.02-4.28-1.69-.8-4.45-1.17-6.21-1.79-1.4-.5-3.27-.69-4.54,.24-2.74,2.03-9,6.3-8.92,5.51,.08-.79,1.07-4.33,2.95-5.41,1.88-1.08,4.85-4.82,6.05-6.11,1.2-1.28,1.01-1.12,1.5-1.65,.49-.53,.83-.76,1.06-1.18,.98-.64,3.8-3.04,4.24-3.52,.66-.55,.12-2.39,.21-2.76,.08-.36-1.17-1.32-3.43-1.44-2.26-.12-3.26,1.36-3.8,1.54-1.07,1.51-2.3,2.72-3.74,5.88-.18,2.07-1.4,3.47-2.25,4.91-.45,.48-.6,1.87-1.49,1.31-.2-.28-.04-2.01,.04-2.54,.2-1.24-.01-2.68,.19-3.93-.07-.99,.07-2.04,.2-2.76,.46-.81,.23-1.92,0-3.02-.24-.77-2.14-1.56-2.92-2.11-.78-.55-1.75-.63-2.32-.95-.79-.26-1.87,.18-2.11,.08-.48-.19-.45,1.79-.45,1.79,1.25,.95,1.53,2.24,1.86,3.65,.13,2.31-.11,5.99-.51,8.14-.42,2.82-.92,5.4-1.54,7.95-.22,2.08-.16,2.05-.83,4.42-.52,.24-.88,.98-1.41,1.22-2.32,1.05-2.47,1.58-5.14,2.77-3.62,1.6-5.12,2.19-9.14,3.95-.1-1.37-.42-7.86-.41-9.09,4.17-3.08,6.54-4.78,10.46-8.18,.45-.39,.56-1.11,.44-1.73-.15-.69-.91-1.26-1.13-1.74-1.01-2.3-1.8-2.29-3.76-3.79-1.43-1.11-2.68-2.19-3.87-3.59-.91-1.08-2.17-2.56-3.07-3.87-.07-.85-.03-1.05-.03-1.47,.01-.57,.02-.98,.02-1.56,.05-2.94,.12-3.55,.84-4.19,.91-.79-.38-1.92-2.16-2.57-1.12-.4-1.99-.18-2.64,.34-.88,.71-1.81,1.44-2.14,2.99-.19,.9-.31,2.03,.08,2.85,.44,.93,.69,1.34,.75,2.02,.16,2.04,.34,2.88,.5,4.92,.29,3.75,.56,7.67,.41,11.44-4.98,3.36-9.43,5.51-15.17,7.34-.99,.33-1.83,.36-2.85,.14-.4-.09-.82-.15-1.22-.25-.29-.05-.62-.15-.88-.25-.04-.02-.12-.01-.07,.09,.18,.29,.32,.51,.52,.79,1.31,2.03,2.23,1.93,4.19,3.03,2.03,1.14,3.74,2.31,6.02,2.82,2.17,.49,5.17,.39,7.03-.65,.81-.46,2.26-1.53,3.06-1.98,.12,1.21,.29,7.56,.25,8.55-1.48,1-3.54,2.07-5.15,2.94-2.55,1.4-4.82,2.55-7.49,3.72-.78,.33-1.59,.1-1.91-.7-.27-.65-.14-1.58-.06-2.27,.05-.33,.11-.73,.2-1.06,.04-.12-.09-.15-.2-.03-.28,.26-.49,.46-.74,.74-.84,.92-1.69,2.34-2.08,3.48-.29,.85-.02,1.45,.66,1.99,1.24,.99,2.41,1.35,4.04,1.43,1.06,.06,2.39,.24,3.45,.26,1.09,.02,2.14-.37,2.93-1.09,3.72-2.81,7.41-5.19,10.89-7.52-1.23,2.91-2.08,4.56-4.08,7.06-1.11,1.39-1.91,2.12-3.45,3.37-.46,.37-1.07,.6-1.6,.87-.52,.06-1.28,.39-1.72,.68-.67,.46-1.02,1.33-.55,2.05,.3,.47,.62,.79,1.01,1.15,.72,.67,2.04,.99,2.61,.46,1.04-.93,2.14-.92,3.39-1.45,.26-.1,2.75-.85,3-.93-.76,1.22-2.55,2.62-3.79,3.48-.59,.4-2.11,1.5-2.71,1.88-1.91,1.22-2.44,1.56-4.1,2.3-1.1,.09-2.01-.12-3.07-.37-1.59-.38-2.22-.5-3.87-.58-1.22-.06-1.92,.58-2.34,1.64-.59,1.5-1.26,3.6-.38,5.11,.55,.94,.75,1.68,1.96,1.94,.83,.16,1.84,.19,2.59-.29,1.91-1.2,4-1.44,6.18-1.76,1.54-.23,2.96-.12,4.5,.04,2.2,.24,4.37,.59,6.5,1.15,1.72,.46,3.36,1.03,4.99,1.73,1.33,.56,7.76,3.13,9.07,3.74,7.45,3.72,10.32,4.93,14.59,6.83,3.64,1.62,13.56,5.74,19.68,3.06,6.34-2.78,11.18-2.32,20.77-7.81,2.47-.88,3.71-1.47,5.13-2.96l.82-1.39c.25-.43,.55-.62-.18-.51Zm-46.01-14.33c-.02,.18-.05,1.01-.23,1.31-.61-.51-1.37-1-2.06-1.29-.45-.18-.82-.14-1.26-.02-.71,.21-1.06,.28-1.56,.45-1.01,.33-2,.64-3.06,.85-.39,.08-.61,.09-1-.04-.13-.04-.3-.03-.47,.02-.14-.21-.29-.41-.32-.59-.1-.56,.05-1.22,.05-1.81-.01-.61-.01-1.22-.09-1.83-.07-.46-.39-1.06-.36-1.48,.06-1.38,.15-2.76,.33-4.1l.29,.47c.7,1.09,1.55,1.74,2.73,2.22,.5,.2,1.02,.34,1.52,.52,.5,.19,1.12,.17,1.14,.62,.02,.28-.1,.47-.29,.64-.28,.26-.37,.34-1.03,.6-.15,.06-.13,.14,.1,.09,.46-.07,.87-.21,1.34-.34,.27-.08,.45-.09,1.01-.24,.3-.1,.67-.19,1.07-.32,.34-.02,.82,.14,1.29,.04,.39-.08,.67-.07,1.01-.27-.02,1.5,.02,3-.16,4.49Zm-6.98-15.24c.59,.34,1.21,.6,1.87,.76,.84,.18,1.69,.1,2.51-.15,.66-.22,1.38-.4,2.08-.42,.76,0,1.07,.53,1.08,1.22,.02,1.92,.03,3.84-.09,5.76-.34-.24-.68-.48-1.04-.66-1.44-.74-3.11-1.09-4.71-1.21-.85-.07-1.47-.04-2.21,.43-.61,.4-1.22,.72-1.94,.82l-.57,.09c.26-2.07,.7-4.1,1.5-6.09,.19-.48,.4-.94,.62-1.4,.18,.37,.52,.61,.91,.85Zm-23.1-27.37c-.04-1.32-.02-5.08,.1-6.4,.74,1.46,1.98,3.97,2.95,5.18,.49,.62,.71,1.11,.82,1.88,.06,.46-.3,.94-.72,1.15-.91,.49-1.82,.94-2.8,1.23-.14-1-.33-2.03-.36-3.04Z"/>
        <path class="e" d="M290.94,276.87c1.53,1.26,3.67,2.06,5.68,1.73,2.44-.4,4.22-1.31,6.21-2.55,.07,1.54,.18,3.15,.04,4.65,0,.11-.04,.46-.1,.57-1.21-.13-2.5-.33-3.63-.77-.5-.2-.98-.37-1.47-.61-.16-.07-.18,.06-.09,.15,.36,.4,.72,.74,1.08,1.11,.76,.79,2.19,2.06,3,2.81-1.16,1.46-1.87,2.67-2.53,4.14-1.39,2.83-2.51,5.54-3.64,8.53-.96,2.52-1.97,5-2.97,7.52-1.4,3.47-2.52,6.87-3.49,10.45-.23,.85-.56,1.42-.52,2.32,.05,1.12,.19,2.15,.85,3.09,.36,.53,.68,.97,.97,1.52,.03,.48,.29,.81,.61,1.07,.45,.36,2.3,.47,2.72-.78,.74-2.15,1.29-4.35,1.74-6.6,.85-4.23,1.86-8.15,3.13-12.28,.77,.48,1.8,.58,2.59,.19,.52-.27,1.22-.68,1.63-1.11,.05-.05,.22-.23,.31-.24,.06,.02,.24,.22,.28,.26,.29,.28,.27,.95,.18,1.31-.32,1.23-1.29,2.39-2.03,3.4-.56,.77-1.08,1.44-1.78,2.07-.65,.59-1.19,1.01-1.72,1.74-.31,.46-.25,1.3,.3,1.55,.41,.19,.83,.23,1.27,.25,.3,.02,.66,.05,.94,.15,.06,.02,.12,.05,.17,.09,.6,.37,1.21,.99,1.37,1.71,.13,.62-.24,1.36-.58,1.86-.25,.39-.96,.75-1.35,1.01-.42,.22-.93,.51-1.32,.77-.07,.05-.15,.12,0,.09,.67-.13,1.04-.19,1.58-.29,1.06-.2,1.98,.24,2.97-.08,1.52-.51,3.2-1.33,4.04-2.79,.62-1.09,.05-2.57-.61-3.5-.66-.94-1.83-1.29-2.85-1.67-.69-.24-2.11-.19-3.88,.56,1.7-1.25,4.38-3.62,5.48-5.2,.98-1.36,1.58-3.23,1.45-4.91-.1-1.33-.9-2.8-2.12-3.4-1.09-.53-2.34,.32-3.19,.93-.73,.53-1.65,.96-2.49,1.28,.29-.88,.6-1.86,.93-2.73,.73-1.51,1.03-1.85,1.8-2.62,.46-.46,.97-.83,1.51-1.18,1.05-.67,2.69-1.36,3.71-1.33,.84,.02,.94,1.31,.95,2.01,.04,4.33,.2,8.66,.23,13,.03,4.87-.12,9.66-.64,14.51-.3,2.75-2.88,5.89-5.77,6.88-1.27,.44-2.48,.61-4.14-.13-1.03-.45-1.75-1.08-2.21-2.11-.08-.21-.18-.24-.28-.33-.09-.1-.12-.26-.15-.54-.02-.11-.17-.07-.16,.04,0,.21,0,.44,.03,.64,.06,.39,.12,.65,.16,.82,.23,.74,.41,1.02,.75,1.51,1.17,1.67,3.31,2.71,6.01,2.91,2.34,.16,4.46-.15,6.38-1.35,2.08-1.3,4.62-3.25,4.94-5.87,.44-3.55,.94-7.05,1-10.63,.14-7,.6-14.06-.41-21.03-.26-1.8-1.77-3.72-3.51-4.17-1.52-.39-2.97-.59-4.53,.05-.65,.26-1.91,1.09-2.51,1.54-.79,.62-3.31,2.77-5.67,6.08,.92-2.09,2.3-4.68,3.31-6.38,.34-.57,2.32-2.71,3.16-3.28,2.65,0,2.64-1.8,2.72-3.21,1.48-1.82,3.32-3.96,4.86-5.71,2.33-2.64,4-3.99,5.94-6.73,.23-.33,.82-1.26,1.03-1.78,.41-1.01-.83-2.46-1.5-2.99-.89-.72-1.68-1.34-2.82-1.63-.72-.17-1.71-.13-2.26,.42-.38,.38-.6,.83-.78,1.32-.12,.32-.21,.7-.35,1.03-1.26,1.67-2.62,3.04-4.34,4.16,.01-2.69-.05-5.4,.08-8.09,.06-1.21,.04-2.04,.5-3.19,.42-1.06,.65-2.39-.2-3.32-.29-.31-.67-.52-.97-.81-.49-.48-.67-1-1.27-1.43-.8-.59-1.68-1.11-2.39-1.81-.25-.22-.5-.46-.75-.7-.02-.02-.03-.02-.03,.03,.06,.35,.06,.66,.07,1,.02,.37,.1,.92,.22,1.28,.24,.82,.09,1.73,.16,2.57,.18,2.22,.08,4.46,.51,6.66,.38,2.03,.62,4.04,.69,6.1,.03,1.12,.02,2.24-.01,3.35-1.88,.94-3.18,1.42-5.37,1.4-1.44,0-2.98-.21-4.32-.78-1.25-.54-2.36-1.19-3.38-2.13-.67-.61-1.05-1.17-1.3-2.06-.18-.62-.34-1.22-.47-1.88-.06-.31-.23-.3-.27,.03-.07,.67-.13,1.24-.19,1.93-.08,1.02-.09,2.16,.02,3.15,.24,2.17,1.41,4.02,3.07,5.39Zm15.64-2.39c1.67-1.62,2.86-3.59,4.36-5.84,.19-.28,.19-.12,.13,.1-1.18,5.07-2.66,7.07-4.61,9.85,.01-.79,.09-3.31,.11-4.11Z"/>
      </g>
    </g>
  </g>
</svg>