<?xml version="1.0" encoding="UTF-8"?>
<svg id="b" data-name="圖層 2" xmlns="http://www.w3.org/2000/svg" width="555.94" height="1176.03" viewBox="0 0 555.94 1176.03">
  <defs>
    <style>
      .d {
        fill: #900;
      }

      .e {
        fill: #db0000;
      }
    </style>
  </defs>
  <g id="c" data-name="說明">
    <g>
      <path class="d" d="M528.75,195.45L307.84,12.73c-20.81-17.21-50.98-16.95-71.48,.62L18.67,199.88C6.78,209.41-.13,224.29,0,240.02l1.4,322.08,548.11-4.77-1.4-322.08c-.14-15.73-7.31-30.49-19.36-39.81Z"/>
      <path class="e" d="M490.96,387.91c-3.84,6.61-10.88,10.7-18.52,10.76l-399.76,3.48c-8,.07-15.38-4.28-19.2-11.31L.56,293.38l7.27,835.65c.23,26.19,21.64,47.23,47.83,47l453.27-3.94c26.19-.23,47.23-21.64,47-47.83l-7.27-835.65-57.71,99.3Z"/>
      <path class="d" d="M508.93,1172.09l-453.27,3.94c-26.19,.23-47.6-20.82-47.83-47l-.58-66.92,548.11-4.77,.58,66.92c.23,26.19-20.82,47.6-47,47.83Z"/>
    </g>
  </g>
</svg>