<?xml version="1.0" encoding="UTF-8"?>
<svg id="b" data-name="圖層 2" xmlns="http://www.w3.org/2000/svg" width="147.65" height="147.65" viewBox="0 0 147.65 147.65">
  <g id="c" data-name="圖層 1">
    <circle cx="73.82" cy="73.82" r="73.82" style="fill: #e8b356;"/>
  </g>
  <g id="d" data-name="說明">
    <path d="M100.88,73c-2.44,5.99-5.73,11.07-9.87,15.26,11.35,3.69,21.86,7.55,29.29,11.16l-9.34,8.61c-7.22-3.77-17.93-8.04-29.82-12.22-10.93,6.48-25.89,10.09-45.95,12.3-1.17-2.62-5.2-7.38-7.85-9.84,16.77-1.15,29.5-3.36,38.94-7.3-9.13-2.95-18.57-5.58-26.95-7.63,2.76-2.95,5.73-6.48,8.59-10.34H27.24v-9.19h27.06c2.86-4.35,5.2-8.7,7-12.71l14.75,2.13c-1.7,3.36-3.71,6.97-5.94,10.58h18.68c.53-2.3,.85-4.84,1.17-7.46l15.28,.74v-7.96H42.1v9.19h-12.84v-18.21h37.67c-1.17-2.38-2.55-4.92-3.71-7.14l14.22-2.54c1.8,2.95,4.03,6.64,5.52,9.68h35.76v18.21h-13.37c-.42,1.89-.85,3.69-1.27,5.5h16.66v9.19h-19.84Zm-36.82,0c-1.59,2.13-3.08,4.1-4.67,6.07,5.94,1.48,11.99,3.2,18.25,5,3.4-3.04,6.05-6.73,8.06-11.07h-21.65Z" style="fill: #fff;"/>
  </g>
</svg>