<?xml version="1.0" encoding="UTF-8"?>
<svg id="b" data-name="圖層 2" xmlns="http://www.w3.org/2000/svg" width="987.21" height="101.43" viewBox="0 0 987.21 101.43">
  <defs>
    <style>
      .d {
        fill: #fff;
      }

      .e {
        fill: #fff;
      }

      .f {
        opacity: .2;
      }
    </style>
  </defs>
  <g id="c" data-name="說明">
    <g class="f">
      <g>
        <path class="d" d="M125.5,0V23.66H31.13v10.58H108.32v21.17H31.13v24.28H0V0H125.5Z"/>
        <path class="d" d="M171.57,46.07v9.96h94.62v23.66h-125.75V0h125.5V23.66h-94.38v9.96h77.19v12.45h-77.19Z"/>
        <path class="d" d="M274.91,79.68L328.32,0h34.61l53.91,79.68h-34.24L336.42,8.34h18.55l-45.82,71.34h-34.24Zm27.89-12.08v-18.68h85.16v18.68h-85.16Z"/>
        <path class="d" d="M405.64,0h129.49V23.66h-129.49V0Zm49.18,22.04h31.13v57.65h-31.13V22.04Z"/>
        <path class="d" d="M659.51,34.24V0h31.13V39.84c0,7.06-1.31,13.05-3.92,17.99-2.61,4.94-6.25,9.01-10.89,12.2-4.65,3.2-10,5.67-16.06,7.41-6.06,1.74-12.56,2.97-19.49,3.67-6.93,.7-13.97,1.06-21.1,1.06-7.55,0-14.86-.35-21.91-1.06-7.06-.71-13.59-1.93-19.61-3.67-6.02-1.74-11.27-4.21-15.75-7.41-4.48-3.19-7.99-7.26-10.52-12.2-2.53-4.94-3.8-10.94-3.8-17.99V0h31.13V34.24c0,6.64,1.62,11.7,4.86,15.19,3.24,3.49,7.86,5.87,13.88,7.16,6.02,1.29,13.26,1.93,21.73,1.93s15.35-.64,21.42-1.93c6.06-1.29,10.73-3.67,14.01-7.16,3.28-3.49,4.92-8.55,4.92-15.19Z"/>
        <path class="d" d="M708.07,79.68V0h96.24c7.55,0,14.34,.85,20.36,2.55,6.02,1.7,10.79,4.54,14.32,8.53,3.53,3.98,5.29,9.42,5.29,16.31,0,4.57-.83,8.34-2.49,11.33-1.66,2.99-3.94,5.31-6.85,6.97-2.91,1.66-6.23,2.86-9.96,3.61s-7.64,1.2-11.7,1.37l-9.09-1.74c9.88,.08,17.49,.5,22.85,1.25s9.09,2.1,11.21,4.05c2.12,1.95,3.17,4.75,3.17,8.4v17.06h-31.13v-13.32c0-2.49-.48-4.38-1.43-5.67-.96-1.29-3.03-2.18-6.23-2.68-3.2-.5-8.11-.75-14.75-.75h-48.68v22.41h-31.13Zm31.13-43.2h65.12c2.49,0,4.58-.41,6.29-1.25,1.7-.83,2.55-2.41,2.55-4.73,0-2.16-.85-3.63-2.55-4.42-1.7-.79-3.8-1.18-6.29-1.18h-65.12v11.58Z"/>
        <path class="d" d="M892.58,46.07v9.96h94.62v23.66h-125.75V0h125.5V23.66h-94.38v9.96h77.19v12.45h-77.19Z"/>
      </g>
    </g>
    <g>
      <path class="e" d="M383.7,78.43c-1.94-1.65-6.12-4-9.31-5.4l3.14-4.45c3.09,1.2,7.32,3.25,9.46,4.9l-3.29,4.95Zm-7.57,18.45c2.69-3.8,6.47-9.95,9.41-15.75l4.38,4c-2.64,5.2-5.83,10.9-8.76,15.75l-5.03-4Zm10.46-31.7c-1.99-1.7-6.07-4.1-9.26-5.55l3.24-4.4c3.14,1.25,7.37,3.45,9.46,5.05l-3.44,4.9Zm28.38,36.25c-.35-1.3-.95-2.85-1.74-4.4-16.58,2-19.12,2.4-20.76,3.25-.35-1.3-1.34-4.25-2.09-5.95,1.15-.35,2.09-1.4,3.24-3.2,.9-1.35,3.29-5.75,5.28-10.7h-9.36v-5.6h11.8v-7.05h-9.81v-5.65h9.81v-7.45h6.02v7.45h10.16v5.65h-10.16v7.05h12v5.6h-13.54c-1.99,4.55-4.48,9.05-6.92,12.85l11.7-1.2c-1.05-1.8-2.19-3.6-3.34-5.15l4.83-2.4c3.29,4.35,6.92,10.15,8.21,14.2l-5.33,2.7Z"/>
      <path class="e" d="M463.41,56.18c-.25,.3-.5,.65-.75,.95,4.58,4,12.75,7.45,20.66,9-1.25,1.05-2.94,3.15-3.73,4.55-1-.25-2.04-.6-3.09-.9v12.9h-34.6v-12.6c-1.05,.35-2.09,.7-3.09,.95-.6-1.1-2.19-3.5-3.19-4.6,9.16-2.15,18.02-6.3,22.55-12.1l5.23,1.85Zm11.3,12.95c-2.34-.85-4.58-1.9-6.77-3.05v1.3h-17.48v-1c-1.94,1-3.93,1.95-6.02,2.75h30.27Zm-30.02,15.2h29.28v16.9h-6.08v-1.2h-17.38v1.35h-5.83v-17.05Zm5.63-5.25c-.25-1.55-.9-3.6-1.69-5.2l3.83-1.1h-5.63v6.3h3.49Zm.2,9.15v2h17.38v-2h-17.38Zm17.38,7.9v-2h-17.38v2h17.38Zm-11.3-23.35h-3.88c.9,1.7,1.69,3.85,1.99,5.3l-3.19,1h5.08v-6.3Zm7.17-9.25c-1.49-1.05-2.94-2.15-4.18-3.25-1.29,1.1-2.74,2.2-4.23,3.25h8.42Zm-2.39,9.25v6.3h4.63l-2.99-.85c.7-1.5,1.49-3.8,1.94-5.45h-3.58Zm9.86,0h-5.18l3.88,.95c-1,2-1.94,3.95-2.74,5.35h4.03v-6.3Z"/>
      <path class="e" d="M516.54,84.43l-4.78,1.25v15.75h-5.63v-14.35l-6.57,1.7-1.44-6.05c2.19-.4,5.03-1,8.02-1.6v-11h-2.89c-.5,2.5-1.1,4.85-1.79,6.65-1-.45-3.09-1.25-4.18-1.6,1.59-4.05,2.54-10.5,2.99-16.6l4.48,.7c-.15,1.75-.35,3.45-.6,5.2h1.99v-9.7h5.63v9.7h4.28v5.65h-4.28v9.75l4.13-.95,.65,5.5Zm27.18-.1h-4.78v10.45c0,2.95-.55,4.5-2.54,5.45-1.89,.9-4.68,1.05-8.31,1.05-.25-1.75-1.05-4.2-1.79-5.9,2.34,.1,5.03,.1,5.83,.1,.75,0,.95-.2,.95-.85v-10.3h-15.83v-5.45h15.83v-3.5h5.88v3.5h4.78v5.45Zm-16.93-19.75h-9.36v-5.4h9.36v-4.45h5.88v4.45h9.96v5.4h-9.96v4.25h8.27v5.5h-21.66v-5.5h7.52v-4.25Zm-2.89,19.9c2.14,2.2,4.78,5.4,5.97,7.5l-4.68,3.05c-1.05-2.1-3.54-5.45-5.68-7.85l4.38-2.7Z"/>
      <path class="e" d="M594.1,95.13c4.78,0,5.53-1.1,6.17-7.3,1.49,.85,3.93,1.8,5.58,2.1-1.05,8.2-3.09,10.6-11.45,10.6h-17.03c-9.26,0-12.1-1.8-12.1-8.95v-18.2c-1,.8-1.99,1.5-2.94,2.2-.55-1.4-2.14-4.35-3.19-5.7,5.88-3.55,11.9-9.3,15.24-15.5l5.38,2.05c-.4,.7-.85,1.45-1.25,2.15h11.45l1.15-.3,3.78,2.85c-1.69,2.4-3.83,5.1-6.12,7.45h12.15v18.8h-5.83v-1.7h-24.1v5.9c0,3.05,.85,3.55,6.27,3.55h16.83Zm-19.37-31.25c-1.34,1.65-2.69,3.2-4.18,4.7h11.15c1.44-1.35,2.89-3,4.18-4.7h-11.15Zm-3.73,16.15h9.26v-5.95h-9.26v5.95Zm24.1-5.95h-9.06v5.95h9.06v-5.95Z"/>
    </g>
  </g>
</svg>