<?xml version="1.0" encoding="UTF-8"?>
<svg id="b" data-name="圖層 2" xmlns="http://www.w3.org/2000/svg" width="134.45" height="296.02" viewBox="0 0 134.45 296.02">
  <defs>
    <style>
      .d {
        fill: #c8c9ca;
      }

      .e {
        fill: #e8aa42;
      }

      .f {
        fill: #3f3b3a;
      }

      .g {
        fill: #e8473f;
      }
    </style>
  </defs>
  <g id="c" data-name="圖層 3">
    <g>
      <g>
        <path class="g" d="M22.1,159.71c.13-.1,.16-.21,.07-.35,.33-.48,.05-1.11,.41-1.57,.13-.1,.16-.21,.07-.35,.33-.48,.05-1.11,.41-1.57,.13-.1,.16-.21,.07-.35,.33-.48,.05-1.11,.41-1.57,.13-.1,.16-.21,.07-.35,.33-.48,.05-1.11,.41-1.57,.13-.1,.16-.21,.07-.35,.32-.48,.05-1.1,.4-1.57,.13-.11,.15-.23,.07-.38,.35-.46,.06-1.09,.41-1.55,.13-.11,.16-.23,.07-.38,.35-.46,.06-1.09,.41-1.55,.13-.11,.16-.23,.07-.38,.35-.46,.06-1.09,.41-1.55,.13-.11,.16-.23,.07-.38,.35-.46,.06-1.09,.41-1.55,.13-.11,.16-.23,.07-.38,.35-.46,.06-1.09,.41-1.55,.13-.11,.16-.23,.07-.38,.35-.46,.06-1.09,.41-1.55,.13-.11,.16-.23,.07-.38,.35-.46,.06-1.09,.41-1.55,.13-.11,.16-.23,.07-.38,.35-.46,.06-1.09,.41-1.55,.13-.11,.16-.23,.07-.38,.35-.46,.06-1.09,.41-1.55,.13-.11,.16-.23,.07-.38,.35-.46,.06-1.09,.41-1.55,.13-.11,.16-.23,.07-.38,.34-.46,.06-1.08,.4-1.54,.13-.12,.16-.25,.08-.41,.37-.44,.07-1.07,.41-1.52,.13-.12,.16-.25,.08-.41,.37-.44,.07-1.07,.41-1.52,.13-.12,.16-.25,.08-.41,.37-.44,.07-1.07,.41-1.52,.13-.12,.16-.25,.08-.41,.37-.44,.07-1.07,.41-1.52,.13-.12,.16-.25,.08-.41,.37-.44,.07-1.07,.41-1.52,.13-.12,.16-.25,.08-.41,.37-.44,.07-1.07,.41-1.52,.13-.12,.16-.25,.08-.41,.37-.44,.07-1.07,.41-1.52,.13-.12,.16-.25,.08-.41,.37-.44,.07-1.07,.41-1.52,.13-.12,.16-.25,.08-.41,.37-.44,.07-1.07,.41-1.52,.13-.12,.16-.25,.08-.41,.37-.44,.07-1.07,.41-1.52,.13-.12,.16-.25,.08-.41,.37-.44,.07-1.07,.41-1.52,.13-.12,.16-.25,.08-.41,.37-.44,.07-1.07,.41-1.52,.13-.12,.16-.25,.08-.41,.37-.44,.07-1.07,.41-1.52,.13-.12,.16-.25,.08-.41,.37-.44,.07-1.07,.41-1.52,.13-.12,.16-.25,.08-.41,.37-.44,.07-1.07,.41-1.52,.13-.12,.16-.25,.08-.41,.37-.44,.07-1.07,.41-1.52,.13-.12,.16-.25,.08-.41,.37-.44,.07-1.07,.41-1.52,.13-.12,.16-.25,.08-.41,.37-.44,.07-1.07,.41-1.52,.13-.12,.16-.25,.08-.41,.37-.44,.07-1.07,.41-1.52,.13-.12,.16-.25,.08-.41,.37-.44,.07-1.07,.41-1.52,.13-.12,.16-.25,.08-.41,.37-.44,.07-1.07,.41-1.52,.13-.12,.16-.25,.08-.41,.37-.44,.07-1.07,.41-1.52,.13-.12,.16-.25,.08-.41,.37-.44,.07-1.07,.41-1.52,.13-.12,.16-.25,.08-.41,.37-.44,.07-1.07,.41-1.52,.13-.12,.16-.25,.08-.41,.37-.44,.07-1.07,.41-1.52,.13-.12,.16-.25,.08-.41,.37-.44,.07-1.07,.41-1.52,.13-.12,.16-.25,.08-.41,.37-.44,.07-1.07,.41-1.52,.13-.12,.16-.25,.08-.41,.37-.44,.07-1.07,.41-1.52,.13-.12,.16-.25,.08-.41,.37-.44,.07-1.07,.41-1.52,.13-.12,.16-.25,.08-.41,.37-.44,.07-1.07,.41-1.52,.13-.12,.16-.25,.08-.41,.37-.44,.07-1.07,.41-1.52,.13-.12,.16-.25,.08-.41,.37-.44,.07-1.07,.41-1.52,.13-.12,.16-.25,.08-.41,.37-.44,.07-1.07,.41-1.52,.13-.12,.16-.25,.08-.41,.37-.44,.07-1.07,.41-1.52,.13-.12,.16-.25,.08-.41,.37-.44,.07-1.07,.41-1.52,.13-.12,.16-.25,.08-.41,.37-.44,.07-1.07,.41-1.52,.13-.12,.16-.25,.08-.41,.37-.44,.07-1.07,.41-1.52,.13-.12,.16-.25,.08-.41,.37-.44,.06-1.07,.42-1.52,.13-.11,.16-.23,.07-.38,.35-.46,.06-1.09,.41-1.55,.13-.11,.16-.23,.07-.38,.35-.46,.06-1.09,.41-1.55,.13-.11,.16-.23,.07-.38,.35-.46,.06-1.09,.41-1.55,.13-.11,.16-.23,.07-.38,.35-.46,.06-1.09,.41-1.55,.13-.11,.16-.23,.07-.38,.35-.46,.06-1.09,.41-1.55,.13-.11,.16-.23,.07-.38,.35-.46,.05-1.09,.41-1.55,.14-.09,.16-.21,.08-.35,.33-.48,.05-1.11,.41-1.57,.13-.1,.16-.21,.07-.35,.33-.48,.05-1.11,.41-1.57,.13-.1,.16-.21,.07-.35,.33-.48,.05-1.11,.41-1.57,.13-.1,.16-.21,.07-.35,.33-.48,.04-1.11,.41-1.57,.13-.09,.16-.2,.07-.34,.31-.48,.04-1.12,.42-1.59,.13-.08,.16-.19,.07-.32,.31-.49,.04-1.13,.41-1.6,.13-.08,.16-.19,.07-.32,.31-.49,.03-1.13,.42-1.6,.14-.08,.16-.18,.07-.31,.3-.5,.03-1.15,.42-1.62l.12-.13-.06-.16c.29-.51,.03-1.16,.42-1.64l.12-.13-.06-.16c.29-.51,.02-1.16,.43-1.64l.11-.11-.06-.14c.27-.53,.02-1.18,.43-1.68l.11-.11-.06-.15c.12-.39,.17-.8,.35-1.18l.08-.45c.4-.42,.08-1.03,.4-1.48l.08-.45c.41-.42,.08-1.04,.41-1.48,.13-.13,.15-.27,.08-.43,.39-.43,.07-1.06,.41-1.5,.13-.12,.16-.25,.08-.41,.37-.44,.06-1.07,.41-1.52,.13-.11,.16-.23,.08-.38,.35-.46,.05-1.09,.42-1.55,.13-.1,.16-.21,.07-.35,.33-.47,.04-1.12,.42-1.58,.14-.08,.16-.18,.07-.31,.3-.5,.02-1.15,.44-1.62v.02c.42-.4,.04-1.06,.47-1.46h0c.28-.26,.21-.69,.46-.97v-.02c.33-.22,.21-.7,.55-.92l-.02,.03c.11-.2,.3-.34,.41-.55l.03-.04c.17-.09,.29-.22,.36-.4,.15-.01,.23-.1,.21-.25,.03-.5,.64-.4,.8-.77l.07-.06c.2-.09,.35-.22,.47-.4l.03-.02c.2-.12,.34-.32,.56-.42l-.04,.03c.22-.36,.69-.26,.95-.54h0c.27-.29,.72-.21,1.01-.47l.45-.11c.32-.17,.72-.13,1.02-.37l.91-.11c1.12-.24,2.23-.23,3.35,0l.93,.11c.29,.25,.69,.19,1,.38,.12,.13,.26,.16,.42,.11,.3,.25,.77,.16,1.01,.52l-.04-.03c.21,.09,.35,.29,.56,.39l.05,.03c.17,.36,.71,.21,.83,.63l-.05-.05c.28,.07,.46,.25,.54,.53l-.05-.05c.28,.08,.47,.25,.51,.56l-.06-.06c.46,.12,.32,.66,.63,.88h0c.2,.21,.39,.41,.41,.72l-.03,.16,.13,.1c.25,.3,.17,.73,.42,1.02-.07,.16-.04,.31,.09,.43,.28,.5,.08,1.11,.36,1.61,0,1,0,2,0,3-.36,.66,0,1.45-.38,2.11l-.11,.73c-.25,.53-.06,1.16-.39,1.68-.13,.12-.15,.25-.07,.4-.47,.6,.05,1.42-.45,2.01l-.12,.13,.06,.16c-.28,.51-.06,1.15-.4,1.64l-.17,.11c.04,.86-.17,1.55-1.07,1.9-.67,.25-1.33,.55-1.95,.92-1.03,.62-2.65,.84-2.12,2.65,.47,1.59,.61,3.53,2.99,3.54,.12,.34,.14,.67-.07,.99-.13,.13-.15,.27-.07,.43-.39,.43-.08,1.05-.4,1.49l-.07,.45c-.51,.57,.05,1.4-.47,1.97l-.12,.12,.06,.15c-.27,.52-.04,1.16-.41,1.65-.13,.09-.15,.2-.06,.33-.31,.49-.04,1.13-.41,1.6-.13,.09-.16,.21-.07,.34-.32,.48-.05,1.11-.4,1.58-.13,.1-.16,.23-.07,.37-.34,.46-.06,1.09-.41,1.55-.13,.11-.16,.24-.07,.39-.35,.45-.07,1.08-.4,1.54-.13,.12-.16,.26-.07,.41-.37,.44-.07,1.06-.4,1.51-.13,.13-.15,.27-.08,.43-.39,.43-.08,1.05-.4,1.49l-.07,.45c-.41,.42-.08,1.03-.4,1.47l-.13,.73c-.26,.53-.03,1.19-.43,1.69l-.11,.11,.06,.15c-.27,.53-.03,1.18-.42,1.67l-.12,.13,.06,.16c-.29,.51-.03,1.15-.42,1.64l-.12,.13,.05,.16c-.28,.51-.04,1.15-.41,1.63-.13,.09-.16,.19-.07,.33-.31,.49-.04,1.13-.41,1.6-.13,.09-.16,.19-.07,.33-.31,.49-.04,1.13-.41,1.6-.13,.09-.16,.21-.07,.34-.32,.48-.05,1.11-.41,1.58-.13,.1-.16,.21-.07,.35-.33,.47-.05,1.11-.41,1.57-.13,.1-.16,.21-.07,.35-.32,.47-.05,1.1-.4,1.57-.13,.11-.15,.24-.07,.38-.35,.46-.06,1.09-.41,1.54-.13,.11-.16,.23-.07,.38-.35,.46-.06,1.09-.41,1.54-.13,.11-.16,.23-.07,.38-.35,.46-.06,1.09-.41,1.54-.13,.11-.16,.24-.07,.39-.35,.46-.07,1.08-.4,1.54-.13,.12-.16,.25-.08,.41-.37,.44-.07,1.07-.41,1.52-.13,.12-.16,.25-.08,.41-.37,.44-.07,1.07-.41,1.52-.13,.12-.16,.25-.08,.41-.37,.44-.07,1.07-.41,1.52-.13,.12-.16,.25-.08,.41-.37,.44-.07,1.07-.41,1.52-.13,.12-.16,.25-.08,.41-.37,.44-.07,1.06-.4,1.52-.13,.13-.15,.27-.07,.43-.39,.43-.08,1.05-.41,1.49-.13,.13-.15,.27-.08,.43-.39,.43-.08,1.05-.41,1.49-.13,.13-.15,.27-.08,.43-.39,.43-.08,1.05-.41,1.49-.13,.13-.15,.27-.08,.43-.39,.43-.08,1.05-.41,1.49-.13,.13-.15,.27-.08,.43-.39,.43-.08,1.05-.41,1.49-.13,.13-.15,.27-.08,.43-.39,.43-.08,1.05-.41,1.49-.13,.13-.15,.27-.08,.43-.39,.43-.08,1.05-.41,1.49-.13,.13-.15,.27-.08,.43-.39,.43-.08,1.05-.41,1.49-.13,.13-.15,.27-.08,.43-.39,.43-.08,1.05-.41,1.49-.13,.13-.15,.27-.08,.43-.39,.43-.08,1.05-.41,1.49-.13,.13-.15,.27-.08,.43-.39,.43-.08,1.05-.41,1.49-.13,.13-.15,.27-.08,.43-.39,.43-.08,1.05-.41,1.49-.13,.13-.15,.27-.08,.43-.39,.43-.08,1.05-.41,1.49-.13,.13-.15,.27-.08,.43-.39,.43-.08,1.05-.41,1.49-.13,.13-.15,.27-.08,.43-.39,.43-.08,1.05-.41,1.49-.13,.13-.15,.27-.08,.43-.39,.43-.08,1.05-.41,1.49-.13,.13-.15,.27-.08,.43-.39,.43-.07,1.05-.41,1.49-.13,.12-.16,.25-.08,.41-.37,.44-.07,1.07-.41,1.52-.13,.12-.16,.25-.08,.41-.37,.44-.07,1.07-.41,1.52-.13,.12-.16,.25-.08,.41-.37,.44-.07,1.07-.41,1.52-.13,.12-.16,.25-.08,.41-.37,.44-.07,1.07-.41,1.52-.13,.12-.16,.25-.08,.41-.37,.44-.07,1.07-.41,1.52-.13,.12-.16,.25-.08,.41-.37,.44-.07,1.07-.41,1.52-.13,.12-.16,.25-.08,.41-.37,.44-.07,1.07-.41,1.52-.13,.11-.16,.25-.08,.4-.37,.45-.06,1.08-.41,1.53-.13,.11-.16,.23-.07,.38-.35,.46-.06,1.09-.41,1.54-.13,.11-.16,.24-.07,.38-.42,.57,.03,1.21-.13,1.8-.66,1.58-2.17,2.34-3.38,3.35-9.28,7.79-15.55,17.61-19.71,28.88-2.56,6.91-3.91,14.09-4,21.42-.11,8.46,1.56,16.59,5.75,24.06,.39,.7,.85,1.37,1,2.18,.06,.68-.39,1.17-.64,1.74-.13,.13-.15,.27-.08,.43-.39,.43-.07,1.05-.41,1.49-.13,.12-.16,.25-.08,.41-.37,.44-.07,1.07-.41,1.52-.13,.12-.16,.25-.08,.41-.37,.44-.07,1.07-.41,1.52-.13,.11-.16,.24-.08,.39-.36,.45-.06,1.08-.41,1.53-.13,.11-.16,.23-.07,.38-.35,.46-.06,1.09-.41,1.54-.13,.1-.16,.23-.08,.38-.35,.46-.05,1.1-.42,1.55-.13,.1-.16,.21-.07,.35-.33,.47-.05,1.11-.41,1.57-.13,.1-.16,.21-.07,.35-.33,.47-.04,1.11-.42,1.57-.13,.09-.16,.19-.07,.33-.31,.49-.04,1.13-.41,1.6-.13,.09-.16,.19-.07,.33-.31,.49-.03,1.14-.43,1.6l-.12,.13,.05,.16c-.29,.51-.03,1.15-.42,1.64l-.12,.13,.05,.16c-.29,.51-.02,1.16-.43,1.64l-.11,.11,.06,.15c-.27,.52-.02,1.18-.43,1.67l-.12,.11,.06,.15c-.12,.39-.17,.8-.35,1.18l-.08,.45c-.41,.42-.08,1.03-.4,1.47l-.08,.45c-.41,.42-.08,1.04-.41,1.48-.13,.13-.16,.27-.08,.43-.39,.43-.08,1.05-.41,1.49-.13,.13-.15,.27-.08,.43-.39,.43-.07,1.05-.41,1.5-.13,.12-.16,.25-.08,.41-.37,.44-.07,1.07-.41,1.52-.13,.12-.16,.25-.08,.41-.37,.44-.06,1.07-.42,1.52-.13,.11-.16,.23-.07,.38-.35,.46-.06,1.09-.41,1.54-.13,.11-.16,.23-.07,.38-.35,.46-.05,1.09-.42,1.55-.13,.1-.16,.21-.07,.35-.33,.47-.05,1.11-.41,1.57-.13,.1-.16,.21-.07,.35-.33,.47-.04,1.11-.42,1.57-.13,.09-.16,.19-.07,.33-.31,.49-.04,1.13-.41,1.6-.13,.08-.16,.19-.07,.33-.31,.49-.03,1.14-.42,1.6l-.12,.13,.05,.16c-.29,.51-.03,1.15-.42,1.64l-.11,.11,.06,.15c-.53,.85-1.21,.46-1.87,.23h0c-.14-.17-.31-.31-.49-.43l-.03-.04c-.1-.21-.29-.35-.41-.54l.02,.03c-.41-.45-.31-.93-.09-1.42l.09-.86c.43-.62-.02-1.42,.42-2.03,.13-.12,.15-.25,.06-.4,.46-.6-.02-1.4,.42-2,.13-.13,.14-.27,.05-.42,.4-2.35,.32-4.7,.03-7.06,.1-.27,.04-.51-.13-.73-.2-.3-.14-.7-.39-.99v.02c-.31-.26-.25-.7-.46-1.01l.02,.04c-.36-.21-.25-.69-.55-.94h0c-.16-.18-.35-.33-.43-.57l.04,.04c-.25-.11-.45-.28-.48-.58l.05,.05c-.31-.05-.49-.22-.53-.54l.05,.05c-.31-.03-.49-.22-.55-.52l.05,.05c-.29-.04-.45-.24-.58-.47l.04,.03c-.23-.09-.37-.29-.56-.43h-.01c-.23-.32-.71-.21-.92-.56l.03,.02c-.31-.22-.73-.16-1.02-.42l-.17-.12-.2,.05c-.56-.3-1.12-.27-1.68,0l-.19-.06-.16,.12c-.3,.27-.71,.22-1.05,.4l.04-.03c-.17,.39-.68,.27-.9,.59h-.01c-.64,.33-1.28,.33-1.93,.01l-.11-.12-.16,.04c-.34-.05-.55-.25-.65-.58l.06-.11-.07-.11c.35-.46,.06-1.09,.41-1.54,.13-.11,.16-.23,.07-.38,.35-.46,.06-1.09,.41-1.54,.13-.11,.16-.23,.07-.38,.35-.46,.06-1.09,.41-1.54,.13-.11,.16-.23,.07-.38,.34-.46,.06-1.08,.4-1.54,.13-.12,.16-.25,.08-.41,.37-.44,.07-1.07,.41-1.52,.13-.12,.16-.25,.08-.41,.37-.44,.07-1.07,.41-1.52,.13-.12,.16-.25,.08-.41,.37-.44,.07-1.07,.41-1.52,.13-.12,.16-.25,.08-.41,.37-.44,.07-1.07,.41-1.52,.13-.12,.16-.25,.08-.41,.37-.44,.07-1.07,.4-1.52,.13-.12,.15-.26,.07-.42,.38-.43,.07-1.05,.4-1.5,.13-.13,.15-.27,.08-.43,.39-.43,.07-1.05,.41-1.5,.13-.13,.15-.27,.08-.43,.39-.43,.07-1.05,.41-1.5,.13-.13,.15-.27,.08-.43,.39-.43,.07-1.05,.41-1.5,.13-.13,.15-.27,.08-.43,.39-.43,.07-1.05,.41-1.5,.13-.13,.15-.27,.08-.43,.39-.43,.08-1.05,.4-1.49,.13-.13,.15-.28,.07-.45,.4-.42,.08-1.04,.4-1.48l.08-.45c.4-.42,.08-1.03,.4-1.48l.08-.45c.4-.42,.08-1.03,.4-1.48l.08-.45c.4-.42,.08-1.03,.4-1.48l.08-.45c.4-.42,.08-1.03,.4-1.48l.08-.45c.4-.42,.08-1.03,.4-1.48l.13-.75c.27-.53,.02-1.18,.43-1.68l.11-.11-.06-.14c.27-.53,.02-1.18,.43-1.68l.11-.11-.06-.14c.27-.53,.02-1.18,.43-1.68l.11-.11-.06-.14c.27-.53,.02-1.18,.43-1.68l.11-.11-.06-.14c.27-.53,.02-1.18,.43-1.68l.11-.11-.06-.14c.27-.53,.02-1.18,.43-1.68l.11-.11-.06-.14c.27-.53,.03-1.18,.42-1.67l.12-.13-.06-.16c.29-.51,.03-1.16,.42-1.64l.12-.13-.06-.16c.29-.51,.03-1.16,.42-1.64l.12-.13-.06-.16c.29-.51,.03-1.16,.42-1.64l.12-.13-.06-.16c.29-.51,.03-1.16,.42-1.64l.12-.13-.06-.16c.29-.51,.03-1.16,.42-1.64l.12-.13-.06-.16c.29-.51,.03-1.16,.42-1.64l.12-.13-.06-.16c.28-.51,.04-1.15,.41-1.63,.13-.08,.16-.19,.07-.32,.31-.49,.04-1.13,.41-1.6,.13-.08,.16-.19,.07-.32,.31-.49,.04-1.13,.41-1.6,.13-.08,.16-.19,.07-.32,.31-.49,.04-1.13,.41-1.6,.13-.08,.16-.19,.07-.32,.31-.49,.04-1.13,.41-1.6,.13-.08,.16-.19,.07-.32,.31-.49,.04-1.13,.41-1.6,.13-.08,.16-.19,.07-.32,.31-.49,.04-1.13,.41-1.6,.13-.08,.16-.19,.07-.32,.31-.49,.04-1.13,.41-1.6,.13-.09,.16-.21,.07-.34,.32-.48,.05-1.11,.41-1.58,.13-.1,.16-.21,.07-.35,.33-.48,.05-1.11,.41-1.57,.13-.1,.16-.21,.07-.35,.33-.48,.05-1.11,.41-1.57,.13-.1,.16-.21,.07-.35,.33-.48,.05-1.11,.41-1.57Z"/>
        <path class="e" d="M75.61,29.15c-.59,.21-1.17,.42-1.82,.65-1-1.48-1.25-3.25-1.91-4.86-.3-.72,.04-1.23,.7-1.54,1.22-.58,2.4-1.29,3.68-1.71,.87-.29,1.18-.94,1.6-1.56,.09,.11,.15,.23,.19,.36,.32,.38,.67,.2,1.01,.04l.89-.14c.35-.15,.75-.18,1.1-.33l4.58-.02c.3,.22,.7,.19,1.02,.36,.13,.1,.28,.14,.45,.11,.29,.26,.76,.17,1,.52l-.04-.03c.21,.11,.35,.3,.54,.44h.02c.13,.19,.29,.33,.47,.44l.05,.04c.11,.18,.25,.34,.43,.47l.02,.02c.13,.19,.32,.34,.43,.54l-.03-.03c.33,.23,.23,.7,.53,.94h0c.27,.3,.21,.74,.45,1.04-.04,.16,0,.3,.1,.43,.19,.35,.2,.75,.35,1.11l.1,.81c.29,2.24,.35,4.48-.02,6.72l-.07,.84c-.48,.79,.1,1.76-.44,2.54-.1,.11-.11,.22-.05,.35-.32,.47-.07,1.09-.39,1.56-.1,.14-.12,.28-.07,.44-.4,.42-.06,1.05-.42,1.49-.1,.11-.13,.24-.08,.39-.36,.45-.02,1.12-.48,1.54v-.02c-.41,.4,0,1.08-.49,1.47v-.03c-.23,.28-.17,.69-.38,.99-.11,.11-.14,.23-.1,.38-.2,.34-.16,.77-.44,1.08h0c-.29,.25-.2,.67-.42,.95-.11,.1-.15,.22-.11,.37-.2,.34-.14,.8-.48,1.08l.02-.03c-.25,.29-.18,.73-.47,1h0c-.28,.26-.2,.7-.47,.97h0c-.3,.26-.22,.69-.46,.97v.02c-.33,.23-.23,.67-.48,.94v.03c-.34,.23-.24,.67-.48,.94v.03c-.34,.23-.24,.67-.48,.94v.03c-.34,.22-.24,.67-.5,.93h0c-.31,.25-.21,.7-.48,.96h0c-.3,.25-.21,.7-.48,.96h0c-.3,.26-.21,.69-.47,.97v.02c-.33,.23-.22,.66-.46,.93-.11,.08-.14,.18-.1,.31-.04,.26-.21,.45-.36,.65-.11,.1-.15,.23-.11,.38-.2,.34-.16,.78-.45,1.08h0c-.45,.38-.04,1.06-.5,1.44v-.02c-.41,.4-.07,1.02-.41,1.45l-.09,.86c-.33,1.22-.32,2.43,0,3.65-.16,.76-.07,1.52,.09,2.27,.42,.81-.05,1.75,.38,2.56l.08,.81c.45,.6-.03,1.4,.43,2-.06,.15-.04,.28,.06,.41,.36,.44,.05,1.08,.42,1.52-.05,.15-.02,.29,.08,.41,.22,.32,.19,.74,.38,1.06-.04,.15-.01,.27,.09,.38,.23,.29,.15,.7,.41,.97v-.02c.3,.29,.24,.74,.46,1.07-.03,.16,.02,.29,.13,.39,.12,.18,.24,.35,.36,.52l-.03-.04c.35,.22,.25,.7,.53,.96h0c.21,.17,.39,.37,.44,.65-.01,.15,.05,.25,.18,.32,.08,.18,.21,.32,.37,.42l.02,.02c.13,.19,.3,.34,.45,.51h-.01c.18,.14,.35,.3,.49,.5l-.02-.02c.2,.13,.36,.31,.52,.48h-.01c.16,.14,.33,.29,.51,.43l.03,.02c.09,.16,.23,.28,.41,.35,.1,.13,.23,.2,.39,.19,.22,.08,.39,.24,.59,.37,.09,.11,.2,.15,.34,.12,.25,.04,.42,.23,.63,.35,.13,.11,.28,.14,.45,.1,.28,.25,.68,.2,.99,.37,.46,.04,.92,.08,1.38,.13,.71,.34,1.42,.3,2.14,0,.62,.12,1.23,.03,1.83-.15,.34-.15,.73-.15,1.05-.34l.87-.15c.22-.11,.4-.29,.66-.32l.78-.18c.19-.11,.39-.22,.58-.32,.15,.03,.27,0,.38-.11,.2-.14,.39-.31,.65-.35,.13,.04,.23,0,.31-.11,.19-.15,.38-.31,.62-.38,.15,.02,.26-.03,.35-.15,.18-.11,.34-.23,.5-.37l-.02,.02c.17-.23,.38-.41,.68-.46,.14,.02,.23-.03,.3-.16,.17-.1,.33-.23,.46-.38h0c.17-.16,.33-.34,.53-.46l-.03,.03c.14-.21,.31-.38,.53-.5l-.04,.04c.12-.22,.29-.4,.52-.52l-.04,.04c.12-.22,.29-.4,.52-.52l-.04,.04c.12-.22,.29-.39,.5-.53l-.02,.03c.13-.2,.31-.35,.46-.53h0c.15-.13,.28-.28,.38-.46,.12-.06,.18-.16,.16-.3,.05-.3,.23-.51,.46-.68l-.02,.02c.14-.16,.26-.32,.37-.5,.12-.08,.17-.19,.14-.33,.06-.26,.24-.45,.4-.66l.02-.03c.34-.21,.21-.65,.46-.91,.11-.08,.14-.18,.09-.3,.04-.26,.21-.45,.35-.66,.11-.11,.15-.24,.11-.39,.21-.32,.16-.75,.41-1.06,.1-.1,.13-.22,.09-.36,.18-.34,.16-.75,.37-1.08,.1-.14,.13-.28,.08-.45,.49-.58-.02-1.39,.44-1.97,.09-.13,.11-.27,.05-.42,.62-.9-.24-2.08,.57-2.94l.69,.03c.25,.04,.42,.23,.63,.34,.1,.11,.23,.15,.37,.13,.24,.09,.41,.26,.62,.4l.04,.02c.19,.35,.7,.22,.88,.58l-.04-.04c.22,.12,.39,.29,.53,.5l-.03-.03c.21,.14,.38,.31,.5,.52l-.03-.04c.26,.16,.44,.37,.49,.68-.03,.12,0,.22,.12,.28,.15,.2,.32,.39,.37,.66-.06,.12-.04,.22,.07,.3,.37,1.11,.29,2.23,.04,3.35-.1,.13-.12,.27-.08,.43-.24,.3-.18,.71-.4,1.02-.11,.09-.14,.2-.11,.34-.06,.24-.22,.42-.36,.62-.11,.09-.15,.2-.12,.34-.07,.26-.25,.45-.41,.65v.02c-.34,.22-.22,.7-.56,.92l.03-.03c-.13,.17-.26,.34-.39,.51-.12,.06-.16,.16-.13,.29-.05,.3-.23,.51-.46,.68l.02-.02c-.14,.16-.27,.33-.39,.5-.12,.06-.16,.15-.13,.27-.04,.31-.23,.52-.48,.69l.03-.03c-.11,.21-.3,.35-.44,.54v.02c-.33,.22-.21,.73-.61,.9l.05-.05c-.08,.25-.27,.42-.48,.55l.03-.03c-.12,.21-.3,.37-.47,.53h0c-.16,.15-.3,.32-.44,.5l-.03,.04c-.18,.11-.32,.26-.41,.45l-.05,.06c-.37,.15-.22,.7-.63,.82l.06-.05c-.08,.27-.26,.45-.53,.53l.05-.05c-.08,.27-.26,.45-.53,.53l.06-.04c-.11,.3-.33,.47-.64,.53-.15,0-.25,.08-.31,.21-.18,.06-.3,.17-.36,.35l-.07,.06c-.19,.1-.35,.24-.48,.41h-.02c-.19,.15-.33,.33-.53,.46l.03-.02c-.16,.22-.36,.4-.63,.47-.15,0-.27,.05-.35,.18-.18,.09-.33,.2-.45,.35h0c-.19,.19-.38,.37-.65,.43-.14-.02-.25,.02-.33,.13-.19,.12-.36,.28-.57,.37-.16-.02-.29,.02-.4,.14-.2,.1-.36,.27-.58,.34-.15-.03-.27,0-.38,.11-.29,.21-.7,.12-.96,.4l-.49,.1c-.32,.17-.72,.14-1.02,.36l-.22-.03-.2,.09c-1.92,.34-3.84,.31-5.76,.02l-.22-.09-.23,.02c-.42-.41-1.08-.05-1.49-.47h0c-.25-.28-.66-.21-.95-.41-.11-.11-.23-.14-.38-.11-.22-.07-.38-.24-.58-.34-.11-.11-.25-.16-.41-.13-.18-.12-.37-.24-.55-.35-.1-.11-.22-.16-.37-.14-.24-.08-.42-.26-.63-.4l-.04-.02c-.2-.34-.69-.22-.9-.55l.03,.03c-.2-.12-.34-.31-.54-.41l-.05-.03c-.19-.35-.7-.22-.88-.58l.04,.04c-.22-.11-.38-.29-.54-.47h.01c-.18-.13-.32-.3-.51-.43l-.03-.02c-.12-.18-.27-.31-.46-.41l-.07-.06c-.06-.17-.18-.29-.35-.34-.06-.14-.16-.21-.31-.22-.31-.06-.53-.23-.64-.53l.06,.04c-.27-.08-.45-.26-.53-.53l.05,.05c-.27-.08-.45-.26-.53-.53l.06,.05c-.41-.12-.26-.67-.63-.82l-.05-.06c-.09-.19-.23-.35-.41-.47l-.02-.03c-.12-.19-.3-.34-.44-.52l.02,.02c-.19-.16-.37-.32-.47-.54l.04,.04c-.37-.18-.23-.69-.59-.87l-.03-.05c-.1-.21-.29-.35-.41-.53l.02,.03c-.24-.18-.42-.38-.46-.69,.03-.12,0-.22-.12-.28-.13-.17-.26-.35-.39-.53l.04,.04c-.35-.22-.26-.7-.53-.96h0c-.3-.24-.21-.69-.49-.96h0c-.29-.25-.21-.7-.48-.97v.02c-.3-.29-.24-.74-.46-1.07,.04-.15,0-.28-.11-.39-.2-.29-.14-.7-.4-.97v.02c-.44-.41-.08-1.08-.47-1.51,.05-.16,.02-.3-.08-.43-.32-.46-.04-1.07-.39-1.52,.06-.14,.04-.28-.05-.4-.48-.81,.03-1.77-.41-2.58,0-1.81,0-3.63,0-5.44,.48-.97-.08-2.07,.4-3.04l.09-.82c.3-.49,.06-1.1,.38-1.59,.1-.14,.12-.28,.07-.44,.4-.42,.07-1.05,.41-1.49,.1-.12,.13-.26,.08-.41,.38-.44,.03-1.11,.48-1.53v.02c.42-.4,.02-1.08,.49-1.46v.02c.24-.28,.18-.68,.39-.98,.11-.11,.14-.24,.1-.39,.22-.32,.15-.76,.43-1.06,.11-.08,.13-.17,.07-.29,.03-.26,.21-.45,.34-.66,.11-.12,.15-.26,.11-.41,.23-.32,.17-.75,.44-1.05h0c.3-.25,.21-.66,.42-.94,.11-.11,.15-.23,.11-.38,.21-.34,.15-.78,.45-1.08h0c.27-.25,.19-.67,.42-.95,.11-.09,.15-.21,.11-.35,.18-.36,.15-.8,.44-1.11h0c.27-.25,.2-.66,.41-.95,.11-.11,.14-.25,.1-.4,.22-.32,.17-.73,.4-1.05,.11-.11,.14-.24,.09-.38,.2-.33,.17-.74,.38-1.06,.1-.12,.13-.26,.09-.41,.37-.45,.04-1.09,.43-1.53,.1-.11,.12-.23,.06-.36,.32-.47,.07-1.08,.38-1.56l.1-.86c.35-2.17,.34-4.34,0-6.51,.05-.14,.02-.26-.08-.37-.25-.26-.13-.7-.46-.92l-.02-.03c-.14-.18-.29-.34-.44-.5h0c-.14-.14-.3-.27-.47-.38-.11-.12-.25-.16-.41-.12-.73-.37-1.46-.26-2.2-.03l-.8,.13c-.29,.2-.69,.12-.94,.41h0c-.17,.16-.32,.34-.54,.45v-.03c-.1,.28-.24,.31-.41,.06Z"/>
      </g>
      <g>
        <path class="d" d="M54.83,237.28c.07-.13,.09-.26,.08-.4,.1-.21,.26-.38,.4-.56,.07-.13,.09-.26,.08-.4,.1-.21,.26-.38,.4-.56,.07-.13,.09-.26,.08-.4,.1-.21,.26-.38,.4-.56,.07-.13,.09-.26,.08-.4,.1-.21,.26-.38,.4-.56,.07-.12,.09-.26,.08-.4,.1-.22,.26-.4,.41-.57,.06-.11,.09-.22,.07-.35,.54-.58,.65,.15,.94,.31v.02c.26,.27,.17,.71,.48,.95v.02c.26,.27,.17,.71,.48,.95v.02c.26,.27,.17,.71,.48,.95v.02c.26,.27,.17,.71,.48,.95v.02c.26,.27,.17,.71,.48,.95v.02c.26,.27,.17,.71,.48,.95v.02c.26,.27,.17,.71,.48,.95v.02c.26,.27,.17,.71,.48,.95v.02c.26,.27,.17,.71,.48,.95v.02c.26,.27,.17,.71,.48,.95v.02c.26,.27,.17,.71,.48,.95v.02c.26,.27,.17,.71,.48,.95v.02c.26,.27,.17,.71,.48,.95v.02c.26,.33,.27,.65-.03,.96l.02-.02c-.14,.15-.28,.31-.4,.48-.07,.13-.1,.26-.1,.4-.11,.22-.28,.4-.43,.58v.02c-.33,.23-.23,.69-.52,.93h0c-.28,.25-.19,.72-.52,.95l.02-.02c-.14,.17-.28,.34-.42,.51-.07,.11-.1,.23-.08,.37-.09,.24-.26,.43-.45,.61h0c-.29,.25-.2,.71-.51,.95l.02-.02c-.14,.16-.28,.33-.41,.49-.07,.12-.1,.25-.09,.39-.1,.23-.27,.41-.44,.6h0c-.31,.25-.21,.71-.51,.95v-.02c-.13,.15-.26,.31-.38,.48-.07,.13-.11,.26-.1,.41-.11,.22-.28,.39-.43,.58l-.02,.03c-.33,.22-.22,.68-.51,.93h0c-.29,.25-.19,.71-.52,.95l.02-.02c-.14,.17-.28,.33-.41,.5-.07,.12-.1,.24-.09,.38-.1,.24-.27,.42-.44,.6h0c-.3,.25-.2,.71-.51,.95l.02-.02c-.14,.16-.28,.32-.4,.49-.07,.12-.1,.26-.1,.4-.11,.22-.28,.4-.43,.59v.02c-.33,.23-.23,.69-.52,.94h0c-.28,.25-.19,.72-.52,.95l.02-.02c-.14,.17-.28,.34-.42,.51-.07,.11-.1,.23-.08,.37-.09,.24-.26,.43-.44,.61-.3,.25-.2,.71-.51,.96l.02-.02c-.14,.16-.28,.32-.41,.49-.07,.12-.1,.25-.09,.39-.1,.23-.27,.41-.43,.59h0c-.31,.25-.21,.71-.51,.96h0c-.28,.25-.19,.72-.51,.95l.02-.02c-.14,.17-.28,.34-.43,.51-.07,.11-.09,.23-.08,.36-.09,.25-.26,.44-.45,.62h0c-.29,.25-.2,.71-.51,.95l.02-.02c-.14,.16-.28,.33-.41,.5-.07,.12-.1,.25-.09,.39-.1,.23-.27,.41-.44,.6h0c-.31,.25-.21,.71-.51,.95v-.02c-.13,.15-.26,.31-.38,.48-.07,.13-.11,.26-.1,.41-.11,.21-.26,.39-.42,.56-.07,.11-.09,.23-.07,.35-.09,.25-.26,.44-.45,.62h0c-.29,.25-.19,.71-.51,.96l.02-.02c-.14,.16-.28,.33-.41,.5-.07,.12-.1,.25-.09,.38-.1,.23-.27,.41-.44,.6h0c-.31,.25-.21,.71-.51,.96v-.02c-.13,.15-.26,.31-.38,.48-.07,.13-.11,.26-.1,.41-.11,.21-.26,.39-.42,.56-.07,.11-.09,.23-.07,.35-.09,.25-.26,.44-.45,.62h0c-.29,.25-.19,.71-.51,.96l.02-.02c-.14,.16-.28,.33-.41,.5-.07,.12-.1,.25-.09,.38-.1,.23-.27,.41-.44,.6h0c-.31,.25-.21,.71-.51,.96h0c-.27,.25-.18,.72-.51,.96l.02-.02c-.14,.17-.28,.34-.43,.51-.07,.11-.09,.23-.08,.36-.09,.25-.26,.44-.45,.62h0c-.29,.25-.2,.71-.51,.95l.02-.02c-.14,.16-.28,.33-.41,.5-.07,.12-.1,.25-.09,.39-.1,.23-.27,.41-.43,.59h0c-.31,.25-.21,.71-.51,.96h0c-.28,.25-.19,.71-.51,.96l.02-.02c-.14,.17-.28,.34-.42,.51-.07,.11-.09,.23-.08,.36-.09,.24-.26,.43-.44,.61-.3,.25-.2,.71-.51,.96l.02-.02c-.14,.16-.28,.32-.41,.49-.07,.12-.1,.25-.09,.39-.11,.24-.29,.42-.51,.57-.44,0-.89,0-1.33-.01-.59-.46-1.36,0-1.96-.4l-2.82-.08c-.38-.29-.37-.6-.05-.93l-.02,.02c.14-.19,.31-.35,.47-.51h0c.16-.15,.3-.31,.43-.49l.03-.04c.34-.2,.22-.69,.55-.9l-.03,.02c.13-.2,.31-.35,.46-.52,.15-.14,.29-.29,.41-.46,.08-.12,.11-.25,.11-.39,.11-.23,.27-.41,.45-.59h0c.3-.25,.2-.72,.52-.95l-.02,.02c.14-.16,.28-.33,.41-.5,.07-.12,.1-.25,.08-.39,.1-.22,.27-.4,.42-.59v-.02c.34-.22,.22-.67,.49-.93,.06-.11,.08-.23,.06-.36,.09-.23,.24-.42,.4-.6,.06-.13,.09-.26,.08-.4,.23-.32,.16-.77,.47-1.05h0c.27-.25,.18-.68,.43-.95,.06-.14,.08-.28,.06-.43,.25-.29,.18-.71,.41-1.01l.06-.48c.52-.56-.02-1.37,.45-1.94l.05-.9c.36-1.33,.36-2.66,0-3.99,0-.42,0-.85,.01-1.27,.09-.23,.25-.41,.41-.59,.06-.12,.09-.24,.07-.38,.09-.23,.25-.41,.41-.59,.06-.12,.09-.24,.07-.37,.1-.24,.27-.42,.43-.61h0c.31-.25,.22-.69,.47-.96v-.02c.32-.24,.23-.68,.48-.95v-.02c.32-.24,.23-.68,.48-.95v-.02c.32-.24,.23-.68,.48-.95v-.02c.32-.24,.23-.68,.48-.95h0c.31-.25,.22-.7,.49-.96h0c.3-.25,.21-.7,.48-.96h0c.3-.25,.21-.7,.48-.96h0c.3-.25,.21-.7,.48-.96h0c.3-.25,.21-.7,.48-.96h0c.3-.25,.21-.7,.48-.96h0c.29-.25,.2-.7,.49-.96h0c.28-.26,.2-.7,.49-.96h0c.28-.26,.2-.7,.49-.96h0c.28-.26,.2-.7,.49-.96h0c.28-.26,.2-.7,.49-.96h0c.28-.25,.2-.7,.49-.96h0c.28-.26,.19-.71,.5-.96v.02c.26-.27,.18-.72,.48-.98v.02c.26-.27,.18-.72,.48-.98v.02c.26-.27,.18-.72,.48-.98v.02c.26-.27,.18-.72,.48-.98v.02c.26-.27,.18-.73,.49-.98v.02c.25-.28,.17-.73,.49-.98v.02c.25-.28,.17-.73,.48-.98v.02c.25-.28,.17-.73,.48-.98v.02c.25-.28,.17-.73,.48-.98v.02c.25-.28,.17-.73,.48-.98v.02c.25-.28,.16-.73,.49-.98l-.02,.02c.14-.16,.27-.33,.4-.5,.07-.13,.1-.27,.09-.42,.13-.18,.26-.37,.39-.54,.07-.13,.1-.27,.09-.42,.13-.18,.26-.37,.39-.54,.07-.13,.1-.27,.09-.42,.13-.18,.26-.37,.39-.54,.07-.13,.1-.27,.09-.42,.13-.18,.26-.37,.39-.54,.07-.13,.1-.27,.09-.42,.11-.2,.26-.37,.4-.55,.07-.13,.1-.26,.09-.4,.1-.21,.26-.38,.4-.56Z"/>
        <path class="d" d="M38.47,236.8c.06-.12,.08-.25,.06-.38,.09-.22,.25-.4,.4-.58,.06-.13,.09-.26,.07-.41,.12-.19,.25-.37,.39-.55,.07-.14,.1-.29,.09-.44,.25-.29,.17-.75,.48-1.02h0c.28-.25,.19-.76,.61-.94l.85-.1c.43-.32,1.04,.01,1.45-.41l.97-.09c.32-.19,.71-.15,1.02-.37l.9-.08c.43-.35,1.06-.02,1.48-.42l.94-.09c.43-.32,1.04,.01,1.44-.41,.32-.03,.64-.06,.97-.09,.32-.19,.71-.15,1.02-.37l.9-.08c.51-.18,1.04-.4,.93,.53h0c-.29,.25-.2,.7-.49,.96h0c-.28,.26-.2,.7-.49,.96h0c-.28,.26-.2,.7-.49,.96h0c-.28,.25-.19,.71-.5,.96v-.02c-.26,.27-.18,.72-.48,.98v-.02c-.26,.27-.18,.72-.48,.98v-.02c-.26,.27-.18,.72-.48,.98v-.02c-.26,.27-.18,.72-.48,.98v-.02c-.26,.27-.18,.72-.49,.98v-.02c-.25,.28-.17,.73-.49,.98v-.02c-.25,.28-.17,.73-.48,.98v-.02c-.25,.28-.17,.73-.48,.98v-.02c-.25,.28-.17,.73-.48,.98v-.02c-.25,.28-.17,.73-.48,.98v-.02c-.25,.28-.16,.73-.49,.98l.02-.02c-.14,.16-.27,.33-.4,.5-.07,.13-.1,.27-.09,.42-.13,.18-.26,.37-.39,.54-.07,.13-.1,.27-.09,.42-.13,.18-.26,.37-.39,.54-.07,.13-.1,.27-.09,.42-.13,.18-.26,.37-.39,.54-.07,.13-.1,.27-.09,.42-.13,.18-.26,.37-.39,.54-.07,.13-.1,.27-.09,.42-.12,.19-.26,.36-.4,.54-.07,.13-.1,.26-.09,.4-.1,.21-.26,.38-.4,.56-.07,.13-.09,.26-.08,.4-.1,.21-.26,.38-.4,.56-.07,.13-.09,.26-.08,.4-.1,.21-.26,.38-.4,.56-.07,.13-.09,.26-.08,.4-.1,.21-.26,.38-.4,.56-.07,.13-.09,.26-.08,.4-.1,.21-.26,.38-.4,.56-.07,.13-.09,.26-.08,.4-.1,.21-.26,.39-.41,.57-.07,.12-.09,.24-.08,.38-.09,.23-.25,.41-.41,.59-.06,.12-.09,.24-.07,.38-.09,.23-.25,.41-.41,.59-.06,.12-.09,.24-.07,.38-.09,.23-.25,.41-.41,.59-.06,.12-.09,.24-.07,.38-.09,.23-.25,.41-.41,.59-.06,.12-.09,.24-.07,.38-.09,.23-.25,.41-.41,.59-.06,.12-.09,.24-.07,.38-.1,.23-.27,.41-.42,.6v.02c-.33,.23-.23,.67-.49,.94v.02c-.32,.24-.23,.68-.48,.95v.02c-.32,.24-.23,.68-.48,.95v.02c-.32,.24-.23,.68-.48,.95v.02c-.32,.24-.23,.68-.48,.95v.02c-.32,.24-.23,.68-.49,.95h0c-.3,.25-.21,.7-.49,.96h0c-.32,.27-.64,.27-.96,0h0c-.17-.16-.33-.32-.48-.5h.01c-.18-.13-.35-.3-.5-.48h.01c-.18-.13-.33-.3-.5-.46h0c-.15-.16-.31-.31-.49-.43l-.05-.03c-.2-.35-.68-.22-.9-.54l.02,.02c-.15-.14-.32-.26-.49-.38l-.5-.09c-.83-.44-1.67-.31-2.51-.04l-.89,.12c-.43,.05-.64-.1-.48-.56,.06-.12,.08-.25,.06-.38,.09-.22,.25-.4,.4-.58,.06-.13,.09-.26,.07-.4,.1-.2,.26-.37,.39-.55,.07-.14,.1-.29,.09-.44,.25-.29,.17-.75,.48-1.02h0c.27-.26,.19-.7,.47-.97h0c.29-.25,.19-.69,.46-.96,.06-.11,.08-.23,.06-.36,.09-.23,.24-.42,.4-.6,.06-.12,.09-.26,.07-.4,.1-.21,.25-.38,.39-.56,.07-.14,.1-.28,.09-.43,.24-.3,.17-.76,.48-1.03v.02c.25-.28,.18-.72,.46-.99h0c.28-.26,.21-.69,.47-.97h0c.31-.25,.2-.69,.46-.95,.06-.12,.08-.25,.06-.38,.09-.22,.25-.39,.39-.58,.07-.13,.09-.27,.09-.42,.24-.31,.16-.76,.48-1.03v.02c.25-.28,.17-.72,.47-.99h0c.28-.26,.2-.7,.47-.97h0c.3-.25,.2-.69,.46-.95,.06-.12,.08-.24,.06-.37,.09-.23,.25-.41,.4-.59,.06-.13,.09-.26,.07-.4,.1-.2,.26-.37,.39-.55,.07-.14,.1-.28,.09-.43,.25-.3,.17-.75,.48-1.03h0c.27-.26,.19-.7,.47-.97h0c.29-.26,.21-.69,.46-.97h0c.31-.25,.2-.68,.45-.95,.06-.12,.09-.25,.07-.39,.1-.21,.25-.39,.39-.57,.07-.13,.09-.28,.09-.43,.24-.3,.16-.76,.48-1.03v.02c.25-.28,.17-.72,.47-.99h0c.28-.26,.2-.69,.47-.97h0c.3-.25,.2-.69,.46-.95Z"/>
        <path class="f" d="M134.44,186.22c0-.96,0-1.92,0-2.88,0-.82,0-1.64-.01-2.46,0-1.12,0-2.25,0-3.37,0-.31,0-.62,.01-.94l-.13-2.73c-.39-.64,0-1.43-.38-2.08-.16-.22-.21-.46-.11-.72-.25-.53-.05-1.18-.4-1.69-.14-.08-.17-.19-.07-.33-.32-.49-.03-1.14-.44-1.6h0c-.43-.39-.06-1.04-.45-1.45l-.13-.12,.05-.17c-.14-.38-.15-.82-.42-1.16h0c-.47-.36-.02-1.08-.55-1.42-.18-.31-.15-.71-.42-.99h0c-.28-.26-.21-.69-.46-.97v-.02c-.33-.23-.23-.67-.47-.95v-.03c-.34-.22-.23-.68-.51-.93h0c-.3-.25-.2-.71-.52-.94-.23-.27-.16-.72-.53-.89-.04-.25-.23-.4-.39-.57h0c-.29-.22-.2-.71-.57-.88-.05-.25-.24-.4-.42-.56v.02c-.14-.17-.28-.34-.4-.53l-.03-.04c-.34-.16-.23-.67-.6-.8-.05-.26-.22-.41-.45-.53-.1-.22-.27-.37-.46-.51-.13-.19-.29-.34-.46-.5-.15-.17-.31-.33-.48-.48h0c-.15-.16-.31-.32-.48-.47-.15-.17-.32-.34-.49-.49h.01c-.15-.16-.3-.33-.5-.45-.13-.19-.29-.36-.51-.46-.11-.23-.27-.4-.53-.44-.13-.39-.64-.28-.82-.61l-.03-.02c-.2-.12-.34-.31-.55-.42l.03,.02c-.16-.25-.37-.43-.68-.46-.15,.05-.24,0-.27-.15-.18-.12-.35-.24-.53-.37l.03,.02c-.22-.34-.7-.23-.93-.54h-.01c-.27-.26-.71-.17-.96-.48h0c-.31-.27-.74-.23-1.08-.43-.15,.07-.28,.04-.38-.1-.33-.21-.75-.19-1.09-.38-.14,.08-.26,.06-.36-.08-.48-.35-1.11-.1-1.61-.4-.59-.05-1.18-.1-1.77-.15-.96-.21-1.92-.23-2.87,.01-.44,.04-.89,.08-1.33,.12-.47,.34-1.11,.04-1.56,.43l-.12,.12-.17-.04c-.39,.15-.84,.12-1.15,.46l.03-.02c-.29,.24-.74,.16-.99,.49h.03c-.28,.23-.74,.15-.95,.51-.22,.07-.36,.26-.55,.38h-.02c-.2,.33-.68,.23-.86,.58-.24,.07-.4,.25-.54,.44l.02-.02c-.19,.13-.34,.31-.53,.45h-.01c-.14,.18-.3,.33-.48,.45l-.04,.03c-.11,.19-.26,.33-.45,.42l-.06,.05c-.2,.27-.49,.45-.77,.28-.28-.16-.33-.48-.13-.79-.1-.16-.08-.3,.05-.43,.32-2.25,.37-4.49-.02-6.74l-.12-.14,.06-.17c-.31-.49,0-1.16-.47-1.6v.03c-.22-.3-.17-.72-.41-1.02v-.02c-.33-.23-.23-.67-.49-.94v-.02c-.33-.22-.21-.7-.55-.91-.1-.19-.28-.33-.39-.52l-.02-.03c-.33-.17-.22-.69-.61-.81-.04-.28-.2-.43-.46-.5-.07-.25-.23-.42-.48-.48-.07-.25-.23-.41-.48-.47-.07-.27-.23-.45-.53-.46-.1-.42-.62-.3-.81-.61h-.01c-.18-.14-.32-.32-.53-.42-.19-.33-.68-.21-.86-.56l-.04-.02c-.2-.1-.34-.29-.55-.37-.21-.36-.68-.27-.94-.53h.02c-.25-.3-.7-.21-.96-.49h0c-.26-.28-.71-.19-.96-.49h0c-.28-.27-.71-.2-1-.46h.02c-.3-.31-.74-.27-1.1-.45-.14,.07-.26,.04-.34-.1-.32-.24-.74-.19-1.06-.4-.15,.08-.28,.05-.38-.08-.37-.21-.79-.25-1.19-.37-.25-.04-.49-.08-.74-.13-.5-.29-1.11-.09-1.62-.37-.59-.05-1.17-.1-1.76-.14-2.08-.23-4.16-.24-6.24,0-.59,.04-1.19,.09-1.78,.13-.49,.29-1.09,.09-1.59,.35l-.9,.11c-.44,.38-1.06,.07-1.51,.4-.12,.13-.26,.15-.42,.07-.3,.24-.69,.2-1.02,.36-.25,.06-.5,.11-.74,.17-.4,.12-.84,.14-1.19,.41l-.1,.12-.15-.05c-.28,0-.48,.19-.71,.32-.12,.14-.26,.17-.43,.11-.29,.26-.73,.17-1.02,.43-.05,.14-.15,.17-.28,.1-.27,.02-.47,.2-.68,.34-.09,.14-.21,.18-.36,.12-.23,.06-.39,.24-.6,.34-.1,.14-.24,.18-.4,.13-.31,.23-.77,.15-1.02,.51-.3,.2-.74,.14-.95,.51-.18,.1-.35,.2-.52,.32-.06,.15-.17,.19-.32,.14-.27,.05-.46,.24-.66,.4h-.02c-.22,.34-.69,.22-.92,.54l.03-.02c-.16,.13-.33,.25-.51,.36-.06,.15-.17,.21-.33,.16-.27,.06-.46,.24-.64,.42h0c-.23,.29-.71,.19-.88,.57-.24,.06-.4,.23-.56,.4-.34,.23-.86,.23-.99,.75-.23,.22-.45,.46-.7,.65-9.91,7.5-16.95,17.18-21.59,28.65-2.6,6.43-4.16,13.09-4.8,20.02-.42,4.52-.21,8.97,.4,13.42,.85,6.28,3.08,12.08,6.39,17.48-.11,.5,.23,.71,.59,.92h0c.38,.42,.55,1.01,1.03,1.36,.07,.25,.25,.4,.46,.53,.11,.2,.28,.36,.45,.51h0c.15,.16,.32,.32,.46,.49h0c.17,.15,.32,.31,.46,.49h.01c.17,.15,.33,.31,.47,.48h.01c.17,.15,.33,.31,.47,.48h.01c.18,.15,.33,.32,.5,.47h0c.16,.16,.31,.33,.5,.45,.13,.2,.29,.37,.52,.45,.12,.28,.33,.45,.64,.49,.15-.04,.24,.02,.27,.17,.18,.1,.34,.22,.48,.38h0c.17,.16,.32,.34,.55,.41,.18,.37,.66,.27,.89,.56h0c.19,.2,.38,.38,.67,.42h.18l.11,.14c.2,.13,.37,.3,.6,.37h.21l.16,.14c.2,.11,.37,.28,.59,.35h.21l.16,.13c.21,.11,.38,.3,.63,.34l.19-.02,.14,.13c.3,.23,.72,.15,1,.42l.24-.03,.21,.12c.33,.19,.74,.16,1.07,.36,.29,.04,.57,.08,.86,.12,1.76,.24,3.52,.26,5.28-.01,.25-.04,.5-.09,.75-.13,.4-.12,.84-.14,1.19-.42h0c.26-.28,.69-.19,.97-.44l.08-.13,.15,.03c.32,0,.53-.2,.72-.42h0c.24-.27,.72-.18,.9-.55,.24-.06,.39-.24,.55-.42h-.01c.16-.15,.33-.29,.52-.41l.04-.03c.15-.34,.68-.22,.78-.62,.3-.01,.45-.19,.52-.46,.25-.06,.41-.22,.48-.47,.25-.07,.41-.23,.48-.48,.27-.08,.45-.23,.46-.53,.55-.26,.64-.93,1.09-1.28l.02-.02c.12-.2,.31-.33,.43-.53h-.03c.22-.09,.43-.18,.6-.36,0-.01,.21,.04,.21,.04,0,0-.1,.19-.09,.17,.02,.39,.13,.81-.14,1.19l-.03-.04c-.5,.63-.05,1.45-.44,2.1-.03,.26-.06,.53-.09,.79-.3,2.09-.36,4.18,.05,6.26l.12,.12-.07,.15c.29,.51,0,1.18,.46,1.64v-.03c.22,.29,.16,.71,.4,1,.15,.05,.18,.15,.11,.29,.03,.27,.2,.47,.37,.67l.14,.09-.02,.17c.02,.31,.21,.51,.43,.7h0c.28,.22,.18,.72,.58,.85,.02,.29,.2,.44,.44,.54,.09,.22,.25,.38,.45,.5,.12,.2,.28,.36,.48,.48,.12,.2,.28,.36,.48,.48,.12,.2,.28,.37,.5,.45,.1,.24,.26,.42,.54,.44,.13,.4,.63,.3,.84,.6h0c.17,.15,.32,.33,.55,.4,.19,.36,.66,.27,.9,.55h0c.2,.21,.4,.4,.71,.41l.16-.02,.09,.13c.2,.17,.4,.34,.67,.37l.18-.02,.11,.14c.21,.16,.41,.35,.69,.36l.16-.03,.1,.13c.28,.26,.72,.17,1,.44,.15,.04,.3,.07,.45,.11,.23,.13,.42,.32,.71,.32,.25,.06,.49,.11,.74,.17,.33,.17,.72,.13,1.03,.36l.22-.04,.19,.12c.49,.32,1.11,.09,1.61,.38,.43,.04,.86,.09,1.29,.13,2.72,.26,5.45,.25,8.17,0,.46-.04,.91-.08,1.37-.12,.45-.35,1.05-.1,1.52-.36,.3-.04,.6-.08,.9-.12,.44-.37,1.07-.06,1.52-.41l.18-.12,.21,.04c.32-.21,.73-.18,1.06-.37l.45-.09c.28-.27,.69-.19,.99-.39l.19-.13,.23,.03c.3-.24,.72-.17,1.03-.41l.13-.13,.19,.03c.37-.17,.82-.13,1.11-.46h-.03c.3-.23,.73-.17,1.01-.44h0c.25-.3,.69-.2,.96-.46l.09-.13,.15,.03c.31,0,.52-.2,.74-.38h.02c.22-.34,.68-.23,.93-.5h0c.25-.3,.71-.2,.95-.52h-.02c.27-.24,.73-.16,.94-.52,.22-.06,.35-.24,.53-.35l.08-.14h.16c.32,0,.53-.19,.71-.43h-.02c.16-.12,.33-.25,.51-.35,.05-.15,.15-.21,.31-.16,.29-.04,.49-.22,.66-.44h-.02c.15-.13,.32-.25,.5-.36,.04-.15,.13-.21,.28-.16,.31-.03,.51-.21,.66-.47,.2-.1,.34-.28,.52-.4h.02c.19-.33,.69-.22,.82-.61,.28-.03,.43-.22,.55-.44,.21-.1,.35-.27,.52-.42h0c.15-.16,.32-.31,.5-.43l.04-.03c.15-.34,.68-.22,.78-.62,.3-.01,.45-.19,.53-.45,.24-.07,.4-.23,.5-.45,.22-.1,.37-.26,.5-.46,.2-.12,.36-.29,.51-.47h-.01c.18-.13,.34-.3,.5-.47h0c.17-.14,.33-.31,.5-.46h0c.15-.17,.31-.32,.49-.46h.01c.14-.19,.3-.34,.47-.48h.01c.14-.19,.3-.35,.46-.5h0c.16-.17,.32-.32,.48-.5h0c.17-.15,.34-.31,.48-.5l-.02,.02c.19-.14,.36-.3,.47-.51,.2-.12,.37-.28,.46-.5,.23-.1,.39-.26,.45-.5,.27-.08,.45-.23,.45-.53,.41-.09,.29-.63,.63-.78l.03-.04c.12-.19,.26-.35,.42-.51h0c.16-.16,.34-.3,.43-.52,.22-.12,.4-.27,.43-.54,.39-.13,.28-.64,.6-.82l.02-.02c.12-.19,.29-.33,.4-.52,.21-.14,.4-.29,.43-.57,.39-.14,.29-.64,.59-.85h0c.15-.18,.33-.33,.4-.56,.36-.18,.26-.66,.57-.88h0c.14-.19,.32-.34,.39-.57,.36-.19,.27-.67,.56-.9h0c.16-.17,.36-.32,.38-.58,.39-.17,.32-.62,.53-.9,.34-.22,.24-.68,.53-.93,.28-.25,.16-.71,.5-.92v-.03c.13-.19,.33-.34,.37-.58,.38-.2,.33-.63,.49-.94,.37-.21,.32-.64,.49-.95,.36-.23,.32-.65,.47-.97,.4-.25,.34-.72,.5-1.09-.07-.14-.03-.25,.12-.31,.23-.27,.12-.7,.44-.94h0c.25-.3,.2-.73,.44-1.02v.03c.32-.3,.28-.75,.45-1.11-.08-.14-.04-.25,.11-.32,.23-.29,.17-.71,.41-1v.03c.48-.36,.05-1.06,.51-1.43h0c.26-.36,.3-.8,.41-1.21l-.05-.15,.12-.09c.42-.4,.02-1.06,.47-1.45h0c.41-.43,.09-1.08,.45-1.53-.08-.16-.06-.29,.08-.39,.34-.43,.01-1.05,.41-1.47v.02c.54-.57,0-1.41,.47-2-.09-.15-.07-.29,.07-.4,.43-.6-.05-1.4,.42-1.99-.1-.15-.08-.29,.05-.42,.48-.79-.06-1.74,.41-2.53,.04-.92,.08-1.85,.12-2.77v-1.91Zm-69.9,15.09c-1.72,3.35-3.54,6.65-5.73,9.73-1.26,1.77-2.65,3.43-4.33,4.82-3.24,2.66-6.82,3.36-10.78,1.77-6.16-2.47-9.97-7.04-11.89-13.3-.11-1.47,.27-2.86,.62-4.26,3.52-14.23,7.2-28.43,10.77-42.65,.34-1.34,.9-2.56,1.44-3.81,5.84-6.97,12.76-12.37,21.68-14.81,5.27-1.44,10.48-1.23,15.47,1.21,5.39,2.64,7.4,6.64,6.45,12.57-.54,3.36-1.8,6.47-3.21,9.53-2.74,5.98-6.04,11.66-9.22,17.41-3.96,7.15-7.51,14.52-11.25,21.78Zm38.83,28.64c-4.46,3.51-9.44,6.05-15.08,7.06-5.03,.9-9.9,.44-14.43-2.15-4.45-2.55-6.33-6.41-5.7-11.48,.63-5.02,2.68-9.53,4.92-13.98,1.3-2.57,2.63-5.14,4.1-7.62,5.04-8.48,9.57-17.22,13.95-26.06,1.67-3.37,3.47-6.69,5.53-9.85,1.36-2.09,2.86-4.06,4.7-5.76,3.61-3.34,7.65-4.12,12.18-2.11,5.2,2.3,8.61,6.27,10.71,11.46,1.78,4.37,2.38,8.96,2.42,15.13-.88,17.55-8.16,33.42-23.31,45.34Z"/>
      </g>
      <path class="g" d="M44.63,153.61c-.38,3.34-1.47,6.51-2.28,9.75-3.33,13.31-6.72,26.61-10.08,39.92-.1,.38-.06,.81-.46,1.05-1.8-4.82-2.24-9.84-1.86-14.9,.6-7.9,2.55-15.48,5.92-22.67,2.26-4.82,5.2-9.18,8.76-13.14Z"/>
    </g>
  </g>
</svg>