<?xml version="1.0" encoding="UTF-8"?>
<svg id="b" data-name="圖層 2" xmlns="http://www.w3.org/2000/svg" width="164.12" height="337.65" viewBox="0 0 164.12 337.65">
  <defs>
    <style>
      .d {
        fill: #e8b958;
      }

      .e {
        fill: #c8c9ca;
      }

      .f {
        fill: #e8aa42;
      }
    </style>
  </defs>
  <g id="c" data-name="圖層 3">
    <g>
      <path class="d" d="M103.66,226.06l-.21-.08-.23,.02c-.58-.48-1.39,.02-1.98-.43l-.15-.08-.17,.02c-.98-1.69,.06-3.62-.62-5.35,.06-.14,.05-.27-.04-.4-.47-.61,0-1.42-.43-2.05,.05-.13,.04-.25-.05-.36-.4-.45-.09-1.1-.43-1.56,.05-.14,.02-.26-.07-.37-.39-.41-.01-1.05-.45-1.44h0c-.43-.39-.04-1.06-.48-1.45h0c-.28-.32-.27-.76-.43-1.12,.04-.12,.02-.23-.08-.32-.27-.3-.2-.74-.43-1.05,.03-.15,0-.29-.11-.4-.21-.28-.12-.69-.41-.94h0c-.27-.29-.21-.72-.45-1.01l.02,.03c-.34-.28-.29-.74-.48-1.09,.03-.14,0-.25-.1-.35-.23-.27-.13-.7-.44-.93h0c-.26-.29-.19-.72-.46-1h0c-.3-.25-.22-.69-.48-.98v.02c-.3-.25-.23-.7-.48-.99l.02,.03c-.33-.25-.26-.7-.49-1l.02,.03c-.35-.24-.27-.7-.51-1l.02,.03c-.35-.24-.27-.7-.51-1l.02,.03c-.35-.24-.28-.7-.5-1l.03,.04c-.37-.23-.28-.69-.52-.99l.02,.03c-.35-.24-.27-.7-.51-1l.02,.03c-.35-.24-.27-.7-.51-1l.02,.03c-.35-.24-.27-.7-.51-.99l.02,.03c-.34-.24-.26-.7-.5-.99l.02,.03c-.33-.24-.25-.7-.51-.98l.02,.02c-.32-.25-.24-.7-.5-.98v.02c-.3-.25-.22-.7-.48-.98v.02c-.3-.25-.22-.7-.48-.98v.02c-.3-.25-.22-.7-.48-.99v.02c-.3-.26-.23-.7-.47-1l.02,.03c-.33-.25-.25-.7-.5-.99l.02,.03c-.33-.25-.26-.7-.5-.99l.02,.03c-.33-.25-.26-.7-.49-1l.02,.03c-.35-.24-.27-.7-.51-1l.02,.03c-.35-.24-.27-.7-.51-1l.02,.03c-.35-.24-.27-.7-.51-1l.02,.03c-.35-.24-.27-.7-.51-1l.02,.03c-.35-.24-.27-.7-.51-1l.02,.03c-.35-.24-.27-.7-.51-.99l.02,.03c-.34-.24-.26-.7-.51-.98l.02,.03c-.32-.24-.24-.7-.51-.97h0c-.3-.23-.2-.69-.51-.93h0c-.18-.21-.36-.41-.42-.68,.03-.13-.01-.23-.12-.31-.13-.17-.26-.34-.39-.52l.03,.04c-.34-.23-.25-.7-.53-.96h0c-.27-.28-.27-.6-.1-.93,.11-.11,.15-.25,.13-.4,.21-.33,.16-.78,.46-1.07h0c.43-.39,.04-1.05,.48-1.45,.09-.1,.11-.21,.05-.33,.39-.64,0-1.43,.39-2.07,.15-.65,.14-1.3,0-1.95-.48-.75,.11-1.7-.43-2.44,.04-.16,.01-.31-.08-.45-.21-.29-.15-.7-.4-.97v.02c-.3-.26-.23-.7-.47-1l.02,.03c-.33-.25-.25-.7-.5-.99l.02,.03c-.33-.24-.24-.7-.51-.97v.02c-.3-.22-.16-.7-.53-.89l-.03-.05c-.12-.19-.26-.36-.41-.52h.01c-.18-.14-.36-.3-.48-.52l.03,.03c-.22-.13-.39-.3-.5-.53l.04,.04c-.23-.11-.4-.29-.52-.52l.04,.04c-.23-.11-.4-.29-.52-.51l.03,.04c-.22-.12-.39-.29-.53-.49l.02,.02c-.19-.13-.34-.31-.53-.44h-.02c-.22-.34-.71-.22-.92-.57l.04,.04c-.18-.13-.36-.26-.53-.4-.08-.1-.18-.13-.31-.11-.27-.05-.46-.22-.66-.39l-.15-.09h-.18c-.25-.04-.42-.22-.63-.34l-.46-.1c-.41-.42-1.06-.05-1.48-.45l-.19-.08-.2,.03c-1.39-.44-2.82-.13-4.22-.21-.78-.04-1.61,.13-2.16-.64l-.05-.06c-.09-.19-.23-.33-.42-.43l-.06-.05c-.09-.19-.24-.32-.43-.41l-.07-.06c-.16-.38-.68-.23-.84-.6l.04,.04c-.23-.1-.39-.28-.54-.47l.02,.02c-.16-.14-.32-.27-.49-.39-.08-.11-.19-.15-.32-.13-.28-.05-.47-.24-.67-.42h-.01c-.23-.32-.68-.21-.94-.47l-.14-.09h-.16c-.26-.03-.44-.2-.65-.33l-.47-.1c-.4-.43-1.08-.03-1.47-.5l.02,.02c-.21-.16-.37-.35-.48-.59,.03-.14,0-.27-.1-.38-.14-.2-.31-.39-.36-.65,.04-.12,.02-.22-.08-.3-.26-.28-.18-.71-.44-.99v.02c-.31-.29-.26-.74-.45-1.09,.03-.14,0-.26-.1-.36-.23-.28-.14-.7-.43-.96h0c-.28-.27-.22-.7-.46-1l.02,.03c-.35-.29-.31-.75-.47-1.12,.04-.12,.01-.23-.09-.32-.26-.28-.17-.71-.44-.98v.02c-.31-.29-.25-.74-.45-1.08,.03-.14,0-.27-.1-.37-.22-.28-.13-.7-.42-.95h0c-.28-.28-.21-.71-.45-1l.02,.03c-.34-.29-.3-.75-.47-1.12,.04-.13,0-.24-.09-.32-.25-.28-.17-.71-.44-.98v.02c-.3-.29-.24-.74-.46-1.07,.03-.15,0-.27-.11-.39-.21-.28-.12-.7-.42-.94h0c-.26-.29-.21-.72-.45-1.01l.02,.03c-.34-.29-.29-.75-.47-1.1,.04-.13,0-.25-.09-.34-.24-.28-.16-.7-.43-.97h0c-.3-.28-.25-.73-.46-1.06,.03-.15,0-.28-.11-.39-.21-.28-.12-.69-.42-.93h0c-.26-.29-.2-.72-.45-1.01l.02,.03c-.33-.29-.29-.75-.47-1.1,.03-.13,0-.25-.1-.34-.24-.28-.15-.7-.43-.96h0c-.3-.28-.24-.73-.46-1.05,.03-.15,0-.28-.11-.4-.15-.2-.32-.39-.36-.66,.05-.12,.02-.21-.07-.29-.27-.28-.18-.71-.44-.99v.02c-.31-.29-.26-.74-.45-1.09,.03-.14,0-.26-.1-.36-.23-.28-.15-.7-.42-.96h0c-.29-.27-.22-.7-.46-1l.02,.03c-.35-.29-.31-.75-.47-1.12,.04-.12,.01-.23-.09-.32-.26-.28-.18-.71-.44-.98v.02c-.31-.29-.25-.74-.46-1.08,.03-.14,0-.27-.1-.37-.22-.28-.13-.7-.42-.95h0c-.28-.28-.22-.71-.45-1.01l.02,.03c-.35-.29-.3-.75-.47-1.12,.04-.13,0-.23-.09-.32-.25-.28-.17-.71-.44-.98v.02c-.3-.29-.25-.74-.45-1.08,.03-.14,0-.27-.1-.38-.22-.28-.13-.7-.42-.94h0c-.26-.29-.21-.72-.45-1.01l.02,.03c-.34-.29-.29-.75-.47-1.11,.04-.13,0-.24-.09-.33-.25-.28-.16-.71-.44-.97h0c-.3-.28-.25-.73-.46-1.06,.03-.15,0-.28-.11-.39-.21-.28-.12-.69-.42-.93h0c-.26-.29-.2-.72-.45-1.01l.02,.03c-.33-.29-.29-.75-.47-1.1,.03-.13,0-.25-.1-.34-.24-.28-.15-.7-.43-.97h0c-.3-.28-.24-.73-.46-1.05,.03-.15,0-.28-.11-.4-.15-.2-.32-.39-.36-.66,.05-.12,.02-.21-.07-.29-.27-.28-.19-.71-.44-.99v.02c-.31-.29-.26-.74-.45-1.1,.03-.14,0-.26-.1-.36-.23-.28-.15-.7-.42-.96h0c-.29-.27-.22-.7-.46-1l.02,.03c-.35-.29-.31-.75-.48-1.13,.04-.12,.01-.23-.09-.31-.26-.28-.18-.71-.44-.98v.02c-.31-.29-.26-.74-.45-1.09,.03-.14,0-.26-.1-.37-.23-.28-.14-.7-.43-.95h0c-.28-.28-.22-.71-.45-1.01l.02,.03c-.35-.29-.3-.75-.47-1.12,.04-.13,.01-.23-.09-.32-.26-.28-.17-.71-.44-.98v.02c-.3-.29-.25-.74-.45-1.08,.03-.14,0-.27-.1-.38-.22-.28-.13-.7-.42-.94h0c-.27-.29-.21-.72-.45-1.01l.02,.03c-.34-.29-.29-.75-.47-1.11,.04-.13,0-.24-.09-.33-.25-.28-.16-.71-.44-.97h0c-.31-.28-.25-.72-.46-1.05,.03-.15,0-.28-.11-.39-.21-.28-.12-.69-.42-.93h0c-.26-.29-.2-.72-.45-1.01l.02,.03c-.34-.29-.29-.75-.47-1.1,.03-.13,0-.25-.1-.34-.24-.28-.15-.7-.43-.97h0c-.3-.28-.24-.73-.46-1.05,.03-.15,0-.28-.11-.4-.15-.2-.32-.39-.36-.66,.05-.12,.02-.21-.07-.29-.27-.28-.19-.71-.44-.99v.02c-.31-.29-.26-.75-.45-1.1,.03-.14,0-.25-.1-.35-.23-.28-.15-.7-.43-.96h0c-.29-.27-.22-.7-.46-1l.02,.03c-.35-.29-.31-.75-.48-1.13,.04-.12,.01-.23-.08-.31-.26-.28-.18-.71-.44-.99v.02c-.31-.29-.26-.74-.45-1.09,.03-.14,0-.26-.1-.37-.23-.28-.14-.7-.43-.95h0c-.28-.27-.22-.71-.46-1l.02,.03c-.35-.29-.3-.75-.47-1.12,.04-.13,.01-.23-.09-.32-.26-.28-.17-.71-.44-.98v.02c-.31-.29-.25-.74-.45-1.08,.03-.14,0-.27-.1-.38-.22-.28-.13-.7-.42-.94h0c-.27-.29-.21-.72-.45-1.01l.02,.03c-.34-.29-.3-.75-.47-1.11,.04-.13,0-.24-.09-.33-.25-.28-.16-.71-.44-.97h0c-.31-.28-.25-.72-.46-1.06,.03-.15,0-.27-.11-.39-.21-.28-.12-.69-.42-.94h0c-.26-.29-.2-.72-.45-1.01l.02,.03c-.34-.29-.29-.75-.47-1.1,.04-.13,0-.25-.09-.34-.24-.28-.16-.7-.43-.97h0c-.3-.28-.24-.73-.46-1.05,.03-.15,0-.28-.11-.4-.21-.28-.12-.69-.42-.93h0c-.26-.3-.2-.72-.45-1.01v.02c-.31-.29-.26-.75-.45-1.1,.03-.14,0-.25-.1-.35-.23-.28-.15-.7-.43-.96h0c-.29-.26-.23-.7-.46-1l.02,.03c-.35-.29-.31-.75-.48-1.12,.04-.12,.01-.23-.08-.31-.26-.28-.18-.71-.44-.99v.02c-.31-.29-.26-.74-.45-1.09,.03-.14,0-.26-.1-.36-.23-.28-.14-.7-.43-.95h0c-.28-.27-.22-.71-.46-1l.02,.03c-.35-.29-.3-.75-.47-1.12,.04-.13,0-.23-.09-.32-.26-.28-.17-.71-.44-.98v.02c-.31-.29-.25-.74-.45-1.08,.03-.14,0-.27-.1-.37-.22-.28-.13-.7-.42-.94h0c-.27-.29-.21-.72-.45-1.01l.02,.03c-.34-.29-.3-.75-.47-1.12,.04-.13,0-.24-.09-.32-.25-.28-.17-.71-.44-.97h0c-.31-.28-.25-.72-.46-1.06,.03-.15,0-.27-.11-.39-.21-.28-.12-.7-.42-.94h0c-.27-.29-.2-.72-.45-1.01l.02,.03c-.34-.29-.29-.75-.47-1.1,.05-.12,.04-.23-.04-.33-.16-.21-.11-.35,.14-.44,.14,.01,.26-.03,.35-.13,.2-.12,.37-.3,.62-.35,.13,.03,.24,0,.34-.09,.28-.24,.71-.14,.97-.43l.49-.13c.19-.11,.37-.22,.56-.33,.15,.03,.28,0,.39-.1,.2-.15,.39-.32,.66-.36,.12,.04,.21,.02,.29-.08,.28-.27,.72-.18,1.01-.44,.17,.02,.32-.02,.45-.12,.2-.11,.37-.29,.6-.34,.13,.03,.25,0,.35-.09,.28-.24,.71-.13,.96-.43l.51-.13c.19-.1,.37-.21,.55-.32,.15,.03,.29,0,.41-.1,.2-.14,.39-.31,.65-.35,.12,.04,.22,.01,.3-.08,.28-.27,.72-.17,1-.44l.46-.12c.2-.1,.37-.27,.59-.34,.14,.03,.26,0,.36-.1,.28-.22,.7-.14,.95-.43h0c.29-.28,.73-.22,1.04-.45,.16,.02,.3-.01,.42-.11,.2-.13,.39-.3,.64-.35,.12,.04,.23,.01,.32-.08,.28-.26,.72-.16,.99-.44l.47-.12c.2-.1,.36-.27,.58-.34,.14,.03,.27,0,.37-.1,.28-.22,.7-.13,.94-.43h0c.29-.27,.73-.21,1.04-.45,.16,.02,.3-.01,.43-.11,.2-.13,.38-.29,.63-.35,.13,.04,.24,0,.33-.09,.28-.25,.71-.15,.98-.43l.48-.12c.19-.11,.38-.22,.57-.33,.14,.03,.27,0,.39-.1,.28-.21,.69-.12,.93-.42h.01c.29-.27,.73-.2,1.03-.45,.16,.02,.31-.02,.44-.12,.21-.11,.37-.29,.62-.34,.13,.04,.24,0,.34-.09,.28-.25,.71-.15,.97-.43l.49-.13c.19-.11,.37-.22,.56-.33,.15,.03,.28,0,.39-.1,.21-.15,.4-.32,.66-.36,.11,.04,.21,.02,.29-.07,.28-.27,.72-.18,1.01-.44,.17,.02,.32-.02,.45-.12,.2-.11,.37-.29,.6-.34,.13,.03,.25,0,.35-.09,.28-.24,.71-.14,.96-.43l.5-.13c.19-.1,.37-.21,.55-.33,.15,.03,.28,0,.4-.1,.2-.14,.39-.31,.65-.35,.12,.04,.22,.02,.3-.07,.6-.27,.71,.25,.93,.58-.03,.16,.01,.3,.12,.42,.12,.2,.3,.37,.35,.62-.04,.13-.01,.24,.09,.33,.24,.28,.16,.7,.43,.97h0c.3,.28,.25,.73,.46,1.06-.03,.15,0,.28,.11,.39,.21,.28,.12,.69,.42,.93h0c.26,.3,.2,.72,.44,1.01l-.02-.03c.33,.29,.29,.75,.47,1.1-.03,.13,0,.25,.1,.34,.24,.28,.15,.7,.43,.96h0c.3,.28,.24,.73,.46,1.05-.03,.15,0,.28,.11,.4,.15,.2,.32,.39,.36,.66-.05,.11-.03,.21,.07,.29,.27,.27,.19,.71,.44,.99v-.02c.31,.29,.26,.74,.45,1.1-.03,.14,0,.26,.1,.36,.23,.28,.15,.7,.43,.96h0c.29,.28,.23,.73,.46,1.04-.03,.15,.01,.29,.11,.41,.14,.2,.31,.39,.35,.65-.04,.12-.02,.22,.08,.3,.26,.28,.18,.71,.44,.99v-.02c.31,.29,.25,.74,.46,1.08-.03,.14,0,.27,.1,.37,.22,.28,.14,.7,.42,.95h0c.28,.29,.22,.73,.45,1.05-.03,.16,.01,.29,.11,.41,.13,.2,.3,.39,.35,.64-.04,.12-.02,.23,.08,.31,.26,.28,.17,.71,.44,.98v-.02c.31,.29,.25,.74,.45,1.08-.03,.14,0,.27,.11,.38,.22,.28,.13,.7,.42,.94h0c.27,.3,.21,.74,.45,1.05-.03,.16,.01,.3,.12,.42,.13,.2,.29,.38,.35,.63-.04,.13-.02,.23,.08,.32,.25,.28,.16,.71,.44,.97h0c.3,.28,.25,.73,.46,1.06-.03,.15,0,.28,.11,.39,.21,.28,.12,.69,.42,.94h0c.26,.29,.2,.72,.45,1.01l-.02-.03c.33,.29,.29,.75,.47,1.1-.04,.13,0,.25,.09,.34,.24,.28,.16,.7,.43,.97h0c.3,.28,.24,.72,.46,1.05-.03,.15,0,.28,.11,.4,.15,.2,.32,.39,.36,.66-.05,.11-.03,.21,.07,.29,.27,.28,.19,.71,.44,.99v-.02c.31,.29,.26,.74,.45,1.09-.03,.14,0,.26,.1,.36,.23,.28,.15,.7,.43,.96h0c.29,.28,.23,.73,.46,1.05-.03,.15,0,.29,.11,.4,.14,.2,.31,.39,.36,.65-.04,.12-.02,.22,.08,.3,.26,.28,.18,.71,.44,.99v-.02c.31,.29,.26,.74,.45,1.09-.03,.14,0,.26,.1,.37,.23,.28,.14,.7,.43,.95h0c.28,.29,.22,.73,.45,1.05-.03,.15,.01,.29,.11,.41,.14,.2,.31,.39,.35,.64-.04,.12-.02,.23,.08,.31,.26,.28,.17,.71,.44,.98v-.02c.31,.29,.25,.74,.45,1.08-.03,.14,0,.27,.1,.38,.22,.28,.13,.7,.42,.94h0c.28,.3,.21,.74,.45,1.05-.03,.16,.01,.3,.12,.42,.13,.2,.29,.38,.35,.63-.04,.13-.02,.23,.08,.32,.25,.28,.17,.71,.44,.97v-.02c.3,.29,.24,.74,.45,1.07-.03,.15,0,.28,.11,.39,.21,.28,.12,.69,.42,.94h0c.26,.29,.2,.72,.45,1.01l-.02-.03c.34,.29,.29,.75,.47,1.1-.04,.13,0,.25,.09,.34,.24,.28,.16,.7,.43,.97h0c.3,.28,.24,.73,.46,1.05-.03,.15,0,.28,.11,.39,.15,.2,.32,.39,.36,.66-.05,.11-.03,.21,.07,.29,.27,.28,.19,.71,.44,.99v-.02c.31,.29,.26,.75,.45,1.1-.03,.14,0,.25,.1,.35,.23,.28,.15,.7,.43,.96h0c.29,.28,.23,.73,.46,1.05-.03,.15,0,.29,.11,.4,.14,.2,.31,.39,.36,.65-.05,.12-.02,.22,.08,.3,.26,.28,.18,.71,.44,.99v-.02c.31,.29,.26,.74,.45,1.09-.03,.14,0,.26,.1,.37,.23,.28,.14,.7,.43,.95h0c.29,.29,.23,.73,.45,1.05-.03,.15,.01,.29,.11,.41,.14,.2,.31,.39,.35,.64-.04,.12-.02,.23,.08,.31,.26,.28,.17,.71,.44,.98v-.02c.31,.29,.25,.74,.45,1.08-.03,.14,0,.27,.1,.38,.22,.28,.13,.7,.42,.94h0c.28,.3,.22,.74,.45,1.05-.02,.16,.02,.3,.12,.42,.13,.2,.29,.38,.35,.63-.04,.13-.02,.23,.08,.32,.25,.28,.17,.71,.44,.97v-.02c.3,.29,.24,.74,.45,1.07-.03,.15,0,.27,.11,.39,.21,.28,.12,.7,.42,.94h0c.26,.29,.2,.72,.45,1.01l-.02-.03c.34,.29,.29,.75,.47,1.1-.04,.13,0,.25,.09,.34,.24,.28,.16,.7,.43,.97h0c.3,.28,.24,.73,.46,1.05-.03,.15,0,.28,.11,.4,.21,.28,.12,.69,.42,.93h0c.26,.3,.2,.72,.45,1.01v-.02c.31,.29,.26,.75,.45,1.1-.03,.14,0,.25,.1,.35,.23,.28,.15,.7,.43,.96h0c.3,.28,.24,.73,.46,1.05-.03,.15,0,.29,.11,.4,.14,.2,.31,.39,.36,.65-.05,.12-.02,.22,.08,.3,.26,.28,.18,.71,.44,.99v-.02c.31,.29,.26,.74,.45,1.09-.03,.14,0,.26,.1,.37,.23,.28,.14,.7,.43,.95h0c.29,.29,.23,.73,.45,1.05-.03,.15,.01,.29,.11,.41,.14,.2,.31,.39,.36,.64-.04,.12-.02,.22,.08,.31,.26,.28,.17,.71,.44,.98v-.02c.31,.29,.25,.74,.45,1.08-.03,.14,0,.27,.1,.37,.22,.28,.13,.7,.42,.94h0c.28,.3,.22,.74,.45,1.05-.02,.16,.01,.3,.11,.42,.13,.2,.3,.39,.35,.64-.04,.12-.02,.23,.08,.31,.26,.28,.17,.71,.44,.97v-.02c.3,.29,.24,.74,.45,1.07-.03,.15,0,.27,.11,.39,.21,.28,.13,.7,.42,.94h0c.27,.29,.21,.72,.45,1.01l-.02-.03c.34,.29,.29,.75,.47,1.1-.04,.13,0,.25,.09,.34,.24,.28,.16,.7,.43,.97h0c.3,.28,.24,.72,.46,1.05-.03,.15,0,.28,.11,.4,.21,.28,.12,.69,.42,.93h0c.26,.3,.2,.72,.44,1.01l-.02-.03c.33,.29,.28,.74,.47,1.1-.03,.14,0,.25,.1,.35,.23,.28,.15,.7,.43,.96h0c.3,.28,.24,.73,.46,1.05-.03,.15,0,.28,.11,.4,.14,.2,.32,.39,.36,.65-.05,.12-.02,.22,.08,.3,.26,.28,.18,.71,.44,.99v-.02c.31,.29,.26,.74,.45,1.1-.03,.14,0,.26,.1,.36,.23,.28,.14,.7,.43,.95h0c.29,.29,.23,.73,.45,1.05-.03,.15,.01,.29,.11,.41,.14,.2,.31,.39,.35,.65-.04,.12-.02,.22,.08,.3,.26,.28,.18,.71,.44,.98v-.02c.31,.29,.25,.74,.45,1.08-.03,.14,0,.27,.1,.37,.22,.28,.13,.7,.42,.95h0c.28,.29,.22,.73,.45,1.05-.02,.16,.01,.3,.11,.42,.13,.2,.3,.39,.35,.64-.04,.12-.02,.23,.08,.31,.26,.28,.17,.71,.44,.98v-.02c.3,.29,.24,.74,.45,1.07-.03,.15,0,.27,.11,.39,.21,.28,.13,.7,.42,.94h0c.27,.3,.21,.74,.45,1.05-.03,.16,.01,.3,.12,.42,.12,.2,.3,.37,.35,.62-.04,.13-.01,.24,.09,.33,.24,.28,.16,.7,.43,.97h0c.3,.28,.25,.73,.46,1.06-.03,.15,0,.28,.11,.39,.21,.28,.12,.69,.42,.93h0c.26,.3,.2,.72,.44,1.01l-.02-.03c.33,.29,.29,.75,.47,1.1-.03,.13,0,.25,.1,.34,.24,.28,.15,.7,.43,.96h0c.3,.28,.24,.73,.46,1.05-.03,.15,0,.28,.11,.4,.15,.2,.32,.39,.36,.66-.05,.12-.02,.21,.07,.29,.27,.28,.18,.71,.44,.99v-.02c.31,.29,.26,.74,.45,1.1-.03,.14,0,.26,.1,.36,.23,.28,.15,.7,.43,.96h0c.29,.28,.23,.73,.46,1.05-.03,.15,.01,.29,.11,.41,.14,.2,.31,.39,.35,.65-.04,.12-.02,.22,.08,.3,.26,.28,.18,.71,.44,.99v-.02c.31,.29,.25,.74,.46,1.08-.03,.14,0,.27,.1,.37,.22,.28,.14,.7,.42,.95h0c.28,.29,.22,.73,.45,1.05-.03,.16,.01,.29,.11,.41,.13,.2,.3,.39,.35,.64-.04,.12-.02,.23,.08,.31,.26,.28,.17,.71,.44,.98v-.02c.31,.29,.25,.74,.45,1.08-.03,.14,0,.27,.11,.38,.22,.28,.13,.7,.42,.94h0c.27,.3,.21,.74,.45,1.05-.03,.16,.01,.3,.12,.42,.13,.2,.29,.38,.35,.63-.04,.13-.01,.23,.08,.33,.25,.28,.16,.7,.43,.97h0c.3,.28,.25,.73,.46,1.06-.03,.15,0,.28,.11,.39,.21,.28,.12,.69,.42,.93h0c.26,.29,.2,.72,.45,1.01l-.02-.03c.33,.29,.29,.75,.47,1.1-.04,.13,0,.25,.09,.34,.24,.28,.16,.7,.43,.97h0c.3,.28,.24,.72,.46,1.05-.03,.15,0,.28,.11,.4,.15,.2,.32,.39,.36,.66-.05,.11-.03,.21,.07,.29,.27,.28,.19,.71,.44,.99v-.02c.31,.29,.26,.74,.45,1.09-.03,.14,0,.26,.1,.36,.23,.28,.15,.7,.43,.96h0c.29,.28,.23,.73,.46,1.05-.03,.15,0,.29,.11,.4,.14,.2,.31,.39,.36,.65-.04,.12-.02,.22,.08,.3,.26,.28,.18,.71,.44,.99v-.02c.31,.29,.26,.74,.45,1.09-.03,.14,0,.26,.1,.37,.22,.28,.14,.7,.42,.95h0c.28,.29,.22,.73,.45,1.05-.03,.15,.01,.29,.11,.41,.14,.2,.31,.39,.35,.64-.04,.12-.02,.23,.08,.31,.26,.28,.17,.71,.44,.98v-.02c.31,.29,.25,.74,.45,1.08-.03,.14,0,.27,.1,.38,.22,.28,.13,.7,.42,.94h0c.28,.3,.21,.74,.45,1.05-.03,.16,.01,.3,.12,.42,.13,.2,.29,.38,.35,.63-.04,.13-.02,.23,.08,.32,.25,.28,.17,.71,.44,.97v-.02c.3,.29,.24,.74,.45,1.07-.03,.15,0,.28,.11,.39,.21,.28,.12,.69,.42,.94h0c.26,.29,.2,.72,.45,1.01l-.02-.03c.34,.29,.29,.75,.47,1.1-.04,.13,0,.25,.09,.34,.24,.28,.16,.7,.43,.97h0c.3,.28,.24,.73,.46,1.05-.03,.15,0,.28,.11,.39,.15,.2,.32,.39,.36,.66-.05,.11-.03,.21,.07,.29,.27,.28,.19,.71,.44,.99v-.02c.31,.29,.26,.75,.45,1.1-.03,.14,0,.25,.1,.35,.23,.28,.15,.7,.43,.96h0c.29,.28,.23,.73,.46,1.05-.03,.15,0,.29,.11,.4,.14,.2,.31,.39,.36,.65-.04,.12-.02,.22,.08,.3,.26,.28,.18,.71,.44,.99v-.02c.31,.29,.26,.74,.45,1.09-.03,.14,0,.26,.1,.37,.23,.28,.14,.7,.43,.95h0c.29,.29,.23,.73,.45,1.05-.03,.15,.01,.29,.11,.41,.14,.2,.31,.39,.35,.64-.04,.12-.02,.23,.08,.31,.26,.28,.17,.71,.44,.98v-.02c.31,.29,.25,.74,.45,1.08-.03,.14,0,.27,.1,.38,.22,.28,.13,.7,.42,.94h0c.28,.3,.22,.74,.45,1.05-.02,.16,.02,.3,.12,.42,.13,.2,.29,.38,.35,.63-.04,.13-.02,.23,.08,.32,.25,.28,.17,.71,.44,.97v-.02c.3,.29,.24,.74,.45,1.07-.03,.15,0,.28,.11,.39,.21,.28,.12,.69,.42,.94h0c.36,.59,.25,.96-.47,1.07-.07-.11-.17-.16-.3-.15-.28-.04-.47-.21-.67-.38l-.2-.09-.22,.02c-.39-.28-.78-.22-1.17-.01l-.19-.03-.17,.08c-.26,.28-.71,.16-.95,.47h0c-.18,.15-.33,.33-.52,.46l.02-.02c-.14,.2-.31,.36-.5,.51l.02-.02c-.14,.18-.31,.33-.45,.52v.02c-.34,.22-.21,.72-.6,.9l.05-.04c-.1,.24-.28,.41-.5,.54l.03-.03c-.13,.22-.3,.39-.52,.51l.04-.03c-.15,.25-.35,.42-.63,.49-.14,0-.26,.05-.34,.17-.17,.09-.33,.21-.45,.36h0c-.19,.2-.39,.38-.67,.43h-.16l-.14,.09c-.29,.25-.73,.18-1.02,.42h-.22l-.21,.07c-1.76,.29-3.53,.35-5.29-.04l-.16-.08-.18,.03c-.34-.17-.74-.17-1.08-.35-.28-.05-.56-.09-.84-.14-.35-.17-.77-.15-1.1-.39l-.19-.09h-.21c-.32-.2-.73-.16-1.05-.38l-.2-.09h-.22c-.3-.23-.72-.17-1.03-.39l-.2-.09h-.22c-.3-.23-.72-.17-1.03-.39l-.2-.09h-.22c-.3-.23-.71-.18-1.02-.38l-.47-.08c-.41-.42-1.04-.07-1.46-.43Z"/>
      <path class="e" d="M98.87,295.27c.02-.13,0-.26-.07-.38-.16-.18-.32-.37-.41-.6,.02-.13,0-.25-.06-.36-.27-.26-.15-.71-.47-.94v-.02c-.26-.27-.17-.71-.48-.95v-.02c-.26-.27-.18-.71-.47-.96h0c-.27-.27-.18-.71-.48-.96h0c-.27-.27-.19-.71-.48-.97h0c-.28-.26-.2-.71-.48-.97h0c-.29-.25-.2-.7-.49-.96h0c-.29-.26-.21-.7-.48-.97h0c-.3-.24-.22-.69-.49-.97v.02c-.29-.26-.21-.71-.48-.98v.02c-.29-.26-.22-.71-.47-.99v.02c-.3-.25-.22-.7-.48-.98v.02c-.31-.26-.23-.72-.48-1.02,0-.15-.02-.3-.09-.43-.14-.18-.27-.36-.39-.54,0-.15-.02-.29-.09-.42-.14-.18-.27-.36-.39-.54,0-.15-.02-.29-.09-.42-.13-.18-.29-.35-.39-.55,.01-.14-.01-.28-.08-.41-.15-.18-.3-.35-.4-.56,.01-.14-.01-.27-.08-.4-.15-.18-.3-.35-.4-.56,.02-.14,0-.27-.07-.4-.16-.18-.31-.36-.41-.59,.02-.13,0-.26-.07-.38-.16-.18-.32-.36-.41-.59,.02-.13,0-.26-.07-.38-.16-.18-.32-.36-.41-.59,.02-.13,0-.25-.06-.37-.26-.26-.15-.7-.47-.94v-.02c-.26-.27-.17-.71-.48-.95v-.02c-.26-.27-.18-.71-.47-.96h0c-.27-.27-.18-.71-.48-.96h0c-.27-.27-.18-.71-.48-.96h0c-.27-.28-.2-.71-.46-.99v.02c-.44-.4-.06-1.08-.48-1.49,.02-.15,.01-.3-.04-.44-.34-1.6-.37-3.21,.02-4.81,.05-.13,.06-.27,.03-.4,.23-.3,.17-.72,.4-1.02,.06-.15,.08-.3,.07-.46,.26-.29,.19-.72,.45-1.01h0c.31-.25,.22-.7,.48-.96h0c.31-.25,.21-.71,.51-.96l-.02,.02c.15-.16,.29-.33,.43-.51l.03-.04c.34-.2,.22-.69,.55-.9l-.03,.02c.13-.2,.3-.37,.5-.51l-.02,.02c.14-.19,.31-.36,.49-.51l-.02,.02c.15-.19,.31-.36,.51-.49l-.02,.02c.14-.19,.31-.37,.51-.5l-.02,.03c.21-.33,.7-.21,.91-.55l.03-.02c.19-.12,.34-.3,.52-.43l-.02,.02c.24-.32,.7-.22,.96-.51h0c.27-.29,.72-.2,1.01-.47,.16,0,.31-.02,.46-.09,.19-.13,.35-.28,.56-.38,.14,.02,.27,0,.39-.06,.27-.26,.71-.14,.96-.44l.5-.1c.18-.11,.35-.24,.52-.37,.15,0,.3-.02,.44-.08,.19-.14,.36-.3,.58-.38,.13,.02,.26,0,.38-.07,.27-.26,.71-.14,.95-.45,.17-.03,.34-.06,.51-.09,.19-.12,.36-.28,.58-.36,.45-.04,.9-.08,1.36-.11,1.27-.23,2.53-.27,3.8,.02,.31,.03,.62,.05,.93,.08,.29,.25,.7,.18,1,.4,.15,.06,.31,.08,.47,.07,.27,.28,.71,.18,.99,.45,.11,.06,.24,.08,.36,.06,.24,.09,.42,.26,.61,.43h.02c.23,.33,.7,.22,.94,.53l-.02-.02c.16,.15,.34,.29,.52,.43l.04,.02c.2,.34,.69,.22,.9,.55l-.02-.03c.2,.13,.37,.3,.51,.5l-.02-.02c.2,.14,.36,.31,.51,.5l-.02-.02c.19,.14,.36,.31,.5,.51l-.02-.02c.2,.14,.37,.3,.5,.51l-.03-.02c.34,.21,.22,.7,.54,.92v.02c.15,.19,.32,.33,.45,.52l-.02-.02c.32,.24,.23,.7,.51,.96h0c.29,.25,.21,.7,.49,.96h0c.29,.25,.21,.7,.48,.97v-.02c.29,.26,.21,.71,.48,.98v-.02c.29,.26,.21,.71,.48,.98v-.02c.3,.26,.22,.7,.48,.99v-.02c.3,.25,.22,.7,.48,.98v-.02c.31,.27,.23,.72,.47,1.03,0,.15,.02,.29,.09,.43,.14,.18,.27,.36,.39,.54,0,.15,.02,.29,.09,.42,.14,.18,.27,.36,.39,.54-.01,.15,.02,.29,.08,.42,.14,.18,.29,.35,.4,.56-.01,.14,.01,.27,.08,.4,.15,.18,.3,.35,.4,.56-.01,.14,.01,.27,.08,.4,.15,.18,.3,.36,.4,.57-.02,.14,0,.26,.07,.39,.16,.18,.32,.36,.41,.59-.02,.13,0,.26,.07,.38,.16,.18,.32,.36,.41,.59-.02,.13,0,.26,.07,.38,.25,.26,.14,.7,.45,.93v.02c.26,.27,.17,.71,.48,.95v.02c.26,.27,.17,.71,.48,.95h0c.26,.28,.17,.72,.47,.98h0c.27,.27,.18,.71,.48,.96h0c.27,.27,.19,.71,.48,.97h0c.28,.26,.2,.7,.48,.97h0c.29,.25,.2,.7,.49,.96h0c.29,.26,.21,.7,.48,.97v-.02c.29,.26,.21,.71,.48,.98v-.02c.29,.26,.21,.71,.48,.98v-.02c.3,.26,.22,.7,.48,.99v-.02c.3,.25,.22,.7,.48,.98v-.02c.31,.26,.23,.72,.48,1.02,0,.15,.02,.3,.09,.43,.14,.18,.27,.36,.39,.54,0,.15,.02,.29,.09,.42,.14,.18,.27,.36,.39,.54-.01,.15,.02,.29,.08,.42,.14,.18,.29,.35,.39,.56-.01,.14,.01,.28,.08,.4,.15,.18,.3,.35,.4,.56-.01,.14,.01,.27,.08,.4,.15,.18,.3,.35,.4,.57-.02,.14,0,.27,.07,.39,.16,.18,.32,.36,.41,.59-.02,.13,0,.26,.07,.38,.16,.18,.32,.36,.41,.59-.02,.13,0,.26,.07,.38,.16,.18,.32,.37,.41,.6-.02,.13,0,.25,.06,.36,.27,.26,.15,.71,.47,.94v.02c.26,.27,.17,.71,.48,.95h0c.26,.28,.17,.72,.47,.98h0c.27,.27,.18,.71,.48,.96h0c.27,.27,.19,.71,.48,.97h0c.28,.26,.2,.71,.48,.97h0c.29,.25,.2,.7,.49,.96h0c.29,.26,.21,.7,.48,.97h0c.3,.24,.22,.69,.49,.97v-.02c.29,.26,.21,.71,.48,.98v-.02c.29,.26,.22,.71,.47,.99v-.02c.3,.25,.22,.7,.48,.98v-.02c.31,.26,.23,.72,.48,1.02,0,.15,.02,.3,.09,.43,.14,.18,.27,.36,.39,.54,0,.15,.02,.29,.09,.42,.14,.18,.27,.36,.39,.54,0,.15,.02,.29,.09,.42,.14,.18,.29,.35,.39,.56-.01,.14,.01,.28,.08,.4,.15,.18,.3,.35,.4,.56-.01,.14,.01,.27,.08,.4,.15,.18,.3,.35,.4,.56-.02,.14,0,.27,.07,.4,.16,.18,.31,.36,.41,.59-.02,.13,0,.26,.07,.38,.16,.18,.32,.36,.41,.59-.02,.13,0,.26,.07,.38,.16,.18,.32,.36,.41,.59-.02,.13,0,.25,.06,.37,.26,.26,.15,.7,.47,.94v.02c.26,.27,.17,.71,.48,.95v.02c.31,.65,.38,1.29-.04,1.92v-.02c-.25,.27-.17,.69-.41,.97-.06,.15-.08,.31-.06,.47-.39,2.43-.38,4.86,0,7.29-.03,.15-.02,.3,.03,.45,.48,.58-.04,1.39,.45,1.97-.03,.15-.01,.29,.03,.44,.47,.59-.04,1.4,.44,1.98l.06,.91c.26,.49,.33,.97-.06,1.43l.02-.02c-.14,.18-.31,.33-.46,.51h-.01c-.18,.16-.35,.31-.51,.47l-.49,.09c-.79,.22-1.57,.25-2.35-.02-.3-.03-.6-.06-.91-.09-.31-.23-.74-.16-1.03-.42l-.19-.06h-.2c-.21-.1-.38-.25-.56-.38-.14-.06-.29-.09-.45-.09-.16-.13-.33-.26-.51-.37-.15-.07-.3-.11-.46-.11-.16-.14-.33-.27-.5-.39-.13-.07-.27-.11-.42-.11-.21-.12-.38-.29-.57-.42l-.03-.02c-.21-.33-.69-.22-.91-.53l.02,.02c-.18-.14-.33-.31-.52-.45l-.02-.02c-.12-.16-.26-.3-.43-.4-.11-.08-.23-.12-.36-.12-.26-.09-.46-.26-.6-.49l.02,.02c-.21-.12-.37-.3-.52-.48h.02c-.15-.13-.31-.25-.48-.37-.3-.04-.6-.08-.9-.13-.84-.28-1.68-.41-2.5,.03l-.5,.09c-.17,.12-.33,.24-.49,.38l.02-.02c-.22,.31-.7,.19-.9,.54l-.04,.03c-.18,.13-.35,.27-.5,.43h0c-.17,.16-.32,.33-.5,.47l.02-.02c-.15,.18-.31,.35-.5,.5l.02-.02c-.15,.19-.31,.35-.49,.5h.01c-.15,.16-.32,.32-.46,.49h0c-.16,.14-.29,.29-.41,.46-.08,.11-.11,.24-.11,.38-.1,.24-.27,.42-.44,.6h0c-.3,.25-.21,.7-.49,.96h0c-.29,.25-.19,.68-.44,.95-.06,.14-.08,.29-.06,.44-.4,.42-.05,1.06-.43,1.49l-.05,.9c-.57,.28,.34,1.54-.91,1.37,.02-.12,0-.24-.06-.35-.15-.19-.32-.36-.41-.59,.02-.13,0-.26-.06-.38-.26-.26-.15-.7-.46-.93v-.02c-.26-.27-.17-.71-.48-.95v-.02c-.26-.27-.17-.71-.48-.96h0c-.26-.28-.18-.72-.47-.97h0c-.27-.27-.18-.71-.48-.96h0c-.27-.27-.19-.71-.47-.97h0c-.28-.26-.2-.7-.48-.97h0c-.29-.25-.21-.7-.48-.97h0c-.29-.25-.21-.7-.48-.97v.02c-.29-.26-.21-.71-.48-.98v.02c-.29-.26-.21-.71-.48-.98v.02c-.3-.26-.22-.7-.48-.99v.02c-.3-.25-.22-.7-.48-.98v.02c-.31-.27-.23-.72-.47-1.03,0-.15-.02-.29-.09-.43-.14-.18-.27-.36-.39-.54,0-.15-.02-.29-.09-.42-.14-.18-.27-.36-.39-.54,.01-.15-.02-.29-.08-.42-.14-.18-.29-.35-.4-.56,.01-.14-.01-.27-.08-.4-.15-.18-.3-.35-.4-.56,.01-.14-.01-.27-.08-.4-.15-.18-.3-.36-.4-.57,.02-.14,0-.27-.07-.39-.16-.18-.32-.36-.41-.59,.02-.13,0-.26-.07-.38-.16-.18-.32-.36-.41-.59,.02-.13,0-.26-.07-.38-.25-.26-.14-.7-.45-.93v-.02c-.26-.27-.17-.71-.48-.95v-.02c-.26-.27-.17-.71-.48-.95h0c-.26-.28-.17-.72-.47-.98h0c-.27-.27-.18-.71-.48-.96h0c-.27-.27-.19-.71-.48-.97h0c-.28-.26-.2-.7-.48-.97h0c-.29-.25-.2-.7-.49-.96h0c-.29-.26-.21-.7-.48-.97v.02c-.29-.26-.21-.71-.48-.98v.02c-.29-.26-.21-.71-.48-.98v.02c-.29-.26-.22-.71-.47-.99v.02c-.3-.25-.22-.7-.48-.98v.02c-.31-.26-.23-.72-.48-1.02,0-.15-.02-.3-.09-.43-.14-.18-.27-.36-.39-.54,0-.15-.02-.29-.09-.42-.14-.18-.27-.36-.39-.54,.01-.15-.02-.29-.08-.42-.14-.18-.29-.35-.39-.56,.01-.14-.01-.28-.08-.4-.15-.18-.3-.35-.4-.56,.01-.14-.01-.27-.08-.4-.15-.18-.3-.35-.4-.57,.02-.14,0-.27-.07-.39-.16-.18-.32-.36-.41-.59,.02-.13,0-.26-.07-.38-.16-.18-.32-.36-.41-.59Z"/>
      <path class="f" d="M95.93,216.91c-.05,.17-.02,.32,.08,.46,.32,.44,0,1.06,.4,1.48-.05,.16-.03,.31,.07,.45,.39,.63-.02,1.42,.39,2.04l.09,1.33c.21,1.03,.62,2.11-.57,2.86l-.23-.02-.22,.08c-.43,.35-1.06,0-1.47,.42l-.47,.11c-.21,.12-.39,.29-.64,.34h-.18l-.14,.11c-.19,.16-.38,.32-.64,.38-.14-.02-.25,.02-.33,.14-.17,.12-.34,.24-.51,.38l.03-.02c-.16,.23-.37,.42-.66,.47-.15,0-.25,.06-.32,.19-.17,.07-.31,.19-.39,.36l-.05,.04c-.18,.12-.34,.26-.47,.44l-.02,.02c-.17,.14-.33,.29-.46,.47l-.02,.02c-.17,.13-.32,.28-.43,.47l-.03,.04c-.35,.18-.22,.71-.61,.86l.05-.05c-.09,.25-.27,.42-.5,.54l.04-.04c-.14,.26-.35,.44-.65,.5-.13-.03-.23,0-.31,.12-.34,.2-.75,.2-1.1,.37h-.17c-1.69-.3-3.38-.36-5.07,.02l-.89,.12c-.3,.18-.71,.11-.98,.38l-.47,.11c-.21,.1-.37,.28-.61,.34-.14-.03-.26,.01-.35,.13-.18,.12-.35,.25-.52,.37l.04-.03c-.2,.35-.7,.23-.92,.56h-.02c-.29,.24-.61,.24-.94,.11-.06-.13-.16-.18-.3-.17-.31-.05-.53-.23-.65-.52l.05,.04c-.26-.09-.43-.27-.54-.52l.04,.04c-.25-.11-.43-.28-.51-.54l.04,.06c-.3-.12-.48-.34-.52-.66,0-.14-.06-.24-.19-.29-.07-.17-.19-.3-.36-.38l-.04-.05c-.12-.18-.26-.35-.42-.5h0c-.16-.17-.35-.32-.46-.53l.03,.04c-.25-.16-.43-.36-.48-.66,.01-.14-.04-.24-.17-.31-.09-.17-.21-.32-.37-.45h0c-.15-.19-.35-.33-.44-.56l.04,.04c-.37-.19-.24-.69-.57-.9v-.02c-.14-.2-.34-.34-.43-.56l.04,.04c-.36-.21-.25-.69-.56-.93h0c-.18-.19-.37-.39-.43-.66,.02-.14-.02-.25-.14-.33-.11-.18-.24-.34-.37-.5l.02,.03c-.33-.23-.22-.7-.53-.94h0c-.18-.21-.36-.4-.42-.68,.03-.13,0-.24-.12-.31-.13-.17-.26-.35-.38-.53l.04,.04c-.36-.23-.27-.7-.53-.98l.02,.02c-.32-.24-.23-.7-.52-.96h0c-.28-.25-.18-.7-.5-.93v-.02c-.19-.21-.38-.41-.42-.7,.04-.12,0-.22-.1-.29-.16-.19-.33-.39-.38-.64,.03-.14,0-.24-.12-.33-.14-.2-.3-.38-.37-.62,.03-.14-.02-.26-.13-.35-.12-.18-.24-.35-.36-.53l.04,.04c-.36-.23-.28-.7-.52-.99l.02,.03c-.35-.24-.27-.7-.51-.99l.02,.03c-.34-.24-.26-.7-.51-.99l.02,.03c-.33-.25-.25-.7-.51-.98v.02c-.3-.25-.22-.7-.48-.98v.02c-.3-.25-.21-.7-.49-.97h0c-.29-.25-.21-.7-.49-.96h0c-.29-.24-.2-.7-.5-.94h0c-.27-.27-.18-.71-.48-.96h0c-.27-.27-.16-.72-.49-.94v-.03c-.25-.27-.15-.71-.48-.94v-.03c-.25-.27-.15-.71-.48-.94v-.03c-.25-.27-.15-.71-.48-.94v-.03c-.25-.27-.15-.71-.48-.94v-.03c-.25-.27-.16-.71-.48-.95v-.02c-.26-.27-.17-.71-.47-.96h0c-.27-.28-.19-.72-.47-.98h0c-.29-.26-.22-.7-.47-.99v.02c-.3-.26-.24-.7-.46-1.01l.02,.04c-.36-.28-.3-.74-.49-1.1,.04-.14,0-.25-.11-.34-.22-.28-.13-.7-.43-.94h0c-.27-.29-.21-.72-.44-1.02l.02,.03c-.35-.3-.31-.76-.47-1.14,.05-.12,.03-.22-.08-.3-.27-.3-.21-.74-.43-1.06,.04-.15,0-.28-.1-.39-.21-.3-.16-.7-.4-.98l.02,.03c-.32-.31-.31-.62-.02-.95h-.01c.27-.29,.72-.21,1.01-.47,.16,.04,.31,.01,.45-.09,.28-.2,.7-.12,.94-.41h0c.27-.27,.71-.19,.97-.48h0c.28-.28,.72-.21,1.01-.46,.17,.03,.32,0,.45-.12,.21-.12,.39-.29,.64-.33,.13,.05,.23,.02,.31-.09,.29-.25,.72-.17,1.01-.43,.17,.03,.32,0,.45-.12,.21-.12,.39-.29,.64-.33,.13,.05,.23,.02,.31-.09,.29-.25,.72-.17,1.01-.43,.17,.03,.32,0,.45-.12,.21-.12,.39-.29,.64-.33,.13,.05,.23,.02,.31-.09,.29-.25,.72-.17,1.01-.43,.17,.03,.32,0,.45-.12,.21-.12,.39-.29,.64-.33,.13,.04,.23,.01,.32-.09,.28-.25,.72-.15,.99-.43l.47-.13c.19-.11,.38-.22,.58-.33,.15,.03,.27,0,.38-.11,.21-.15,.4-.32,.67-.36,.12,.05,.21,.02,.28-.08,.28-.27,.72-.17,.99-.44l.47-.14c.19-.1,.37-.21,.54-.33,.16,.03,.3-.01,.42-.13,.2-.1,.36-.27,.58-.34,.15,.03,.28-.02,.38-.13,.2-.11,.36-.28,.58-.35,.15,.03,.28-.02,.38-.13,.2-.11,.36-.27,.57-.36,.16,.02,.29-.03,.39-.15,.18-.1,.34-.22,.49-.35l-.03,.02c.25-.32,.7-.23,.98-.5h-.02c.24-.29,.7-.19,.93-.51h.02c.19-.14,.33-.34,.55-.44l-.04,.03c.15-.27,.37-.45,.69-.49,.13,.01,.23-.04,.28-.17,.17-.09,.31-.22,.42-.38l.03-.03c.2-.15,.39-.3,.62-.41h.18c.45,.15,.35,.68,.64,.93h0c.29,.24,.18,.7,.51,.92v.03c.18,.21,.36,.4,.41,.68-.03,.13,0,.23,.12,.31,.14,.2,.3,.38,.37,.62-.03,.14,.01,.26,.13,.35,.12,.2,.29,.36,.36,.59-.03,.15,.02,.28,.13,.38,.11,.2,.28,.36,.35,.58-.03,.15,.02,.28,.13,.38,.11,.2,.28,.36,.35,.58-.03,.15,.02,.28,.13,.38,.11,.2,.28,.36,.35,.58-.03,.15,.02,.28,.13,.38,.11,.2,.28,.36,.35,.58-.03,.15,.02,.28,.13,.38,.11,.2,.28,.36,.35,.58-.03,.15,.02,.28,.13,.38,.11,.2,.28,.36,.35,.58-.03,.15,0,.27,.12,.38,.12,.2,.3,.37,.35,.61-.03,.14,0,.26,.12,.35,.13,.2,.31,.37,.36,.62-.03,.14,0,.26,.12,.35,.13,.2,.31,.37,.36,.62-.04,.14,0,.25,.11,.34,.15,.2,.32,.39,.36,.65-.04,.13,0,.23,.11,.31,.16,.2,.33,.39,.38,.66-.04,.13,0,.23,.11,.31,.16,.2,.33,.39,.38,.66-.04,.13,0,.23,.11,.31,.16,.2,.33,.39,.38,.66-.04,.13,0,.23,.12,.31,.14,.19,.31,.38,.37,.62-.03,.14,0,.25,.12,.34,.13,.2,.31,.37,.36,.62-.03,.14,0,.26,.12,.35,.12,.2,.29,.36,.36,.59-.03,.15,.02,.28,.13,.38,.11,.2,.28,.36,.35,.58-.03,.15,.02,.28,.13,.38,.11,.2,.28,.36,.35,.58-.03,.15,.02,.28,.14,.38,.11,.18,.23,.35,.36,.51l-.03-.04c.34,.24,.27,.7,.51,.99l-.02-.03c.35,.27,.28,.73,.49,1.06-.03,.15,.02,.28,.13,.39,.11,.2,.28,.36,.35,.58-.03,.15,.02,.28,.13,.38,.11,.2,.28,.36,.35,.59-.03,.15,0,.27,.12,.37,.13,.2,.3,.37,.36,.62-.04,.14,0,.25,.11,.34,.15,.2,.32,.39,.37,.65-.04,.13-.01,.23,.1,.31,.24,.27,.14,.7,.44,.95h0c.27,.28,.2,.72,.46,1v-.02c.31,.29,.25,.74,.46,1.07-.03,.15,0,.28,.12,.39,.2,.28,.11,.69,.42,.93h0c.26,.31,.21,.75,.44,1.06-.04,.16,0,.3,.11,.42,.19,.29,.12,.69,.4,.94h0c.27,.33,.26,.76,.42,1.13-.05,.13-.03,.23,.08,.32,.26,.33,.24,.76,.4,1.12-.06,.13-.03,.23,.07,.32,.4,.42,.03,1.07,.45,1.48Z"/>
      <path class="d" d="M127.78,271.65c.03-.14-.01-.27-.12-.37-.13-.2-.31-.37-.37-.61,.03-.14-.01-.26-.11-.36-.13-.2-.31-.37-.37-.61,.03-.14,0-.26-.11-.35-.15-.2-.32-.39-.37-.64,.03-.13,0-.24-.1-.32-.16-.19-.33-.39-.38-.64,.03-.13,0-.24-.1-.32-.16-.2-.33-.39-.38-.65,.04-.12,0-.23-.09-.31-.25-.26-.13-.7-.46-.92v-.03c-.26-.27-.16-.71-.48-.94v-.03c-.25-.28-.17-.71-.47-.96h0c-.27-.27-.18-.72-.48-.96h0c-.27-.27-.18-.72-.48-.97h0c-.27-.27-.19-.71-.47-.98h0c-.29-.25-.21-.7-.49-.96h0c-.29-.25-.21-.7-.48-.97v.02c-.29-.26-.22-.71-.48-.99v.02c-.3-.25-.22-.7-.48-.98v.02c-.3-.26-.23-.7-.47-1l.02,.03c-.33-.25-.25-.7-.5-.99l.02,.03c-.33-.25-.25-.7-.5-.99l.02,.03c-.33-.25-.26-.7-.5-1l.02,.03c-.34-.29-.32-.61-.08-.95l.02-.02c.17-.14,.34-.29,.49-.45h0c.17-.16,.32-.35,.54-.46l-.04,.03c.15-.25,.36-.43,.65-.49,.14,0,.23-.06,.29-.18,.34-.15,.2-.66,.58-.79l-.05,.04c.1-.24,.28-.41,.49-.54l-.03,.03c.11-.2,.3-.35,.43-.54v-.02c.34-.22,.23-.7,.55-.92l-.02,.03c.13-.15,.25-.32,.36-.5,.11-.11,.16-.23,.14-.39,.08-.22,.24-.39,.37-.58,.1-.09,.14-.2,.12-.34,.07-.26,.25-.45,.42-.65h0c.31-.24,.19-.74,.59-.92l-.06,.05c.21-.41,.71-.3,1.01-.55,.15,.03,.29,0,.41-.09,.33-.21,.74-.19,1.07-.38l.86-.15c.21-.11,.39-.29,.65-.32l.8-.18c.19-.1,.37-.21,.54-.33,.17,.01,.31-.04,.43-.15,.18-.09,.33-.2,.45-.35h0c.17-.16,.32-.34,.53-.46l-.03,.03c.13-.21,.3-.38,.51-.51l-.03,.03c.12-.21,.3-.37,.48-.53h-.01c.15-.14,.28-.3,.39-.47,.11-.08,.15-.19,.13-.32,.05-.27,.22-.46,.4-.65,.1-.08,.13-.17,.08-.29,.05-.29,.23-.48,.42-.68h0c.31-.25,.21-.7,.49-.96h0c.45-.38,.05-1.05,.48-1.45,.09-.11,.1-.23,.04-.36,.6-.51-.46-1.77,.89-1.94-.03,.15,0,.28,.11,.39,.14,.21,.32,.39,.36,.65-.05,.12-.02,.22,.08,.3,.26,.28,.18,.71,.44,.99v-.02c.31,.29,.26,.74,.45,1.09-.03,.14,0,.26,.1,.37,.23,.28,.14,.7,.43,.95h0c.29,.29,.23,.73,.45,1.05-.03,.15,.01,.29,.11,.41,.14,.2,.31,.39,.35,.64-.04,.12-.02,.23,.08,.31,.26,.28,.17,.71,.44,.98v-.02c.31,.29,.25,.74,.45,1.08-.03,.14,0,.27,.1,.38,.22,.28,.13,.7,.42,.94h0c.28,.3,.22,.74,.45,1.05-.02,.16,.01,.3,.11,.42,.13,.2,.3,.39,.35,.64-.04,.12-.02,.23,.08,.31,.26,.28,.17,.71,.44,.97v-.02c.3,.29,.24,.74,.45,1.07-.03,.15,0,.27,.11,.38,.21,.28,.13,.7,.42,.94h0c.27,.29,.21,.72,.45,1.01l-.02-.03c.34,.29,.29,.75,.47,1.1-.04,.13,0,.25,.09,.34,.24,.28,.16,.7,.43,.97h0c.3,.28,.24,.72,.46,1.05-.03,.15,0,.28,.11,.4,.21,.28,.12,.69,.42,.93h0c.26,.3,.2,.72,.45,1.01l-.02-.03c.33,.29,.28,.74,.47,1.1-.03,.14,0,.25,.1,.35,.23,.28,.15,.7,.43,.96h0c.3,.28,.24,.73,.46,1.05-.03,.15,0,.28,.11,.4,.14,.2,.31,.39,.36,.65-.05,.12-.02,.22,.08,.3,.26,.28,.18,.71,.44,.99v-.02c.31,.29,.26,.74,.45,1.1-.03,.14,0,.26,.1,.36,.23,.28,.14,.7,.43,.95h0c.29,.29,.23,.73,.45,1.05-.03,.15,.01,.29,.11,.41,.14,.2,.31,.39,.35,.65-.04,.12-.02,.22,.08,.31,.26,.28,.18,.71,.44,.98v-.02c.31,.29,.25,.74,.45,1.08-.03,.14,0,.27,.1,.37,.22,.28,.13,.7,.42,.95h0c.28,.29,.22,.73,.45,1.05-.02,.16,.01,.3,.11,.42,.13,.2,.3,.39,.35,.64-.04,.12-.02,.23,.08,.31,.26,.28,.17,.71,.44,.98v-.02c.3,.29,.24,.74,.45,1.07-.03,.15,0,.27,.11,.38,.21,.28,.13,.7,.42,.94h0c.27,.29,.21,.72,.45,1.01l-.02-.03c.34,.29,.29,.75,.47,1.1-.04,.13,0,.25,.09,.34,.24,.28,.16,.7,.43,.97h0c.3,.28,.24,.72,.46,1.05-.03,.15,0,.28,.11,.4,.21,.28,.12,.69,.42,.93h0c.26,.3,.2,.72,.44,1.01l-.02-.03c.33,.29,.29,.75,.47,1.1-.03,.13,0,.25,.1,.34,.24,.28,.15,.7,.43,.96h0c.3,.28,.24,.73,.46,1.05-.03,.15,0,.28,.11,.4,.15,.2,.32,.39,.36,.66-.05,.12-.02,.21,.07,.29,.27,.28,.18,.71,.44,.99v-.02c.31,.29,.26,.74,.45,1.1-.03,.14,0,.26,.1,.36,.23,.28,.15,.7,.43,.96h0c.29,.28,.23,.73,.46,1.05-.03,.15,.01,.29,.11,.41,.14,.2,.31,.39,.35,.65-.04,.12-.02,.22,.08,.31,.26,.28,.18,.71,.44,.98v-.02c.31,.29,.25,.74,.45,1.08-.03,.14,0,.27,.1,.37,.22,.28,.13,.7,.42,.95h0c.28,.29,.22,.73,.45,1.04-.02,.16,.01,.3,.11,.42,.13,.2,.3,.39,.35,.64-.04,.12-.02,.23,.08,.31,.26,.28,.17,.71,.44,.98v-.02c.31,.29,.25,.74,.45,1.08-.03,.15,0,.27,.11,.38,.23,.64,.3,1.28-.06,1.91h0c-.3,.25-.2,.67-.43,.95-.1,.09-.13,.2-.1,.33-.07,.27-.25,.46-.46,.64h.01c-.14,.16-.32,.31-.44,.5l-.02,.03c-.18,.12-.32,.28-.43,.46l-.04,.04c-.18,.11-.33,.26-.46,.43l-.03,.02c-.18,.14-.34,.29-.5,.45h0c-.17,.16-.32,.34-.52,.46l.03-.03c-.16,.23-.36,.41-.64,.48-.14,0-.25,.04-.33,.15-.17,.1-.33,.22-.47,.37h0c-.18,.2-.38,.38-.66,.44-.13-.03-.23,.01-.32,.11-.19,.15-.37,.31-.61,.38-.14-.03-.25,.01-.35,.11-.2,.15-.39,.32-.66,.36l-.16-.02-.13,.08c-.8,.36-1.6,.34-2.41,0h-.01c-.12-.16-.27-.29-.44-.38-.1-.12-.22-.17-.37-.16-.23-.06-.39-.24-.6-.34-.29-.05-.58-.09-.86-.14-.56-.27-1.11-.3-1.67,0l-.2-.03-.19,.08c-.28,.27-.71,.19-1.01,.43l.03-.02c-.22,.34-.7,.24-.94,.54h0c-.38,.25-.71,.33-.92-.2,.03-.12,0-.22-.1-.3-.16-.19-.33-.39-.38-.64,.03-.13,0-.24-.1-.32-.23-.26-.12-.7-.44-.92v-.03c-.26-.27-.16-.71-.48-.94v-.03c-.26-.27-.16-.71-.48-.95v-.02c-.26-.27-.17-.71-.47-.96h0c-.27-.27-.18-.72-.48-.96h0c-.27-.28-.19-.72-.47-.98h0c-.28-.26-.2-.7-.48-.97h0c-.29-.25-.21-.7-.49-.96h0c-.29-.26-.22-.7-.48-.98v.02c-.3-.25-.22-.7-.48-.98v.02c-.3-.25-.22-.7-.48-.99v.02c-.3-.26-.23-.7-.47-1l.02,.03c-.33-.25-.25-.7-.5-.99l.02,.03c-.33-.25-.26-.7-.49-1l.02,.03c-.34-.24-.27-.7-.5-1l.02,.03c-.35-.24-.27-.7-.51-1l.02,.03c-.36-.27-.3-.74-.49-1.08,.02-.14-.02-.27-.12-.37-.13-.2-.31-.37-.37-.61,.03-.14-.01-.26-.11-.36-.13-.2-.31-.37-.37-.61,.03-.14,0-.25-.1-.35-.15-.2-.32-.39-.37-.64,.03-.13,0-.24-.1-.32-.16-.2-.33-.39-.38-.64,.03-.13,0-.24-.1-.32-.16-.2-.33-.39-.38-.66,.04-.12,.01-.22-.09-.3-.26-.26-.14-.7-.46-.92v-.03c-.26-.27-.16-.71-.48-.94v-.02c-.26-.28-.17-.71-.47-.96h0c-.27-.27-.18-.72-.48-.96h0c-.27-.27-.18-.72-.47-.97h0c-.28-.27-.2-.71-.48-.98h0c-.29-.25-.21-.7-.49-.96h0c-.29-.26-.22-.7-.48-.98v.02c-.3-.26-.22-.71-.48-.99v.02c-.3-.25-.22-.7-.48-.98v.02c-.3-.26-.23-.7-.47-1l.02,.03c-.33-.25-.25-.7-.5-.99l.02,.03c-.33-.25-.26-.7-.5-1l.02,.03c-.34-.25-.27-.7-.5-1l.02,.03c-.35-.24-.27-.7-.51-1l.02,.03c-.36-.27-.29-.73-.5-1.08Z"/>
      <path class="f" d="M86.41,235.69c.29-.04,.58-.07,.88-.11,.29-.2,.7-.13,.96-.4h0c.24-.28,.71-.18,.93-.5h.02c.19-.14,.34-.33,.54-.44l-.03,.03c.14-.21,.3-.38,.53-.5l-.04,.04c.12-.22,.29-.39,.5-.53l-.03,.03c.12-.2,.3-.36,.46-.53h0c.16-.15,.31-.31,.43-.5l.04-.04c.18-.11,.32-.26,.42-.44l.06-.06c.19-.09,.33-.23,.43-.42l.06-.05c.19-.11,.35-.25,.48-.42h.02c.19-.15,.33-.34,.54-.45l-.03,.03c.22-.34,.7-.23,.93-.54h.01c.29-.27,.72-.19,1.01-.46,.17,.04,.32,0,.46-.09,.48-.28,1.08-.05,1.56-.37,.72,0,1.44,0,2.17,0,.62,.42,1.4,0,2.02,.38l.8,.12c.37,.15,.78,.16,1.13,.36,.14,.1,.29,.12,.46,.08,.28,.26,.67,.2,.98,.37,.26,.05,.52,.1,.78,.15,.26,.03,.45,.21,.67,.32,.26,.05,.52,.11,.78,.16,.26,.03,.45,.21,.67,.32l.78,.16c.26,.02,.45,.21,.67,.32l.82,.16c.36,.16,.78,.15,1.12,.38,.12,.1,.26,.12,.41,.07,.3,.22,.7,.19,1.02,.36,.31,.04,.61,.08,.92,.12,.44,.36,1.03,.1,1.49,.36,1.62,.27,3.24,.33,4.86,0,.36-.16,.75-.19,1.12-.33,.27-.05,.54-.1,.81-.16,.21-.12,.39-.29,.64-.33,.13,.04,.23,.01,.31-.09,.26-.25,.7-.12,.91-.46h.03c.2-.17,.39-.35,.65-.42,.15,.01,.27-.04,.35-.17,.18-.09,.32-.21,.44-.36h0c.18-.15,.33-.34,.53-.46l-.03,.03c.14-.21,.31-.38,.53-.5l-.04,.04c.12-.23,.29-.4,.53-.51l-.04,.04c.11-.23,.29-.4,.49-.54l-.03,.03c.12-.2,.31-.34,.44-.54l.02-.02c.16-.11,.28-.24,.36-.42l.43-.47c.26,.08,.48,.24,.67,.42h0c.14,.2,.33,.34,.44,.55l-.03-.04c.35,.21,.24,.7,.55,.93h0c.26,.33,.23,.76,.42,1.1-.05,.14-.02,.26,.08,.37,.35,.47,.08,1.09,.4,1.57l.02,2.19c-.23,.31-.18,.71-.39,1.03-.11,.08-.15,.19-.12,.33-.06,.27-.24,.46-.42,.66h0c-.3,.25-.22,.7-.47,.96h0c-.31,.24-.2,.74-.57,.93l.05-.04c-.13,.25-.33,.42-.61,.51-.15-.02-.26,.03-.35,.15-.19,.12-.38,.23-.57,.34h-.2l-.18,.09c-.32,.22-.74,.19-1.07,.38l-.2-.02-.18,.09c-.35,.24-.77,.25-1.15,.39l-.16-.03-.13,.09c-.3,.29-.75,.23-1.09,.43-.16-.02-.28,.04-.38,.17-.18,.09-.32,.21-.44,.37h-.01c-.18,.15-.33,.32-.5,.47h0c-.15,.16-.32,.31-.46,.49h0c-.16,.13-.28,.28-.38,.45-.13,.07-.18,.18-.16,.33-.06,.27-.24,.47-.42,.66h0c-.31,.25-.21,.71-.51,.95h0c-.27,.25-.18,.72-.52,.95l.03-.03c-.13,.17-.25,.34-.37,.51-.12,.07-.17,.18-.14,.31-.06,.29-.24,.49-.47,.66l.02-.03c-.13,.19-.31,.35-.47,.52h0c-.17,.16-.32,.33-.52,.47l.02-.02c-.16,.22-.36,.39-.63,.47-.16,0-.29,.07-.38,.2-.47,.04-.99,.28-1.35-.26l.06,.05c-.27-.08-.44-.26-.53-.52l.04,.05c-.26-.08-.43-.26-.54-.51l.04,.04c-.23-.1-.4-.28-.54-.49l.03,.02c-.19-.12-.34-.31-.53-.43l-.03-.02c-.21-.34-.71-.21-.9-.57l.04,.04c-.18-.13-.36-.26-.53-.39-.07-.11-.17-.15-.29-.12-.28-.04-.48-.21-.67-.39l-.11-.1h-.15c-.28-.01-.48-.19-.69-.36l-.16-.11h-.19c-.35-.18-.8-.14-1.11-.42l-.13-.09-.16,.03c-.38-.14-.79-.16-1.14-.37l-.79-.1c-2.18-.31-4.37-.34-6.55,.02l-.88,.13c-.31,.18-.7,.11-.98,.38l-.47,.11c-.21,.12-.39,.29-.64,.34h-.18l-.14,.1c-.27,.23-.7,.13-.93,.44h-.01c-.29,.27-.73,.2-1.03,.45-.17-.03-.31,.01-.44,.12-.21,.11-.37,.29-.61,.34h-.19l-.16,.1c-.28,.23-.7,.14-.95,.43h0c-.29,.28-.73,.22-1.05,.45-.16-.03-.3,0-.42,.12-.2,.11-.37,.29-.59,.35-.15-.02-.28,.03-.37,.15-.18,.1-.34,.22-.5,.36l.03-.02c-.21,.32-.7,.19-.88,.55l-.05,.03c-.19,.12-.36,.26-.53,.41l.02-.02c-.15,.19-.32,.37-.54,.48l.04-.04c-.12,.24-.29,.42-.55,.5l.05-.04c-.12,.3-.34,.47-.66,.52-.14,0-.22,.07-.26,.2-.35,.14-.2,.66-.59,.76l.06-.05c-.08,.26-.26,.43-.51,.55l.04-.04c-.1,.23-.28,.4-.49,.54l.02-.03c-.12,.19-.31,.34-.43,.53l-.02,.03c-.34,.21-.22,.7-.56,.9l.03-.04c-.13,.17-.25,.35-.38,.52-.12,.08-.16,.18-.12,.32-.05,.26-.22,.45-.38,.65-.11,.08-.15,.18-.11,.31-.04,.26-.21,.45-.36,.65-.11,.11-.15,.23-.11,.38-.21,.33-.15,.76-.42,1.07-.1,.1-.13,.21-.08,.34-.32,.48-.03,1.13-.43,1.59-.1,.1-.12,.22-.04,.35-.41,1.07-.18,2.18-.19,3.26-.04,3.09-.01,3.09-3.12,2.7-.27-.03-.54-.07-.81-.1-.65-.38-1.45,.02-2.09-.4-.65-.19-1.3-.17-1.95,.03-.32,.21-.73,.17-1.05,.39-.15-.03-.28,0-.4,.11-.21,.15-.41,.33-.68,.35l-.15-.02-.12,.1c-.27,.27-.71,.17-.96,.46h0c-.27,.28-.71,.2-.98,.47h.01c-.29,.3-.74,.25-1.08,.45h-.2l-.17,.08c-1.6,.3-3.2,.35-4.8-.02l-.19-.08-.2,.03c-.32-.21-.72-.18-1.04-.37-.11-.1-.25-.14-.4-.11-.21-.09-.37-.25-.57-.37-.07-.12-.17-.16-.3-.14-.31-.06-.52-.23-.65-.51l.05,.04c-.25-.1-.42-.28-.52-.53l.05,.05c-.4-.18-.28-.68-.58-.92h0c-.27-.27-.18-.71-.48-.97h0c-.27-.34-.27-.77-.42-1.16,.07-.11,.05-.21-.05-.29,.6-1.54,2.12-.19,2.97-.93,.3-.04,.59-.08,.89-.12,.32-.18,.72-.14,1.02-.37,.16,.04,.3,0,.43-.1,.21-.14,.4-.32,.67-.35,.12,.04,.21,.01,.29-.09,.2-.17,.39-.35,.66-.39,.13,.03,.23-.02,.31-.13,.17-.12,.34-.25,.51-.39l-.03,.02c.16-.23,.36-.41,.65-.47,.15,0,.26-.07,.33-.21,.18-.06,.3-.17,.36-.34l.07-.06c.19-.09,.33-.23,.43-.42l.05-.05c.19-.1,.32-.24,.41-.43l.05-.07c.38-.15,.23-.68,.6-.84l-.05,.04c.1-.23,.28-.39,.46-.55h-.01c.14-.13,.27-.29,.37-.47,.12-.08,.17-.19,.15-.34,.06-.26,.24-.45,.41-.65v-.02c.33-.23,.23-.68,.5-.94h0c.3-.25,.21-.7,.48-.96h0c.3-.25,.2-.68,.44-.95,.11-.09,.15-.2,.1-.33,.17-.36,.14-.81,.46-1.12v.02c.24-.28,.17-.69,.4-.98,.11-.11,.14-.23,.1-.37,.2-.34,.15-.77,.41-1.08,.11-.09,.13-.19,.08-.32,.16-.37,.15-.8,.42-1.13h0c.46-.38,.04-1.07,.51-1.44v.02c.24-.28,.18-.69,.4-.98,.11-.1,.14-.22,.11-.36,.19-.35,.14-.8,.46-1.09v.02c.25-.28,.18-.72,.45-.99h0c.29-.25,.2-.7,.49-.96h0c.29-.25,.19-.72,.53-.95l-.03,.04c.11-.21,.3-.35,.42-.55l.02-.03c.34-.2,.21-.71,.6-.88l-.05,.05c.1-.25,.28-.41,.5-.54l-.04,.04c.12-.23,.29-.4,.52-.52l-.04,.04c.14-.26,.35-.44,.65-.5,.14,.02,.24-.04,.31-.16,.18-.1,.34-.23,.49-.36l-.02,.02c.26-.32,.72-.23,1.01-.49,.16,.03,.31,0,.44-.1,.34-.18,.74-.17,1.07-.36,1.21,0,2.42,0,3.63-.01,.55,.3,1.1,.29,1.65,0Z"/>
      <path class="f" d="M62.92,156.23l.77-.17c.33-.14,.71-.12,1.01-.34,1.07,0,2.15,0,3.22,0,.44,.37,1.07,.06,1.51,.41,.1,.1,.22,.13,.36,.08,.22,.06,.38,.24,.59,.33,.13,.11,.28,.16,.44,.13,.16,.13,.33,.24,.52,.34,.1,.12,.24,.18,.4,.16,.23,.1,.41,.27,.6,.42l.03,.02c.1,.16,.23,.28,.41,.34,.07,.13,.18,.2,.33,.2,.29,.07,.5,.24,.63,.5l-.05-.04c.24,.11,.41,.29,.52,.53l-.04-.05c.28,.13,.45,.34,.51,.65-.01,.14,.05,.24,.17,.31,.09,.18,.21,.33,.36,.45h0c.19,.19,.37,.39,.43,.66-.03,.13,0,.24,.12,.32,.14,.2,.3,.38,.36,.63-.03,.14,0,.25,.12,.34,.13,.2,.3,.37,.36,.61-.04,.14,0,.26,.1,.35,.21,.32,.17,.73,.39,1.04-.05,.14-.03,.28,.06,.4,.32,1.28,.35,2.56-.03,3.84-.1,.1-.12,.21-.06,.33-.17,.35-.16,.77-.38,1.1-.11,.1-.14,.22-.1,.36-.2,.35-.13,.81-.49,1.08l.03-.04c-.13,.17-.25,.35-.38,.52-.12,.07-.16,.18-.13,.31-.06,.29-.24,.49-.47,.66l.02-.03c-.13,.19-.31,.34-.44,.53v.02c-.19,.13-.33,.29-.44,.47l-.04,.05c-.19,.11-.33,.25-.44,.44l-.04,.04c-.18,.12-.35,.27-.49,.43h0c-.18,.16-.33,.35-.54,.45l.04-.04c-.21,.35-.7,.23-.91,.56h-.02c-.21,.18-.4,.37-.69,.41h-.17l-.13,.1c-.19,.16-.38,.33-.64,.39-.14-.03-.25,.02-.33,.13-.2,.12-.36,.29-.58,.36-.15-.03-.28,.02-.38,.13-.2,.11-.36,.28-.58,.35-.15-.03-.28,.02-.38,.13-.2,.11-.37,.28-.59,.35-.14-.03-.27,0-.37,.12-.2,.14-.39,.31-.65,.35h-.17l-.14,.1c-.27,.24-.7,.14-.95,.44h0c-.29,.28-.73,.21-1.03,.45-.16-.03-.31,.01-.43,.12-.21,.11-.38,.3-.62,.34h-.18l-.15,.09c-.28,.24-.7,.15-.97,.43h.01c-.3,.3-.74,.24-1.08,.45h-.2l-.17,.1c-.28,.22-.7,.14-.96,.42h0c-.3,.29-.74,.24-1.08,.44h-.2l-.17,.1c-.28,.22-.7,.14-.96,.42h0c-.3,.29-.74,.24-1.08,.44h-.2l-.17,.1c-.29,.22-.7,.14-.97,.41h.01c-.3,.3-.74,.25-1.08,.45-.14-.03-.27,0-.37,.1-.28,.22-.7,.13-.94,.43h0c-.26,.27-.71,.17-.94,.49h-.02c-.31,.26-.74,.21-1.06,.44h-.21l-.19,.07c-1.43,.31-2.87,.29-4.31,.01l-.22-.09-.24,.02c-.28-.26-.68-.2-.98-.38-.13-.1-.27-.14-.43-.11-.3-.25-.76-.16-1.02-.5l.03,.02c-.16-.13-.32-.25-.5-.36-.09-.12-.2-.17-.35-.15-.27-.08-.46-.25-.63-.46h.02c-.18-.12-.32-.3-.52-.42l-.03-.02c-.12-.18-.28-.32-.46-.43l-.05-.04c-.11-.18-.25-.34-.43-.45l-.03-.04c-.13-.18-.27-.35-.43-.5h0c-.16-.17-.35-.32-.46-.54l.04,.04c-.36-.21-.25-.7-.55-.94h0c-.28-.26-.19-.71-.49-.95h0c-.27-.27-.17-.71-.48-.96h0c-.26-.33-.23-.76-.42-1.11,.06-.13,.03-.25-.06-.36-.36-1.27-.31-2.55-.04-3.83,.1-.14,.12-.3,.07-.46,.42-.41,.04-1.08,.48-1.48h0c.28-.26,.21-.69,.45-.97v-.02c.33-.23,.22-.7,.54-.93l-.02,.02c.15-.17,.28-.34,.4-.53l.04-.06c.36-.17,.22-.7,.61-.85l-.05,.05c.1-.25,.28-.42,.51-.53l-.04,.04c.11-.24,.29-.41,.53-.51l-.05,.05c.15-.39,.68-.24,.85-.61l.06-.04c.19-.12,.37-.25,.53-.4h-.02c.38-.51,.25-1.05,.03-1.59,.05-.14,.02-.26-.08-.36-.35-.46-.07-1.09-.41-1.55l-.08-.86c-.28-.8-.32-1.6,.02-2.39l.08-.78c.14-.37,.16-.78,.36-1.13,.1-.11,.14-.24,.1-.39,.22-.33,.15-.79,.48-1.06l-.02,.03c.13-.16,.25-.32,.36-.5,.12-.08,.17-.19,.16-.34,.07-.28,.25-.47,.47-.63l-.02,.03c.13-.2,.31-.36,.48-.52h0c.16-.16,.32-.34,.51-.47l-.02,.02c.16-.21,.35-.38,.61-.47,.15,.01,.28-.05,.37-.17,.18-.09,.35-.2,.5-.34l.46-.14c.19-.11,.39-.21,.58-.32l.85-.14c.21-.11,.38-.3,.63-.33,.14,.03,.25,0,.33-.12,.21-.15,.4-.33,.67-.36l.79-.16c.35-.15,.74-.16,1.08-.33,.87,0,1.73,0,2.6,0,.35,.16,.73,.18,1.09,.32l.86,.15c.2,.1,.39,.21,.58,.32l.48,.14c.27,.28,.73,.18,.99,.5l-.02-.02c.15,.14,.31,.26,.49,.36,.08,.12,.19,.17,.33,.16,.28,.07,.49,.24,.64,.48l-.03-.03c.21,.12,.37,.3,.52,.48h-.01c.18,.14,.34,.3,.5,.48h0c.17,.15,.35,.31,.48,.5l-.02-.02c.2,.15,.38,.31,.48,.54l-.05-.04c.37,.2,.25,.69,.57,.92h0c.18,.21,.37,.41,.42,.69,.11,.25,.27,.39,.55,.24,.21-.17,.41-.35,.69-.37Z"/>
    </g>
  </g>
</svg>