<?xml version="1.0" encoding="UTF-8"?>
<svg id="b" data-name="圖層 2" xmlns="http://www.w3.org/2000/svg" width="184.87" height="149.22" viewBox="0 0 184.87 149.22">
  <defs>
    <style>
      .d {
        fill: #fff;
      }

      .e {
        fill: #f9c45e;
      }

      .f {
        fill: #e8473f;
      }
    </style>
  </defs>
  <g id="c" data-name="圖層 3">
    <g>
      <path class="d" d="M76.6,148.49c10.54,.89,21.14,.97,31.69,.24l46.63-3.88c1.97-2.58-.68-7.79-3.46-7.79,0-1.42-2.23-.82-2.23-2.24,0-28.32-25.1-50.97-56.48-50.97s-56.48,22.65-56.48,50.97v2.83c-.97,.22-2.17,.35-3.45,.44,1.36,2.46,2.91,4.83,4.62,7.1l39.17,3.3Z"/>
      <path class="e" d="M92.33,148.78c-3.21,0-6.42-.05-9.63,.02-1.32,.03-1.74-.45-1.96-1.74-1-5.98-1.07-11.97-.23-17.96,1.08-7.69,3.42-14.98,7.18-21.79,.47-.84,.9-1.7,1.59-2.39,1.89-1.88,4.59-1.86,6.4,.09,.48,.52,.87,1.15,1.22,1.78,4.17,7.52,6.75,15.53,7.67,24.11,.57,5.3,.48,10.56-.4,15.8-.33,2-.41,2.04-2.46,2.06-3.13,.04-6.26,.01-9.39,.01h0Z"/>
      <path class="f" d="M184.87,125.98c-.12-.81-.14-1.62,0-2.43-.26-.53-.06-1.17-.4-1.68-.14-.07-.17-.18-.09-.31-.17-.36-.12-.82-.49-1.09-.08-.21-.26-.35-.37-.55l-.02-.04c-.33-.17-.23-.67-.59-.81-.06-.26-.22-.42-.47-.5-.1-.28-.3-.45-.6-.5-.16,.03-.26-.03-.31-.19-.31-.12-.61-.12-.92,0-.07,.15-.19,.21-.35,.17-.26,.07-.45,.24-.64,.42h0c-.12,.16-.27,.27-.46,.35-.08,.16-.2,.22-.37,.18-.24,.08-.42,.26-.62,.4h-.03c-.21,.35-.69,.23-.91,.55l.03-.02c-.16,.13-.33,.25-.51,.35-.09,.15-.21,.2-.38,.16-.23,.07-.4,.24-.59,.36-.07,.14-.18,.18-.33,.13-.25,.05-.44,.22-.64,.37-.07,.14-.17,.18-.31,.12-.26,.04-.45,.21-.65,.34-.09,.14-.22,.18-.37,.12-.2,.1-.39,.21-.59,.32-.16,.04-.32,.08-.48,.12-.26,.29-.67,.2-.96,.39l-.75,.15c-.39,.11-.8,.17-1.17,.34-1.13,.27-2.26,.31-3.39,0-.32-.19-.73-.16-1.04-.37-.17,.06-.3,.02-.4-.13-.17-.11-.34-.22-.51-.33-.17-.34-.68-.2-.83-.58l-.07-.06c-.2-.08-.33-.22-.42-.41l-.05-.07c-.35-.13-.25-.64-.61-.76-.03-.27-.22-.43-.43-.57-.21-.3-.17-.72-.45-.98-.39-1.63-.37-3.26,0-4.89-.09-.15-.07-.3,.05-.42,.44-.6-.05-1.4,.43-1.99-.08-.16-.06-.3,.06-.42,.42-.62-.03-1.41,.41-2.02,.03-.29,.06-.58,.09-.87,.27-1.28,.32-2.56-.04-3.84-.13-.09-.15-.21-.07-.35-.18-.35-.15-.79-.43-1.11h0c-.3-.24-.21-.7-.54-.91-.1-.21-.27-.37-.45-.53h0c-.15-.17-.32-.33-.5-.48h.01c-.16-.17-.32-.36-.55-.45l.05,.04c-.45-.42-.89-.47-1.31-.01-.25,.05-.4,.25-.59,.39h-.02c-.23,.32-.64,.22-.93,.42-1.14,.43-2.27,.31-3.4-.03-.31-.16-.7-.09-.97-.37l-.47-.11c-.21-.09-.37-.27-.6-.33-.15,.05-.27,.01-.36-.13-.2-.12-.37-.3-.62-.35-.16,.05-.27,0-.35-.15-.17-.11-.33-.22-.49-.33-.2-.34-.69-.22-.9-.55l-.03-.02c-.19-.11-.33-.29-.53-.39-.15-.26-.35-.44-.66-.47-.16,.03-.25-.03-.29-.19-.18-.08-.33-.21-.43-.37l-.02-.02c-.19-.13-.34-.3-.52-.44h.01c-.15-.17-.3-.34-.51-.45-.12-.21-.28-.37-.49-.47-.11-.22-.26-.38-.49-.47-.09-.23-.25-.39-.48-.49-.1-.22-.26-.38-.47-.49-.1-.21-.27-.37-.46-.5-.12-.19-.29-.34-.44-.51h0c-.17-.15-.3-.31-.41-.5l-.04-.06c-.37-.16-.24-.66-.57-.84-.21-.3-.15-.73-.46-.99v.02c-.23-.28-.17-.69-.39-.99-.14-.1-.17-.23-.1-.38-.36-.46-.03-1.12-.46-1.55v.02c-.5-.57,.03-1.38-.45-1.95-.14-.1-.15-.22-.06-.36-.41-.63,0-1.41-.38-2.05-.17-.4-.25-.81-.11-1.23-.44-1,.06-2.11-.38-3.1-.17-.73-.29-1.46-.1-2.21-.44-2.49-.05-5-.23-7.5-.05-.64,.6-1.65-.69-1.87h0c-.27,.27-.18,.71-.48,.96h0c-.26,.3-.21,.72-.44,1.02v-.03c-.33,.29-.28,.75-.46,1.11,.07,.15,.03,.25-.11,.33-.23,.28-.13,.7-.43,.95h0c-.27,.28-.19,.72-.47,.98h0c-.28,.26-.19,.7-.49,.96h0c-.2,.2-.39,.4-.42,.7,.05,.15,0,.24-.15,.27-.11,.18-.24,.34-.39,.49h0c-.17,.15-.34,.3-.47,.5-.19,.12-.34,.3-.52,.44h-.01c-.24,.31-.67,.21-.94,.45-.49,.23-.98,.19-1.46-.03-.28-.21-.7-.12-.95-.42h0c-.19-.19-.38-.37-.66-.42-.16,.03-.27-.03-.32-.19-.18-.08-.32-.2-.43-.37l-.03-.02c-.18-.14-.34-.29-.5-.45h0c-.16-.16-.32-.32-.49-.48-.16-.16-.32-.32-.47-.49h0c-.17-.15-.31-.31-.44-.49l-.03-.03c-.17-.1-.3-.24-.38-.42-.15-.02-.22-.11-.19-.26-.03-.32-.21-.54-.48-.69-.11-.17-.23-.34-.35-.5-.14-.04-.19-.12-.13-.26-.02-.31-.21-.51-.4-.72h0c-.31-.25-.2-.69-.45-.95-.14-.06-.17-.16-.1-.29-.14-.39-.14-.83-.42-1.16l-.12-.1,.05-.14c-.11-.4-.16-.82-.37-1.2-.13-.12-.15-.26-.07-.42-.46-.59,0-1.37-.4-1.98-.17-.4-.25-.81-.11-1.23-.48-1.16,.09-2.43-.39-3.59-.18-.56-.28-1.13-.1-1.71-.4-.83,.02-1.78-.37-2.62l-.1-.86c-.44-.62,.05-1.44-.44-2.04l-.12-.12,.05-.16c-.13-.39-.15-.81-.39-1.17-.14-.07-.17-.18-.09-.31-.16-.37-.13-.82-.46-1.12v.03c-.23-.29-.15-.74-.48-.99-.22-.27-.16-.72-.52-.91-.06-.23-.24-.39-.4-.56h0c-.19-.2-.41-.37-.69-.43-.11,.15-.22,.29-.33,.44-.15,.2-.32,.39-.37,.65,.05,.15,0,.26-.14,.32-.11,.17-.23,.33-.35,.49-.22,.15-.42,.3-.43,.59-.53,.42-.96,.94-1.47,1.39-.19,.09-.38,.21-.55,.34-.1,.14-.24,.18-.4,.11-.74,.37-1.49,.23-2.24,.02l-.75-.17c-.19-.11-.38-.22-.56-.34-.18,.04-.31-.02-.4-.18-.18-.07-.33-.19-.45-.35h-.01c-.18-.15-.32-.33-.53-.42-.12-.21-.28-.38-.51-.46-.08-.24-.24-.4-.49-.48-.08-.24-.24-.4-.48-.48-.07-.24-.24-.4-.47-.5-.09-.23-.26-.38-.45-.52-.12-.18-.29-.33-.42-.51l-.02-.02c-.17-.1-.29-.25-.36-.43-.16-.05-.22-.15-.19-.32-.05-.29-.23-.49-.45-.65v.02c-.12-.16-.25-.32-.36-.5-.15-.04-.2-.14-.16-.29-.04-.3-.22-.5-.43-.68h0c-.28-.25-.18-.72-.55-.93-.1-.17-.21-.35-.33-.51-.15-.06-.19-.16-.14-.31-.04-.27-.21-.46-.38-.66l-.13-.09,.02-.16c-.01-.29-.2-.5-.37-.71l-.13-.1,.02-.16c-.01-.29-.2-.5-.37-.71-.14-.06-.18-.16-.11-.3-.03-.26-.21-.45-.35-.66-.14-.09-.18-.21-.12-.37-.2-.34-.15-.79-.45-1.08h0c-.27-.26-.2-.67-.41-.96-.14-.1-.17-.23-.1-.38-.21-.33-.17-.74-.38-1.06-.14-.1-.17-.23-.09-.39-.36-.45-.05-1.09-.42-1.54-.13-.09-.15-.2-.07-.34-.18-.35-.14-.79-.42-1.11l-.12-.09,.04-.15c-.12-.41-.14-.85-.41-1.21l-.12-.1,.05-.15c-.12-.4-.16-.82-.37-1.18-.14-.1-.16-.23-.08-.38-.34-.46-.06-1.08-.4-1.54-.13-.13-.15-.27-.07-.43-.47-.59,0-1.37-.41-1.98-.03-.28-.06-.56-.09-.85-.5-.96,.07-2.05-.39-3.01-.17-.72-.35-1.43-.09-2.17-.35-.92-.16-1.88-.2-2.82-.13-3.31,.24-6.64-.2-9.94-.03-.27-.06-.55-.08-.82-.31-.48-.05-1.11-.4-1.59-.14-.08-.16-.19-.09-.33-.18-.35-.12-.81-.5-1.07-.07-.22-.26-.36-.39-.54v-.02c-.19-.13-.33-.29-.45-.47l-.04-.03c-.18-.13-.36-.27-.52-.42h.01c-.27-.3-.72-.21-1-.47-.59,0-1.18,.01-1.77,.02-.33,.2-.74,.17-1.06,.38-.08,.13-.19,.17-.33,.11-.27,.07-.46,.24-.63,.45h.02c-.19,.13-.35,.3-.5,.48h.01c-.22,.16-.4,.36-.45,.64,.07,.13,.04,.24-.1,.3-.31,1.44-.3,2.88,0,4.32,.03,.26,.07,.52,.1,.79,.32,2.23,.32,4.46,0,6.69,.25,.58,.08,1.13-.08,1.69-.47,1,.05,2.13-.4,3.13,.15,.42,.06,.82-.11,1.21-.35,.67-.02,1.45-.37,2.12-.03,.25-.06,.51-.09,.76-.41,.65-.02,1.45-.39,2.11-.04,.26-.07,.52-.1,.79-.41,.61,.05,1.4-.41,2,.09,.15,.07,.29-.06,.41-.44,.61,.02,1.41-.42,2.03,.09,.14,.07,.27-.06,.38-.46,.6,.03,1.41-.43,2.01,.08,.17,.04,.31-.12,.41-.11,.21-.29,.37-.34,.61,.06,.15,.01,.27-.13,.35-.13,.21-.3,.39-.34,.64,.06,.15,.02,.25-.12,.32-.14,.2-.32,.39-.36,.65,.06,.14,.02,.25-.12,.31-.15,.21-.32,.4-.36,.67,.07,.14,.03,.24-.11,.3-.17,.21-.35,.41-.37,.71l.02,.16-.13,.1c-.17,.21-.35,.41-.37,.69,.06,.14,.02,.23-.12,.27-.15,.2-.32,.39-.37,.66,.06,.14,.02,.25-.13,.31-.14,.2-.3,.38-.36,.62,.05,.16,0,.27-.14,.35-.11,.17-.22,.33-.32,.51-.36,.22-.27,.69-.53,.96v-.02c-.3,.23-.19,.7-.51,.93v.02c-.17,.2-.35,.39-.41,.65,.05,.16,0,.27-.16,.33-.1,.18-.22,.35-.36,.5v-.02c-.22,.18-.41,.39-.43,.7,.04,.14,0,.23-.15,.26-.11,.18-.24,.34-.38,.5v-.02c-.17,.15-.36,.31-.4,.56-.38,.14-.27,.65-.6,.83l-.02,.03c-.11,.2-.29,.34-.43,.52h.01c-.18,.14-.35,.29-.45,.5-.21,.12-.37,.28-.48,.49-.22,.1-.38,.26-.48,.48-.22,.1-.38,.27-.51,.46-.19,.12-.33,.29-.52,.41h-.02c-.22,.34-.69,.23-.91,.55h.02c-.29,.23-.7,.17-.99,.39-.66,.25-1.31,.23-1.95-.06-.18-.1-.35-.2-.51-.31-.56-.39-.96-.96-1.51-1.36,0-.3-.21-.45-.43-.59-.12-.17-.23-.33-.35-.5-.15-.06-.19-.16-.14-.31-.04-.26-.21-.45-.36-.66l-.33-.44c-.28,.06-.5,.22-.69,.42h0c-.15,.18-.33,.33-.4,.56-.36,.19-.29,.64-.52,.91-.32,.25-.25,.7-.49,.99v-.03c-.32,.3-.28,.75-.45,1.12,.08,.13,.05,.24-.09,.31-.24,.35-.25,.78-.39,1.17l.05,.16-.12,.12c-.49,.6,0,1.42-.44,2.04,.1,.14,.08,.26-.05,.37-.52,.99,.05,2.12-.42,3.11,.18,.58,.07,1.15-.1,1.71-.47,1.16,.09,2.43-.38,3.59,.14,.43,.06,.83-.11,1.23-.39,.6,.07,1.38-.4,1.97,.08,.16,.06,.31-.07,.43-.2,.37-.26,.79-.37,1.2l.05,.14-.12,.1c-.28,.33-.27,.77-.42,1.15,.07,.14,.04,.24-.1,.3-.24,.27-.14,.7-.45,.94h0c-.19,.22-.39,.43-.4,.73,.05,.14,0,.22-.13,.26-.12,.16-.24,.33-.35,.5-.27,.15-.45,.37-.48,.69,.03,.15-.04,.24-.19,.26-.08,.18-.21,.32-.38,.41l-.03,.03c-.12,.18-.27,.34-.44,.49h0c-.15,.18-.31,.33-.46,.5-.16,.15-.32,.32-.5,.46h-.01c-.14,.18-.3,.32-.48,.43l-.05,.04c-.17,.35-.66,.23-.83,.58-.22,.06-.35,.24-.54,.35-.06,.14-.17,.18-.31,.12-.25,.03-.43,.21-.65,.32-.64,.26-1.29,.31-1.95,.04-.28-.23-.7-.13-.95-.43h0c-.17-.15-.32-.33-.55-.41-.09-.23-.25-.4-.49-.48-.07-.24-.25-.4-.45-.53-.13-.16-.25-.33-.37-.49l-.14-.08v-.16c0-.31-.2-.52-.41-.73h0c-.29-.26-.21-.69-.47-.97v-.02c-.32-.23-.22-.65-.42-.93-.14-.1-.18-.23-.11-.4-.21-.32-.17-.73-.39-1.05-.14-.1-.17-.23-.1-.39-.18-.35-.26-.81-.83-.71-.24,.17-.35,.4-.33,.69-.11,2.3,.23,4.62-.21,6.91,.27,.73,.09,1.45-.08,2.17-.5,1.16,.09,2.43-.4,3.59,.13,.43,.06,.83-.11,1.23-.37,.63,.03,1.41-.38,2.03,.1,.14,.08,.26-.06,.37-.48,.57,.06,1.38-.45,1.94h0c-.43,.42-.1,1.08-.46,1.54,.07,.15,.04,.28-.1,.38-.22,.3-.15,.71-.4,.99v-.02c-.32,.28-.25,.74-.46,1.07,.06,.16,.02,.28-.12,.37-.13,.2-.3,.38-.35,.63,.05,.16,0,.27-.16,.34-.1,.18-.23,.34-.37,.5v-.02c-.17,.15-.34,.31-.41,.54-.26,.1-.45,.25-.46,.56-.67,.58-1.28,1.24-1.9,1.87-.29,.03-.44,.22-.56,.46-.22,.09-.37,.26-.53,.43h0c-.15,.14-.31,.27-.48,.38-.03,.15-.12,.2-.26,.16-.31,.02-.52,.21-.7,.45l.03-.02c-.16,.13-.33,.25-.51,.36-.08,.15-.19,.2-.35,.15-.24,.07-.42,.23-.62,.37-.06,.14-.17,.18-.31,.12-.26,.04-.45,.21-.66,.35-.09,.13-.21,.17-.36,.11-.23,.06-.39,.24-.6,.32l-.77,.18c-.38,.13-.79,.16-1.16,.35-1.13,.35-2.26,.37-3.39-.02-.28-.19-.69-.09-.92-.41h-.03c-.19-.15-.34-.35-.59-.4-.43-.46-.87-.41-1.31,0l.05-.04c-.23,.1-.39,.28-.55,.46h.01c-.18,.14-.34,.3-.49,.48h0c-.17,.15-.35,.3-.45,.51-.33,.21-.24,.68-.53,.91h0c-.27,.32-.24,.76-.43,1.11,.08,.14,.06,.25-.07,.35-.34,1.44-.34,2.89,0,4.33,.13,.12,.14,.25,.05,.4,.45,.6-.01,1.4,.41,2.01,.12,.13,.14,.27,.06,.42,.47,.59-.02,1.39,.43,1.99,.13,.13,.14,.27,.05,.42,.36,1.63,.39,3.26,0,4.89-.28,.27-.24,.68-.45,.98-.21,.14-.41,.3-.43,.58-.5,.44-.98,.9-1.4,1.42-.3,0-.45,.21-.6,.42l.03-.02c-.16,.13-.33,.24-.51,.34-.15,.04-.31,.09-.46,.13-.28,.26-.67,.2-.99,.37-1.29,.33-2.58,.31-3.88,.02-.45-.3-1.05,.02-1.47-.39l-.46-.08c-.31-.21-.72-.15-1.03-.39-.16,.06-.3,.03-.42-.1-.28-.21-.7-.11-.93-.42h-.02c-.28-.26-.71-.19-.98-.47h0c-.26-.28-.71-.2-.97-.48h0c-.24-.28-.7-.17-.92-.5h-.03c-.2-.17-.38-.35-.64-.41-.16,.04-.28-.02-.35-.17-.18-.09-.34-.21-.47-.36h0c-.17-.16-.32-.34-.55-.41-.16-.34-.66-.23-.81-.59l-.06-.04c-.19-.11-.35-.24-.48-.42h-.02c-.29-.25-.61-.24-.95-.11-.05,.15-.15,.21-.31,.18-.3,.06-.5,.22-.6,.5-.24,.08-.4,.23-.47,.47-.3,.11-.47,.32-.5,.65,.05,.14,0,.22-.15,.25-.12,.18-.25,.36-.37,.53l.03-.04c-.37,.26-.29,.73-.5,1.06,.07,.15,.04,.27-.1,.37-.3,.51-.11,1.13-.37,1.65,.18,.5,.15,1,0,1.5,.36,.67,0,1.46,.38,2.13,.13,.12,.16,.25,.08,.41,.39,.43,0,1.12,.5,1.52v-.03c.22,.3,.15,.72,.41,1.01l.13,.09-.03,.15c0,.3,.19,.51,.37,.72l.13,.1-.02,.16c.02,.3,.21,.5,.39,.72v.03c.34,.22,.23,.68,.53,.92h0c.27,.24,.19,.71,.55,.9,.07,.23,.25,.38,.39,.56h0c.3,.22,.21,.71,.57,.88,.06,.24,.24,.4,.43,.55v-.02c.11,.18,.3,.32,.4,.53l.03,.04c.34,.17,.23,.67,.6,.81,.05,.26,.22,.42,.45,.53,.1,.22,.26,.37,.45,.51,.13,.19,.3,.34,.45,.5h0c.16,.15,.31,.32,.46,.49v.02c.19,.14,.34,.29,.47,.47l.02,.02c.18,.13,.33,.28,.46,.46l.02,.02c.18,.13,.33,.28,.46,.46l.02,.02c.18,.13,.34,.28,.48,.45h.01c.18,.15,.33,.32,.51,.47h-.01c.15,.16,.3,.34,.51,.45,.13,.21,.28,.38,.53,.45,.17,.36,.65,.26,.86,.57h.01c.5,.36,1.14,.14,1.66,.42,.26-.12,.51-.08,.75,.07,1.12,.56,2.38-.11,3.5,.43l.18-.08,.17,.11c1.27,.64,2.7-.13,3.97,.46,1.37-.08,2.71,.11,4.07,.26,3.39,.36,6.78,.68,10.1,1,.39-.95,.24-1.68,.25-2.39,.11-8.35,1.61-16.4,5.08-24.04,11.33-24.97,38.73-38.22,65.24-31.31,22.28,5.81,36.07,20.44,41.49,42.86,1.02,4.23,1.3,8.55,1.31,12.89,0,1.71,.05,1.71,1.78,1.56,2.56-.22,5.11-.54,7.67-.66,3.36-.15,6.69-.81,10.07-.67,1.16-.5,2.45,.12,3.61-.42l.18-.1,.2,.05c.32-.22,.75-.16,1.06-.42l.1-.12,.16,.03c.31-.02,.52-.21,.7-.45l-.02,.02c.19-.13,.34-.31,.53-.44h.02c.13-.19,.29-.33,.47-.44l.05-.04c.1-.19,.25-.33,.44-.43l.05-.05c.1-.19,.24-.34,.43-.44l.04-.05c.11-.19,.25-.34,.43-.46l.02-.02c.14-.18,.28-.34,.44-.5h0c.16-.16,.33-.31,.45-.51,.2-.13,.38-.29,.44-.54,.36-.15,.26-.65,.59-.82l.02-.04c.11-.2,.3-.35,.41-.55l-.02,.03c.25-.17,.44-.38,.46-.7-.05-.14,0-.23,.15-.26,.12-.18,.24-.35,.37-.52l-.02,.03c.33-.21,.21-.7,.55-.91v-.03c.17-.21,.35-.39,.41-.66-.05-.15,0-.26,.14-.33,.12-.2,.3-.37,.35-.61-.06-.16-.01-.27,.13-.35,.12-.2,.29-.37,.35-.61-.06-.15-.02-.27,.12-.35,.14-.21,.32-.41,.34-.68l-.03-.16,.13-.11c.26-.31,.2-.74,.41-1.07-.07-.15-.04-.28,.1-.38,.21-.34,.2-.75,.37-1.11-.09-.13-.06-.24,.07-.33,.44-.66,.05-1.47,.41-2.14Zm-154.21,11.86c-.74,.33-3.39,.77-4.99,.78-2.45-.13-5.11-.62-7.67-1.61-3.76-1.46-7.14-3.55-10.25-6.1-.37-.3-.74-.62-1.04-.99-.58-.7-.59-1.46-.04-2.2,.57-.77,1.37-.82,2.15-.49,.5,.21,.91,.63,1.34,.98,2.81,2.28,5.84,4.19,9.24,5.46,3.2,1.2,6.47,1.73,9.86,.82,.15-.04,.31-.08,.47-.1,.98-.12,1.75,.16,2.09,1.16,.33,.97-.11,1.8-1.16,2.28Zm28.81-46.7c-.21,.95-1.04,1.28-2.32,.98-1.36-.32-2.49-1.05-3.5-2-2.37-2.23-3.58-5.06-4.17-8.19-.24-1.31,.25-2.02,1.28-2.08,.99-.06,1.49,.52,1.67,1.38,.23,1.1,.55,2.17,1,3.2,.96,2.19,2.26,4.05,4.7,4.79,.92,.28,1.58,.83,1.33,1.93Zm35.36-43.88c0,11.05,0,22.1,0,33.16,0,2.01-.52,2.84-1.72,2.91-1.31,.08-1.95-.84-1.96-2.94-.02-5.45,0-10.89,0-16.34s0-10.73,0-16.1c0-.64-.04-1.29,.07-1.92,.17-.96,.78-1.62,1.8-1.61,1,.01,1.61,.64,1.77,1.63,.07,.39,.04,.8,.04,1.2Zm41.91,34.38c-.86,3.76-2.17,7.06-5.31,9.3-.85,.61-1.79,1.06-2.82,1.26-.87,.17-1.62-.03-1.92-.96-.28-.9,.07-1.63,.96-1.9,3.52-1.08,4.82-3.93,5.77-7.09,.11-.38,.19-.78,.29-1.16,.28-1.03,.96-1.47,1.99-1.17,.95,.27,1.12,1.03,1.03,1.72Zm41.46,48.87c-.1,.13-.19,.26-.31,.36-4.69,3.92-9.78,6.91-16.13,7.03-1.37-.06-2.73-.05-4.02-.59-1.07-.45-1.51-1.26-1.21-2.25,.31-1.04,1.13-1.39,2.07-1.16,6.18,1.5,11.01-1.39,15.7-4.75,.52-.37,.98-.82,1.51-1.18,.87-.6,1.7-.41,2.35,.34,.58,.68,.59,1.46,.04,2.2Z"/>
    </g>
  </g>
</svg>