<?xml version="1.0" encoding="UTF-8"?>
<svg id="b" data-name="圖層 2" xmlns="http://www.w3.org/2000/svg" width="151.71" height="58.38" viewBox="0 0 151.71 58.38">
  <defs>
    <style>
      .d {
        fill: #fff;
      }

      .e {
        fill: #fff;
      }

      .f {
        opacity: .4;
      }
    </style>
  </defs>
  <g id="c" data-name="圖層 2">
    <g class="f">
      <g>
        <path class="d" d="M46.37,.92V9.66H11.5v3.91h28.52v7.82H11.5v8.97H0V.92H46.37Z"/>
        <path class="d" d="M43.15,30.36L62.88,.92h12.79l19.92,29.44h-12.65L65.87,4h6.85l-16.93,26.36h-12.65Zm10.3-4.46v-6.9h31.46v6.9h-31.46Z"/>
        <path class="d" d="M123.88,31.28c-6.69,0-12.07-.59-16.15-1.77-4.08-1.18-7.05-2.93-8.9-5.24-1.86-2.32-2.78-5.19-2.78-8.62s.93-6.31,2.78-8.62c1.85-2.32,4.82-4.06,8.9-5.24,4.08-1.18,9.46-1.77,16.15-1.77s12.07,.59,16.15,1.77c4.08,1.18,7.05,2.93,8.9,5.24,1.85,2.32,2.78,5.19,2.78,8.62s-.93,6.31-2.78,8.62c-1.86,2.32-4.82,4.06-8.9,5.24-4.08,1.18-9.46,1.77-16.15,1.77Zm0-8.74c3.16,0,5.89-.19,8.19-.58,2.3-.38,4.08-1.07,5.34-2.07,1.26-1,1.89-2.42,1.89-4.25s-.63-3.26-1.89-4.25c-1.26-1-3.04-1.69-5.34-2.07-2.3-.38-5.03-.58-8.19-.58s-5.93,.19-8.3,.58c-2.38,.38-4.23,1.07-5.57,2.07-1.33,1-2,2.42-2,4.25s.67,3.26,2,4.25c1.33,1,3.19,1.69,5.57,2.07,2.38,.38,5.14,.58,8.3,.58Zm-5.52,5.84h11.04v11.18h-11.04v-11.18Z"/>
      </g>
    </g>
    <g>
      <path class="e" d="M37.24,35.32v6.91h-3.41v-3.96H15.87v3.96h-3.27v-6.91h3.87c-.43-.83-1.03-1.78-1.61-2.5l3.1-1.26c.83,.95,1.72,2.21,2.09,3.07l-1.55,.69h4.56v-3.93h3.53v3.93h4.5l-1.61-.57c.72-.86,1.58-2.18,2.07-3.13l3.67,1.09c-.83,1-1.64,1.89-2.35,2.61h4.36Zm-1.66,18.53c0,1.58-.32,2.41-1.46,2.93-1.12,.49-2.7,.49-4.73,.49-.17-.95-.63-2.24-1.09-3.1,1.29,.06,2.81,.06,3.21,.06,.43,0,.57-.11,.57-.43v-2.78h-5.16v7.23h-3.53v-7.23h-5.39v5.94h-3.47v-8.98h8.86v-1.72h-6.14v-6.6h15.26v6.6h-5.59v1.72h8.66v5.88Zm-15.06-10.01h8.52v-1.78h-8.52v1.78Z"/>
      <path class="e" d="M65.44,54.74c.98,0,1.15-.49,1.29-3.82,.72,.54,2.24,1.12,3.13,1.35-.37,4.53-1.26,5.71-4.1,5.71h-3.79c-3.41,0-4.22-1.03-4.22-4.25v-4.59h-3.47c-.6,4.56-2.29,7.57-9.38,9.18-.32-.92-1.23-2.32-1.89-3.04,5.88-1.09,7.11-3.01,7.6-6.14h-3.5v-16.84h18.76v16.84h-4.68v4.56c0,.92,.17,1.03,1.26,1.03h2.98Zm-15.03-17.67h11.99v-1.78h-11.99v1.78Zm0,4.53h11.99v-1.78h-11.99v1.78Zm0,4.56h11.99v-1.78h-11.99v1.78Z"/>
      <path class="e" d="M79.36,43.18v15.03h-3.39v-25.7h10.96v10.67h-7.57Zm0-8.06v1.55h4.39v-1.55h-4.39Zm4.39,5.48v-1.63h-4.39v1.63h4.39Zm1.75,13.57v1.61h-3.18v-10.61h11.1v9.01h-7.92Zm0-6.2v3.38h4.73v-3.38h-4.73Zm14.66,6.17c0,1.89-.4,2.87-1.61,3.41-1.18,.57-2.98,.66-5.62,.66-.11-.97-.66-2.58-1.15-3.5,1.66,.11,3.61,.09,4.16,.06,.54,0,.75-.17,.75-.69v-10.87h-7.77v-10.7h11.25v21.63Zm-8-19.05v1.58h4.53v-1.58h-4.53Zm4.53,5.54v-1.66h-4.53v1.66h4.53Z"/>
      <path class="e" d="M114.68,54.31c1.72,.52,3.82,.63,6.37,.63,1.95,0,9.78,0,12.13-.12-.46,.66-.92,1.98-1.09,2.81h-11.04c-5.39,0-8.95-.54-11.25-3.67-.4,1.72-1.03,3.24-2.01,4.42-.43-.72-1.29-1.81-1.98-2.32,1.61-1.98,1.89-5.36,1.98-8.81h2.73c-.03,1.06-.09,2.09-.17,3.13,.4,.92,.89,1.66,1.46,2.27v-6.54h-5.31v-2.47h12.85v2.47h-4.68v2.35h4.13v2.47h-4.13v3.38Zm3.41-12.31h-10.3v-9.47h10.3v9.47Zm-3.16-7.2h-4.1v1.35h4.1v-1.35Zm0,3.5h-4.1v1.41h4.1v-1.41Zm10.3,12.36c-1.23,1.61-3.24,3.24-5.02,4.19-.49-.55-1.58-1.52-2.18-1.98,1.69-.77,3.41-1.89,4.42-3.1l2.78,.89Zm-1.43-14.11c.17-.49,.32-1.03,.49-1.55h-5.05v-2.38h13.14v2.38h-5.02l-.69,1.55h4.88v13.02h-11.42v-13.02h3.67Zm4.59,2.29h-5.22v1.32h5.22v-1.32Zm0,3.53h-5.22v1.32h5.22v-1.32Zm0,3.5h-5.22v1.38h5.22v-1.38Zm.43,3.73c1.52,1,3.3,2.52,4.19,3.61l-2.44,1.43c-.89-1.12-2.67-2.81-4.1-3.82l2.35-1.23Z"/>
    </g>
  </g>
</svg>