<svg xmlns="http://www.w3.org/2000/svg" width="120.39" height="37.5" viewBox="0 0 120.39 37.5">
  <defs>
    <style>
      .cls-1 {
        fill: #ec6531;
      }

      .cls-2 {
        fill: #fff;
      }
    </style>
  </defs>
  <g id="圖層_2" data-name="圖層 2">
    <g id="圖層_2-2" data-name="圖層 2">
      <g>
        <path class="cls-1" d="M104.09,37.5l16.3-14.7a5.72,5.72,0,0,1,0-8.1L104.09,0H16.3L0,14.7a5.72,5.72,0,0,1,0,8.1L16.3,37.5Z"/>
        <g>
          <path class="cls-2" d="M38.76,23.76c.21,0,.25-.18.28-1.84a2.72,2.72,0,0,0,.92.45c-.08,2-.34,2.44-1.07,2.44h-.7c-.86,0-1-.32-1-1.4v-3h-.73c-.19,2-.68,3.59-2.38,4.56a4,4,0,0,0-.45-.69H29.49V25h-1V20.42a7,7,0,0,1-.61.8c-.11-.21-.4-.68-.55-.89a8.71,8.71,0,0,0,1.76-2.91H28V14.87h2.53v2.55H29.17l.79.27a7.52,7.52,0,0,1-.32.78h1.43c-.11-.23-.24-.47-.36-.68l.79-.34a5.24,5.24,0,0,1,.53,1h1.73v.92H32v.7h1.56V21H32v.73h1.64v.85H32v.83h1.77v.41a4.1,4.1,0,0,0,1.62-3.36H34.28V12.59h5.07v7.83h-1.2v3c0,.32,0,.36.21.36Zm-9.48-9.91H27.43v-1h1.85v-.8h1v2.54h-1Zm-.6,2.86h1V15.59h-1ZM31,19.39H29.49v.7H31ZM31,21H29.49v.73H31Zm-1.47,2.41H31v-.83H29.49Zm4.18-5.95H31.12V14.87h2.55Zm-1.31-2.79h-1V12.08h1v.8H34v.95H32.36Zm.53,1h-1v1.09h1Zm2.45-.74h2.89V13.75H35.34Zm0,2.2h2.89V15.91H35.34Zm0,2.2h2.89V18.11H35.34Z"/>
          <path class="cls-2" d="M49.69,17.42c-.15.28-.29.55-.45.82h6.57V25H54.54v-.54H49.09V25H47.88V20.07A10.22,10.22,0,0,1,45.59,22a5.2,5.2,0,0,0-.78-1,9.72,9.72,0,0,0,3.44-3.51H45.18v-1h3.61c.14-.27.26-.57.38-.85h-3v-1h3.36a6,6,0,0,0,.23-.8c-1.19,0-2.39.07-3.53.07a3.06,3.06,0,0,0-.24-1,62.5,62.5,0,0,0,9.52-.64l.77.94a43.75,43.75,0,0,1-5.11.55c-.08.3-.18.58-.27.87h5.47v1H50.53c-.1.28-.23.58-.35.85h6.94v1Zm4.85,1.83H49.09v.8h5.45Zm-5.45,2.46h5.45v-.8H49.09Zm5.45,1.73v-.86H49.09v.86Z"/>
          <path class="cls-2" d="M69.17,20.49A4.35,4.35,0,0,1,68,22.7a19.93,19.93,0,0,0,6.92.88,3.32,3.32,0,0,0-.53,1.29c-3.05-.11-5.53-.35-7.44-1.32A11.44,11.44,0,0,1,63.2,25a5.64,5.64,0,0,0-.77-1.15,12.62,12.62,0,0,0,3.38-1A6.42,6.42,0,0,1,64.23,21l1.1-.45a5.61,5.61,0,0,0,1.53,1.54,3.33,3.33,0,0,0,1-1.59H63.9V15H68V14H62.7V12.78H74.49V14H69.35v1h4.28v5.52ZM65.1,17.23H68V16H65.1Zm2.9,2.2a5.23,5.23,0,0,0,0-.69v-.5H65.1v1.19Zm4.37-1.19h-3v.52a5,5,0,0,1,0,.67h3.05Zm-3-2.21v1.2h3V16Z"/>
          <path class="cls-2" d="M92.07,18.73c-1.89,4.16-6.43,5.72-11.39,6.27a4.55,4.55,0,0,0-.5-1.27,21.17,21.17,0,0,0,6.14-1.34,17.49,17.49,0,0,0-1.7-1.56c-.6.32-1.25.63-2,.93a3.77,3.77,0,0,0-.79-1A12,12,0,0,0,87.54,17l1.39.32c-.28.35-.55.67-.86,1H91l.22-.05Zm-1.9-5c-1.73,3.16-5.65,5-9.31,5.71a5.25,5.25,0,0,0-.6-1.15A18.75,18.75,0,0,0,84.57,17a11.1,11.1,0,0,0-1.63-1.46c-.45.25-.92.52-1.43.76a3.86,3.86,0,0,0-.86-.94,11.58,11.58,0,0,0,4.68-3.3l1.37.32a7.8,7.8,0,0,1-.84.9h3.26l.21-.07Zm-5.62.7a5.75,5.75,0,0,1-.64.46A15.21,15.21,0,0,1,85.7,16.4a9.24,9.24,0,0,0,2.5-2Zm2.21,5c-.33.26-.7.52-1.06.77a16.46,16.46,0,0,1,1.82,1.6,7.73,7.73,0,0,0,2.66-2.37Z"/>
        </g>
      </g>
    </g>
  </g>
</svg>
