<?xml version="1.0" encoding="UTF-8"?>
<svg id="b" data-name="圖層 2" xmlns="http://www.w3.org/2000/svg" width="164.73" height="150.97" viewBox="0 0 164.73 150.97">
  <g id="c" data-name="圖層 2">
    <g>
      <path d="M99.41,.08c-2.69-.27-10.96-.39-13.4,7.56-.25,.83-.44,1.74-.56,2.75,0,.03-.46,5.73,4,10.96,2.94,3.45,7.42,6,13.3,7.57,4.61,1.23,9.05,1.61,13.35,1.98,2.19,.19,4.35,.38,6.47,.67,.17,.02,.34,.05,.51,.07,.09,.01,.17,.03,.26,.04,6.03,.92,11.78,2.82,17.11,8.26h0c.14,.07,.29,.14,.43,.21,.35,.16,.7,.33,1.05,.51,.23,.12,.47,.24,.71,.36,.32,.16,.64,.33,.96,.51,.22,.12,.44,.24,.67,.36,.5,.28,1.01,.57,1.52,.88,.21,.13,.43,.26,.65,.39,.36,.22,.73,.45,1.1,.68,.23,.14,.46,.29,.69,.44,.47,.3,.94,.61,1.42,.93,.18,.12,.35,.24,.53,.36,.51,.35,1.03,.71,1.56,1.08,.21,.15,.43,.31,.65,.46,.44,.32,.89,.65,1.35,.98,.19,.14,.38,.28,.57,.42,.62,.46,1.24,.93,1.87,1.42,.05,.04,.09,.07,.14,.11h0s0-.09,0-.14c0-.27-.02-.53-.03-.79,0-.04,0-.08,0-.13-.1-1.46-.35-2.84-.75-4.17-.03-.09-.05-.18-.08-.26-.06-.18-.12-.35-.18-.53-.04-.12-.08-.24-.13-.36-.06-.15-.12-.31-.18-.46-.06-.14-.11-.28-.18-.42-.06-.14-.12-.27-.19-.41-.07-.15-.14-.3-.22-.45-.06-.12-.13-.24-.19-.36-.09-.16-.18-.33-.27-.49-.06-.11-.13-.21-.19-.32-.11-.18-.22-.35-.33-.52-.06-.09-.12-.18-.18-.27-.13-.19-.26-.38-.4-.57-.05-.07-.1-.14-.15-.21-.17-.22-.34-.44-.51-.65-.03-.04-.06-.07-.09-.11-.43-.52-.9-1.03-1.39-1.52-10.02-9.97-31.35-12.66-41.6-13.95-2.41-.3-4.31-.55-5.56-.8-6.18-1.28-11.28-7.05-11.46-10.21-.1-1.76,.61-3.41,2.04-4.51,1.42-1.1,5.71,.36,8.44,.81,2.3,.38,4.09,.06,5.1-.89,.06-.06,.13-.11,.19-.18,.8-.91,.9-2.24,.26-3.66-.42-.95-3.76-2.98-8.62-3.46" style="fill: #fff;"/>
      <path d="M22.12,121.44s.03,.06,.04,.09c.05,.12,.11,.25,.16,.38l.1,.21c.04,.08,.08,.16,.12,.25,.09,.18,.19,.37,.29,.55,.01,.03,.03,.05,.04,.08,.07,.12,.14,.24,.22,.36,.01,.02,.02,.03,.03,.05,.23,.36,.48,.72,.76,1.05,.03,.03,.06,.07,.09,.1,.08,.09,.16,.18,.25,.27,.09,.1,.19,.19,.29,.28,.03,.02,.05,.05,.08,.08,.16-1.22,.42-4.66,.54-6.44-1.4,.37-2.62,.61-3.72,.6,.15,.55,.38,1.29,.71,2.09" style="fill: #fff;"/>
      <path d="M48,111.51c1.13,1.39,3.31,4.06,4.15,4.96,.01-.06,.02-.11,.03-.17,.02-.12,.05-.24,.06-.36,.01-.09,.03-.18,.04-.27,.01-.1,.02-.2,.03-.31,0-.09,.01-.18,.02-.27,0-.16,0-.33,0-.49,0-.1,0-.2-.01-.3,0-.09,0-.18-.01-.26,0-.1-.01-.21-.02-.31,0-.08-.01-.15-.02-.23-.02-.21-.05-.41-.08-.61,0-.05-.01-.09-.02-.14-.02-.12-.04-.25-.07-.37,0-.03-.01-.06-.02-.1-.2-.97-.47-1.82-.69-2.43-.9,.64-2.04,1.14-3.39,1.65" style="fill: #fff;"/>
      <path d="M4.56,104.39c.03,.41,.08,.82,.14,1.23,0,.05,.01,.1,.02,.15,.18,1.22,.35,2.6,.53,4.06,.07,.6,.15,1.22,.23,1.85h-.03s-.07-.06-.1-.07c-.18-.11-.36-.22-.54-.33-.06-.04-.13-.09-.19-.13-.15-.1-.29-.2-.43-.31-.07-.05-.13-.1-.2-.16-.13-.11-.27-.22-.4-.33-.06-.06-.13-.11-.19-.17-.13-.12-.26-.24-.39-.37-.05-.05-.11-.1-.16-.16-.14-.14-.27-.28-.4-.42-.04-.04-.08-.09-.12-.13-.16-.18-.31-.37-.46-.55v-.02c-.33-.41-.61-.82-.85-1.25,0-.02-.02-.03-.03-.05-.11-.19-.2-.38-.29-.57-.02-.04-.04-.08-.05-.12-.08-.17-.15-.34-.21-.5-.02-.05-.03-.09-.05-.14-.06-.16-.11-.32-.16-.49-.01-.05-.03-.09-.04-.14-.04-.17-.08-.33-.1-.49,0-.04-.02-.08-.02-.12-.03-.18-.04-.36-.05-.54,0-.02,0-.04,0-.06,0-.2,0-.4,.02-.59,0-.05,.02-.09,.03-.14,.07-.15,.12-.31,.14-.48,0,0,0-.02,.01-.02,.31-.71,.98-1.31,1.79-1.8l.08-.05c.09-.05,.18-.1,.28-.15,.04-.02,.08-.04,.12-.06,.14-.07,.29-.15,.44-.21,.06-.03,.13-.06,.2-.09,.08-.03,.15-.06,.22-.09,.11-.04,.23-.09,.34-.13,.07-.03,.14-.05,.21-.07,.09-.03,.19-.06,.28-.09,.06-.02,.12-.04,.17-.05,.12-.04,.24-.07,.36-.1-.21,1.36-.27,2.77-.16,4.24,0,.07,.01,.14,.02,.21" style="fill: #fff;"/>
      <path d="M61.48,86.99c.01,.07,.03,.13,.04,.2,.03,.16,.06,.31,.08,.47,.01,.07,.02,.13,.03,.2,.02,.17,.03,.33,.05,.5,0,.07,0,.13,.01,.19,0,.18,.01,.35,.01,.53,0,.06,0,.12,0,.18,0,.19,0,.38-.02,.57,0,.05,0,.1-.01,.15-.02,.2-.03,.4-.06,.6,0,.04-.01,.07-.01,.11-.03,.22-.06,.43-.1,.65v.04c-.24,1.21-.65,2.39-1.24,3.44h0c-.37-.71-.74-1.4-1.1-2.06-.7-1.29-1.35-2.52-1.91-3.62-.91-1.83-2.03-3.41-3.31-4.75,.02,0,.04-.02,.06-.03,.1-.04,.2-.08,.3-.12,.06-.02,.12-.04,.18-.06,.08-.03,.16-.06,.24-.08,.07-.02,.14-.05,.21-.07,.08-.03,.16-.05,.25-.07,.14-.04,.29-.08,.43-.12,.05-.01,.09-.02,.14-.04,.11-.03,.22-.05,.33-.07,.02,0,.05,0,.07-.01,1.32-.27,2.72-.28,3.65,.3h0c.11,.13,.24,.23,.38,.3h0s.07,.06,.1,.1c.21,.24,.4,.52,.56,.82,.02,.05,.05,.09,.08,.13,.06,.13,.12,.26,.18,.39,.02,.06,.05,.11,.07,.17,.05,.13,.1,.27,.14,.42,.02,.06,.04,.13,.06,.19,.04,.14,.07,.29,.11,.44" style="fill: #fff;"/>
      <path d="M8.14,109.48c.91,7.58,2.16,17.97,8.3,22.59,.35,.26,.7,.49,1.06,.72,2.3,1.44,4.74,2.06,6.94,2.18,.07,0,.14,0,.21,.01,.18,0,.35,0,.52,.01,.14,0,.28,0,.41,0,.08,0,.16,0,.24,0,.93-.04,1.79-.16,2.56-.35,.04,0,.07-.02,.11-.03,.15-.04,.29-.08,.43-.12,.04-.01,.09-.02,.14-.04,.05-.02,.1-.04,.16-.05,.09-.03,.18-.06,.27-.09,.2-.07,.39-.15,.57-.23h0c.09-.04,.17-.08,.26-.12,.12-.06,.24-.11,.36-.17,.07-.04,.14-.07,.21-.11,.13-.06,.25-.13,.38-.19,.13-.07,.25-.14,.37-.21,.06-.03,.12-.07,.18-.1,.91-.52,1.71-1.05,2.5-1.58,.2-.13,.4-.27,.6-.4,.05-.03,.1-.06,.15-.1,.15-.1,.3-.2,.45-.29,.08-.05,.16-.1,.24-.15,.13-.08,.25-.16,.38-.24,.09-.06,.19-.11,.28-.17,.12-.07,.24-.14,.37-.21,.1-.06,.21-.12,.31-.17,.12-.07,.25-.13,.38-.2,.11-.06,.22-.11,.33-.17,.13-.06,.27-.13,.41-.19,.11-.05,.22-.1,.34-.16,.17-.07,.34-.14,.51-.21,.1-.04,.19-.08,.28-.11h0l-1.7-5.37c-.24-.77,.18-1.59,.95-1.83h0c.77-.24,1.59,.18,1.83,.95l1.7,5.37c.13-.03,.25-.06,.38-.09,.15-.03,.29-.07,.44-.1,.15-.03,.29-.06,.44-.08,.12-.02,.24-.04,.36-.06,.15-.02,.3-.04,.45-.06,.11-.02,.22-.03,.33-.04,.15-.02,.3-.03,.45-.05,.1,0,.2-.02,.29-.03,.16-.01,.31-.03,.47-.04,.08,0,.16,0,.23-.01,.17,0,.35-.02,.52-.03,.01,0,.03,0,.04,0,.44-.02,.88-.03,1.31-.04,1.51-.04,3.08-.08,4.92-.43h.05c.18-.04,.36-.09,.54-.14,.1-.03,.2-.05,.3-.09,.05-.01,.1-.03,.15-.04,.04-.01,.08-.03,.12-.04,.14-.05,.28-.1,.43-.15,.04-.01,.07-.03,.11-.04,.71-.28,1.46-.66,2.22-1.14,.1-.06,.2-.12,.3-.19,.08-.06,.17-.12,.25-.18,.18-.13,.35-.25,.52-.39,.02-.02,.05-.04,.07-.06,2.02-1.57,3.92-3.89,4.93-7.01,2.37-7.31-2.59-16.52-6.2-23.25-.7-1.31-1.37-2.55-1.95-3.7-.04-.08-.09-.16-.13-.23-.16-.31-.33-.61-.5-.91-.09-.16-.19-.31-.28-.46-.14-.22-.29-.44-.44-.65-.1-.15-.21-.29-.31-.43-.19-.25-.39-.49-.59-.72-.15-.17-.3-.33-.45-.49-.18-.19-.35-.37-.53-.54-.14-.13-.28-.26-.43-.39-.16-.14-.32-.27-.48-.41-.15-.12-.3-.24-.45-.35-.21-.16-.44-.3-.66-.44-.07-.05-.15-.1-.22-.15h0s-.03,.1-.05,.14c-1.07,2.35-2.59,3.3-3.66,3.69h0c-1.22,.44-2.56,.39-3.6-.12-.38-.19-.84-.28-1.23-.14-.23,.08-.43,.24-.58,.52-.58,1.05-1.32,1.76-2.18,2.14-.86,.37-1.84,.4-2.9,.07-.63-.2-1.13-.2-1.39-.01,0,0-.02,0-.03,.02-.15,.13-.18,.31-.18,.36,.06,.38,.44,.73,.99,.92,1.1,.39,2.19,1.51,1.19,4.7-.08,.25-.14,.5-.19,.75,0,.02,0,.04,0,.06-.04,.22-.08,.43-.1,.64,0,.08,0,.15-.01,.23-.01,.14-.02,.28-.02,.42,0,.11,0,.22,.02,.32,0,.09,.01,.19,.02,.28,.02,.13,.04,.25,.07,.37,.01,.05,.02,.11,.04,.17,.04,.13,.08,.26,.13,.38,.01,.03,.02,.06,.04,.09,.06,.13,.12,.25,.2,.36,.01,.01,.02,.03,.03,.04,.08,.11,.17,.21,.26,.3h0c.94-.07,1.92,.17,2.82,.7h.02c.14,.09,.29,.19,.43,.29h0c.14,.11,.29,.22,.43,.34,1.15,1.01,1.41,2.06,1.43,2.77,.02,.82-.28,1.62-.81,2.13-.32,.31-.68,.54-1.06,.68-.64,.23-1.37,.23-2.17-.02h0c-.08,.03-.33,.24-.49,.38-.26,.24-.6,.52-1.01,.76l.97,3.08c1.27,.08,3.73,.09,6.27-.67,.03,0,.06-.02,.09-.03,.23-.07,.46-.15,.7-.23,.66-.24,1.29-.46,1.88-.67,1.86-.65,3.39-1.19,4.47-1.85,.65-.39,1.13-.83,1.42-1.37,.28-.52,.49-1.09,.69-1.64,.42-1.15,.88-2.41,2.06-3.17,.39-.26,.87-.46,1.45-.58,1.32-.27,2.63,.14,3.5,1.11,1.06,1.17,1.32,2.9,.73,4.75-.03,.07-.06,.14-.09,.21-.03,.09-.06,.17-.1,.26-.04,.08-.08,.15-.12,.23-.04,.07-.08,.15-.13,.22-.05,.07-.1,.15-.15,.22-.05,.07-.1,.14-.15,.21-.05,.07-.11,.14-.17,.2-.06,.07-.12,.13-.18,.2-.06,.06-.12,.13-.18,.19-.07,.07-.14,.13-.21,.19-.06,.06-.13,.11-.19,.17-.08,.06-.16,.13-.24,.19-.06,.05-.13,.1-.19,.15-.09,.07-.19,.14-.29,.2-.05,.04-.11,.08-.16,.11-.15,.1-.3,.19-.45,.29-.05,.03-.11,.06-.16,.09-.1,.06-.21,.12-.32,.18-.06,.03-.13,.07-.19,.1-.1,.05-.19,.1-.29,.15-.06,.03-.13,.06-.19,.09-.09,.04-.19,.09-.28,.13-.06,.03-.12,.06-.18,.08-.09,.04-.19,.08-.28,.12-.06,.02-.11,.05-.16,.07-.1,.04-.19,.08-.29,.11-.04,.02-.09,.04-.13,.05-.11,.04-.22,.08-.32,.12-.02,0-.04,.01-.06,.02h-.04s0,.05,.01,.07c.03,.16,.05,.32,.08,.49,.01,.08,.02,.17,.03,.25,0,.08,.02,.15,.03,.23,.02,.22,.04,.44,.06,.66h0c.02,.4,.03,.8,0,1.2h0c-.01,.24-.03,.49-.06,.73,0,.04,0,.07-.01,.11-.01,.11-.03,.22-.05,.33-.03,.16-.06,.32-.09,.47-.01,.04-.02,.09-.03,.13-.05,.21-.11,.42-.17,.62-.06,.22-.2,.48-.41,.68h0s-.09,.08-.13,.12h-.01s-.1,.07-.15,.1c0,0-.01,0-.02,.01-.05,.03-.11,.05-.17,.07h-.01s-.04,.02-.06,.02c-.58,.16-1.19-.09-1.8-.72-.53-.55-1.82-2.09-2.97-3.48h0c-.21,.13-.43,.25-.65,.38-.05,.03-.09,.05-.14,.08-.2,.11-.41,.22-.62,.33-.08,.04-.16,.08-.24,.12-.19,.09-.38,.19-.57,.28-.12,.06-.24,.11-.36,.17-.16,.07-.32,.14-.48,.21-.18,.08-.35,.15-.53,.23-.11,.05-.22,.09-.33,.14-.26,.11-.51,.21-.77,.31-.03,.01-.06,.02-.08,.03-.61,.23-1.19,.44-1.71,.6-.26,.08-.5,.15-.72,.21-.11,.03-.22,.06-.32,.09h0l-5.67,1.8s-.03,.01-.04,.02c-.1,.04-.2,.08-.31,.12-.02,0-.05,.02-.08,.03-.11,.04-.22,.07-.33,.11-.03,.01-.07,.02-.1,.03-.11,.04-.23,.07-.35,.11-.04,.01-.08,.02-.12,.04-.12,.03-.24,.07-.36,.11-.05,.01-.1,.03-.15,.04-.12,.03-.24,.07-.36,.1-.06,.01-.12,.03-.17,.05-.11,.03-.23,.06-.35,.09-.07,.02-.14,.04-.21,.05-.11,.03-.22,.05-.33,.08-.08,.02-.16,.04-.24,.06-.1,.02-.2,.05-.3,.07-.1,.02-.19,.04-.29,.06-.08,.02-.15,.03-.23,.05-.67,.14-1.34,.26-2,.36-.02,0-.04,0-.06,0-.15,.02-.31,.04-.46,.06-.04,0-.08,.01-.11,.02-.14,.02-.28,.03-.43,.05-.04,0-.09,0-.13,.01-.14,.01-.27,.03-.4,.03-.03,0-.05,0-.08,0h0c-.14,1.8-.3,3.81-.42,4.55-.14,.87-.49,1.41-1.06,1.62h0s-.04,.01-.05,.02c-.52,.16-1.03-.04-1.32-.28-.02-.01-.03-.02-.05-.04-.13-.1-.26-.2-.38-.31-.05-.05-.11-.09-.16-.14-.13-.12-.25-.23-.37-.36-.05-.05-.1-.1-.14-.15-.1-.11-.21-.22-.3-.34-.04-.05-.08-.1-.13-.15-.1-.13-.2-.25-.3-.38-.03-.04-.07-.09-.1-.13-.11-.15-.22-.3-.32-.46-.02-.03-.04-.07-.06-.1-.35-.54-.65-1.1-.9-1.65h0s-.02,0-.04,.01c-.02,0-.03,0-.05,.01-.11,.03-.23,.06-.36,.09l-.09,.02c-.12,.03-.24,.06-.36,.08l-.11,.02c-.12,.03-.25,.05-.38,.08-.04,0-.08,.02-.12,.02-.13,.03-.27,.05-.41,.07-.04,0-.07,.01-.1,.02-.16,.02-.32,.05-.48,.07-.02,0-.04,0-.05,0-.56,.07-1.13,.1-1.71,.08-.03,0-.06,0-.08,0-.16,0-.31-.01-.47-.03-.04,0-.09,0-.13-.01-.14-.02-.28-.04-.41-.06-.05,0-.1-.02-.15-.03-.13-.02-.26-.05-.39-.09-.05-.01-.1-.02-.14-.04-.13-.04-.26-.08-.38-.13-.04-.01-.08-.03-.12-.04-.14-.06-.28-.12-.41-.19-.02-.01-.04-.02-.06-.03-.16-.09-.3-.18-.45-.29-1.55-1.17-2.32-2.74-2.13-4.31,.14-1.13,.79-2.11,1.78-2.7,.14-.08,.29-.16,.45-.23,.08-.04,.16-.06,.24-.09,.45-.17,.88-.26,1.28-.27,1.41-.06,2.51,.71,3.52,1.41,.48,.34,.98,.68,1.51,.94,1.45,.72,3.64,.1,6.67-.76,.61-.17,1.25-.35,1.93-.54,.24-.06,.47-.13,.7-.21,.03-.01,.06-.02,.09-.03,2.37-.79,4.29-2.1,5.33-2.92,.04-.03,.08-.06,.12-.09l.05-.04h0l-.97-3.08s-.02,0-.04,0c-.22,.02-.42,.02-.61,0h-.05c-.08,0-.16-.01-.24-.02-.11,0-.22-.02-.32-.03-.21-.02-.53-.06-.6-.04h0c-.21,.27-.43,.5-.66,.69-.7,.57-1.49,.79-2.38,.65-.73-.11-1.43-.59-1.88-1.27-.39-.59-.78-1.6-.42-3.09,.02-.08,.05-.16,.07-.24,.02-.07,.04-.15,.07-.22,.02-.07,.05-.14,.08-.21,.03-.09,.07-.18,.11-.27,.02-.05,.05-.1,.07-.15,.05-.11,.11-.22,.17-.33l.04-.07c.42-.73,.99-1.31,1.66-1.71h0c.09-.42,.03-.9-.16-1.39v-.02c-.07-.16-.14-.32-.23-.48-.01-.02-.02-.04-.03-.06-.09-.15-.18-.3-.29-.45-.02-.03-.05-.06-.07-.1-.11-.14-.21-.28-.33-.41-.04-.04-.08-.08-.11-.12-.12-.13-.24-.26-.38-.39-.02-.01-.03-.03-.05-.04-.16-.15-.33-.29-.5-.43-2.65-2.03-2.41-3.59-1.73-4.53,.34-.47,.44-.98,.28-1.32-.02-.05-.15-.18-.35-.2-.08,0-.17,0-.26,.04-.28,.1-.59,.37-.9,.77-.51,.66-1.1,1.13-1.75,1.41-1.08,.46-2.34,.37-3.68-.29-.38-.18-.72-.15-1.01,0-.29,.16-.53,.43-.69,.73-.21,.38-.49,.73-.83,1.04-.56,.51-1.27,.91-2.05,1.12h0c-1.11,.31-2.89,.4-5.12-.91-.01,0-.02-.02-.04-.03-.03-.02-.06-.04-.09-.06-.15,.34-.28,.69-.4,1.05-.04,.12-.07,.24-.11,.36-.08,.28-.16,.56-.23,.84-.03,.12-.06,.25-.08,.37-.08,.38-.14,.77-.19,1.16,0,.02,0,.03,0,.05-.05,.42-.08,.86-.09,1.3,0,.1,0,.19,0,.29,0,.36,0,.73,.03,1.1,0,.09,0,.19,.01,.28,.03,.46,.08,.92,.15,1.39,.19,1.27,.36,2.67,.54,4.15m12.16,2.8c-3.73,1.18-7.72-.89-8.9-4.62-1.18-3.73,.89-7.72,4.62-8.9,3.73-1.18,7.72,.89,8.9,4.62,1.18,3.73-.89,7.72-4.62,8.9m23.65-22.36c3.73-1.18,7.72,.89,8.9,4.62,1.18,3.73-.89,7.72-4.62,8.9-3.73,1.18-7.72-.89-8.9-4.62-1.18-3.73,.9-7.72,4.62-8.9" style="fill: #fff;"/>
      <path d="M47.45,83.65c-.64,1.4-1.54,2.34-2.62,2.73-.89,.32-1.71,.19-2.18-.04-1.66-.82-3.4-.35-4.22,1.13-.96,1.74-2.14,1.6-2.94,1.35-1.66-.52-2.64-.08-3.17,.38-.71,.62-.86,1.48-.77,2.03,.11,.67,.48,1.27,1.05,1.72,.32,.26,.7,.47,1.14,.63,.09,.03,.16,.08,.21,.15,.34,.44,.06,1.58-.16,2.28-.58,1.86-.62,4.06,.33,5.56-.18,.11-.36,.23-.52,.36-.39,.32-.44,.9-.12,1.29,.05,.06,.11,.11,.17,.15,.33,.24,.79,.24,1.12-.03,1.01-.84,2.55-.7,3.73,.33,.03,.02,.04,.04,.07,.07,.47,.44,.73,.91,.74,1.37,0,.41-.16,.68-.26,.77-.37,.36-.79,.42-1.45,.22-1.01-.31-1.7,.31-2.21,.76-.36,.32-.7,.62-1.19,.76-.48,.17-.93,.12-1.41,.07-.67-.08-1.6-.18-2.25,.65-.43,.54-.81,.74-1.32,.65-.08-.01-.22-.07-.37-.19-.09-.07-.19-.16-.28-.29-.27-.41-.33-.98-.17-1.65,.37-1.53,1.55-2.52,2.86-2.42,.5,.04,.94-.34,.98-.84,.02-.27-.08-.51-.24-.69-.15-.16-.36-.27-.59-.29-.18-.01-.35-.01-.53,0-.04,0-.07,0-.11,0-.08-1.53-1.06-3.07-2.32-4.22-.2-.18-.4-.36-.61-.52-.14-.11-.3-.24-.46-.37-.6-.52-1.21-1.21-.9-1.64,.74-1.03,.9-2.21,.44-3.18-.09-.18-.23-.38-.41-.56-.32-.32-.79-.59-1.39-.66-.7-.07-1.75,.13-2.81,1.52-.51,.67-1.4,1.46-3.18,.59-1.52-.74-3.21-.12-4.1,1.5-.25,.45-.84,1.02-1.76,1.28-1.1,.3-2.38,.05-3.71-.72-.02-.01-.04-.02-.07-.03-.05-.03-.11-.04-.16-.06,2-3.34,5.52-5.92,10.38-7.46l15.09-4.77c4.87-1.54,9.23-1.45,12.78,.13-.01,.01-.03,.03-.04,.04-.04,.05-.07,.1-.1,.16" style="fill: #fff;"/>
      <path d="M46.33,101.24c-2.52,.8-5.21-.6-6-3.12-.8-2.52,.6-5.21,3.12-6,2.52-.8,5.21,.6,6,3.12,.8,2.52-.6,5.21-3.12,6" style="fill: #fff;"/>
      <path d="M15.52,100.95c2.52-.8,5.21,.6,6,3.12,.8,2.52-.6,5.21-3.12,6-2.52,.8-5.21-.6-6-3.12-.8-2.52,.6-5.21,3.12-6" style="fill: #fff;"/>
      <path d="M101.61,101.1c-4.89-9.95-22.46-6.65-27.19-.02-4.72,6.63-6.09,16.15-6.41,25.58-.33,9.43-8.72,9.03-14.72,12.62,0,0,7.28-.55,10.95,6.48,3.48,6.66,14.39-3.19,17.28-6.55,2.88-3.36-1.68-8.24,3.13-13.83,4.8-5.59,21.92-14.22,16.97-24.3" style="fill: #fff;"/>
      <path d="M160.46,67.69c-10.73-8.61-29.15,2.17-30.56,11.99-1.61,11.24,1.22,24.4,9.76,33.88,7.91,8.79-4.05,14.59-8.31,21.69,0,0,7.31-4.36,15.13,1.62,7.4,5.67,13.29-10.97,14.42-16.2,1.13-5.24-6.4-8.35-4.52-17.08,1.88-8.72,14.96-27.17,4.09-35.9" style="fill: #fff;"/>
      <path d="M63.52,150.01s-1.67-8.24-5.83-7.92c-4.16,.32-6.8,6.79-6.64,8.87l12.47-.95Z" style="fill: #fff;"/>
      <path d="M54.49,141.29s-4.48-3.84-8.32,.64c-3.84,4.47-2.48,8.55-2.48,8.55l6.24-.48s-1.36-4.08,4.56-8.71" style="fill: #fff;"/>
      <path d="M45.05,140.97s-7.28,.56-7.76,7.91l4.16-.32s-.24-3.12,3.6-7.59" style="fill: #fff;"/>
      <path d="M149.96,145.51s-1.67-8.24-5.83-7.92c-4.16,.32-6.8,6.79-6.64,8.87l12.47-.95Z" style="fill: #fff;"/>
      <path d="M140.93,136.79s-4.47-3.84-8.32,.63c-3.84,4.48-2.48,8.55-2.48,8.55l6.24-.48s-1.36-4.08,4.56-8.71" style="fill: #fff;"/>
      <path d="M131.49,136.46s-7.28,.55-7.76,7.91l4.16-.32s-.24-3.12,3.6-7.59" style="fill: #fff;"/>
      <path d="M107.22,125.56c2.65-.1,5.95,.54,9.36,3.14,7.41,5.67,13.29-10.97,14.42-16.21,1.09-5.1-6.02-8.19-4.65-16.43-4.69,6.43-10.61,20.41-14.75,26.23-.98,1.38-2.53,2.44-4.37,3.26" style="fill: #fff;"/>
      <path d="M120.06,137.34s-1.67-8.24-5.83-7.92c-4.16,.32-6.8,6.79-6.64,8.87l12.47-.95Z" style="fill: #fff;"/>
      <path d="M111.03,128.61s-4.47-3.84-8.32,.63c-3.84,4.48-2.48,8.55-2.48,8.55l6.24-.48s-1.36-4.08,4.56-8.71" style="fill: #fff;"/>
      <path d="M101.59,128.29s-7.28,.55-7.76,7.91l4.16-.32s-.24-3.12,3.6-7.59" style="fill: #fff;"/>
      <path d="M28.82,147.43s-1.67-8.24-5.83-7.92c-4.16,.32-6.8,6.79-6.64,8.87l12.48-.95Z" style="fill: #fff;"/>
      <path d="M19.79,138.71s-4.48-3.84-8.32,.63c-3.84,4.48-2.48,8.55-2.48,8.55l6.24-.48s-1.36-4.08,4.56-8.71" style="fill: #fff;"/>
      <path d="M10.35,138.39s-7.28,.56-7.76,7.91l4.16-.32s-.24-3.12,3.6-7.59" style="fill: #fff;"/>
      <path d="M67.32,76.53c-7.2,1.59-16.47,3.35-15.28,5.35,0,0,8.08-3.75,11.59,1.21,3.51,4.96-1.05,13.67-1.05,13.67,0,0,4.61,5.89,4.24,14.26,.25-1,4.38-17.04,18.4-19.13,14.47-2.15,20.31,5.77,20.78,12.01,.48,6.24-5.36,11.91-10.32,15.43-4.96,3.52-9.92,7.03-9.76,9.11,0,0,17.83,.73,22.55-5.9,4.72-6.63,11.77-23.9,16.65-28.46,4.88-4.55-2.23-15.51,4.57-22.31,6.8-6.79,19.84-14.06,33.11-4.62,2.48-8.55-17.89-28.96-35.57-27.61-17.67,1.35-31.35,13.89-37.99,22.77-6.64,8.87-14.72,12.62-21.92,14.22m25.04,47.23c.86-.07,1.61,.58,1.68,1.44,.07,.86-.58,1.61-1.44,1.68-.86,.07-1.61-.58-1.68-1.44-.07-.86,.58-1.61,1.44-1.68m6.16-1.51c.86-.07,1.61,.58,1.68,1.44,.07,.86-.58,1.61-1.44,1.68-.86,.06-1.61-.58-1.68-1.44-.07-.86,.58-1.61,1.44-1.68m5.04-2.48c.86-.07,1.61,.58,1.68,1.44,.07,.86-.58,1.61-1.44,1.68-.86,.07-1.61-.58-1.68-1.44-.07-.86,.58-1.61,1.44-1.68m2.4-2.8c-.07-.86,.58-1.61,1.44-1.68,.86-.07,1.61,.58,1.68,1.44,.07,.86-.58,1.61-1.44,1.68-.86,.07-1.61-.58-1.68-1.44" style="fill: #fff;"/>
    </g>
  </g>
</svg>