<?xml version="1.0" encoding="UTF-8"?>
<svg id="b" data-name="圖層 2" xmlns="http://www.w3.org/2000/svg" width="437.98" height="310.44" xmlns:xlink="http://www.w3.org/1999/xlink" viewBox="0 0 437.98 310.44">
  <defs>
    <clipPath id="d">
      <rect y="0" width="437.98" height="263.18" style="fill: none;"/>
    </clipPath>
  </defs>
  <g id="c" data-name="圖層 2">
    <g style="clip-path: url(#d);">
      <g>
        <path d="M332.99,154.08c0-43.77-56.16-64.77-109.93-64.77s-109.93,21.01-109.93,64.77c-31.08,11.36-105.71,125.77,51.44,148.31-.05,.45,117.03,.45,116.97,0,157.15-22.54,82.53-136.95,51.44-148.31Z" style="fill: #fffbf3;"/>
        <path d="M237.51,170.1s-2.12,6.67-9.07,6.67-9.07-6.67-9.07-6.67" style="fill: none; stroke: #ec6531; stroke-miterlimit: 10; stroke-width: 2.51px;"/>
        <path d="M228.44,210.5s1.63-65.48,68.81-65.07" style="fill: #fffbf3; stroke: #dbdcdc; stroke-miterlimit: 10; stroke-width: 2.43px;"/>
        <path d="M226.72,201.44s-3.36-56.43-70.54-56.02" style="fill: #fffbf3; stroke: #dbdcdc; stroke-miterlimit: 10; stroke-width: 2.43px;"/>
        <path d="M271.47,205.83s-3.94-17.48,13.71-23.03" style="fill: #fffbf3; stroke: #dbdcdc; stroke-miterlimit: 10; stroke-width: 2.43px;"/>
        <path d="M176.78,205.83s3.94-17.48-13.71-23.03" style="fill: #fffbf3; stroke: #dbdcdc; stroke-miterlimit: 10; stroke-width: 2.43px;"/>
        <ellipse cx="226.72" cy="302.39" rx="61.72" ry="8.05" style="fill: #fffbf3;"/>
        <path d="M185.54,142.22s.11,.08,.31,.23c.2,.15,.5,.34,.87,.6,.76,.49,1.85,1.13,3.19,1.72,1.34,.59,2.92,1.13,4.64,1.47,.86,.18,1.76,.29,2.67,.37,.46,.02,.92,.05,1.39,.07h1.52s.07,0-.06,0h.25l.38-.04,.77-.05c.54-.02,.93-.09,1.39-.13,.44-.04,.9-.12,1.35-.19,.46-.06,.9-.15,1.33-.25,.44-.08,.87-.19,1.28-.3,.42-.1,.83-.22,1.22-.35,.4-.11,.78-.24,1.15-.38,.38-.12,.73-.26,1.07-.41,.68-.27,1.31-.56,1.85-.83,.54-.28,1.02-.54,1.41-.76,.78-.46,1.21-.77,1.21-.77,0,0-.18,.51-.7,1.3-.26,.39-.6,.87-1.05,1.35-.44,.49-.97,1.04-1.61,1.55-.63,.53-1.37,1.04-2.2,1.51-.41,.25-.84,.46-1.3,.67-.45,.23-.92,.41-1.41,.58-.48,.19-.99,.35-1.51,.48-.51,.15-1.04,.28-1.6,.36-.54,.08-1.15,.22-1.64,.24l-.77,.06-.38,.03-.19,.02h-.27l-1.67-.02c-.56-.02-1.11-.12-1.65-.18-1.09-.17-2.15-.42-3.14-.78-.99-.34-1.91-.78-2.74-1.27-.83-.48-1.55-1.02-2.18-1.56-1.25-1.09-2.07-2.19-2.55-3-.49-.81-.65-1.33-.65-1.33Z" style="fill: #ec6531;"/>
        <path d="M241.6,142.22s.11,.08,.31,.23c.2,.15,.5,.34,.87,.6,.76,.49,1.85,1.13,3.19,1.72,1.34,.59,2.92,1.13,4.64,1.47,.86,.18,1.76,.29,2.67,.37,.46,.02,.92,.05,1.39,.07h1.52s.07,0-.06,0h.25l.38-.04,.77-.05c.54-.02,.93-.09,1.39-.13,.44-.04,.9-.12,1.35-.19,.46-.06,.9-.15,1.33-.25,.44-.08,.87-.19,1.28-.3,.42-.1,.83-.22,1.22-.35,.4-.11,.78-.24,1.15-.38,.38-.12,.73-.26,1.07-.41,.68-.27,1.31-.56,1.85-.83,.54-.28,1.02-.54,1.41-.76,.78-.46,1.21-.77,1.21-.77,0,0-.18,.51-.7,1.3-.26,.39-.6,.87-1.05,1.35-.44,.49-.97,1.04-1.61,1.55-.63,.53-1.37,1.04-2.2,1.51-.41,.25-.85,.46-1.3,.67-.45,.23-.92,.41-1.41,.58-.48,.19-.99,.35-1.51,.48-.51,.15-1.04,.28-1.6,.36-.54,.08-1.15,.22-1.64,.24l-.77,.06-.38,.03-.19,.02h-.27l-1.67-.02c-.56-.02-1.11-.12-1.65-.18-1.09-.17-2.15-.42-3.14-.78-.99-.34-1.91-.78-2.74-1.27-.83-.48-1.55-1.02-2.18-1.56-1.25-1.09-2.07-2.19-2.55-3-.49-.81-.65-1.33-.65-1.33Z" style="fill: #ec6531;"/>
      </g>
    </g>
  </g>
</svg>