<svg height="49.44" viewBox="0 0 709.85 49.44" width="709.85" xmlns="http://www.w3.org/2000/svg"><g fill="#e8b356" opacity=".2" transform="translate(-4.36 -12)"><path d="m91.25 40.57a17 17 0 0 1 -5 11.56q-4.65 4.65-13.7 7t-22.89 2.31a142.68 142.68 0 0 1 -18.9-1.13 49.76 49.76 0 0 1 -14.26-3.85 21.12 21.12 0 0 1 -9-7.45q-3.14-4.72-3.14-11.93a21.66 21.66 0 0 1 3.13-12 21.77 21.77 0 0 1 9-7.71 49.19 49.19 0 0 1 14.26-4.11 130.72 130.72 0 0 1 18.91-1.26q13.81 0 22.9 2.51t13.75 7.38a17.91 17.91 0 0 1 5 11.85h-18.89a9.33 9.33 0 0 0 -3.2-4.11 17.87 17.87 0 0 0 -7-2.8 61.36 61.36 0 0 0 -12.58-1 82.28 82.28 0 0 0 -15.12 1.13q-5.82 1.13-8.51 3.6a8.48 8.48 0 0 0 -2.69 6.54 7.63 7.63 0 0 0 2.69 6q2.68 2.33 8.51 3.41a84.62 84.62 0 0 0 15.12 1.09 65.56 65.56 0 0 0 12.54-.94 19 19 0 0 0 7-2.58 9.26 9.26 0 0 0 3.2-3.53z"/><path d="m116 40.35v5.82h55.3v13.83h-73.43v-46.55h73.29v13.82h-55.16v5.81h45.08v7.27z"/><path d="m177.85 60v-46.55h56.2a43.9 43.9 0 0 1 11.89 1.49 17.14 17.14 0 0 1 8.36 5q3.09 3.49 3.09 9.53a13.59 13.59 0 0 1 -1.45 6.61 10.53 10.53 0 0 1 -4 4.08 19.13 19.13 0 0 1 -5.82 2.1 42.69 42.69 0 0 1 -6.83.8l-5.29-1.06a109.58 109.58 0 0 1 13.34.72q4.69.66 6.54 2.37a6.32 6.32 0 0 1 1.86 4.9v10.01h-18.2v-7.8a5.46 5.46 0 0 0 -.84-3.3c-.55-.75-1.77-1.28-3.63-1.57a61.87 61.87 0 0 0 -8.62-.43h-28.45v13.1zm18.15-25.25h38a8.39 8.39 0 0 0 3.67-.72 2.8 2.8 0 0 0 1.49-2.77 2.58 2.58 0 0 0 -1.49-2.58 8.71 8.71 0 0 0 -3.67-.69h-38z"/><path d="m282.69 40.35v5.82h55.31v13.83h-73.49v-46.55h73.3v13.82h-55.12v5.81h45.08v7.27z"/><path d="m402.23 54.46h-10.91l39.7-41h18.18v46.54h-18.2v-31.72l5.45 2.26-28.7 29.46h-21.81l-28.79-29.39 5.52-2.25v31.64h-18.17v-46.55h18.17z"/><path d="m499.73 61.44q-15.86 0-25.52-2.8t-14.07-8.29a21.06 21.06 0 0 1 -4.4-13.63 21.1 21.1 0 0 1 4.4-13.64q4.39-5.47 14.07-8.28t25.52-2.8q15.84 0 25.52 2.8t14.07 8.28a21.16 21.16 0 0 1 4.4 13.64 21.11 21.11 0 0 1 -4.4 13.63q-4.41 5.49-14.07 8.29t-25.52 2.8zm0-13.82a80.69 80.69 0 0 0 12.94-.9 18.27 18.27 0 0 0 8.43-3.28 8.06 8.06 0 0 0 3-6.72 8.09 8.09 0 0 0 -3-6.73 18.38 18.38 0 0 0 -8.43-3.27 79.44 79.44 0 0 0 -12.94-.91 82.91 82.91 0 0 0 -13.13.91 20 20 0 0 0 -8.79 3.28 7.91 7.91 0 0 0 -3.17 6.73 7.88 7.88 0 0 0 3.17 6.72 19.85 19.85 0 0 0 8.79 3.28 84.22 84.22 0 0 0 13.13.89z"/><path d="m623.19 45.73-6.77 3.86v-36.14h18.18v46.55h-18.18l-54.75-31.7 6.77-3.92v35.62h-18.18v-46.55h18.18z"/><path d="m714.22 13.45-29.45 34.68v11.87h-18.18v-11.87l-29.44-34.68h21.44l23.93 30.17h-13.46l23.71-30.17z"/></g></svg>