<svg height="42.01" viewBox="0 0 274.68 42.01" width="274.68" xmlns="http://www.w3.org/2000/svg"><g fill="#ca954a" transform="translate(-1.77 -1.1)"><path d="m14.3 12.79h7.08v4.42h-4.38l2.66.67c-.75 1.55-1.55 3.05-2.26 4.47h3.1v4.43h-6.2v3.54h7.08v4.42h-7.08v7.88h-4.87v-7.88h-7.66v-4.42h7.66v-3.54h-6.6v-4.43h3.17a31.08 31.08 0 0 0 -1.57-4.35l2.48-.76h-5.1v-4.45h7.62v-3.06h-6.43v-4.33h6.43v-3.81h4.87v3.81h6.06v4.33h-6.06zm-1.24 9.56a45.8 45.8 0 0 0 2.12-5.14h-6.77a20 20 0 0 1 1.73 4.48l-2 .66zm28.86-2.92a45.16 45.16 0 0 1 -4.6 14.16 20.65 20.65 0 0 0 6.06 4.74 22 22 0 0 0 -3.45 4.16 23.35 23.35 0 0 1 -5.45-4.6 24.87 24.87 0 0 1 -5 5 16.72 16.72 0 0 0 -2.08-2.39v2.21h-4.82v-39.4h18.28v8.33c0 2.25-.49 3.54-2.22 4.25s-4.07.75-7.3.75a18.08 18.08 0 0 0 -1.51-4.52c2.17.09 4.61.09 5.27.09s.9-.21.9-.66v-3.63h-8.64v10.58h10.53l.84-.22zm-14.56 18.81a21.85 21.85 0 0 0 4.11-4.47 42.69 42.69 0 0 1 -4.11-9.12zm3.64-15.58a35 35 0 0 0 3 6.59 34.9 34.9 0 0 0 2.31-6.59z"/><path d="m84.85 42.8h-5.44v-1.95h-16.6v1.95h-5.27v-13.72c-2.17.75-4.34 1.33-6.55 1.86a19.55 19.55 0 0 0 -2.7-4.87 62.63 62.63 0 0 0 15.4-5.18 87.66 87.66 0 0 0 -6.95-6 33.19 33.19 0 0 1 -4 2.26 19.76 19.76 0 0 0 -3.61-4.15c7.21-3.18 12.08-7.6 14.78-11.77l5.89 1.24c-.8 1.11-1.59 2.22-2.48 3.32h12.93l.88-.26 3.63 2.17a37.39 37.39 0 0 1 -14.21 15.3h14.3zm-22.18-32.23c-.57.49-1.1.93-1.68 1.38a81 81 0 0 1 7.57 6.11 32.91 32.91 0 0 0 8.28-7.49zm16.74 25.55v-8.37h-16.6v8.37z"/><path d="m103.75 22.44a41.11 41.11 0 0 0 -8.28-4.78l2.79-3.94a40.14 40.14 0 0 1 8.41 4.34zm-6.75 16.33a121.48 121.48 0 0 0 8.36-13.94l3.9 3.54c-2.35 4.6-5.18 9.65-7.79 13.94zm9.29-28.06a41.8 41.8 0 0 0 -8.23-4.92l2.94-3.89a42.07 42.07 0 0 1 8.41 4.47zm25.25 32.09a20.35 20.35 0 0 0 -1.54-3.9c-14.74 1.78-17 2.13-18.46 2.88a49.38 49.38 0 0 0 -1.86-5.27c1-.31 1.86-1.24 2.88-2.83a65.58 65.58 0 0 0 4.69-9.47h-8.32v-5h10.49v-6.21h-8.72v-5h8.72v-6.59h5.35v6.59h9v5h-9v6.24h10.67v5h-12a83.14 83.14 0 0 1 -6.15 11.37l10.4-1.06a50.52 50.52 0 0 0 -3-4.56l4.3-2.12c2.92 3.85 6.15 9 7.3 12.57z"/><path d="m166.64 2.74c-.22.26-.44.57-.66.84 4.07 3.54 11.33 6.6 18.37 8a18.06 18.06 0 0 0 -3.32 4c-.89-.23-1.82-.53-2.75-.8v11.42h-30.76v-11.15c-.93.3-1.86.62-2.75.84a27.81 27.81 0 0 0 -2.83-4.08c8.15-1.9 16.06-5.57 20.06-10.71zm10.05 11.46a48.49 48.49 0 0 1 -6-2.7v1.15h-15.56v-.88a51.93 51.93 0 0 1 -5.35 2.43zm-26.69 13.46h26v15h-5.4v-1.1h-15.42v1.2h-5.18zm5-4.66a17.43 17.43 0 0 0 -1.51-4.6l3.41-1h-5v5.6zm.18 8.1v1.77h15.45v-1.76zm15.45 7v-1.76h-15.45v1.77zm-10-20.67h-3.46a19.94 19.94 0 0 1 1.78 4.69l-2.84.88h4.52zm6.37-8.18a44.37 44.37 0 0 1 -3.72-2.88c-1.15 1-2.43 2-3.76 2.88zm-2.12 8.19v5.56h4.11l-2.65-.75a33.58 33.58 0 0 0 1.66-4.81zm8.76 0h-4.64l3.45.84c-.88 1.77-1.73 3.49-2.43 4.73h3.58z"/><path d="m197.58 22.79c-1.82-1.28-5.62-3.36-8.24-4.78l2.84-3.89c2.43 1.19 6.37 3.09 8.32 4.29zm-7.58 15.94a128.86 128.86 0 0 0 8.41-13.95l3.86 3.54c-2.35 4.65-5.14 9.7-7.84 14zm9.52-28a91.18 91.18 0 0 0 -8.06-4.87l3-3.81c2.48 1.24 6.33 3.19 8.23 4.43zm19.61 8.63v5.58h9v17.64h-5v-1.58h-13.34v1.8h-4.73v-17.88h9v-5.58h-11.75v-5.05h11.78v-5.18c-2.92.45-5.84.76-8.63 1a18.86 18.86 0 0 0 -1.46-4.49c7.52-.76 15.8-2.22 20.67-4.16l4.07 4.16a57.77 57.77 0 0 1 -9.65 2.61v6.06h11.24v5.05zm4 10.36h-13.34v6.5h13.33z"/><path d="m276.45 11.42s0 1.72 0 2.34c-.4 18.11-.75 24.52-2.17 26.56a5 5 0 0 1 -3.5 2.21 28.79 28.79 0 0 1 -5.49.18 12.25 12.25 0 0 0 -1.55-5c1.95.17 3.63.22 4.47.22a1.61 1.61 0 0 0 1.51-.76c.93-1.19 1.37-6.59 1.64-20.89h-4c-.57 11.86-2.61 21-10 26.87a17.72 17.72 0 0 0 -3.1-3.5c-6.38.67-12.75 1.33-17.53 1.73l-.73-4.47c2.48-.17 5.57-.4 9-.62v-2.65h-7.79v-3.72h7.79v-1.73h-7.61v-13.68h7.61v-1.72h-8.7v-3.79h8.7v-1.79c-2.56.18-5.09.31-7.48.35a15.75 15.75 0 0 0 -1.15-3.71 138.47 138.47 0 0 0 19.08-2.17l2.3 3.94c-2.34.48-5.09.88-8 1.19v2.19h8.5v2.44h4.16c.05-2.93.05-6 .05-9.26h5c0 3.24 0 6.33-.08 9.26zm-34.88 8.36h3.43v-2h-3.45zm3.43 5.14v-2h-3.45v2zm4.78 11c2.53-.17 5.14-.39 7.71-.62 3.45-4.78 4.51-11.11 4.82-19h-4v-3.51h-8.5v1.72h7.84v13.68h-7.85v1.73h8v3.72h-8zm3.46-16.11v-2h-3.44v2zm-3.46 3.14v2h3.46v-2z"/></g></svg>