<?xml version="1.0" encoding="UTF-8"?>
<svg id="b" data-name="圖層 2" xmlns="http://www.w3.org/2000/svg" width="299.67" height="174.16" viewBox="0 0 299.67 174.16">
  <defs>
    <style>
      .d {
        fill: #fff;
        stroke: #e8b356;
        stroke-miterlimit: 10;
        stroke-width: .34px;
      }
    </style>
  </defs>
  <g id="c" data-name="圖層 2">
    <g>
      <path class="d" d="M299.5,173.99H.17V10.36C5.8,10.36,10.36,5.8,10.36,.17H289.32c0,5.63,4.56,10.19,10.19,10.19V173.99Z"/>
      <path class="d" d="M299.5,173.99H.17V10.36C5.8,10.36,10.36,5.8,10.36,.17H289.32c0,5.63,4.56,10.19,10.19,10.19V173.99Z"/>
      <path class="d" d="M299.5,173.99H.17V10.36C5.8,10.36,10.36,5.8,10.36,.17H289.32c0,5.63,4.56,10.19,10.19,10.19V173.99Z"/>
      <path class="d" d="M299.5,173.99H.17V10.36C5.8,10.36,10.36,5.8,10.36,.17H289.32c0,5.63,4.56,10.19,10.19,10.19V173.99Z"/>
      <path class="d" d="M299.5,173.99H.17V10.36C5.8,10.36,10.36,5.8,10.36,.17H289.32c0,5.63,4.56,10.19,10.19,10.19V173.99Z"/>
      <path class="d" d="M299.5,173.99H.17V10.36C5.8,10.36,10.36,5.8,10.36,.17H289.32c0,5.63,4.56,10.19,10.19,10.19V173.99Z"/>
      <path class="d" d="M299.5,173.99H.17V10.36C5.8,10.36,10.36,5.8,10.36,.17H289.32c0,5.63,4.56,10.19,10.19,10.19V173.99Z"/>
      <path class="d" d="M299.5,173.99H.17V10.36C5.8,10.36,10.36,5.8,10.36,.17H289.32c0,5.63,4.56,10.19,10.19,10.19V173.99Z"/>
      <path class="d" d="M299.5,173.99H.17V10.36C5.8,10.36,10.36,5.8,10.36,.17H289.32c0,5.63,4.56,10.19,10.19,10.19V173.99Z"/>
      <path class="d" d="M299.5,173.99H.17V10.36C5.8,10.36,10.36,5.8,10.36,.17H289.32c0,5.63,4.56,10.19,10.19,10.19V173.99Z"/>
      <path class="d" d="M299.5,173.99H.17V10.36C5.8,10.36,10.36,5.8,10.36,.17H289.32c0,5.63,4.56,10.19,10.19,10.19V173.99Z"/>
      <path class="d" d="M299.5,173.99H.17V10.36C5.8,10.36,10.36,5.8,10.36,.17H289.32c0,5.63,4.56,10.19,10.19,10.19V173.99Z"/>
      <path class="d" d="M299.5,173.99H.17V10.36C5.8,10.36,10.36,5.8,10.36,.17H289.32c0,5.63,4.56,10.19,10.19,10.19V173.99Z"/>
      <path class="d" d="M299.5,173.99H.17V10.36C5.8,10.36,10.36,5.8,10.36,.17H289.32c0,5.63,4.56,10.19,10.19,10.19V173.99Z"/>
      <path class="d" d="M299.5,173.99H.17V10.36C5.8,10.36,10.36,5.8,10.36,.17H289.32c0,5.63,4.56,10.19,10.19,10.19V173.99Z"/>
      <path class="d" d="M299.5,173.99H.17V10.36C5.8,10.36,10.36,5.8,10.36,.17H289.32c0,5.63,4.56,10.19,10.19,10.19V173.99Z"/>
      <path class="d" d="M299.5,173.99H.17V10.36C5.8,10.36,10.36,5.8,10.36,.17H289.32c0,5.63,4.56,10.19,10.19,10.19V173.99Z"/>
      <path class="d" d="M299.5,173.99H.17V10.36C5.8,10.36,10.36,5.8,10.36,.17H289.32c0,5.63,4.56,10.19,10.19,10.19V173.99Z"/>
      <path class="d" d="M299.5,173.99H.17V10.36C5.8,10.36,10.36,5.8,10.36,.17H289.32c0,5.63,4.56,10.19,10.19,10.19V173.99Z"/>
      <path class="d" d="M299.5,173.99H.17V10.36C5.8,10.36,10.36,5.8,10.36,.17H289.32c0,5.63,4.56,10.19,10.19,10.19V173.99Z"/>
      <path class="d" d="M299.5,173.99H.17V10.36C5.8,10.36,10.36,5.8,10.36,.17H289.32c0,5.63,4.56,10.19,10.19,10.19V173.99Z"/>
      <path class="d" d="M299.5,173.99H.17V10.36C5.8,10.36,10.36,5.8,10.36,.17H289.32c0,5.63,4.56,10.19,10.19,10.19V173.99Z"/>
      <path class="d" d="M299.5,173.99H.17V10.36C5.8,10.36,10.36,5.8,10.36,.17H289.32c0,5.63,4.56,10.19,10.19,10.19V173.99Z"/>
      <path class="d" d="M299.5,173.99H.17V10.36C5.8,10.36,10.36,5.8,10.36,.17H289.32c0,5.63,4.56,10.19,10.19,10.19V173.99Z"/>
      <path class="d" d="M299.5,173.99H.17V10.36C5.8,10.36,10.36,5.8,10.36,.17H289.32c0,5.63,4.56,10.19,10.19,10.19V173.99Z"/>
      <path class="d" d="M299.5,173.99H.17V10.36C5.8,10.36,10.36,5.8,10.36,.17H289.32c0,5.63,4.56,10.19,10.19,10.19V173.99Z"/>
      <path class="d" d="M299.5,173.99H.17V10.36C5.8,10.36,10.36,5.8,10.36,.17H289.32c0,5.63,4.56,10.19,10.19,10.19V173.99Z"/>
      <path class="d" d="M299.5,173.99H.17V10.36C5.8,10.36,10.36,5.8,10.36,.17H289.32c0,5.63,4.56,10.19,10.19,10.19V173.99Z"/>
      <path class="d" d="M299.5,173.99H.17V10.36C5.8,10.36,10.36,5.8,10.36,.17H289.32c0,5.63,4.56,10.19,10.19,10.19V173.99Z"/>
      <path class="d" d="M299.5,173.99H.17V10.36C5.8,10.36,10.36,5.8,10.36,.17H289.32c0,5.63,4.56,10.19,10.19,10.19V173.99Z"/>
      <path class="d" d="M299.5,173.99H.17V10.36C5.8,10.36,10.36,5.8,10.36,.17H289.32c0,5.63,4.56,10.19,10.19,10.19V173.99Z"/>
      <path class="d" d="M299.5,173.99H.17V10.36C5.8,10.36,10.36,5.8,10.36,.17H289.32c0,5.63,4.56,10.19,10.19,10.19V173.99Z"/>
      <path class="d" d="M299.5,173.99H.17V10.36C5.8,10.36,10.36,5.8,10.36,.17H289.32c0,5.63,4.56,10.19,10.19,10.19V173.99Z"/>
      <path class="d" d="M299.5,173.99H.17V10.36C5.8,10.36,10.36,5.8,10.36,.17H289.32c0,5.63,4.56,10.19,10.19,10.19V173.99Z"/>
      <path class="d" d="M299.5,173.99H.17V10.36C5.8,10.36,10.36,5.8,10.36,.17H289.32c0,5.63,4.56,10.19,10.19,10.19V173.99Z"/>
      <path class="d" d="M299.5,173.99H.17V10.36C5.8,10.36,10.36,5.8,10.36,.17H289.32c0,5.63,4.56,10.19,10.19,10.19V173.99Z"/>
      <path class="d" d="M299.5,173.99H.17V10.36C5.8,10.36,10.36,5.8,10.36,.17H289.32c0,5.63,4.56,10.19,10.19,10.19V173.99Z"/>
      <path class="d" d="M299.5,173.99H.17V10.36C5.8,10.36,10.36,5.8,10.36,.17H289.32c0,5.63,4.56,10.19,10.19,10.19V173.99Z"/>
      <path class="d" d="M299.5,173.99H.17V10.36C5.8,10.36,10.36,5.8,10.36,.17H289.32c0,5.63,4.56,10.19,10.19,10.19V173.99Z"/>
      <path class="d" d="M299.5,173.99H.17V10.36C5.8,10.36,10.36,5.8,10.36,.17H289.32c0,5.63,4.56,10.19,10.19,10.19V173.99Z"/>
      <path class="d" d="M299.5,173.99H.17V10.36C5.8,10.36,10.36,5.8,10.36,.17H289.32c0,5.63,4.56,10.19,10.19,10.19V173.99Z"/>
      <path class="d" d="M299.5,173.99H.17V10.36C5.8,10.36,10.36,5.8,10.36,.17H289.32c0,5.63,4.56,10.19,10.19,10.19V173.99Z"/>
    </g>
  </g>
</svg>