<?xml version="1.0" encoding="UTF-8"?>
<svg id="b" data-name="圖層 2" xmlns="http://www.w3.org/2000/svg" width="123.04" height="38.33" viewBox="0 0 123.04 38.33">
  <g id="c" data-name="圖層 1">
    <path d="M106.39,38.33l16.66-15.03c-2.29-2.29-2.29-5.99,0-8.28L106.39,0H16.66L0,15.03c2.29,2.29,2.29,5.99,0,8.28l16.66,15.03H106.39Z" style="fill: #aaabab;"/>
    <g>
      <path d="M48.2,23.78c1.48,0,1.7-.43,1.88-2.64,.36,.23,.95,.46,1.32,.53-.28,2.65-.79,3.42-3.19,3.42h-4.93c-2.41,0-3.16-.46-3.16-2.41v-6.91h1.34v2.16h6.83v-3.44h-8.8v-1.3h10.14v6.73h-1.34v-.69h-6.83v3.45c0,.89,.28,1.08,1.78,1.08h4.96Z" style="fill: #fff;"/>
      <path d="M67.17,19.18v1.02h-8.92v.52h-1.27v-4.33c-.35,.42-.72,.8-1.07,1.15-.18-.26-.64-.77-.89-1.02,1.2-1.02,2.34-2.61,3.04-4.21l1.2,.4c-.15,.37-.36,.77-.57,1.15h2.86c-.17-.39-.35-.82-.54-1.17l1.18-.36c.28,.47,.57,1.06,.75,1.53h3.9v.97h-4.05v.83h3.37v.9h-3.37v.82h3.4v.9h-3.4v.9h4.39Zm-10.21,1.92h9.4v4.43h-1.35v-.65h-6.77v.65h-1.28v-4.43Zm1.28,1.07v1.65h6.77v-1.65h-6.77Zm3.27-7.35h-3.26v.83h3.26v-.83Zm0,1.73h-3.26v.82h3.26v-.82Zm-3.26,2.62h3.26v-.9h-3.26v.9Z" style="fill: #fff;"/>
      <path d="M83.49,19.44v6.05h-1.44v-.79h-9.67v-5.26h1.45v3.93h3.37v-4.76h-4.15v-5.01h1.37v3.73h2.79v-4.96h1.44v4.96h2.87v-3.73h1.44v5.01h-4.3v4.76h3.41v-3.93h1.44Z" style="fill: #fff;"/>
    </g>
  </g>
</svg>