<?xml version="1.0" encoding="UTF-8"?>
<svg id="b" data-name="圖層 2" xmlns="http://www.w3.org/2000/svg" width="210.02" height="30.32" viewBox="0 0 210.02 30.32">
  <defs>
    <style>
      .d {
        fill: #fc462d;
      }
    </style>
  </defs>
  <g id="c" data-name="資訊">
    <g>
      <path d="M49.94,5.77v15.47h-3.88v-1.55h-7.01v9.67h-3.91v-9.67h-6.98v1.71h-3.72V5.77h10.7V.41h3.91V5.77h10.88Zm-14.79,10.29v-6.67h-6.98v6.67h6.98Zm10.91,0v-6.67h-7.01v6.67h7.01Z"/>
      <path d="M61.07,15.11c-1.08-.96-3.38-2.33-5.05-3.22l2.08-2.63c1.64,.77,3.97,1.98,5.15,2.91l-2.17,2.95Zm10.54,7.66v1.86c0,1.18,.28,1.33,2.08,1.33h5.58c1.43,0,1.67-.43,1.86-3.16,.71,.5,2.05,.99,2.92,1.18-.4,3.88-1.36,4.96-4.5,4.96h-6.17c-3.81,0-4.93-.9-4.93-4.28v-6.05c-.9,1.02-1.83,1.95-2.82,2.7-.4-.59-1.12-1.43-1.74-2.05-1.18,3.07-2.57,6.42-3.91,9.27l-3.26-2.14c1.27-2.29,3.01-6.05,4.37-9.49l2.17,1.55c1.98-1.33,3.97-3.63,5.21-5.95h-4.71v-3.32h5.02v-2.33h-3.84V3.57h3.84V.47h3.57V3.57h4.28V.47h3.63V3.57h4v3.29h-4v2.33h4.9v3.32h-4.81c1.24,2.14,3.16,4.16,5.15,5.33-.84,.68-2.01,2.02-2.57,2.92-1.02-.71-1.98-1.67-2.88-2.76v4.77h-8.43Zm-9.02-15.81c-1.05-.96-3.22-2.39-4.87-3.35l2.2-2.57c1.55,.84,3.84,2.17,4.93,3.07l-2.26,2.85Zm9.55,5.55c-.37,.9-.81,1.77-1.3,2.64h7.22c-.5-.87-.96-1.74-1.33-2.64h-4.59Zm5.02,5.24h-5.55v2.42h5.55v-2.42Zm-4.81-8.56h4.28v-2.33h-4.28v2.33Z"/>
      <path d="M115.04,19.97h3.54v2.7h-3.54v3.5c0,1.58-.25,2.36-1.43,2.82-1.15,.43-2.64,.46-4.81,.46-.09-.9-.53-2.05-.9-2.88l-1.24,.78c-.5-1.09-1.55-2.67-2.67-3.78l1.52-.9h-2.92v1.8h-4.77v4.9h-3.26v-4.9h-4.99v-3.22h4.99v-1.86h-3.97V8.19h3.97v-1.61h-4.56V3.39h4.56V.44h3.26V3.39h4.4v3.19h-4.4v1.61h4.12v11.19h-4.12v1.86h4.77v-1.27h9.08v-1.21h3.35v1.21Zm-21.8-7.38h1.77v-1.83h-1.77v1.83Zm0,4.25h1.77v-1.83h-1.77v1.83Zm6.05-6.08h-1.89v1.83h1.89v-1.83Zm0,4.25h-1.89v1.83h1.89v-1.83Zm3.29,1.08c1.71,0,3.85-.03,6.2-.09v-1.36h-5.39V6.33h5.39v-1.15h-5.92V2.49h5.92V.44h3.13V2.49h6.23v2.7h-6.23v1.15h5.67V14.64h-1.3c1.02,1.18,1.95,2.54,2.48,3.57l-2.57,1.27c-.16-.31-.34-.68-.59-1.08-4.65,.15-9.43,.28-12.84,.34l-.19-2.64Zm3.69-6.57h2.51v-1.21h-2.51v1.21Zm2.51,3.13v-1.24h-2.51v1.24h2.51Zm2.92,10.01h-4.65c.96,.96,1.83,2.14,2.26,3.01l-1.27,.81c1.24,.06,2.67,.06,3.07,.06,.43-.03,.59-.12,.59-.46v-3.41Zm.22-14.36v1.21h2.64v-1.21h-2.64Zm2.64,3.1h-2.64v1.24h2.64v-1.24Zm-2.64,4.53l1.98-.03c-.25-.31-.5-.59-.74-.87l.87-.4h-2.11v1.3Z"/>
      <path d="M131.72,15.39c-.47,2.54-1.21,5.3-2.2,7.63,.47,.31,1.05,.71,1.83,1.18,2.11,1.27,5.02,1.46,8.65,1.46s9.12-.31,12.56-.81c-.43,.99-1.05,2.79-1.09,3.78-2.54,.16-8.03,.37-11.66,.37-4.12,0-6.73-.34-8.96-1.64-1.3-.71-2.39-1.74-3.04-1.74-.71,0-1.83,2.11-2.57,3.88l-2.48-3.5c1.12-1.33,2.29-2.39,3.35-3.01,.74-1.55,1.33-3.5,1.74-5.33h-3.94c.74-1.83,1.58-4.31,2.29-6.73h-2.85v-3.29h7.35c-.65,2.2-1.46,4.68-2.17,6.82h.5l.53-.09,2.17,1.02Zm-5.05-8.62c-.34-1.43-1.18-3.69-1.71-5.36l3.26-.99c.59,1.67,1.39,3.75,1.8,5.15l-3.35,1.21Zm7.5,.77h-2.6V1.37h19.75V7.54h-3.22v1.15h-4.78v1.12h6.45v9.08h-6.45v1.12h7.97v2.67h-7.97v2.05h-3.6v-2.05h-7.88v-2.67h7.88v-1.12h-6.42V9.8h6.42v-1.12h-5.55v-1.15Zm.78-3.47v2.05h4.77v-1.21h3.6v1.21h4.46v-2.05h-12.84Zm1.49,9.24h3.29v-1.24h-3.29v1.24Zm3.29,3.35v-1.24h-3.29v1.24h3.29Zm3.6-4.59v1.24h3.16v-1.24h-3.16Zm3.16,3.35h-3.16v1.24h3.16v-1.24Z"/>
      <path d="M168.89,20.44l.37,3.41c-4,.99-8.28,1.98-11.53,2.73l-.81-3.66c1.74-.28,3.97-.74,6.42-1.24,.71-3.16,1.43-8.06,1.74-11.6l3.38,.56c-.59,3.38-1.36,7.41-2.14,10.36l2.57-.56Zm-5.58-14.6h6.26v3.38h-12.4v-3.38h5.24c-.34-1.27-1.08-3.04-1.77-4.37l3.13-.9c.87,1.36,1.67,3.22,2.05,4.43l-2.51,.84Zm-2.29,4.5c.65,3.25,1.21,7.38,1.4,10.2l-3.01,.62c-.09-2.79-.65-7.07-1.21-10.33l2.82-.5Zm17.33-.71v5.33h6.14v14.29h-3.78v-1.36h-7.35v1.49h-3.6V14.95h4.81V.41h3.78V6.12h7.19v3.5h-7.19Zm2.36,8.78h-7.35v6.05h7.35v-6.05Z"/>
    </g>
    <path class="d" d="M3.1,0H15.59V4.65h-6.98c0,.27,.08,.62,.25,1.05,.17,.43,.36,.92,.59,1.47s.42,1.13,.59,1.75c.17,.62,.25,1.25,.25,1.89,0,.99-.43,1.82-1.29,2.48-.86,.66-1.98,1.17-3.38,1.52-1.4,.35-2.92,.57-4.57,.65v-.62c1.65,.06,3.18,.27,4.57,.62,1.39,.35,2.52,.86,3.38,1.52,.86,.66,1.29,1.5,1.29,2.51,0,.64-.08,1.27-.25,1.89-.17,.62-.36,1.2-.59,1.75s-.42,1.04-.59,1.47c-.17,.43-.25,.79-.25,1.05h6.98v4.65H3.1c-.17-.97-.15-1.97,.06-3.01s.49-2.05,.85-3.04c.36-.99,.69-1.9,.98-2.73,.29-.83,.43-1.51,.43-2.05,0-.91-.4-1.6-1.19-2.08s-2.21-.71-4.23-.71v-3.1c2.03,0,3.44-.24,4.23-.71,.8-.47,1.19-1.17,1.19-2.08,0-.54-.15-1.22-.43-2.05-.29-.83-.62-1.74-.98-2.73s-.65-2.01-.85-3.05c-.21-1.04-.23-2.04-.06-2.99Z"/>
    <path class="d" d="M204.59,10.82c0,.91,.4,1.6,1.21,2.08,.81,.48,2.21,.71,4.22,.71v3.1c-2,0-3.41,.24-4.22,.71s-1.21,1.17-1.21,2.08c0,.54,.15,1.22,.45,2.05,.3,.83,.62,1.74,.98,2.73,.35,.99,.63,2,.84,3.04,.21,1.03,.23,2.04,.06,3.01h-12.49v-4.65h6.97c0-.27-.08-.62-.25-1.05-.17-.43-.36-.92-.59-1.47s-.42-1.13-.59-1.75-.25-1.25-.25-1.89c0-1.01,.43-1.85,1.29-2.51,.86-.66,1.99-1.17,3.39-1.52,1.4-.35,2.92-.56,4.56-.62v.62c-1.63-.08-3.15-.3-4.56-.65-1.41-.35-2.54-.86-3.39-1.52-.86-.66-1.29-1.49-1.29-2.48,0-.64,.08-1.27,.25-1.89s.36-1.2,.59-1.75,.42-1.04,.59-1.47c.17-.43,.25-.79,.25-1.05h-6.97V0h12.49c.17,.95,.14,1.95-.06,2.99-.21,1.04-.49,2.06-.84,3.05s-.68,1.9-.98,2.73c-.3,.83-.45,1.51-.45,2.05Z"/>
  </g>
</svg>