<?xml version="1.0" encoding="UTF-8"?>
<svg id="b" data-name="圖層 2" xmlns="http://www.w3.org/2000/svg" width="210.02" height="30.4" viewBox="0 0 210.02 30.4">
  <defs>
    <style>
      .d {
        fill: #fc462d;
      }
    </style>
  </defs>
  <g id="c" data-name="資訊">
    <g>
      <path d="M42.59,3.35c2.85,2.67,6.54,6.48,8.16,9.08l-3.13,2.26c-.4-.68-.96-1.49-1.61-2.36-16.46,.81-18.67,.87-20.31,1.43-.19-.74-.78-2.57-1.21-3.54,.81-.22,1.55-.81,2.57-1.8,1.09-.96,4.46-4.71,6.57-8.43l3.72,1.58c-1.95,2.88-4.4,5.64-6.76,7.91l12.71-.4c-1.21-1.37-2.45-2.67-3.6-3.81l2.88-1.92Zm-15.88,12.46h20.9v13.58h-3.97v-1.55h-13.15v1.58h-3.78V15.81Zm3.78,3.54v4.96h13.15v-4.96h-13.15Z"/>
      <path d="M83.42,5.86v15.47h-3.88v-1.55h-7.01v9.67h-3.91v-9.67h-6.98v1.71h-3.72V5.86h10.7V.5h3.91V5.86h10.88Zm-14.79,10.29v-6.67h-6.98v6.67h6.98Zm10.91,0v-6.67h-7.01v6.67h7.01Z"/>
      <path d="M106.21,.71c-.03,4.09-.06,8.09-.65,11.88,1.77,6.82,5.55,11.44,13.05,13.15-.84,.81-1.92,2.39-2.45,3.47-6.2-1.8-9.83-5.36-12.19-10.7-1.86,4.56-5.27,8.4-11.63,10.98-.46-.96-1.58-2.33-2.57-3.13,12.87-4.87,12.19-14.82,12.28-25.64h4.15Zm-12.15,16.12c-.5-2.42-1.74-6.48-2.76-9.55l3.66-1.27c1.08,2.95,2.45,6.85,3.01,9.24l-3.91,1.58Zm23.32-8.71c-1.33,3.04-2.98,6.48-4.28,8.65l-3.22-1.4c1.24-2.33,2.7-5.98,3.44-8.77l4.06,1.52Z"/>
      <path d="M151.75,25.3h-12.37v4.19h-3.78v-4.19h-12v-3.32h12v-1.67h-8.93V7.88h8.93v-1.49h-11.25V3.04h11.25V.53h3.78V3.04h11.47v3.35h-11.47v1.49h9.15v12.43h-9.15v1.67h12.37v3.32Zm-21.55-12.59h5.39v-1.89h-5.39v1.89Zm5.39,4.65v-1.89h-5.39v1.89h5.39Zm3.78-6.54v1.89h5.43v-1.89h-5.43Zm5.43,4.65h-5.43v1.89h5.43v-1.89Z"/>
      <path d="M168.89,20.53l.37,3.41c-4,.99-8.28,1.98-11.53,2.73l-.81-3.66c1.74-.28,3.97-.74,6.42-1.24,.71-3.16,1.43-8.06,1.74-11.6l3.38,.56c-.59,3.38-1.36,7.41-2.14,10.36l2.57-.56Zm-5.58-14.6h6.26v3.38h-12.4v-3.38h5.24c-.34-1.27-1.08-3.04-1.77-4.37l3.13-.9c.87,1.36,1.67,3.22,2.05,4.43l-2.51,.84Zm-2.29,4.5c.65,3.25,1.21,7.38,1.4,10.2l-3.01,.62c-.09-2.79-.65-7.07-1.21-10.33l2.82-.5Zm17.33-.71v5.33h6.14v14.29h-3.78v-1.36h-7.35v1.49h-3.6V15.04h4.81V.5h3.78V6.2h7.19v3.5h-7.19Zm2.36,8.78h-7.35v6.05h7.35v-6.05Z"/>
    </g>
    <path class="d" d="M3.1,.09H15.59V4.74h-6.98c0,.27,.08,.62,.25,1.05,.17,.43,.36,.92,.59,1.47s.42,1.13,.59,1.75c.17,.62,.25,1.25,.25,1.89,0,.99-.43,1.82-1.29,2.48-.86,.66-1.98,1.17-3.38,1.52-1.4,.35-2.92,.57-4.57,.65v-.62c1.65,.06,3.18,.27,4.57,.62,1.39,.35,2.52,.86,3.38,1.52,.86,.66,1.29,1.5,1.29,2.51,0,.64-.08,1.27-.25,1.89-.17,.62-.36,1.2-.59,1.75s-.42,1.04-.59,1.47c-.17,.43-.25,.79-.25,1.05h6.98v4.65H3.1c-.17-.97-.15-1.97,.06-3.01s.49-2.05,.85-3.04c.36-.99,.69-1.9,.98-2.73,.29-.83,.43-1.51,.43-2.05,0-.91-.4-1.6-1.19-2.08s-2.21-.71-4.23-.71v-3.1c2.03,0,3.44-.24,4.23-.71,.8-.47,1.19-1.17,1.19-2.08,0-.54-.15-1.22-.43-2.05-.29-.83-.62-1.74-.98-2.73s-.65-2.01-.85-3.05c-.21-1.04-.23-2.04-.06-2.99Z"/>
    <path class="d" d="M204.59,10.9c0,.91,.4,1.6,1.21,2.08,.81,.48,2.21,.71,4.22,.71v3.1c-2,0-3.41,.24-4.22,.71s-1.21,1.17-1.21,2.08c0,.54,.15,1.22,.45,2.05,.3,.83,.62,1.74,.98,2.73,.35,.99,.63,2,.84,3.04,.21,1.03,.23,2.04,.06,3.01h-12.49v-4.65h6.97c0-.27-.08-.62-.25-1.05-.17-.43-.36-.92-.59-1.47s-.42-1.13-.59-1.75-.25-1.25-.25-1.89c0-1.01,.43-1.85,1.29-2.51,.86-.66,1.99-1.17,3.39-1.52,1.4-.35,2.92-.56,4.56-.62v.62c-1.63-.08-3.15-.3-4.56-.65-1.41-.35-2.54-.86-3.39-1.52-.86-.66-1.29-1.49-1.29-2.48,0-.64,.08-1.27,.25-1.89s.36-1.2,.59-1.75,.42-1.04,.59-1.47c.17-.43,.25-.79,.25-1.05h-6.97V.09h12.49c.17,.95,.14,1.95-.06,2.99-.21,1.04-.49,2.06-.84,3.05s-.68,1.9-.98,2.73c-.3,.83-.45,1.51-.45,2.05Z"/>
  </g>
</svg>