<?xml version="1.0" encoding="UTF-8"?>
<svg id="b" data-name="圖層 2" xmlns="http://www.w3.org/2000/svg" width="210.02" height="30.32" viewBox="0 0 210.02 30.32">
  <defs>
    <style>
      .d {
        fill: #fc462d;
      }
    </style>
  </defs>
  <g id="c" data-name="資訊">
    <g>
      <path d="M40.33,11.95c2.05,6.26,5.86,11.47,11.66,13.98-.93,.78-2.2,2.39-2.76,3.44-5.71-2.82-9.27-7.78-11.66-14.2-.71,2.36-1.67,4.62-3.13,6.73l.87-.59c1.86,1.64,4.34,4,5.43,5.58l-3.29,2.39c-.9-1.43-2.88-3.57-4.62-5.3-1.89,2.08-4.34,3.94-7.5,5.39-.59-.96-1.71-2.32-2.76-3.13,7.63-3.29,10.6-8.68,11.75-14.29h-10.82v-3.81h11.35c.25-2.7,.22-5.33,.25-7.69h4.06c-.03,2.39-.06,4.99-.31,7.69h12.31v3.81h-10.82Z"/>
      <path d="M62.31,10.74c0,5.18-.43,12.96-3.16,17.95-.71-.59-2.33-1.49-3.26-1.83,2.57-4.62,2.79-11.35,2.79-16.12V1.78h25.86v3.35h-22.23v5.61Zm7.44,10.76c-1.49,2.36-3.63,5.09-5.27,6.73-.74-.56-2.2-1.52-3.1-1.98,1.77-1.52,3.69-3.84,4.87-5.86l3.5,1.12Zm5.4-2.05v6.29c0,1.67-.31,2.57-1.49,3.07-1.15,.53-2.76,.53-4.96,.53-.12-.99-.59-2.33-1.02-3.26,1.36,.03,2.88,.03,3.29,.03,.47,0,.59-.09,.59-.47v-6.2h-7.19V7.36h5.49c.4-.78,.74-1.55,.96-2.2l4.43,.53c-.37,.56-.74,1.15-1.12,1.67h8.31v12.09h-7.29Zm-7.19-7.35h10.67v-1.98h-10.67v1.98Zm0,4.59h10.67v-2.02h-10.67v2.02Zm11.6,3.66c1.64,1.86,4.06,4.53,5.27,6.2l-3.16,1.8c-1.08-1.64-3.38-4.44-5.05-6.48l2.95-1.52Z"/>
      <path d="M106.21,.63c-.03,4.09-.06,8.09-.65,11.88,1.77,6.82,5.55,11.44,13.05,13.15-.84,.81-1.92,2.39-2.45,3.47-6.2-1.8-9.83-5.36-12.19-10.7-1.86,4.56-5.27,8.4-11.63,10.97-.46-.96-1.58-2.32-2.57-3.13,12.87-4.87,12.19-14.82,12.28-25.64h4.15Zm-12.15,16.12c-.5-2.42-1.74-6.48-2.76-9.55l3.66-1.27c1.08,2.95,2.45,6.85,3.01,9.24l-3.91,1.58Zm23.32-8.71c-1.33,3.04-2.98,6.48-4.28,8.65l-3.22-1.4c1.24-2.32,2.7-5.98,3.44-8.77l4.06,1.52Z"/>
      <path d="M151.75,25.21h-12.37v4.19h-3.78v-4.19h-12v-3.32h12v-1.68h-8.93V7.79h8.93v-1.49h-11.25V2.95h11.25V.44h3.78V2.95h11.47v3.35h-11.47v1.49h9.15v12.43h-9.15v1.68h12.37v3.32Zm-21.55-12.59h5.39v-1.89h-5.39v1.89Zm5.39,4.65v-1.89h-5.39v1.89h5.39Zm3.78-6.54v1.89h5.43v-1.89h-5.43Zm5.43,4.65h-5.43v1.89h5.43v-1.89Z"/>
      <path d="M168.89,20.44l.37,3.41c-4,.99-8.28,1.98-11.53,2.73l-.81-3.66c1.74-.28,3.97-.74,6.42-1.24,.71-3.16,1.43-8.06,1.74-11.6l3.38,.56c-.59,3.38-1.36,7.41-2.14,10.36l2.57-.56Zm-5.58-14.6h6.26v3.38h-12.4v-3.38h5.24c-.34-1.27-1.08-3.04-1.77-4.37l3.13-.9c.87,1.36,1.67,3.22,2.05,4.43l-2.51,.84Zm-2.29,4.5c.65,3.26,1.21,7.38,1.4,10.2l-3.01,.62c-.09-2.79-.65-7.07-1.21-10.33l2.82-.5Zm17.33-.71v5.33h6.14v14.29h-3.78v-1.37h-7.35v1.49h-3.6V14.95h4.81V.41h3.78V6.12h7.19v3.5h-7.19Zm2.36,8.78h-7.35v6.04h7.35v-6.04Z"/>
    </g>
    <path class="d" d="M3.1,0H15.59V4.65h-6.98c0,.27,.08,.62,.25,1.05,.17,.43,.36,.92,.59,1.47s.42,1.13,.59,1.75c.17,.62,.25,1.25,.25,1.89,0,.99-.43,1.82-1.29,2.48-.86,.66-1.98,1.17-3.38,1.52-1.4,.35-2.92,.57-4.57,.65v-.62c1.65,.06,3.18,.27,4.57,.62,1.39,.35,2.52,.86,3.38,1.52,.86,.66,1.29,1.5,1.29,2.51,0,.64-.08,1.27-.25,1.89-.17,.62-.36,1.2-.59,1.75s-.42,1.04-.59,1.47c-.17,.43-.25,.79-.25,1.05h6.98v4.65H3.1c-.17-.97-.15-1.97,.06-3.01s.49-2.05,.85-3.04c.36-.99,.69-1.9,.98-2.73,.29-.83,.43-1.51,.43-2.05,0-.91-.4-1.6-1.19-2.08s-2.21-.71-4.23-.71v-3.1c2.03,0,3.44-.24,4.23-.71,.8-.47,1.19-1.17,1.19-2.08,0-.54-.15-1.22-.43-2.05-.29-.83-.62-1.74-.98-2.73s-.65-2.01-.85-3.05c-.21-1.04-.23-2.04-.06-2.99Z"/>
    <path class="d" d="M204.59,10.82c0,.91,.4,1.6,1.21,2.08,.81,.48,2.21,.71,4.22,.71v3.1c-2,0-3.41,.24-4.22,.71s-1.21,1.17-1.21,2.08c0,.54,.15,1.22,.45,2.05,.3,.83,.62,1.74,.98,2.73,.35,.99,.63,2,.84,3.04,.21,1.03,.23,2.04,.06,3.01h-12.49v-4.65h6.97c0-.27-.08-.62-.25-1.05-.17-.43-.36-.92-.59-1.47s-.42-1.13-.59-1.75-.25-1.25-.25-1.89c0-1.01,.43-1.85,1.29-2.51,.86-.66,1.99-1.17,3.39-1.52,1.4-.35,2.92-.56,4.56-.62v.62c-1.63-.08-3.15-.3-4.56-.65-1.41-.35-2.54-.86-3.39-1.52-.86-.66-1.29-1.49-1.29-2.48,0-.64,.08-1.27,.25-1.89s.36-1.2,.59-1.75,.42-1.04,.59-1.47c.17-.43,.25-.79,.25-1.05h-6.97V0h12.49c.17,.95,.14,1.95-.06,2.99-.21,1.04-.49,2.06-.84,3.05s-.68,1.9-.98,2.73c-.3,.83-.45,1.51-.45,2.05Z"/>
  </g>
</svg>