<?xml version="1.0" encoding="UTF-8"?>
<svg id="b" data-name="圖層 2" xmlns="http://www.w3.org/2000/svg" width="210.02" height="30.32" viewBox="0 0 210.02 30.32">
  <defs>
    <style>
      .d {
        fill: #fc462d;
      }
    </style>
  </defs>
  <g id="c" data-name="資訊">
    <g>
      <path d="M50.81,3.29v3.1H23.43V3.29h11.94c-.25-.74-.5-1.52-.74-2.17l3.81-.93c.34,.96,.84,2.11,1.21,3.1h11.16Zm-.71,22.7c0,1.61-.4,2.26-1.58,2.73-1.12,.37-2.79,.4-4.93,.37-.19-.81-.68-1.86-1.08-2.61h-8.87v1.3h-3.41v-8.19h13.49v6.88h-.43c1.08,.03,2.17,.03,2.48,0,.43,0,.62-.12,.62-.53v-7.5H27.87v10.88h-3.57V15.48h25.8v10.51Zm-2.98-11.78H27.56V7.57h19.57v6.64Zm-3.88-4.16h-12v1.71h12v-1.71Zm-2.79,12.12h-6.82v1.77h6.82v-1.77Z"/>
      <path d="M85.04,13.31c-.84,3.84-2.14,7.32-3.78,10.23,.31,1.55,.71,2.33,1.12,2.33,.47,0,.74-1.21,.84-4.62,.68,.68,1.64,1.46,2.39,1.77-.34,5.33-1.24,6.26-3.53,6.29-1.27,0-2.29-.87-3.04-2.48-.81,.96-1.64,1.89-2.57,2.7-.5-.59-1.71-1.74-2.39-2.26l.19-.15-7.6,.93-.25-1.86c-3.29,.84-6.67,1.64-9.3,2.29l-.65-3.32c1.15-.19,2.51-.46,4.06-.74v-7.75h-3.69v-3.13h3.69v-2.26h-2.11v-1.58c-.4,.4-.81,.78-1.21,1.15-.16-.84-.78-2.92-1.18-3.81,2.02-1.58,4.16-4.12,5.36-6.79l2.42,1.24c-.15,.37-.34,.74-.53,1.09,1.58,1.12,3.13,2.33,4.06,3.32l-.68,1.49h3.54v-1.74h-2.73V2.8h2.73V.41h3.25V2.8h2.61v2.82h-2.61v1.74h3.35c-.03-2.17-.06-4.5-.06-6.95h3.47c-.06,2.51-.09,4.81-.06,6.95h5.02v2.91h-4.99c.03,2.95,.16,5.46,.34,7.6,.59-1.61,1.08-3.32,1.43-5.12l3.1,.56Zm-25.98,4.46c.43,1.67,.87,3.88,1.02,5.3l-2.14,.71c-.09-1.49-.5-3.69-.9-5.36l2.01-.65Zm6.23-9.58c-.96-.96-2.2-2.08-3.5-2.98-.65,1.02-1.36,2.05-2.11,2.98h5.61Zm10.95,17.05c.59-.68,1.18-1.43,1.71-2.23-.62-3.16-.93-7.47-1.08-12.74h-10.48v-2.33l-.43,.93c-.12-.12-.28-.28-.4-.43v2.82h-2.33v2.26h3.22v3.13h-3.22v7.25c1.08-.22,2.17-.46,3.29-.68l.12,2.11c1.02-.06,2.23-.19,3.53-.31v-1.24h-2.82v-2.42h2.82v-1.09c-1.02,.09-1.98,.12-2.92,.12-.09-.53-.37-1.3-.65-1.89-.5,1.74-.99,3.63-1.36,4.87l-1.86-.68c.34-1.4,.81-3.63,.96-5.21l2.36,.71-.03,.12c2.92-.15,6.23-.46,8.19-.99l1.95,2.05c-1.05,.25-2.23,.46-3.54,.62v1.36h2.57v2.42h-2.57v.9l2.95-.31,.03,.87Zm-8.84-13.98h8.68v5.89h-8.68v-5.89Zm2.64,3.66h3.26v-1.43h-3.26v1.43Zm12.34-7.81c-.34-1.27-1.3-3.26-2.2-4.74l2.67-1.15c.93,1.43,1.95,3.32,2.36,4.59l-2.82,1.3Z"/>
      <path d="M89.56,27.35c1.61-1.52,2.73-3.88,3.29-6.26l3.13,1.05c-.68,2.6-1.67,5.33-3.47,7.04l-2.95-1.83Zm8.06-11.29v1.58h19.53s-.03,.87-.06,1.27c-.28,5.92-.59,8.37-1.4,9.27-.59,.74-1.27,.99-2.14,1.12-.84,.09-2.17,.12-3.63,.06-.03-.93-.43-2.23-.9-3.07,1.15,.12,2.2,.16,2.7,.12,.43,0,.68-.06,.93-.34,.37-.43,.62-1.89,.81-5.43h-19.5V3.29h7.57c.34-.99,.62-2.11,.74-2.98l4.4,.31c-.43,.96-.9,1.86-1.37,2.67h8.5V11.63h-16.19v1.49h20.56v2.95h-20.56Zm2.48,5.89c.53,1.89,.84,4.31,.81,5.92l-3.13,.47c.09-1.58-.12-4.06-.59-5.95l2.91-.43Zm-2.48-15.88v2.76h12.56v-2.76h-12.56Zm7.29,15.66c.78,1.67,1.46,3.88,1.61,5.3l-2.92,.78c-.12-1.43-.74-3.72-1.39-5.46l2.7-.62Zm4.68-.74c.81,1.21,1.67,2.91,2.02,4l-2.7,1.02c-.25-1.08-1.09-2.85-1.86-4.12l2.54-.9Z"/>
      <path d="M148.46,2.27V28.94h-3.97v-1.95h-13.77v2.02h-3.81V2.27h21.55Zm-17.73,3.72v6.67h13.77V5.99h-13.77Zm13.77,17.27v-6.95h-13.77v6.95h13.77Z"/>
      <path d="M168.89,20.44l.37,3.41c-4,.99-8.28,1.98-11.53,2.73l-.81-3.66c1.74-.28,3.97-.74,6.42-1.24,.71-3.16,1.43-8.06,1.74-11.6l3.38,.56c-.59,3.38-1.36,7.41-2.14,10.36l2.57-.56Zm-5.58-14.6h6.26v3.38h-12.4v-3.38h5.24c-.34-1.27-1.08-3.04-1.77-4.37l3.13-.9c.87,1.36,1.67,3.22,2.05,4.43l-2.51,.84Zm-2.29,4.5c.65,3.25,1.21,7.38,1.4,10.2l-3.01,.62c-.09-2.79-.65-7.07-1.21-10.33l2.82-.5Zm17.33-.71v5.33h6.14v14.29h-3.78v-1.36h-7.35v1.49h-3.6V14.95h4.81V.41h3.78V6.12h7.19v3.5h-7.19Zm2.36,8.78h-7.35v6.05h7.35v-6.05Z"/>
    </g>
    <path class="d" d="M3.1,0H15.59V4.65h-6.98c0,.27,.08,.62,.25,1.05,.17,.43,.36,.93,.59,1.47,.23,.55,.42,1.13,.59,1.75,.17,.62,.25,1.25,.25,1.89,0,.99-.43,1.82-1.29,2.48s-1.98,1.17-3.38,1.52c-1.4,.35-2.92,.57-4.57,.65v-.62c1.65,.06,3.18,.27,4.57,.62,1.39,.35,2.52,.86,3.38,1.52,.86,.66,1.29,1.5,1.29,2.51,0,.64-.08,1.27-.25,1.89-.17,.62-.36,1.21-.59,1.75-.23,.55-.42,1.04-.59,1.47-.17,.43-.25,.79-.25,1.05h6.98v4.65H3.1c-.17-.97-.15-1.97,.06-3.01s.49-2.05,.85-3.04c.36-.99,.69-1.9,.98-2.73,.29-.83,.43-1.51,.43-2.05,0-.91-.4-1.6-1.19-2.08-.8-.48-2.21-.71-4.23-.71v-3.1c2.03,0,3.44-.24,4.23-.71,.8-.47,1.19-1.17,1.19-2.08,0-.54-.15-1.22-.43-2.05-.29-.83-.62-1.73-.98-2.73s-.65-2.01-.85-3.05c-.21-1.04-.23-2.04-.06-2.99Z"/>
    <path class="d" d="M204.59,10.82c0,.91,.4,1.6,1.21,2.08,.81,.48,2.21,.71,4.22,.71v3.1c-2,0-3.41,.24-4.22,.71-.81,.47-1.21,1.17-1.21,2.08,0,.54,.15,1.22,.45,2.05s.62,1.74,.98,2.73c.35,.99,.63,2.01,.84,3.04,.21,1.03,.23,2.04,.06,3.01h-12.49v-4.65h6.97c0-.27-.08-.62-.25-1.05-.17-.43-.36-.92-.59-1.47-.23-.55-.42-1.13-.59-1.75-.17-.62-.25-1.25-.25-1.89,0-1.01,.43-1.85,1.29-2.51,.86-.66,1.99-1.17,3.39-1.52,1.4-.35,2.92-.56,4.56-.62v.62c-1.63-.08-3.15-.3-4.56-.65-1.41-.35-2.54-.86-3.39-1.52-.86-.66-1.29-1.49-1.29-2.48,0-.64,.08-1.27,.25-1.89,.17-.62,.36-1.2,.59-1.75,.23-.55,.42-1.04,.59-1.47,.17-.43,.25-.79,.25-1.05h-6.97V0h12.49c.17,.95,.14,1.95-.06,2.99-.21,1.04-.49,2.06-.84,3.05s-.68,1.9-.98,2.73c-.3,.83-.45,1.51-.45,2.05Z"/>
  </g>
</svg>