<?xml version="1.0" encoding="UTF-8"?>
<svg id="b" data-name="圖層 2" xmlns="http://www.w3.org/2000/svg" width="100.52" height="92.12" viewBox="0 0 100.52 92.12">
  <defs>
    <style>
      .d {
        fill: #302725;
      }
    </style>
  </defs>
  <g id="c" data-name="圖層 2">
    <g>
      <path class="d" d="M39.86,.05c1.64-.16,6.69-.24,8.17,4.61,.15,.5,.27,1.06,.34,1.68,0,.02,.28,3.5-2.44,6.69-1.8,2.11-4.53,3.66-8.12,4.62-2.82,.75-5.53,.98-8.15,1.21-1.33,.12-2.65,.23-3.95,.41-.1,.01-.21,.03-.31,.04-.05,0-.1,.01-.16,.02-3.68,.56-7.19,1.72-10.44,5.04h0c-.09,.04-.17,.09-.26,.13-.21,.1-.42,.2-.64,.31-.14,.07-.29,.15-.43,.22-.19,.1-.39,.2-.58,.31-.14,.07-.27,.15-.41,.22-.31,.17-.62,.35-.93,.54-.13,.08-.26,.16-.39,.24-.22,.14-.45,.27-.67,.42-.14,.09-.28,.18-.42,.27-.29,.18-.57,.37-.86,.57-.11,.07-.22,.14-.32,.22-.31,.21-.63,.43-.95,.66-.13,.09-.26,.19-.39,.28-.27,.19-.55,.4-.82,.6-.12,.09-.23,.17-.35,.26-.38,.28-.75,.57-1.14,.87-.03,.02-.06,.05-.09,.07h0s0-.06,0-.08c0-.16,.01-.32,.02-.48,0-.03,0-.05,0-.08,.06-.89,.21-1.73,.46-2.54,.02-.05,.03-.11,.05-.16,.03-.11,.07-.22,.11-.32,.03-.07,.05-.15,.08-.22,.04-.09,.07-.19,.11-.28,.04-.09,.07-.17,.11-.25,.04-.08,.08-.17,.12-.25,.04-.09,.09-.18,.14-.28,.04-.07,.08-.15,.12-.22,.05-.1,.11-.2,.17-.3,.04-.07,.08-.13,.12-.2,.06-.11,.13-.21,.2-.32,.04-.06,.07-.11,.11-.17,.08-.12,.16-.23,.25-.35,.03-.04,.06-.08,.09-.13,.1-.13,.21-.27,.31-.4,.02-.02,.04-.05,.05-.07,.26-.32,.55-.63,.85-.93,6.12-6.08,19.13-7.72,25.39-8.51,1.47-.19,2.63-.33,3.39-.49,3.77-.78,6.88-4.3,6.99-6.23,.06-1.07-.38-2.08-1.24-2.75-.87-.67-3.48,.22-5.15,.49-1.41,.23-2.5,.04-3.11-.54-.04-.04-.08-.07-.12-.11-.49-.55-.55-1.37-.16-2.23,.26-.58,2.29-1.82,5.26-2.11Z"/>
      <g>
        <path class="d" d="M87.02,74.11l-.02,.05c-.03,.08-.07,.15-.1,.23-.02,.04-.04,.08-.06,.13-.02,.05-.05,.1-.07,.15-.06,.11-.11,.22-.18,.33l-.03,.05c-.04,.07-.09,.15-.13,.22l-.02,.03c-.14,.22-.3,.44-.47,.64-.02,.02-.03,.04-.05,.06-.05,.06-.1,.11-.15,.17-.06,.06-.12,.12-.18,.17-.02,.02-.03,.03-.05,.05-.1-.74-.25-2.84-.33-3.93,.85,.22,1.6,.37,2.27,.37-.09,.34-.23,.79-.43,1.28Z"/>
        <path class="d" d="M71.23,68.05c-.69,.85-2.02,2.48-2.53,3.02,0-.03-.01-.07-.02-.1-.01-.07-.03-.15-.04-.22,0-.05-.01-.11-.02-.16,0-.06-.01-.12-.02-.19,0-.05,0-.11-.01-.16,0-.1,0-.2,0-.3,0-.06,0-.12,0-.18,0-.05,0-.11,0-.16,0-.06,0-.13,.01-.19,0-.05,0-.09,.01-.14,.01-.13,.03-.25,.05-.37,0-.03,0-.06,.01-.08,.01-.08,.03-.15,.04-.22,0-.02,0-.04,.01-.06,.12-.59,.29-1.11,.42-1.48,.55,.39,1.24,.7,2.07,1Z"/>
        <path class="d" d="M97.74,63.7c-.02,.25-.05,.5-.08,.75,0,.03,0,.06-.01,.09-.11,.75-.21,1.59-.32,2.48-.04,.37-.09,.75-.14,1.13h.02s.04-.03,.06-.05c.11-.06,.22-.13,.33-.2,.04-.03,.08-.05,.11-.08,.09-.06,.18-.12,.26-.19,.04-.03,.08-.06,.12-.1,.08-.07,.16-.13,.24-.2,.04-.03,.08-.07,.12-.1,.08-.07,.16-.15,.24-.22,.03-.03,.07-.06,.1-.1,.08-.08,.16-.17,.24-.26,.02-.03,.05-.05,.07-.08,.1-.11,.19-.22,.28-.34h0c.19-.26,.36-.51,.51-.77l.02-.03c.06-.11,.12-.23,.18-.34,.01-.02,.02-.05,.03-.07,.05-.1,.09-.21,.13-.31,.01-.03,.02-.06,.03-.09,.04-.1,.07-.2,.1-.3,0-.03,.02-.06,.02-.09,.03-.1,.05-.2,.06-.3,0-.02,0-.05,.01-.07,.02-.11,.03-.22,.03-.33v-.03c0-.12,0-.24-.01-.36,0-.03-.01-.05-.02-.08-.04-.09-.08-.19-.09-.29h0c-.19-.45-.6-.82-1.09-1.11l-.05-.03c-.06-.03-.11-.06-.17-.09-.02-.01-.05-.03-.07-.04-.09-.05-.18-.09-.27-.13-.04-.02-.08-.04-.12-.05-.05-.02-.09-.04-.14-.06-.07-.03-.14-.05-.21-.08-.04-.02-.08-.03-.13-.04-.06-.02-.12-.04-.17-.06-.04-.01-.07-.02-.11-.03-.07-.02-.15-.04-.22-.06,.13,.83,.16,1.69,.1,2.59,0,.04,0,.08-.01,.13Z"/>
        <path class="d" d="M63.01,53.08s-.02,.08-.03,.12c-.02,.09-.03,.19-.05,.29,0,.04-.01,.08-.02,.12-.01,.1-.02,.2-.03,.31,0,.04,0,.08,0,.12,0,.11,0,.22,0,.33,0,.04,0,.07,0,.11,0,.11,0,.23,.01,.35,0,.03,0,.06,0,.09,0,.12,.02,.25,.04,.37,0,.02,0,.04,0,.06,.02,.13,.04,.26,.06,.4v.02c.15,.74,.4,1.46,.75,2.1h0c.23-.43,.45-.85,.67-1.26,.42-.79,.83-1.54,1.16-2.21,.56-1.12,1.24-2.08,2.02-2.9h0l-.04-.02c-.06-.02-.12-.05-.19-.07-.03-.01-.07-.03-.11-.04-.05-.02-.1-.03-.15-.05-.04-.01-.08-.03-.13-.04-.05-.02-.1-.03-.15-.04-.09-.03-.18-.05-.27-.07-.03,0-.06-.01-.09-.02-.07-.02-.13-.03-.2-.05h-.04c-.81-.17-1.66-.18-2.23,.17h0c-.07,.08-.15,.14-.23,.18h0s-.04,.04-.06,.06c-.13,.15-.24,.32-.34,.5-.02,.03-.03,.05-.05,.08-.04,.08-.07,.16-.11,.24-.01,.04-.03,.07-.05,.11-.03,.08-.06,.17-.09,.25-.01,.04-.03,.08-.04,.12-.02,.09-.05,.18-.07,.27Z"/>
        <path class="d" d="M95.56,66.81c.11-.9,.21-1.76,.33-2.53,.04-.29,.07-.57,.09-.85,0-.06,0-.12,0-.17,.01-.23,.02-.45,.02-.67,0-.06,0-.12,0-.18,0-.27-.02-.53-.05-.79,0-.01,0-.02,0-.03-.03-.24-.07-.48-.12-.71-.02-.08-.03-.15-.05-.23-.04-.17-.09-.35-.14-.52-.02-.07-.04-.15-.07-.22-.07-.22-.15-.43-.24-.64-.02,.01-.04,.03-.05,.04,0,0-.01,.01-.02,.02-1.36,.8-2.45,.74-3.12,.55h0c-.47-.13-.91-.37-1.25-.69-.21-.19-.38-.4-.5-.64-.1-.18-.24-.35-.42-.45-.18-.1-.39-.12-.62,0-.82,.4-1.59,.45-2.25,.17-.4-.17-.76-.45-1.07-.86-.19-.25-.38-.41-.55-.47-.06-.02-.11-.03-.16-.02-.12,0-.2,.09-.21,.12-.1,.21-.04,.52,.17,.81,.41,.58,.56,1.52-1.06,2.76-.11,.08-.21,.17-.31,.26,0,0-.02,.02-.03,.02-.08,.08-.16,.16-.23,.24-.02,.02-.05,.05-.07,.07-.07,.08-.14,.17-.2,.25-.01,.02-.03,.04-.04,.06-.07,.09-.12,.18-.17,.28,0,.01-.01,.02-.02,.03-.05,.1-.1,.2-.14,.3h0c-.12,.31-.16,.61-.1,.86h0c.41,.25,.76,.6,1.01,1.05l.02,.04c.04,.07,.07,.13,.1,.2,.01,.03,.03,.06,.04,.09,.02,.05,.04,.11,.07,.16,.02,.04,.03,.08,.05,.13,.02,.04,.03,.09,.04,.14,.01,.05,.03,.1,.04,.15,.22,.91-.02,1.53-.26,1.88-.28,.42-.71,.71-1.15,.78-.54,.09-1.02-.05-1.45-.39-.14-.12-.28-.26-.4-.42h0s-.24,0-.37,.02c-.06,0-.13,.01-.2,.02-.05,0-.1,0-.15,.01h-.03c-.12,0-.24,0-.38,0h-.02l-.59,1.88h0l.03,.03s.05,.04,.07,.06c.64,.5,1.81,1.3,3.26,1.78l.06,.02c.14,.05,.28,.09,.43,.13,.41,.11,.81,.22,1.18,.33,1.85,.52,3.19,.9,4.07,.46,.32-.16,.63-.37,.92-.58,.61-.43,1.29-.89,2.15-.86,.24,0,.5,.06,.78,.17,.05,.02,.1,.03,.14,.05,.09,.04,.19,.09,.27,.14,.6,.36,1,.95,1.09,1.65,.12,.96-.36,1.91-1.3,2.63-.09,.07-.18,.12-.27,.18-.01,0-.02,.01-.04,.02-.08,.04-.16,.08-.25,.12-.02,0-.05,.02-.07,.03-.08,.03-.15,.06-.23,.08-.03,0-.06,.02-.09,.02-.08,.02-.16,.04-.24,.05-.03,0-.06,.01-.09,.02-.08,.01-.17,.03-.25,.03-.03,0-.05,0-.08,0-.09,0-.19,.01-.29,.02-.02,0-.03,0-.05,0-.35,.01-.7-.01-1.04-.05h-.03c-.1-.02-.2-.03-.29-.05h-.06c-.09-.02-.17-.04-.25-.05-.02,0-.05,0-.07-.01-.08-.02-.16-.03-.23-.05h-.07c-.08-.03-.15-.05-.22-.07h-.06c-.08-.03-.15-.05-.22-.07h-.05c-.16,.32-.34,.66-.55,.99-.01,.02-.03,.04-.04,.06-.06,.09-.13,.19-.19,.28-.02,.03-.04,.05-.06,.08-.06,.08-.12,.16-.18,.23-.03,.03-.05,.06-.08,.09-.06,.07-.12,.14-.19,.21-.03,.03-.06,.06-.09,.09-.07,.08-.15,.15-.23,.22-.03,.03-.06,.06-.1,.08-.08,.06-.15,.13-.23,.19l-.03,.02c-.18,.15-.49,.27-.81,.17h-.03c-.34-.14-.56-.47-.65-1-.07-.46-.17-1.68-.26-2.78h-.05c-.08,0-.16-.02-.24-.02-.03,0-.05,0-.08,0-.09,0-.17-.02-.26-.03-.02,0-.05,0-.07,0-.09-.01-.18-.02-.28-.04h-.04c-.4-.06-.82-.14-1.22-.22-.05,0-.09-.02-.14-.03-.06-.01-.12-.03-.18-.04-.06-.01-.12-.03-.18-.04l-.15-.03c-.07-.02-.14-.03-.2-.05-.04-.01-.09-.02-.13-.03-.07-.02-.14-.04-.21-.06-.04,0-.07-.02-.11-.03-.07-.02-.15-.04-.22-.06-.03,0-.06-.02-.09-.03-.07-.02-.15-.04-.22-.06l-.07-.02c-.07-.02-.14-.04-.21-.07-.02,0-.04-.01-.06-.02-.07-.02-.14-.05-.2-.07l-.05-.02c-.07-.02-.13-.05-.19-.07h-.03l-3.46-1.11h0c-.06-.02-.13-.04-.2-.05-.14-.04-.28-.08-.44-.13-.31-.1-.67-.22-1.04-.37l-.05-.02c-.15-.06-.31-.12-.47-.19-.07-.03-.13-.06-.2-.08-.11-.04-.21-.09-.32-.14-.1-.04-.19-.09-.29-.13-.07-.03-.15-.07-.22-.1-.12-.06-.23-.11-.35-.17-.05-.02-.1-.05-.15-.08-.13-.07-.26-.13-.38-.2l-.08-.05c-.14-.08-.27-.15-.4-.23h0c-.7,.85-1.49,1.79-1.81,2.12-.37,.38-.74,.53-1.1,.44h-.04s-.07-.04-.11-.06h-.01s-.06-.04-.09-.06h0s-.06-.05-.08-.07h0c-.13-.13-.21-.28-.25-.42-.04-.12-.07-.25-.11-.38,0-.03-.01-.05-.02-.08-.02-.1-.04-.19-.06-.29-.01-.07-.02-.14-.03-.2,0-.02,0-.04,0-.07-.02-.15-.03-.3-.04-.44h0c-.01-.25,0-.49,0-.73h0c0-.14,.02-.27,.03-.41,0-.05,0-.09,.02-.14,0-.05,.01-.1,.02-.15,.01-.1,.03-.2,.05-.3v-.03h-.02l-.04-.02c-.06-.02-.13-.05-.2-.07-.03,0-.05-.02-.08-.03-.06-.02-.12-.05-.17-.07-.03-.01-.07-.03-.1-.04-.06-.02-.11-.05-.17-.07-.04-.02-.08-.03-.11-.05-.06-.03-.11-.05-.17-.08-.04-.02-.08-.04-.12-.06-.06-.03-.12-.06-.18-.09-.04-.02-.08-.04-.12-.06-.06-.03-.13-.07-.19-.11-.03-.02-.06-.04-.1-.06-.09-.06-.19-.11-.28-.17-.03-.02-.07-.05-.1-.07-.06-.04-.12-.08-.17-.12-.04-.03-.08-.06-.12-.09-.05-.04-.1-.08-.14-.12-.04-.03-.08-.07-.12-.1-.04-.04-.09-.08-.13-.12-.04-.04-.07-.08-.11-.11-.04-.04-.07-.08-.11-.12-.03-.04-.07-.08-.1-.12-.03-.04-.06-.09-.09-.13-.03-.04-.06-.09-.09-.13-.03-.04-.05-.09-.08-.14-.03-.05-.05-.09-.07-.14-.02-.05-.04-.1-.06-.16-.02-.04-.04-.08-.05-.13-.36-1.13-.2-2.19,.45-2.9,.53-.59,1.33-.85,2.14-.68,.35,.07,.64,.2,.88,.35,.72,.47,1,1.24,1.26,1.94,.12,.34,.25,.68,.42,1,.18,.33,.47,.59,.87,.84,.66,.4,1.6,.73,2.73,1.13,.36,.13,.75,.26,1.15,.41,.14,.05,.28,.1,.43,.14l.05,.02c1.55,.46,3.05,.46,3.82,.41l.59-1.88c-.25-.15-.46-.32-.62-.46-.1-.09-.25-.21-.3-.23h0c-.49,.15-.93,.16-1.32,.01-.24-.09-.45-.22-.65-.41-.32-.31-.51-.8-.49-1.3,.01-.43,.17-1.07,.87-1.69,.08-.07,.17-.14,.26-.21h0c.09-.07,.17-.12,.26-.17h0c.55-.33,1.15-.47,1.72-.43h0c.06-.05,.11-.12,.16-.19l.02-.03c.04-.07,.08-.14,.12-.22,0-.02,.01-.04,.02-.05,.03-.07,.06-.15,.08-.24,0-.03,.02-.07,.02-.1,.02-.07,.03-.15,.04-.23,0-.05,0-.11,.01-.17,0-.07,0-.13,0-.2,0-.08,0-.17-.01-.26,0-.05,0-.09,0-.14-.01-.13-.03-.26-.06-.39,0-.01,0-.02,0-.03-.03-.15-.07-.3-.12-.46-.61-1.95,.06-2.63,.73-2.87,.33-.12,.56-.33,.6-.56,0-.03-.01-.14-.11-.22,0,0-.01,0-.02,0-.16-.12-.46-.11-.85,0-.65,.2-1.25,.19-1.77-.04-.53-.23-.98-.67-1.33-1.3-.09-.17-.22-.26-.36-.31-.24-.09-.52-.03-.75,.09-.63,.31-1.45,.34-2.19,.07h0c-.66-.24-1.58-.82-2.24-2.25-.01-.03-.02-.06-.03-.09h0s-.09,.06-.13,.09c-.14,.09-.27,.18-.4,.27-.09,.07-.18,.14-.28,.22-.1,.08-.2,.16-.3,.25-.09,.08-.17,.15-.26,.24-.11,.11-.22,.22-.33,.33-.09,.1-.18,.2-.27,.3-.12,.14-.24,.29-.36,.44-.07,.09-.13,.18-.19,.27-.09,.13-.18,.26-.27,.4-.06,.09-.12,.18-.17,.28-.11,.18-.21,.36-.31,.55-.02,.05-.05,.09-.08,.14-.35,.7-.76,1.46-1.19,2.26-2.21,4.11-5.23,9.73-3.78,14.19,.62,1.9,1.78,3.32,3.01,4.28,.01,.01,.03,.02,.04,.03,.1,.08,.21,.16,.32,.23,.05,.04,.1,.07,.15,.11,.06,.04,.12,.08,.18,.12,.46,.29,.92,.53,1.36,.7,.02,0,.04,.02,.07,.03,.09,.03,.18,.06,.26,.09,.03,0,.05,.02,.08,.03,.03,0,.06,.02,.09,.03,.06,.02,.12,.04,.18,.05,.11,.03,.22,.06,.33,.08h.03c1.12,.22,2.08,.24,3,.27,.26,0,.53,.02,.8,.03h.03c.1,0,.21,.01,.32,.02,.05,0,.09,0,.14,0,.09,0,.19,.01,.29,.02l.18,.02c.09,0,.18,.02,.28,.03,.07,0,.13,.02,.2,.03,.09,.01,.18,.02,.27,.04,.07,.01,.15,.03,.22,.04,.09,.02,.18,.03,.27,.05,.09,.02,.18,.04,.27,.06,.08,.02,.15,.03,.23,.05l1.04-3.28c.15-.47,.65-.73,1.12-.58h0c.47,.15,.73,.65,.58,1.12l-1.04,3.28h0c.06,.02,.12,.05,.17,.07,.1,.04,.21,.08,.31,.13,.07,.03,.14,.06,.21,.1,.08,.04,.17,.08,.25,.12,.07,.03,.14,.07,.2,.1,.08,.04,.15,.08,.23,.12,.06,.03,.13,.07,.19,.11,.08,.04,.15,.09,.23,.13,.06,.03,.12,.07,.17,.1,.08,.05,.16,.1,.23,.14,.05,.03,.1,.06,.15,.09,.09,.06,.18,.12,.28,.18l.09,.06c.12,.08,.24,.16,.36,.24,.48,.32,.97,.65,1.53,.96,.04,.02,.08,.04,.11,.06,.08,.04,.15,.08,.23,.13,.07,.04,.15,.08,.23,.12,.04,.02,.08,.04,.13,.07,.07,.04,.15,.07,.22,.1,.05,.02,.1,.05,.16,.07h0c.11,.05,.23,.1,.35,.14,.05,.02,.11,.04,.17,.06,.03,.01,.06,.02,.1,.03,.03,0,.06,.02,.08,.02,.09,.03,.17,.05,.26,.07,.02,0,.04,.01,.07,.02,.47,.11,.99,.19,1.56,.21,.05,0,.1,0,.14,0,.08,0,.17,0,.25,0,.11,0,.21,0,.32,0,.04,0,.09,0,.13,0,1.34-.07,2.83-.45,4.24-1.33,.22-.14,.43-.28,.64-.44,3.75-2.82,4.51-9.16,5.07-13.78Zm-7.42,1.71c-2.28-.72-3.54-3.16-2.82-5.43,.72-2.28,3.16-3.54,5.43-2.82,2.28,.72,3.54,3.16,2.82,5.43-.72,2.28-3.16,3.54-5.43,2.82Zm-14.43-13.65c2.28,.72,3.54,3.16,2.82,5.43-.72,2.28-3.16,3.54-5.43,2.82-2.28-.72-3.54-3.16-2.82-5.43,.72-2.28,3.16-3.54,5.43-2.82Z"/>
        <path class="d" d="M71.57,51.05c.39,.85,.94,1.43,1.6,1.66,.55,.19,1.05,.12,1.33-.02,1.01-.5,2.07-.22,2.57,.69,.59,1.06,1.31,.98,1.8,.82,1.01-.32,1.61-.05,1.94,.23,.44,.38,.52,.9,.47,1.24-.07,.41-.3,.77-.64,1.05-.2,.16-.43,.29-.69,.38-.05,.02-.09,.05-.13,.09-.21,.27-.04,.96,.1,1.39,.36,1.13,.38,2.48-.2,3.4,.11,.07,.22,.14,.32,.22,.24,.2,.27,.55,.07,.78-.03,.04-.07,.07-.1,.09-.2,.15-.48,.15-.68-.02-.62-.51-1.56-.43-2.28,.2-.02,.01-.03,.03-.04,.04-.29,.27-.45,.55-.45,.84,0,.25,.1,.42,.16,.47,.23,.22,.48,.26,.89,.13,.62-.19,1.04,.19,1.35,.46,.22,.2,.43,.38,.73,.46,.29,.1,.57,.07,.86,.04,.41-.05,.97-.11,1.37,.4,.26,.33,.49,.45,.8,.4,.05,0,.14-.04,.23-.12,.06-.04,.12-.1,.17-.18,.17-.25,.2-.59,.1-1-.23-.93-.94-1.54-1.75-1.48-.31,.02-.57-.2-.6-.51-.01-.16,.05-.31,.15-.42,.09-.1,.22-.17,.36-.18,.11,0,.21,0,.32,0,.02,0,.05,0,.07,0,.05-.94,.64-1.87,1.41-2.58,.12-.11,.25-.22,.37-.32,.09-.07,.18-.14,.28-.23,.37-.32,.74-.74,.55-1-.45-.63-.55-1.35-.27-1.94,.05-.11,.14-.23,.25-.34,.2-.19,.48-.36,.85-.4,.43-.04,1.07,.08,1.71,.93,.31,.41,.85,.89,1.94,.36,.93-.45,1.96-.07,2.5,.92,.15,.28,.51,.63,1.07,.78,.67,.19,1.45,.03,2.26-.44,.01,0,.03-.01,.04-.02,.03-.02,.07-.03,.1-.04-1.22-2.04-3.37-3.61-6.34-4.55l-9.21-2.91c-2.97-.94-5.63-.89-7.8,.08,0,0,.02,.02,.02,.03,.02,.03,.04,.06,.06,.1Z"/>
        <path class="d" d="M71.51,61.78c1.54,.49,3.18-.37,3.66-1.9,.49-1.54-.37-3.18-1.9-3.66s-3.18,.37-3.66,1.9c-.49,1.54,.37,3.18,1.9,3.66Z"/>
        <path class="d" d="M90.32,61.6c-1.54-.49-3.18,.37-3.66,1.9-.49,1.54,.37,3.18,1.9,3.66,1.54,.49,3.18-.37,3.66-1.9,.49-1.54-.37-3.18-1.9-3.66Z"/>
      </g>
      <path class="d" d="M38.52,61.69c2.98-6.07,13.71-4.06,16.59-.01,2.88,4.05,3.71,9.85,3.91,15.61,.2,5.76,5.32,5.51,8.98,7.7,0,0-4.44-.34-6.68,3.96-2.12,4.07-8.78-1.95-10.54-3.99-1.76-2.05,1.02-5.03-1.91-8.44-2.93-3.41-13.37-8.68-10.35-14.83Z"/>
      <path class="d" d="M2.61,41.31c6.55-5.26,17.79,1.32,18.65,7.32,.98,6.86-.74,14.89-5.95,20.68-4.83,5.36,2.47,8.9,5.07,13.24,0,0-4.46-2.66-9.23,.99-4.52,3.46-8.11-6.69-8.8-9.89-.69-3.19,3.9-5.1,2.76-10.42-1.15-5.32-9.13-16.58-2.49-21.91Z"/>
      <path class="d" d="M61.76,91.54s1.02-5.03,3.56-4.83c2.54,.19,4.15,4.14,4.05,5.41l-7.61-.58Z"/>
      <path class="d" d="M67.27,86.22s2.73-2.34,5.07,.39c2.34,2.73,1.52,5.22,1.52,5.22l-3.81-.29s.83-2.49-2.78-5.32Z"/>
      <path class="d" d="M73.03,86.02s4.44,.34,4.74,4.83l-2.54-.19s.15-1.9-2.2-4.63Z"/>
      <path class="d" d="M9.02,88.79s1.02-5.03,3.56-4.83c2.54,.19,4.15,4.14,4.05,5.41l-7.61-.58Z"/>
      <path class="d" d="M14.53,83.47s2.73-2.34,5.07,.39c2.34,2.73,1.52,5.22,1.52,5.22l-3.81-.29s.83-2.49-2.78-5.32Z"/>
      <path class="d" d="M20.28,83.27s4.44,.34,4.74,4.83l-2.54-.19s.15-1.9-2.2-4.63Z"/>
      <path class="d" d="M35.1,76.62c-1.62-.06-3.63,.33-5.71,1.92-4.52,3.46-8.11-6.69-8.8-9.89-.67-3.11,3.67-5,2.84-10.02,2.86,3.93,6.48,12.46,9,16.01,.6,.84,1.55,1.49,2.67,1.99Z"/>
      <path class="d" d="M27.26,83.8s1.02-5.03,3.56-4.83c2.54,.19,4.15,4.14,4.05,5.41l-7.61-.58Z"/>
      <path class="d" d="M32.77,78.48s2.73-2.34,5.07,.39c2.34,2.73,1.52,5.22,1.52,5.22l-3.81-.29s.83-2.49-2.78-5.32Z"/>
      <path class="d" d="M38.53,78.28s4.44,.34,4.74,4.83l-2.54-.19s.15-1.9-2.2-4.63Z"/>
      <path class="d" d="M82.94,89.97s1.02-5.03,3.56-4.83c2.54,.19,4.15,4.14,4.05,5.41l-7.61-.58Z"/>
      <path class="d" d="M88.45,84.65s2.73-2.34,5.07,.39c2.34,2.73,1.52,5.22,1.52,5.22l-3.81-.29s.83-2.49-2.78-5.32Z"/>
      <path class="d" d="M94.2,84.45s4.44,.34,4.74,4.83l-2.54-.19s.15-1.9-2.2-4.63Z"/>
      <path class="d" d="M59.44,46.7c-4.39-.97-9.32-3.26-13.37-8.68-4.05-5.41-12.4-13.07-23.19-13.89C12.1,23.31-.34,35.76,1.18,40.98c8.1-5.76,16.05-1.33,20.2,2.82,4.15,4.14-.19,10.83,2.79,13.61,2.98,2.78,7.28,13.32,10.16,17.36,2.88,4.05,13.76,3.6,13.76,3.6,.1-1.27-2.93-3.41-5.96-5.56-3.03-2.15-6.59-5.61-6.3-9.41,.29-3.81,3.85-8.64,12.68-7.33,8.55,1.27,11.07,11.06,11.23,11.67-.23-5.11,2.58-8.7,2.58-8.7,0,0-2.78-5.32-.64-8.34,2.15-3.03,7.07-.74,7.07-.74,.73-1.22-4.93-2.29-9.32-3.26Zm-15.28,28.82c.53,.04,.92,.5,.88,1.02-.04,.53-.5,.92-1.02,.88-.53-.04-.92-.5-.88-1.02,.04-.53,.5-.92,1.02-.88Zm-3.76-.92c.53,.04,.92,.5,.88,1.02-.04,.53-.5,.92-1.02,.88-.53-.04-.92-.5-.88-1.02,.04-.53,.5-.92,1.02-.88Zm-3.07-1.51c.53,.04,.92,.5,.88,1.02-.04,.53-.5,.92-1.02,.88-.53-.04-.92-.5-.88-1.02,.04-.53,.5-.92,1.02-.88Zm-1.46-1.71c-.04,.53-.5,.92-1.02,.88-.53-.04-.92-.5-.88-1.02,.04-.53,.5-.92,1.02-.88,.53,.04,.92,.5,.88,1.02Z"/>
    </g>
  </g>
</svg>