<?xml version="1.0" encoding="UTF-8"?>
<svg id="b" data-name="圖層 2" xmlns="http://www.w3.org/2000/svg" width="77.21" height="124.07" viewBox="0 0 77.21 124.07">
  <defs>
    <style>
      .d {
        fill: #302725;
      }
    </style>
  </defs>
  <g id="c" data-name="資訊">
    <g>
      <g>
        <path class="d" d="M52.26,22.83v.07c-.02,.09-.03,.19-.04,.29,0,.05-.01,.11-.02,.16,0,.06-.02,.13-.03,.19-.02,.14-.05,.28-.08,.43v.06c-.03,.1-.06,.19-.08,.29v.04c-.09,.29-.18,.58-.3,.86-.01,.03-.02,.06-.04,.08-.03,.08-.07,.16-.11,.24-.04,.08-.09,.17-.13,.25-.01,.02-.02,.05-.04,.07-.37-.78-1.26-3.03-1.72-4.19,1.01-.05,1.88-.15,2.62-.38,.02,.4,.02,.95-.03,1.55Z"/>
        <path class="d" d="M32.84,21.67c-.46,1.17-1.36,3.42-1.73,4.19-.02-.04-.04-.07-.06-.11-.04-.07-.08-.15-.12-.23-.03-.06-.05-.12-.08-.17-.03-.07-.06-.13-.08-.2-.02-.06-.05-.12-.07-.17-.04-.11-.08-.22-.11-.33-.02-.07-.04-.13-.06-.2-.02-.06-.03-.12-.05-.18-.02-.07-.03-.14-.05-.21-.01-.05-.02-.1-.03-.16-.03-.14-.05-.29-.07-.43,0-.03-.01-.06-.01-.1-.01-.09-.02-.17-.03-.26,0-.02,0-.05,0-.07-.07-.69-.07-1.32-.06-1.77,.74,.24,1.61,.33,2.62,.38Z"/>
        <path class="d" d="M60.41,7.7c.06,.28,.12,.56,.17,.85,0,.03,.01,.07,.02,.1,.14,.86,.32,1.82,.51,2.83,.08,.42,.16,.85,.24,1.29h0v-.02s.05-.04,.07-.06c.1-.11,.2-.22,.29-.34,.03-.04,.07-.08,.1-.13,.08-.1,.15-.2,.22-.3,.03-.05,.07-.1,.1-.15,.07-.1,.13-.2,.2-.3,.03-.05,.06-.1,.09-.15,.06-.11,.12-.22,.18-.33,.03-.05,.05-.09,.07-.14,.06-.12,.12-.24,.18-.37,.02-.04,.03-.07,.05-.11,.07-.16,.13-.31,.19-.47h0c.12-.35,.22-.69,.29-1.03v-.04c.04-.15,.07-.3,.09-.44,0-.03,0-.06,.01-.09,.02-.13,.03-.26,.04-.38,0-.04,0-.07,0-.11,0-.12,0-.24,0-.36,0-.03,0-.07,0-.1,0-.12-.02-.24-.03-.35,0-.03,0-.06-.01-.09-.02-.13-.05-.25-.08-.37,0-.01,0-.03,0-.04-.04-.13-.08-.26-.14-.39-.01-.03-.03-.06-.05-.08-.08-.08-.15-.18-.2-.29h-.01c-.36-.43-.94-.69-1.58-.84-.02,0-.04-.01-.06-.01-.07-.02-.14-.03-.22-.04-.03,0-.06-.01-.09-.02-.11-.02-.22-.04-.34-.05-.05,0-.1-.01-.15-.02-.06,0-.11-.01-.17-.02-.09,0-.17-.01-.26-.02-.05,0-.1,0-.15,0-.07,0-.14,0-.21,0-.04,0-.09,0-.13,0-.09,0-.18,0-.26,0,.43,.86,.77,1.8,1,2.81,.01,.05,.02,.1,.03,.14Z"/>
        <path class="d" d="M18.62,8.11s0,.1,.01,.15c.01,.11,.03,.22,.05,.33,0,.05,.02,.09,.03,.14,.02,.11,.05,.23,.08,.35,.01,.04,.02,.09,.03,.13,.03,.12,.07,.24,.1,.36,.01,.04,.03,.08,.04,.12,.04,.13,.09,.25,.13,.38,.01,.03,.03,.06,.04,.1,.05,.13,.11,.26,.17,.39,.01,.02,.02,.05,.03,.07,.07,.14,.13,.28,.21,.41v.02c.42,.76,.95,1.47,1.56,2.04h0c.1-.55,.2-1.09,.3-1.61,.19-1.01,.37-1.97,.51-2.83,.22-1.42,.63-2.71,1.21-3.88h-.05c-.07-.01-.15-.02-.23-.02-.04,0-.09,0-.13,0-.06,0-.12,0-.18,0-.05,0-.1,0-.15,0-.06,0-.12,0-.18,0-.1,0-.21,0-.32,.01-.03,0-.07,0-.1,0-.08,0-.16,.01-.24,.02h-.05c-.94,.11-1.88,.39-2.38,.98h0c-.05,.11-.11,.2-.19,.28h0s-.04,.06-.05,.09c-.09,.21-.15,.43-.2,.67,0,.04-.02,.07-.02,.11-.02,.1-.03,.2-.03,.3,0,.04-.01,.09-.01,.13,0,.1,0,.2,0,.31,0,.05,0,.09,0,.14,0,.1,.01,.21,.02,.32Z"/>
        <path class="d" d="M59.09,11.86c-.19-1.03-.38-2-.52-2.89-.05-.33-.12-.65-.19-.97-.02-.06-.03-.13-.05-.19-.06-.25-.14-.5-.22-.74-.02-.07-.04-.13-.06-.19-.1-.29-.21-.58-.33-.85,0-.01-.01-.02-.02-.03-.12-.25-.24-.5-.37-.74-.04-.08-.09-.15-.13-.23-.11-.18-.22-.35-.33-.52-.05-.07-.1-.15-.15-.22-.16-.21-.32-.42-.49-.62-.01,.02-.03,.04-.05,.06,0,0-.01,.02-.02,.02-1.22,1.35-2.43,1.66-3.23,1.69h0c-.57,.02-1.12-.09-1.61-.32-.29-.14-.55-.31-.77-.52-.17-.17-.39-.3-.62-.34-.23-.04-.46,0-.68,.21-.76,.72-1.58,1.05-2.41,.97-.49-.05-.99-.24-1.47-.57-.29-.21-.56-.32-.77-.33-.07,0-.13,0-.18,.03-.13,.05-.19,.17-.19,.2-.04,.27,.14,.58,.47,.83,.65,.49,1.15,1.48-.2,3.4-.09,.13-.17,.26-.25,.39,0,.01-.02,.02-.02,.04-.06,.11-.12,.23-.17,.34-.02,.03-.04,.07-.05,.1-.05,.12-.09,.23-.13,.35,0,.03-.02,.05-.03,.08-.04,.12-.07,.24-.1,.36,0,.01,0,.03-.01,.05-.02,.13-.04,.25-.05,.37h0c-.02,.39,.04,.72,.19,.98h0c.53,.13,1.04,.4,1.48,.8l.04,.04c.06,.06,.12,.12,.18,.18,.03,.03,.05,.06,.08,.09,.04,.05,.09,.1,.13,.16,.03,.04,.07,.08,.1,.12,.03,.04,.06,.09,.09,.14,.03,.05,.07,.1,.1,.15,.56,.92,.51,1.68,.37,2.16-.16,.55-.53,1.02-.99,1.25-.56,.28-1.14,.3-1.73,.07-.2-.08-.39-.18-.59-.32h0s-.26,.09-.39,.15c-.06,.03-.14,.06-.21,.09-.05,.02-.1,.04-.16,.06h-.03c-.13,.06-.26,.1-.41,.14h-.02v2.27h0s.03,.01,.04,.02c.03,.01,.06,.02,.1,.04,.87,.32,2.44,.8,4.19,.82h.07c.17,0,.34,0,.51,0,.49-.02,.96-.04,1.4-.05,2.21-.07,3.81-.12,4.63-.91,.3-.29,.56-.63,.81-.95,.52-.68,1.1-1.43,2.06-1.69,.27-.07,.57-.11,.91-.09,.06,0,.12,0,.18,0,.12,.01,.23,.03,.35,.06,.79,.18,1.43,.7,1.76,1.43,.46,1.01,.27,2.22-.52,3.34-.07,.1-.15,.2-.24,.29-.01,.01-.02,.02-.03,.03-.07,.08-.15,.15-.23,.22-.02,.02-.05,.04-.07,.06-.07,.06-.15,.11-.23,.17-.03,.02-.06,.04-.09,.06-.08,.05-.16,.1-.24,.14-.03,.02-.06,.03-.09,.05-.09,.04-.18,.09-.27,.13-.03,.01-.06,.02-.08,.04-.1,.04-.2,.08-.31,.12-.02,0-.04,.01-.06,.02-.38,.13-.77,.23-1.16,.3-.01,0-.02,0-.04,0-.11,.02-.23,.04-.34,.06h-.07c-.1,.02-.2,.04-.29,.05-.03,0-.06,0-.08,0-.09,.01-.18,.02-.27,.03h-.08c-.09,.01-.18,.02-.26,.03h-.07c-.09,0-.18,.01-.26,.02h-.06c-.06,.42-.14,.86-.26,1.3,0,.03-.01,.05-.02,.08-.04,.13-.07,.25-.11,.38-.01,.04-.02,.07-.04,.11-.04,.11-.08,.21-.12,.32-.02,.04-.03,.08-.05,.13-.04,.1-.09,.2-.13,.29-.02,.04-.04,.09-.06,.13-.05,.11-.11,.21-.17,.32-.02,.04-.05,.08-.08,.13-.06,.1-.12,.19-.19,.29l-.02,.04c-.15,.22-.44,.47-.83,.47h-.04c-.42-.02-.78-.31-1.05-.86-.24-.48-.77-1.78-1.25-2.96h-.05c-.09,.03-.18,.05-.27,.07-.03,0-.06,.01-.09,.02-.1,.02-.19,.04-.29,.06-.03,0-.05,0-.08,.01-.11,.02-.21,.04-.32,.06h-.04c-.46,.08-.94,.14-1.42,.19-.05,0-.11,.01-.16,.02-.07,0-.14,.01-.21,.02-.07,0-.14,.01-.22,.02h-.17c-.08,.02-.16,.02-.24,.03-.05,0-.1,0-.15,0-.09,0-.17,0-.25,.01-.04,0-.08,0-.13,0-.09,0-.18,0-.26,0-.04,0-.07,0-.11,0-.09,0-.18,0-.26,0-.03,0-.06,0-.09,0-.09,0-.17,0-.25,0-.02,0-.05,0-.07,0-.08,0-.17,0-.24,0h-.06c-.08,0-.16,0-.23-.01h-4.22c-.07,0-.15,0-.23,0-.16,0-.34,.01-.53,.01-.38,0-.81-.01-1.27-.04h-.06c-.19-.02-.38-.03-.58-.05-.08,0-.17-.01-.25-.02-.13-.01-.27-.03-.4-.04-.12-.01-.24-.03-.37-.04-.09-.01-.19-.02-.28-.04-.15-.02-.29-.04-.44-.06-.06,0-.13-.02-.19-.03-.16-.03-.33-.06-.49-.09l-.11-.02c-.18-.04-.35-.07-.52-.11h0c-.47,1.18-1.01,2.48-1.25,2.96-.28,.55-.63,.84-1.05,.86h-.05s-.09,0-.13-.01h-.02s-.08-.02-.12-.03h-.01s-.08-.03-.11-.05h0c-.19-.09-.33-.24-.42-.37-.09-.12-.17-.25-.25-.38-.02-.03-.03-.05-.05-.08-.06-.1-.11-.2-.16-.3-.04-.07-.07-.14-.1-.21-.01-.02-.02-.05-.03-.07-.07-.16-.14-.31-.19-.47h0c-.1-.27-.18-.53-.25-.8h0c-.04-.16-.07-.31-.1-.46-.01-.05-.02-.11-.03-.16-.01-.06-.02-.12-.03-.17-.02-.12-.04-.23-.05-.34v-.04h-.08c-.08,0-.16-.01-.24-.02-.03,0-.07,0-.1,0-.07,0-.14,0-.22-.02-.04,0-.08,0-.12-.01-.07,0-.14-.01-.21-.02-.05,0-.09-.01-.14-.02-.07,0-.14-.02-.21-.03-.05,0-.1-.01-.15-.02-.07-.01-.15-.02-.22-.04-.05,0-.1-.02-.15-.03-.08-.02-.17-.03-.25-.05-.04,0-.08-.02-.13-.03-.12-.03-.24-.06-.37-.09-.04-.01-.09-.03-.13-.04-.08-.02-.16-.05-.23-.07-.05-.02-.11-.04-.16-.06-.07-.03-.13-.05-.2-.08-.06-.02-.11-.05-.17-.07-.06-.03-.12-.06-.18-.09-.05-.03-.11-.06-.16-.09-.06-.03-.11-.06-.16-.1-.05-.03-.1-.07-.16-.1-.05-.03-.1-.07-.15-.11-.05-.04-.1-.07-.14-.11-.05-.04-.09-.08-.13-.12-.04-.04-.09-.08-.13-.13-.04-.05-.08-.1-.12-.15-.03-.04-.07-.08-.1-.12-.79-1.11-.97-2.33-.52-3.34,.38-.84,1.17-1.39,2.11-1.48,.41-.04,.77,0,1.09,.08,.95,.26,1.53,1.01,2.05,1.69,.25,.33,.51,.66,.81,.95,.31,.3,.72,.49,1.24,.61,.86,.21,2,.25,3.39,.29,.44,.01,.91,.03,1.4,.05,.17,0,.35,0,.52,0h.06c1.86-.03,3.5-.56,4.34-.88v-2.27c-.33-.07-.61-.19-.84-.29-.14-.06-.35-.15-.41-.15h0c-.48,.34-.97,.49-1.45,.47-.29-.01-.57-.09-.85-.23-.46-.23-.83-.7-.99-1.25-.14-.48-.18-1.23,.37-2.15,.07-.11,.14-.21,.21-.32h0c.07-.1,.15-.2,.23-.28h0c.49-.55,1.1-.92,1.74-1.07h0c.05-.08,.08-.17,.11-.26v-.04c.04-.09,.06-.18,.07-.28,0-.02,0-.04,0-.07,0-.09,0-.19,0-.29,0-.04,0-.08,0-.12,0-.09-.02-.17-.04-.26-.01-.06-.03-.13-.04-.19-.02-.07-.03-.15-.06-.22-.03-.09-.06-.19-.1-.28-.02-.05-.04-.1-.06-.15-.06-.14-.13-.27-.2-.41,0-.01-.01-.02-.02-.04-.09-.15-.18-.31-.29-.46-1.35-1.92-.85-2.91-.2-3.4,.32-.24,.5-.56,.47-.83,0-.04-.07-.15-.19-.2,0,0-.02,0-.02,0-.21-.07-.55,.03-.93,.3-.64,.45-1.3,.64-1.96,.57-.66-.07-1.3-.39-1.91-.97-.16-.15-.33-.21-.5-.22-.29-.01-.58,.15-.8,.36-.59,.56-1.47,.88-2.38,.84h0c-.8-.03-2.02-.35-3.23-1.69-.02-.03-.04-.06-.06-.09h0s-.08,.1-.12,.15c-.12,.14-.24,.29-.35,.44-.08,.11-.15,.22-.23,.33-.08,.12-.16,.25-.24,.37-.07,.11-.14,.23-.2,.35-.09,.15-.16,.32-.24,.48-.07,.14-.13,.28-.19,.43-.08,.2-.17,.4-.24,.61-.04,.12-.08,.24-.12,.36-.05,.17-.11,.35-.15,.53-.03,.12-.07,.24-.09,.37-.05,.23-.1,.47-.14,.71-.01,.06-.03,.12-.04,.18-.14,.89-.32,1.86-.52,2.89-1,5.27-2.36,12.48,.77,16.88,1.34,1.87,3.1,3.02,4.78,3.65,.02,0,.04,.02,.06,.02,.14,.05,.29,.1,.43,.15,.07,.02,.14,.04,.21,.06,.08,.02,.16,.04,.24,.06,.61,.16,1.19,.26,1.73,.29,.03,0,.05,0,.08,0,.11,0,.22,0,.32,0,.03,0,.06,0,.09,0,.04,0,.07,0,.11,0,.07,0,.15,0,.22,0,.13,0,.26-.02,.39-.03h.04c1.3-.16,2.36-.47,3.38-.76,.29-.08,.59-.17,.89-.25h.03c.12-.04,.23-.07,.35-.1,.05-.01,.11-.03,.16-.04,.11-.03,.21-.05,.32-.07l.2-.04c.1-.02,.21-.04,.31-.06,.07-.01,.15-.03,.23-.04,.1-.02,.21-.04,.31-.05,.08-.01,.17-.02,.26-.03,.1-.01,.21-.03,.31-.04,.1-.01,.21-.02,.32-.03,.09,0,.18-.02,.27-.02v-3.95c0-.57,.46-1.02,1.03-1.02h0c.57,0,1.02,.46,1.02,1.02v3.95h0c.07,0,.14,.01,.21,.02,.13,0,.26,.02,.38,.03,.09,0,.17,.02,.26,.03,.11,.01,.21,.03,.31,.04,.09,.01,.17,.03,.26,.04,.1,.02,.2,.03,.29,.05,.08,.02,.16,.03,.25,.05,.1,.02,.2,.04,.29,.06,.07,.02,.15,.03,.22,.05,.1,.02,.2,.05,.31,.08,.07,.02,.13,.03,.2,.05,.12,.03,.24,.07,.37,.1l.12,.03c.16,.05,.32,.09,.48,.14,.64,.18,1.29,.37,2.01,.53,.05,0,.1,.02,.14,.03,.1,.02,.19,.04,.29,.06,.1,.02,.19,.03,.29,.05,.05,0,.11,.02,.16,.03,.09,.01,.18,.03,.28,.04,.07,0,.13,.02,.2,.03h0c.14,.02,.28,.03,.43,.03,.07,0,.14,0,.2,0,.04,0,.08,0,.12,0,.03,0,.07,0,.1,0,.1,0,.21,0,.31-.01,.03,0,.05,0,.08,0,.55-.04,1.16-.14,1.79-.31,.05-.01,.11-.03,.16-.04,.09-.03,.19-.06,.28-.09,.12-.04,.23-.08,.35-.12,.05-.02,.09-.03,.14-.05,1.45-.55,2.95-1.48,4.18-2.93,.19-.22,.38-.45,.55-.7,3.13-4.39,1.77-11.61,.77-16.88Zm-7.55,4.45c-2.75,0-4.98-2.23-4.98-4.98s2.23-4.98,4.98-4.98,4.98,2.23,4.98,4.98-2.23,4.98-4.98,4.98ZM30.97,6.35c2.75,0,4.98,2.23,4.98,4.98s-2.23,4.98-4.98,4.98-4.98-2.23-4.98-4.98,2.23-4.98,4.98-4.98Z"/>
        <path class="d" d="M27.31,2.9c.72,.8,1.53,1.24,2.33,1.27,.67,.02,1.19-.24,1.45-.49,.94-.9,2.2-.96,3.06-.14,1.01,.96,1.77,.62,2.26,.28,1-.7,1.75-.62,2.2-.42,.61,.26,.89,.81,.94,1.19,.07,.47-.06,.95-.34,1.37-.16,.24-.37,.47-.63,.66-.05,.04-.09,.09-.11,.15-.13,.37,.29,1.07,.59,1.49,.78,1.12,1.27,2.59,.96,3.79,.14,.03,.29,.08,.43,.13,.33,.13,.49,.51,.35,.83-.02,.05-.05,.1-.08,.14-.17,.23-.48,.33-.75,.21-.86-.35-1.86,.07-2.43,1.01-.01,.02-.02,.04-.03,.06-.22,.39-.3,.76-.21,1.08,.08,.27,.25,.42,.33,.46,.32,.16,.62,.12,1.02-.16,.61-.42,1.21-.15,1.64,.04,.31,.14,.6,.27,.96,.26,.36,.01,.65-.12,.96-.26,.43-.19,1.03-.46,1.64-.04,.4,.27,.7,.32,1.02,.16,.05-.02,.13-.1,.21-.21,.05-.07,.09-.15,.12-.26,.1-.33,.01-.72-.24-1.14-.57-.95-1.57-1.36-2.43-1.01-.33,.13-.7-.02-.83-.35-.07-.17-.06-.36,.02-.52,.07-.14,.18-.26,.34-.32,.12-.05,.23-.08,.35-.12,.03,0,.05-.01,.08-.02-.27-1.04,.06-2.28,.66-3.32,.09-.16,.19-.32,.3-.48,.07-.1,.15-.22,.23-.35,.29-.48,.55-1.07,.25-1.29-.71-.53-1.07-1.29-.96-2.03,.02-.14,.07-.3,.16-.46,.15-.28,.4-.56,.79-.73,.45-.2,1.2-.28,2.2,.42,.48,.34,1.25,.68,2.26-.28,.86-.82,2.12-.76,3.06,.14,.26,.25,.78,.51,1.45,.49,.8-.03,1.61-.47,2.33-1.27,.01-.01,.03-.02,.04-.04,.03-.03,.06-.05,.1-.07-2.05-1.81-4.95-2.79-8.53-2.79h-11.11c-3.59,0-6.48,.98-8.53,2.79,.01,0,.02,.01,.04,.02,.04,.03,.07,.06,.1,.09Z"/>
        <circle class="d" cx="30.97" cy="11.33" r="3.36"/>
        <path class="d" d="M51.54,7.98c-1.85,0-3.36,1.5-3.36,3.36s1.5,3.36,3.36,3.36,3.36-1.5,3.36-3.36-1.5-3.36-3.36-3.36Z"/>
      </g>
      <path class="d" d="M61.15,25.93s-1.43,13.76-19.49,7.33c0,0-2.53,4.68-1.86,9.35s-5.34,27.36-4.67,35.36c0,0-4.67-3.34-10.01,2.67-5.34,6.01,4,24.02,12.68,28.69,8.67,4.67,24.69,.67,26.69,0,2-.67,16.01-19.35,12.01-26.02-4-6.67-10.68-3.34-10.68-3.34,0,0,2-30.69,0-36.03-2-5.34-2.67-11.34-4.67-18.02Z"/>
      <path class="d" d="M65.15,32.6s1.33,7.34,2.67,11.34c1.33,4,.67,22.02,0,27.36,0,0,5.34,1.33,5.34-6.67s3.34-18.68-8.01-32.03Z"/>
      <path class="d" d="M40.22,33.26c-.37,.17-8.11,3.6-10.96,1.46,0,0,2.93,4.39,5.12,5.12,.23,.08,.41,.23,.53,.45-17.45,18.74-4.19,35.42-4.19,35.42h2.93s0-6.59,2.2-18.3c.4-2.17,2.93-13.17,2.2-17.57-.7-4.19,1.94-6.39,2.18-6.58Zm-6.21,5.12c-.61,0-1.1-.49-1.1-1.1s.49-1.1,1.1-1.1,1.1,.49,1.1,1.1-.49,1.1-1.1,1.1Zm2.2,2.2c-.61,0-1.1-.49-1.1-1.1s.49-1.1,1.1-1.1,1.1,.49,1.1,1.1-.49,1.1-1.1,1.1Z"/>
      <path class="d" d="M44.63,112.3c-1.13,5.08-5.31,5.8-9.85,4.52l-5.83-4.3h0c-5.19-4.15-12.03-7.09-16.1-8.84-1.52-.66-2.72-1.17-3.45-1.58-3.7-2.02-4.16-5.2-2.99-7.45,.64-1.26,1.81-2.29,3.22-2.81,1.41-.51,3.09-.51,4.76,.3,1.41,.68,2.77,.78,3.84,.3,.07-.02,.15-.05,.2-.09,.91-.49,1.53-1.41,1.68-2.52,.1-.75-1.35-2.77-4.46-4.01-1.72-.68-7.3-2.26-12.19,2.88-.51,.55-1.02,1.15-1.5,1.84-.02,.02-2.66,3.95-1.75,8.44,.59,2.96,2.61,5.57,5.97,7.75,2.64,1.71,5.51,2.77,8.29,3.82,1.41,.53,2.8,1.06,4.12,1.65,.12,.05,.21,.1,.31,.15,.06,.01,.11,.04,.17,.07,.93,.44,1.83,.91,2.68,1.46,0,0,.02,.02,.07,.04,.42,.25,2.42,1.49,4.55,3.62,0,0,.04,.04,.12,.12,.33,.31,1.3,1.19,2.96,2.34,.34,.24,.72,.5,1.14,.76,1.2,.77,2.66,1.62,4.41,2.49,0,0,0,0,.01,0,.04,0,.07,.02,.1,.03,14.64,4.39,16.83-10.98,16.83-10.98-2.2,.73-7.32,0-7.32,0Z"/>
    </g>
  </g>
</svg>