<?xml version="1.0" encoding="UTF-8"?>
<svg id="b" data-name="圖層 2" xmlns="http://www.w3.org/2000/svg" width="69.58" height="111.8" viewBox="0 0 69.58 111.8">
  <defs>
    <style>
      .d {
        fill: #302725;
      }
    </style>
  </defs>
  <g id="c" data-name="圖層 2">
    <g>
      <g>
        <path class="d" d="M47.09,20.58v.06c-.01,.08-.02,.17-.03,.26,0,.05-.01,.09-.02,.14,0,.06-.02,.11-.03,.17-.02,.13-.04,.26-.07,.39v.06c-.03,.09-.05,.17-.07,.26v.04c-.08,.26-.16,.53-.27,.78-.01,.03-.02,.05-.03,.08-.03,.07-.06,.14-.1,.21-.04,.08-.08,.15-.12,.23-.01,.02-.02,.04-.03,.06-.33-.7-1.14-2.73-1.55-3.78,.91-.05,1.7-.13,2.36-.35,.01,.36,.02,.85-.03,1.4Z"/>
        <path class="d" d="M29.59,19.52c-.42,1.05-1.22,3.08-1.56,3.78-.02-.03-.03-.06-.05-.1-.04-.07-.07-.14-.11-.2-.03-.05-.05-.1-.07-.16-.03-.06-.05-.12-.08-.18-.02-.05-.04-.1-.06-.16-.04-.1-.07-.2-.1-.3-.02-.06-.03-.12-.05-.18-.01-.05-.03-.11-.04-.16-.02-.06-.03-.13-.05-.19-.01-.05-.02-.09-.03-.14-.03-.13-.05-.26-.07-.38,0-.03,0-.06-.01-.09-.01-.08-.02-.16-.03-.24,0-.02,0-.04,0-.06-.07-.62-.07-1.19-.05-1.6,.66,.21,1.45,.3,2.36,.35Z"/>
        <path class="d" d="M54.44,6.94c.06,.25,.11,.51,.15,.77,0,.03,.01,.06,.02,.09,.12,.77,.29,1.64,.46,2.55,.07,.38,.14,.77,.22,1.16h.01s.03-.05,.05-.07c.09-.1,.18-.2,.26-.3,.03-.04,.06-.08,.09-.11,.07-.09,.14-.18,.2-.27,.03-.04,.06-.09,.09-.13,.06-.09,.12-.18,.18-.27,.03-.05,.06-.09,.08-.14,.06-.1,.11-.19,.16-.29,.02-.04,.05-.08,.07-.13,.06-.11,.11-.22,.16-.33,.02-.03,.03-.07,.05-.1,.06-.14,.12-.28,.17-.42h0c.11-.32,.2-.62,.27-.93v-.04c.04-.13,.06-.27,.08-.4,0-.03,0-.05,0-.08,.01-.12,.03-.23,.03-.35,0-.03,0-.06,0-.09,0-.11,0-.22,0-.32,0-.03,0-.06,0-.09,0-.11-.02-.21-.03-.32,0-.03,0-.05-.01-.08-.02-.11-.04-.23-.07-.33v-.04c-.04-.12-.08-.24-.13-.35-.01-.03-.03-.05-.04-.08-.07-.07-.13-.16-.18-.26h-.01c-.32-.38-.84-.62-1.42-.75h-.06c-.06-.03-.13-.04-.2-.05-.03,0-.06,0-.08-.01-.1-.02-.2-.03-.3-.04-.05,0-.09-.01-.14-.02-.05,0-.1,0-.15-.01-.08,0-.15-.01-.23-.01-.05,0-.09,0-.14,0-.06,0-.13,0-.19,0-.04,0-.08,0-.12,0-.08,0-.16,0-.24,0,.39,.78,.69,1.62,.9,2.53,.01,.04,.02,.09,.03,.13Z"/>
        <path class="d" d="M16.78,7.31s0,.09,.01,.13c.01,.1,.03,.2,.04,.3,0,.04,.01,.08,.02,.13,.02,.1,.04,.21,.07,.31,0,.04,.02,.08,.03,.12,.03,.11,.06,.22,.09,.32,.01,.04,.02,.07,.03,.11,.04,.11,.08,.23,.12,.34,.01,.03,.02,.06,.04,.09,.05,.12,.1,.24,.15,.35,0,.02,.02,.04,.03,.06,.06,.12,.12,.25,.19,.37v.02c.38,.68,.86,1.32,1.41,1.84h0c.09-.5,.18-.98,.27-1.45,.17-.91,.34-1.78,.46-2.55,.2-1.28,.57-2.45,1.09-3.49h-.04c-.07,0-.14-.01-.21-.02-.04,0-.08,0-.12,0-.05,0-.11,0-.16,0-.05,0-.09,0-.14,0-.05,0-.11,0-.16,0-.09,0-.19,0-.29,.01-.03,0-.06,0-.09,0-.07,0-.14,.01-.21,.02h-.04c-.85,.1-1.69,.35-2.15,.88h0c-.04,.1-.1,.18-.17,.26h0s-.03,.05-.04,.08c-.08,.19-.14,.39-.18,.6,0,.03-.02,.06-.02,.1-.01,.09-.02,.18-.03,.27,0,.04,0,.08-.01,.12,0,.09,0,.18,0,.28,0,.04,0,.08,0,.13,0,.09,.01,.19,.02,.29Z"/>
        <path class="d" d="M53.25,10.69c-.18-.93-.34-1.8-.47-2.6-.05-.3-.11-.59-.17-.87-.01-.06-.03-.12-.05-.17-.06-.23-.12-.45-.19-.67-.02-.06-.04-.12-.06-.18-.09-.26-.19-.52-.3-.77,0,0,0-.02-.01-.03-.1-.23-.22-.45-.34-.66-.04-.07-.08-.14-.12-.21-.09-.16-.19-.31-.3-.47-.05-.07-.09-.13-.14-.2-.14-.19-.29-.38-.44-.56-.01,.02-.03,.04-.04,.06,0,0,0,.02-.02,.02-1.09,1.21-2.19,1.5-2.91,1.52h0c-.51,.02-1.01-.08-1.45-.29-.26-.12-.5-.28-.7-.47-.16-.15-.35-.27-.55-.31-.2-.04-.42,0-.61,.19-.69,.65-1.43,.94-2.17,.88-.44-.04-.89-.21-1.32-.52-.27-.19-.51-.29-.69-.29-.06,0-.12,0-.16,.03-.12,.05-.17,.15-.17,.18-.03,.24,.13,.52,.42,.74,.59,.44,1.03,1.33-.18,3.06-.08,.12-.15,.24-.22,.35,0,.01-.01,.02-.02,.03-.06,.1-.11,.2-.15,.3-.01,.03-.03,.06-.05,.09-.05,.11-.08,.21-.12,.31,0,.02-.02,.05-.03,.07-.04,.11-.06,.22-.09,.33,0,.01,0,.03,0,.04-.02,.12-.04,.23-.04,.34h0c-.02,.35,.03,.65,.17,.88h0c.48,.12,.94,.36,1.33,.72l.04,.04c.06,.05,.11,.11,.16,.17,.02,.03,.05,.05,.07,.08,.04,.05,.08,.09,.12,.14,.03,.04,.06,.07,.09,.11,.03,.04,.06,.08,.08,.12,.03,.04,.06,.09,.09,.13,.5,.83,.46,1.51,.34,1.94-.14,.5-.48,.92-.89,1.13-.51,.25-1.03,.27-1.56,.06-.18-.07-.35-.17-.53-.29h0s-.23,.08-.35,.14c-.06,.03-.12,.05-.19,.08-.05,.02-.09,.04-.14,.06h-.03c-.11,.05-.24,.09-.37,.12h-.02v2.05h0l.04,.02s.06,.02,.09,.03c.79,.29,2.19,.72,3.77,.74h.06c.15,0,.31,0,.46,0,.44-.02,.87-.03,1.26-.04,1.99-.06,3.43-.11,4.17-.82,.27-.26,.5-.56,.73-.86,.47-.61,.99-1.29,1.85-1.52,.24-.07,.52-.1,.82-.08,.05,0,.1,0,.16,0,.11,.01,.21,.03,.31,.05,.71,.16,1.29,.63,1.59,1.29,.41,.91,.24,2-.46,3.01-.06,.09-.14,.18-.21,.26,0,.01-.02,.02-.03,.03-.07,.07-.14,.13-.21,.2-.02,.02-.04,.03-.06,.05-.07,.05-.14,.1-.21,.15-.03,.02-.05,.03-.08,.05-.07,.05-.14,.09-.22,.13-.03,.01-.05,.03-.08,.04-.08,.04-.16,.08-.24,.11-.03,.01-.05,.02-.08,.03-.09,.04-.18,.07-.28,.11-.02,0-.03,.01-.05,.02-.34,.12-.7,.21-1.05,.27-.01,0-.02,0-.03,0-.1,.02-.2,.04-.3,.05h-.07c-.09,.02-.18,.03-.26,.04-.03,0-.05,0-.07,0-.08,0-.16,.02-.24,.03h-.07c-.08,.01-.16,.02-.23,.02h-.06c-.08,0-.16,.01-.23,.02h-.06c-.05,.38-.12,.78-.23,1.17,0,.02-.01,.05-.02,.07-.03,.11-.07,.23-.1,.34-.01,.03-.02,.06-.03,.1-.03,.1-.07,.19-.11,.29-.02,.04-.03,.08-.05,.11-.04,.09-.08,.18-.12,.26-.02,.04-.04,.08-.06,.12-.05,.1-.1,.19-.16,.29-.02,.04-.05,.08-.07,.11-.05,.09-.11,.17-.17,.26l-.02,.03c-.13,.2-.4,.42-.75,.42h-.04c-.38-.02-.7-.28-.95-.78-.21-.43-.7-1.61-1.12-2.67h-.05c-.08,.03-.16,.05-.25,.07-.03,0-.05,.01-.08,.02-.09,.02-.18,.04-.27,.05-.02,0-.05,0-.07,.01-.09,.02-.19,.03-.29,.05h-.04c-.42,.07-.85,.13-1.28,.17-.05,0-.1,0-.14,.01-.06,0-.12,.01-.19,.02-.07,0-.13,.01-.19,.02h-.16c-.07,.02-.14,.02-.22,.03-.05,0-.09,0-.14,0-.08,0-.15,0-.23,.01-.04,0-.08,0-.11,0-.08,0-.16,0-.24,0-.03,0-.06,0-.1,0-.08,0-.16,0-.24,0h-.08c-.08,0-.16,0-.23,0-.02,0-.05,0-.07,0-.08,0-.15,0-.22,0h-.05c-.07,0-.14,0-.21-.01h-3.8c-.06,0-.14,0-.21,0-.15,0-.3,.01-.48,.01-.34,0-.73-.01-1.14-.04h-.06c-.17-.01-.34-.03-.52-.04-.07,0-.15-.01-.22-.02-.12-.01-.24-.02-.36-.04-.11-.01-.22-.03-.33-.04-.08-.01-.17-.02-.25-.03-.13-.02-.26-.04-.4-.06-.06,0-.11-.02-.17-.03-.15-.03-.3-.05-.44-.08l-.1-.02c-.16-.03-.32-.07-.47-.1h0c-.43,1.06-.91,2.24-1.12,2.67-.25,.5-.57,.76-.95,.77h-.05s-.08,0-.12,0h-.02s-.07-.02-.11-.03h0s-.07-.03-.1-.05h0c-.17-.08-.3-.21-.38-.34-.08-.11-.15-.23-.22-.34-.01-.02-.03-.05-.04-.07-.05-.09-.1-.18-.15-.27-.03-.06-.06-.13-.09-.19,0-.02-.02-.04-.03-.06-.06-.14-.12-.28-.17-.43h0c-.09-.24-.16-.48-.22-.72h0c-.04-.14-.06-.28-.09-.41,0-.05-.02-.09-.03-.14,0-.05-.02-.1-.03-.16-.02-.1-.03-.21-.05-.31v-.04h-.07c-.07,0-.14,0-.22-.01-.03,0-.06,0-.09,0-.06,0-.13,0-.19-.01-.04,0-.07,0-.11-.01-.06,0-.13-.01-.19-.02-.04,0-.08,0-.13-.02-.06,0-.13-.02-.19-.03-.05,0-.09-.01-.13-.02-.07-.01-.13-.02-.2-.03-.04,0-.09-.02-.13-.02-.07-.01-.15-.03-.23-.05-.04,0-.08-.02-.11-.02-.11-.03-.22-.05-.33-.09-.04-.01-.08-.02-.12-.04-.07-.02-.14-.04-.21-.07-.05-.02-.1-.04-.14-.05-.06-.02-.12-.05-.18-.07-.05-.02-.1-.04-.15-.07-.05-.03-.11-.05-.16-.08-.05-.02-.1-.05-.15-.08-.05-.03-.1-.06-.15-.09-.05-.03-.09-.06-.14-.09-.05-.03-.09-.06-.13-.1-.04-.03-.09-.07-.13-.1-.04-.04-.08-.07-.12-.11-.04-.04-.08-.07-.12-.11-.04-.04-.07-.09-.11-.14-.03-.04-.06-.07-.09-.11-.71-1-.88-2.1-.46-3.01,.34-.75,1.05-1.25,1.9-1.34,.37-.04,.7,0,.98,.07,.86,.24,1.38,.91,1.85,1.52,.23,.29,.46,.6,.73,.86,.28,.27,.65,.44,1.12,.55,.78,.19,1.81,.22,3.05,.26,.4,.01,.82,.03,1.26,.04,.16,0,.31,0,.46,0h.06c1.68-.03,3.16-.5,3.91-.79v-2.04c-.3-.07-.55-.17-.76-.27-.12-.05-.31-.13-.37-.14h0c-.43,.3-.87,.45-1.3,.43-.26-.01-.52-.08-.77-.21-.42-.21-.75-.63-.89-1.13-.12-.43-.17-1.11,.34-1.94,.06-.1,.13-.19,.19-.28h0c.07-.09,.13-.18,.21-.26h0c.44-.5,.99-.83,1.57-.97h0c.04-.07,.07-.15,.1-.23v-.03c.03-.08,.05-.17,.06-.26,0-.02,0-.04,0-.06,0-.08,0-.17,0-.26,0-.04,0-.07,0-.11,0-.08-.02-.16-.03-.24-.01-.06-.03-.11-.04-.17-.02-.07-.03-.13-.05-.2-.03-.08-.06-.17-.09-.25-.02-.05-.03-.09-.05-.14-.05-.12-.11-.25-.18-.37,0-.01,0-.02-.02-.03-.08-.14-.16-.28-.26-.41-1.21-1.73-.77-2.62-.18-3.06,.29-.22,.45-.51,.42-.75,0-.03-.06-.14-.17-.18,0,0-.02,0-.02,0-.19-.06-.49,.03-.84,.27-.58,.4-1.17,.57-1.76,.51-.59-.06-1.18-.35-1.73-.87-.14-.14-.3-.19-.45-.2-.26-.01-.52,.13-.72,.32-.53,.5-1.33,.79-2.15,.76h0c-.72-.03-1.82-.31-2.91-1.53-.02-.02-.04-.05-.06-.08h0s-.07,.09-.1,.13c-.11,.13-.21,.26-.31,.39-.07,.1-.14,.2-.2,.3-.07,.11-.15,.22-.21,.34-.06,.1-.12,.21-.18,.31-.08,.14-.15,.28-.22,.43-.06,.13-.12,.25-.18,.38-.08,.18-.15,.36-.22,.55-.04,.11-.07,.21-.11,.32-.05,.16-.1,.31-.14,.48-.03,.11-.06,.22-.08,.33-.05,.21-.09,.42-.13,.64,0,.06-.02,.11-.03,.17-.13,.8-.29,1.68-.47,2.6-.9,4.75-2.13,11.25,.7,15.21,1.21,1.69,2.79,2.73,4.31,3.29,.02,0,.04,.01,.05,.02,.13,.05,.26,.09,.39,.13,.06,.02,.12,.04,.19,.06,.07,.02,.14,.04,.22,.06,.55,.15,1.08,.23,1.56,.26,.02,0,.05,0,.07,0,.1,0,.19,0,.29,0,.03,0,.06,0,.08,0,.03,0,.06,0,.1,0,.07,0,.13,0,.2,0,.12,0,.24-.01,.35-.03h.03c1.17-.15,2.13-.42,3.05-.68,.26-.08,.53-.15,.8-.22h.03c.1-.04,.21-.06,.32-.09,.05-.01,.09-.02,.14-.04,.1-.02,.19-.05,.29-.07l.18-.04c.09-.02,.19-.04,.28-.06,.07-.01,.14-.02,.21-.04,.09-.02,.19-.03,.28-.05,.08-.01,.15-.02,.23-.03,.09-.01,.19-.02,.28-.03,.09,0,.19-.02,.28-.02,.08,0,.16-.01,.25-.02v-3.56c0-.51,.41-.92,.92-.92h0c.51,0,.92,.41,.92,.92v3.56h0c.07,0,.13,0,.19,.01,.12,0,.23,.02,.35,.03,.08,0,.16,.02,.24,.03,.09,.01,.19,.02,.28,.04,.08,.01,.16,.02,.23,.04,.09,.02,.18,.03,.27,.05,.07,.01,.15,.03,.22,.04,.09,.02,.18,.04,.26,.06,.07,.02,.14,.03,.2,.05,.09,.02,.18,.05,.28,.07,.06,.02,.12,.03,.18,.05,.11,.03,.22,.06,.33,.09l.11,.03c.15,.04,.29,.08,.44,.12,.58,.17,1.16,.33,1.81,.47,.04,0,.09,.02,.13,.03,.09,.02,.17,.04,.26,.05,.09,.02,.18,.03,.26,.05,.05,0,.1,.02,.15,.03,.08,.01,.17,.02,.25,.03,.06,0,.12,.02,.18,.02h0c.13,.02,.25,.02,.39,.03,.06,0,.12,0,.18,0,.04,0,.07,0,.1,0,.03,0,.06,0,.09,0,.09,0,.19,0,.28,0,.02,0,.05,0,.07,0,.5-.03,1.04-.12,1.61-.28,.05-.01,.1-.03,.14-.04,.08-.02,.17-.05,.25-.08,.1-.03,.21-.07,.31-.11,.04-.01,.08-.03,.13-.05,1.3-.49,2.66-1.33,3.77-2.64,.17-.2,.34-.41,.5-.63,2.82-3.96,1.59-10.46,.7-15.21Zm-6.8,4.01c-2.47,0-4.49-2.01-4.49-4.49s2.01-4.49,4.49-4.49,4.49,2.01,4.49,4.49-2.01,4.49-4.49,4.49ZM27.91,5.73c2.47,0,4.49,2.01,4.49,4.49s-2.01,4.49-4.49,4.49-4.49-2.01-4.49-4.49,2.01-4.49,4.49-4.49Z"/>
        <path class="d" d="M24.61,2.62c.65,.72,1.38,1.12,2.1,1.15,.6,.02,1.07-.21,1.31-.44,.85-.81,1.98-.86,2.76-.12,.91,.86,1.6,.56,2.03,.25,.9-.63,1.58-.56,1.98-.38,.55,.24,.8,.73,.85,1.08,.06,.43-.05,.86-.3,1.24-.14,.22-.33,.42-.57,.59-.05,.04-.08,.08-.1,.13-.12,.33,.26,.96,.53,1.34,.71,1.01,1.15,2.33,.86,3.42,.13,.03,.26,.07,.38,.12,.3,.12,.44,.46,.32,.75-.02,.05-.04,.09-.07,.12-.15,.21-.43,.29-.68,.19-.77-.31-1.67,.06-2.19,.91-.01,.02-.02,.04-.03,.05-.2,.35-.27,.69-.19,.97,.07,.25,.23,.38,.3,.42,.29,.15,.56,.1,.92-.14,.55-.38,1.09-.14,1.48,.04,.28,.12,.54,.24,.86,.23,.32,0,.58-.11,.86-.23,.39-.17,.93-.41,1.48-.04,.36,.25,.63,.29,.92,.14,.04-.02,.12-.09,.19-.19,.04-.06,.08-.14,.11-.23,.09-.3,.01-.65-.21-1.02-.52-.85-1.42-1.23-2.19-.91-.3,.12-.63-.02-.75-.32-.06-.16-.05-.32,.02-.46,.06-.13,.16-.23,.3-.29,.1-.04,.21-.08,.32-.1,.02,0,.05-.01,.07-.02-.25-.94,.05-2.05,.59-2.99,.09-.15,.18-.29,.27-.43,.06-.09,.14-.2,.21-.31,.26-.43,.5-.96,.23-1.16-.64-.48-.96-1.16-.87-1.83,.02-.13,.06-.27,.14-.42,.13-.25,.36-.51,.71-.66,.41-.18,1.08-.25,1.98,.38,.44,.31,1.12,.61,2.03-.25,.78-.74,1.91-.69,2.76,.12,.24,.23,.7,.46,1.31,.44,.72-.03,1.45-.42,2.1-1.15,.01-.01,.02-.02,.04-.03,.03-.03,.06-.05,.09-.07-1.84-1.63-4.46-2.52-7.69-2.52h-10.01c-3.23,0-5.84,.88-7.69,2.52,.01,0,.02,.01,.03,.02,.03,.02,.06,.05,.09,.08Z"/>
        <circle class="d" cx="27.91" cy="10.21" r="3.03"/>
        <path class="d" d="M46.44,7.19c-1.67,0-3.03,1.35-3.03,3.03s1.35,3.03,3.03,3.03,3.03-1.35,3.03-3.03-1.35-3.03-3.03-3.03Z"/>
      </g>
      <path class="d" d="M55.1,23.37s-1.29,12.4-17.57,6.6c0,0-2.28,4.22-1.68,8.43s-4.81,24.65-4.21,31.87c0,0-4.21-3.01-9.02,2.41-4.81,5.41,3.61,21.65,11.42,25.85,7.82,4.21,22.25,.6,24.05,0,1.8-.6,14.43-17.44,10.82-23.45-3.61-6.01-9.62-3.01-9.62-3.01,0,0,1.8-27.66,0-32.47-1.8-4.81-2.41-10.22-4.21-16.23Z"/>
      <path class="d" d="M58.71,29.38s1.2,6.61,2.41,10.22c1.2,3.61,.6,19.84,0,24.65,0,0,4.81,1.2,4.81-6.01s3.01-16.84-7.22-28.86Z"/>
      <path class="d" d="M36.24,29.97c-.33,.15-7.31,3.25-9.88,1.31,0,0,2.64,3.96,4.62,4.62,.21,.07,.37,.21,.48,.4-15.72,16.89-3.78,31.92-3.78,31.92h2.64s0-5.94,1.98-16.49c.36-1.95,2.64-11.87,1.98-15.83-.63-3.78,1.75-5.76,1.97-5.93Zm-5.59,4.61c-.55,0-.99-.44-.99-.99s.44-.99,.99-.99,.99,.44,.99,.99-.44,.99-.99,.99Zm1.98,1.98c-.55,0-.99-.44-.99-.99s.44-.99,.99-.99,.99,.44,.99,.99-.44,.99-.99,.99Z"/>
      <path class="d" d="M40.21,101.2c-1.02,4.58-4.78,5.23-8.88,4.08l-5.25-3.88h0c-4.68-3.74-10.84-6.38-14.51-7.97-1.37-.59-2.45-1.06-3.11-1.42-3.33-1.82-3.75-4.69-2.69-6.71,.57-1.13,1.63-2.06,2.9-2.53,1.27-.46,2.78-.46,4.29,.27,1.27,.61,2.49,.71,3.46,.27,.06-.02,.13-.05,.18-.08,.82-.44,1.38-1.27,1.52-2.27,.09-.67-1.22-2.5-4.02-3.61-1.55-.61-6.58-2.04-10.99,2.59-.46,.49-.92,1.04-1.35,1.66-.02,.02-2.39,3.56-1.58,7.6,.53,2.67,2.35,5.02,5.38,6.98,2.38,1.54,4.97,2.5,7.47,3.44,1.27,.47,2.52,.96,3.71,1.48,.11,.05,.19,.09,.28,.14,.05,.01,.1,.03,.15,.06,.84,.4,1.65,.82,2.41,1.31,0,0,.02,.02,.07,.04,.38,.22,2.18,1.34,4.1,3.26l.11,.11c.3,.28,1.17,1.07,2.67,2.11,.31,.22,.65,.45,1.03,.69,1.08,.69,2.4,1.46,3.98,2.24,0,0,0,0,.01,0,.03,0,.06,.02,.09,.03,13.19,3.96,15.17-9.89,15.17-9.89-1.98,.66-6.6,0-6.6,0Z"/>
    </g>
  </g>
</svg>