<?xml version="1.0" encoding="UTF-8"?>
<svg id="b" data-name="圖層 2" xmlns="http://www.w3.org/2000/svg" width="111.55" height="102.23" viewBox="0 0 111.55 102.23">
  <defs>
    <style>
      .d {
        fill: #302725;
      }
    </style>
  </defs>
  <g id="c" data-name="資訊">
    <g>
      <path class="d" d="M44.23,.06c1.82-.18,7.42-.27,9.07,5.12,.17,.56,.3,1.18,.38,1.86,0,.02,.31,3.88-2.71,7.42-1.99,2.34-5.02,4.06-9.01,5.13-3.13,.83-6.13,1.09-9.04,1.34-1.48,.13-2.94,.25-4.38,.45-.12,.02-.23,.03-.34,.05-.06,0-.12,.02-.17,.03-4.09,.62-7.97,1.91-11.59,5.6h0c-.1,.05-.19,.1-.29,.14-.23,.11-.47,.22-.71,.34-.16,.08-.32,.16-.48,.25-.21,.11-.43,.23-.65,.35-.15,.08-.3,.16-.45,.25-.34,.19-.68,.39-1.03,.59-.14,.09-.29,.18-.44,.27-.25,.15-.49,.3-.74,.46-.15,.1-.31,.19-.46,.3-.32,.2-.64,.41-.96,.63-.12,.08-.24,.16-.36,.24-.35,.24-.7,.48-1.06,.73-.14,.1-.29,.21-.44,.31-.3,.22-.61,.44-.91,.67-.13,.09-.26,.19-.38,.28-.42,.31-.84,.63-1.26,.96-.03,.02-.06,.05-.1,.08h0s0-.06,0-.09c0-.18,.01-.36,.02-.54,0-.03,0-.06,0-.09,.07-.99,.24-1.92,.51-2.82,.02-.06,.03-.12,.05-.18,.04-.12,.08-.24,.12-.36,.03-.08,.06-.16,.09-.25,.04-.1,.08-.21,.12-.31,.04-.09,.08-.19,.12-.28,.04-.09,.08-.18,.13-.28,.05-.1,.1-.21,.15-.31,.04-.08,.09-.16,.13-.25,.06-.11,.12-.22,.18-.33,.04-.07,.09-.15,.13-.22,.07-.12,.15-.24,.22-.35,.04-.06,.08-.12,.12-.18,.09-.13,.18-.26,.27-.39,.03-.05,.07-.09,.1-.14,.11-.15,.23-.3,.35-.44,.02-.02,.04-.05,.06-.08,.29-.35,.61-.69,.94-1.03,6.79-6.75,21.23-8.57,28.17-9.45,1.63-.21,2.92-.37,3.76-.54,4.18-.87,7.64-4.77,7.76-6.92,.07-1.19-.42-2.31-1.38-3.05-.96-.75-3.86,.24-5.71,.55-1.56,.26-2.77,.04-3.45-.6-.04-.04-.09-.08-.13-.12-.54-.61-.61-1.52-.18-2.48,.29-.64,2.54-2.02,5.84-2.34Z"/>
      <g>
        <path class="d" d="M96.57,82.24l-.03,.06c-.04,.08-.07,.17-.11,.25-.02,.05-.04,.09-.06,.14-.03,.06-.05,.11-.08,.17-.06,.12-.13,.25-.2,.37l-.03,.05c-.05,.08-.1,.16-.15,.24l-.02,.03c-.16,.25-.33,.49-.52,.71-.02,.02-.04,.05-.06,.07-.05,.06-.11,.12-.17,.19-.06,.07-.13,.13-.2,.19-.02,.02-.04,.04-.05,.05-.11-.82-.28-3.15-.37-4.36,.95,.25,1.77,.41,2.52,.41-.1,.38-.26,.88-.48,1.42Z"/>
        <path class="d" d="M79.05,75.51c-.76,.94-2.24,2.75-2.81,3.36,0-.04-.01-.08-.02-.11-.02-.08-.03-.16-.04-.24,0-.06-.02-.12-.02-.18,0-.07-.01-.14-.02-.21,0-.06,0-.12-.01-.18,0-.11,0-.22,0-.33,0-.07,0-.13,0-.2,0-.06,0-.12,0-.18,0-.07,0-.14,.02-.21,0-.05,.01-.1,.02-.15,.02-.14,.03-.28,.05-.41,0-.03,0-.06,.01-.09,.01-.08,.03-.17,.05-.25,0-.02,0-.04,.01-.06,.13-.66,.32-1.24,.46-1.65,.61,.43,1.38,.77,2.3,1.12Z"/>
        <path class="d" d="M108.47,70.69c-.02,.27-.05,.55-.09,.83,0,.03,0,.07-.01,.1-.12,.83-.24,1.76-.36,2.75-.05,.41-.1,.83-.15,1.26h.02s.05-.04,.07-.05c.12-.07,.25-.15,.37-.23,.04-.03,.08-.06,.13-.09,.1-.07,.2-.14,.29-.21,.05-.03,.09-.07,.14-.11,.09-.07,.18-.15,.27-.22,.04-.04,.09-.07,.13-.11,.09-.08,.18-.16,.26-.25,.04-.04,.07-.07,.11-.11,.09-.09,.18-.19,.27-.29,.03-.03,.05-.06,.08-.09,.11-.12,.21-.25,.31-.38h0c.21-.29,.4-.57,.57-.86l.02-.04c.07-.13,.14-.25,.2-.38,.01-.03,.02-.05,.04-.08,.05-.11,.1-.23,.14-.34,.01-.03,.02-.06,.03-.1,.04-.11,.07-.22,.11-.33,0-.03,.02-.06,.03-.1,.03-.11,.05-.22,.07-.33,0-.03,.01-.05,.01-.08,.02-.12,.03-.24,.03-.36,0-.01,0-.03,0-.04,0-.13,0-.27-.02-.4,0-.03-.01-.06-.02-.09-.05-.1-.08-.21-.1-.32v-.02c-.22-.48-.67-.89-1.22-1.22l-.05-.03c-.06-.04-.12-.07-.19-.1-.03-.01-.05-.03-.08-.04-.1-.05-.2-.1-.3-.14-.04-.02-.09-.04-.13-.06-.05-.02-.1-.04-.15-.06-.08-.03-.15-.06-.23-.09-.05-.02-.09-.03-.14-.05-.06-.02-.13-.04-.19-.06-.04-.01-.08-.03-.12-.04-.08-.02-.16-.05-.24-.07,.14,.92,.18,1.88,.11,2.87,0,.05,0,.09-.01,.14Z"/>
        <path class="d" d="M69.92,58.91s-.02,.09-.03,.14c-.02,.1-.04,.21-.05,.32,0,.05-.01,.09-.02,.14-.01,.11-.02,.23-.03,.34,0,.04,0,.09,0,.13,0,.12,0,.24,0,.36,0,.04,0,.08,0,.12,0,.13,0,.26,.01,.38,0,.03,0,.07,0,.1,.01,.14,.02,.27,.04,.41,0,.02,0,.05,.01,.07,.02,.15,.04,.29,.07,.44v.03c.16,.82,.44,1.62,.84,2.33h0c.25-.48,.5-.95,.75-1.4,.47-.88,.92-1.7,1.29-2.45,.62-1.24,1.37-2.31,2.24-3.21h0l-.04-.02c-.07-.03-.13-.05-.21-.08-.04-.01-.08-.03-.12-.04-.05-.02-.11-.04-.16-.06-.05-.02-.09-.03-.14-.05-.05-.02-.11-.03-.17-.05-.1-.03-.19-.06-.29-.08-.03,0-.06-.02-.1-.02-.07-.02-.15-.03-.22-.05h-.05c-.89-.19-1.84-.2-2.47,.19h0c-.08,.09-.16,.15-.25,.2h0s-.05,.04-.07,.07c-.14,.16-.27,.35-.38,.56-.02,.03-.04,.06-.05,.09-.04,.08-.08,.17-.12,.26-.02,.04-.03,.08-.05,.12-.03,.09-.07,.19-.09,.28-.01,.04-.03,.09-.04,.13-.03,.1-.05,.2-.07,.3Z"/>
        <path class="d" d="M106.04,74.14c.12-1,.23-1.95,.36-2.81,.05-.32,.08-.63,.1-.94,0-.06,0-.13,.01-.19,.01-.25,.02-.5,.02-.74,0-.07,0-.13,0-.2,0-.3-.03-.59-.06-.88,0-.01,0-.02,0-.03-.03-.27-.08-.53-.13-.79-.02-.08-.04-.17-.06-.25-.05-.19-.1-.38-.15-.57-.02-.08-.05-.16-.07-.25-.08-.24-.17-.48-.27-.71-.02,.02-.04,.03-.06,.04,0,0-.02,.01-.02,.02-1.51,.88-2.72,.82-3.47,.61h0c-.53-.15-1.01-.41-1.38-.76-.23-.21-.42-.45-.56-.71-.11-.2-.27-.39-.47-.49-.2-.11-.43-.13-.69,0-.91,.44-1.76,.5-2.49,.19-.44-.19-.84-.5-1.18-.95-.21-.27-.43-.46-.61-.52-.06-.02-.12-.03-.18-.03-.13,.01-.22,.1-.24,.13-.11,.23-.04,.58,.19,.89,.46,.64,.62,1.69-1.17,3.07-.12,.09-.23,.19-.34,.29-.01,0-.02,.02-.03,.03-.09,.08-.17,.17-.26,.26-.02,.03-.05,.05-.08,.08-.08,.09-.15,.19-.22,.28-.02,.02-.03,.04-.05,.07-.07,.1-.14,.2-.19,.31,0,.01-.02,.03-.02,.04-.06,.11-.11,.22-.15,.33h0c-.13,.35-.17,.67-.11,.95h0c.45,.27,.84,.67,1.13,1.16l.03,.05c.04,.07,.08,.15,.11,.22,.02,.03,.03,.07,.05,.1,.03,.06,.05,.12,.07,.18,.02,.05,.04,.09,.05,.14,.02,.05,.03,.1,.04,.15,.02,.05,.03,.11,.05,.16,.24,1.01-.02,1.69-.28,2.09-.31,.46-.78,.78-1.28,.86-.6,.09-1.14-.05-1.61-.44-.16-.13-.31-.28-.45-.46h0s-.26,.01-.41,.03c-.07,0-.14,.02-.22,.02-.05,0-.11,0-.16,.01h-.04c-.13,0-.27,0-.42,0h-.02l-.66,2.08h0s.02,.02,.04,.03c.03,.02,.05,.04,.08,.06,.71,.55,2.01,1.44,3.61,1.97l.06,.02c.16,.05,.31,.1,.47,.14,.46,.12,.89,.25,1.3,.36,2.05,.58,3.54,1,4.52,.51,.36-.18,.7-.41,1.02-.64,.68-.47,1.43-.99,2.38-.95,.27,.01,.56,.07,.87,.18,.05,.02,.11,.04,.16,.06,.1,.05,.21,.1,.3,.15,.67,.4,1.11,1.06,1.21,1.83,.13,1.06-.4,2.12-1.45,2.92-.1,.07-.2,.14-.3,.2-.01,0-.03,.01-.04,.02-.09,.05-.18,.09-.28,.13-.03,.01-.05,.02-.08,.03-.09,.03-.17,.06-.26,.09-.03,0-.06,.02-.1,.03-.09,.02-.17,.04-.26,.06-.03,0-.07,.01-.1,.02-.09,.02-.19,.03-.28,.04-.03,0-.06,0-.09,0-.1,0-.21,.02-.32,.02-.02,0-.04,0-.06,0-.39,.01-.78-.01-1.16-.06-.01,0-.02,0-.04,0-.11-.01-.22-.03-.33-.05h-.07c-.09-.03-.19-.04-.28-.06-.03,0-.05,0-.08-.02-.09-.02-.17-.04-.26-.05l-.07-.02c-.08-.02-.17-.04-.24-.06h-.06c-.08-.04-.16-.06-.24-.08h-.03l-.03-.02h0c-.17,.37-.38,.75-.61,1.12-.01,.02-.03,.05-.04,.07-.07,.11-.14,.21-.21,.31-.02,.03-.04,.06-.06,.09-.07,.09-.13,.17-.2,.26-.03,.03-.06,.07-.08,.1-.07,.08-.14,.15-.21,.23-.03,.03-.06,.07-.1,.1-.08,.08-.17,.16-.25,.24-.04,.03-.07,.06-.11,.09-.08,.07-.17,.14-.26,.21l-.03,.03c-.2,.16-.54,.3-.9,.19h-.04c-.38-.15-.62-.52-.72-1.11-.08-.51-.19-1.86-.29-3.08h-.05c-.09-.01-.18-.02-.27-.03-.03,0-.06,0-.09,0-.1,0-.19-.02-.29-.03-.02,0-.05,0-.08-.01-.1-.01-.21-.03-.31-.04h-.04c-.45-.07-.91-.15-1.36-.25-.05-.01-.1-.02-.15-.03-.07-.01-.13-.03-.2-.04-.07-.02-.14-.03-.2-.05l-.16-.04c-.08-.02-.15-.04-.22-.05-.05-.01-.1-.02-.14-.04-.08-.02-.16-.04-.24-.06-.04-.01-.08-.02-.12-.03-.08-.02-.16-.05-.24-.07-.03,0-.07-.02-.1-.03-.08-.02-.16-.05-.24-.07l-.08-.03c-.08-.02-.16-.05-.23-.07-.02,0-.05-.02-.07-.02-.08-.03-.15-.05-.22-.08l-.05-.02c-.07-.03-.14-.05-.21-.08h-.03l-3.84-1.23h0c-.07-.02-.14-.04-.22-.06-.15-.04-.31-.09-.49-.14-.35-.11-.74-.25-1.16-.41l-.06-.02c-.17-.07-.34-.14-.52-.21-.07-.03-.15-.06-.22-.09-.12-.05-.24-.1-.36-.15-.11-.05-.22-.1-.32-.15-.08-.04-.16-.08-.25-.12-.13-.06-.26-.12-.39-.19-.06-.03-.11-.06-.17-.08-.14-.07-.29-.15-.42-.22l-.09-.05c-.15-.08-.3-.17-.44-.25h0c-.78,.94-1.65,1.99-2.01,2.36-.41,.43-.82,.59-1.22,.48h-.05s-.08-.04-.12-.06h-.01s-.07-.05-.1-.07h0s-.06-.06-.09-.08h0c-.14-.14-.24-.32-.28-.47-.05-.14-.08-.28-.12-.42,0-.03-.02-.06-.02-.09-.02-.11-.04-.21-.06-.32-.01-.07-.02-.15-.03-.23,0-.02,0-.05,0-.07-.02-.16-.03-.33-.04-.49h0c-.01-.27,0-.54,0-.81h0c0-.15,.02-.3,.04-.45,0-.05,.01-.1,.02-.15,0-.06,.01-.11,.02-.17,.02-.11,.03-.22,.05-.33v-.04h-.02l-.04-.02c-.07-.03-.14-.05-.22-.08-.03-.01-.06-.02-.09-.03-.06-.02-.13-.05-.19-.08-.04-.02-.07-.03-.11-.05-.06-.03-.12-.05-.19-.08-.04-.02-.08-.04-.13-.06-.06-.03-.13-.06-.19-.09-.04-.02-.09-.04-.13-.06-.06-.03-.13-.07-.2-.1-.04-.02-.08-.04-.13-.07-.07-.04-.14-.08-.21-.12-.04-.02-.07-.04-.11-.06-.1-.06-.21-.13-.31-.19-.04-.02-.07-.05-.11-.08-.06-.04-.13-.09-.19-.14-.04-.03-.09-.07-.13-.1-.05-.04-.11-.08-.16-.13-.04-.04-.09-.08-.13-.12-.05-.04-.09-.09-.14-.13-.04-.04-.08-.08-.12-.13-.04-.04-.08-.09-.12-.14-.04-.04-.08-.09-.11-.14-.04-.05-.07-.09-.1-.14-.03-.05-.07-.1-.1-.15-.03-.05-.06-.1-.09-.15-.03-.05-.06-.1-.08-.15-.03-.06-.05-.12-.07-.17-.02-.05-.04-.09-.06-.14-.4-1.25-.22-2.43,.5-3.22,.59-.66,1.48-.94,2.37-.75,.39,.08,.71,.22,.98,.39,.8,.52,1.11,1.37,1.4,2.15,.14,.37,.28,.76,.47,1.11,.2,.36,.52,.66,.96,.93,.73,.45,1.77,.81,3.03,1.25,.4,.14,.83,.29,1.28,.45,.16,.06,.31,.11,.47,.16l.06,.02c1.72,.52,3.38,.51,4.24,.46l.66-2.09c-.28-.16-.51-.36-.69-.52-.11-.1-.28-.24-.33-.26h0c-.54,.17-1.03,.17-1.47,.02-.26-.09-.5-.25-.72-.46-.36-.35-.56-.88-.55-1.44,.01-.48,.19-1.19,.97-1.87,.09-.08,.19-.16,.29-.23h0c.1-.07,.19-.14,.29-.19h.01c.61-.36,1.27-.52,1.91-.48h0c.06-.06,.12-.13,.18-.21l.02-.03c.05-.08,.09-.16,.13-.24,0-.02,.02-.04,.02-.06,.03-.08,.06-.17,.09-.26,0-.04,.02-.07,.03-.11,.02-.08,.03-.17,.04-.25,0-.06,.01-.12,.02-.19,0-.07,.01-.14,.01-.22,0-.09,0-.19-.01-.29,0-.05,0-.1,0-.16-.01-.14-.04-.29-.07-.43,0-.01,0-.03,0-.04-.03-.17-.08-.34-.13-.51-.68-2.16,.06-2.92,.81-3.18,.37-.13,.63-.37,.67-.63,0-.03-.02-.16-.12-.24,0,0-.02,0-.02-.01-.18-.13-.51-.13-.94,0-.72,.23-1.38,.21-1.97-.05-.58-.25-1.09-.74-1.48-1.45-.1-.18-.24-.29-.39-.35-.26-.1-.58-.03-.84,.1-.7,.34-1.61,.38-2.43,.08h0c-.73-.26-1.76-.91-2.48-2.5-.01-.03-.02-.06-.03-.1h0c-.05,.03-.1,.07-.15,.1-.15,.1-.3,.2-.44,.3-.1,.08-.2,.16-.31,.24-.11,.09-.22,.18-.33,.27-.1,.09-.19,.17-.29,.26-.12,.12-.24,.24-.36,.37-.1,.11-.2,.22-.3,.34-.14,.16-.27,.32-.4,.49-.07,.1-.14,.2-.21,.29-.1,.14-.2,.29-.29,.44-.06,.1-.13,.2-.19,.31-.12,.2-.23,.4-.34,.61-.03,.05-.06,.1-.09,.16-.39,.78-.84,1.62-1.32,2.51-2.45,4.56-5.8,10.79-4.2,15.75,.68,2.11,1.97,3.68,3.34,4.75,.02,.01,.03,.03,.05,.04,.12,.09,.23,.18,.35,.26,.06,.04,.11,.08,.17,.12,.07,.04,.13,.09,.2,.13,.51,.33,1.02,.58,1.5,.77,.02,0,.05,.02,.07,.03,.1,.04,.2,.07,.29,.1,.03,0,.06,.02,.08,.03,.03,.01,.07,.02,.1,.03,.07,.02,.14,.04,.2,.06,.12,.03,.25,.06,.37,.08h.03c1.24,.24,2.3,.27,3.33,.3,.29,0,.59,.02,.89,.03h.03c.12,0,.23,.01,.35,.02,.05,0,.1,0,.16,0,.1,0,.21,.02,.32,.02l.2,.02c.1,0,.2,.02,.31,.03,.07,0,.15,.02,.22,.03,.1,.01,.2,.03,.3,.04,.08,.01,.16,.03,.25,.04,.1,.02,.2,.03,.3,.06,.1,.02,.2,.05,.3,.07,.09,.02,.17,.04,.26,.06l1.15-3.64c.16-.52,.72-.81,1.24-.64h0c.52,.17,.81,.72,.64,1.24l-1.15,3.64h0c.07,.03,.13,.05,.19,.08,.12,.05,.23,.09,.34,.14,.08,.03,.15,.07,.23,.11,.09,.04,.19,.09,.28,.13,.08,.04,.15,.08,.22,.11,.09,.04,.17,.09,.26,.13,.07,.04,.14,.08,.21,.12,.08,.05,.17,.1,.25,.14,.06,.04,.13,.08,.19,.11,.09,.05,.17,.11,.26,.16,.06,.03,.11,.07,.16,.1,.1,.07,.21,.13,.31,.2l.1,.07c.14,.09,.27,.18,.4,.27,.53,.35,1.08,.72,1.7,1.07,.04,.02,.08,.05,.12,.07,.08,.05,.17,.09,.25,.14,.08,.04,.17,.09,.26,.13,.05,.02,.09,.05,.14,.07,.08,.04,.16,.08,.24,.12,.06,.03,.11,.06,.18,.08h0c.12,.06,.25,.11,.38,.16,.06,.02,.12,.04,.19,.06,.04,.01,.07,.03,.11,.04,.03,0,.06,.02,.09,.03,.1,.03,.19,.06,.29,.08,.02,0,.05,.01,.07,.02,.52,.13,1.1,.21,1.73,.24,.05,0,.11,0,.16,0,.09,0,.19,0,.28,0,.12,0,.23,0,.35,0,.05,0,.1,0,.14,0,1.49-.08,3.14-.5,4.7-1.48,.24-.15,.48-.31,.71-.49,4.16-3.13,5-10.16,5.62-15.3Zm-8.24,1.9c-2.53-.8-3.93-3.5-3.13-6.03,.8-2.52,3.5-3.93,6.03-3.13,2.53,.8,3.93,3.5,3.13,6.03-.8,2.53-3.5,3.93-6.03,3.13Zm-16.02-15.14c2.53,.8,3.93,3.5,3.13,6.03-.8,2.53-3.5,3.93-6.03,3.13-2.52-.8-3.93-3.5-3.13-6.03,.8-2.52,3.5-3.93,6.03-3.13Z"/>
        <path class="d" d="M79.42,56.65c.43,.95,1.05,1.59,1.77,1.85,.61,.21,1.16,.13,1.47-.03,1.13-.55,2.3-.24,2.86,.76,.65,1.18,1.45,1.09,1.99,.91,1.13-.35,1.79-.06,2.15,.26,.48,.42,.58,1,.52,1.37-.08,.45-.33,.86-.71,1.17-.22,.18-.48,.32-.77,.42-.06,.02-.11,.06-.14,.11-.23,.3-.04,1.07,.11,1.54,.39,1.26,.42,2.75-.22,3.77,.12,.07,.24,.15,.35,.25,.26,.22,.3,.61,.08,.87-.03,.04-.07,.07-.11,.1-.22,.16-.53,.16-.76-.02-.69-.57-1.73-.48-2.53,.23-.02,.01-.03,.03-.05,.05-.32,.3-.5,.62-.5,.93,0,.27,.11,.46,.17,.52,.25,.24,.54,.29,.98,.15,.68-.21,1.15,.21,1.5,.52,.24,.22,.47,.42,.81,.51,.33,.11,.63,.08,.95,.04,.46-.05,1.08-.12,1.52,.44,.29,.37,.55,.5,.89,.44,.05,0,.15-.05,.25-.13,.06-.05,.13-.11,.19-.2,.18-.27,.22-.66,.11-1.11-.25-1.04-1.05-1.71-1.94-1.64-.34,.03-.64-.23-.67-.57-.01-.18,.05-.35,.17-.47,.1-.11,.24-.18,.4-.2,.12,0,.24,0,.36,0,.03,0,.05,0,.08,0,.05-1.04,.72-2.08,1.57-2.86,.13-.12,.27-.24,.42-.35,.1-.07,.2-.16,.31-.25,.41-.35,.82-.82,.61-1.11-.5-.7-.61-1.5-.3-2.15,.06-.12,.15-.26,.28-.38,.22-.22,.53-.4,.94-.44,.47-.05,1.19,.09,1.9,1.03,.35,.45,.95,.99,2.16,.4,1.03-.5,2.17-.08,2.78,1.02,.17,.31,.57,.69,1.19,.87,.74,.21,1.61,.04,2.51-.49,.02,0,.03-.01,.05-.02,.04-.02,.07-.03,.11-.04-1.35-2.26-3.73-4.01-7.03-5.05l-10.22-3.23c-3.3-1.04-6.25-.98-8.66,.09,0,.01,.02,.02,.03,.03,.02,.03,.05,.07,.07,.11Z"/>
        <path class="d" d="M79.36,68.56c1.71,.54,3.53-.41,4.07-2.11,.54-1.71-.41-3.53-2.11-4.07-1.71-.54-3.53,.41-4.07,2.11-.54,1.71,.41,3.53,2.11,4.07Z"/>
        <path class="d" d="M100.23,68.36c-1.71-.54-3.53,.41-4.06,2.11-.54,1.71,.41,3.53,2.11,4.07,1.71,.54,3.53-.41,4.07-2.11,.54-1.71-.41-3.53-2.11-4.07Z"/>
      </g>
      <path class="d" d="M42.74,68.46c3.31-6.74,15.21-4.5,18.41-.01,3.2,4.49,4.12,10.94,4.34,17.32,.22,6.39,5.91,6.11,9.97,8.55,0,0-4.93-.38-7.42,4.39-2.36,4.51-9.75-2.16-11.7-4.43-1.95-2.27,1.13-5.58-2.12-9.37-3.25-3.79-14.84-9.63-11.49-16.45Z"/>
      <path class="d" d="M2.89,45.84c7.27-5.83,19.74,1.47,20.7,8.12,1.09,7.61-.82,16.52-6.61,22.94-5.36,5.95,2.74,9.88,5.63,14.69,0,0-4.95-2.95-10.25,1.1-5.01,3.84-9-7.43-9.76-10.97-.76-3.55,4.33-5.66,3.06-11.57-1.27-5.91-10.13-18.4-2.77-24.31Z"/>
      <path class="d" d="M68.54,101.59s1.13-5.58,3.95-5.36c2.82,.21,4.61,4.6,4.5,6.01l-8.45-.64Z"/>
      <path class="d" d="M74.65,95.68s3.03-2.6,5.63,.43c2.6,3.03,1.68,5.79,1.68,5.79l-4.22-.32s.92-2.76-3.09-5.9Z"/>
      <path class="d" d="M81.04,95.46s4.93,.38,5.26,5.36l-2.82-.21s.16-2.11-2.44-5.14Z"/>
      <path class="d" d="M10,98.54s1.13-5.58,3.95-5.36c2.82,.21,4.61,4.6,4.5,6.01l-8.45-.64Z"/>
      <path class="d" d="M16.12,92.63s3.03-2.6,5.63,.43c2.6,3.03,1.68,5.79,1.68,5.79l-4.22-.32s.92-2.76-3.09-5.9Z"/>
      <path class="d" d="M22.51,92.41s4.93,.38,5.26,5.36l-2.82-.21s.16-2.11-2.44-5.14Z"/>
      <path class="d" d="M38.95,85.03c-1.79-.07-4.03,.37-6.34,2.13-5.02,3.84-9-7.43-9.76-10.98-.74-3.46,4.08-5.54,3.15-11.12,3.17,4.36,7.19,13.82,9.99,17.76,.66,.94,1.71,1.65,2.96,2.21Z"/>
      <path class="d" d="M30.25,93s1.13-5.58,3.95-5.36c2.82,.21,4.61,4.6,4.5,6.01l-8.45-.64Z"/>
      <path class="d" d="M36.37,87.09s3.03-2.6,5.63,.43c2.6,3.03,1.68,5.79,1.68,5.79l-4.22-.32s.92-2.76-3.09-5.9Z"/>
      <path class="d" d="M42.76,86.87s4.93,.38,5.26,5.36l-2.82-.21s.16-2.11-2.44-5.14Z"/>
      <path class="d" d="M92.04,99.84s1.13-5.58,3.95-5.36c2.82,.21,4.61,4.6,4.5,6.01l-8.45-.64Z"/>
      <path class="d" d="M98.15,93.93s3.03-2.6,5.63,.43c2.6,3.03,1.68,5.79,1.68,5.79l-4.22-.32s.92-2.76-3.09-5.9Z"/>
      <path class="d" d="M104.54,93.71s4.93,.38,5.26,5.36l-2.82-.21s.16-2.11-2.44-5.14Z"/>
      <path class="d" d="M65.96,51.83c-4.87-1.08-10.34-3.62-14.84-9.63-4.5-6.01-13.76-14.5-25.73-15.42C13.43,25.87-.37,39.68,1.31,45.48c8.98-6.39,17.81-1.47,22.42,3.13,4.61,4.6-.21,12.02,3.1,15.1,3.3,3.08,8.08,14.78,11.27,19.27,3.2,4.49,15.27,4,15.27,4,.11-1.41-3.25-3.79-6.61-6.17-3.36-2.38-7.31-6.22-6.99-10.45,.32-4.22,4.27-9.59,14.07-8.13,9.49,1.41,12.29,12.27,12.46,12.95-.25-5.67,2.87-9.66,2.87-9.66,0,0-3.09-5.9-.71-9.26,2.38-3.36,7.85-.82,7.85-.82,.81-1.35-5.47-2.54-10.34-3.62Zm-16.96,31.98c.58,.04,1.02,.55,.98,1.14-.04,.58-.55,1.02-1.14,.98-.58-.04-1.02-.55-.98-1.14,.04-.58,.55-1.02,1.14-.98Zm-4.17-1.03c.58,.04,1.02,.55,.98,1.14-.04,.58-.55,1.02-1.14,.98-.58-.04-1.02-.55-.98-1.14,.04-.58,.55-1.02,1.14-.98Zm-3.41-1.68c.58,.04,1.02,.55,.98,1.14-.04,.58-.55,1.02-1.14,.98-.58-.04-1.02-.55-.98-1.14,.04-.58,.55-1.02,1.14-.98Zm-1.63-1.89c-.04,.58-.55,1.02-1.14,.98-.58-.04-1.02-.55-.98-1.14,.04-.58,.55-1.02,1.14-.98,.58,.04,1.02,.55,.98,1.14Z"/>
    </g>
  </g>
</svg>