<?xml version="1.0" encoding="UTF-8"?>
<svg id="b" data-name="圖層 2" xmlns="http://www.w3.org/2000/svg" width="294.62" height="78.4" viewBox="0 0 294.62 78.4">
  <defs>
    <style>
      .d {
        fill: #fff;
        stroke: #e8b356;
        stroke-miterlimit: 10;
      }

      .e {
        fill: #498442;
      }

      .f {
        fill: #231815;
      }
    </style>
  </defs>
  <g id="c" data-name="圖層 2">
    <g>
      <path class="d" d="M290.31,77.9H.5V11.46c3.99,0,7.23-3.24,7.23-7.23H283.08c0,3.99,3.24,7.23,7.23,7.23V77.9Z"/>
      <path class="d" d="M294.12,74.17H4.31V7.73c3.99,0,7.23-3.24,7.23-7.23H286.89c0,3.99,3.24,7.23,7.23,7.23V74.17Z"/>
      <g>
        <path class="f" d="M45.61,30.69c2.07,1.99,4.74,4.83,5.9,6.77l-2.27,1.69c-.29-.51-.7-1.11-1.17-1.76-11.92,.6-13.51,.65-14.7,1.06-.13-.55-.56-1.92-.88-2.63,.58-.16,1.12-.6,1.86-1.34,.79-.72,3.23-3.51,4.76-6.28l2.69,1.18c-1.41,2.15-3.19,4.21-4.89,5.89l9.2-.3c-.88-1.02-1.77-1.99-2.6-2.84l2.09-1.43Zm-11.49,9.29h15.13v10.12h-2.87v-1.16h-9.52v1.18h-2.74v-10.14Zm2.74,2.63v3.7h9.52v-3.7h-9.52Z"/>
        <path class="f" d="M77.42,32.56v11.53h-2.81v-1.16h-5.07v7.21h-2.83v-7.21h-5.05v1.27h-2.69v-11.64h7.74v-4h2.83v4h7.88Zm-10.71,7.67v-4.97h-5.05v4.97h5.05Zm7.9,0v-4.97h-5.07v4.97h5.07Z"/>
        <path class="f" d="M91.27,40.71c-.72,.23-1.44,.46-2.16,.67v5.84c0,1.27-.2,1.96-.88,2.4-.7,.44-1.64,.53-3.12,.51-.07-.67-.36-1.8-.65-2.54,.79,.05,1.57,.05,1.84,.02,.27,0,.38-.09,.38-.39v-5.11c-.74,.23-1.48,.44-2.13,.62l-.58-2.63c.76-.16,1.71-.42,2.72-.67v-4h-2.36v-2.52h2.36v-4.34h2.42v4.34h2.04v2.52h-2.04v3.33l1.82-.53,.34,2.47Zm7.83,6.77c.61,.07,1.23,.09,1.89,.09,.7,0,3.37,0,4.29-.05-.34,.58-.65,1.69-.74,2.36h-3.73c-3.1,0-5.52-.55-7.23-2.73-.52,1.22-1.17,2.26-1.98,3.07-.4-.42-1.46-1.16-2.02-1.5,1.62-1.46,2.42-3.83,2.76-6.54l2.42,.32c-.11,.74-.22,1.46-.4,2.15,.58,1.04,1.35,1.71,2.27,2.15v-4.94h-4.2v-2.03h4.2v-1.18h-5.5v-2.12h5.5v-1.06h-4.2v-2.06h4.2v-.97h-5.14v-2.15h5.14v-1.73h2.47v1.73h5.63v2.15h-5.63v.97h4.76v3.12h1.39v2.12h-1.39v3.21h-4.76v1.34h4.92v2.15h-4.92v2.13Zm0-10.95h2.29v-1.06h-2.29v1.06Zm0,3.3h2.29v-1.18h-2.29v1.18Z"/>
        <path class="f" d="M116.88,39.72c-.34,1.89-.88,3.95-1.59,5.68,.34,.23,.76,.53,1.32,.88,1.53,.95,3.64,1.09,6.26,1.09s6.6-.23,9.09-.6c-.31,.74-.76,2.08-.79,2.82-1.84,.12-5.81,.28-8.44,.28-2.99,0-4.87-.25-6.49-1.22-.94-.53-1.73-1.29-2.2-1.29-.52,0-1.32,1.57-1.86,2.89l-1.79-2.61c.81-.99,1.66-1.78,2.42-2.24,.54-1.16,.96-2.61,1.26-3.97h-2.85c.54-1.36,1.14-3.21,1.66-5.01h-2.07v-2.45h5.32c-.47,1.64-1.06,3.49-1.57,5.08h.36l.38-.07,1.57,.76Zm-3.66-6.42c-.25-1.06-.85-2.75-1.23-4l2.36-.74c.43,1.25,1.01,2.8,1.3,3.83l-2.42,.9Zm5.43,.58h-1.89v-4.6h14.3v4.6h-2.33v.85h-3.46v.83h4.67v6.77h-4.67v.83h5.77v1.99h-5.77v1.53h-2.6v-1.53h-5.7v-1.99h5.7v-.83h-4.65v-6.77h4.65v-.83h-4.02v-.85Zm.56-2.59v1.52h3.46v-.9h2.6v.9h3.23v-1.52h-9.29Zm1.08,6.88h2.38v-.92h-2.38v.92Zm2.38,2.5v-.92h-2.38v.92h2.38Zm2.6-3.42v.92h2.29v-.92h-2.29Zm2.29,2.5h-2.29v.92h2.29v-.92Z"/>
        <path class="e" d="M139.83,44.15c-.2,1.85-.58,4.04-.88,5.41-.49-.25-1.46-.46-1.95-.58,.36-1.39,.65-3.46,.83-5.24l2,.42Zm3.95-1.34c-.07-.28-.16-.62-.25-.99-4.29,.72-5.09,.92-5.59,1.18-.11-.46-.49-1.64-.76-2.31,.54-.14,1.03-.65,1.73-1.55,.29-.32,.81-1.02,1.41-1.96-1.71,.23-2.2,.35-2.54,.51-.13-.51-.52-1.66-.76-2.33,.38-.12,.74-.53,1.17-1.22,.43-.65,1.73-3.14,2.42-5.54l2.36,.95c-.74,1.89-1.75,3.86-2.81,5.47l1.53-.12c.58-.99,1.15-2.1,1.62-3.19l2.11,1.34c-1.3,2.45-2.94,5.01-4.65,7.12l2.18-.3c-.18-.62-.38-1.22-.58-1.73l1.66-.58c.58,1.46,1.23,3.4,1.53,4.57l-1.77,.69Zm-1.77,.76c.29,1.52,.54,3.46,.63,4.8l-1.93,.51c-.04-1.34-.27-3.33-.52-4.85l1.82-.46Zm14.95,4.55c-.94-.83-2.65-2.01-4.24-3.1v2.52c0,1.15-.18,1.78-.92,2.17-.67,.37-1.64,.44-2.92,.42-.07-.67-.4-1.66-.72-2.33,.74,.02,1.53,.02,1.75,.02,.27,0,.34-.07,.34-.3v-2.31c-1.35,.99-2.69,1.94-3.86,2.75l-1.17-1.82c.11,.39,.2,.76,.27,1.08l-1.8,.69c-.2-1.2-.74-3.05-1.21-4.44l1.71-.6c.34,.9,.67,1.92,.92,2.89,1.32-.72,3.23-1.87,5.14-3.07v-3.33h-5.27v-2.4h7.52l.22-1.04h-6.62c.61-1.92,1.37-4.99,1.84-7.37l2.47,.25c-.11,.51-.25,1.09-.38,1.66h3.93l.4-.09,1.82,.25c-.27,1.99-.74,4.32-1.17,6.33h3.12v2.4h-5.41v3.1l.52,.28c.74-.92,1.64-2.22,2.13-3.17l2.13,1.25c-.9,1.06-1.79,2.15-2.6,2.98,1.32,.86,2.65,1.69,3.43,2.33l-1.37,1.99Zm-8.93-4.41c-.54-.72-1.66-1.85-2.56-2.63l1.39-1.41c.9,.72,2.09,1.73,2.63,2.43l-1.46,1.62Zm5.12-9.87l.25-1.29h-3.86c-.11,.46-.22,.88-.34,1.29h3.95Z"/>
        <path class="e" d="M169.91,42.95c-.04-.3-.09-.65-.16-1.02-4.06,.6-4.8,.83-5.3,1.06-.13-.51-.56-1.78-.88-2.47,.61-.16,1.1-.67,1.82-1.52,.25-.32,.76-.95,1.35-1.83-1.64,.21-2.13,.35-2.47,.51-.13-.51-.54-1.71-.83-2.38,.45-.12,.81-.55,1.26-1.22,.45-.65,1.77-3.17,2.49-5.59l2.42,1.04c-.76,1.85-1.82,3.81-2.9,5.43l1.5-.12c.58-.97,1.15-2.03,1.59-3.07l2.27,1.43c-.85,1.62-1.86,3.23-2.99,4.76l1.66-.49c.52,1.55,1.03,3.58,1.19,4.81l-2.04,.67Zm-3.37,1.11c-.18,2.12-.54,4.39-1.01,5.84-.43-.23-1.44-.55-1.97-.72,.54-1.39,.81-3.51,.94-5.45l2.04,.32Zm2.22-.37c.25,1.55,.45,3.53,.49,4.9l-1.98,.35c0-1.32-.18-3.35-.38-4.9l1.86-.35Zm.54-3.86c-.11-.55-.27-1.11-.4-1.59-.47,.62-.97,1.25-1.46,1.83l1.86-.23Zm1.57,3.19c.36,1.02,.74,2.31,.92,3.19l-1.82,.62c-.13-.85-.52-2.24-.85-3.23l1.75-.58Zm6.26-1.71c-.74,3.58-2.4,6.24-4.74,7.72-.31-.55-1.01-1.46-1.5-1.92,1.39-.79,2.58-2.33,3.28-4.07h-2.02v-2.22h2.98l.4-.07,1.59,.55Zm7.32,.16c-1.03,.83-2.04,1.73-2.96,2.43,.88,1.34,1.98,2.5,3.28,3.19-.56,.51-1.37,1.5-1.75,2.2-1.3-.92-2.38-2.26-3.23-3.86v1.99c0,1.22-.2,1.89-.99,2.33-.74,.39-1.8,.44-3.23,.44-.09-.74-.4-1.8-.72-2.52,.83,.05,1.75,.05,2.02,.02,.29,0,.38-.07,.38-.32v-7.95h-4.29v-8.41h3.19c.29-.83,.56-1.73,.72-2.45l3.05,.55c-.34,.67-.7,1.29-1.01,1.89h4.8v8.41h-3.93v.74c.2,.65,.43,1.27,.67,1.85,.74-.72,1.5-1.57,2-2.24l2,1.71Zm-9.02-7.25h5.7v-1.16h-5.7v1.16Zm0,3.14h5.7v-1.22h-5.7v1.22Z"/>
        <path class="f" d="M199.02,43.48l.27,2.54c-2.9,.74-5.99,1.48-8.35,2.03l-.58-2.73c1.26-.21,2.87-.55,4.65-.92,.52-2.36,1.03-6.01,1.26-8.64l2.45,.42c-.43,2.52-.99,5.52-1.55,7.72l1.86-.42Zm-4.04-10.88h4.53v2.52h-8.98v-2.52h3.79c-.25-.95-.79-2.26-1.28-3.26l2.27-.67c.63,1.02,1.21,2.4,1.48,3.3l-1.82,.62Zm-1.66,3.35c.47,2.43,.88,5.5,1.01,7.6l-2.18,.46c-.07-2.08-.47-5.27-.88-7.69l2.04-.37Zm12.55-.53v3.97h4.44v10.65h-2.74v-1.02h-5.32v1.11h-2.6v-10.74h3.48v-10.83h2.74v4.25h5.21v2.61h-5.21Zm1.71,6.54h-5.32v4.5h5.32v-4.5Z"/>
        <path class="f" d="M227.24,39.56s-.02,.67-.02,.99c-.22,5.57-.45,7.79-1.08,8.57-.45,.55-.96,.76-1.68,.86-.61,.09-1.64,.12-2.72,.07-.02-.72-.29-1.71-.67-2.38,.9,.12,1.8,.12,2.2,.12,.34,0,.54-.05,.74-.3,.34-.39,.54-1.87,.7-5.52h-2.49c-.52,3.17-1.57,6.12-3.95,8.2-.38-.69-1.14-1.55-1.77-2.01,2.94-2.5,3.39-6.65,3.57-10.49h-2.24v-8.04h9.22v8.04h-4.38c-.04,.62-.09,1.27-.13,1.89h4.71Zm-7-4.34h4.22v-3.17h-4.22v3.17Zm11.09,9.15h-2.6v-13.01h2.6v13.01Zm5.32-15.34v17.79c0,1.62-.31,2.38-1.24,2.82-.92,.44-2.42,.53-4.47,.53-.11-.81-.52-2.08-.92-2.84,1.46,.05,2.9,.05,3.37,.05,.43,0,.61-.14,.61-.55V29.02h2.65Z"/>
        <path class="f" d="M263.24,29.32v20.79h-2.6v-.81h-14.14v.81h-2.47V29.32h19.21Zm-2.6,17.74v-15.48h-14.14v15.48h14.14Zm-.67-10.37v1.5h-12.7v-1.5h5.12v-.69h-3.3v-3.67h8.96v3.67h-3.41v.69h5.34Zm-11.67,2.17h10.53v7.44h-10.53v-7.44Zm2.04,5.91h6.33v-4.41h-6.33v4.41Zm.85-10.14h4.6v-.92h-4.6v.92Zm.07,6.4h4.56v3.07h-4.56v-3.07Zm1.41,1.92h1.62v-.74h-1.62v.74Z"/>
      </g>
    </g>
  </g>
</svg>