<?xml version="1.0" encoding="UTF-8"?>
<svg id="b" data-name="圖層 2" xmlns="http://www.w3.org/2000/svg" width="63.63" height="63.63" viewBox="0 0 63.63 63.63">
  <g id="c" data-name="圖層 3">
    <g>
      <circle cx="31.81" cy="31.81" r="28.44" transform="translate(-.27 .27) rotate(-.49)" style="fill: #fff; stroke: #da4e36; stroke-miterlimit: 10; stroke-width: 1.04px;"/>
      <path d="M47.26,30.79c-.17-.51-.42-1.05-.67-1.64-3.29,.21-5.4,.38-6.79,.55,3.58,2.11,7.97,3.88,12.44,4.85-1.1,.93-2.45,2.7-3.16,3.88-6.71-1.94-13.07-5.48-17.63-9.95-2.61,2.95-5.86,5.36-9.57,7.25,3.84-1.01,8.27-2.66,10.75-4.34l3.5,1.81c-3.5,2.53-8.86,4.68-13.24,5.9-.59-.8-1.43-1.9-2.36-2.74-1.86,.89-3.8,1.64-5.82,2.32-.51-1.01-1.81-2.99-2.7-3.96,4.43-1.18,8.52-2.95,11.81-5.27-6.12,.42-7.34,.63-8.18,.97-.3-.93-1.05-2.83-1.6-3.92,.51-.13,1.1-.55,1.56-1.1,.42-.55,1.81-2.36,2.53-4.34l.13,.04c-.25-.93-.89-2.7-1.31-3.75,.84-.17,1.73-.51,2.78-1.05,1.18-.55,4.72-2.36,7.25-4.55l4.39,2.15c-1.52,1.05-3.25,2.15-5.02,3.08l11.01-.25c-1.05-.89-2.11-1.73-3.12-2.4l3.8-1.77c2.91,2.11,6.75,5.19,8.65,7.34l-4.01,1.94c-.42-.46-.93-1.05-1.52-1.69-17.63,.63-20.75,.67-22.52,1.14l3.92,1.56c-.63,1.1-1.52,2.24-2.45,3.29l3.04-.13c-.29-.63-.59-1.22-.93-1.73l3.58-1.01c.51,.97,1.1,2.07,1.6,3.12,1.14-1.18,2.11-2.45,2.83-3.88l4.6,1.31c-.25,.46-.55,.89-.76,1.31,.34,.42,.76,.84,1.18,1.27v-.04c.46-.13,1.01-.51,1.43-1.1,.34-.51,1.48-2.28,2.02-4.18l4.43,1.77c-.55,.97-1.22,2.11-2.02,3.12l3.54-.17c-.42-.63-.84-1.22-1.27-1.77l3.46-1.35c1.69,1.94,3.46,4.68,4.13,6.54l-3.71,1.6Zm-1.56,10.59c-5.57,5.86-15.27,8.65-26.06,10.08-.42-1.22-1.35-2.91-2.24-4.01,10.08-.97,19.57-3.29,24.25-8.01l4.05,1.94Zm-4.89-4.26c-4.55,3.8-11.89,6.45-18.81,7.89-.51-1.05-1.56-2.53-2.49-3.54,6.45-1.05,13.79-3.21,17.54-6.2l3.75,1.86Z" style="fill: #da4e36;"/>
      <path d="M38.96,5.15c-.88-.22-1.7-.88-2.16-1.66-.97-1.67-2.41-3.22-4.99-3.24-1.8-.01-3.89,.64-4.99,2.05-.08,.1-.11,.27,0,.42,.22,.31,.27,.59,.19,.89-.14,.54-.73,.83-1.25,1.1-.34,.18-.71,.32-1.1,.43-.87,.25-1.91,.09-2.7-.36-1.68-.96-3.69-1.58-5.94-.31-1.57,.89-3.05,2.5-3.3,4.27-.02,.13,.04,.29,.21,.37,.35,.15,.53,.37,.61,.68,.14,.53-.22,1.08-.53,1.58-.21,.33-.45,.64-.74,.92-.63,.66-1.61,1.03-2.51,1.04-1.93,0-3.99,.48-5.3,2.7-.92,1.55-1.39,3.69-.73,5.34,.05,.12,.18,.23,.37,.21,.37-.04,.64,.05,.87,.28,.39,.4,.35,1.05,.33,1.64-.01,.39-.07,.77-.18,1.16-.22,.88-.88,1.7-1.66,2.16-1.67,.97-3.22,2.41-3.24,4.99-.01,1.8,.64,3.9,2.05,4.99,.1,.08,.27,.11,.42,0,.31-.22,.59-.27,.89-.19,.54,.14,.83,.73,1.11,1.25,.18,.35,.32,.71,.42,1.1,.25,.87,.09,1.91-.36,2.69-.95,1.68-1.58,3.69-.31,5.94,.89,1.57,2.5,3.05,4.27,3.3,.12,.02,.29-.04,.37-.21,.16-.34,.37-.53,.68-.61,.53-.14,1.08,.21,1.58,.53,.33,.21,.64,.46,.92,.74,.66,.64,1.04,1.61,1.04,2.51,0,1.93,.47,3.99,2.7,5.3,1.55,.91,3.69,1.39,5.34,.72,.12-.05,.23-.18,.21-.37-.04-.38,.05-.65,.28-.87,.4-.39,1.05-.36,1.64-.33,.39,.01,.77,.07,1.16,.18,.88,.22,1.7,.88,2.16,1.66,.97,1.67,2.41,3.22,4.99,3.24,1.8,.01,3.89-.64,4.99-2.04,.08-.1,.11-.28,0-.43-.22-.31-.27-.59-.19-.89,.14-.54,.73-.83,1.25-1.1,.35-.18,.72-.33,1.1-.43,.88-.25,1.91-.09,2.7,.36,1.68,.96,3.69,1.58,5.94,.31,1.57-.89,3.05-2.5,3.3-4.27,.02-.13-.04-.29-.21-.37-.34-.16-.53-.37-.61-.67-.14-.54,.22-1.09,.53-1.58,.21-.33,.46-.64,.74-.92,.63-.66,1.61-1.03,2.51-1.04,1.93-.01,3.99-.48,5.3-2.7,.91-1.56,1.39-3.7,.72-5.35-.05-.12-.19-.23-.37-.21-.38,.04-.65-.06-.87-.28-.4-.39-.36-1.04-.33-1.63,.01-.39,.07-.78,.18-1.16,.22-.89,.88-1.7,1.66-2.16,1.67-.97,3.22-2.41,3.24-4.99,.02-1.8-.64-3.89-2.04-4.99-.1-.08-.28-.11-.43,0-.31,.22-.59,.27-.89,.19-.54-.14-.83-.73-1.1-1.25-.18-.35-.33-.71-.43-1.1-.25-.87-.09-1.91,.36-2.7,.96-1.68,1.58-3.69,.31-5.94-.89-1.57-2.5-3.05-4.27-3.3-.13-.02-.29,.04-.37,.21-.16,.35-.37,.53-.67,.61-.54,.14-1.09-.21-1.58-.53-.33-.21-.64-.45-.92-.74-.66-.63-1.04-1.61-1.04-2.51-.01-1.93-.48-3.99-2.7-5.3-1.56-.92-3.7-1.39-5.35-.73-.12,.05-.23,.19-.21,.37,.04,.37-.06,.64-.28,.87-.39,.39-1.04,.35-1.63,.33-.39-.01-.78-.07-1.16-.18h0Z" style="fill: none; stroke: #fc462d; stroke-miterlimit: 10; stroke-width: .5px;"/>
    </g>
  </g>
</svg>