<?xml version="1.0" encoding="UTF-8"?>
<svg id="b" data-name="圖層 2" xmlns="http://www.w3.org/2000/svg" width="63.63" height="63.63" viewBox="0 0 63.63 63.63">
  <g id="c" data-name="圖層 3">
    <g>
      <circle cx="31.81" cy="31.81" r="28.44" transform="translate(-13.18 31.81) rotate(-45)" style="fill: #fff; stroke: #da4e36; stroke-miterlimit: 10; stroke-width: 1.04px;"/>
      <path d="M51.05,46.27v3.92H12.8v-3.92h10.25c-.3-.8-.67-1.69-1.1-2.4l2.57-.42h-6.16v-8.73h26.61v8.73h-6.2l3.08,.51-1.14,2.32h10.33ZM29.16,18.09H13.22v-3.67h15.94v-2.4h5.06v2.4h16.32v3.67h-16.32v1.77h12.61v3.46H16.89v-3.46h12.27v-1.77Zm15.94,14.34v-3.92H18.28v3.92h-4.6v-7.55H49.91v7.55h-4.81Zm-24.93,.67v-3.04h22.94v3.04H20.18Zm2.95,7.13h16.79v-2.36H23.13v2.36Zm3.63,3.21c.51,.89,1.05,1.98,1.31,2.83h7.55c.42-.93,.76-1.98,1.05-2.83h-9.91Z" style="fill: #da4e36;"/>
      <path d="M38.96,5.15c-.88-.22-1.7-.88-2.16-1.66-.97-1.67-2.41-3.22-4.99-3.24-1.8-.01-3.89,.64-4.99,2.05-.08,.1-.11,.27,0,.42,.22,.31,.27,.59,.19,.89-.14,.54-.73,.83-1.25,1.1-.34,.18-.71,.32-1.1,.43-.87,.25-1.91,.09-2.7-.36-1.68-.96-3.69-1.58-5.94-.31-1.57,.89-3.05,2.5-3.3,4.27-.02,.13,.04,.29,.21,.37,.35,.15,.53,.37,.61,.68,.14,.53-.22,1.08-.53,1.58-.21,.33-.45,.64-.74,.92-.63,.66-1.61,1.03-2.51,1.04-1.94,0-3.99,.48-5.3,2.7-.92,1.55-1.39,3.69-.73,5.34,.05,.12,.18,.23,.37,.21,.37-.04,.64,.05,.87,.28,.39,.4,.35,1.05,.33,1.64-.01,.39-.07,.77-.18,1.16-.22,.88-.88,1.7-1.66,2.16-1.67,.97-3.22,2.41-3.24,4.99-.01,1.8,.64,3.9,2.05,4.99,.1,.08,.27,.11,.42,0,.31-.22,.59-.27,.89-.19,.54,.14,.83,.73,1.11,1.25,.18,.35,.32,.71,.42,1.1,.25,.87,.09,1.91-.36,2.69-.95,1.68-1.58,3.69-.31,5.94,.89,1.57,2.5,3.05,4.27,3.3,.12,.02,.29-.04,.37-.21,.16-.34,.37-.53,.68-.61,.53-.14,1.08,.21,1.58,.53,.33,.21,.64,.46,.92,.74,.66,.64,1.04,1.61,1.04,2.51,0,1.93,.47,3.99,2.7,5.3,1.55,.91,3.69,1.39,5.34,.72,.12-.05,.23-.18,.21-.37-.04-.38,.05-.65,.28-.87,.4-.39,1.05-.36,1.64-.33,.39,.01,.77,.07,1.16,.18,.88,.22,1.7,.88,2.16,1.66,.97,1.67,2.41,3.22,4.99,3.24,1.8,.01,3.89-.64,4.99-2.04,.08-.1,.11-.28,0-.43-.22-.31-.27-.59-.19-.89,.14-.54,.73-.83,1.25-1.1,.35-.18,.72-.33,1.1-.43,.88-.25,1.91-.09,2.7,.36,1.68,.96,3.69,1.58,5.94,.31,1.57-.89,3.05-2.5,3.3-4.27,.02-.13-.04-.29-.21-.37-.34-.16-.53-.37-.61-.67-.14-.54,.21-1.09,.53-1.58,.21-.33,.46-.64,.74-.92,.63-.66,1.61-1.03,2.51-1.04,1.93-.01,3.99-.48,5.3-2.7,.91-1.56,1.39-3.7,.72-5.35-.05-.12-.19-.23-.37-.21-.38,.04-.65-.06-.87-.28-.4-.39-.36-1.04-.33-1.63,.01-.39,.07-.78,.18-1.16,.22-.89,.88-1.7,1.66-2.16,1.67-.97,3.22-2.41,3.24-4.99,.02-1.8-.64-3.89-2.04-4.99-.1-.08-.28-.11-.43,0-.31,.22-.59,.27-.89,.19-.54-.14-.83-.73-1.1-1.25-.18-.35-.33-.71-.43-1.1-.25-.87-.09-1.91,.36-2.7,.96-1.68,1.58-3.69,.31-5.94-.89-1.57-2.5-3.05-4.27-3.3-.13-.02-.29,.04-.37,.21-.16,.35-.37,.53-.67,.61-.54,.14-1.09-.21-1.58-.53-.33-.21-.64-.45-.92-.74-.66-.63-1.04-1.61-1.04-2.51-.01-1.93-.48-3.99-2.7-5.3-1.56-.92-3.7-1.39-5.35-.73-.12,.05-.23,.19-.21,.37,.04,.37-.06,.64-.28,.87-.39,.39-1.04,.35-1.63,.33-.39-.01-.78-.07-1.16-.18h0Z" style="fill: none; stroke: #fc462d; stroke-miterlimit: 10; stroke-width: .5px;"/>
    </g>
  </g>
</svg>