<?xml version="1.0" encoding="UTF-8"?>
<svg id="b" data-name="圖層 2" xmlns="http://www.w3.org/2000/svg" width="63.63" height="63.63" viewBox="0 0 63.63 63.63">
  <g id="c" data-name="圖層 3">
    <g>
      <circle cx="31.81" cy="31.81" r="28.44" transform="translate(-4.68 58.12) rotate(-80.78)" style="fill: #fff; stroke: #da4e36; stroke-miterlimit: 10; stroke-width: 1.04px;"/>
      <path d="M36.92,27.37c-.59,4.3-2.32,7.13-7.89,8.77-.34-.93-1.22-2.32-2.07-3.21,.17,.89,.21,1.69,.21,2.49,0,2.74-.59,4.47-1.98,5.44-.63,.51-1.48,.76-2.4,.93-.8,.13-1.81,.13-2.74,.08-.04-1.27-.46-3.16-1.14-4.43,.72,.08,1.31,.08,1.77,.08,.46-.04,.89-.13,1.22-.38,.51-.38,.67-1.18,.67-2.4,0-1.9-.55-4.47-2.91-7.25,.84-2.61,1.73-6.33,2.4-9.19h-3.5V51.45h-4.64V13.83h9.7l.76-.21,3.37,1.94c-1.1,3.63-2.57,8.14-3.75,11.39,1.6,2.02,2.45,3.84,2.83,5.57,3.84-1.05,5.1-2.62,5.57-5.15h-5.57v-4.26h9.49v-3.21h-7.3v-4.13h7.3v-3.63h4.93v3.63h7.63v4.13h-7.63v3.21h9.78v4.26h-6.58v2.11c0,.93,.08,1.31,.84,1.31h2.95c.72,0,2.02-.08,2.61-.29,.08,1.14,.17,2.49,.34,3.54-.63,.21-1.81,.3-2.83,.3h-3.75c-3.71,0-4.47-1.52-4.47-4.89v-2.07h-3.25Zm14.59,18.77v4.39H25.07v-4.39h11.26v-4.01h-7.89v-4.3h7.89v-3.67h4.93v3.67h8.06v4.3h-8.06v4.01h10.25Z" style="fill: #da4e36;"/>
      <path d="M38.96,5.15c-.88-.22-1.7-.88-2.16-1.66-.97-1.67-2.41-3.22-4.99-3.24-1.8-.01-3.89,.64-4.99,2.05-.08,.1-.11,.27,0,.42,.22,.31,.27,.59,.19,.89-.14,.54-.73,.83-1.25,1.1-.34,.18-.71,.32-1.1,.43-.87,.25-1.91,.09-2.7-.36-1.68-.96-3.69-1.58-5.94-.31-1.57,.89-3.05,2.5-3.3,4.27-.02,.13,.04,.29,.21,.37,.35,.15,.53,.37,.61,.68,.14,.53-.22,1.08-.53,1.58-.21,.33-.45,.64-.74,.92-.63,.66-1.61,1.03-2.51,1.04-1.93,0-3.99,.48-5.3,2.7-.92,1.55-1.39,3.69-.73,5.34,.05,.12,.18,.23,.37,.22,.37-.04,.64,.05,.87,.28,.39,.4,.35,1.05,.33,1.64-.01,.39-.07,.77-.18,1.16-.22,.88-.88,1.7-1.66,2.16-1.67,.97-3.22,2.41-3.24,4.99-.01,1.8,.64,3.9,2.05,4.99,.1,.08,.27,.11,.42,0,.31-.22,.59-.27,.89-.19,.54,.14,.83,.73,1.11,1.25,.18,.35,.32,.71,.42,1.1,.25,.87,.09,1.91-.36,2.69-.95,1.68-1.58,3.69-.31,5.94,.89,1.57,2.5,3.05,4.27,3.3,.12,.02,.29-.04,.37-.22,.16-.34,.37-.53,.68-.61,.53-.14,1.08,.21,1.58,.53,.33,.21,.64,.46,.92,.74,.66,.64,1.04,1.61,1.04,2.51,0,1.93,.47,3.99,2.7,5.3,1.55,.91,3.69,1.39,5.34,.72,.12-.05,.23-.18,.21-.37-.04-.38,.05-.65,.28-.87,.4-.39,1.05-.36,1.64-.33,.39,.01,.77,.07,1.16,.18,.88,.22,1.7,.88,2.16,1.66,.97,1.67,2.41,3.22,4.99,3.24,1.8,.01,3.89-.64,4.99-2.04,.08-.1,.11-.28,0-.43-.22-.31-.27-.59-.19-.89,.14-.54,.73-.83,1.25-1.1,.35-.18,.72-.33,1.1-.43,.88-.25,1.91-.09,2.7,.36,1.68,.96,3.69,1.58,5.94,.31,1.57-.89,3.05-2.5,3.3-4.27,.02-.13-.04-.29-.21-.37-.34-.16-.53-.37-.61-.67-.14-.54,.22-1.09,.53-1.58,.21-.33,.46-.64,.74-.92,.63-.66,1.61-1.03,2.51-1.04,1.93-.01,3.99-.48,5.3-2.7,.91-1.56,1.39-3.7,.72-5.35-.05-.12-.19-.23-.37-.21-.38,.04-.65-.06-.87-.28-.4-.39-.36-1.04-.33-1.63,.01-.39,.07-.78,.18-1.16,.22-.89,.88-1.7,1.66-2.16,1.67-.97,3.22-2.41,3.24-4.99,.02-1.8-.64-3.89-2.04-4.99-.1-.08-.28-.11-.43,0-.31,.22-.59,.27-.89,.19-.54-.14-.83-.73-1.1-1.25-.18-.35-.33-.71-.43-1.1-.25-.87-.09-1.91,.36-2.7,.96-1.68,1.58-3.69,.31-5.94-.89-1.57-2.5-3.05-4.27-3.3-.13-.02-.29,.04-.37,.21-.16,.35-.37,.53-.67,.61-.54,.14-1.09-.21-1.58-.53-.33-.21-.64-.45-.92-.74-.66-.63-1.04-1.61-1.04-2.51-.01-1.93-.48-3.99-2.7-5.3-1.56-.92-3.7-1.39-5.35-.73-.12,.05-.23,.19-.21,.37,.04,.37-.06,.64-.28,.87-.39,.39-1.04,.35-1.63,.33-.39-.01-.78-.07-1.16-.18h0Z" style="fill: none; stroke: #fc462d; stroke-miterlimit: 10; stroke-width: .5px;"/>
    </g>
  </g>
</svg>