<svg xmlns="http://www.w3.org/2000/svg" width="82.62" height="82.62" viewBox="0 0 82.62 82.62">
  <defs>
    <style>
      .cls-1 {
        fill: #fff;
        stroke: #da4e36;
        stroke-width: 3.14px;
      }

      .cls-1, .cls-3 {
        stroke-miterlimit: 10;
      }

      .cls-2 {
        fill: #da4e36;
      }

      .cls-3 {
        fill: none;
        stroke: #fc462d;
        stroke-width: 0.75px;
      }
    </style>
  </defs>
  <g id="圖層_2" data-name="圖層 2">
    <g id="圖層_2-2" data-name="圖層 2">
      <circle class="cls-1" cx="41.31" cy="41.31" r="36.88"/>
      <path class="cls-2" d="M36.23,54.48A34.34,34.34,0,0,1,19.44,65.14a33.28,33.28,0,0,0-4.27-5.36c6.13-1.26,12.42-4.05,15.75-7.33ZM24.3,31.23A57,57,0,0,0,15.77,27l3-4.21a61.76,61.76,0,0,1,8.53,3.77ZM44.59,51.36V66.67H38V51.36H17.19V45.67H38V41.19h6.61v4.48H65.32v5.69ZM17.25,39.82a130.68,130.68,0,0,0,11.87-11.7l3.55,4.37c-3.5,4-7.49,8.26-11.16,11.92Zm11.26-15.7A61.45,61.45,0,0,0,19.87,20l2.85-4.16a48.28,48.28,0,0,1,8.69,3.72ZM39.56,23V15.76H46v6.45l17.78-2,.65,5.58L46,28v4.32c0,2.13.44,2.9,2.47,2.9h9.73a30.52,30.52,0,0,0,5.74-.5c.17,1.75.39,4.21.66,5.69a28.2,28.2,0,0,1-6.24.44H48.48c-6.89,0-8.92-2.3-8.92-8.64V28.77L32,29.7l-.71-5.8ZM51.37,52.07c4.65,2.3,11.6,6,15.15,8.2l-4,4.81c-3.34-2.35-10.12-6.23-14.93-8.85Z"/>
      <path class="cls-3" d="M50.58,6.72a4.73,4.73,0,0,1-2.8-2.15C46.52,2.41,44.66.4,41.31.38,39,.36,36.26,1.21,34.84,3a.43.43,0,0,0,0,.55,1.3,1.3,0,0,1,.24,1.16c-.18.7-.94,1.08-1.62,1.43A6.24,6.24,0,0,1,32,6.72a4.75,4.75,0,0,1-3.5-.46c-2.17-1.24-4.79-2-7.7-.4-2,1.15-4,3.25-4.28,5.54a.47.47,0,0,0,.28.48,1.25,1.25,0,0,1,.79.88,2.75,2.75,0,0,1-.69,2A6.29,6.29,0,0,1,16,16a4.73,4.73,0,0,1-3.26,1.35c-2.5,0-5.17.62-6.87,3.51-1.19,2-1.8,4.79-.94,6.93a.48.48,0,0,0,.49.28,1.25,1.25,0,0,1,1.12.36A2.79,2.79,0,0,1,7,30.54,6,6,0,0,1,6.72,32a4.75,4.75,0,0,1-2.14,2.8C2.41,36.1.4,38,.38,41.31c0,2.34.83,5,2.65,6.48a.46.46,0,0,0,.55,0,1.28,1.28,0,0,1,1.16-.25c.7.18,1.08.94,1.43,1.62a6.24,6.24,0,0,1,.55,1.42,4.7,4.7,0,0,1-.46,3.5c-1.24,2.17-2,4.78-.4,7.7,1.15,2,3.25,4,5.54,4.28a.47.47,0,0,0,.48-.28,1.28,1.28,0,0,1,.88-.79,2.74,2.74,0,0,1,2,.68,6.42,6.42,0,0,1,1.19,1,4.73,4.73,0,0,1,1.35,3.26c0,2.5.62,5.17,3.51,6.87,2,1.18,4.79,1.8,6.93.94a.48.48,0,0,0,.28-.48,1.23,1.23,0,0,1,.36-1.12,2.71,2.71,0,0,1,2.12-.43,6.15,6.15,0,0,1,1.51.23A4.72,4.72,0,0,1,34.84,78c1.26,2.17,3.13,4.18,6.48,4.2,2.34,0,5-.83,6.47-2.65a.48.48,0,0,0,0-.56,1.25,1.25,0,0,1-.25-1.15c.19-.7.94-1.07,1.62-1.43a6.63,6.63,0,0,1,1.42-.55,4.7,4.7,0,0,1,3.5.46c2.17,1.24,4.79,2,7.7.4,2-1.15,4-3.25,4.28-5.54a.47.47,0,0,0-.28-.48,1.28,1.28,0,0,1-.79-.87,2.76,2.76,0,0,1,.69-2.05,6.37,6.37,0,0,1,.95-1.19,4.73,4.73,0,0,1,3.26-1.35c2.5,0,5.17-.62,6.87-3.5,1.19-2,1.8-4.8.94-6.94a.46.46,0,0,0-.48-.27,1.26,1.26,0,0,1-1.12-.37,2.73,2.73,0,0,1-.43-2.11,6.5,6.5,0,0,1,.23-1.51,4.73,4.73,0,0,1,2.15-2.8c2.16-1.26,4.17-3.12,4.19-6.47,0-2.34-.83-5.05-2.65-6.47a.43.43,0,0,0-.55,0,1.32,1.32,0,0,1-1.16.24c-.7-.18-1.07-.94-1.43-1.62A7,7,0,0,1,75.9,32a4.75,4.75,0,0,1,.46-3.5c1.24-2.17,2-4.79.4-7.7-1.15-2-3.25-4-5.54-4.28a.48.48,0,0,0-.48.28,1.26,1.26,0,0,1-.87.79,2.8,2.8,0,0,1-2.05-.69,6,6,0,0,1-1.19-1,4.73,4.73,0,0,1-1.35-3.26c0-2.51-.62-5.17-3.5-6.87-2-1.19-4.8-1.81-6.94-.94a.46.46,0,0,0-.27.48,1.29,1.29,0,0,1-.37,1.13A2.8,2.8,0,0,1,52.09,7a6.07,6.07,0,0,1-1.51-.23Z"/>
    </g>
  </g>
</svg>
