<svg xmlns="http://www.w3.org/2000/svg" width="82.62" height="82.62" viewBox="0 0 82.62 82.62">
  <defs>
    <style>
      .cls-1 {
        fill: #fff;
        stroke: #da4e36;
        stroke-width: 3.14px;
      }

      .cls-1, .cls-3 {
        stroke-miterlimit: 10;
      }

      .cls-2 {
        fill: #da4e36;
      }

      .cls-3 {
        fill: none;
        stroke: #fc462d;
        stroke-width: 0.75px;
      }
    </style>
  </defs>
  <g id="圖層_2" data-name="圖層 2">
    <g id="圖層_2-2" data-name="圖層 2">
      <circle class="cls-1" cx="41.31" cy="41.31" r="36.88"/>
      <path class="cls-2" d="M61.33,40c-.22-.65-.55-1.36-.88-2.13-4.26.27-7,.49-8.8.71a55.92,55.92,0,0,0,16.13,6.29,24,24,0,0,0-4.1,5A55.09,55.09,0,0,1,40.82,37a42,42,0,0,1-12.41,9.4c5-1.31,10.71-3.44,13.94-5.63l4.54,2.35c-4.54,3.28-11.48,6.07-17.17,7.66a25.58,25.58,0,0,0-3.06-3.56,67.08,67.08,0,0,1-7.55,3,29.82,29.82,0,0,0-3.5-5.14,48.26,48.26,0,0,0,15.31-6.84c-7.93.55-9.51.82-10.61,1.26a46.07,46.07,0,0,0-2.08-5.09,4.28,4.28,0,0,0,2-1.42,22.72,22.72,0,0,0,3.28-5.63l.16,0c-.33-1.2-1.15-3.5-1.69-4.86a13.82,13.82,0,0,0,3.61-1.37A45.4,45.4,0,0,0,35,15.26l5.69,2.79a63,63,0,0,1-6.51,4l14.28-.33a49.13,49.13,0,0,0-4-3.12l4.92-2.3C53.12,19,58.1,23,60.56,25.82l-5.19,2.51c-.55-.6-1.21-1.36-2-2.18C30.54,27,26.49,27,24.19,27.62l5.09,2a27.64,27.64,0,0,1-3.17,4.26l3.94-.16a17.31,17.31,0,0,0-1.21-2.24l4.65-1.32c.66,1.26,1.42,2.68,2.08,4.05a20.31,20.31,0,0,0,3.66-5l6,1.69c-.32.61-.71,1.15-1,1.7a20.85,20.85,0,0,0,1.53,1.64v-.05a3.68,3.68,0,0,0,1.86-1.43,21.06,21.06,0,0,0,2.63-5.41L56,29.65a31.77,31.77,0,0,1-2.63,4l4.6-.21c-.55-.83-1.1-1.59-1.64-2.3l4.48-1.75a31.78,31.78,0,0,1,5.36,8.47Zm-2,13.73c-7.21,7.6-19.79,11.21-33.79,13.07a19.74,19.74,0,0,0-2.9-5.2C35.68,60.33,48,57.32,54.05,51.19ZM53,48.19c-5.91,4.92-15.42,8.36-24.39,10.22a22,22,0,0,0-3.23-4.59c8.37-1.37,17.89-4.16,22.75-8Z"/>
      <path class="cls-3" d="M50.58,6.72a4.73,4.73,0,0,1-2.8-2.15C46.52,2.41,44.66.4,41.31.38,39,.36,36.26,1.21,34.84,3a.43.43,0,0,0,0,.55,1.3,1.3,0,0,1,.24,1.16c-.18.7-.94,1.08-1.62,1.43A6.24,6.24,0,0,1,32,6.72a4.75,4.75,0,0,1-3.5-.46c-2.17-1.24-4.79-2-7.7-.4-2,1.15-4,3.25-4.28,5.54a.47.47,0,0,0,.28.48,1.25,1.25,0,0,1,.79.88,2.75,2.75,0,0,1-.69,2A6.29,6.29,0,0,1,16,16a4.73,4.73,0,0,1-3.26,1.35c-2.5,0-5.17.62-6.87,3.51-1.19,2-1.8,4.79-.94,6.93a.48.48,0,0,0,.49.28,1.25,1.25,0,0,1,1.12.36A2.79,2.79,0,0,1,7,30.54,6,6,0,0,1,6.72,32a4.75,4.75,0,0,1-2.14,2.8C2.41,36.1.4,38,.38,41.31c0,2.34.83,5,2.65,6.48a.46.46,0,0,0,.55,0,1.28,1.28,0,0,1,1.16-.25c.7.18,1.08.94,1.43,1.62a6.24,6.24,0,0,1,.55,1.42,4.7,4.7,0,0,1-.46,3.5c-1.24,2.17-2,4.78-.4,7.7,1.15,2,3.25,4,5.54,4.28a.47.47,0,0,0,.48-.28,1.28,1.28,0,0,1,.88-.79,2.74,2.74,0,0,1,2,.68,6.42,6.42,0,0,1,1.19,1,4.73,4.73,0,0,1,1.35,3.26c0,2.5.62,5.17,3.51,6.87,2,1.18,4.79,1.8,6.93.94a.48.48,0,0,0,.28-.48,1.23,1.23,0,0,1,.36-1.12,2.71,2.71,0,0,1,2.12-.43,6.15,6.15,0,0,1,1.51.23A4.72,4.72,0,0,1,34.84,78c1.26,2.17,3.13,4.18,6.48,4.2,2.34,0,5-.83,6.47-2.65a.48.48,0,0,0,0-.56,1.25,1.25,0,0,1-.25-1.15c.19-.7.94-1.07,1.62-1.43a6.63,6.63,0,0,1,1.42-.55,4.7,4.7,0,0,1,3.5.46c2.17,1.24,4.79,2,7.7.4,2-1.15,4-3.25,4.28-5.54a.47.47,0,0,0-.28-.48,1.28,1.28,0,0,1-.79-.87,2.76,2.76,0,0,1,.69-2.05,6.37,6.37,0,0,1,.95-1.19,4.73,4.73,0,0,1,3.26-1.35c2.5,0,5.17-.62,6.87-3.5,1.19-2,1.8-4.8.94-6.94a.46.46,0,0,0-.48-.27,1.26,1.26,0,0,1-1.12-.37,2.73,2.73,0,0,1-.43-2.11,6.5,6.5,0,0,1,.23-1.51,4.73,4.73,0,0,1,2.15-2.8c2.16-1.26,4.17-3.12,4.19-6.47,0-2.34-.83-5.05-2.65-6.47a.43.43,0,0,0-.55,0,1.32,1.32,0,0,1-1.16.24c-.7-.18-1.07-.94-1.43-1.62A7,7,0,0,1,75.9,32a4.75,4.75,0,0,1,.46-3.5c1.24-2.17,2-4.79.4-7.7-1.15-2-3.25-4-5.54-4.28a.48.48,0,0,0-.48.28,1.26,1.26,0,0,1-.87.79,2.8,2.8,0,0,1-2.05-.69,6,6,0,0,1-1.19-1,4.73,4.73,0,0,1-1.35-3.26c0-2.51-.62-5.17-3.5-6.87-2-1.19-4.8-1.81-6.94-.94a.46.46,0,0,0-.27.48,1.29,1.29,0,0,1-.37,1.13A2.8,2.8,0,0,1,52.09,7a6.07,6.07,0,0,1-1.51-.23Z"/>
    </g>
  </g>
</svg>
