<?xml version="1.0" encoding="UTF-8"?>
<svg id="b" data-name="圖層 2" xmlns="http://www.w3.org/2000/svg" width="63.63" height="63.63" viewBox="0 0 63.63 63.63">
  <g id="c" data-name="圖層 3">
    <g>
      <circle cx="31.81" cy="31.81" r="28.44" transform="translate(-6.46 55.47) rotate(-76.72)" style="fill: #fff; stroke: #da4e36; stroke-miterlimit: 10; stroke-width: 1.04px;"/>
      <path d="M25.03,34.12c-1.27,.38-2.57,.8-3.84,1.18v10.88c0,2.32-.38,3.54-1.69,4.3-1.22,.8-3.04,.97-5.74,.93-.13-1.22-.67-3.21-1.22-4.56,1.48,.08,2.95,.08,3.46,.08s.72-.17,.72-.76v-9.53c-1.39,.38-2.74,.76-3.96,1.1l-1.1-4.81c1.43-.29,3.16-.76,5.06-1.22v-7.13h-4.3v-4.6h4.3v-7.93h4.47v7.93h3.25v4.6h-3.25v5.9l3.21-.89,.63,4.51Zm12.91-1.56s0,1.14-.04,1.69c-.42,10.21-.89,14.17-1.94,15.48-.72,.97-1.48,1.31-2.45,1.48-.89,.13-2.24,.17-3.71,.13-.04-1.22-.42-2.91-1.01-4.01,1.05,.13,2.02,.13,2.57,.13,.46,0,.8-.08,1.1-.51,.55-.72,.89-3.29,1.22-10.04h-2.53c-.8,6.03-2.57,11.13-6.71,14.63-.59-1.05-1.9-2.49-2.95-3.25,5.02-4.22,5.82-11.26,6.07-19.48h-2.24V13.33h12.44v15.48h-5.99c-.04,1.27-.08,2.53-.17,3.75h6.33Zm-8.44-7.84h3.88v-7.25h-3.88v7.25Zm13.92,17.63h-4.01V16.11h4.01v26.23Zm6.75-30.32V46.35c0,2.32-.46,3.46-1.77,4.18-1.35,.72-3.33,.89-6.28,.84-.17-1.18-.76-3.04-1.31-4.26,1.81,.08,3.67,.08,4.26,.04,.59,0,.8-.17,.8-.84V12.02h4.3Z" style="fill: #da4e36;"/>
      <path d="M38.96,5.15c-.88-.22-1.7-.88-2.16-1.66-.97-1.67-2.41-3.22-4.99-3.24-1.8-.01-3.89,.64-4.99,2.05-.08,.1-.11,.27,0,.42,.22,.31,.27,.59,.19,.89-.14,.54-.73,.83-1.25,1.1-.34,.18-.71,.32-1.1,.43-.87,.25-1.91,.09-2.7-.36-1.68-.96-3.69-1.58-5.94-.31-1.57,.89-3.05,2.5-3.3,4.27-.02,.13,.04,.29,.21,.37,.35,.15,.53,.37,.61,.68,.14,.53-.22,1.08-.53,1.58-.21,.33-.45,.64-.74,.92-.63,.66-1.61,1.03-2.51,1.04-1.93,0-3.99,.48-5.3,2.7-.92,1.55-1.39,3.69-.73,5.34,.05,.12,.18,.23,.37,.22,.37-.04,.64,.05,.87,.28,.39,.4,.35,1.05,.33,1.64-.01,.39-.07,.77-.18,1.16-.22,.88-.88,1.7-1.66,2.16-1.67,.97-3.22,2.41-3.24,4.99-.01,1.8,.64,3.9,2.05,4.99,.1,.08,.27,.11,.42,0,.31-.22,.59-.27,.89-.19,.54,.14,.83,.73,1.11,1.25,.18,.35,.32,.71,.42,1.1,.25,.87,.09,1.91-.36,2.69-.95,1.68-1.58,3.69-.31,5.94,.89,1.57,2.5,3.05,4.27,3.3,.12,.02,.29-.04,.37-.22,.16-.34,.37-.53,.68-.61,.53-.14,1.08,.21,1.58,.53,.33,.21,.64,.46,.92,.74,.66,.64,1.04,1.61,1.04,2.51,0,1.93,.47,3.99,2.7,5.3,1.55,.91,3.69,1.39,5.34,.72,.12-.05,.23-.18,.21-.37-.04-.38,.05-.65,.28-.87,.4-.39,1.05-.36,1.64-.33,.39,.01,.77,.07,1.16,.18,.88,.22,1.7,.88,2.16,1.66,.97,1.67,2.41,3.22,4.99,3.24,1.8,.01,3.89-.64,4.99-2.04,.08-.1,.11-.28,0-.43-.22-.31-.27-.59-.19-.89,.14-.54,.73-.83,1.25-1.1,.35-.18,.72-.33,1.1-.43,.88-.25,1.91-.09,2.7,.36,1.68,.96,3.69,1.58,5.94,.31,1.57-.89,3.05-2.5,3.3-4.27,.02-.13-.04-.29-.21-.37-.34-.16-.53-.37-.61-.67-.14-.54,.22-1.09,.53-1.58,.21-.33,.46-.64,.74-.92,.63-.66,1.61-1.03,2.51-1.04,1.93-.01,3.99-.48,5.3-2.7,.91-1.56,1.39-3.7,.72-5.35-.05-.12-.19-.23-.37-.21-.38,.04-.65-.06-.87-.28-.4-.39-.36-1.04-.33-1.63,.01-.39,.07-.78,.18-1.16,.22-.89,.88-1.7,1.66-2.16,1.67-.97,3.22-2.41,3.24-4.99,.02-1.8-.64-3.89-2.04-4.99-.1-.08-.28-.11-.43,0-.31,.22-.59,.27-.89,.19-.54-.14-.83-.73-1.1-1.25-.18-.35-.33-.71-.43-1.1-.25-.87-.09-1.91,.36-2.7,.96-1.68,1.58-3.69,.31-5.94-.89-1.57-2.5-3.05-4.27-3.3-.13-.02-.29,.04-.37,.21-.16,.35-.37,.53-.67,.61-.54,.14-1.09-.21-1.58-.53-.33-.21-.64-.45-.92-.74-.66-.63-1.04-1.61-1.04-2.51-.01-1.93-.48-3.99-2.7-5.3-1.56-.92-3.7-1.39-5.35-.73-.12,.05-.23,.19-.21,.37,.04,.37-.06,.64-.28,.87-.39,.39-1.04,.35-1.63,.33-.39-.01-.78-.07-1.16-.18h0Z" style="fill: none; stroke: #fc462d; stroke-miterlimit: 10; stroke-width: .5px;"/>
    </g>
  </g>
</svg>