<?xml version="1.0" encoding="UTF-8"?>
<svg id="b" data-name="圖層 2" xmlns="http://www.w3.org/2000/svg" width="63.63" height="63.63" viewBox="0 0 63.63 63.63">
  <g id="c" data-name="圖層 3">
    <g>
      <circle cx="31.81" cy="31.81" r="28.44" style="fill: #fff; stroke: #da4e36; stroke-miterlimit: 10; stroke-width: 1.04px;"/>
      <path d="M27.9,41.96c-2.99,3.71-7.89,6.79-12.95,8.22-.76-1.22-2.23-3.12-3.29-4.13,4.72-.97,9.57-3.12,12.15-5.65l4.09,1.56Zm-9.19-17.92c-1.43-.93-4.39-2.4-6.58-3.25l2.32-3.25c2.11,.76,5.1,2.02,6.58,2.91l-2.32,3.58Zm15.65,15.52v11.81h-5.1v-11.81H13.22v-4.39H29.25v-3.46h5.1v3.46h15.98v4.39h-15.98ZM13.26,30.66c2.49-2.07,6.12-5.65,9.15-9.03l2.74,3.37c-2.7,3.12-5.78,6.37-8.6,9.19l-3.29-3.54Zm8.69-12.1c-1.48-.97-4.47-2.32-6.66-3.21l2.19-3.21c2.15,.67,5.19,1.94,6.71,2.87l-2.24,3.54Zm8.52-.89v-5.57h4.98v4.98l13.71-1.52,.51,4.3-14.21,1.69v3.33c0,1.64,.34,2.24,1.9,2.24h7.51c1.35,0,3.37-.13,4.43-.38,.13,1.35,.29,3.25,.51,4.39-.97,.3-2.99,.34-4.81,.34h-7.63c-5.31,0-6.88-1.77-6.88-6.66v-2.66l-5.86,.72-.55-4.47,6.41-.72Zm9.11,22.44c3.58,1.77,8.94,4.6,11.68,6.33l-3.12,3.71c-2.57-1.81-7.8-4.81-11.51-6.83l2.95-3.21Z" style="fill: #da4e36;"/>
      <path d="M38.96,5.15c-.88-.22-1.7-.88-2.16-1.66-.97-1.67-2.41-3.22-4.99-3.24-1.8-.01-3.89,.64-4.99,2.05-.08,.1-.11,.27,0,.42,.22,.31,.27,.59,.19,.89-.14,.54-.73,.83-1.25,1.1-.34,.18-.71,.32-1.1,.43-.87,.25-1.91,.09-2.7-.36-1.68-.96-3.69-1.58-5.94-.31-1.57,.89-3.05,2.5-3.3,4.27-.02,.13,.04,.29,.21,.37,.35,.15,.53,.37,.61,.68,.14,.53-.22,1.08-.53,1.58-.21,.33-.45,.64-.74,.92-.63,.66-1.61,1.03-2.51,1.04-1.94,0-3.99,.48-5.3,2.7-.92,1.55-1.39,3.69-.73,5.34,.05,.12,.18,.23,.37,.21,.37-.04,.64,.05,.87,.28,.39,.4,.35,1.05,.33,1.64-.01,.39-.07,.77-.18,1.16-.22,.88-.88,1.7-1.66,2.16-1.67,.97-3.22,2.41-3.24,4.99-.01,1.8,.64,3.9,2.05,4.99,.1,.08,.27,.11,.42,0,.31-.22,.59-.27,.89-.19,.54,.14,.83,.73,1.11,1.25,.18,.35,.32,.71,.42,1.1,.25,.87,.09,1.91-.36,2.69-.95,1.68-1.58,3.69-.31,5.94,.89,1.57,2.5,3.05,4.27,3.3,.12,.02,.29-.04,.37-.21,.16-.34,.37-.53,.68-.61,.53-.14,1.08,.21,1.58,.53,.33,.21,.64,.46,.92,.74,.66,.64,1.04,1.61,1.04,2.51,0,1.93,.47,3.99,2.7,5.3,1.55,.91,3.69,1.39,5.34,.72,.12-.05,.23-.18,.21-.37-.04-.38,.05-.65,.28-.87,.4-.39,1.05-.36,1.64-.33,.39,.01,.77,.07,1.16,.18,.88,.22,1.7,.88,2.16,1.66,.97,1.67,2.41,3.22,4.99,3.24,1.8,.01,3.89-.64,4.99-2.04,.08-.1,.11-.28,0-.43-.22-.31-.27-.59-.19-.89,.14-.54,.73-.83,1.25-1.1,.35-.18,.72-.33,1.1-.43,.88-.25,1.91-.09,2.7,.36,1.68,.96,3.69,1.58,5.94,.31,1.57-.89,3.05-2.5,3.3-4.27,.02-.13-.04-.29-.21-.37-.34-.16-.53-.37-.61-.67-.14-.54,.21-1.09,.53-1.58,.21-.33,.46-.64,.74-.92,.63-.66,1.61-1.03,2.51-1.04,1.93-.01,3.99-.48,5.3-2.7,.91-1.56,1.39-3.7,.72-5.35-.05-.12-.19-.23-.37-.21-.38,.04-.65-.06-.87-.28-.4-.39-.36-1.04-.33-1.63,.01-.39,.07-.78,.18-1.16,.22-.89,.88-1.7,1.66-2.16,1.67-.97,3.22-2.41,3.24-4.99,.02-1.8-.64-3.89-2.04-4.99-.1-.08-.28-.11-.43,0-.31,.22-.59,.27-.89,.19-.54-.14-.83-.73-1.1-1.25-.18-.35-.33-.71-.43-1.1-.25-.87-.09-1.91,.36-2.7,.96-1.68,1.58-3.69,.31-5.94-.89-1.57-2.5-3.05-4.27-3.3-.13-.02-.29,.04-.37,.21-.16,.35-.37,.53-.67,.61-.54,.14-1.09-.21-1.58-.53-.33-.21-.64-.45-.92-.74-.66-.63-1.04-1.61-1.04-2.51-.01-1.93-.48-3.99-2.7-5.3-1.56-.92-3.7-1.39-5.35-.73-.12,.05-.23,.19-.21,.37,.04,.37-.06,.64-.28,.87-.39,.39-1.04,.35-1.63,.33-.39-.01-.78-.07-1.16-.18h0Z" style="fill: none; stroke: #fc462d; stroke-miterlimit: 10; stroke-width: .5px;"/>
    </g>
  </g>
</svg>