<?xml version="1.0" encoding="UTF-8"?>
<svg id="b" data-name="圖層 2" xmlns="http://www.w3.org/2000/svg" width="145.7" height="221.39" xmlns:xlink="http://www.w3.org/1999/xlink" viewBox="0 0 145.7 221.39">
  <defs>
    <style>
      .e {
        fill: #302725;
      }

      .f {
        clip-path: url(#d);
      }

      .g {
        fill: none;
      }
    </style>
    <clipPath id="d">
      <rect class="g" width="145.7" height="221.39"/>
    </clipPath>
  </defs>
  <g id="c" data-name="圖層 1">
    <g class="f">
      <g>
        <path class="e" d="M34.73,16.35c2.33-.23,9.48-.34,11.59,6.54,.22,.72,.38,1.51,.48,2.38,0,.03,.4,4.96-3.46,9.49-2.55,2.99-6.42,5.19-11.51,6.55-3.99,1.07-7.83,1.4-11.55,1.72-1.89,.16-3.76,.32-5.59,.58-.15,.02-.29,.04-.44,.06-.07,.01-.15,.02-.22,.03-5.22,.79-10.19,2.44-14.8,7.15h0c-.12,.06-.25,.12-.37,.18-.3,.14-.6,.29-.9,.44-.2,.1-.41,.21-.62,.32-.27,.14-.55,.29-.83,.44-.19,.1-.38,.21-.58,.32-.43,.24-.87,.5-1.32,.76-.19,.11-.37,.23-.56,.34-.32,.19-.63,.39-.95,.59-.2,.12-.39,.25-.59,.38-.4,.26-.81,.53-1.23,.81-.15,.1-.3,.2-.46,.31-.44,.3-.89,.62-1.35,.94-.18,.13-.37,.26-.56,.4-.38,.28-.77,.56-1.17,.85-.16,.12-.33,.24-.49,.36-.53,.4-1.07,.81-1.62,1.23-.04,.03-.08,.06-.12,.1h0s0-.08,0-.12c0-.23,.01-.46,.03-.68,0-.04,0-.07,0-.11,.09-1.26,.3-2.46,.65-3.6,.02-.08,.04-.15,.07-.23,.05-.15,.1-.31,.16-.46,.04-.11,.07-.21,.11-.31,.05-.13,.11-.27,.16-.4,.05-.12,.1-.24,.15-.36,.05-.12,.11-.24,.16-.35,.06-.13,.13-.26,.19-.39,.05-.11,.11-.21,.17-.31,.08-.14,.15-.28,.23-.42,.05-.09,.11-.19,.16-.28,.09-.15,.19-.3,.28-.45,.05-.08,.1-.16,.15-.23,.11-.17,.23-.33,.35-.49,.04-.06,.09-.12,.13-.18,.14-.19,.29-.38,.45-.56,.03-.03,.05-.06,.08-.1,.37-.45,.78-.89,1.21-1.32,8.67-8.62,27.13-10.95,36-12.07,2.09-.26,3.73-.47,4.81-.69,5.34-1.11,9.76-6.1,9.91-8.84,.09-1.52-.53-2.95-1.76-3.9-1.23-.95-4.94,.31-7.3,.7-1.99,.33-3.54,.05-4.41-.77-.05-.05-.12-.1-.16-.15-.69-.78-.78-1.94-.23-3.17,.37-.82,3.25-2.58,7.46-2.99Z"/>
        <g>
          <path class="e" d="M101.61,121.36l-.03,.08c-.05,.11-.09,.22-.14,.33-.03,.06-.05,.12-.08,.18-.03,.07-.07,.14-.11,.21-.08,.16-.16,.32-.25,.47l-.04,.07c-.06,.1-.12,.21-.19,.31l-.03,.04c-.2,.32-.42,.62-.66,.91-.02,.03-.05,.06-.07,.09-.07,.08-.14,.16-.21,.24-.08,.08-.16,.17-.25,.24-.02,.02-.04,.05-.07,.07-.14-1.05-.36-4.03-.47-5.57,1.21,.32,2.27,.53,3.22,.52-.13,.48-.33,1.12-.62,1.81Z"/>
          <path class="e" d="M79.22,112.76c-.98,1.2-2.87,3.51-3.59,4.29-.01-.05-.02-.1-.03-.15-.02-.1-.04-.21-.06-.31-.01-.08-.02-.16-.03-.23,0-.09-.02-.18-.02-.26,0-.08-.01-.15-.02-.23,0-.14,0-.28,0-.43,0-.09,0-.17,0-.26,0-.08,0-.15,.01-.23,0-.09,.01-.18,.02-.27,0-.07,.01-.13,.02-.2,.02-.18,.04-.35,.07-.53,0-.04,.01-.08,.02-.12,.02-.11,.04-.21,.06-.32,0-.03,.01-.06,.02-.08,.17-.84,.4-1.58,.59-2.1,.78,.55,1.76,.99,2.93,1.42Z"/>
          <path class="e" d="M116.81,106.6c-.03,.35-.07,.71-.12,1.06,0,.04,0,.08-.02,.13-.16,1.06-.3,2.25-.45,3.51-.06,.52-.13,1.06-.2,1.6h.02s.06-.05,.09-.07c.16-.09,.31-.19,.47-.29,.05-.04,.11-.08,.16-.11,.13-.09,.25-.18,.37-.27,.06-.04,.12-.09,.17-.14,.12-.09,.23-.19,.34-.28,.05-.05,.11-.1,.16-.14,.11-.1,.23-.21,.34-.32,.05-.05,.09-.09,.14-.14,.12-.12,.23-.24,.34-.37,.03-.04,.07-.07,.1-.11,.14-.16,.27-.32,.4-.48h.01c.27-.37,.51-.73,.72-1.09l.02-.05c.09-.16,.18-.33,.26-.49,.02-.03,.03-.07,.05-.1,.07-.15,.13-.29,.19-.44,.02-.04,.03-.08,.04-.12,.05-.14,.1-.28,.14-.42,.01-.04,.02-.08,.03-.12,.04-.14,.07-.28,.09-.42,0-.04,.01-.07,.02-.11,.02-.16,.04-.31,.04-.46,0-.02,0-.03,0-.05,0-.17,0-.34-.02-.51,0-.04-.02-.08-.03-.12-.06-.13-.11-.27-.12-.41v-.02c-.28-.62-.86-1.14-1.56-1.55-.02-.01-.04-.03-.07-.04-.08-.05-.16-.09-.24-.13-.03-.02-.07-.04-.1-.05-.12-.06-.25-.13-.38-.18-.06-.03-.11-.05-.17-.08-.06-.03-.13-.05-.19-.08-.1-.04-.2-.08-.29-.11-.06-.02-.12-.04-.18-.06-.08-.03-.16-.06-.25-.08-.05-.02-.1-.03-.15-.05-.11-.03-.21-.06-.31-.09,.18,1.17,.23,2.4,.14,3.67,0,.06-.01,.12-.02,.18Z"/>
          <path class="e" d="M67.56,91.55c-.01,.06-.03,.12-.04,.18-.03,.13-.05,.27-.07,.41,0,.06-.02,.12-.02,.18-.02,.14-.03,.29-.04,.44,0,.06,0,.11,0,.17,0,.15-.01,.31-.01,.46,0,.05,0,.1,0,.15,0,.16,0,.33,.02,.49,0,.04,0,.09,0,.13,.01,.17,.03,.35,.05,.52,0,.03,0,.06,.01,.09,.03,.19,.05,.37,.09,.56v.03c.21,1.04,.56,2.07,1.07,2.98h0c.32-.61,.64-1.21,.95-1.78,.6-1.12,1.17-2.18,1.65-3.14,.79-1.58,1.75-2.95,2.86-4.11h0l-.05-.02c-.08-.04-.17-.07-.26-.1-.05-.02-.1-.04-.15-.06-.07-.02-.14-.05-.21-.07-.06-.02-.12-.04-.18-.06-.07-.02-.14-.04-.21-.06-.12-.04-.25-.07-.38-.1-.04-.01-.08-.02-.12-.03-.09-.02-.19-.04-.29-.06h-.06c-1.14-.24-2.35-.26-3.16,.25h0c-.1,.11-.21,.2-.32,.26h0s-.06,.05-.09,.09c-.18,.21-.34,.45-.48,.71-.02,.04-.05,.08-.07,.12-.06,.11-.1,.22-.15,.34-.02,.05-.04,.1-.06,.15-.04,.12-.08,.24-.12,.36-.02,.06-.04,.11-.05,.17-.04,.12-.06,.25-.09,.38Z"/>
          <path class="e" d="M113.71,111c.15-1.28,.3-2.49,.46-3.59,.06-.41,.1-.81,.13-1.21,0-.08,0-.16,.01-.24,.02-.32,.02-.64,.02-.95,0-.08,0-.17,0-.25-.01-.38-.03-.76-.08-1.12,0-.01,0-.03,0-.04-.04-.34-.1-.68-.17-1.01-.02-.11-.05-.21-.07-.32-.06-.25-.12-.49-.2-.73-.03-.1-.06-.21-.1-.31-.1-.31-.22-.61-.34-.91-.03,.02-.05,.04-.08,.06-.01,0-.02,.02-.03,.02-1.93,1.13-3.47,1.05-4.43,.79h0c-.67-.19-1.29-.53-1.77-.97-.29-.27-.53-.57-.72-.9-.14-.26-.35-.5-.6-.63-.25-.14-.55-.17-.88,0-1.16,.56-2.25,.64-3.19,.25-.56-.24-1.07-.64-1.51-1.22-.27-.35-.54-.58-.78-.67-.08-.03-.16-.04-.23-.03-.17,.01-.28,.13-.3,.17-.14,.3-.05,.74,.24,1.14,.58,.82,.8,2.16-1.5,3.92-.15,.12-.3,.24-.44,.37-.01,.01-.03,.02-.04,.03-.12,.11-.22,.22-.33,.33-.03,.03-.07,.07-.1,.1-.1,.12-.2,.24-.29,.36-.02,.03-.04,.06-.06,.08-.09,.13-.17,.26-.25,.39,0,.02-.02,.03-.03,.05-.08,.14-.14,.28-.2,.42h0c-.17,.45-.22,.86-.14,1.22h0c.58,.35,1.07,.86,1.44,1.49l.03,.06c.05,.09,.1,.19,.15,.28,.02,.04,.04,.09,.06,.13,.03,.08,.06,.15,.09,.23,.02,.06,.05,.12,.07,.18,.02,.06,.04,.13,.06,.19,.02,.07,.04,.14,.06,.21,.31,1.29-.03,2.16-.36,2.67-.39,.59-1,1-1.63,1.1-.76,.12-1.45-.07-2.06-.56-.2-.16-.39-.36-.57-.59h0c-.06-.02-.34,.01-.52,.03-.09,0-.18,.02-.28,.03-.07,0-.14,0-.21,.01h-.04c-.17,.01-.34,0-.53,0h-.03l-.84,2.66h0s.03,.03,.05,.04c.03,.03,.07,.05,.1,.08,.9,.7,2.57,1.84,4.62,2.52,.03,0,.05,.02,.08,.03,.2,.06,.4,.13,.61,.18,.59,.16,1.14,.31,1.67,.46,2.62,.74,4.52,1.28,5.77,.66,.46-.23,.89-.53,1.31-.82,.87-.6,1.82-1.27,3.04-1.22,.35,.01,.71,.09,1.11,.24,.07,.02,.14,.05,.21,.08,.13,.06,.26,.12,.39,.2,.86,.51,1.42,1.35,1.54,2.33,.17,1.35-.51,2.71-1.85,3.73-.12,.09-.25,.18-.39,.25-.02,0-.03,.02-.05,.03-.12,.06-.23,.12-.36,.17-.03,.01-.07,.03-.1,.04-.11,.04-.22,.08-.33,.11-.04,.01-.08,.02-.12,.03-.11,.03-.22,.05-.34,.08-.04,0-.08,.02-.13,.02-.12,.02-.24,.04-.36,.05-.04,0-.07,0-.11,.01-.13,.01-.27,.02-.41,.03-.02,0-.05,0-.07,0-.49,.01-1-.02-1.48-.07-.02,0-.03,0-.05,0-.14-.02-.28-.04-.42-.06-.03,0-.06-.01-.09-.01-.12-.02-.24-.04-.36-.06-.03,0-.07-.01-.1-.02-.11-.02-.22-.04-.33-.07l-.09-.02c-.11-.02-.21-.05-.31-.07l-.08-.02c-.11-.03-.21-.05-.31-.08-.01,0-.03,0-.04-.01h-.03c-.22,.46-.48,.95-.78,1.42-.02,.03-.04,.06-.06,.09-.09,.13-.18,.27-.27,.4-.03,.04-.06,.07-.08,.11-.08,.11-.17,.22-.26,.33-.04,.04-.07,.09-.11,.13-.08,.1-.17,.2-.26,.29-.04,.04-.08,.09-.12,.13-.1,.11-.21,.21-.32,.31-.04,.04-.09,.08-.14,.12-.11,.09-.22,.18-.33,.27l-.04,.03c-.26,.21-.7,.38-1.15,.24-.02,0-.03,0-.05-.02h0c-.49-.18-.8-.65-.92-1.4-.1-.65-.25-2.38-.37-3.94h-.07c-.11-.01-.23-.02-.35-.04-.04,0-.07,0-.11-.01-.12-.01-.24-.02-.37-.04-.03,0-.06,0-.1-.01-.13-.02-.26-.03-.39-.05-.02,0-.04,0-.05,0-.57-.08-1.16-.19-1.73-.31-.06-.01-.13-.03-.2-.04-.08-.02-.17-.04-.25-.06-.09-.02-.17-.04-.26-.06l-.21-.05c-.1-.02-.19-.05-.29-.07-.06-.01-.12-.03-.18-.05-.1-.03-.2-.05-.3-.08-.05-.01-.1-.03-.15-.04-.11-.03-.21-.06-.31-.09-.04-.01-.08-.02-.13-.04-.11-.03-.21-.06-.31-.09-.03-.01-.07-.02-.1-.03-.1-.03-.2-.06-.3-.09-.03-.01-.06-.02-.09-.03-.1-.03-.19-.07-.29-.1-.02,0-.04-.01-.07-.02-.09-.03-.18-.07-.27-.1h-.04l-4.91-1.57h0c-.09-.02-.18-.05-.28-.08-.19-.05-.4-.11-.62-.18-.45-.14-.95-.32-1.48-.52l-.07-.03c-.22-.08-.44-.17-.66-.26-.09-.04-.19-.08-.28-.12-.15-.06-.3-.13-.45-.2-.14-.06-.28-.12-.41-.19-.11-.05-.21-.1-.32-.15-.17-.08-.33-.16-.49-.24-.07-.03-.14-.07-.21-.11-.18-.09-.36-.19-.54-.28l-.12-.07c-.19-.11-.39-.22-.57-.32h0c-.99,1.21-2.11,2.54-2.57,3.01-.53,.55-1.05,.75-1.55,.62-.02,0-.03,0-.05-.01h-.01c-.05-.02-.1-.04-.15-.07h-.02s-.09-.06-.13-.09h-.01s-.08-.07-.12-.11h0c-.18-.18-.3-.4-.36-.6-.06-.18-.11-.36-.15-.54,0-.04-.02-.08-.03-.11-.03-.14-.06-.27-.08-.41-.02-.1-.03-.19-.04-.29,0-.03,0-.06-.01-.1-.02-.21-.04-.42-.05-.63h0c-.02-.35-.01-.69,0-1.04h0c.01-.2,.03-.39,.05-.58,0-.07,.01-.13,.02-.2,0-.07,.02-.14,.03-.22,.02-.14,.04-.28,.07-.42,0-.02,0-.03,0-.05h-.03l-.05-.03c-.09-.03-.18-.07-.28-.1-.04-.01-.08-.03-.11-.04-.08-.03-.16-.06-.25-.1-.05-.02-.09-.04-.14-.06-.08-.03-.16-.07-.24-.1-.05-.02-.11-.05-.16-.07-.08-.04-.16-.07-.24-.11-.06-.03-.11-.05-.17-.08-.08-.04-.17-.08-.25-.13-.05-.03-.11-.06-.16-.09-.09-.05-.18-.1-.27-.16-.05-.03-.09-.05-.14-.08-.13-.08-.26-.16-.39-.25-.05-.03-.09-.06-.14-.1-.08-.06-.17-.11-.25-.17-.06-.04-.11-.09-.17-.13-.07-.05-.14-.11-.2-.16-.06-.05-.11-.1-.17-.15-.06-.06-.12-.11-.18-.17-.05-.05-.11-.11-.16-.16-.05-.06-.11-.12-.16-.17-.05-.06-.1-.12-.14-.18-.05-.06-.09-.12-.13-.18-.04-.06-.09-.12-.13-.19-.04-.06-.07-.13-.11-.19-.04-.07-.07-.13-.11-.2-.03-.07-.06-.15-.09-.22-.02-.06-.05-.12-.07-.18-.51-1.6-.28-3.1,.63-4.11,.76-.84,1.89-1.2,3.03-.96,.5,.11,.91,.28,1.25,.5,1.02,.66,1.42,1.75,1.79,2.75,.18,.48,.36,.97,.6,1.42,.25,.46,.67,.84,1.23,1.18,.93,.57,2.26,1.04,3.87,1.6,.52,.18,1.06,.37,1.63,.58,.2,.07,.4,.14,.6,.2,.02,0,.05,.01,.07,.02,2.2,.66,4.32,.65,5.42,.58l.84-2.67c-.36-.21-.65-.45-.88-.66-.14-.12-.35-.3-.42-.33h0c-.69,.21-1.32,.22-1.88,.02-.33-.12-.64-.32-.92-.59-.46-.44-.72-1.13-.7-1.84,.02-.61,.24-1.52,1.24-2.39,.12-.1,.24-.2,.37-.29h0c.12-.09,.25-.17,.37-.25h.01c.78-.47,1.63-.67,2.44-.61h0c.08-.08,.16-.17,.23-.26l.03-.04c.06-.1,.12-.2,.17-.31,.01-.02,.02-.05,.03-.08,.04-.11,.08-.22,.11-.33,.01-.05,.02-.1,.03-.14,.02-.11,.04-.21,.06-.32,0-.08,.01-.16,.02-.24,0-.09,.01-.18,.01-.28,0-.12,0-.24-.01-.37,0-.07,0-.13-.01-.2-.02-.18-.05-.37-.08-.55,0-.02,0-.03,0-.05-.04-.21-.1-.43-.17-.65-.87-2.76,.08-3.74,1.03-4.07,.47-.17,.8-.47,.85-.8,0-.04-.02-.2-.15-.31,0,0-.02,0-.03-.01-.22-.16-.66-.16-1.2,0-.92,.29-1.77,.26-2.51-.06-.75-.32-1.39-.95-1.89-1.85-.13-.23-.31-.37-.5-.45-.34-.12-.74-.04-1.07,.12-.9,.44-2.06,.48-3.11,.1h0c-.93-.33-2.24-1.16-3.17-3.19-.02-.04-.03-.08-.04-.12h0c-.06,.04-.13,.09-.19,.13-.19,.12-.38,.25-.57,.39-.13,.1-.26,.2-.39,.31-.14,.11-.28,.23-.42,.35-.12,.11-.25,.22-.37,.33-.16,.15-.31,.31-.46,.47-.13,.14-.26,.28-.39,.43-.17,.2-.34,.41-.51,.63-.09,.12-.18,.25-.27,.38-.13,.18-.25,.37-.38,.56-.08,.13-.17,.26-.25,.4-.15,.25-.29,.52-.43,.78-.04,.07-.08,.13-.11,.2-.5,.99-1.07,2.07-1.68,3.2-3.13,5.82-7.42,13.79-5.37,20.12,.88,2.7,2.52,4.71,4.26,6.07,.02,.02,.04,.03,.06,.05,.15,.12,.3,.22,.45,.33,.07,.05,.15,.1,.22,.15,.09,.06,.17,.11,.26,.16,.65,.42,1.31,.75,1.92,.99,.03,.01,.06,.03,.09,.04,.13,.05,.25,.09,.37,.13,.04,.01,.07,.03,.11,.04,.04,.01,.09,.02,.13,.04,.09,.03,.17,.05,.26,.07,.16,.04,.31,.08,.47,.11h.04c1.59,.31,2.94,.34,4.25,.38,.37,.01,.75,.02,1.13,.04h.04c.15,0,.3,.02,.45,.03,.07,0,.13,0,.2,.01,.13,0,.27,.02,.41,.03,.08,0,.17,.02,.25,.02,.13,.01,.26,.03,.39,.04,.09,.01,.19,.02,.28,.04,.13,.02,.26,.04,.38,.06,.1,.02,.21,.04,.31,.06,.13,.02,.25,.04,.38,.07,.12,.03,.25,.06,.38,.09,.11,.03,.22,.05,.33,.08l1.47-4.65c.21-.67,.92-1.03,1.59-.82h0c.66,.21,1.03,.92,.82,1.59l-1.47,4.65h0c.08,.03,.16,.07,.25,.1,.15,.06,.3,.12,.44,.18,.1,.04,.2,.09,.29,.13,.12,.05,.24,.11,.35,.16,.1,.05,.19,.1,.29,.15,.11,.06,.22,.11,.33,.17,.09,.05,.18,.1,.27,.15,.11,.06,.21,.12,.32,.18,.08,.05,.16,.1,.24,.14,.11,.07,.22,.14,.33,.2,.07,.04,.14,.09,.21,.13,.13,.08,.26,.17,.39,.25l.13,.08c.17,.11,.34,.23,.52,.34,.68,.45,1.38,.92,2.17,1.36,.05,.03,.11,.06,.16,.09,.11,.06,.21,.12,.32,.18,.11,.06,.22,.11,.33,.17,.06,.03,.12,.06,.18,.09,.1,.05,.21,.1,.31,.15,.07,.03,.15,.07,.22,.11h0c.16,.07,.32,.14,.49,.2,.08,.03,.16,.06,.24,.08,.05,.02,.09,.03,.13,.05,.04,.01,.08,.02,.12,.03,.12,.04,.24,.07,.37,.1,.03,0,.06,.02,.09,.02,.66,.16,1.41,.27,2.21,.3,.07,0,.14,0,.2,0,.12,0,.24,0,.36,0,.15,0,.3,0,.45,0,.06,0,.12,0,.18,0,1.9-.1,4.01-.64,6.01-1.89,.31-.19,.61-.39,.91-.62,5.31-4,6.39-12.98,7.18-19.54Zm-10.53,2.42c-3.23-1.02-5.02-4.48-4-7.7,1.02-3.23,4.48-5.02,7.7-4,3.23,1.02,5.02,4.48,4,7.7-1.02,3.23-4.48,5.02-7.7,4Zm-20.46-19.35c3.23,1.02,5.02,4.48,4,7.7-1.02,3.23-4.48,5.02-7.7,4-3.23-1.02-5.02-4.48-4-7.7,1.02-3.23,4.48-5.02,7.7-4Z"/>
          <path class="e" d="M79.7,88.66c.55,1.21,1.34,2.03,2.27,2.36,.77,.27,1.48,.16,1.88-.03,1.44-.71,2.94-.31,3.65,.98,.83,1.5,1.85,1.39,2.55,1.17,1.44-.45,2.29-.07,2.74,.33,.62,.54,.74,1.28,.67,1.75-.1,.58-.42,1.1-.91,1.49-.28,.22-.61,.41-.98,.54-.08,.03-.13,.07-.18,.13-.29,.38-.05,1.36,.14,1.97,.5,1.6,.54,3.51-.29,4.81,.16,.09,.31,.2,.45,.32,.34,.28,.38,.78,.1,1.11-.04,.05-.09,.09-.14,.13-.28,.21-.68,.21-.97-.03-.88-.73-2.21-.61-3.23,.29-.02,.02-.04,.04-.06,.06-.41,.38-.63,.79-.64,1.19,0,.35,.14,.59,.22,.67,.32,.31,.68,.37,1.26,.19,.87-.26,1.47,.27,1.91,.66,.31,.28,.6,.54,1.03,.66,.42,.15,.81,.1,1.22,.06,.58-.07,1.38-.16,1.94,.56,.37,.47,.7,.64,1.14,.57,.07-.01,.19-.06,.32-.16,.08-.06,.17-.14,.24-.25,.23-.35,.28-.84,.14-1.42-.32-1.32-1.34-2.18-2.48-2.1-.44,.03-.82-.29-.85-.72-.02-.23,.07-.44,.21-.6,.13-.14,.31-.23,.51-.25,.15-.01,.3-.01,.45,0,.03,0,.06,0,.1,0,.07-1.33,.91-2.66,2.01-3.65,.17-.16,.35-.31,.53-.45,.12-.09,.26-.2,.4-.32,.52-.45,1.05-1.05,.78-1.42-.64-.89-.78-1.92-.38-2.75,.08-.16,.2-.33,.36-.49,.28-.28,.68-.51,1.2-.57,.6-.06,1.52,.12,2.43,1.31,.44,.58,1.21,1.26,2.76,.51,1.32-.64,2.78-.11,3.55,1.3,.22,.39,.72,.89,1.52,1.11,.95,.26,2.06,.05,3.21-.63,.02-.01,.04-.02,.06-.03,.05-.02,.09-.04,.14-.05-1.73-2.89-4.77-5.12-8.99-6.45l-13.05-4.13c-4.21-1.33-7.98-1.26-11.06,.11,.01,.01,.02,.02,.03,.04,.03,.04,.06,.09,.08,.14Z"/>
          <path class="e" d="M79.62,103.88c2.18,.69,4.5-.52,5.19-2.7,.69-2.18-.52-4.5-2.7-5.19-2.18-.69-4.51,.52-5.19,2.7-.69,2.18,.52,4.5,2.7,5.19Z"/>
          <path class="e" d="M106.29,103.63c-2.18-.69-4.5,.52-5.19,2.7-.69,2.18,.52,4.5,2.7,5.19,2.18,.69,4.5-.52,5.19-2.7,.69-2.18-.52-4.5-2.7-5.19Z"/>
        </g>
        <path class="e" d="M32.83,103.76c4.23-8.61,19.44-5.75,23.52-.01,4.09,5.74,5.27,13.97,5.55,22.14,.28,8.16,7.55,7.81,12.74,10.92,0,0-6.3-.48-9.48,5.61-3.01,5.77-12.46-2.76-14.95-5.66-2.49-2.9,1.45-7.13-2.71-11.97-4.15-4.84-18.96-12.3-14.68-21.02Z"/>
        <path class="e" d="M-18.09,74.85c9.28-7.45,25.23,1.88,26.45,10.37,1.4,9.72-1.05,21.11-8.44,29.32-6.84,7.6,3.51,12.62,7.19,18.77,0,0-6.33-3.77-13.09,1.4-6.41,4.9-11.5-9.49-12.47-14.02-.98-4.53,5.54-7.23,3.91-14.78-1.63-7.55-12.94-23.51-3.54-31.06Z"/>
        <path class="e" d="M65.79,146.08s1.45-7.13,5.05-6.85c3.6,.27,5.88,5.88,5.75,7.68l-10.79-.82Z"/>
        <path class="e" d="M73.61,138.53s3.87-3.32,7.2,.55c3.32,3.87,2.15,7.4,2.15,7.4l-5.4-.41s1.17-3.53-3.95-7.54Z"/>
        <path class="e" d="M81.77,138.25s6.3,.48,6.72,6.85l-3.6-.27s.21-2.7-3.12-6.57Z"/>
        <path class="e" d="M-9,142.18s1.45-7.13,5.05-6.85c3.6,.27,5.88,5.88,5.75,7.68l-10.79-.82Z"/>
        <path class="e" d="M-1.19,134.64s3.87-3.32,7.2,.55c3.32,3.87,2.15,7.4,2.15,7.4l-5.4-.41s1.17-3.53-3.95-7.54Z"/>
        <path class="e" d="M6.98,134.35s6.3,.48,6.72,6.85l-3.6-.27s.21-2.7-3.12-6.57Z"/>
        <path class="e" d="M27.98,124.92c-2.29-.08-5.15,.47-8.1,2.72-6.41,4.9-11.5-9.49-12.47-14.02-.95-4.41,5.21-7.08,4.02-14.21,4.05,5.57,9.18,17.66,12.76,22.7,.85,1.2,2.19,2.11,3.78,2.82Z"/>
        <path class="e" d="M16.87,135.11s1.45-7.13,5.05-6.85c3.6,.27,5.88,5.88,5.75,7.68l-10.79-.82Z"/>
        <path class="e" d="M24.68,127.56s3.87-3.32,7.2,.55c3.32,3.87,2.15,7.4,2.15,7.4l-5.4-.41s1.17-3.53-3.95-7.54Z"/>
        <path class="e" d="M32.85,127.28s6.3,.48,6.72,6.85l-3.6-.27s.21-2.7-3.12-6.57Z"/>
        <path class="e" d="M95.82,143.85s1.45-7.13,5.05-6.85c3.6,.27,5.88,5.88,5.75,7.68l-10.79-.82Z"/>
        <path class="e" d="M103.63,136.3s3.87-3.32,7.2,.55c3.32,3.87,2.15,7.4,2.15,7.4l-5.4-.41s1.17-3.53-3.95-7.54Z"/>
        <path class="e" d="M111.8,136.02s6.3,.48,6.72,6.85l-3.6-.27s.21-2.7-3.12-6.57Z"/>
        <path class="e" d="M62.5,82.5c-6.23-1.38-13.22-4.63-18.96-12.3-5.75-7.68-17.58-18.53-32.88-19.7-15.29-1.17-32.92,16.49-30.77,23.89,11.48-8.17,22.76-1.88,28.65,4s-.27,15.36,3.96,19.3c4.22,3.94,10.32,18.88,14.41,24.62,4.09,5.74,19.51,5.11,19.51,5.11,.14-1.8-4.15-4.84-8.45-7.88-4.29-3.04-9.35-7.95-8.93-13.35,.41-5.4,5.46-12.25,17.98-10.39,12.13,1.8,15.7,15.68,15.92,16.55-.32-7.24,3.66-12.34,3.66-12.34,0,0-3.95-7.54-.91-11.83,3.04-4.29,10.03-1.04,10.03-1.04,1.04-1.73-6.99-3.25-13.22-4.63Zm-21.66,40.87c.75,.06,1.3,.71,1.25,1.45-.06,.75-.71,1.3-1.45,1.25-.75-.06-1.3-.71-1.25-1.45,.06-.75,.71-1.3,1.45-1.25Zm-5.33-1.31c.75,.06,1.3,.71,1.25,1.45-.06,.75-.71,1.3-1.45,1.25-.75-.06-1.3-.71-1.25-1.45,.06-.75,.71-1.3,1.45-1.25Zm-4.36-2.14c.75,.06,1.3,.71,1.25,1.45-.06,.75-.71,1.3-1.45,1.25-.75-.06-1.3-.71-1.25-1.45,.06-.75,.71-1.3,1.45-1.25Zm-2.08-2.42c-.06,.75-.71,1.3-1.45,1.25-.75-.06-1.3-.71-1.25-1.45,.06-.75,.71-1.3,1.45-1.25,.75,.06,1.3,.71,1.25,1.45Z"/>
      </g>
    </g>
  </g>
</svg>