<?xml version="1.0" encoding="UTF-8"?>
<svg id="b" data-name="圖層 2" xmlns="http://www.w3.org/2000/svg" width="374.53" height="132.9" xmlns:xlink="http://www.w3.org/1999/xlink" viewBox="0 0 374.53 132.9">
  <defs>
    <style>
      .k {
        opacity: .18;
      }

      .l {
        stroke: url(#d);
      }

      .l, .m, .n, .o, .p, .q, .r, .s {
        fill: #fc462d;
      }

      .l, .m, .o, .p, .q, .r, .t, .s, .u {
        stroke-miterlimit: 10;
      }

      .l, .m, .o, .p, .q, .r, .s {
        stroke-width: .41px;
      }

      .m {
        stroke: url(#e);
      }

      .o {
        stroke: url(#i);
      }

      .p {
        stroke: url(#h);
      }

      .q {
        stroke: url(#g);
      }

      .r {
        stroke: url(#j);
      }

      .v, .u {
        fill: none;
      }

      .t {
        fill: #ffe9d7;
        stroke: #da4e36;
        stroke-width: 2.46px;
      }

      .s {
        stroke: url(#f);
      }

      .u {
        stroke: #fc462d;
        stroke-width: .59px;
      }

      .w {
        fill: #da4e36;
      }
    </style>
    <pattern id="d" data-name="Unnamed Pattern" x="0" y="0" width="920.6" height="184.56" patternTransform="translate(-4633.13 -4591.15) scale(.41)" patternUnits="userSpaceOnUse" viewBox="0 0 920.6 184.56">
      <g>
        <rect class="v" width="920.6" height="184.56"/>
        <g class="k">
          <g>
            <path class="n" d="M0,26.15H129.49V2.49H0V26.15Zm49.18,56.03h31.13V24.53h-31.13v57.65Z"/>
            <path class="n" d="M173.06,82.17v-22.41h48.68c6.64,0,11.56,.25,14.75,.75,3.19,.5,5.27,1.39,6.23,2.68,.95,1.29,1.43,3.17,1.43,5.67v13.32h31.13v-17.06c0-3.65-1.06-6.45-3.17-8.4-2.12-1.95-5.85-3.3-11.21-4.05-5.35-.75-12.97-1.16-22.85-1.25l9.09,1.74c4.07-.17,7.97-.62,11.7-1.37,3.73-.75,7.05-1.95,9.96-3.61,2.9-1.66,5.19-3.98,6.85-6.97,1.66-2.99,2.49-6.76,2.49-11.33,0-6.89-1.76-12.33-5.29-16.31-3.53-3.98-8.3-6.83-14.32-8.53-6.02-1.7-12.8-2.55-20.36-2.55h-96.24V82.17h31.13Zm0-54.78h65.12c2.49,0,4.59,.4,6.29,1.18,1.7,.79,2.55,2.26,2.55,4.42,0,2.32-.85,3.9-2.55,4.73-1.7,.83-3.8,1.24-6.29,1.24h-65.12v-11.58Z"/>
            <path class="n" d="M322.1,82.17L367.92,10.83h-18.55l46.19,71.34h34.24L375.88,2.49h-34.61l-53.41,79.68h34.24Zm78.81-12.08v-18.68h-85.16v18.68h85.16Z"/>
            <path class="n" d="M439.75,2.49V82.17h31.13v-24.28h77.19v-21.17h-77.19v-10.58h94.38V2.49h-125.5Z"/>
            <path class="n" d="M580.2,2.49V82.17h31.13v-24.28h77.19v-21.17h-77.19v-10.58h94.38V2.49h-125.5Z"/>
            <path class="n" d="M722.51,82.17h31.13V2.49h-31.13V82.17Z"/>
            <path class="n" d="M888.1,48.93c-1,2.16-2.82,4.17-5.48,6.04-2.66,1.87-6.62,3.34-11.89,4.42-5.27,1.08-12.43,1.62-21.48,1.62-10.63,0-19.26-.62-25.9-1.87-6.64-1.25-11.5-3.19-14.57-5.85-3.07-2.66-4.61-6.1-4.61-10.33,0-4.65,1.54-8.38,4.61-11.21,3.07-2.82,7.93-4.88,14.57-6.16,6.64-1.29,15.27-1.93,25.9-1.93,9.05,0,16.23,.58,21.54,1.74,5.31,1.16,9.29,2.76,11.95,4.79,2.66,2.04,4.48,4.38,5.48,7.04h32.37c-.42-7.97-3.28-14.73-8.59-20.29-5.31-5.56-13.16-9.77-23.53-12.64-10.38-2.86-23.45-4.29-39.22-4.29-12.04,0-22.83,.71-32.37,2.12-9.55,1.41-17.68,3.76-24.4,7.03-6.72,3.28-11.87,7.68-15.44,13.2-3.57,5.52-5.35,12.39-5.35,20.61s1.78,15.02,5.35,20.42c3.57,5.4,8.72,9.65,15.44,12.76,6.72,3.11,14.86,5.31,24.4,6.6,9.54,1.29,20.34,1.93,32.37,1.93,15.77,0,28.82-1.33,39.16-3.98,10.33-2.66,18.16-6.64,23.47-11.95,5.31-5.31,8.17-11.91,8.59-19.8h-32.37Z"/>
            <path class="n" d="M36.11,182.07v-22.41h48.68c6.64,0,11.56,.25,14.75,.75,3.19,.5,5.27,1.39,6.23,2.68,.95,1.29,1.43,3.17,1.43,5.67v13.32h31.13v-17.06c0-3.65-1.06-6.45-3.17-8.4-2.12-1.95-5.85-3.3-11.21-4.05-5.35-.75-12.97-1.16-22.85-1.25l9.09,1.74c4.07-.17,7.97-.62,11.7-1.37,3.73-.75,7.05-1.95,9.96-3.61,2.9-1.66,5.19-3.98,6.85-6.97,1.66-2.99,2.49-6.76,2.49-11.33,0-6.89-1.76-12.33-5.29-16.31-3.53-3.98-8.3-6.83-14.32-8.53-6.02-1.7-12.81-2.55-20.36-2.55H4.98v79.68h31.13Zm0-54.78H101.22c2.49,0,4.59,.4,6.29,1.18,1.7,.79,2.55,2.26,2.55,4.42,0,2.32-.85,3.9-2.55,4.73-1.7,.83-3.8,1.24-6.29,1.24H36.11v-11.58Z"/>
            <path class="n" d="M276.16,179.77c11.04-3.19,19.07-7.93,24.09-14.19,5.02-6.27,7.53-14.05,7.53-23.34s-2.51-17.08-7.53-23.34c-5.02-6.27-13.05-11-24.09-14.19-11.04-3.19-25.61-4.79-43.7-4.79s-32.66,1.6-43.7,4.79c-11.04,3.2-19.07,7.93-24.09,14.19-5.02,6.27-7.53,14.05-7.53,23.34s2.51,17.08,7.53,23.34c5.02,6.27,13.05,11,24.09,14.19,11.04,3.19,25.61,4.79,43.7,4.79s32.66-1.6,43.7-4.79Zm-66.18-20.42c-6.43-1.04-11.45-2.9-15.06-5.6-3.61-2.7-5.42-6.54-5.42-11.52s1.81-8.82,5.42-11.52c3.61-2.7,8.63-4.56,15.06-5.6,6.43-1.04,13.92-1.56,22.47-1.56s15.94,.52,22.16,1.56c6.23,1.04,11.04,2.91,14.44,5.6,3.4,2.7,5.1,6.54,5.1,11.52s-1.7,8.82-5.1,11.52c-3.4,2.7-8.22,4.57-14.44,5.6-6.23,1.04-13.61,1.56-22.16,1.56s-16.04-.52-22.47-1.56Z"/>
            <path class="n" d="M430.98,151.81c-3.28,3.49-7.95,5.87-14.01,7.16-6.06,1.29-13.2,1.93-21.42,1.93s-15.71-.64-21.73-1.93c-6.02-1.29-10.65-3.67-13.88-7.16-3.24-3.49-4.86-8.55-4.86-15.19v-34.24h-31.13v39.84c0,7.06,1.26,13.05,3.8,17.99,2.53,4.94,6.04,9.01,10.52,12.2,4.48,3.2,9.73,5.67,15.75,7.41,6.02,1.74,12.55,2.97,19.61,3.67,7.05,.71,14.36,1.06,21.91,1.06,7.14,0,14.17-.35,21.1-1.06,6.93-.71,13.43-1.93,19.48-3.67,6.06-1.74,11.41-4.21,16.06-7.41,4.65-3.19,8.28-7.26,10.89-12.2,2.61-4.94,3.92-10.94,3.92-17.99v-39.84h-31.13v34.24c0,6.64-1.64,11.7-4.92,15.19Z"/>
            <path class="n" d="M479.47,126.04h129.49v-23.66h-129.49v23.66Zm49.18,56.03h31.13v-57.65h-31.13v57.65Z"/>
            <path class="n" d="M729.73,148.45v-12.45h-77.19v-9.96h94.38v-23.66h-125.5v79.68h125.75v-23.66h-94.62v-9.96h77.19Z"/>
            <path class="n" d="M761.79,163.7c1.87,3.28,4.59,6.22,8.16,8.84,3.57,2.61,7.93,4.81,13.07,6.6,5.15,1.79,11.02,3.13,17.62,4.05,6.6,.91,13.84,1.37,21.73,1.37,13.94,0,25.23-.96,33.87-2.86,8.63-1.91,14.94-4.86,18.92-8.84,3.98-3.98,5.98-9.13,5.98-15.44,0-3.65-.87-6.83-2.61-9.52-1.74-2.7-4.54-4.92-8.4-6.66-3.86-1.74-8.9-3.05-15.13-3.92-6.23-.87-13.78-1.31-22.66-1.31-8.05,0-14.69-.08-19.92-.25-5.23-.17-9.28-.48-12.14-.93-2.86-.46-4.88-1.06-6.04-1.81-1.16-.75-1.74-1.74-1.74-2.99,0-2.41,2.1-4.11,6.29-5.1,4.19-1,10.6-1.49,19.24-1.49s15.44,.73,20.17,2.18c4.73,1.45,7.3,3.55,7.72,6.29h32.25c0-10.38-5.04-18.32-15.13-23.84-10.08-5.52-24.67-8.28-43.76-8.28-13.03,0-23.89,1.02-32.56,3.05-8.67,2.03-15.15,5.1-19.42,9.21-4.28,4.11-6.41,9.32-6.41,15.63,0,3.65,.91,6.79,2.74,9.4,1.83,2.61,4.67,4.77,8.53,6.47,3.86,1.7,8.8,2.95,14.82,3.73,6.02,.79,13.18,1.18,21.48,1.18,11.12,0,19.75,.17,25.9,.5,6.14,.33,10.42,.93,12.82,1.8,2.41,.87,3.61,2.1,3.61,3.67,0,1.66-.75,2.97-2.24,3.92-1.49,.96-4.05,1.62-7.66,1.99-3.61,.37-8.53,.56-14.75,.56s-11.85-.31-16.62-.93c-4.77-.62-8.57-1.54-11.39-2.74-2.82-1.2-4.52-2.68-5.1-4.42h-33.99c0,3.98,.93,7.62,2.8,10.89Z"/>
          </g>
        </g>
      </g>
    </pattern>
    <pattern id="e" data-name="Unnamed Pattern" patternTransform="translate(-4626.12 -4591.15) scale(.41)" xlink:href="#d"/>
    <pattern id="f" data-name="Unnamed Pattern" patternTransform="translate(-4626.12 -4591.15) scale(.41)" xlink:href="#d"/>
    <pattern id="g" data-name="Unnamed Pattern" patternTransform="translate(-4626.12 -4591.15) scale(.41)" xlink:href="#d"/>
    <pattern id="h" data-name="Unnamed Pattern" patternTransform="translate(-4626.12 -4591.15) scale(.41)" xlink:href="#d"/>
    <pattern id="i" data-name="Unnamed Pattern" patternTransform="translate(-4626.12 -4591.15) scale(.41)" xlink:href="#d"/>
    <pattern id="j" data-name="Unnamed Pattern" patternTransform="translate(-4626.12 -4591.15) scale(.41)" xlink:href="#d"/>
  </defs>
  <g id="c" data-name="圖層 2">
    <g class="k">
      <g>
        <polygon class="l" points="20.19 33.6 32.84 33.6 32.84 10.83 52.82 10.83 52.82 1.21 .2 1.21 .2 10.83 20.19 10.83 20.19 33.6"/>
        <path class="l" d="M70.53,24.49h19.78c2.7,0,4.7,.1,6,.3,1.3,.2,2.14,.57,2.53,1.09,.39,.52,.58,1.29,.58,2.3v5.41h12.65v-6.93c0-1.48-.43-2.62-1.29-3.41-.86-.79-2.38-1.34-4.55-1.64-.52-.07-1.1-.14-1.73-.19,.3-.05,.6-.1,.89-.16,1.52-.3,2.87-.79,4.05-1.47,1.18-.67,2.11-1.62,2.78-2.83,.67-1.21,1.01-2.75,1.01-4.6,0-2.8-.72-5.01-2.15-6.63-1.43-1.62-3.37-2.77-5.82-3.47-2.45-.69-5.2-1.04-8.27-1.04H57.88V33.6h12.65v-9.11Zm0-13.16h26.46c1.01,0,1.86,.16,2.56,.48,.69,.32,1.04,.92,1.04,1.8,0,.94-.35,1.59-1.04,1.92-.69,.34-1.54,.51-2.56,.51h-26.46v-4.71Z"/>
        <path class="l" d="M157.77,28.69l3.18,4.91h13.91L152.96,1.21h-14.07l-21.71,32.38h13.91l3.15-4.91h23.52Zm-18.65-7.59l6.84-10.65,6.9,10.65h-13.73Z"/>
        <polygon class="l" points="222.93 15.13 191.56 15.13 191.56 10.83 229.91 10.83 229.91 1.21 178.91 1.21 178.91 33.6 191.56 33.6 191.56 23.73 222.93 23.73 222.93 15.13"/>
        <polygon class="l" points="280.01 15.13 248.64 15.13 248.64 10.83 286.99 10.83 286.99 1.21 235.99 1.21 235.99 33.6 248.64 33.6 248.64 23.73 280.01 23.73 280.01 15.13"/>
        <rect class="l" x="293.82" y="1.21" width="12.65" height="32.38"/>
        <path class="l" d="M358.89,22.54c-1.08,.76-2.69,1.36-4.83,1.8-2.14,.44-5.05,.66-8.73,.66-4.32,0-7.83-.25-10.52-.76-2.7-.51-4.67-1.3-5.92-2.38-1.25-1.08-1.87-2.48-1.87-4.2,0-1.89,.62-3.41,1.87-4.55,1.25-1.15,3.22-1.98,5.92-2.5,2.7-.52,6.21-.78,10.52-.78,3.68,0,6.59,.24,8.75,.71,2.16,.47,3.78,1.12,4.86,1.95,1.08,.83,1.82,1.78,2.23,2.86h13.16c-.17-3.24-1.33-5.99-3.49-8.25-2.16-2.26-5.35-3.97-9.56-5.14-4.22-1.16-9.53-1.75-15.94-1.75-4.89,0-9.28,.29-13.16,.86-3.88,.57-7.18,1.53-9.92,2.86-2.73,1.33-4.82,3.12-6.27,5.36-1.45,2.24-2.18,5.03-2.18,8.37s.72,6.11,2.18,8.3c1.45,2.19,3.54,3.92,6.27,5.19,2.73,1.26,6.04,2.16,9.92,2.68,3.88,.52,8.26,.78,13.16,.78,6.41,0,11.71-.54,15.91-1.62,4.2-1.08,7.38-2.7,9.54-4.86,2.16-2.16,3.32-4.84,3.49-8.05h-13.16c-.4,.88-1.15,1.69-2.23,2.45Z"/>
      </g>
      <g>
        <path class="m" d="M56.62,42.85c-2.45-.69-5.2-1.04-8.27-1.04H9.24v32.38h12.65v-9.11h19.78c2.7,0,4.7,.1,6,.3,1.3,.2,2.14,.57,2.53,1.09,.39,.52,.58,1.29,.58,2.3v5.41h12.65v-6.93c0-1.48-.43-2.62-1.29-3.41-.86-.79-2.38-1.34-4.55-1.64-.52-.07-1.1-.14-1.73-.19,.3-.05,.6-.1,.89-.16,1.52-.3,2.87-.79,4.05-1.47,1.18-.67,2.11-1.62,2.78-2.83,.67-1.21,1.01-2.75,1.01-4.6,0-2.8-.72-5.01-2.15-6.63-1.43-1.62-3.37-2.77-5.82-3.47Zm-34.74,13.79v-4.71h26.46c1.01,0,1.86,.16,2.56,.48,.69,.32,1.04,.92,1.04,1.8,0,.94-.35,1.59-1.04,1.92-.69,.34-1.54,.51-2.56,.51H21.89Z"/>
        <path class="s" d="M119.44,42.75c-4.49-1.3-10.41-1.95-17.76-1.95s-13.27,.65-17.76,1.95c-4.49,1.3-7.75,3.22-9.79,5.77-2.04,2.55-3.06,5.71-3.06,9.49s1.02,6.94,3.06,9.49c2.04,2.55,5.3,4.47,9.79,5.77,4.49,1.3,10.41,1.95,17.76,1.95s13.27-.65,17.76-1.95c4.49-1.3,7.75-3.22,9.79-5.77,2.04-2.55,3.06-5.71,3.06-9.49s-1.02-6.94-3.06-9.49c-2.04-2.55-5.3-4.47-9.79-5.77Zm-2.88,19.94c-1.38,1.1-3.34,1.86-5.87,2.28-2.53,.42-5.53,.63-9.01,.63s-6.52-.21-9.13-.63c-2.61-.42-4.65-1.18-6.12-2.28-1.47-1.1-2.2-2.66-2.2-4.68s.73-3.58,2.2-4.68c1.47-1.1,3.51-1.85,6.12-2.28,2.61-.42,5.66-.63,9.13-.63s6.48,.21,9.01,.63c2.53,.42,4.49,1.18,5.87,2.28,1.38,1.1,2.07,2.66,2.07,4.68s-.69,3.58-2.07,4.68Z"/>
        <path class="q" d="M184.36,55.73c0,2.7-.67,4.76-2,6.17-1.33,1.42-3.23,2.39-5.69,2.91-2.46,.52-5.36,.78-8.7,.78s-6.38-.26-8.83-.78c-2.45-.52-4.33-1.49-5.64-2.91-1.32-1.42-1.97-3.47-1.97-6.17v-13.91h-12.65v16.19c0,2.87,.51,5.3,1.54,7.31,1.03,2.01,2.45,3.66,4.28,4.96,1.82,1.3,3.95,2.3,6.4,3.01,2.45,.71,5.1,1.21,7.97,1.49,2.87,.29,5.84,.43,8.91,.43,2.9,0,5.76-.14,8.58-.43,2.82-.29,5.46-.78,7.92-1.49,2.46-.71,4.64-1.71,6.53-3.01,1.89-1.3,3.36-2.95,4.43-4.96,1.06-2.01,1.59-4.44,1.59-7.31v-16.19h-12.65v13.91Z"/>
        <polygon class="p" points="202.07 51.42 222.05 51.42 222.05 74.19 234.7 74.19 234.7 51.42 254.69 51.42 254.69 41.81 202.07 41.81 202.07 51.42"/>
        <polygon class="o" points="272.4 60.53 303.77 60.53 303.77 55.47 272.4 55.47 272.4 51.42 310.75 51.42 310.75 41.81 259.75 41.81 259.75 74.19 310.85 74.19 310.85 64.58 272.4 64.58 272.4 60.53"/>
        <path class="r" d="M360.82,57.6c-1.57-.71-3.62-1.24-6.15-1.59-2.53-.35-5.6-.53-9.21-.53-3.27,0-5.97-.03-8.1-.1-2.12-.07-3.77-.19-4.93-.38-1.16-.18-1.98-.43-2.45-.73-.47-.3-.71-.71-.71-1.21,0-.98,.85-1.67,2.56-2.07,1.7-.4,4.31-.61,7.82-.61s6.27,.3,8.2,.89c1.92,.59,2.97,1.44,3.14,2.56h13.1c0-4.22-2.05-7.45-6.15-9.69-4.1-2.24-10.03-3.36-17.79-3.36-5.3,0-9.71,.41-13.23,1.24-3.53,.83-6.16,2.07-7.89,3.74-1.74,1.67-2.61,3.79-2.61,6.35,0,1.48,.37,2.76,1.11,3.82,.74,1.06,1.9,1.94,3.47,2.63,1.57,.69,3.58,1.2,6.02,1.52,2.45,.32,5.35,.48,8.73,.48,4.52,0,8.03,.07,10.52,.2,2.5,.13,4.23,.38,5.21,.73,.98,.35,1.47,.85,1.47,1.49,0,.68-.3,1.21-.91,1.59-.61,.39-1.64,.66-3.11,.81-1.47,.15-3.47,.23-6,.23s-4.82-.13-6.75-.38c-1.94-.25-3.48-.62-4.63-1.11-1.15-.49-1.84-1.09-2.07-1.8h-13.81c0,1.62,.38,3.1,1.14,4.43,.76,1.33,1.86,2.53,3.31,3.59,1.45,1.06,3.22,1.96,5.31,2.68,2.09,.73,4.48,1.27,7.16,1.64,2.68,.37,5.62,.56,8.83,.56,5.67,0,10.25-.39,13.76-1.16,3.51-.78,6.07-1.97,7.69-3.59,1.62-1.62,2.43-3.71,2.43-6.27,0-1.48-.35-2.77-1.06-3.87-.71-1.1-1.85-2-3.42-2.71Z"/>
      </g>
    </g>
    <g>
      <circle class="t" cx="91.31" cy="100.62" r="28.82"/>
      <circle class="t" cx="155.28" cy="100.62" r="28.82"/>
      <circle class="t" cx="219.05" cy="100.62" r="28.82"/>
      <circle class="t" cx="283.03" cy="100.62" r="28.82"/>
      <path class="w" d="M102.04,100.14c-1.71,3.98-3.97,7.31-6.75,10.04,4.1,2.69,9.23,4.53,15.51,5.47-1.11,1.11-2.44,3.21-3.08,4.57-6.75-1.28-12.1-3.46-16.41-6.71-4.53,3.21-10.04,5.39-16.33,6.92-.6-1.15-2.09-3.42-3.08-4.53,6.2-1.2,11.46-3.03,15.64-5.81-2.52-2.74-4.62-6.03-6.24-9.83l4.57-1.41c1.28,3.12,3.12,5.9,5.47,8.21,2.44-2.31,4.32-5.09,5.56-8.42l5.13,1.5Zm-14.45-6.97c-2.91,3.76-7.52,7.65-11.33,9.96-.94-1.03-2.86-2.86-4.02-3.72,3.8-1.92,7.95-5.04,10.43-8.12l4.92,1.88Zm22.44-2.27h-37.48v-4.96h16.67c-.6-1.41-1.41-2.95-2.18-4.23l4.87-1.71c1.15,1.84,2.56,4.27,3.12,5.9l-.13,.04h15.13v4.96Zm-10.64,.13c3.68,2.52,8.63,6.28,10.98,9.02l-4.36,3.29c-2.09-2.65-6.84-6.67-10.64-9.45l4.02-2.86Z"/>
      <path class="w" d="M147.34,100.52c-.73,3.89-1.88,7.91-3.33,11.11,.68,.43,1.5,1.03,2.65,1.71,2.91,1.75,6.92,2.01,11.92,2.01s12.57-.43,17.27-1.11c-.56,1.37-1.41,3.85-1.45,5.21-3.55,.21-11.07,.51-16.07,.51-5.68,0-9.27-.47-12.35-2.27-1.8-.98-3.29-2.39-4.19-2.39-.98,0-2.52,2.91-3.55,5.34l-3.42-4.83c1.5-1.79,3.08-3.21,4.49-4.06,.98-2.14,1.84-4.83,2.48-7.44h-5.39c.98-2.52,2.14-5.94,3.08-9.27h-3.85v-4.53h10c-.9,2.99-1.92,6.41-2.91,9.4h1.71l.77-.17,2.14,.77Zm-7.18-11.24c-.47-1.92-1.58-5.04-2.31-7.35l4.49-1.37c.77,2.31,1.88,5.17,2.48,7.09l-4.66,1.62Zm13.98,23.98h-4.79v-22.01h9.57c-1.97-.9-3.98-1.75-5.73-2.48l3.29-2.69c1.5,.56,3.29,1.24,5,2.01,1.2-.68,2.35-1.45,3.42-2.27h-15.17v-3.85h19.62l1.03-.26,2.99,2.39c-2.14,2.05-4.83,4.15-7.61,5.81,.94,.47,1.84,.9,2.56,1.33h5.17v17.61c0,2.09-.38,3.12-1.75,3.8-1.32,.73-3.21,.73-5.73,.73-.21-1.24-.73-2.86-1.28-3.97,1.37,.04,2.82,.04,3.25,.04,.51-.04,.64-.21,.64-.64v-1.97h-5.04v6.24h-4.53v-6.24h-4.92v6.41Zm0-18.33v2.31h4.92v-2.31h-4.92Zm4.92,8.25v-2.39h-4.92v2.39h4.92Zm9.57-8.25h-5.04v2.31h5.04v-2.31Zm0,8.25v-2.39h-5.04v2.39h5.04Z"/>
      <path class="u" d="M98.55,73.59c-.89-.23-1.72-.89-2.19-1.68-.98-1.69-2.44-3.26-5.06-3.28-1.83-.01-3.95,.65-5.06,2.08-.08,.1-.12,.28,0,.43,.22,.31,.27,.6,.19,.9-.14,.54-.74,.84-1.27,1.12-.35,.18-.72,.33-1.11,.43-.88,.25-1.93,.09-2.73-.36-1.7-.97-3.74-1.6-6.02-.31-1.59,.9-3.09,2.54-3.35,4.33-.02,.13,.04,.3,.22,.37,.35,.16,.54,.38,.62,.69,.14,.54-.22,1.09-.54,1.6-.21,.33-.46,.65-.75,.93-.64,.66-1.63,1.05-2.54,1.06-1.96,0-4.04,.48-5.37,2.74-.93,1.57-1.41,3.74-.74,5.42,.05,.12,.19,.23,.38,.22,.38-.04,.65,.05,.88,.28,.4,.4,.36,1.06,.33,1.66-.01,.39-.07,.78-.18,1.18-.23,.9-.89,1.72-1.68,2.19-1.69,.98-3.26,2.44-3.28,5.06-.01,1.83,.65,3.95,2.08,5.06,.1,.08,.28,.11,.43,0,.31-.23,.6-.28,.9-.2,.54,.14,.84,.74,1.12,1.27,.18,.35,.33,.72,.43,1.11,.25,.89,.09,1.93-.36,2.73-.97,1.7-1.6,3.74-.31,6.02,.9,1.59,2.53,3.09,4.33,3.34,.13,.02,.3-.04,.37-.22,.16-.35,.38-.53,.69-.62,.54-.15,1.1,.22,1.6,.54,.33,.21,.65,.46,.93,.75,.67,.65,1.05,1.63,1.06,2.55,0,1.96,.48,4.04,2.74,5.37,1.57,.93,3.74,1.41,5.42,.73,.12-.05,.23-.19,.22-.37-.04-.38,.05-.66,.28-.88,.4-.4,1.06-.36,1.66-.34,.39,.01,.79,.07,1.18,.18,.9,.23,1.72,.89,2.19,1.68,.98,1.69,2.44,3.26,5.06,3.28,1.83,.01,3.95-.65,5.06-2.07,.08-.1,.11-.28,0-.44-.23-.31-.28-.6-.2-.9,.15-.55,.74-.84,1.27-1.12,.35-.19,.73-.33,1.11-.43,.89-.26,1.94-.09,2.73,.36,1.7,.97,3.74,1.6,6.02,.31,1.59-.9,3.09-2.54,3.34-4.32,.02-.13-.04-.29-.22-.37-.35-.16-.53-.38-.62-.68-.14-.55,.22-1.1,.54-1.6,.21-.33,.46-.65,.75-.93,.64-.67,1.63-1.05,2.55-1.05,1.96-.01,4.04-.49,5.37-2.74,.92-1.58,1.4-3.75,.73-5.42-.05-.12-.19-.23-.38-.21-.38,.04-.66-.06-.88-.29-.4-.4-.36-1.06-.34-1.65,.01-.39,.07-.79,.18-1.18,.23-.9,.89-1.72,1.68-2.19,1.69-.98,3.26-2.44,3.28-5.05,.02-1.83-.65-3.95-2.07-5.06-.1-.08-.28-.12-.43,0-.31,.22-.6,.27-.9,.19-.55-.14-.84-.74-1.12-1.27-.18-.35-.33-.72-.44-1.11-.25-.88-.09-1.93,.36-2.73,.97-1.7,1.6-3.74,.31-6.02-.9-1.59-2.54-3.09-4.33-3.34-.13-.02-.29,.04-.37,.22-.16,.35-.38,.54-.68,.62-.55,.14-1.1-.22-1.6-.54-.33-.21-.65-.46-.93-.75-.67-.64-1.05-1.63-1.05-2.55-.01-1.96-.49-4.04-2.74-5.37-1.58-.93-3.75-1.41-5.42-.74-.12,.05-.23,.19-.21,.38,.04,.38-.06,.65-.29,.88-.4,.4-1.06,.36-1.65,.33-.39-.01-.79-.07-1.18-.18h0Z"/>
      <path class="u" d="M162.52,73.59c-.89-.23-1.72-.89-2.19-1.68-.98-1.69-2.44-3.26-5.06-3.28-1.83-.01-3.95,.65-5.06,2.08-.08,.1-.12,.28,0,.43,.22,.31,.27,.6,.19,.9-.14,.54-.74,.84-1.27,1.12-.35,.18-.72,.33-1.11,.43-.88,.25-1.93,.09-2.73-.36-1.7-.97-3.74-1.6-6.02-.31-1.59,.9-3.09,2.54-3.35,4.33-.02,.13,.04,.3,.22,.37,.35,.16,.54,.38,.62,.69,.14,.54-.22,1.09-.54,1.6-.21,.33-.46,.65-.75,.93-.64,.66-1.63,1.05-2.54,1.06-1.96,0-4.04,.48-5.37,2.74-.93,1.57-1.41,3.74-.74,5.42,.05,.12,.19,.23,.38,.22,.38-.04,.65,.05,.88,.28,.4,.4,.36,1.06,.33,1.66-.01,.39-.07,.78-.18,1.18-.23,.9-.89,1.72-1.68,2.19-1.69,.98-3.26,2.44-3.28,5.06-.01,1.83,.65,3.95,2.08,5.06,.1,.08,.28,.11,.43,0,.31-.23,.6-.28,.9-.2,.54,.14,.84,.74,1.12,1.27,.18,.35,.33,.72,.43,1.11,.25,.89,.09,1.93-.36,2.73-.97,1.7-1.6,3.74-.31,6.02,.9,1.59,2.53,3.09,4.33,3.34,.13,.02,.3-.04,.37-.22,.16-.35,.38-.53,.69-.62,.54-.15,1.1,.22,1.6,.54,.33,.21,.65,.46,.93,.75,.67,.65,1.05,1.63,1.06,2.55,0,1.96,.48,4.04,2.74,5.37,1.57,.93,3.74,1.41,5.42,.73,.12-.05,.23-.19,.22-.37-.04-.38,.05-.66,.28-.88,.4-.4,1.06-.36,1.66-.34,.39,.01,.79,.07,1.18,.18,.9,.23,1.72,.89,2.19,1.68,.98,1.69,2.44,3.26,5.06,3.28,1.83,.01,3.95-.65,5.06-2.07,.08-.1,.11-.28,0-.44-.23-.31-.28-.6-.2-.9,.15-.55,.74-.84,1.27-1.12,.35-.19,.73-.33,1.11-.43,.89-.26,1.94-.09,2.73,.36,1.7,.97,3.74,1.6,6.02,.31,1.59-.9,3.09-2.54,3.34-4.32,.02-.13-.04-.29-.22-.37-.35-.16-.53-.38-.62-.68-.14-.55,.22-1.1,.54-1.6,.21-.33,.46-.65,.75-.93,.64-.67,1.63-1.05,2.55-1.05,1.96-.01,4.04-.49,5.37-2.74,.92-1.58,1.4-3.75,.73-5.42-.05-.12-.19-.23-.38-.21-.38,.04-.66-.06-.88-.29-.4-.4-.36-1.06-.34-1.65,.01-.39,.07-.79,.18-1.18,.23-.9,.89-1.72,1.68-2.19,1.69-.98,3.26-2.44,3.28-5.05,.02-1.83-.65-3.95-2.07-5.06-.1-.08-.28-.12-.43,0-.31,.22-.6,.27-.9,.19-.55-.14-.84-.74-1.12-1.27-.18-.35-.33-.72-.44-1.11-.25-.88-.09-1.93,.36-2.73,.97-1.7,1.6-3.74,.31-6.02-.9-1.59-2.54-3.09-4.33-3.34-.13-.02-.29,.04-.37,.22-.16,.35-.38,.54-.68,.62-.55,.14-1.1-.22-1.6-.54-.33-.21-.65-.46-.93-.75-.67-.64-1.05-1.63-1.05-2.55-.01-1.96-.49-4.04-2.74-5.37-1.58-.93-3.75-1.41-5.42-.74-.12,.05-.23,.19-.21,.38,.04,.38-.06,.65-.29,.88-.4,.4-1.06,.36-1.65,.33-.39-.01-.79-.07-1.18-.18h0Z"/>
      <path class="w" d="M236.79,85.82c-1.33,4.49-3.33,8.29-5.94,11.5,2.48,1.97,5.43,3.68,8.85,4.74-1.03,.98-2.48,2.95-3.16,4.27l-.09-.04v13.98h-4.87v-1.33h-8.04v1.45h-4.7v-13.89l-.98,.43c-.34-.68-.94-1.62-1.58-2.44v1.24h-4.7v5.68l5.04-1.15,.47,4.49c-5.98,1.5-12.48,2.99-17.31,4.1l-.9-4.87,1.92-.34v-14.36h4.15v13.51l2.14-.43v-16.07h-5.98v-14.15h14.75v10.6c3.12-2.99,5.68-7.52,7.09-12.18l4.83,1.2c-.34,.94-.68,1.92-1.07,2.86h5.98l.9-.17,3.21,1.37Zm-31.24,6.11h5.64v-5.43h-5.68l.04,5.43Zm10.73,10.69c2.95-1.28,5.77-3.12,8.16-5.34-1.03-1.24-1.88-2.52-2.65-3.76-.81,1.07-1.67,2.05-2.52,2.95-.73-.77-2.27-2.14-3.42-2.91v2.74h-4.27v5h4.7v1.32Zm16.71,2.01c-1.97-1.15-3.72-2.44-5.34-3.89-1.62,1.5-3.38,2.74-5.26,3.89h10.6Zm-1.41,9.96v-5.68h-8.04v5.68h8.04Zm-6.92-25.64l-.34,.64c.85,1.45,1.92,2.95,3.12,4.4,1.24-1.58,2.26-3.25,3.12-5.04h-5.9Z"/>
      <path class="w" d="M275,107.19c-.09-.56-.17-1.2-.3-1.88-7.74,1.11-9.15,1.54-10.09,1.97-.26-.94-1.07-3.29-1.67-4.57,1.15-.3,2.09-1.24,3.46-2.82,.47-.6,1.45-1.75,2.56-3.38-3.12,.38-4.06,.64-4.7,.94-.26-.94-1.03-3.16-1.58-4.4,.86-.21,1.54-1.03,2.39-2.27,.86-1.2,3.38-5.86,4.74-10.34l4.62,1.92c-1.45,3.42-3.46,7.05-5.51,10.04l2.86-.21c1.11-1.8,2.18-3.76,3.04-5.68l4.32,2.65c-1.62,2.99-3.55,5.98-5.68,8.8l3.16-.9c.98,2.86,1.97,6.62,2.27,8.89l-3.89,1.24Zm-6.41,2.05c-.34,3.93-1.03,8.12-1.92,10.81-.81-.43-2.74-1.03-3.76-1.33,1.03-2.56,1.54-6.5,1.79-10.09l3.89,.6Zm4.23-.68c.47,2.86,.85,6.54,.94,9.06l-3.76,.64c0-2.44-.34-6.2-.73-9.06l3.55-.64Zm1.03-7.14c-.21-1.03-.51-2.05-.77-2.95-.9,1.15-1.84,2.31-2.78,3.38l3.55-.43Zm2.99,5.9c.68,1.88,1.41,4.27,1.75,5.9l-3.46,1.15c-.26-1.58-.98-4.15-1.62-5.98l3.33-1.07Zm11.92-3.16c-1.41,6.62-4.57,11.54-9.02,14.28-.6-1.03-1.92-2.69-2.86-3.55,2.65-1.45,4.92-4.32,6.24-7.52h-3.85v-4.1h5.68l.77-.13,3.03,1.03Zm13.93,.3c-1.97,1.54-3.89,3.21-5.64,4.49,1.67,2.48,3.76,4.62,6.24,5.9-1.07,.94-2.61,2.78-3.33,4.06-2.48-1.71-4.53-4.19-6.15-7.14v3.68c0,2.27-.38,3.5-1.88,4.32-1.41,.73-3.42,.81-6.15,.81-.17-1.37-.77-3.33-1.37-4.66,1.58,.09,3.33,.09,3.85,.04,.56,0,.73-.13,.73-.6v-14.7h-8.16v-15.56h6.07c.56-1.54,1.07-3.21,1.37-4.53l5.81,1.03c-.64,1.24-1.32,2.39-1.92,3.5h9.15v15.56h-7.48v1.37c.38,1.2,.81,2.35,1.28,3.42,1.41-1.32,2.86-2.91,3.8-4.15l3.8,3.16Zm-17.18-13.42h10.86v-2.14h-10.86v2.14Zm0,5.81h10.86v-2.27h-10.86v2.27Z"/>
      <path class="u" d="M226.29,73.59c-.89-.23-1.72-.89-2.19-1.68-.98-1.69-2.44-3.26-5.06-3.28-1.83-.01-3.95,.65-5.06,2.08-.08,.1-.12,.28,0,.43,.22,.31,.27,.6,.19,.9-.14,.54-.74,.84-1.27,1.12-.35,.18-.72,.33-1.11,.43-.88,.25-1.93,.09-2.73-.36-1.7-.97-3.74-1.6-6.02-.31-1.59,.9-3.09,2.54-3.35,4.33-.02,.13,.04,.3,.22,.37,.35,.16,.54,.38,.62,.69,.14,.54-.22,1.09-.54,1.6-.21,.33-.46,.65-.75,.93-.64,.66-1.63,1.05-2.54,1.06-1.96,0-4.04,.48-5.37,2.74-.93,1.57-1.41,3.74-.74,5.42,.05,.12,.19,.23,.38,.22,.38-.04,.65,.05,.88,.28,.4,.4,.36,1.06,.33,1.66-.01,.39-.07,.78-.18,1.18-.23,.9-.89,1.72-1.68,2.19-1.69,.98-3.26,2.44-3.28,5.06-.01,1.83,.65,3.95,2.08,5.06,.1,.08,.28,.11,.43,0,.31-.23,.6-.28,.9-.2,.54,.14,.84,.74,1.12,1.27,.18,.35,.33,.72,.43,1.11,.25,.89,.09,1.93-.36,2.73-.97,1.7-1.6,3.74-.31,6.02,.9,1.59,2.53,3.09,4.33,3.34,.13,.02,.3-.04,.37-.22,.16-.35,.38-.53,.69-.62,.54-.15,1.1,.22,1.6,.54,.33,.21,.65,.46,.93,.75,.67,.65,1.05,1.63,1.06,2.55,0,1.96,.48,4.04,2.74,5.37,1.57,.93,3.74,1.41,5.42,.73,.12-.05,.23-.19,.22-.37-.04-.38,.05-.66,.28-.88,.4-.4,1.06-.36,1.66-.34,.39,.01,.79,.07,1.18,.18,.9,.23,1.72,.89,2.19,1.68,.98,1.69,2.44,3.26,5.06,3.28,1.83,.01,3.95-.65,5.06-2.07,.08-.1,.11-.28,0-.44-.23-.31-.28-.6-.2-.9,.15-.55,.74-.84,1.27-1.12,.35-.19,.73-.33,1.11-.43,.89-.26,1.94-.09,2.73,.36,1.7,.97,3.74,1.6,6.02,.31,1.59-.9,3.09-2.54,3.34-4.32,.02-.13-.04-.29-.22-.37-.35-.16-.53-.38-.62-.68-.14-.55,.22-1.1,.54-1.6,.21-.33,.46-.65,.75-.93,.64-.67,1.63-1.05,2.55-1.05,1.96-.01,4.04-.49,5.37-2.74,.92-1.58,1.4-3.75,.73-5.42-.05-.12-.19-.23-.38-.21-.38,.04-.66-.06-.88-.29-.4-.4-.36-1.06-.34-1.65,.01-.39,.07-.79,.18-1.18,.23-.9,.89-1.72,1.68-2.19,1.69-.98,3.26-2.44,3.28-5.05,.02-1.83-.65-3.95-2.07-5.06-.1-.08-.28-.12-.43,0-.31,.22-.6,.27-.9,.19-.55-.14-.84-.74-1.12-1.27-.18-.35-.33-.72-.44-1.11-.25-.88-.09-1.93,.36-2.73,.97-1.7,1.6-3.74,.31-6.02-.9-1.59-2.54-3.09-4.33-3.34-.13-.02-.29,.04-.37,.22-.16,.35-.38,.54-.68,.62-.55,.14-1.1-.22-1.6-.54-.33-.21-.65-.46-.93-.75-.67-.64-1.05-1.63-1.05-2.55-.01-1.96-.49-4.04-2.74-5.37-1.58-.93-3.75-1.41-5.42-.74-.12,.05-.23,.19-.21,.38,.04,.38-.06,.65-.29,.88-.4,.4-1.06,.36-1.65,.33-.39-.01-.79-.07-1.18-.18h0Z"/>
      <path class="u" d="M290.27,73.59c-.89-.23-1.72-.89-2.19-1.68-.98-1.69-2.44-3.26-5.06-3.28-1.83-.01-3.95,.65-5.06,2.08-.08,.1-.12,.28,0,.43,.22,.31,.27,.6,.19,.9-.14,.54-.74,.84-1.27,1.12-.35,.18-.72,.33-1.11,.43-.88,.25-1.93,.09-2.73-.36-1.7-.97-3.74-1.6-6.02-.31-1.59,.9-3.09,2.54-3.35,4.33-.02,.13,.04,.3,.22,.37,.35,.16,.54,.38,.62,.69,.14,.54-.22,1.09-.54,1.6-.21,.33-.46,.65-.75,.93-.64,.66-1.63,1.05-2.54,1.06-1.96,0-4.04,.48-5.37,2.74-.93,1.57-1.41,3.74-.74,5.42,.05,.12,.19,.23,.38,.22,.38-.04,.65,.05,.88,.28,.4,.4,.36,1.06,.33,1.66-.01,.39-.07,.78-.18,1.18-.23,.9-.89,1.72-1.68,2.19-1.69,.98-3.26,2.44-3.28,5.06-.01,1.83,.65,3.95,2.08,5.06,.1,.08,.28,.11,.43,0,.31-.23,.6-.28,.9-.2,.54,.14,.84,.74,1.12,1.27,.18,.35,.33,.72,.43,1.11,.25,.89,.09,1.93-.36,2.73-.97,1.7-1.6,3.74-.31,6.02,.9,1.59,2.53,3.09,4.33,3.34,.13,.02,.3-.04,.37-.22,.16-.35,.38-.53,.69-.62,.54-.15,1.1,.22,1.6,.54,.33,.21,.65,.46,.93,.75,.67,.65,1.05,1.63,1.06,2.55,0,1.96,.48,4.04,2.74,5.37,1.57,.93,3.74,1.41,5.42,.73,.12-.05,.23-.19,.22-.37-.04-.38,.05-.66,.28-.88,.4-.4,1.06-.36,1.66-.34,.39,.01,.79,.07,1.18,.18,.9,.23,1.72,.89,2.19,1.68,.98,1.69,2.44,3.26,5.06,3.28,1.83,.01,3.95-.65,5.06-2.07,.08-.1,.11-.28,0-.44-.23-.31-.28-.6-.2-.9,.15-.55,.74-.84,1.27-1.12,.35-.19,.73-.33,1.11-.43,.89-.26,1.94-.09,2.73,.36,1.7,.97,3.74,1.6,6.02,.31,1.59-.9,3.09-2.54,3.34-4.32,.02-.13-.04-.29-.22-.37-.35-.16-.53-.38-.62-.68-.14-.55,.22-1.1,.54-1.6,.21-.33,.46-.65,.75-.93,.64-.67,1.63-1.05,2.55-1.05,1.96-.01,4.04-.49,5.37-2.74,.92-1.58,1.4-3.75,.73-5.42-.05-.12-.19-.23-.38-.21-.38,.04-.66-.06-.88-.29-.4-.4-.36-1.06-.34-1.65,.01-.39,.07-.79,.18-1.18,.23-.9,.89-1.72,1.68-2.19,1.69-.98,3.26-2.44,3.28-5.05,.02-1.83-.65-3.95-2.07-5.06-.1-.08-.28-.12-.43,0-.31,.22-.6,.27-.9,.19-.55-.14-.84-.74-1.12-1.27-.18-.35-.33-.72-.44-1.11-.25-.88-.09-1.93,.36-2.73,.97-1.7,1.6-3.74,.31-6.02-.9-1.59-2.54-3.09-4.33-3.34-.13-.02-.29,.04-.37,.22-.16,.35-.38,.54-.68,.62-.55,.14-1.1-.22-1.6-.54-.33-.21-.65-.46-.93-.75-.67-.64-1.05-1.63-1.05-2.55-.01-1.96-.49-4.04-2.74-5.37-1.58-.93-3.75-1.41-5.42-.74-.12,.05-.23,.19-.21,.38,.04,.38-.06,.65-.29,.88-.4,.4-1.06,.36-1.65,.33-.39-.01-.79-.07-1.18-.18h0Z"/>
    </g>
  </g>
</svg>