<?xml version="1.0" encoding="UTF-8"?>
<svg id="b" data-name="圖層 2" xmlns="http://www.w3.org/2000/svg" width="404.33" height="375.32" xmlns:xlink="http://www.w3.org/1999/xlink" viewBox="0 0 404.33 375.32">
  <defs>
    <style>
      .e {
        fill: #302725;
      }

      .f {
        clip-path: url(#d);
      }

      .g {
        fill: none;
      }
    </style>
    <clipPath id="d">
      <rect class="g" width="404.33" height="375.32"/>
    </clipPath>
  </defs>
  <g id="c" data-name="底圖">
    <g class="f">
      <g>
        <path class="e" d="M96.39,8.2c6.45-.64,26.32-.94,32.17,18.15,.61,1.99,1.07,4.18,1.34,6.61,0,.08,1.11,13.77-9.6,26.33-7.07,8.29-17.82,14.41-31.94,18.18-11.08,2.96-21.74,3.88-32.05,4.77-5.25,.45-10.43,.9-15.53,1.61-.41,.06-.81,.12-1.22,.18-.2,.03-.41,.06-.61,.09-14.49,2.2-28.28,6.77-41.08,19.85h-.01c-.34,.17-.69,.34-1.03,.51-.83,.39-1.67,.8-2.51,1.22-.57,.28-1.14,.58-1.71,.88-.76,.4-1.53,.81-2.3,1.22-.53,.29-1.07,.57-1.61,.88-1.2,.67-2.42,1.38-3.65,2.11-.51,.3-1.04,.63-1.55,.94-.87,.53-1.75,1.07-2.64,1.63-.55,.34-1.09,.69-1.65,1.05-1.12,.72-2.26,1.47-3.4,2.24-.42,.28-.85,.57-1.27,.86-1.23,.84-2.48,1.71-3.74,2.6-.51,.36-1.03,.74-1.55,1.11-1.07,.77-2.15,1.55-3.24,2.36-.45,.34-.91,.66-1.37,1.01-1.48,1.1-2.97,2.24-4.48,3.41-.11,.09-.23,.18-.34,.27h0c0-.12,0-.22,0-.33,.02-.64,.04-1.27,.08-1.9,0-.1,.02-.2,.02-.3,.24-3.5,.84-6.82,1.8-10,.06-.21,.12-.42,.19-.63,.14-.43,.29-.85,.44-1.27,.1-.29,.2-.58,.31-.87,.14-.37,.29-.74,.44-1.1,.14-.34,.28-.67,.42-1,.14-.33,.3-.66,.45-.98,.17-.36,.35-.73,.53-1.09,.15-.29,.3-.58,.46-.87,.21-.39,.43-.78,.65-1.17,.15-.26,.3-.52,.46-.77,.25-.42,.52-.84,.79-1.25,.14-.22,.28-.43,.43-.65,.31-.46,.64-.92,.97-1.37,.12-.17,.24-.33,.36-.5,.4-.53,.81-1.05,1.24-1.57,.07-.09,.14-.18,.21-.27,1.04-1.25,2.15-2.46,3.35-3.65C-2.51,72.75,48.71,66.29,73.32,63.18c5.79-.73,10.36-1.31,13.34-1.92,14.83-3.07,27.09-16.93,27.52-24.53,.24-4.22-1.48-8.19-4.89-10.83-3.41-2.64-13.7,.86-20.25,1.95-5.53,.91-9.83,.14-12.25-2.13-.15-.14-.32-.27-.46-.43-1.92-2.18-2.15-5.38-.64-8.79,1.02-2.28,9.02-7.15,20.7-8.31Z"/>
        <g>
          <path class="e" d="M281.99,299.61c-.03,.07-.06,.14-.09,.21-.13,.3-.26,.6-.4,.9-.08,.16-.15,.33-.23,.49-.09,.2-.19,.4-.29,.59-.22,.44-.45,.88-.7,1.32-.04,.06-.07,.13-.11,.19-.17,.29-.34,.58-.52,.87-.03,.04-.05,.08-.08,.12-.55,.87-1.16,1.72-1.83,2.52-.07,.08-.13,.16-.2,.24-.19,.22-.39,.44-.59,.66-.22,.23-.45,.46-.69,.68-.06,.06-.12,.13-.19,.19-.39-2.92-1-11.18-1.3-15.46,3.35,.88,6.29,1.47,8.93,1.45-.36,1.33-.91,3.11-1.71,5.03Z"/>
          <path class="e" d="M219.85,275.76c-2.71,3.33-7.96,9.74-9.96,11.9-.03-.14-.05-.27-.08-.41-.06-.29-.11-.57-.16-.86-.03-.22-.06-.43-.08-.65-.03-.24-.05-.49-.07-.73-.01-.21-.03-.42-.04-.64-.02-.4-.02-.79-.02-1.19,0-.24,.01-.48,.02-.71,0-.21,.02-.42,.03-.63,.02-.25,.03-.5,.06-.74,.02-.18,.04-.36,.06-.54,.05-.49,.12-.98,.19-1.46,.02-.11,.03-.22,.05-.33,.05-.3,.11-.59,.16-.88,.01-.08,.03-.15,.05-.23,.47-2.33,1.12-4.38,1.65-5.84,2.15,1.53,4.89,2.74,8.14,3.95Z"/>
          <path class="e" d="M324.17,258.66c-.08,.97-.19,1.96-.33,2.95-.02,.12-.03,.23-.05,.35-.44,2.94-.84,6.25-1.26,9.75-.17,1.45-.35,2.93-.54,4.45h0s.04-.02,.06-.04c.08-.05,.16-.1,.24-.15,.44-.25,.87-.52,1.3-.8,.15-.1,.3-.21,.45-.31,.35-.24,.7-.49,1.04-.75,.16-.12,.32-.25,.48-.38,.32-.26,.64-.52,.96-.79,.15-.13,.3-.27,.45-.4,.32-.28,.63-.58,.93-.87,.13-.13,.26-.25,.39-.38,.33-.33,.64-.67,.95-1.01,.09-.1,.19-.2,.28-.31,.38-.44,.75-.88,1.1-1.33,.01-.01,.02-.03,.03-.04,.75-.97,1.42-1.98,2.01-3,.02-.04,.04-.08,.07-.13,.26-.45,.49-.9,.71-1.36,.05-.09,.09-.19,.13-.28,.19-.4,.36-.81,.51-1.21,.04-.11,.08-.23,.12-.34,.14-.39,.27-.78,.38-1.17,.03-.11,.06-.23,.09-.34,.1-.4,.18-.79,.25-1.18,.02-.1,.04-.2,.05-.29,.06-.43,.11-.86,.12-1.29,0-.05,0-.09,0-.14,.01-.48,0-.95-.05-1.41-.01-.11-.05-.21-.07-.32-.17-.35-.3-.74-.34-1.15,0-.02-.02-.04-.03-.06-.75-1.71-2.36-3.16-4.29-4.31-.06-.04-.12-.08-.19-.11-.22-.13-.44-.25-.66-.37-.1-.05-.19-.1-.29-.15-.35-.18-.7-.35-1.05-.51-.16-.07-.32-.14-.48-.21-.18-.08-.36-.15-.54-.22-.27-.11-.55-.22-.82-.31-.17-.06-.33-.12-.49-.17-.23-.08-.46-.16-.68-.23-.14-.04-.28-.09-.42-.13-.29-.09-.58-.17-.87-.25,.51,3.26,.64,6.66,.38,10.19-.01,.17-.03,.33-.04,.5Z"/>
          <path class="e" d="M187.49,216.88c-.04,.16-.07,.32-.11,.49-.07,.37-.13,.75-.19,1.13-.02,.16-.04,.32-.06,.49-.05,.4-.08,.8-.11,1.21,0,.16-.02,.31-.03,.47-.02,.42-.03,.85-.03,1.28,0,.14,0,.28,0,.42,0,.45,.02,.91,.05,1.36,0,.12,.02,.24,.03,.35,.04,.48,.08,.97,.14,1.45,.01,.08,.02,.17,.04,.25,.07,.52,.15,1.04,.25,1.56,0,.03,.01,.06,.02,.09,.56,2.9,1.54,5.75,2.95,8.27h0c.9-1.7,1.79-3.35,2.64-4.95,1.67-3.11,3.25-6.04,4.58-8.7,2.2-4.39,4.87-8.19,7.94-11.4h0s-.1-.04-.15-.06c-.23-.1-.48-.19-.73-.29-.14-.05-.28-.1-.42-.15-.19-.07-.38-.13-.58-.2-.16-.06-.33-.11-.5-.17-.19-.06-.39-.12-.59-.18-.34-.1-.69-.2-1.04-.29-.11-.03-.23-.06-.34-.08-.26-.06-.53-.12-.8-.18-.06-.01-.11-.02-.16-.03-3.17-.64-6.52-.68-8.77,.71h-.01v.02h0c-.27,.29-.57,.53-.9,.71h-.02c-.08,.09-.17,.15-.25,.24-.51,.58-.95,1.25-1.34,1.97-.06,.11-.13,.21-.18,.32-.15,.3-.29,.62-.42,.94-.06,.14-.12,.27-.18,.42-.12,.32-.23,.66-.34,1-.05,.15-.1,.31-.14,.46-.1,.35-.18,.7-.26,1.06Z"/>
          <path class="e" d="M315.57,270.88c.43-3.56,.83-6.91,1.29-9.96,.17-1.13,.28-2.25,.37-3.35,.01-.23,.02-.45,.04-.68,.05-.89,.07-1.77,.06-2.63,0-.24,0-.47,0-.7-.03-1.06-.09-2.1-.21-3.12,0-.04-.01-.08-.02-.12-.11-.95-.27-1.87-.46-2.79-.06-.3-.13-.6-.2-.89-.16-.69-.34-1.36-.54-2.03-.09-.29-.17-.58-.26-.87-.28-.86-.6-1.7-.95-2.52-.07,.05-.14,.11-.21,.15-.03,.02-.05,.04-.09,.06-5.35,3.13-9.64,2.91-12.29,2.18h0c-1.87-.52-3.57-1.47-4.91-2.7-.81-.74-1.48-1.59-1.99-2.5-.39-.72-.96-1.38-1.65-1.75-.69-.38-1.52-.46-2.43-.02-3.23,1.56-6.24,1.78-8.85,.69-1.56-.66-2.98-1.79-4.19-3.38-.75-.97-1.51-1.62-2.17-1.85-.22-.08-.43-.11-.63-.1-.47,.04-.78,.36-.84,.47-.4,.83-.14,2.04,.67,3.17,1.62,2.27,2.21,6-4.16,10.88-.43,.33-.82,.68-1.21,1.03-.04,.03-.08,.06-.11,.09-.33,.3-.62,.61-.91,.93-.09,.1-.19,.19-.27,.28-.29,.33-.54,.66-.79,1-.06,.08-.12,.16-.18,.23-.26,.36-.48,.73-.69,1.09-.02,.04-.06,.09-.08,.14-.21,.39-.39,.78-.54,1.16,0,.01-.01,.02-.02,.04-.47,1.2-.61,2.34-.39,3.34h.01c1.61,.97,2.98,2.38,3.99,4.13,.03,.06,.06,.11,.1,.17,.14,.26,.28,.52,.41,.79,.06,.12,.12,.24,.17,.36,.09,.21,.18,.43,.26,.65,.06,.17,.13,.33,.19,.5,.06,.18,.11,.36,.16,.54,.06,.19,.12,.38,.16,.58,.87,3.57-.07,6-1.01,7.41-1.09,1.64-2.78,2.78-4.53,3.06-2.12,.34-4.03-.18-5.71-1.55-.56-.46-1.09-1-1.59-1.65h0c-.16-.05-.93,.04-1.44,.09-.24,.03-.51,.05-.78,.08-.19,.02-.37,.03-.57,.04-.04,0-.08,0-.12,0-.46,.03-.95,.02-1.48-.02-.03,0-.06,0-.09,0l-2.34,7.4h0s.08,.07,.13,.1c.09,.07,.19,.15,.29,.23,2.51,1.96,7.12,5.11,12.81,7,.07,.03,.15,.05,.22,.07,.55,.18,1.11,.35,1.68,.5,1.63,.44,3.17,.87,4.63,1.28,7.28,2.06,12.55,3.54,16.03,1.82,1.27-.63,2.47-1.46,3.63-2.26,2.41-1.68,5.06-3.52,8.44-3.38,.96,.04,1.98,.25,3.07,.65,.19,.07,.37,.13,.57,.21,.37,.16,.73,.34,1.07,.54,2.38,1.4,3.95,3.75,4.28,6.47,.46,3.76-1.41,7.53-5.12,10.35-.34,.26-.7,.49-1.07,.69-.05,.03-.09,.05-.14,.07-.32,.17-.65,.33-.99,.47-.1,.04-.19,.07-.29,.11-.3,.11-.61,.22-.92,.31-.11,.03-.23,.06-.34,.09-.31,.08-.62,.15-.93,.21-.12,.02-.23,.05-.35,.07-.33,.05-.66,.1-1,.14-.1,0-.21,.02-.31,.03-.37,.04-.75,.06-1.12,.07-.07,0-.13,0-.2,.01-1.37,.04-2.76-.04-4.1-.2-.04,0-.09-.01-.13-.02-.39-.05-.78-.1-1.16-.16-.08-.01-.16-.03-.25-.04-.34-.05-.67-.11-.99-.17-.09-.02-.19-.04-.28-.05-.31-.06-.62-.12-.91-.19-.09-.02-.17-.04-.26-.06-.3-.07-.59-.14-.87-.2-.07-.02-.14-.04-.22-.05-.3-.08-.58-.15-.86-.22-.04-.01-.08-.02-.11-.03-.03-.01-.06-.02-.09-.03h0c-.61,1.32-1.33,2.66-2.17,3.96-.05,.08-.1,.16-.15,.24-.24,.37-.5,.74-.76,1.11-.07,.1-.15,.21-.23,.31-.23,.31-.47,.62-.72,.92-.1,.12-.2,.24-.3,.36-.24,.28-.48,.55-.73,.82-.11,.12-.23,.24-.34,.36-.29,.3-.59,.58-.89,.86-.12,.11-.25,.22-.38,.33-.3,.25-.6,.5-.91,.74-.04,.03-.07,.06-.11,.09-.71,.58-1.93,1.06-3.18,.67-.04-.01-.08-.03-.13-.04h0c-1.36-.5-2.21-1.8-2.54-3.89-.29-1.8-.69-6.61-1.01-10.93h0c-.06,0-.13-.01-.19-.02-.32-.02-.63-.05-.96-.08-.1,0-.2-.02-.31-.03-.34-.03-.68-.07-1.02-.11-.09-.01-.18-.03-.27-.04-.36-.05-.73-.09-1.09-.15-.05,0-.1-.02-.15-.02-1.59-.23-3.21-.53-4.81-.86-.18-.04-.36-.07-.54-.11-.23-.05-.46-.1-.69-.15-.24-.05-.48-.11-.72-.16-.2-.05-.39-.09-.58-.14-.27-.06-.53-.13-.8-.19-.17-.04-.34-.08-.51-.13-.28-.07-.57-.14-.84-.22-.14-.04-.28-.08-.42-.11-.29-.08-.58-.16-.87-.24-.12-.03-.23-.07-.35-.1-.29-.08-.58-.17-.86-.25-.1-.03-.19-.06-.29-.09-.29-.09-.56-.18-.83-.26-.08-.03-.16-.05-.24-.08-.27-.09-.54-.18-.79-.27-.06-.02-.12-.04-.18-.06-.26-.1-.51-.19-.74-.28-.03-.01-.07-.03-.11-.04l-13.61-4.31s-.02,0-.02,0c-.24-.06-.51-.13-.78-.21-.54-.14-1.1-.31-1.73-.51-1.24-.39-2.63-.88-4.1-1.44-.07-.03-.14-.05-.2-.08-.6-.23-1.22-.48-1.84-.73-.26-.11-.52-.22-.79-.33-.42-.18-.84-.36-1.26-.54-.38-.17-.76-.34-1.15-.52-.29-.13-.58-.27-.87-.41-.46-.22-.92-.44-1.37-.66-.2-.1-.39-.2-.59-.3-.51-.26-1.01-.52-1.5-.79-.11-.06-.21-.12-.32-.18-.54-.3-1.07-.6-1.57-.9h0c-2.76,3.35-5.85,7.05-7.12,8.36-1.47,1.51-2.92,2.09-4.32,1.72-.04-.01-.09-.03-.13-.04-.01,0-.02-.01-.04-.01-.15-.05-.29-.1-.42-.17-.02-.01-.03-.02-.05-.03-.12-.07-.24-.14-.36-.22l-.03-.03c-.12-.08-.22-.17-.32-.27h-.01c-.51-.5-.84-1.12-.99-1.65-.16-.49-.29-.99-.41-1.49-.02-.11-.05-.21-.08-.32-.08-.38-.16-.76-.22-1.14-.05-.26-.08-.53-.12-.8-.01-.09-.02-.18-.03-.26-.07-.58-.12-1.16-.14-1.75h0c-.04-.97-.03-1.93,.02-2.87,0,0,0,0,0-.01,.03-.54,.08-1.07,.13-1.59,.02-.18,.04-.36,.06-.55,.02-.2,.05-.4,.08-.6,.06-.4,.12-.79,.19-1.18,0-.05,.02-.09,.02-.13-.03-.01-.05-.02-.09-.03-.05-.02-.1-.04-.15-.05-.25-.09-.5-.19-.77-.29-.1-.04-.21-.08-.32-.12-.22-.09-.45-.18-.69-.27-.13-.05-.26-.11-.39-.17-.22-.09-.44-.19-.67-.29-.15-.07-.3-.13-.45-.2-.22-.1-.44-.21-.67-.31-.16-.08-.31-.15-.46-.23-.23-.11-.46-.23-.69-.36-.15-.08-.3-.16-.45-.24-.25-.14-.51-.28-.76-.43-.13-.07-.26-.14-.38-.22-.37-.22-.73-.45-1.09-.69-.13-.09-.26-.18-.39-.27-.23-.16-.46-.32-.69-.48-.16-.12-.31-.24-.46-.36-.19-.15-.38-.3-.56-.46-.16-.13-.31-.27-.46-.41-.17-.15-.34-.31-.5-.47-.15-.14-.29-.3-.44-.45-.15-.16-.29-.32-.44-.48-.14-.16-.27-.32-.4-.49-.13-.16-.25-.34-.37-.51-.12-.17-.24-.34-.36-.52-.11-.17-.21-.36-.3-.54-.1-.18-.21-.36-.29-.55-.09-.2-.17-.41-.24-.62-.07-.17-.14-.33-.2-.5-1.42-4.44-.78-8.6,1.76-11.41,2.1-2.33,5.25-3.33,8.41-2.66,1.39,.29,2.53,.77,3.48,1.39,2.84,1.83,3.95,4.87,4.96,7.62,.49,1.32,.99,2.69,1.67,3.94,.7,1.28,1.86,2.34,3.41,3.29,2.59,1.58,6.28,2.88,10.74,4.44,1.43,.5,2.94,1.03,4.52,1.61,.56,.21,1.12,.39,1.67,.56,.07,.02,.14,.04,.21,.06,6.1,1.83,11.99,1.8,15.04,1.62l2.34-7.4c-1-.58-1.8-1.26-2.43-1.83-.38-.34-.98-.84-1.18-.92h0c-1.92,.6-3.67,.61-5.21,.05-.93-.34-1.78-.88-2.55-1.63-1.26-1.23-1.99-3.14-1.94-5.11,.04-1.69,.68-4.22,3.44-6.64,.33-.29,.67-.56,1.02-.81h.02c.34-.26,.68-.48,1.03-.69l.04-.02c2.16-1.27,4.52-1.84,6.78-1.67h0c.23-.21,.44-.46,.63-.73,.02-.03,.05-.07,.07-.1,.18-.27,.33-.55,.47-.87,.03-.07,.06-.14,.09-.22,.12-.29,.22-.6,.31-.92,.04-.13,.06-.26,.09-.4,.06-.29,.12-.59,.16-.9,.03-.22,.04-.44,.05-.66,.02-.26,.04-.51,.04-.78,0-.33-.02-.67-.04-1.01-.01-.19-.01-.37-.03-.55-.05-.5-.13-1.02-.23-1.54,0-.05-.01-.09-.02-.14-.12-.59-.28-1.19-.47-1.8-2.41-7.66,.22-10.37,2.86-11.29,1.31-.46,2.22-1.31,2.37-2.22,.02-.12-.06-.56-.42-.86-.02-.02-.05-.02-.07-.04-.62-.45-1.82-.45-3.33,.02-2.55,.8-4.9,.73-6.97-.17-2.07-.9-3.85-2.62-5.24-5.14-.36-.65-.85-1.04-1.4-1.24-.94-.34-2.04-.12-2.96,.34-2.49,1.22-5.71,1.33-8.63,.29h0c-2.59-.93-6.23-3.22-8.8-8.86-.05-.11-.09-.23-.12-.34h0c-.18,.11-.35,.24-.53,.35-.53,.34-1.06,.69-1.58,1.07-.37,.27-.73,.56-1.08,.85-.39,.32-.78,.64-1.16,.97-.34,.3-.69,.61-1.02,.93-.44,.42-.86,.86-1.28,1.31-.36,.39-.72,.78-1.07,1.19-.48,.56-.95,1.14-1.41,1.74-.26,.34-.5,.69-.75,1.05-.36,.51-.71,1.03-1.05,1.56-.23,.36-.46,.72-.68,1.1-.42,.7-.82,1.43-1.2,2.18-.1,.19-.21,.37-.31,.56-1.38,2.75-2.98,5.73-4.67,8.89-8.68,16.15-20.58,38.28-14.89,55.83,2.43,7.49,6.99,13.06,11.84,16.84,.06,.04,.11,.09,.17,.13,.41,.32,.83,.62,1.25,.92,.2,.14,.4,.29,.61,.42,.24,.16,.48,.31,.71,.46,1.82,1.15,3.63,2.07,5.33,2.74,.09,.03,.17,.07,.26,.1,.35,.13,.7,.25,1.04,.36,.1,.03,.2,.07,.3,.11,.12,.04,.24,.06,.36,.1,.24,.07,.48,.14,.72,.21,.44,.11,.87,.22,1.3,.3,.04,0,.08,.02,.12,.02,4.41,.83,8.17,.93,11.81,1.02,1.04,.03,2.09,.06,3.15,.1,.03,0,.07,0,.1,0,.41,.02,.83,.04,1.24,.06,.19,.01,.37,.02,.56,.03,.37,.03,.75,.05,1.12,.09,.23,.02,.47,.04,.7,.06,.36,.03,.72,.07,1.09,.12,.26,.03,.52,.07,.79,.1,.35,.05,.71,.1,1.07,.16,.29,.05,.58,.1,.87,.15,.35,.06,.7,.12,1.05,.2,.35,.07,.7,.16,1.05,.24,.3,.07,.61,.13,.92,.21l4.08-12.89c.58-1.85,2.55-2.87,4.4-2.28h0c1.84,.59,2.86,2.55,2.28,4.4l-4.08,12.89h0c.24,.09,.45,.18,.68,.28,.41,.16,.82,.33,1.22,.5,.28,.12,.55,.25,.82,.37,.33,.15,.66,.3,.98,.46,.27,.13,.53,.27,.8,.4,.31,.16,.61,.31,.91,.48,.25,.14,.5,.28,.75,.41,.3,.17,.59,.34,.89,.51,.23,.13,.46,.27,.68,.4,.31,.19,.62,.38,.92,.57,.2,.12,.39,.24,.59,.37,.37,.23,.73,.47,1.09,.7,.12,.08,.24,.15,.36,.23,.48,.32,.96,.63,1.43,.95,1.89,1.26,3.83,2.54,6.01,3.79,.14,.08,.3,.16,.44,.24,.3,.16,.59,.33,.9,.49,.29,.16,.6,.31,.9,.47,.17,.08,.33,.17,.51,.26,.28,.14,.57,.27,.87,.41,.21,.1,.41,.2,.62,.29h.01c.44,.21,.9,.38,1.36,.56,.21,.08,.44,.16,.66,.23,.13,.04,.25,.09,.37,.13,.11,.03,.22,.06,.33,.09,.34,.1,.68,.2,1.04,.29,.08,.02,.17,.04,.26,.06,1.84,.45,3.91,.75,6.14,.84,.19,0,.38,.02,.57,.02,.33,0,.66,0,1,0,.42,0,.83,0,1.26-.03,.17,0,.34-.02,.51-.03,5.28-.28,11.14-1.79,16.67-5.24,.85-.53,1.7-1.09,2.53-1.72,14.75-11.09,17.74-36.03,19.93-54.24Zm-29.21,6.72c-8.96-2.83-13.93-12.42-11.1-21.38,2.83-8.95,12.42-13.93,21.38-11.1,8.96,2.83,13.94,12.42,11.1,21.38-2.83,8.96-12.42,13.94-21.38,11.1Zm-56.79-53.7c8.96,2.83,13.94,12.42,11.1,21.38-2.83,8.96-12.42,13.94-21.38,11.1-8.95-2.83-13.93-12.42-11.1-21.38,2.83-8.95,12.42-13.93,21.38-11.1Z"/>
          <path class="e" d="M221.17,208.87c1.53,3.36,3.71,5.63,6.29,6.55,2.15,.76,4.11,.46,5.23-.09,3.99-1.96,8.16-.85,10.13,2.71,2.31,4.17,5.14,3.85,7.07,3.24,3.99-1.26,6.35-.2,7.62,.9,1.71,1.49,2.07,3.55,1.85,4.87-.27,1.61-1.16,3.04-2.52,4.13-.77,.62-1.69,1.14-2.73,1.5-.21,.07-.37,.2-.5,.37-.81,1.06-.15,3.79,.38,5.47,1.4,4.45,1.49,9.75-.79,13.36,.43,.26,.85,.55,1.25,.88,.93,.77,1.06,2.15,.29,3.09-.12,.14-.26,.26-.4,.37-.79,.58-1.89,.57-2.68-.08-2.44-2.02-6.12-1.69-8.97,.8-.06,.05-.1,.11-.16,.16-1.13,1.05-1.76,2.18-1.79,3.3-.02,.97,.39,1.64,.61,1.85,.89,.86,1.9,1.01,3.49,.53,2.42-.74,4.09,.75,5.31,1.83,.87,.77,1.68,1.49,2.86,1.82,1.16,.41,2.24,.29,3.39,.16,1.62-.18,3.83-.44,5.39,1.56,1.02,1.31,1.94,1.77,3.16,1.57,.19-.03,.53-.18,.9-.46,.23-.18,.46-.39,.67-.71,.65-.97,.79-2.34,.4-3.95-.89-3.68-3.72-6.06-6.87-5.81-1.21,.1-2.26-.8-2.36-2.01-.05-.64,.18-1.23,.59-1.66,.36-.39,.86-.65,1.42-.69,.43-.03,.85-.03,1.26-.01,.09,0,.18,.01,.27,.02,.19-3.69,2.54-7.37,5.57-10.14,.48-.44,.97-.86,1.47-1.24,.34-.26,.72-.57,1.1-.9,1.45-1.26,2.91-2.9,2.16-3.95-1.77-2.47-2.16-5.32-1.05-7.63,.21-.44,.54-.91,.99-1.35,.77-.77,1.89-1.42,3.33-1.57,1.67-.17,4.2,.32,6.75,3.64,1.23,1.6,3.36,3.49,7.65,1.41,3.66-1.78,7.71-.29,9.85,3.61,.6,1.09,2.01,2.46,4.22,3.08,2.64,.73,5.72,.13,8.91-1.74,.05-.03,.11-.05,.16-.07,.13-.06,.26-.11,.39-.14-4.8-8.02-13.24-14.21-24.94-17.91l-36.23-11.46c-11.69-3.7-22.16-3.49-30.7,.31,.03,.04,.07,.07,.1,.11,.09,.12,.17,.25,.23,.39Z"/>
          <path class="e" d="M220.96,251.1c6.05,1.91,12.5-1.44,14.42-7.49,1.91-6.05-1.44-12.5-7.49-14.42-6.05-1.91-12.5,1.44-14.42,7.49-1.91,6.05,1.44,12.5,7.49,14.42Z"/>
          <path class="e" d="M294.96,250.41c-6.05-1.91-12.5,1.44-14.41,7.49-1.91,6.05,1.44,12.5,7.49,14.41,6.05,1.91,12.5-1.44,14.42-7.49,1.91-6.05-1.44-12.5-7.49-14.42Z"/>
        </g>
        <path class="e" d="M91.12,250.77c11.73-23.88,53.94-15.97,65.28-.04,11.34,15.93,14.62,38.78,15.4,61.43,.78,22.66,20.94,21.68,35.35,30.31,0,0-17.47-1.33-26.29,15.57-8.35,16-34.57-7.66-41.48-15.72-6.92-8.06,4.02-19.78-7.51-33.21-11.53-13.43-52.63-34.14-40.74-58.34Z"/>
        <path class="e" d="M-50.19,170.55c25.77-20.68,70.01,5.21,73.39,28.79,3.87,26.98-2.92,58.58-23.43,81.36-18.99,21.09,9.73,35.02,19.96,52.08,0,0-17.56-10.48-36.34,3.89-17.78,13.61-31.91-26.34-34.62-38.91-2.71-12.57,15.36-20.06,10.85-41.01-4.51-20.95-35.92-65.25-9.81-86.21Z"/>
        <path class="e" d="M182.59,368.22s4.02-19.78,14-19.02c9.98,.76,16.33,16.31,15.95,21.3l-29.95-2.29Z"/>
        <path class="e" d="M204.27,347.28s10.75-9.22,19.97,1.52c9.22,10.75,5.96,20.54,5.96,20.54l-14.98-1.14s3.26-9.79-10.96-20.92Z"/>
        <path class="e" d="M226.92,346.5s17.47,1.33,18.64,19l-9.98-.76s.57-7.49-8.65-18.23Z"/>
        <path class="e" d="M-24.98,357.4s4.02-19.78,14-19.02c9.98,.76,16.33,16.31,15.95,21.3l-29.95-2.29Z"/>
        <path class="e" d="M-3.29,336.46s10.75-9.22,19.97,1.52c9.22,10.75,5.96,20.54,5.96,20.54l-14.98-1.14s3.26-9.79-10.96-20.92Z"/>
        <path class="e" d="M19.36,335.68s17.47,1.33,18.64,19l-9.98-.76s.57-7.49-8.65-18.24Z"/>
        <path class="e" d="M77.65,309.5c-6.36-.23-14.28,1.3-22.47,7.55-17.78,13.61-31.91-26.34-34.62-38.92-2.63-12.25,14.46-19.66,11.17-39.44,11.25,15.45,25.48,49.02,35.42,62.98,2.36,3.32,6.08,5.86,10.5,7.83Z"/>
        <path class="e" d="M46.82,337.77s4.02-19.78,14-19.02c9.98,.76,16.33,16.31,15.95,21.3l-29.95-2.29Z"/>
        <path class="e" d="M68.5,316.83s10.75-9.22,19.97,1.52c9.22,10.75,5.96,20.54,5.96,20.54l-14.98-1.14s3.26-9.79-10.96-20.92Z"/>
        <path class="e" d="M91.16,316.05s17.47,1.33,18.64,19l-9.98-.76s.57-7.49-8.65-18.24Z"/>
        <path class="e" d="M265.91,362.02s4.02-19.78,14-19.02c9.98,.76,16.33,16.31,15.95,21.3l-29.95-2.29Z"/>
        <path class="e" d="M287.59,341.08s10.75-9.22,19.97,1.52c9.22,10.75,5.96,20.54,5.96,20.54l-14.98-1.14s3.26-9.79-10.96-20.92Z"/>
        <path class="e" d="M310.25,340.3s17.47,1.33,18.64,19l-9.98-.76s.57-7.49-8.65-18.24Z"/>
        <path class="e" d="M173.45,191.77c-17.28-3.83-36.68-12.84-52.63-34.14-15.95-21.3-48.8-51.43-91.24-54.67-42.43-3.24-91.37,45.75-85.4,66.29,31.86-22.68,63.17-5.22,79.5,11.09,16.33,16.31-.74,42.63,10.98,53.56,11.72,10.94,28.64,52.4,39.98,68.33,11.34,15.93,54.15,14.18,54.15,14.18,.38-4.99-11.53-13.43-23.44-21.87-11.91-8.44-25.93-22.06-24.79-37.04,1.14-14.98,15.15-33.99,49.9-28.83,33.66,5,43.58,43.52,44.17,45.93-.9-20.1,10.17-34.25,10.17-34.25,0,0-10.96-20.92-2.52-32.83,8.44-11.91,27.84-2.9,27.84-2.9,2.88-4.8-19.4-9.01-36.68-12.84Zm-60.12,113.41c2.07,.16,3.62,1.96,3.46,4.03-.16,2.07-1.96,3.62-4.03,3.46-2.07-.16-3.62-1.96-3.46-4.03,.16-2.07,1.96-3.62,4.03-3.46Zm-14.79-3.64c2.07,.16,3.62,1.96,3.46,4.03-.16,2.07-1.96,3.62-4.03,3.46-2.07-.16-3.62-1.96-3.46-4.03,.16-2.07,1.96-3.62,4.03-3.46Zm-12.1-5.94c2.07,.16,3.62,1.96,3.46,4.03-.16,2.07-1.96,3.62-4.03,3.46-2.07-.16-3.62-1.96-3.46-4.03,.16-2.07,1.96-3.62,4.03-3.46Zm-5.76-6.72c-.16,2.07-1.96,3.62-4.03,3.46-2.07-.16-3.62-1.96-3.46-4.03,.16-2.07,1.96-3.62,4.03-3.46,2.07,.16,3.62,1.96,3.46,4.03Z"/>
      </g>
    </g>
  </g>
</svg>