<?xml version="1.0" encoding="UTF-8"?>
<svg id="b" data-name="圖層 2" xmlns="http://www.w3.org/2000/svg" width="921.62" height="295.04" xmlns:xlink="http://www.w3.org/1999/xlink" viewBox="0 0 921.62 295.04">
  <defs>
    <style>
      .e {
        opacity: .18;
      }

      .f {
        stroke: #fc462d;
        stroke-width: .75px;
      }

      .f, .g, .h {
        stroke-miterlimit: 10;
      }

      .f, .i {
        fill: none;
      }

      .j, .h {
        fill: #fc462d;
      }

      .g {
        fill: #ffe9d7;
        stroke: #da4e36;
        stroke-width: 3.14px;
      }

      .h {
        stroke: url(#d);
      }

      .k {
        fill: #da4e36;
      }
    </style>
    <pattern id="d" data-name="Unnamed Pattern" x="0" y="0" width="920.6" height="184.56" patternTransform="translate(-69.57 -203.31)" patternUnits="userSpaceOnUse" viewBox="0 0 920.6 184.56">
      <g>
        <rect class="i" width="920.6" height="184.56"/>
        <g class="e">
          <g>
            <path class="j" d="M0,26.15H129.49V2.49H0V26.15Zm49.18,56.03h31.13V24.53h-31.13v57.65Z"/>
            <path class="j" d="M173.06,82.17v-22.41h48.68c6.64,0,11.56,.25,14.75,.75,3.19,.5,5.27,1.39,6.23,2.68,.95,1.29,1.43,3.17,1.43,5.67v13.32h31.13v-17.06c0-3.65-1.06-6.45-3.17-8.4-2.12-1.95-5.85-3.3-11.21-4.05-5.35-.75-12.97-1.16-22.85-1.25l9.09,1.74c4.07-.17,7.97-.62,11.7-1.37,3.73-.75,7.05-1.95,9.96-3.61,2.9-1.66,5.19-3.98,6.85-6.97,1.66-2.99,2.49-6.76,2.49-11.33,0-6.89-1.76-12.33-5.29-16.31-3.53-3.98-8.3-6.83-14.32-8.53-6.02-1.7-12.8-2.55-20.36-2.55h-96.24V82.17h31.13Zm0-54.78h65.12c2.49,0,4.59,.4,6.29,1.18,1.7,.79,2.55,2.26,2.55,4.42,0,2.32-.85,3.9-2.55,4.73-1.7,.83-3.8,1.24-6.29,1.24h-65.12v-11.58Z"/>
            <path class="j" d="M322.1,82.17L367.92,10.83h-18.55l46.19,71.34h34.24L375.88,2.49h-34.61l-53.41,79.68h34.24Zm78.81-12.08v-18.68h-85.16v18.68h85.16Z"/>
            <path class="j" d="M439.75,2.49V82.17h31.13v-24.28h77.19v-21.17h-77.19v-10.58h94.38V2.49h-125.5Z"/>
            <path class="j" d="M580.2,2.49V82.17h31.13v-24.28h77.19v-21.17h-77.19v-10.58h94.38V2.49h-125.5Z"/>
            <path class="j" d="M722.51,82.17h31.13V2.49h-31.13V82.17Z"/>
            <path class="j" d="M888.1,48.93c-1,2.16-2.82,4.17-5.48,6.04-2.66,1.87-6.62,3.34-11.89,4.42-5.27,1.08-12.43,1.62-21.48,1.62-10.63,0-19.26-.62-25.9-1.87-6.64-1.25-11.5-3.19-14.57-5.85-3.07-2.66-4.61-6.1-4.61-10.33,0-4.65,1.54-8.38,4.61-11.21,3.07-2.82,7.93-4.88,14.57-6.16,6.64-1.29,15.27-1.93,25.9-1.93,9.05,0,16.23,.58,21.54,1.74,5.31,1.16,9.29,2.76,11.95,4.79,2.66,2.04,4.48,4.38,5.48,7.04h32.37c-.42-7.97-3.28-14.73-8.59-20.29-5.31-5.56-13.16-9.77-23.53-12.64-10.38-2.86-23.45-4.29-39.22-4.29-12.04,0-22.83,.71-32.37,2.12-9.55,1.41-17.68,3.76-24.4,7.03-6.72,3.28-11.87,7.68-15.44,13.2-3.57,5.52-5.35,12.39-5.35,20.61s1.78,15.02,5.35,20.42c3.57,5.4,8.72,9.65,15.44,12.76,6.72,3.11,14.86,5.31,24.4,6.6,9.54,1.29,20.34,1.93,32.37,1.93,15.77,0,28.82-1.33,39.16-3.98,10.33-2.66,18.16-6.64,23.47-11.95,5.31-5.31,8.17-11.91,8.59-19.8h-32.37Z"/>
            <path class="j" d="M36.11,182.07v-22.41h48.68c6.64,0,11.56,.25,14.75,.75,3.19,.5,5.27,1.39,6.23,2.68,.95,1.29,1.43,3.17,1.43,5.67v13.32h31.13v-17.06c0-3.65-1.06-6.45-3.17-8.4-2.12-1.95-5.85-3.3-11.21-4.05-5.35-.75-12.97-1.16-22.85-1.25l9.09,1.74c4.07-.17,7.97-.62,11.7-1.37,3.73-.75,7.05-1.95,9.96-3.61,2.9-1.66,5.19-3.98,6.85-6.97,1.66-2.99,2.49-6.76,2.49-11.33,0-6.89-1.76-12.33-5.29-16.31-3.53-3.98-8.3-6.83-14.32-8.53-6.02-1.7-12.81-2.55-20.36-2.55H4.98v79.68h31.13Zm0-54.78H101.22c2.49,0,4.59,.4,6.29,1.18,1.7,.79,2.55,2.26,2.55,4.42,0,2.32-.85,3.9-2.55,4.73-1.7,.83-3.8,1.24-6.29,1.24H36.11v-11.58Z"/>
            <path class="j" d="M276.16,179.77c11.04-3.19,19.07-7.93,24.09-14.19,5.02-6.27,7.53-14.05,7.53-23.34s-2.51-17.08-7.53-23.34c-5.02-6.27-13.05-11-24.09-14.19-11.04-3.19-25.61-4.79-43.7-4.79s-32.66,1.6-43.7,4.79c-11.04,3.2-19.07,7.93-24.09,14.19-5.02,6.27-7.53,14.05-7.53,23.34s2.51,17.08,7.53,23.34c5.02,6.27,13.05,11,24.09,14.19,11.04,3.19,25.61,4.79,43.7,4.79s32.66-1.6,43.7-4.79Zm-66.18-20.42c-6.43-1.04-11.45-2.9-15.06-5.6-3.61-2.7-5.42-6.54-5.42-11.52s1.81-8.82,5.42-11.52c3.61-2.7,8.63-4.56,15.06-5.6,6.43-1.04,13.92-1.56,22.47-1.56s15.94,.52,22.16,1.56c6.23,1.04,11.04,2.91,14.44,5.6,3.4,2.7,5.1,6.54,5.1,11.52s-1.7,8.82-5.1,11.52c-3.4,2.7-8.22,4.57-14.44,5.6-6.23,1.04-13.61,1.56-22.16,1.56s-16.04-.52-22.47-1.56Z"/>
            <path class="j" d="M430.98,151.81c-3.28,3.49-7.95,5.87-14.01,7.16-6.06,1.29-13.2,1.93-21.42,1.93s-15.71-.64-21.73-1.93c-6.02-1.29-10.65-3.67-13.88-7.16-3.24-3.49-4.86-8.55-4.86-15.19v-34.24h-31.13v39.84c0,7.06,1.26,13.05,3.8,17.99,2.53,4.94,6.04,9.01,10.52,12.2,4.48,3.2,9.73,5.67,15.75,7.41,6.02,1.74,12.55,2.97,19.61,3.67,7.05,.71,14.36,1.06,21.91,1.06,7.14,0,14.17-.35,21.1-1.06,6.93-.71,13.43-1.93,19.48-3.67,6.06-1.74,11.41-4.21,16.06-7.41,4.65-3.19,8.28-7.26,10.89-12.2,2.61-4.94,3.92-10.94,3.92-17.99v-39.84h-31.13v34.24c0,6.64-1.64,11.7-4.92,15.19Z"/>
            <path class="j" d="M479.47,126.04h129.49v-23.66h-129.49v23.66Zm49.18,56.03h31.13v-57.65h-31.13v57.65Z"/>
            <path class="j" d="M729.73,148.45v-12.45h-77.19v-9.96h94.38v-23.66h-125.5v79.68h125.75v-23.66h-94.62v-9.96h77.19Z"/>
            <path class="j" d="M761.79,163.7c1.87,3.28,4.59,6.22,8.16,8.84,3.57,2.61,7.93,4.81,13.07,6.6,5.15,1.79,11.02,3.13,17.62,4.05,6.6,.91,13.84,1.37,21.73,1.37,13.94,0,25.23-.96,33.87-2.86,8.63-1.91,14.94-4.86,18.92-8.84,3.98-3.98,5.98-9.13,5.98-15.44,0-3.65-.87-6.83-2.61-9.52-1.74-2.7-4.54-4.92-8.4-6.66-3.86-1.74-8.9-3.05-15.13-3.92-6.23-.87-13.78-1.31-22.66-1.31-8.05,0-14.69-.08-19.92-.25-5.23-.17-9.28-.48-12.14-.93-2.86-.46-4.88-1.06-6.04-1.81-1.16-.75-1.74-1.74-1.74-2.99,0-2.41,2.1-4.11,6.29-5.1,4.19-1,10.6-1.49,19.24-1.49s15.44,.73,20.17,2.18c4.73,1.45,7.3,3.55,7.72,6.29h32.25c0-10.38-5.04-18.32-15.13-23.84-10.08-5.52-24.67-8.28-43.76-8.28-13.03,0-23.89,1.02-32.56,3.05-8.67,2.03-15.15,5.1-19.42,9.21-4.28,4.11-6.41,9.32-6.41,15.63,0,3.65,.91,6.79,2.74,9.4,1.83,2.61,4.67,4.77,8.53,6.47,3.86,1.7,8.8,2.95,14.82,3.73,6.02,.79,13.18,1.18,21.48,1.18,11.12,0,19.75,.17,25.9,.5,6.14,.33,10.42,.93,12.82,1.8,2.41,.87,3.61,2.1,3.61,3.67,0,1.66-.75,2.97-2.24,3.92-1.49,.96-4.05,1.62-7.66,1.99-3.61,.37-8.53,.56-14.75,.56s-11.85-.31-16.62-.93c-4.77-.62-8.57-1.54-11.39-2.74-2.82-1.2-4.52-2.68-5.1-4.42h-33.99c0,3.98,.93,7.62,2.8,10.89Z"/>
          </g>
        </g>
      </g>
    </pattern>
  </defs>
  <g id="c" data-name="UI">
    <g class="e">
      <polygon class="h" points="49.68 82.67 80.81 82.67 80.81 26.65 129.99 26.65 129.99 2.99 .5 2.99 .5 26.65 49.68 26.65 49.68 82.67"/>
      <path class="h" d="M173.56,60.26h48.68c6.64,0,11.56,.25,14.75,.75,3.19,.5,5.27,1.39,6.23,2.68,.95,1.29,1.43,3.17,1.43,5.67v13.32h31.13v-17.06c0-3.65-1.06-6.45-3.17-8.4-2.12-1.95-5.85-3.3-11.21-4.05-1.28-.18-2.71-.34-4.25-.48,.74-.12,1.47-.25,2.2-.39,3.73-.75,7.05-1.95,9.96-3.61,2.9-1.66,5.19-3.98,6.85-6.97,1.66-2.99,2.49-6.76,2.49-11.33,0-6.89-1.76-12.33-5.29-16.31-3.53-3.98-8.3-6.83-14.32-8.53-6.02-1.7-12.8-2.55-20.36-2.55h-96.24V82.67h31.13v-22.41Zm0-32.37h65.12c2.49,0,4.59,.4,6.29,1.18,1.7,.79,2.55,2.26,2.55,4.42,0,2.32-.85,3.9-2.55,4.73-1.7,.83-3.8,1.24-6.29,1.24h-65.12v-11.58Z"/>
      <path class="h" d="M388.24,70.6l7.82,12.08h34.24L376.38,2.99h-34.61l-53.41,79.68h34.24l7.76-12.08h57.88Zm-45.89-18.68l16.83-26.2,16.97,26.2h-33.8Z"/>
      <polygon class="h" points="548.58 37.23 471.38 37.23 471.38 26.65 565.76 26.65 565.76 2.99 440.25 2.99 440.25 82.67 471.38 82.67 471.38 58.4 548.58 58.4 548.58 37.23"/>
      <polygon class="h" points="689.02 37.23 611.82 37.23 611.82 26.65 706.2 26.65 706.2 2.99 580.7 2.99 580.7 82.67 611.82 82.67 611.82 58.4 689.02 58.4 689.02 37.23"/>
      <rect class="h" x="723.01" y="2.99" width="31.13" height="79.68"/>
      <path class="h" d="M883.12,55.47c-2.66,1.87-6.62,3.34-11.89,4.42-5.27,1.08-12.43,1.62-21.48,1.62-10.63,0-19.26-.62-25.9-1.87-6.64-1.25-11.5-3.19-14.57-5.85-3.07-2.66-4.61-6.1-4.61-10.33,0-4.65,1.54-8.38,4.61-11.21,3.07-2.82,7.93-4.88,14.57-6.16,6.64-1.29,15.27-1.93,25.9-1.93,9.05,0,16.23,.58,21.54,1.74,5.31,1.16,9.29,2.76,11.95,4.79,2.66,2.04,4.48,4.38,5.48,7.04h32.37c-.42-7.97-3.28-14.73-8.59-20.29-5.31-5.56-13.16-9.77-23.53-12.64-10.38-2.86-23.45-4.29-39.22-4.29-12.04,0-22.83,.71-32.37,2.12-9.55,1.41-17.68,3.76-24.4,7.03-6.72,3.28-11.87,7.68-15.44,13.2-3.57,5.52-5.35,12.39-5.35,20.61s1.78,15.02,5.35,20.42c3.57,5.4,8.72,9.65,15.44,12.76,6.72,3.11,14.86,5.31,24.4,6.6,9.54,1.29,20.34,1.93,32.37,1.93,15.77,0,28.82-1.33,39.16-3.98,10.33-2.66,18.16-6.64,23.47-11.95,5.31-5.31,8.17-11.91,8.59-19.8h-32.37c-1,2.16-2.82,4.17-5.48,6.04Z"/>
      <path class="h" d="M122.08,105.44c-6.02-1.7-12.81-2.55-20.36-2.55H5.48v79.68h31.13v-22.41h48.68c6.64,0,11.56,.25,14.75,.75,3.19,.5,5.27,1.39,6.23,2.68,.95,1.29,1.43,3.17,1.43,5.67v13.32h31.13v-17.06c0-3.65-1.06-6.45-3.17-8.4-2.12-1.95-5.85-3.3-11.21-4.05-1.28-.18-2.71-.34-4.25-.48,.74-.12,1.47-.25,2.2-.39,3.73-.75,7.05-1.95,9.96-3.61,2.9-1.66,5.19-3.98,6.85-6.97,1.66-2.99,2.49-6.76,2.49-11.33,0-6.89-1.76-12.33-5.29-16.31-3.53-3.98-8.3-6.83-14.32-8.53Zm-85.47,33.93v-11.58H101.72c2.49,0,4.59,.4,6.29,1.18,1.7,.79,2.55,2.26,2.55,4.42,0,2.32-.85,3.9-2.55,4.73-1.7,.83-3.8,1.24-6.29,1.24H36.61Z"/>
      <path class="h" d="M276.66,105.19c-11.04-3.19-25.61-4.79-43.7-4.79s-32.66,1.6-43.7,4.79c-11.04,3.2-19.07,7.93-24.09,14.19-5.02,6.27-7.53,14.05-7.53,23.34s2.51,17.08,7.53,23.34c5.02,6.27,13.05,11,24.09,14.19,11.04,3.19,25.61,4.79,43.7,4.79s32.66-1.6,43.7-4.79c11.04-3.19,19.07-7.93,24.09-14.19,5.02-6.27,7.53-14.05,7.53-23.34s-2.51-17.08-7.53-23.34c-5.02-6.27-13.05-11-24.09-14.19Zm-7.1,49.06c-3.4,2.7-8.22,4.57-14.44,5.6-6.23,1.04-13.61,1.56-22.16,1.56s-16.04-.52-22.47-1.56c-6.43-1.04-11.45-2.9-15.06-5.6-3.61-2.7-5.42-6.54-5.42-11.52s1.81-8.82,5.42-11.52c3.61-2.7,8.63-4.56,15.06-5.6,6.43-1.04,13.92-1.56,22.47-1.56s15.94,.52,22.16,1.56c6.23,1.04,11.04,2.91,14.44,5.6,3.4,2.7,5.1,6.54,5.1,11.52s-1.7,8.82-5.1,11.52Z"/>
      <path class="h" d="M436.4,137.12c0,6.64-1.64,11.7-4.92,15.19-3.28,3.49-7.95,5.87-14.01,7.16-6.06,1.29-13.2,1.93-21.42,1.93s-15.71-.64-21.73-1.93c-6.02-1.29-10.65-3.67-13.88-7.16-3.24-3.49-4.86-8.55-4.86-15.19v-34.24h-31.13v39.84c0,7.06,1.26,13.05,3.8,17.99,2.53,4.94,6.04,9.01,10.52,12.2,4.48,3.2,9.73,5.67,15.75,7.41,6.02,1.74,12.55,2.97,19.61,3.67,7.05,.71,14.36,1.06,21.91,1.06,7.14,0,14.17-.35,21.1-1.06,6.93-.71,13.43-1.93,19.48-3.67,6.06-1.74,11.41-4.21,16.06-7.41,4.65-3.19,8.28-7.26,10.89-12.2,2.61-4.94,3.92-10.94,3.92-17.99v-39.84h-31.13v34.24Z"/>
      <polygon class="h" points="479.97 126.54 529.15 126.54 529.15 182.57 560.28 182.57 560.28 126.54 609.46 126.54 609.46 102.88 479.97 102.88 479.97 126.54"/>
      <polygon class="h" points="653.04 148.95 730.23 148.95 730.23 136.5 653.04 136.5 653.04 126.54 747.41 126.54 747.41 102.88 621.91 102.88 621.91 182.57 747.66 182.57 747.66 158.91 653.04 158.91 653.04 148.95"/>
      <path class="h" d="M870.61,141.73c-3.86-1.74-8.9-3.05-15.13-3.92-6.23-.87-13.78-1.31-22.66-1.31-8.05,0-14.69-.08-19.92-.25-5.23-.17-9.28-.48-12.14-.93-2.86-.46-4.88-1.06-6.04-1.81-1.16-.75-1.74-1.74-1.74-2.99,0-2.41,2.1-4.11,6.29-5.1,4.19-1,10.6-1.49,19.24-1.49s15.44,.73,20.17,2.18c4.73,1.45,7.3,3.55,7.72,6.29h32.25c0-10.38-5.04-18.32-15.13-23.84-10.08-5.52-24.67-8.28-43.76-8.28-13.03,0-23.89,1.02-32.56,3.05-8.67,2.03-15.15,5.1-19.42,9.21-4.28,4.11-6.41,9.32-6.41,15.63,0,3.65,.91,6.79,2.74,9.4,1.83,2.61,4.67,4.77,8.53,6.47,3.86,1.7,8.8,2.95,14.82,3.73,6.02,.79,13.18,1.18,21.48,1.18,11.12,0,19.75,.17,25.9,.5,6.14,.33,10.42,.93,12.82,1.8,2.41,.87,3.61,2.1,3.61,3.67,0,1.66-.75,2.97-2.24,3.92-1.49,.96-4.05,1.62-7.66,1.99-3.61,.37-8.53,.56-14.75,.56s-11.85-.31-16.62-.93c-4.77-.62-8.57-1.54-11.39-2.74-2.82-1.2-4.52-2.68-5.1-4.42h-33.99c0,3.98,.93,7.62,2.8,10.89,1.87,3.28,4.59,6.22,8.16,8.84,3.57,2.61,7.93,4.81,13.07,6.6,5.15,1.79,11.02,3.13,17.62,4.05,6.6,.91,13.84,1.37,21.73,1.37,13.94,0,25.23-.96,33.87-2.86,8.63-1.91,14.94-4.86,18.92-8.84,3.98-3.98,5.98-9.13,5.98-15.44,0-3.65-.87-6.83-2.61-9.52-1.74-2.7-4.54-4.92-8.4-6.66Z"/>
    </g>
    <g>
      <circle class="g" cx="42.31" cy="253.73" r="36.88"/>
      <circle class="g" cx="124.18" cy="253.73" r="36.88"/>
      <circle class="g" cx="205.78" cy="253.73" r="36.88"/>
      <circle class="g" cx="287.65" cy="253.73" r="36.88"/>
      <path class="k" d="M56.04,253.12c-2.19,5.09-5.09,9.35-8.64,12.85,5.25,3.45,11.81,5.8,19.85,7-1.42,1.42-3.12,4.1-3.94,5.85-8.64-1.64-15.48-4.43-21-8.59-5.8,4.1-12.85,6.89-20.89,8.86-.77-1.48-2.68-4.38-3.94-5.8,7.93-1.53,14.66-3.88,20.02-7.44-3.23-3.5-5.91-7.71-7.98-12.58l5.85-1.8c1.64,3.99,3.99,7.55,7,10.5,3.12-2.95,5.52-6.51,7.11-10.77l6.56,1.91Zm-18.48-8.91c-3.72,4.81-9.62,9.79-14.49,12.74-1.2-1.31-3.66-3.66-5.14-4.76,4.87-2.46,10.17-6.45,13.34-10.39l6.29,2.41Zm28.71-2.9H18.3v-6.34h21.33c-.77-1.8-1.8-3.77-2.79-5.41l6.23-2.19c1.48,2.35,3.28,5.47,3.99,7.55l-.16,.05h19.36v6.34Zm-13.62,.16c4.7,3.23,11.05,8.04,14.05,11.54l-5.58,4.21c-2.68-3.39-8.75-8.53-13.62-12.09l5.14-3.66Z"/>
      <path class="k" d="M114.01,253.61c-.93,4.98-2.41,10.12-4.27,14.22,.88,.55,1.91,1.31,3.39,2.19,3.72,2.24,8.86,2.57,15.26,2.57s16.08-.55,22.09-1.42c-.71,1.75-1.8,4.92-1.86,6.67-4.54,.27-14.16,.66-20.56,.66-7.27,0-11.87-.6-15.8-2.9-2.3-1.26-4.21-3.06-5.36-3.06-1.26,0-3.23,3.72-4.54,6.84l-4.38-6.18c1.91-2.3,3.94-4.1,5.74-5.2,1.26-2.73,2.35-6.18,3.17-9.52h-6.89c1.26-3.23,2.73-7.6,3.94-11.87h-4.92v-5.8h12.8c-1.15,3.83-2.46,8.2-3.72,12.03h2.19l.98-.22,2.73,.98Zm-9.19-14.38c-.6-2.46-2.02-6.45-2.95-9.41l5.74-1.75c.98,2.95,2.41,6.62,3.17,9.08l-5.96,2.08Zm17.88,30.68h-6.12v-28.16h12.25c-2.52-1.15-5.09-2.24-7.33-3.17l4.21-3.45c1.91,.71,4.21,1.59,6.4,2.57,1.53-.88,3.01-1.86,4.38-2.9h-19.41v-4.92h25.1l1.31-.33,3.83,3.06c-2.73,2.62-6.18,5.3-9.73,7.44,1.2,.6,2.35,1.15,3.28,1.7h6.62v22.53c0,2.68-.49,3.99-2.24,4.87-1.7,.93-4.1,.93-7.33,.93-.27-1.59-.93-3.66-1.64-5.09,1.75,.05,3.61,.05,4.16,.05,.66-.05,.82-.27,.82-.82v-2.52h-6.45v7.98h-5.8v-7.98h-6.29v8.2Zm0-23.46v2.95h6.29v-2.95h-6.29Zm6.29,10.55v-3.06h-6.29v3.06h6.29Zm12.25-10.55h-6.45v2.95h6.45v-2.95Zm0,10.55v-3.06h-6.45v3.06h6.45Z"/>
      <path class="f" d="M51.58,219.15c-1.14-.29-2.2-1.14-2.8-2.15-1.26-2.17-3.12-4.17-6.47-4.2-2.34-.02-5.05,.83-6.47,2.66-.11,.13-.15,.35,0,.55,.28,.4,.35,.76,.24,1.16-.18,.7-.94,1.08-1.62,1.43-.45,.23-.92,.42-1.42,.55-1.13,.32-2.48,.12-3.5-.46-2.17-1.24-4.79-2.05-7.7-.4-2.04,1.15-3.96,3.25-4.28,5.54-.02,.16,.06,.38,.28,.48,.45,.2,.69,.49,.79,.88,.18,.69-.28,1.4-.69,2.04-.27,.42-.58,.83-.96,1.19-.82,.85-2.09,1.34-3.25,1.35-2.51,.01-5.18,.62-6.87,3.51-1.19,2.01-1.81,4.79-.94,6.93,.06,.15,.24,.3,.49,.28,.48-.06,.83,.07,1.12,.36,.51,.51,.46,1.36,.43,2.12-.02,.5-.09,1-.23,1.5-.29,1.15-1.14,2.2-2.15,2.8-2.17,1.26-4.17,3.13-4.2,6.47-.01,2.34,.84,5.05,2.66,6.48,.13,.1,.36,.14,.55,0,.4-.29,.76-.35,1.16-.25,.7,.18,1.08,.94,1.43,1.62,.23,.45,.42,.92,.55,1.42,.32,1.13,.12,2.48-.46,3.49-1.24,2.17-2.04,4.79-.4,7.7,1.15,2.04,3.24,3.95,5.54,4.28,.16,.02,.38-.06,.48-.28,.2-.45,.49-.68,.88-.79,.69-.19,1.4,.28,2.04,.69,.43,.27,.83,.59,1.19,.96,.85,.83,1.34,2.09,1.35,3.26,.01,2.5,.62,5.17,3.51,6.87,2.01,1.18,4.79,1.8,6.93,.94,.15-.07,.3-.24,.28-.48-.05-.49,.07-.84,.36-1.12,.51-.51,1.36-.46,2.12-.43,.5,.02,1,.09,1.51,.23,1.15,.29,2.2,1.14,2.8,2.15,1.26,2.17,3.12,4.17,6.47,4.2,2.34,.02,5.05-.83,6.47-2.65,.1-.13,.14-.36,0-.56-.29-.4-.35-.76-.25-1.15,.19-.7,.94-1.08,1.62-1.43,.45-.24,.93-.43,1.42-.55,1.14-.33,2.48-.12,3.5,.46,2.18,1.25,4.79,2.05,7.71,.4,2.04-1.15,3.95-3.24,4.28-5.53,.02-.16-.05-.38-.28-.48-.45-.2-.68-.48-.79-.87-.18-.7,.28-1.41,.69-2.05,.27-.42,.59-.83,.96-1.19,.82-.85,2.09-1.34,3.26-1.35,2.5-.02,5.17-.62,6.87-3.51,1.18-2.02,1.8-4.79,.94-6.94-.07-.15-.24-.3-.48-.27-.49,.05-.84-.08-1.12-.37-.51-.51-.46-1.35-.43-2.12,.02-.5,.09-1.01,.23-1.51,.29-1.15,1.14-2.2,2.15-2.8,2.16-1.26,4.17-3.12,4.2-6.47,.02-2.34-.84-5.05-2.65-6.47-.13-.11-.36-.15-.55,0-.4,.28-.76,.35-1.16,.25-.7-.18-1.08-.94-1.43-1.62-.24-.45-.43-.92-.56-1.42-.32-1.13-.11-2.48,.46-3.5,1.24-2.17,2.05-4.79,.4-7.7-1.15-2.04-3.25-3.96-5.54-4.28-.16-.02-.37,.05-.48,.28-.2,.45-.48,.69-.87,.79-.7,.18-1.41-.28-2.05-.69-.42-.27-.83-.59-1.19-.95-.85-.82-1.34-2.09-1.35-3.26-.02-2.51-.62-5.17-3.51-6.87-2.02-1.19-4.79-1.81-6.94-.94-.15,.07-.3,.24-.27,.49,.05,.49-.08,.83-.37,1.13-.51,.51-1.35,.46-2.12,.42-.5-.02-1.01-.1-1.51-.23h0Z"/>
      <path class="f" d="M133.45,219.15c-1.14-.29-2.2-1.14-2.8-2.15-1.26-2.17-3.12-4.17-6.47-4.2-2.34-.02-5.05,.83-6.47,2.66-.11,.13-.15,.35,0,.55,.28,.4,.35,.76,.24,1.16-.18,.7-.94,1.08-1.62,1.43-.45,.23-.92,.42-1.42,.55-1.13,.32-2.48,.12-3.5-.46-2.17-1.24-4.79-2.05-7.7-.4-2.04,1.15-3.96,3.25-4.28,5.54-.02,.16,.06,.38,.28,.48,.45,.2,.69,.49,.79,.88,.18,.69-.28,1.4-.69,2.04-.27,.42-.58,.83-.96,1.19-.82,.85-2.09,1.34-3.25,1.35-2.51,.01-5.18,.62-6.87,3.51-1.19,2.01-1.81,4.79-.94,6.93,.06,.15,.24,.3,.49,.28,.48-.06,.83,.07,1.12,.36,.51,.51,.46,1.36,.43,2.12-.02,.5-.09,1-.23,1.5-.29,1.15-1.14,2.2-2.15,2.8-2.17,1.26-4.17,3.13-4.2,6.47-.01,2.34,.84,5.05,2.66,6.48,.13,.1,.36,.14,.55,0,.4-.29,.76-.35,1.16-.25,.7,.18,1.08,.94,1.43,1.62,.23,.45,.42,.92,.55,1.42,.32,1.13,.12,2.48-.46,3.49-1.24,2.17-2.04,4.79-.4,7.7,1.15,2.04,3.24,3.95,5.54,4.28,.16,.02,.38-.06,.48-.28,.2-.45,.49-.68,.88-.79,.69-.19,1.4,.28,2.04,.69,.43,.27,.83,.59,1.19,.96,.85,.83,1.34,2.09,1.35,3.26,.01,2.5,.62,5.17,3.51,6.87,2.01,1.18,4.79,1.8,6.93,.94,.15-.07,.3-.24,.28-.48-.05-.49,.07-.84,.36-1.12,.51-.51,1.36-.46,2.12-.43,.5,.02,1,.09,1.51,.23,1.15,.29,2.2,1.14,2.8,2.15,1.26,2.17,3.12,4.17,6.47,4.2,2.34,.02,5.05-.83,6.47-2.65,.1-.13,.14-.36,0-.56-.29-.4-.35-.76-.25-1.15,.19-.7,.94-1.08,1.62-1.43,.45-.24,.93-.43,1.42-.55,1.14-.33,2.48-.12,3.5,.46,2.18,1.25,4.79,2.05,7.71,.4,2.04-1.15,3.95-3.24,4.28-5.53,.02-.16-.05-.38-.28-.48-.45-.2-.68-.48-.79-.87-.19-.7,.28-1.41,.69-2.05,.27-.42,.59-.83,.96-1.19,.82-.85,2.09-1.34,3.26-1.35,2.5-.02,5.17-.62,6.87-3.51,1.18-2.02,1.8-4.79,.94-6.94-.07-.15-.24-.3-.48-.27-.49,.05-.84-.08-1.12-.37-.51-.51-.46-1.35-.43-2.12,.02-.5,.09-1.01,.23-1.51,.29-1.15,1.14-2.2,2.15-2.8,2.16-1.26,4.17-3.12,4.2-6.47,.02-2.34-.84-5.05-2.65-6.47-.13-.11-.36-.15-.55,0-.4,.28-.76,.35-1.16,.25-.7-.18-1.08-.94-1.43-1.62-.24-.45-.43-.92-.56-1.42-.32-1.13-.11-2.48,.46-3.5,1.24-2.17,2.05-4.79,.4-7.7-1.15-2.04-3.25-3.96-5.54-4.28-.16-.02-.37,.05-.48,.28-.2,.45-.48,.69-.87,.79-.7,.18-1.41-.28-2.05-.69-.42-.27-.83-.59-1.19-.95-.85-.82-1.34-2.09-1.35-3.26-.02-2.51-.62-5.17-3.51-6.87-2.02-1.19-4.79-1.81-6.94-.94-.15,.07-.3,.24-.27,.49,.05,.49-.08,.83-.37,1.13-.51,.51-1.35,.46-2.12,.42-.5-.02-1.01-.1-1.51-.23h0Z"/>
      <path class="k" d="M228.48,234.8c-1.7,5.74-4.27,10.61-7.6,14.71,3.17,2.52,6.95,4.7,11.32,6.07-1.31,1.26-3.17,3.77-4.05,5.47l-.11-.05v17.88h-6.23v-1.7h-10.28v1.86h-6.02v-17.77l-1.26,.55c-.44-.88-1.2-2.08-2.02-3.12v1.59h-6.02v7.27l6.45-1.48,.6,5.74c-7.66,1.91-15.97,3.83-22.15,5.25l-1.15-6.23,2.46-.44v-18.38h5.3v17.28l2.73-.55v-20.56h-7.66v-18.1h18.87v13.56c3.99-3.83,7.27-9.62,9.08-15.59l6.18,1.53c-.44,1.2-.88,2.46-1.37,3.66h7.66l1.15-.22,4.1,1.75Zm-39.98,7.82h7.22v-6.95h-7.27l.05,6.95Zm13.73,13.67c3.77-1.64,7.38-3.99,10.45-6.84-1.31-1.59-2.41-3.23-3.39-4.81-1.04,1.37-2.13,2.62-3.23,3.77-.93-.98-2.9-2.73-4.38-3.72v3.5h-5.47v6.4h6.02v1.7Zm21.38,2.57c-2.52-1.48-4.76-3.12-6.84-4.98-2.08,1.91-4.32,3.5-6.73,4.98h13.56Zm-1.8,12.74v-7.27h-10.28v7.27h10.28Zm-8.86-32.81l-.44,.82c1.09,1.86,2.46,3.77,3.99,5.63,1.59-2.02,2.9-4.16,3.99-6.45h-7.55Z"/>
      <path class="k" d="M277.37,262.14c-.11-.71-.22-1.53-.38-2.41-9.9,1.42-11.7,1.97-12.91,2.52-.33-1.2-1.37-4.21-2.13-5.85,1.48-.38,2.68-1.59,4.43-3.61,.6-.77,1.86-2.24,3.28-4.32-3.99,.49-5.2,.82-6.02,1.2-.33-1.2-1.31-4.05-2.02-5.63,1.09-.27,1.97-1.31,3.06-2.9,1.09-1.53,4.32-7.49,6.07-13.23l5.91,2.46c-1.86,4.38-4.43,9.02-7.05,12.85l3.66-.27c1.42-2.3,2.79-4.81,3.88-7.27l5.52,3.39c-2.08,3.83-4.54,7.66-7.27,11.27l4.05-1.15c1.26,3.66,2.52,8.48,2.9,11.38l-4.98,1.59Zm-8.2,2.62c-.44,5.03-1.31,10.39-2.46,13.84-1.04-.55-3.5-1.31-4.81-1.7,1.31-3.28,1.97-8.31,2.3-12.91l4.98,.77Zm5.41-.88c.6,3.66,1.09,8.37,1.2,11.59l-4.81,.82c0-3.12-.44-7.93-.93-11.59l4.54-.82Zm1.31-9.13c-.27-1.31-.66-2.62-.98-3.77-1.15,1.48-2.35,2.95-3.55,4.32l4.54-.55Zm3.83,7.55c.88,2.41,1.8,5.47,2.24,7.55l-4.43,1.48c-.33-2.02-1.26-5.3-2.08-7.66l4.27-1.37Zm15.26-4.05c-1.8,8.48-5.85,14.77-11.54,18.27-.77-1.31-2.46-3.45-3.66-4.54,3.39-1.86,6.29-5.52,7.98-9.62h-4.92v-5.25h7.27l.98-.16,3.88,1.31Zm17.83,.38c-2.52,1.97-4.98,4.1-7.22,5.74,2.13,3.17,4.81,5.91,7.98,7.55-1.37,1.2-3.34,3.55-4.27,5.2-3.17-2.19-5.8-5.36-7.88-9.13v4.7c0,2.9-.49,4.48-2.41,5.52-1.8,.93-4.38,1.04-7.88,1.04-.22-1.75-.98-4.27-1.75-5.96,2.02,.11,4.27,.11,4.92,.05,.71,0,.93-.16,.93-.77v-18.81h-10.45v-19.91h7.77c.71-1.97,1.37-4.1,1.75-5.8l7.44,1.31c-.82,1.59-1.7,3.06-2.46,4.48h11.7v19.91h-9.57v1.75c.49,1.53,1.04,3.01,1.64,4.38,1.8-1.7,3.66-3.72,4.87-5.3l4.87,4.05Zm-21.98-17.17h13.89v-2.73h-13.89v2.73Zm0,7.44h13.89v-2.9h-13.89v2.9Z"/>
      <path class="f" d="M215.05,219.15c-1.14-.29-2.2-1.14-2.8-2.15-1.26-2.17-3.12-4.17-6.47-4.2-2.34-.02-5.05,.83-6.47,2.66-.11,.13-.15,.35,0,.55,.28,.4,.35,.76,.24,1.16-.18,.7-.94,1.08-1.62,1.43-.45,.23-.92,.42-1.42,.55-1.13,.32-2.48,.12-3.5-.46-2.17-1.24-4.79-2.05-7.7-.4-2.04,1.15-3.96,3.25-4.28,5.54-.02,.16,.06,.38,.28,.48,.45,.2,.69,.49,.79,.88,.18,.69-.28,1.4-.69,2.04-.27,.42-.58,.83-.96,1.19-.82,.85-2.09,1.34-3.25,1.35-2.51,.01-5.18,.62-6.87,3.51-1.19,2.01-1.81,4.79-.94,6.93,.06,.15,.24,.3,.49,.28,.48-.06,.83,.07,1.12,.36,.51,.51,.46,1.36,.43,2.12-.02,.5-.09,1-.23,1.5-.29,1.15-1.14,2.2-2.15,2.8-2.17,1.26-4.17,3.13-4.2,6.47-.01,2.34,.84,5.05,2.66,6.48,.13,.1,.36,.14,.55,0,.4-.29,.76-.35,1.16-.25,.7,.18,1.08,.94,1.43,1.62,.23,.45,.42,.92,.55,1.42,.32,1.13,.12,2.48-.46,3.49-1.24,2.17-2.04,4.79-.4,7.7,1.15,2.04,3.24,3.95,5.54,4.28,.16,.02,.38-.06,.48-.28,.2-.45,.49-.68,.88-.79,.69-.19,1.4,.28,2.04,.69,.43,.27,.83,.59,1.19,.96,.85,.83,1.34,2.09,1.35,3.26,.01,2.5,.62,5.17,3.51,6.87,2.01,1.18,4.79,1.8,6.93,.94,.15-.07,.3-.24,.28-.48-.05-.49,.07-.84,.36-1.12,.51-.51,1.36-.46,2.12-.43,.5,.02,1,.09,1.5,.23,1.15,.29,2.2,1.14,2.8,2.15,1.26,2.17,3.12,4.17,6.47,4.2,2.34,.02,5.05-.83,6.47-2.65,.1-.13,.14-.36,0-.56-.29-.4-.35-.76-.25-1.15,.19-.7,.94-1.08,1.62-1.43,.45-.24,.93-.43,1.42-.55,1.14-.33,2.48-.12,3.5,.46,2.18,1.25,4.79,2.05,7.71,.4,2.04-1.15,3.95-3.24,4.28-5.53,.02-.16-.05-.38-.28-.48-.45-.2-.68-.48-.79-.87-.19-.7,.28-1.41,.69-2.05,.27-.42,.59-.83,.96-1.19,.82-.85,2.09-1.34,3.26-1.35,2.5-.02,5.17-.62,6.87-3.51,1.18-2.02,1.8-4.79,.94-6.94-.07-.15-.24-.3-.48-.27-.49,.05-.84-.08-1.12-.37-.51-.51-.46-1.35-.43-2.12,.02-.5,.09-1.01,.23-1.51,.29-1.15,1.14-2.2,2.15-2.8,2.16-1.26,4.17-3.12,4.2-6.47,.02-2.34-.84-5.05-2.65-6.47-.13-.11-.36-.15-.55,0-.4,.28-.76,.35-1.16,.25-.7-.18-1.07-.94-1.43-1.62-.24-.45-.43-.92-.56-1.42-.32-1.13-.11-2.48,.46-3.5,1.24-2.17,2.05-4.79,.4-7.7-1.15-2.04-3.25-3.96-5.54-4.28-.16-.02-.37,.05-.48,.28-.2,.45-.48,.69-.87,.79-.7,.18-1.41-.28-2.05-.69-.42-.27-.83-.59-1.19-.95-.85-.82-1.34-2.09-1.35-3.26-.02-2.51-.62-5.17-3.51-6.87-2.02-1.19-4.79-1.81-6.94-.94-.15,.07-.3,.24-.27,.49,.05,.49-.08,.83-.37,1.13-.51,.51-1.35,.46-2.12,.42-.5-.02-1.01-.1-1.51-.23h0Z"/>
      <path class="f" d="M296.92,219.15c-1.14-.29-2.2-1.14-2.8-2.15-1.26-2.17-3.12-4.17-6.47-4.2-2.34-.02-5.05,.83-6.47,2.66-.11,.13-.15,.35,0,.55,.28,.4,.35,.76,.24,1.16-.18,.7-.94,1.08-1.62,1.43-.45,.23-.92,.42-1.42,.55-1.13,.32-2.48,.12-3.5-.46-2.17-1.24-4.79-2.05-7.7-.4-2.04,1.15-3.96,3.25-4.28,5.54-.02,.16,.06,.38,.28,.48,.45,.2,.69,.49,.79,.88,.18,.69-.28,1.4-.69,2.04-.27,.42-.58,.83-.96,1.19-.82,.85-2.09,1.34-3.25,1.35-2.51,.01-5.18,.62-6.87,3.51-1.19,2.01-1.81,4.79-.94,6.93,.06,.15,.24,.3,.49,.28,.48-.06,.83,.07,1.12,.36,.51,.51,.46,1.36,.43,2.12-.02,.5-.09,1-.23,1.5-.29,1.15-1.14,2.2-2.15,2.8-2.17,1.26-4.17,3.13-4.2,6.47-.01,2.34,.84,5.05,2.66,6.48,.13,.1,.36,.14,.55,0,.4-.29,.76-.35,1.16-.25,.7,.18,1.08,.94,1.43,1.62,.23,.45,.42,.92,.55,1.42,.32,1.13,.12,2.48-.46,3.49-1.24,2.17-2.04,4.79-.4,7.7,1.15,2.04,3.24,3.95,5.54,4.28,.16,.02,.38-.06,.48-.28,.2-.45,.49-.68,.88-.79,.69-.19,1.4,.28,2.04,.69,.43,.27,.83,.59,1.19,.96,.85,.83,1.34,2.09,1.35,3.26,.01,2.5,.62,5.17,3.51,6.87,2.01,1.18,4.79,1.8,6.93,.94,.15-.07,.3-.24,.28-.48-.05-.49,.07-.84,.36-1.12,.51-.51,1.36-.46,2.12-.43,.5,.02,1,.09,1.51,.23,1.15,.29,2.2,1.14,2.8,2.15,1.26,2.17,3.12,4.17,6.47,4.2,2.34,.02,5.05-.83,6.47-2.65,.1-.13,.14-.36,0-.56-.29-.4-.35-.76-.25-1.15,.19-.7,.94-1.08,1.62-1.43,.45-.24,.93-.43,1.42-.55,1.14-.33,2.48-.12,3.5,.46,2.18,1.25,4.79,2.05,7.71,.4,2.04-1.15,3.95-3.24,4.28-5.53,.02-.16-.05-.38-.28-.48-.45-.2-.68-.48-.79-.87-.18-.7,.28-1.41,.69-2.05,.27-.42,.59-.83,.96-1.19,.82-.85,2.09-1.34,3.26-1.35,2.5-.02,5.17-.62,6.87-3.51,1.18-2.02,1.8-4.79,.94-6.94-.07-.15-.24-.3-.48-.27-.49,.05-.84-.08-1.12-.37-.51-.51-.46-1.35-.43-2.12,.02-.5,.09-1.01,.23-1.51,.29-1.15,1.14-2.2,2.15-2.8,2.16-1.26,4.17-3.12,4.2-6.47,.02-2.34-.84-5.05-2.65-6.47-.13-.11-.36-.15-.55,0-.4,.28-.76,.35-1.16,.25-.7-.18-1.08-.94-1.43-1.62-.24-.45-.43-.92-.56-1.42-.32-1.13-.11-2.48,.46-3.5,1.24-2.17,2.05-4.79,.4-7.7-1.15-2.04-3.25-3.96-5.54-4.28-.16-.02-.37,.05-.48,.28-.2,.45-.48,.69-.87,.79-.7,.18-1.41-.28-2.05-.69-.42-.27-.83-.59-1.19-.95-.85-.82-1.34-2.09-1.35-3.26-.02-2.51-.62-5.17-3.51-6.87-2.02-1.19-4.79-1.81-6.94-.94-.15,.07-.3,.24-.27,.49,.05,.49-.08,.83-.37,1.13-.51,.51-1.35,.46-2.12,.42-.5-.02-1.01-.1-1.51-.23h0Z"/>
    </g>
  </g>
</svg>