<?xml version="1.0" encoding="UTF-8"?>
<svg id="b" data-name="圖層 2" xmlns="http://www.w3.org/2000/svg" width="434.15" height="355.07" viewBox="0 0 434.15 355.07">
  <defs>
    <style>
      .d {
        fill: #f2a111;
      }

      .e {
        fill: #fff;
        opacity: .34;
      }

      .f {
        fill: #ffc439;
      }

      .g {
        fill: #e5ac2e;
      }

      .h {
        fill: #cc7415;
      }

      .i {
        fill: #b10418;
      }

      .j {
        fill: #ffd462;
      }

      .k {
        fill: #f9c900;
      }

      .l {
        fill: #b7690b;
      }

      .m {
        fill: #f4bc00;
      }

      .n {
        fill: none;
        stroke: #6b0200;
        stroke-miterlimit: 10;
        stroke-width: 2.19px;
      }

      .o {
        fill: #efac03;
      }

      .p {
        fill: #f8ba41;
      }

      .q {
        fill: #790603;
      }

      .r {
        fill: #f8b30b;
      }

      .s {
        fill: #c6952e;
      }

      .t {
        fill: #340404;
      }

      .u {
        fill: #682f04;
      }

      .v {
        fill: #3f1d02;
      }

      .w {
        fill: #fcd224;
      }

      .x {
        fill: #fbc83b;
      }

      .y {
        fill: #ffb30b;
      }

      .z {
        fill: #6b0200;
      }
    </style>
  </defs>
  <g id="c" data-name="說明">
    <g>
      <polygon class="z" points="223.39 355.07 434.14 258.91 396.07 119.36 184.93 214.04 223.39 355.07"/>
      <polygon class="q" points="84.05 207.48 294.79 111.32 396.07 119.36 184.93 214.04 84.05 207.48"/>
      <path class="l" d="M84.05,207.48l100.88,6.56,211.15-94.68-101.28-8.04L84.05,207.48Zm21.26-3.9l190.43-86.89,79.36,6.3-191.14,85.7-78.65-5.12Z"/>
      <polygon class="u" points="375.1 122.99 306.08 153.94 295.74 116.69 375.1 122.99"/>
      <polygon class="z" points="84.05 207.48 122.11 347.02 223.39 355.07 184.93 214.04 84.05 207.48"/>
      <polygon class="i" points="194.11 247.73 93.13 240.8 92.03 236.74 192.99 243.62 194.11 247.73"/>
      <polygon class="i" points="204.11 284.37 103.13 277.44 102.02 273.37 202.99 280.26 204.11 284.37"/>
      <polygon class="i" points="213.97 320.53 112.99 313.6 111.88 309.54 212.85 316.42 213.97 320.53"/>
      <polygon class="i" points="214.39 322.05 425.23 226.24 424.12 222.17 213.27 317.94 214.39 322.05"/>
      <polygon class="i" points="204.25 284.89 415.2 189.47 414.09 185.4 203.13 280.78 204.25 284.89"/>
      <polygon class="i" points="194.11 247.73 405.17 152.7 404.06 148.63 192.99 243.62 194.11 247.73"/>
      <path class="z" d="M99.56,160.16l-.05-.03,.78-.35c-.25,.12-.49,.26-.73,.38Z"/>
      <g>
        <polygon class="q" points="84.05 207.48 294.79 111.32 224.88 0 14.14 96.16 84.05 207.48"/>
        <path class="t" d="M219.36,78.03c-13.78-25.14-15.12-58.88,3.49-69.42l63.4,99.86c-18.6,10.54-49.82,.7-66.89-30.44Z"/>
        <path class="h" d="M14.14,96.16l69.9,111.32,210.74-96.16L224.88,0,14.14,96.16Zm9.9,3.21L221.94,9.08l62.95,99.03L86.99,198.41,24.04,99.37Z"/>
        <path class="t" d="M13.51,176.04c-15.91-28.1-20.26-67.84,.7-79.71l69.87,111.28c-20.96,11.87-54.66-3.47-70.57-31.57Z"/>
        <path class="g" d="M13.51,176.04c15.91,28.1,49.61,43.44,70.57,31.57L14.21,96.33c-20.96,11.87-16.62,51.62-.7,79.71Zm-1.11-60.41l53.18,85.05c-13.4-1.58-30.38-6.44-44.85-32.93-8.95-16.38-13.77-39.94-8.34-52.12Z"/>
      </g>
      <path class="y" d="M118.85,180.81c-5.7-20.56,12.82-28.52,22.96-28.47-6.39-21.3,17.83-25.13,25.11-17.77-2.63-16.69,21.48-21.98,30.08-18.19-5.98-26.78,27.64-35.29,26.87-19.4,4.2-8.02,23.12-12.63,30.42-6.4-1.1-18.69,23.27-19.47,34.18-.35-1.56-3.28,19.56-8.84,31.26,4.17,8.44-13.51,36.73,1.89,30.68,14.4,21.21-.54,21.65,17.07,21.65,17.07l-187.84,85.75-73.68-4.89c-6.58-7.74-1.89-25.77,8.33-25.9Z"/>
      <path class="w" d="M156.66,153.05c-2.93,10.29,2.11,20.74,11.25,23.35,9.15,2.61,18.94-3.61,21.87-13.9,2.93-10.28-2.11-20.73-11.26-23.33-9.14-2.61-18.94,3.61-21.87,13.88Z"/>
      <path class="w" d="M232.33,151.91c-9.88,4.1-15.5,13.19-12.54,20.3,2.95,7.11,13.35,9.56,23.23,5.47,9.87-4.09,15.48-13.18,12.53-20.3-2.95-7.11-13.35-9.56-23.22-5.47Z"/>
      <path class="o" d="M337.75,132.95c7.98-7.12,9.32-18.64,2.99-25.74-6.33-7.1-17.93-7.09-25.92,.03-7.97,7.11-9.31,18.63-2.97,25.74,6.33,7.1,17.93,7.08,25.9-.03Z"/>
      <path class="w" d="M293.74,137.28c10.4,2.49,20.63-2.99,22.84-12.24,2.22-9.25-4.41-18.77-14.82-21.26-10.39-2.49-20.62,2.99-22.83,12.24-2.22,9.25,4.42,18.77,14.81,21.26Z"/>
      <path class="o" d="M230.38,147.92c10.4,2.49,20.63-2.99,22.84-12.24,2.22-9.25-4.41-18.77-14.82-21.26-10.39-2.49-20.61,2.99-22.83,12.24-2.21,9.25,4.42,18.77,14.81,21.26Z"/>
      <path class="o" d="M157.05,197.44c5.25-9.32,3.56-20.22-3.79-24.37-7.35-4.14-17.56,.04-22.81,9.36-5.25,9.31-3.55,20.21,3.79,24.36,7.34,4.14,17.56-.05,22.81-9.35Z"/>
      <polygon class="l" points="105.31 203.58 183.96 208.69 375.1 122.99 396.07 119.36 184.93 214.04 84.05 207.48 105.31 203.58"/>
      <g>
        <path class="m" d="M269.89,131.83l3.31,5.49h0c3.65,6.07-1.45,15.85-11.4,21.86-9.97,6.01-21,5.96-24.66-.11l1.68,2.79-4.99-8.28,36.06-21.75Z"/>
        <g>
          <path class="d" d="M241.63,153.23l6.25,10.37c-1.32,.04-2.58,0-3.74-.22l-5.16-8.55,2.65-1.6Z"/>
          <path class="d" d="M249,152.36l5.98,9.92c-1.06,.35-2.1,.6-3.12,.81l-5.51-9.14,2.65-1.6Z"/>
          <path class="d" d="M255.52,150.54l5.47,9.06c-.92,.52-1.82,1.02-2.74,1.44l-5.37-8.9,2.65-1.6Z"/>
        </g>
        <path class="f" d="M233.83,153.58c3.84,6.36,15.02,6.66,24.98,.65,9.96-6.01,14.91-16.04,11.08-22.4-3.83-6.35-15.02-6.65-24.98-.64-9.96,6.01-14.91,16.04-11.08,22.4Z"/>
        <path class="r" d="M237.06,151.43c3.06,5.08,12.15,5.24,20.27,.34,8.13-4.9,12.22-13.01,9.15-18.09-3.06-5.07-12.14-5.23-20.26-.33-8.13,4.9-12.22,13.01-9.16,18.08Z"/>
        <path class="e" d="M238.26,136.52c1.84-1.96,4.08-3.78,6.65-5.33,9.96-6.01,21.15-5.71,24.98,.64,.13,.22,.23,.46,.34,.69-1.02,.76-2.08,1.5-3.22,2.18-10.79,6.51-22.74,7.06-28.75,1.83Z"/>
      </g>
      <g>
        <path class="m" d="M162.15,153.5l4.1,4.98h0c3.74,4.55-.5,14.24-9.47,21.62-8.98,7.39-19.3,9.69-23.05,5.14l1.72,2.09-5.81-7.07,32.51-26.76Z"/>
        <path class="d" d="M136.9,178.3l7.11,8.64c-1.23,.31-2.41,.54-3.52,.6l-5.98-7.27,2.39-1.97Z"/>
        <path class="d" d="M150.08,184.57c-.98,.51-1.95,.95-2.91,1.34l-5.78-7.02,2.39-1.97,6.3,7.65Z"/>
        <path class="d" d="M149.73,172.99l6.3,7.66c-.83,.65-1.65,1.28-2.48,1.85l-6.21-7.54,2.39-1.96Z"/>
        <path class="f" d="M129.64,180.26c3.93,4.78,14.4,2.67,23.38-4.72,8.98-7.39,13.07-17.26,9.13-22.04-3.92-4.77-14.4-2.66-23.38,4.73-8.98,7.39-13.06,17.26-9.14,22.03Z"/>
        <path class="r" d="M132.53,177.68c3.14,3.81,11.63,2.03,18.96-4,7.33-6.03,10.71-14.02,7.57-17.84-3.13-3.81-11.62-2.02-18.96,4-7.33,6.03-10.71,14.02-7.58,17.83Z"/>
        <path class="e" d="M132.85,164.33c1.61-2.11,3.6-4.19,5.92-6.1,8.98-7.39,19.45-9.5,23.38-4.73,.14,.16,.24,.35,.36,.53-.91,.89-1.87,1.76-2.89,2.6-9.73,8.01-20.87,11.03-26.77,7.7Z"/>
      </g>
      <g>
        <path class="m" d="M301.96,84.58l2.6,5.9h0c2.37,5.4-4.33,13.57-14.98,18.25-10.65,4.69-21.2,4.1-23.58-1.3l1.09,2.48-3.68-8.38,38.55-16.95Z"/>
        <path class="d" d="M270.94,101.61l4.5,10.24c-1.27-.04-2.46-.13-3.54-.37l-3.79-8.62,2.83-1.25Z"/>
        <path class="d" d="M281.92,111.22c-1.08,.23-2.14,.39-3.16,.5l-3.66-8.32,2.84-1.24,3.99,9.07Z"/>
        <path class="d" d="M284.73,99.98l3.99,9.08c-.98,.4-1.94,.79-2.89,1.11l-3.93-8.94,2.83-1.24Z"/>
        <path class="f" d="M263.41,101.53c2.49,5.66,13.14,6.47,23.79,1.79,10.65-4.68,17.25-13.07,14.76-18.74-2.48-5.65-13.14-6.46-23.78-1.78-10.65,4.68-17.25,13.08-14.77,18.73Z"/>
        <path class="r" d="M266.9,99.84c1.99,4.52,10.65,5.11,19.34,1.29,8.69-3.82,14.11-10.6,12.12-15.12-1.99-4.52-10.64-5.1-19.33-1.28-8.69,3.82-14.11,10.6-12.13,15.11Z"/>
        <path class="e" d="M270.83,87.07c2.12-1.6,4.6-3.05,7.35-4.27,10.65-4.68,21.3-3.87,23.78,1.78,.09,.2,.14,.41,.2,.6-1.12,.61-2.27,1.19-3.48,1.72-11.54,5.07-23.07,4.96-27.85,.16Z"/>
      </g>
      <g>
        <path class="k" d="M210.16,167.13l1.29,5.47h0c2.03,8.64-5.11,17.72-15.97,20.28-10.87,2.57-21.32-2.36-23.36-11l.93,3.97-2.22-9.43,39.33-9.29Z"/>
        <g>
          <path class="p" d="M177.74,177.09l3.49,14.77c-1.26-.55-2.44-1.15-3.5-1.91l-2.88-12.18,2.89-.68Z"/>
          <path class="p" d="M184.94,179.34l3.34,14.13c-1.09-.06-2.13-.23-3.15-.44l-3.07-13.01,2.89-.68Z"/>
          <path class="p" d="M191.55,180.1l3.05,12.92c-.99,.2-1.97,.39-2.94,.46l-2.99-12.69,2.89-.68Z"/>
        </g>
        <path class="j" d="M170.82,176.42c2.14,9.05,12.68,14.34,23.54,11.78,10.87-2.57,17.93-12.01,15.79-21.07-2.14-9.05-12.68-14.34-23.54-11.77-10.86,2.56-17.92,12.01-15.79,21.06Z"/>
        <path class="x" d="M174.39,175.35c1.7,7.23,10.28,11.43,19.15,9.33,8.86-2.09,14.65-9.68,12.95-16.91-1.7-7.22-10.28-11.42-19.15-9.33-8.86,2.09-14.65,9.68-12.95,16.9Z"/>
        <path class="e" d="M179.05,158.6c2.21-1.45,4.76-2.58,7.56-3.24,10.86-2.57,21.41,2.73,23.54,11.77,.07,.31,.11,.63,.16,.94-1.15,.43-2.34,.81-3.57,1.1-11.77,2.78-23.23-1.86-27.7-10.57Z"/>
      </g>
      <g>
        <path class="k" d="M308.51,134.47l1.63,5.38h0c2.58,8.49-3.98,18.01-14.65,21.26-10.68,3.25-21.43-1-24.01-9.49l1.19,3.9-2.82-9.27,38.66-11.77Z"/>
        <g>
          <path class="p" d="M276.8,146.47l4.42,14.52c-1.29-.47-2.51-.99-3.61-1.68l-3.65-11.97,2.84-.87Z"/>
          <path class="p" d="M284.12,148.26l4.23,13.89c-1.09,0-2.14-.09-3.18-.24l-3.89-12.79,2.84-.87Z"/>
          <path class="p" d="M290.77,148.59l3.86,12.7c-.98,.26-1.94,.51-2.91,.64l-3.79-12.47,2.84-.87Z"/>
        </g>
        <path class="j" d="M269.85,146.24c2.71,8.9,13.56,13.5,24.24,10.26,10.68-3.26,17.13-13.12,14.42-22.03-2.71-8.89-13.56-13.5-24.24-10.25-10.68,3.25-17.13,13.13-14.42,22.02Z"/>
        <path class="x" d="M273.34,144.94c2.16,7.1,10.99,10.75,19.7,8.1,8.72-2.64,14.01-10.59,11.85-17.69-2.16-7.1-10.98-10.75-19.7-8.09-8.71,2.65-14.01,10.59-11.85,17.69Z"/>
        <path class="e" d="M276.93,127.94c2.11-1.59,4.58-2.88,7.34-3.72,10.68-3.25,21.54,1.36,24.24,10.25,.09,.31,.15,.62,.22,.93-1.12,.5-2.28,.96-3.49,1.33-11.57,3.52-23.3-.38-28.32-8.79Z"/>
      </g>
      <g>
        <path class="k" d="M178.69,176.05l4,4.68h0c4.41,5.17,1.12,15.23-7.36,22.48-8.49,7.26-18.95,8.95-23.36,3.78l2.03,2.37-6.03-7.05,30.72-26.26Z"/>
        <g>
          <path class="p" d="M155.3,200.75l7.55,8.83c-1.24,.24-2.44,.4-3.59,.38l-6.22-7.28,2.26-1.93Z"/>
          <path class="p" d="M162.14,198.77l7.22,8.45c-.94,.5-1.89,.9-2.83,1.26l-6.65-7.78,2.26-1.93Z"/>
          <path class="p" d="M168.02,196.02l6.6,7.72c-.78,.63-1.56,1.25-2.37,1.8l-6.49-7.59,2.26-1.93Z"/>
        </g>
        <path class="j" d="M147.97,202.31c4.64,5.42,15.27,3.94,23.76-3.31,8.48-7.25,11.59-17.53,6.96-22.95-4.63-5.41-15.27-3.93-23.75,3.32-8.48,7.25-11.59,17.53-6.97,22.94Z"/>
        <path class="x" d="M150.68,199.76c3.7,4.33,12.32,3.06,19.25-2.86,6.92-5.92,9.52-14.24,5.82-18.57-3.69-4.32-12.31-3.04-19.23,2.88-6.92,5.92-9.52,14.24-5.83,18.55Z"/>
        <path class="e" d="M149.49,185.46c1.43-2.14,3.26-4.22,5.45-6.09,8.48-7.25,19.12-8.73,23.75-3.32,.16,.19,.29,.39,.43,.59-.85,.88-1.74,1.74-2.7,2.57-9.19,7.86-20.42,10.26-26.93,6.25Z"/>
      </g>
      <g>
        <path class="k" d="M337.76,104.61l-1.14,6.08h0c-1.04,5.56-10.77,8.42-21.74,6.38-10.98-2.05-19.03-8.22-17.99-13.78l-.48,2.55,1.61-8.63,39.73,7.41Z"/>
        <path class="p" d="M303.95,101.33l-1.97,10.55c-.99-.72-1.88-1.44-2.61-2.21l1.66-8.89,2.92,.54Z"/>
        <path class="p" d="M307.46,114.89c-.98-.4-1.9-.84-2.77-1.31l1.6-8.58,2.92,.54-1.74,9.35Z"/>
        <path class="p" d="M315.77,107.5l-1.75,9.35c-.99-.21-1.96-.42-2.89-.68l1.72-9.21,2.92,.54Z"/>
        <path class="j" d="M298.03,97.2c-1.09,5.84,6.92,12.24,17.89,14.28,10.97,2.05,20.75-1.03,21.84-6.87,1.09-5.83-6.92-12.23-17.89-14.28-10.97-2.05-20.75,1.04-21.83,6.87Z"/>
        <path class="x" d="M301.71,97.74c-.87,4.66,5.68,9.81,14.63,11.48,8.96,1.67,16.92-.77,17.79-5.43,.87-4.65-5.68-9.8-14.63-11.47-8.95-1.67-16.92,.77-17.79,5.42Z"/>
        <path class="e" d="M311.73,89.74c2.54-.12,5.3,.07,8.13,.59,10.97,2.05,18.98,8.45,17.89,14.28-.04,.2-.11,.39-.17,.59-1.22-.13-2.45-.29-3.69-.52-11.89-2.22-20.97-8.54-22.17-14.94Z"/>
      </g>
      <g>
        <path class="k" d="M223.09,106.88l3.93,4.77h0c3.59,4.37-.47,13.66-9.09,20.76-8.62,7.09-18.53,9.29-22.12,4.93l1.65,2-5.58-6.78,31.2-25.68Z"/>
        <path class="p" d="M198.85,130.68l6.82,8.29c-1.18,.29-2.31,.52-3.37,.57l-5.74-6.98,2.29-1.89Z"/>
        <path class="p" d="M211.5,136.7c-.94,.49-1.87,.92-2.79,1.29l-5.55-6.74,2.3-1.89,6.04,7.34Z"/>
        <path class="p" d="M211.17,125.58l6.05,7.35c-.8,.62-1.58,1.23-2.38,1.78l-5.96-7.24,2.29-1.89Z"/>
        <path class="j" d="M191.88,132.56c3.77,4.58,13.81,2.56,22.44-4.54,8.62-7.09,12.54-16.56,8.77-21.15-3.76-4.58-13.82-2.56-22.44,4.54-8.62,7.09-12.53,16.57-8.77,21.14Z"/>
        <path class="x" d="M194.66,130.09c3.01,3.66,11.16,1.95,18.2-3.84,7.04-5.78,10.28-13.46,7.27-17.12-3.01-3.66-11.15-1.95-18.19,3.84-7.04,5.79-10.28,13.46-7.27,17.11Z"/>
        <path class="e" d="M194.97,117.27c1.55-2.02,3.46-4.02,5.68-5.85,8.62-7.09,18.67-9.11,22.44-4.54,.13,.15,.23,.34,.34,.51-.88,.85-1.79,1.68-2.77,2.49-9.34,7.68-20.02,10.58-25.69,7.39Z"/>
      </g>
      <g>
        <path class="k" d="M254.37,103.11l.02,6.16h0c.01,6.79-9.01,12.33-20.17,12.36-11.17,.03-20.23-5.46-20.25-12.25v3.12l-.02-9.28,40.41-.11Z"/>
        <g>
          <path class="p" d="M220.55,106.78l.03,11.62c-1.1-.62-2.12-1.28-2.98-2.04l-.03-9.58h2.97Z"/>
          <path class="p" d="M227.04,109.7l.03,11.11c-1.04-.23-2.02-.54-2.97-.87l-.03-10.24h2.97Z"/>
          <path class="p" d="M233.31,111.41l.03,10.16c-1.01-.02-2-.06-2.97-.17l-.03-9.98h2.97Z"/>
        </g>
        <path class="j" d="M213.96,103.22c.02,7.13,9.08,12.9,20.24,12.87,11.16-.03,20.19-5.84,20.17-12.98-.02-7.12-9.08-12.89-20.24-12.86-11.16,.03-20.19,5.85-20.17,12.96Z"/>
        <path class="x" d="M217.67,103.04c.02,5.69,7.41,10.31,16.52,10.28,9.11-.03,16.48-4.68,16.46-10.37-.02-5.68-7.4-10.29-16.52-10.27-9.11,.03-16.48,4.68-16.46,10.35Z"/>
        <path class="e" d="M226.03,91.36c2.48-.71,5.22-1.1,8.1-1.11,11.16-.03,20.22,5.74,20.24,12.86,0,.25-.04,.49-.06,.73-1.21,.12-2.46,.2-3.72,.2-12.1,.03-22.2-5.41-24.56-12.68Z"/>
      </g>
      <path class="s" d="M331.91,228.94c11.64-5.24,13.98-16.06,15.12-18.93,1.15-2.87,4.74-5.05,4.74-5.05,0,0-3.86,1.18-6.16-.14-2.29-1.32-9.37-7.89-21.01-2.65,0,0,.06-4.51-7.77-4.47-7.82,.05-15.66,.44-16.23-1.66,.57,2.1-5.74,8.08-11.87,14.32s-3.9,9.72-3.9,9.72c-11.64,5.24-13.97,16.06-15.12,18.93-1.15,2.87-4.74,5.05-4.74,5.05,0,0,3.86-1.18,6.16,.14,2.29,1.32,9.37,7.89,21.01,2.65,0,0-.06,4.51,7.77,4.47,7.82-.05,15.66-.44,16.23,1.66-.57-2.1,5.74-8.08,11.87-14.32,6.13-6.24,3.9-9.72,3.9-9.72Z"/>
      <path class="n" d="M314.52,247.06c1.93-2.56,4.86-5.52,8.58-9.27l2.27-2.3,3.76-4.51,1.62-6.26c8.25-3.72,10.62-10.71,11.89-14.47,.19-.55,.35-1.02,.49-1.4-.3-.18-.66-.42-1.07-.7-2.82-1.91-8.07-5.48-16.32-1.76l-5.42,2.44,.07-5.58c-.31-.34-1.44-.97-4.08-.95l-2.88,.03c-4.73,.06-8.45,.1-11.21-.35-1.93,2.56-4.87,5.52-8.58,9.27l-2.27,2.3c-2.06,2.1-2.64,3.5-2.72,4.02l2.77,4.3-5.43,2.45c-8.25,3.72-10.62,10.71-11.89,14.47-.19,.55-.35,1.02-.49,1.4,.3,.18,.65,.42,1.07,.7,2.82,1.92,8.07,5.48,16.32,1.76l5.43-2.45-.07,5.58c.31,.34,1.44,.97,4.08,.95l2.9-.03c4.72-.05,8.44-.1,11.2,.35Z"/>
      <path class="g" d="M218.63,337.6s-10.52-10.43-14.53-10.14c-4.01,.29-9.67,16.41-9.47,19.95,.2,3.55,1.6,5.86,1.6,5.86l27.16,1.78-4.76-17.45Z"/>
      <path class="g" d="M88.81,224.93s10.52,10.43,14.53,10.14c4.01-.29,9.67-16.41,9.47-19.95-.2-3.55-1.6-5.86-1.6-5.86l-27.16-1.78,4.76,17.45Z"/>
      <path class="g" d="M189.78,231.54s-5.1,9.41-9.42,8.57c-4.32-.84-19.14-18.29-20.9-21.94s-1.6-5.86-1.6-5.86l27.16,1.78,4.76,17.45Z"/>
      <path class="g" d="M117.45,329.96s5.1-9.41,9.42-8.57c4.32,.84,19.14,18.29,20.9,21.94,1.76,3.65,1.6,5.86,1.6,5.86l-27.16-1.78-4.76-17.45Z"/>
      <path class="g" d="M429.39,241.51s-14.18-4.76-20.14-1.43c-5.96,3.32-16.42,26.88-16.59,31-.17,4.11,1.6,5.86,1.6,5.86l39.89-17.98-4.76-17.45Z"/>
      <path class="g" d="M189.75,231.44s14.18,4.76,20.14,1.43c5.96-3.32,16.42-26.88,16.59-31,.17-4.11-1.6-5.86-1.6-5.86l-39.89,17.98,4.76,17.45Z"/>
      <path class="g" d="M400.83,136.81s-8.76,15.09-15.04,17.28c-6.27,2.19-25.89-7.82-28.02-10.9s-1.6-5.86-1.6-5.86l39.89-17.98,4.76,17.45Z"/>
      <path class="g" d="M218.63,337.62s8.76-15.09,15.04-17.28c6.27-2.19,25.89,7.82,28.02,10.9,2.13,3.08,1.6,5.86,1.6,5.86l-39.89,17.98-4.76-17.45Z"/>
      <path class="v" d="M300.9,222.53c-1.27-4.65,.75-9.78,4.5-11.47,3.75-1.69,7.82,.71,9.09,5.35,.79,2.9,.3,5.99-1.1,8.32l4.25,9.73-10.44,4.71-1.41-11.02c-2.22-.7-4.11-2.72-4.9-5.63Z"/>
    </g>
  </g>
</svg>