<?xml version="1.0" encoding="UTF-8"?>
<svg id="b" data-name="圖層 2" xmlns="http://www.w3.org/2000/svg" width="119.78" height="308.12" viewBox="0 0 119.78 308.12">
  <g id="c" data-name="圖層 1">
    <path d="M119.76,153.68c-.07-.53-.29-.81-.87-.47-.47,.27-.84,.19-1.13-.34-.53-.94-1.34-1.1-2.26-.53-.02,.01-.05,.02-.06,.04-.92,.95-1.83,1.37-3.1,.42-.38-.28-1.31-.07-1.87,.18-.85,.38-1.63,.96-2.4,1.5-.86,.61-1.77,.6-2.58-.05-.2-.16-.47-.22-.71-.33-.1,.27-.21,.53-.31,.81-.02,.07,0,.15,0,.23,.13,1.36,.13,1.42-1.26,1.34-.95-.06-1.89-.3-2.84-.47-.37-.07-.73-.15-1.31-.27,.49,1.93,1.97,2.52,3.38,3.18-1.12,.34-1.12,.33-1.53-.06-.41-.39-.84-.76-1.24-1.16-.2-.19-.31-.5-.54-.63-1.07-.59-2.18-1.11-3.25-1.69-.21-.11-.34-.38-.46-.6-.06-.1-.02-.25-.02-.38-.05-7.72-.09-15.45-.17-23.17-.05-3.99-.15-7.97-.32-11.96-.03-.8-.48-1.59-.73-2.39-.16-.52-.32-1.05-.47-1.58-.24-.88-.38-1.81-.72-2.65-.37-.93-1.01-1.66-2.12-1.8-.17-.02-.46-.32-.44-.46,.17-1.21,.37-2.42,.6-3.63,.12-.61,.37-.58,1.02-.45,1.06,.21,2.19,1.07,3.33,.11,.13-.11,.41-.04,.59-.13,.9-.47,1.83-.91,2.68-1.46,.49-.32,.87-.81,1.28-1.24,.13-.14,.33-.33,.31-.47-.12-.82,.51-1.06,.99-1.46,.37-.31,.62-.76,.89-1.17,.09-.14,.02-.38,.1-.52,.55-.88,1.23-1.7,1.66-2.64,.46-1,.96-1.96,1.55-2.89,.17-.28,.31-.58,.46-.87,.11-.22,.23-.45,.32-.68,.06-.14,.04-.32,.12-.44,1.09-1.7,2.17-3.4,3.29-5.08,.17-.25,.5-.44,.79-.54,1.17-.4,1.59-1.11,1.7-2.31,.06-.65,.5-1.31,.89-1.88,1.11-1.59,2.3-3.14,3.45-4.7,.15-.2,.26-.44,.39-.65,.22-.35,.47-.68,.68-1.03,.2-.34,.35-.7,.52-1.05,.09-.2,.17-.4,.26-.6,.03-.07,.13-.11,.14-.17,.23-.96,.46-1.93,.68-2.9,.06-.26,.11-.52,.2-.77,.06-.16,.27-.31,.26-.45-.07-1.24-.02-2.51-.3-3.71-.24-1.04-.78-2.05-1.34-2.98-.87-1.44-2.27-2.32-3.84-2.76-1.29-.37-2.64-.55-3.98-.64-1.88-.14-3.76-.15-5.64-.16-.71,0-1.43-.21-2.07-.2-.77,0-1.33-.32-1.98-.47-.45-.1-.74-.26-1.04-.63-.28-.35-.78-.52-1.18-.76-.04-.02-.11,0-.15-.03-.62-.56-1.21-1.14-1.85-1.67-.35-.29-.76-.5-1.15-.74-.1-.06-.33-.04-.35-.1-.33-1.12-1.5-1.25-2.27-1.72-1.16-.7-2.59-1-3.94-1.32-.75-.17-1.57-.03-2.47-.03,0-.73-.02-1.53,0-2.34,.03-1.22,.12-2.44,.14-3.66,0-.55,.15-.93,.72-1.1,.7-.22,1.02-.74,.96-1.47-.04-.46-.08-.92-.2-1.36-.35-1.31-.73-2.61-1.13-3.9-.68-2.23-.84-4.48-.57-6.8,.22-1.84,.17-3.72,.24-5.58,.08-2.29,.22-4.58,.24-6.87,.02-2.37-.01-4.75-.15-7.12-.08-1.42-.88-2.46-2.23-3.06-3.44-1.51-7.07-2.17-10.78-2.49-1.88-.16-3.77-.3-5.63-.64-1.69-.31-3.35-.28-5.04-.13-.69,.06-1.19-.06-1.34-.87-.06-.3-.31-.58-.52-.83-.39-.46-.59-1.87-.35-2.49,.08-.19-.12,.32-.18-1.68h-2c-.46,2-.53,1.49-.4,2.01,.1,.38-.08,1.34-.23,1.75-.16,.48-.55,1.14-.61,1.62-.08,.64-.39,.84-.91,.85-2.66,.01-5.32,.07-7.98,.13-.94,.02-1.88,.2-2.81,.36-1.66,.27-3.31,.63-4.97,.89-.86,.13-1.73,.18-2.6,.21-1.14,.04-2.14,.41-3.09,1.01-.8,.51-1.65,.93-2.46,1.41-1.6,.94-2.76,2.23-3.01,4.13-.29,2.25-.63,4.51-.67,6.77-.04,2.17-.09,4.32-.29,6.48-.14,1.46,.06,2.96,.25,4.43,.26,1.92,.09,3.75-.53,5.59-.49,1.45-.91,2.93-1.22,4.42-.2,.96-.44,1.95,.54,2.82,.56,.5,.75,.23,1.21-.22,.07,.14,.15,.25,.17,.37,.17,1.17,.61,2.3,.26,3.54-.17,.61-.07,1.32,0,1.97,.07,.65-.12,1.03-.75,1.31-2.21,.97-4.15,2.36-6.02,3.89-1.04,.85-2.08,1.76-3.25,2.38-.91,.49-2.02,.76-3.06,.81-1.62,.08-3.24-.14-4.87-.2-3.35-.12-6.49,.64-9.12,2.85-1.05,.88-1.84,2.15-1.84,3.41v3.99c0,1.9,1.41,3.8,2.11,5.69,.83,2.26,2.28,4.17,3.77,6.03,1.45,1.82,2.94,3.62,4.35,5.46,.59,.77,1.05,1.63,1.57,2.45,.03,.04,.04,.1,.07,.14,1.61,1.86,2.26,4.2,3.17,6.4,1.03,2.47,2.42,4.73,3.89,6.94,.81,1.2,2.05,1.98,3.44,2.44,.1,.03,.22,.03,.29,.08,1.22,.88,2.37,.21,3.54-.14,1.07-.32,2.16-.6,3.25-.83,.2-.04,.59,.2,.67,.4,.3,.76,.52,1.55,.73,2.34,.15,.56-.28,.69-.69,.82-2.47,.76-4.94,1.52-7.4,2.29-1.47,.46-1.49,.48-1.04,1.98,.66,2.15,1.4,4.28,2.03,6.44,.18,.61,.14,1.3,.09,1.94-.07,1.01-.24,2.02-.39,3.26-.34-.65-.61-1.13-.85-1.63-1.11-2.33-2.2-4.67-3.3-7.01-.32-.68-.54-1.32-.14-2.1,.36-.7,.11-1.43-.55-1.9-.64-.47-.78-1.11-.77-1.81,0-.9-.34-1.42-1.24-1.55-.64-.09-.97-.4-1.22-.98-.47-1.1-1.04-2.17-1.56-3.25-.26-.54-.65-.68-1.19-.45-.35,.15-.69,.34-1.05,.47-.67,.26-.13,.95-.44,1.25-.31,.29-.79,.4-1.19,.6-.05,.02-.06,.14-.06,.22,.04,1.05,.08,2.1,.11,3.15,0,.22-.05,.44-.08,.66-.03,.15-.14,.31-.11,.44,.45,1.8-.04,3.86,1.16,5.42,.93,1.19,1.48,2.55,2.23,3.81,1,1.68,.57,3.35,.05,5.03-.41,1.35-2.87,2.07-3.96,1.26-.54-.4-1.23-.6-1.86-.9-.06,.09-.13,.18-.19,.27,.16,.22,.28,.51,.49,.66,.6,.43,1.2,.93,1.88,1.15,.79,.26,.95,.77,.96,1.44,.03,2.17,.06,4.35,.06,6.52,0,3.07,0,6.14-.02,9.21-.03,3.01-.09,6.02-.15,9.04,0,.17-.06,.34-.12,.64-.3-.19-.53-.32-.75-.46-1.24-.83-2.38-.82-3.52,.12-.46,.38-.78,.35-1.17-.06-.24-.26-.53-.49-.84-.66-.89-.51-1.81-.24-2.26,.67-.21,.42-.42,.72-1,.64-.23-.03-.83,.36-.83,.56v3.84c0,1.27,.93,2.58,1.5,3.81,.36,.77,.95,1.47,1.5,2.13,.18,.21,.63,.2,.72,.38,.07,.43,.07,.91,.25,1.3,.25,.55,.61,1.07,.97,1.56,.4,.55,.75,.52,.96-.14,.21-.69,.27-1.42,.46-2.17,.02,.24,.08,.48,.06,.72-.11,1.4,.09,1.64,1.48,1.64,.66,0,1.33,.02,1.99,.01,.61-.01,.8,.19,.66,.84-.16,.76-.3,1.57-.22,2.33,.12,1.12,.74,1.99,1.78,2.53,.66,.34,.65,.51,.06,.96-1.22,.92-1.2,2.27,.04,3.16,.92,.66,1.09,1.27,.62,2.3-.99,2.19-1.97,4.38-2.99,6.56-.29,.63-.43,1.2,.07,1.77,.25,.29,.25,.5-.12,.73-.77,.5-.97,1.02-.71,1.89,.13,.43,.14,.71-.25,1.06-.78,.68-.72,1.61,.1,2.23,.64,.48,1.32,.92,2.19,.62,.63-.22,.98-.66,1.14-1.33,.07-.29,.33-.63,.6-.75,.81-.35,1.22-.93,1.19-1.78-.02-.54,.23-.57,.65-.56,1.3,.02,1.85,.97,2.48,1.88,.29,.42,.74,.73,1.12,1.08,.24,.22,.54,.4,.72,.66,.64,.92,1.59,1.28,2.64,.95,.19-.06,.41-.16,.59-.12,1.25,.25,2.2-.59,3.29-.87,.67-.17,1.44,.11,2.33,.2-.2,.44-.28,.64-.38,.83-1.18,2.32-2.54,4.57-3.48,6.99-.76,1.95-1.02,4.1-1.5,6.16,.59,1.65-.15,3.25-.19,4.87-.04,1.66-.15,3.32-.13,4.98,.02,1.3,.08,2.61,.31,3.89,.3,1.61,1.07,3,2.46,4,.21,.15,.36,.58,.32,.85-.12,.86-.28,1.72-.55,2.54-.59,1.8-.42,3.58-.04,5.37,.07,.32,.19,.64,.23,.97,.02,.18,0,.46-.1,.55-.55,.44-1.1,.91-1.72,1.23-1.22,.63-2.04,1.63-2.76,2.74-.27,.42-.49,.6-1.04,.68-1.25,.18-2.58,.4-2.99,1.95-.04,.14-.14,.26-.22,.4-.6-.44-1.19-.84-1.74-1.29-.12-.1-.1-.38-.12-.58-.07-.84-.4-1.45-1.29-1.7-.2-.06-.4-.41-.44-.65-.14-.98-.64-1.4-1.62-1.27-1.32,.17-2.08,1-1.92,2.09,.02,.1,0,.24,.07,.29,.69,.59,.61,1.3,.53,2.12-.05,.44,.38,1.01,.73,1.39,.33,.36,.37,.6,.04,.89-.43,.38-.37,.75-.16,1.23,.99,2.16,1.95,4.34,2.92,6.51,.65,1.46,.61,1.64-.56,2.69-1.05,.95-.99,2.14,.1,3.01,.55,.44,1.04,.96,1.52,1.49,.86,.95,.55,3.18-.92,3.69-1.02,.35-1.81,1.11-2.31,2.12-.15,.31-.5,.52-.66,.83-.38,.77-.61,1.57-.27,2.43,.61,1.57,1.17,3.15,1.79,4.72,.32,.81,.62,1.59,.46,2.51-.09,.53-.25,1.18,.32,1.64,.07,.06,.02,.28,.02,.43,0,.66-.04,1.33,.03,1.98,.05,.56-.06,.89-.65,1.1-1.15,.41-1.57,1.1-1.46,2.22,.01,.16,.1,.32,.18,.48,.14,.3,.32,.59,.45,.9,.19,.44,.32,.92,.53,1.35,.2,.42,.12,.68-.3,.85-.26,.11-.52,.22-.78,.33-1.1,.47-1.31,.81-1.31,1.98,0,.57,.17,.99,.68,1.27,.64,.35,.98,.86,.87,1.63-.13,.84,.15,1.48,.92,1.91,.44,.25,.85,.58,1.22,.93,.7,.68,1.46,.8,2.3,.34,.55-.29,.99-.2,1.48,.16,3.56,2.62,7.15,5.21,10.7,7.85,.32,.24,.55,.8,.56,1.22,.03,.92,.42,1.49,1.1,2.12,1.77,1.65,3.75,2.29,6.15,2.04,1.44-.15,2.91-.04,4.37-.01,.62,.01,.85-.24,.87-.86,.04-1.52,.06-1.49,1.57-1.46,4.3,.08,8.59,.15,12.89,.2,5.22,.06,10.43,.1,15.65,.16,1.51,.02,3.01,.11,4.52,.14,.55,.01,.8,.24,.78,.79-.06,2.11,.24,1.78,1.98,1.81,1.76,.04,3.53,.07,5.29,.14,1.12,.05,2.13-.19,3.03-.86,.35-.26,.7-.52,1.09-.71,1.04-.51,1.61-1.23,1.45-2.48-.04-.3,.27-.78,.56-.97,4.17-2.68,8.38-5.32,12.56-7.98,.44-.28,.83-.39,1.27-.11,.97,.6,1.82,.47,2.59-.37,.24-.26,.54-.48,.84-.66,.83-.49,1.31-1.12,1.21-2.18-.03-.3,.35-.67,.61-.95,.34-.37,.86-.62,1.09-1.03,.62-1.13,.13-2.23-1.12-2.79-1.11-.49-1.15-.61-.57-1.69,.36-.67,.75-1.33,1.06-2.02,.45-.99-.38-2.52-1.58-2.72-.92-.15-1.07-.47-.95-1.35,.16-1.24,.05-2.51,.1-3.76,.01-.34,.16-.69,.29-1.02,.71-1.72,1.43-3.44,2.14-5.16,.06-.14,.09-.3,.17-.43,.75-1.25,.57-2.23-.37-3.44-.66-.84-1.29-1.65-2.11-2.33-.38-.32-.76-.68-1.03-1.1-.73-1.14-.5-2.33,.54-3.22,.46-.39,.91-.8,1.35-1.23,.86-.84,.81-2.13-.1-2.92-.14-.12-.29-.21-.43-.32-.84-.66-.93-.96-.5-1.9,1.13-2.49,2.27-4.98,3.38-7.48,.12-.26,.25-.71,.12-.84-.56-.61-.23-.9,.26-1.32,.46-.4,.62-1.01,.32-1.61-.19-.38-.17-.67,.17-.94,.1-.08,.23-.2,.22-.3-.03-.51,.07-1.14-.19-1.49-.52-.71-1.33-1.13-2.26-1.06-.6,.04-.95,.4-1.13,.99-.08,.25-.27,.55-.5,.66-.78,.38-1.19,.96-1.18,1.81,0,.4-.09,.59-.52,.68-.43,.1-.83,.33-1.3,.53-.63-1.44-1.93-1.8-3.35-1.95-.12-.01-.28-.04-.35-.12-.53-.64-1.02-1.31-1.58-1.92-.33-.37-.73-.67-1.13-.96-.27-.19-.62-.25-.89-.44-1.07-.74-1.02-.84-.7-2.09,.29-1.16,.38-2.36,.6-3.54,.37-2.01,.77-4.01,1.13-6.02,.1-.57,.1-1.17,.12-1.75,.01-.56-.06-1.12,.44-1.56,.11-.1,.11-.39,.09-.57-.15-1.03-.28-2.07-.5-3.1-.26-1.18-.02-2.25,.31-3.4,.3-1.04,.16-2.24-.64-3.2-.2-.24-.34-.69-.26-.97,.62-1.95,.07-3.84-.18-5.76-.17-1.28-.14-2.6-.16-3.9-.03-1.25-.16-1.43-1.4-1.43-.58,0-.62-.32-.59-.74,.06-.82,.12-1.63,.17-2.45,.04-.63-.21-1.03-.85-1.28-.33-.13-.54-.57-.81-.88,.06-.09,.13-.17,.19-.26,.95,.14,1.9,.41,2.84,.37,.8-.04,1.58-.44,2.36-.72,.23-.08,.38-.37,.61-.45,1.24-.41,1.84-1.54,2.73-2.34,.18-.16,.4-.3,.62-.38,.53-.18,1.11-.26,1.61-.49,.56-.26,1.02-.2,1.51,.13-.24,1.24,.01,2.23,1.34,2.7,.17,.06,.31,.38,.37,.6,.27,1.07,.9,1.56,1.95,1.28,.61-.16,1.23-.5,1.7-.92,.62-.54,.6-1.29,.03-1.9-.3-.33-.36-.6-.21-1.03,.36-1.03,.15-1.6-.82-2.19-.42-.26-.45-.5-.21-.86,.41-.62,.32-1.22,0-1.88-1.1-2.33-2.16-4.69-3.22-7.04-.36-.8,.25-1.18,.75-1.53,.54-.37,.92-.79,.96-1.47,.04-.76-.13-1.39-.85-1.83-.66-.4-.65-.68,.02-1.01,.93-.45,1.36-1.3,1.76-2.14,.14-.3,.02-.74-.05-1.1-.15-.67-.44-1.32-.51-2-.06-.62,.1-1.26,.17-2.05q1.14,1.13,2.07-.47s.05,.07,.06,.11c.06,.37,.12,.75,.19,1.12,.39-.11,.86-.13,1.16-.36,.51-.4,.9-.93,1.37-1.44,.03,.1,.09,.19,.07,.23-.7,1.19-.29,2.36,.08,3.53,.06,.18,.19,.47,.29,.47,.19,0,.45-.12,.57-.27,.17-.21,.3-.49,.35-.75,.33-1.85,1.23-3.38,2.41-4.83,.61-.75,.84-1.82,1.2-2.75,.19-.5,.27-1.04,.43-1.55,.18-.53,.35-1.04-.39-1.14,.35-1.01,.7-1.95,1.01-2.91,.08-.26,.07-.56,.03-.83ZM12.54,115.21c-.42-.76-.37-1.48-.1-2.27,.16-.46,.11-.98,.16-1.48,0-.02-.03-.05-.02-.07,.52-1.22-.32-2.52,.28-3.78,.74,1.75,1.5,3.5,2.23,5.26,.58,1.41,1.16,2.83,1.67,4.28,.14,.4,.14,.92,.01,1.33-.39,1.32-.84,2.63-1.34,3.91-.15,.4-.53,.72-.8,1.07l-.18-.1c.08-.47,.18-.94,.23-1.42,.14-1.48-.08-2.89-.85-4.2-.48-.81-.83-1.7-1.29-2.52Zm10.15,40.83c-1.09,.54-2.2,1.06-3.3,1.6-.34,.17-.65,.4-.99,.54-.33,.13-.7,.17-1.05,.25-.03-.11-.05-.21-.08-.32,.26-.11,.52-.23,.78-.34,1.06-.44,2.01-1.03,2.54-2.1,.1-.2,.16-.55,.06-.69-.11-.14-.45-.16-.68-.14-1.47,.16-2.93,.39-4.41,.5-.81,.06-.86-.11-.58-.89,.09-.26,.03-.58,.04-.87-.29,0-.57-.01-.86,0-.07,0-.14,.06-.21,.09-1.53,.68-2.74-.09-2.75-1.82,0-2.4,.08-4.8,.12-7.2,.06-3.14,.1-6.29,.18-9.43,.07-2.55,.17-5.11,.32-7.66,.02-.3,.33-.6,.56-.85,.24-.28,.53-.53,.82-.76,.45-.36,.93-.7,1.44-1.09,.24,1.13,.43,2.05,.64,2.96,.27,1.15,1.01,1.88,2.13,2.19,.45,.12,.65,.34,.63,.8-.08,1.73-.16,3.46-.23,5.19-.08,2.11-.16,4.22-.22,6.33,0,.32,.09,.66,.2,.97,.18,.52,.31,1.19,1.02,1.17,.69-.02,.88-.65,.97-1.21,.13-.81,.29-1.63,.25-2.43-.12-2.53-.33-5.05-.49-7.57-.1-1.56,.03-3.08,.81-4.51,.31-.57,.41-1.25,.68-2.1,.48,1.11,.89,2.07,1.29,3.03,.35,.82,.71,1.64,1.01,2.49,.18,.5,.36,1.03,.37,1.55,.08,3.02,.11,6.03,.17,9.05,.08,3.55,.11,7.1,.33,10.65,.08,1.36-.44,2.09-1.52,2.63Zm50.18-79.95c.58,.92,1.56,.95,2.04,0,.37-.74,.67-.95,1.33-.32,.38,.36,.8,.26,1.23-.09,.3-.24,.76-.39,1.13-.36,.15,.01,.33,.62,.35,.96,.02,.47-.18,.95-.17,1.43,.03,.96-.27,1.81-.56,2.71-.17,.54-.42,1.13-.49,1.64-.11,.78-.23,1.48-.62,2.17-.08,.13,0,.42,.11,.57,.25,.38,.15,.65-.12,.95-.14,.16-.27,.41-.26,.61,.04,.62,.22,1.25-.37,1.72-.02,.01-.03,.06-.02,.07,.68,1.04-.78,1.92-.22,2.97,.06,.11-.1,.32-.15,.49-.08,.27-.27,.56-.22,.8,.34,1.34-.04,2.73,.37,4.05,.17,.55,.37,1.08,.59,1.71-.57-.57-1.09-1.08-1.6-1.6-1.04-1.08-1.91-.99-2.52,.33-.33,.72-.89,.67-1.48,.59-.59-.08-.49-.57-.49-.96,.05-5.8,.1-11.61,.16-17.41,0-1.04,0-2.09,.03-3.13,0-.3,.14-.6,.21-.91,.43,.11,.88,.16,1.27,.35,.22,.11,.32,.45,.47,.69ZM31.37,291.67c-.52,.28-1.06,.51-1.61,.72-.14,.06-.37,.04-.5-.05-2.09-1.43-4.16-2.87-6.24-4.32-.03-.02-.03-.09-.1-.28,2.49-1.16,5-2.32,7.6-3.53,.19,.48,.38,.84,.48,1.22,.38,1.51,.75,3.02,1.1,4.54,.17,.73-.08,1.33-.74,1.69Zm2.88-184.54c-.13,.15-.26,.3-.53,.61-.54-1.82-1.03-3.5-1.5-5.08,2.46-.73,4.81-1.43,7.15-2.13,.34-.1,.71-.13,1.04-.27,.24-.1,.51-.27,.62-.48,1.55-3.03,1.86-6.28,1.53-9.61-.22-2.25-.49-4.51-.81-6.75-.13-.93-.44-1.84-.66-2.76-.03-.14-.04-.3-.03-.45,.01-.15,.14-.34,.09-.44-.52-.95-.16-1.98-.26-2.97-.06-.53,.03-1.07,.06-1.61,1.06,.14,1.88,.23,2.69,.36,.2,.03,.45,.15,.55,.3,.44,.69,1.04,.62,1.5,.18,.76-.72,1.55-.6,2.43-.42,.47,.1,.96,.06,1.44,.1,.74,.06,1.05,.43,1.03,1.21-.08,3.83-.11,7.67-.16,11.5-.02,1.38-.03,2.76-.01,4.14,0,.58-.12,1.04-.63,1.38-.99,.66-1.32,1.5-.69,2.61,.36,.65,.06,1.01-.6,1.15-.27,.06-.55,.11-.83,.16q-1.26,.24-1.91-.81c-.43-.69-1.04-.86-1.56-.25-.91,1.06-1.84,2.16-2.48,3.38-.36,.68-.19,1.64-.2,2.48-.02,1.4,0,1.41-1.41,1.44-2.45,.05-4.32,1.23-5.87,3.02Zm43.49,190.44c.02,.69-.88,.89-1.52,.87-1.2-.03-2.21,0-4.21,0v-.18c-5,0-7.99,.02-12.28,0-2.91-.02-5.53-.08-8.44-.15-3.83-.08-7.51-.19-11.35-.27-.56-.01-.7-.16-.63-.76,.19-1.7,.53-3.41,.48-5.11-.07-2.65-.3-5.31-.63-7.94-.13-1.06,.78-1,1.19-1.45,.08-.09,.68,.24,1,.44,.18,.11,.33,.34,.39,.55,.36,1.1,1.08,1.89,2.07,2.46,.17,.1,.22,.38,.35,.55,.34,.46,.61,1.05,1.06,1.33,1.36,.85,2.37,2.04,3.43,3.19,.62,.68,1.19,1.4,1.82,2.07,.49,.52,1.11,.73,1.86,.73,4.22,0,8.44,.07,12.66,.1,1.46,.01,2.72-.9,3.31-2.27,.16-.37,.48-.68,.78-.96,.46-.44,.95-.84,1.45-1.24,.21-.17,.45-.36,.7-.4,.98-.15,1.64-.66,2.01-1.57,.05-.12,.1-.28,.2-.32,1.39-.64,1.73-2.08,2.53-3.18,.22-.3,.67-.58,1.04-.62,1.13-.12,1.43,.21,1.33,1.35-.37,4.25-.74,8.51-.59,12.78Zm17.15-9.26c.29,.15,.55,.34,.93,.58-.39,.27-.66,.49-.96,.67-1.88,1.13-3.78,2.24-5.65,3.38-.61,.37-1.15,.48-1.76,0-.25-.2-.59-.3-.88-.47-.88-.5-1.32-1.29-1.04-2.24,.5-1.74,1.1-3.46,1.65-5.18,.13-.39,.4-.53,.77-.36,.62,.29,1.24,.6,1.85,.92,1.7,.89,3.39,1.79,5.08,2.7Z" style="opacity: .65;"/>
  </g>
</svg>