<?xml version="1.0" encoding="UTF-8"?>
<svg id="b" data-name="圖層 2" xmlns="http://www.w3.org/2000/svg" width="75.67" height="65.84" viewBox="0 0 75.67 65.84">
  <g id="c" data-name="圖層 1">
    <g>
      <path d="M36.38,42.5c-1.78-7.4-3.52-14.66-5.27-21.92-.94-3.9-1.91-7.8-2.83-11.7-.94-3.96,1.01-7.49,4.6-8.37,3.62-.89,6.99,1.29,7.99,5.22,.74,2.89,1.41,5.8,2.14,8.83,3.22-1.47,6.04-1.12,8.42,1.39,4.59-2.07,6.5-1.69,9.83,1.91,4.93-2.16,9.13-.15,10.21,5.16,1.42,7.01,2.77,14.05,3.82,21.13,.66,4.43,.42,8.93-.54,13.35-.27,1.24-.97,2.01-2.31,1.98-1.11-.03-1.8-.65-2.05-1.71-.08-.33-.06-.72,.02-1.05,1.42-6.18,.78-12.36-.26-18.49-.79-4.71-1.91-9.36-2.91-14.03-.14-.63-.3-1.4-.74-1.79-.57-.52-1.54-1.14-2.12-.96-.61,.18-1.14,1.19-1.34,1.94-.18,.68,.14,1.49,.26,2.24,.23,1.51-.35,2.55-1.61,2.83-1.25,.27-2.31-.45-2.68-1.87-.45-1.77-.84-3.56-1.28-5.33-.39-1.58-1.47-2.42-2.66-2.11-1.23,.32-1.76,1.49-1.4,3.08,.25,1.09,.54,2.17,.76,3.26,.31,1.61-.29,2.73-1.56,2.99-1.3,.27-2.34-.48-2.72-2.02-.51-2.07-.99-4.15-1.51-6.22-.41-1.62-1.41-2.39-2.64-2.09-1.23,.31-1.75,1.44-1.37,3.07,.38,1.63,.8,3.26,1.18,4.89,.38,1.67-.19,2.82-1.53,3.17-1.29,.34-2.33-.44-2.75-2.14-1.62-6.61-3.21-13.23-4.82-19.84-.07-.3-.14-.59-.24-.88-.46-1.29-1.48-1.96-2.54-1.59-1.26,.43-1.72,1.4-1.45,2.66,.38,1.79,.84,3.56,1.27,5.34,2.44,10.12,4.88,20.25,7.32,30.37,.51,2.13-.06,3.09-2.21,3.41-4.92,.74-9.82,.96-14.6-.85-1.28-.49-2.4-.4-3.13,.95-.73,1.37-.37,3.24,1,4.06,1.73,1.05,3.53,2.03,5.39,2.82,6.08,2.58,12.19,5.05,18.3,7.57,.52,.21,1.07,.36,1.55,.64,.98,.55,1.39,1.55,.9,2.46-.36,.67-1.25,1.1-1.98,1.52-.24,.14-.72,0-1.03-.13-8.26-3.54-16.55-7.01-24.75-10.68-3.12-1.4-4.34-4.2-4.05-7.55,.42-4.83,4.48-7.52,9.04-5.88,3.52,1.27,7.06,1.26,10.88,.95Z" style="fill: #fff;"/>
      <path d="M17.12,8.15c-.93,3.22-1.79,6.22-2.66,9.22-.08,.29-.15,.59-.25,.88-.52,1.53-1.55,2.14-2.88,1.73-1.21-.38-1.75-1.5-1.35-2.95,.8-2.88,1.63-5.75,2.45-8.63,.12-.43,.23-.85,.39-1.48-.61,.28-1,.49-1.41,.65-1.16,.43-2.14,.11-2.75-.94-.63-1.07-.42-2.18,.61-2.82C11.34,2.51,13.47,1.31,15.65,.24c1.14-.56,2.19-.1,2.83,1.05,1.02,1.81,2.04,3.62,3.03,5.45,.76,1.39,.5,2.68-.61,3.32-1.11,.64-2.32,.22-3.2-1.1-.13-.2-.28-.38-.59-.8Z" style="fill: #fff;"/>
      <path d="M4.83,35.09c.98-3.41,1.9-6.6,2.83-9.8,.5-1.73,1.44-2.44,2.76-2.11,1.45,.37,1.98,1.49,1.49,3.27-.79,2.83-1.61,5.66-2.41,8.48-.11,.37-.17,.75-.3,1.33,.59-.27,.97-.51,1.38-.63,1.14-.34,2.17-.13,2.73,1.01,.53,1.07,.4,2.18-.66,2.82-2.04,1.23-4.13,2.39-6.25,3.46-1.23,.62-2.27,.13-2.94-1.06-1.02-1.81-2.05-3.62-3.04-5.45-.74-1.37-.43-2.67,.72-3.3,1.12-.61,2.21-.24,3.08,1.05,.16,.24,.33,.48,.63,.91Z" style="fill: #fff;"/>
    </g>
  </g>
</svg>