<?xml version="1.0" encoding="UTF-8"?>
<svg id="b" data-name="圖層 2" xmlns="http://www.w3.org/2000/svg" width="30.45" height="30.45" viewBox="0 0 30.45 30.45">
  <g id="c" data-name="圖層 1">
    <g>
      <circle cx="15.23" cy="15.23" r="13.55" transform="translate(-2.24 27.82) rotate(-80.78)" style="fill: #fc462d; stroke: #fff; stroke-miterlimit: 10; stroke-width: 1.55px;"/>
      <path d="M18.63,2.52c-.42-.11-.81-.42-1.03-.79-.46-.8-1.15-1.53-2.38-1.54-.86,0-1.86,.31-2.38,.98-.04,.05-.05,.13,0,.2,.1,.15,.13,.28,.09,.42-.07,.26-.35,.4-.59,.53-.16,.09-.34,.15-.52,.2-.41,.12-.91,.04-1.28-.17-.8-.46-1.76-.75-2.83-.15-.75,.42-1.46,1.19-1.57,2.03,0,.06,.02,.14,.1,.18,.16,.07,.25,.18,.29,.32,.07,.25-.1,.51-.25,.75-.1,.16-.21,.3-.35,.44-.3,.31-.77,.49-1.2,.5-.92,0-1.9,.23-2.52,1.29-.44,.74-.66,1.76-.35,2.55,.02,.06,.09,.11,.18,.1,.18-.02,.31,.03,.41,.13,.19,.19,.17,.5,.16,.78,0,.18-.03,.37-.08,.55-.11,.42-.42,.81-.79,1.03-.8,.46-1.53,1.15-1.54,2.38,0,.86,.31,1.86,.98,2.38,.05,.04,.13,.05,.2,0,.15-.11,.28-.13,.43-.09,.26,.07,.4,.35,.53,.6,.09,.16,.15,.34,.2,.52,.12,.42,.04,.91-.17,1.28-.45,.8-.75,1.76-.15,2.83,.42,.75,1.19,1.45,2.03,1.57,.06,0,.14-.02,.18-.1,.07-.16,.18-.25,.32-.29,.25-.07,.52,.1,.75,.25,.16,.1,.31,.22,.44,.35,.31,.3,.49,.77,.5,1.2,0,.92,.23,1.9,1.29,2.52,.74,.44,1.76,.66,2.55,.34,.06-.02,.11-.09,.1-.18-.02-.18,.03-.31,.13-.41,.19-.19,.5-.17,.78-.16,.18,0,.37,.03,.55,.08,.42,.11,.81,.42,1.03,.79,.46,.8,1.15,1.53,2.38,1.54,.86,0,1.86-.31,2.38-.97,.04-.05,.05-.13,0-.2-.11-.15-.13-.28-.09-.42,.07-.26,.35-.4,.6-.53,.17-.09,.34-.16,.52-.2,.42-.12,.91-.04,1.28,.17,.8,.46,1.76,.75,2.83,.15,.75-.42,1.45-1.19,1.57-2.03,0-.06-.02-.14-.1-.18-.16-.07-.25-.18-.29-.32-.07-.26,.1-.52,.25-.75,.1-.16,.22-.3,.35-.44,.3-.31,.77-.49,1.2-.5,.92,0,1.9-.23,2.53-1.29,.43-.74,.66-1.76,.34-2.55-.02-.06-.09-.11-.18-.1-.18,.02-.31-.03-.41-.13-.19-.19-.17-.5-.16-.78,0-.18,.03-.37,.08-.55,.11-.42,.42-.81,.79-1.03,.8-.46,1.53-1.15,1.54-2.38,0-.86-.31-1.86-.97-2.38-.05-.04-.13-.05-.2,0-.15,.1-.28,.13-.43,.09-.26-.07-.39-.35-.52-.6-.09-.16-.16-.34-.2-.52-.12-.42-.04-.91,.17-1.28,.46-.8,.75-1.76,.15-2.83-.42-.75-1.19-1.45-2.03-1.57-.06,0-.14,.02-.18,.1-.07,.16-.18,.25-.32,.29-.26,.07-.52-.1-.75-.25-.16-.1-.31-.22-.44-.35-.31-.3-.49-.77-.5-1.2,0-.92-.23-1.9-1.29-2.52-.74-.44-1.76-.66-2.55-.35-.06,.02-.11,.09-.1,.18,.02,.18-.03,.31-.13,.41-.19,.19-.5,.17-.78,.16-.18,0-.37-.03-.55-.08h0Z" style="fill: none; stroke: #fff; stroke-miterlimit: 10; stroke-width: .37px;"/>
      <path d="M6.16,6.69h11.15v2.01H6.16v-2.01Zm.4,9.12h10.57v8.64h-2.25v-.64h-6.17v.76h-2.15V15.81Zm9.85-6.13v5.1H7.23v-5.1h9.18Zm-7.7,7.96v1.25h2.03v-1.25h-2.03Zm2.03,4.34v-1.37h-2.03v1.37h2.03Zm3.4-10.47h-4.76v1.47h4.76v-1.47Zm.74,6.13h-2.03v1.25h2.03v-1.25Zm0,4.34v-1.37h-2.03v1.37h2.03Zm5.35-2.39h-2.07V8.27h2.07v11.31Zm3.68-13.34v15.49c0,1.35-.26,1.99-1.05,2.37-.76,.4-1.97,.48-3.68,.48-.08-.68-.44-1.77-.76-2.43,1.15,.04,2.31,.04,2.67,.04,.34,0,.48-.12,.48-.46V6.24h2.33Z" style="fill: #fff;"/>
    </g>
  </g>
</svg>