<?xml version="1.0" encoding="UTF-8"?>
<svg id="b" data-name="圖層 2" xmlns="http://www.w3.org/2000/svg" width="124.34" height="305.86" viewBox="0 0 124.34 305.86">
  <g id="c" data-name="圖層 1">
    <g style="opacity: .65;">
      <path d="M124.34,67.68c0-1.07-.16-2.02-.5-3.08-.42-1.27-1.22-2.14-2.04-2.95-.92-.9-1.89-1.86-3.28-2.17-.65-.15-1.31-.33-1.96-.33-1.02,0-2.02-.32-3.04-.2-.03,0-.05,0-.08,0-.74-.29-1.48-.07-2.21-.08-.93-.02-1.84-.5-2.77,.07-.79-.5-1.92,.15-2.59-.79-.06-.09-.34-.06-.51-.04-.29,.04-.47-.06-.67-.26-2.03-2.08-4.18-4.03-6.65-5.55-2.66-1.63-5.56-2.1-8.6-1.11-.18,.06-.36,.22-.58,.07,0-.28,.26-.28,.43-.35,1.02-.44,1.26-.87,1.1-1.96-.31-2.19-.81-4.32-1.76-6.33-.5-1.07-.65-2.14-.19-3.26,0-.02,.02-.05,.02-.07-.21-1.83,.53-3.64,.16-5.48-.19-.95-.16-1.9,.06-2.87,.13-.56,.2-1.22,.03-1.75-.44-1.36-.24-2.75-.24-4.11,0-3.85-.53-7.64-1.15-11.43-.03-.2-.1-.41-.08-.61,.12-1.84-.93-2.99-2.29-3.98-1.81-1.31-3.96-1.74-6.05-2.3-1.16-.31-2.37-.39-3.5-.83-.44-.17-.91-.14-1.37-.06-1.05,.18-2.05,.05-3.1-.19-1.98-.46-4-.82-6.05-.93-.38-.02-.77-.02-1.15-.05-1.09-.07-2.15-.18-2.25-1.64-.02-.25-.25-.5-.42-.72-.36-.43-.49-.9-.27-1.43,.16-.4,.05-.69-.29-.92h-1.84c-.4,.21-.5,.53-.39,.96,.13,.49,.12,.98-.31,1.34-.75,.63-.84,1.46-.6,2.31,.17,.58-.09,.7-.53,.73-.58,.04-1.17,.08-1.76,.06-1.98-.05-3.94,0-5.8,.77-.43,.17-.88,.33-1.34,.27-1.57-.2-3.1,.31-4.64,.33-2.57,.03-4.82,1.05-7.11,1.97-2.32,.93-3.22,2.92-3.6,5.22-.1,.6-.13,1.22-.25,1.82-.23,1.19-.26,2.35-.15,3.57,.11,1.15-.18,2.33-.27,3.5-.2,2.4-.09,4.8-.08,7.21,0,1.15,.18,2.28,.14,3.43-.05,1.71-.14,3.44,.1,5.12,.19,1.31,.23,2.66,.71,3.95,.46,1.23-.08,2.42-.65,3.49-.77,1.44-1.72,2.79-2.13,4.4-.06,.24-.18,.45-.47,.39-1.52-.31-2.63,.67-3.85,1.24-1.76,.82-3.18,2.1-4.5,3.52-.84,.9-1.66,1.81-2.44,2.75-1.29,1.55-2.92,2.24-4.94,2.03-.55-.06-1.1,.12-1.64,.19-1.61,.21-3.23,.29-4.83,.65-2.68,.61-4.9,1.84-6.08,4.4-.75,1.63-.89,3.43-.35,5.18,.98,3.17,2.5,6.08,4.45,8.77,1.08,1.49,2.06,3.05,3.32,4.4,.68,.73,1.36,1.47,2.13,2.08,1.01,.8,1.66,1.87,2.43,2.85,.24,.31,.37,.63-.02,.93-.18,.14-.2,.34-.19,.55,.02,.46-.26,.61-.67,.66-1.05,.12-1.38,.85-.77,1.75,.25,.37,.5,.71,.55,1.16,.05,.51-.03,.93-.48,1.28-.98,.77-.87,1.72-.15,2.56,.65,.75,.5,1.5,.44,2.28-.03,.33-.15,.65-.02,.98,.18,.45,.44,.71,.92,.29,.18-.16,.33-.42,.64-.35,.15,.03,.18,.17,.18,.31,0,.4-.34,.46-.76,.57,.53,.42,.73,.95,1.08,1.38,.37,.44,.57,.9,.27,1.47-.17,.33-.02,.66,.14,.95,.73,1.32,.77,2.65,.17,4.03-.32,.72-.55,1.48-.85,2.29-.39-.49-.5-.96-.36-1.51,.09-.35-.05-.7-.3-.91-.29-.25-.51,.18-.8,.24-.3,.06-.33,.32-.16,.61,.15,.26,.25,.56,.33,.85,.21,.75-.42,1.37-1.17,1.13-.58-.19-1.12-.52-1.7-.7-.36-.11-.94-.38-1.12,.02-.19,.41,.38,.65,.71,.83,.74,.4,1.5,.79,2.32,1,.51,.13,.75,.43,.77,.91,.04,.77,.06,1.53,.06,2.3,0,2.3,.01,4.59,0,6.89,0,.84-.14,1.68-.13,2.52,.06,3.53,.25,7.05,.2,10.58-.03,2.25,.1,4.49,.1,6.74,0,.4-.22,.7-.36,1.04-.64,1.63-2.24,2.49-3.03,3.98-.04,.07-.08,.16-.13,.18-.89,.28-1.77,.55-2.57,1.05-.14,.09-.33-.1-.45-.23-.33-.35-.68-.7-.99-1.07-.67-.81-1.68-.86-2.15,.05-.5,.99-1.1,1.24-2.08,.81-.22-.1-.45,0-.67,.09v.92c.46,.96,.59,2.07,1.24,2.96,.23,.31,0,.39-.27,.42-.44,.03-.49,.3-.37,.65,.14,.41,.23,.83,.42,1.23,.34,.69,.84,1.31,.8,2.18-.03,.47,.29,.92,.58,1.31,1.01,1.39,1.91,2.84,2.58,4.43,.08,.18,.13,.44,.36,.45,.27,.02,.38-.24,.49-.43,.49-.87,.65-1.76-.06-2.68l.24-.06c.48,.44,.96,.88,1.43,1.32,.47,.44,.89,.5,1.18-.18,.24-.56,.46-.32,.68,0,.3,.44,.59,.69,1.1,.21,.28-.26,.67,.17,.6,.79-.09,.83-.14,1.68-.48,2.48-.43,1.01-.26,1.95,.41,2.81,.31,.4,.71,.65,1.18,.82,.19,.07,.45,.06,.48,.31,.04,.29-.25,.35-.44,.47-.91,.56-1.11,1.08-.86,2.13,.1,.42,.3,.73,.69,.95,.97,.56,1.13,1.14,.66,2.16-1.14,2.46-2.28,4.92-3.41,7.38-.23,.5-.41,1,0,1.51,.24,.3,.07,.52-.2,.69-.8,.49-.9,1.21-.62,2,.15,.42,.07,.71-.24,1.02-.62,.64-.6,1.16,0,1.8,.45,.49,1.02,.78,1.66,.9,.89,.17,1.69-.38,1.75-1.27,.03-.45,.2-.6,.59-.74,.75-.27,1.13-.84,1.16-1.64,.02-.5,.88-1.35,1.35-1.23,.83,.22,1.6,.4,2.29,1.17,.62,.69,1.1,1.73,2.2,1.97,.2,.04,.46,.24,.52,.42,.31,.88,1.12,.96,1.82,1.23,.25,.1,.51,.12,.74-.03,.59-.4,1.22-.26,1.85-.16,.57,.09,.63,.34,.34,.78-.85,1.26-1.49,2.62-2.18,3.96-1.69,3.3-2.46,6.79-2.49,10.49-.02,1.86-.32,3.72-.36,5.58-.04,1.74-.27,3.49,.11,5.25,.16,.75,.32,1.59,.1,2.4-.18,.66,.02,1.07,.68,1.31,1.36,.51,1.86,1.54,2,2.98,.14,1.32-.44,2.5-.39,3.79,.05,1.38-.02,2.74,.41,4.09,.34,1.08,.06,1.66-.87,2.16-.75,.4-1.25,.99-1.76,1.66-.51,.66-1.15,1.2-1.48,2.01-.12,.3-.48,.23-.76,.26-1.25,.17-2.31,.65-2.92,1.84-.04,.09-.1,.19-.18,.23-.14,.07-1.38-.88-1.37-1.05,.03-1.08-.46-1.8-1.49-2.15-.27-.09-.4-.29-.45-.57-.22-1.14-.98-1.46-2.24-1.1-.72,.21-1.23,.71-1.47,1.45-.09,.28-.18,.63,0,.82,.72,.74,.56,1.6,.5,2.48-.04,.58,.28,1.05,.81,1.28,.51,.23,.62,.53,.25,.93-.38,.42-.28,.81-.06,1.27,1.06,2.16,2.1,4.33,3.14,6.49,.42,.88,.2,1.66-.62,2.2-1.25,.82-1.25,2.18-.07,3.15,.97,.79,1.66,1.81,1.71,3.13,.04,1.11-.69,1.87-1.41,2.53-1.22,1.11-2.22,2.35-2.99,3.8-.14,.27-.07,.49,.03,.73,.88,2.09,1.76,4.19,2.64,6.28,.07,.16,.2,.36,.17,.5-.39,1.7,.31,3.32,.38,4.99,.02,.61-.2,.91-.8,1.09-1.78,.52-2.13,1.44-1.29,3.16,.25,.51,.44,1.04,.69,1.54,.21,.43,.13,.73-.29,.95-.36,.19-.7,.43-1.08,.59-.54,.23-.93,.52-.93,1.17,0,.72,.08,1.42,.8,1.78,.95,.47,1.47,1.15,1.38,2.24,0,.1,.03,.2,.06,.3,.39,1.06,3.02,2.75,4.15,2.57,.65-.1,1.1,.09,1.6,.47,3.71,2.81,7.44,5.59,11.17,8.38,.43,.32,.94,.62,.81,1.27-.25,1.22,.46,1.89,1.36,2.47,.34,.22,.72,.41,1.01,.69,1.35,1.35,3.01,1.25,4.73,1.13,1.55-.12,3.12-.07,4.68-.09,.94-.01,.99-.07,1.01-1.01q.02-1.29,1.32-1.3c4.38,0,8.75,.09,13.13-.03,6.47-.18,12.94-.05,19.41-.14,.78-.01,1.27,.2,1.52,.95,.11,.31,.3,.59,.44,.89,.25,.51,.66,.77,1.23,.77,2.25,0,4.5,0,6.75,0,.41,0,.74-.15,1.04-.42,.92-.82,1.82-1.64,2.77-2.43,.47-.39,.67-.83,.52-1.41-.12-.48,.03-.81,.42-1.13,3.96-3.16,7.9-6.33,11.84-9.51,.36-.29,.71-.29,1.06-.09,.71,.39,1.25,.2,1.75-.39,.38-.45,.81-.85,1.25-1.25,.54-.48,.93-1.01,.82-1.79-.05-.33,.1-.59,.36-.8,.34-.27,.68-.54,1-.84,1.28-1.19,1.09-2.65-.44-3.47-.97-.52-.99-.53-.45-1.5,.41-.72,.7-1.46,.79-2.3,.09-.91-.27-1.54-.99-2-1.33-.86-1.42-.96-.99-2.47,.22-.77,.23-1.48,.06-2.25-.15-.64-.04-1.33,.22-1.95,.57-1.32,1.07-2.66,1.55-4.01,.16-.45,.44-.86,.64-1.3,.54-1.2,.65-2.34-.41-3.36-.39-.37-.38-.98-.78-1.39-.7-.7-1.54-1.18-2.41-1.62-1.22-.63-1.55-2.35-.62-3.39,.39-.44,.83-.83,1.3-1.19,1.22-.93,1.14-2.53-.14-3.38-1.17-.78-1.24-1.07-.64-2.34,1.1-2.34,2.18-4.68,3.27-7.02,.09-.19,.24-.43,.1-.57-.61-.63-.09-.9,.32-1.28,.48-.44,.5-1.05,.32-1.65-.14-.45-.13-.8,.2-1.2,.48-.58,.42-1.23-.05-1.83-.41-.52-.95-.86-1.58-1.04-1.04-.31-1.85,.2-1.99,1.27-.04,.34-.17,.48-.46,.61-1.11,.47-1.38,.92-1.19,2.07,.06,.38,.03,.52-.39,.47-.19-.02-.46,0-.59,.12-.69,.61-1.03,.31-1.44-.37-.57-.92-1.64-.96-2.58-1.17-.46-.1-.6-.41-.87-.71-.89-1.02-1.35-2.46-2.79-2.96-.26-.09-.5-.25-.76-.37-.36-.17-.48-.42-.35-.81,.51-1.51,.81-3.05,.81-4.66,0-.91,.4-1.78,.7-2.65,.51-1.5,.51-3.06,.27-4.62-.11-.68-.15-1.3,.37-1.86,.28-.3,.32-.74,.31-1.16-.04-1.2-.07-2.4-.59-3.53-.22-.48-.18-.88,.23-1.31,.67-.71,.71-1.68,.25-2.56-.25-.49-.34-1.07-.8-1.46-.08-.06-.12-.26-.09-.35,.52-1.3,.09-2.54-.18-3.79-.03-.15-.05-.32-.01-.46,.58-2.06-.19-3.99-.56-5.95-.05-.28-.19-.54-.22-.81-.06-.66-.36-1-1.04-.9-.39,.05-.48-.12-.46-.49,.05-1.03-.08-2.04-.42-3.02-.16-.47-.32-.91-.84-1.11-.36-.14-.39-.52-.45-.84-.07-.38,.1-.54,.48-.43,.79,.23,1.56,.22,2.33-.08,.13-.05,.35-.08,.45-.01,.92,.63,2.02,.48,3.03,.71,.77,.17,1.58,0,2.18-.46,1.08-.83,2.08-1.78,2.93-2.86,.29-.37,.61-.58,1.05-.69,.5-.12,.99-.26,1.41-.58,.12-.09,.28-.18,.42-.08,.16,.11,.04,.28,.02,.42-.11,.9,.31,1.65,1.18,2,.38,.15,.55,.36,.61,.77,.12,.83,.61,1.28,1.4,1.4,.79,.12,1.84-.43,2.24-1.2,.35-.67,.13-1.25-.36-1.73-.27-.26-.29-.48-.16-.81,.38-.98,.25-1.5-.58-2.14-.39-.3-.48-.53-.17-.93,.34-.44,.24-.9,.02-1.38-1.05-2.36-2.1-4.72-3.14-7.08-.36-.82-.21-1.25,.53-1.81,1.37-1.04,1.36-2.33-.03-3.36-.43-.32-.46-.65-.04-1,1.44-1.22,1.54-2.8,1.12-4.48-.14-.55-.24-1.1-.23-1.66,0-.41,.21-.63,.57-.37,.69,.5,1.52,.17,2.27,.46,.54,.21,.69-.66,1.16-.88,.24,.15,.11,.41,.15,.61,.11,.66,.39,1.21,.95,1.61,.37,.27,.65,.22,.87-.2,.56-1.09,1.22-2.14,1.59-3.31,.1-.33,.29-.59,.53-.83,.68-.7,1.35-1.42,1.47-2.44,.12-1,.52-1.91,.8-2.86,.12-.39,.15-.76-.32-.97-.34-.15-.2-.35-.05-.55,.43-.57,.61-1.23,.79-1.9,.28-1.01-.34-1.73-1.37-1.53-.42,.08-.6-.12-.81-.41-.9-1.24-1.89-1.27-2.83-.02-.41,.55-.7,.73-1.34,.26-1.14-.83-2.36-.92-3.55-.03-.26,.2-.59,.36-.77,.62-.89,1.25-1.99,1.57-3.45,1.04-.73-.26-.93-.04-.86,.73,.05,.53-.17,.67-.65,.7-.98,.06-1.96-.03-2.9-.2-1.1-.2-2.22-.06-3.31-.39-.79-.24-1.23-.65-1.22-1.5,.04-2.15-.04-4.29,.07-6.44,.05-.96,.06-1.93,.06-2.9-.03-6.6,.22-13.19,.19-19.79,0-1.61,.27-3.27-.2-4.81-.49-1.62-.63-3.3-1.16-4.9-.47-1.4-1.35-2.34-2.94-2.36-.52,0-.68-.29-.55-.76,.24-.86,.49-1.72,.74-2.58,.12-.43,.4-.72,.82-.84,.6-.17,1.14-.42,1.66-.76,.55-.35,1.01,.2,1.46,.39,.49,.21,.9,.41,1.43,.16,.31-.15,.68-.04,.96,.12,.51,.3,.96,.16,1.33-.19,.43-.41,.89-.66,1.5-.62,.32,.02,.68-.13,.75-.43,.12-.57,.49-.8,.97-.96,.07-.02,.18-.05,.2-.11,.39-.95,1.26-1.53,1.82-2.34,.24-.35,.36-.79,.64-1.13,1.39-1.65,2.08-3.74,3.38-5.45,.12-.16,.22-.39,.39-.47,.86-.38,1.46-.91,1.43-1.95,0-.29,.36-.41,.55-.61,.34-.34,.78-.63,.6-1.22-.06-.19,.08-.33,.19-.48,1.18-1.51,2.35-3.02,3.52-4.53,.17-.22,.34-.46,.63-.54,.5-.13,.62-.43,.7-.94,.1-.66,.66-1.16,1.14-1.58,1.26-1.1,2.05-2.5,2.85-3.91,.35-.62,.54-1.33,1.22-1.72,.23-.13,.26-.43,.24-.7-.05-.53,.18-.85,.64-1.11,.44-.25,.76-.6,.52-1.2-.17-.41,.15-.68,.43-.9,.39-.32,.59-.68,.47-1.2-.09-.4,.02-.79,.28-1.08,.43-.47,.37-.98,.37-1.56ZM13.75,96.95c-.06,.5-.22,.63-.68,.45-.15-.06-.35-.03-.52,0-.63,.11-.87-.1-.86-.75,0-.67,.29-.89,.98-.78,.05,0,.1,.03,.15,.03,1.08,.01,1.05,0,.94,1.05ZM2.3,153.73c-.27-.23-.48-.52-.7-.8-.13-.18-.38-.45-.21-.6,.29-.24,.69-.37,1.05-.5,.11-.04,1.16,1.49,1.15,1.64-.02,.27-1.02,.5-1.3,.26Zm5.28,2.15c-.05,.21-.26,.27-.43,.21-.97-.32-1.95-.22-2.95-.17-.77,.04-.93-.84-1.35-1.19,1.43-.35,2.63,.43,3.94,.63,.18,.03,.36,.05,.52,.11,.18,.06,.32,.2,.27,.4Zm105.98-1.29c.31-.12,.56,0,.69,.3,.13,.33-.05,.54-.33,.67-.13,.06-.3,.11-.44,.08-.76-.15-1.5-.12-2.25,.12l-.04-.22c.79-.32,1.58-.65,2.38-.96Zm-34.97,120.88q.02,.91-.86,.93c-.55,.1-.82-.22-.92-.68-.11-.5,.21-.74,.65-.87,.17-.05,.34-.11,.5-.17,.22-.09,.43-.32,.68-.05,.21,.22,.25,.43-.03,.64-.04,.03-.03,.14-.03,.21Zm-9.58,6.25c-.35-.04-.71-.07-.96-.1-.68,.14-1.17,.02-1.33-.59-.16-.64-.18-1.28,.54-1.67,.2-.11,.41-.22,.59-.36,.71-.58,1.02-.53,1.62,.16,1.34,1.53,1.34,3.34,1.14,5.2-.02,.19-.03,.46-.32,.43-.26-.03-.27-.29-.26-.49,.01-.41,.05-.81,.1-1.22,.09-.88-.23-1.28-1.12-1.37Zm-5.7,3.41c-.17-.1-.42-.16-.38-.42,.03-.21,.27-.2,.42-.28,.27-.14,.68-.2,.8-.42,1.03-1.77,2.5-.27,3.72-.52,.38-.08,.45,.43,.43,.76-.05,.69,.1,1.26,.76,1.62,.19,.1,.32,.28,.25,.51-.06,.23-.28,.33-.47,.33-.84,0-1.09,.51-1.27,1.24-.29,1.18-1.24,1.98-2.09,1.97-.51,.03-.51-.22-.43-.54,.41-1.78-.22-3.31-1.74-4.26Zm-10.92-5.1c.99,.11,1.76,.28,1.85,1.56,.05,.66,.58,1.27,1.09,1.97-.66-.12-.78-.52-.94-.85-.49-.98-1.31-1.21-2.31-1.1-.43,.05-.87,.11-1.3,.1-.87-.02-1.2-.36-1.18-1.16,.01-.71,.34-.94,1.25-.96,.57,0,1.02,.37,1.54,.43Zm-1.31-2.85c-.02-.24,.15-.38,.36-.44,.85-.23,1.72-.26,2.58-.24,.41,0,.27,.41,.32,.6,0,.96-.46,1.3-1.28,.97-.52-.21-1.01-.49-1.57-.59-.17-.03-.38-.08-.4-.3Zm2.01,10.55s-.25,.02-.45,.07c-.42,.09-.7-.06-.83-.47-.13-.42,0-.75,.4-.97,.55-.3,1.22-.04,1.77-.4,.12-.08,.22,.16,.28,.3,.31,.82-.14,1.47-1.17,1.47Zm-2.71-4.14c.13,.19,.43,.06,.66,.02,.48-.09,.95-.2,1.44-.17,.36,.03,.68,.13,.72,.54,.04,.41-.3,.49-.6,.56-.52,.12-1.07,.17-1.45,.61-.1,.12-.19,.24-.31,.33-.35,.26-.1,1.13-.72,.96-.72-.2-1.39-.68-1.68-1.45-.29-.77-.38-1.59-.49-2.46,0-.08-.05-.26,.14-.33,.14-.05,.25,.05,.33,.15,.5,.65,1.48,.54,1.97,1.24Zm4.07,5.39c.16-.04,.28,0,.41,.12,1.15,.97,2.16,1.02,3.27,.1,.71-.58,1.63-.96,1.94-1.96,.08-.26,.38-.43,.7-.35,.29,.07,.38,.33,.43,.58,.11,.7,.17,1.41,.48,2.08,.2,.43-.19,.44-.47,.45-.77,0-1.53,.02-2.3,0-1.99-.07-3.97,.18-5.96,.02-.74-.06-1.23-.49-1.64-1.05,1.08,.21,2.11,.25,3.14,.02Zm1.78-3.99c.82,0,1.73,.57,1.72,1.09,0,.71-.72,1.65-1.25,1.66-.68,0-1.13-.83-1.1-2.17,.01-.29,.15-.58,.62-.57Zm-.54-7.29q.08-1.34,1.43-1.34c.42,0,.85,0,1.27,0l.05,.21c-.67,.53-1.2,1.23-1.99,1.62-.58,.28-.8,.13-.76-.49Zm-8.69-172.69c.13,.56-.11,.8-.58,.96-.26,.09-.51,.23-.78,.32-.33,.11-.6-.03-.61-.37-.05-1.67-.18-3.35,.15-5.07,.35,.12,.37,.31,.4,.48,.15,.73,.57,1.23,1.26,1.52,.47,.19,.74,.47,.31,.98-.29,.34-.25,.79-.15,1.17Zm-.57-5.18c-.18,.03-.29-.1-.34-.24-.42-1.14-.86-2.28-1.23-3.44-.19-.6-.07-1.28-.5-1.82-.08-.1-.1-.26,.04-.34,.18-.11,.28,.03,.35,.17,.07,.14,.12,.28,.16,.43,.48,1.46,.89,2.94,1.5,4.35,.08,.19,.12,.39,.18,.56,0,.16,.01,.31-.15,.34Zm24.72,4.33c-.36-.66-.27-1.01,.43-1.32,.68-.31,.88-.96,1.18-1.54,.12-.24,.18-.52,.27-.78l.2,.02c-.03,1.93,.11,3.86-.14,5.79-.05,.36-.19,.37-.44,.18-.14-.11-.29-.25-.45-.28-.85-.15-1.21-.51-.76-1.38,.13-.26-.16-.46-.28-.68Zm8.41,1.91c.11-.6,.14-1.31,.14-2.03,0-.29,.11-.51,.39-.22,.68,.69,1.45,1.29,1.98,2.12,.24,.37,.25,.62-.3,.59-.49-.03-.95,.07-1.41,.25-.64,.26-.82,.1-.8-.72Zm-13.35,171.82c-.12,.3-.37,.55-.53,.83-.68,1.18-.87,.71-1.36-.15-.18-.31-.26-.66-.26-1.03,0-.82,.37-1.18,1.23-1.17,.88,0,1.29,.65,.93,1.52Zm-3.96,4.47c.21-.6,.44-1.19,.67-1.78,.12-.3,.29-.23,.45-.02,.19,.25,.33,.52,.31,.92-.1,.42-.18,.93-.52,1.33-.18,.22-.42,.28-.68,.14-.25-.13-.3-.36-.22-.59Zm6.73-198.26c.04-1.71,0-3.42-.03-5.14,0-.47,.14-.61,.64-.7,.65-.12,1.26-.44,1.95-.53,.3-.04,.62-.32,.64-.77,0-.38,.2-.45,.47-.15,.74,.81,1.77,.72,2.71,.8,.55,.05,.95-.56,.86-1.13-.03-.22-.1-.43-.16-.65,.34,.38,.64,.76,1.22,.47,.04-.02,.17,.04,.19,.08,.38,1,1.23,.61,1.92,.66,.14,.01,.23,.07,.33,.15,.81,.66,.88,.65,1.6-.12,.18,.18,.1,.49,.31,.66,.33,.27,.18,.49-.06,.76-.41,.47-.83,.97-.14,1.57,.23,.2,.09,.42-.08,.6-.4,.44-.58,.86-.14,1.42,.3,.38,.09,.79-.23,1.09-.36,.34-.62,.65-.25,1.18,.22,.31-.03,.64-.21,.92-.26,.43-.63,.81-.37,1.39,.06,.13-.04,.35-.12,.51-.32,.61-.71,1.2-.3,1.93,.05,.1-.03,.31-.1,.43-.35,.6-.56,1.2-.18,1.87,.04,.08,.05,.22,.01,.3-.59,1.4,.01,2.76,.34,4.03,.29,1.12,.73,2.2,.81,3.37,.02,.3,.29,.4,.54,.48,.6,.2,1.21,.4,1.82,.61,.22,.07,.52,.12,.62,.27,.49,.8,.92,1.64,1.41,2.51-.15-.02-.22,0-.24-.04-1.87-1.97-4.25-2.27-6.77-2.01-.62,.06-.75-.19-.77-.72-.03-1.28,.11-2.56-.11-3.83-.22-1.28-2.2-2.74-3.47-2.59-.46,.05-.83,.3-1.12,.62-.79,.91-1.74,.83-2.74,.52-.61-.19-.76-.64-.66-1.21,.08-.45,.2-.9,.29-1.35,.04-.22,.11-.48-.02-.68-.74-1.13-.38-2.37-.38-3.58,0-1.35-.08-2.7-.05-4.05Zm-27.69-6.91c.29-.23,.36,.13,.54,.23,.62,.33,1.22,.81,1.98,.31,.11-.07,.39-.12,.42-.07,.7,1.02,1.51-.03,2.27,.13,.74,.15,.84-.68,1.26-1.19,.33,.71,.36,1.45,1.04,1.85,.21,.12,.16,.42,.16,.64,0,3.91,0,7.83,0,11.74,0,.34-.07,.65-.23,.96-.3,.59-.37,1.22-.13,1.85,.09,.24,.14,.41-.11,.59-.92,.65-2.29,.39-2.9-.56-.22-.35-.49-.66-.92-.77-.47-.12-.49-.41-.26-.75,.27-.4,.16-.72-.06-1.12-.46-.81-.27-1.75-.42-2.62-.07-.41-.09-.81-.36-1.15-.13-.17-.24-.35-.14-.56,.24-.51,.15-.92-.27-1.31-.21-.2,.04-.56-.07-.72-.55-.84-.17-1.78-.35-2.65-.04-.21-.15-.47-.31-.6-1.15-.89-1.18-2.26-1.56-3.49-.12-.4,.18-.55,.41-.74Zm-3.54,23.81c.39,.03,.77,.07,1.04-.3,.1-.13,.24-.19,.4-.13,.88,.36,1.3-.16,1.63-.89,.34,1,.21,1.24-.7,1.38-.8,.12-1.6,.27-2.42,.28-.9,.02-1.69,.45-2.53,.72,.81-.47,1.54-1.13,2.58-1.06Zm-23.11,.66c-.28-.39-.28-.85-.04-1.23,.34-.53,1-.2,1.49-.46,.21-.11,.47,.45,.47,.9-.09,.39-.03,1.01-.83,.72-.09-.03-.2-.02-.3,0-.26,.06-.51,.47-.8,.08Zm.2,3.26c.25,.62,.45,1.28,1.27,1.22,.71-.05,.87-.66,1.08-1.41,.24,.73,.07,1.23-.07,1.73-.14,.52-.37,1.02-.01,1.65-.64-.08-1.21-.2-1.64,.4,.56-1.36-.87-2.29-.64-3.59Zm-.42,8.91c.06-.32,.26-.54,.54-.71,.93-.59,1.66-1.36,2.1-2.38,.2-.46,.33-.29,.55,0,.83,1.12,1.24,2.44,1.78,3.7,.19,.44,.08,.91,.1,1.2,.02,.78,.01,1.38-.29,1.96-.48,.89-1.16,1.4-2.2,1.38-1.04-.02-1.81-.45-2.27-1.41-.58-1.22-.53-2.48-.3-3.75Zm8.34,37.94c-1.23,.62-2.22,1.57-3.21,2.51-.31,.3-.65,.57-.98,.86-.17,.14-.37,.24-.53,.03-.19-.25,.06-.36,.23-.46,.79-.48,1.54-1,2.15-1.71,.23-.27,.56-.56,.3-.93-.25-.36-.6-.1-.91,0-.59,.18-1.17,.37-1.76,.52-.51,.13-.85-.06-.91-.62-.03-.3-.12-.62-.08-.91,.26-2.27-.92-3.83-2.51-5.21-.87-.75-1.38-1.67-1.36-2.89,.04-2.89,.01-5.78,.01-8.67,0-3.91,.01-7.81,0-11.72,0-1.56-.09-3.11-.13-4.67,0-.35-.06-.72,.29-1.21,.13,1.69,1.02,2.67,2.34,3.25,1.26,.55,2.47,.31,3.53-.53,1.21-.95,1.6-2.28,1.45-3.76-.17-1.77-1.01-3.31-1.8-4.86-.27-.52-.52-1.06-.82-1.56-.59-.99-.85-1.99-.42-3.13,.37-.97,.03-1.77-.78-2.44-.64-.52-.63-.93-.09-1.53,.12-.13,.23-.33,.43-.25,.21,.08,.44,.21,.46,.47,.14,1.66,1,3.09,1.51,4.63,.62,1.87,1.3,3.72,2.08,5.52,.64,1.48,1.2,2.98,1.77,4.49,.41,1.06,.43,2.13,.13,3.15-.57,1.91-.57,3.78,.11,5.64,.12,.33,.06,.65,.06,.98,0,4.68,0,9.36,.03,14.04,.02,3.27,.07,6.54,.13,9.81,.01,.6-.2,.91-.74,1.18Zm1.71-45.82c-.18-.4-.42-.8-.96-.72-.51,.08-.46,.53-.51,.91,0,.07-.06,.14-.17,.41-1.08-2.59-2.09-5.01-3.1-7.44l.16-.09c.45,.59,.79,1.27,1.24,1.87,.33,.45,.66,.91,1.02,1.32,.47,.53,1.07,.94,1.52,1.5,.11,.13,.28,.3,.43,.3,1.09,.03,1.83,.8,2.72,1.26,.39,.2,.71,.19,1.08,.01,1.34-.63,2.69-1.24,4.03-1.87,.83-.39,1.22-.15,1.15,.76-.04,.49-.24,.98-.71,1.2-1.25,.59-2.17,1.51-2.84,2.7-.25,.44-.6,.69-1.12,.63-.7-.07-1.42,.46-2,.26-.58-.2-.69-1.15-1.35-1.48-.25-.13-.3-.39-.35-.65-.06-.3-.12-.6-.25-.88Zm7.34,184.11c-1.43,1.12-1.51,1.13-3.01,.08-1.75-1.23-3.5-2.47-5.25-3.71-.91-.65-.9-.67-.22-1.52,1.15-1.44,2.62-2.48,4.15-3.45,.5-.31,1.01-.59,1.5-.93,.55-.38,.84-.26,1.06,.37,.83,2.39,1.56,4.8,1.89,7.32,.05,.4,.14,.8,.22,1.21,.06,.3-.13,.46-.34,.63Zm47-8.24c-.74,4.29-.49,8.62-.51,12.94,0,1.06-.03,1.09-1.07,1.09-3.56,0-7.12-.07-10.67,.04-7.62,.23-15.24,.05-22.87,.15-1.05,.01-2.09,.12-3.14,.13-.69,.01-.97-.21-.95-.92,.04-1.38,.01-2.76,.01-4.54,.12-2.51-.03-5.39-.67-8.23-.11-.47,.04-.73,.49-.86,.42-.11,.75-.32,.8-.81,.03-.34,.25-.38,.55-.35,.79,.08,1.34,.48,1.67,1.18,.4,.87,1.09,1.49,1.72,2.19,.76,.84,1.47,1.58,2.41,2.25,.78,.55,1.35,1.48,2.3,1.94,.34,.16,.43,.5,.51,.82,.49,1.83,2.46,3.12,4.28,3.08,3.73-.09,7.47-.03,11.21-.03,2.02,0,3.79-1.21,4.46-3.1,.14-.4,.34-.67,.74-.81,.78-.26,1.28-.84,1.63-1.54,.24-.47,.56-.75,1.08-.87,.73-.17,1.22-.63,1.35-1.4,.05-.27,.15-.49,.4-.62,.78-.41,1.19-1.1,1.43-1.91,.21-.68,.73-.99,1.36-1.07,.63-.08,.96,.5,1.4,.82,.08,.06,.08,.29,.05,.43Zm14.88,2.1c.78,.64,.79,.85,.03,1.45-1.85,1.45-3.69,2.9-5.54,4.35-.44,.34-.89,.64-1.46,.31-.6-.35-.75-.93-.78-1.66,.14-.48,.29-1.05,.46-1.61,.52-1.74,1.06-3.47,1.57-5.2,.15-.52,.34-.71,.92-.44,1.69,.79,3.35,1.63,4.81,2.81Z"/>
    </g>
  </g>
</svg>