<?xml version="1.0" encoding="UTF-8"?>
<svg id="b" data-name="圖層 2" xmlns="http://www.w3.org/2000/svg" width="88.53" height="217.73" xmlns:xlink="http://www.w3.org/1999/xlink" viewBox="0 0 88.53 217.73">
  <defs>
    <style>
      .e {
        clip-path: url(#d);
      }

      .f {
        fill: #d92732;
      }
    </style>
    <clipPath id="d">
      <path class="f" d="M0,106.97v-.55c.21-.04,.44-.15,.63-.11,.85,.2,.84,.21,1.26-.57,.34-.63,.99-.72,1.47-.2,.16,.18,.31,.36,.47,.53q.56,.62,1.24,.2c.12-.08,.26-.18,.39-.18,.73,.02,1.07-.48,1.42-1.01,.49-.74,1.42-1.14,1.6-2.11,0-.05,.07-.08,.09-.13,.09-.23,.26-.47,.26-.71,0-1.03-.05-2.07-.06-3.1-.01-1.65,0-3.29,0-4.94-.01-2.31-.04-4.61-.06-6.92,0-.82,.02-1.63,.03-2.45,0-1.09,0-2.18-.02-3.27,0-.33-.1-.56-.48-.67-.55-.16-1.1-.38-1.62-.63-.29-.14-.52-.39-.87-.66,.88-.22,1.43,.17,2,.47,.41,.21,.75,.17,.98-.2,.11-.18,.12-.47,.08-.7-.05-.26-.2-.49-.31-.75,.23-.14,.47-.29,.74-.45,.08,.18,.22,.37,.25,.58,.05,.46,.04,.93,.06,1.4,.07,0,.14,0,.2,.01,.31-.94,.65-1.88,.93-2.83,.08-.27,.02-.6-.06-.88-.17-.65-.79-1.22-.29-1.98,.02-.03,0-.11-.02-.15-.47-.53-.65-1.3-1.35-1.66-.59-.31-.66-.54-.41-1.18,.18-.47,.02-1.19-.35-1.52-.46-.42-.45-1.41,.02-1.81,.58-.5,.58-1.04,.15-1.67-.2-.29-.19-.73-.23-1.1,0-.08,.23-.27,.32-.25,.38,.07,.82,.09,.8-.34-.02-.43,.32-.55,.42-.85,.01-.04-.03-.11-.06-.15-.57-.68-1.12-1.37-1.71-2.02-.66-.72-1.39-1.37-2.02-2.11-.63-.74-1.19-1.54-1.75-2.34-.59-.84-1.18-1.69-1.69-2.58-.51-.9-.98-1.82-1.36-2.78-.3-.75-.57-1.57-.61-2.36-.09-1.99,.62-3.66,2.36-4.78,1.04-.67,2.22-.91,3.4-1.13,.82-.16,1.65-.24,2.47-.35,.08-.01,.17,.05,.26,.05,.14,0,.28,0,.42-.02,.19-.02,.38-.09,.56-.07,1.12,.13,2.11-.18,2.89-.95,1.22-1.2,2.29-2.57,3.58-3.69,1.37-1.18,2.88-2.27,4.88-2.15,.1-.32,.17-.67,.32-.97,.43-.86,.92-1.69,1.34-2.55,.33-.68,.63-1.39,.5-2.17-.12-.74-.29-1.47-.41-2.21-.11-.69-.22-1.39-.24-2.09-.03-1.01,.06-2.03,.04-3.04-.03-1.49-.19-2.98-.15-4.47,.07-2.52,.24-5.03,.39-7.54,.03-.51,.13-1.01,.22-1.51,.28-1.57,.98-2.89,2.55-3.47,1.48-.54,2.87-1.38,4.56-1.32,1.05,.03,2.12-.21,3.18-.32,.44-.05,.93,.04,1.32-.12,1.4-.57,2.85-.63,4.33-.57,.61,.02,1.23-.08,1.91-.13-.48-.78-.48-1.52,0-1.91,.43-.36,.53-.76,.35-1.26-.1-.29-.02-.48,.29-.49,.4-.02,.79-.04,1.19-.01,.31,.02,.41,.18,.31,.53-.08,.27-.08,.62,.02,.88,.23,.57,.55,1.09,.88,1.73,.51,.07,1.19,.16,1.87,.25,1.54,.21,3.08,.44,4.62,.64,.56,.07,1.13,.13,1.7,.16,.46,.02,.94-.07,1.39,0,.57,.08,1.12,.3,1.69,.42,1.77,.39,3.55,.75,5.07,1.84,.95,.68,1.63,1.48,1.58,2.73,0,.2,.03,.4,.06,.6,.2,1.51,.48,3.02,.59,4.54,.12,1.7,.09,3.41,.15,5.11,0,.28,.14,.56,.16,.85,.04,.59,.05,1.19,.05,1.78,0,.23-.09,.45-.08,.68,.02,.7,.09,1.41,.08,2.11-.01,.7-.1,1.39-.15,2.09-.02,.39,0,.78-.04,1.17-.03,.31-.22,.64-.16,.92,.18,.75,.42,1.49,.71,2.2,.54,1.33,.77,2.72,.85,4.14,.02,.38-.16,.61-.55,.68-.15,.03-.31,.1-.43,.19-.1,.07-.15,.2-.22,.3,.05,.03,.09,.06,.14,.09,.11-.05,.22-.14,.34-.15,1.12-.15,2.26-.44,3.37-.38,.81,.04,1.66,.45,2.38,.88,1.07,.64,2.05,1.42,3.04,2.17,.44,.34,.77,.82,1.22,1.14,.31,.22,.67,.37,.86,.74,.15,.29,.35,.51,.74,.29,.07-.04,.28,.1,.38,.2,.21,.21,1.87,.5,2.11,.35,.03-.02,.05-.06,.07-.08,.24-.28,.53-.21,.78-.05,.41,.26,.79,.39,1.22,.02,.09-.08,.33,0,.49,.03,.11,.03,.2,.17,.31,.17,.73,.05,1.47,.05,2.21,.11,1,.08,2.02,.17,2.82,.87,.77,.68,1.5,1.4,2.22,2.13,.13,.13,.13,.4,.2,.6,.1,.28,.13,.65,.33,.82,.32,.28,.24,.57,.21,.89-.03,.24-.12,.49-.07,.71,.1,.46,.08,.81-.28,1.18-.16,.17-.19,.55-.14,.82,.05,.34-.04,.52-.3,.73-.19,.14-.41,.52-.35,.65,.23,.43-.04,.66-.3,.81-.41,.25-.58,.54-.52,1.02,.02,.12-.13,.28-.23,.39-.1,.12-.27,.19-.36,.32-.46,.72-.89,1.47-1.37,2.18-.32,.48-.74,.9-1.04,1.39-.32,.5-1.04,.78-.89,1.56,.01,.07-.22,.19-.35,.27-.13,.09-.32,.12-.41,.23-.65,.82-1.29,1.65-1.93,2.48-.23,.29-.49,.56-.72,.86-.09,.12-.22,.31-.18,.41,.16,.43-.09,.64-.38,.83-.32,.22-.56,.45-.47,.91,.03,.14-.12,.37-.26,.48-.26,.21-.65,.31-.82,.57-.62,.91-1.16,1.87-1.75,2.8-.59,.92-1.02,1.95-1.87,2.7-.2,.17-.44,.43-.45,.65-.02,.37-.25,.42-.49,.55-.21,.11-.52,.27-.54,.43-.06,.48-.37,.45-.69,.52-.26,.05-.54,.15-.76,.3-.38,.27-.7,.56-1.2,.23-.15-.1-.44-.15-.58-.07-.47,.27-.82,.02-1.2-.18-.26-.14-.59-.33-.83-.26-.51,.14-.99,.42-1.46,.66-.12,.06-.26,.18-.3,.3-.28,.85-.53,1.71-.8,2.62,.31,.05,.48,.11,.66,.11,.9-.01,1.48,.45,1.81,1.24,.19,.45,.31,.93,.44,1.4,.18,.66,.34,1.32,.5,1.98,.05,.21,.11,.43,.12,.64,.06,1.08,.16,2.17,.15,3.26,0,2.32-.06,4.64-.1,6.97-.05,2.8-.1,5.6-.14,8.4-.03,1.71,0,3.42-.06,5.13-.02,.83,.2,1.22,1.01,1.36,.52,.09,1.04,.12,1.56,.18,.65,.08,1.29,.18,1.94,.23,.42,.03,.85,0,1.31,0,0-.2,0-.34,0-.48-.05-.66-.01-.7,.64-.51,.88,.26,1.68,.32,2.21-.62,.05-.09,.15-.16,.23-.23,1.06-.97,2.02-1.05,3.19-.26,.1,.07,.2,.15,.34,.25,.14-.16,.28-.3,.4-.45,.77-.98,1.39-.98,2.07,.02,.18,.27,.35,.34,.62,.19,.33-.18,.61-.04,.73,.24,.13,.29,.23,.67,.14,.96-.17,.56-.47,1.07-.73,1.63,.58,.01,.57,.34,.42,.81-.19,.59-.27,1.22-.46,1.8-.14,.43-.36,.84-.6,1.22-.26,.4-.65,.73-.88,1.15-.41,.76-.73,1.57-1.12,2.34-.24,.47-.51,.51-.79,.08-.29-.45-.44-.99-.65-1.49-.06,.07-.19,.21-.3,.37-.25,.36-.51,.56-.93,.21-.08-.07-.26-.03-.39-.04-.18-.01-.38,.02-.55-.04-.21-.07-.4-.2-.6-.3-.06,.03-.12,.05-.18,.08,.09,.52,.11,1.06,.27,1.54,.36,1.05,.04,2.5-.79,3.19-.38,.31-.35,.56,.1,.81,.71,.4,.89,1.42,.33,2-.33,.35-.72,.65-1.08,.97,.39,.88,.76,1.73,1.14,2.57,.39,.86,.77,1.72,1.17,2.58,.3,.65,.69,1.29-.06,1.89,1.01,.64,1.09,.9,.71,2.18,.59,.58,.72,1.03,.43,1.51-.33,.56-1.18,.89-1.81,.7-.49-.15-.74-.63-.71-1.35-1.11-.32-1.43-.83-1.16-1.89-.07,0-.15-.04-.21-.02-.56,.21-1.11,.42-1.66,.64-.08,.03-.14,.1-.2,.15-.57,.57-.89,1.39-1.71,1.72-.07,.03-.12,.13-.17,.2-.45,.55-1.36,.76-2.04,.57-.67-.19-1.41-.04-2.03-.46-.02-.02-.07,0-.11,0-.72,.06-1.43,.12-2.26,.19,.1,.24,.17,.68,.41,.84,.29,.19,.47,.36,.54,.68,.12,.58,.24,1.17,.32,1.75,.04,.29,0,.6,0,.89,.28,0,.49-.04,.68,.01,.15,.04,.35,.17,.38,.3,.25,1.22,.5,2.45,.68,3.69,.06,.41-.05,.85-.08,1.27-.01,.18-.02,.36,0,.54,.16,.88,.54,1.76,.05,2.66-.02,.04,.02,.13,.05,.19,.2,.35,.39,.71,.6,1.05,.44,.68,.31,1.49-.29,2.03-.1,.09-.17,.33-.12,.44,.39,.82,.52,1.7,.51,2.59,0,.36-.06,.78-.26,1.07-.3,.44-.24,.86-.21,1.33,.05,.72,.09,1.45-.01,2.15-.11,.83-.41,1.63-.57,2.45-.22,1.15-.35,2.32-.58,3.46-.18,.86-.21,.88,.58,1.27,.03,.02,.06,.04,.1,.05,1.08,.2,1.18,1.4,1.96,1.91,.07,.05,.04,.23,.11,.3,.13,.13,.28,.3,.44,.33,.95,.21,1.91,.39,2.28,1.49,.01,.04,.08,.05,.12,.08l-.03-.15c.47-.14,.94-.28,1.41-.42-.29-1.06-.12-1.37,1.11-1.91-.12-1.17,.83-1.5,1.68-1.06,.3,.16,.59,.37,.8,.63,.41,.47,.36,.88-.04,1.36-.09,.11-.14,.3-.14,.45,0,.37,.15,.78,.04,1.1-.11,.33-.47,.58-.69,.82,.07,.23,.3,.56,.22,.76-.53,1.23-1.14,2.43-1.71,3.65-.37,.79-.73,1.6-1.09,2.37,.36,.31,.65,.6,.99,.83,.82,.56,.84,1.7,.04,2.29-.35,.26-.66,.57-.95,.89-.54,.6-.47,1.3-.26,1.99,.03,.11,.18,.23,.29,.27,1.46,.46,2.26,1.63,3.07,2.8,.05,.07,.08,.17,.08,.26,0,.55,.15,1.11-.21,1.63-.17,.24-.32,.52-.43,.8-.26,.68-.49,1.37-.75,2.05-.38,.97-.81,1.93-.42,3.01,.06,.17-.02,.39-.05,.59-.07,.42-.14,.85-.23,1.27-.07,.34,0,.5,.38,.63,.92,.31,1.3,.95,1.13,1.84-.08,.4-.25,.79-.41,1.17-.14,.33-.33,.63-.51,.96,.35,.19,.65,.35,.95,.52,.86,.5,.92,1.64,.13,2.26-.26,.2-.52,.4-.75,.63-.11,.11-.25,.31-.23,.44,.13,.68-.27,1.08-.7,1.49-.32,.3-.64,.59-.93,.92-.28,.32-.56,.42-.95,.17-.38-.24-.69-.17-1.07,.13-2.7,2.21-5.43,4.38-8.16,6.56-.34,.27-.53,.56-.44,1.01,.08,.4-.05,.69-.4,.98-.77,.62-1.49,1.33-2.22,2h-2.4c-.67-.02-1.36-.15-2.01-.05-1.11,.16-1.71-.34-2.02-1.32-.14-.44-.41-.55-.85-.55-7.88,.06-15.77,.1-23.65,.14-.19,0-.39,.02-.61,.03-.03,.55-.05,1.07-.08,1.65-1.64,0-3.23-.04-4.81,.02-.91,.03-1.71-.06-2.4-.73-.31-.3-.68-.56-1.07-.75-.58-.28-.75-.73-.7-1.33,.04-.45-.08-.8-.5-1.11-2.6-1.9-5.19-3.81-7.73-5.79-.64-.49-1.23-.67-1.99-.57-.53,.07-2.37-1.46-2.45-1.99,0-.02-.01-.04,0-.05,.14-.82-.31-1.27-.99-1.58-.03-.02-.07-.02-.1-.05-.69-.5-.61-1.57,.15-1.95,.28-.14,.54-.3,.82-.44,.4-.19,.48-.4,.21-.81-.31-.45-.55-.95-.76-1.45-.28-.68,.17-1.48,.89-1.7,.28-.09,.74-.18,.79-.36,.13-.48,.25-1.1,.05-1.49-.31-.6-.23-1.16-.22-1.74,.02-.61-.06-1.18-.35-1.73-.26-.5-.46-1.03-.65-1.56-.25-.67-.47-1.35-.72-2.02-.11-.29-.37-.56-.36-.84,.02-.29,.23-.61,.44-.84,.59-.67,1.25-1.28,1.81-1.97,.37-.45,.79-.96,.88-1.5,.18-1.07-.43-1.9-1.24-2.54-.61-.48-.8-1.36-.27-1.9,.36-.37,.78-.68,1.18-1.03-.05-.15-.09-.3-.15-.42-.82-1.68-1.63-3.37-2.46-5.05-.16-.32-.26-.56,.08-.85,.19-.16,.43-.48-.07-.67-.6-.22-.86-.68-.72-1.33,.1-.45,.32-.89-.31-1.12-.03-.01-.05-.09-.05-.15-.16-.92,.24-1.47,1.33-1.77,.73-.2,1.18,.25,1.28,1.22,1.08,.17,1.46,.87,1.35,1.71,.47,.37,.82,.64,1.17,.92-.13-.51,.14-.92,.54-1.14,.53-.28,1.14-.41,1.71-.63,.18-.07,.36-.18,.48-.33,.55-.69,1.08-1.41,1.63-2.11,.1-.12,.27-.19,.41-.27,.93-.53,1.02-.77,.73-1.83-.41-1.47-.3-2.93,.02-4.4,.12-.57,.23-1.28,0-1.74-.3-.6-.58-1.39-1.48-1.51-.18-.02-.48-.38-.45-.5,.13-.5,.11-.96,0-1.47-.12-.59-.08-1.21-.09-1.83-.02-.76-.07-1.53-.05-2.29,.03-.78,.13-1.55,.2-2.32,.05-.56,.08-1.12,.13-1.69,.13-1.35,.15-2.72,.43-4.04,.47-2.21,1.6-4.16,2.67-6.12,.14-.26,.3-.5,.49-.83-.76-.03-1.4-.4-2.01,.1-.06,.05-.22,.03-.31,0-.5-.2-1.14-.18-1.31-.88-.03-.1-.16-.2-.27-.25-.47-.22-1.02-.33-1.1-.99,0-.04-.14-.05-.18-.09-.21-.2-.4-.41-.61-.62-.1-.09-.19-.22-.31-.26-.39-.14-.79-.26-1.2-.37-.09-.02-.23,.04-.32,.1-.23,.15-.45,.31-.69,.48,.2,.9-.12,1.36-1.18,1.64-.03,1.06-.61,1.54-1.5,1.21-.28-.1-.55-.28-.79-.47-.56-.46-.57-.93-.02-1.39,.24-.2,.28-.35,.13-.63-.29-.53-.14-1.05,.37-1.42,.13-.09,.25-.19,.37-.28-.06-.01-.11-.02-.17-.03-.02-.39-.17-.83-.04-1.15,.77-1.79,1.59-3.55,2.41-5.31,.44-.95,.36-1.22-.56-1.76-.14-.08-.25-.26-.31-.42-.27-.83-.09-1.24,.69-1.71,.11-.07,.17-.2,.26-.31-.11-.07-.21-.17-.33-.2-1.11-.34-1.62-1.54-1.22-2.62,.22-.6,.26-1.27,.32-1.91,.02-.2-.13-.41-.23-.7-.21,.25-.34,.39-.65,.76-.2-.4-.39-.75-.6-1.18-.25,.49-.38,.75-.56,1.09-.59-.52-1.09-.97-1.6-1.42,.31,.88,.34,1.69-.31,2.37-.8-1.28-1.6-2.53-2.36-3.8-.17-.28-.21-.64-.3-.96-.05-.2-.06-.41-.14-.6-.25-.62-.52-1.22-.81-1.9,.37-.03,.57-.04,.75-.06-.2-.44-.39-.85-.56-1.26-.16-.37-.31-.75-.46-1.13m16.74,.88c0-.64,0-1.28,0-1.92-.02-2.58-.04-5.16-.06-7.74-.02-2.64-.04-5.28-.06-7.92,0-.25,.06-.52-.03-.75-.5-1.35-.47-2.67-.09-4.05,.18-.65,.15-1.43-.03-2.08-.32-1.13-.86-2.19-1.28-3.29-.71-1.87-1.4-3.74-2.09-5.62-.28-.74-.55-1.49-.85-2.3-.23,.3-.39,.5-.54,.7-.22,.31-.12,.63,.14,.79,.9,.54,.81,1.29,.62,2.15-.09,.41-.06,.91,.1,1.3,.38,.9,.87,1.75,1.32,2.63,.51,1.02,.85,2.08,.78,3.25-.08,1.37-1.11,2.39-2.51,2.46-1.22,.06-2.32-.86-2.55-2.13-.03-.17-.08-.33-.13-.49-.14,.27-.18,.53-.18,.79,0,2.74,0,5.49,.01,8.24,0,3.44-.02,6.88,.03,10.31,0,.45,.38,.94,.68,1.33,.29,.39,.71,.67,1.05,1.02,.63,.64,1.04,1.37,1.03,2.31,0,.59,.06,1.19,.11,1.97,.77-.25,1.43-.47,2.1-.67,.14-.04,.3,0,.44,0-.02,.15,.02,.35-.06,.45-.23,.3-.49,.58-.78,.82-.39,.31-.82,.57-1.35,.93,.23,.08,.43,.22,.5,.17,.33-.22,.62-.48,.92-.73,.27-.23,.52-.48,.79-.71,.15-.12,.37-.19,.47-.34,.36-.55,.93-.69,1.49-.89m38.98,102.8c.04-.23,.08-.37,.08-.51,0-.42,0-.84-.03-1.25-.13-2.64-.06-5.28,.32-7.9,.07-.46,.04-.74-.37-1.03-.64-.47-1.54-.21-1.73,.57-.13,.57-.47,.96-.94,1.28-.14,.09-.28,.28-.3,.44-.09,.62-.5,.87-1.04,1.06-.22,.08-.48,.24-.59,.44-.32,.58-.73,1.02-1.35,1.28-.18,.07-.36,.3-.4,.49-.26,1-1.93,2.32-3.05,2.29-2.73-.09-5.46-.01-8.19,0-1.09,0-2-.44-2.51-1.38-.45-.83-.92-1.55-1.75-2.06-.52-.32-.73-1.1-1.5-1.17-.03,0-.07-.04-.08-.07-.41-.8-1.12-1.35-1.71-1.99-.06-.06-.1-.16-.12-.24-.28-.87-.86-1.35-1.85-1.33,.21,.85-.5,.86-1.07,1.04,.96,3.36,.56,6.8,.63,10.27,9.22-.07,18.37-.15,27.57-.22m4.73-137.13s.06-.07,.1-.11c-.04-.14-.06-.29-.12-.42-.23-.46-.47-.92-.72-1.37-.05-.09-.18-.16-.29-.2-.66-.24-1.33-.47-2.01-.71-.07-.81-.25-1.58-.51-2.38-.3-.93-.79-1.97-.29-3.03,.05-.1,.06-.31,0-.36-.45-.43-.12-.79,.07-1.16,.06-.11,.15-.28,.11-.35-.35-.6,.06-1.06,.27-1.55,.03-.08,.09-.21,.06-.26-.25-.38,.06-.61,.2-.91,.12-.23,.29-.61,.19-.73-.29-.36-.06-.51,.12-.78,.16-.24,.32-.75,.22-.84-.45-.42-.1-.65,.08-.97,.08-.13,.12-.44,.06-.48-.47-.29-.29-.59-.05-.9,.13-.17,.28-.32,.36-.42-.16-.34-.29-.64-.42-.93-.52,.83-.86,.73-1.29-.09-.23,.34-.48,.34-.69-.01-.11,.14-.2,.24-.3,.36-.19-.28-.35-.53-.53-.81-.59,.58-.68-.15-1.05-.47,.08,.34,.15,.56,.17,.79,.03,.4-.12,.7-.56,.71-.3,.01-.62,0-.9-.1-.48-.18-.92-.44-1.43-.69-.02,.17-.06,.43-.1,.72-.7,.2-1.41,.41-2.17,.62,0,2.92,0,5.91,0,8.89,0,.12,.07,.24,.1,.36,.06,.34,.16,.68,.16,1.02,0,.3-.18,.61-.16,.9,.02,.22,.19,.55,.37,.63,.88,.34,1.42,.4,2.04-.25,.24-.26,.69-.48,1.03-.47,1.31,.07,2.25,1.11,2.26,2.41,.01,.88,0,1.77,0,2.71,2.14-.15,4.14-.26,5.58,1.61m-29.46-12.5c-.06,.3-.25,.7-.14,.83,.4,.47,.42,1.01,.4,1.54-.03,.87,.68,1.68,.21,2.58-.01,.02,.02,.06,.05,.14,.54-.07,.77,.33,1.02,.72,.12,.19,.28,.45,.46,.48,.63,.11,1.23-.02,1.77-.4-.34-.58-.31-1.11-.03-1.64,.08-.15,.14-.34,.14-.51,0-3,0-6,0-9-.79-.14-.5-.93-.86-1.37-.13,.19-.29,.34-.34,.52-.09,.34-.34,.38-.6,.43-.39,.07-.78,.14-1.2,.21-.23-.47-.31-.49-.88-.21-.13,.07-.33,.09-.46,.04-.37-.17-.71-.38-1.13-.61-.47,.28-.51,.74-.21,1.32,.16,.3,.22,.65,.35,.97,.07,.19,.13,.4,.27,.53,.74,.71,.82,1.06,.46,1.84,.15,.33,.4,.62,.34,.8-.15,.44,0,.65,.38,.8m-9.78,138.29c-1.96,1.2-3.88,2.2-5.11,4.13,.16,.13,.29,.25,.44,.36,1.25,.9,2.56,1.73,3.75,2.71,.83,.68,1.5,.82,2.33,.08,.23-.21,.37-.35,.3-.66-.22-1.09-.38-2.18-.66-3.25-.28-1.1-.68-2.17-1.05-3.36m41.52,.56c-.1,.33-.19,.62-.28,.91-.44,1.46-.89,2.92-1.32,4.39-.14,.49,.11,1.08,.51,1.34,.45,.29,.77,.08,1.12-.21,.41-.35,.85-.67,1.28-1.01,1.07-.84,2.14-1.68,3.2-2.52-.46-.88-2.46-2.17-4.51-2.9M18.81,77.58c.45-.06,.97-.15,1.48-.18,.34-.02,.55-.13,.72-.44,.42-.75,.97-1.41,1.75-1.81,.87-.44,1.05-.97,.55-1.88-1.15,.53-2.3,1.06-3.45,1.58-.16,.07-.37,.19-.49,.14-.74-.33-1.38-.82-2.2-1.06-.62-.18-1.13-.9-1.59-1.47-.5-.62-.89-1.33-1.33-2-.04-.06-.13-.09-.34-.22,.81,1.96,1.56,3.77,2.37,5.72,.07-.34,.08-.51,.15-.65,.07-.16,.19-.43,.29-.43,.18,0,.43,.12,.53,.27,.17,.27,.23,.6,.35,.91,.05,.15,.09,.31,.19,.43,.33,.37,.67,.73,1.04,1.11m-6.4,.77c-.44,.9-.96,1.59-1.73,2.11-.2,.13-.39,.37-.45,.6-.22,.85-.17,1.7,.17,2.51,.26,.63,.75,1.04,1.44,1.11,.66,.07,1.28-.07,1.69-.66,.55-.79,.6-1.72,.32-2.56-.36-1.08-.94-2.08-1.43-3.12m32.27,124.41c.1,.07,.25,.18,.41,.27,1.03,.63,1.51,1.92,1.13,3.04-.11,.33,0,.43,.32,.4,.75-.06,1.42-.61,1.61-1.47,.12-.56,.34-.87,.94-.86,.12,0,.3-.14,.35-.26,.04-.09-.07-.31-.17-.35-.6-.25-.69-.71-.63-1.29,.05-.47-.24-.56-.65-.57-.56-.02-1.11-.11-1.63-.17-.5,.37-1.05,.78-1.69,1.25m-8.23,2.81s-.05,.08-.07,.11c.13,.14,.24,.3,.38,.43,.51,.48,1.16,.46,1.79,.46,1.74,0,3.48-.02,5.22-.04,.11,0,.22-.08,.22-.08-.13-.65-.23-1.25-.38-1.83-.04-.17-.2-.43-.32-.44-.17-.02-.47,.11-.53,.26-.26,.59-.74,.94-1.23,1.29-.99,.71-1.85,.9-2.6-.11-.83,.29-1.65,.22-2.46-.05m13.95-4.26s-.04,0-.05,0c0-.13,0-.26,0-.38,.06-.97-.41-1.72-1.02-2.38-.17-.18-.59-.28-.84-.21-.3,.09-.53,.4-.8,.6-.3,.23-.4,.85-.22,1.31,.15,.38,.47,.34,.78,.34,.25,0,.51-.03,.76,0,.71,.05,.88,.25,.84,.97-.02,.33-.09,.65-.08,.97,0,.12,.17,.24,.26,.35,.09-.1,.24-.2,.26-.31,.06-.41,.09-.83,.12-1.24m-16.25-.51c-.1,1.76,.35,2.92,1.74,3.23,.11-.27,.16-.57,.33-.79,.28-.36,.64-.61,1.15-.63,.19,0,.51-.26,.54-.44,.06-.39-.28-.44-.59-.43-.06,0-.11,0-.16,0-.6-.02-1.21,.41-1.76-.28-.27-.34-.81-.45-1.24-.66m4.4-1.37c-.31-.02-.55-.02-.77-.05-.25-.03-.49-.11-.74-.15-.44-.07-.88-.18-1.32-.16-.18,.01-.45,.32-.48,.53-.12,.77,.43,1.2,1.36,1.01,1.08-.22,1.91-.02,2.31,1.11,0,.02,.02,.04,.03,.04,.15,.06,.3,.12,.46,.18,.02-.05,.04-.11,.06-.16-.57-.66-1.03-1.37-.91-2.35m13.53-123.42v-4.7c-.15,.17-.22,.36-.3,.56-.25,.57-.39,1.22-1.17,1.37-.1,.02-.25,.53-.17,.63,.39,.46,.39,.92,.14,1.35,.51,.27,.95,.51,1.5,.8m-19.77-4.39c-.07,0-.14,.02-.2,.02-.15,1.32-.2,2.64-.07,3.98,0,.06,.22,.16,.29,.13,.44-.18,.88-.4,1.14-.52,.03-.54-.07-1.01,.11-1.34,.22-.43,.29-.58-.17-.75-.56-.2-.85-.58-.95-1.15-.02-.13-.09-.25-.14-.38m26.44,4.05c-.67-.73-1.31-1.43-1.94-2.12-.05,.03-.11,.07-.16,.1v2.47c.65-.14,1.29-.27,2.11-.45m-12.41,123.47c.32-.52,.67-.95,.86-1.45,.1-.25,0-.76-.18-.87-.26-.17-.7-.16-1.03-.07-.19,.05-.38,.38-.42,.61-.11,.7,.22,1.26,.77,1.78m-6.81,4.23c.04,.34-.01,.73,.14,1.02,.13,.25,.48,.48,.76,.52,.3,.05,1.02-.93,.91-1.29-.09-.27-.49-.45-.76-.65-.1-.07-.24-.08-.36-.11-.49-.13-.68,.01-.68,.51m-.78-6.68c-.77,.09-1.47,.14-2.16,.26-.14,.02-.24,.27-.35,.41,.14,.08,.26,.18,.41,.24,.36,.15,.74,.25,1.11,.41,.56,.24,.92,.06,1-.55,.02-.21,0-.43,0-.77m.8,1.5c1.07-.03,1.55-.94,2.38-1.47h-2.38v1.47ZM1.8,109.89c.3,.38,.5,.66,.73,.9,.12,.12,.33,.29,.45,.25,.73-.22,1.42-.11,2.13,.08,.1,.03,.25-.12,.38-.19-.09-.12-.16-.27-.28-.35-.11-.07-.28-.07-.42-.1-.95-.19-1.89-.39-2.99-.61m36.74,93.63c-.44,.07-.82,.12-1.18,.2-.57,.12-.76,.59-.43,1.05,.25,.35,1.54,.25,1.68-.16,.14-.39,.19-.81-.06-1.09M11.5,72.51c.35-.42,.45-.8,.23-1.21-.2-.39-.44-.38-.68,0-.02,.02-.06,.03-.1,.05-.12-.08-.24-.16-.36-.24-.54,.65-.53,1.04,.07,1.5,.21-.37,.5-.43,.84-.08m-1.97-4.52s-.05,.09-.07,.14c-.19,0-.38-.04-.57-.02-.15,.01-.36,.02-.44,.11-.34,.38-.23,.9,.07,1.13h1.19c.32-.62,.28-1-.17-1.36m15.39,4.7c1.32-.82,2.85-.56,4.27-.8,.13-.77,.1-.91-.19-1.08-.16,.75-.48,.91-1.28,.72-.27,.15-.57,.32-.85,.31-.79-.03-1.35,.43-1.94,.86m19.9,126.72c-.23,.67-.44,1.32-.65,1.94,.46,.28,.75,.23,.95-.11,.41-.7,.32-1.31-.3-1.83m34.04-88.62c.77,0,1.42,.02,2.06-.01,.16,0,.36-.16,.45-.31,.05-.08-.03-.35-.12-.4-.15-.08-.37-.11-.53-.06-.44,.14-.88,.33-1.31,.5-.17,.07-.33,.17-.55,.28M11.6,77.22c-.57,.72-.74,1.61-.97,2.47,.72-.66,1.17-1.43,.97-2.47M45.32,205.67c.11-1.05-.14-1.55-.88-1.85,.08,.5,.19,1.01,.24,1.52,.05,.45,.26,.51,.64,.33M33.54,54.39c.89-.72,1.05-2.02,.39-2.32-.13,.78-.26,1.55-.39,2.32m-12-18.24c.72,.15,.78,.13,.85-.33,.1-.62,.19-1.24,.29-1.86-.04-.02-.07-.04-.11-.05-.34,.74-.68,1.48-1.03,2.24m-11.33,31.94c.36-.46,.31-.87-.24-1.59-.15,.2-.34,.36-.41,.56-.21,.57,.35,.7,.65,1.03m-.15,1.45c-.14,.27-.3,.44-.32,.63-.07,.47-.08,.95-.12,1.42,.58-.05,.96-1.25,.44-2.05m21.46-16.39l-.27,.06c.04,.45,.05,.91,.13,1.36,.02,.13,.24,.22,.37,.33,.09-.13,.29-.29,.26-.39-.13-.46-.32-.91-.49-1.36m12.77,144.47v-1.03c-.48,.03-.97,.06-1.47,.09,0,.05-.02,.1-.03,.15,.48,.26,.97,.52,1.49,.8m-3.36,1.85c-.68,.82-.68,1.35,0,1.53,.28-.49,.46-.99,0-1.53M23.29,34.67s-.09-.01-.14-.02c.07,.61-.75,1.22,.14,1.96v-1.94Zm-4.98,43.42c-.09-.32-.18-.66-.32-1.15-.27,.38-.45,.58-.56,.82-.03,.06,.1,.29,.2,.32,.17,.05,.38,.02,.68,.02m12.43-24.14c-.05,0-.11,.01-.16,.02-.02,.35-.05,.69-.05,1.04,0,.06,.1,.12,.16,.19,.08-.08,.24-.17,.23-.24-.03-.34-.11-.67-.17-1.01"/>
    </clipPath>
  </defs>
  <g id="c" data-name="圖層 1">
    <g>
      <path class="f" d="M0,106.97v-.55c.21-.04,.44-.15,.63-.11,.85,.2,.84,.21,1.26-.57,.34-.63,.99-.72,1.47-.2,.16,.18,.31,.36,.47,.53q.56,.62,1.24,.2c.12-.08,.26-.18,.39-.18,.73,.02,1.07-.48,1.42-1.01,.49-.74,1.42-1.14,1.6-2.11,0-.05,.07-.08,.09-.13,.09-.23,.26-.47,.26-.71,0-1.03-.05-2.07-.06-3.1-.01-1.65,0-3.29,0-4.94-.01-2.31-.04-4.61-.06-6.92,0-.82,.02-1.63,.03-2.45,0-1.09,0-2.18-.02-3.27,0-.33-.1-.56-.48-.67-.55-.16-1.1-.38-1.62-.63-.29-.14-.52-.39-.87-.66,.88-.22,1.43,.17,2,.47,.41,.21,.75,.17,.98-.2,.11-.18,.12-.47,.08-.7-.05-.26-.2-.49-.31-.75,.23-.14,.47-.29,.74-.45,.08,.18,.22,.37,.25,.58,.05,.46,.04,.93,.06,1.4,.07,0,.14,0,.2,.01,.31-.94,.65-1.88,.93-2.83,.08-.27,.02-.6-.06-.88-.17-.65-.79-1.22-.29-1.98,.02-.03,0-.11-.02-.15-.47-.53-.65-1.3-1.35-1.66-.59-.31-.66-.54-.41-1.18,.18-.47,.02-1.19-.35-1.52-.46-.42-.45-1.41,.02-1.81,.58-.5,.58-1.04,.15-1.67-.2-.29-.19-.73-.23-1.1,0-.08,.23-.27,.32-.25,.38,.07,.82,.09,.8-.34-.02-.43,.32-.55,.42-.85,.01-.04-.03-.11-.06-.15-.57-.68-1.12-1.37-1.71-2.02-.66-.72-1.39-1.37-2.02-2.11-.63-.74-1.19-1.54-1.75-2.34-.59-.84-1.18-1.69-1.69-2.58-.51-.9-.98-1.82-1.36-2.78-.3-.75-.57-1.57-.61-2.36-.09-1.99,.62-3.66,2.36-4.78,1.04-.67,2.22-.91,3.4-1.13,.82-.16,1.65-.24,2.47-.35,.08-.01,.17,.05,.26,.05,.14,0,.28,0,.42-.02,.19-.02,.38-.09,.56-.07,1.12,.13,2.11-.18,2.89-.95,1.22-1.2,2.29-2.57,3.58-3.69,1.37-1.18,2.88-2.27,4.88-2.15,.1-.32,.17-.67,.32-.97,.43-.86,.92-1.69,1.34-2.55,.33-.68,.63-1.39,.5-2.17-.12-.74-.29-1.47-.41-2.21-.11-.69-.22-1.39-.24-2.09-.03-1.01,.06-2.03,.04-3.04-.03-1.49-.19-2.98-.15-4.47,.07-2.52,.24-5.03,.39-7.54,.03-.51,.13-1.01,.22-1.51,.28-1.57,.98-2.89,2.55-3.47,1.48-.54,2.87-1.38,4.56-1.32,1.05,.03,2.12-.21,3.18-.32,.44-.05,.93,.04,1.32-.12,1.4-.57,2.85-.63,4.33-.57,.61,.02,1.23-.08,1.91-.13-.48-.78-.48-1.52,0-1.91,.43-.36,.53-.76,.35-1.26-.1-.29-.02-.48,.29-.49,.4-.02,.79-.04,1.19-.01,.31,.02,.41,.18,.31,.53-.08,.27-.08,.62,.02,.88,.23,.57,.55,1.09,.88,1.73,.51,.07,1.19,.16,1.87,.25,1.54,.21,3.08,.44,4.62,.64,.56,.07,1.13,.13,1.7,.16,.46,.02,.94-.07,1.39,0,.57,.08,1.12,.3,1.69,.42,1.77,.39,3.55,.75,5.07,1.84,.95,.68,1.63,1.48,1.58,2.73,0,.2,.03,.4,.06,.6,.2,1.51,.48,3.02,.59,4.54,.12,1.7,.09,3.41,.15,5.11,0,.28,.14,.56,.16,.85,.04,.59,.05,1.19,.05,1.78,0,.23-.09,.45-.08,.68,.02,.7,.09,1.41,.08,2.11-.01,.7-.1,1.39-.15,2.09-.02,.39,0,.78-.04,1.17-.03,.31-.22,.64-.16,.92,.18,.75,.42,1.49,.71,2.2,.54,1.33,.77,2.72,.85,4.14,.02,.38-.16,.61-.55,.68-.15,.03-.31,.1-.43,.19-.1,.07-.15,.2-.22,.3,.05,.03,.09,.06,.14,.09,.11-.05,.22-.14,.34-.15,1.12-.15,2.26-.44,3.37-.38,.81,.04,1.66,.45,2.38,.88,1.07,.64,2.05,1.42,3.04,2.17,.44,.34,.77,.82,1.22,1.14,.31,.22,.67,.37,.86,.74,.15,.29,.35,.51,.74,.29,.07-.04,.28,.1,.38,.2,.21,.21,1.87,.5,2.11,.35,.03-.02,.05-.06,.07-.08,.24-.28,.53-.21,.78-.05,.41,.26,.79,.39,1.22,.02,.09-.08,.33,0,.49,.03,.11,.03,.2,.17,.31,.17,.73,.05,1.47,.05,2.21,.11,1,.08,2.02,.17,2.82,.87,.77,.68,1.5,1.4,2.22,2.13,.13,.13,.13,.4,.2,.6,.1,.28,.13,.65,.33,.82,.32,.28,.24,.57,.21,.89-.03,.24-.12,.49-.07,.71,.1,.46,.08,.81-.28,1.18-.16,.17-.19,.55-.14,.82,.05,.34-.04,.52-.3,.73-.19,.14-.41,.52-.35,.65,.23,.43-.04,.66-.3,.81-.41,.25-.58,.54-.52,1.02,.02,.12-.13,.28-.23,.39-.1,.12-.27,.19-.36,.32-.46,.72-.89,1.47-1.37,2.18-.32,.48-.74,.9-1.04,1.39-.32,.5-1.04,.78-.89,1.56,.01,.07-.22,.19-.35,.27-.13,.09-.32,.12-.41,.23-.65,.82-1.29,1.65-1.93,2.48-.23,.29-.49,.56-.72,.86-.09,.12-.22,.31-.18,.41,.16,.43-.09,.64-.38,.83-.32,.22-.56,.45-.47,.91,.03,.14-.12,.37-.26,.48-.26,.21-.65,.31-.82,.57-.62,.91-1.16,1.87-1.75,2.8-.59,.92-1.02,1.95-1.87,2.7-.2,.17-.44,.43-.45,.65-.02,.37-.25,.42-.49,.55-.21,.11-.52,.27-.54,.43-.06,.48-.37,.45-.69,.52-.26,.05-.54,.15-.76,.3-.38,.27-.7,.56-1.2,.23-.15-.1-.44-.15-.58-.07-.47,.27-.82,.02-1.2-.18-.26-.14-.59-.33-.83-.26-.51,.14-.99,.42-1.46,.66-.12,.06-.26,.18-.3,.3-.28,.85-.53,1.71-.8,2.62,.31,.05,.48,.11,.66,.11,.9-.01,1.48,.45,1.81,1.24,.19,.45,.31,.93,.44,1.4,.18,.66,.34,1.32,.5,1.98,.05,.21,.11,.43,.12,.64,.06,1.08,.16,2.17,.15,3.26,0,2.32-.06,4.64-.1,6.97-.05,2.8-.1,5.6-.14,8.4-.03,1.71,0,3.42-.06,5.13-.02,.83,.2,1.22,1.01,1.36,.52,.09,1.04,.12,1.56,.18,.65,.08,1.29,.18,1.94,.23,.42,.03,.85,0,1.31,0,0-.2,0-.34,0-.48-.05-.66-.01-.7,.64-.51,.88,.26,1.68,.32,2.21-.62,.05-.09,.15-.16,.23-.23,1.06-.97,2.02-1.05,3.19-.26,.1,.07,.2,.15,.34,.25,.14-.16,.28-.3,.4-.45,.77-.98,1.39-.98,2.07,.02,.18,.27,.35,.34,.62,.19,.33-.18,.61-.04,.73,.24,.13,.29,.23,.67,.14,.96-.17,.56-.47,1.07-.73,1.63,.58,.01,.57,.34,.42,.81-.19,.59-.27,1.22-.46,1.8-.14,.43-.36,.84-.6,1.22-.26,.4-.65,.73-.88,1.15-.41,.76-.73,1.57-1.12,2.34-.24,.47-.51,.51-.79,.08-.29-.45-.44-.99-.65-1.49-.06,.07-.19,.21-.3,.37-.25,.36-.51,.56-.93,.21-.08-.07-.26-.03-.39-.04-.18-.01-.38,.02-.55-.04-.21-.07-.4-.2-.6-.3-.06,.03-.12,.05-.18,.08,.09,.52,.11,1.06,.27,1.54,.36,1.05,.04,2.5-.79,3.19-.38,.31-.35,.56,.1,.81,.71,.4,.89,1.42,.33,2-.33,.35-.72,.65-1.08,.97,.39,.88,.76,1.73,1.14,2.57,.39,.86,.77,1.72,1.17,2.58,.3,.65,.69,1.29-.06,1.89,1.01,.64,1.09,.9,.71,2.18,.59,.58,.72,1.03,.43,1.51-.33,.56-1.18,.89-1.81,.7-.49-.15-.74-.63-.71-1.35-1.11-.32-1.43-.83-1.16-1.89-.07,0-.15-.04-.21-.02-.56,.21-1.11,.42-1.66,.64-.08,.03-.14,.1-.2,.15-.57,.57-.89,1.39-1.71,1.72-.07,.03-.12,.13-.17,.2-.45,.55-1.36,.76-2.04,.57-.67-.19-1.41-.04-2.03-.46-.02-.02-.07,0-.11,0-.72,.06-1.43,.12-2.26,.19,.1,.24,.17,.68,.41,.84,.29,.19,.47,.36,.54,.68,.12,.58,.24,1.17,.32,1.75,.04,.29,0,.6,0,.89,.28,0,.49-.04,.68,.01,.15,.04,.35,.17,.38,.3,.25,1.22,.5,2.45,.68,3.69,.06,.41-.05,.85-.08,1.27-.01,.18-.02,.36,0,.54,.16,.88,.54,1.76,.05,2.66-.02,.04,.02,.13,.05,.19,.2,.35,.39,.71,.6,1.05,.44,.68,.31,1.49-.29,2.03-.1,.09-.17,.33-.12,.44,.39,.82,.52,1.7,.51,2.59,0,.36-.06,.78-.26,1.07-.3,.44-.24,.86-.21,1.33,.05,.72,.09,1.45-.01,2.15-.11,.83-.41,1.63-.57,2.45-.22,1.15-.35,2.32-.58,3.46-.18,.86-.21,.88,.58,1.27,.03,.02,.06,.04,.1,.05,1.08,.2,1.18,1.4,1.96,1.91,.07,.05,.04,.23,.11,.3,.13,.13,.28,.3,.44,.33,.95,.21,1.91,.39,2.28,1.49,.01,.04,.08,.05,.12,.08l-.03-.15c.47-.14,.94-.28,1.41-.42-.29-1.06-.12-1.37,1.11-1.91-.12-1.17,.83-1.5,1.68-1.06,.3,.16,.59,.37,.8,.63,.41,.47,.36,.88-.04,1.36-.09,.11-.14,.3-.14,.45,0,.37,.15,.78,.04,1.1-.11,.33-.47,.58-.69,.82,.07,.23,.3,.56,.22,.76-.53,1.23-1.14,2.43-1.71,3.65-.37,.79-.73,1.6-1.09,2.37,.36,.31,.65,.6,.99,.83,.82,.56,.84,1.7,.04,2.29-.35,.26-.66,.57-.95,.89-.54,.6-.47,1.3-.26,1.99,.03,.11,.18,.23,.29,.27,1.46,.46,2.26,1.63,3.07,2.8,.05,.07,.08,.17,.08,.26,0,.55,.15,1.11-.21,1.63-.17,.24-.32,.52-.43,.8-.26,.68-.49,1.37-.75,2.05-.38,.97-.81,1.93-.42,3.01,.06,.17-.02,.39-.05,.59-.07,.42-.14,.85-.23,1.27-.07,.34,0,.5,.38,.63,.92,.31,1.3,.95,1.13,1.84-.08,.4-.25,.79-.41,1.17-.14,.33-.33,.63-.51,.96,.35,.19,.65,.35,.95,.52,.86,.5,.92,1.64,.13,2.26-.26,.2-.52,.4-.75,.63-.11,.11-.25,.31-.23,.44,.13,.68-.27,1.08-.7,1.49-.32,.3-.64,.59-.93,.92-.28,.32-.56,.42-.95,.17-.38-.24-.69-.17-1.07,.13-2.7,2.21-5.43,4.38-8.16,6.56-.34,.27-.53,.56-.44,1.01,.08,.4-.05,.69-.4,.98-.77,.62-1.49,1.33-2.22,2h-2.4c-.67-.02-1.36-.15-2.01-.05-1.11,.16-1.71-.34-2.02-1.32-.14-.44-.41-.55-.85-.55-7.88,.06-15.77,.1-23.65,.14-.19,0-.39,.02-.61,.03-.03,.55-.05,1.07-.08,1.65-1.64,0-3.23-.04-4.81,.02-.91,.03-1.71-.06-2.4-.73-.31-.3-.68-.56-1.07-.75-.58-.28-.75-.73-.7-1.33,.04-.45-.08-.8-.5-1.11-2.6-1.9-5.19-3.81-7.73-5.79-.64-.49-1.23-.67-1.99-.57-.53,.07-2.37-1.46-2.45-1.99,0-.02-.01-.04,0-.05,.14-.82-.31-1.27-.99-1.58-.03-.02-.07-.02-.1-.05-.69-.5-.61-1.57,.15-1.95,.28-.14,.54-.3,.82-.44,.4-.19,.48-.4,.21-.81-.31-.45-.55-.95-.76-1.45-.28-.68,.17-1.48,.89-1.7,.28-.09,.74-.18,.79-.36,.13-.48,.25-1.1,.05-1.49-.31-.6-.23-1.16-.22-1.74,.02-.61-.06-1.18-.35-1.73-.26-.5-.46-1.03-.65-1.56-.25-.67-.47-1.35-.72-2.02-.11-.29-.37-.56-.36-.84,.02-.29,.23-.61,.44-.84,.59-.67,1.25-1.28,1.81-1.97,.37-.45,.79-.96,.88-1.5,.18-1.07-.43-1.9-1.24-2.54-.61-.48-.8-1.36-.27-1.9,.36-.37,.78-.68,1.18-1.03-.05-.15-.09-.3-.15-.42-.82-1.68-1.63-3.37-2.46-5.05-.16-.32-.26-.56,.08-.85,.19-.16,.43-.48-.07-.67-.6-.22-.86-.68-.72-1.33,.1-.45,.32-.89-.31-1.12-.03-.01-.05-.09-.05-.15-.16-.92,.24-1.47,1.33-1.77,.73-.2,1.18,.25,1.28,1.22,1.08,.17,1.46,.87,1.35,1.71,.47,.37,.82,.64,1.17,.92-.13-.51,.14-.92,.54-1.14,.53-.28,1.14-.41,1.71-.63,.18-.07,.36-.18,.48-.33,.55-.69,1.08-1.41,1.63-2.11,.1-.12,.27-.19,.41-.27,.93-.53,1.02-.77,.73-1.83-.41-1.47-.3-2.93,.02-4.4,.12-.57,.23-1.28,0-1.74-.3-.6-.58-1.39-1.48-1.51-.18-.02-.48-.38-.45-.5,.13-.5,.11-.96,0-1.47-.12-.59-.08-1.21-.09-1.83-.02-.76-.07-1.53-.05-2.29,.03-.78,.13-1.55,.2-2.32,.05-.56,.08-1.12,.13-1.69,.13-1.35,.15-2.72,.43-4.04,.47-2.21,1.6-4.16,2.67-6.12,.14-.26,.3-.5,.49-.83-.76-.03-1.4-.4-2.01,.1-.06,.05-.22,.03-.31,0-.5-.2-1.14-.18-1.31-.88-.03-.1-.16-.2-.27-.25-.47-.22-1.02-.33-1.1-.99,0-.04-.14-.05-.18-.09-.21-.2-.4-.41-.61-.62-.1-.09-.19-.22-.31-.26-.39-.14-.79-.26-1.2-.37-.09-.02-.23,.04-.32,.1-.23,.15-.45,.31-.69,.48,.2,.9-.12,1.36-1.18,1.64-.03,1.06-.61,1.54-1.5,1.21-.28-.1-.55-.28-.79-.47-.56-.46-.57-.93-.02-1.39,.24-.2,.28-.35,.13-.63-.29-.53-.14-1.05,.37-1.42,.13-.09,.25-.19,.37-.28-.06-.01-.11-.02-.17-.03-.02-.39-.17-.83-.04-1.15,.77-1.79,1.59-3.55,2.41-5.31,.44-.95,.36-1.22-.56-1.76-.14-.08-.25-.26-.31-.42-.27-.83-.09-1.24,.69-1.71,.11-.07,.17-.2,.26-.31-.11-.07-.21-.17-.33-.2-1.11-.34-1.62-1.54-1.22-2.62,.22-.6,.26-1.27,.32-1.91,.02-.2-.13-.41-.23-.7-.21,.25-.34,.39-.65,.76-.2-.4-.39-.75-.6-1.18-.25,.49-.38,.75-.56,1.09-.59-.52-1.09-.97-1.6-1.42,.31,.88,.34,1.69-.31,2.37-.8-1.28-1.6-2.53-2.36-3.8-.17-.28-.21-.64-.3-.96-.05-.2-.06-.41-.14-.6-.25-.62-.52-1.22-.81-1.9,.37-.03,.57-.04,.75-.06-.2-.44-.39-.85-.56-1.26-.16-.37-.31-.75-.46-1.13m16.74,.88c0-.64,0-1.28,0-1.92-.02-2.58-.04-5.16-.06-7.74-.02-2.64-.04-5.28-.06-7.92,0-.25,.06-.52-.03-.75-.5-1.35-.47-2.67-.09-4.05,.18-.65,.15-1.43-.03-2.08-.32-1.13-.86-2.19-1.28-3.29-.71-1.87-1.4-3.74-2.09-5.62-.28-.74-.55-1.49-.85-2.3-.23,.3-.39,.5-.54,.7-.22,.31-.12,.63,.14,.79,.9,.54,.81,1.29,.62,2.15-.09,.41-.06,.91,.1,1.3,.38,.9,.87,1.75,1.32,2.63,.51,1.02,.85,2.08,.78,3.25-.08,1.37-1.11,2.39-2.51,2.46-1.22,.06-2.32-.86-2.55-2.13-.03-.17-.08-.33-.13-.49-.14,.27-.18,.53-.18,.79,0,2.74,0,5.49,.01,8.24,0,3.44-.02,6.88,.03,10.31,0,.45,.38,.94,.68,1.33,.29,.39,.71,.67,1.05,1.02,.63,.64,1.04,1.37,1.03,2.31,0,.59,.06,1.19,.11,1.97,.77-.25,1.43-.47,2.1-.67,.14-.04,.3,0,.44,0-.02,.15,.02,.35-.06,.45-.23,.3-.49,.58-.78,.82-.39,.31-.82,.57-1.35,.93,.23,.08,.43,.22,.5,.17,.33-.22,.62-.48,.92-.73,.27-.23,.52-.48,.79-.71,.15-.12,.37-.19,.47-.34,.36-.55,.93-.69,1.49-.89m38.98,102.8c.04-.23,.08-.37,.08-.51,0-.42,0-.84-.03-1.25-.13-2.64-.06-5.28,.32-7.9,.07-.46,.04-.74-.37-1.03-.64-.47-1.54-.21-1.73,.57-.13,.57-.47,.96-.94,1.28-.14,.09-.28,.28-.3,.44-.09,.62-.5,.87-1.04,1.06-.22,.08-.48,.24-.59,.44-.32,.58-.73,1.02-1.35,1.28-.18,.07-.36,.3-.4,.49-.26,1-1.93,2.32-3.05,2.29-2.73-.09-5.46-.01-8.19,0-1.09,0-2-.44-2.51-1.38-.45-.83-.92-1.55-1.75-2.06-.52-.32-.73-1.1-1.5-1.17-.03,0-.07-.04-.08-.07-.41-.8-1.12-1.35-1.71-1.99-.06-.06-.1-.16-.12-.24-.28-.87-.86-1.35-1.85-1.33,.21,.85-.5,.86-1.07,1.04,.96,3.36,.56,6.8,.63,10.27,9.22-.07,18.37-.15,27.57-.22m4.73-137.13s.06-.07,.1-.11c-.04-.14-.06-.29-.12-.42-.23-.46-.47-.92-.72-1.37-.05-.09-.18-.16-.29-.2-.66-.24-1.33-.47-2.01-.71-.07-.81-.25-1.58-.51-2.38-.3-.93-.79-1.97-.29-3.03,.05-.1,.06-.31,0-.36-.45-.43-.12-.79,.07-1.16,.06-.11,.15-.28,.11-.35-.35-.6,.06-1.06,.27-1.55,.03-.08,.09-.21,.06-.26-.25-.38,.06-.61,.2-.91,.12-.23,.29-.61,.19-.73-.29-.36-.06-.51,.12-.78,.16-.24,.32-.75,.22-.84-.45-.42-.1-.65,.08-.97,.08-.13,.12-.44,.06-.48-.47-.29-.29-.59-.05-.9,.13-.17,.28-.32,.36-.42-.16-.34-.29-.64-.42-.93-.52,.83-.86,.73-1.29-.09-.23,.34-.48,.34-.69-.01-.11,.14-.2,.24-.3,.36-.19-.28-.35-.53-.53-.81-.59,.58-.68-.15-1.05-.47,.08,.34,.15,.56,.17,.79,.03,.4-.12,.7-.56,.71-.3,.01-.62,0-.9-.1-.48-.18-.92-.44-1.43-.69-.02,.17-.06,.43-.1,.72-.7,.2-1.41,.41-2.17,.62,0,2.92,0,5.91,0,8.89,0,.12,.07,.24,.1,.36,.06,.34,.16,.68,.16,1.02,0,.3-.18,.61-.16,.9,.02,.22,.19,.55,.37,.63,.88,.34,1.42,.4,2.04-.25,.24-.26,.69-.48,1.03-.47,1.31,.07,2.25,1.11,2.26,2.41,.01,.88,0,1.77,0,2.71,2.14-.15,4.14-.26,5.58,1.61m-29.46-12.5c-.06,.3-.25,.7-.14,.83,.4,.47,.42,1.01,.4,1.54-.03,.87,.68,1.68,.21,2.58-.01,.02,.02,.06,.05,.14,.54-.07,.77,.33,1.02,.72,.12,.19,.28,.45,.46,.48,.63,.11,1.23-.02,1.77-.4-.34-.58-.31-1.11-.03-1.64,.08-.15,.14-.34,.14-.51,0-3,0-6,0-9-.79-.14-.5-.93-.86-1.37-.13,.19-.29,.34-.34,.52-.09,.34-.34,.38-.6,.43-.39,.07-.78,.14-1.2,.21-.23-.47-.31-.49-.88-.21-.13,.07-.33,.09-.46,.04-.37-.17-.71-.38-1.13-.61-.47,.28-.51,.74-.21,1.32,.16,.3,.22,.65,.35,.97,.07,.19,.13,.4,.27,.53,.74,.71,.82,1.06,.46,1.84,.15,.33,.4,.62,.34,.8-.15,.44,0,.65,.38,.8m-9.78,138.29c-1.96,1.2-3.88,2.2-5.11,4.13,.16,.13,.29,.25,.44,.36,1.25,.9,2.56,1.73,3.75,2.71,.83,.68,1.5,.82,2.33,.08,.23-.21,.37-.35,.3-.66-.22-1.09-.38-2.18-.66-3.25-.28-1.1-.68-2.17-1.05-3.36m41.52,.56c-.1,.33-.19,.62-.28,.91-.44,1.46-.89,2.92-1.32,4.39-.14,.49,.11,1.08,.51,1.34,.45,.29,.77,.08,1.12-.21,.41-.35,.85-.67,1.28-1.01,1.07-.84,2.14-1.68,3.2-2.52-.46-.88-2.46-2.17-4.51-2.9M18.81,77.58c.45-.06,.97-.15,1.48-.18,.34-.02,.55-.13,.72-.44,.42-.75,.97-1.41,1.75-1.81,.87-.44,1.05-.97,.55-1.88-1.15,.53-2.3,1.06-3.45,1.58-.16,.07-.37,.19-.49,.14-.74-.33-1.38-.82-2.2-1.06-.62-.18-1.13-.9-1.59-1.47-.5-.62-.89-1.33-1.33-2-.04-.06-.13-.09-.34-.22,.81,1.96,1.56,3.77,2.37,5.72,.07-.34,.08-.51,.15-.65,.07-.16,.19-.43,.29-.43,.18,0,.43,.12,.53,.27,.17,.27,.23,.6,.35,.91,.05,.15,.09,.31,.19,.43,.33,.37,.67,.73,1.04,1.11m-6.4,.77c-.44,.9-.96,1.59-1.73,2.11-.2,.13-.39,.37-.45,.6-.22,.85-.17,1.7,.17,2.51,.26,.63,.75,1.04,1.44,1.11,.66,.07,1.28-.07,1.69-.66,.55-.79,.6-1.72,.32-2.56-.36-1.08-.94-2.08-1.43-3.12m32.27,124.41c.1,.07,.25,.18,.41,.27,1.03,.63,1.51,1.92,1.13,3.04-.11,.33,0,.43,.32,.4,.75-.06,1.42-.61,1.61-1.47,.12-.56,.34-.87,.94-.86,.12,0,.3-.14,.35-.26,.04-.09-.07-.31-.17-.35-.6-.25-.69-.71-.63-1.29,.05-.47-.24-.56-.65-.57-.56-.02-1.11-.11-1.63-.17-.5,.37-1.05,.78-1.69,1.25m-8.23,2.81s-.05,.08-.07,.11c.13,.14,.24,.3,.38,.43,.51,.48,1.16,.46,1.79,.46,1.74,0,3.48-.02,5.22-.04,.11,0,.22-.08,.22-.08-.13-.65-.23-1.25-.38-1.83-.04-.17-.2-.43-.32-.44-.17-.02-.47,.11-.53,.26-.26,.59-.74,.94-1.23,1.29-.99,.71-1.85,.9-2.6-.11-.83,.29-1.65,.22-2.46-.05m13.95-4.26s-.04,0-.05,0c0-.13,0-.26,0-.38,.06-.97-.41-1.72-1.02-2.38-.17-.18-.59-.28-.84-.21-.3,.09-.53,.4-.8,.6-.3,.23-.4,.85-.22,1.31,.15,.38,.47,.34,.78,.34,.25,0,.51-.03,.76,0,.71,.05,.88,.25,.84,.97-.02,.33-.09,.65-.08,.97,0,.12,.17,.24,.26,.35,.09-.1,.24-.2,.26-.31,.06-.41,.09-.83,.12-1.24m-16.25-.51c-.1,1.76,.35,2.92,1.74,3.23,.11-.27,.16-.57,.33-.79,.28-.36,.64-.61,1.15-.63,.19,0,.51-.26,.54-.44,.06-.39-.28-.44-.59-.43-.06,0-.11,0-.16,0-.6-.02-1.21,.41-1.76-.28-.27-.34-.81-.45-1.24-.66m4.4-1.37c-.31-.02-.55-.02-.77-.05-.25-.03-.49-.11-.74-.15-.44-.07-.88-.18-1.32-.16-.18,.01-.45,.32-.48,.53-.12,.77,.43,1.2,1.36,1.01,1.08-.22,1.91-.02,2.31,1.11,0,.02,.02,.04,.03,.04,.15,.06,.3,.12,.46,.18,.02-.05,.04-.11,.06-.16-.57-.66-1.03-1.37-.91-2.35m13.53-123.42v-4.7c-.15,.17-.22,.36-.3,.56-.25,.57-.39,1.22-1.17,1.37-.1,.02-.25,.53-.17,.63,.39,.46,.39,.92,.14,1.35,.51,.27,.95,.51,1.5,.8m-19.77-4.39c-.07,0-.14,.02-.2,.02-.15,1.32-.2,2.64-.07,3.98,0,.06,.22,.16,.29,.13,.44-.18,.88-.4,1.14-.52,.03-.54-.07-1.01,.11-1.34,.22-.43,.29-.58-.17-.75-.56-.2-.85-.58-.95-1.15-.02-.13-.09-.25-.14-.38m26.44,4.05c-.67-.73-1.31-1.43-1.94-2.12-.05,.03-.11,.07-.16,.1v2.47c.65-.14,1.29-.27,2.11-.45m-12.41,123.47c.32-.52,.67-.95,.86-1.45,.1-.25,0-.76-.18-.87-.26-.17-.7-.16-1.03-.07-.19,.05-.38,.38-.42,.61-.11,.7,.22,1.26,.77,1.78m-6.81,4.23c.04,.34-.01,.73,.14,1.02,.13,.25,.48,.48,.76,.52,.3,.05,1.02-.93,.91-1.29-.09-.27-.49-.45-.76-.65-.1-.07-.24-.08-.36-.11-.49-.13-.68,.01-.68,.51m-.78-6.68c-.77,.09-1.47,.14-2.16,.26-.14,.02-.24,.27-.35,.41,.14,.08,.26,.18,.41,.24,.36,.15,.74,.25,1.11,.41,.56,.24,.92,.06,1-.55,.02-.21,0-.43,0-.77m.8,1.5c1.07-.03,1.55-.94,2.38-1.47h-2.38v1.47ZM1.8,109.89c.3,.38,.5,.66,.73,.9,.12,.12,.33,.29,.45,.25,.73-.22,1.42-.11,2.13,.08,.1,.03,.25-.12,.38-.19-.09-.12-.16-.27-.28-.35-.11-.07-.28-.07-.42-.1-.95-.19-1.89-.39-2.99-.61m36.74,93.63c-.44,.07-.82,.12-1.18,.2-.57,.12-.76,.59-.43,1.05,.25,.35,1.54,.25,1.68-.16,.14-.39,.19-.81-.06-1.09M11.5,72.51c.35-.42,.45-.8,.23-1.21-.2-.39-.44-.38-.68,0-.02,.02-.06,.03-.1,.05-.12-.08-.24-.16-.36-.24-.54,.65-.53,1.04,.07,1.5,.21-.37,.5-.43,.84-.08m-1.97-4.52s-.05,.09-.07,.14c-.19,0-.38-.04-.57-.02-.15,.01-.36,.02-.44,.11-.34,.38-.23,.9,.07,1.13h1.19c.32-.62,.28-1-.17-1.36m15.39,4.7c1.32-.82,2.85-.56,4.27-.8,.13-.77,.1-.91-.19-1.08-.16,.75-.48,.91-1.28,.72-.27,.15-.57,.32-.85,.31-.79-.03-1.35,.43-1.94,.86m19.9,126.72c-.23,.67-.44,1.32-.65,1.94,.46,.28,.75,.23,.95-.11,.41-.7,.32-1.31-.3-1.83m34.04-88.62c.77,0,1.42,.02,2.06-.01,.16,0,.36-.16,.45-.31,.05-.08-.03-.35-.12-.4-.15-.08-.37-.11-.53-.06-.44,.14-.88,.33-1.31,.5-.17,.07-.33,.17-.55,.28M11.6,77.22c-.57,.72-.74,1.61-.97,2.47,.72-.66,1.17-1.43,.97-2.47M45.32,205.67c.11-1.05-.14-1.55-.88-1.85,.08,.5,.19,1.01,.24,1.52,.05,.45,.26,.51,.64,.33M33.54,54.39c.89-.72,1.05-2.02,.39-2.32-.13,.78-.26,1.55-.39,2.32m-12-18.24c.72,.15,.78,.13,.85-.33,.1-.62,.19-1.24,.29-1.86-.04-.02-.07-.04-.11-.05-.34,.74-.68,1.48-1.03,2.24m-11.33,31.94c.36-.46,.31-.87-.24-1.59-.15,.2-.34,.36-.41,.56-.21,.57,.35,.7,.65,1.03m-.15,1.45c-.14,.27-.3,.44-.32,.63-.07,.47-.08,.95-.12,1.42,.58-.05,.96-1.25,.44-2.05m21.46-16.39l-.27,.06c.04,.45,.05,.91,.13,1.36,.02,.13,.24,.22,.37,.33,.09-.13,.29-.29,.26-.39-.13-.46-.32-.91-.49-1.36m12.77,144.47v-1.03c-.48,.03-.97,.06-1.47,.09,0,.05-.02,.1-.03,.15,.48,.26,.97,.52,1.49,.8m-3.36,1.85c-.68,.82-.68,1.35,0,1.53,.28-.49,.46-.99,0-1.53M23.29,34.67s-.09-.01-.14-.02c.07,.61-.75,1.22,.14,1.96v-1.94Zm-4.98,43.42c-.09-.32-.18-.66-.32-1.15-.27,.38-.45,.58-.56,.82-.03,.06,.1,.29,.2,.32,.17,.05,.38,.02,.68,.02m12.43-24.14c-.05,0-.11,.01-.16,.02-.02,.35-.05,.69-.05,1.04,0,.06,.1,.12,.16,.19,.08-.08,.24-.17,.23-.24-.03-.34-.11-.67-.17-1.01"/>
      <g class="e">
        <rect class="f" y="-.01" width="88.61" height="217.85"/>
      </g>
    </g>
  </g>
</svg>