<?xml version="1.0" encoding="UTF-8"?>
<svg id="b" data-name="圖層 2" xmlns="http://www.w3.org/2000/svg" width="142.74" height="308.05" viewBox="0 0 142.74 308.05">
  <g id="c" data-name="圖層 1">
    <g style="opacity: .65;">
      <path d="M142.66,61.91c.34-.73-.46-1.35-.21-2.05,.28-.8-.02-1.31-.68-1.7-.28-.17-.35-.45-.36-.75-.02-.71-.41-1.12-1.07-1.29-.38-.1-.67-.25-.83-.64-.12-.28-.38-.45-.66-.53-2.02-.63-3.99-1.59-6.12-1.62-1.22-.02-2.35-.72-3.63-.27-.47,.16-.99-.5-1.61-.46-1.06,.06-2.07-.34-3.07-.59-1.77-.44-3-1.78-4.12-3.16-1.38-1.69-2.85-3.3-4.65-4.56-.81-.57-1.76-1.05-2.65-1.31-.92-.27-1.98-.39-3-.36-.25,0-.45,.14-.62,.31-.18,.19-.4,.27-.64,.17-.79-.31-1.19,.14-1.47,.77-.15,.34-.35,.56-.72,.65-.63,.16-1.04,.62-1.28,1.19-.22,.53-.46,.99-1.08,1.14-.36,.09-.37,.56-.76,.79-.22-1.74-.93-3.35-.61-5.13,.14-.79,.03-1.63,.06-2.44,.15-3.99,.31-7.98,.45-11.97,.04-1.29,.03-2.58,.02-3.87,0-1.34-.03-2.67,.33-3.99,.3-1.06,.17-2.12-.27-3.16-.73-1.69-1.4-3.37-2.87-4.64-.7-.61-1.01-1.64-1.97-2.07-1.95-.88-3.97-1.55-6.11-1.68-1.15-.07-2.31,.01-3.47,.09-1.52,.1-3.04,.12-4.56-.19-1.69-.35-3.33,.27-5,.46-.86,.1-1.71,.27-2.59,.25-.56-.01-.83-.12-.44-.73,.61-.95,.48-1.92-.13-2.81-.24-.36-.33-.66-.18-1.09,.28-.81,.03-1.55-.48-2.22-.4-.53-.68-1.06-.36-1.75,.16-.34-.12-.52-.34-.71h-2.05c-.38,.25-.5,.57-.3,1.01,.22,.48,.1,.92-.24,1.32-.66,.77-.97,1.62-.55,2.62,.13,.31,.04,.56-.16,.8-.58,.73-.79,1.54-.45,2.44,.19,.51,0,.7-.49,.64-2.45-.32-4.94,.33-7.39-.25-.44-.1-.94,.08-1.41,.09-.84,.02-1.68,.04-2.52-.13-1.65-.34-3.3-.05-4.95,.06-1.28,.08-2.57,.1-3.69,.92-.2,.15-.56,.11-.85,.11-1.45,.05-2.38,.8-3.19,1.98-1.42,2.06-1.04,4.32-.95,6.55,.02,.53,.06,1.08-.06,1.56-.48,1.84-.34,3.75-.81,5.6-.24,.93-.28,1.93-.25,2.9,.09,3.11-.19,6.16-.86,9.22-.41,1.9-1.11,3.73-1.32,5.67-.07,.69-.52,1.26-.86,1.85-.64,1.1-.44,1.81,.61,2.47,.48,.3,.76,.81,.6,1.35-.49,1.68-.12,3.4-.38,5.1-.12,.78-.25,1.55-.36,2.33-.11,.73,.06,1.46-.09,2.21-.44-1.48-1.11-2.86-1.59-4.31-.83-2.48-2.33-4.47-4.16-6.29-1.56-1.54-3.32-2.41-5.51-2.16-2.42,.28-4.54,1.26-6.28,3.01-1.72,1.73-3.62,3.28-5.28,5.08-1.2,1.3-2.89,1.51-4.54,1.8-1.58,.27-3.19,.3-4.78,.52-1.87,.27-3.68,.85-5.43,1.58-.92,.38-1.83,.78-2.49,1.59-.16,.19-.36,.36-.49,.59-1.39,2.48-1.84,5.11-.98,7.83,.43,1.36,1.13,2.64,1.86,3.88,1.38,2.32,2.98,4.49,4.79,6.5,.95,1.05,1.93,2.11,2.97,3.01,.73,.63,.99,1.79,2.12,1.97,.09,.01,.16,.25,.22,.39,.08,.17,.09,.41,.21,.5,.9,.63,1.36,1.73,2.37,2.24,.21,.11,.47,.18,.55,.42,.4,1.11,1.32,1.86,1.96,2.81,1.78,2.63,3.69,5.17,5.62,7.69,.87,1.13,1.48,2.5,2.8,3.24,.04,.02,.07,.09,.12,.11,1.19,.53,2.37,1.07,3.46,1.79,.17,.11,.35,0,.52-.08,1.85-.93,3.72-1.84,5.56-2.8,.52-.27,.58,.06,.7,.38,.69,1.82,1.38,3.64,2.07,5.46,.43,1.13,.83,2.27,1.29,3.39,.24,.59,.18,.95-.47,1.23-1.5,.66-2.09,2.01-2.39,3.49-.21,1.01-.44,1.98-.98,2.89-.32,.54-.34,1.2-.37,1.84-.01,.36,.07,.73-.14,1.26-.32-.66-.59-1.2-.84-1.75-1.79-3.89-3.58-7.78-5.38-11.68-.21-.47-.45-.99-1.08-.8-.69,.21-1.5,.35-1.68,1.22-.1,.48-.24,.75-.77,.8-.91,.09-1.18,.67-.75,1.48q.71,1.34-.36,2.51c-.51,.55-.5,1.34-.07,2.2,.38,.78,.62,1.55,.09,2.43-.35,.59,.08,1.14,.55,1.49,1.13,.84,1.56,2.07,1.97,3.32,.18,.57,.28,1.18,.46,1.75,.11,.35,.1,.67-.03,1-.46,1.12-.92,2.24-1.4,3.35-.24,.55-.39,.82-1.1,.26-.7-.55-1.57-.91-2.21-1.59-.72-.78-1.67-1.4-1.76-2.61-.01-.2-.12-.37-.36-.3-.28,.08-.37,.28-.3,.55,.25,.92,.59,1.78,1.33,2.44,.66,.58,1.29,1.2,1.88,1.87-1.11-.09-1.83-1.2-3.08-1.11,.58,.88,1.26,1.5,2.18,1.87,.74,.3,.99,.75,.92,1.63-.23,2.93-.61,5.86-.71,8.79-.11,3.23-.6,6.42-.76,9.65-.01,.21-.03,.42-.07,.63-.22,1.39-.23,1.4-1.62,1.31-.67-.04-1.27,.1-1.73,.6-.44,.49-.79,.5-1.32,.07-.61-.51-1.2-1.12-2.14-1.03-.56,.05-1.03,.16-1.26,.75-.17,.45-.44,.59-.98,.46-1.24-.28-1.78,.37-1.38,1.62,.18,.57,.46,1.12,.71,1.67,.15,.33,.23,.6-.21,.75-.19,.06-.36,.21-.27,.41,.3,.72,.31,1.57,.92,2.14,.3,.27,.34,.56,.29,.92-.16,1.03,.03,1.9,.85,2.67,1.12,1.04,1.85,2.41,2.66,3.7,.34,.54,.15,1.19,.17,1.78,.03,.95,.24,1.21,1.18,1.33,1.04,.13,2.09,.24,3.13,.35,.62,.06,1.06,.27,1.28,.95,.25,.78,.89,1.28,1.59,1.68,.5,.28,.55,.49,.03,.81-1.29,.8-1.39,2.21-.17,3.15,.43,.33,.64,.82,1.06,1.15,.24,.18,.07,.37,0,.56-.95,2.37-2.06,4.66-3.11,6.99-.31,.7-.83,1.39-.33,2.23,.17,.28-.1,.43-.27,.58-.62,.53-.73,1.22-.53,1.94,.13,.46,.04,.79-.21,1.17-.48,.72-.3,1.73,.41,2.24,.74,.54,1.59,.69,2.48,.46,.54-.14,.84-.55,.87-1.1,.03-.46,.22-.71,.65-.86,.76-.28,1.13-.89,1.07-1.66-.06-.79,.3-.73,.85-.61,1,.22,1.33,1.05,1.68,1.81,.55,1.19,2.57,2.56,3.97,2.66,1.4,.1,2.59-.11,3.83-.66,.53-.23,1.11,.2,1.6,.49,.24,.14,.02,.43-.04,.65-.72,2.43-1.93,4.66-2.84,7.01-.78,2-1.23,4.07-1.56,6.18-.04,.25-.04,.54,.03,.78,.38,1.23,.22,2.46,.03,3.68-.53,3.5-.35,6.98,.47,10.4,.31,1.31,.52,2.8,2.08,3.42,.32,.12,.27,.42,.2,.68-.15,.53-.26,1.08-.48,1.58-.59,1.38-.42,2.78-.2,4.18,.14,.91,.16,1.84,.48,2.71,.22,.61-.15,1-.6,1.22-1.56,.76-2.77,1.85-3.57,3.39-.15,.3-.41,.35-.72,.39-1.17,.14-2.27,.44-3,1.48-.09,.13-.21,.31-.37,.19-.48-.36-1.32-.3-1.24-1.32,.06-.69-.41-1.3-1.17-1.51-.44-.12-.66-.36-.7-.82-.07-.7-.54-1.11-1.17-1.21-.83-.14-1.57,.21-2.11,.81-.46,.51-.7,1.18-.29,1.82,.36,.56,.42,1.07,.26,1.71-.18,.73,.05,1.42,.7,1.87,.31,.21,.38,.41,.13,.7-.37,.43-.25,.85-.04,1.31,.99,2.15,1.95,4.31,2.91,6.47,.59,1.34,.53,1.65-.67,2.53-.59,.44-.83,.95-.82,1.67,0,.68,.34,1.09,.78,1.55,.88,.93,2,1.75,1.94,3.26-.04,.94-.41,1.67-1.24,2.13-.77,.42-1.45,.98-2.04,1.6-1.42,1.46-1.6,3.52-.57,5.32,.72,1.26,1.11,2.67,1.69,3.99,.15,.34,.15,.79,.07,1.17-.32,1.54,.17,3.09-.09,4.64-.08,.45-.15,.75-.55,1.01-1.1,.72-1.33,1.95-.62,3.08,.45,.72,.49,1.61,.98,2.32,.13,.19-.04,.34-.21,.44-.18,.1-.37,.2-.56,.29-1.62,.78-1.83,2.42-.4,3.53,.72,.56,1.35,1.11,1.19,2.13-.01,.1,0,.23,.07,.3,.85,.97,1.78,2.14,3.01,2.25,1.32,.12,2.21,.67,3.09,1.46,2.85,2.54,5.85,4.89,8.81,7.29,.57,.46,.89,.94,.8,1.67-.09,.69,.17,1.22,.7,1.66,.83,.69,1.63,1.4,2.44,2.11,.28,.25,.61,.28,.96,.28,2.45,0,4.89,0,7.34,0,.62,0,.89-.19,.93-.85,.1-1.69,.13-1.69,1.8-1.69,6.15,0,12.31,.12,18.46,.22,4.76,.08,9.52,.03,14.28,.11,1.07,.02,1.08,.01,1.1,1.11,.01,.57,.11,1.1,.48,1.55h8.53c1.02-.74,2.01-1.53,3.06-2.22,.59-.38,.84-.84,.75-1.5-.13-.86,.23-1.37,.97-1.85,4.4-2.83,8.78-5.7,13.14-8.6,.65-.43,1.2-.3,1.76,.02,.6,.34,1.11,.32,1.66-.11,.56-.43,1.17-.82,1.79-1.14,.7-.36,1.04-.92,.98-1.65-.07-.97,.39-1.55,1.12-2.08,.86-.62,1.03-1.57,.57-2.51-.26-.52-.77-.73-1.22-.95-.68-.32-.72-.65-.35-1.27,.56-.95,.91-1.99,.91-3.14,0-.84-.36-1.34-1.15-1.57-.58-.17-1.14-.33-1.62-.76-.74-.66-.81-1.29-.62-2.28,.55-2.77,2.02-5.16,2.96-7.77,.14-.39,.36-.76,.57-1.13,.73-1.34,.38-2.4-.62-3.62-.9-1.09-2.01-1.8-3.13-2.57-1.26-.87-1.24-2.69-.07-3.67,.48-.4,.94-.84,1.37-1.29,.74-.79,.74-1.98,0-2.8-.38-.43-.78-.88-1.25-1.18-.56-.35-.48-.68-.25-1.17,1.17-2.47,2.32-4.95,3.47-7.43,.09-.19,.27-.45,.21-.58-.4-.87,.32-1.37,.54-2.05,.33-1.02,.34-2.16,.54-3.25,.19-1.08-2.1-2.2-3.12-1.67-.16,.08-.4,.2-.42,.33-.15,.94-.9,1.31-1.56,1.8-.38,.28-.47,.74-.44,1.22,.01,.27,.15,.68-.3,.66-.41-.01-.91,.55-1.23-.16-.25-.56-.75-.76-1.31-.91-.94-.24-1.64-.6-2.28-1.53-.64-.94-1.33-2.03-2.56-2.56-.81-.35-1.42-1.12-2.35-1.37-.46-.12-.41-.56-.26-.93,.37-.91,.44-1.83,.21-2.79-.13-.55-.05-1.03,.22-1.57,.38-.76,.6-1.62,.82-2.45,.11-.41,.23-.8,.43-1.17,.53-1.02,.06-2.07,.02-3.1-.02-.56-.05-1,.45-1.39,.38-.3,.36-.79,.31-1.25-.11-1-.36-1.96-.61-2.93-.1-.39-.21-.77,.19-1.08,.09-.07,.18-.24,.16-.34-.21-1.02,.25-1.96,.34-2.94,.06-.67-.19-1.23-.52-1.84-.35-.64-.64-1.38-.4-2.26,.41-1.57,.09-3.16-.51-4.63-.3-.73-.47-1.43-.45-2.2,.02-.63,.01-1.26-.02-1.89-.04-.7-.38-1.17-1.14-1.13-.74,.04-.97-.36-1.02-1-.06-.79-.11-1.57-.19-2.36-.07-.76,.3-1.06,1.01-1.07,.34,0,.68,.01,1.01,.14,1.18,.46,2.07,.23,2.94-.74,.14-.16,.29-.39,.46-.41,1.47-.23,2.01-1.56,2.92-2.43,.16-.15,.29-.31,.52-.33,.79-.08,1.52-.42,2.28-.62,1.08-.28,1.62,.03,1.83,1.09,.11,.54,.34,1.01,.89,1.21,.45,.17,.62,.47,.72,.93,.17,.83,.69,1.21,1.54,1.14,.85-.06,1.68-.22,2.22-.99,.39-.56,.42-1.15,0-1.68-.28-.37-.39-.68-.25-1.14,.21-.68-.02-1.29-.52-1.8-.16-.16-.51-.35-.32-.55,.73-.81,.15-1.52-.17-2.17-1.21-2.43-2.2-4.95-3.39-7.39-.21-.44-.1-.66,.26-1.05,.53-.56,1.38-.78,1.66-1.62,.3-.92,.15-1.79-.59-2.43-.43-.37-.68-.6,.06-.97,1.29-.64,1.79-2.19,1.4-4-.19-.87-.45-1.74-.37-2.65,.01-.16,.01-.34,.19-.4,.15-.05,.22,.09,.32,.18q.96,.9,1.35-.41s.05-.09,.08-.13c.62,1.54,.64,1.55,1.79,.27,.36-.4,.66-.86,1.08-1.42-.04,.66-.07,1.17-.1,1.68-.04,.63,.19,1.19,.48,1.72,.14,.25,.3,.52,.63,.53,.37,0,.56-.27,.69-.57,.26-.58,.51-1.15,.73-1.74,.54-1.45,1.44-2.67,2.39-3.85,.45-.55,.68-1.18,.82-1.85,.18-.82,.36-1.64,.52-2.47,.08-.41,.01-.76-.47-.83-.54-.08-.39-.36-.24-.67,.29-.59,.61-1.17,.86-1.78,.44-1.08,.04-1.64-1.09-1.56-.4,.03-.62-.16-.83-.47-.89-1.29-2.06-1.3-2.97-.01-.4,.57-.71,.69-1.32,.21-1.48-1.16-2.63-1.11-4.14,.03-.23,.17-.49,.33-.66,.56-.87,1.15-1.86,1.57-3.25,.83-.65-.34-.99-.03-.9,.72,.07,.58-.19,.69-.68,.64-1.25-.14-2.51-.29-3.76-.39-.63-.05-1.34-.28-1.79,.44-.02,.04-.08,.07-.13,.08-.32,.03-1.43-1.19-1.43-1.55,0-8.6,.05-17.2-.07-25.8-.04-2.81-.03-5.63-.11-8.44-.01-.39,.05-.83-.09-1.17-.71-1.68-.83-3.51-1.33-5.24-.52-1.79-1.33-2.39-3.2-2.4-.59,0-.89-.24-1.14-.75-.38-.78-.53-1.5-.29-2.4,.46-1.72,.71-3.5,1.15-5.24,.17-.69,.52-1.13,1.21-1.3,.79-.2,1.33-.7,1.74-1.39,.3-.51,1.31-.59,1.62-.08,.34,.55,.77,.76,1.38,.64,.32-.06,.54,.08,.76,.3,.59,.58,1.07,.6,1.7,.02,.31-.28,.57-.33,.91-.13,.54,.31,.95,.2,1.21-.38,.13-.29,.32-.47,.67-.41,.56,.08,.94-.26,1.1-.71,.2-.54,.55-.77,1.06-.94,.54-.18,.97-.53,1.02-1.17,.02-.33,.23-.51,.54-.59,.23-.06,.51-.14,.6-.35,.38-.95,1.38-1.46,1.78-2.26,.46-.91,1.37-1.43,1.69-2.5,.18-.61,.96-1.14,1.19-1.93,.09-.33,.82-.2,.86-.59,.12-1.07,1.53-1.36,1.45-2.52,0-.1,.18-.27,.3-.33,.48-.22,.67-.72,1-1.01,.57-.51,.76-1.23,1.28-1.71,.41-.38,.83-.72,1.13-1.19,.22-.35,.51-.46,.78,0,.13,.22,.28,.49,.61,.39,.3-.09,.33-.39,.34-.65,.03-.58,.29-1.02,.68-1.46,.57-.65,.82-1.51,1.62-2.07,.5-.35,.75-1.12,1.44-1.44,.24-.11,.5-.38,.56-.63,.14-.52,.45-.84,.85-1.17,.2-.17,.52-.4,.21-.79-.18-.22,.03-.37,.22-.49,.46-.29,.6-.82,.89-1.22,.54-.76,1.07-1.47,1.41-2.38,.17-.44,.7-.82,.66-1.44-.02-.25,.12-.46,.31-.61,.36-.29,.5-.65,.4-1.12-.11-.51,.07-.92,.47-1.26,.47-.4,.63-.9,.32-1.47-.17-.31-.09-.55,.14-.77,.09-.09,.19-.19,.25-.31ZM14.03,154.94c-.52-.5-1.27-.72-1.6-1.43-.11-.23-.34-.48-.1-.72,.21-.2,.5-.08,.75,0,.5,.18,.67,.64,.85,1.07,.12,.31,.18,.64,.27,.96l-.18,.1Zm13.53-38.62c.02-.31,.04-.75,.49-.59,.45,.16,1.36-.45,1.29,.75-.13,.22,.01,.75-.5,.76-1.08,.01-1.31-.18-1.27-.92Zm-1.62-3.35c-.19-.11-.39-.15-.6-.08-.61,.19-.63-.27-.72-.61-.02-.68,.44-.99,1.04-.77,.14,.05,.32,.11,.45,.07,.29-.09,.5-.1,.65,.22,.19,.42,.03,.77-.2,1.11-.17,.26-.39,.21-.62,.07Zm1.21,5.49c-.84-1.23-.94-2.62-.85-4.04,0-.03,0-.05,0-.08,.09-.5,.48-.87,.89-.86,.36,0,.04,.55,.14,.69,.12,.51,0,.83-.19,1.17-.53,.92-.29,1.99,.56,2.65,.2,.16,.47,.27,.4,.6-.04,.2-.2,.3-.39,.33-.34,.05-.42-.25-.56-.46Zm-.63,9.75c.07-.17,.12-.38,.25-.48,1.04-.81,1.74-1.86,2.19-3.13,.86,1.94,1.83,3.81,1.95,5.91,.06,1.1-.12,2.21-1.19,2.92-1.44,.95-3.31,.12-3.56-1.65-.17-1.2-.12-2.41,.34-3.57Zm8.26,24.86c-.5,.19-.9,.54-1.19,1-.12,.18-.3,.32-.53,.27-.3-.06-.21-.31-.22-.51-.04-.67-.45-.67-.95-.53-1.19,.35-2.37,.69-3.6,.88-.97,.15-1.09,.02-.85-.9,.05-.18,.09-.36,.09-.54,0-.41,.12-.9-.31-1.15-.41-.24-.74,.09-1.07,.3-.64,.41-1.21,.29-1.92,0-1.65-.66-2.04-1.76-1.78-3.42,.21-1.32,.43-2.65,.57-3.98,.26-2.59,.48-5.18,.74-7.76,.15-1.54,.35-3.08,.52-4.62,.1-.91,.16-1.83,.26-2.74,.03-.31-.08-.86,.39-.79,.45,.07,.14,.57,.12,.88-.11,1.54-.11,3.04,1.01,4.32,.83,.96,1.84,1.44,3.07,1.16,1.24-.28,2.2-.99,2.62-2.27,.37-1.12,.45-2.23,.15-3.41-.48-1.92-1.28-3.73-1.97-5.57-.21-.55-.26-1.02,0-1.58,.3-.63,.55-1.31,.35-2.06-.14-.52-.48-.85-.92-1.13-.37-.24-.51-.56-.14-.91,.91-.85,1.04-1.77,.31-2.8-.13-.19-.26-.4-.1-.78,.34,.34,.44,.71,.59,1.07,1.71,4.13,3.42,8.26,5.13,12.39,.26,.63,.45,1.27,.45,1.98-.02,7.29-.02,14.58,0,21.86,0,.67-.16,1.09-.81,1.33Zm92.54,5.6c.71-.3,1.33-.02,1.91,.36,.38,.25,.72,.57,1.26,.75-.41,.22-.72,.2-1,.09-.7-.29-1.41-.55-2.16-.68-.15-.03-.34-.07-.3-.28,.02-.1,.17-.19,.28-.24Zm-52.65,129.76c-.3-.54-.65-1-1.18-1.33-.55-.34-.52-.55,.08-.84,.19-.09,.46-.14,.55-.29,.93-1.52,2.38-.97,3.7-.96,.63,0,.8,.42,.85,.93,.07,.68-.09,1.38,.63,1.9,.35,.26,.02,.67-.36,.72-.82,.11-1.14,.63-1.33,1.34-.26,.96-.92,1.56-1.84,1.9-.42,.15-.67,.05-.65-.54,.4-.96,.07-1.9-.44-2.83Zm-13.43-181.78c-.41,.28-.87,.48-1.32,.67-.26,.11-.31-.14-.31-.32,0-1.56,0-3.13,0-4.69,.47,.78,.95,1.41,1.76,1.74,.33,.13,.43,.36,.24,.68-.18,.3-.26,.62-.29,.97-.03,.32,.28,.72-.07,.96Zm15.53,172.94c-.09,.73-.56,1.23-1.09,1.67-.26,.21-.44,.02-.57-.19-.22-.32-.49-.63-.44-1.24,.05-.16,.11-.5,.26-.8,.27-.56,.77-.59,1.28-.44,.49,.14,.62,.54,.57,1Zm-2.81,3.4c-.07,.62-.2,1.18-.56,1.65-.15,.19-.35,.35-.61,.24-.24-.1-.21-.34-.18-.55,.09-.65,.18-1.3,.29-1.94,.05-.28,.13-.65,.45-.67,.42-.03,.39,.42,.5,.69,.08,.19,.08,.41,.11,.58Zm-5.7,4.19c.32,.44,.06,.79-.2,1.13-.19,.25-.34,.53-.54,.78-.54,.66-1.18,.55-1.5-.26-.16-.39-.28-.8-.26-1.2-.02-.57,.12-1.04,.65-1.28,.46-.21,1.44,.25,1.85,.82Zm-1.21-3.71c.02-.28,.12-.57,.22-.83,.09-.24,.16-.55,.49-.55,.32,0,.41,.3,.51,.53,.16,.36,.33,.72,.42,1.1,.13,.54-.17,.78-.77,.77-.55-.06-.91-.38-.87-1.02Zm-5.11-.08c-.42,.04-.84,0-1.25-.13-.7-.22-.86-.73-.73-1.36,.13-.61,.4-1.1,1.17-1.02,.92,.18,1.82,.48,2.78,.54,.41,.03,.52,.44,.53,.78,.04,.92,.32,1.75,.84,2.5,.11,.15,.31,.41,.05,.55-.24,.13-.36-.17-.45-.33-.64-1.17-1.62-1.66-2.94-1.52Zm2.54,4.57c-.03,1.03-1.2,1.73-2.04,1.3-.33-.17-.5-.47-.44-.85,.06-.41,.26-.76,.7-.85,.41-.08,.82-.11,1.24-.21,.61-.15,.46,.39,.54,.61Zm-2.39-9.41c.52-.7,1.26-1.13,2.12-1.14,.52-.05,.73,.16,.65,.78-.27,2.05-.6,2.23-2.51,1.4-.65-.29-.62-.56-.26-1.04Zm-3.93,5.39c.04-.55,.24-.62,.69-.3,.97,.7,1.97,1.32,3.26,1.08,.19-.04,.41,.06,.61,.11,.32,.08,.62,.19,.61,.6,0,.37-.29,.46-.58,.54-.98,.26-1.78,.75-2.21,1.73-.22,.51-.55,.26-.83,.09-1.26-.74-1.56-1.96-1.6-3.38,.01-.1,.04-.29,.06-.47Zm4.03,6.75c.79-.05,1.58,.04,2.36-.11,.13-.03,.31,.05,.43,.13,1.17,.78,2.23,.75,3.37-.09,.69-.51,1.11-1.26,1.73-1.83,.23-.22,.45-.45,.79-.47,.32-.02,.54,.05,.59,.45,.12,.92,.02,1.87,.51,2.75,.25,.45-.27,.39-.52,.39-1.29,.01-2.58,0-3.86,0-1.21,0-2.42,0-3.63,0-.74,0-1.4-.2-1.95-.72-.09-.08-.2-.21-.19-.32,.01-.2,.21-.2,.36-.21Zm8.34-12.55c-.49-.58-.89-.51-1.35,0-.47,.54-1.04,.96-1.63,1.36-.29,.2-.56,.61-.94,.43-.4-.19-.15-.67-.24-.97-.03-.81,.53-1.52,1.28-1.53,1.63-.04,3.25-.01,4.88,0,.2,0,.5-.01,.45,.29-.08,.54-.2,1.08-.37,1.6-.09,.25-.36,.11-.56,.04-.65-.23-1.1-.72-1.52-1.21Zm3.14,12.18c0,.17-.04,.33-.2,.39-.21,.08-.37-.04-.46-.21-.1-.21-.19-.43-.23-.66-.12-.63-.21-1.27-.33-2.07,1.03,.68,1.19,1.58,1.23,2.54Zm4.33-6.76c-.3-.03-.59-.07-.68-.43-.08-.33,.01-.62,.26-.86,.24-.24,.49-.48,.7-.75,.59-.77,1.12-.77,1.68,.08,.89,1.36,1.2,2.83,.7,4.44-.02-.53-.36-.97-.42-1.5-.04-.33-.28-.48-.57-.59-.55-.19-1.1-.36-1.68-.41Zm7.07-175.09c.29-.11,.52,.18,.75,.34,.4,.27,.74,.61,.7,1.14-.05,.6-.57,.86-.99,1.13-.36,.23-.78-.2-.79-.7,.04-.42,.08-.78,.12-1.15,.03-.27-.13-.64,.21-.77Zm2.78-1.05c-.25,.14-.4-.27-.65-.34-.8-.21-1.35-.51-.85-1.49,.12-.24-.21-.45-.34-.67-.24-.4-.37-.9,.17-1.05,1-.27,1.24-1.04,1.48-1.85,.09-.3,.19-.59,.34-1.06,0,2.03,0,3.84,0,5.65,0,.28,.13,.65-.14,.81Zm6.49-2.49c.73,.45,1.09,.97,1.41,1.5,.21,.34,.21,.7-.23,.93-.26,.13-.49,.3-.73,.46-.28,.18-.45,.13-.45-.23,0-.83,0-1.67,0-2.66Zm5.5-39.06c-.15,2.18-.8,4.26-1.42,6.34-.11-2.23,.04-4.41,1.42-6.34Zm-15.79,14.96c0-.62,.15-1.08,.79-1.28,.21-.06,.46-.15,.59,.05,.69,1.08,1.6,.43,2.39,.27,.33-.07,.48-.07,.73,.13,1.33,1.04,2.07,.99,3.31-.2,.26-.25,.5-.39,.81-.1,.45,.42,.94,.53,1.51,.19,.28-.17,.55-.11,.8,.11,.27,.24,.35,.49,.22,.84-.16,.43-.19,.87-.02,1.31,.05,.14,.1,.36,.03,.46-.86,1.3-.27,2.81-.61,4.18-.16,.65,0,1.3,.26,1.92,.05,.12,.15,.24,.15,.36-.02,1.96,1.4,2.79,2.82,3.63,.14,.08,.27,.15,.41,.23,.22,.11,.63-.03,.66,.3,.03,.35-.35,.49-.6,.66-1.78,1.19-1.99,2.51-.63,4.12,.33,.39,.47,.82,.41,1.31-.04,.34-.11,.68-.21,1-.17,.55-.23,1.23-.59,1.61-.45,.47-1.03-.18-1.58-.21-.82-.05-1.63-.06-2.44-.05-.61,0-.86-.23-.84-.84,.04-1.21-.01-2.42-.14-3.62-.05-.5-.21-.94-.6-1.24-.88-.66-1.78-1.29-2.88-1.58-.87-.23-1.49-.02-1.96,.73-.44,.71-1.06,.98-1.88,.77-.73-.19-1.18-.58-.9-1.41,0-4.55,0-9.1,0-13.65Zm-.29,20.8c-.04-.72,.12-1.26,.43-1.82,.44-.77,.37-1.74,.91-2.5,.14-.19,.21-.42,.45-.52,.17-.07,.36-.17,.52-.05,.19,.13,.12,.34,.05,.5-.3,.71-.33,1.55-1.04,2.06-.11,.08-.2,.28-.19,.41,.16,1.15-.46,2.27-.13,3.42,.04,.15,.1,.32-.13,.37-.14,.03-.28-.03-.31-.17-.14-.62-.86-1.06-.55-1.71Zm-41.69,189.89c-.6,.36-1.04,.18-1.55-.22-1.82-1.43-3.66-2.83-5.51-4.22-.43-.32-.43-.54-.15-1.02,.53-.91,1.44-1.31,2.24-1.79,1.02-.62,1.83-1.37,2.52-2.31,.46-.63,.6-.58,.93,.11,1.1,2.37,1.57,4.96,2.47,7.4,.05,.15,.06,.31,.1,.48-.12,.67-.42,1.2-1.04,1.57Zm7.19-190.87c-2.71,.53-5.42,1.02-8.13,1.54-.38,.07-.94,.41-1.07,.28-.31-.31-.42-.82-.59-1.26-.33-.86-.63-1.73-.97-2.58-.21-.52-.16-.82,.41-1.12,1.9-1.01,3.93-1.76,5.78-2.87,.63-.38,1.21-.84,1.93-1.04,.36-.1,.45-.44,.5-.75,.12-.67,.21-1.35,.28-2.03,.04-.37,.05-.73,.46-.93,.35-.17,.15-.39,.05-.65-.53-1.36-.86-2.75-.06-4.11,.26-.45,.24-.69-.19-.95-.55-.33-.75-.87-.92-1.49-.33-1.25-.41-2.51-.4-3.79,0-.76,.33-1.04,1.58-1.31,.45-.1,.93-.12,1.33,.02,.75,.26,1.58,.02,2.29,.43,.04,.02,.11,.04,.15,.03,1.69-.45,3.16,.71,4.8,.66,.1,0,.21,.05,.31,.03,1.55-.33,3.14-.19,4.69-.43,.64-.1,1.19,.34,1.84,.16,.19-.05,.18,.38,.18,.61,0,1.34,0,2.68,0,4.54,.13,2.22-.23,4.95-.16,7.68,0,.21,0,.45-.1,.61-.54,.84-.69,1.69-.24,2.61,.04,.08,.05,.24,0,.3-.42,.56-1.08,.6-1.69,.73-.45,.1-.77-.06-1.02-.42-.21-.3-.39-.62-.61-.91-.59-.76-1.44-.87-2.09-.14-1.23,1.38-2.47,2.76-2.15,4.85,.1,.64,0,1.31,.01,1.97,.01,.6-.27,.87-.86,.88-1.08,0-2.15,.15-3.21,.36-.64,.12-.91-.11-.94-.69-.04-.83-.47-.98-1.22-.84Zm40.64,184.67c-.22,2.99-.41,5.97-.6,8.96-.05,.84-.03,1.68-.04,2.52,0,1.09-.04,1.13-1.1,1.13-1.6,0-3.21,0-4.81,0-7.78-.21-15.57-.09-23.35-.21-2.94-.04-5.89-.07-8.83-.09-.71,0-.84-.27-.73-.9,.3-1.73,.59-3.47,.73-5.23,.12-1.4-.37-2.7-.49-4.06-.12-1.28-.28-2.56-.44-3.84-.07-.54,.15-.92,.63-1.15,.49-.24,.89-.03,1.21,.3,.34,.36,.62,.78,.9,1.19,.36,.52,.96,.88,1.27,1.35,.68,1.01,1.61,1.67,2.48,2.44,.62,.55,1.05,1.31,1.86,1.65,.33,.14,.45,.42,.56,.72,.32,.9,.8,1.71,1.37,2.47,.71,.96,1.64,1.43,2.84,1.42,1.82-.01,3.63,.04,5.45,0,2.19-.06,4.36,.2,6.54,.15,1.89-.04,3.24-.97,4.08-2.62,.27-.52,.53-.9,1.14-1.06,.79-.21,1.12-.99,1.59-1.57,.22-.27,.41-.52,.75-.66,.72-.3,1.39-.65,1.52-1.55,.01-.09,.1-.23,.17-.25,1.27-.4,1.4-1.68,1.99-2.59,.56-.87,1.15-.99,2.12-.61,1.05,.41,1.26,1.1,1.18,2.09Zm16.74,2.6c.4,.3,.17,.43-.11,.61-2.2,1.39-4.4,2.78-6.59,4.18-.35,.22-.65,.27-1.01,.04-.26-.17-.57-.28-.86-.39-.71-.28-.96-.84-.98-1.49,.35-2.31,.8-4.52,1.7-6.61,.25-.58,.51-1.16,.58-1.79,.06-.53,.31-.54,.68-.29,.22,.15,.48,.26,.64,.45,.83,1.02,1.91,1.78,2.97,2.5,1.16,.78,1.88,1.97,2.97,2.79Z"/>
    </g>
  </g>
</svg>