<?xml version="1.0" encoding="UTF-8"?>
<svg id="b" data-name="圖層 2" xmlns="http://www.w3.org/2000/svg" width="128.71" height="303.65" viewBox="0 0 128.71 303.65">
  <g id="c" data-name="圖層 1">
    <path d="M127.47,49.14c-1.18-1.57-2.63-2.79-4.75-2.98-1.61-.15-3.2-.65-4.85-.32-.2,.04-.47-.05-.65-.17-.46-.32-.84-.24-1.27,.08-.16,.12-.6,.15-.71,.03-.47-.49-.91-.28-1.42-.12-.57,.18-1.18,.34-1.77,.36-.68,.02-1.44,.02-2.03-.26-1.02-.47-1.99-1.08-2.87-1.77-1.7-1.32-3.34-2.73-4.97-4.13-1.2-1.03-2.58-1.6-4.16-1.68-1.26-.06-2.52-.12-3.78-.08-.34,.01-.67,.39-1.01,.6-.31,.19-.63,.37-.94,.57-.41,.27-.81,.56-1.29,.89-.02-.41-.07-.81-.06-1.2,.02-1.3-.2-2.55-.78-3.73-.55-1.11-.64-2.26-.52-3.51,.26-2.8,.43-5.62,.51-8.44,.11-3.9,.12-7.8,.16-11.7,0-.56-.05-1.13-.12-1.68-.21-1.54-.65-2-2.17-2.26-1.22-.21-2.45-.4-3.67-.6-.05,0-.11,0-.15-.03-1.77-1.32-3.91-.93-5.9-1.28-1.65-.29-3.3-.65-4.96-.87-1.04-.14-2.12-.09-3.17-.13-1.21-.05-2.43-.09-3.64-.16-.74-.04-1.24-.64-1.11-1.36,.16-.92-.05-1.69-.58-2.47-.25-.37-.2-.13-.27-.61-.03-.19-.02,.22-.03,.22h-2.17c-.07,0-.24-.44-.19-.33,.4,.84-.09,1.01-.43,1.72-.26,.55-.24,1.09-.16,1.73,.12,.98-.1,1.26-1.06,1.36-3.08,.33-6.16,.81-9.25,.9-4.01,.12-7.68,1.49-11.48,2.42-.38,.09-.76,.16-1.13,.27-2.61,.74-3.58,1.97-3.62,4.65-.03,1.57-.03,3.13,0,4.7,.03,2.17,.11,4.35,.14,6.52,.03,1.74,.01,3.47,.02,5.21,0,.1,0,.21,.04,.3,.97,2.17,.25,4.35,.02,6.51-.09,.86-.4,1.69-.56,2.54-.23,1.23-.4,2.46-.62,3.83-.43-.54-.82-1.04-1.23-1.54-1.11-1.32-2.47-2.32-4.1-2.95-2.27-.88-4.31-.21-6.26,.97-1.94,1.17-3.04,3.12-4.47,4.76-1.34,1.53-2.72,3.03-4.21,4.39-.58,.53-1.5,.83-2.3,.93-2.89,.37-4.76,.88-7.45,2.02-2.49,1.06-4.04,2.57-4.04,5.41v3.24c0,1.45,.02,2.99,.78,4.33,.73,1.3,1.32,2.42,2.26,3.6,.76,.96,1.31,1.91,2.08,2.87,.03,.04-.07,.1-.04,.13,.73,.68,1.43,1.34,2.12,2.06,.67,.71,1.55,1.15,2.02,2.08,.43,.85,1.22,1.35,2.16,1.6,.18,.05,.47,.21,.47,.3-.09,1.1,.72,1.27,1.54,1.47-.09,.87,.41,1.26,1.17,1.42,.12,.03,.29,.03,.36,.11,.82,.92,1.62,1.86,2.44,2.78,1.48,1.68,2.99,3.33,4.42,5.04,1.24,1.49,2.99,2.33,4.44,3.55,.84,.71,1.98,.86,3.1,.53,.33-.1,.58-.2,.84,.21,.32,.5,.79,.2,1.16-.03,.97-.59,1.93-1.2,2.9-1.79,.28-.17,.58-.31,.99-.53,.25,.79,.49,1.48,.7,2.19,.26,.86,.46,1.74,.74,2.59,.21,.63,.06,.94-.6,1.11-2.15,.57-4.28,1.19-6.43,1.78-1.17,.32-1.18,.35-.88,1.53,.4,1.54,.79,3.08,1.16,4.63,.07,.28,.02,.6-.05,.89-.23,.93-.5,1.86-.75,2.79-.09,.33-.17,.66-.36,1.06-.48-.85-1.26-.87-2.02-.98-.72-.1-.99-.68-1.23-1.26-.84-2.02-1.65-4.04-2.54-6.04-1.32-2.98-2.71-5.94-4.05-8.91-.23-.51-.6-.7-1.12-.59-.6,.13-1.29,.2-1.4,.99-.08,.55-.24,.81-.89,.74-.76-.08-1.13,.72-.83,1.57,.21,.61,.37,1.26,.46,1.9,.04,.32-.11,.68-.19,1.02-.08,.35-.18,.69-.28,1.03-.11,.36-.18,.74-.37,1.06-.6,1.01-.52,1.71,.22,2.59,.22,.26,.29,.73,.24,1.08-.16,1.18-.39,2.34-.63,3.51-.06,.31-.27,.59-.36,.9-.53,1.79-.26,3.6-.13,5.41,.04,.5,0,1.02-.04,1.52-.1,1.46-.28,2.91-.32,4.37-.09,3.08-.07,6.16-.19,9.23-.16,4.18-.38,8.35-.63,12.52-.02,.42-.39,.83-.64,1.22-.3,.46-.66,.89-.98,1.34-.15,.21-.23,.46-.37,.67-.6,.85-1.05,.91-1.83,.23-.1-.08-.19-.18-.28-.27-.97-.95-1.75-.87-2.45,.32-.32,.56-.62,.85-1.33,.69-.61-.14-.8,.17-.56,.77,.18,.45,.42,.88,.66,1.3,.1,.17,.35,.42,.43,.39,.72-.29,1.12,.35,1.68,.52,.84,.24,.89,.48,.34,1.33-.52-.3-1.05-.61-1.57-.92l-.12,.15c.54,.37,1.07,.74,1.61,1.11,.51,.35,.53,.4,.3,1.19-.29-.32-.49-.65-.79-.86-.53-.38-1.08-.77-1.68-.99-.45-.16-.73,.12-.54,.66,.46,1.31,.9,2.62,1.35,3.94,.04,.12,.08,.26,.17,.34,1.42,1.35,2,3.14,2.69,4.88,.07,.18,.19,.35,.31,.56,1.43-.9,1.08-2.26,.95-3.77,.38,.32,.57,.46,.74,.62,.18,.18,.3,.44,.51,.58,.42,.27,.88,.48,1.32,.71,.14-.39,.28-.77,.47-1.29,.12,.3,.24,.55,.32,.82,.16,.52,.46,.62,.94,.36,.3-.16,.64-.28,.95-.42,.07,.05,.15,.1,.22,.16-.13,.41-.25,.83-.4,1.23-.54,1.44-.75,2.89-.18,4.36,.13,.35,.31,.72,.57,.98,.83,.83,.85,.93-.06,1.72-1.12,.97-1.11,2.38,.01,3.14,.29,.2,.52,.5,.82,.69,.51,.31,.42,.66,.19,1.1-1.15,2.3-2.27,4.61-3.42,6.91-.35,.71-.44,1.4-.11,2.15,.07,.17,0,.52-.13,.64-.74,.63-.79,1.36-.58,2.24,.07,.29-.08,.73-.29,.98-.64,.8-.63,1.53,.22,2.1,.41,.28,.93,.47,1.42,.54,.95,.13,1.4-.22,1.6-1.16,.1-.46,.29-.7,.74-.86,.94-.33,1.18-.78,1.1-1.76-.05-.55,.68-1.09,1.34-.93,.79,.2,1.38,.66,1.98,1.24,1.23,1.2,2.57,2.24,4.53,2.19,1.56-.04,2.81-.7,3.94-1.24,.51,.41,.88,.94,1.35,1.04,.53,.11,1.15-.16,1.79-.28-.02,.17-.02,.27-.05,.36-1.8,4.62-3.56,9.25-5.45,13.83-.66,1.59-.77,3.2-.85,4.86-.07,1.55-.28,3.08-.43,4.63,0,.1-.03,.21-.01,.31,.32,1.75-.02,3.49-.15,5.23-.1,1.35,.64,2.45,1.12,3.63,.04,.1,.18,.19,.29,.24,1,.53,1.3,1.39,1.19,2.46-.19,1.86-.52,3.73-.49,5.58,.02,1.33,.49,2.66,.83,3.97,.31,1.19-.12,1.97-1.36,2.3-.34,.09-.73,.21-.97,.44-.78,.74-1.49,1.55-2.24,2.32-.16,.16-.39,.28-.61,.33-.45,.11-.93,.11-1.37,.24-.83,.24-1.51,.66-1.75,1.57-.05,.18-.18,.34-.27,.52-.7-.52-1.34-1-2.1-1.56,0-.02,.05-.21,.08-.4,.17-.93-.33-1.8-1.23-2.03-.42-.11-.59-.23-.61-.69-.04-.87-.59-1.37-1.44-1.19-.7,.15-1.41,.5-2,.92-.6,.43-.54,1.3-.1,1.95,.14,.21,.22,.56,.15,.79-.37,1.14-.2,1.78,.83,2.41,.41,.25,.38,.52,.18,.83-.38,.57-.24,1.07,.02,1.65,1.1,2.41,2.15,4.84,3.2,7.26,.3,.69,.07,1.2-.72,1.71-1.38,.88-1.42,2.55-.12,3.56,.56,.43,1.12,.88,1.59,1.41,.82,.93,.51,2.97-.52,3.69-.4,.28-.89,.44-1.27,.74-.33,.27-.57,.65-.85,.99-.11,.13-.19,.3-.33,.41-1.19,.92-1.62,2.07-1.11,3.51,.68,1.93,1.34,3.87,2.06,5.79,.26,.71,.43,1.35,.26,2.15-.16,.73,.05,1.55,.12,2.33,.04,.41,.12,.81,.19,1.22,.13,.77-.09,1.3-.94,1.45-1.17,.2-1.68,.98-1.61,2.19,.06,1.04,.42,2.1,.84,3.07,.43,1,.52,.97-.48,1.48-1.18,.6-1.53,1.56-.92,2.72,.17,.32,.47,.63,.79,.8,.6,.33,.9,.75,.8,1.43-.14,.91,.22,1.53,1.03,1.94,.27,.14,.52,.34,.75,.54,.89,.79,1.82,1.19,3.02,.59,.3-.15,.86-.09,1.15,.11,3.45,2.31,6.84,4.72,10.32,6.99,.94,.62,1.27,1.36,1.26,2.34-.01,.76,.38,1.14,.93,1.62,1.94,1.71,4.15,2.21,6.67,2,1.41-.12,2.84,.09,4.26,.11,.93,.02,1.04-.11,1.05-1,.02-1.92-.2-1.76,1.83-1.74,4.22,.04,8.43,.1,12.65,.16,2.69,.04,5.38,.11,8.07,.15,3.54,.06,7.09,.1,10.63,.16,1.16,.02,2.32,.1,3.49,.13,.51,.01,.77,.19,.78,.72,0,.31,.11,.61,.1,.92-.02,1.13,.2,1.21,1.31,1.24,2.59,.08,5.17,.04,7.76,.03,.27,0,.55-.13,.79-.27,.85-.48,1.67-1.03,2.54-1.49,.53-.28,.79-.66,.69-1.24-.24-1.35,.42-2.05,1.56-2.71,3.87-2.23,7.68-4.56,11.5-6.88,.52-.31,.98-.44,1.5-.11,1.06,.67,2.03,.53,2.99-.23,.28-.22,.61-.39,.94-.54,1.04-.5,1.62-1.2,1.35-2.45-.06-.29,.32-.76,.61-1,.55-.45,1.09-.84,1.15-1.64,.07-.95-.21-1.66-1.11-2.08-.37-.17-.72-.4-1.1-.56-.48-.2-.52-.43-.26-.88,.68-1.24,1.04-2.54,.78-3.99-.15-.87-.6-1.29-1.46-1.44-.92-.16-.98-.35-.78-1.25,.17-.77,.24-1.56,.37-2.34,.04-.25,.16-.49,.17-.74,.03-.36,.11-.77-.03-1.07-.26-.54-.24-1-.03-1.54,.44-1.15,.79-2.33,1.2-3.5,.14-.38,.29-.77,.51-1.11,.66-1,.76-2.12,.42-3.17-.25-.76-.84-1.44-1.41-2.04-.52-.55-1.24-.91-1.84-1.39-.17-.13-.28-.36-.36-.56-.11-.26-.12-.56-.26-.8-.68-1.2-.34-2.23,.52-3.16,.44-.48,.9-.94,1.4-1.36,.81-.69,.78-2.29-.09-3.12-.11-.11-.25-.19-.37-.29-1.02-.84-1.04-.96-.5-2.13,1.13-2.45,2.29-4.89,3.37-7.36,.19-.44,.07-1.02,.12-1.53,.03-.26,.05-.56,.19-.75,.48-.64,.7-1.29,.44-2.09-.06-.2,.09-.52,.24-.71,.53-.69,.5-1.52-.17-2.05-.42-.33-.88-.64-1.38-.84-.97-.39-1.8,.11-2.03,1.12-.05,.23-.17,.55-.35,.62-1.06,.43-1.57,1.14-1.28,2.36-1.26-.29-1.45,.8-2.19,1.35-.15-.29-.32-.56-.43-.85-.23-.63-.61-1.02-1.33-1.1-.6-.06-1.19-.27-1.78-.42-.09-.02-.2-.07-.26-.14-.57-.67-1.12-1.35-1.71-2.01-.22-.24-.5-.44-.78-.62-.72-.48-1.48-.9-2.17-1.42-.2-.15-.39-.61-.3-.81,.54-1.28,.51-2.57,.39-3.93-.06-.6,.39-1.25,.57-1.88,.22-.78,.41-1.57,.6-2.36,.04-.17-.01-.4,.08-.53,.91-1.28,.43-2.79,.71-4.18,.36-1.79,0-3.54-.22-5.32-.14-1.17,.31-2.4,.34-3.61,.02-.81-.08-1.69-.4-2.42-.38-.87-.77-1.65-.52-2.63,.38-1.49,.5-2.99-.15-4.46-.08-.17-.04-.4-.03-.6,.07-1.36,.17-2.71,.2-4.07,.02-.99-.35-1.38-1.35-1.36-.82,.02-1.15-.33-1.28-1.08-.24-1.36-.57-2.71-.82-4.08-.26-1.37,1.06-2.49,2.37-2.03,.82,.29,1.44-.19,2.09-.54,.22-.12,.41-.4,.63-.42,1.29-.13,1.93-1.19,2.84-1.86,.1-.07,.2-.18,.31-.21,.83-.17,1.65-.39,2.49-.46,.45-.04,.92,.2,1.36,.31-.12,1.56,.16,1.97,1.52,2.53,.19,.08,.39,.38,.41,.6,.16,1.46,.69,1.83,2.11,1.42,.34-.1,.7-.21,1.01-.39,.92-.54,1.08-1.6,.32-2.34-.37-.35-.4-.61-.2-1.06,.39-.88,.16-1.45-.57-2.1-.21-.19-.42-.69-.31-.86,.37-.62,.14-1.13-.11-1.67-1.05-2.26-2.09-4.53-3.12-6.79-.62-1.37-.62-.92,.46-2.22,.21-.26,.49-.47,.68-.74,.62-.88,.47-1.84-.35-2.53-.8-.68-.81-.71,.07-1.16,.9-.47,1-1.34,1.09-2.17,.15-1.34,.36-2.71-.32-4-.11-.21-.04-.51-.06-.96,.41,.28,.65,.46,.89,.62,.65,.42,.88,.31,1.08-.42,.11-.39,.3-.77,.45-1.15l.22,.05c0,.21-.03,.43,0,.63,.05,.26,.11,.69,.26,.73,.24,.07,.63-.04,.82-.21,.55-.5,1.03-1.08,1.54-1.62,.12-.12,.25-.23,.55-.27-.08,.35-.22,.7-.24,1.06-.05,.78-.1,1.57-.02,2.34,.03,.24,.49,.61,.73,.6,.25-.01,.61-.38,.71-.66,.57-1.74,1.26-3.38,2.54-4.77,.48-.52,.73-1.29,.97-1.98,.26-.77,.38-1.6,.58-2.4,.27-1.11,.27-1.11-.83-1.55,.16-.31,.36-.61,.46-.93,.21-.67,.41-1.35,.55-2.04,.08-.42-.2-.6-.63-.7-.35-.08-.76-.31-.94-.6-.65-1.02-1.89-1.19-2.74-.3-.13,.13-.26,.25-.37,.39-.43,.56-.83,.65-1.49,.23-1.07-.7-2.25-.72-3.37-.02-.7,.44-1.38,.9-2.04,1.4-.71,.54-1.45,.72-2.32,.46-.92-.28-.95-.21-1.12,.7-.04,.21-.45,.51-.68,.49-1.31-.09-2.63-.22-3.92-.42-1.05-.16-1.03-.22-1.36,.76-.04,.11-.21,.28-.3,.26-.15-.02-.35-.13-.42-.26-.51-.94-1.02-1.89-1.49-2.86-.11-.22-.11-.5-.1-.75,.03-1.92,.09-3.84,.1-5.75,0-1.43-.06-2.87-.06-4.3,0-.79,.1-1.58,.1-2.38,0-6.96,0-13.92,.01-20.88,0-.93-.16-1.76-.69-2.55-.21-.31-.16-.78-.25-1.17-.28-1.11-.48-2.24-.89-3.3-.26-.69-.94-1.08-1.75-1.05-.64,.03-.81-.29-.7-.87,.42-2.17,.81-4.34,1.23-6.51,.14-.76,.55-1.27,1.33-1.55,.52-.18,1.02-.53,1.41-.91,.36-.36,.68-.51,1.15-.32,.14,.06,.3,.09,.45,.13,1.98,.52,3.01,.15,4.28-1.48,.16-.2,.51-.33,.78-.35,.92-.08,1.07-.23,1.24-1.12,.06-.31,.34-.74,.61-.83,.49-.15,.69-.43,.74-.86,.06-.63,.45-1,.84-1.46,.56-.68,1.12-1.57,1.19-2.41,.08-1,.75-1.6,1.06-2.42,.49-1.31,1.08-2.6,1.76-3.83,.46-.82,1.17-1.49,1.73-2.25,.22-.3,.39-.65,.48-1.01,.11-.43,.21-.79,.76-.81,.16,0,.36-.11,.45-.24,.53-.78,1.01-1.6,1.56-2.36,.19-.26,.55-.53,.86-.56,.68-.07,1.09-.42,.88-1.06-.21-.62-.09-1.14,.32-1.57,2.07-2.12,2.86-4.97,4.33-7.43,.18-.29,.23-.69,.25-1.04,.03-.52,.16-.9,.67-1.19,.23-.13,.22-.65,.33-.99,.1-.34,.2-.68,.33-1.01,.05-.14,.23-.24,.25-.37,.36-2.35,.53-4.72-1-6.76Zm-95.33,13.73c.06-.11,.12-.21,.19-.32,.3,.11,.62,.75,.56,.72-.26-.08-.5-.26-.74-.4Zm-4.41,78.61c.02,1.01-.27,1.67-1.29,2.09-1.42,.58-1.61,1.23-1.05,2.63,.26,.64,.52,1.28,.84,2.08-.68-.26-1.24-.46-1.78-.67,.24-1.85,.25-1.81-1.55-1.5-1.09,.19-2.21,.24-3.31,.34-.43,.04-.74-.12-.66-.61,.1-.64-.26-.75-.77-.74-.18,0-.39-.04-.54,.03-1.06,.47-1.88,.04-2.55-.71-.68-.76-1.54-1.52-1.82-2.43-.35-1.13-.32-2.43-.23-3.64,.29-3.65,.71-7.3,1.04-10.95,.29-3.11,.52-6.23,.78-9.34,0-.1,.04-.19,.11-.51,.21,.38,.36,.59,.45,.82,.46,1.18,1.54,1.98,2.63,1.91,1.03-.06,2.06-1.04,2.36-2.26,.39-1.58,.26-3.16-.13-4.72-.33-1.29-.78-2.56-1.03-3.87-.15-.75-.1-1.57,.04-2.33,.14-.78,.23-1.48-.08-2.25-.28-.7-.29-1.43,.18-2.13,.51-.76,.34-1.61-.37-2.38q-.45-.49-.13-1.27c.36,.54,.7,.92,.89,1.38,.81,1.97,1.55,3.97,2.35,5.95,1.33,3.28,2.68,6.55,4.02,9.83,.19,.48,.43,.94,.55,1.44,.09,.4,.14,.86,.03,1.24-.49,1.67-1.16,3.3-1.52,5-.29,1.39-.39,2.9,.4,4.2,.39,.65,1,1.25,1.64,1.65,.48,.29,.66,.55,.64,1.06-.06,1.43-.13,2.87-.14,4.3-.02,2.13-.03,4.26,0,6.38Zm6.71,145.23c-.46,.18-.84,.54-1.28,.76-.25,.12-.64,.26-.82,.15-1.92-1.18-3.81-2.42-5.91-3.77,1.31-.55,2.39-1.01,3.48-1.46,1.38-.57,2.77-1.12,4.14-1.72,.57-.25,.84-.15,.97,.47,.25,1.15,.57,2.29,.85,3.43,.23,.93-.33,1.71-1.42,2.15Zm5.14-190.19c-.66-2.45-1.35-4.9-2.06-7.34-.19-.63,.16-.92,.57-1.2,1.28-.87,2.57-1.72,3.86-2.57,1.17-.76,2.36-1.49,3.5-2.28,.27-.19,.53-.58,.57-.9,.28-2.33,.45-4.65-.43-6.92-.1-.26-.16-.55-.18-.83-.02-.29,.03-.58,.05-.87,.29,.03,.58,.08,.86,.1,.33,.03,.75,.18,.96,.04,1.05-.7,2.12-.35,3.13-.06,.88,.25,1.64,.09,2.38-.27,1.19-.58,2.06,.18,2.07,1.51,0,1.72,0,3.42,0,5.42h0c0,1-.02,2.88,.01,4.44,.02,.73-.13,1.24-.65,1.77-.48,.48-.6,.95-.41,1.62,.27,.93,.13,1.06-.82,1.33-1.48,.41-1.48,.39-2.4-.91-.57-.81-1.46-.92-2.16-.19-.74,.78-1.46,1.6-2.11,2.46-.22,.3-.27,.76-.29,1.16-.07,1.02-.09,2.05-.14,3.07-.02,.52-.34,.61-.81,.71-1.51,.33-3.01,.69-4.47,1.16-.61,.2-.87,.22-1.05-.44Zm44.18,187.36c-.12,2.89-.21,5.79-.29,8.68-.03,1.2-.02,1.22-1.21,1.21-5.82-.05-11.63-.1-17.45-.17-1.57-.02-3.15-.13-4.72-.2,0-.03,0-.06,0-.1-4.01,0-8.01,.01-12.02,0-1.32,0-2.63-.11-3.95-.14-.47-.01-.63-.18-.59-.66,.13-1.45,.36-2.92,.31-4.37-.08-2.48-.33-4.96-.51-7.43-.01-.15-.05-.3-.06-.46-.14-1.85-.12-1.76,1.68-2.06,.96-.16,1.45,.13,2.1,.76,.73,.7,1.4,1.39,1.85,2.3,.07,.13,.17,.3,.29,.35,1.44,.55,1.95,2.13,3.22,2.89,.33,.2,.47,.72,.66,1.11,.99,1.98,2.53,2.99,4.82,2.99,4.01-.01,8.01,.09,12.02,.13,1.68,.02,2.69-.69,3.37-2.21,.16-.35,.54-.61,.83-.9,.52-.52,1.03-1.06,1.58-1.55,.34-.31,.71-.66,1.14-.78,.64-.19,1.09-.48,1.41-1.08,.22-.41,.62-.72,.94-1.07,.33-.36,.69-.68,.98-1.07,.25-.33,.41-.71,.61-1.07,.81-1.45,1.36-1.46,2.91-.6,.28,.16,.37,.85,.36,1.3-.04,1.41-.22,2.81-.27,4.22Zm.65-188.46c-.97,.09-1.08,.04-1.09-.94,0-.69,0-1.39,0-2.08-.01-1.72-1.24-3.19-2.96-3.54h0c-.97-.4-1.33-.31-1.93,.47-.5,.66-1.8,1.05-2.51,.63-.28-.17-.48-.7-.49-1.07-.04-3.62-.02-7.23-.04-10.85,0-1.46-.07-2.92-.08-4.38,0-.24,.13-.48,.24-.84,.99,1.21,2.1,1.14,3.27,.77,.12-.04,.31-.09,.37-.03,.55,.52,1.25,.15,1.86,.3,.35,.08,.8-.2,1.32-.36,.51,.82,1.44,.24,2.25,.35,.98,.13,1.03,.12,.82,1.07-.66,2.97-.48,5.96-.22,8.94,.06,.69,.65,1.34,.99,2.01,.03,.06,.14,.1,.16,.16,.52,1.45,1.91,1.56,3.1,1.99,.22,.08,.43,.18,.66,.23,.69,.16,.89,.53,.71,1.23-.25,.99,.32,1.75,.82,2.55,.25,.4,.49,.96,.41,1.38-.28,1.35-.71,2.67-1.09,4.06-.14-.06-.25-.08-.31-.14-1.72-1.82-3.92-2.14-6.27-1.91Zm16.8,189.28s.06,.08,.18,.25c-1.62,.94-3.2,1.86-4.78,2.77-.54,.31-1.07,.62-1.63,.9-.16,.08-.44,.15-.56,.07-.67-.41-1.3-.9-1.97-1.32-.73-.46-.97-1.16-.87-1.92,.19-1.34,.49-2.67,.75-4,.1-.49,.38-.63,.85-.41,2.68,1.22,5.36,2.44,8.03,3.66Z" style="opacity: .65;"/>
  </g>
</svg>