<?xml version="1.0" encoding="UTF-8"?>
<svg id="b" data-name="圖層 2" xmlns="http://www.w3.org/2000/svg" width="115.69" height="284.52" xmlns:xlink="http://www.w3.org/1999/xlink" viewBox="0 0 115.69 284.52">
  <defs>
    <style>
      .e {
        fill: #e7bb4c;
      }

      .f {
        clip-path: url(#d);
      }
    </style>
    <clipPath id="d">
      <path class="e" d="M0,139.78v-.71c.27-.05,.57-.2,.82-.14,1.11,.26,1.1,.28,1.65-.75,.44-.83,1.3-.94,1.92-.26,.21,.23,.41,.47,.61,.69q.73,.81,1.63,.26c.16-.1,.34-.24,.51-.24,.96,.02,1.4-.63,1.86-1.32,.64-.97,1.86-1.49,2.1-2.76,.01-.06,.09-.11,.12-.17,.12-.31,.34-.61,.34-.92,0-1.35-.07-2.7-.08-4.06-.02-2.15,0-4.3,0-6.45-.02-3.01-.06-6.03-.08-9.04,0-1.07,.03-2.13,.03-3.2,0-1.43,0-2.85-.02-4.28,0-.43-.13-.74-.63-.88-.72-.21-1.43-.49-2.12-.82-.37-.18-.68-.5-1.14-.86,1.15-.28,1.87,.22,2.61,.61,.53,.28,.98,.22,1.28-.26,.15-.24,.16-.62,.11-.91-.06-.33-.26-.65-.41-.98,.3-.19,.62-.38,.96-.59,.1,.23,.29,.49,.32,.76,.07,.61,.06,1.22,.08,1.83,.09,0,.18,.01,.27,.01,.41-1.23,.85-2.45,1.21-3.7,.1-.35,.02-.78-.08-1.15-.23-.85-1.03-1.6-.38-2.58,.03-.04,0-.15-.03-.19-.62-.7-.85-1.7-1.76-2.17-.78-.4-.86-.71-.54-1.54,.24-.62,.02-1.55-.46-1.99-.6-.55-.59-1.85,.02-2.37,.76-.65,.76-1.36,.19-2.19-.26-.38-.25-.95-.3-1.44,0-.1,.3-.36,.42-.33,.49,.1,1.07,.12,1.05-.45-.02-.56,.42-.72,.55-1.11,.02-.05-.04-.14-.08-.19-.74-.89-1.46-1.79-2.24-2.65-.86-.94-1.82-1.79-2.64-2.75-.82-.97-1.56-2.01-2.29-3.06-.77-1.1-1.55-2.21-2.21-3.37-.67-1.17-1.28-2.38-1.78-3.63-.39-.98-.75-2.05-.79-3.09-.12-2.6,.8-4.78,3.08-6.25,1.36-.88,2.9-1.18,4.45-1.48,1.07-.2,2.15-.31,3.23-.45,.11-.01,.22,.06,.34,.07,.18,0,.36,0,.55-.02,.24-.03,.49-.12,.73-.09,1.46,.18,2.75-.23,3.78-1.24,1.59-1.57,2.99-3.36,4.68-4.82,1.79-1.54,3.76-2.96,6.37-2.82,.13-.42,.22-.87,.42-1.26,.56-1.12,1.21-2.2,1.75-3.33,.43-.89,.82-1.81,.65-2.84-.16-.97-.38-1.93-.54-2.89-.14-.9-.29-1.82-.32-2.73-.04-1.32,.07-2.65,.05-3.97-.04-1.95-.24-3.9-.19-5.84,.09-3.29,.31-6.57,.5-9.86,.04-.66,.17-1.32,.29-1.97,.37-2.06,1.28-3.78,3.33-4.53,1.93-.71,3.75-1.8,5.95-1.73,1.38,.04,2.77-.27,4.16-.42,.58-.06,1.21,.05,1.72-.16,1.83-.74,3.72-.82,5.65-.75,.8,.03,1.61-.1,2.5-.17-.62-1.02-.62-1.98,0-2.5,.57-.47,.69-.99,.46-1.64-.14-.38-.03-.62,.38-.65,.52-.03,1.04-.05,1.55-.02,.41,.03,.53,.24,.4,.69-.11,.36-.11,.81,.03,1.15,.3,.74,.72,1.43,1.15,2.27,.66,.09,1.55,.2,2.44,.33,2.01,.28,4.02,.57,6.03,.84,.74,.1,1.48,.17,2.22,.2,.61,.03,1.23-.09,1.82,0,.74,.11,1.46,.39,2.2,.55,2.32,.51,4.64,.99,6.63,2.4,1.25,.88,2.13,1.94,2.07,3.57-.01,.26,.04,.52,.07,.78,.26,1.98,.62,3.95,.77,5.93,.16,2.22,.12,4.45,.19,6.68,.01,.37,.18,.74,.21,1.11,.05,.77,.07,1.55,.07,2.33,0,.3-.12,.59-.11,.88,.02,.92,.12,1.84,.1,2.76-.01,.91-.14,1.82-.2,2.73-.03,.51,0,1.02-.05,1.52-.04,.4-.29,.84-.21,1.2,.23,.98,.55,1.94,.93,2.88,.71,1.74,1,3.55,1.11,5.4,.03,.49-.2,.8-.72,.89-.2,.03-.4,.13-.57,.25-.13,.09-.2,.25-.29,.39,.06,.04,.12,.08,.18,.12,.15-.07,.29-.18,.45-.2,1.47-.2,2.95-.57,4.41-.5,1.06,.06,2.16,.58,3.1,1.14,1.39,.83,2.68,1.85,3.97,2.84,.58,.44,1.01,1.07,1.6,1.49,.41,.29,.87,.48,1.13,.96,.2,.37,.46,.66,.97,.37,.09-.05,.37,.13,.5,.26,.28,.27,2.44,.66,2.76,.45,.04-.02,.06-.07,.09-.11,.32-.37,.69-.27,1.02-.06,.53,.34,1.03,.5,1.59,.03,.12-.1,.43,0,.64,.04,.15,.03,.27,.22,.4,.23,.96,.06,1.92,.06,2.88,.14,1.31,.11,2.64,.23,3.68,1.14,1,.88,1.96,1.83,2.9,2.78,.17,.17,.16,.52,.26,.78,.13,.37,.18,.85,.43,1.08,.42,.37,.31,.75,.27,1.17-.03,.31-.16,.64-.09,.93,.13,.6,.1,1.06-.36,1.55-.21,.22-.24,.72-.19,1.07,.07,.45-.05,.68-.4,.95-.24,.19-.54,.68-.45,.85,.3,.57-.05,.86-.39,1.06-.54,.32-.76,.7-.68,1.33,.02,.16-.17,.36-.3,.51-.13,.16-.36,.24-.47,.41-.61,.94-1.16,1.92-1.78,2.85-.42,.63-.96,1.17-1.36,1.81-.41,.66-1.36,1.02-1.17,2.04,.02,.09-.28,.25-.45,.35-.18,.11-.42,.15-.54,.3-.86,1.07-1.68,2.16-2.53,3.24-.3,.38-.64,.74-.94,1.12-.12,.15-.28,.41-.23,.54,.21,.56-.11,.83-.49,1.09-.42,.29-.73,.59-.61,1.19,.04,.18-.16,.48-.33,.62-.33,.28-.85,.41-1.08,.74-.81,1.19-1.51,2.45-2.29,3.66-.77,1.2-1.34,2.54-2.44,3.52-.26,.23-.57,.56-.58,.85-.03,.49-.33,.55-.64,.71-.27,.14-.68,.35-.71,.56-.07,.63-.48,.59-.9,.67-.35,.07-.71,.19-.99,.39-.49,.35-.92,.73-1.57,.31-.2-.13-.57-.19-.75-.09-.62,.35-1.07,.03-1.57-.24-.34-.18-.78-.43-1.09-.34-.67,.18-1.29,.55-1.91,.87-.16,.08-.34,.23-.39,.39-.36,1.11-.69,2.24-1.05,3.43,.4,.07,.63,.15,.86,.14,1.17-.02,1.94,.58,2.37,1.61,.25,.58,.41,1.21,.58,1.82,.23,.86,.44,1.73,.65,2.59,.07,.28,.15,.56,.16,.84,.08,1.42,.21,2.84,.2,4.26,0,3.03-.08,6.07-.14,9.1-.06,3.66-.13,7.32-.19,10.97-.03,2.24-.01,4.47-.07,6.7-.03,1.09,.26,1.6,1.32,1.78,.68,.12,1.36,.15,2.04,.23,.85,.1,1.69,.23,2.54,.3,.55,.05,1.11,0,1.71,0,0-.26,.01-.44,0-.63-.06-.86-.02-.92,.83-.66,1.15,.35,2.19,.42,2.89-.8,.07-.12,.2-.2,.3-.3,1.38-1.27,2.64-1.37,4.16-.34,.13,.09,.26,.19,.45,.32,.19-.21,.37-.39,.52-.59,1-1.28,1.82-1.28,2.71,.03,.24,.35,.46,.44,.82,.24,.43-.24,.8-.05,.96,.31,.17,.38,.3,.88,.19,1.25-.22,.73-.62,1.4-.95,2.13,.76,.02,.74,.45,.55,1.06-.24,.77-.35,1.59-.61,2.36-.18,.56-.47,1.09-.79,1.59-.34,.53-.85,.95-1.15,1.5-.54,.99-.95,2.05-1.46,3.06-.31,.61-.66,.67-1.03,.1-.38-.59-.57-1.29-.84-1.95-.08,.1-.25,.28-.39,.49-.32,.47-.66,.74-1.21,.27-.11-.09-.33-.04-.51-.05-.24-.02-.49,.02-.71-.05-.28-.09-.53-.26-.79-.4-.08,.03-.16,.07-.23,.11,.11,.67,.14,1.38,.36,2.02,.47,1.38,.05,3.27-1.03,4.17-.49,.41-.45,.73,.13,1.06,.92,.52,1.16,1.85,.43,2.62-.44,.46-.95,.85-1.41,1.27,.51,1.15,.99,2.25,1.48,3.36,.5,1.13,1.01,2.25,1.52,3.37,.39,.85,.9,1.68-.08,2.47,1.33,.84,1.43,1.17,.93,2.85,.77,.76,.94,1.34,.56,1.98-.43,.73-1.54,1.16-2.37,.92-.64-.19-.97-.82-.93-1.77-1.46-.42-1.87-1.09-1.51-2.47-.1,0-.2-.05-.28-.02-.73,.27-1.45,.55-2.17,.84-.1,.04-.19,.12-.27,.2-.75,.74-1.16,1.82-2.23,2.25-.1,.04-.15,.18-.23,.27-.59,.72-1.78,.99-2.67,.74-.87-.25-1.84-.06-2.65-.61-.03-.02-.09,0-.14,0-.94,.08-1.87,.16-2.96,.25,.14,.31,.22,.89,.54,1.1,.38,.24,.62,.48,.7,.89,.15,.76,.31,1.52,.42,2.29,.06,.38,0,.78,0,1.16,.37,0,.64-.05,.89,.02,.19,.05,.46,.23,.49,.39,.33,1.6,.65,3.2,.9,4.82,.08,.54-.07,1.1-.1,1.66-.02,.23-.03,.47,0,.7,.2,1.16,.7,2.3,.06,3.48-.03,.06,.02,.17,.06,.24,.26,.46,.5,.93,.79,1.37,.57,.88,.41,1.95-.38,2.65-.13,.11-.22,.43-.15,.57,.51,1.08,.67,2.22,.66,3.39,0,.47-.08,1.02-.33,1.4-.39,.58-.32,1.12-.28,1.74,.07,.94,.11,1.89-.01,2.82-.15,1.08-.53,2.13-.74,3.2-.29,1.5-.45,3.03-.76,4.52-.23,1.12-.27,1.15,.76,1.66,.04,.02,.08,.06,.13,.06,1.41,.26,1.54,1.83,2.57,2.5,.09,.06,.05,.3,.14,.39,.17,.17,.36,.39,.58,.43,1.24,.28,2.49,.51,2.98,1.94,.02,.05,.1,.07,.16,.11l-.04-.2c.61-.18,1.23-.36,1.84-.54-.38-1.39-.16-1.79,1.46-2.49-.15-1.53,1.08-1.96,2.19-1.38,.39,.2,.76,.49,1.05,.82,.53,.61,.47,1.15-.05,1.78-.12,.15-.18,.39-.18,.59,0,.48,.19,1.02,.05,1.44-.15,.43-.61,.75-.9,1.08,.1,.3,.39,.73,.28,.99-.69,1.61-1.49,3.18-2.23,4.77-.49,1.04-.96,2.09-1.42,3.09,.47,.4,.85,.79,1.29,1.08,1.07,.73,1.09,2.22,.05,3-.45,.33-.86,.74-1.24,1.16-.7,.78-.61,1.69-.33,2.61,.04,.14,.23,.3,.38,.35,1.91,.6,2.95,2.13,4.01,3.66,.06,.09,.1,.22,.1,.33,0,.72,.2,1.46-.28,2.12-.23,.32-.42,.68-.56,1.04-.35,.88-.64,1.79-.98,2.67-.49,1.27-1.05,2.52-.55,3.93,.08,.22-.02,.51-.06,.77-.09,.55-.19,1.11-.3,1.66-.09,.44,.01,.66,.49,.82,1.2,.41,1.69,1.24,1.47,2.41-.1,.53-.32,1.04-.54,1.53-.18,.43-.44,.82-.67,1.26,.45,.25,.85,.45,1.24,.68,1.12,.65,1.2,2.14,.17,2.95-.34,.26-.68,.52-.98,.82-.15,.15-.33,.4-.3,.57,.17,.89-.36,1.42-.91,1.95-.41,.39-.84,.78-1.22,1.2-.37,.42-.74,.54-1.24,.23-.5-.31-.91-.23-1.39,.17-3.53,2.88-7.1,5.73-10.66,8.57-.44,.35-.69,.74-.58,1.32,.1,.53-.07,.91-.53,1.28-1.01,.82-1.94,1.73-2.9,2.61h-3.14c-.88-.03-1.77-.19-2.63-.07-1.46,.21-2.24-.44-2.64-1.73-.18-.58-.53-.72-1.11-.72-10.3,.07-20.61,.13-30.91,.18-.25,0-.51,.02-.8,.04-.04,.72-.07,1.39-.11,2.16-2.15,0-4.22-.05-6.28,.02-1.19,.04-2.24-.08-3.14-.95-.4-.39-.89-.73-1.4-.97-.76-.37-.98-.95-.92-1.73,.05-.59-.1-1.05-.65-1.45-3.39-2.49-6.78-4.98-10.09-7.57-.83-.65-1.61-.87-2.6-.75-.7,.09-3.09-1.91-3.2-2.6,0-.02-.01-.05-.01-.07,.18-1.07-.41-1.66-1.29-2.07-.04-.02-.09-.03-.13-.06-.91-.66-.79-2.05,.2-2.54,.36-.18,.7-.39,1.07-.57,.52-.25,.63-.53,.27-1.05-.4-.59-.73-1.24-1-1.9-.37-.89,.22-1.93,1.17-2.23,.37-.11,.97-.24,1.03-.47,.16-.63,.33-1.44,.06-1.95-.4-.78-.3-1.52-.28-2.28,.02-.8-.08-1.54-.45-2.27-.34-.65-.6-1.35-.86-2.04-.33-.88-.61-1.77-.94-2.65-.14-.38-.49-.74-.47-1.09,.02-.38,.31-.79,.58-1.1,.77-.88,1.63-1.67,2.37-2.57,.48-.58,1.03-1.26,1.14-1.96,.23-1.39-.56-2.49-1.62-3.32-.8-.63-1.04-1.78-.35-2.49,.47-.48,1.02-.89,1.55-1.35-.07-.2-.11-.39-.19-.55-1.07-2.2-2.13-4.41-3.22-6.59-.21-.42-.34-.73,.1-1.11,.24-.21,.56-.63-.09-.87-.78-.29-1.12-.88-.94-1.74,.13-.58,.42-1.16-.4-1.46-.04-.02-.06-.12-.07-.19-.21-1.2,.32-1.92,1.73-2.31,.96-.26,1.54,.33,1.67,1.6,1.41,.22,1.91,1.14,1.76,2.24,.61,.48,1.07,.84,1.53,1.2-.17-.67,.18-1.21,.7-1.48,.69-.37,1.49-.54,2.23-.83,.23-.09,.47-.24,.62-.43,.72-.91,1.41-1.84,2.12-2.75,.13-.16,.35-.24,.53-.35,1.22-.69,1.33-1,.95-2.38-.54-1.92-.4-3.83,.02-5.76,.16-.74,.3-1.67,0-2.28-.4-.78-.76-1.81-1.93-1.97-.23-.03-.63-.49-.59-.66,.17-.66,.14-1.26,0-1.93-.16-.77-.1-1.59-.12-2.38-.03-1-.09-2-.06-3,.03-1.01,.17-2.02,.26-3.04,.06-.73,.1-1.47,.17-2.2,.17-1.76,.19-3.56,.56-5.28,.61-2.88,2.09-5.43,3.49-7.99,.18-.34,.39-.66,.65-1.09-.99-.04-1.83-.53-2.62,.14-.08,.07-.29,.04-.41-.01-.65-.25-1.49-.23-1.72-1.15-.03-.13-.21-.26-.36-.33-.61-.29-1.34-.43-1.43-1.29,0-.05-.18-.06-.24-.12-.27-.26-.53-.54-.8-.81-.13-.12-.25-.28-.4-.34-.51-.19-1.04-.35-1.56-.48-.12-.03-.3,.05-.42,.13-.3,.19-.59,.41-.9,.63,.26,1.17-.16,1.78-1.54,2.14-.04,1.39-.8,2.01-1.97,1.58-.37-.13-.72-.36-1.03-.61-.74-.6-.75-1.21-.02-1.81,.32-.27,.37-.46,.16-.83-.38-.7-.18-1.38,.48-1.85,.17-.12,.33-.24,.49-.36-.07-.01-.15-.03-.22-.04-.02-.5-.23-1.08-.05-1.5,1-2.34,2.08-4.63,3.16-6.94,.58-1.25,.47-1.59-.73-2.29-.18-.11-.33-.34-.4-.55-.36-1.08-.12-1.61,.9-2.23,.14-.09,.23-.26,.34-.4-.15-.09-.28-.22-.44-.27-1.45-.44-2.12-2.01-1.6-3.43,.29-.78,.34-1.66,.42-2.5,.03-.26-.17-.54-.3-.92-.28,.32-.44,.51-.85,.99-.27-.52-.5-.98-.79-1.54-.32,.64-.5,.98-.73,1.43-.76-.68-1.43-1.27-2.1-1.85,.4,1.16,.44,2.21-.4,3.1-1.05-1.68-2.09-3.3-3.08-4.96-.22-.37-.27-.83-.39-1.26-.07-.26-.08-.54-.18-.78-.32-.8-.68-1.6-1.06-2.49,.49-.04,.75-.06,.98-.08-.26-.58-.5-1.11-.73-1.65-.21-.49-.4-.98-.6-1.47m21.88,1.15c0-.84,0-1.67,0-2.5-.02-3.37-.05-6.74-.08-10.11-.03-3.45-.06-6.9-.08-10.35,0-.33,.07-.69-.03-.98-.65-1.76-.61-3.49-.11-5.3,.23-.85,.2-1.87-.05-2.72-.42-1.47-1.13-2.86-1.67-4.3-.93-2.44-1.82-4.89-2.73-7.34-.36-.97-.72-1.95-1.11-3.01-.3,.4-.51,.65-.71,.92-.28,.4-.16,.83,.18,1.03,1.17,.71,1.06,1.69,.8,2.81-.12,.53-.08,1.19,.14,1.7,.5,1.18,1.14,2.29,1.72,3.44,.67,1.33,1.11,2.72,1.03,4.24-.11,1.79-1.45,3.12-3.28,3.21-1.6,.08-3.03-1.12-3.33-2.78-.04-.22-.11-.43-.17-.64-.19,.35-.23,.69-.23,1.03,0,3.59,.01,7.17,.01,10.76,0,4.49-.03,8.98,.04,13.47,.01,.59,.5,1.22,.89,1.74,.38,.5,.92,.88,1.37,1.34,.82,.84,1.36,1.79,1.35,3.02-.01,.78,.08,1.55,.14,2.57,1.01-.33,1.87-.62,2.74-.88,.18-.05,.39,0,.58,0-.02,.2,.02,.46-.08,.59-.31,.39-.64,.76-1.02,1.07-.51,.41-1.08,.75-1.76,1.22,.3,.11,.56,.29,.66,.22,.43-.28,.81-.63,1.2-.96,.35-.3,.68-.62,1.04-.92,.2-.16,.49-.25,.62-.45,.47-.72,1.21-.91,1.95-1.16m50.94,134.33c.05-.3,.1-.48,.1-.67,0-.55,0-1.09-.03-1.64-.17-3.46-.07-6.9,.42-10.33,.09-.61,.05-.97-.48-1.35-.84-.61-2.02-.28-2.25,.75-.17,.75-.61,1.25-1.23,1.67-.18,.12-.36,.37-.4,.58-.12,.81-.66,1.14-1.36,1.38-.29,.1-.63,.32-.77,.58-.42,.76-.95,1.34-1.77,1.68-.23,.1-.46,.39-.53,.64-.33,1.31-2.52,3.03-3.98,2.99-3.56-.11-7.14-.02-10.7,0-1.42,0-2.61-.57-3.27-1.8-.59-1.09-1.2-2.02-2.29-2.7-.69-.42-.96-1.44-1.96-1.53-.04,0-.09-.05-.11-.09-.54-1.04-1.46-1.76-2.24-2.59-.08-.08-.13-.2-.16-.32-.37-1.14-1.13-1.76-2.42-1.74,.27,1.11-.65,1.12-1.4,1.36,1.26,4.4,.73,8.89,.83,13.42,12.05-.1,24-.19,36.02-.29m6.18-179.19s.08-.1,.12-.14c-.05-.19-.07-.38-.16-.55-.3-.6-.61-1.2-.95-1.79-.07-.12-.23-.21-.37-.26-.86-.31-1.73-.62-2.62-.93-.09-1.06-.33-2.07-.66-3.11-.39-1.21-1.03-2.57-.38-3.96,.06-.14,.08-.4,0-.48-.59-.56-.15-1.03,.1-1.52,.07-.14,.2-.36,.15-.45-.46-.79,.08-1.38,.35-2.03,.05-.11,.12-.27,.07-.34-.33-.5,.08-.8,.27-1.18,.15-.3,.38-.8,.25-.96-.38-.48-.07-.67,.16-1.01,.21-.31,.42-.97,.28-1.1-.59-.54-.14-.86,.1-1.27,.1-.17,.16-.58,.08-.62-.62-.38-.38-.77-.07-1.17,.17-.22,.36-.42,.47-.55-.2-.45-.38-.84-.55-1.22-.67,1.09-1.12,.95-1.68-.11-.3,.45-.63,.44-.9-.02-.15,.18-.26,.32-.39,.48-.24-.37-.45-.69-.69-1.05-.78,.76-.89-.19-1.37-.62,.1,.45,.2,.74,.22,1.03,.05,.52-.16,.91-.73,.93-.39,.02-.82,0-1.18-.13-.62-.23-1.21-.57-1.86-.9-.03,.23-.08,.56-.13,.94-.91,.26-1.85,.53-2.83,.81,0,3.82,0,7.72,0,11.62,0,.16,.1,.31,.13,.47,.08,.44,.21,.89,.21,1.33,0,.4-.24,.8-.2,1.18,.02,.29,.25,.72,.49,.82,1.15,.45,1.86,.52,2.67-.33,.32-.34,.9-.63,1.35-.61,1.71,.09,2.94,1.45,2.96,3.14,.02,1.16,0,2.31,0,3.54,2.8-.2,5.42-.34,7.29,2.1m-38.49-16.34c-.08,.39-.33,.91-.18,1.09,.53,.61,.55,1.32,.53,2.01-.04,1.14,.89,2.19,.27,3.37-.01,.03,.03,.08,.06,.18,.71-.09,1.01,.43,1.33,.94,.15,.25,.37,.59,.6,.63,.82,.14,1.61-.03,2.31-.52-.44-.76-.4-1.45-.04-2.15,.1-.2,.18-.44,.18-.67,.01-3.92,0-7.84,0-11.77-1.03-.18-.65-1.21-1.12-1.78-.17,.25-.38,.45-.44,.68-.11,.44-.44,.5-.79,.56-.51,.1-1.02,.18-1.56,.27-.3-.62-.4-.64-1.14-.27-.17,.09-.43,.12-.6,.05-.48-.22-.93-.5-1.47-.8-.62,.37-.67,.97-.28,1.73,.2,.39,.29,.85,.45,1.27,.09,.24,.17,.52,.35,.69,.96,.93,1.07,1.39,.6,2.41,.2,.43,.53,.81,.45,1.04-.19,.57,0,.84,.49,1.04m-12.78,180.72c-2.57,1.57-5.08,2.88-6.67,5.4,.21,.17,.38,.33,.57,.46,1.64,1.17,3.34,2.27,4.9,3.54,1.08,.88,1.96,1.07,3.04,.1,.31-.27,.48-.46,.4-.86-.29-1.42-.5-2.85-.86-4.25-.37-1.44-.88-2.84-1.38-4.39m54.26,.73c-.13,.43-.25,.81-.36,1.19-.58,1.91-1.16,3.82-1.72,5.73-.19,.64,.14,1.42,.66,1.75,.58,.38,1.01,.11,1.46-.27,.54-.46,1.12-.88,1.68-1.32,1.4-1.1,2.79-2.2,4.18-3.29-.61-1.16-3.21-2.83-5.89-3.79M24.58,101.38c.59-.08,1.26-.19,1.94-.24,.45-.03,.71-.18,.94-.58,.55-.98,1.26-1.84,2.29-2.36,1.14-.57,1.37-1.27,.71-2.45-1.5,.69-3,1.39-4.51,2.07-.2,.09-.49,.25-.65,.18-.97-.43-1.8-1.07-2.88-1.39-.81-.24-1.48-1.18-2.08-1.92-.66-.81-1.16-1.74-1.74-2.62-.05-.08-.17-.11-.44-.28,1.06,2.56,2.04,4.93,3.1,7.47,.09-.44,.11-.66,.19-.85,.09-.21,.25-.57,.38-.57,.23,0,.57,.16,.69,.35,.22,.35,.3,.79,.45,1.18,.07,.19,.12,.41,.25,.56,.43,.49,.88,.95,1.35,1.45m-8.37,1.01c-.57,1.17-1.25,2.08-2.26,2.75-.26,.17-.51,.49-.59,.78-.28,1.11-.22,2.22,.22,3.28,.34,.83,.97,1.35,1.88,1.45,.87,.1,1.67-.1,2.21-.86,.72-1.03,.78-2.25,.42-3.34-.47-1.41-1.23-2.72-1.87-4.07m42.17,162.57c.13,.09,.33,.23,.53,.36,1.34,.82,1.98,2.51,1.48,3.97-.15,.44-.01,.56,.42,.52,.98-.08,1.85-.79,2.1-1.92,.16-.73,.44-1.14,1.23-1.12,.16,0,.39-.18,.46-.34,.05-.11-.09-.41-.22-.46-.79-.33-.9-.93-.82-1.68,.07-.61-.31-.73-.85-.74-.73-.02-1.45-.14-2.12-.22-.66,.49-1.38,1.02-2.2,1.63m-10.75,3.68s-.07,.1-.1,.15c.17,.19,.32,.39,.5,.56,.66,.62,1.52,.6,2.34,.6,2.27,0,4.54-.02,6.82-.05,.14,0,.28-.1,.29-.1-.17-.85-.31-1.63-.5-2.4-.06-.22-.26-.56-.42-.57-.23-.02-.61,.15-.69,.34-.34,.77-.97,1.22-1.61,1.69-1.29,.93-2.42,1.17-3.4-.15-1.08,.38-2.15,.29-3.22-.07m18.23-5.57s-.05,0-.07,0c0-.17,0-.33,0-.5,.08-1.26-.53-2.25-1.33-3.11-.22-.24-.77-.37-1.09-.28-.39,.11-.7,.52-1.04,.79-.39,.3-.52,1.11-.29,1.71,.19,.5,.61,.44,1.01,.44,.33,0,.66-.03,.99-.01,.93,.07,1.15,.33,1.09,1.27-.03,.43-.12,.85-.1,1.27,0,.16,.22,.31,.33,.46,.12-.14,.31-.26,.33-.41,.08-.54,.11-1.08,.16-1.62m-21.23-.66c-.13,2.3,.45,3.82,2.27,4.23,.14-.35,.21-.75,.43-1.04,.36-.47,.83-.8,1.5-.82,.25,0,.67-.34,.71-.57,.08-.51-.37-.57-.78-.57-.07,0-.14,0-.21,0-.78-.02-1.59,.53-2.31-.37-.35-.44-1.06-.58-1.62-.86m5.75-1.79c-.4-.02-.71-.02-1.01-.07-.33-.05-.64-.14-.97-.2-.57-.09-1.16-.24-1.72-.21-.23,.01-.58,.42-.62,.69-.16,1.01,.56,1.57,1.78,1.32,1.42-.29,2.49-.03,3.02,1.45,0,.02,.02,.05,.04,.06,.2,.08,.4,.16,.6,.23,.02-.07,.05-.14,.07-.21-.75-.86-1.35-1.78-1.19-3.07m17.68-161.27v-6.14c-.2,.22-.28,.48-.39,.73-.33,.74-.51,1.6-1.53,1.79-.13,.02-.33,.69-.22,.82,.51,.6,.51,1.2,.19,1.76,.66,.36,1.24,.66,1.96,1.05m-25.83-5.74c-.09,.01-.18,.02-.27,.03-.2,1.72-.27,3.46-.09,5.19,0,.07,.28,.21,.37,.17,.58-.24,1.14-.52,1.49-.68,.04-.7-.09-1.31,.14-1.75,.29-.56,.38-.76-.23-.98-.73-.26-1.12-.76-1.24-1.5-.03-.17-.12-.33-.18-.49m34.55,5.3c-.87-.96-1.71-1.87-2.54-2.78-.07,.05-.14,.09-.21,.14v3.22c.85-.18,1.69-.36,2.75-.58m-16.22,161.35c.42-.68,.87-1.25,1.12-1.89,.12-.32,0-.99-.23-1.14-.34-.22-.92-.21-1.34-.1-.24,.06-.5,.5-.55,.8-.15,.92,.29,1.64,1.01,2.33m-8.9,5.53c.05,.45-.01,.96,.18,1.33,.18,.32,.62,.63,.99,.68,.4,.06,1.34-1.21,1.19-1.69-.11-.35-.63-.59-.99-.85-.13-.09-.31-.1-.48-.14-.65-.17-.9,.01-.89,.67m-1.02-8.73c-1,.11-1.92,.19-2.83,.34-.18,.03-.31,.35-.46,.54,.18,.1,.35,.23,.53,.31,.48,.19,.97,.33,1.44,.54,.73,.32,1.21,.07,1.3-.72,.03-.28,0-.56,0-1m1.04,1.97c1.4-.04,2.02-1.23,3.11-1.92h-3.11v1.92ZM2.35,143.6c.39,.49,.65,.86,.95,1.18,.15,.16,.43,.38,.58,.33,.95-.29,1.86-.14,2.79,.11,.13,.03,.33-.16,.49-.24-.12-.16-.21-.36-.36-.46-.15-.1-.36-.09-.55-.12-1.24-.25-2.47-.5-3.91-.8m48.01,122.36c-.58,.1-1.07,.16-1.55,.26-.75,.16-.99,.77-.57,1.37,.33,.46,2.01,.32,2.2-.21,.18-.51,.25-1.05-.08-1.42M15.03,94.75c.45-.54,.59-1.04,.31-1.59-.26-.5-.57-.5-.89-.01-.02,.03-.08,.04-.13,.06-.16-.11-.32-.21-.47-.32-.71,.85-.69,1.36,.09,1.96,.28-.49,.65-.56,1.1-.11m-2.57-5.9c-.03,.06-.06,.12-.09,.18-.25-.01-.5-.05-.75-.03-.2,.01-.47,.02-.58,.15-.44,.5-.3,1.17,.1,1.48h1.55c.42-.81,.37-1.31-.23-1.77m20.11,6.14c1.73-1.07,3.73-.73,5.58-1.05,.17-1,.13-1.18-.25-1.41-.21,.98-.63,1.19-1.67,.94-.36,.2-.74,.42-1.12,.4-1.04-.04-1.76,.56-2.54,1.13m26,165.59c-.3,.88-.58,1.72-.85,2.53,.6,.37,.98,.3,1.24-.15,.54-.91,.42-1.71-.39-2.38m44.48-115.81c1,0,1.85,.03,2.69-.02,.21-.01,.47-.22,.59-.4,.07-.11-.03-.46-.16-.53-.19-.11-.49-.15-.7-.08-.58,.18-1.14,.43-1.71,.66-.22,.09-.43,.22-.72,.37M15.16,100.91c-.75,.95-.96,2.11-1.26,3.23,.94-.86,1.53-1.87,1.26-3.23m44.07,167.84c.15-1.37-.18-2.02-1.16-2.42,.11,.65,.25,1.32,.32,1.99,.06,.59,.33,.67,.84,.43m-15.4-197.68c1.16-.94,1.38-2.64,.51-3.03-.17,1.02-.34,2.02-.51,3.03m-15.68-23.83c.94,.2,1.02,.17,1.12-.43,.14-.81,.25-1.62,.37-2.44-.05-.02-.1-.05-.14-.07-.45,.97-.89,1.93-1.35,2.93m-14.81,41.73c.47-.6,.4-1.13-.32-2.07-.2,.26-.44,.47-.54,.73-.27,.74,.45,.91,.85,1.34m-.2,1.9c-.19,.35-.39,.57-.42,.82-.09,.61-.11,1.24-.16,1.85,.76-.06,1.25-1.64,.58-2.68m28.04-21.42l-.35,.08c.05,.59,.07,1.19,.17,1.78,.03,.17,.31,.28,.48,.43,.12-.17,.38-.38,.34-.51-.17-.6-.42-1.19-.64-1.77m16.69,188.79v-1.35c-.62,.04-1.27,.08-1.92,.12-.01,.06-.02,.13-.03,.19,.63,.34,1.27,.68,1.95,1.04m-4.39,2.42c-.89,1.07-.88,1.77,0,2,.37-.64,.6-1.29,0-2M30.44,45.31c-.06,0-.12-.01-.19-.02,.09,.79-.98,1.6,.19,2.56v-2.53Zm-6.51,56.74c-.12-.42-.24-.87-.42-1.5-.35,.49-.58,.76-.73,1.07-.04,.08,.14,.38,.26,.41,.23,.07,.49,.02,.89,.02m16.25-31.54c-.07,0-.14,.01-.21,.02-.03,.45-.06,.91-.07,1.36,0,.08,.13,.16,.21,.24,.11-.1,.31-.22,.3-.31-.04-.44-.15-.88-.23-1.31"/>
    </clipPath>
  </defs>
  <g id="c" data-name="圖層 1">
    <g>
      <path class="e" d="M0,139.78v-.71c.27-.05,.57-.2,.82-.14,1.11,.26,1.1,.28,1.65-.75,.44-.83,1.3-.94,1.92-.26,.21,.23,.41,.47,.61,.69q.73,.81,1.63,.26c.16-.1,.34-.24,.51-.24,.96,.02,1.4-.63,1.86-1.32,.64-.97,1.86-1.49,2.1-2.76,.01-.06,.09-.11,.12-.17,.12-.31,.34-.61,.34-.92,0-1.35-.07-2.7-.08-4.06-.02-2.15,0-4.3,0-6.45-.02-3.01-.06-6.03-.08-9.04,0-1.07,.03-2.13,.03-3.2,0-1.43,0-2.85-.02-4.28,0-.43-.13-.74-.63-.88-.72-.21-1.43-.49-2.12-.82-.37-.18-.68-.5-1.14-.86,1.15-.28,1.87,.22,2.61,.61,.53,.28,.98,.22,1.28-.26,.15-.24,.16-.62,.11-.91-.06-.33-.26-.65-.41-.98,.3-.19,.62-.38,.96-.59,.1,.23,.29,.49,.32,.76,.07,.61,.06,1.22,.08,1.83,.09,0,.18,.01,.27,.01,.41-1.23,.85-2.45,1.21-3.7,.1-.35,.02-.78-.08-1.15-.23-.85-1.03-1.6-.38-2.58,.03-.04,0-.15-.03-.19-.62-.7-.85-1.7-1.76-2.17-.78-.4-.86-.71-.54-1.54,.24-.62,.02-1.55-.46-1.99-.6-.55-.59-1.85,.02-2.37,.76-.65,.76-1.36,.19-2.19-.26-.38-.25-.95-.3-1.44,0-.1,.3-.36,.42-.33,.49,.1,1.07,.12,1.05-.45-.02-.56,.42-.72,.55-1.11,.02-.05-.04-.14-.08-.19-.74-.89-1.46-1.79-2.24-2.65-.86-.94-1.82-1.79-2.64-2.75-.82-.97-1.56-2.01-2.29-3.06-.77-1.1-1.55-2.21-2.21-3.37-.67-1.17-1.28-2.38-1.78-3.63-.39-.98-.75-2.05-.79-3.09-.12-2.6,.8-4.78,3.08-6.25,1.36-.88,2.9-1.18,4.45-1.48,1.07-.2,2.15-.31,3.23-.45,.11-.01,.22,.06,.34,.07,.18,0,.36,0,.55-.02,.24-.03,.49-.12,.73-.09,1.46,.18,2.75-.23,3.78-1.24,1.59-1.57,2.99-3.36,4.68-4.82,1.79-1.54,3.76-2.96,6.37-2.82,.13-.42,.22-.87,.42-1.26,.56-1.12,1.21-2.2,1.75-3.33,.43-.89,.82-1.81,.65-2.84-.16-.97-.38-1.93-.54-2.89-.14-.9-.29-1.82-.32-2.73-.04-1.32,.07-2.65,.05-3.97-.04-1.95-.24-3.9-.19-5.84,.09-3.29,.31-6.57,.5-9.86,.04-.66,.17-1.32,.29-1.97,.37-2.06,1.28-3.78,3.33-4.53,1.93-.71,3.75-1.8,5.95-1.73,1.38,.04,2.77-.27,4.16-.42,.58-.06,1.21,.05,1.72-.16,1.83-.74,3.72-.82,5.65-.75,.8,.03,1.61-.1,2.5-.17-.62-1.02-.62-1.98,0-2.5,.57-.47,.69-.99,.46-1.64-.14-.38-.03-.62,.38-.65,.52-.03,1.04-.05,1.55-.02,.41,.03,.53,.24,.4,.69-.11,.36-.11,.81,.03,1.15,.3,.74,.72,1.43,1.15,2.27,.66,.09,1.55,.2,2.44,.33,2.01,.28,4.02,.57,6.03,.84,.74,.1,1.48,.17,2.22,.2,.61,.03,1.23-.09,1.82,0,.74,.11,1.46,.39,2.2,.55,2.32,.51,4.64,.99,6.63,2.4,1.25,.88,2.13,1.94,2.07,3.57-.01,.26,.04,.52,.07,.78,.26,1.98,.62,3.95,.77,5.93,.16,2.22,.12,4.45,.19,6.68,.01,.37,.18,.74,.21,1.11,.05,.77,.07,1.55,.07,2.33,0,.3-.12,.59-.11,.88,.02,.92,.12,1.84,.1,2.76-.01,.91-.14,1.82-.2,2.73-.03,.51,0,1.02-.05,1.52-.04,.4-.29,.84-.21,1.2,.23,.98,.55,1.94,.93,2.88,.71,1.74,1,3.55,1.11,5.4,.03,.49-.2,.8-.72,.89-.2,.03-.4,.13-.57,.25-.13,.09-.2,.25-.29,.39,.06,.04,.12,.08,.18,.12,.15-.07,.29-.18,.45-.2,1.47-.2,2.95-.57,4.41-.5,1.06,.06,2.16,.58,3.1,1.14,1.39,.83,2.68,1.85,3.97,2.84,.58,.44,1.01,1.07,1.6,1.49,.41,.29,.87,.48,1.13,.96,.2,.37,.46,.66,.97,.37,.09-.05,.37,.13,.5,.26,.28,.27,2.44,.66,2.76,.45,.04-.02,.06-.07,.09-.11,.32-.37,.69-.27,1.02-.06,.53,.34,1.03,.5,1.59,.03,.12-.1,.43,0,.64,.04,.15,.03,.27,.22,.4,.23,.96,.06,1.92,.06,2.88,.14,1.31,.11,2.64,.23,3.68,1.14,1,.88,1.96,1.83,2.9,2.78,.17,.17,.16,.52,.26,.78,.13,.37,.18,.85,.43,1.08,.42,.37,.31,.75,.27,1.17-.03,.31-.16,.64-.09,.93,.13,.6,.1,1.06-.36,1.55-.21,.22-.24,.72-.19,1.07,.07,.45-.05,.68-.4,.95-.24,.19-.54,.68-.45,.85,.3,.57-.05,.86-.39,1.06-.54,.32-.76,.7-.68,1.33,.02,.16-.17,.36-.3,.51-.13,.16-.36,.24-.47,.41-.61,.94-1.16,1.92-1.78,2.85-.42,.63-.96,1.17-1.36,1.81-.41,.66-1.36,1.02-1.17,2.04,.02,.09-.28,.25-.45,.35-.18,.11-.42,.15-.54,.3-.86,1.07-1.68,2.16-2.53,3.24-.3,.38-.64,.74-.94,1.12-.12,.15-.28,.41-.23,.54,.21,.56-.11,.83-.49,1.09-.42,.29-.73,.59-.61,1.19,.04,.18-.16,.48-.33,.62-.33,.28-.85,.41-1.08,.74-.81,1.19-1.51,2.45-2.29,3.66-.77,1.2-1.34,2.54-2.44,3.52-.26,.23-.57,.56-.58,.85-.03,.49-.33,.55-.64,.71-.27,.14-.68,.35-.71,.56-.07,.63-.48,.59-.9,.67-.35,.07-.71,.19-.99,.39-.49,.35-.92,.73-1.57,.31-.2-.13-.57-.19-.75-.09-.62,.35-1.07,.03-1.57-.24-.34-.18-.78-.43-1.09-.34-.67,.18-1.29,.55-1.91,.87-.16,.08-.34,.23-.39,.39-.36,1.11-.69,2.24-1.05,3.43,.4,.07,.63,.15,.86,.14,1.17-.02,1.94,.58,2.37,1.61,.25,.58,.41,1.21,.58,1.82,.23,.86,.44,1.73,.65,2.59,.07,.28,.15,.56,.16,.84,.08,1.42,.21,2.84,.2,4.26,0,3.03-.08,6.07-.14,9.1-.06,3.66-.13,7.32-.19,10.97-.03,2.24-.01,4.47-.07,6.7-.03,1.09,.26,1.6,1.32,1.78,.68,.12,1.36,.15,2.04,.23,.85,.1,1.69,.23,2.54,.3,.55,.05,1.11,0,1.71,0,0-.26,.01-.44,0-.63-.06-.86-.02-.92,.83-.66,1.15,.35,2.19,.42,2.89-.8,.07-.12,.2-.2,.3-.3,1.38-1.27,2.64-1.37,4.16-.34,.13,.09,.26,.19,.45,.32,.19-.21,.37-.39,.52-.59,1-1.28,1.82-1.28,2.71,.03,.24,.35,.46,.44,.82,.24,.43-.24,.8-.05,.96,.31,.17,.38,.3,.88,.19,1.25-.22,.73-.62,1.4-.95,2.13,.76,.02,.74,.45,.55,1.06-.24,.77-.35,1.59-.61,2.36-.18,.56-.47,1.09-.79,1.59-.34,.53-.85,.95-1.15,1.5-.54,.99-.95,2.05-1.46,3.06-.31,.61-.66,.67-1.03,.1-.38-.59-.57-1.29-.84-1.95-.08,.1-.25,.28-.39,.49-.32,.47-.66,.74-1.21,.27-.11-.09-.33-.04-.51-.05-.24-.02-.49,.02-.71-.05-.28-.09-.53-.26-.79-.4-.08,.03-.16,.07-.23,.11,.11,.67,.14,1.38,.36,2.02,.47,1.38,.05,3.27-1.03,4.17-.49,.41-.45,.73,.13,1.06,.92,.52,1.16,1.85,.43,2.62-.44,.46-.95,.85-1.41,1.27,.51,1.15,.99,2.25,1.48,3.36,.5,1.13,1.01,2.25,1.52,3.37,.39,.85,.9,1.68-.08,2.47,1.33,.84,1.43,1.17,.93,2.85,.77,.76,.94,1.34,.56,1.98-.43,.73-1.54,1.16-2.37,.92-.64-.19-.97-.82-.93-1.77-1.46-.42-1.87-1.09-1.51-2.47-.1,0-.2-.05-.28-.02-.73,.27-1.45,.55-2.17,.84-.1,.04-.19,.12-.27,.2-.75,.74-1.16,1.82-2.23,2.25-.1,.04-.15,.18-.23,.27-.59,.72-1.78,.99-2.67,.74-.87-.25-1.84-.06-2.65-.61-.03-.02-.09,0-.14,0-.94,.08-1.87,.16-2.96,.25,.14,.31,.22,.89,.54,1.1,.38,.24,.62,.48,.7,.89,.15,.76,.31,1.52,.42,2.29,.06,.38,0,.78,0,1.16,.37,0,.64-.05,.89,.02,.19,.05,.46,.23,.49,.39,.33,1.6,.65,3.2,.9,4.82,.08,.54-.07,1.1-.1,1.66-.02,.23-.03,.47,0,.7,.2,1.16,.7,2.3,.06,3.48-.03,.06,.02,.17,.06,.24,.26,.46,.5,.93,.79,1.37,.57,.88,.41,1.95-.38,2.65-.13,.11-.22,.43-.15,.57,.51,1.08,.67,2.22,.66,3.39,0,.47-.08,1.02-.33,1.4-.39,.58-.32,1.12-.28,1.74,.07,.94,.11,1.89-.01,2.82-.15,1.08-.53,2.13-.74,3.2-.29,1.5-.45,3.03-.76,4.52-.23,1.12-.27,1.15,.76,1.66,.04,.02,.08,.06,.13,.06,1.41,.26,1.54,1.83,2.57,2.5,.09,.06,.05,.3,.14,.39,.17,.17,.36,.39,.58,.43,1.24,.28,2.49,.51,2.98,1.94,.02,.05,.1,.07,.16,.11l-.04-.2c.61-.18,1.23-.36,1.84-.54-.38-1.39-.16-1.79,1.46-2.49-.15-1.53,1.08-1.96,2.19-1.38,.39,.2,.76,.49,1.05,.82,.53,.61,.47,1.15-.05,1.78-.12,.15-.18,.39-.18,.59,0,.48,.19,1.02,.05,1.44-.15,.43-.61,.75-.9,1.08,.1,.3,.39,.73,.28,.99-.69,1.61-1.49,3.18-2.23,4.77-.49,1.04-.96,2.09-1.42,3.09,.47,.4,.85,.79,1.29,1.08,1.07,.73,1.09,2.22,.05,3-.45,.33-.86,.74-1.24,1.16-.7,.78-.61,1.69-.33,2.61,.04,.14,.23,.3,.38,.35,1.91,.6,2.95,2.13,4.01,3.66,.06,.09,.1,.22,.1,.33,0,.72,.2,1.46-.28,2.12-.23,.32-.42,.68-.56,1.04-.35,.88-.64,1.79-.98,2.67-.49,1.27-1.05,2.52-.55,3.93,.08,.22-.02,.51-.06,.77-.09,.55-.19,1.11-.3,1.66-.09,.44,.01,.66,.49,.82,1.2,.41,1.69,1.24,1.47,2.41-.1,.53-.32,1.04-.54,1.53-.18,.43-.44,.82-.67,1.26,.45,.25,.85,.45,1.24,.68,1.12,.65,1.2,2.14,.17,2.95-.34,.26-.68,.52-.98,.82-.15,.15-.33,.4-.3,.57,.17,.89-.36,1.42-.91,1.95-.41,.39-.84,.78-1.22,1.2-.37,.42-.74,.54-1.24,.23-.5-.31-.91-.23-1.39,.17-3.53,2.88-7.1,5.73-10.66,8.57-.44,.35-.69,.74-.58,1.32,.1,.53-.07,.91-.53,1.28-1.01,.82-1.94,1.73-2.9,2.61h-3.14c-.88-.03-1.77-.19-2.63-.07-1.46,.21-2.24-.44-2.64-1.73-.18-.58-.53-.72-1.11-.72-10.3,.07-20.61,.13-30.91,.18-.25,0-.51,.02-.8,.04-.04,.72-.07,1.39-.11,2.16-2.15,0-4.22-.05-6.28,.02-1.19,.04-2.24-.08-3.14-.95-.4-.39-.89-.73-1.4-.97-.76-.37-.98-.95-.92-1.73,.05-.59-.1-1.05-.65-1.45-3.39-2.49-6.78-4.98-10.09-7.57-.83-.65-1.61-.87-2.6-.75-.7,.09-3.09-1.91-3.2-2.6,0-.02-.01-.05-.01-.07,.18-1.07-.41-1.66-1.29-2.07-.04-.02-.09-.03-.13-.06-.91-.66-.79-2.05,.2-2.54,.36-.18,.7-.39,1.07-.57,.52-.25,.63-.53,.27-1.05-.4-.59-.73-1.24-1-1.9-.37-.89,.22-1.93,1.17-2.23,.37-.11,.97-.24,1.03-.47,.16-.63,.33-1.44,.06-1.95-.4-.78-.3-1.52-.28-2.28,.02-.8-.08-1.54-.45-2.27-.34-.65-.6-1.35-.86-2.04-.33-.88-.61-1.77-.94-2.65-.14-.38-.49-.74-.47-1.09,.02-.38,.31-.79,.58-1.1,.77-.88,1.63-1.67,2.37-2.57,.48-.58,1.03-1.26,1.14-1.96,.23-1.39-.56-2.49-1.62-3.32-.8-.63-1.04-1.78-.35-2.49,.47-.48,1.02-.89,1.55-1.35-.07-.2-.11-.39-.19-.55-1.07-2.2-2.13-4.41-3.22-6.59-.21-.42-.34-.73,.1-1.11,.24-.21,.56-.63-.09-.87-.78-.29-1.12-.88-.94-1.74,.13-.58,.42-1.16-.4-1.46-.04-.02-.06-.12-.07-.19-.21-1.2,.32-1.92,1.73-2.31,.96-.26,1.54,.33,1.67,1.6,1.41,.22,1.91,1.14,1.76,2.24,.61,.48,1.07,.84,1.53,1.2-.17-.67,.18-1.21,.7-1.48,.69-.37,1.49-.54,2.23-.83,.23-.09,.47-.24,.62-.43,.72-.91,1.41-1.84,2.12-2.75,.13-.16,.35-.24,.53-.35,1.22-.69,1.33-1,.95-2.38-.54-1.92-.4-3.83,.02-5.76,.16-.74,.3-1.67,0-2.28-.4-.78-.76-1.81-1.93-1.97-.23-.03-.63-.49-.59-.66,.17-.66,.14-1.26,0-1.93-.16-.77-.1-1.59-.12-2.38-.03-1-.09-2-.06-3,.03-1.01,.17-2.02,.26-3.04,.06-.73,.1-1.47,.17-2.2,.17-1.76,.19-3.56,.56-5.28,.61-2.88,2.09-5.43,3.49-7.99,.18-.34,.39-.66,.65-1.09-.99-.04-1.83-.53-2.62,.14-.08,.07-.29,.04-.41-.01-.65-.25-1.49-.23-1.72-1.15-.03-.13-.21-.26-.36-.33-.61-.29-1.34-.43-1.43-1.29,0-.05-.18-.06-.24-.12-.27-.26-.53-.54-.8-.81-.13-.12-.25-.28-.4-.34-.51-.19-1.04-.35-1.56-.48-.12-.03-.3,.05-.42,.13-.3,.19-.59,.41-.9,.63,.26,1.17-.16,1.78-1.54,2.14-.04,1.39-.8,2.01-1.97,1.58-.37-.13-.72-.36-1.03-.61-.74-.6-.75-1.21-.02-1.81,.32-.27,.37-.46,.16-.83-.38-.7-.18-1.38,.48-1.85,.17-.12,.33-.24,.49-.36-.07-.01-.15-.03-.22-.04-.02-.5-.23-1.08-.05-1.5,1-2.34,2.08-4.63,3.16-6.94,.58-1.25,.47-1.59-.73-2.29-.18-.11-.33-.34-.4-.55-.36-1.08-.12-1.61,.9-2.23,.14-.09,.23-.26,.34-.4-.15-.09-.28-.22-.44-.27-1.45-.44-2.12-2.01-1.6-3.43,.29-.78,.34-1.66,.42-2.5,.03-.26-.17-.54-.3-.92-.28,.32-.44,.51-.85,.99-.27-.52-.5-.98-.79-1.54-.32,.64-.5,.98-.73,1.43-.76-.68-1.43-1.27-2.1-1.85,.4,1.16,.44,2.21-.4,3.1-1.05-1.68-2.09-3.3-3.08-4.96-.22-.37-.27-.83-.39-1.26-.07-.26-.08-.54-.18-.78-.32-.8-.68-1.6-1.06-2.49,.49-.04,.75-.06,.98-.08-.26-.58-.5-1.11-.73-1.65-.21-.49-.4-.98-.6-1.47m21.88,1.15c0-.84,0-1.67,0-2.5-.02-3.37-.05-6.74-.08-10.11-.03-3.45-.06-6.9-.08-10.35,0-.33,.07-.69-.03-.98-.65-1.76-.61-3.49-.11-5.3,.23-.85,.2-1.87-.05-2.72-.42-1.47-1.13-2.86-1.67-4.3-.93-2.44-1.82-4.89-2.73-7.34-.36-.97-.72-1.95-1.11-3.01-.3,.4-.51,.65-.71,.92-.28,.4-.16,.83,.18,1.03,1.17,.71,1.06,1.69,.8,2.81-.12,.53-.08,1.19,.14,1.7,.5,1.18,1.14,2.29,1.72,3.44,.67,1.33,1.11,2.72,1.03,4.24-.11,1.79-1.45,3.12-3.28,3.21-1.6,.08-3.03-1.12-3.33-2.78-.04-.22-.11-.43-.17-.64-.19,.35-.23,.69-.23,1.03,0,3.59,.01,7.17,.01,10.76,0,4.49-.03,8.98,.04,13.47,.01,.59,.5,1.22,.89,1.74,.38,.5,.92,.88,1.37,1.34,.82,.84,1.36,1.79,1.35,3.02-.01,.78,.08,1.55,.14,2.57,1.01-.33,1.87-.62,2.74-.88,.18-.05,.39,0,.58,0-.02,.2,.02,.46-.08,.59-.31,.39-.64,.76-1.02,1.07-.51,.41-1.08,.75-1.76,1.22,.3,.11,.56,.29,.66,.22,.43-.28,.81-.63,1.2-.96,.35-.3,.68-.62,1.04-.92,.2-.16,.49-.25,.62-.45,.47-.72,1.21-.91,1.95-1.16m50.94,134.33c.05-.3,.1-.48,.1-.67,0-.55,0-1.09-.03-1.64-.17-3.46-.07-6.9,.42-10.33,.09-.61,.05-.97-.48-1.35-.84-.61-2.02-.28-2.25,.75-.17,.75-.61,1.25-1.23,1.67-.18,.12-.36,.37-.4,.58-.12,.81-.66,1.14-1.36,1.38-.29,.1-.63,.32-.77,.58-.42,.76-.95,1.34-1.77,1.68-.23,.1-.46,.39-.53,.64-.33,1.31-2.52,3.03-3.98,2.99-3.56-.11-7.14-.02-10.7,0-1.42,0-2.61-.57-3.27-1.8-.59-1.09-1.2-2.02-2.29-2.7-.69-.42-.96-1.44-1.96-1.53-.04,0-.09-.05-.11-.09-.54-1.04-1.46-1.76-2.24-2.59-.08-.08-.13-.2-.16-.32-.37-1.14-1.13-1.76-2.42-1.74,.27,1.11-.65,1.12-1.4,1.36,1.26,4.4,.73,8.89,.83,13.42,12.05-.1,24-.19,36.02-.29m6.18-179.19s.08-.1,.12-.14c-.05-.19-.07-.38-.16-.55-.3-.6-.61-1.2-.95-1.79-.07-.12-.23-.21-.37-.26-.86-.31-1.73-.62-2.62-.93-.09-1.06-.33-2.07-.66-3.11-.39-1.21-1.03-2.57-.38-3.96,.06-.14,.08-.4,0-.48-.59-.56-.15-1.03,.1-1.52,.07-.14,.2-.36,.15-.45-.46-.79,.08-1.38,.35-2.03,.05-.11,.12-.27,.07-.34-.33-.5,.08-.8,.27-1.18,.15-.3,.38-.8,.25-.96-.38-.48-.07-.67,.16-1.01,.21-.31,.42-.97,.28-1.1-.59-.54-.14-.86,.1-1.27,.1-.17,.16-.58,.08-.62-.62-.38-.38-.77-.07-1.17,.17-.22,.36-.42,.47-.55-.2-.45-.38-.84-.55-1.22-.67,1.09-1.12,.95-1.68-.11-.3,.45-.63,.44-.9-.02-.15,.18-.26,.32-.39,.48-.24-.37-.45-.69-.69-1.05-.78,.76-.89-.19-1.37-.62,.1,.45,.2,.74,.22,1.03,.05,.52-.16,.91-.73,.93-.39,.02-.82,0-1.18-.13-.62-.23-1.21-.57-1.86-.9-.03,.23-.08,.56-.13,.94-.91,.26-1.85,.53-2.83,.81,0,3.82,0,7.72,0,11.62,0,.16,.1,.31,.13,.47,.08,.44,.21,.89,.21,1.33,0,.4-.24,.8-.2,1.18,.02,.29,.25,.72,.49,.82,1.15,.45,1.86,.52,2.67-.33,.32-.34,.9-.63,1.35-.61,1.71,.09,2.94,1.45,2.96,3.14,.02,1.16,0,2.31,0,3.54,2.8-.2,5.42-.34,7.29,2.1m-38.49-16.34c-.08,.39-.33,.91-.18,1.09,.53,.61,.55,1.32,.53,2.01-.04,1.14,.89,2.19,.27,3.37-.01,.03,.03,.08,.06,.18,.71-.09,1.01,.43,1.33,.94,.15,.25,.37,.59,.6,.63,.82,.14,1.61-.03,2.31-.52-.44-.76-.4-1.45-.04-2.15,.1-.2,.18-.44,.18-.67,.01-3.92,0-7.84,0-11.77-1.03-.18-.65-1.21-1.12-1.78-.17,.25-.38,.45-.44,.68-.11,.44-.44,.5-.79,.56-.51,.1-1.02,.18-1.56,.27-.3-.62-.4-.64-1.14-.27-.17,.09-.43,.12-.6,.05-.48-.22-.93-.5-1.47-.8-.62,.37-.67,.97-.28,1.73,.2,.39,.29,.85,.45,1.27,.09,.24,.17,.52,.35,.69,.96,.93,1.07,1.39,.6,2.41,.2,.43,.53,.81,.45,1.04-.19,.57,0,.84,.49,1.04m-12.78,180.72c-2.57,1.57-5.08,2.88-6.67,5.4,.21,.17,.38,.33,.57,.46,1.64,1.17,3.34,2.27,4.9,3.54,1.08,.88,1.96,1.07,3.04,.1,.31-.27,.48-.46,.4-.86-.29-1.42-.5-2.85-.86-4.25-.37-1.44-.88-2.84-1.38-4.39m54.26,.73c-.13,.43-.25,.81-.36,1.19-.58,1.91-1.16,3.82-1.72,5.73-.19,.64,.14,1.42,.66,1.75,.58,.38,1.01,.11,1.46-.27,.54-.46,1.12-.88,1.68-1.32,1.4-1.1,2.79-2.2,4.18-3.29-.61-1.16-3.21-2.83-5.89-3.79M24.58,101.38c.59-.08,1.26-.19,1.94-.24,.45-.03,.71-.18,.94-.58,.55-.98,1.26-1.84,2.29-2.36,1.14-.57,1.37-1.27,.71-2.45-1.5,.69-3,1.39-4.51,2.07-.2,.09-.49,.25-.65,.18-.97-.43-1.8-1.07-2.88-1.39-.81-.24-1.48-1.18-2.08-1.92-.66-.81-1.16-1.74-1.74-2.62-.05-.08-.17-.11-.44-.28,1.06,2.56,2.04,4.93,3.1,7.47,.09-.44,.11-.66,.19-.85,.09-.21,.25-.57,.38-.57,.23,0,.57,.16,.69,.35,.22,.35,.3,.79,.45,1.18,.07,.19,.12,.41,.25,.56,.43,.49,.88,.95,1.35,1.45m-8.37,1.01c-.57,1.17-1.25,2.08-2.26,2.75-.26,.17-.51,.49-.59,.78-.28,1.11-.22,2.22,.22,3.28,.34,.83,.97,1.35,1.88,1.45,.87,.1,1.67-.1,2.21-.86,.72-1.03,.78-2.25,.42-3.34-.47-1.41-1.23-2.72-1.87-4.07m42.17,162.57c.13,.09,.33,.23,.53,.36,1.34,.82,1.98,2.51,1.48,3.97-.15,.44-.01,.56,.42,.52,.98-.08,1.85-.79,2.1-1.92,.16-.73,.44-1.14,1.23-1.12,.16,0,.39-.18,.46-.34,.05-.11-.09-.41-.22-.46-.79-.33-.9-.93-.82-1.68,.07-.61-.31-.73-.85-.74-.73-.02-1.45-.14-2.12-.22-.66,.49-1.38,1.02-2.2,1.63m-10.75,3.68s-.07,.1-.1,.15c.17,.19,.32,.39,.5,.56,.66,.62,1.52,.6,2.34,.6,2.27,0,4.54-.02,6.82-.05,.14,0,.28-.1,.29-.1-.17-.85-.31-1.63-.5-2.4-.06-.22-.26-.56-.42-.57-.23-.02-.61,.15-.69,.34-.34,.77-.97,1.22-1.61,1.69-1.29,.93-2.42,1.17-3.4-.15-1.08,.38-2.15,.29-3.22-.07m18.23-5.57s-.05,0-.07,0c0-.17,0-.33,0-.5,.08-1.26-.53-2.25-1.33-3.11-.22-.24-.77-.37-1.09-.28-.39,.11-.7,.52-1.04,.79-.39,.3-.52,1.11-.29,1.71,.19,.5,.61,.44,1.01,.44,.33,0,.66-.03,.99-.01,.93,.07,1.15,.33,1.09,1.27-.03,.43-.12,.85-.1,1.27,0,.16,.22,.31,.33,.46,.12-.14,.31-.26,.33-.41,.08-.54,.11-1.08,.16-1.62m-21.23-.66c-.13,2.3,.45,3.82,2.27,4.23,.14-.35,.21-.75,.43-1.04,.36-.47,.83-.8,1.5-.82,.25,0,.67-.34,.71-.57,.08-.51-.37-.57-.78-.57-.07,0-.14,0-.21,0-.78-.02-1.59,.53-2.31-.37-.35-.44-1.06-.58-1.62-.86m5.75-1.79c-.4-.02-.71-.02-1.01-.07-.33-.05-.64-.14-.97-.2-.57-.09-1.16-.24-1.72-.21-.23,.01-.58,.42-.62,.69-.16,1.01,.56,1.57,1.78,1.32,1.42-.29,2.49-.03,3.02,1.45,0,.02,.02,.05,.04,.06,.2,.08,.4,.16,.6,.23,.02-.07,.05-.14,.07-.21-.75-.86-1.35-1.78-1.19-3.07m17.68-161.27v-6.14c-.2,.22-.28,.48-.39,.73-.33,.74-.51,1.6-1.53,1.79-.13,.02-.33,.69-.22,.82,.51,.6,.51,1.2,.19,1.76,.66,.36,1.24,.66,1.96,1.05m-25.83-5.74c-.09,.01-.18,.02-.27,.03-.2,1.72-.27,3.46-.09,5.19,0,.07,.28,.21,.37,.17,.58-.24,1.14-.52,1.49-.68,.04-.7-.09-1.31,.14-1.75,.29-.56,.38-.76-.23-.98-.73-.26-1.12-.76-1.24-1.5-.03-.17-.12-.33-.18-.49m34.55,5.3c-.87-.96-1.71-1.87-2.54-2.78-.07,.05-.14,.09-.21,.14v3.22c.85-.18,1.69-.36,2.75-.58m-16.22,161.35c.42-.68,.87-1.25,1.12-1.89,.12-.32,0-.99-.23-1.14-.34-.22-.92-.21-1.34-.1-.24,.06-.5,.5-.55,.8-.15,.92,.29,1.64,1.01,2.33m-8.9,5.53c.05,.45-.01,.96,.18,1.33,.18,.32,.62,.63,.99,.68,.4,.06,1.34-1.21,1.19-1.69-.11-.35-.63-.59-.99-.85-.13-.09-.31-.1-.48-.14-.65-.17-.9,.01-.89,.67m-1.02-8.73c-1,.11-1.92,.19-2.83,.34-.18,.03-.31,.35-.46,.54,.18,.1,.35,.23,.53,.31,.48,.19,.97,.33,1.44,.54,.73,.32,1.21,.07,1.3-.72,.03-.28,0-.56,0-1m1.04,1.97c1.4-.04,2.02-1.23,3.11-1.92h-3.11v1.92ZM2.35,143.6c.39,.49,.65,.86,.95,1.18,.15,.16,.43,.38,.58,.33,.95-.29,1.86-.14,2.79,.11,.13,.03,.33-.16,.49-.24-.12-.16-.21-.36-.36-.46-.15-.1-.36-.09-.55-.12-1.24-.25-2.47-.5-3.91-.8m48.01,122.36c-.58,.1-1.07,.16-1.55,.26-.75,.16-.99,.77-.57,1.37,.33,.46,2.01,.32,2.2-.21,.18-.51,.25-1.05-.08-1.42M15.03,94.75c.45-.54,.59-1.04,.31-1.59-.26-.5-.57-.5-.89-.01-.02,.03-.08,.04-.13,.06-.16-.11-.32-.21-.47-.32-.71,.85-.69,1.36,.09,1.96,.28-.49,.65-.56,1.1-.11m-2.57-5.9c-.03,.06-.06,.12-.09,.18-.25-.01-.5-.05-.75-.03-.2,.01-.47,.02-.58,.15-.44,.5-.3,1.17,.1,1.48h1.55c.42-.81,.37-1.31-.23-1.77m20.11,6.14c1.73-1.07,3.73-.73,5.58-1.05,.17-1,.13-1.18-.25-1.41-.21,.98-.63,1.19-1.67,.94-.36,.2-.74,.42-1.12,.4-1.04-.04-1.76,.56-2.54,1.13m26,165.59c-.3,.88-.58,1.72-.85,2.53,.6,.37,.98,.3,1.24-.15,.54-.91,.42-1.71-.39-2.38m44.48-115.81c1,0,1.85,.03,2.69-.02,.21-.01,.47-.22,.59-.4,.07-.11-.03-.46-.16-.53-.19-.11-.49-.15-.7-.08-.58,.18-1.14,.43-1.71,.66-.22,.09-.43,.22-.72,.37M15.16,100.91c-.75,.95-.96,2.11-1.26,3.23,.94-.86,1.53-1.87,1.26-3.23m44.07,167.84c.15-1.37-.18-2.02-1.16-2.42,.11,.65,.25,1.32,.32,1.99,.06,.59,.33,.67,.84,.43m-15.4-197.68c1.16-.94,1.38-2.64,.51-3.03-.17,1.02-.34,2.02-.51,3.03m-15.68-23.83c.94,.2,1.02,.17,1.12-.43,.14-.81,.25-1.62,.37-2.44-.05-.02-.1-.05-.14-.07-.45,.97-.89,1.93-1.35,2.93m-14.81,41.73c.47-.6,.4-1.13-.32-2.07-.2,.26-.44,.47-.54,.73-.27,.74,.45,.91,.85,1.34m-.2,1.9c-.19,.35-.39,.57-.42,.82-.09,.61-.11,1.24-.16,1.85,.76-.06,1.25-1.64,.58-2.68m28.04-21.42l-.35,.08c.05,.59,.07,1.19,.17,1.78,.03,.17,.31,.28,.48,.43,.12-.17,.38-.38,.34-.51-.17-.6-.42-1.19-.64-1.77m16.69,188.79v-1.35c-.62,.04-1.27,.08-1.92,.12-.01,.06-.02,.13-.03,.19,.63,.34,1.27,.68,1.95,1.04m-4.39,2.42c-.89,1.07-.88,1.77,0,2,.37-.64,.6-1.29,0-2M30.44,45.31c-.06,0-.12-.01-.19-.02,.09,.79-.98,1.6,.19,2.56v-2.53Zm-6.51,56.74c-.12-.42-.24-.87-.42-1.5-.35,.49-.58,.76-.73,1.07-.04,.08,.14,.38,.26,.41,.23,.07,.49,.02,.89,.02m16.25-31.54c-.07,0-.14,.01-.21,.02-.03,.45-.06,.91-.07,1.36,0,.08,.13,.16,.21,.24,.11-.1,.31-.22,.3-.31-.04-.44-.15-.88-.23-1.31"/>
      <g class="f">
        <rect class="e" y="-.02" width="115.8" height="284.68"/>
      </g>
    </g>
  </g>
</svg>