<?xml version="1.0" encoding="UTF-8"?><svg id="_圖層_2" xmlns="http://www.w3.org/2000/svg" width="54.68" height="33.53" viewBox="0 0 54.68 33.53"><g id="fix_按鈕"><path d="M17.79.98c4.64,3.21,17.37,11.01,32.31,11.43,2.54.07,4.01,2.92,2.57,5.02-3.47,5.09-10.03,12.48-20.25,15.47-.77.23-1.6.15-2.33-.2C25.51,30.44,7.92,21.24.89,9.98c-1.13-1.8-.2-4.19,1.84-4.78,3.57-1.03,8.81-2.7,11.6-4.36,1.08-.64,2.43-.58,3.45.13Z" style="fill:#db0000;"/><path d="M1.41,5.62C5.17,4.56,12.14,2.36,15.07.29c.54-.38,1.25-.38,1.78,0l1.62,1.16S6.09,9.09.81,9.86c0,0,0,0,0,0-.98-1.81-1.39-3.68.6-4.24Z" style="fill:#900;"/><path d="M31.93,33.46c2.7-.82,14.92-5.17,22.55-18.95.57-1.03-.19-2.29-1.36-2.27-2.38.04-5.8.05-7.43-.2l-12.34,3.75c-.99.3-1.78,1.06-2.11,2.04l-4.44,13.13s2.52,1.69,4.05,2.41c.34.16.73.19,1.09.08Z" style="fill:#900;"/><ellipse cx="31.74" cy="17.95" rx="3.18" ry="4.66" transform="translate(-1.8 32.27) rotate(-52.62)" style="fill:#ffbc00;"/><path d="M33.9,20.33c.06-.04.17-.05.26-.02.2.06.42.08.55-.09.09-.11.13-.3.05-.47,0-.01-.02-.03-.04-.03-.04,0-.07-.03-.09-.05-.04-.05-.04-.11-.04-.16,0-.04,0-.07.01-.1.02-.07.09-.13.17-.15.17-.04.33-.12.32-.36,0-.16-.09-.38-.24-.52-.01-.01-.03-.02-.05-.01-.03.01-.06,0-.09,0-.06-.03-.09-.09-.12-.15-.02-.04-.04-.07-.05-.11-.03-.09-.02-.18.03-.24.09-.12.15-.29,0-.53-.1-.17-.28-.35-.47-.43-.01,0-.03,0-.04,0-.01.03-.04.04-.07.04-.06,0-.12-.05-.17-.1-.04-.03-.07-.06-.1-.09-.07-.08-.12-.18-.12-.26,0-.18-.07-.38-.31-.57-.17-.13-.4-.24-.57-.23-.01,0-.02,0-.02.03,0,.04,0,.06-.03.07-.04.02-.11,0-.17-.02-.04-.01-.08-.03-.12-.05-.09-.05-.18-.13-.24-.22-.11-.18-.27-.37-.54-.45-.19-.06-.41-.06-.52.04,0,0-.01.02,0,.04.02.03.03.06.02.09-.01.04-.07.05-.13.06-.04,0-.07,0-.11,0-.09,0-.2-.05-.29-.11-.18-.14-.4-.26-.63-.21-.16.03-.31.14-.33.29,0,.01,0,.03.02.04.04.02.06.05.07.08.02.05-.02.09-.05.13-.02.02-.04.04-.07.06-.06.04-.17.05-.26.02-.2-.06-.42-.08-.55.09-.09.11-.13.3-.05.47,0,.01.02.03.04.03.04,0,.07.02.09.05.04.05.04.11.04.16,0,.04,0,.07-.01.1-.02.07-.09.13-.17.15-.17.04-.33.12-.32.36,0,.16.09.38.24.52.01.01.03.02.05.01.03-.01.06,0,.09,0,.06.03.09.09.12.15.02.04.04.08.05.11.03.09.02.18-.03.24-.09.12-.15.29,0,.53.1.17.28.35.47.43.01,0,.03,0,.04,0,.02-.03.04-.04.07-.04.06,0,.12.05.17.1.04.03.07.06.1.1.07.08.12.18.12.26,0,.18.07.38.31.57.17.13.4.24.57.23.01,0,.02,0,.02-.03,0-.04,0-.06.03-.07.04-.02.11,0,.17.02.04.01.08.03.12.05.09.05.18.13.24.22.11.18.27.37.54.45.19.06.41.06.52-.04,0,0,.01-.02,0-.04-.02-.03-.03-.06-.02-.09.01-.04.07-.05.13-.06.04,0,.07,0,.11,0,.09,0,.2.05.29.11.18.14.4.26.63.21.16-.03.31-.14.33-.29,0-.01,0-.03-.02-.04-.04-.02-.06-.05-.07-.08-.02-.05.02-.09.05-.13.02-.02.05-.04.07-.06h0ZM33.67,20.07c-.16.1-.33.16-.52.2-.19.04-.41.06-.62.05-.22-.01-.44-.05-.67-.12-.23-.06-.46-.16-.68-.27-.22-.11-.44-.25-.64-.4s-.4-.33-.56-.51c-.17-.19-.31-.38-.44-.59-.12-.2-.22-.42-.29-.62-.07-.21-.11-.41-.12-.61,0-.2.01-.39.06-.56.05-.17.13-.33.23-.47s.24-.26.39-.35c.16-.09.33-.16.52-.2.19-.04.41-.06.62-.05.22.01.44.05.67.12.23.06.46.16.68.27.22.11.44.25.64.4s.4.33.56.51c.17.19.31.38.44.59.12.2.22.42.29.62.07.21.11.41.12.61,0,.2-.01.39-.06.56-.05.17-.13.33-.23.47s-.24.26-.39.35h0Z" style="fill:#fa7a18; fill-rule:evenodd;"/><path d="M29.73,18.3s.01-.03.02-.04c.03-.08.06-.18.1-.26.11-.21.22-.39.43-.59.19-.19.32-.28.71-.46.1-.05.17-.1.29-.15.08-.04.17-.09.2-.13.02-.01.08-.07.09-.1,0,.08.01.2.02.26.01.13.03.22.08.35.02.05.04.11.07.16.01.03.05.07.08.08.03.01.07.01.09,0,.04-.01.07-.06.07-.1,0-.05-.04-.08-.05-.12,0-.07,0-.13.03-.19.02.06.03.1.06.17.04.08.05.11.09.2.04.08.07.13.13.13,0,.09-.01.24-.02.32,0,.08-.02.15-.03.23,0,.03,0,.06-.01.08-.08-.17-.18-.37-.3-.53-.15-.2-.33-.39-.55-.53-.05-.03-.1-.03-.15-.02-.03,0-.05.03-.05.06,0,.02.02.05.03.08,0,0-.01,0-.02,0-.02,0-.03.01-.04.03-.02.04-.03.09-.05.13,0,0-.02,0-.03,0-.07-.02-.13-.04-.2-.05-.03,0-.06,0-.08.01-.02.02-.02.04,0,.07.05.07.09.12.16.18.04.04.1.06.14.09.03.02.06.04.08.06.06.05.13.1.19.15.07.06.13.11.2.18.03.03.07.07.1.08.03.01.06.02.1.02.04,0,.07,0,.11,0,.06-.01.1-.04.09-.11,0-.06-.01-.1,0-.15,0,0,0-.04.01-.04.05.08.08.16.1.24.03.13.04.25.05.37,0,.07-.06.21-.07.28,0,.07.09.14.15.12.06-.02.13-.08.18-.1.04-.02.09-.06.08-.12-.02-.12-.06-.4-.03-.37.03.02.14.15.14.22,0,.08.08.25.11.32.02.06.02.06.03.08,0,.03.01.04.02.06,0,.04.04.18.05.2,0,.03.08.07.1.08.01.01.07,0,.12-.04.05-.05.01-.12.02-.14-.03-.07-.05-.13-.14-.25-.07-.06-.1-.13-.13-.19,0-.02-.06-.07-.02-.07.01,0,.07.05.09.07.04.04.1.07.14.11.04.03.07.06.1.08.02.03.06.06.11.08.03.02.1,0,.13-.01.03,0,.06-.03.08-.03.02-.01.03-.05.04-.05.02,0-.06-.06-.06-.06-.06,0-.11-.02-.17-.05-.09-.06-.21-.17-.28-.24-.09-.09-.18-.17-.26-.26-.07-.06-.07-.06-.14-.14,0-.02-.02-.05-.02-.07,0-.09-.01-.1,0-.2.01-.13.02-.19.03-.33.05.04.29.21.34.24.03.19.05.29.1.48,0,.02.03.04.05.06.03.02.06.01.08.02.1.04.12.02.21.01.07,0,.13,0,.2,0,.06,0,.13.02.2.03.03.02.04.03.05.04.02.02.04.03.06.04.11.08.13.1.14.14.01.04.08.04.13.02.04-.02.04-.04.04-.07,0-.04-.02-.08-.07-.14-.03-.03-.07-.06-.1-.08-.04-.01-.06-.02-.09-.04-.08-.05-.11-.07-.19-.12-.14-.1-.29-.2-.42-.31-.03-.22-.02-.38.02-.58,0-.03.02-.06.05-.07.01,0,.02-.02.03-.02,0,0,.02-.01.03-.01,0,0,0,0,0,0-.01,0-.02,0-.04,0-.1-.02-.11,0-.19.02-.08.02-.15.03-.22.07-.06.04-.11.12-.11.19,0,.03.01.1.01.13-.05-.03-.28-.2-.31-.23,0-.06,0-.14,0-.21,0-.1,0-.19,0-.29,0-.03.03-.04.06-.03.03.01.06.04.08.06.01.01.02.02.03.03,0,0,0,0,0,0,0-.01,0-.02-.01-.04-.02-.05-.05-.11-.09-.15-.03-.03-.05-.04-.08-.04-.06,0-.09.02-.13.06-.02.02-.05.05-.07.08-.02.03-.03.06-.02.1.03.17.05.33.07.48-.08-.11-.13-.18-.18-.29-.03-.07-.04-.11-.06-.18,0-.02,0-.04,0-.06,0-.01,0-.04,0-.06,0-.03-.03-.06-.06-.07-.02,0-.04,0-.06,0-.04,0-.07.02-.07.05.01.05,0,.08-.01.12,0,0-.02.09-.02.1-.03-.05-.05-.13-.05-.19,0-.03-.01-.09-.02-.12,0-.08-.01-.1,0-.16.02-.03.04-.05.07-.07.04-.03.06-.04.09-.08.03-.03.02-.06-.02-.1-.04-.06-.11-.13-.18-.15-.04-.01-.07-.03-.11,0-.02.02-.04.04-.04.07,0,.08-.02.14-.05.2-.02.04-.05.08-.09.11-.05.05-.1.09-.16.13-.05.03-.1.05-.16.08-.04.02-.26.1-.31.12-.27.08-.37.12-.52.17-.13.05-.46.18-.48.4-.02.23-.13.34-.11.73-.01.08-.02.13.01.21l.03.06s.01.03.02,0ZM31.12,17.57s-.04-.03-.04-.04c.03,0,.06,0,.09-.02.02,0,.02-.02.02-.03,0-.02,0-.03.01-.05,0-.03.01-.07.03-.1,0-.01,0-.02.02-.02,0,0,0,0,0-.01.01,0,.02,0,.03,0,.02.01.04.04.06.05.02.02.04.03.07.05.02.01.05.02.06.03.05.04.1.08.14.12h-.02c-.05-.02-.09-.02-.13,0-.02,0-.03.02-.05.02-.02,0-.03.02-.04.01-.01,0-.01-.02-.02-.02,0-.01,0-.02,0-.04,0,0,0,0,0,0,0,.01,0,.03-.01.04,0,0,0,.01-.01.03,0,0,0,.02,0,.04,0,0-.02.02-.03.03,0,.01-.01.02,0,.03-.05-.04-.11-.08-.16-.13ZM31.8,17.81s-.04.01-.06.03c-.02.02-.04.04-.04.07,0,.02-.01.05-.02.06-.01.02-.04.01-.06,0-.07-.05-.14-.11-.21-.16.02,0,.03,0,.04,0,.05-.02.1-.05.13-.08.02-.02.03-.03.03-.07,0-.03,0-.05,0-.07v-.02c.08.06.14.13.2.2.01.02.03.04.04.05-.02,0-.03,0-.05,0ZM33.22,18s.18.14.23.18c-.07-.02-.18-.06-.24-.07-.03,0-.05-.01-.08-.03-.02-.01-.03-.03-.03-.05,0-.04,0-.07,0-.1.04.02.08.05.12.07Z" style="fill:#fa7a18;"/><path d="M32.28,18.99c-.07,0-.14.03-.17.09-.03.07-.03.14-.02.22-.06-.04-.12-.08-.17-.13,0,0-.02-.01-.02-.02.03-.03.06-.05.1-.07.02,0,.03-.01.05-.02,0,0,0,0,0,0-.02,0-.04,0-.06,0-.04,0-.12,0-.16,0-.03-.07-.06-.12-.1-.18-.08-.11-.15-.21-.24-.32-.07-.09-.14-.19-.22-.28-.1-.13-.2-.25-.31-.37-.03-.03-.04-.05-.07-.08-.04-.03-.08-.05-.13-.06-.03,0-.05,0-.07-.02-.02-.01-.03-.02-.05-.01-.02,0-.06.04-.02.09.06.08.13.15.21.22.14.14.26.27.38.42-.03,0-.05.03-.06.06,0,.02,0,.05,0,.07,0,0,0,.01,0,.01,0,0-.01,0-.01,0-.02,0-.04-.02-.05-.03-.04-.04-.06-.1-.08-.14-.02-.04-.03-.07-.04-.1,0-.03-.01-.06-.03-.09-.01-.02-.04-.04-.06-.04-.01,0-.02.01-.03.02,0,0-.01.02-.02.02,0,0,0,0,0,0-.02,0-.06,0-.09-.01-.02-.01-.04-.04-.06-.07,0-.02,0-.04-.01-.06,0-.02,0-.04,0-.05,0,0,0,0,0,0,0,.02-.01.03-.02.05-.01.03-.05.04-.05.08-.01.05-.01.12.02.18.03.05.09.07.14.08.05,0,.08,0,.11-.02.02-.01.05-.05.05-.11.01.08.05.21.08.28.03.06.09.13.15.17.05.03.12.05.16.04.04-.01.03-.07.03-.1,0-.03,0-.07,0-.1.03.03.06.07.08.1.04.06.05.08.06.12,0,.02.01.05.01.07,0,.04,0,.1-.02.13-.02.02-.07-.01-.09-.03-.16-.12-.32-.23-.47-.35-.18-.13-.35-.27-.51-.42-.09-.08-.16-.23-.14-.33,0-.04.02-.08.08-.1.04-.01.07-.01.12,0,0,0,.01,0,.02,0,0,0,.01,0,.02.01,0,0,0,0,0,0,0,0-.02-.01-.02-.02-.02,0-.03-.02-.03-.02-.03-.01-.04-.02-.07-.02-.08-.02-.16,0-.22.07-.05.05-.08.11-.07.19,0,.09.03.2.12.28.12.11.24.22.36.32.25.2.5.4.77.57.07.04.17.06.22.03.04-.03.08-.06.08-.11,0-.02,0-.08,0-.1,0-.04-.04-.16-.11-.31.06.08.13.19.17.26.01.02.05.13.06.17-.05.07.02.11.06.16.04.09.08.19.11.28.05.13.07.21.13.33,0,.01.03.05.04.07.03.04.1.05.14.05.04,0,.08,0,.11-.02.02-.01.04-.04.03-.07,0-.02-.02-.04-.03-.06,0-.01-.02-.02-.03-.04-.04-.08-.06-.15-.07-.22.1.07.2.15.29.22.04.03.07.06.11.1.03.04.07.08.12.09.02,0,.03,0,.05,0,.03,0,.05.01.08,0,.04,0,.07-.01.11,0,.01,0,.03,0,.04,0,0,0,0,0,0,0-.01,0-.03-.02-.04-.03-.01,0-.04-.02-.05-.03-.03-.02-.06-.05-.1-.07-.08-.06-.16-.12-.25-.17-.08-.05-.16-.1-.23-.15-.04-.03-.08-.06-.12-.09,0-.07,0-.12.05-.17.03-.04.06-.07.11-.08.04-.02.09-.03.14-.02.03,0,.06,0,.1.02.03.01.05.03.08.04.01,0,.02,0,0,0-.02-.02-.04-.04-.07-.06-.04-.03-.08-.06-.11-.09-.08-.05-.17-.08-.25-.07ZM32.07,19.44c.03.09.08.17.13.27,0,.01,0,0,0,0-.16-.17-.2-.26-.27-.38.03.02.12.09.15.12Z" style="fill:#fa7a18;"/></g></svg>