<?xml version="1.0" encoding="UTF-8"?>
<svg id="b" data-name="圖層 2" xmlns="http://www.w3.org/2000/svg" width="908.55" height="273.34" viewBox="0 0 908.55 273.34">
  <defs>
    <style>
      .d {
        fill: #fff;
      }
    </style>
  </defs>
  <g id="c" data-name="說明">
    <g>
      <path class="d" d="M113.87,200.77l-60.66,30.53L0,125.6l60.66-30.53,53.21,105.7ZM49.43,120.12l-23.28,11.72,7.54,14.98,23.28-11.72-7.54-14.98Zm14.84,29.47l-23.28,11.72,7.71,15.31,23.28-11.72-7.71-15.31Zm15,29.8l-23.28,11.72,7.71,15.31,23.28-11.72-7.71-15.31Zm5.61,43.4c1.63,16.31-.58,34.76-5.37,47.69-5.1-1.56-15.46-2.95-21.13-3.19,5.04-11.62,7.11-26.69,5.66-39.79l20.85-4.71Zm85.07-119.59l-17.71,8.91,37.63,74.75c4.97,9.88,5.66,16.14,1.66,22.07-4.16,6.02-11.7,11.05-23.67,17.07-3.56-5.02-10.82-12.1-16.26-15.96,7.71-3.47,14.92-7.1,17.38-8.34,2.38-1.4,2.95-2.72,1.7-5.19l-25.28-50.22c-.22,23.64-3.9,46.13-11.13,64.01-5.52-2.79-14.73-6.41-20.49-7.64,10.18-20.6,14.32-50.34,12.55-77.51l-36.07,18.15-9.12-18.11,42.79-21.54-19.23-38.2,19.18-9.65,19.23,38.2,17.71-8.91,9.12,18.11Zm-68.21,104.91c11.27,4.44,24.04,11.43,31.3,17.27l-12.17,16.65c-7.01-6.17-20.19-13.98-31.39-19.08l12.26-14.84Z"/>
      <path class="d" d="M308.27,46.31c-3.03,14.37-7.98,28.26-14.36,41.23,7.97,5.42,21.88,16.35,25.65,19.56l-9.71,19.75c-3.74-4.32-9.55-10.23-15.36-16.13l9.76,71.23-19.82,2.72-9.16-66.84c-5.54,6.9-10.97,13.23-16.92,18.51-1.94-6.06-7.57-17.38-10.69-21.23,15.56-12.18,29.47-32.32,37.19-53.1l-38.91,5.33-2.68-19.54,30-4.11c-4.36-6.1-10.99-13.94-16.41-19.71l15.66-11.45c6.61,6.35,14.46,14.95,18.4,20.74l-11.65,9.6,14-1.92,3.33-1.39,11.67,6.77Zm96.05-25.07l13.64,99.53-20.37,2.79-.9-6.57-16.55,2.27,7.03,51.32-21.09,2.89-7.03-51.32-16.37,2.24,1.15,8.4-19.64,2.69-13.89-101.36,36-4.93-3.6-26.3,21.09-2.89,3.6,26.3,36.91-5.06Zm-71.72,29.55l2.4,17.53,16.37-2.24-2.4-17.53-16.37,2.24Zm23.82,52.18l-2.45-17.9-16.37,2.24,2.45,17.9,16.37-2.24Zm13.64-57.31l2.4,17.53,16.55-2.27-2.4-17.53-16.55,2.27Zm24,52.16l-2.45-17.9-16.55,2.27,2.45,17.9,16.55-2.27Z"/>
      <path class="d" d="M563.52,13.68c-7.1,12.06-15.57,24.44-24.81,35.94l-21.19,123.16-20.44-3.52,15.78-91.74c-4.61,4.07-9.19,7.96-13.71,11.48-1.05-5.79-4.99-18.63-7.7-24.52,19.09-13.55,39.24-36.45,52.93-60.84l19.14,10.03Zm-3.53,81.13l84.69,14.39-14.28,83.02-22.07-3.8,1.12-6.54-41.6-7.16-1.16,6.72-20.98-3.61,14.28-83.02Zm101.33-13.05l-3.34,19.44-109.98-18.93,3.34-19.44,23.33,4.02,2.94-17.08-18.81-3.24,3.25-18.89,18.81,3.24,3.59-20.89,20.62,3.55-3.59,20.89,21.16,3.64,3.59-20.89,20.98,3.61-3.59,20.89,19.9,3.42-3.25,18.89-19.9-3.42-2.94,17.08,23.88,4.11Zm-48.9,82.86l2.12-12.35-41.6-7.16-2.12,12.35,41.6,7.16Zm-34.48-48.58l-2.06,11.99,41.6,7.16,2.06-11.99-41.6-7.16Zm17.35-45.64l21.16,3.64,2.94-17.08-21.16-3.64-2.94,17.08Z"/>
      <path class="d" d="M762.73,139.37c-14.1,25.48-36.95,61.08-64.58,76.13-1.34-5.16-5.92-15.08-9.27-19.25,24.95-14,43.05-44.43,55.55-67.01l28.92-52.26,60.86,33.69c.32-3.61,.48-7.32,.45-10.29l20.98,5.29c.02,5.28-.07,11.13-.56,16.55l53.47,29.6-8.93,16.13-116.9-64.71-20,36.13Zm80.25,133.96l-52.03-28.8-9.02,16.29-18.31-10.13,9.02-16.29-48.5-26.84,8.57-15.48,48.5,26.84,4.2-7.58-37.26-20.62,27.94-50.48,37.26,20.62,3.75-6.77-41.91-23.2,7.94-14.35,41.91,23.2,4.11-7.42,18.31,10.13-4.11,7.42,46.57,25.78-7.94,14.35-46.57-25.78-3.75,6.77,39.34,21.78-27.94,50.48-39.34-21.78-4.2,7.58,52.03,28.8-8.57,15.48Zm-51.05-73.77l4.46-8.06-20.55-11.38-4.46,8.06,20.55,11.38Zm-10.02-30.41l20.55,11.38,4.37-7.9-20.55-11.38-4.37,7.9Zm54.47,44.48l-21.68-12-4.46,8.06,21.68,12,4.46-8.06Zm-11.23-30.87l-4.37,7.9,21.68,12,4.37-7.9-21.68-12Z"/>
    </g>
  </g>
</svg>