<?xml version="1.0" encoding="UTF-8"?>
<svg id="b" data-name="圖層 2" xmlns="http://www.w3.org/2000/svg" width="1049.93" height="1049.91" xmlns:xlink="http://www.w3.org/1999/xlink" viewBox="0 0 1049.93 1049.91">
  <defs>
    <style>
      .e {
        fill: url(#d);
        fill-rule: evenodd;
      }
    </style>
    <radialGradient id="d" data-name="未命名漸層 17" cx="524.96" cy="524.95" fx="524.96" fy="524.95" r="524.96" gradientTransform="matrix(1, 0, 0, 1, 0, 0)" gradientUnits="userSpaceOnUse">
      <stop offset=".69" stop-color="#fa7a18"/>
      <stop offset=".99" stop-color="#f7ba95"/>
    </radialGradient>
  </defs>
  <g id="c" data-name="說明">
    <path class="e" d="M643.79,81.42c-14.68-3.74-28.25-14.62-35.87-27.58C591.76,26.07,567.91,.35,524.96,0c-29.99-.21-64.76,10.69-82.99,34.08-1.35,1.66-1.9,4.55,0,7.06,3.64,5.08,4.47,9.79,3.12,14.82-2.36,8.94-12.1,13.84-20.76,18.37-5.73,3-11.8,5.38-18.26,7.09-14.47,4.09-31.75,1.49-44.83-5.94-27.89-15.89-61.42-26.25-98.73-5.13-26.14,14.76-50.78,41.62-54.92,71-.27,2.09,.71,4.89,3.57,6.14,5.74,2.57,8.8,6.23,10.15,11.28,2.36,8.87-3.58,17.97-8.83,26.22-3.43,5.43-7.47,10.64-12.25,15.24-10.48,10.9-26.77,17.2-41.74,17.34-32.18,.14-66.37,7.91-88.12,44.98-15.26,25.8-23.15,61.41-12.09,88.89,.81,1.97,3.06,3.82,6.23,3.58,6.19-.72,10.67,.9,14.39,4.58,6.49,6.6,5.87,17.42,5.45,27.23-.22,6.42-1.2,12.86-2.94,19.29-3.72,14.69-14.62,28.27-27.54,35.89C26.12,458.16,.37,482.08,0,525c-.19,30.01,10.72,64.78,34.08,83.04,1.68,1.25,4.56,1.81,7.05,0,5.14-3.72,9.81-4.54,14.84-3.22,8.94,2.36,13.85,12.08,18.39,20.77,3,5.74,5.4,11.84,7.06,18.26,4.13,14.54,1.54,31.75-5.94,44.82-15.88,27.88-26.22,61.41-5.1,98.81,14.75,26.1,41.59,50.72,71,54.84,2.08,.29,4.87-.71,6.14-3.57,2.59-5.72,6.23-8.75,11.25-10.14,8.9-2.38,17.98,3.56,26.22,8.8,5.46,3.44,10.65,7.59,15.25,12.26,10.92,10.59,17.23,26.76,17.37,41.81,.13,32.1,7.89,66.29,44.98,88.12,25.8,15.18,61.38,23.09,88.88,12.03,1.96-.84,3.84-3.06,3.57-6.15-.7-6.28,.9-10.77,4.59-14.41,6.59-6.56,17.45-5.94,27.22-5.53,6.42,.21,12.89,1.2,19.3,2.96,14.7,3.69,28.24,14.62,35.9,27.54,16.13,27.78,40.07,53.51,83,53.86,30.01,.24,64.75-10.7,83.01-34,1.26-1.69,1.83-4.63,0-7.14-3.72-5.1-4.54-9.79-3.22-14.81,2.41-8.96,12.11-13.79,20.77-18.33,5.8-3.07,11.91-5.46,18.25-7.12,14.63-4.21,31.84-1.5,44.83,5.92,27.93,15.98,61.42,26.32,98.82,5.11,26.11-14.73,50.71-41.61,54.85-70.97,.27-2.11-.69-4.84-3.56-6.15-5.72-2.6-8.75-6.19-10.15-11.2-2.37-8.96,3.57-18.05,8.8-26.3,3.44-5.45,7.58-10.62,12.27-15.24,10.55-10.92,26.76-17.19,41.8-17.29,32.1-.21,66.29-7.96,88.15-44.96,15.16-25.88,23.04-61.48,12.03-88.97-.85-1.93-3.1-3.84-6.17-3.47-6.3,.62-10.77-1-14.41-4.7-6.57-6.5-5.96-17.35-5.53-27.14,.23-6.43,1.2-12.95,2.94-19.35,3.71-14.72,14.62-28.28,27.57-35.9,27.75-16.14,53.49-40.01,53.84-82.96,.29-30-10.71-64.75-34-83.01-1.67-1.35-4.6-1.89-7.11,0-5.11,3.64-9.78,4.45-14.84,3.14-8.95-2.36-13.79-12.11-18.31-20.77-3.02-5.75-5.46-11.81-7.15-18.25-4.12-14.52-1.47-31.75,5.95-44.83,15.94-27.88,26.3-61.42,5.11-98.77-14.78-26.15-41.63-50.78-71.01-54.88-2.1-.29-4.81,.7-6.15,3.55-2.58,5.75-6.16,8.82-11.18,10.14-8.97,2.37-18.05-3.56-26.3-8.8-5.45-3.43-10.65-7.5-15.23-12.24-10.92-10.5-17.22-26.79-17.28-41.78-.21-32.15-7.98-66.34-44.98-88.1-25.88-15.23-61.47-23.16-88.97-12.1-1.93,.85-3.83,3.09-3.47,6.23,.63,6.22-.97,10.69-4.68,14.43-6.5,6.49-17.35,5.86-27.15,5.45-6.42-.22-12.92-1.22-19.36-2.93h0Zm-12.85,47.6c35.43,9.68,68.02,23.25,98.86,41.05,30.93,17.83,60.44,40.58,84.84,65.13,25.38,25.51,47.16,53.61,65.18,84.82,17.86,30.9,32.12,65.38,40.99,98.82,9.23,34.83,13.93,70.09,13.93,106.09s-4.92,72.61-13.93,106.03c-9.38,34.75-22.94,67.62-40.99,98.82-17.75,30.92-40.58,60.43-65.09,84.84-25.53,25.38-53.64,47.2-84.86,65.18-30.82,17.83-65.3,32.09-98.81,40.96-34.73,9.24-70.01,13.93-106.01,13.93s-72.67-4.82-106.09-13.83c-34.77-9.44-67.64-23.04-98.82-41.06-30.91-17.75-60.43-40.57-84.85-65.05-25.37-25.6-47.13-53.73-65.17-84.9-17.83-30.85-32.1-65.33-41.06-98.84-9.14-34.73-13.84-69.99-13.84-106.03s4.81-72.65,13.84-106.07c9.45-34.77,23.02-67.65,41.06-98.84,17.83-30.92,40.57-60.41,65.11-84.88,25.55-25.41,53.64-47.09,84.83-65.13,30.9-17.81,65.33-32.11,98.82-41.05,34.83-9.16,70.07-13.85,106.08-13.85s71.82,4.62,105.99,13.85h0Z"/>
  </g>
</svg>