<svg xmlns="http://www.w3.org/2000/svg" xmlns:xlink="http://www.w3.org/1999/xlink" width="96.26" height="204" viewBox="0 0 96.26 204">
  <defs>
    <radialGradient id="未命名漸層_16" data-name="未命名漸層 16" cx="42" cy="189.5" r="43.07" gradientTransform="translate(0 121) scale(1 0.36)" gradientUnits="userSpaceOnUse">
      <stop offset="0" stop-color="#998675"/>
      <stop offset="0.15" stop-color="#9b8774" stop-opacity="0.97"/>
      <stop offset="0.31" stop-color="#a28b71" stop-opacity="0.88"/>
      <stop offset="0.48" stop-color="#ae926d" stop-opacity="0.74"/>
      <stop offset="0.66" stop-color="#be9b66" stop-opacity="0.53"/>
      <stop offset="0.84" stop-color="#d3a75e" stop-opacity="0.27"/>
      <stop offset="1" stop-color="#e8b356" stop-opacity="0"/>
    </radialGradient>
  </defs>
  <g style="isolation: isolate">
    <g id="圖層_2" data-name="圖層 2">
      <g id="圖層_1-2" data-name="圖層 1">
        <g>
          <g>
            <path d="M6.59,20.5h67.9V171.07A8.93,8.93,0,0,0,65.56,180h-50a8.93,8.93,0,0,0-8.93-8.93Z" style="fill: #da4e36;stroke: #e8b356;stroke-miterlimit: 10;stroke-width: 0.75px"/>
            <ellipse cx="42" cy="189.5" rx="42" ry="14.5" style="mix-blend-mode: multiply;opacity: 0.51;fill: url(#未命名漸層_16)"/>
            <g>
              <path d="M43.72,74.39a13,13,0,0,0,9,7.52,9.71,9.71,0,0,0-1.89,2.56,14.74,14.74,0,0,1-9-7.82c-1.27,3.06-3.87,5.95-9,7.88A10.8,10.8,0,0,0,31,82.17c5.31-1.89,7.56-4.86,8.5-7.78h-7.7v-2.8h8.28c0-.62.07-1.2.07-1.77V67.49H32.64v-2.8H50.85v2.8H43v2.37c0,.56,0,1.13-.05,1.73h8.77v2.8Z" style="fill: #ffe9d7"/>
              <path d="M40.13,91.78a34.86,34.86,0,0,1-6.85,10.08,26,26,0,0,0-2.44-2.35,24.16,24.16,0,0,0,6.24-8.72Zm6.44,10.56a72.05,72.05,0,0,1,5.11,7.93l-2.83,1.5a23.43,23.43,0,0,0-1.2-2.26c-11.1.88-12.67,1-13.79,1.43A25.88,25.88,0,0,0,32.73,108a5.47,5.47,0,0,0,2.3-1.84,42.28,42.28,0,0,0,5.66-8.72l3.19,1.34a52.12,52.12,0,0,1-6.21,8.67l8.44-.56c-.73-1.15-1.49-2.34-2.21-3.35ZM47,90.84A14.83,14.83,0,0,0,52.92,99a14,14,0,0,0-2.07,2.76,20.43,20.43,0,0,1-6-8.12H41.21V90.84Z" style="fill: #ffe9d7"/>
              <path d="M31.72,128.33a65.14,65.14,0,0,0-.83-6.55l1.77-.3a63.38,63.38,0,0,1,.94,6.41Zm20.81,8.19v1.83H40.23v-1.58a10.66,10.66,0,0,1-.88,2.11,10.37,10.37,0,0,0-2-1.33,11,11,0,0,0,.92-2.39l-1.38,1.42c-.35-.73-1-1.81-1.57-2.85a12.34,12.34,0,0,1-2.66,5.15A9.17,9.17,0,0,0,30.91,137c2.6-3.08,2.88-7.17,2.88-11.08v-8.28h2.32v8.17a40.56,40.56,0,0,0,1-4.65l1.88.62v-1.06H43.4v-3.35H46v1.1h5.61v1.61H46v.64h4.37l.37-.07,1.68.28a31.38,31.38,0,0,1-.72,3.75l-2-.32c.07-.49.12-1.08.21-1.73H46.32v.67l2.69-.16.07,1.38-2.76.2c0,.35.14.51.6.51h1.84a9.09,9.09,0,0,0,1.81-.16c.07.64.07,1,.19,1.63a7.14,7.14,0,0,1-1.87.16H46.11c-1.54,0-2-.59-2.16-1.65l-2.14.2-.09-1.79,2.18-.14v-.85H41.31v5.11a31.61,31.61,0,0,1-1,8.74h1.34v-3.41h9.86v3.41ZM36.11,126.47a38.09,38.09,0,0,1-.25,4.53c.69.92,2,2.92,2.5,3.7a30.1,30.1,0,0,0,.6-6.92v-5.59c-.57,1.63-1.1,3.56-1.61,4.76Zm6,.94h9v5.08h-9Zm1.47,9.11h1v-1.8h-1Zm.57-7.18h1.45v-.69H44.11Zm0,1.91h1.45v-.71H44.11ZM46,134.72v1.8h1v-1.8Zm3-6.07H47.45v.69H49Zm0,1.89H47.45v.71H49Zm-.46,4.18v1.8h1v-1.8Z" style="fill: #ffe9d7"/>
            </g>
            <path d="M52.48,42.18v9.27H49V46.27a2.17,2.17,0,0,0-.78.19l-1.09.43a9.91,9.91,0,0,1-1.3.44,5.56,5.56,0,0,1-1.4.19,2.23,2.23,0,0,1-1.84-1,6.63,6.63,0,0,1-1.13-2.51A17.3,17.3,0,0,1,41,40.66h.46A16.62,16.62,0,0,1,41,44.05a7,7,0,0,1-1.13,2.51,2.25,2.25,0,0,1-1.86,1,5.57,5.57,0,0,1-1.41-.19,9.91,9.91,0,0,1-1.3-.44l-1.09-.43a2.17,2.17,0,0,0-.78-.19v5.18H30V42.18a6,6,0,0,1,2.23,0,14.43,14.43,0,0,1,2.25.63l2,.72A4.64,4.64,0,0,0,38,43.9,1.7,1.7,0,0,0,39.56,43a6.64,6.64,0,0,0,.53-3.14h2.3A6.67,6.67,0,0,0,42.91,43a1.7,1.7,0,0,0,1.55.88A4.64,4.64,0,0,0,46,43.58l2-.72a14.55,14.55,0,0,1,2.26-.63A6,6,0,0,1,52.48,42.18Z" style="fill: #e8b356"/>
            <path d="M45.46,157.8a1.7,1.7,0,0,0-1.55.9,6.67,6.67,0,0,0-.52,3.13h-2.3a6.65,6.65,0,0,0-.53-3.13,1.7,1.7,0,0,0-1.54-.9,4.49,4.49,0,0,0-1.52.34l-2,.72a15.58,15.58,0,0,1-2.25.62,6,6,0,0,1-2.23.05v-9.27h3.45v5.18a2.41,2.41,0,0,0,.78-.19l1.09-.44a11.65,11.65,0,0,1,1.3-.43,5.16,5.16,0,0,1,1.41-.19,2.25,2.25,0,0,1,1.86,1A6.85,6.85,0,0,1,42,157.67a16.82,16.82,0,0,1,.46,3.38H42a17.53,17.53,0,0,1,.48-3.38,6.54,6.54,0,0,1,1.13-2.52,2.23,2.23,0,0,1,1.84-1,5.14,5.14,0,0,1,1.4.19,11.65,11.65,0,0,1,1.3.43l1.09.44a2.41,2.41,0,0,0,.78.19v-5.18h3.45v9.27a6,6,0,0,1-2.22-.05,15.71,15.71,0,0,1-2.26-.62l-2-.72A4.5,4.5,0,0,0,45.46,157.8Z" style="fill: #e8b356"/>
          </g>
          <g>
            <path d="M78.77,3.51a2.59,2.59,0,0,1-1.54-1.19A4,4,0,0,0,73.65,0a4.58,4.58,0,0,0-3.57,1.47.24.24,0,0,0,0,.3.73.73,0,0,1,.13.64c-.1.39-.52.6-.89.79a4.19,4.19,0,0,1-.79.31,2.65,2.65,0,0,1-1.93-.26A4,4,0,0,0,62.35,3,4.6,4.6,0,0,0,60,6.09a.25.25,0,0,0,.16.26.7.7,0,0,1,.43.49c.11.38-.15.77-.38,1.13a3.23,3.23,0,0,1-.52.65,2.61,2.61,0,0,1-1.8.75,4,4,0,0,0-3.8,1.94,4.65,4.65,0,0,0-.52,3.83.27.27,0,0,0,.27.15.7.7,0,0,1,.62.2,1.53,1.53,0,0,1,.23,1.17,3.33,3.33,0,0,1-.12.83A2.61,2.61,0,0,1,53.36,19,4,4,0,0,0,51,22.61a4.6,4.6,0,0,0,1.47,3.58.25.25,0,0,0,.3,0,.71.71,0,0,1,.64-.14c.39.1.6.52.79.9a3.53,3.53,0,0,1,.31.78,2.6,2.6,0,0,1-.26,1.93,4.06,4.06,0,0,0-.22,4.26,4.62,4.62,0,0,0,3.06,2.36.27.27,0,0,0,.27-.15.7.7,0,0,1,.48-.44,1.54,1.54,0,0,1,1.13.38,4.14,4.14,0,0,1,.66.53,2.57,2.57,0,0,1,.74,1.8,4,4,0,0,0,1.94,3.79,4.58,4.58,0,0,0,3.83.52.26.26,0,0,0,.15-.26.69.69,0,0,1,.2-.62,1.49,1.49,0,0,1,1.17-.24,3.34,3.34,0,0,1,.83.13,2.63,2.63,0,0,1,1.55,1.18,4,4,0,0,0,3.58,2.32,4.62,4.62,0,0,0,3.57-1.46.25.25,0,0,0,0-.31.73.73,0,0,1-.14-.64c.11-.38.52-.59.9-.79a3.7,3.7,0,0,1,.78-.3A2.54,2.54,0,0,1,80.7,42a4,4,0,0,0,4.26.22,4.54,4.54,0,0,0,2.36-3.06.26.26,0,0,0-.15-.26.72.72,0,0,1-.44-.48,1.59,1.59,0,0,1,.38-1.14,4.07,4.07,0,0,1,.53-.65,2.62,2.62,0,0,1,1.8-.75,4.06,4.06,0,0,0,3.8-1.93,4.68,4.68,0,0,0,.52-3.84.28.28,0,0,0-.27-.15.7.7,0,0,1-.62-.2,1.52,1.52,0,0,1-.24-1.17,3.49,3.49,0,0,1,.13-.83A2.64,2.64,0,0,1,94,26.18a4,4,0,0,0,2.31-3.57A4.57,4.57,0,0,0,94.8,19a.24.24,0,0,0-.31,0,.73.73,0,0,1-.64.13c-.38-.1-.59-.52-.78-.89a3.61,3.61,0,0,1-.31-.79A2.6,2.6,0,0,1,93,15.56a4,4,0,0,0,.22-4.26,4.6,4.6,0,0,0-3-2.36.27.27,0,0,0-.27.15.7.7,0,0,1-.48.44,1.51,1.51,0,0,1-1.13-.38,3.34,3.34,0,0,1-.66-.53,2.56,2.56,0,0,1-.74-1.79A4.06,4.06,0,0,0,85,3a4.59,4.59,0,0,0-3.83-.52.25.25,0,0,0-.15.27.73.73,0,0,1-.21.62,1.51,1.51,0,0,1-1.16.23,4.05,4.05,0,0,1-.84-.12m-.55,2.05a17.58,17.58,0,0,1,4.26,1.77,17.35,17.35,0,0,1,3.65,2.8,18.11,18.11,0,0,1,2.81,3.65A17.84,17.84,0,0,1,90.7,18a17.64,17.64,0,0,1,.6,4.57,17.85,17.85,0,0,1-.6,4.57,17.34,17.34,0,0,1-1.76,4.25,17.53,17.53,0,0,1-2.81,3.66,18.11,18.11,0,0,1-3.65,2.81,17.91,17.91,0,0,1-4.26,1.76,17.51,17.51,0,0,1-4.56.6,17.7,17.7,0,0,1-15.29-8.82A17.57,17.57,0,0,1,56,22.61a17.49,17.49,0,0,1,2.37-8.82,18.39,18.39,0,0,1,2.8-3.66,17.66,17.66,0,0,1,17-4.57" style="fill: #e8b356;fill-rule: evenodd"/>
            <circle cx="73.61" cy="22.67" r="17.62" transform="translate(39.44 91.7) rotate(-80.78)" style="fill: #fc462d"/>
            <path d="M76.54,31.72H73V18.16l-4.2,1.3V16.6L76.16,14h.38Z" style="fill: #fff"/>
          </g>
        </g>
      </g>
    </g>
  </g>
</svg>
