<svg xmlns="http://www.w3.org/2000/svg" width="1307.71" height="574.51" viewBox="0 0 1307.71 574.51">
  <g id="圖層_1" data-name="圖層 1">
    <g id="alltrigger">
      <path id="trigger-8" d="M1.93,245.31l120.9-45,202.1,85.1,0,9.53L204,340,.51,254.81Z" style="fill: #fff"/>
      <path id="trigger-7" d="M126,196,239.19,153.9l159.64,67.26v9.53L297.66,268.35,124.6,196" style="fill: #fff"/>
      <path id="trigger-6" d="M417,91.51,529.11,49.77,700,121.52,598.77,159.2l-22.36-1Z" style="fill: #fff"/>
      <path id="trigger-5" d="M528.1,45.55,648.31.8l23.87.58L872.93,86l-120.2,44.75-23.87-.58Z" style="fill: #fff"/>
      <path id="trigger-4" d="M245.6,151.65,405.82,92.57l158.93,67-.37,9.66L428.2,219.11l-23-.19Z" style="fill: #fff"/>
      <path id="trigger-3" d="M482.66,218.85l134.27-50,24.23.45,129.15,54.42-158.51,59L482.65,228.32Z" style="fill: #fff"/>
      <path id="trigger-2" d="M638.33,328.16l159.51-59.38L872,300l-.36,9.67L736.53,360l-24-.58Z" style="fill: #fff"/>
      <path id="trigger-1" d="M1072.34,501.85l104-46.29,23.65,0,106.11,46,.24,10.39-104,46.28-23.64,0-106.12-46Z" style="fill: #fff"/>
    </g>
  </g>
</svg>
