<svg xmlns="http://www.w3.org/2000/svg" xmlns:xlink="http://www.w3.org/1999/xlink" width="97.26" height="281" viewBox="0 0 97.26 281">
  <defs>
    <radialGradient id="未命名漸層_16" data-name="未命名漸層 16" cx="42" cy="266.5" r="43.07" gradientTransform="translate(0 170.16) scale(1 0.36)" gradientUnits="userSpaceOnUse">
      <stop offset="0" stop-color="#998675"/>
      <stop offset="0.15" stop-color="#9b8774" stop-opacity="0.97"/>
      <stop offset="0.31" stop-color="#a28b71" stop-opacity="0.88"/>
      <stop offset="0.48" stop-color="#ae926d" stop-opacity="0.74"/>
      <stop offset="0.66" stop-color="#be9b66" stop-opacity="0.53"/>
      <stop offset="0.84" stop-color="#d3a75e" stop-opacity="0.27"/>
      <stop offset="1" stop-color="#e8b356" stop-opacity="0"/>
    </radialGradient>
  </defs>
  <g style="isolation: isolate">
    <g id="圖層_2" data-name="圖層 2">
      <g id="圖層_1-2" data-name="圖層 1">
        <g>
          <g>
            <path d="M6.59,22.28h67.9V248.07A8.93,8.93,0,0,0,65.56,257h-50a8.93,8.93,0,0,0-8.93-8.93Z" style="fill: #da4e36;stroke: #e8b356;stroke-miterlimit: 10;stroke-width: 0.75px"/>
            <ellipse cx="42" cy="266.5" rx="42" ry="14.5" style="mix-blend-mode: multiply;opacity: 0.51;fill: url(#未命名漸層_16)"/>
            <g>
              <path d="M36.27,75.64a14.33,14.33,0,0,1-3.29,5,13.31,13.31,0,0,0-2.18-1.54A10.2,10.2,0,0,0,33.67,75Zm4.48-.83h-8.5V60.05h8.5Zm-2.66-12.6H34.82V64.3h3.27Zm0,4.11H34.82v2.14h3.27Zm0,4.17H34.82v2.13h3.27ZM39,75a16.53,16.53,0,0,1,2.53,3.68l-2.3,1.17a18.17,18.17,0,0,0-2.43-3.89Zm13.55-7.87H50V77.52c0,1.38-.27,2.12-1,2.55a7.72,7.72,0,0,1-3.61.58A10.33,10.33,0,0,0,44.46,78c1,0,2.07,0,2.41,0s.48-.13.48-.48v-7A22.27,22.27,0,0,1,42.5,77a13.15,13.15,0,0,0-1.86-2,20.24,20.24,0,0,0,5.77-7.94H41.35V64.55h6V59.22H50v5.33h2.49Z" style="fill: #ffe9d7"/>
              <path d="M39.4,91.05a21.58,21.58,0,0,1-2.49,4.85c.9.81,2.44,2.39,2.86,2.85L38.22,101c-.39-.6-1-1.43-1.63-2.25v9h-2.5V99.33a18.83,18.83,0,0,1-2.42,2,11.31,11.31,0,0,0-1-2.81,15.61,15.61,0,0,0,5.52-5.93H31.3V90.13h3.8a27.08,27.08,0,0,0-1.7-2.71l2.13-1.15a19.63,19.63,0,0,1,1.94,2.87l-1.61,1h1.77l.43-.12Zm12.35-1.47v12.53H49.17v-.83H47.08v6.46H44.41v-6.46H42.34v1.06H39.86V89.58h4.55V86.27h2.67v3.31ZM42.34,92v2.21h2.07V92Zm2.07,6.86V96.61H42.34v2.26ZM47.08,92v2.21h2.09V92Zm2.09,6.86V96.61H47.08v2.26Z" style="fill: #ffe9d7"/>
              <path d="M34.8,122.44v12.47H32.13V114.3H41v8.14Zm0-6.18v1.17h3.61v-1.17Zm3.61,4.21V119.2H34.8v1.27Zm6.74,9.26v4.74h-2.4v-4.74h-2.2a7.46,7.46,0,0,1-2.95,5.15,10.82,10.82,0,0,0-1.74-1.56,5.37,5.37,0,0,0,2.34-3.59H35.88V127.5h2.41v-1.72H36.2v-2.16H47.31v2.16H45.15v1.72h2.53v2.23Zm-2.4-2.23v-1.72H40.62v1.72Zm8.77,4.21c0,1.4-.26,2.16-1.08,2.6a8.21,8.21,0,0,1-3.78.53,10,10,0,0,0-.82-2.72c1,0,2.16,0,2.5,0s.48-.14.48-.46v-9.2H42.5V114.3h9ZM45.1,116.26v1.17h3.72v-1.17Zm3.72,4.25V119.2H45.1v1.31Z" style="fill: #ffe9d7"/>
              <path d="M48.25,153.61a13.52,13.52,0,0,0,4.48,2.66,9.68,9.68,0,0,0-1.81,2.12A15.48,15.48,0,0,1,47.31,156v1.7H43.12v1.49h7.5v2.26H33.12v-2.26h7.22v-1.49H36.27v-1.43a16.27,16.27,0,0,1-3.66,2.35,10.35,10.35,0,0,0-1.74-2.1,13.85,13.85,0,0,0,4.64-2.89H31.07v-2.23h4.4v-6.86H32.29v-2.2h3.18v-1.73H38.2v1.73h7.2v-1.73h2.8v1.73h3.15v2.2H48.2v6.86h4.26v2.23Zm-1.45,1.91a14.65,14.65,0,0,1-1.65-1.91H38.66A14.47,14.47,0,0,1,37,155.52h3.31v-1.43h2.78v1.43Zm-8.6-11v1h7.2v-1Zm0,3.91h7.2v-1H38.2Zm0,2.95h7.2v-1H38.2Z" style="fill: #ffe9d7"/>
              <path d="M47.77,186.15c1.54,0,1.81-.39,2-2.67a7.92,7.92,0,0,0,2.64,1c-.39,3.34-1.29,4.19-4.46,4.19H42.13c-3.84,0-4.92-.79-4.92-3.52V182a45.41,45.41,0,0,1-4.5,2.07,22,22,0,0,0-2-2.41A41.31,41.31,0,0,0,39,177.76H31.35v-2.53h7.27V173h-5.2v-2.48h5.2v-2.78h2.75v2.78h5v1.24a26.54,26.54,0,0,0,2.46-3.1l2.62,1.28a35,35,0,0,1-4.62,5.34h5.36v2.53H43.88a42.4,42.4,0,0,1-3.75,2.6h9.36v2.43h-9.4v2.33c0,.89.32,1,2.18,1Zm-5.18-10.92a30.28,30.28,0,0,0,2.6-2.28H41.12v2.28Z" style="fill: #ffe9d7"/>
              <path d="M38.71,209.59c-.39-.6-1-1.4-1.68-2.21v9H34.34v-8.47a22.31,22.31,0,0,1-2.62,2,14.35,14.35,0,0,0-1-2.81,15.87,15.87,0,0,0,5.91-5.93H31.35v-2.46h4A15,15,0,0,0,33.58,196l2.12-1.15a12.92,12.92,0,0,1,2.11,2.9l-1.56.94h1.81l.49-.12L40,199.63a22.67,22.67,0,0,1-2.62,4.83c.92.78,2.58,2.39,3,2.85Zm13.82,3.52v2.53H38.45v-2.53h2.3V196H50.6v17.11ZM43.4,198.53v3.1h4.44v-3.1Zm4.44,5.56H43.4v3.22h4.44Zm-4.44,9h4.44v-3.34H43.4Z" style="fill: #ffe9d7"/>
            </g>
            <path d="M53.48,41.18v9.27H50V45.27a2.17,2.17,0,0,0-.78.19l-1.09.43a9.91,9.91,0,0,1-1.3.44,5.57,5.57,0,0,1-1.41.19,2.24,2.24,0,0,1-1.84-1,6.78,6.78,0,0,1-1.12-2.51A17.28,17.28,0,0,1,42,39.66h.46A16,16,0,0,1,42,43.05a6.78,6.78,0,0,1-1.12,2.51,2.28,2.28,0,0,1-1.87,1,5.56,5.56,0,0,1-1.4-.19,9.91,9.91,0,0,1-1.3-.44l-1.09-.43a2.17,2.17,0,0,0-.78-.19v5.18H31V41.18a6,6,0,0,1,2.23,0,14.74,14.74,0,0,1,2.25.63l2,.72A4.69,4.69,0,0,0,39,42.9,1.68,1.68,0,0,0,40.55,42a6.52,6.52,0,0,0,.53-3.14h2.3A6.64,6.64,0,0,0,43.91,42a1.69,1.69,0,0,0,1.54.88A4.64,4.64,0,0,0,47,42.58l2-.72a15,15,0,0,1,2.27-.63A6,6,0,0,1,53.48,41.18Z" style="fill: #e8b356"/>
            <path d="M45.45,234.8a1.69,1.69,0,0,0-1.54.9,6.65,6.65,0,0,0-.53,3.13h-2.3a6.52,6.52,0,0,0-.53-3.13,1.68,1.68,0,0,0-1.54-.9,4.54,4.54,0,0,0-1.52.34l-2,.72a16,16,0,0,1-2.25.62,6,6,0,0,1-2.23.05v-9.27h3.45v5.18a2.41,2.41,0,0,0,.78-.19l1.09-.44a11.65,11.65,0,0,1,1.3-.43,5.14,5.14,0,0,1,1.4-.19,2.28,2.28,0,0,1,1.87,1A6.69,6.69,0,0,1,42,234.67a16.13,16.13,0,0,1,.46,3.38H42a17.51,17.51,0,0,1,.49-3.38,6.69,6.69,0,0,1,1.12-2.52,2.24,2.24,0,0,1,1.84-1,5.16,5.16,0,0,1,1.41.19,11.65,11.65,0,0,1,1.3.43l1.09.44a2.41,2.41,0,0,0,.78.19v-5.18h3.45v9.27a6,6,0,0,1-2.22-.05,16.21,16.21,0,0,1-2.27-.62l-2-.72A4.49,4.49,0,0,0,45.45,234.8Z" style="fill: #e8b356"/>
          </g>
          <g>
            <path d="M79.77,3.51a2.59,2.59,0,0,1-1.54-1.19A4,4,0,0,0,74.65,0a4.58,4.58,0,0,0-3.57,1.47.24.24,0,0,0,0,.3.73.73,0,0,1,.13.64c-.1.39-.52.6-.89.79a4.19,4.19,0,0,1-.79.31,2.65,2.65,0,0,1-1.93-.26A4,4,0,0,0,63.35,3,4.6,4.6,0,0,0,61,6.09a.25.25,0,0,0,.16.26.7.7,0,0,1,.43.49c.11.38-.15.77-.38,1.13a3.23,3.23,0,0,1-.52.65,2.61,2.61,0,0,1-1.8.75,4,4,0,0,0-3.8,1.94,4.65,4.65,0,0,0-.52,3.83.27.27,0,0,0,.27.15.7.7,0,0,1,.62.2,1.53,1.53,0,0,1,.23,1.17,3.33,3.33,0,0,1-.12.83A2.61,2.61,0,0,1,54.36,19,4,4,0,0,0,52,22.61a4.6,4.6,0,0,0,1.47,3.58.25.25,0,0,0,.3,0,.71.71,0,0,1,.64-.14c.39.1.6.52.79.9a3.53,3.53,0,0,1,.31.78,2.6,2.6,0,0,1-.26,1.93,4.06,4.06,0,0,0-.22,4.26,4.62,4.62,0,0,0,3.06,2.36.27.27,0,0,0,.27-.15.7.7,0,0,1,.48-.44,1.54,1.54,0,0,1,1.13.38,4.14,4.14,0,0,1,.66.53,2.57,2.57,0,0,1,.74,1.8,4,4,0,0,0,1.94,3.79,4.58,4.58,0,0,0,3.83.52.26.26,0,0,0,.15-.26.69.69,0,0,1,.2-.62,1.49,1.49,0,0,1,1.17-.24,3.34,3.34,0,0,1,.83.13,2.63,2.63,0,0,1,1.55,1.18,4,4,0,0,0,3.58,2.32,4.62,4.62,0,0,0,3.57-1.46.25.25,0,0,0,0-.31.73.73,0,0,1-.14-.64c.11-.38.52-.59.9-.79a3.7,3.7,0,0,1,.78-.3A2.54,2.54,0,0,1,81.7,42a4,4,0,0,0,4.26.22,4.54,4.54,0,0,0,2.36-3.06.26.26,0,0,0-.15-.26.72.72,0,0,1-.44-.48,1.59,1.59,0,0,1,.38-1.14,4.07,4.07,0,0,1,.53-.65,2.62,2.62,0,0,1,1.8-.75,4.06,4.06,0,0,0,3.8-1.93,4.68,4.68,0,0,0,.52-3.84.28.28,0,0,0-.27-.15.7.7,0,0,1-.62-.2,1.52,1.52,0,0,1-.24-1.17,3.49,3.49,0,0,1,.13-.83A2.64,2.64,0,0,1,95,26.18a4,4,0,0,0,2.31-3.57A4.57,4.57,0,0,0,95.8,19a.24.24,0,0,0-.31,0,.73.73,0,0,1-.64.13c-.38-.1-.59-.52-.78-.89a3.61,3.61,0,0,1-.31-.79A2.6,2.6,0,0,1,94,15.56a4,4,0,0,0,.22-4.26,4.6,4.6,0,0,0-3-2.36.27.27,0,0,0-.27.15.7.7,0,0,1-.48.44,1.51,1.51,0,0,1-1.13-.38,3.34,3.34,0,0,1-.66-.53,2.56,2.56,0,0,1-.74-1.79A4.06,4.06,0,0,0,86,3a4.59,4.59,0,0,0-3.83-.52.25.25,0,0,0-.15.27.73.73,0,0,1-.21.62,1.51,1.51,0,0,1-1.16.23,4.05,4.05,0,0,1-.84-.12m-.55,2.05a17.58,17.58,0,0,1,4.26,1.77,17.35,17.35,0,0,1,3.65,2.8,18.11,18.11,0,0,1,2.81,3.65A17.84,17.84,0,0,1,91.7,18a17.64,17.64,0,0,1,.6,4.57,17.85,17.85,0,0,1-.6,4.57,17.34,17.34,0,0,1-1.76,4.25,17.53,17.53,0,0,1-2.81,3.66,18.11,18.11,0,0,1-3.65,2.81,17.91,17.91,0,0,1-4.26,1.76,17.51,17.51,0,0,1-4.56.6,17.7,17.7,0,0,1-15.29-8.82A17.57,17.57,0,0,1,57,22.61a17.49,17.49,0,0,1,2.37-8.82,18.39,18.39,0,0,1,2.8-3.66,17.66,17.66,0,0,1,17-4.57" style="fill: #e8b356;fill-rule: evenodd"/>
            <circle cx="74.61" cy="22.67" r="17.62" style="fill: #fc462d"/>
            <path d="M72.57,21.3h1.88a2.62,2.62,0,0,0,2-.67,2.46,2.46,0,0,0,.64-1.78,2.16,2.16,0,0,0-.63-1.66,2.49,2.49,0,0,0-1.76-.6,2.62,2.62,0,0,0-1.69.55,1.77,1.77,0,0,0-.69,1.45H68.79a4.3,4.3,0,0,1,.75-2.49,4.83,4.83,0,0,1,2.09-1.72,6.89,6.89,0,0,1,3-.62A6.62,6.62,0,0,1,79,15.1a4.6,4.6,0,0,1,1.59,3.71A3.73,3.73,0,0,1,79.85,21a4.78,4.78,0,0,1-1.95,1.57,4.43,4.43,0,0,1,2.23,1.61,4.36,4.36,0,0,1,.74,2.53,4.64,4.64,0,0,1-1.72,3.78A6.93,6.93,0,0,1,74.59,32a6.59,6.59,0,0,1-4.34-1.4,4.58,4.58,0,0,1-1.68-3.7h3.51a2,2,0,0,0,.75,1.63,3.14,3.14,0,0,0,3.81,0,2.27,2.27,0,0,0,.71-1.76c0-1.77-1-2.65-2.92-2.65H72.57Z" style="fill: #fff"/>
          </g>
        </g>
      </g>
    </g>
  </g>
</svg>
