<svg xmlns="http://www.w3.org/2000/svg" xmlns:xlink="http://www.w3.org/1999/xlink" width="97.11" height="200.24" viewBox="0 0 97.11 200.24">
  <defs>
    <radialGradient id="未命名漸層_16" data-name="未命名漸層 16" cx="42" cy="185.74" r="43.07" gradientTransform="translate(0 118.6) scale(1 0.36)" gradientUnits="userSpaceOnUse">
      <stop offset="0" stop-color="#998675"/>
      <stop offset="0.15" stop-color="#9b8774" stop-opacity="0.97"/>
      <stop offset="0.31" stop-color="#a28b71" stop-opacity="0.88"/>
      <stop offset="0.48" stop-color="#ae926d" stop-opacity="0.74"/>
      <stop offset="0.66" stop-color="#be9b66" stop-opacity="0.53"/>
      <stop offset="0.84" stop-color="#d3a75e" stop-opacity="0.27"/>
      <stop offset="1" stop-color="#e8b356" stop-opacity="0"/>
    </radialGradient>
  </defs>
  <g style="isolation: isolate">
    <g id="圖層_2" data-name="圖層 2">
      <g id="圖層_1-2" data-name="圖層 1">
        <g>
          <g>
            <path d="M6.59,22.24h67.9V167.31a8.93,8.93,0,0,0-8.93,8.93h-50a8.93,8.93,0,0,0-8.93-8.93Z" style="fill: #da4e36;stroke: #e8b356;stroke-miterlimit: 10;stroke-width: 0.75px"/>
            <ellipse cx="42" cy="185.74" rx="42" ry="14.5" style="mix-blend-mode: multiply;opacity: 0.51;fill: url(#未命名漸層_16)"/>
            <g>
              <path d="M50.16,77.54c.32,0,.39-.26.44-2.9a6.41,6.41,0,0,0,1.9.9c-.2,3.33-.73,4.16-2.09,4.16h-1.1c-1.66,0-2-.69-2-2.74V72.45h-1c-.27,3.27-1.08,5.89-4,7.55a7.54,7.54,0,0,0-.74-1.2V79h-6.9v1h-2v-7.1a10.32,10.32,0,0,1-.83,1A17.71,17.71,0,0,0,30.91,72a16.29,16.29,0,0,0,2.76-4.51H31.81V63.14h4.46v4.37H34.41l1.06.39c-.17.37-.33.76-.51,1.15h2a6.74,6.74,0,0,0-.49-1l1.41-.55h-.67V63.12h4.44v4.37H38.2a6.34,6.34,0,0,1,.74,1.56h2.85v1.82H38.91v.87h2.42v1.7H38.91v1h2.58v1.7H38.91v1h2.74v.4c1.73-1.25,2.23-3,2.44-5.09H42.55V59.23h8.78V72.45H49.38v4.46c0,.56,0,.63.27.63Zm-16.24-16H31V59.65h2.89V58.5H36v4.25h-2.1Zm-.64,4.55h1.43V64.5H33.28Zm3.54,4.74H34.75v.87h2.07Zm0,2.57H34.75v1h2.07Zm-2.07,3.7h2.07v-1H34.75Zm4.83-14.39H37.44V58.5h2.14v1.12h2.58v1.93H39.58Zm-.94,3.33h1.45V64.52H38.64ZM44.82,63h4.12V61.65H44.82Zm0,3.52h4.12V65.16H44.82Zm0,3.52h4.12V68.66H44.82Z" style="fill: #ffe9d7"/>
              <path d="M52.09,92.72v2.43H31.46V92.72h5a12.31,12.31,0,0,0-.92-2.39l2.23-.44H32.75V87.47H40.5a10.78,10.78,0,0,0-.71-1.65l2.85-.46a10.84,10.84,0,0,1,1,2.11H51v2.42H46.25l2.11.46c-.39.85-.78,1.65-1.14,2.37ZM34.32,96.56H49.47v10.55H46.59v-.78H37.05v.8H34.32Zm2.73,2.27v1.52h9.54V98.83Zm9.54,5.25v-1.66H37.05v1.66ZM38.32,89.89a9.1,9.1,0,0,1,1.17,2.83h4.74a25.12,25.12,0,0,0,1-2.83Z" style="fill: #ffe9d7"/>
              <path d="M34.18,128.34a20.55,20.55,0,0,1-1.47,5.38,9.1,9.1,0,0,0-2.05-1.35c1.47-3.08,1.59-7.59,1.59-10.86v-8h9.93v5.77H34.59V122h1.17v-2.28h1.87V122h1.31v-2.28h1.91V122h1.08v2.12H40.85v2.13h1.7v2.14ZM38,129.51a17.49,17.49,0,0,1-2.09,4.54,13.34,13.34,0,0,0-1.94-1.29,11.89,11.89,0,0,0,1.77-3.82Zm-3.4-5.44c0,.69-.07,1.4-.14,2.13h1.35v-2.13Zm0-8.51v1.63H39.7v-1.63Zm3,8.51v2.13h1.31v-2.13Zm14.23-1.22A16.18,16.18,0,0,1,48.73,130a11,11,0,0,0,3.89,2A9.14,9.14,0,0,0,51,134.21a12.87,12.87,0,0,1-4.11-2.42,14.3,14.3,0,0,1-4.07,2.37,10,10,0,0,0-1-1.68l-1.38.6a16,16,0,0,0-1.86-3.54l2-.83a19.71,19.71,0,0,1,1.75,2.85,12.42,12.42,0,0,0,2.83-1.65,16.87,16.87,0,0,1-2.37-4.81l1.1-.28H42.29v-2.43H43a8.82,8.82,0,0,0-1.36-2.16,3.25,3.25,0,0,0,1.82-3.34v-3.31h6.87v5c0,.64,0,.87.28.87h.73a3.38,3.38,0,0,0,1-.16c0,.64.09,1.54.16,2.12a3.2,3.2,0,0,1-1.15.16h-1c-2,0-2.4-.92-2.4-3V116H45.81v1a5.81,5.81,0,0,1-2.76,5.43h6.81l.44-.09Zm-6.71,2A11.4,11.4,0,0,0,47,128.18a11.71,11.71,0,0,0,1.86-3.36Z" style="fill: #ffe9d7"/>
            </g>
            <path d="M53.48,40.5v9.27H50V44.6a2.35,2.35,0,0,0-.78.18l-1.1.44a9.29,9.29,0,0,1-1.29.43,5.16,5.16,0,0,1-1.41.19,2.24,2.24,0,0,1-1.84-1,6.73,6.73,0,0,1-1.12-2.5A17.5,17.5,0,0,1,42,39h.46a16.14,16.14,0,0,1-.46,3.4,6.73,6.73,0,0,1-1.12,2.5,2.28,2.28,0,0,1-1.87,1,5.14,5.14,0,0,1-1.4-.19,9.9,9.9,0,0,1-1.3-.43l-1.09-.44a2.35,2.35,0,0,0-.78-.18v5.17H31V40.5a6.22,6.22,0,0,1,2.23,0,15.07,15.07,0,0,1,2.25.63l2,.73a5,5,0,0,0,1.52.32,1.69,1.69,0,0,0,1.54-.89,6.49,6.49,0,0,0,.53-3.14h2.3a6.61,6.61,0,0,0,.53,3.14,1.7,1.7,0,0,0,1.54.89A4.92,4.92,0,0,0,47,41.91l2-.73a15,15,0,0,1,2.27-.63A6.17,6.17,0,0,1,53.48,40.5Z" style="fill: #e8b356"/>
            <path d="M45.45,154.05a1.68,1.68,0,0,0-1.54.89,6.65,6.65,0,0,0-.53,3.13h-2.3a6.52,6.52,0,0,0-.53-3.13,1.67,1.67,0,0,0-1.54-.89,4.75,4.75,0,0,0-1.52.33l-2,.72a16.32,16.32,0,0,1-2.25.62,6,6,0,0,1-2.23.05V146.5h3.45v5.18a2.41,2.41,0,0,0,.78-.19l1.09-.44a11.65,11.65,0,0,1,1.3-.43,5.56,5.56,0,0,1,1.4-.19,2.28,2.28,0,0,1,1.87,1A6.69,6.69,0,0,1,42,153.91a16.13,16.13,0,0,1,.46,3.38H42a17.51,17.51,0,0,1,.49-3.38,6.69,6.69,0,0,1,1.12-2.52,2.24,2.24,0,0,1,1.84-1,5.57,5.57,0,0,1,1.41.19,10.83,10.83,0,0,1,1.29.43l1.1.44a2.41,2.41,0,0,0,.78.19V146.5h3.45v9.27a6,6,0,0,1-2.22-.05A16.21,16.21,0,0,1,49,155.1l-2-.72A4.69,4.69,0,0,0,45.45,154.05Z" style="fill: #e8b356"/>
          </g>
          <g>
            <path d="M79.61,3.51a2.62,2.62,0,0,1-1.54-1.19A4,4,0,0,0,74.49,0a4.59,4.59,0,0,0-3.57,1.47.24.24,0,0,0,0,.3.7.7,0,0,1,.13.64c-.1.39-.52.6-.89.79a4.19,4.19,0,0,1-.79.31,2.66,2.66,0,0,1-1.93-.26A4,4,0,0,0,63.19,3a4.6,4.6,0,0,0-2.37,3.06.25.25,0,0,0,.16.26.71.71,0,0,1,.44.49A1.58,1.58,0,0,1,61,8a3.67,3.67,0,0,1-.53.65,2.6,2.6,0,0,1-1.8.75,4,4,0,0,0-3.8,1.94,4.65,4.65,0,0,0-.52,3.83.28.28,0,0,0,.27.15.7.7,0,0,1,.62.2,1.53,1.53,0,0,1,.24,1.17,3.34,3.34,0,0,1-.13.83A2.61,2.61,0,0,1,54.2,19a4,4,0,0,0-2.32,3.57,4.64,4.64,0,0,0,1.47,3.58.25.25,0,0,0,.3,0,.72.72,0,0,1,.64-.14c.39.1.6.52.8.9a3.5,3.5,0,0,1,.3.78,2.55,2.55,0,0,1-.26,1.93,4.06,4.06,0,0,0-.22,4.26A4.64,4.64,0,0,0,58,36.28a.27.27,0,0,0,.27-.15.72.72,0,0,1,.48-.44,1.51,1.51,0,0,1,1.13.38,3.74,3.74,0,0,1,.66.53,2.62,2.62,0,0,1,.75,1.8,4,4,0,0,0,1.93,3.79,4.58,4.58,0,0,0,3.83.52.25.25,0,0,0,.16-.26.66.66,0,0,1,.19-.62,1.52,1.52,0,0,1,1.18-.24,3.49,3.49,0,0,1,.83.13,2.64,2.64,0,0,1,1.54,1.18,4,4,0,0,0,3.58,2.32,4.61,4.61,0,0,0,3.57-1.46.25.25,0,0,0,0-.31.73.73,0,0,1-.14-.64c.11-.38.53-.59.9-.79a3.58,3.58,0,0,1,.79-.3,2.55,2.55,0,0,1,1.93.25,4,4,0,0,0,4.25.22,4.58,4.58,0,0,0,2.37-3.06.25.25,0,0,0-.16-.26.77.77,0,0,1-.44-.48A1.59,1.59,0,0,1,88,37.25a4.07,4.07,0,0,1,.53-.65,2.64,2.64,0,0,1,1.8-.75,4,4,0,0,0,3.8-1.93,4.68,4.68,0,0,0,.52-3.84.28.28,0,0,0-.27-.15.7.7,0,0,1-.62-.2,1.52,1.52,0,0,1-.24-1.17,3.49,3.49,0,0,1,.13-.83,2.64,2.64,0,0,1,1.19-1.55,4,4,0,0,0,2.32-3.57A4.61,4.61,0,0,0,95.64,19a.23.23,0,0,0-.3,0,.74.74,0,0,1-.64.13c-.39-.1-.6-.52-.79-.89a3.61,3.61,0,0,1-.31-.79,2.6,2.6,0,0,1,.26-1.93,4.06,4.06,0,0,0,.22-4.26A4.64,4.64,0,0,0,91,8.94a.27.27,0,0,0-.27.15.7.7,0,0,1-.48.44,1.51,1.51,0,0,1-1.13-.38,3.34,3.34,0,0,1-.66-.53,2.56,2.56,0,0,1-.74-1.79A4.06,4.06,0,0,0,85.8,3,4.58,4.58,0,0,0,82,2.51a.25.25,0,0,0-.15.27.7.7,0,0,1-.2.62,1.53,1.53,0,0,1-1.17.23,4.05,4.05,0,0,1-.84-.12m-.55,2.05A17.73,17.73,0,0,1,87,10.13a17.76,17.76,0,0,1,2.81,3.65A18.29,18.29,0,0,1,91.55,18a18.08,18.08,0,0,1,.6,4.57,18.3,18.3,0,0,1-.6,4.57A17.87,17.87,0,0,1,87,35.09a18.18,18.18,0,0,1-3.66,2.81,17.91,17.91,0,0,1-4.26,1.76,17.51,17.51,0,0,1-4.56.6,17.7,17.7,0,0,1-15.29-8.82,17.42,17.42,0,0,1-2.36-8.83,17.35,17.35,0,0,1,2.36-8.82A18.39,18.39,0,0,1,62,10.13a18,18,0,0,1,3.66-2.8A17.63,17.63,0,0,1,79.06,5.56" style="fill: #e8b356;fill-rule: evenodd"/>
            <circle cx="74.45" cy="22.67" r="17.62" style="fill: #fc462d"/>
            <path d="M69.36,23l1-9h9.93v2.93h-7l-.44,3.81a5.5,5.5,0,0,1,2.66-.67,5.1,5.1,0,0,1,4,1.57A6.26,6.26,0,0,1,80.9,26a6.49,6.49,0,0,1-.73,3.08,5.11,5.11,0,0,1-2.07,2.1,6.48,6.48,0,0,1-3.19.75,6.91,6.91,0,0,1-3-.65,5.35,5.35,0,0,1-2.17-1.83,4.93,4.93,0,0,1-.85-2.69h3.48a2.59,2.59,0,0,0,.77,1.72,2.46,2.46,0,0,0,1.74.61,2.15,2.15,0,0,0,1.83-.85,4,4,0,0,0,.65-2.43,3.29,3.29,0,0,0-.74-2.31,2.73,2.73,0,0,0-2.11-.81,3,3,0,0,0-2,.66l-.34.32Z" style="fill: #fff"/>
          </g>
        </g>
      </g>
    </g>
  </g>
</svg>
