<svg xmlns="http://www.w3.org/2000/svg" xmlns:xlink="http://www.w3.org/1999/xlink" width="97.11" height="196.23" viewBox="0 0 97.11 196.23">
  <defs>
    <radialGradient id="未命名漸層_16" data-name="未命名漸層 16" cx="42" cy="181.73" r="43.07" gradientTransform="translate(0 116.03) scale(1 0.36)" gradientUnits="userSpaceOnUse">
      <stop offset="0" stop-color="#998675"/>
      <stop offset="0.15" stop-color="#9b8774" stop-opacity="0.97"/>
      <stop offset="0.31" stop-color="#a28b71" stop-opacity="0.88"/>
      <stop offset="0.48" stop-color="#ae926d" stop-opacity="0.74"/>
      <stop offset="0.66" stop-color="#be9b66" stop-opacity="0.53"/>
      <stop offset="0.84" stop-color="#d3a75e" stop-opacity="0.27"/>
      <stop offset="1" stop-color="#e8b356" stop-opacity="0"/>
    </radialGradient>
  </defs>
  <g style="isolation: isolate">
    <g id="圖層_2" data-name="圖層 2">
      <g id="圖層_1-2" data-name="圖層 1">
        <g>
          <g>
            <path d="M6.59,21.61h67.9V163.3a8.93,8.93,0,0,0-8.93,8.93h-50a8.93,8.93,0,0,0-8.93-8.93Z" style="fill: #da4e36;stroke: #e8b356;stroke-miterlimit: 10;stroke-width: 0.75px"/>
            <ellipse cx="42" cy="181.73" rx="42" ry="14.5" style="mix-blend-mode: multiply;opacity: 0.51;fill: url(#未命名漸層_16)"/>
            <g>
              <path d="M52.21,64.36a26.46,26.46,0,0,1-3.15,7.89c.36,1.52.78,2.39,1.21,2.39s.53-1.08.6-3.42a5.91,5.91,0,0,0,1.91,1.42c-.34,3.54-1.06,4.53-2.83,4.53-1.13,0-2-1-2.66-2.55a15.92,15.92,0,0,1-3.23,2.85,12.26,12.26,0,0,0-1.9-1.82,14.27,14.27,0,0,0,4.27-3.88,64.89,64.89,0,0,1-1.08-10.14H40.87v2.48H45s0,.62,0,.92c-.07,5.13-.16,7.18-.62,7.8a1.76,1.76,0,0,1-1.27.8,9.53,9.53,0,0,1-2,.09,6.23,6.23,0,0,0-.58-2.16,11.42,11.42,0,0,1-2.57,6,10.21,10.21,0,0,0-2-1.68,8.49,8.49,0,0,0,1.84-3.59l-5.93,2.44L31,72c.69-.18,1.49-.46,2.39-.76V64h-2V61.42h2V56.27H35.9v5.15h1.8V64H35.9V70.3l1.77-.62L38,71.36a22.25,22.25,0,0,0,.37-4.58V59.14h6.92c0-1.08,0-2.13,0-3.19h2.57c0,1.08,0,2.14,0,3.19h1.8A15.48,15.48,0,0,0,47.86,57l1.86-1.1A13,13,0,0,1,52,58.55l-1,.59h1.26v2.49H47.86c.11,2.41.28,4.69.53,6.64a24,24,0,0,0,1.35-4.37Zm-11.34,2v.46a28.21,28.21,0,0,1-.35,4.71,10,10,0,0,0,1.27.07.65.65,0,0,0,.57-.27c.21-.35.28-1.57.33-5Z" style="fill: #ffe9d7"/>
              <path d="M39.05,84.93c-.59,1.93-1.35,4.23-2,6a7.48,7.48,0,0,1,1.66,4.78c0,1.5-.3,2.49-1,3a2.69,2.69,0,0,1-1.29.5,10,10,0,0,1-1.5.07,5.27,5.27,0,0,0-.6-2.37,3.86,3.86,0,0,0,1,0,1.17,1.17,0,0,0,.62-.16,1.87,1.87,0,0,0,.41-1.41,6.46,6.46,0,0,0-1.61-4.18c.46-1.43.94-3.29,1.31-4.79H34.25v18.1H31.76V84h5.13l.39-.1Zm13.39,16.83v2.37H38.18v-2.37h5.93v-1.4H39.72V98.2h4.39V96.93h-4.9V94.65H51.93v2.28H46.82V98.2h4.4v2.16h-4.4v1.4Zm-1-8.12H39.74V85.39H43c.25-.79.51-1.59.67-2.28l3.06.57c-.3.58-.62,1.15-.9,1.71h5.61Zm-2.62-6.23H42.27v1.15h6.58Zm0,3H42.27v1.19h6.58Z" style="fill: #ffe9d7"/>
              <path d="M34.18,125.84a20.55,20.55,0,0,1-1.47,5.38,9.49,9.49,0,0,0-2.05-1.36c1.47-3.08,1.59-7.58,1.59-10.85v-8h9.93v5.77H34.59v2.69h1.17v-2.28h1.87v2.28h1.31v-2.28h1.91v2.28h1.08v2.11H40.85v2.14h1.7v2.14ZM38,127a17.42,17.42,0,0,1-2.09,4.53,14.17,14.17,0,0,0-1.94-1.28,12.12,12.12,0,0,0,1.78-3.82Zm-3.4-5.45c0,.69-.07,1.41-.14,2.14h1.35v-2.14Zm0-8.5v1.63H39.7v-1.63Zm3,8.5v2.14h1.31v-2.14Zm14.23-1.21a16.06,16.06,0,0,1-3.13,7.12,11.33,11.33,0,0,0,3.89,2A9.27,9.27,0,0,0,51,131.7a12.67,12.67,0,0,1-4.11-2.41,14.3,14.3,0,0,1-4.07,2.37,10,10,0,0,0-1-1.68l-1.38.6A16.43,16.43,0,0,0,38.66,127l2-.83a19.18,19.18,0,0,1,1.75,2.85,12.45,12.45,0,0,0,2.83-1.66,16.68,16.68,0,0,1-2.37-4.8l1.1-.28H42.3v-2.43H43a8.89,8.89,0,0,0-1.36-2.17,3.24,3.24,0,0,0,1.82-3.33v-3.31h6.87v5c0,.64,0,.87.28.87h.73a3.38,3.38,0,0,0,1-.16c0,.64.09,1.54.16,2.11a3,3,0,0,1-1.15.16h-1c-2,0-2.4-.92-2.4-3v-2.55H45.81v1a5.81,5.81,0,0,1-2.76,5.43h6.81l.44-.1Zm-6.71,2A11.52,11.52,0,0,0,47,125.68a11.71,11.71,0,0,0,1.86-3.36Z" style="fill: #ffe9d7"/>
            </g>
            <path d="M53.48,38v9.27H50V42.1a2.35,2.35,0,0,0-.78.18l-1.1.44a9.29,9.29,0,0,1-1.29.43,5.16,5.16,0,0,1-1.41.19,2.24,2.24,0,0,1-1.84-1,6.73,6.73,0,0,1-1.12-2.5,16.77,16.77,0,0,1-.49-3.4h.46a16.14,16.14,0,0,1-.46,3.4,6.73,6.73,0,0,1-1.12,2.5,2.28,2.28,0,0,1-1.87,1,5.14,5.14,0,0,1-1.4-.19,9.9,9.9,0,0,1-1.3-.43l-1.09-.44a2.35,2.35,0,0,0-.78-.18v5.17H31V38a6,6,0,0,1,2.23,0,15.07,15.07,0,0,1,2.25.63l2,.72a4.75,4.75,0,0,0,1.52.33,1.69,1.69,0,0,0,1.54-.89,6.52,6.52,0,0,0,.53-3.14h2.3a6.64,6.64,0,0,0,.53,3.14,1.7,1.7,0,0,0,1.54.89A4.69,4.69,0,0,0,47,39.4l2-.72a15,15,0,0,1,2.27-.63A6,6,0,0,1,53.48,38Z" style="fill: #e8b356"/>
            <path d="M45.45,150a1.69,1.69,0,0,0-1.54.9,6.6,6.6,0,0,0-.53,3.12h-2.3a6.48,6.48,0,0,0-.53-3.12A1.68,1.68,0,0,0,39,150a4.75,4.75,0,0,0-1.52.33l-2,.73a17.87,17.87,0,0,1-2.25.62,6,6,0,0,1-2.23,0v-9.26h3.45v5.17a2.35,2.35,0,0,0,.78-.18l1.09-.44a9.91,9.91,0,0,1,1.3-.44,5.54,5.54,0,0,1,1.4-.18,2.3,2.3,0,0,1,1.87,1A6.84,6.84,0,0,1,42,149.89a16.13,16.13,0,0,1,.46,3.38H42a16.77,16.77,0,0,1,.49-3.38,6.84,6.84,0,0,1,1.12-2.52,2.26,2.26,0,0,1,1.84-1,5.56,5.56,0,0,1,1.41.18,9.29,9.29,0,0,1,1.29.44l1.1.44a2.35,2.35,0,0,0,.78.18v-5.17h3.45v9.26a5.94,5.94,0,0,1-2.22,0,17.7,17.7,0,0,1-2.27-.62l-2-.73A4.69,4.69,0,0,0,45.45,150Z" style="fill: #e8b356"/>
          </g>
          <g>
            <path d="M79.61,3.51a2.62,2.62,0,0,1-1.54-1.19A4,4,0,0,0,74.49,0a4.59,4.59,0,0,0-3.57,1.47.24.24,0,0,0,0,.3.7.7,0,0,1,.13.64c-.1.39-.52.6-.89.79a4.19,4.19,0,0,1-.79.31,2.66,2.66,0,0,1-1.93-.26A4,4,0,0,0,63.19,3a4.6,4.6,0,0,0-2.37,3.06.25.25,0,0,0,.16.26.71.71,0,0,1,.44.49A1.58,1.58,0,0,1,61,8a3.67,3.67,0,0,1-.53.65,2.6,2.6,0,0,1-1.8.75,4,4,0,0,0-3.8,1.94,4.65,4.65,0,0,0-.52,3.83.28.28,0,0,0,.27.15.7.7,0,0,1,.62.2,1.53,1.53,0,0,1,.24,1.17,3.34,3.34,0,0,1-.13.83A2.61,2.61,0,0,1,54.2,19a4,4,0,0,0-2.32,3.57,4.64,4.64,0,0,0,1.47,3.58.25.25,0,0,0,.3,0,.72.72,0,0,1,.64-.14c.39.1.6.52.8.9a3.5,3.5,0,0,1,.3.78,2.55,2.55,0,0,1-.26,1.93,4.06,4.06,0,0,0-.22,4.26A4.64,4.64,0,0,0,58,36.28a.27.27,0,0,0,.27-.15.72.72,0,0,1,.48-.44,1.51,1.51,0,0,1,1.13.38,3.74,3.74,0,0,1,.66.53,2.62,2.62,0,0,1,.75,1.8,4,4,0,0,0,1.93,3.79,4.58,4.58,0,0,0,3.83.52.25.25,0,0,0,.16-.26.66.66,0,0,1,.19-.62,1.52,1.52,0,0,1,1.18-.24,3.49,3.49,0,0,1,.83.13,2.64,2.64,0,0,1,1.54,1.18,4,4,0,0,0,3.58,2.32,4.61,4.61,0,0,0,3.57-1.46.25.25,0,0,0,0-.31.73.73,0,0,1-.14-.64c.11-.38.53-.59.9-.79a3.58,3.58,0,0,1,.79-.3,2.55,2.55,0,0,1,1.93.25,4,4,0,0,0,4.25.22,4.58,4.58,0,0,0,2.37-3.06.25.25,0,0,0-.16-.26.77.77,0,0,1-.44-.48A1.59,1.59,0,0,1,88,37.25a4.07,4.07,0,0,1,.53-.65,2.64,2.64,0,0,1,1.8-.75,4,4,0,0,0,3.8-1.93,4.68,4.68,0,0,0,.52-3.84.28.28,0,0,0-.27-.15.7.7,0,0,1-.62-.2,1.52,1.52,0,0,1-.24-1.17,3.49,3.49,0,0,1,.13-.83,2.64,2.64,0,0,1,1.19-1.55,4,4,0,0,0,2.32-3.57A4.61,4.61,0,0,0,95.64,19a.23.23,0,0,0-.3,0,.74.74,0,0,1-.64.13c-.39-.1-.6-.52-.79-.89a3.61,3.61,0,0,1-.31-.79,2.6,2.6,0,0,1,.26-1.93,4.06,4.06,0,0,0,.22-4.26A4.64,4.64,0,0,0,91,8.94a.27.27,0,0,0-.27.15.7.7,0,0,1-.48.44,1.51,1.51,0,0,1-1.13-.38,3.34,3.34,0,0,1-.66-.53,2.56,2.56,0,0,1-.74-1.79A4.06,4.06,0,0,0,85.8,3,4.58,4.58,0,0,0,82,2.51a.25.25,0,0,0-.15.27.7.7,0,0,1-.2.62,1.53,1.53,0,0,1-1.17.23,4.05,4.05,0,0,1-.84-.12m-.55,2.05A17.73,17.73,0,0,1,87,10.13a17.76,17.76,0,0,1,2.81,3.65A18.29,18.29,0,0,1,91.55,18a18.08,18.08,0,0,1,.6,4.57,18.3,18.3,0,0,1-.6,4.57A17.87,17.87,0,0,1,87,35.09a18.18,18.18,0,0,1-3.66,2.81,17.91,17.91,0,0,1-4.26,1.76,17.51,17.51,0,0,1-4.56.6,17.7,17.7,0,0,1-15.29-8.82,17.42,17.42,0,0,1-2.36-8.83,17.35,17.35,0,0,1,2.36-8.82A18.39,18.39,0,0,1,62,10.13a18,18,0,0,1,3.66-2.8A17.63,17.63,0,0,1,79.06,5.56" style="fill: #e8b356;fill-rule: evenodd"/>
            <circle cx="74.45" cy="22.67" r="17.62" style="fill: #fc462d"/>
            <path d="M80.88,16,74,31.72H70.32l6.86-14.89H68.37V14H80.88Z" style="fill: #fff"/>
          </g>
        </g>
      </g>
    </g>
  </g>
</svg>
