<svg xmlns="http://www.w3.org/2000/svg" xmlns:xlink="http://www.w3.org/1999/xlink" width="97.11" height="249.88" viewBox="0 0 97.11 249.88">
  <defs>
    <radialGradient id="未命名漸層_16" data-name="未命名漸層 16" cx="42" cy="235.38" r="43.07" gradientTransform="translate(0 150.29) scale(1 0.36)" gradientUnits="userSpaceOnUse">
      <stop offset="0" stop-color="#998675"/>
      <stop offset="0.15" stop-color="#9b8774" stop-opacity="0.97"/>
      <stop offset="0.31" stop-color="#a28b71" stop-opacity="0.88"/>
      <stop offset="0.48" stop-color="#ae926d" stop-opacity="0.74"/>
      <stop offset="0.66" stop-color="#be9b66" stop-opacity="0.53"/>
      <stop offset="0.84" stop-color="#d3a75e" stop-opacity="0.27"/>
      <stop offset="1" stop-color="#e8b356" stop-opacity="0"/>
    </radialGradient>
  </defs>
  <g style="isolation: isolate">
    <g id="圖層_2" data-name="圖層 2">
      <g id="圖層_1-2" data-name="圖層 1">
        <g>
          <g>
            <path d="M6.59,22.79h67.9V217a8.93,8.93,0,0,0-8.93,8.93h-50A8.93,8.93,0,0,0,6.59,217Z" style="fill: #da4e36;stroke: #e8b356;stroke-miterlimit: 10;stroke-width: 0.75px"/>
            <ellipse cx="42" cy="235.38" rx="42" ry="14.5" style="mix-blend-mode: multiply;opacity: 0.51;fill: url(#未命名漸層_16)"/>
            <g>
              <path d="M47.15,75.62h2V73.27h2.53v5.06H49.12v-.6H39.79V73.32h2.44v2.3h2.34V72.7H38.8V70.54h1.89c-.51-.39-1.18-.88-1.59-1.15a7.61,7.61,0,0,0,2.11-2.67c-.59.14-1.21.25-1.83.37A9.68,9.68,0,0,0,38.27,65a19.7,19.7,0,0,0,6.21-1.65,27.4,27.4,0,0,0-2.37-2.49A16.06,16.06,0,0,1,39.84,62a8.44,8.44,0,0,0-1.43-1.75v.57H36v4.26h2v2.39H36v4.23l2.51-.51.25,2.49-7.29,1.58-.51-2.59c.76-.12,1.61-.28,2.56-.46V67.48h-2.1V65.09h2.1V60.83h-2.3V58.35h7.24v1.82a10.69,10.69,0,0,0,4.94-3.34l2.49.46A12.38,12.38,0,0,1,45,58.37h4.57l.49-.09,1.58.64c-1.44,3.8-4.32,5.91-8.07,7.16l.53.11c-.09.25-.18.48-.27.74h7.4v2.16H47.15v1.45h5.38V72.7H47.15Zm-4.3-12L39,64l-.07-1.57,3.89-.3Zm1.72,7V69.09H42.66a10.73,10.73,0,0,1-1.17,1.45Zm-.18-10.26a19.23,19.23,0,0,1,1.91,2,8.54,8.54,0,0,0,1.93-2Z" style="fill: #ffe9d7"/>
              <path d="M34.84,94.78c-.85-.6-2.62-1.56-3.81-2.23l1.45-2c1.17.55,3,1.44,3.88,2Zm-3,8.55a62.64,62.64,0,0,0,4-7.24l2.11,1.72c-1.1,2.42-2.41,5-3.68,7.25Zm4.48-14.76c-.85-.62-2.66-1.66-3.91-2.35l1.52-2a43.34,43.34,0,0,1,4,2.11Zm12.12,14.21c1.34,0,1.59-.55,1.77-3.15a8.56,8.56,0,0,0,2.42,1c-.37,3.43-1.15,4.58-4,4.58H43.4c-3.2,0-4.12-.83-4.12-4V94.76l-1.74.69L36.48,93,39.28,92V86.52h2.58v4.4l2.3-.9v-6h2.46v5l3.29-1.28,0,0h0l2,.62-.09.44A82.07,82.07,0,0,1,51,99.26l-2.23-.64c.26-1.91.42-5,.49-7.82l-2.6,1.06V100H44.16V92.8l-2.3.94v7.45c0,1.38.23,1.59,1.75,1.59Z" style="fill: #ffe9d7"/>
              <path d="M43.22,120.26v2.39h7.33v2.47H46.92l2.3.82c-.81,1.29-1.71,2.67-2.42,3.66h5v2.51H31.86V129.6h4.52a18.53,18.53,0,0,0-1.9-3.73l1.81-.75H33v-2.47h7.31v-2.39H35.6v-1.12c-1,.46-2,.87-3,1.24a9.87,9.87,0,0,0-1.82-2.53c4.32-1.24,8.46-3.57,10.65-7l2.6,1.17-.65.92a25.44,25.44,0,0,0,9.43,4.9A13.79,13.79,0,0,0,51,120.24a32.08,32.08,0,0,1-3.12-1.33v1.35Zm-6.42,4.86a15.7,15.7,0,0,1,2,3.65l-1.89.83h3.36v-4.48Zm9-7.36a26.42,26.42,0,0,1-4-3,20.82,20.82,0,0,1-3.73,3Zm-2.59,7.36v4.48h2.87L44.55,129a21.61,21.61,0,0,0,2-3.84Z" style="fill: #ffe9d7"/>
              <path d="M49.65,148.83c-.11,1.89-.25,3.45-.39,4.69h2.35V156H48.87a5.87,5.87,0,0,1-.8,2.21,3,3,0,0,1-2.26,1.43,24.18,24.18,0,0,1-3.65,0,7,7,0,0,0-.76-2.41c1.36.13,2.46.13,3.08.13a1.08,1.08,0,0,0,1-.46A2.28,2.28,0,0,0,46,156H32.68c.42-2,.85-4.5,1.27-7.17H31.42V146.3h2.9c.34-2.41.59-4.85.8-7h15s0,1.06,0,1.41c-.09,2.14-.16,4-.25,5.63h2.37v2.53Zm-3.19,4.69c.16-1.2.3-2.76.43-4.69H36.8c-.25,1.66-.51,3.27-.74,4.69h6.33a20.76,20.76,0,0,0-3.87-2.9L40.25,149a19.75,19.75,0,0,1,4.14,2.92l-1.66,1.59Zm-8.74-11.77c-.18,1.47-.39,3-.6,4.55h6a19,19,0,0,0-3.82-2.67L40.89,142a18,18,0,0,1,4,2.6l-1.59,1.7H47c.07-1.36.14-2.87.18-4.55Z" style="fill: #ffe9d7"/>
              <path d="M34.18,181a20.55,20.55,0,0,1-1.47,5.38A9.1,9.1,0,0,0,30.66,185c1.47-3.09,1.59-7.59,1.59-10.86v-8h9.93v5.77H34.59v2.69h1.17v-2.28h1.87v2.28h1.31v-2.28h1.91v2.28h1.08v2.11H40.85v2.14h1.7V181ZM38,182.15a17.42,17.42,0,0,1-2.09,4.53,14.17,14.17,0,0,0-1.94-1.28,12.12,12.12,0,0,0,1.78-3.82Zm-3.4-5.45c0,.69-.07,1.41-.14,2.14h1.35V176.7Zm0-8.5v1.63H39.7V168.2Zm3,8.5v2.14h1.31V176.7Zm14.23-1.21a16.06,16.06,0,0,1-3.13,7.12,11.16,11.16,0,0,0,3.89,2A9.14,9.14,0,0,0,51,186.85a12.87,12.87,0,0,1-4.11-2.42,14.3,14.3,0,0,1-4.07,2.37,10,10,0,0,0-1-1.68l-1.38.6a16,16,0,0,0-1.86-3.54l2-.83a19.18,19.18,0,0,1,1.75,2.85,12.79,12.79,0,0,0,2.83-1.65,16.87,16.87,0,0,1-2.37-4.81l1.1-.28H42.3V175H43a9.08,9.08,0,0,0-1.36-2.17,3.24,3.24,0,0,0,1.82-3.33v-3.31h6.87v5c0,.64,0,.87.28.87h.73a3.38,3.38,0,0,0,1-.16c0,.64.09,1.54.16,2.11a3,3,0,0,1-1.15.17h-1c-2,0-2.4-.92-2.4-3v-2.55H45.81v1A5.81,5.81,0,0,1,43.05,175h6.81l.44-.1Zm-6.71,2A11.4,11.4,0,0,0,47,180.82a11.73,11.73,0,0,0,1.87-3.36Z" style="fill: #ffe9d7"/>
            </g>
            <path d="M53.48,38.86v9.27H50V43a2.35,2.35,0,0,0-.78.18c-.33.12-.69.27-1.1.44a9.29,9.29,0,0,1-1.29.43,5.16,5.16,0,0,1-1.41.19,2.24,2.24,0,0,1-1.84-1,6.73,6.73,0,0,1-1.12-2.5,16.77,16.77,0,0,1-.49-3.4h.46a16.14,16.14,0,0,1-.46,3.4,6.73,6.73,0,0,1-1.12,2.5,2.28,2.28,0,0,1-1.87,1,5.14,5.14,0,0,1-1.4-.19,9.9,9.9,0,0,1-1.3-.43l-1.09-.44a2.4,2.4,0,0,0-.78-.18v5.17H31V38.86a6.22,6.22,0,0,1,2.23,0,15.07,15.07,0,0,1,2.25.63l2,.73a5,5,0,0,0,1.52.32,1.69,1.69,0,0,0,1.54-.89,6.49,6.49,0,0,0,.53-3.14h2.3a6.61,6.61,0,0,0,.53,3.14,1.7,1.7,0,0,0,1.54.89A4.92,4.92,0,0,0,47,40.27l2-.73a15,15,0,0,1,2.27-.63A6.17,6.17,0,0,1,53.48,38.86Z" style="fill: #e8b356"/>
            <path d="M45.45,203.69a1.7,1.7,0,0,0-1.54.89,6.65,6.65,0,0,0-.53,3.13h-2.3a6.52,6.52,0,0,0-.53-3.13,1.69,1.69,0,0,0-1.54-.89,4.75,4.75,0,0,0-1.52.33l-2,.72a16.37,16.37,0,0,1-2.25.63,6.21,6.21,0,0,1-2.23,0v-9.27h3.45v5.18a2.22,2.22,0,0,0,.78-.19l1.09-.43a9.91,9.91,0,0,1,1.3-.44,5.54,5.54,0,0,1,1.4-.18,2.27,2.27,0,0,1,1.87.95A6.84,6.84,0,0,1,42,203.55a16.13,16.13,0,0,1,.46,3.38H42a16.77,16.77,0,0,1,.49-3.38A6.84,6.84,0,0,1,43.61,201a2.23,2.23,0,0,1,1.84-.95,5.56,5.56,0,0,1,1.41.18,9.29,9.29,0,0,1,1.29.44l1.1.43a2.17,2.17,0,0,0,.78.19v-5.18h3.45v9.27a6.16,6.16,0,0,1-2.22,0,16.25,16.25,0,0,1-2.27-.63L47,204A4.69,4.69,0,0,0,45.45,203.69Z" style="fill: #e8b356"/>
          </g>
          <g>
            <path d="M79.61,3.51a2.62,2.62,0,0,1-1.54-1.19A4,4,0,0,0,74.49,0a4.59,4.59,0,0,0-3.57,1.47.24.24,0,0,0,0,.3.7.7,0,0,1,.13.64c-.1.39-.52.6-.89.79a4.19,4.19,0,0,1-.79.31,2.66,2.66,0,0,1-1.93-.26A4,4,0,0,0,63.19,3a4.6,4.6,0,0,0-2.37,3.06.25.25,0,0,0,.16.26.71.71,0,0,1,.44.49A1.58,1.58,0,0,1,61,8a3.67,3.67,0,0,1-.53.65,2.6,2.6,0,0,1-1.8.75,4,4,0,0,0-3.8,1.94,4.65,4.65,0,0,0-.52,3.83.28.28,0,0,0,.27.15.7.7,0,0,1,.62.2,1.53,1.53,0,0,1,.24,1.17,3.34,3.34,0,0,1-.13.83A2.61,2.61,0,0,1,54.2,19a4,4,0,0,0-2.32,3.57,4.64,4.64,0,0,0,1.47,3.58.25.25,0,0,0,.3,0,.72.72,0,0,1,.64-.14c.39.1.6.52.8.9a3.5,3.5,0,0,1,.3.78,2.55,2.55,0,0,1-.26,1.93,4.06,4.06,0,0,0-.22,4.26A4.64,4.64,0,0,0,58,36.28a.27.27,0,0,0,.27-.15.72.72,0,0,1,.48-.44,1.51,1.51,0,0,1,1.13.38,3.74,3.74,0,0,1,.66.53,2.62,2.62,0,0,1,.75,1.8,4,4,0,0,0,1.93,3.79,4.58,4.58,0,0,0,3.83.52.25.25,0,0,0,.16-.26.66.66,0,0,1,.19-.62,1.52,1.52,0,0,1,1.18-.24,3.49,3.49,0,0,1,.83.13,2.64,2.64,0,0,1,1.54,1.18,4,4,0,0,0,3.58,2.32,4.61,4.61,0,0,0,3.57-1.46.25.25,0,0,0,0-.31.73.73,0,0,1-.14-.64c.11-.38.53-.59.9-.79a3.58,3.58,0,0,1,.79-.3,2.55,2.55,0,0,1,1.93.25,4,4,0,0,0,4.25.22,4.58,4.58,0,0,0,2.37-3.06.25.25,0,0,0-.16-.26.77.77,0,0,1-.44-.48A1.59,1.59,0,0,1,88,37.25a4.07,4.07,0,0,1,.53-.65,2.64,2.64,0,0,1,1.8-.75,4,4,0,0,0,3.8-1.93,4.68,4.68,0,0,0,.52-3.84.28.28,0,0,0-.27-.15.7.7,0,0,1-.62-.2,1.52,1.52,0,0,1-.24-1.17,3.49,3.49,0,0,1,.13-.83,2.64,2.64,0,0,1,1.19-1.55,4,4,0,0,0,2.32-3.57A4.61,4.61,0,0,0,95.64,19a.23.23,0,0,0-.3,0,.74.74,0,0,1-.64.13c-.39-.1-.6-.52-.79-.89a3.61,3.61,0,0,1-.31-.79,2.6,2.6,0,0,1,.26-1.93,4.06,4.06,0,0,0,.22-4.26A4.64,4.64,0,0,0,91,8.94a.27.27,0,0,0-.27.15.7.7,0,0,1-.48.44,1.51,1.51,0,0,1-1.13-.38,3.34,3.34,0,0,1-.66-.53,2.56,2.56,0,0,1-.74-1.79A4.06,4.06,0,0,0,85.8,3,4.58,4.58,0,0,0,82,2.51a.25.25,0,0,0-.15.27.7.7,0,0,1-.2.62,1.53,1.53,0,0,1-1.17.23,4.05,4.05,0,0,1-.84-.12m-.55,2.05A17.73,17.73,0,0,1,87,10.13a17.76,17.76,0,0,1,2.81,3.65A18.29,18.29,0,0,1,91.55,18a18.08,18.08,0,0,1,.6,4.57,18.3,18.3,0,0,1-.6,4.57A17.87,17.87,0,0,1,87,35.09a18.18,18.18,0,0,1-3.66,2.81,17.91,17.91,0,0,1-4.26,1.76,17.51,17.51,0,0,1-4.56.6,17.7,17.7,0,0,1-15.29-8.82,17.42,17.42,0,0,1-2.36-8.83,17.35,17.35,0,0,1,2.36-8.82A18.39,18.39,0,0,1,62,10.13a18,18,0,0,1,3.66-2.8A17.63,17.63,0,0,1,79.06,5.56" style="fill: #e8b356;fill-rule: evenodd"/>
            <circle cx="74.45" cy="22.67" r="17.62" style="fill: #fc462d"/>
            <path d="M78.38,13.82v2.89H78A6,6,0,0,0,74.2,18a5,5,0,0,0-1.75,3.35A4.79,4.79,0,0,1,76,19.86a4.52,4.52,0,0,1,3.67,1.66,6.6,6.6,0,0,1,1.36,4.35A6.49,6.49,0,0,1,80.3,29a5.28,5.28,0,0,1-2.11,2.18,6.18,6.18,0,0,1-3.1.78A5.74,5.74,0,0,1,70.57,30a7.54,7.54,0,0,1-1.72-5.19V23.55a11.31,11.31,0,0,1,1.09-5.09A8,8,0,0,1,73.06,15a9.08,9.08,0,0,1,4.73-1.22ZM74.94,22.7a2.85,2.85,0,0,0-1.54.44,2.74,2.74,0,0,0-1,1.17v1.07a4.74,4.74,0,0,0,.69,2.75,2.24,2.24,0,0,0,2,1,2.21,2.21,0,0,0,1.83-.89,3.61,3.61,0,0,0,.7-2.31,3.62,3.62,0,0,0-.71-2.33A2.28,2.28,0,0,0,74.94,22.7Z" style="fill: #fff"/>
          </g>
        </g>
      </g>
    </g>
  </g>
</svg>
