<?xml version="1.0" encoding="UTF-8"?>
<svg id="b" data-name="圖層 2" xmlns="http://www.w3.org/2000/svg" width="317.67" height="116.6" xmlns:xlink="http://www.w3.org/1999/xlink" viewBox="0 0 317.67 116.6">
  <defs>
    <style>
      .e, .f {
        fill: none;
      }

      .g {
        opacity: .18;
      }

      .h {
        fill: #da4e36;
      }

      .f {
        stroke: #fc462d;
        stroke-width: .59px;
      }

      .f, .i, .j {
        stroke-miterlimit: 10;
      }

      .i {
        stroke: url(#d);
        stroke-width: .6px;
      }

      .i, .k {
        fill: #fc462d;
      }

      .j {
        fill: #ffe9d7;
        stroke: #da4e36;
        stroke-width: 2.46px;
      }
    </style>
    <pattern id="d" data-name="Unnamed Pattern" x="0" y="0" width="920.6" height="184.56" patternTransform="translate(-2711.22 -3971.05) scale(.5)" patternUnits="userSpaceOnUse" viewBox="0 0 920.6 184.56">
      <g>
        <rect class="e" width="920.6" height="184.56"/>
        <g class="g">
          <g>
            <path class="k" d="M0,26.15h129.49V2.49H0v23.66ZM49.18,82.17h31.13V24.53h-31.13v57.65Z"/>
            <path class="k" d="M173.06,82.17v-22.41h48.68c6.64,0,11.56.25,14.75.75,3.19.5,5.27,1.39,6.23,2.68.95,1.29,1.43,3.17,1.43,5.67v13.32h31.13v-17.06c0-3.65-1.06-6.45-3.17-8.4-2.12-1.95-5.85-3.3-11.21-4.05-5.35-.75-12.97-1.16-22.85-1.25l9.09,1.74c4.07-.17,7.97-.62,11.7-1.37,3.73-.75,7.05-1.95,9.96-3.61,2.9-1.66,5.19-3.98,6.85-6.97,1.66-2.99,2.49-6.76,2.49-11.33,0-6.89-1.76-12.33-5.29-16.31-3.53-3.98-8.3-6.83-14.32-8.53-6.02-1.7-12.8-2.55-20.36-2.55h-96.24v79.68h31.13ZM173.06,27.39h65.12c2.49,0,4.59.4,6.29,1.18,1.7.79,2.55,2.26,2.55,4.42,0,2.32-.85,3.9-2.55,4.73-1.7.83-3.8,1.24-6.29,1.24h-65.12v-11.58Z"/>
            <path class="k" d="M322.1,82.17l45.82-71.34h-18.55l46.19,71.34h34.24L375.88,2.49h-34.61l-53.41,79.68h34.24ZM400.91,70.1v-18.68h-85.16v18.68h85.16Z"/>
            <path class="k" d="M439.75,2.49v79.68h31.13v-24.28h77.19v-21.17h-77.19v-10.58h94.38V2.49h-125.5Z"/>
            <path class="k" d="M580.2,2.49v79.68h31.13v-24.28h77.19v-21.17h-77.19v-10.58h94.38V2.49h-125.5Z"/>
            <path class="k" d="M722.51,82.17h31.13V2.49h-31.13v79.68Z"/>
            <path class="k" d="M888.1,48.93c-1,2.16-2.82,4.17-5.48,6.04-2.66,1.87-6.62,3.34-11.89,4.42-5.27,1.08-12.43,1.62-21.48,1.62-10.63,0-19.26-.62-25.9-1.87-6.64-1.25-11.5-3.19-14.57-5.85-3.07-2.66-4.61-6.1-4.61-10.33,0-4.65,1.54-8.38,4.61-11.21,3.07-2.82,7.93-4.88,14.57-6.16,6.64-1.29,15.27-1.93,25.9-1.93,9.05,0,16.23.58,21.54,1.74,5.31,1.16,9.29,2.76,11.95,4.79,2.66,2.04,4.48,4.38,5.48,7.04h32.37c-.42-7.97-3.28-14.73-8.59-20.29-5.31-5.56-13.16-9.77-23.53-12.64-10.38-2.86-23.45-4.29-39.22-4.29-12.04,0-22.83.71-32.37,2.12-9.55,1.41-17.68,3.76-24.4,7.03-6.72,3.28-11.87,7.68-15.44,13.2-3.57,5.52-5.35,12.39-5.35,20.61s1.78,15.02,5.35,20.42c3.57,5.4,8.72,9.65,15.44,12.76,6.72,3.11,14.86,5.31,24.4,6.6,9.54,1.29,20.34,1.93,32.37,1.93,15.77,0,28.82-1.33,39.16-3.98,10.33-2.66,18.16-6.64,23.47-11.95,5.31-5.31,8.17-11.91,8.59-19.8h-32.37Z"/>
            <path class="k" d="M36.11,182.07v-22.41h48.68c6.64,0,11.56.25,14.75.75,3.19.5,5.27,1.39,6.23,2.68.95,1.29,1.43,3.17,1.43,5.67v13.32h31.13v-17.06c0-3.65-1.06-6.45-3.17-8.4-2.12-1.95-5.85-3.3-11.21-4.05-5.35-.75-12.97-1.16-22.85-1.25l9.09,1.74c4.07-.17,7.97-.62,11.7-1.37,3.73-.75,7.05-1.95,9.96-3.61,2.9-1.66,5.19-3.98,6.85-6.97,1.66-2.99,2.49-6.76,2.49-11.33,0-6.89-1.76-12.33-5.29-16.31-3.53-3.98-8.3-6.83-14.32-8.53-6.02-1.7-12.81-2.55-20.36-2.55H4.98v79.68h31.13ZM36.11,127.29h65.12c2.49,0,4.59.4,6.29,1.18,1.7.79,2.55,2.26,2.55,4.42,0,2.32-.85,3.9-2.55,4.73-1.7.83-3.8,1.24-6.29,1.24H36.11v-11.58Z"/>
            <path class="k" d="M276.16,179.77c11.04-3.19,19.07-7.93,24.09-14.19,5.02-6.27,7.53-14.05,7.53-23.34s-2.51-17.08-7.53-23.34c-5.02-6.27-13.05-11-24.09-14.19-11.04-3.19-25.61-4.79-43.7-4.79s-32.66,1.6-43.7,4.79c-11.04,3.2-19.07,7.93-24.09,14.19-5.02,6.27-7.53,14.05-7.53,23.34s2.51,17.08,7.53,23.34c5.02,6.27,13.05,11,24.09,14.19,11.04,3.19,25.61,4.79,43.7,4.79s32.66-1.6,43.7-4.79ZM209.98,159.35c-6.43-1.04-11.45-2.9-15.06-5.6-3.61-2.7-5.42-6.54-5.42-11.52s1.81-8.82,5.42-11.52c3.61-2.7,8.63-4.56,15.06-5.6,6.43-1.04,13.92-1.56,22.47-1.56s15.94.52,22.16,1.56c6.23,1.04,11.04,2.91,14.44,5.6,3.4,2.7,5.1,6.54,5.1,11.52s-1.7,8.82-5.1,11.52c-3.4,2.7-8.22,4.57-14.44,5.6-6.23,1.04-13.61,1.56-22.16,1.56s-16.04-.52-22.47-1.56Z"/>
            <path class="k" d="M430.98,151.81c-3.28,3.49-7.95,5.87-14.01,7.16-6.06,1.29-13.2,1.93-21.42,1.93s-15.71-.64-21.73-1.93c-6.02-1.29-10.65-3.67-13.88-7.16-3.24-3.49-4.86-8.55-4.86-15.19v-34.24h-31.13v39.84c0,7.06,1.26,13.05,3.8,17.99,2.53,4.94,6.04,9.01,10.52,12.2,4.48,3.2,9.73,5.67,15.75,7.41,6.02,1.74,12.55,2.97,19.61,3.67,7.05.71,14.36,1.06,21.91,1.06,7.14,0,14.17-.35,21.1-1.06,6.93-.71,13.43-1.93,19.48-3.67,6.06-1.74,11.41-4.21,16.06-7.41,4.65-3.19,8.28-7.26,10.89-12.2,2.61-4.94,3.92-10.94,3.92-17.99v-39.84h-31.13v34.24c0,6.64-1.64,11.7-4.92,15.19Z"/>
            <path class="k" d="M479.47,126.04h129.49v-23.66h-129.49v23.66ZM528.65,182.07h31.13v-57.65h-31.13v57.65Z"/>
            <path class="k" d="M729.73,148.45v-12.45h-77.19v-9.96h94.38v-23.66h-125.5v79.68h125.75v-23.66h-94.62v-9.96h77.19Z"/>
            <path class="k" d="M761.79,163.7c1.87,3.28,4.59,6.22,8.16,8.84,3.57,2.61,7.93,4.81,13.07,6.6,5.15,1.79,11.02,3.13,17.62,4.05,6.6.91,13.84,1.37,21.73,1.37,13.94,0,25.23-.96,33.87-2.86,8.63-1.91,14.94-4.86,18.92-8.84,3.98-3.98,5.98-9.13,5.98-15.44,0-3.65-.87-6.83-2.61-9.52-1.74-2.7-4.54-4.92-8.4-6.66-3.86-1.74-8.9-3.05-15.13-3.92-6.23-.87-13.78-1.31-22.66-1.31-8.05,0-14.69-.08-19.92-.25-5.23-.17-9.28-.48-12.14-.93-2.86-.46-4.88-1.06-6.04-1.81-1.16-.75-1.74-1.74-1.74-2.99,0-2.41,2.1-4.11,6.29-5.1,4.19-1,10.6-1.49,19.24-1.49s15.44.73,20.17,2.18c4.73,1.45,7.3,3.55,7.72,6.29h32.25c0-10.38-5.04-18.32-15.13-23.84-10.08-5.52-24.67-8.28-43.76-8.28-13.03,0-23.89,1.02-32.56,3.05-8.67,2.03-15.15,5.1-19.42,9.21-4.28,4.11-6.41,9.32-6.41,15.63,0,3.65.91,6.79,2.74,9.4,1.83,2.61,4.67,4.77,8.53,6.47,3.86,1.7,8.8,2.95,14.82,3.73,6.02.79,13.18,1.18,21.48,1.18,11.12,0,19.75.17,25.9.5,6.14.33,10.42.93,12.82,1.8,2.41.87,3.61,2.1,3.61,3.67,0,1.66-.75,2.97-2.24,3.92-1.49.96-4.05,1.62-7.66,1.99-3.61.37-8.53.56-14.75.56s-11.85-.31-16.62-.93c-4.77-.62-8.57-1.54-11.39-2.74-2.82-1.2-4.52-2.68-5.1-4.42h-33.99c0,3.98.93,7.62,2.8,10.89Z"/>
          </g>
        </g>
      </g>
    </pattern>
  </defs>
  <g id="c" data-name="圖層 2">
    <g class="g">
      <path class="i" d="M14.17,25.51L.52,1.1h10.75l11.52,22.69-3.62.08L29.95,1.1h11.52l10.79,22.76-3.62-.08L60.15,1.1h10.6l-13.5,24.4h-12.89l-10.52-20.55h3.74l-10.52,20.55h-12.89Z"/>
      <path class="i" d="M94.21,26.27c-5.54,0-10-.49-13.38-1.47-3.38-.98-5.84-2.43-7.38-4.35s-2.31-4.3-2.31-7.15.77-5.23,2.31-7.15c1.54-1.92,4-3.37,7.38-4.35,3.38-.98,7.84-1.47,13.38-1.47s10,.49,13.38,1.47c3.38.98,5.84,2.43,7.38,4.35,1.54,1.92,2.31,4.3,2.31,7.15s-.77,5.23-2.31,7.15c-1.54,1.92-4,3.37-7.38,4.35-3.38.98-7.84,1.47-13.38,1.47ZM94.21,19.02c2.62,0,4.88-.16,6.79-.48,1.91-.32,3.38-.89,4.42-1.72s1.56-2,1.56-3.53-.52-2.7-1.56-3.53c-1.04-.83-2.52-1.4-4.42-1.72-1.91-.32-4.17-.48-6.79-.48s-4.91.16-6.88.48c-1.97.32-3.51.89-4.61,1.72-1.11.83-1.66,2-1.66,3.53s.55,2.7,1.66,3.53c1.11.83,2.64,1.4,4.61,1.72,1.97.32,4.26.48,6.88.48Z"/>
      <path class="i" d="M122.23,25.51V1.1h29.48c2.31,0,4.39.26,6.23.78,1.84.52,3.3,1.39,4.39,2.61,1.08,1.22,1.62,2.89,1.62,5,0,1.4-.25,2.56-.76,3.47-.51.92-1.21,1.63-2.1,2.14-.89.51-1.91.88-3.05,1.11s-2.34.37-3.58.42l-2.78-.53c3.02.03,5.36.15,7,.38,1.64.23,2.78.64,3.43,1.24.65.6.97,1.46.97,2.57v5.22h-9.53v-4.08c0-.76-.15-1.34-.44-1.73-.29-.39-.93-.67-1.91-.82-.98-.15-2.48-.23-4.52-.23h-14.91v6.86h-9.53ZM131.76,12.28h19.94c.76,0,1.4-.13,1.93-.38.52-.25.78-.74.78-1.45,0-.66-.26-1.11-.78-1.35-.52-.24-1.16-.36-1.93-.36h-19.94v3.55Z"/>
      <path class="i" d="M167.88,16.55h10.41c.18.53.7.99,1.56,1.35.86.37,2.03.65,3.49.84,1.46.19,3.16.29,5.09.29s3.41-.06,4.52-.17c1.11-.11,1.89-.32,2.35-.61.46-.29.69-.69.69-1.2,0-.48-.37-.86-1.11-1.12-.74-.27-2.05-.45-3.93-.55-1.88-.1-4.52-.15-7.93-.15-2.54,0-4.73-.12-6.58-.36s-3.36-.62-4.54-1.14c-1.18-.52-2.05-1.18-2.61-1.98-.56-.8-.84-1.76-.84-2.88,0-1.93.65-3.53,1.96-4.79,1.31-1.26,3.29-2.2,5.95-2.82,2.66-.62,5.98-.93,9.97-.93,5.85,0,10.31.85,13.4,2.54,3.09,1.69,4.63,4.12,4.63,7.3h-9.88c-.13-.84-.92-1.48-2.36-1.93-1.45-.44-3.51-.67-6.18-.67s-4.61.15-5.89.46c-1.28.3-1.93.83-1.93,1.56,0,.38.18.69.53.92.36.23.97.41,1.85.55.88.14,2.12.24,3.72.29,1.6.05,3.63.08,6.1.08,2.72,0,5.03.13,6.94.4s3.45.67,4.63,1.2c1.18.53,2.04,1.21,2.57,2.04.53.83.8,1.8.8,2.92,0,1.93-.61,3.51-1.83,4.73-1.22,1.22-3.15,2.12-5.8,2.71-2.64.58-6.1.88-10.37.88-2.42,0-4.63-.14-6.65-.42-2.02-.28-3.82-.69-5.4-1.24-1.58-.55-2.91-1.22-4-2.02-1.09-.8-1.93-1.7-2.5-2.71-.57-1-.86-2.12-.86-3.34Z"/>
      <path class="i" d="M209.48,1.1h9.53v24.4h-9.53V1.1ZM217.64,9.53h26.85v7.25h-26.85v-7.25ZM243.42,1.1h9.53v24.4h-9.53V1.1Z"/>
      <path class="i" d="M258.86,1.1h9.53v24.4h-9.53V1.1Z"/>
      <path class="i" d="M283.15,19.22v-6.67h19.03c.76,0,1.4-.12,1.93-.36.52-.24.78-.76.78-1.54s-.26-1.33-.78-1.56c-.52-.23-1.16-.34-1.93-.34h-18.42v16.78h-9.53V1.1h26.46c1.91,0,3.69.13,5.36.4,1.67.27,3.12.74,4.37,1.43,1.25.69,2.22,1.65,2.94,2.9.71,1.25,1.07,2.85,1.07,4.8s-.36,3.51-1.07,4.65c-.71,1.14-1.69,2-2.94,2.55-1.25.56-2.7.93-4.37,1.11-1.67.18-3.45.27-5.36.27h-17.54Z"/>
      <path class="i" d="M32.7,53.2h-5.72l20.82-21.51h9.53v24.4h-9.53v-16.63l2.86,1.18-15.06,15.44h-11.44l-15.1-15.41,2.9-1.18v16.59H2.42v-24.4h9.53l20.74,21.51Z"/>
      <path class="i" d="M60.38,56.1l16.36-24.4h10.6l16.51,24.4h-10.49l-14.15-21.85h5.68l-14.03,21.85h-10.49ZM68.92,52.4v-5.72h26.08v5.72h-26.08Z"/>
      <path class="i" d="M115.75,49.81v-6.67h19.03c.76,0,1.4-.12,1.93-.36.52-.24.78-.76.78-1.54s-.26-1.33-.78-1.56c-.52-.23-1.16-.34-1.93-.34h-18.42v16.78h-9.53v-24.4h26.46c1.91,0,3.69.13,5.36.4,1.66.27,3.12.74,4.37,1.43,1.25.69,2.22,1.65,2.94,2.9.71,1.25,1.07,2.85,1.07,4.8s-.36,3.51-1.07,4.65c-.71,1.14-1.69,2-2.94,2.55-1.25.56-2.7.93-4.37,1.11-1.67.18-3.45.27-5.36.27h-17.54Z"/>
    </g>
    <g>
      <circle class="j" cx="93.66" cy="84.32" r="28.82"/>
      <circle class="j" cx="157.64" cy="84.32" r="28.82"/>
      <circle class="j" cx="221.41" cy="84.32" r="28.82"/>
      <circle class="j" cx="285.39" cy="84.32" r="28.82"/>
      <path class="h" d="M113.11,67.59v4.23h-31.93v8.68c0,6.84-.56,17.27-3.89,23.81-.81-.85-2.91-2.39-3.89-2.86,2.86-6.03,3.12-14.7,3.12-20.94v-12.91h15.26c-.43-.77-.9-1.54-1.37-2.14l4.36-1.71c.98,1.11,1.84,2.56,2.44,3.85h15.9ZM112.09,99.35c0,2.14-.38,3.33-1.75,4.06-1.28.68-3.25.77-5.94.77-.17-1.2-.73-3.08-1.28-4.23,1.58.04,3.29.04,3.8.04.56,0,.73-.17.73-.68v-6.15h-5c-.6,4.06-1.84,8.16-4.4,11.24-.64-.9-2.48-2.48-3.42-3.03.64-.77,1.2-1.67,1.67-2.61h-4.62v5.51h-4.36v-5.51h-6.33v-3.93h6.33v-2.05h-4.7v-11.97h4.7v-1.88h-5.43v-3.55h5.43v-2.78h4.36v2.78h5.56v3.55h-5.56v1.88h4.92v11.97h-4.92v2.05h5.64v1.41c1.15-3.63,1.28-7.56,1.28-10.81v-11.41h13.29v25.34ZM86.66,85.41h6.11v-1.79h-6.11v1.79ZM86.66,89.9h6.11v-1.84h-6.11v1.84ZM107.64,89.56v-4.1h-4.45c0,1.28-.04,2.65-.13,4.1h4.57ZM103.2,78.02v3.89h4.45v-3.89h-4.45Z"/>
      <path class="h" d="M143.54,93.24c-.56,3.63-1.41,7.14-2.74,10-.81-.77-2.74-2.09-3.8-2.52,2.74-5.73,2.95-14.1,2.95-20.17v-14.92h18.46v10.73h-14.1v5h2.18v-4.23h3.46v4.23h2.44v-4.23h3.55v4.23h2.01v3.93h-2.01v3.98h3.16v3.97h-15.56ZM150.55,95.42c-.9,2.99-2.44,6.33-3.89,8.42-.77-.68-2.56-1.84-3.59-2.39,1.37-1.84,2.61-4.57,3.29-7.09l4.19,1.07ZM144.22,85.29c-.04,1.28-.13,2.61-.26,3.98h2.52v-3.98h-2.27ZM144.31,69.47v3.03h9.49v-3.03h-9.49ZM149.95,85.29v3.98h2.44v-3.98h-2.44ZM176.41,83.02c-1.11,5.51-3.08,9.87-5.81,13.25,2.01,1.58,4.4,2.86,7.22,3.68-1.03.98-2.35,2.91-2.95,4.19-2.99-1.07-5.47-2.61-7.65-4.49-2.18,1.88-4.74,3.29-7.56,4.4-.38-.9-1.07-2.18-1.75-3.12l-2.56,1.11c-.56-1.75-2.09-4.57-3.46-6.58l3.72-1.54c1.2,1.62,2.44,3.63,3.25,5.3,1.92-.81,3.68-1.84,5.26-3.08-1.88-2.56-3.29-5.51-4.4-8.93l2.05-.51h-3.12v-4.53h1.33c-.43-1.11-1.79-3.29-2.52-4.02,3.08-1.71,3.38-3.85,3.38-6.2v-6.15h12.78v9.23c0,1.2.09,1.62.51,1.62h1.37c.47,0,1.37-.09,1.88-.3.04,1.2.17,2.86.3,3.93-.56.26-1.41.3-2.14.3h-1.88c-3.76,0-4.45-1.71-4.45-5.64v-4.74h-4.02v1.88c0,3.59-.98,7.78-5.13,10.09h12.65l.81-.17,2.91,1.03ZM163.93,86.7c.85,2.35,1.92,4.44,3.38,6.24,1.45-1.75,2.56-3.89,3.46-6.24h-6.84Z"/>
      <path class="f" d="M100.9,57.29c-.89-.23-1.72-.89-2.19-1.68-.98-1.69-2.44-3.26-5.06-3.28-1.83-.01-3.95.65-5.06,2.08-.08.1-.12.28,0,.43.22.31.27.6.19.9-.14.54-.74.84-1.27,1.12-.35.18-.72.33-1.11.43-.88.25-1.93.09-2.73-.36-1.7-.97-3.74-1.6-6.02-.31-1.59.9-3.09,2.54-3.35,4.33-.02.13.04.3.22.37.35.16.54.38.62.69.14.54-.22,1.09-.54,1.6-.21.33-.46.65-.75.93-.64.66-1.63,1.05-2.54,1.06-1.96,0-4.04.48-5.37,2.74-.93,1.57-1.41,3.74-.74,5.42.05.12.19.23.38.22.38-.04.65.05.88.28.4.4.36,1.06.33,1.66-.01.39-.07.78-.18,1.18-.23.9-.89,1.72-1.68,2.19-1.69.98-3.26,2.44-3.28,5.06-.01,1.83.65,3.95,2.08,5.06.1.08.28.11.43,0,.31-.23.6-.28.9-.2.54.14.84.74,1.12,1.27.18.35.33.72.43,1.11.25.89.09,1.93-.36,2.73-.97,1.7-1.6,3.74-.31,6.02.9,1.59,2.53,3.09,4.33,3.34.13.02.3-.04.37-.22.16-.35.38-.53.69-.62.54-.15,1.1.22,1.6.54.33.21.65.46.93.75.67.65,1.05,1.63,1.06,2.55,0,1.96.48,4.04,2.74,5.37,1.57.93,3.74,1.41,5.42.73.12-.05.23-.19.22-.37-.04-.38.05-.66.28-.88.4-.4,1.06-.36,1.66-.34.39.01.79.07,1.18.18.9.23,1.72.89,2.19,1.68.98,1.69,2.44,3.26,5.06,3.28,1.83.01,3.95-.65,5.06-2.07.08-.1.11-.28,0-.44-.23-.31-.28-.6-.2-.9.15-.55.74-.84,1.27-1.12.35-.19.73-.33,1.11-.43.89-.26,1.94-.09,2.73.36,1.7.97,3.74,1.6,6.02.31,1.59-.9,3.09-2.54,3.34-4.32.02-.13-.04-.29-.22-.37-.35-.16-.53-.38-.62-.68-.14-.55.22-1.1.54-1.6.21-.33.46-.65.75-.93.64-.67,1.63-1.05,2.55-1.05,1.96-.01,4.04-.49,5.37-2.74.92-1.58,1.4-3.75.73-5.42-.05-.12-.19-.23-.38-.21-.38.04-.66-.06-.88-.29-.4-.4-.36-1.06-.34-1.65.01-.39.07-.79.18-1.18.23-.9.89-1.72,1.68-2.19,1.69-.98,3.26-2.44,3.28-5.05.02-1.83-.65-3.95-2.07-5.06-.1-.08-.28-.12-.43,0-.31.22-.6.27-.9.19-.55-.14-.84-.74-1.12-1.27-.18-.35-.33-.72-.44-1.11-.25-.88-.09-1.93.36-2.73.97-1.7,1.6-3.74.31-6.02-.9-1.59-2.54-3.09-4.33-3.34-.13-.02-.29.04-.37.22-.16.35-.38.54-.68.62-.55.14-1.1-.22-1.6-.54-.33-.21-.65-.46-.93-.75-.67-.64-1.05-1.63-1.05-2.55-.01-1.96-.49-4.04-2.74-5.37-1.58-.93-3.75-1.41-5.42-.74-.12.05-.23.19-.21.38.04.38-.06.65-.29.88-.4.4-1.06.36-1.65.33-.39-.01-.79-.07-1.18-.18h0Z"/>
      <path class="f" d="M164.88,57.29c-.89-.23-1.72-.89-2.19-1.68-.98-1.69-2.44-3.26-5.06-3.28-1.83-.01-3.95.65-5.06,2.08-.08.1-.12.28,0,.43.22.31.27.6.19.9-.14.54-.74.84-1.27,1.12-.35.18-.72.33-1.11.43-.88.25-1.93.09-2.73-.36-1.7-.97-3.74-1.6-6.02-.31-1.59.9-3.09,2.54-3.35,4.33-.02.13.04.3.22.37.35.16.54.38.62.69.14.54-.22,1.09-.54,1.6-.21.33-.46.65-.75.93-.64.66-1.63,1.05-2.54,1.06-1.96,0-4.04.48-5.37,2.74-.93,1.57-1.41,3.74-.74,5.42.05.12.19.23.38.22.38-.04.65.05.88.28.4.4.36,1.06.33,1.66-.01.39-.07.78-.18,1.18-.23.9-.89,1.72-1.68,2.19-1.69.98-3.26,2.44-3.28,5.06-.01,1.83.65,3.95,2.08,5.06.1.08.28.11.43,0,.31-.23.6-.28.9-.2.54.14.84.74,1.12,1.27.18.35.33.72.43,1.11.25.89.09,1.93-.36,2.73-.97,1.7-1.6,3.74-.31,6.02.9,1.59,2.53,3.09,4.33,3.34.13.02.3-.04.37-.22.16-.35.38-.53.69-.62.54-.15,1.1.22,1.6.54.33.21.65.46.93.75.67.65,1.05,1.63,1.06,2.55,0,1.96.48,4.04,2.74,5.37,1.57.93,3.74,1.41,5.42.73.12-.05.23-.19.22-.37-.04-.38.05-.66.28-.88.4-.4,1.06-.36,1.66-.34.39.01.79.07,1.18.18.9.23,1.72.89,2.19,1.68.98,1.69,2.44,3.26,5.06,3.28,1.83.01,3.95-.65,5.06-2.07.08-.1.11-.28,0-.44-.23-.31-.28-.6-.2-.9.15-.55.74-.84,1.27-1.12.35-.19.73-.33,1.11-.43.89-.26,1.94-.09,2.73.36,1.7.97,3.74,1.6,6.02.31,1.59-.9,3.09-2.54,3.34-4.32.02-.13-.04-.29-.22-.37-.35-.16-.53-.38-.62-.68-.14-.55.22-1.1.54-1.6.21-.33.46-.65.75-.93.64-.67,1.63-1.05,2.55-1.05,1.96-.01,4.04-.49,5.37-2.74.92-1.58,1.4-3.75.73-5.42-.05-.12-.19-.23-.38-.21-.38.04-.66-.06-.88-.29-.4-.4-.36-1.06-.34-1.65.01-.39.07-.79.18-1.18.23-.9.89-1.72,1.68-2.19,1.69-.98,3.26-2.44,3.28-5.05.02-1.83-.65-3.95-2.07-5.06-.1-.08-.28-.12-.43,0-.31.22-.6.27-.9.19-.55-.14-.84-.74-1.12-1.27-.18-.35-.33-.72-.44-1.11-.25-.88-.09-1.93.36-2.73.97-1.7,1.6-3.74.31-6.02-.9-1.59-2.54-3.09-4.33-3.34-.13-.02-.29.04-.37.22-.16.35-.38.54-.68.62-.55.14-1.1-.22-1.6-.54-.33-.21-.65-.46-.93-.75-.67-.64-1.05-1.63-1.05-2.55-.01-1.96-.49-4.04-2.74-5.37-1.58-.93-3.75-1.41-5.42-.74-.12.05-.23.19-.21.38.04.38-.06.65-.29.88-.4.4-1.06.36-1.65.33-.39-.01-.79-.07-1.18-.18h0Z"/>
      <path class="h" d="M214.7,84c-.9,4.19-2.35,8.38-4.06,11.63.6.43,1.24.9,2.09,1.41,2.91,1.75,6.92,2.01,11.88,2.01s12.57-.43,17.31-1.11c-.56,1.37-1.41,3.85-1.5,5.21-3.5.21-11.03.51-16.03.51-5.64,0-9.19-.47-12.31-2.27-1.75-.98-3.29-2.39-4.15-2.39-.94,0-2.39,2.91-3.46,5.34l-3.38-4.83c1.67-2.05,3.42-3.55,4.96-4.4,1.11-2.05,2.05-4.79,2.78-7.39h-5.68c1.07-2.39,2.31-5.77,3.38-8.98h-4.79v-4.53h11.11c-.94,2.91-2.09,6.24-3.16,9.15h1.75l.81-.17,2.44.81ZM206.45,73.15c-.56-1.88-1.62-4.92-2.39-7.14l4.66-1.37c.81,2.27,1.88,5.09,2.52,6.92l-4.79,1.58ZM219.53,96.66c-.81-4.32-3.16-10.81-5.9-16.63,1.84-4.87,3.85-11.03,4.74-15l4.87,1.15c-1.45,5.26-3.16,9.49-4.74,13.85,2.52,5,4.96,10.9,5.98,14.75l-4.96,1.88ZM227.78,96.57c-.98-4.32-3.59-10.81-6.58-16.58,2.05-4.87,4.23-10.98,5.26-14.96l4.87,1.15c-1.58,5.3-3.46,9.49-5.21,13.81,2.69,4.96,5.43,10.86,6.54,14.7l-4.87,1.88ZM236.03,96.61c-1.15-4.36-4.02-10.81-7.22-16.63,2.27-4.83,4.7-10.98,5.86-14.96l4.87,1.24c-1.67,5.3-3.76,9.45-5.68,13.72,2.86,4.96,5.81,10.81,7.09,14.66l-4.92,1.97Z"/>
      <path class="h" d="M278.04,92.04c-.68-1.15-1.75-2.69-2.82-4.19v16.28h-4.57v-15.09c-1.2,1.24-2.35,2.35-3.55,3.25-.3-1.5-1.33-4.32-1.92-5.3,3.59-2.39,7.05-6.58,9.19-11.03h-8.25v-4.57h5.73c-.73-1.5-1.88-3.25-2.99-4.62l3.8-2.35c1.41,1.58,2.91,3.8,3.59,5.34l-2.35,1.62h2.91l.9-.21,2.56,1.88c-1.07,3.21-2.52,6.33-4.32,9.19,1.67,1.62,4.44,4.66,5.21,5.56l-3.12,4.23ZM305.26,99.69v3.76h-25.86v-3.76h6.75c-.38-1.07-.86-2.22-1.24-3.16l2.74-.85h-4.96v-8.59h19.49v8.59h-5l3.33.94c-.64,1.07-1.37,2.09-2.01,3.08h6.75ZM279.92,82h24.92v3.59h-24.92v-3.59ZM303.51,80.5h-22.18v-12.91h5.9v-3.33h3.93v3.33h2.39v-3.33h3.93v3.33h6.03v12.91ZM285.43,72.59h2.52v-2.05h-2.52v2.05ZM285.43,77.46h2.52v-2.05h-2.52v2.05ZM286.84,92.64h10.98v-2.56h-10.98v2.56ZM288.9,95.67c.6,1.32,1.24,2.82,1.62,4.02h3.8c.6-1.28,1.2-2.78,1.58-4.02h-7.01ZM293.55,72.59v-2.05h-2.39v2.05h2.39ZM291.16,75.41v2.05h2.39v-2.05h-2.39ZM299.28,70.54h-2.52v2.05h2.52v-2.05ZM299.28,75.41h-2.52v2.05h2.52v-2.05Z"/>
      <path class="f" d="M228.65,57.29c-.89-.23-1.72-.89-2.19-1.68-.98-1.69-2.44-3.26-5.06-3.28-1.83-.01-3.95.65-5.06,2.08-.08.1-.12.28,0,.43.22.31.27.6.19.9-.14.54-.74.84-1.27,1.12-.35.18-.72.33-1.11.43-.88.25-1.93.09-2.73-.36-1.7-.97-3.74-1.6-6.02-.31-1.59.9-3.09,2.54-3.35,4.33-.02.13.04.3.22.37.35.16.54.38.62.69.14.54-.22,1.09-.54,1.6-.21.33-.46.65-.75.93-.64.66-1.63,1.05-2.54,1.06-1.96,0-4.04.48-5.37,2.74-.93,1.57-1.41,3.74-.74,5.42.05.12.19.23.38.22.38-.04.65.05.88.28.4.4.36,1.06.33,1.66-.01.39-.07.78-.18,1.18-.23.9-.89,1.72-1.68,2.19-1.69.98-3.26,2.44-3.28,5.06-.01,1.83.65,3.95,2.08,5.06.1.08.28.11.43,0,.31-.23.6-.28.9-.2.54.14.84.74,1.12,1.27.18.35.33.72.43,1.11.25.89.09,1.93-.36,2.73-.97,1.7-1.6,3.74-.31,6.02.9,1.59,2.53,3.09,4.33,3.34.13.02.3-.04.37-.22.16-.35.38-.53.69-.62.54-.15,1.1.22,1.6.54.33.21.65.46.93.75.67.65,1.05,1.63,1.06,2.55,0,1.96.48,4.04,2.74,5.37,1.57.93,3.74,1.41,5.42.73.12-.05.23-.19.22-.37-.04-.38.05-.66.28-.88.4-.4,1.06-.36,1.66-.34.39.01.79.07,1.18.18.9.23,1.72.89,2.19,1.68.98,1.69,2.44,3.26,5.06,3.28,1.83.01,3.95-.65,5.06-2.07.08-.1.11-.28,0-.44-.23-.31-.28-.6-.2-.9.15-.55.74-.84,1.27-1.12.35-.19.73-.33,1.11-.43.89-.26,1.94-.09,2.73.36,1.7.97,3.74,1.6,6.02.31,1.59-.9,3.09-2.54,3.34-4.32.02-.13-.04-.29-.22-.37-.35-.16-.53-.38-.62-.68-.14-.55.22-1.1.54-1.6.21-.33.46-.65.75-.93.64-.67,1.63-1.05,2.55-1.05,1.96-.01,4.04-.49,5.37-2.74.92-1.58,1.4-3.75.73-5.42-.05-.12-.19-.23-.38-.21-.38.04-.66-.06-.88-.29-.4-.4-.36-1.06-.34-1.65.01-.39.07-.79.18-1.18.23-.9.89-1.72,1.68-2.19,1.69-.98,3.26-2.44,3.28-5.05.02-1.83-.65-3.95-2.07-5.06-.1-.08-.28-.12-.43,0-.31.22-.6.27-.9.19-.55-.14-.84-.74-1.12-1.27-.18-.35-.33-.72-.44-1.11-.25-.88-.09-1.93.36-2.73.97-1.7,1.6-3.74.31-6.02-.9-1.59-2.54-3.09-4.33-3.34-.13-.02-.29.04-.37.22-.16.35-.38.54-.68.62-.55.14-1.1-.22-1.6-.54-.33-.21-.65-.46-.93-.75-.67-.64-1.05-1.63-1.05-2.55-.01-1.96-.49-4.04-2.74-5.37-1.58-.93-3.75-1.41-5.42-.74-.12.05-.23.19-.21.38.04.38-.06.65-.29.88-.4.4-1.06.36-1.65.33-.39-.01-.79-.07-1.18-.18h0Z"/>
      <path class="f" d="M292.63,57.29c-.89-.23-1.72-.89-2.19-1.68-.98-1.69-2.44-3.26-5.06-3.28-1.83-.01-3.95.65-5.06,2.08-.08.1-.12.28,0,.43.22.31.27.6.19.9-.14.54-.74.84-1.27,1.12-.35.18-.72.33-1.11.43-.88.25-1.93.09-2.73-.36-1.7-.97-3.74-1.6-6.02-.31-1.59.9-3.09,2.54-3.35,4.33-.02.13.04.3.22.37.35.16.54.38.62.69.14.54-.22,1.09-.54,1.6-.21.33-.46.65-.75.93-.64.66-1.63,1.05-2.54,1.06-1.96,0-4.04.48-5.37,2.74-.93,1.57-1.41,3.74-.74,5.42.05.12.19.23.38.22.38-.04.65.05.88.28.4.4.36,1.06.33,1.66-.01.39-.07.78-.18,1.18-.23.9-.89,1.72-1.68,2.19-1.69.98-3.26,2.44-3.28,5.06-.01,1.83.65,3.95,2.08,5.06.1.08.28.11.43,0,.31-.23.6-.28.9-.2.54.14.84.74,1.12,1.27.18.35.33.72.43,1.11.25.89.09,1.93-.36,2.73-.97,1.7-1.6,3.74-.31,6.02.9,1.59,2.53,3.09,4.33,3.34.13.02.3-.04.37-.22.16-.35.38-.53.69-.62.54-.15,1.1.22,1.6.54.33.21.65.46.93.75.67.65,1.05,1.63,1.06,2.55,0,1.96.48,4.04,2.74,5.37,1.57.93,3.74,1.41,5.42.73.12-.05.23-.19.22-.37-.04-.38.05-.66.28-.88.4-.4,1.06-.36,1.66-.34.39.01.79.07,1.18.18.9.23,1.72.89,2.19,1.68.98,1.69,2.44,3.26,5.06,3.28,1.83.01,3.95-.65,5.06-2.07.08-.1.11-.28,0-.44-.23-.31-.28-.6-.2-.9.15-.55.74-.84,1.27-1.12.35-.19.73-.33,1.11-.43.89-.26,1.94-.09,2.73.36,1.7.97,3.74,1.6,6.02.31,1.59-.9,3.09-2.54,3.34-4.32.02-.13-.04-.29-.22-.37-.35-.16-.53-.38-.62-.68-.14-.55.22-1.1.54-1.6.21-.33.46-.65.75-.93.64-.67,1.63-1.05,2.55-1.05,1.96-.01,4.04-.49,5.37-2.74.92-1.58,1.4-3.75.73-5.42-.05-.12-.19-.23-.38-.21-.38.04-.66-.06-.88-.29-.4-.4-.36-1.06-.34-1.65.01-.39.07-.79.18-1.18.23-.9.89-1.72,1.68-2.19,1.69-.98,3.26-2.44,3.28-5.05.02-1.83-.65-3.95-2.07-5.06-.1-.08-.28-.12-.43,0-.31.22-.6.27-.9.19-.55-.14-.84-.74-1.12-1.27-.18-.35-.33-.72-.44-1.11-.25-.88-.09-1.93.36-2.73.97-1.7,1.6-3.74.31-6.02-.9-1.59-2.54-3.09-4.33-3.34-.13-.02-.29.04-.37.22-.16.35-.38.54-.68.62-.55.14-1.1-.22-1.6-.54-.33-.21-.65-.46-.93-.75-.67-.64-1.05-1.63-1.05-2.55-.01-1.96-.49-4.04-2.74-5.37-1.58-.93-3.75-1.41-5.42-.74-.12.05-.23.19-.21.38.04.38-.06.65-.29.88-.4.4-1.06.36-1.65.33-.39-.01-.79-.07-1.18-.18h0Z"/>
    </g>
  </g>
</svg>