<svg xmlns="http://www.w3.org/2000/svg" xmlns:xlink="http://www.w3.org/1999/xlink" width="97.11" height="202.81" viewBox="0 0 97.11 202.81">
  <defs>
    <radialGradient id="未命名漸層_16" data-name="未命名漸層 16" cx="42" cy="188.31" r="43.07" gradientTransform="translate(0 120.24) scale(1 0.36)" gradientUnits="userSpaceOnUse">
      <stop offset="0" stop-color="#998675"/>
      <stop offset="0.15" stop-color="#9b8774" stop-opacity="0.97"/>
      <stop offset="0.31" stop-color="#a28b71" stop-opacity="0.88"/>
      <stop offset="0.48" stop-color="#ae926d" stop-opacity="0.74"/>
      <stop offset="0.66" stop-color="#be9b66" stop-opacity="0.53"/>
      <stop offset="0.84" stop-color="#d3a75e" stop-opacity="0.27"/>
      <stop offset="1" stop-color="#e8b356" stop-opacity="0"/>
    </radialGradient>
  </defs>
  <g style="isolation: isolate">
    <g id="圖層_2" data-name="圖層 2">
      <g id="圖層_1-2" data-name="圖層 1">
        <g>
          <g>
            <ellipse cx="42" cy="188.31" rx="42" ry="14.5" style="mix-blend-mode: multiply;opacity: 0.51;fill: url(#未命名漸層_16)"/>
            <path d="M6.59,24.41h67.9V174.26a8.93,8.93,0,0,0-8.93,8.93h-50a8.93,8.93,0,0,0-8.93-8.93Z" style="fill: #da4e36;stroke: #e8b356;stroke-miterlimit: 10;stroke-width: 0.75px"/>
            <g>
              <path d="M49.56,79.26c0,1.66-.39,2.44-1.45,2.9s-2.71.53-5.08.53a11.64,11.64,0,0,0-1.15-2.87c1.61.09,3.54.07,4,.07s.73-.19.73-.67V75.89H36.82a12.41,12.41,0,0,1-3.88,6.87,11.07,11.07,0,0,0-2.12-2c3.47-3,3.79-7.35,3.79-10.85V62.36h15Zm-2.9-6V70.43H37.44c0,.88-.07,1.84-.16,2.81ZM37.44,65v2.81h9.22V65Z" style="fill: #ffe9d7"/>
              <path d="M47.77,106.87c1.54,0,1.81-.4,2-2.67a7.92,7.92,0,0,0,2.64,1c-.39,3.33-1.29,4.18-4.46,4.18H42.13c-3.84,0-4.92-.78-4.92-3.52v-3.12a45.41,45.41,0,0,1-4.5,2.07,23.06,23.06,0,0,0-2-2.42A40.77,40.77,0,0,0,39,98.47H31.35V95.94h7.27V93.67h-5.2V91.18h5.2V88.4h2.75v2.78h5v1.25a26.64,26.64,0,0,0,2.46-3.11l2.62,1.29a34.92,34.92,0,0,1-4.62,5.33h5.36v2.53H43.88a38.54,38.54,0,0,1-3.75,2.6h9.36v2.44h-9.4v2.32c0,.9.32,1,2.18,1ZM42.59,95.94a30.18,30.18,0,0,0,2.6-2.27H41.12v2.27Z" style="fill: #ffe9d7"/>
              <path d="M34.18,131.15a20.73,20.73,0,0,1-1.47,5.39,8.81,8.81,0,0,0-2.05-1.36c1.47-3.08,1.59-7.59,1.59-10.86v-8h9.93v5.77H34.59v2.69h1.17v-2.28h1.87v2.28h1.31v-2.28h1.91v2.28h1.08v2.12H40.85V129h1.7v2.13ZM38,132.33a17.57,17.57,0,0,1-2.09,4.53,13.34,13.34,0,0,0-1.94-1.29,12.12,12.12,0,0,0,1.78-3.82Zm-3.4-5.45c0,.69-.07,1.4-.14,2.14h1.35v-2.14Zm0-8.51V120H39.7v-1.63Zm3,8.51V129h1.31v-2.14Zm14.23-1.22a16.27,16.27,0,0,1-3.13,7.13,11.15,11.15,0,0,0,3.89,2A9.14,9.14,0,0,0,51,137a12.69,12.69,0,0,1-4.11-2.42A14.07,14.07,0,0,1,42.85,137a10,10,0,0,0-1-1.68l-1.38.6a16,16,0,0,0-1.86-3.54l2-.83a20.27,20.27,0,0,1,1.75,2.85,12.06,12.06,0,0,0,2.83-1.65,16.87,16.87,0,0,1-2.37-4.81l1.1-.27H42.29V125.2H43A8.82,8.82,0,0,0,41.65,123a3.25,3.25,0,0,0,1.82-3.34v-3.31h6.87v5c0,.64,0,.87.28.87h.73a3.1,3.1,0,0,0,1-.16c0,.65.09,1.54.16,2.12a3.2,3.2,0,0,1-1.15.16h-1c-2,0-2.4-.92-2.4-3v-2.55H45.81v1a5.8,5.8,0,0,1-2.76,5.43h6.81l.44-.09Zm-6.71,2A11.47,11.47,0,0,0,47,131a12.06,12.06,0,0,0,1.87-3.35Z" style="fill: #ffe9d7"/>
            </g>
            <path d="M53.48,43.31v9.27H50V47.41a2.35,2.35,0,0,0-.78.18l-1.1.44a10.82,10.82,0,0,1-1.29.44,5.56,5.56,0,0,1-1.41.18,2.26,2.26,0,0,1-1.84-.95,6.86,6.86,0,0,1-1.12-2.51A16.77,16.77,0,0,1,42,41.8h.46A16.14,16.14,0,0,1,42,45.19a6.7,6.7,0,0,1-1.13,2.51,2.27,2.27,0,0,1-1.86.95,5.54,5.54,0,0,1-1.4-.18,11.65,11.65,0,0,1-1.3-.44l-1.09-.44a2.4,2.4,0,0,0-.78-.18v5.17H31V43.31a6.22,6.22,0,0,1,2.23,0,15.07,15.07,0,0,1,2.25.63l2,.73A5,5,0,0,0,39,45a1.69,1.69,0,0,0,1.54-.89A6.49,6.49,0,0,0,41.08,41h2.3a6.61,6.61,0,0,0,.53,3.14,1.7,1.7,0,0,0,1.54.89A4.92,4.92,0,0,0,47,44.72L49,44a15,15,0,0,1,2.27-.63A6.17,6.17,0,0,1,53.48,43.31Z" style="fill: #e8b356"/>
            <path d="M45.45,155.8a1.69,1.69,0,0,0-1.54.9,6.65,6.65,0,0,0-.53,3.13h-2.3a6.52,6.52,0,0,0-.53-3.13,1.68,1.68,0,0,0-1.54-.9,4.54,4.54,0,0,0-1.52.34l-2,.72a16.32,16.32,0,0,1-2.25.62,6.22,6.22,0,0,1-2.23.05v-9.27h3.45v5.17a2.4,2.4,0,0,0,.78-.18l1.09-.44a11.65,11.65,0,0,1,1.3-.44,5.54,5.54,0,0,1,1.4-.18,2.27,2.27,0,0,1,1.86.95A6.68,6.68,0,0,1,42,155.66a16.23,16.23,0,0,1,.46,3.39H42a16.87,16.87,0,0,1,.49-3.39,6.84,6.84,0,0,1,1.12-2.52,2.26,2.26,0,0,1,1.84-.95,5.56,5.56,0,0,1,1.41.18,10.82,10.82,0,0,1,1.29.44c.41.17.77.32,1.1.44a2.35,2.35,0,0,0,.78.18v-5.17h3.45v9.27a6.17,6.17,0,0,1-2.22-.05,16.21,16.21,0,0,1-2.27-.62l-2-.72A4.49,4.49,0,0,0,45.45,155.8Z" style="fill: #e8b356"/>
          </g>
          <g>
            <path d="M79.61,3.51a2.62,2.62,0,0,1-1.54-1.19A4,4,0,0,0,74.49,0a4.59,4.59,0,0,0-3.57,1.47.24.24,0,0,0,0,.3.7.7,0,0,1,.13.64c-.1.39-.52.6-.89.79a4.19,4.19,0,0,1-.79.31,2.66,2.66,0,0,1-1.93-.26A4,4,0,0,0,63.19,3a4.6,4.6,0,0,0-2.37,3.06.25.25,0,0,0,.16.26.71.71,0,0,1,.44.49A1.58,1.58,0,0,1,61,8a3.67,3.67,0,0,1-.53.65,2.6,2.6,0,0,1-1.8.75,4,4,0,0,0-3.8,1.94,4.65,4.65,0,0,0-.52,3.83.28.28,0,0,0,.27.15.7.7,0,0,1,.62.2,1.53,1.53,0,0,1,.24,1.17,3.34,3.34,0,0,1-.13.83A2.61,2.61,0,0,1,54.2,19a4,4,0,0,0-2.32,3.57,4.64,4.64,0,0,0,1.47,3.58.25.25,0,0,0,.3,0,.72.72,0,0,1,.64-.14c.39.1.6.52.8.9a3.5,3.5,0,0,1,.3.78,2.55,2.55,0,0,1-.26,1.93,4.06,4.06,0,0,0-.22,4.26A4.64,4.64,0,0,0,58,36.28a.27.27,0,0,0,.27-.15.72.72,0,0,1,.48-.44,1.51,1.51,0,0,1,1.13.38,3.74,3.74,0,0,1,.66.53,2.62,2.62,0,0,1,.75,1.8,4,4,0,0,0,1.93,3.79,4.58,4.58,0,0,0,3.83.52.25.25,0,0,0,.16-.26.66.66,0,0,1,.19-.62,1.52,1.52,0,0,1,1.18-.24,3.49,3.49,0,0,1,.83.13,2.64,2.64,0,0,1,1.54,1.18,4,4,0,0,0,3.58,2.32,4.61,4.61,0,0,0,3.57-1.46.25.25,0,0,0,0-.31.73.73,0,0,1-.14-.64c.11-.38.53-.59.9-.79a3.58,3.58,0,0,1,.79-.3,2.55,2.55,0,0,1,1.93.25,4,4,0,0,0,4.25.22,4.58,4.58,0,0,0,2.37-3.06.25.25,0,0,0-.16-.26.77.77,0,0,1-.44-.48A1.59,1.59,0,0,1,88,37.25a4.07,4.07,0,0,1,.53-.65,2.64,2.64,0,0,1,1.8-.75,4,4,0,0,0,3.8-1.93,4.68,4.68,0,0,0,.52-3.84.28.28,0,0,0-.27-.15.7.7,0,0,1-.62-.2,1.52,1.52,0,0,1-.24-1.17,3.49,3.49,0,0,1,.13-.83,2.64,2.64,0,0,1,1.19-1.55,4,4,0,0,0,2.32-3.57A4.61,4.61,0,0,0,95.64,19a.23.23,0,0,0-.3,0,.74.74,0,0,1-.64.13c-.39-.1-.6-.52-.79-.89a3.61,3.61,0,0,1-.31-.79,2.6,2.6,0,0,1,.26-1.93,4.06,4.06,0,0,0,.22-4.26A4.64,4.64,0,0,0,91,8.94a.27.27,0,0,0-.27.15.7.7,0,0,1-.48.44,1.51,1.51,0,0,1-1.13-.38,3.34,3.34,0,0,1-.66-.53,2.56,2.56,0,0,1-.74-1.79A4.06,4.06,0,0,0,85.8,3,4.58,4.58,0,0,0,82,2.51a.25.25,0,0,0-.15.27.7.7,0,0,1-.2.62,1.53,1.53,0,0,1-1.17.23,4.05,4.05,0,0,1-.84-.12m-.55,2.05A17.73,17.73,0,0,1,87,10.13a17.76,17.76,0,0,1,2.81,3.65A18.29,18.29,0,0,1,91.55,18a18.08,18.08,0,0,1,.6,4.57,18.3,18.3,0,0,1-.6,4.57A17.87,17.87,0,0,1,87,35.09a18.18,18.18,0,0,1-3.66,2.81,17.91,17.91,0,0,1-4.26,1.76,17.51,17.51,0,0,1-4.56.6,17.7,17.7,0,0,1-15.29-8.82,17.42,17.42,0,0,1-2.36-8.83,17.35,17.35,0,0,1,2.36-8.82A18.39,18.39,0,0,1,62,10.13a18,18,0,0,1,3.66-2.8A17.63,17.63,0,0,1,79.06,5.56" style="fill: #e8b356;fill-rule: evenodd"/>
            <circle cx="74.45" cy="22.67" r="17.62" style="fill: #fc462d"/>
            <path d="M80.38,18.71A4.14,4.14,0,0,1,79.74,21,4.66,4.66,0,0,1,78,22.59,5.14,5.14,0,0,1,80,24.3a4.41,4.41,0,0,1,.75,2.56,4.62,4.62,0,0,1-1.61,3.73,7.63,7.63,0,0,1-8.74,0,4.61,4.61,0,0,1-1.62-3.72,4.44,4.44,0,0,1,.75-2.57,5.06,5.06,0,0,1,2-1.7A4.71,4.71,0,0,1,69.8,21a4.21,4.21,0,0,1-.63-2.29,4.61,4.61,0,0,1,1.5-3.61,7,7,0,0,1,8.2,0A4.57,4.57,0,0,1,80.38,18.71Zm-3.15,7.9a2.52,2.52,0,0,0-.67-1.85,2.34,2.34,0,0,0-1.8-.7,2.4,2.4,0,0,0-1.79.69,2.58,2.58,0,0,0-.67,1.86A2.53,2.53,0,0,0,73,28.43a2.41,2.41,0,0,0,1.83.69,2.36,2.36,0,0,0,1.79-.67A2.49,2.49,0,0,0,77.23,26.61Zm-.36-7.73a2.41,2.41,0,0,0-.55-1.66,1.94,1.94,0,0,0-1.54-.63,2,2,0,0,0-1.54.61,2.44,2.44,0,0,0-.55,1.68,2.57,2.57,0,0,0,.55,1.7,2.16,2.16,0,0,0,3.09,0A2.57,2.57,0,0,0,76.87,18.88Z" style="fill: #fff"/>
          </g>
        </g>
      </g>
    </g>
  </g>
</svg>
