<svg xmlns="http://www.w3.org/2000/svg" xmlns:xlink="http://www.w3.org/1999/xlink" width="97.11" height="257.49" viewBox="0 0 97.11 257.49">
  <defs>
    <radialGradient id="未命名漸層_16" data-name="未命名漸層 16" cx="42" cy="242.99" r="43.07" gradientTransform="translate(0 155.15) scale(1 0.36)" gradientUnits="userSpaceOnUse">
      <stop offset="0" stop-color="#998675"/>
      <stop offset="0.15" stop-color="#9b8774" stop-opacity="0.97"/>
      <stop offset="0.31" stop-color="#a28b71" stop-opacity="0.88"/>
      <stop offset="0.48" stop-color="#ae926d" stop-opacity="0.74"/>
      <stop offset="0.66" stop-color="#be9b66" stop-opacity="0.53"/>
      <stop offset="0.84" stop-color="#d3a75e" stop-opacity="0.27"/>
      <stop offset="1" stop-color="#e8b356" stop-opacity="0"/>
    </radialGradient>
  </defs>
  <g style="isolation: isolate">
    <g id="圖層_2" data-name="圖層 2">
      <g id="圖層_1-2" data-name="圖層 1">
        <g>
          <g>
            <path d="M6.59,21.37h67.9V224.56a8.93,8.93,0,0,0-8.93,8.93h-50a8.93,8.93,0,0,0-8.93-8.93Z" style="fill: #da4e36;stroke: #e8b356;stroke-miterlimit: 10;stroke-width: 0.75px"/>
            <ellipse cx="42" cy="242.99" rx="42" ry="14.5" style="mix-blend-mode: multiply;opacity: 0.51;fill: url(#未命名漸層_16)"/>
            <g>
              <path d="M52.09,75.39V78.1H31.58V75.39h5.31c.39-1.86.81-4,1.2-6.28H34.18V66.42H38.5c.21-1.31.39-2.64.55-3.91H32.89V59.8H50.6v2.71H42.09c-.19,1.27-.39,2.6-.6,3.91h4.25l.49-.09,2.18.16c-.14,2.69-.44,5.93-.76,8.9Zm-11-6.28c-.39,2.28-.79,4.44-1.15,6.28h4.8c.23-2.09.44-4.39.58-6.28Z" style="fill: #ffe9d7"/>
              <path d="M51.31,87.67a17.32,17.32,0,0,1-3.2,6.19,14.66,14.66,0,0,0,4.76,2.55,10.88,10.88,0,0,0-1.7,2.3l0,0v7.52H48.5v-.71H44.18v.78H41.65V98.8l-.53.23a8.18,8.18,0,0,0-.85-1.31v.67H37.74v3.06l2.72-.62.25,2.41c-3.22.81-6.72,1.61-9.32,2.21l-.48-2.62,1-.19V94.92h2.23v7.26l1.15-.23V93.31H32.11V85.7H40v5.7a15.64,15.64,0,0,0,3.82-6.55l2.6.64c-.19.51-.37,1-.58,1.54H49.1l.48-.09ZM34.5,91h3V88H34.48Zm5.77,5.75a15.7,15.7,0,0,0,4.39-2.87,17.84,17.84,0,0,1-1.42-2,18.2,18.2,0,0,1-1.36,1.59A13,13,0,0,0,40,91.84v1.47h-2.3V96h2.53Zm9,1.08a17.9,17.9,0,0,1-2.87-2.09,18.62,18.62,0,0,1-2.83,2.09Zm-.76,5.36v-3.06H44.18v3.06Zm-3.72-13.8-.19.35a20,20,0,0,0,1.68,2.37A14.14,14.14,0,0,0,48,89.35Z" style="fill: #ffe9d7"/>
              <path d="M36.27,128.48a14.42,14.42,0,0,1-3.29,5A13.31,13.31,0,0,0,30.8,132a10.2,10.2,0,0,0,2.87-4.12Zm4.48-.83h-8.5V112.88h8.5Zm-2.66-12.6H34.82v2.09h3.27Zm0,4.11H34.82v2.14h3.27Zm0,4.16H34.82v2.14h3.27Zm.89,4.47a16.71,16.71,0,0,1,2.53,3.67l-2.3,1.18a18.17,18.17,0,0,0-2.43-3.89Zm13.55-7.87H50v10.44c0,1.38-.27,2.12-1,2.55a7.72,7.72,0,0,1-3.61.58,10.21,10.21,0,0,0-.92-2.69c1,0,2.07,0,2.41,0s.48-.13.48-.48v-7a22.08,22.08,0,0,1-4.85,6.5,13.15,13.15,0,0,0-1.86-2,20.13,20.13,0,0,0,5.77-7.93H41.35v-2.53h6v-5.33H50v5.33h2.49Z" style="fill: #ffe9d7"/>
              <path d="M39.4,143.89a21.8,21.8,0,0,1-2.49,4.85c.9.8,2.44,2.39,2.86,2.85l-1.55,2.28c-.39-.6-1-1.43-1.63-2.26v9h-2.5v-8.41a20.65,20.65,0,0,1-2.42,2,11.58,11.58,0,0,0-1-2.81,15.66,15.66,0,0,0,5.51-5.93H31.3V143h3.8a26.66,26.66,0,0,0-1.71-2.72l2.14-1.15A20.23,20.23,0,0,1,37.47,142l-1.61,1h1.77l.43-.12Zm12.35-1.47V155H49.17v-.83H47.08v6.46H44.41v-6.46H42.34v1.06H39.86V142.42h4.55V139.1h2.67v3.32Zm-9.41,2.43v2.21h2.07v-2.21Zm2.07,6.86v-2.26H42.34v2.26Zm2.67-6.86v2.21h2.09v-2.21Zm2.09,6.86v-2.26H47.08v2.26Z" style="fill: #ffe9d7"/>
              <path d="M47.15,170.34a12.87,12.87,0,0,1-2.46,1.79,37.05,37.05,0,0,0,7.93,1.15,11.22,11.22,0,0,0-1.49,2.35,30.37,30.37,0,0,1-9.43-2.12,45.51,45.51,0,0,1-9.13,2.14A13.18,13.18,0,0,0,31,173.37,45,45,0,0,0,39,172a13.38,13.38,0,0,1-2.09-1.77l2.21-.92a9.09,9.09,0,0,0,2.62,1.72,9.25,9.25,0,0,0,2.94-1.84ZM40,167.28a22.78,22.78,0,0,1-6.85,4.05,21.62,21.62,0,0,0-1.86-2,19.25,19.25,0,0,0,6.28-3ZM31.63,176H42.22v2.12H41v9.65H38.36V186c-2.43.23-4.83.43-6.76.59l-.23-2.09c.51,0,1.08,0,1.68-.09v-6.32H31.63Zm6.73,2.12H35.58V179h2.78Zm-2.78,3.47h2.78v-.87H35.58Zm2.78,2.5v-.85H35.58v1Zm13.41-7.17c-.74,1.17-1.61,2.51-2.35,3.56,1.66,1.18,2.19,2.26,2.19,3.25a2.51,2.51,0,0,1-1.24,2.41,3.1,3.1,0,0,1-1.36.46,12.94,12.94,0,0,1-2.09.05,5.27,5.27,0,0,0-.76-2.28,9.17,9.17,0,0,0,1.52,0,1.94,1.94,0,0,0,.75-.12.85.85,0,0,0,.46-.85c0-.67-.59-1.59-2.25-2.62.51-.85,1-1.86,1.47-2.76H45.67v9.7H43V176h6.34l.44-.11ZM50,171.35a32.7,32.7,0,0,0-6.85-3.54L45,166.22a37.13,37.13,0,0,1,7,3.34Z" style="fill: #ffe9d7"/>
            </g>
            <path d="M53.48,39.74V49H50V43.83a2.17,2.17,0,0,0-.78.19l-1.1.43a9.29,9.29,0,0,1-1.29.44,5.56,5.56,0,0,1-1.41.18,2.23,2.23,0,0,1-1.84-1,6.78,6.78,0,0,1-1.12-2.51A16.56,16.56,0,0,1,42,38.22h.46A16,16,0,0,1,42,41.61a6.78,6.78,0,0,1-1.12,2.51,2.27,2.27,0,0,1-1.87,1,5.54,5.54,0,0,1-1.4-.18,9.91,9.91,0,0,1-1.3-.44L35.22,44a2.17,2.17,0,0,0-.78-.19V49H31V39.74a6,6,0,0,1,2.23,0,16.41,16.41,0,0,1,2.25.64l2,.72a5,5,0,0,0,1.52.32,1.68,1.68,0,0,0,1.54-.88,6.52,6.52,0,0,0,.53-3.14h2.3a6.64,6.64,0,0,0,.53,3.14,1.69,1.69,0,0,0,1.54.88A4.92,4.92,0,0,0,47,41.14l2-.72a16.28,16.28,0,0,1,2.27-.64A5.94,5.94,0,0,1,53.48,39.74Z" style="fill: #e8b356"/>
            <path d="M45.45,211.29a1.69,1.69,0,0,0-1.54.9,6.6,6.6,0,0,0-.53,3.12h-2.3a6.48,6.48,0,0,0-.53-3.12,1.68,1.68,0,0,0-1.54-.9,4.75,4.75,0,0,0-1.52.33l-2,.73a17.87,17.87,0,0,1-2.25.62A6,6,0,0,1,31,213v-9.26h3.45v5.17a2.35,2.35,0,0,0,.78-.18l1.09-.44a9.91,9.91,0,0,1,1.3-.44,5.54,5.54,0,0,1,1.4-.18,2.3,2.3,0,0,1,1.87.95A6.84,6.84,0,0,1,42,211.15a16.13,16.13,0,0,1,.46,3.38H42a16.77,16.77,0,0,1,.49-3.38,6.84,6.84,0,0,1,1.12-2.52,2.26,2.26,0,0,1,1.84-.95,5.56,5.56,0,0,1,1.41.18,9.29,9.29,0,0,1,1.29.44l1.1.44a2.35,2.35,0,0,0,.78.18v-5.17h3.45V213a5.94,5.94,0,0,1-2.22,0,17.7,17.7,0,0,1-2.27-.62l-2-.73A4.69,4.69,0,0,0,45.45,211.29Z" style="fill: #e8b356"/>
          </g>
          <g>
            <path d="M79.61,3.51a2.62,2.62,0,0,1-1.54-1.19A4,4,0,0,0,74.49,0a4.59,4.59,0,0,0-3.57,1.47.24.24,0,0,0,0,.3.7.7,0,0,1,.13.64c-.1.39-.52.6-.89.79a4.19,4.19,0,0,1-.79.31,2.66,2.66,0,0,1-1.93-.26A4,4,0,0,0,63.19,3a4.6,4.6,0,0,0-2.37,3.06.25.25,0,0,0,.16.26.71.71,0,0,1,.44.49A1.58,1.58,0,0,1,61,8a3.67,3.67,0,0,1-.53.65,2.6,2.6,0,0,1-1.8.75,4,4,0,0,0-3.8,1.94,4.65,4.65,0,0,0-.52,3.83.28.28,0,0,0,.27.15.7.7,0,0,1,.62.2,1.53,1.53,0,0,1,.24,1.17,3.34,3.34,0,0,1-.13.83A2.61,2.61,0,0,1,54.2,19a4,4,0,0,0-2.32,3.57,4.64,4.64,0,0,0,1.47,3.58.25.25,0,0,0,.3,0,.72.72,0,0,1,.64-.14c.39.1.6.52.8.9a3.5,3.5,0,0,1,.3.78,2.55,2.55,0,0,1-.26,1.93,4.06,4.06,0,0,0-.22,4.26A4.64,4.64,0,0,0,58,36.28a.27.27,0,0,0,.27-.15.72.72,0,0,1,.48-.44,1.51,1.51,0,0,1,1.13.38,3.74,3.74,0,0,1,.66.53,2.62,2.62,0,0,1,.75,1.8,4,4,0,0,0,1.93,3.79,4.58,4.58,0,0,0,3.83.52.25.25,0,0,0,.16-.26.66.66,0,0,1,.19-.62,1.52,1.52,0,0,1,1.18-.24,3.49,3.49,0,0,1,.83.13,2.64,2.64,0,0,1,1.54,1.18,4,4,0,0,0,3.58,2.32,4.61,4.61,0,0,0,3.57-1.46.25.25,0,0,0,0-.31.73.73,0,0,1-.14-.64c.11-.38.53-.59.9-.79a3.58,3.58,0,0,1,.79-.3,2.55,2.55,0,0,1,1.93.25,4,4,0,0,0,4.25.22,4.58,4.58,0,0,0,2.37-3.06.25.25,0,0,0-.16-.26.77.77,0,0,1-.44-.48A1.59,1.59,0,0,1,88,37.25a4.07,4.07,0,0,1,.53-.65,2.64,2.64,0,0,1,1.8-.75,4,4,0,0,0,3.8-1.93,4.68,4.68,0,0,0,.52-3.84.28.28,0,0,0-.27-.15.7.7,0,0,1-.62-.2,1.52,1.52,0,0,1-.24-1.17,3.49,3.49,0,0,1,.13-.83,2.64,2.64,0,0,1,1.19-1.55,4,4,0,0,0,2.32-3.57A4.61,4.61,0,0,0,95.64,19a.23.23,0,0,0-.3,0,.74.74,0,0,1-.64.13c-.39-.1-.6-.52-.79-.89a3.61,3.61,0,0,1-.31-.79,2.6,2.6,0,0,1,.26-1.93,4.06,4.06,0,0,0,.22-4.26A4.64,4.64,0,0,0,91,8.94a.27.27,0,0,0-.27.15.7.7,0,0,1-.48.44,1.51,1.51,0,0,1-1.13-.38,3.34,3.34,0,0,1-.66-.53,2.56,2.56,0,0,1-.74-1.79A4.06,4.06,0,0,0,85.8,3,4.58,4.58,0,0,0,82,2.51a.25.25,0,0,0-.15.27.7.7,0,0,1-.2.62,1.53,1.53,0,0,1-1.17.23,4.05,4.05,0,0,1-.84-.12m-.55,2.05A17.73,17.73,0,0,1,87,10.13a17.76,17.76,0,0,1,2.81,3.65A18.29,18.29,0,0,1,91.55,18a18.08,18.08,0,0,1,.6,4.57,18.3,18.3,0,0,1-.6,4.57A17.87,17.87,0,0,1,87,35.09a18.18,18.18,0,0,1-3.66,2.81,17.91,17.91,0,0,1-4.26,1.76,17.51,17.51,0,0,1-4.56.6,17.7,17.7,0,0,1-15.29-8.82,17.42,17.42,0,0,1-2.36-8.83,17.35,17.35,0,0,1,2.36-8.82A18.39,18.39,0,0,1,62,10.13a18,18,0,0,1,3.66-2.8A17.63,17.63,0,0,1,79.06,5.56" style="fill: #e8b356;fill-rule: evenodd"/>
            <circle cx="74.45" cy="22.67" r="17.62" style="fill: #fc462d"/>
            <path d="M79.24,25.05h2v2.83h-2v3.84H75.72V27.88H68.46l-.16-2.21L75.69,14h3.55Zm-7.43,0h3.91V18.79l-.23.4Z" style="fill: #fff"/>
          </g>
        </g>
      </g>
    </g>
  </g>
</svg>
