<svg xmlns="http://www.w3.org/2000/svg" xmlns:xlink="http://www.w3.org/1999/xlink" width="84" height="233.19" viewBox="0 0 84 233.19">
  <defs>
    <radialGradient id="未命名漸層_16" data-name="未命名漸層 16" cx="42" cy="218.69" r="43.07" gradientTransform="translate(0 139.63) scale(1 0.36)" gradientUnits="userSpaceOnUse">
      <stop offset="0" stop-color="#998675"/>
      <stop offset="0.15" stop-color="#9b8774" stop-opacity="0.97"/>
      <stop offset="0.31" stop-color="#a28b71" stop-opacity="0.88"/>
      <stop offset="0.48" stop-color="#ae926d" stop-opacity="0.74"/>
      <stop offset="0.66" stop-color="#be9b66" stop-opacity="0.53"/>
      <stop offset="0.84" stop-color="#d3a75e" stop-opacity="0.27"/>
      <stop offset="1" stop-color="#e8b356" stop-opacity="0"/>
    </radialGradient>
  </defs>
  <g style="isolation: isolate">
    <g id="圖層_2" data-name="圖層 2">
      <g id="圖層_1-2" data-name="圖層 1">
        <g>
          <path d="M6.59.38h67.9V200.26a8.93,8.93,0,0,0-8.93,8.93h-50a8.93,8.93,0,0,0-8.93-8.93Z" style="fill: #da4e36;stroke: #e8b356;stroke-miterlimit: 10;stroke-width: 0.75px"/>
          <ellipse cx="42" cy="218.69" rx="42" ry="14.5" style="mix-blend-mode: multiply;opacity: 0.51;fill: url(#未命名漸層_16)"/>
          <g>
            <path d="M31.3,56a9.94,9.94,0,0,0,2.44-3.81l2.69.66A12.22,12.22,0,0,1,34,57.12ZM52,51.9H31.51V49.51h8.88V48.34H33.3V46.2h7.09V45.1H33.65V36.29H49.91V45.1H43.12v1.1h7.11v2.14H43.12v1.17H52Zm-11.65-9V38.5H36.25v4.39Zm-1.94-4A10.2,10.2,0,0,1,39.74,42L38,42.64a11.74,11.74,0,0,0-1.17-3.2Zm1.89,13.94a21.87,21.87,0,0,1,.44,3.77l-2.69.34a27.49,27.49,0,0,0-.3-3.86ZM45,52.59a20.43,20.43,0,0,1,1.21,3.68l-2.76.62a20.07,20.07,0,0,0-1-3.79ZM47.15,38.5h-4v4.39h4Zm-3.57,3.59a23.23,23.23,0,0,0,1.27-3.32l2,.72c-.57,1.19-1.13,2.41-1.61,3.24Zm5.89,10a25.36,25.36,0,0,1,2.85,4l-2.74,1A22.43,22.43,0,0,0,46.89,53Z" style="fill: #ffe9d7"/>
            <path d="M47.31,73.87a14.55,14.55,0,0,0,2.62-.21c.09.74.16,1.61.25,2.23a12.67,12.67,0,0,1-2.71.19H42.89c-2.66,0-3.47-.83-3.52-3l-2.89.27-.21-2.09,3.1-.27V69.39H35.72v4.34c0,3.15-.42,7.54-2.88,10.28a9,9,0,0,0-2-1.52c2.16-2.48,2.39-6,2.39-8.78V67.25h5.86V62.69h2.72v1.48H50v2.11H41.77v1h7.65l.42-.07,1.88.41a39.55,39.55,0,0,1-1.49,4L48,71c.18-.46.36-1,.55-1.63H42v1.37l5.31-.46.21,2L42,72.84v.06c0,.69.16,1,1,1Zm-6.12,2.94c0,4.58-.5,6.56-5.45,7.45a5.65,5.65,0,0,0-1.29-2c4-.62,4.21-1.78,4.19-5.48Zm8.21,4.83c.69,0,.8-.37.9-3a7.79,7.79,0,0,0,2.27.89c-.25,3.36-.92,4.19-2.92,4.19H47c-2.44,0-3-.69-3-2.81V76.81h2.57v4.1c0,.64.12.73.83.73Z" style="fill: #ffe9d7"/>
            <path d="M43.88,98.8c1.52,4.49,4.3,8.1,8.6,9.84a11.24,11.24,0,0,0-2,2.58c-4.16-2-6.83-5.31-8.63-9.75a15.8,15.8,0,0,1-8.59,9.77,8.28,8.28,0,0,0-2.05-2.32A13.77,13.77,0,0,0,39.53,98.8H31.62V96H40c.24-2.16.21-4.25.24-6.14h3c0,1.89,0,4-.27,6.14h9V98.8Z" style="fill: #ffe9d7"/>
            <path d="M52.37,131.07H49.79v4.14c0,1.31-.21,2-1.1,2.48a9.75,9.75,0,0,1-3.77.46,10.37,10.37,0,0,0-.79-2.64c1.11,0,2.26,0,2.6,0s.46-.09.46-.36v-4.12h-4.5a17.84,17.84,0,0,1,2.69,3.52L43.12,136a15.84,15.84,0,0,0-2.62-3.75l2-1.13H39.31v-2.39h1a8,8,0,0,0-1.15-1.63,18.2,18.2,0,0,0,6.16-2.81,14.14,14.14,0,0,0-2.3-2.55,22.6,22.6,0,0,1-2.75,1.56,12,12,0,0,0-1.64-1.63v16.81h-2.5v-7.77H34.55v0c0,1.88-.26,5.45-1.75,7.8a11.64,11.64,0,0,0-2-1.34c1.22-1.95,1.38-4.85,1.38-6.48H31v-2.37h5.06v-2.53H32v-7.87h2.37v5.52h1.77V117h2.5v4.58a14.78,14.78,0,0,0,6.19-4.62l2.67.71c-.33.37-.65.76-1,1.15h3.34l.43-.11,1.68.8c-1.81,4.81-5.77,7.64-10.34,9.2h5.65V125.9h2.6v2.78h2.58Zm-8.58-6.23c-1.47.32-2.94.6-4.26.85l-.43-1.89c1.19-.16,2.8-.43,4.51-.73Zm1-4.23a15.4,15.4,0,0,1,2.12,2.18,9.39,9.39,0,0,0,1.66-2.18Z" style="fill: #ffe9d7"/>
            <path d="M51.91,163.13H43.1v2.39H40.41v-2.39H31.74v-2.44h8.67v-1.08H34.06v-8h6.35v-1h-5v-2h5v-.92H43.1v.92H48v2H43.1v1h6.69v8H43.1v1.08h8.81Zm-17.39-13H31.9v-5H51.68v5H48.92V147.4H34.52Zm2.12,4.62h3.77v-1.22H36.64Zm3.77,3v-1.24H36.64v1.24Zm2.69-4.24v1.22h4v-1.22Zm4,3h-4v1.24h4Z" style="fill: #ffe9d7"/>
          </g>
          <path d="M53.48,17.56v9.27H50V21.66a2.35,2.35,0,0,0-.78.18c-.33.12-.69.27-1.1.44a9.29,9.29,0,0,1-1.29.43,5.16,5.16,0,0,1-1.41.19,2.24,2.24,0,0,1-1.84-1,6.73,6.73,0,0,1-1.12-2.5A16.77,16.77,0,0,1,42,16h.46a16.14,16.14,0,0,1-.46,3.4,6.74,6.74,0,0,1-1.13,2.5,2.25,2.25,0,0,1-1.86,1,5.14,5.14,0,0,1-1.4-.19,9.9,9.9,0,0,1-1.3-.43l-1.09-.44a2.4,2.4,0,0,0-.78-.18v5.17H31V17.56a6,6,0,0,1,2.23.05,15.07,15.07,0,0,1,2.25.63l2,.72a4.75,4.75,0,0,0,1.52.33,1.69,1.69,0,0,0,1.54-.89,6.52,6.52,0,0,0,.53-3.14h2.3a6.64,6.64,0,0,0,.53,3.14,1.7,1.7,0,0,0,1.54.89A4.69,4.69,0,0,0,47,19l2-.72a15,15,0,0,1,2.27-.63A6,6,0,0,1,53.48,17.56Z" style="fill: #e8b356"/>
          <path d="M45.45,187a1.68,1.68,0,0,0-1.54.89,6.65,6.65,0,0,0-.53,3.13h-2.3a6.52,6.52,0,0,0-.53-3.13A1.67,1.67,0,0,0,39,187a4.75,4.75,0,0,0-1.52.33l-2,.72a16.32,16.32,0,0,1-2.25.62,6,6,0,0,1-2.23.05v-9.27h3.45v5.18a2.22,2.22,0,0,0,.78-.19l1.09-.43a9.91,9.91,0,0,1,1.3-.44,5.56,5.56,0,0,1,1.4-.19,2.25,2.25,0,0,1,1.86,1A6.77,6.77,0,0,1,42,186.86a16.13,16.13,0,0,1,.46,3.38H42a16.77,16.77,0,0,1,.49-3.38,6.76,6.76,0,0,1,1.12-2.52,2.24,2.24,0,0,1,1.84-1,5.57,5.57,0,0,1,1.41.19,9.29,9.29,0,0,1,1.29.44l1.1.43a2.17,2.17,0,0,0,.78.19v-5.18h3.45v9.27a6,6,0,0,1-2.22-.05,16.21,16.21,0,0,1-2.27-.62l-2-.72A4.69,4.69,0,0,0,45.45,187Z" style="fill: #e8b356"/>
        </g>
      </g>
    </g>
  </g>
</svg>
