<svg height="182.19" viewBox="0 0 1024.94 182.19" width="1024.94" xmlns="http://www.w3.org/2000/svg"><g fill="#fc462d" opacity=".18"><path d="m44.57 82.3-44.57-79.69h35.11l37.6 74.09-11.83.24 35.24-74.33h37.6l35.28 74.33-11.83-.24 37.6-74.09h34.61l-44.11 79.69h-42.09l-34.36-67.11h12.18l-34.34 67.11z"/><path d="m305.91 84.79q-27.14 0-43.7-4.79t-24.09-14.2q-7.53-9.39-7.53-23.34t7.53-23.35q7.53-9.4 24.09-14.19t43.7-4.8q27.15 0 43.7 4.8t24.1 14.19q7.53 9.41 7.53 23.35t-7.53 23.34q-7.54 9.4-24.1 14.2t-43.7 4.79zm0-23.66a136.51 136.51 0 0 0 22.16-1.55q9.35-1.58 14.45-5.58t5.1-11.51q0-7.47-5.1-11.52t-14.45-5.6a136.4 136.4 0 0 0 -22.16-1.56 142.35 142.35 0 0 0 -22.47 1.56q-9.65 1.56-15.07 5.6t-5.37 11.49q0 7.47 5.41 11.51t15.07 5.61a142.45 142.45 0 0 0 22.43 1.55z"/><path d="m397.42 82.3v-79.69h96.25a74.86 74.86 0 0 1 20.33 2.56 29.12 29.12 0 0 1 14.32 8.53q5.29 6 5.29 16.31a23.14 23.14 0 0 1 -2.49 11.33 17.91 17.91 0 0 1 -6.84 7 33.14 33.14 0 0 1 -10 3.61 75.51 75.51 0 0 1 -11.71 1.37l-9.09-1.74a186.93 186.93 0 0 1 22.85 1.24q8 1.13 11.21 4.05t3.17 8.4v17.03h-31.07v-13.3a9.41 9.41 0 0 0 -1.43-5.67c-.95-1.28-3-2.18-6.22-2.68a106.87 106.87 0 0 0 -14.76-.74h-48.68v22.39zm31.13-43.21h65.12a14.23 14.23 0 0 0 6.33-1.24c1.7-.83 2.56-2.41 2.56-4.73a4.43 4.43 0 0 0 -2.56-4.42 14.85 14.85 0 0 0 -6.28-1.18h-65.17z"/><path d="m546.46 53h34c.58 1.74 2.28 3.22 5.1 4.42a44.48 44.48 0 0 0 11.39 2.74 130.81 130.81 0 0 0 16.63.93q9.33 0 14.75-.56t7.66-2a4.44 4.44 0 0 0 2.24-3.92c0-1.58-1.21-2.8-3.61-3.67s-6.68-1.48-12.83-1.81-14.77-.5-25.89-.5a168 168 0 0 1 -21.48-1.18 54.63 54.63 0 0 1 -14.82-3.74 19.84 19.84 0 0 1 -8.53-6.47 16.06 16.06 0 0 1 -2.74-9.4 20.74 20.74 0 0 1 6.42-15.63q6.4-6.15 19.42-9.21t32.56-3q28.63 0 43.76 8.28t15.13 23.84h-32.26q-.61-4.11-7.72-6.29t-20.17-2.17q-12.94 0-19.23 1.49c-4.2 1-6.29 2.7-6.29 5.1a3.4 3.4 0 0 0 1.74 3 16.87 16.87 0 0 0 6 1.81 101 101 0 0 0 12.14.93q7.85.26 19.92.25a167 167 0 0 1 22.66 1.31 56.39 56.39 0 0 1 15.13 3.92 18.8 18.8 0 0 1 8.4 6.66 17.14 17.14 0 0 1 2.62 9.53q0 9.47-6 15.43t-18.86 8.83q-13 2.86-33.87 2.87a159.62 159.62 0 0 1 -21.73-1.37 92.78 92.78 0 0 1 -17.61-4 49.09 49.09 0 0 1 -13.08-6.6 28.55 28.55 0 0 1 -8.15-8.84 21.57 21.57 0 0 1 -2.8-10.98z"/><path d="m682.29 2.61h31.13v79.69h-31.13zm26.65 27.52h87.65v23.66h-87.65zm84.16-27.52h31.13v79.69h-31.13z"/><path d="m843.53 2.61h31.13v79.69h-31.13z"/><path d="m922.84 61.75v-21.75h62.16a14.89 14.89 0 0 0 6.29-1.19q2.55-1.17 2.55-5t-2.55-5.1a15.59 15.59 0 0 0 -6.29-1.19h-60.17v54.78h-31.12v-79.69h86.4a110.86 110.86 0 0 1 17.5 1.31 43.61 43.61 0 0 1 14.25 4.67 24.43 24.43 0 0 1 9.59 9.46q3.48 6.11 3.49 15.69t-3.49 15.19a21.22 21.22 0 0 1 -9.59 8.34 46.69 46.69 0 0 1 -14.25 3.61 162.77 162.77 0 0 1 -17.5.87z"/><path d="m105.08 172.73h-18.67l68-70.22h31.13v79.68h-31.15v-54.28l9.34 3.86-49.18 50.42h-37.36l-49.3-50.3 9.46-3.89v54.16h-31.12v-79.65h31.12z"/><path d="m195.47 182.19 53.42-79.68h34.61l53.91 79.68h-34.24l-46.17-71.34h18.55l-45.82 71.34zm27.89-12.07v-18.68h85.17v18.68z"/><path d="m376.26 161.65v-21.79h62.13a14.85 14.85 0 0 0 6.28-1.18c1.7-.79 2.56-2.47 2.56-5s-.86-4.36-2.56-5.11a15.54 15.54 0 0 0 -6.28-1.12h-60.14v54.78h-31.13v-79.72h86.41a109.56 109.56 0 0 1 17.47 1.31 43.43 43.43 0 0 1 14.26 4.67 24.5 24.5 0 0 1 9.59 9.46q3.48 6.1 3.48 15.69t-3.48 15.19a21.44 21.44 0 0 1 -9.59 8.34 47 47 0 0 1 -14.26 3.61 165.2 165.2 0 0 1 -17.49.87z"/></g><g fill="#ffe9d7" stroke="#da4e36" stroke-width="3.14"><circle cx="497.32" cy="139.85" r="36.88" stroke-miterlimit="10"/><circle cx="579.19" cy="139.85" r="36.88" stroke-miterlimit="10"/><circle cx="660.8" cy="139.85" r="36.88" stroke-miterlimit="10"/><circle cx="742.67" cy="139.85" r="36.88" stroke-miterlimit="10"/></g><path d="m522.2 118.46v5.41h-40.85v11.13c0 8.75-.71 22.1-5 30.46a24.34 24.34 0 0 0 -5-3.66c3.66-7.71 4-18.81 4-26.8v-16.54h19.53a22 22 0 0 0 -1.75-2.74l5.57-2.19a21.65 21.65 0 0 1 3.12 4.93zm-1.31 40.63c0 2.73-.49 4.26-2.24 5.19s-4.16 1-7.6 1a22.19 22.19 0 0 0 -1.64-5.42c2 .06 4.21.06 4.86.06s.93-.22.93-.88v-7.87h-6.39c-.77 5.19-2.36 10.44-5.64 14.38a19.69 19.69 0 0 0 -4.37-3.88 17.27 17.27 0 0 0 2.13-3.34h-5.93v7.06h-5.57v-7.06h-8.1v-5h8.1v-2.62h-6v-15.36h6v-2.35h-6.93v-4.54h6.95v-3.56h5.55v3.56h7.11v4.54h-7.11v2.4h6.29v15.32h-6.29v2.62h7.22v1.81c1.48-4.65 1.64-9.68 1.64-13.84v-14.6h17zm-32.54-17.83h7.82v-2.26h-7.82zm0 5.74h7.82v-2.35h-7.82zm26.85-.43v-5.25h-5.68c0 1.64-.06 3.39-.17 5.25zm-5.68-14.77v5h5.68v-5z" fill="#da4e36"/><path d="m561.14 151.27a48.53 48.53 0 0 1 -3.5 12.8 20.77 20.77 0 0 0 -4.86-3.23c3.5-7.33 3.77-18.05 3.77-25.81v-19.09h23.63v13.73h-18v6.4h2.79v-5.42h4.43v5.42h3.11v-5.42h4.49v5.42h2.57v5h-2.57v5.08h4v5.09zm9 2.79a41.75 41.75 0 0 1 -5 10.77 32.24 32.24 0 0 0 -4.6-3.06 28.76 28.76 0 0 0 4.21-9.08zm-8.09-13c-.06 1.64-.16 3.33-.33 5.08h3.23v-5.04zm.11-20.24v3.89h12.14v-3.89zm7.22 20.24v5.08h3.11v-5.04zm33.85-2.9c-1.42 7.05-3.94 12.63-7.44 17a26.68 26.68 0 0 0 9.24 4.7 21.8 21.8 0 0 0 -3.77 5.36 30.23 30.23 0 0 1 -9.79-5.74 33.2 33.2 0 0 1 -9.68 5.63 23.51 23.51 0 0 0 -2.24-4l-3.28 1.42a39.35 39.35 0 0 0 -4.43-8.42l4.76-2a47.5 47.5 0 0 1 4.15 6.78 29.18 29.18 0 0 0 6.73-3.93 39.72 39.72 0 0 1 -5.63-11.43l2.62-.66h-4v-5.8h1.69a20.86 20.86 0 0 0 -3.22-5.14c3.94-2.18 4.32-4.92 4.32-7.93v-7.87h16.35v11.87c0 1.53.11 2.08.66 2.08h1.73a7.65 7.65 0 0 0 2.4-.38c.06 1.53.22 3.66.39 5a7.22 7.22 0 0 1 -2.74.38h-2.41c-4.81 0-5.68-2.19-5.68-7.22v-6.07h-5.14v2.41c0 4.59-1.26 10-6.57 12.9h16.19l1-.21zm-16 4.7a27.27 27.27 0 0 0 4.32 8 28.28 28.28 0 0 0 4.43-8z" fill="#da4e36"/><path d="m506.59 105.27a4.73 4.73 0 0 1 -2.8-2.15c-1.26-2.17-3.12-4.17-6.47-4.2-2.34 0-5.05.83-6.47 2.66a.43.43 0 0 0 0 .55 1.27 1.27 0 0 1 .24 1.15c-.18.7-.94 1.08-1.62 1.43a6.77 6.77 0 0 1 -1.42.56 4.72 4.72 0 0 1 -3.49-.47c-2.18-1.24-4.79-2-7.7-.4-2 1.15-4 3.25-4.29 5.54a.47.47 0 0 0 .28.48 1.27 1.27 0 0 1 .79.88 2.74 2.74 0 0 1 -.68 2 6.42 6.42 0 0 1 -1 1.19 4.73 4.73 0 0 1 -3.25 1.35c-2.51 0-5.18.62-6.88 3.51-1.19 2-1.8 4.79-.94 6.93a.48.48 0 0 0 .49.28 1.28 1.28 0 0 1 1.12.36 2.75 2.75 0 0 1 .42 2.12 6.64 6.64 0 0 1 -.22 1.51 4.73 4.73 0 0 1 -2.15 2.79c-2.17 1.26-4.17 3.13-4.2 6.48 0 2.34.83 5 2.65 6.47a.46.46 0 0 0 .55 0 1.31 1.31 0 0 1 1.16-.25c.7.18 1.08.94 1.43 1.62a6.46 6.46 0 0 1 .56 1.42 4.7 4.7 0 0 1 -.47 3.5c-1.24 2.17-2 4.79-.4 7.7 1.15 2 3.25 4 5.54 4.28a.47.47 0 0 0 .48-.28 1.29 1.29 0 0 1 .88-.79 2.75 2.75 0 0 1 2 .69 6.37 6.37 0 0 1 1.19.95 4.75 4.75 0 0 1 1.35 3.26c0 2.51.62 5.17 3.51 6.87 2 1.19 4.79 1.8 6.93.94a.47.47 0 0 0 .28-.48 1.26 1.26 0 0 1 .36-1.12 2.8 2.8 0 0 1 2.12-.43 6.07 6.07 0 0 1 1.51.23 4.78 4.78 0 0 1 2.8 2.15c1.25 2.16 3.12 4.17 6.47 4.2 2.34 0 5.05-.84 6.47-2.65a.48.48 0 0 0 0-.56 1.3 1.3 0 0 1 -.25-1.16c.19-.69.94-1.07 1.62-1.43a6.63 6.63 0 0 1 1.42-.55 4.7 4.7 0 0 1 3.5.46c2.18 1.25 4.79 2 7.7.4 2-1.15 4-3.25 4.28-5.54a.47.47 0 0 0 -.28-.48 1.3 1.3 0 0 1 -.79-.87 2.8 2.8 0 0 1 .69-2 7.19 7.19 0 0 1 .95-1.19 4.75 4.75 0 0 1 3.26-1.35c2.51 0 5.17-.62 6.88-3.5 1.18-2 1.79-4.8.93-6.94a.46.46 0 0 0 -.48-.27 1.26 1.26 0 0 1 -1.12-.37 2.76 2.76 0 0 1 -.43-2.11 6.58 6.58 0 0 1 .23-1.51 4.73 4.73 0 0 1 2.15-2.8c2.16-1.26 4.17-3.12 4.2-6.47 0-2.34-.84-5-2.66-6.47a.43.43 0 0 0 -.55 0 1.29 1.29 0 0 1 -1.16.24c-.69-.18-1.07-.94-1.42-1.62a6.27 6.27 0 0 1 -.56-1.42 4.73 4.73 0 0 1 .46-3.49c1.24-2.18 2-4.79.4-7.71-1.15-2-3.25-4-5.54-4.28a.48.48 0 0 0 -.48.28 1.26 1.26 0 0 1 -.87.79 2.79 2.79 0 0 1 -2-.68 6.77 6.77 0 0 1 -1.19-1 4.68 4.68 0 0 1 -1.34-3.26c0-2.5-.63-5.17-3.51-6.87-2-1.18-4.79-1.8-6.94-.94a.47.47 0 0 0 -.27.49 1.28 1.28 0 0 1 -.37 1.12 2.76 2.76 0 0 1 -2.11.43 7.17 7.17 0 0 1 -1.51-.23z" fill="none" stroke="#fc462d" stroke-miterlimit="10" stroke-width=".75"/><path d="m588.46 105.27a4.73 4.73 0 0 1 -2.8-2.15c-1.26-2.17-3.12-4.17-6.47-4.2-2.34 0-5.05.83-6.47 2.66a.43.43 0 0 0 0 .55 1.27 1.27 0 0 1 .24 1.15c-.18.7-.94 1.08-1.62 1.43a6.77 6.77 0 0 1 -1.42.56 4.72 4.72 0 0 1 -3.49-.47c-2.18-1.24-4.79-2-7.7-.4-2 1.15-4 3.25-4.29 5.54a.47.47 0 0 0 .28.48 1.27 1.27 0 0 1 .79.88 2.74 2.74 0 0 1 -.68 2 6.42 6.42 0 0 1 -1 1.19 4.73 4.73 0 0 1 -3.25 1.35c-2.51 0-5.18.62-6.88 3.51-1.19 2-1.8 4.79-.94 6.93a.48.48 0 0 0 .49.28 1.28 1.28 0 0 1 1.12.36 2.75 2.75 0 0 1 .42 2.12 6.64 6.64 0 0 1 -.22 1.51 4.73 4.73 0 0 1 -2.15 2.79c-2.17 1.26-4.17 3.13-4.2 6.48 0 2.34.83 5 2.65 6.47a.46.46 0 0 0 .55 0 1.31 1.31 0 0 1 1.16-.25c.7.18 1.08.94 1.44 1.62a7 7 0 0 1 .55 1.42 4.7 4.7 0 0 1 -.47 3.5c-1.24 2.17-2 4.79-.4 7.7 1.15 2 3.25 4 5.54 4.28a.47.47 0 0 0 .48-.28 1.29 1.29 0 0 1 .88-.79 2.75 2.75 0 0 1 2 .69 6.37 6.37 0 0 1 1.19.95 4.75 4.75 0 0 1 1.35 3.26c0 2.51.62 5.17 3.51 6.87 2 1.19 4.79 1.8 6.93.94a.47.47 0 0 0 .28-.48 1.26 1.26 0 0 1 .36-1.12 2.8 2.8 0 0 1 2.12-.43 6.07 6.07 0 0 1 1.51.23 4.78 4.78 0 0 1 2.8 2.15c1.25 2.16 3.12 4.17 6.47 4.2 2.34 0 5-.84 6.47-2.65a.48.48 0 0 0 0-.56 1.3 1.3 0 0 1 -.25-1.16c.19-.69.94-1.07 1.62-1.43a6.63 6.63 0 0 1 1.42-.55 4.7 4.7 0 0 1 3.5.46c2.18 1.25 4.79 2 7.7.4 2-1.15 4-3.25 4.28-5.54a.47.47 0 0 0 -.28-.48 1.3 1.3 0 0 1 -.79-.87 2.8 2.8 0 0 1 .69-2 7.19 7.19 0 0 1 1-1.19 4.75 4.75 0 0 1 3.26-1.35c2.51 0 5.17-.62 6.88-3.5 1.18-2 1.79-4.8.93-6.94a.46.46 0 0 0 -.48-.27 1.26 1.26 0 0 1 -1.12-.37 2.76 2.76 0 0 1 -.43-2.11 6.58 6.58 0 0 1 .23-1.51 4.73 4.73 0 0 1 2.15-2.8c2.16-1.26 4.17-3.12 4.2-6.47 0-2.34-.84-5-2.66-6.47a.43.43 0 0 0 -.55 0 1.29 1.29 0 0 1 -1.16.24c-.69-.18-1.07-.94-1.42-1.62a6.27 6.27 0 0 1 -.56-1.42 4.73 4.73 0 0 1 .46-3.49c1.24-2.18 2-4.79.4-7.71-1.15-2-3.25-4-5.54-4.28a.48.48 0 0 0 -.48.28 1.26 1.26 0 0 1 -.87.79 2.79 2.79 0 0 1 -2-.68 6.77 6.77 0 0 1 -1.19-1 4.68 4.68 0 0 1 -1.34-3.26c0-2.5-.63-5.17-3.51-6.87-2-1.18-4.79-1.8-6.94-.94a.47.47 0 0 0 -.27.49 1.28 1.28 0 0 1 -.37 1.12 2.76 2.76 0 0 1 -2.11.43 7.17 7.17 0 0 1 -1.51-.23z" fill="none" stroke="#fc462d" stroke-miterlimit="10" stroke-width=".75"/><path d="m652.21 139.46a60.21 60.21 0 0 1 -5.2 14.87c.77.55 1.59 1.15 2.68 1.81 3.72 2.24 8.86 2.57 15.21 2.57a184.2 184.2 0 0 0 22.15-1.43 27.57 27.57 0 0 0 -1.92 6.68c-4.48.27-14.11.65-20.51.65-7.21 0-11.75-.6-15.75-2.9-2.24-1.25-4.21-3.06-5.3-3.06s-3.06 3.72-4.43 6.84l-4.32-6.18a23.11 23.11 0 0 1 6.34-5.64 47.89 47.89 0 0 0 3.56-9.46h-7.28c1.37-3.06 3-7.38 4.32-11.48h-6.12v-5.8h14.22c-1.2 3.72-2.68 8-4.05 11.71h2.24l1-.22zm-10.55-13.89c-.72-2.41-2.08-6.29-3.07-9.14l6-1.75c1 2.9 2.41 6.51 3.23 8.86zm16.73 30.07c-1-5.52-4-13.83-7.55-21.27a168.5 168.5 0 0 0 6.07-19.2l6.24 1.48c-1.86 6.73-4 12.14-6.07 17.72a113.39 113.39 0 0 1 7.65 18.87zm10.55-.11c-1.25-5.52-4.59-13.83-8.42-21.21a158.61 158.61 0 0 0 6.73-19.15l6.23 1.48a183.48 183.48 0 0 1 -6.67 17.67c3.45 6.34 7 13.89 8.37 18.81zm10.56.06c-1.48-5.58-5.14-13.84-9.24-21.27a152 152 0 0 0 7.49-19.15l6.23 1.59c-2.13 6.78-4.81 12.09-7.27 17.56 3.66 6.34 7.44 13.83 9.08 18.75z" fill="#da4e36"/><path d="m733.26 149.74c-.88-1.48-2.24-3.45-3.61-5.36v20.83h-5.85v-19.3a39 39 0 0 1 -4.54 4.16 29.9 29.9 0 0 0 -2.46-6.79 36.76 36.76 0 0 0 11.76-14.11h-10.56v-5.85h7.33a33.2 33.2 0 0 0 -3.83-5.9l4.87-3a30.45 30.45 0 0 1 4.59 6.84l-3 2.07h3.71l1.15-.27 3.28 2.41a54.32 54.32 0 0 1 -5.52 11.75c2.13 2.08 5.69 6 6.67 7.11zm34.84 9.79v4.81h-33.1v-4.81h8.64c-.49-1.37-1.09-2.85-1.59-4.05l3.5-1.09h-6.34v-11h24.94v11h-6.4l4.27 1.2c-.82 1.37-1.75 2.68-2.57 3.94zm-32.43-22.64h31.88v4.59h-31.88zm30.18-1.89h-28.38v-16.54h7.53v-4.27h5v4.27h3.06v-4.27h5v4.27h7.71zm-23.13-10.12h3.28v-2.62h-3.23zm0 6.24h3.28v-2.63h-3.23zm1.81 19.41h14.05v-3.28h-14.05zm2.62 3.89a51.34 51.34 0 0 1 2.08 5.14h4.87a44.35 44.35 0 0 0 2-5.14zm6-29.54v-2.62h-3.06v2.62zm-3.06 3.61v2.63h3.06v-2.63zm10.39-6.23h-3.23v2.62h3.23zm0 6.23h-3.23v2.63h3.23z" fill="#da4e36"/><path d="m670.06 105.27a4.78 4.78 0 0 1 -2.8-2.15c-1.26-2.12-3.12-4.12-6.46-4.2-2.34 0-5 .83-6.48 2.66a.46.46 0 0 0 0 .55 1.28 1.28 0 0 1 .25 1.15c-.19.7-1 1.08-1.62 1.43a6.86 6.86 0 0 1 -1.43.56 4.74 4.74 0 0 1 -3.49-.47c-2.18-1.24-4.79-2-7.7-.4-2 1.15-4 3.25-4.28 5.54a.46.46 0 0 0 .28.48 1.32 1.32 0 0 1 .79.88 2.79 2.79 0 0 1 -.69 2 6 6 0 0 1 -1 1.19 4.69 4.69 0 0 1 -3.25 1.35c-2.51 0-5.17.62-6.87 3.51-1.19 2-1.81 4.79-.94 6.93a.45.45 0 0 0 .48.28 1.28 1.28 0 0 1 1.15.44 2.8 2.8 0 0 1 .43 2.12 6.66 6.66 0 0 1 -.23 1.51 4.73 4.73 0 0 1 -2.15 2.79c-2.16 1.26-4.17 3.13-4.2 6.48 0 2.34.84 5 2.66 6.47a.46.46 0 0 0 .55 0 1.29 1.29 0 0 1 1.15-.25c.7.18 1.08.94 1.44 1.62a7 7 0 0 1 .55 1.42 4.75 4.75 0 0 1 -.46 3.5c-1.24 2.17-2 4.79-.4 7.7 1.15 2 3.24 4 5.53 4.28a.47.47 0 0 0 .48-.28 1.32 1.32 0 0 1 .88-.79 2.78 2.78 0 0 1 2 .69 6.3 6.3 0 0 1 1.18.95 4.72 4.72 0 0 1 1.36 3.26c0 2.51.61 5.17 3.51 6.87 2 1.19 4.78 1.8 6.93.94a.46.46 0 0 0 .27-.48 1.26 1.26 0 0 1 .36-1.12 2.82 2.82 0 0 1 2.13-.43 6 6 0 0 1 1.5.23 4.75 4.75 0 0 1 2.8 2.15c1.26 2.16 3.12 4.17 6.47 4.2 2.34 0 5.05-.84 6.47-2.65a.46.46 0 0 0 0-.56 1.3 1.3 0 0 1 -.25-1.16c.19-.69 1-1.07 1.62-1.43a6.71 6.71 0 0 1 1.43-.55 4.67 4.67 0 0 1 3.49.46c2.18 1.25 4.79 2 7.71.4 2-1.15 4-3.25 4.27-5.54a.47.47 0 0 0 -.27-.48 1.3 1.3 0 0 1 -.8-.87 2.8 2.8 0 0 1 .69-2 6.77 6.77 0 0 1 1-1.19 4.71 4.71 0 0 1 3.26-1.35c2.5 0 5.17-.62 6.87-3.5 1.18-2 1.8-4.8.94-6.94a.46.46 0 0 0 -.48-.27 1.29 1.29 0 0 1 -1.13-.37 2.76 2.76 0 0 1 -.43-2.11 7.17 7.17 0 0 1 .23-1.51 4.73 4.73 0 0 1 2.15-2.8c2.17-1.26 4.17-3.12 4.2-6.47 0-2.34-.84-5-2.65-6.47a.45.45 0 0 0 -.56 0 1.27 1.27 0 0 1 -1.15.24c-.7-.18-1.08-.94-1.43-1.62a6.27 6.27 0 0 1 -.56-1.42 4.73 4.73 0 0 1 .47-3.49c1.24-2.18 2-4.79.39-7.71-1.15-2-3.24-4-5.53-4.28a.47.47 0 0 0 -.48.28 1.26 1.26 0 0 1 -.87.79 2.79 2.79 0 0 1 -2.05-.68 6.11 6.11 0 0 1 -1.19-1 4.69 4.69 0 0 1 -1.35-3.26c0-2.5-.62-5.17-3.51-6.87-2-1.18-4.79-1.8-6.94-.94a.48.48 0 0 0 -.27.49 1.28 1.28 0 0 1 -.36 1.12 2.79 2.79 0 0 1 -2.12.43 7.17 7.17 0 0 1 -1.51-.23z" fill="none" stroke="#fc462d" stroke-miterlimit="10" stroke-width=".75"/><path d="m751.93 105.27a4.78 4.78 0 0 1 -2.8-2.15c-1.26-2.17-3.12-4.17-6.46-4.2-2.34 0-5 .83-6.48 2.66a.46.46 0 0 0 0 .55 1.28 1.28 0 0 1 .25 1.15c-.19.7-1 1.08-1.62 1.43a6.86 6.86 0 0 1 -1.43.56 4.74 4.74 0 0 1 -3.49-.47c-2.18-1.24-4.79-2-7.7-.4-2 1.15-4 3.25-4.28 5.54a.46.46 0 0 0 .28.48 1.32 1.32 0 0 1 .79.88 2.79 2.79 0 0 1 -.69 2 6 6 0 0 1 -1 1.19 4.69 4.69 0 0 1 -3.25 1.35c-2.51 0-5.17.62-6.87 3.51-1.19 2-1.81 4.79-.94 6.93a.45.45 0 0 0 .48.28 1.28 1.28 0 0 1 1.12.36 2.8 2.8 0 0 1 .43 2.12 6.66 6.66 0 0 1 -.23 1.51 4.73 4.73 0 0 1 -2.15 2.79c-2.16 1.26-4.17 3.13-4.2 6.48 0 2.34.84 5 2.66 6.47a.46.46 0 0 0 .55 0 1.29 1.29 0 0 1 1.15-.25c.7.18 1.08.94 1.44 1.62a7 7 0 0 1 .55 1.42 4.75 4.75 0 0 1 -.46 3.5c-1.24 2.17-2 4.79-.4 7.7 1.15 2 3.24 4 5.53 4.28a.47.47 0 0 0 .48-.28 1.32 1.32 0 0 1 .88-.79 2.77 2.77 0 0 1 2 .69 6.3 6.3 0 0 1 1.18.95 4.72 4.72 0 0 1 1.36 3.26c0 2.51.61 5.17 3.51 6.87 2 1.19 4.78 1.8 6.93.94a.46.46 0 0 0 .27-.48 1.26 1.26 0 0 1 .36-1.12 2.82 2.82 0 0 1 2.13-.43 6 6 0 0 1 1.5.23 4.75 4.75 0 0 1 2.8 2.15c1.26 2.16 3.12 4.17 6.47 4.2 2.34 0 5.05-.84 6.47-2.65a.46.46 0 0 0 0-.56 1.3 1.3 0 0 1 -.25-1.16c.19-.69 1-1.07 1.62-1.43a6.71 6.71 0 0 1 1.43-.55 4.67 4.67 0 0 1 3.49.46c2.18 1.25 4.79 2 7.71.4 2-1.15 4-3.25 4.27-5.54a.47.47 0 0 0 -.27-.48 1.3 1.3 0 0 1 -.8-.87 2.8 2.8 0 0 1 .69-2 6.77 6.77 0 0 1 1-1.19 4.71 4.71 0 0 1 3.26-1.35c2.5 0 5.17-.62 6.87-3.5 1.18-2 1.8-4.8.94-6.94a.46.46 0 0 0 -.48-.27 1.29 1.29 0 0 1 -1.13-.37 2.76 2.76 0 0 1 -.43-2.11 7.17 7.17 0 0 1 .23-1.51 4.73 4.73 0 0 1 2.15-2.8c2.17-1.26 4.17-3.12 4.2-6.47 0-2.34-.84-5-2.65-6.47a.45.45 0 0 0 -.56 0 1.27 1.27 0 0 1 -1.15.24c-.7-.18-1.08-.94-1.43-1.62a6.27 6.27 0 0 1 -.56-1.42 4.73 4.73 0 0 1 .47-3.49c1.24-2.18 2-4.79.39-7.71-1.15-2-3.24-4-5.53-4.28a.47.47 0 0 0 -.48.28 1.26 1.26 0 0 1 -.87.79 2.79 2.79 0 0 1 -2.05-.68 6.11 6.11 0 0 1 -1.19-1 4.69 4.69 0 0 1 -1.35-3.26c0-2.5-.62-5.17-3.51-6.87-2-1.18-4.79-1.8-6.94-.94a.48.48 0 0 0 -.27.49 1.28 1.28 0 0 1 -.36 1.12 2.79 2.79 0 0 1 -2.12.43 7.17 7.17 0 0 1 -1.51-.23z" fill="none" stroke="#fc462d" stroke-miterlimit="10" stroke-width=".75"/></svg>