<svg xmlns="http://www.w3.org/2000/svg" xmlns:xlink="http://www.w3.org/1999/xlink" width="92.41" height="251.59" viewBox="0 0 92.41 251.59">
  <defs>
    <radialGradient id="未命名漸層_16" data-name="未命名漸層 16" cx="42" cy="237.09" r="43.07" gradientTransform="translate(0 151.38) scale(1 0.36)" gradientUnits="userSpaceOnUse">
      <stop offset="0" stop-color="#998675"/>
      <stop offset="0.15" stop-color="#9b8774" stop-opacity="0.97"/>
      <stop offset="0.31" stop-color="#a28b71" stop-opacity="0.88"/>
      <stop offset="0.48" stop-color="#ae926d" stop-opacity="0.74"/>
      <stop offset="0.66" stop-color="#be9b66" stop-opacity="0.53"/>
      <stop offset="0.84" stop-color="#d3a75e" stop-opacity="0.27"/>
      <stop offset="1" stop-color="#e8b356" stop-opacity="0"/>
    </radialGradient>
  </defs>
  <g style="isolation: isolate">
    <g id="圖層_2" data-name="圖層 2">
      <g id="圖層_1-2" data-name="圖層 1">
        <g>
          <g>
            <path d="M6.59,15.48h67.9V218.66a8.93,8.93,0,0,0-8.93,8.93h-50a8.93,8.93,0,0,0-8.93-8.93Z" style="fill: #da4e36;stroke: #e8b356;stroke-miterlimit: 10;stroke-width: 0.75px"/>
            <ellipse cx="42" cy="237.09" rx="42" ry="14.5" style="mix-blend-mode: multiply;opacity: 0.51;fill: url(#未命名漸層_16)"/>
            <g>
              <path d="M36.27,68.3a14.24,14.24,0,0,1-3.29,5,13.31,13.31,0,0,0-2.18-1.54,10.2,10.2,0,0,0,2.87-4.12Zm4.48-.83h-8.5V52.71h8.5Zm-2.66-12.6H34.82V57h3.27Zm0,4.11H34.82v2.14h3.27Zm0,4.17H34.82v2.13h3.27ZM39,67.61a16.19,16.19,0,0,1,2.53,3.68l-2.3,1.17a18.17,18.17,0,0,0-2.43-3.89Zm13.55-7.87H50V70.18c0,1.38-.27,2.12-1,2.56a7.87,7.87,0,0,1-3.61.57,10.33,10.33,0,0,0-.92-2.69c1,0,2.07,0,2.41,0s.48-.14.48-.49v-7a22.27,22.27,0,0,1-4.85,6.51,13.15,13.15,0,0,0-1.86-2,20.24,20.24,0,0,0,5.77-7.94H41.35V57.21h6V51.88H50v5.33h2.49Z" style="fill: #ffe9d7"/>
              <path d="M39.4,83.71a21.58,21.58,0,0,1-2.49,4.85c.9.81,2.44,2.39,2.86,2.85l-1.55,2.28c-.39-.6-1-1.43-1.63-2.25v9h-2.5V92a18.83,18.83,0,0,1-2.42,2,11.73,11.73,0,0,0-1-2.81,15.66,15.66,0,0,0,5.51-5.93H31.3V82.79h3.8a27.08,27.08,0,0,0-1.7-2.71l2.13-1.15a18.86,18.86,0,0,1,1.94,2.87l-1.61,1h1.77l.43-.12Zm12.35-1.47V94.77H49.17v-.83H47.08v6.46H44.41V93.94H42.34V95H39.86V82.24h4.55V78.93h2.67v3.31Zm-9.41,2.44v2.2h2.07v-2.2Zm2.07,6.85V89.27H42.34v2.26Zm2.67-6.85v2.2h2.09v-2.2Zm2.09,6.85V89.27H47.08v2.26Z" style="fill: #ffe9d7"/>
              <path d="M47.15,110.16A12.06,12.06,0,0,1,44.69,112a35.83,35.83,0,0,0,7.93,1.15,12,12,0,0,0-1.5,2.35,30.37,30.37,0,0,1-9.42-2.12,44.83,44.83,0,0,1-9.13,2.14A12.74,12.74,0,0,0,31,113.2a45,45,0,0,0,8-1.34,12.86,12.86,0,0,1-2.09-1.77l2.21-.92a9.32,9.32,0,0,0,2.62,1.73,9.61,9.61,0,0,0,2.94-1.84ZM40,107.1a22.57,22.57,0,0,1-6.85,4.05,24.51,24.51,0,0,0-1.86-2,19.25,19.25,0,0,0,6.28-3Zm-8.35,8.69H42.23v2.12H41v9.66H38.36v-1.75c-2.43.23-4.83.44-6.76.6l-.23-2.1c.51,0,1.08,0,1.68-.09v-6.32H31.62Zm6.74,2.12H35.58v.9h2.78Zm-2.78,3.47h2.78v-.87H35.58Zm2.78,2.51V123H35.58v1Zm13.41-7.18c-.74,1.18-1.61,2.51-2.35,3.57,1.66,1.17,2.19,2.25,2.19,3.24a2.53,2.53,0,0,1-1.24,2.42,3.19,3.19,0,0,1-1.36.46,13,13,0,0,1-2.09,0,5.27,5.27,0,0,0-.76-2.28,9.17,9.17,0,0,0,1.52,0,1.94,1.94,0,0,0,.75-.11.88.88,0,0,0,.46-.86c0-.66-.59-1.58-2.25-2.62.51-.85,1-1.86,1.47-2.76H45.67v9.71H43V115.79h6.34l.44-.11ZM50,111.17a33.18,33.18,0,0,0-6.85-3.54L45,106a37.75,37.75,0,0,1,7,3.34Z" style="fill: #ffe9d7"/>
              <path d="M52.11,151.3V154H31.53V151.3h8.74v-4.43H33.72v-2.65h6.55v-4H32.5v-2.66h9.2a34.65,34.65,0,0,0-3.45-2.81l2.25-1.56a26.14,26.14,0,0,1,4.42,3.47l-1.22.9H51v2.66H43.28v4h6.6v2.65h-6.6v4.43Z" style="fill: #ffe9d7"/>
              <path d="M31.72,171.27a65.14,65.14,0,0,0-.83-6.55l1.77-.3a63.38,63.38,0,0,1,.94,6.41Zm20.81,8.19v1.83H40.23v-1.58a10.66,10.66,0,0,1-.88,2.11,10.37,10.37,0,0,0-2-1.33,11,11,0,0,0,.92-2.39l-1.38,1.42c-.35-.73-1-1.81-1.57-2.85a12.34,12.34,0,0,1-2.66,5.15A9.17,9.17,0,0,0,30.91,180c2.6-3.08,2.88-7.17,2.88-11.08v-8.28h2.32v8.17a40.56,40.56,0,0,0,1-4.65l1.88.62V163.7H43.4v-3.35H46v1.1h5.61v1.61H46v.64h4.37l.37-.07,1.68.28a31.38,31.38,0,0,1-.72,3.75l-2-.32c.07-.49.12-1.08.21-1.73H46.32v.67l2.69-.16.07,1.38-2.76.2c0,.35.14.51.6.51h1.84a9,9,0,0,0,1.81-.16c.07.64.07,1,.19,1.63a7.14,7.14,0,0,1-1.87.16H46.11c-1.54,0-2-.59-2.16-1.65l-2.14.21-.09-1.8,2.18-.14v-.85H41.31v5.11a31.61,31.61,0,0,1-1,8.74h1.34v-3.41h9.86v3.41ZM36.11,169.41a38.09,38.09,0,0,1-.25,4.53c.69.92,2,2.92,2.5,3.7a30.1,30.1,0,0,0,.6-6.92v-5.59c-.57,1.63-1.1,3.56-1.61,4.76Zm6,.94h9v5.08h-9Zm1.47,9.11h1v-1.8h-1Zm.57-7.18h1.45v-.69H44.11Zm0,1.91h1.45v-.71H44.11ZM46,177.66v1.8h1v-1.8Zm3-6.07H47.45v.69H49Zm0,1.89H47.45v.71H49Zm-.46,4.18v1.8h1v-1.8Z" style="fill: #ffe9d7"/>
            </g>
            <path d="M53.48,33.84v9.27H50V37.93a2.41,2.41,0,0,0-.78.19l-1.09.44a11.65,11.65,0,0,1-1.3.43,5.57,5.57,0,0,1-1.41.19,2.24,2.24,0,0,1-1.84-1,6.71,6.71,0,0,1-1.12-2.51A17.28,17.28,0,0,1,42,32.32h.46A16,16,0,0,1,42,35.71a6.71,6.71,0,0,1-1.12,2.51,2.28,2.28,0,0,1-1.87,1,5.56,5.56,0,0,1-1.4-.19,11.65,11.65,0,0,1-1.3-.43l-1.09-.44a2.41,2.41,0,0,0-.78-.19v5.18H31V33.84a6,6,0,0,1,2.23,0,14.74,14.74,0,0,1,2.25.63l2,.72a4.64,4.64,0,0,0,1.51.33,1.69,1.69,0,0,0,1.54-.89,6.52,6.52,0,0,0,.53-3.14h2.3a6.64,6.64,0,0,0,.53,3.14,1.7,1.7,0,0,0,1.54.89A4.69,4.69,0,0,0,47,35.24l2-.72a14.55,14.55,0,0,1,2.26-.63A6,6,0,0,1,53.48,33.84Z" style="fill: #e8b356"/>
            <path d="M45.45,205.39a1.69,1.69,0,0,0-1.54.9,6.65,6.65,0,0,0-.53,3.13h-2.3a6.52,6.52,0,0,0-.53-3.13,1.68,1.68,0,0,0-1.54-.9,4.45,4.45,0,0,0-1.51.34l-2,.72a16,16,0,0,1-2.25.62,6.22,6.22,0,0,1-2.23.05v-9.27h3.45V203a2.35,2.35,0,0,0,.78-.18l1.09-.44a11.65,11.65,0,0,1,1.3-.44,5.54,5.54,0,0,1,1.4-.18,2.28,2.28,0,0,1,1.87,1A6.71,6.71,0,0,1,42,205.25a16.23,16.23,0,0,1,.46,3.39H42a17.62,17.62,0,0,1,.49-3.39,6.71,6.71,0,0,1,1.12-2.51,2.24,2.24,0,0,1,1.84-1,5.56,5.56,0,0,1,1.41.18,11.65,11.65,0,0,1,1.3.44l1.09.44A2.35,2.35,0,0,0,50,203v-5.17h3.45v9.27a6.17,6.17,0,0,1-2.22-.05,15.71,15.71,0,0,1-2.26-.62l-2-.72A4.49,4.49,0,0,0,45.45,205.39Z" style="fill: #e8b356"/>
          </g>
          <g>
            <path d="M74.91,3.51a2.59,2.59,0,0,1-1.54-1.19A4,4,0,0,0,69.79,0a4.58,4.58,0,0,0-3.57,1.47.24.24,0,0,0,0,.3.73.73,0,0,1,.13.64c-.1.39-.52.6-.89.79a4.19,4.19,0,0,1-.79.31,2.65,2.65,0,0,1-1.93-.26A4,4,0,0,0,58.49,3a4.6,4.6,0,0,0-2.37,3.06.25.25,0,0,0,.16.26.7.7,0,0,1,.43.49c.11.38-.15.77-.38,1.13a3.23,3.23,0,0,1-.52.65,2.61,2.61,0,0,1-1.8.75,4,4,0,0,0-3.8,1.94,4.65,4.65,0,0,0-.52,3.83.27.27,0,0,0,.27.15.7.7,0,0,1,.62.2,1.58,1.58,0,0,1,.24,1.17,3.88,3.88,0,0,1-.13.83A2.61,2.61,0,0,1,49.5,19a4,4,0,0,0-2.32,3.57,4.6,4.6,0,0,0,1.47,3.58.25.25,0,0,0,.3,0,.71.71,0,0,1,.64-.14c.39.1.6.52.79.9a3.53,3.53,0,0,1,.31.78,2.55,2.55,0,0,1-.26,1.93,4.06,4.06,0,0,0-.22,4.26,4.62,4.62,0,0,0,3.06,2.36.27.27,0,0,0,.27-.15.7.7,0,0,1,.48-.44,1.53,1.53,0,0,1,1.13.38,4.14,4.14,0,0,1,.66.53,2.57,2.57,0,0,1,.74,1.8,4,4,0,0,0,1.94,3.79,4.58,4.58,0,0,0,3.83.52.24.24,0,0,0,.15-.26.69.69,0,0,1,.2-.62,1.5,1.5,0,0,1,1.17-.24,3.49,3.49,0,0,1,.84.13,2.64,2.64,0,0,1,1.54,1.18,4,4,0,0,0,3.58,2.32,4.61,4.61,0,0,0,3.57-1.46.25.25,0,0,0,0-.31.73.73,0,0,1-.14-.64c.11-.38.52-.59.9-.79a3.7,3.7,0,0,1,.78-.3,2.57,2.57,0,0,1,1.94.25,4,4,0,0,0,4.25.22,4.54,4.54,0,0,0,2.36-3.06.24.24,0,0,0-.15-.26.72.72,0,0,1-.44-.48,1.59,1.59,0,0,1,.38-1.14,4.07,4.07,0,0,1,.53-.65,2.64,2.64,0,0,1,1.8-.75,4.06,4.06,0,0,0,3.8-1.93,4.68,4.68,0,0,0,.52-3.84.28.28,0,0,0-.27-.15.7.7,0,0,1-.62-.2,1.52,1.52,0,0,1-.24-1.17,3.49,3.49,0,0,1,.13-.83,2.64,2.64,0,0,1,1.19-1.55,4,4,0,0,0,2.31-3.57A4.57,4.57,0,0,0,90.94,19a.24.24,0,0,0-.31,0,.73.73,0,0,1-.64.13c-.38-.1-.59-.52-.78-.89a3.61,3.61,0,0,1-.31-.79,2.6,2.6,0,0,1,.25-1.93,4,4,0,0,0,.22-4.26,4.6,4.6,0,0,0-3.05-2.36.27.27,0,0,0-.27.15.7.7,0,0,1-.48.44,1.51,1.51,0,0,1-1.13-.38,3.34,3.34,0,0,1-.66-.53A2.56,2.56,0,0,1,83,6.83,4.06,4.06,0,0,0,81.1,3a4.59,4.59,0,0,0-3.83-.52.25.25,0,0,0-.15.27.76.76,0,0,1-.2.62,1.53,1.53,0,0,1-1.17.23,4.05,4.05,0,0,1-.84-.12m-.55,2.05a17.58,17.58,0,0,1,4.26,1.77,17.35,17.35,0,0,1,3.65,2.8,18.11,18.11,0,0,1,2.81,3.65A17.84,17.84,0,0,1,86.84,18a17.64,17.64,0,0,1,.6,4.57,17.85,17.85,0,0,1-.6,4.57,17.34,17.34,0,0,1-1.76,4.25,17.53,17.53,0,0,1-2.81,3.66,18.11,18.11,0,0,1-3.65,2.81,17.91,17.91,0,0,1-4.26,1.76,17.51,17.51,0,0,1-4.56.6,17.7,17.7,0,0,1-15.29-8.82,17.57,17.57,0,0,1-2.37-8.83,17.49,17.49,0,0,1,2.37-8.82,18.39,18.39,0,0,1,2.8-3.66,17.66,17.66,0,0,1,17-4.57" style="fill: #e8b356;fill-rule: evenodd"/>
            <circle cx="69.75" cy="22.67" r="17.62" style="fill: #fc462d"/>
            <path d="M76.28,31.72H64.14V29.31l5.73-6.11A14.07,14.07,0,0,0,71.61,21a3.6,3.6,0,0,0,.57-1.83,2.69,2.69,0,0,0-.6-1.85,2.15,2.15,0,0,0-1.7-.68,2.31,2.31,0,0,0-1.88.82,3.25,3.25,0,0,0-.69,2.16H63.78a5.82,5.82,0,0,1,.77-2.95,5.4,5.4,0,0,1,2.19-2.1,6.61,6.61,0,0,1,3.2-.76,6.27,6.27,0,0,1,4.25,1.31,4.65,4.65,0,0,1,1.52,3.71A6,6,0,0,1,75,21.46a15,15,0,0,1-2.34,3.17l-4,4.25h7.62Z" style="fill: #fff"/>
          </g>
        </g>
      </g>
    </g>
  </g>
</svg>
