<?xml version="1.0" encoding="UTF-8"?>
<svg id="b" data-name="圖層 2" xmlns="http://www.w3.org/2000/svg" width="371.2" height="41.05" viewBox="0 0 371.2 41.05">
  <defs>
    <style>
      .d {
        fill: #fff;
      }

      .e {
        fill: #302725;
      }

      .f {
        opacity: .4;
      }
    </style>
  </defs>
  <g id="c" data-name="圖層 2">
    <g class="f">
      <g>
        <path class="d" d="M23.03,16.97h-4.35L34.52,.61h7.25V19.17h-7.25V6.53l2.18,.9-11.46,11.75h-8.7L5.05,7.46l2.2-.9v12.62H0V.61H7.25l15.78,16.36Z"/>
        <path class="d" d="M53.09,11.34v2.32h22.05v5.51h-29.3V.61h29.24V6.12h-21.99v2.32h17.99v2.9h-17.99Z"/>
        <path class="d" d="M78.9,19.17V.61h22.42c1.76,0,3.34,.2,4.74,.59s2.51,1.06,3.34,1.99c.82,.93,1.23,2.2,1.23,3.8,0,1.06-.19,1.94-.58,2.64-.39,.7-.92,1.24-1.6,1.62-.68,.39-1.45,.67-2.32,.84-.87,.17-1.78,.28-2.73,.32l-2.12-.41c2.3,.02,4.08,.12,5.32,.29,1.25,.17,2.12,.49,2.61,.94,.49,.46,.74,1.11,.74,1.96v3.97h-7.25v-3.1c0-.58-.11-1.02-.33-1.32-.22-.3-.71-.51-1.45-.62-.74-.12-1.89-.17-3.44-.17h-11.34v5.22h-7.25Zm7.25-10.07h15.17c.58,0,1.07-.1,1.46-.29,.4-.19,.59-.56,.59-1.1,0-.5-.2-.85-.59-1.03-.4-.18-.88-.28-1.46-.28h-15.17v2.7Z"/>
        <path class="d" d="M149.02,11.43c-.1,1.84-.76,3.38-2,4.61-1.24,1.24-3.06,2.17-5.47,2.79-2.41,.62-5.45,.93-9.12,.93-2.8,0-5.32-.15-7.54-.45-2.22-.3-4.12-.81-5.69-1.54-1.57-.72-2.77-1.72-3.6-2.97-.83-1.26-1.25-2.84-1.25-4.76s.42-3.51,1.25-4.8c.83-1.29,2.03-2.31,3.6-3.08s3.46-1.31,5.69-1.64c2.22-.33,4.74-.49,7.54-.49,3.67,0,6.72,.33,9.14,1,2.42,.67,4.24,1.65,5.48,2.94,1.24,1.3,1.9,2.87,2,4.73h-7.54c-.23-.62-.66-1.16-1.28-1.64-.62-.47-1.55-.85-2.78-1.12-1.24-.27-2.91-.41-5.02-.41-2.48,0-4.49,.15-6.03,.45-1.55,.3-2.68,.78-3.39,1.44-.72,.66-1.07,1.53-1.07,2.61,0,.99,.36,1.79,1.07,2.41,.72,.62,1.85,1.07,3.39,1.36,1.55,.29,3.56,.43,6.03,.43,2.11,0,3.78-.12,5-.38,1.23-.25,2.15-.59,2.77-1.03,.62-.43,1.04-.9,1.28-1.41h7.54Z"/>
        <path class="d" d="M152.82,.61h7.25V19.17h-7.25V.61Zm6.21,6.41h20.42v5.51h-20.42V7.02ZM178.64,.61h7.25V19.17h-7.25V.61Z"/>
        <path class="d" d="M188.21,19.17L200.65,.61h8.06l12.56,18.57h-7.98l-10.76-16.62h4.32l-10.68,16.62h-7.98Zm6.5-2.81v-4.35h19.84v4.35h-19.84Z"/>
        <path class="d" d="M252.7,13.49l-2.7,1.54V.61h7.25V19.17h-7.25l-21.84-12.65,2.7-1.57v14.21h-7.25V.61h7.25l21.84,12.88Z"/>
        <path class="d" d="M282.2,.61c2.61,0,4.77,.25,6.47,.75,1.7,.5,3.04,1.19,4,2.06s1.65,1.86,2.05,2.97c.4,1.11,.59,2.28,.59,3.5s-.22,2.38-.67,3.5-1.17,2.1-2.19,2.97c-1.02,.87-2.36,1.56-4.03,2.06-1.67,.5-3.75,.75-6.22,.75h-20.89V.61h20.89Zm-13.63,12.76h13.34c1.08,0,2-.07,2.76-.22,.75-.14,1.36-.36,1.81-.65,.45-.29,.78-.65,.99-1.09,.2-.44,.3-.94,.3-1.52s-.1-1.09-.3-1.52c-.2-.44-.53-.8-.99-1.09-.45-.29-1.06-.51-1.81-.65-.75-.14-1.67-.22-2.76-.22h-13.34v6.96Z"/>
        <path class="d" d="M299.52,.61h7.25V19.17h-7.25V.61Z"/>
        <path class="d" d="M310.25,12.36h7.92c.14,.41,.53,.75,1.19,1.03,.66,.28,1.54,.49,2.65,.64,1.11,.15,2.4,.22,3.87,.22s2.6-.04,3.44-.13c.84-.09,1.44-.24,1.78-.46,.35-.22,.52-.53,.52-.91,0-.37-.28-.65-.84-.86-.56-.2-1.56-.34-2.99-.42-1.43-.08-3.44-.12-6.03-.12-1.93,0-3.6-.09-5-.28-1.4-.18-2.55-.47-3.45-.87-.9-.4-1.56-.9-1.99-1.51-.43-.61-.64-1.34-.64-2.19,0-1.47,.5-2.68,1.49-3.64,1-.96,2.5-1.67,4.53-2.15,2.02-.47,4.55-.71,7.59-.71,4.45,0,7.85,.64,10.2,1.93,2.35,1.29,3.52,3.14,3.52,5.56h-7.51c-.1-.64-.7-1.13-1.8-1.46-1.1-.34-2.67-.51-4.7-.51s-3.51,.12-4.48,.35c-.98,.23-1.46,.63-1.46,1.19,0,.29,.13,.52,.41,.7s.74,.31,1.41,.42c.67,.11,1.61,.18,2.83,.22s2.77,.06,4.64,.06c2.07,0,3.83,.1,5.28,.3,1.45,.2,2.62,.51,3.52,.91s1.55,.92,1.96,1.55c.41,.63,.61,1.37,.61,2.22,0,1.47-.46,2.67-1.39,3.6-.93,.93-2.4,1.62-4.41,2.06-2.01,.44-4.64,.67-7.89,.67-1.84,0-3.52-.11-5.06-.32s-2.91-.53-4.1-.94-2.21-.93-3.05-1.54c-.83-.61-1.46-1.3-1.9-2.06-.44-.76-.65-1.61-.65-2.54Z"/>
        <path class="d" d="M349.15,11.34v2.32h22.05v5.51h-29.3V.61h29.24V6.12h-21.99v2.32h17.99v2.9h-17.99Z"/>
      </g>
    </g>
    <g>
      <path class="e" d="M92.58,13.97h9.5v3.1h-6.11v15.23h-3.39V13.97Z"/>
      <path class="e" d="M133.12,36.06h-4.88v4.73h-3.24v-4.73h-5.31v-2.93h5.31v-2.58h-2.38c-.34,.83-.72,1.58-1.15,2.21-.49-.34-1.52-.89-2.24-1.2v6.05c0,1.35-.23,2.21-1.09,2.7-.89,.49-2.07,.57-3.82,.57-.09-.83-.54-2.12-.98-2.9,1.15,.06,2.27,.06,2.61,.06s.49-.12,.49-.49v-4.13h-5.71c-.29,2.7-.95,5.48-2.27,7.54-.49-.46-1.72-1.23-2.35-1.52,1.92-2.95,2.07-7.23,2.07-10.44v-4.25c-.57-.57-1.64-1.43-2.24-1.84,1.95-2.09,3.47-5.45,4.25-8.81l3.01,.63c-.17,.69-.37,1.38-.6,2.04h2.61l.43-.14,1.95,1.2c-.4,1.12-.97,2.44-1.58,3.61h3.21v1.75c2.38-1.09,3.24-2.75,3.64-4.85h-3.21v-2.78h12.74s-.03,.72-.06,1.09c-.14,4.56-.37,6.54-1,7.29-.49,.6-1.03,.83-1.75,.95-.63,.09-1.75,.11-2.9,.09-.06-.89-.34-2.04-.77-2.75,.89,.09,1.66,.11,2.07,.11,.34,0,.57-.06,.77-.32,.26-.32,.4-1.29,.52-3.67h-3.33c-.49,2.98-1.58,5.36-4.5,6.97l2.55,.52c-.11,.6-.23,1.23-.4,1.84h1.41v-2.58h3.24v2.58h4.3v2.87h-4.3v2.58h4.88v2.93Zm-21.46-16.69c-.32,.72-.63,1.43-.98,2.09h2.47c.29-.63,.55-1.38,.8-2.09h-2.29Zm-.72,9.64c0,.6,0,1.23-.03,1.89h1.66v-2.38h-1.63v.49Zm0-2.9h1.63v-2.15h-1.63v2.15Zm3.87,0h1.64v-2.15h-1.64v2.15Zm1.64,4.79v-2.38h-1.64v2.38h1.64Zm2.78,.17c.95-1.46,1.63-3.56,1.98-5.59-.2,.09-.4,.2-.6,.29-.26-.57-.83-1.38-1.38-1.95v7.26Z"/>
      <path class="e" d="M146.78,41.05h-9.52v-3.1h6.11v-15.23h3.41v18.33Z"/>
      <path class="e" d="M191.02,34.34h-8.09c2.7,1.26,5.57,2.75,7.32,3.84l-2.27,2.61c-1.84-1.26-4.99-3.1-7.83-4.48l1.52-1.98h-8.52l2.41,1.98c-2.47,1.64-6.05,3.44-8.86,4.56-.43-.72-1.26-1.84-1.89-2.55,2.52-.95,5.82-2.58,7.75-3.99h-7.83v-3.16h2.58l-.49-14.8c1.81-.57,4.02-1.43,5.48-2.12l1.46,2.78c-1.2,.43-2.55,.77-3.84,1.12l.09,2.58h3.27v2.78h-3.18l.09,2.47h3.18v2.78h-3.1l.09,2.41h14.97c.06-.75,.09-1.49,.14-2.32h-2.9v-2.81h3.01c.03-.8,.06-1.64,.09-2.47h-2.9v-2.81h2.98c0-.83,0-1.64,.03-2.47h-3.3v-2.93h6.43c0,5.11-.14,11.5-.37,15.81h2.5v3.16Zm-13.68-9.32c-.2,1.86-.66,3.76-1.46,4.96-.43-.37-1.55-1.03-2.15-1.35,.72-1.06,.95-2.52,1.06-4.04l2.55,.43Zm1.38-1.12h-4.33V14.37h2.9v1.95h4.5v2.81h-4.5v2.09h3.18v.06h1.09v7.26c0,1.18-.23,1.66-1,2.04-.75,.34-1.86,.34-3.27,.34-.11-.66-.46-1.49-.75-2.09,.75,.06,1.58,.06,1.84,.03,.26,0,.34-.06,.34-.32v-4.65Z"/>
      <path class="e" d="M208.9,13.97h9.5v3.1h-6.11v15.23h-3.39V13.97Z"/>
      <path class="e" d="M229.04,18.3v5.16c0,5.05-.49,12.71-3.53,17.53-.66-.57-2.21-1.46-3.13-1.78,2.9-4.48,3.13-11.1,3.13-15.75V15h22.89v3.3h-19.36Zm14.74,18.65c1.89,0,2.24-.66,2.53-3.84,.8,.55,2.27,1.12,3.27,1.32-.54,4.39-1.63,5.77-5.54,5.77h-7.09c-4.42,0-5.77-1.06-5.77-5.11v-14.43h14.92v8.49c0,1.72-.43,2.64-1.84,3.13-1.38,.52-3.36,.52-6.08,.52-.2-.98-.8-2.35-1.32-3.24,1.98,.11,4.42,.11,4.99,.09,.63-.03,.83-.14,.83-.57v-5.14h-8v11.13c0,1.64,.34,1.89,2.5,1.89h6.6Z"/>
      <path class="e" d="M263.1,41.05h-9.52v-3.1h6.11v-15.23h3.41v18.33Z"/>
    </g>
  </g>
</svg>