<?xml version="1.0" encoding="UTF-8"?>
<svg id="b" data-name="圖層 2" xmlns="http://www.w3.org/2000/svg" width="364.73" height="49.33" viewBox="0 0 364.73 49.33">
  <defs>
    <style>
      .d {
        fill: #fff;
      }

      .e {
        fill: #302725;
      }

      .f {
        opacity: .4;
      }
    </style>
  </defs>
  <g id="c" data-name="圖層 2">
    <g class="f">
      <g>
        <path class="d" d="M46.37,0V8.74H11.5v3.91h28.52v7.82H11.5v8.97H0V0H46.37Z"/>
        <path class="d" d="M63.39,17.02v3.68h34.96v8.74H51.89V0h46.37V8.74H63.39v3.68h28.52v4.6h-28.52Z"/>
        <path class="d" d="M101.57,29.44L121.3,0h12.79l19.92,29.44h-12.65L124.29,3.08h6.85l-16.93,26.36h-12.65Zm10.3-4.46v-6.9h31.46v6.9h-31.46Z"/>
        <path class="d" d="M149.87,0h47.84V8.74h-47.84V0Zm18.17,8.14h11.5V29.44h-11.5V8.14Z"/>
        <path class="d" d="M243.66,12.65V0h11.5V14.72c0,2.61-.48,4.82-1.45,6.65-.97,1.82-2.31,3.33-4.02,4.51-1.72,1.18-3.7,2.09-5.93,2.74-2.24,.64-4.64,1.1-7.2,1.36-2.56,.26-5.16,.39-7.8,.39-2.79,0-5.49-.13-8.1-.39-2.61-.26-5.02-.71-7.24-1.36-2.22-.64-4.16-1.56-5.82-2.74-1.66-1.18-2.95-2.68-3.89-4.51-.94-1.82-1.4-4.04-1.4-6.65V0h11.5V12.65c0,2.45,.6,4.32,1.79,5.61,1.2,1.29,2.91,2.17,5.13,2.65,2.22,.48,4.9,.71,8.03,.71s5.67-.24,7.91-.71c2.24-.48,3.96-1.36,5.17-2.65,1.21-1.29,1.82-3.16,1.82-5.61Z"/>
        <path class="d" d="M261.6,29.44V0h35.56c2.79,0,5.3,.31,7.52,.94,2.22,.63,3.99,1.68,5.29,3.15,1.3,1.47,1.95,3.48,1.95,6.03,0,1.69-.31,3.08-.92,4.19-.61,1.1-1.46,1.96-2.53,2.58-1.07,.61-2.3,1.06-3.68,1.33-1.38,.28-2.82,.45-4.32,.51l-3.36-.64c3.65,.03,6.46,.18,8.44,.46,1.98,.28,3.36,.77,4.14,1.5,.78,.72,1.17,1.76,1.17,3.1v6.3h-11.5v-4.92c0-.92-.18-1.62-.53-2.09-.35-.48-1.12-.81-2.3-.99-1.18-.18-3-.28-5.45-.28h-17.99v8.28h-11.5Zm11.5-15.96h24.06c.92,0,1.69-.15,2.32-.46,.63-.31,.94-.89,.94-1.75,0-.8-.31-1.34-.94-1.63-.63-.29-1.4-.44-2.32-.44h-24.06v4.28Z"/>
        <path class="d" d="M329.77,17.02v3.68h34.96v8.74h-46.46V0h46.37V8.74h-34.87v3.68h28.52v4.6h-28.52Z"/>
      </g>
    </g>
    <g>
      <path class="e" d="M123.94,36.13c-1.12-.95-3.53-2.29-5.36-3.1l1.81-2.55c1.78,.69,4.22,1.86,5.45,2.81l-1.89,2.84Zm-4.36,10.59c1.55-2.18,3.73-5.71,5.42-9.04l2.52,2.29c-1.52,2.98-3.36,6.25-5.05,9.04l-2.9-2.29Zm6.02-18.19c-1.15-.98-3.5-2.35-5.34-3.18l1.86-2.52c1.81,.72,4.25,1.98,5.45,2.9l-1.98,2.81Zm16.35,20.8c-.2-.75-.55-1.64-1-2.52-9.55,1.15-11.02,1.38-11.96,1.86-.2-.75-.77-2.44-1.21-3.41,.66-.2,1.21-.8,1.87-1.84,.52-.77,1.89-3.3,3.04-6.14h-5.39v-3.21h6.8v-4.04h-5.65v-3.24h5.65v-4.27h3.47v4.27h5.85v3.24h-5.85v4.04h6.91v3.21h-7.8c-1.15,2.61-2.58,5.19-3.99,7.37l6.74-.69c-.6-1.03-1.26-2.07-1.92-2.95l2.78-1.38c1.89,2.5,3.99,5.82,4.73,8.15l-3.07,1.55Z"/>
      <path class="e" d="M165.86,23.37c-.14,.17-.29,.37-.43,.55,2.64,2.29,7.34,4.27,11.9,5.16-.72,.6-1.69,1.81-2.15,2.61-.57-.14-1.18-.34-1.78-.52v7.4h-19.94v-7.23c-.6,.2-1.2,.4-1.78,.54-.34-.63-1.26-2.01-1.84-2.64,5.28-1.23,10.38-3.61,13-6.94l3.01,1.06Zm6.51,7.43c-1.35-.49-2.64-1.09-3.9-1.75v.75h-10.07v-.57c-1.12,.57-2.27,1.12-3.47,1.58h17.44Zm-17.3,8.72h16.87v9.7h-3.5v-.69h-10.01v.77h-3.36v-9.78Zm3.24-3.01c-.14-.89-.52-2.07-.98-2.98l2.21-.63h-3.24v3.61h2.01Zm.11,5.25v1.15h10.01v-1.15h-10.01Zm10.01,4.53v-1.15h-10.01v1.15h10.01Zm-6.51-13.4h-2.24c.52,.98,.97,2.21,1.15,3.04l-1.84,.57h2.93v-3.61Zm4.13-5.31c-.86-.6-1.69-1.23-2.41-1.86-.75,.63-1.58,1.26-2.44,1.86h4.85Zm-1.38,5.31v3.61h2.67l-1.72-.49c.4-.86,.86-2.18,1.12-3.13h-2.07Zm5.68,0h-2.98l2.24,.54c-.57,1.15-1.12,2.27-1.58,3.07h2.32v-3.61Z"/>
      <path class="e" d="M192.46,39.58l-2.75,.72v9.04h-3.24v-8.23l-3.79,.98-.83-3.47c1.26-.23,2.9-.57,4.62-.92v-6.31h-1.66c-.29,1.43-.63,2.78-1.03,3.82-.57-.26-1.78-.72-2.41-.92,.92-2.32,1.46-6.02,1.72-9.52l2.58,.4c-.09,1-.2,1.98-.34,2.98h1.15v-5.56h3.24v5.56h2.47v3.24h-2.47v5.59l2.38-.54,.37,3.16Zm15.66-.06h-2.75v6c0,1.69-.32,2.58-1.46,3.13-1.09,.52-2.7,.6-4.79,.6-.14-1-.6-2.41-1.03-3.39,1.35,.06,2.9,.06,3.36,.06,.43,0,.54-.11,.54-.49v-5.91h-9.12v-3.13h9.12v-2.01h3.38v2.01h2.75v3.13Zm-9.75-11.33h-5.39v-3.1h5.39v-2.55h3.38v2.55h5.74v3.1h-5.74v2.44h4.76v3.16h-12.48v-3.16h4.33v-2.44Zm-1.66,11.42c1.23,1.26,2.75,3.1,3.44,4.3l-2.7,1.75c-.6-1.2-2.04-3.13-3.27-4.5l2.52-1.55Z"/>
      <path class="e" d="M233.14,45.71c2.75,0,3.18-.63,3.56-4.19,.86,.49,2.27,1.03,3.21,1.21-.6,4.7-1.78,6.08-6.6,6.08h-9.81c-5.34,0-6.97-1.03-6.97-5.13v-10.44c-.57,.46-1.15,.86-1.69,1.26-.32-.8-1.23-2.5-1.84-3.27,3.39-2.04,6.86-5.34,8.78-8.89l3.1,1.18c-.23,.4-.49,.83-.72,1.23h6.6l.66-.17,2.18,1.64c-.98,1.38-2.21,2.93-3.53,4.27h7v10.79h-3.36v-.98h-13.88v3.39c0,1.75,.49,2.04,3.61,2.04h9.7Zm-11.16-17.93c-.77,.95-1.55,1.84-2.41,2.7h6.43c.83-.77,1.66-1.72,2.41-2.7h-6.43Zm-2.15,9.27h5.34v-3.41h-5.34v3.41Zm13.88-3.41h-5.22v3.41h5.22v-3.41Z"/>
    </g>
  </g>
</svg>