<?xml version="1.0" encoding="UTF-8"?>
<svg id="b" data-name="圖層 2" xmlns="http://www.w3.org/2000/svg" width="1020.83" height="109.91" viewBox="0 0 1020.83 109.91">
  <defs>
    <style>
      .e {
        fill: #fff;
      }

      .f {
        fill: #302725;
      }

      .g {
        opacity: .2;
      }
    </style>
  </defs>
  <g id="c" data-name="圖層 1">
    <g class="g">
      <g>
        <path class="e" d="M29.13,61.76v-21.79h62.13c2.49,0,4.58-.39,6.29-1.18,1.7-.79,2.55-2.47,2.55-5.04s-.85-4.36-2.55-5.1c-1.7-.75-3.8-1.12-6.29-1.12H31.13v54.78H0V2.62H86.41c6.23,0,12.06,.44,17.49,1.31,5.44,.87,10.19,2.43,14.26,4.67,4.07,2.24,7.26,5.4,9.59,9.46,2.32,4.07,3.49,9.3,3.49,15.69s-1.16,11.46-3.49,15.19c-2.32,3.74-5.52,6.52-9.59,8.34-4.07,1.83-8.82,3.03-14.26,3.61-5.44,.58-11.27,.87-17.49,.87H29.13Z"/>
        <path class="e" d="M146.79,82.3V2.62h96.24c7.55,0,14.34,.85,20.36,2.55,6.02,1.7,10.79,4.54,14.32,8.53,3.53,3.98,5.29,9.42,5.29,16.31,0,4.57-.83,8.34-2.49,11.33-1.66,2.99-3.94,5.31-6.85,6.97-2.91,1.66-6.23,2.86-9.96,3.61s-7.64,1.2-11.7,1.37l-9.09-1.74c9.88,.08,17.49,.5,22.85,1.25s9.09,2.1,11.21,4.05c2.12,1.95,3.17,4.75,3.17,8.4v17.06h-31.13v-13.32c0-2.49-.48-4.38-1.43-5.67-.96-1.29-3.03-2.18-6.23-2.68-3.2-.5-8.11-.75-14.75-.75h-48.68v22.41h-31.13Zm31.13-43.2h65.12c2.49,0,4.58-.42,6.29-1.25,1.7-.83,2.55-2.41,2.55-4.73,0-2.16-.85-3.63-2.55-4.42-1.7-.79-3.8-1.18-6.29-1.18h-65.12v11.58Z"/>
        <path class="e" d="M374.27,84.79c-18.1,0-32.66-1.6-43.7-4.79-11.04-3.19-19.07-7.93-24.09-14.19-5.02-6.27-7.53-14.05-7.53-23.34s2.51-17.08,7.53-23.34c5.02-6.27,13.05-11,24.09-14.19,11.04-3.2,25.61-4.79,43.7-4.79s32.66,1.6,43.7,4.79c11.04,3.2,19.07,7.93,24.09,14.19,5.02,6.27,7.53,14.05,7.53,23.34s-2.51,17.08-7.53,23.34c-5.02,6.27-13.05,11-24.09,14.19-11.04,3.19-25.61,4.79-43.7,4.79Zm0-23.66c8.55,0,15.94-.52,22.16-1.56,6.23-1.04,11.04-2.9,14.44-5.6,3.4-2.7,5.1-6.54,5.1-11.52s-1.7-8.82-5.1-11.52c-3.4-2.7-8.22-4.56-14.44-5.6-6.23-1.04-13.61-1.56-22.16-1.56s-16.04,.52-22.47,1.56c-6.43,1.04-11.46,2.91-15.07,5.6-3.61,2.7-5.42,6.54-5.42,11.52s1.81,8.82,5.42,11.52c3.61,2.7,8.63,4.57,15.07,5.6,6.43,1.04,13.92,1.56,22.47,1.56Z"/>
        <path class="e" d="M613.32,49.06c-.42,7.89-3.28,14.49-8.59,19.8-5.31,5.31-13.14,9.3-23.47,11.95-10.33,2.66-23.39,3.98-39.16,3.98-12.04,0-22.83-.64-32.37-1.93-9.55-1.29-17.68-3.49-24.4-6.6-6.72-3.11-11.87-7.37-15.44-12.76-3.57-5.39-5.35-12.2-5.35-20.42s1.78-15.08,5.35-20.61c3.57-5.52,8.72-9.92,15.44-13.2,6.72-3.28,14.86-5.62,24.4-7.04,9.54-1.41,20.34-2.12,32.37-2.12,15.77,0,28.84,1.43,39.22,4.3,10.38,2.86,18.22,7.08,23.53,12.64,5.31,5.56,8.17,12.33,8.59,20.29h-32.37c-1-2.66-2.82-5-5.48-7.04-2.66-2.03-6.64-3.63-11.95-4.79-5.31-1.16-12.49-1.74-21.54-1.74-10.63,0-19.26,.64-25.9,1.93-6.64,1.29-11.5,3.34-14.57,6.16-3.07,2.82-4.61,6.56-4.61,11.21,0,4.23,1.54,7.68,4.61,10.33,3.07,2.66,7.93,4.61,14.57,5.85,6.64,1.25,15.27,1.87,25.9,1.87,9.05,0,16.21-.54,21.48-1.62,5.27-1.08,9.23-2.55,11.89-4.42,2.66-1.87,4.48-3.88,5.48-6.04h32.37Z"/>
        <path class="e" d="M660.75,48.68v9.96h94.62v23.66h-125.75V2.62h125.5V26.27h-94.38v9.96h77.19v12.45h-77.19Z"/>
        <path class="e" d="M767.21,53.04h33.99c.58,1.74,2.28,3.22,5.1,4.42,2.82,1.2,6.62,2.12,11.39,2.74,4.77,.62,10.31,.93,16.62,.93s11.14-.19,14.75-.56c3.61-.37,6.16-1.04,7.66-1.99,1.49-.95,2.24-2.26,2.24-3.92s-1.2-2.8-3.61-3.67c-2.41-.87-6.68-1.47-12.82-1.8-6.14-.33-14.78-.5-25.9-.5-8.3,0-15.46-.39-21.48-1.18-6.02-.79-10.96-2.03-14.82-3.74-3.86-1.7-6.7-3.86-8.53-6.47-1.83-2.61-2.74-5.75-2.74-9.4,0-6.31,2.14-11.52,6.41-15.62,4.27-4.11,10.75-7.18,19.42-9.21,8.67-2.03,19.53-3.05,32.56-3.05,19.09,0,33.68,2.76,43.76,8.28,10.09,5.52,15.13,13.47,15.13,23.84h-32.25c-.42-2.74-2.99-4.83-7.72-6.29-4.73-1.45-11.45-2.18-20.17-2.18s-15.05,.5-19.24,1.49c-4.19,1-6.29,2.7-6.29,5.1,0,1.25,.58,2.24,1.74,2.99,1.16,.75,3.17,1.35,6.04,1.81,2.86,.46,6.91,.77,12.14,.93,5.23,.17,11.87,.25,19.92,.25,8.88,0,16.43,.44,22.66,1.31s11.27,2.18,15.13,3.92,6.66,3.96,8.4,6.66c1.74,2.7,2.61,5.87,2.61,9.53,0,6.31-1.99,11.45-5.98,15.44s-10.29,6.93-18.92,8.84c-8.63,1.91-19.92,2.86-33.87,2.86-7.89,0-15.13-.46-21.73-1.37-6.6-.91-12.47-2.26-17.62-4.05-5.15-1.78-9.51-3.98-13.07-6.6-3.57-2.61-6.29-5.56-8.16-8.84-1.87-3.28-2.8-6.91-2.8-10.89Z"/>
        <path class="e" d="M898.69,53.04h33.99c.58,1.74,2.28,3.22,5.1,4.42,2.82,1.2,6.62,2.12,11.39,2.74,4.77,.62,10.31,.93,16.62,.93s11.14-.19,14.75-.56c3.61-.37,6.16-1.04,7.66-1.99,1.49-.95,2.24-2.26,2.24-3.92s-1.2-2.8-3.61-3.67c-2.41-.87-6.68-1.47-12.82-1.8-6.14-.33-14.78-.5-25.9-.5-8.3,0-15.46-.39-21.48-1.18-6.02-.79-10.96-2.03-14.82-3.74-3.86-1.7-6.7-3.86-8.53-6.47-1.83-2.61-2.74-5.75-2.74-9.4,0-6.31,2.14-11.52,6.41-15.62,4.27-4.11,10.75-7.18,19.42-9.21,8.67-2.03,19.53-3.05,32.56-3.05,19.09,0,33.68,2.76,43.76,8.28,10.08,5.52,15.13,13.47,15.13,23.84h-32.25c-.42-2.74-2.99-4.83-7.72-6.29-4.73-1.45-11.45-2.18-20.17-2.18s-15.05,.5-19.24,1.49c-4.19,1-6.29,2.7-6.29,5.1,0,1.25,.58,2.24,1.74,2.99,1.16,.75,3.17,1.35,6.04,1.81,2.86,.46,6.91,.77,12.14,.93,5.23,.17,11.87,.25,19.92,.25,8.88,0,16.44,.44,22.66,1.31s11.27,2.18,15.13,3.92c3.86,1.74,6.66,3.96,8.4,6.66,1.74,2.7,2.61,5.87,2.61,9.53,0,6.31-1.99,11.45-5.98,15.44-3.98,3.98-10.29,6.93-18.92,8.84-8.63,1.91-19.92,2.86-33.87,2.86-7.89,0-15.13-.46-21.73-1.37-6.6-.91-12.47-2.26-17.62-4.05-5.15-1.78-9.5-3.98-13.07-6.6-3.57-2.61-6.29-5.56-8.16-8.84-1.87-3.28-2.8-6.91-2.8-10.89Z"/>
      </g>
    </g>
  </g>
  <g id="d" data-name="圖層 2">
    <g>
      <path class="f" d="M234.75,72.81v7.85l1-1.15c5.38,2.7,13.19,7,16.98,10.1l-4.38,5.45c-2.89-2.55-8.56-6.2-13.59-9.1v23.75h-6.37v-36.9h-17.97v-6h44.36v6h-20.02Z"/>
      <path class="f" d="M309.83,103.46c1.64,0,1.94-1.3,2.19-8.5,1.29,1.05,3.83,2.1,5.48,2.5-.6,8.95-2.09,11.55-7.17,11.55h-5.97c-5.63,0-7.07-1.9-7.07-7.75v-15.3h-7.47c-.9,10.4-3.19,18.95-15.09,23.8-.7-1.5-2.34-3.7-3.68-4.85,10.36-3.9,11.75-10.65,12.35-18.95h-11.25v-5.8h44.41v5.8h-13.14v15.3c0,1.9,.3,2.2,1.94,2.2h4.48Zm2.14-31.05h-35.35v-5.75h35.35v5.75Z"/>
      <path class="f" d="M350.65,95.31c2.44,3.45,5.33,7.85,6.72,10.8l-4.83,2.5c-.45-1.05-1.14-2.3-1.89-3.65-10.95,2.7-12.85,3.25-13.99,3.95-.4-1.3-1.74-3.6-2.64-4.6,.95-.7,2.09-2.15,2.09-4.4v-21.9c-.95-1.4-2.49-3.4-3.39-4.35,3.04-2.65,5.93-6.8,7.52-10.9l5.83,1.75c-.2,.55-.45,1.05-.7,1.6h10.41v5h-7.57c1.34,1.15,2.74,2.55,3.54,3.55l-3.09,2.6h6.97v17.85h-14.09v6.7l6.37-1.4c-.65-1.05-1.34-2.05-1.94-3l4.68-2.1Zm-7.97-24.2c-1.44,2.3-3.04,4.35-4.63,6.15h8.56c-1.05-1.25-2.44-2.7-3.58-3.75l2.89-2.4h-3.24Zm7.42,10.6h-8.56v2.6h8.56v-2.6Zm0,8.95v-2.1h-8.56v2.1h8.56Zm28.73-19.55h-8.31c1.19,1.1,2.44,2.3,3.09,3.15l-3.54,3h7.12v20.7c0,2.75-.45,4.25-2.39,5.15-1.79,.9-4.33,.95-7.97,.95-.2-1.6-1-3.95-1.69-5.45,2.24,.1,4.73,.1,5.43,.05,.75,0,1-.2,1-.85v-15.15h-7.77v27.05h-5.58v-30.75c-1.09-1.2-3.09-3.15-4.33-4.05,2.84-2.9,5.28-7.5,6.52-12.15l6.02,1.5c-.2,.6-.4,1.25-.6,1.85h13v5Zm-9.96,6.15c-1-1.25-2.54-2.9-3.88-4.1l2.49-2.05h-3.73c-1.1,2.3-2.34,4.35-3.58,6.15h8.71Z"/>
      <path class="f" d="M422.34,82.71c3.29,9.75,9.31,17.6,18.62,21.4-1.49,1.25-3.44,3.9-4.38,5.6-9.01-4.25-14.79-11.55-18.67-21.2-2.69,8.35-8.07,16.15-18.62,21.25-.95-1.65-2.69-3.8-4.43-5.05,11.4-5.1,16.13-13.4,18.07-22h-17.13v-6.15h18.12c.5-4.7,.45-9.25,.5-13.35h6.47c-.05,4.1-.1,8.7-.6,13.35h19.57v6.15h-17.53Z"/>
      <path class="f" d="M465.76,86.86c-1.94-1.65-6.12-4-9.31-5.4l3.14-4.45c3.09,1.2,7.32,3.25,9.46,4.9l-3.29,4.95Zm-7.57,18.45c2.69-3.8,6.47-9.95,9.41-15.75l4.38,4c-2.64,5.2-5.83,10.9-8.76,15.75l-5.03-4Zm10.46-31.7c-1.99-1.7-6.08-4.1-9.26-5.55l3.24-4.4c3.14,1.25,7.37,3.45,9.46,5.05l-3.44,4.9Zm28.38,36.25c-.35-1.3-.95-2.85-1.74-4.4-16.58,2-19.12,2.4-20.76,3.25-.35-1.3-1.34-4.25-2.09-5.95,1.15-.35,2.09-1.4,3.24-3.2,.9-1.35,3.29-5.75,5.28-10.7h-9.36v-5.6h11.8v-7.05h-9.81v-5.65h9.81v-7.45h6.02v7.45h10.16v5.65h-10.16v7.05h12v5.6h-13.54c-1.99,4.55-4.48,9.05-6.92,12.85l11.7-1.2c-1.05-1.8-2.19-3.6-3.34-5.15l4.83-2.4c3.29,4.35,6.92,10.15,8.21,14.2l-5.33,2.7Z"/>
      <path class="f" d="M545.47,64.61c-.25,.3-.5,.65-.75,.95,4.58,4,12.75,7.45,20.66,9-1.25,1.05-2.94,3.15-3.73,4.55-1-.25-2.04-.6-3.09-.9v12.9h-34.6v-12.6c-1.05,.35-2.09,.7-3.09,.95-.6-1.1-2.19-3.5-3.19-4.6,9.16-2.15,18.02-6.3,22.55-12.1l5.23,1.85Zm11.3,12.95c-2.34-.85-4.58-1.9-6.77-3.05v1.3h-17.48v-1c-1.94,1-3.93,1.95-6.02,2.75h30.27Zm-30.02,15.2h29.28v16.9h-6.08v-1.2h-17.38v1.35h-5.83v-17.05Zm5.63-5.25c-.25-1.55-.9-3.6-1.69-5.2l3.83-1.1h-5.63v6.3h3.49Zm.2,9.15v2h17.38v-2h-17.38Zm17.38,7.9v-2h-17.38v2h17.38Zm-11.3-23.35h-3.88c.9,1.7,1.69,3.85,1.99,5.3l-3.19,1h5.08v-6.3Zm7.17-9.25c-1.49-1.05-2.94-2.15-4.18-3.25-1.29,1.1-2.74,2.2-4.23,3.25h8.42Zm-2.39,9.25v6.3h4.63l-2.99-.85c.7-1.5,1.49-3.8,1.94-5.45h-3.58Zm9.86,0h-5.18l3.88,.95c-1,2-1.94,3.95-2.74,5.35h4.03v-6.3Z"/>
      <path class="f" d="M588.98,87.26c-1.94-1.7-6.03-4.05-9.21-5.4l3.09-4.55c3.14,1.2,7.37,3.3,9.41,5l-3.29,4.95Zm5.43,6.25c-2.64,5.2-5.78,10.9-8.71,15.75l-5.03-4c2.64-3.75,6.42-9.95,9.41-15.75l4.33,4Zm-3.73-19.6c-1.79-1.85-5.73-4.35-8.91-5.85l3.34-4.35c3.04,1.35,7.12,3.55,9.06,5.45l-3.49,4.75Zm7.62,13.3h5.33v4.85c0,5.55-.8,12.55-7.37,17.6-.85-1.2-2.84-3.1-4.18-3.9,5.58-4.1,6.22-9.55,6.22-13.9v-4.65Zm23.2,.2c-.55-.85-1.29-2-2.14-3.2-18.47,1.3-21.16,1.55-23,2.25-.3-1.15-1.19-4-1.84-5.45,1.24-.35,2.29-1.4,3.78-3.15,.6-.6,1.54-1.8,2.69-3.4h-6.52v-5.3h9.96c1.14-2,2.34-4.1,3.34-6.25l5.78,2.25c-.7,1.35-1.49,2.65-2.34,4h14.14v5.3h-6.87c2.59,3.15,6.07,7.3,7.87,9.9l-4.83,3.05Zm-13.94-12.95c-1.49,2.05-3.04,3.95-4.58,5.75l12.9-.7c-.85-1.05-1.64-2.1-2.39-3l3.49-2.05h-9.41Zm-.9,13.2h5.18v20h-5.18v-20Zm16.48,16.5c.7,0,1.74-.1,2.39-.3,.1,1.4,.25,3.25,.45,4.5-.75,.3-1.79,.35-2.79,.35h-2.49c-4.68,0-5.58-2-5.58-6.75v-14.75h5.43v14.8c0,1.6,.05,2.15,.7,2.15h1.89Z"/>
      <path class="f" d="M657.09,96.36c-.65-1.65-1.89-4.1-3.09-6.35v19.9h-5.63v-18.6c-1.44,4.15-3.09,8.05-4.93,10.8-.5-1.8-1.74-4.4-2.54-5.9,2.34-3.3,4.68-8.6,6.12-13.4h-5.48v-5.55h6.82v-6c-1.59,.3-3.19,.6-4.68,.8-.25-1.35-.95-3.35-1.59-4.6,5.08-.9,10.71-2.4,14.39-4.15l3.14,4.9c-1.74,.7-3.63,1.3-5.63,1.8v7.25h5.58v5.55h-5.58v.8c1.29,1.45,5.33,6.65,6.22,7.9l-3.14,4.85Zm30.47,7.25v5.3h-28.78v-5.3h12v-4.55h-9.46v-5.1h9.46v-4.05c-2.64,.2-5.33,.35-7.82,.45-.2-1.3-.85-3.3-1.44-4.5,7.17-.45,15.29-1.4,20.31-2.7l3.63,4.5c-2.64,.65-5.68,1.15-8.81,1.6v4.7h8.91v5.1h-8.91v4.55h10.9Zm-2.39-21.1h-23.6v-17.2h23.6v17.2Zm-5.73-12.2h-12.4v7.2h12.4v-7.2Z"/>
      <path class="f" d="M730.97,65.91c-.3,.45-.6,.9-.95,1.35,4.43,5.25,12.2,9.7,20.66,11.7-1.44,1.3-3.39,3.9-4.23,5.6-7.97-2.4-14.99-7.05-20.07-12.95-5.48,5.75-13,10.8-20.31,13.65-.8-1.65-2.29-4.15-3.63-5.75,9.51-2.85,19.12-9.75,23.7-17l4.83,3.4Zm-16.68,17.85h6.27v5.65c0,6.65-1.1,14.9-10.95,20.5-1.04-1.4-3.38-3.45-4.98-4.45,8.71-4.65,9.66-11,9.66-16.2v-5.5Zm18.72-.1h6.32v26.2h-6.32v-26.2Z"/>
      <path class="f" d="M780.46,94.36c-.1-.7-.25-1.55-.45-2.45-10.36,1.55-12.15,2-13.29,2.55-.3-1.1-1.25-3.85-1.89-5.35,1.29-.35,2.44-1.45,4.03-3.3,.6-.65,1.84-2.1,3.24-4-3.88,.45-5.03,.75-5.78,1.1-.3-1.1-1.15-3.7-1.79-5.1,1-.3,1.89-1.25,2.89-2.75,1.09-1.4,4.38-7,6.22-12.25l5.38,2.2c-1.94,4.15-4.48,8.5-7.12,12.05l3.63-.25c1.25-2.1,2.54-4.25,3.58-6.45l4.98,3.25c-2.99,5.1-6.72,10.25-10.65,14.5l5.38-.65c-.35-1.35-.8-2.6-1.2-3.8l4.28-1.4c1.29,3.35,2.64,7.8,3.19,10.45l-4.63,1.65Zm-8.81,2.45c-.35,4.45-1.14,9.2-2.19,12.25-1.1-.55-3.44-1.35-4.68-1.65,1.14-2.9,1.74-7.35,2.04-11.35l4.83,.75Zm5.58-.95c.65,3.4,1.19,7.8,1.39,10.7l-4.73,1c-.05-2.9-.6-7.4-1.15-10.9l4.48-.8Zm5.33-1.55c1.1,2.85,2.19,6.5,2.64,8.95l-4.53,1.6c-.35-2.5-1.44-6.25-2.39-9.15l4.28-1.4Zm27.88-28.85s-.05,1.55-.1,2.25c-.5,10.55-1.04,14.95-2.39,16.5-1,1.3-2.04,1.75-3.58,1.95-1.25,.2-3.39,.25-5.68,.15-.05-1.7-.7-3.95-1.54-5.45,1.84,.15,3.54,.2,4.43,.2,.65,0,1.1-.1,1.54-.6,.65-.75,1.1-3.4,1.44-9.8h-6.37c-.9,7.1-3.14,13.2-10.41,17.05-.7-1.45-2.29-3.5-3.54-4.5,5.73-2.85,7.42-7.4,8.12-12.55h-7.62v-5.2h25.69Zm-24.3,23.35h22.85v20.9h-6.12v-2.05h-10.95v2.25h-5.78v-21.1Zm5.78,5.2v8.45h10.95v-8.45h-10.95Z"/>
    </g>
  </g>
</svg>