<?xml version="1.0" encoding="UTF-8"?>
<svg id="b" data-name="圖層 2" xmlns="http://www.w3.org/2000/svg" width="410.62" height="117.29" viewBox="0 0 410.62 117.29">
  <defs>
    <style>
      .d {
        fill: #fff;
      }

      .e {
        fill: #302725;
      }

      .f {
        opacity: .2;
      }
    </style>
  </defs>
  <g id="c" data-name="圖層 2">
    <g class="f">
      <g>
        <path class="d" d="M125.5,2.49V26.15H31.13v10.58H108.32v21.17H31.13v24.28H0V2.49H125.5Z"/>
        <path class="d" d="M116.79,82.17L170.2,2.49h34.61l53.91,79.68h-34.24L178.29,10.83h18.55l-45.82,71.34h-34.24Zm27.89-12.08v-18.68h85.16v18.68h-85.16Z"/>
        <path class="d" d="M335.3,84.67c-18.1,0-32.66-1.6-43.7-4.79-11.04-3.19-19.07-7.92-24.09-14.19-5.02-6.27-7.53-14.05-7.53-23.34s2.51-17.08,7.53-23.35c5.02-6.27,13.05-11,24.09-14.19,11.04-3.19,25.61-4.79,43.7-4.79s32.66,1.6,43.7,4.79c11.04,3.2,19.07,7.93,24.09,14.19,5.02,6.27,7.53,14.05,7.53,23.35s-2.51,17.08-7.53,23.34c-5.02,6.27-13.05,11-24.09,14.19-11.04,3.19-25.61,4.79-43.7,4.79Zm0-23.66c8.55,0,15.94-.52,22.16-1.56,6.23-1.04,11.04-2.9,14.44-5.6,3.4-2.7,5.1-6.54,5.1-11.52s-1.7-8.82-5.1-11.52c-3.4-2.7-8.22-4.56-14.44-5.6-6.23-1.04-13.61-1.56-22.16-1.56s-16.04,.52-22.47,1.56c-6.43,1.04-11.46,2.91-15.07,5.6-3.61,2.7-5.42,6.54-5.42,11.52s1.81,8.82,5.42,11.52c3.61,2.7,8.63,4.57,15.07,5.6,6.43,1.04,13.92,1.56,22.47,1.56Zm-14.94,15.81h29.88v30.25h-29.88v-30.25Z"/>
      </g>
    </g>
    <g>
      <path class="e" d="M130.66,77.09v12.05h-5.92v-6.9h-31.17v6.9h-5.68v-12.05h6.72c-.75-1.45-1.79-3.1-2.79-4.35l5.38-2.2c1.44,1.65,2.99,3.85,3.63,5.35l-2.69,1.2h7.92v-6.85h6.12v6.85h7.82l-2.79-1c1.24-1.5,2.74-3.8,3.58-5.45l6.37,1.9c-1.44,1.75-2.84,3.3-4.08,4.55h7.57Zm-2.89,32.3c0,2.75-.55,4.2-2.54,5.1-1.94,.85-4.68,.85-8.21,.85-.3-1.65-1.1-3.9-1.89-5.4,2.24,.1,4.88,.1,5.58,.1,.75,0,1-.2,1-.75v-4.85h-8.96v12.6h-6.12v-12.6h-9.36v10.35h-6.02v-15.65h15.38v-3h-10.66v-11.5h26.49v11.5h-9.71v3h15.04v10.25Zm-26.14-17.45h14.79v-3.1h-14.79v3.1Z"/>
      <path class="e" d="M186.57,110.94c1.69,0,1.99-.85,2.24-6.65,1.24,.95,3.88,1.95,5.43,2.35-.65,7.9-2.19,9.95-7.12,9.95h-6.57c-5.92,0-7.32-1.8-7.32-7.4v-8h-6.02c-1.04,7.95-3.98,13.2-16.28,16-.55-1.6-2.14-4.05-3.29-5.3,10.21-1.9,12.35-5.25,13.19-10.7h-6.07v-29.35h32.56v29.35h-8.12v7.95c0,1.6,.3,1.8,2.19,1.8h5.18Zm-26.09-30.8h20.81v-3.1h-20.81v3.1Zm0,7.9h20.81v-3.1h-20.81v3.1Zm0,7.95h20.81v-3.1h-20.81v3.1Z"/>
      <path class="e" d="M217.69,90.79v26.2h-5.88v-44.8h19.02v18.6h-13.14Zm0-14.05v2.7h7.62v-2.7h-7.62Zm7.62,9.55v-2.85h-7.62v2.85h7.62Zm3.04,23.65v2.8h-5.53v-18.5h19.27v15.7h-13.74Zm0-10.8v5.9h8.21v-5.9h-8.21Zm25.44,10.75c0,3.3-.7,5-2.79,5.95-2.04,1-5.18,1.15-9.76,1.15-.2-1.7-1.14-4.5-1.99-6.1,2.89,.2,6.27,.15,7.22,.1,.95,0,1.29-.3,1.29-1.2v-18.95h-13.49v-18.65h19.52v37.7Zm-13.89-33.2v2.75h7.87v-2.75h-7.87Zm7.87,9.65v-2.9h-7.87v2.9h7.87Z"/>
      <path class="e" d="M285.94,110.19c2.99,.9,6.62,1.1,11.05,1.1,3.39,0,16.98,0,21.06-.2-.8,1.15-1.59,3.45-1.89,4.9h-19.17c-9.36,0-15.53-.95-19.52-6.4-.7,3-1.79,5.65-3.48,7.7-.75-1.25-2.24-3.15-3.44-4.05,2.79-3.45,3.29-9.35,3.44-15.35h4.73c-.05,1.85-.15,3.65-.3,5.45,.7,1.6,1.54,2.9,2.54,3.95v-11.4h-9.21v-4.3h22.31v4.3h-8.12v4.1h7.17v4.3h-7.17v5.9Zm5.92-21.45h-17.87v-16.5h17.87v16.5Zm-5.48-12.55h-7.12v2.35h7.12v-2.35Zm0,6.1h-7.12v2.45h7.12v-2.45Zm17.87,21.55c-2.14,2.8-5.63,5.65-8.71,7.3-.85-.95-2.74-2.65-3.78-3.45,2.94-1.35,5.92-3.3,7.67-5.4l4.83,1.55Zm-2.49-24.6c.3-.85,.55-1.8,.85-2.7h-8.76v-4.15h22.8v4.15h-8.71l-1.2,2.7h8.46v22.7h-19.82v-22.7h6.37Zm7.97,4h-9.06v2.3h9.06v-2.3Zm0,6.15h-9.06v2.3h9.06v-2.3Zm0,6.1h-9.06v2.4h9.06v-2.4Zm.75,6.5c2.64,1.75,5.73,4.4,7.27,6.3l-4.23,2.5c-1.54-1.95-4.63-4.9-7.12-6.65l4.08-2.15Z"/>
    </g>
  </g>
</svg>