<?xml version="1.0" encoding="UTF-8"?>
<svg id="b" data-name="圖層 2" xmlns="http://www.w3.org/2000/svg" width="175.08" height="121.17" viewBox="0 0 175.08 121.17">
  <defs>
    <style>
      .d {
        fill: none;
        stroke: #fff;
        stroke-miterlimit: 10;
        stroke-width: .62px;
      }

      .e {
        fill: #f2f2f2;
      }
    </style>
  </defs>
  <g id="c" data-name="圖層 2">
    <line class="d" x1="5.47" y1="58.22" x2="59.36" y2="26.95"/>
    <line class="d" x1=".04" y1="81.05" x2="75.31" y2="70.63"/>
    <g>
      <polygon class="e" points="93.95 40.14 93.86 40.13 93.9 39.99 93.45 38.44 92.68 39.49 93.23 37.7 92.98 36.83 93.4 37.16 93.88 35.61 91.73 38.53 94.31 41.37 93.95 40.14"/>
      <polygon class="e" points="139.61 27.82 141.19 25.74 140.18 24.32 139.61 27.82"/>
      <polygon class="e" points="139.18 25.15 140 24.06 138.86 22.44 139.18 25.15"/>
      <polygon class="e" points="111.68 37.31 112.65 36.22 111.7 38.82 111.71 39.22 111.56 39.22 111.26 40.04 113.7 37.3 111.63 34.86 111.68 37.31"/>
      <polygon class="e" points="112.58 40.82 114.68 38.47 113.81 37.43 112.58 40.82"/>
      <polygon class="e" points="95.06 36.25 94.04 37.64 94.52 38.01 95.06 36.25"/>
      <polygon class="e" points="141.96 26.82 141.75 26.53 141.4 28.71 143.85 25.47 143.18 29.6 145.42 26.65 142.44 22.43 141.96 26.82"/>
      <polygon class="e" points="108 18.32 107.61 19.45 108.12 19.86 108 18.32"/>
      <polygon class="e" points="108.29 17.44 107.96 17.83 108 18.32 108.29 17.44"/>
      <polygon class="e" points="120.34 24.45 119.1 25.9 119.68 26.42 120.34 24.45"/>
      <polygon class="e" points="92.7 34.96 90.81 37.52 91.63 38.42 92.7 34.96"/>
      <polygon class="e" points="78.48 45.14 74.89 41.17 75.74 44.08 76.08 42.93 79.71 47.36 80.58 44.37 77.15 40.6 78.48 45.14"/>
      <polygon class="e" points="114.68 38.47 114.93 38.76 115.28 37.8 114.68 38.47"/>
      <polygon class="e" points="145.54 26.81 145.58 26.44 145.42 26.65 145.54 26.81"/>
      <polygon class="e" points="139.36 26.62 139.18 25.15 137.83 26.93 139.36 26.62"/>
      <polygon class="e" points="113.7 37.3 113.81 37.43 113.96 37.01 113.7 37.3"/>
      <polygon class="e" points="112.65 36.22 111.68 37.31 111.7 38.82 112.65 36.22"/>
      <polygon class="e" points="111.68 37.31 109.95 39.25 111.56 39.22 111.7 38.82 111.68 37.31"/>
      <polygon class="e" points="140 24.06 140.18 24.32 140.29 23.69 140 24.06"/>
      <polygon class="e" points="175.08 20.77 172.55 24.08 172.21 19.59 169.69 22.9 169.34 18.42 166.82 21.73 166.47 17.24 163.95 20.56 163.61 16.07 161.09 19.38 160.74 14.9 158.22 18.21 157.88 13.73 155.36 17.04 155.01 12.55 152.49 15.87 152.15 11.38 149.62 14.69 149.28 10.21 146.76 13.52 145.47 8.8 143.4 13.75 139.5 9.74 139.87 14.36 135.97 10.35 136.34 14.97 132.44 10.96 132.81 15.58 128.91 11.57 129.28 16.19 125.38 12.18 125.76 16.81 121.85 12.79 122.23 17.41 118.33 13.4 118.7 18.02 114.8 14.01 115.18 18.64 111.27 14.62 111.65 19.25 107.75 15.23 107.99 18.22 107.61 19.45 106.99 21.3 109.63 18.22 108.33 22.08 110.97 19 109.67 22.86 112.31 19.78 111.01 23.63 113.65 20.56 112.35 24.41 114.99 21.34 113.69 25.19 116.33 22.11 115.08 25.81 115.12 25.86 117.67 22.89 116.37 26.75 119.01 23.67 118.45 25.31 120.34 24.45 122.41 28.89 119.04 28.3 119.68 26.42 118.22 29.51 115.12 25.86 115.03 25.97 115.08 25.81 114.68 25.34 114.83 29.89 111.29 25.72 111.44 30.26 107.9 26.09 108.05 30.64 104.51 26.47 104.67 31.01 101.12 26.84 101.28 31.38 97.74 27.21 97.89 31.76 94.35 27.59 94.51 32.13 90.97 27.96 91.13 32.51 87.58 28.34 86.02 33.96 87.97 32.39 86.76 36.27 89.15 33.03 87.95 36.91 90.33 33.67 89.13 37.56 91.52 34.32 90.31 38.2 90.76 37.59 90.71 37.4 90.81 37.52 92.7 34.96 91.63 38.42 91.73 38.53 93.88 35.61 93.4 37.16 94.04 37.64 95.06 36.25 94.52 38.01 97.48 40.28 93.95 40.14 94.31 41.37 91.73 38.53 91.5 38.85 91.63 38.42 90.81 37.52 90.76 37.59 92.03 41.94 88.44 37.97 89.76 42.5 86.17 38.54 87.5 43.07 83.9 39.11 85.23 43.64 81.63 39.67 82.96 44.21 79.36 40.24 80.58 44.37 80.91 43.23 84.54 47.66 85.8 43.31 89.43 47.74 90.69 43.4 94.32 47.83 95.57 43.49 99.2 47.92 100.46 43.58 104.09 48.01 105.35 43.66 108.98 48.09 110.24 43.75 113.87 48.18 115.13 43.84 118.76 48.27 120.01 43.93 119.18 44.76 120.56 40.95 117.86 43.97 119.24 40.16 116.54 43.19 117.92 39.37 115.22 42.4 116.6 38.58 113.9 41.61 114.93 38.76 114.68 38.47 112.58 40.82 113.81 37.43 113.7 37.3 111.26 40.04 111.56 39.22 109.95 39.25 111.68 37.31 111.63 34.86 113.7 37.3 113.96 37.01 113.81 37.43 114.68 38.47 115.28 37.8 114.93 38.76 115.25 39.14 115.81 34.66 119.43 38.94 119.98 34.46 123.6 38.75 124.15 34.27 127.77 38.55 128.32 34.07 131.94 38.35 132.49 33.87 136.11 38.16 136.66 33.68 140.27 37.96 140.82 33.48 144.44 37.76 144.99 33.28 148.61 37.57 149.16 33.09 152.78 37.37 153.33 32.89 154.09 33.79 154.57 30.81 152.11 34.05 152.79 29.92 150.33 33.16 151 29.03 148.54 32.27 149.21 28.14 146.75 31.38 147.42 27.25 144.97 30.49 145.64 26.36 145.58 26.44 145.54 26.81 145.42 26.65 143.18 29.6 143.85 25.47 141.4 28.71 141.75 26.53 141.19 25.74 139.61 27.82 140.18 24.32 140 24.06 139.18 25.15 139.36 26.62 137.83 26.93 139.18 25.15 138.86 22.44 140 24.06 140.29 23.69 140.18 24.32 141.19 25.74 142.07 24.58 141.75 26.53 141.96 26.82 142.44 22.43 145.42 26.65 145.58 26.44 146.02 22.41 149.11 26.8 149.59 22.4 152.69 26.78 153.17 22.39 156.26 26.77 156.74 22.37 159.84 26.75 160.32 22.36 163.41 26.74 163.89 22.34 166.98 26.72 167.46 22.33 170.56 26.71 171.04 22.31 174.13 26.69 175.08 20.77"/>
      <polygon class="e" points="91.73 38.53 91.63 38.42 91.5 38.85 91.73 38.53"/>
      <polygon class="e" points="141.19 25.74 141.75 26.53 142.07 24.58 141.19 25.74"/>
      <polygon class="e" points="118.14 27.02 120.38 24.41 118.45 25.31 118.12 26.3 118.14 27.02"/>
      <polygon class="e" points="117.7 27.52 118.14 27.02 118.12 26.3 117.7 27.52"/>
      <polygon class="e" points="115.12 25.86 115.08 25.81 115.03 25.97 115.12 25.86"/>
      <polygon class="e" points="122.41 28.89 119.68 26.42 119.04 28.3 122.41 28.89"/>
      <polygon class="e" points="93.95 40.14 97.48 40.28 94.52 38.01 93.9 39.99 93.95 40.14"/>
      <polygon class="e" points="92.68 39.49 93.45 38.44 93.23 37.7 92.68 39.49"/>
      <polygon class="e" points="90.71 37.4 90.76 37.59 90.81 37.52 90.71 37.4"/>
      <polygon class="e" points="93.45 38.44 94.04 37.64 93.4 37.16 93.23 37.7 93.45 38.44"/>
    </g>
    <g>
      <polygon class="e" points="69.75 101.85 69.65 101.82 69.75 101.67 69.81 99.67 68.5 100.61 69.84 98.71 69.88 97.6 70.25 98.14 71.41 96.5 67.75 99.11 69.7 103.44 69.75 101.85"/>
      <polygon class="e" points="128.23 104.87 130.88 103.03 130.24 100.97 128.23 104.87"/>
      <polygon class="e" points="128.75 101.56 130.13 100.6 129.4 98.26 128.75 101.56"/>
      <polygon class="e" points="91.7 105.33 93.26 104.42 91.15 107.12 91.01 107.59 90.83 107.54 90.17 108.38 94.09 106.1 92.59 102.42 91.7 105.33"/>
      <polygon class="e" points="91.42 109.81 94.8 107.85 94.17 106.29 91.42 109.81"/>
      <polygon class="e" points="72.55 97.71 70.81 98.96 71.23 99.57 72.55 97.71"/>
      <polygon class="e" points="131.37 104.6 131.24 104.18 129.99 106.61 134.12 103.74 131.75 108.34 135.51 105.72 133.62 99.61 131.37 104.6"/>
      <polygon class="e" points="94.66 81.56 93.77 82.74 94.21 83.42 94.66 81.56"/>
      <polygon class="e" points="95.34 80.64 94.8 80.97 94.66 81.56 95.34 80.64"/>
      <polygon class="e" points="106.84 93.51 104.82 94.74 105.3 95.58 106.84 93.51"/>
      <polygon class="e" points="70.27 95.28 67.06 97.58 67.68 98.94 70.27 95.28"/>
      <polygon class="e" points="49.63 101.81 46.92 95.76 46.81 99.52 47.64 98.29 50.22 104.9 52.38 101.71 49.8 95.96 49.63 101.81"/>
      <polygon class="e" points="94.8 107.85 94.98 108.29 95.76 107.28 94.8 107.85"/>
      <polygon class="e" points="135.59 105.96 135.78 105.54 135.51 105.72 135.59 105.96"/>
      <polygon class="e" points="128.39 103.36 128.75 101.56 126.47 103.15 128.39 103.36"/>
      <polygon class="e" points="94.09 106.1 94.17 106.29 94.51 105.85 94.09 106.1"/>
      <polygon class="e" points="93.26 104.42 91.7 105.33 91.15 107.12 93.26 104.42"/>
      <polygon class="e" points="91.7 105.33 88.92 106.95 90.83 107.54 91.15 107.12 91.7 105.33"/>
      <polygon class="e" points="130.13 100.6 130.24 100.97 130.6 100.28 130.13 100.6"/>
      <polygon class="e" points="172.68 110.18 168.44 113.11 169.76 107.69 165.52 110.63 166.83 105.21 162.59 108.14 163.91 102.73 159.67 105.66 160.98 100.25 156.74 103.18 158.06 97.77 153.82 100.7 155.14 95.29 150.9 98.22 152.21 92.81 147.97 95.74 149.29 90.33 145.05 93.26 146.37 87.85 142.13 90.78 142.42 84.73 138.09 89.77 135.03 83.55 133.69 89.13 130.64 82.91 129.31 88.5 126.25 82.28 124.92 87.86 121.86 81.64 120.53 87.23 117.47 81.01 116.14 86.59 113.09 80.37 111.76 85.96 108.7 79.74 107.37 85.32 104.32 79.1 102.99 84.69 99.93 78.47 98.6 84.05 95.54 77.83 94.68 81.45 93.77 82.74 92.33 84.68 96.62 82.08 93.61 86.11 97.9 83.51 94.89 87.54 99.17 84.94 96.16 88.97 100.45 86.37 97.44 90.4 101.73 87.8 98.72 91.83 103.01 89.23 100.12 93.1 100.15 93.17 104.29 90.66 101.28 94.69 105.56 92.09 104.28 93.8 106.84 93.51 107.57 99.54 103.83 97.55 105.3 95.58 102.4 98.66 100.15 93.17 100 93.26 100.12 93.1 99.83 92.39 98.27 97.8 95.69 91.53 94.13 96.94 91.56 90.67 90 96.08 87.43 89.81 85.87 95.22 83.29 88.95 81.74 94.36 79.16 88.1 77.61 93.51 75.04 87.24 73.48 92.65 70.91 86.38 69.35 91.79 66.78 85.52 62.79 91.54 65.68 90.44 62.77 94.55 66.83 91.65 63.92 95.76 67.97 92.86 65.07 96.97 69.12 94.07 66.21 98.18 66.97 97.64 66.98 97.39 67.06 97.58 70.27 95.28 67.68 98.94 67.75 99.11 71.41 96.5 70.25 98.14 70.81 98.96 72.55 97.71 71.23 99.57 73.85 103.38 69.75 101.85 69.7 103.44 67.75 99.11 67.36 99.4 67.68 98.94 67.06 97.58 66.97 97.64 66.81 103.24 64.09 97.19 63.92 103.04 61.2 96.99 61.03 102.83 58.31 96.79 58.14 102.63 55.43 96.59 55.25 102.43 52.54 96.38 52.38 101.71 53.21 100.49 55.79 107.1 58.93 102.47 61.51 109.08 64.66 104.45 67.23 111.06 70.38 106.43 72.95 113.03 76.09 108.4 78.67 115.01 81.82 110.38 84.39 116.99 87.54 112.36 90.11 118.97 93.26 114.34 95.83 120.95 98.98 116.32 97.68 116.98 100.77 113.02 96.43 115.55 99.52 111.58 95.17 114.11 98.26 110.15 93.92 112.68 97.01 108.72 92.67 111.25 94.98 108.29 94.8 107.85 91.42 109.81 94.17 106.29 94.09 106.1 90.17 108.38 90.83 107.54 88.92 106.95 91.7 105.33 92.59 102.42 94.09 106.1 94.51 105.85 94.17 106.29 94.8 107.85 95.76 107.28 94.98 108.29 95.21 108.86 97.58 103.79 100.2 110.23 102.56 105.16 105.18 111.59 107.55 106.53 110.17 112.96 112.54 107.9 115.15 114.33 117.52 109.27 120.14 115.7 122.5 110.64 125.12 117.07 127.48 112 130.1 118.43 132.47 113.37 135.08 119.8 137.45 114.74 140.06 121.17 142.43 116.11 142.98 117.45 144.69 114.14 140.55 117.01 142.93 112.4 138.79 115.27 141.17 110.67 137.03 113.54 139.4 108.94 135.27 111.8 137.64 107.2 133.51 110.07 135.88 105.47 135.78 105.54 135.59 105.96 135.51 105.72 131.75 108.34 134.12 103.74 129.99 106.61 131.24 104.18 130.88 103.03 128.23 104.87 130.24 100.97 130.13 100.6 128.75 101.56 128.39 103.36 126.47 103.15 128.75 101.56 129.4 98.26 130.13 100.6 130.6 100.28 130.24 100.97 130.88 103.03 132.36 102 131.24 104.18 131.37 104.6 133.62 99.61 135.51 105.72 135.78 105.54 137.84 100.97 139.8 107.31 142.05 102.32 144.02 108.67 146.27 103.68 148.23 110.02 150.49 105.03 152.45 111.38 154.7 106.39 156.66 112.73 158.91 107.74 160.87 114.08 163.12 109.1 165.08 115.44 167.33 110.45 169.3 116.79 172.68 110.18"/>
      <polygon class="e" points="67.75 99.11 67.68 98.94 67.36 99.4 67.75 99.11"/>
      <polygon class="e" points="130.88 103.03 131.24 104.18 132.36 102 130.88 103.03"/>
      <polygon class="e" points="103.26 95.69 106.9 93.48 104.28 93.8 103.51 94.84 103.26 95.69"/>
      <polygon class="e" points="102.55 96.12 103.26 95.69 103.51 94.84 102.55 96.12"/>
      <polygon class="e" points="100.15 93.17 100.12 93.1 100 93.26 100.15 93.17"/>
      <polygon class="e" points="107.57 99.54 105.3 95.58 103.83 97.55 107.57 99.54"/>
      <polygon class="e" points="69.75 101.85 73.85 103.38 71.23 99.57 69.75 101.67 69.75 101.85"/>
      <polygon class="e" points="68.5 100.61 69.81 99.67 69.84 98.71 68.5 100.61"/>
      <polygon class="e" points="66.98 97.39 66.97 97.64 67.06 97.58 66.98 97.39"/>
      <polygon class="e" points="69.81 99.67 70.81 98.96 70.25 98.14 69.84 98.71 69.81 99.67"/>
    </g>
    <line class="d" x1="67.65" y1="20.84" x2="86.24" y2="9.51"/>
    <g>
      <line class="d" x1="25.3" y1="15.94" x2="40.36" y2=".21"/>
      <line class="d" x1="5.99" y1="37.02" x2="21.05" y2="21.29"/>
    </g>
  </g>
</svg>