<svg xmlns="http://www.w3.org/2000/svg" width="147.65" height="147.65" viewBox="0 0 147.65 147.65">
  <g id="圖層_2" data-name="圖層 2">
    <g id="圖層_1-2" data-name="圖層 1">
      <circle cx="73.82" cy="73.82" r="73.82" style="fill: #302725"/>
    </g>
    <g id="說明">
      <path d="M123.59,94h-18v13.53h-12V94H73.93V85.63H93.56V78.25H84.75a32.78,32.78,0,0,1-4.24,6.31,66.16,66.16,0,0,0-8.28-3.44V98.43c0,3.85-.85,6.31-4,7.71s-7.64,1.64-14.11,1.64a22.4,22.4,0,0,0-3.61-8.29c4.24.17,8.38.17,9.66.17s1.8-.33,1.8-1.4V86.45H40.82c-1.06,7.71-3.5,15.67-8.38,21.57a46.48,46.48,0,0,0-8.7-4.34c7.11-8.45,7.64-20.68,7.64-29.86V61.68a66.67,66.67,0,0,0-8.28-5.25c7.22-6,12.84-15.59,15.71-25.19L50,33.05a57.66,57.66,0,0,1-2.23,5.82h9.66L59,38.46l7.21,3.45a81.66,81.66,0,0,1-5.83,10.33H72.23v5c8.81-3.12,12-7.88,13.48-13.87H73.82v-8h47.12s-.11,2-.22,3.11c-.53,13.05-1.37,18.71-3.71,20.84a10.48,10.48,0,0,1-6.47,2.71,103.87,103.87,0,0,1-10.72.24A16.24,16.24,0,0,0,97,54.46c3.29.24,6.15.33,7.64.33a3.61,3.61,0,0,0,2.86-.91c1-.9,1.49-3.69,1.91-10.5H97.06c-1.8,8.53-5.83,15.34-16.66,19.94l9.45,1.47A48.52,48.52,0,0,1,88.36,70h5.2V62.66h12V70h15.92v8.21H105.55v7.38h18ZM44.22,46.25c-1.17,2-2.33,4.11-3.61,6h9.13c1.06-1.8,2-3.94,3-6ZM41.57,73.82c0,1.72,0,3.52-.11,5.41h6.16V72.42h-6Zm0-8.29h6V59.38h-6Zm14.32,0h6V59.38h-6Zm6,13.7V72.42h-6v6.81Zm10.29.49c3.5-4.18,6-10.17,7.32-16-.74.24-1.48.57-2.22.82A24.37,24.37,0,0,0,72.23,59Z" style="fill: #fff"/>
    </g>
  </g>
</svg>
