<svg xmlns="http://www.w3.org/2000/svg" xmlns:xlink="http://www.w3.org/1999/xlink" width="101.37" height="205.65" viewBox="0 0 101.37 205.65">
  <defs>
    <clipPath id="clip-path">
      <rect x="27.02" width="74.35" height="106.27" style="fill: none"/>
    </clipPath>
  </defs>
  <g id="圖層_2" data-name="圖層 2">
    <g id="圖層_2-2" data-name="圖層 2">
      <g>
        <path d="M27,147.11S31.56,170.19,11.57,181s-8-60.56-8-60.56S25,130.62,27,147.11Z" style="fill: #333"/>
        <g>
          <g>
            <path d="M22.43,35l0-.13c0-.18-.1-.36-.16-.53s-.07-.21-.11-.31-.12-.29-.18-.42l-.19-.38c-.06-.11-.12-.22-.19-.33a5.92,5.92,0,0,0-.35-.48.71.71,0,0,0-.1-.14,4.56,4.56,0,0,0-4.22-1.56c-4.69.51-4.69,2.67-4.69,4.75h0c0,.18,0,.33,0,.48v.13c0,.11,0,.21,0,.31s0,.15,0,.23a27,27,0,0,1,10.39,1.49h0a9.18,9.18,0,0,0-.2-3.11" style="fill: #333"/>
            <path d="M19.46,53q.36,0,.72-.12l.11,0c.22,0,.43-.09.64-.15l.12,0,.61-.19.1,0a4.26,4.26,0,0,0,.62-.26h0c.21-.11.41-.22.6-.34a3.88,3.88,0,0,0,.85-.77h0a4.52,4.52,0,0,0,.63-1v0a4.87,4.87,0,0,0,.21-.53.29.29,0,0,0,0-.09,4.1,4.1,0,0,0,.14-.5c0-.06,0-.12,0-.18a3.11,3.11,0,0,0,.06-.44A2.91,2.91,0,0,0,25,48c0-.12,0-.24,0-.36a1.49,1.49,0,0,0,0-.21,1.1,1.1,0,0,0,0-.18c0-.14,0-.27,0-.41s0-.28,0-.42L24.9,46c0-.14,0-.28-.09-.42s-.06-.22-.1-.34l-.12-.38c0-.11-.09-.21-.13-.32s-.11-.24-.17-.35l-.16-.29c-.07-.11-.13-.22-.2-.32s-.12-.16-.19-.25l-.23-.28c-.06-.07-.13-.12-.2-.19L23,42.64l-.16-.1a2.74,2.74,0,0,0-.36-.23c-3.22-1.7-9.09-2.17-10.89-1.69h0c0,.44-.05,1.14-.06,2.26v1.49c0,1.19,0,2.45,0,3.65,0,.29,0,.58,0,.86V49c0,.1,0,.19,0,.28q0,.77,0,1.44c0,.57,0,1.08,0,1.5l.83.08h0a.51.51,0,0,1,0,.09s0,.13,0,.23v0l.07,0,.12,0,.45.1.11,0,.53.1h.1l.62.09h.07a20.51,20.51,0,0,0,4.83,0h.06" style="fill: #333"/>
            <path d="M21.12,61.26a6.14,6.14,0,0,0,.46-.64,1.74,1.74,0,0,1,.11-.18l.27-.53c0-.08.07-.15.11-.24a7.21,7.21,0,0,0,.25-.7c0-.14.07-.28.11-.42s.05-.23.08-.34l.09-.53c0-.06,0-.13,0-.19a9.36,9.36,0,0,0,.06-1.3l-.05,0a17.32,17.32,0,0,1-3.87.71l-.18,0c-.38,0-.75,0-1.12,0H17.2l-1.09,0h-.2a23.24,23.24,0,0,1-2.47-.24l-.13,0c-.34-.06-.66-.11-1-.18l-.09,0,0,.79v0c0,.26,0,.5,0,.73h0c0,2.08,0,4.23,4.69,4.75a4.56,4.56,0,0,0,4.22-1.56" style="fill: #333"/>
            <path d="M22.6,72.23c0-.19-.06-.37-.1-.56l-.06-.27a6.09,6.09,0,0,0-.17-.61c-.06-.18-.12-.37-.19-.54l-.15-.32c-.07-.14-.14-.28-.22-.42l-.15-.27c-.12-.18-.25-.35-.38-.52l-.06-.08a4.56,4.56,0,0,0-4.22-1.56c-4.69.51-4.69,2.67-4.69,4.75h0c0,.23,0,.47,0,.71v.07l0,.77h0a21.66,21.66,0,0,1,10.43.3h0a9.5,9.5,0,0,0-.06-1.31s0-.11,0-.16" style="fill: #333"/>
            <path d="M23.06,87.24l0,0a4.07,4.07,0,0,0,.43-.4l.11-.13a4.4,4.4,0,0,0,.31-.41l.12-.19.24-.41.11-.26L24.6,85c0-.1.07-.2.1-.31l.12-.41c0-.12.05-.24.07-.36s.05-.27.07-.4,0-.27,0-.4,0-.28,0-.42a1.09,1.09,0,0,0,0-.18,1.69,1.69,0,0,0,0-.23c0-.11,0-.21,0-.31s0-.26,0-.39,0-.23,0-.35-.05-.2-.07-.3-.06-.26-.1-.38a2.09,2.09,0,0,1-.08-.23l-.15-.39c0-.07-.07-.13-.1-.2s-.12-.24-.19-.36l-.15-.21c-.06-.1-.13-.19-.19-.28s-.21-.23-.32-.34a.6.6,0,0,0-.08-.08,3.48,3.48,0,0,0-.48-.38c-.12-.08-.25-.15-.38-.22l-.16-.09c-.13-.07-.27-.12-.4-.18l-.23-.09c-.13-.06-.28-.1-.42-.15l-.24-.08-.47-.12-.23,0L20,77l-.21,0-.56-.08-.14,0a20.06,20.06,0,0,0-6.56.42h0c0,.22,0,.35,0,.36l-.83.08h0c0,.4,0,.89,0,1.44v.06a.71.71,0,0,1,0,.14c0,.65,0,1.36,0,2.11,0,1.53,0,3.19,0,4.68V87c0,1.15,0,1.87.06,2.32,1.8.47,7.67,0,10.89-1.69a3.11,3.11,0,0,0,.54-.35" style="fill: #333"/>
            <path d="M21.12,97.58a6.35,6.35,0,0,0,.47-.65l.13-.24a3.45,3.45,0,0,0,.24-.47,3.68,3.68,0,0,0,.15-.35c.05-.13.1-.26.14-.38L22.4,95c0-.07,0-.14,0-.21a9.1,9.1,0,0,0,.19-3l-.28.09-.73.24-.46.14-.71.19-.46.11q-.48.12-1,.21l-.25.06-1.21.2L17.2,93c-.31,0-.61.09-.92.12l-.35,0c-.36,0-.72.06-1.07.08h-.15a18.78,18.78,0,0,1-2.39,0h-.08c0,.11,0,.23,0,.36a.81.81,0,0,0,0,.16.86.86,0,0,1,0,.16v.46h0c0,2.08,0,4.23,4.69,4.75a4.56,4.56,0,0,0,4.22-1.56" style="fill: #333"/>
          </g>
          <g style="clip-path: url(#clip-path)">
            <path d="M47.6,75.47h-.12l-.54-.06-.3,0-.36,0q-.41-.06-.81-.15l-.12,0L44.81,75l-.08,0a13.58,13.58,0,0,1-1.63-.55l-.16-.07-.44-.2c-.16-.08-.32-.16-.47-.25l-.14-.07c1.48-.69,5.71-2.38,7.91-3.25a19.67,19.67,0,0,0,.73,4.94,23.48,23.48,0,0,1-2.93-.07" style="fill: #333"/>
            <path d="M49.8,38.85c-2.2-.87-6.44-2.56-7.91-3.26l.2-.11.43-.22.33-.15.37-.16.33-.13c.21-.08.41-.15.62-.21l.38-.11.34-.08.4-.1.29-.06.8-.14.19,0,.49-.06h.13a22.34,22.34,0,0,1,3.34-.11,19.67,19.67,0,0,0-.73,4.94" style="fill: #333"/>
            <path d="M76.14,90.84c-.53.12-1.06.22-1.61.31l-.19,0c-1.62.25-3.42.6-5.34,1l-2.43.45h0l0,0,.12.1c.21.19.42.38.64.55l.24.19.56.42.28.19.58.37a2.61,2.61,0,0,0,.28.17l.62.35.26.14.69.33.21.09c.29.13.58.25.88.36h0a14.82,14.82,0,0,0,1.91.56H74l.83.15.18,0,.72.07h.2c.23,0,.45,0,.67,0h.2q.33,0,.66-.06l.16,0a7,7,0,0,0,.69-.15l.08,0a5.73,5.73,0,0,0,.73-.26,1.29,1.29,0,0,1,.16-.09,1.88,1.88,0,0,1,.54-.38l0,0a5.55,5.55,0,0,0,1.55-3l0-.12.09-.41,0-.18.09-.63,0-.29,0-.32,0-.48c0-.1,0-.2,0-.29v-.64c0-.17,0-.33,0-.5a24.75,24.75,0,0,1-5.29,1.9l-.27.06" style="fill: #333"/>
            <path d="M75.37,12l-.27,0-.63.09-.27.05-.65.14-.25.07c-.23.05-.45.12-.68.19l-.22.07-.71.26-.18.07-.74.32-.13.06q-.39.18-.78.39l0,0A15.5,15.5,0,0,0,66,16.73h0l3,.57c1.92.36,3.72.7,5.34,1a25.11,25.11,0,0,1,7.31,2.28s0-.06,0-.09l0-.43c0-.08,0-.17,0-.25s0-.22,0-.34v-.62c0-.2,0-.4,0-.6s0-.13,0-.19l0-.45a.28.28,0,0,1,0-.09A7,7,0,0,0,79.79,13h0a1.73,1.73,0,0,1-.52-.36h0l-.16-.09a5.58,5.58,0,0,0-1.26-.37l-.2-.05a5,5,0,0,0-.56-.06l-.25,0H76l-.6,0" style="fill: #333"/>
            <path d="M68.29,88.35c1.94-.37,3.77-.72,5.44-1,.63-.1,1.23-.23,1.83-.37l.36-.09c.47-.12.94-.26,1.39-.41.12,0,.25-.07.37-.12.55-.19,1.08-.39,1.6-.62,0,0,0,0,.06,0,.48-.22.94-.46,1.39-.71l.44-.25c.33-.2.66-.41,1-.62l.42-.29c.4-.29.79-.6,1.17-.92a.94.94,0,0,1-.12-.09l0,0a8.65,8.65,0,0,1-3.19-6.1h0a6.68,6.68,0,0,1,.6-3,5.37,5.37,0,0,1,1-1.46,2.54,2.54,0,0,0,.65-1.16,1.42,1.42,0,0,0-.4-1.28,5.82,5.82,0,0,1-1.83-4.54,5.76,5.76,0,0,1,1.08-2.77A2.87,2.87,0,0,0,82.07,61a1,1,0,0,0,0-.35.62.62,0,0,0-.39-.36,1.8,1.8,0,0,0-1.55.87c-.93,1.23-2.79,2.17-6.41-.37-.25-.17-.5-.32-.75-.47l-.06,0L72.22,60l-.2-.1c-.22-.1-.43-.17-.65-.25l-.15-.06-.69-.18-.09,0-.7-.09h0a3.17,3.17,0,0,0-1.82.35h0a6.38,6.38,0,0,1-1.5,2.78l-.07.08-.35.34-.16.15-.3.24-.23.19-.26.17-.28.18a5,5,0,0,1-4.06.7,3.77,3.77,0,0,1-2.5-5.12,5.56,5.56,0,0,1,.61-1.11h0a4.66,4.66,0,0,0-.29-.75c-.06-.12-.12-.26-.18-.39l-.11-.3a.14.14,0,0,1,0-.06A7.19,7.19,0,0,1,58,56s0,0,0,0H53.66l0,.09c0,.06-.05.12-.07.19A24.46,24.46,0,0,0,52,64.1v.13c0,.32,0,.64,0,1,0,.93.07,1.81.1,2.64.13,4.17.22,7.19,1.71,8.73a15.24,15.24,0,0,0,1.79,1.53c1.28,1,2.69,2.08,3.18,3.88A5.49,5.49,0,0,1,59,83.7c0,.11,0,.22,0,.33a6.53,6.53,0,0,1-.1.66A4.8,4.8,0,0,1,56.15,88a6.3,6.3,0,0,1-6.29-1,4.6,4.6,0,0,1-.54-.45l-.06-.06a4.27,4.27,0,0,1-.41-.44L48.74,86c-.11-.14-.21-.29-.31-.43l-.11-.17-.27-.45L48,84.73l-.24-.5s0-.1-.07-.16-.15-.38-.22-.58a1,1,0,0,1,0-.1,15.37,15.37,0,0,1-.58-2.19.2.2,0,0,0,0-.07c0-.21-.07-.42-.1-.63a.68.68,0,0,1,0-.14c0-.18-.06-.37-.08-.55a.77.77,0,0,0,0-.15c0-.18,0-.35,0-.52V79c0-.17,0-.33,0-.49a.49.49,0,0,0,0-.12c0-.17,0-.34,0-.49v-.07a.09.09,0,0,0,0,0h0A18.75,18.75,0,0,1,44,77.3l-.15,0L43.14,77l-.2-.07-.6-.22-.24-.1-.55-.25-.25-.12q-.3-.15-.6-.33l-.23-.14a5.07,5.07,0,0,1-.54-.36l-.07,0A1.94,1.94,0,0,1,39,73.85v-.08h0a2.46,2.46,0,0,1,1.62-2c.9-.45,3.36-1.46,5.58-2.35h0a.44.44,0,0,1,0-.1L46,68.82a1,1,0,0,0,0-.17c0-.18-.07-.37-.11-.56s0-.09,0-.14c0-.2-.08-.4-.11-.6,0,0,0-.06,0-.09-.15-.87-.26-1.77-.35-2.67l0-.3c0-.13,0-.26,0-.39l0-.41,0-.33,0-.45c0-.09,0-.19,0-.29s0-.32,0-.47,0-.16,0-.24,0-.34,0-.5a1.41,1.41,0,0,0,0-.2v-.49c0-.06,0-.12,0-.17v-.48a.71.71,0,0,0,0-.14c0-.16,0-.32,0-.46v-.11c0-.15,0-.3,0-.44s0,0,0-.06V50.77c0-.13,0-.29,0-.44,0-.31,0-.63,0-1,0-.71,0-1.52.08-2.39a.49.49,0,0,1,0-.12c0-.35,0-.72.08-1.09,0-.15,0-.31,0-.47s0-.5.07-.75l.09-.69.06-.53c0-.28.08-.55.13-.83,0-.12,0-.23,0-.36.06-.31.11-.61.17-.91a1.18,1.18,0,0,1,0-.2c.07-.34.14-.67.21-1h0c-2.22-.9-4.68-1.91-5.58-2.36a2.44,2.44,0,0,1-1.62-2v-.08h0a2,2,0,0,1,0-.25s0,0,0,0a1.55,1.55,0,0,1,.05-.23v0l.09-.21h0a2.13,2.13,0,0,1,.7-.8c.23-.16.47-.32.71-.46l.16-.1.56-.3.4-.2.13-.06.9-.36h0c.5-.18,1-.34,1.51-.47h0l.86-.19.29-.06.33-.06.65-.1h.07a.07.07,0,0,0,0-.05v-.08c0-.15,0-.3,0-.46s0-.12,0-.18a2.83,2.83,0,0,1,0-.41,1.79,1.79,0,0,1,0-.23c0-.13,0-.27,0-.4l0-.27c0-.13,0-.27,0-.4s0-.19,0-.28,0-.29.08-.43,0-.18,0-.28a4.4,4.4,0,0,1,.1-.47,2,2,0,0,1,0-.24c.05-.23.11-.46.18-.68s.05-.17.07-.25.09-.3.14-.45l.12-.3c0-.12.09-.25.14-.37a2.92,2.92,0,0,1,.14-.31,3.54,3.54,0,0,1,.16-.34c0-.11.11-.21.16-.31l.18-.31.19-.29.21-.28.21-.27a2.73,2.73,0,0,1,.23-.25l.24-.25.28-.23.23-.19a6.3,6.3,0,0,1,6.29-1,4.84,4.84,0,0,1,2.8,4,5.45,5.45,0,0,1-.15,2.06c-.49,1.8-1.9,2.88-3.18,3.87a17.41,17.41,0,0,0-1.79,1.53,5,5,0,0,0-1.16,2.34,33.77,33.77,0,0,0-.55,6.39c0,.84-.06,1.72-.1,2.65,0,.32,0,.65,0,1v.12a24.61,24.61,0,0,0,1.65,8.17h4.28a7.79,7.79,0,0,1,.56-1.58,4.75,4.75,0,0,0,.28-.77h0a4.44,4.44,0,0,1-.89-2.73,3.84,3.84,0,0,1,.43-1.61A3.79,3.79,0,0,1,60.68,45a5,5,0,0,1,4.06.7c.21.13.41.26.6.4h0c.18.14.36.28.52.43l0,0a6.43,6.43,0,0,1,2,3.29h0a3.14,3.14,0,0,0,.49.21l.06,0a3,3,0,0,0,.54.1h.12a3.25,3.25,0,0,0,.54,0l.23,0,.49-.06.36-.09a3.25,3.25,0,0,0,.42-.11,5.44,5.44,0,0,0,.52-.19,1.72,1.72,0,0,0,.29-.11,6.86,6.86,0,0,0,.77-.38l.07,0q.44-.24.87-.54c3.62-2.54,5.48-1.61,6.41-.38a1.81,1.81,0,0,0,1.55.88.65.65,0,0,0,.39-.37v0A2.21,2.21,0,0,0,81.46,47a5.36,5.36,0,0,1-1.07-3.69,6.15,6.15,0,0,1,1.82-3.61,1.38,1.38,0,0,0,.42-.94,2.17,2.17,0,0,0-.67-1.5,6.25,6.25,0,0,1-1.59-4.49h0a8.67,8.67,0,0,1,3.2-6.1.64.64,0,0,1,.16-.11h0l-.28-.21c-.27-.23-.54-.45-.82-.66L82,25.21c-.23-.16-.47-.31-.7-.45l-.66-.38c-.29-.16-.6-.31-.9-.46s-.53-.25-.81-.37-.75-.31-1.14-.45l-.68-.22-1-.29-.69-.18q-.66-.15-1.35-.27l-.35-.07c-1.67-.26-3.5-.61-5.44-1-9.94-1.88-23.55-4.45-31.83,1.45a19.37,19.37,0,0,0-6.88,9,.76.76,0,0,0,0,.11c-.1.27-.19.55-.28.82l-.12.39c-.05.15-.08.3-.12.45a17,17,0,0,0-.56,3.26.76.76,0,0,1,0,.15c0,.21,0,.4,0,.6v.38c0,.14,0,.28,0,.42s0,.49.05.73a.17.17,0,0,1,0,.07,38.38,38.38,0,0,0,1.43,6.37c.16.55.31,1.11.47,1.68v0c.06.22.12.44.17.66s.05.2.08.3.09.4.14.61.06.25.08.38.08.39.12.59,0,.29.08.43.07.39.09.59.05.32.07.48.05.39.07.59,0,.39.05.59,0,.34,0,.52h7.45a1.92,1.92,0,0,1,1.93,1.93h0a1.93,1.93,0,0,1-1.93,1.93H31.41l0,.4-.06.72-.06.5c0,.19-.05.39-.08.59s-.05.32-.08.48-.06.38-.1.56l-.09.46-.12.55c0,.15-.07.29-.1.43l-.15.58-.09.36c-.06.24-.13.46-.19.69l-.06.23c-.09.3-.17.61-.26.91-.35,1.21-.7,2.44-1,3.79l-.06.27c0,.19-.07.37-.11.56l-.09.55a2.87,2.87,0,0,0-.05.31c0,.17-.05.35-.08.52s0,.25,0,.38h0q0,.41-.06.81c0,.13,0,.26,0,.39a1.55,1.55,0,0,0,0,.22v.18c0,.2,0,.4,0,.6a.71.71,0,0,1,0,.14A17.65,17.65,0,0,0,29,76.21l.09.3c.05.18.1.35.16.53s.14.43.22.65l.1.27a19.37,19.37,0,0,0,5.53,7.89c.42.36.85.71,1.32,1,8.28,5.91,21.89,3.34,31.83,1.46M59.9,74.11a9.39,9.39,0,1,1,9.39,9.39,9.4,9.4,0,0,1-9.39-9.39M78.68,35.33a9.39,9.39,0,1,1-9.39-9.39,9.4,9.4,0,0,1,9.39,9.39" style="fill: #333"/>
            <path d="M85.18,28.42a6.36,6.36,0,0,0-2.39,4.39,3.85,3.85,0,0,0,.92,2.74A4.05,4.05,0,0,1,84,41.32c-1.81,1.91-1.17,3.34-.53,4.26,1.32,1.88,1.16,3.3.79,4.15A3,3,0,0,1,82,51.51a3.69,3.69,0,0,1-2.59-.64,5,5,0,0,1-1.25-1.18.56.56,0,0,0-.28-.2c-.69-.25-2,.55-2.81,1.11-2.11,1.47-4.87,2.4-7.15,1.8a6.34,6.34,0,0,1-.26.81,1.2,1.2,0,0,1-1.57.66,1.1,1.1,0,0,1-.26-.15,1.21,1.21,0,0,1-.41-1.42,3.79,3.79,0,0,0-1.91-4.58l-.11-.06a2.67,2.67,0,0,0-2-.39,1.45,1.45,0,0,0-.87.63,1.71,1.71,0,0,0,.3,1.92,3,3,0,0,1-.08,3.1,4,4,0,0,0-.48,1.8,4,4,0,0,0,.48,1.81,2.93,2.93,0,0,1,.08,3.09,1.71,1.71,0,0,0-.3,1.92,1.18,1.18,0,0,0,.39.4,1.43,1.43,0,0,0,.48.23,2.69,2.69,0,0,0,2.14-.45,3.76,3.76,0,0,0,1.91-4.57A1.21,1.21,0,0,1,67,55.6a1.18,1.18,0,0,1,.6.64,4.64,4.64,0,0,1,.22.66s0,.09,0,.14a8.69,8.69,0,0,1,6.25,1.24q.46.27.9.57l.66.43c.9.55,2,1,2.43.47A4.14,4.14,0,0,1,82,57.93a2.82,2.82,0,0,1,.87.3,3.06,3.06,0,0,1,1.38,1.49c.37.85.53,2.26-.79,4.15-.64.91-1.28,2.35.53,4.25a4.07,4.07,0,0,1-.26,5.78,3.79,3.79,0,0,0-.92,2.73A6.4,6.4,0,0,0,85.18,81l.07.07.14.18c3.42-3.86,5.27-9.32,5.27-16.08v-21c0-6.76-1.85-12.23-5.27-16.09a.16.16,0,0,1,0,.07,1,1,0,0,1-.17.19" style="fill: #333"/>
            <path d="M63,35.33A6.34,6.34,0,1,0,69.29,29,6.33,6.33,0,0,0,63,35.33" style="fill: #333"/>
            <path d="M75.62,74.11a6.34,6.34,0,1,0-6.33,6.33,6.34,6.34,0,0,0,6.33-6.33" style="fill: #333"/>
          </g>
          <g>
            <path d="M23.67,178.7c0-.19-.06-.37-.09-.56l-.06-.27c-.05-.21-.11-.41-.17-.61s-.13-.36-.2-.54a2.92,2.92,0,0,0-.14-.31c-.07-.15-.14-.29-.22-.43a2.26,2.26,0,0,0-.16-.26c-.12-.19-.24-.36-.37-.53,0,0,0-.05-.07-.08A4.55,4.55,0,0,0,18,173.55c-4.7.51-4.7,2.67-4.7,4.76h0c0,.23,0,.47,0,.71v.08c0,.25,0,.51,0,.77h0a21.71,21.71,0,0,1,10.44.31h0a9.56,9.56,0,0,0-.07-1.32c0-.05,0-.11,0-.16" style="fill: #333"/>
            <path d="M24.13,193.71l.05,0a4,4,0,0,0,.43-.4l.1-.13a4.47,4.47,0,0,0,.32-.41l.11-.19a3.38,3.38,0,0,0,.24-.41l.12-.25c.06-.14.12-.28.17-.42s.07-.21.1-.31a3.17,3.17,0,0,0,.12-.41c0-.12.05-.25.08-.37s.05-.26.07-.4,0-.26,0-.4,0-.27,0-.41,0-.13,0-.19,0-.15,0-.23,0-.21,0-.31,0-.26,0-.39,0-.23-.05-.34a2.82,2.82,0,0,0-.07-.31c0-.13-.06-.26-.1-.38a2.09,2.09,0,0,0-.08-.23,3.12,3.12,0,0,0-.15-.39l-.09-.19c-.07-.13-.13-.25-.2-.36a1.07,1.07,0,0,0-.15-.22,2.61,2.61,0,0,0-.19-.27,3.59,3.59,0,0,0-.32-.35l-.08-.08a4.12,4.12,0,0,0-.47-.38c-.12-.08-.26-.15-.39-.22l-.16-.09-.4-.18-.22-.09-.43-.15-.24-.07-.46-.13-.24-.05-.5-.1-.22,0-.55-.08h-.15a19.83,19.83,0,0,0-6.56.42h0c0,.22,0,.36,0,.36l-.84.08h0c0,.41,0,.89,0,1.45v.19c0,.65,0,1.36,0,2.12,0,1.52-.06,3.19-.06,4.67,0,.13,0,.26,0,.38v.42c0,1.15,0,1.88.06,2.32,1.79.48,7.66,0,10.89-1.69a3.46,3.46,0,0,0,.53-.35" style="fill: #333"/>
            <path d="M22.19,204.05a4.3,4.3,0,0,0,.47-.65c.05-.07.09-.16.13-.23l.25-.47.15-.36.14-.38c.05-.16.1-.32.14-.48s0-.14.05-.21a9.1,9.1,0,0,0,.18-3.05l-.28.09a6.94,6.94,0,0,1-.73.24l-.45.14-.71.19-.47.12-1,.21-.24,0c-.4.08-.81.14-1.21.2l-.37.06-.92.11-.36,0c-.36,0-.71.07-1.06.08h-.16a18.81,18.81,0,0,1-2.39,0h-.07c0,.11,0,.23,0,.36a.81.81,0,0,1,0,.16v.16c0,.15,0,.29,0,.46h0c0,2.08,0,4.24,4.7,4.75a4.55,4.55,0,0,0,4.21-1.56" style="fill: #333"/>
            <path d="M60.7,107a16.67,16.67,0,0,0-15.55-11.2,23.7,23.7,0,0,0-3.63.1s-7.22.9-11.5,6.44c-2.83,3.66-3.82,8.6-3,14.66a64,64,0,0,0,3.88,13.4c.8,2.16,1.59,4.3,2.23,6.42l.15.51.08.26c1.73,6.06,2.11,12.07-2,18.51h0c0,.15,0,.31-.05.46l-.12,1.13c0,.26-.08.52-.11.78s-.11.69-.17,1.05-.09.48-.14.73c-.1.55-.22,1.11-.35,1.68-.05.24-.11.48-.17.72-.1.4-.2.81-.31,1.22l-.21.77c-.15.52-.3,1-.47,1.59-.06.2-.12.4-.19.6-.18.58-.38,1.17-.58,1.76-.09.24-.17.49-.26.74q-.27.75-.57,1.53c-.08.22-.15.43-.24.65-.27.7-.55,1.42-.85,2.14a1.22,1.22,0,0,0-.07.17h0l.17,0,.94-.22.15,0a23.83,23.83,0,0,0,4.74-1.7l.28-.13.56-.3c.13-.07.26-.14.38-.22l.48-.28.42-.27c.14-.09.28-.18.41-.28a5.15,5.15,0,0,0,.45-.32l.36-.27c.16-.12.31-.25.46-.38l.3-.26c.17-.14.33-.29.48-.44l.25-.23.51-.53.18-.2c.19-.21.37-.42.55-.65l.09-.11a17.42,17.42,0,0,0,1.2-1.71c7.44-12,.66-33.34-2.6-43.57-.77-2.41-1.38-4.31-1.65-5.58-1.36-6.28,1.85-10,5.63-10.93a9.06,9.06,0,0,1,6.47.92,9.19,9.19,0,0,1,4.42,5.8,6.91,6.91,0,0,0,3.49,4.73l.31.15a5.06,5.06,0,0,0,4.59-.6c1-.64,1.87-4.34.16-9.17" style="fill: #333"/>
          </g>
        </g>
      </g>
    </g>
  </g>
</svg>
