<?xml version="1.0" encoding="UTF-8"?>
<svg id="b" data-name="圖層 2" xmlns="http://www.w3.org/2000/svg" width="78.09" height="78.09" viewBox="0 0 78.09 78.09">
  <defs>
    <style>
      .d {
        fill: #fff;
      }

      .e {
        fill: #e8382f;
      }
    </style>
  </defs>
  <g id="c" data-name="圖層 2">
    <circle class="e" cx="39.05" cy="39.05" r="39.05"/>
    <path class="d" d="M25.47,22.86v7.81c0,7.64-.95,19.22-6.9,26.51-1.29-.87-4.32-2.21-6.12-2.69,5.67-6.77,6.12-16.79,6.12-23.82v-12.8H63.35v4.99H25.47Zm28.85,28.21c3.7,0,4.38-1,4.94-5.82,1.57,.82,4.43,1.69,6.4,2-1.07,6.64-3.2,8.72-10.83,8.72h-13.86c-8.64,0-11.28-1.61-11.28-7.72V26.41h29.18v12.85c0,2.6-.84,3.99-3.59,4.73-2.69,.78-6.57,.78-11.9,.78-.39-1.48-1.57-3.56-2.58-4.9,3.87,.17,8.64,.17,9.77,.13,1.23-.04,1.63-.22,1.63-.87v-7.77h-15.66v16.84c0,2.47,.67,2.86,4.88,2.86h12.91Z"/>
  </g>
</svg>