<?xml version="1.0" encoding="UTF-8"?>
<svg id="b" data-name="圖層 2" xmlns="http://www.w3.org/2000/svg" width="314" height="437.86" xmlns:xlink="http://www.w3.org/1999/xlink" viewBox="0 0 314 437.86">
  <defs>
    <style>
      .h {
        stroke-width: .82px;
      }

      .h, .i {
        fill: none;
      }

      .h, .i, .j, .k {
        stroke-miterlimit: 10;
      }

      .h, .j {
        stroke: #9fa0a0;
      }

      .l {
        filter: url(#f);
      }

      .l, .m {
        fill: #fff;
      }

      .i {
        stroke-width: .83px;
      }

      .i, .k {
        stroke: #fff;
      }

      .n {
        opacity: .35;
      }

      .o {
        fill: #e8b356;
        filter: url(#d);
      }

      .p, .j {
        fill: #595757;
      }

      .j {
        stroke-width: .83px;
      }

      .k {
        fill: #ca954a;
        stroke-width: .45px;
      }
    </style>
    <filter id="d" data-name="drop-shadow-1" filterUnits="userSpaceOnUse">
      <feOffset dx="2.4" dy="2.4"/>
      <feGaussianBlur result="e" stdDeviation="2.4"/>
      <feFlood flood-color="#000" flood-opacity=".14"/>
      <feComposite in2="e" operator="in"/>
      <feComposite in="SourceGraphic"/>
    </filter>
    <filter id="f" data-name="drop-shadow-2" filterUnits="userSpaceOnUse">
      <feOffset dx="2.4" dy="2.4"/>
      <feGaussianBlur result="g" stdDeviation="2.4"/>
      <feFlood flood-color="#000" flood-opacity=".14"/>
      <feComposite in2="g" operator="in"/>
      <feComposite in="SourceGraphic"/>
    </filter>
  </defs>
  <g id="c" data-name="圖層 2">
    <rect class="k" x="181.37" y=".96" width="22.45" height="103.96"/>
    <g>
      <path class="m" d="M198.32,16.96c-.74,.29-1.5,.6-2.2,.83,.81,.29,1.77,.48,2.86,.57-.29,.29-.67,.91-.85,1.32-2.91-.39-4.72-1.44-5.8-3.36h-1.26v1.68l2.12-.41c-.03,.39-.03,.97,0,1.29-3,.66-3.49,.76-3.77,.92-.06-.36-.28-1.02-.46-1.3,.25-.11,.57-.38,.57-.99v-1.19h-.9c-.2,1.22-.6,2.45-1.34,3.42-.31-.25-1.01-.69-1.4-.85,1.22-1.5,1.36-3.6,1.36-5.06v-1.81h11.08v1.18h-9.5v.43h8.95v1.04h-8.96c-.01,.15-.03,.31-.03,.48h9.9v1.18h-1.12l.76,.64Zm-.56-5.38h-10.42V7.47h2.83v-.85h1.62v.85h1.34v-.85h1.64v.85h2.98v4.1Zm-8.89-2.54h1.3v-.56h-1.3v.56Zm0,1.51h1.3v-.56h-1.3v.56Zm2.93-2.07v.56h1.34v-.56h-1.34Zm0,1.51v.56h1.34v-.56h-1.34Zm2.12,6.32c.24,.31,.56,.59,.92,.81,.55-.2,1.18-.52,1.72-.81h-2.65Zm2.25-7.83h-1.39v.56h1.39v-.56Zm0,1.51h-1.39v.56h1.39v-.56Z"/>
      <path class="m" d="M198.77,23.46h-1.51l.67,.88c-.43,.14-.95,.27-1.51,.36v.74h2v1.05h-1.99c.62,.35,1.98,1.25,2.33,1.5l-.71,1.08c-.35-.34-1.02-.88-1.62-1.34v1.42h-1.39v-1.58c-.42,.63-.91,1.18-1.41,1.55-.21-.32-.62-.77-.91-1.01,.63-.35,1.29-.95,1.75-1.61h-1.11v-1.05h1.68v-.56c-.43,.04-.85,.07-1.25,.08-.04-.27-.18-.64-.32-.91,1.25-.1,2.73-.29,3.66-.6h-8.92v2.82c0,.53,0,1.11-.03,1.72,.59-.35,1.18-.92,1.61-1.53h-1.19v-1.04h1.61v-.5c-.42,.04-.84,.07-1.2,.1-.04-.25-.18-.63-.32-.9,1.21-.11,2.65-.32,3.46-.64l.74,.9c-.38,.14-.83,.25-1.32,.34v.71h1.36v1.04h-1.36v.03c.36,.21,1.23,.76,1.47,.94l-.8,1.01c-.14-.17-.41-.41-.67-.66v1.36h-1.36v-1.39c-.36,.52-.78,.97-1.19,1.29-.2-.29-.56-.67-.84-.92-.07,2.12-.31,4.64-.97,6.42-.32-.24-1.04-.62-1.43-.76,.81-2.16,.87-5.31,.87-7.49v-4.33h12.13v1.5Zm-9.51,6h8.33v5.07h-1.72v-.43h-4.97v.45h-1.64v-5.08Zm1.64,1.15v.66h4.97v-.66h-4.97Zm4.97,2.33v-.64h-4.97v.64h4.97Z"/>
      <path class="m" d="M198.79,47.08h-5.48v6.32h-1.82v-6.32h-5.39v-1.74h5.39v-5.01h1.82v5.01h5.48v1.74Z"/>
      <path class="m" d="M197.13,66.11c0,1.01-.24,1.48-.88,1.76-.67,.29-1.65,.32-3.1,.32-.1-.49-.43-1.29-.7-1.75,.98,.06,2.16,.04,2.47,.04,.34,0,.45-.11,.45-.41v-2.03h-6c-.36,1.57-1.06,3.1-2.37,4.19-.25-.35-.92-.97-1.29-1.21,2.12-1.81,2.31-4.48,2.31-6.61v-4.61h9.1v10.3Zm-1.77-3.67v-1.71h-5.62c-.01,.53-.04,1.12-.1,1.71h5.72Zm-5.62-5v1.71h5.62v-1.71h-5.62Z"/>
      <path class="m" d="M198.79,76.76h-5.48v6.32h-1.82v-6.32h-5.39v-1.74h5.39v-5.01h1.82v5.01h5.48v1.74Z"/>
      <path class="m" d="M198.67,95.61v1.65h-12.49v-1.65h3.24c.24-1.13,.49-2.45,.73-3.82h-2.38v-1.64h2.63c.13-.8,.24-1.61,.34-2.38h-3.75v-1.65h10.79v1.65h-5.18c-.11,.77-.24,1.58-.36,2.38h2.59l.29-.06,1.33,.1c-.08,1.64-.27,3.61-.46,5.42h2.7Zm-6.71-3.82c-.24,1.39-.48,2.7-.7,3.82h2.93c.14-1.27,.27-2.67,.35-3.82h-2.58Z"/>
    </g>
    <g class="n">
      <g>
        <path class="m" d="M127.62,18.7c0,2.34-.23,4.27-.68,5.79-.45,1.52-1.06,2.72-1.84,3.58-.78,.87-1.67,1.48-2.66,1.83-1,.36-2.04,.53-3.13,.53s-2.13-.2-3.13-.6c-1-.4-1.88-1.05-2.66-1.96-.78-.91-1.39-2.11-1.84-3.61-.45-1.5-.68-3.35-.68-5.57V0h16.62V18.7Zm-11.42-12.2v11.94c0,.97,.06,1.79,.19,2.47,.13,.67,.32,1.22,.58,1.62,.26,.41,.58,.7,.97,.88,.39,.18,.84,.27,1.36,.27s.97-.09,1.36-.27c.39-.18,.71-.48,.97-.88,.26-.41,.45-.95,.58-1.62,.13-.68,.19-1.5,.19-2.47V6.49h-6.23Z"/>
        <path class="m" d="M111,30.69l16.62,11.14v7.22l-16.62,11.24v-7.14l14.88-9.63v3.87l-14.88-9.55v-7.14Zm2.52,5.82h3.9v17.76h-3.9v-17.76Z"/>
        <path class="m" d="M127.62,83.79l-12.39-10.52h-4.23v-6.49h4.23l12.39-10.52v7.66l-10.78,8.54v-4.8l10.78,8.46v7.66Z"/>
        <path class="m" d="M118.79,92.62h4.93v11.27h-12.72v-6.23h7.79v-5.04Z"/>
      </g>
    </g>
    <g>
      <path class="m" d="M163.8,5.01h-5.27c.79,.64,1.61,1.37,2.1,1.92l-2.19,1.92h2.5v7.71h-9.66v1.8h11.15s-.03,.88-.09,1.31c-.3,4.05-.67,6.03-1.46,6.83-.64,.73-1.37,.97-2.32,1.07-.85,.09-2.29,.12-3.87,.06-.06-1.07-.43-2.41-1.01-3.29,1.28,.12,2.56,.15,3.11,.12,.46,0,.76-.03,1.04-.27,.3-.3,.55-1.13,.73-2.8h-7.28v7.53h-3.56v-5.94c-2.56,2.5-5.94,4.57-9.26,5.82-.52-.88-1.52-2.19-2.29-2.86,3.17-.94,6.46-2.62,8.84-4.54h-6.55c.46-2.07,.91-5.24,1.13-7.8h8.14v-1.74h-9.26v-2.99h6.22c-.67-.85-1.86-1.98-2.8-2.8l1.16-1.01h-1.8c-.98,1.52-2.07,2.89-3.11,3.93-.52-.61-1.74-1.89-2.44-2.44,1.8-1.58,3.47-3.99,4.42-6.4l3.2,.91c-.15,.4-.34,.82-.55,1.22h6.7v2.77h-4.36c.82,.7,1.61,1.46,2.07,2.01l-1.95,1.8h12.86c-.67-.82-1.98-1.92-2.96-2.71l1.31-1.13h-2.5c-.73,1.16-1.55,2.16-2.38,2.96-.61-.61-1.92-1.65-2.71-2.1,1.68-1.43,3.05-3.56,3.81-5.73l3.29,.82c-.15,.43-.33,.88-.52,1.31h8.38v2.74Zm-16.09,11.55h-4.97c-.09,.61-.15,1.22-.24,1.8h5.21v-1.8Zm9.63-4.72h-6.06v1.74h6.06v-1.74Z"/>
      <path class="m" d="M163.86,49.57v3.93h-28.03v-3.93h28.03Z"/>
      <path class="m" d="M152.4,89.68c2.13,4.85,6.03,8.41,11.98,9.96-.88,.76-1.98,2.35-2.5,3.38-5.73-1.83-9.42-5.36-11.98-10.36-1.68,4.05-5.12,7.89-11.98,10.45-.49-.91-1.58-2.44-2.38-3.14,7.04-2.5,10.02-6.43,11.27-10.3h-10.21v-3.72h10.97c.06-.82,.09-1.58,.09-2.35v-3.08h-9.96v-3.72h24.13v3.72h-10.36v3.14c0,.73-.03,1.49-.06,2.29h11.61v3.72h-10.63Z"/>
    </g>
    <path class="o" d="M15.93,139.56H292.31c6.08,0,11.01,4.93,11.01,11.01v63.57H4.92v-63.57c0-6.08,4.93-11.01,11.01-11.01Z"/>
    <path class="l" d="M15.93,214.84H292.31c6.08,0,11.01,4.93,11.01,11.01v201.23H4.92V225.84c0-6.08,4.93-11.01,11.01-11.01Z" transform="translate(308.23 641.91) rotate(180)"/>
    <g>
      <path class="m" d="M63.29,183.6h-3.67v1.42h-1.52v-12.49h5.18v11.06Zm-3.67-9.66v3.36h2.13v-3.36h-2.13Zm2.13,8.27v-3.53h-2.13v3.53h2.13Zm7.65-7.45v1.91h3.68v1.36h-1.43v1.61h1.89v1.37h-1.89v4.12c0,.8-.19,1.22-.78,1.44-.62,.25-1.53,.27-2.89,.27-.07-.42-.32-1.04-.55-1.46,.99,.03,1.96,.03,2.24,.03,.28-.02,.37-.08,.37-.32v-4.08h-6.4v-1.37h6.4v-1.61h-5.76v-1.36h3.49v-1.91h-4.18v-1.39h4.18v-1.91h1.62v1.91h4.21v1.39h-4.21Zm-3.49,6.66c.78,.84,1.74,1.99,2.2,2.76l-1.44,.82c-.41-.75-1.34-1.99-2.12-2.88l1.36-.7Z"/>
      <path class="m" d="M81.82,177.98v8.87h-1.62v-14.7h6.5v5.83h-4.88Zm0-4.65v1.16h3.33v-1.16h-3.33Zm3.33,3.5v-1.24h-3.33v1.24h3.33Zm9.6,8.08c0,.89-.19,1.39-.83,1.66-.62,.25-1.59,.27-3.07,.27-.07-.42-.3-1.09-.51-1.52h-4.76v.84h-1.5v-7.01h6.61v6.13c.86,.03,1.71,.02,1.99,.02,.32-.02,.41-.1,.41-.38v-6.88h-5.01v-5.86h6.66v12.75Zm-9.16-4.6v1.31h3.58v-1.31h-3.58Zm3.58,3.83v-1.39h-3.58v1.39h3.58Zm.49-10.81v1.16h3.44v-1.16h-3.44Zm3.44,3.53v-1.27h-3.44v1.27h3.44Z"/>
    </g>
    <g>
      <path class="m" d="M177.58,179.22c-.67-.6-2.08-1.37-3.23-1.84l.86-1.17c1.13,.42,2.56,1.14,3.28,1.69l-.92,1.32Zm1.69,2.11c-.93,1.74-2.1,3.73-3.15,5.32l-1.37-1.05c.93-1.27,2.29-3.4,3.31-5.31l1.22,1.04Zm-1.13-6.46c-.6-.64-1.94-1.51-3.01-2.04l.92-1.14c1.08,.5,2.43,1.32,3.08,1.94l-.99,1.24Zm2.64,4.52h1.48v1.69c0,1.84-.28,4.07-2.54,5.71-.25-.32-.79-.82-1.15-1.02,1.99-1.41,2.2-3.25,2.2-4.72v-1.66Zm8.32,0c-.21-.32-.51-.72-.85-1.14-6.86,.43-7.7,.5-8.27,.72-.09-.32-.35-1.05-.53-1.46,.39-.08,.79-.47,1.3-1.05,.25-.25,.69-.77,1.2-1.47h-2.64v-1.41h3.67c.42-.67,.88-1.39,1.23-2.09l1.6,.6c-.3,.5-.63,1-.95,1.49h5.34v1.41h-6.36c-.65,.84-1.3,1.61-1.96,2.31l5.38-.3c-.39-.43-.76-.87-1.08-1.27l1.23-.67c.99,1.1,2.34,2.63,3.01,3.53l-1.34,.8Zm-5.27,.13h1.45v6.61h-1.45v-6.61Zm5.71,5.76c.21,0,.58-.03,.79-.1,.02,.38,.07,.89,.12,1.21-.23,.08-.58,.1-.9,.1h-1.04c-1.37,0-1.64-.55-1.64-1.89v-5.21h1.52v5.24c0,.49,.04,.65,.26,.65h.88Z"/>
      <path class="m" d="M201.61,181.96c-.23-.52-.76-1.44-1.23-2.24v7.15h-1.55v-6.95c-.58,1.61-1.3,3.16-2.08,4.17-.12-.44-.51-1.12-.76-1.52,.92-1.14,1.89-3.13,2.45-4.9h-2.19v-1.44h2.57v-2.38c-.65,.12-1.3,.22-1.92,.3-.07-.33-.25-.87-.44-1.21,1.76-.32,3.75-.79,4.97-1.34l.92,1.27c-.58,.23-1.27,.42-1.97,.6v2.75h2.13v1.44h-2.13v.35c.48,.54,1.85,2.26,2.15,2.68l-.92,1.27Zm10.66,3.13v1.39h-10.08v-1.39h4.37v-1.92h-3.44v-1.34h3.44v-1.72c-.99,.1-1.99,.17-2.91,.2-.02-.33-.23-.87-.39-1.21,2.47-.15,5.38-.45,7.05-.92l1.04,1.17c-.9,.23-2.01,.42-3.17,.57v1.91h3.38v1.34h-3.38v1.92h4.09Zm-.9-7.35h-8.12v-5.46h8.12v5.46Zm-1.59-4.13h-5.01v2.81h5.01v-2.81Z"/>
      <path class="m" d="M233.13,184.94c0,.89-.19,1.37-.85,1.62-.65,.25-1.71,.27-3.19,.27-.07-.45-.33-1.16-.58-1.59,1.08,.05,2.22,.03,2.54,.03,.32-.02,.42-.1,.42-.35v-3.31c-.37,.3-.9,.92-1.16,1.34-2.08-1.07-3.37-2.79-4.12-5-.76,2.33-2.11,4.03-4.28,5.11-.19-.33-.65-.87-1-1.19v4.99h-1.66v-11.67h6.31c-.07-.52-.12-1.07-.18-1.62h-3.05v-1.37h4.48c.05,1.07,.14,2.08,.32,3h6.01v9.76Zm-12.23-3.18c2.13-1.02,3.45-2.69,4.07-5.05h-4.07v5.05Zm6.57-5.05c.67,2.28,1.89,3.95,4,4.89v-4.89h-4Z"/>
      <path class="m" d="M249.2,177.02c-.09,.15-.19,.28-.3,.42,1.97,2.04,4.39,3.31,7.17,4.3-.39,.33-.83,.85-1.06,1.29-.71-.28-1.39-.62-2.04-.94v4.7h-1.67v-.47h-6.66v.52h-1.6v-4.55c-.69,.35-1.41,.69-2.13,.95-.23-.38-.67-.92-1.04-1.26,3.23-1.09,6.27-3.08,7.91-5.56l1.43,.59Zm-6.96-.84h-1.6v-3.25h6.64c-.18-.42-.39-.85-.6-1.24l1.69-.35c.3,.47,.63,1.09,.85,1.59h6.12v3.25h-1.66v-1.84h-11.44v1.84Zm4.25-.75c-1.13,1.46-2.91,2.85-4.51,3.7-.23-.28-.79-.9-1.13-1.17,1.55-.7,3.15-1.84,4.11-3.03l1.53,.5Zm4.81,9.52v-2.34h-6.66v2.34h6.66Zm.16-3.72c-1.23-.75-2.34-1.62-3.42-2.71-.92,1-2.01,1.92-3.19,2.71h6.61Zm-1.04-6.29c1.53,.87,3.52,2.21,4.49,3.15l-1.18,1c-.92-.92-2.85-2.33-4.44-3.26l1.13-.89Z"/>
    </g>
    <g>
      <line class="i" x1="145.58" y1="150.2" x2="145.58" y2="207.88"/>
      <line class="h" x1="145.58" y1="218.1" x2="145.58" y2="414.96"/>
    </g>
    <line class="j" x1="160.68" y1="267.5" x2="270.11" y2="267.5"/>
    <g>
      <path class="p" d="M184.04,247.21v7.65h-1.38v-12.51h5.56v4.86h-4.19Zm0-3.88v.95h2.88v-.95h-2.88Zm2.88,2.91v-1.04h-2.88v1.04h2.88Zm3.98,5.3v3.06h-1.25v-3.06h-1.81c-.12,.95-.6,2.41-1.96,3.28-.19-.24-.62-.6-.9-.78,1.11-.64,1.53-1.71,1.65-2.49h-1.71v-1.1h1.75v-1.35h-1.48v-1.05h7.27v1.05h-1.56v1.35h1.86v1.1h-1.86Zm-1.25-1.1v-1.35h-1.79v1.35h1.79Zm5.42,2.79c0,.73-.15,1.11-.65,1.34-.48,.21-1.23,.26-2.35,.24-.04-.36-.24-.96-.45-1.31,.77,.01,1.53,.01,1.77,.01,.23-.01,.3-.08,.3-.3v-5.99h-4.3v-4.89h5.69v10.89Zm-4.35-9.9v.95h2.97v-.95h-2.97Zm2.97,2.94v-1.07h-2.97v1.07h2.97Z"/>
      <path class="p" d="M209.24,246.21c1.68,.87,3.44,1.91,4.42,2.68l-.81,1.03c-1.12-.97-3.37-2.31-5.31-3.31v2.28h-1.44v-2.32c-1.41,1.4-3.39,2.57-5.28,3.21-.21-.33-.65-.84-.96-1.13,1.74-.48,3.57-1.38,4.87-2.44h-4.51v-1.2h5.88v-1.27c-1.46,.13-2.92,.21-4.3,.26-.03-.31-.21-.83-.35-1.11,3.31-.14,7.18-.48,9.37-1.04l1.02,1.07c-1.23,.29-2.71,.51-4.3,.7v1.4h5.89v1.2h-4.2Zm-6.84,3.02h9.09v5.62h-1.44v-.46h-6.27v.47h-1.38v-5.63Zm1.38,1.04v1.05h6.27v-1.05h-6.27Zm6.27,3.08v-1.08h-6.27v1.08h6.27Z"/>
      <path class="p" d="M230.96,245.7c-.28,2.07-.81,3.93-1.62,5.49,.66,1.07,1.48,1.91,2.47,2.49-.34,.27-.81,.8-1.05,1.18-.89-.6-1.62-1.41-2.23-2.37-.73,.98-1.63,1.8-2.76,2.37-.18-.29-.48-.63-.79-.91h-1.16v-.6h-2.53v.87h-1.2v-3.49c-.24,1.25-.63,2.49-1.24,3.51-.23-.24-.77-.64-1.07-.77,1.25-2.05,1.37-4.95,1.37-7.01v-3.65c1.8-.19,3.92-.51,5.11-.9l1.06,.96c-1.35,.41-3.19,.7-4.89,.88v.78h4.62v3.28c.96-1.48,1.48-3.71,1.77-6l1.4,.19c-.12,.84-.27,1.67-.47,2.46h3.98v1.24h-.77Zm-5.89,7.91c1.12-.56,2.02-1.4,2.73-2.45-.48-1.01-.87-2.14-1.17-3.33-.22,.47-.46,.9-.75,1.28-.21-.26-.75-.74-1.06-.97v-.03h-4.42c-.03,.38-.06,.76-.11,1.16h4.79v4.35Zm-4.63-8.01v1.42h3.38v-1.42h-3.38Zm3.39,6.68v-1.95h-2.53v1.95h2.53Zm3.62-6.58l-.06,.19c.27,1.37,.68,2.68,1.19,3.85,.54-1.17,.9-2.54,1.16-4.03h-2.28Z"/>
      <path class="p" d="M240.62,251.43c-1.47,.57-3.03,1.2-4.27,1.65l-.46-1.35c.51-.16,1.12-.36,1.78-.57v-4.7h-1.53v-1.25h1.53v-3.26h1.31v3.26h1.21v1.25h-1.21v4.25l1.38-.47,.27,1.2Zm8.97,2.14v1.01h-10.03v-1.01h10.03Zm-.1-9.59h-9.55v-1h4.03c-.18-.31-.4-.63-.61-.88l1.12-.5c.38,.41,.78,.97,.94,1.38h4.06v1Zm-.66,4.99h-8.19v-4.47h8.19v4.47Zm-7.74,4.06v-3.55h7.18v3.55h-7.18Zm6.54-7.72h-5.85v2.85h5.85v-2.85Zm-5.26,5.59h4.57v-.66h-4.57v.66Zm0,1.38h4.57v-.67h-4.57v.67Zm4.36-4.6h-4.08v-1.85h4.08v1.85Zm-.98-1.23h-2.17v.6h2.17v-.6Z"/>
    </g>
    <line class="j" x1="29.6" y1="267.5" x2="125.19" y2="267.5"/>
    <g>
      <path class="p" d="M54.44,247.05c0-3.63,1.4-5.4,3.57-5.4s3.57,1.78,3.57,5.4-1.41,5.47-3.57,5.47-3.57-1.82-3.57-5.47Zm5.49,0c0-3.01-.79-4.1-1.92-4.1s-1.92,1.1-1.92,4.1,.79,4.18,1.92,4.18,1.92-1.14,1.92-4.18Z"/>
      <path class="p" d="M65.24,250.4c.44,.47,1.11,.78,1.81,.78,1.33,0,2.49-1.03,2.6-4.02-.65,.76-1.59,1.23-2.43,1.23-1.84,0-3.09-1.1-3.09-3.29,0-2.08,1.5-3.45,3.29-3.45,2.11,0,3.82,1.62,3.82,5.09,0,4.13-1.98,5.79-4.11,5.79-1.27,0-2.17-.48-2.82-1.11l.93-1.01Zm4.38-4.47c-.17-2.07-.99-3.01-2.19-3.01-.94,0-1.69,.81-1.69,2.18s.63,2.11,1.78,2.11c.68,0,1.44-.37,2.1-1.28Z"/>
      <path class="p" d="M78.89,245.79c0-.67,.51-1.17,1.15-1.17s1.16,.5,1.16,1.17-.51,1.14-1.16,1.14-1.15-.48-1.15-1.14Zm0,5.6c0-.67,.51-1.17,1.15-1.17s1.16,.5,1.16,1.17-.51,1.14-1.16,1.14-1.15-.47-1.15-1.14Z"/>
      <path class="p" d="M88.76,247.05c0-3.63,1.4-5.4,3.57-5.4s3.57,1.78,3.57,5.4-1.41,5.47-3.57,5.47-3.57-1.82-3.57-5.47Zm5.49,0c0-3.01-.79-4.1-1.92-4.1s-1.92,1.1-1.92,4.1,.79,4.18,1.92,4.18,1.92-1.14,1.92-4.18Z"/>
      <path class="p" d="M98.51,247.05c0-3.63,1.4-5.4,3.57-5.4s3.57,1.78,3.57,5.4-1.41,5.47-3.57,5.47-3.57-1.82-3.57-5.47Zm5.49,0c0-3.01-.79-4.1-1.92-4.1s-1.92,1.1-1.92,4.1,.79,4.18,1.92,4.18,1.92-1.14,1.92-4.18Z"/>
    </g>
    <line class="j" x1="160.68" y1="400.32" x2="270.11" y2="400.32"/>
    <g>
      <path class="p" d="M185.84,381.47c-.28,1.27-.69,2.61-1.21,3.68,.27,.14,.6,.38,1.08,.67,1.05,.6,2.41,.68,4.17,.68s4.35-.13,6.01-.33c-.17,.36-.39,1.01-.4,1.37-1.17,.07-3.92,.16-5.67,.16-1.96,0-3.25-.16-4.35-.76-.6-.33-1.14-.83-1.47-.83s-.84,.93-1.26,1.8l-.94-1.23c.52-.64,1.05-1.2,1.52-1.48,.4-.77,.75-1.8,.99-2.76h-1.92c.36-.84,.81-2,1.19-3.11h-1.51v-1.2h3.24c-.33,1.01-.75,2.18-1.12,3.16h.84l.21-.06,.63,.23Zm-2.23-3.93c-.18-.63-.54-1.62-.78-2.38l1.21-.36c.29,.74,.63,1.7,.82,2.31l-1.26,.43Zm5.97,1.04c.09-.3,.17-.63,.24-.94h-3.78v-1.08h2.26c-.19-.4-.54-.94-.84-1.33l1.1-.43c.39,.46,.82,1.1,1,1.5l-.6,.26h2.53c.38-.53,.81-1.25,1.04-1.78l1.36,.36c-.34,.48-.69,1-1.02,1.43h2.62v1.08h-4.17c-.13,.33-.3,.64-.45,.94h3.4v6.73h-7.06v-6.73h2.35Zm3.34,.98h-4.39v.98h4.39v-.98Zm0,1.87h-4.39v1h4.39v-1Zm0,1.9h-4.39v1.01h4.39v-1.01Z"/>
      <path class="p" d="M204.75,383.31c-1.5,.73-3.12,1.5-4.38,2.07l-.54-1.33c.54-.2,1.21-.47,1.95-.77v-4.25h-1.65v-1.25h1.65v-2.88h1.29v2.88h1.51v1.25h-1.51v3.71c.45-.2,.91-.4,1.38-.6l.3,1.17Zm2.91-1.68c-.16,.3-.34,.58-.55,.86h6.27s-.01,.33-.03,.5c-.24,2.85-.46,3.96-.87,4.39-.25,.27-.54,.36-.9,.4-.34,.03-.9,.04-1.5,.01-.01-.31-.13-.78-.31-1.07,.51,.06,.98,.06,1.17,.06,.23,0,.35-.01,.47-.16,.22-.24,.42-1.05,.6-3.06h-.9c-.6,1.65-1.77,3.43-3.01,4.33-.23-.24-.66-.56-1.01-.74,1.17-.74,2.22-2.15,2.85-3.59h-1.19c-.81,1.41-2.23,2.92-3.57,3.72-.21-.27-.6-.6-.93-.8,1.19-.6,2.41-1.74,3.24-2.92h-1.26c-.57,.6-1.2,1.11-1.85,1.53-.19-.21-.67-.64-.94-.83,1.12-.61,2.15-1.54,2.83-2.62h-1.92v-1.13h9.37v1.13h-6.06Zm5.01-1.81h-6.93v-4.67h6.93v4.67Zm-1.29-3.72h-4.38v.93h4.38v-.93Zm0,1.82h-4.38v.94h4.38v-.94Z"/>
      <path class="p" d="M222.98,375.26c-.44,1.03-.98,2.05-1.59,3.02v9.52h-1.38v-7.62c-.48,.6-1,1.14-1.53,1.61-.15-.33-.57-1.05-.82-1.37,1.59-1.33,3.06-3.41,3.94-5.57l1.38,.41Zm5.17,4.32c.9,2.14,2.34,4.28,3.82,5.44-.34,.26-.81,.71-1.05,1.07-1.33-1.2-2.56-3.14-3.49-5.2v6.96h-1.38v-6.6c-.96,1.98-2.22,3.76-3.58,4.93-.23-.33-.72-.8-1.04-1.05,1.59-1.17,3.07-3.35,3.99-5.54h-3.37v-1.3h4v-3.31h1.38v3.31h4.12v1.3h-3.4Z"/>
      <path class="p" d="M235.98,386.59c.56-.78,1.12-2,1.47-2.91l1.21,.48c-.36,.93-.87,2.18-1.41,3.01l-1.28-.58Zm6.39-3.72h-4.19v-6.83h3.46c.18-.44,.39-1.03,.48-1.44l1.67,.24c-.21,.43-.46,.84-.66,1.2h4.27v6.83h-4.57c.69,.61,1.44,1.44,1.8,2.01l-1.15,.66c-.33-.63-1.15-1.57-1.9-2.22l.79-.44Zm2.29,3.52c.75,0,.88-.2,.96-1.6,.31,.21,.9,.41,1.29,.48-.19,1.88-.61,2.32-2.16,2.32h-3.15c-1.89,0-2.37-.37-2.37-1.65v-2.17h1.4v2.14c0,.4,.16,.47,1.08,.47h2.96Zm-5.13-8.38h6.48v-.93h-6.48v.93Zm0,1.9h6.48v-.93h-6.48v.93Zm0,1.92h6.48v-.94h-6.48v.94Zm8.29,1.61c.68,.88,1.41,2.08,1.67,2.89l-1.32,.56c-.23-.81-.92-2.04-1.57-2.96l1.23-.49Z"/>
    </g>
    <line class="j" x1="29.6" y1="400.32" x2="125.19" y2="400.32"/>
    <g>
      <path class="p" d="M54.4,385.76c3.25-2.74,4.94-4.77,4.94-6.5,0-1.14-.65-1.92-1.88-1.92-.87,0-1.59,.53-2.17,1.17l-.98-.91c.94-.97,1.92-1.57,3.36-1.57,2.02,0,3.33,1.25,3.33,3.15,0,2.02-1.7,4.12-4.04,6.24,.57-.06,1.26-.1,1.8-.1h2.76v1.4h-7.12v-.96Z"/>
      <path class="p" d="M64.19,381.43c0-3.63,1.4-5.4,3.57-5.4s3.57,1.78,3.57,5.4-1.41,5.47-3.57,5.47-3.57-1.82-3.57-5.47Zm5.49,0c0-3.01-.79-4.1-1.92-4.1s-1.92,1.1-1.92,4.1,.79,4.18,1.92,4.18,1.92-1.14,1.92-4.18Z"/>
      <path class="p" d="M78.89,380.16c0-.67,.51-1.17,1.15-1.17s1.16,.5,1.16,1.17-.51,1.14-1.16,1.14-1.15-.48-1.15-1.14Zm0,5.6c0-.67,.51-1.17,1.15-1.17s1.16,.5,1.16,1.17-.51,1.14-1.16,1.14-1.15-.47-1.15-1.14Z"/>
      <path class="p" d="M88.76,381.43c0-3.63,1.4-5.4,3.57-5.4s3.57,1.78,3.57,5.4-1.41,5.47-3.57,5.47-3.57-1.82-3.57-5.47Zm5.49,0c0-3.01-.79-4.1-1.92-4.1s-1.92,1.1-1.92,4.1,.79,4.18,1.92,4.18,1.92-1.14,1.92-4.18Z"/>
      <path class="p" d="M98.51,381.43c0-3.63,1.4-5.4,3.57-5.4s3.57,1.78,3.57,5.4-1.41,5.47-3.57,5.47-3.57-1.82-3.57-5.47Zm5.49,0c0-3.01-.79-4.1-1.92-4.1s-1.92,1.1-1.92,4.1,.79,4.18,1.92,4.18,1.92-1.14,1.92-4.18Z"/>
    </g>
    <line class="j" x1="160.68" y1="346.6" x2="270.11" y2="346.6"/>
    <g>
      <path class="p" d="M171.56,301.05c-.61-.4-1.86-1.08-2.76-1.54l.77-.97c.85,.38,2.13,1.01,2.77,1.41l-.78,1.1Zm1.59,1.84c-.78,1.48-1.78,3.18-2.65,4.52l-1.2-.88c.81-1.08,1.96-2.89,2.83-4.52l1.02,.88Zm-.82-5.6c-.6-.44-1.82-1.15-2.69-1.65l.81-.94c.85,.46,2.08,1.13,2.71,1.54l-.84,1.05Zm9.48,8.76c0,.67-.15,1.05-.65,1.25-.48,.21-1.25,.21-2.39,.21-.06-.34-.25-.9-.43-1.24,.76,.03,1.57,.03,1.8,.03,.23-.01,.3-.09,.3-.29v-2.35c-1.67,.41-3.39,.83-4.71,1.13l-.44-1.11c1.3-.24,3.24-.67,5.14-1.1v-2.89h-5.26v2.91c0,1.58-.13,3.69-.98,5.06-.23-.23-.79-.61-1.09-.75,.72-1.23,.78-2.94,.78-4.32v-4.09h3.29v-4h1.41v4h3.23v7.55Zm-6.88-7.95c-.21-.71-.81-1.84-1.42-2.65l1.18-.5c.62,.78,1.26,1.85,1.5,2.57l-1.26,.58Zm1.17,2.35c1.23,.24,2.8,.74,3.64,1.15l-.6,.93c-.81-.43-2.37-.98-3.62-1.25l.57-.83Zm6.24-5.1c-.5,.96-1.1,1.98-1.59,2.67l-1.22-.46c.5-.73,1.14-1.85,1.47-2.69l1.33,.48Z"/>
      <path class="p" d="M192.61,299.88c-.03,.33-.06,.64-.09,.96,.6,3.42,2.15,5.12,6.4,5.54-.28,.29-.65,.87-.81,1.25-3.48-.48-5.2-1.75-6.18-4.12-.75,1.94-2.35,3.31-6.04,4.06-.13-.34-.48-.91-.78-1.2,5.25-.97,5.7-3.11,5.95-6.5h1.54Zm-4.42,.06c-.46-.76-1.41-1.85-2.41-2.84,.81-.87,1.68-1.92,2.15-2.61l1.41,.36c-.56,.77-1.29,1.55-1.92,2.22,.82,.77,1.69,1.72,2.13,2.35l-1.35,.51Zm-.64,.54c.57,.97,1.3,2.28,1.65,3.05l-1.38,.6c-.3-.8-.99-2.14-1.53-3.15l1.26-.5Zm4.87-.73c-.48-.73-1.47-1.8-2.52-2.74,.84-.83,1.74-1.85,2.25-2.52l1.42,.36c-.6,.74-1.35,1.5-2.01,2.15,.84,.73,1.74,1.64,2.19,2.24l-1.33,.51Zm4.38,.24c-.54-.77-1.65-1.88-2.83-2.86,.93-.87,1.94-1.94,2.48-2.64l1.42,.4c-.65,.76-1.47,1.54-2.17,2.21,.94,.76,1.92,1.71,2.44,2.35l-1.33,.54Zm-2.2,3.55c.63-.78,1.41-2.02,1.86-2.95l1.5,.38c-.66,1.05-1.47,2.19-2.11,2.95l-1.24-.38Z"/>
      <path class="p" d="M211.3,296.31c-.3,1.67-.99,2.98-2.83,3.76-.14-.24-.41-.6-.66-.83v6.97c0,.57-.12,.94-.52,1.14-.42,.19-1.02,.2-2,.2-.06-.3-.25-.83-.44-1.11,.72,.01,1.35,.01,1.53,.01,.19-.01,.27-.07,.27-.26v-2.32h-3.33c-.13,1.33-.45,2.69-1.15,3.72-.21-.17-.72-.47-.99-.58,1-1.5,1.11-3.59,1.11-5.19v-2.27l-.14,.16c-.23-.2-.73-.61-1.02-.78,1.04-1.07,1.83-2.72,2.27-4.45l1.27,.27c-.1,.34-.21,.68-.33,1.03h1.58l.19-.06,.81,.48c-.24,.6-.57,1.28-.9,1.88h1.79v1.03c1.42-.6,1.96-1.6,2.21-2.81h-1.86v-1.1h6.52s0,.31-.02,.46c-.1,2.31-.24,3.26-.55,3.61-.21,.26-.46,.36-.85,.4-.31,.04-.92,.04-1.52,.01-.03-.34-.15-.8-.31-1.1,.52,.06,1.01,.06,1.22,.06,.19,.01,.31-.01,.4-.13,.17-.17,.27-.75,.35-2.21h-2.08Zm-7.38,.5c-.2,.44-.41,.88-.63,1.28h1.53c.19-.37,.39-.84,.56-1.28h-1.46Zm-.51,5.03c0,.33,0,.67-.02,1.03h1.15v-1.44h-1.14v.41Zm0-1.4h1.14v-1.35h-1.14v1.35Zm2.11,0h1.12v-1.35h-1.12v1.35Zm1.12,2.42v-1.44h-1.12v1.44h1.12Zm8.43,2.14h-2.73v2.51h-1.32v-2.51h-2.97v-1.15h2.97v-1.54h-1.47c-.21,.48-.45,.91-.71,1.27-.24-.17-.76-.41-1.05-.53,.62-.8,1.05-1.95,1.29-3.14l1.15,.23c-.07,.34-.17,.68-.27,1.03h1.05v-1.37h1.32v1.37h2.44v1.14h-2.44v1.54h2.73v1.15Z"/>
      <path class="p" d="M220.42,296.35v2.91c0,2.42-.24,6-1.77,8.34-.27-.23-.9-.57-1.26-.7,1.46-2.19,1.59-5.39,1.59-7.64v-4.18h11.8v1.27h-10.36Zm8.13,9.63c1.05,0,1.21-.37,1.36-2.09,.34,.23,.94,.46,1.33,.54-.23,2.15-.71,2.81-2.62,2.81h-4.02c-2.1,0-2.74-.43-2.74-2.2v-7.23h7.48v4.13c0,.73-.2,1.11-.83,1.3-.63,.2-1.63,.2-3.09,.2-.08-.36-.31-.9-.52-1.25,1.14,.06,2.32,.04,2.65,.03,.31-.01,.4-.07,.4-.3v-2.84h-4.68v5.96c0,.78,.21,.94,1.38,.94h3.89Z"/>
      <path class="p" d="M237.58,301.21c-.29,1.27-.69,2.61-1.23,3.68,.29,.14,.6,.38,1.1,.67,1.04,.6,2.4,.68,4.17,.68s4.35-.13,6.01-.33c-.17,.36-.39,1.01-.42,1.37-1.15,.07-3.9,.16-5.65,.16-1.96,0-3.25-.16-4.35-.75-.6-.33-1.14-.83-1.47-.83s-.85,.93-1.26,1.8l-.94-1.23c.51-.64,1.05-1.2,1.51-1.48,.41-.77,.75-1.8,.99-2.76h-1.94c.38-.84,.81-2,1.2-3.11h-1.51v-1.2h3.22c-.31,1.01-.75,2.17-1.11,3.16h.84l.2-.06,.65,.23Zm-2.24-3.93c-.18-.63-.55-1.62-.78-2.38l1.21-.36c.29,.74,.63,1.7,.83,2.31l-1.26,.43Zm3.42,1.87c-.31,.37-.63,.71-.97,1-.14-.26-.54-.88-.78-1.18,1.26-1.05,2.35-2.71,2.98-4.45l1.26,.36c-.24,.66-.56,1.3-.89,1.92h2.61c-.19-.53-.5-1.14-.78-1.65l1.31-.34c.38,.61,.79,1.41,1,2h2.5v1.13h-3.12v1.14h2.58v1.1h-2.58v1.2h2.55v1.08h-2.55v1.23h3.33v1.13h-7.11v.73h-1.35v-6.37Zm3.79-1.23h-2.44v1.14h2.44v-1.14Zm0,2.24h-2.44v1.2h2.44v-1.2Zm0,2.28h-2.44v1.23h2.44v-1.23Z"/>
      <path class="p" d="M253.39,305.31c.63-.11,1.28-.24,1.92-.37l.06,1.07c-1.8,.4-3.69,.8-5.1,1.11l-.29-1.18c.62-.11,1.41-.26,2.28-.41v-3.86h-2.1v-1.12h2.1v-1.35h-1.29v-.63c-.24,.23-.47,.43-.71,.61-.09-.29-.36-1.01-.52-1.34,1.11-.81,2.28-2.08,2.95-3.42l1.02,.46c-.09,.19-.19,.37-.3,.57,.92,.54,1.81,1.2,2.37,1.71l-.6,1.1c-.55-.57-1.47-1.28-2.37-1.87-.4,.61-.87,1.18-1.36,1.7h3.38v1.11h-1.44v1.35h1.92v1.12h-1.92v3.65Zm-2.16-3.01c.25,.81,.49,1.87,.57,2.52l-.92,.27c-.06-.7-.28-1.74-.51-2.57l.85-.23Zm2.44,2.37c.21-.68,.48-1.75,.6-2.49l.99,.26c-.27,.87-.55,1.85-.81,2.48l-.78-.24Zm8.97-.74c-.53,.67-1.21,1.27-2,1.78,.51,.48,1.04,.77,1.56,.77,.38,0,.51-.36,.56-1.34,.27,.23,.67,.4,.97,.49-.19,1.55-.6,1.95-1.6,1.95-.93,0-1.82-.47-2.55-1.25-1.03,.53-2.16,.95-3.28,1.27-.15-.26-.54-.76-.77-.97,1.19-.29,2.35-.67,3.39-1.17-.33-.51-.6-1.07-.84-1.7l-2.03,.17-.1-1.05,1.81-.16c-.15-.64-.27-1.34-.31-2.07h1.25c.04,.7,.15,1.35,.31,1.97l4.5-.38,.1,1.05-4.27,.36c.18,.46,.4,.86,.61,1.21,.6-.39,1.12-.81,1.5-1.3l1.19,.37Zm-6.57-7.27l1.92-.16c-.17-.61-.27-1.28-.31-1.98h1.25c.03,.67,.13,1.3,.3,1.88l2.46-.18c-.41-.31-1.21-.73-1.86-1l.66-.71c.65,.24,1.47,.61,1.89,.93l-.69,.78,1.69-.14,.09,1.04-3.9,.31c.17,.37,.35,.7,.54,.98,.56-.31,1-.67,1.37-1.05l1.17,.37c-.48,.56-1.14,1.04-1.86,1.47,.44,.38,.89,.6,1.35,.6,.36,0,.46-.29,.52-1.13,.26,.21,.65,.38,.95,.46-.18,1.41-.58,1.75-1.53,1.75-.88,0-1.71-.4-2.38-1.08-1.02,.46-2.1,.83-3.17,1.11-.16-.26-.55-.73-.79-.94,1.14-.24,2.28-.58,3.29-1.03-.27-.41-.51-.88-.72-1.41l-2.13,.19-.09-1.05Zm4.23,4.03c.69,.23,1.62,.58,2.1,.88l-.67,.8c-.46-.29-1.4-.7-2.1-.97l.67-.71Z"/>
      <path class="p" d="M174.1,322.27c-.42,.47-.82,1-1.17,1.38,.38,.44,.74,.9,.85,1.07l-.77,.88c-.21-.38-.64-1-1.05-1.58v5.5h-1.27v-5.1c-.44,.57-.9,1.08-1.33,1.5-.13-.3-.51-.88-.72-1.08,1.23-1.1,2.52-2.95,3.27-4.72h-2.78v-1.15h3.38l.25-.06,.72,.43c-.38,1.1-.9,2.19-1.52,3.22,.12,.11,.25,.27,.39,.44,.31-.41,.67-.94,.85-1.33l.88,.6Zm-2.76-3.35c-.25-.5-.78-1.27-1.23-1.84l1.11-.48c.48,.54,1.02,1.27,1.28,1.74l-1.16,.58Zm7.36,.68v1.23h3.36v7.38c0,.57-.1,.91-.5,1.11-.4,.21-.96,.23-1.78,.23-.05-.33-.21-.86-.38-1.17,.49,.01,.99,.01,1.12,.01,.16,0,.21-.06,.21-.21v-1.58h-2.04v2.88h-1.33v-2.88h-1.92v2.98h-1.31v-8.75h3.23v-1.23h-3.61v-1.21h3.61v-1.88h1.33v1.88h2.46c-.47-.4-1.2-.86-1.83-1.17l.79-.71c.77,.36,1.69,.93,2.16,1.38l-.56,.5h.85v1.21h-3.88Zm-3.25,2.35v1.25h1.92v-1.25h-1.92Zm1.92,3.59v-1.28h-1.92v1.28h1.92Zm1.33-3.59v1.25h2.04v-1.25h-2.04Zm2.04,3.59v-1.28h-2.04v1.28h2.04Z"/>
      <path class="p" d="M188.9,323.35c-.23,1.21-.6,2.52-1.08,3.58,.26,.14,.56,.37,1.01,.63,1.05,.6,2.41,.68,4.17,.68s4.35-.13,6.02-.33c-.17,.36-.38,1.01-.41,1.37-1.17,.07-3.92,.16-5.67,.16-1.96,0-3.25-.16-4.33-.75-.6-.33-1.15-.83-1.47-.83-.34,0-.85,.93-1.26,1.8l-.95-1.23c.54-.68,1.1-1.27,1.62-1.53,.38-.77,.69-1.8,.88-2.72h-1.93c.39-.84,.85-2,1.23-3.11h-1.56v-1.2h3.31c-.36,1.01-.78,2.18-1.17,3.16h.56l.21-.04,.82,.36Zm-2.17-4.08c-.17-.63-.54-1.64-.78-2.39l1.23-.34c.27,.74,.63,1.68,.83,2.29l-1.27,.44Zm3.52,.36h-1.2v-2.67h9.36v2.67h-1.33v-1.65h-6.73v1.14h2.76v-.66h1.35v.66h2.56v.96h-2.56v.71h3.19v4.08h-3.19v.7h4v1h-4v1.08h-1.35v-1.08h-3.94v-1h3.94v-.7h-3.19v-4.08h3.19v-.71h-2.85v-.44Zm.85,2.78h2v-.77h-2v.77Zm2,1.6v-.78h-2v.78h2Zm1.35-2.37v.77h1.95v-.77h-1.95Zm1.95,1.58h-1.95v.78h1.95v-.78Z"/>
      <path class="p" d="M213.62,329.39c-.23-.41-.54-.93-.9-1.48-8.23,.6-9.16,.66-9.78,.9-.09-.26-.33-.96-.51-1.33,.52-.1,1.11-.44,2.07-1.05,.58-.36,1.86-1.25,3.25-2.41-3.54,.23-4.09,.3-4.46,.43-.07-.27-.3-.94-.48-1.31,.36-.07,.67-.33,1.09-.67,.42-.34,1.62-1.45,2.54-2.68h-4.85v-1.3h6.02c-.29-.51-.66-1.13-.99-1.61l1.29-.43c.48,.64,1.02,1.47,1.29,2.02h5.5v1.31h-7.21l.63,.31c-.88,1.07-1.92,2.09-2.96,2.95l3.96-.2c.67-.61,1.35-1.27,1.95-1.92l1.3,.84c-2.15,2.15-4.53,3.99-6.85,5.43l6.4-.38c-.43-.6-.92-1.18-1.35-1.7l1.2-.6c1.19,1.28,2.48,3.01,3.1,4.13l-1.27,.74Z"/>
      <path class="p" d="M222.43,325.22c-.21-.43-.72-1.23-1.17-1.88v6.23h-1.35v-5.77c-.56,1.3-1.23,2.51-1.92,3.32-.14-.36-.47-.9-.68-1.23,.89-.97,1.85-2.67,2.4-4.18h-2.21v-1.24h2.4v-1.91c-.65,.11-1.29,.2-1.89,.29-.04-.29-.24-.76-.39-1.03,1.68-.26,3.6-.67,4.77-1.15l.79,1.08c-.57,.21-1.23,.38-1.94,.54v2.18h2.1v1.24h-2.1v.2c.45,.44,1.73,1.9,2.01,2.27l-.84,1.04Zm7.03,.7v3.65h-1.38v-3.42l-4.72,.75-.21-1.27,4.94-.78v-8.35h1.38v8.14l1.64-.26,.21,1.24-1.85,.3Zm-3.27-1.92c-.49-.61-1.59-1.52-2.5-2.12l.89-.77c.9,.57,2.04,1.42,2.56,2.02l-.95,.87Zm.38-3.75c-.45-.6-1.47-1.47-2.32-2.07l.92-.76c.85,.56,1.89,1.38,2.38,1.98l-.98,.84Z"/>
    </g>
    <line class="j" x1="29.6" y1="346.6" x2="125.19" y2="346.6"/>
    <g>
      <path class="p" d="M55.02,316.93h2.42v-7.3h-1.98v-1.04c1.04-.18,1.77-.43,2.4-.8h1.31v9.14h2.16v1.35h-6.3v-1.35Z"/>
      <path class="p" d="M63.89,317.07l.82-1.07c.63,.6,1.42,1.13,2.58,1.13,1.25,0,2.19-.84,2.19-2.24s-.84-2.2-2.1-2.2c-.71,0-1.12,.2-1.77,.6l-.84-.53,.33-4.97h5.59v1.38h-4.09l-.26,2.69c.47-.23,.92-.37,1.52-.37,1.85,0,3.36,1.04,3.36,3.33s-1.79,3.63-3.72,3.63c-1.74,0-2.83-.67-3.61-1.4Z"/>
      <path class="p" d="M78.89,311.73c0-.67,.51-1.17,1.15-1.17s1.16,.5,1.16,1.17-.51,1.14-1.16,1.14-1.15-.48-1.15-1.14Zm0,5.6c0-.67,.51-1.17,1.15-1.17s1.16,.5,1.16,1.17-.51,1.14-1.16,1.14-1.15-.47-1.15-1.14Z"/>
      <path class="p" d="M88.76,313c0-3.63,1.4-5.4,3.57-5.4s3.57,1.78,3.57,5.4-1.41,5.47-3.57,5.47-3.57-1.82-3.57-5.47Zm5.49,0c0-3.01-.79-4.1-1.92-4.1s-1.92,1.1-1.92,4.1,.79,4.18,1.92,4.18,1.92-1.14,1.92-4.18Z"/>
      <path class="p" d="M98.51,313c0-3.63,1.4-5.4,3.57-5.4s3.57,1.78,3.57,5.4-1.41,5.47-3.57,5.47-3.57-1.82-3.57-5.47Zm5.49,0c0-3.01-.79-4.1-1.92-4.1s-1.92,1.1-1.92,4.1,.79,4.18,1.92,4.18,1.92-1.14,1.92-4.18Z"/>
    </g>
  </g>
</svg>