<?xml version="1.0" encoding="UTF-8"?>
<svg id="b" data-name="圖層 2" xmlns="http://www.w3.org/2000/svg" width="55.38" height="112.36" xmlns:xlink="http://www.w3.org/1999/xlink" viewBox="0 0 55.38 112.36">
  <defs>
    <style>
      .e {
        fill: #fff;
      }

      .f {
        clip-path: url(#d);
      }

      .g {
        fill: none;
      }
    </style>
    <clipPath id="d">
      <rect class="g" x="14.76" width="40.62" height="58.06"/>
    </clipPath>
  </defs>
  <g id="c" data-name="圖層 2">
    <g>
      <g>
        <path class="e" d="M12.26,19.14s0-.05-.02-.07c-.03-.1-.06-.2-.09-.29-.02-.06-.04-.11-.06-.17-.03-.08-.06-.16-.1-.23-.03-.07-.07-.14-.1-.2-.03-.06-.07-.12-.1-.18-.06-.09-.12-.18-.19-.27-.02-.02-.04-.05-.06-.08-.57-.67-1.35-.96-2.3-.85-2.56,.28-2.56,1.46-2.56,2.6h0c0,.1,0,.18,0,.26v.07c0,.06,0,.11,0,.17,0,.04,0,.08,0,.12,1.68-.15,4.02,.21,5.67,.82h0c.06-.58,.03-1.16-.11-1.7"/>
        <path class="e" d="M10.63,28.95c.13-.02,.26-.04,.39-.06,.02,0,.04,0,.06-.01,.12-.02,.24-.05,.35-.08,.02,0,.04-.01,.07-.02,.11-.03,.22-.07,.33-.1,.02,0,.04-.01,.06-.02,.12-.04,.23-.09,.34-.14h.02c.12-.07,.23-.13,.33-.19,.17-.11,.33-.25,.46-.42h0c.13-.17,.25-.35,.34-.56h0c.04-.1,.08-.2,.11-.3,0-.01,.01-.03,.02-.04,.03-.09,.05-.18,.07-.27,0-.03,.02-.07,.02-.1,.02-.08,.03-.16,.04-.24,0-.06,.01-.11,.02-.17,0-.07,0-.13,0-.2,0-.04,0-.07,0-.11,0-.03,0-.07,0-.1,0-.08,0-.15-.01-.22,0-.08-.01-.15-.02-.23,0-.07-.02-.13-.03-.2-.01-.08-.03-.15-.05-.23-.02-.06-.03-.12-.05-.19-.02-.07-.04-.14-.07-.21-.02-.06-.05-.12-.07-.17-.03-.06-.06-.13-.09-.19-.03-.06-.06-.11-.09-.16-.03-.06-.07-.12-.11-.17-.03-.05-.07-.09-.1-.13-.04-.05-.08-.11-.13-.15-.03-.04-.07-.07-.11-.1-.05-.05-.1-.1-.15-.14-.03-.02-.06-.04-.08-.06-.06-.04-.13-.09-.2-.13-1.76-.92-4.97-1.18-5.95-.92h0c-.01,.24-.03,.63-.03,1.23,0,.14,0,.3,0,.47,0,.1,0,.2,0,.29v.05c0,.65,.01,1.34,.02,2,0,.16,0,.32,0,.47v.04c0,.05,0,.1,0,.15,0,.28,.01,.54,.02,.78,0,.32,.01,.59,.02,.82l.45,.04h0v.17l-.02,.02h.04l.06,.03c.08,.02,.16,.04,.24,.05,.02,0,.04,0,.06,.01,.09,.02,.19,.03,.29,.05h.06c.11,.03,.22,.04,.34,.06h.03c.8,.1,1.75,.12,2.64,0h.03"/>
        <path class="e" d="M11.54,33.47c.09-.11,.17-.22,.25-.35,.02-.03,.04-.07,.06-.1,.05-.09,.1-.19,.15-.29,.02-.04,.04-.08,.06-.13,.05-.12,.1-.25,.14-.38,.02-.08,.04-.15,.06-.23,.01-.06,.03-.12,.04-.19,.02-.09,.04-.19,.05-.29,0-.04,0-.07,.01-.11,.03-.23,.04-.47,.03-.71h-.03c-.66,.22-1.38,.34-2.12,.4-.03,0-.07,0-.1,0-.2,.01-.41,.02-.61,.03-.05,0-.1,0-.14,0-.2,0-.4,0-.59,0-.04,0-.08,0-.11,0-.47-.02-.92-.07-1.35-.13-.02,0-.05,0-.07-.01-.18-.03-.36-.06-.53-.1h-.05c0,.14-.01,.28-.01,.42v.03c0,.14,0,.27,0,.4h0c0,1.14,0,2.32,2.57,2.6,.96,.11,1.73-.18,2.3-.85"/>
        <path class="e" d="M12.35,39.46c-.01-.1-.03-.2-.05-.3-.01-.05-.02-.1-.03-.15-.03-.11-.06-.22-.09-.33-.03-.1-.07-.2-.11-.3-.02-.06-.05-.11-.08-.17-.04-.08-.08-.16-.12-.23-.03-.05-.06-.1-.09-.14-.06-.1-.13-.2-.21-.29-.01-.01-.02-.03-.03-.05-.57-.67-1.35-.96-2.3-.85-2.56,.28-2.56,1.46-2.56,2.6h0c0,.13,0,.26,0,.39v.04c0,.14,0,.28,.02,.42h0c1.61-.35,3.89-.41,5.7,.17h0c0-.24,0-.48-.04-.72,0-.03,0-.06,0-.09"/>
        <path class="e" d="M12.6,47.66s.02-.02,.03-.02c.08-.07,.16-.14,.23-.22,.02-.02,.04-.05,.06-.07,.06-.07,.12-.14,.17-.22,.02-.03,.04-.07,.06-.1,.05-.07,.09-.15,.13-.23,.02-.04,.04-.09,.06-.14,.03-.08,.07-.15,.1-.23,.02-.06,.04-.11,.06-.17,.02-.07,.05-.15,.06-.22,.02-.06,.03-.13,.04-.2,.01-.07,.03-.15,.04-.22,0-.07,.02-.14,.02-.22,0-.08,.01-.15,.01-.23,0-.03,0-.07,0-.1,0-.04,0-.08,0-.12,0-.06,0-.11,0-.17,0-.07-.01-.14-.02-.22,0-.06-.02-.13-.03-.19-.01-.06-.02-.11-.04-.17-.02-.07-.03-.14-.05-.21-.01-.04-.03-.08-.04-.13-.03-.07-.05-.14-.08-.21-.02-.04-.04-.07-.05-.11-.03-.07-.07-.13-.11-.2-.03-.04-.05-.08-.08-.12-.03-.05-.07-.1-.11-.15-.05-.07-.11-.13-.17-.19-.02-.01-.03-.03-.04-.05-.08-.08-.17-.15-.26-.21-.07-.04-.14-.08-.21-.12-.03-.02-.06-.03-.09-.05-.07-.03-.14-.07-.22-.1-.04-.02-.08-.04-.12-.05-.08-.03-.15-.06-.23-.08-.04-.01-.09-.03-.13-.04-.08-.02-.17-.05-.25-.07-.04,0-.09-.02-.13-.03-.09-.02-.18-.04-.28-.05-.04,0-.08-.01-.12-.02-.1-.02-.2-.03-.3-.04-.03,0-.05,0-.08,0-1.32-.14-2.75,.01-3.58,.23h0c0,.12,.02,.2,.02,.2l-.46,.04h0c0,.22,0,.49-.02,.79v.11c0,.35-.02,.74-.03,1.15-.02,.83-.03,1.74-.03,2.55,0,.07,0,.14,0,.21v.03c0,.07,0,.13,0,.2,0,.63,.02,1.02,.03,1.27,.98,.26,4.19,0,5.95-.92,.1-.05,.2-.12,.29-.19"/>
        <path class="e" d="M11.54,53.31c.09-.11,.18-.23,.25-.35,.03-.04,.05-.09,.07-.13,.05-.08,.09-.17,.13-.26,.03-.06,.06-.13,.08-.2,.03-.07,.05-.14,.08-.21,.03-.09,.06-.17,.08-.26,0-.04,.02-.08,.03-.11,.13-.53,.16-1.1,.1-1.67-.05,.02-.1,.03-.15,.05-.13,.05-.26,.09-.4,.13-.08,.03-.17,.05-.25,.07-.13,.04-.26,.07-.39,.11-.08,.02-.17,.04-.25,.06-.17,.04-.35,.08-.53,.11-.04,0-.09,.02-.13,.03-.22,.04-.44,.08-.66,.11-.07,.01-.14,.02-.2,.03-.17,.02-.34,.04-.5,.06-.07,0-.13,.01-.19,.02-.2,.02-.39,.03-.58,.04-.03,0-.06,0-.08,0-.46,.02-.9,.01-1.3-.02h-.04c0,.06,0,.12,0,.19,0,.03,0,.06,0,.09,0,.03,0,.06,0,.09,0,.08,0,.16,0,.25h0c0,1.14,0,2.32,2.57,2.6,.96,.11,1.73-.18,2.3-.85"/>
      </g>
      <g class="f">
        <path class="e" d="M26.01,41.23h-.07c-.1-.02-.2-.03-.3-.04-.05,0-.11-.01-.16-.02-.06,0-.13-.02-.2-.03-.15-.02-.29-.05-.44-.08-.02,0-.04,0-.07-.01-.1-.02-.2-.04-.3-.07h-.04c-.3-.09-.6-.19-.89-.31-.03-.01-.06-.02-.09-.04-.08-.03-.16-.07-.24-.11-.09-.04-.17-.09-.26-.14-.02-.01-.05-.02-.07-.04,.8-.38,3.12-1.3,4.32-1.78,.05,1.04,.15,1.94,.4,2.7-.42,.02-.97,.02-1.6-.03"/>
        <path class="e" d="M27.21,21.22c-1.2-.48-3.52-1.4-4.32-1.78,.04-.02,.07-.04,.11-.06,.08-.04,.15-.08,.23-.12,.06-.03,.12-.06,.18-.08,.07-.03,.14-.06,.2-.09,.06-.02,.12-.05,.18-.07,.11-.04,.22-.08,.34-.11,.07-.02,.14-.04,.21-.06,.06-.02,.12-.03,.18-.05,.07-.02,.15-.04,.22-.05,.05-.01,.11-.02,.16-.03,.15-.03,.29-.06,.44-.08,.03,0,.07-.01,.1-.02,.09-.01,.18-.02,.27-.03,.02,0,.05,0,.07,0,.71-.08,1.36-.08,1.83-.06-.25,.76-.34,1.65-.4,2.7"/>
        <path class="e" d="M41.6,49.63c-.29,.06-.58,.12-.88,.17-.04,0-.07,.01-.11,.02-.89,.14-1.87,.33-2.92,.52-.43,.08-.88,.17-1.33,.25h0v.02s.06,.04,.08,.06c.11,.1,.23,.2,.35,.3,.04,.03,.09,.07,.13,.1,.1,.08,.2,.16,.31,.23,.05,.04,.1,.07,.15,.1,.1,.07,.21,.14,.31,.2,.05,.03,.1,.06,.16,.09,.11,.06,.22,.13,.34,.19,.05,.03,.1,.05,.14,.08,.12,.06,.25,.12,.38,.18,.04,.02,.08,.04,.11,.05,.16,.07,.32,.14,.48,.19h.01c.35,.13,.7,.23,1.04,.31,.01,0,.03,0,.04,0,.15,.03,.3,.06,.45,.08,.03,0,.06,0,.09,.01,.13,.02,.27,.03,.4,.04,.04,0,.07,0,.11,0,.13,0,.25,0,.37,0,.04,0,.07,0,.11,0,.12,0,.24-.02,.36-.03,.03,0,.06,0,.09-.01,.13-.02,.26-.05,.38-.08,.01,0,.03,0,.04,0,.14-.04,.27-.09,.4-.14,.03-.01,.06-.03,.09-.05,.09-.08,.18-.15,.3-.2h.01c.42-.38,.69-.98,.85-1.64,0-.02,.01-.04,.02-.06,.02-.07,.03-.15,.05-.22,0-.03,.01-.06,.02-.1,.02-.12,.04-.23,.05-.35,0-.05,.01-.1,.02-.16,0-.06,.01-.12,.02-.17,0-.09,.01-.18,.02-.26,0-.05,0-.11,0-.16,0-.07,0-.14,0-.22,0-.04,0-.09,0-.13,0-.09,0-.18,0-.27-.89,.44-1.86,.79-2.89,1.03-.05,.01-.1,.02-.15,.03"/>
        <path class="e" d="M41.18,6.58s-.1,0-.15,.01c-.11,.01-.23,.03-.34,.05-.05,0-.1,.02-.15,.03-.12,.02-.24,.05-.36,.08-.05,.01-.09,.02-.14,.03-.12,.03-.25,.07-.37,.11-.04,.01-.08,.03-.12,.04-.13,.04-.26,.09-.39,.14-.03,.01-.07,.03-.1,.04-.14,.05-.27,.11-.4,.17-.02,.01-.05,.02-.07,.03-.14,.07-.28,.14-.42,.21h-.02c-.78,.44-1.51,.98-2.11,1.61h0c.57,.1,1.12,.21,1.66,.31,1.04,.2,2.03,.38,2.91,.52,1.46,.23,2.8,.65,3.99,1.25v-.05c.01-.08,.02-.15,.02-.24,0-.04,0-.09,0-.14,0-.06,0-.12,0-.18,0-.05,0-.1,0-.16,0-.06,0-.12,0-.19,0-.11,0-.22-.01-.33,0-.03,0-.07,0-.11,0-.08-.01-.16-.02-.25v-.05c-.11-.97-.4-1.94-1.01-2.45h0c-.11-.05-.2-.12-.29-.2h0s-.06-.04-.09-.06c-.21-.09-.44-.16-.69-.21-.04,0-.07-.02-.11-.02-.1-.02-.2-.03-.31-.04-.05,0-.09-.01-.14-.01-.1,0-.21,0-.32,0-.05,0-.1,0-.15,0-.11,0-.22,.01-.33,.02"/>
        <path class="e" d="M37.31,48.27c1.06-.2,2.06-.39,2.98-.54,.34-.05,.67-.12,.99-.2,.07-.02,.13-.03,.2-.05,.26-.07,.51-.14,.76-.22,.07-.02,.14-.04,.2-.07,.3-.1,.59-.22,.88-.34l.03-.02c.26-.12,.51-.25,.76-.38,.08-.04,.16-.09,.24-.14,.18-.11,.36-.22,.53-.34,.08-.05,.15-.1,.23-.16,.22-.16,.43-.33,.64-.5-.02-.01-.04-.03-.06-.05,0,0-.02-.01-.03-.02-1.39-1.25-1.71-2.5-1.74-3.33h0c-.02-.58,.1-1.16,.33-1.66,.14-.3,.32-.57,.54-.8,.17-.18,.31-.4,.35-.63,.05-.23,0-.48-.21-.7-.74-.78-1.08-1.63-1-2.48,.05-.51,.24-1.02,.59-1.51,.21-.3,.33-.58,.34-.79,0-.07,0-.13-.03-.19-.05-.13-.17-.19-.21-.2-.27-.04-.6,.14-.85,.48-.5,.67-1.52,1.18-3.5-.21-.13-.09-.27-.17-.41-.25-.01,0-.02-.02-.04-.02-.12-.07-.23-.12-.35-.18-.04-.02-.07-.04-.11-.05-.12-.05-.24-.1-.36-.14-.03,0-.06-.02-.08-.03-.13-.04-.25-.07-.38-.1-.01,0-.03,0-.05-.01-.13-.03-.26-.04-.38-.05h-.01c-.39-.03-.73,.04-.99,.19h0c-.13,.55-.41,1.07-.82,1.52-.01,.01-.03,.03-.04,.04-.06,.06-.12,.13-.19,.19-.03,.03-.06,.06-.09,.08-.05,.05-.11,.09-.16,.13-.04,.03-.08,.07-.13,.1-.05,.03-.09,.06-.14,.09-.05,.03-.1,.07-.15,.1-.95,.57-1.73,.53-2.22,.38-.57-.16-1.05-.55-1.29-1.02-.29-.58-.31-1.17-.07-1.78,.08-.2,.19-.4,.33-.61h0c0-.05-.1-.27-.16-.41-.03-.07-.06-.14-.09-.22-.02-.05-.04-.11-.06-.16v-.04c-.06-.13-.1-.27-.14-.43v-.02h-2.34s-.01,.03-.02,.05c-.01,.03-.03,.07-.04,.1-.33,.9-.82,2.51-.85,4.31,0,.02,0,.05,0,.07,0,.17,0,.35,0,.53,.02,.51,.04,.99,.05,1.45,.07,2.28,.12,3.92,.93,4.77,.3,.31,.64,.58,.98,.84,.7,.54,1.47,1.13,1.74,2.12,.08,.28,.11,.59,.09,.94,0,.06,0,.12-.01,.18-.01,.12-.03,.24-.06,.36-.19,.81-.72,1.47-1.47,1.82-1.04,.47-2.29,.28-3.44-.53-.11-.07-.2-.16-.3-.24-.01-.01-.02-.02-.03-.03-.08-.08-.15-.16-.22-.24-.02-.02-.04-.05-.06-.07-.06-.08-.12-.15-.17-.24-.02-.03-.04-.06-.06-.09-.05-.08-.1-.16-.15-.25-.02-.03-.03-.06-.05-.09-.05-.09-.09-.18-.13-.27-.01-.03-.03-.06-.04-.09-.04-.1-.09-.21-.12-.32l-.02-.06c-.14-.39-.24-.8-.31-1.2,0-.01,0-.03,0-.04-.02-.12-.04-.23-.06-.35,0-.02,0-.05-.01-.07-.02-.1-.03-.2-.04-.3,0-.03,0-.06-.01-.08-.01-.1-.02-.19-.03-.28v-.08c-.02-.09-.02-.18-.03-.27v-.07c0-.09-.01-.18-.02-.27v-.06h0c-.43-.06-.88-.14-1.34-.26-.03,0-.06-.01-.08-.02-.13-.04-.26-.08-.39-.12-.04-.01-.07-.03-.11-.04-.11-.04-.22-.08-.33-.12-.04-.02-.09-.04-.13-.05-.1-.04-.2-.09-.3-.14-.04-.02-.09-.04-.13-.07-.11-.06-.22-.12-.33-.18-.04-.03-.09-.05-.13-.08-.1-.06-.2-.13-.3-.19l-.04-.02c-.23-.15-.48-.46-.48-.85v-.04h0c.02-.44,.32-.8,.89-1.08,.49-.25,1.83-.8,3.05-1.28h0s0-.04-.01-.06c-.02-.09-.04-.19-.06-.28,0-.03-.01-.06-.02-.09-.02-.1-.04-.2-.06-.3,0-.03,0-.05-.01-.08-.02-.11-.04-.22-.06-.33v-.04c-.09-.48-.15-.97-.2-1.46,0-.05-.01-.11-.02-.17,0-.07-.01-.14-.02-.21,0-.08-.01-.15-.02-.22,0-.06,0-.12-.01-.18,0-.08-.01-.16-.02-.25,0-.05,0-.11,0-.16,0-.09,0-.18-.01-.26,0-.04,0-.09,0-.13,0-.09,0-.18,0-.27,0-.04,0-.07,0-.11,0-.09,0-.18,0-.27v-.09c0-.09,0-.18,0-.26,0-.03,0-.05,0-.08,0-.09,0-.17,0-.25v-.06c0-.08,0-.16,.01-.24v-4.34h0c0-.08,0-.17-.01-.25,0-.17-.01-.34-.01-.54,0-.39,.01-.84,.04-1.31v-.07c.02-.19,.03-.39,.05-.59,0-.09,.02-.17,.02-.26,.01-.14,.03-.27,.04-.41,.01-.13,.03-.25,.04-.38,.01-.1,.03-.19,.04-.29,.02-.15,.04-.3,.07-.45,0-.07,.02-.13,.03-.2,.03-.17,.06-.34,.09-.5l.02-.11c.04-.18,.07-.36,.12-.53h0c-1.21-.49-2.56-1.04-3.05-1.29-.57-.28-.87-.65-.89-1.08v-.04h0c0-.06,0-.1,.01-.15v-.02s.02-.08,.03-.12h0c.01-.05,.03-.09,.05-.13h0c.09-.2,.24-.35,.38-.44,.13-.09,.26-.17,.39-.25,.03-.02,.06-.03,.08-.05,.1-.06,.2-.11,.31-.17,.07-.04,.15-.07,.22-.11,.02-.01,.05-.02,.07-.03,.16-.07,.32-.14,.49-.2h0c.27-.1,.55-.18,.83-.25h0c.16-.04,.31-.07,.47-.11,.05-.01,.11-.02,.16-.03,.06-.01,.12-.02,.18-.03,.12-.02,.24-.04,.35-.05,.01,0,.03,0,.04,0v-.07c0-.08,.01-.16,.02-.25,0-.03,0-.07,0-.1,0-.07,0-.15,.02-.22,0-.04,0-.08,.01-.13,0-.07,.01-.14,.02-.22l.02-.15c0-.07,.02-.15,.03-.22,0-.05,.01-.1,.02-.15,.01-.08,.02-.15,.04-.23,0-.05,.02-.1,.03-.15,.02-.09,.03-.17,.05-.26,0-.04,.02-.09,.03-.13,.03-.13,.06-.25,.1-.38,.01-.05,.03-.09,.04-.14,.02-.08,.05-.16,.08-.24,.02-.06,.04-.11,.06-.17,.03-.07,.05-.14,.08-.2,.02-.06,.05-.11,.07-.17,.03-.06,.06-.12,.09-.19,.03-.06,.06-.11,.09-.17,.03-.06,.06-.11,.1-.17,.03-.05,.07-.11,.1-.16,.04-.05,.07-.1,.11-.15,.04-.05,.08-.1,.12-.15,.04-.05,.08-.09,.13-.14,.04-.05,.08-.09,.13-.13,.05-.05,.1-.08,.16-.13,.04-.03,.08-.07,.12-.1,1.15-.81,2.4-1,3.44-.53,.86,.39,1.43,1.2,1.53,2.17,.04,.43,0,.8-.08,1.13-.27,.98-1.04,1.58-1.74,2.12-.34,.26-.68,.53-.98,.84-.3,.32-.5,.75-.63,1.28-.22,.89-.26,2.07-.3,3.49-.01,.46-.03,.94-.05,1.45,0,.18-.01,.36,0,.53v.07c.03,1.92,.57,3.61,.9,4.47h2.34c.08-.34,.2-.63,.3-.86,.06-.14,.15-.36,.16-.42h0c-.35-.5-.51-1-.49-1.49,.01-.3,.09-.59,.24-.88,.24-.47,.72-.86,1.29-1.02,.49-.14,1.27-.19,2.22,.38,.11,.07,.22,.14,.33,.22h0c.1,.08,.2,.16,.29,.24h0c.56,.51,.94,1.14,1.1,1.8h0c.08,.05,.17,.09,.27,.12h.04c.09,.04,.19,.06,.29,.07,.02,0,.05,0,.07,0,.09,0,.19,0,.29,0,.04,0,.08,0,.12,0,.09,0,.18-.02,.27-.04,.06-.01,.13-.03,.2-.04,.08-.02,.15-.04,.23-.06,.09-.03,.19-.07,.29-.1,.05-.02,.1-.04,.16-.06,.14-.06,.28-.13,.42-.21,.01,0,.02-.01,.04-.02,.16-.09,.32-.19,.47-.3,1.98-1.39,3-.88,3.5-.21,.25,.33,.58,.52,.85,.48,.04,0,.16-.07,.21-.2,0,0,0-.02,0-.02,.07-.22-.04-.56-.31-.96-.46-.66-.66-1.34-.59-2.02,.07-.68,.4-1.34,1-1.97,.15-.16,.22-.34,.23-.51,.01-.3-.15-.6-.37-.82-.58-.6-.9-1.52-.87-2.45h0c.03-.83,.36-2.08,1.74-3.33,.03-.02,.06-.05,.09-.06h0s-.1-.08-.15-.12c-.15-.12-.3-.24-.45-.36-.11-.08-.23-.16-.34-.23-.13-.09-.25-.17-.38-.25-.12-.07-.24-.14-.36-.21-.16-.09-.33-.17-.49-.25-.14-.07-.29-.14-.44-.2-.21-.09-.41-.17-.63-.25-.12-.04-.24-.08-.37-.12-.18-.06-.36-.11-.54-.16-.12-.03-.25-.07-.38-.1-.24-.06-.49-.1-.73-.15-.06-.01-.12-.03-.19-.04-.92-.14-1.92-.33-2.98-.53-5.43-1.03-12.86-2.43-17.39,.8-1.93,1.38-3.12,3.19-3.76,4.93,0,.02-.02,.04-.02,.06-.06,.15-.1,.3-.15,.44-.02,.07-.05,.14-.07,.21-.02,.08-.05,.16-.07,.25-.17,.63-.26,1.23-.3,1.78,0,.03,0,.06,0,.08,0,.11,0,.22-.01,.33,0,.03,0,.06,0,.1,0,.04,0,.07,0,.11,0,.08,0,.15,0,.23,0,.14,.02,.27,.03,.4v.04c.17,1.34,.48,2.43,.78,3.48,.09,.3,.17,.6,.26,.91v.03c.04,.12,.07,.24,.1,.36,.01,.05,.03,.11,.04,.16,.03,.11,.05,.22,.08,.33,.01,.07,.03,.14,.05,.21,.02,.11,.04,.21,.07,.32,.01,.08,.03,.16,.04,.24,.02,.11,.04,.21,.05,.32,.01,.09,.02,.18,.03,.26,.01,.11,.03,.21,.04,.32,.01,.11,.02,.22,.03,.32,0,.09,.02,.19,.02,.28h4.07c.58,0,1.06,.47,1.06,1.06h0c0,.58-.47,1.06-1.06,1.06h-4.07c0,.08-.01,.15-.02,.22,0,.13-.02,.27-.03,.39-.01,.09-.02,.18-.03,.27-.01,.11-.03,.22-.04,.32-.01,.09-.03,.18-.04,.27-.02,.1-.03,.2-.05,.3-.02,.09-.03,.17-.05,.25-.02,.1-.04,.2-.07,.3-.02,.08-.04,.16-.05,.23-.03,.11-.05,.21-.08,.32-.02,.07-.03,.14-.05,.2-.03,.13-.07,.25-.1,.38-.01,.04-.02,.08-.03,.12-.05,.17-.09,.33-.14,.5-.19,.66-.38,1.33-.54,2.07,0,.05-.02,.1-.03,.15-.02,.1-.04,.2-.06,.3-.02,.1-.03,.2-.05,.3,0,.06-.02,.11-.03,.17-.01,.09-.03,.19-.04,.29,0,.07-.02,.13-.03,.21h0c-.02,.15-.03,.3-.03,.45,0,.07,0,.14,0,.21,0,.04,0,.08,0,.12,0,.03,0,.07,0,.1,0,.11,0,.21,.01,.32,0,.03,0,.05,0,.08,.04,.57,.14,1.19,.32,1.84,.02,.05,.03,.11,.05,.16,.03,.09,.06,.19,.09,.29,.04,.12,.08,.24,.12,.36,.02,.05,.04,.1,.05,.14,.56,1.49,1.53,3.04,3.02,4.31,.23,.2,.47,.39,.72,.57,4.53,3.23,11.96,1.82,17.39,.8m-4.58-7.78c0-2.83,2.3-5.13,5.13-5.13s5.13,2.3,5.13,5.13-2.3,5.13-5.13,5.13-5.13-2.3-5.13-5.13m10.26-21.19c0,2.83-2.3,5.13-5.13,5.13s-5.13-2.3-5.13-5.13,2.3-5.13,5.13-5.13,5.13,2.3,5.13,5.13"/>
        <path class="e" d="M46.54,15.53c-.83,.75-1.28,1.58-1.31,2.4-.02,.69,.24,1.22,.5,1.49,.93,.97,.99,2.27,.14,3.16-.99,1.04-.64,1.83-.29,2.32,.72,1.03,.63,1.8,.43,2.27-.27,.63-.83,.92-1.23,.97-.49,.07-.98-.06-1.42-.35-.25-.16-.48-.38-.68-.65-.04-.05-.09-.09-.15-.11-.38-.14-1.1,.3-1.54,.61-1.15,.81-2.66,1.31-3.91,.99-.04,.15-.08,.29-.14,.44-.14,.34-.52,.5-.86,.36-.05-.02-.1-.05-.14-.08-.24-.18-.34-.49-.22-.78,.36-.88-.07-1.91-1.05-2.5-.02-.01-.04-.02-.06-.03-.4-.23-.79-.31-1.11-.21-.28,.08-.43,.26-.48,.34-.17,.33-.12,.64,.16,1.05,.43,.63,.16,1.24-.04,1.69-.14,.32-.27,.62-.26,.99-.01,.37,.12,.67,.26,.99,.2,.45,.47,1.06,.04,1.69-.28,.41-.33,.72-.16,1.05,.02,.05,.1,.14,.21,.22,.07,.05,.16,.1,.26,.13,.34,.1,.74,.01,1.17-.25,.97-.59,1.4-1.62,1.05-2.5-.14-.34,.03-.72,.36-.86,.18-.07,.37-.06,.53,.02,.14,.07,.26,.19,.33,.35,.05,.12,.09,.24,.12,.36,0,.03,.01,.05,.02,.08,1.08-.28,2.35,.06,3.42,.68,.17,.1,.33,.2,.49,.31,.11,.07,.23,.15,.36,.23,.49,.3,1.1,.57,1.33,.26,.55-.73,1.33-1.1,2.09-.99,.14,.02,.31,.07,.48,.16,.29,.15,.58,.41,.75,.81,.2,.46,.29,1.24-.43,2.27-.35,.5-.7,1.28,.29,2.32,.84,.89,.78,2.19-.14,3.16-.26,.27-.52,.8-.5,1.49,.03,.82,.48,1.65,1.31,2.4,.01,.01,.02,.03,.04,.04,.03,.03,.06,.06,.08,.1,1.87-2.11,2.88-5.09,2.88-8.79v-11.44c0-3.69-1.01-6.68-2.88-8.79,0,.01-.01,.03-.02,.04-.03,.04-.06,.07-.09,.1"/>
        <path class="e" d="M34.39,19.3c0,1.91,1.55,3.46,3.46,3.46s3.46-1.55,3.46-3.46-1.55-3.46-3.46-3.46-3.46,1.55-3.46,3.46"/>
        <path class="e" d="M41.31,40.49c0-1.91-1.55-3.46-3.46-3.46s-3.46,1.55-3.46,3.46,1.55,3.46,3.46,3.46,3.46-1.55,3.46-3.46"/>
      </g>
      <path class="e" d="M14.76,80.37s2.48,12.61-8.44,18.49c-10.92,5.88-4.37-33.09-4.37-33.09,0,0,11.73,5.59,12.81,14.6Z"/>
      <g>
        <path class="e" d="M12.93,97.63c-.01-.1-.03-.2-.05-.3-.01-.05-.02-.1-.03-.15-.03-.11-.06-.22-.09-.33-.03-.1-.07-.2-.11-.3-.02-.06-.05-.11-.08-.17-.04-.08-.08-.16-.12-.23-.03-.05-.06-.1-.09-.14-.06-.1-.13-.2-.21-.28-.01-.01-.02-.03-.03-.05-.57-.67-1.35-.96-2.3-.85-2.56,.28-2.56,1.46-2.56,2.6h0c0,.13,0,.26,0,.39v.04c0,.14,0,.28,.02,.42h0c1.61-.35,3.89-.41,5.7,.17h0c0-.24,0-.48-.04-.72,0-.03,0-.06,0-.09"/>
        <path class="e" d="M13.18,105.83s.02-.02,.03-.02c.08-.07,.16-.14,.23-.22,.02-.02,.04-.05,.06-.07,.06-.07,.12-.14,.17-.22,.02-.03,.04-.07,.06-.1,.05-.07,.09-.15,.13-.23,.02-.04,.04-.09,.06-.14,.03-.07,.07-.15,.1-.23,.02-.06,.04-.11,.06-.17,.02-.07,.04-.15,.06-.22,.02-.06,.03-.13,.04-.2,.01-.07,.03-.15,.04-.22,0-.07,.02-.14,.02-.22,0-.08,.01-.15,.01-.23,0-.03,0-.07,0-.1,0-.04,0-.08,0-.13,0-.06,0-.11,0-.17,0-.07-.01-.14-.02-.22,0-.06-.02-.12-.03-.19-.01-.06-.02-.11-.04-.17-.02-.07-.03-.14-.05-.21-.01-.04-.03-.08-.04-.13-.03-.07-.05-.14-.08-.21-.02-.04-.03-.07-.05-.11-.03-.07-.07-.13-.11-.2-.03-.04-.05-.08-.08-.12-.03-.05-.07-.1-.11-.15-.05-.07-.11-.13-.17-.19-.02-.01-.03-.03-.04-.05-.08-.08-.17-.15-.26-.21-.07-.04-.14-.08-.21-.12-.03-.02-.06-.03-.09-.05-.07-.03-.14-.07-.22-.1-.04-.02-.08-.04-.12-.05-.08-.03-.15-.06-.23-.08-.04-.01-.09-.03-.13-.04-.08-.02-.17-.05-.25-.07-.04-.01-.09-.02-.13-.03-.09-.02-.18-.04-.28-.05-.04,0-.08-.01-.12-.02-.1-.02-.2-.03-.3-.04-.03,0-.05,0-.08,0-1.32-.14-2.75,.01-3.58,.23h0c0,.12,.02,.2,.02,.2l-.45,.04h0c0,.22,0,.49-.02,.79v.11c0,.35-.02,.74-.03,1.15-.02,.83-.03,1.74-.03,2.55,0,.07,0,.14,0,.21v.03c0,.07,0,.13,0,.2,0,.63,.02,1.02,.03,1.27,.98,.26,4.19,0,5.95-.92,.1-.05,.2-.12,.29-.19"/>
        <path class="e" d="M12.13,111.48c.09-.11,.18-.23,.25-.35,.03-.04,.05-.08,.07-.13,.05-.08,.09-.17,.13-.26,.03-.06,.06-.13,.08-.2,.03-.07,.05-.14,.08-.21,.03-.09,.06-.17,.08-.26,0-.04,.02-.08,.03-.11,.13-.53,.16-1.1,.1-1.67-.05,.02-.1,.03-.15,.05-.13,.05-.26,.09-.4,.13-.08,.02-.17,.05-.25,.07-.13,.04-.26,.07-.39,.11-.08,.02-.17,.04-.25,.06-.17,.04-.35,.08-.53,.11-.04,0-.09,.02-.13,.03-.22,.04-.44,.08-.66,.11-.07,.01-.14,.02-.2,.03-.17,.02-.34,.04-.5,.06-.07,0-.13,.01-.19,.02-.2,.02-.39,.03-.58,.04-.03,0-.06,0-.08,0-.46,.02-.9,.02-1.3-.02h-.04c0,.06,0,.12,0,.19,0,.03,0,.06,0,.09,0,.03,0,.06,0,.09,0,.08,0,.16,0,.25h0c0,1.14,0,2.32,2.56,2.6,.96,.11,1.73-.18,2.3-.85"/>
        <path class="e" d="M33.16,58.48c-.52-1.46-2.56-5.85-8.5-6.12-.62-.03-1.28-.01-1.98,.06-.02,0-3.94,.49-6.28,3.52-1.54,2-2.09,4.7-1.62,8.01,.37,2.6,1.26,5,2.12,7.32,.44,1.18,.87,2.35,1.22,3.51,.03,.09,.06,.19,.08,.28l.04,.14c.94,3.31,1.16,6.59-1.1,10.12h0c0,.09-.02,.17-.03,.26-.02,.2-.04,.41-.07,.62-.02,.14-.04,.28-.06,.42-.03,.19-.06,.38-.09,.57-.02,.13-.04,.27-.07,.4-.06,.3-.12,.61-.19,.92-.03,.13-.06,.26-.09,.39-.05,.22-.11,.44-.17,.67-.04,.14-.07,.28-.11,.42-.08,.29-.17,.58-.26,.87-.03,.11-.07,.22-.1,.33-.1,.32-.21,.64-.32,.96-.05,.13-.09,.27-.14,.4-.1,.28-.2,.56-.31,.84-.04,.12-.09,.24-.13,.35-.15,.38-.3,.77-.47,1.17-.01,.03-.03,.06-.04,.09h0s.06-.01,.09-.02c.17-.04,.35-.08,.52-.12,.03,0,.05-.01,.08-.02,.95-.24,1.81-.55,2.59-.93,.05-.03,.1-.05,.16-.08,.1-.05,.2-.11,.31-.16,.07-.04,.14-.08,.21-.12,.09-.05,.17-.1,.26-.16,.08-.05,.16-.1,.23-.15,.08-.05,.15-.1,.22-.15,.08-.06,.16-.12,.25-.18,.07-.05,.13-.1,.19-.15,.09-.07,.17-.14,.25-.21,.06-.05,.11-.09,.17-.14,.09-.08,.18-.16,.26-.24,.05-.04,.09-.09,.14-.13,.09-.09,.19-.19,.28-.29,.03-.04,.07-.07,.1-.11,.1-.12,.2-.23,.3-.36,.02-.02,.03-.04,.05-.06,.23-.3,.45-.61,.66-.93,4.06-6.58,.36-18.22-1.42-23.81-.42-1.31-.75-2.35-.9-3.04-.74-3.43,1.01-5.47,3.07-5.97,1.15-.28,2.43-.11,3.53,.5,1.1,.61,2.02,1.67,2.42,3.17,.34,1.27,1.02,2.17,1.91,2.59,.06,.03,.11,.06,.17,.08,.81,.31,1.73,.19,2.51-.33,.52-.35,1.02-2.37,.08-5.01"/>
      </g>
    </g>
  </g>
</svg>