<svg xmlns="http://www.w3.org/2000/svg" width="147.65" height="147.65" viewBox="0 0 147.65 147.65">
  <g id="圖層_2" data-name="圖層 2">
    <g id="圖層_1-2" data-name="圖層 1">
      <circle cx="73.82" cy="73.82" r="73.82" style="fill: #e8382f"/>
    </g>
    <g id="說明">
      <path d="M48.15,43.22V58c0,14.43-1.81,36.34-13.06,50.12A50.31,50.31,0,0,0,23.53,103c10.72-12.8,11.56-31.75,11.56-45V33.79h84.68v9.43Zm54.54,53.32c7,0,8.27-1.89,9.33-11a46.26,46.26,0,0,0,12.1,3.77c-2,12.55-6.05,16.49-20.48,16.49H77.43c-16.34,0-21.33-3-21.33-14.6V50h55.18V74.23c0,4.92-1.59,7.54-6.79,8.94S92.08,84.65,82,84.65a32,32,0,0,0-4.88-9.27c7.33.32,16.34.32,18.47.24,2.33-.08,3.07-.41,3.07-1.64V59.3H69.05V91.13c0,4.67,1.27,5.41,9.23,5.41Z" style="fill: #fff"/>
    </g>
  </g>
</svg>
