<svg xmlns="http://www.w3.org/2000/svg" width="293.07" height="228.89" viewBox="0 0 293.07 228.89">
  <g id="圖層_2" data-name="圖層 2">
    <g id="圖層_2-2" data-name="圖層 2">
      <line x1="17.31" y1="192.34" x2="66.2" y2="104.35" style="fill: none;stroke: #fff;stroke-miterlimit: 10"/>
      <line x1="28.68" y1="228.5" x2="124.47" y2="151.74" style="fill: none;stroke: #fff;stroke-miterlimit: 10"/>
    </g>
    <g id="說明">
      <g>
        <polygon points="125.09 94.02 124.97 94.09 124.91 93.86 123 92.08 122.8 94.17 122.09 91.23 121.02 90.24 121.87 90.34 121.25 87.79 120.69 93.63 126.61 95.43 125.09 94.02" style="fill: #f2f2f2"/>
        <polygon points="178.25 39.14 178.71 34.95 176.14 33.81 178.25 39.14" style="fill: #f2f2f2"/>
        <polygon points="175.44 35.78 175.68 33.6 172.75 32.31 175.44 35.78" style="fill: #f2f2f2"/>
        <polygon points="147.35 75.43 147.79 73.11 148.64 77.5 148.98 78.05 148.77 78.18 149.03 79.55 150.15 73.74 145.25 72.06 147.35 75.43" style="fill: #f2f2f2"/>
        <polygon points="151.51 79.55 152.48 74.54 150.41 73.83 151.51 79.55" style="fill: #f2f2f2"/>
        <polygon points="123.42 87.7 123.15 90.49 124.12 90.6 123.42 87.7" style="fill: #f2f2f2"/>
        <polygon points="180.68 35.82 180.15 35.58 181.46 38.9 182.19 32.37 184.67 38.65 185.33 32.7 177.71 29.32 180.68 35.82" style="fill: #f2f2f2"/>
        <polygon points="126.52 52.12 126.93 54.01 127.97 54.15 126.52 52.12" style="fill: #f2f2f2"/>
        <polygon points="126.21 50.67 126.06 51.48 126.52 52.12 126.21 50.67" style="fill: #f2f2f2"/>
        <polygon points="148.72 50.41 148.2 53.45 149.43 53.7 148.72 50.41" style="fill: #f2f2f2"/>
        <polygon points="119.08 87.87 118.58 92.99 120.45 93.56 119.08 87.87" style="fill: #f2f2f2"/>
        <polygon points="107.78 113.75 99.51 111.23 103.1 114.56 102.62 112.69 111.32 115.83 110.05 110.97 102.18 108.57 107.78 113.75" style="fill: #f2f2f2"/>
        <polygon points="152.48 74.54 153.07 74.75 152.75 73.11 152.48 74.54" style="fill: #f2f2f2"/>
        <polygon points="185.63 32.84 185.38 32.29 185.33 32.7 185.63 32.84" style="fill: #f2f2f2"/>
        <polygon points="176.9 37.68 175.44 35.78 175.04 39.38 176.9 37.68" style="fill: #f2f2f2"/>
        <polygon points="150.15 73.74 150.41 73.83 150.27 73.11 150.15 73.74" style="fill: #f2f2f2"/>
        <polygon points="147.79 73.11 147.35 75.43 148.64 77.5 147.79 73.11" style="fill: #f2f2f2"/>
        <polygon points="147.35 75.43 146.55 79.55 148.77 78.18 148.64 77.5 147.35 75.43" style="fill: #f2f2f2"/>
        <polygon points="175.68 33.6 176.14 33.81 175.77 32.86 175.68 33.6" style="fill: #f2f2f2"/>
        <polygon points="221.61 0 220.85 6.68 216.66 0.74 215.9 7.43 211.71 1.49 210.95 8.17 206.76 2.23 206 8.92 201.81 2.98 201.05 9.66 196.86 3.73 196.11 10.41 191.92 4.47 191.16 11.15 186.97 5.21 186.22 11.9 182.03 5.96 181.27 12.64 177.08 6.7 176.32 13.38 170.63 7.9 171.86 16.49 163.13 14.16 167.47 20.26 158.73 17.93 163.08 24.02 154.34 21.69 158.69 27.79 149.95 25.46 154.3 31.56 145.56 29.23 149.91 35.33 141.17 32.99 145.52 39.09 136.79 36.76 141.13 42.86 132.4 40.52 136.75 46.62 128.01 44.29 132.36 50.39 123.62 48.05 126.43 52 126.93 54.01 127.59 57.09 128.71 50.64 130.1 57.06 131.22 50.61 132.6 57.03 133.72 50.58 135.1 57 136.22 50.55 137.6 56.98 138.72 50.52 140.11 56.95 141.23 50.49 142.55 56.66 142.65 56.69 143.73 50.47 145.11 56.89 146.23 50.44 146.82 53.17 148.72 50.41 155.27 54.87 150.11 56.83 149.43 53.7 149.98 59.19 142.65 56.69 142.61 56.92 142.55 56.66 141.61 56.34 145.58 62.51 137.21 59.66 141.19 65.84 132.82 62.99 136.8 69.16 128.43 66.31 132.41 72.49 124.04 69.64 128.02 75.81 119.65 72.96 123.63 79.13 115.26 76.28 119.24 82.45 110.88 79.6 114.86 85.77 106.49 82.92 108.98 92 110.38 88.22 111.92 94.6 112.55 88.13 114.1 94.52 114.73 88.05 116.28 94.43 116.91 87.96 118.45 94.35 118.57 93.13 118.33 92.91 118.58 92.99 119.08 87.87 120.45 93.56 120.69 93.63 121.25 87.79 121.87 90.34 123.15 90.49 123.42 87.7 124.12 90.6 130.11 91.3 125.09 94.02 126.61 95.43 120.69 93.63 120.62 94.26 120.45 93.56 118.58 92.99 118.57 93.13 123.93 98.1 115.65 95.58 121.25 100.77 112.98 98.24 118.57 103.43 110.3 100.91 115.89 106.09 107.62 103.57 113.22 108.76 104.95 106.24 110.05 110.97 109.56 109.1 118.27 112.24 116.42 105.17 125.12 108.31 123.27 101.25 131.97 104.39 130.12 97.33 138.82 100.47 136.97 93.4 145.68 96.54 143.83 89.48 152.53 92.62 150.68 85.55 159.39 88.69 157.53 81.63 166.24 84.77 164.39 77.71 163.93 79.55 162.69 73.11 161.44 79.55 160.2 73.11 158.96 79.55 157.72 73.11 156.48 79.55 155.23 73.11 153.99 79.55 153.07 74.75 152.48 74.54 151.51 79.55 150.41 73.83 150.15 73.74 149.03 79.55 148.77 78.18 146.55 79.55 147.35 75.43 145.25 72.06 150.15 73.74 150.27 73.11 150.41 73.83 152.48 74.54 152.75 73.11 153.07 74.75 153.82 75 150.88 68.33 159.45 71.28 156.51 64.61 165.07 67.55 162.13 60.88 170.7 63.83 167.75 57.16 176.32 60.1 173.38 53.43 181.94 56.38 179 49.71 187.56 52.66 184.61 45.99 193.18 48.94 190.24 42.27 198.8 45.21 195.85 38.54 204.42 41.49 201.48 34.82 203.27 35.44 201.48 30.91 200.75 37.44 198.26 31.15 197.53 37.68 195.05 31.4 194.31 37.92 191.83 31.64 191.1 38.17 188.61 31.88 187.88 38.41 185.4 32.13 185.38 32.29 185.63 32.84 185.33 32.7 184.67 38.65 182.19 32.37 181.46 38.9 180.15 35.58 178.71 34.95 178.25 39.14 176.14 33.81 175.68 33.6 175.44 35.78 176.9 37.68 175.04 39.38 175.44 35.78 172.75 32.31 175.68 33.6 175.77 32.86 176.14 33.81 178.71 34.95 178.97 32.61 180.15 35.58 180.68 35.82 177.71 29.32 185.33 32.7 185.38 32.29 182.66 26.34 190.58 29.86 187.61 23.36 195.53 26.88 192.56 20.38 200.47 23.9 197.5 17.4 205.42 20.92 202.45 14.42 210.37 17.94 207.4 11.45 215.31 14.96 212.34 8.47 220.26 11.98 217.29 5.49 225.21 9.01 221.61 0" style="fill: #f2f2f2"/>
        <polygon points="120.69 93.63 120.45 93.56 120.62 94.26 120.69 93.63" style="fill: #f2f2f2"/>
        <polygon points="178.71 34.95 180.15 35.58 178.97 32.61 178.71 34.95" style="fill: #f2f2f2"/>
        <polygon points="147.79 55.79 148.74 50.32 146.82 53.17 147.17 54.83 147.79 55.79" style="fill: #f2f2f2"/>
        <polygon points="147.61 56.86 147.79 55.79 147.17 54.83 147.61 56.86" style="fill: #f2f2f2"/>
        <polygon points="142.65 56.69 142.55 56.66 142.61 56.92 142.65 56.69" style="fill: #f2f2f2"/>
        <polygon points="155.27 54.87 149.43 53.7 150.11 56.83 155.27 54.87" style="fill: #f2f2f2"/>
        <polygon points="125.09 94.02 130.11 91.3 124.12 90.6 124.91 93.86 125.09 94.02" style="fill: #f2f2f2"/>
        <polygon points="122.8 94.17 123 92.08 122.09 91.23 122.8 94.17" style="fill: #f2f2f2"/>
        <polygon points="118.33 92.91 118.57 93.13 118.58 92.99 118.33 92.91" style="fill: #f2f2f2"/>
        <polygon points="123 92.08 123.15 90.49 121.87 90.34 122.09 91.23 123 92.08" style="fill: #f2f2f2"/>
      </g>
      <g>
        <polygon points="142.6 199.67 142.43 199.7 142.45 199.41 140.88 196.59 139.84 198.97 140.13 195.24 139.25 193.66 140.22 194.1 140.47 190.86 137.57 197.52 143.84 201.91 142.6 199.67" style="fill: #f2f2f2"/>
        <polygon points="226.23 155.46 228.39 150.7 225.8 148.38 226.23 155.46" style="fill: #f2f2f2"/>
        <polygon points="224.21 150.43 225.33 147.96 222.38 145.31 224.21 150.43" style="fill: #f2f2f2"/>
        <polygon points="175.93 186.32 177.34 183.77 176.66 189.26 176.85 190.03 176.55 190.1 176.33 191.82 179.88 185.41 174.76 181.56 175.93 186.32" style="fill: #f2f2f2"/>
        <polygon points="179.25 192.78 182.31 187.25 180.15 185.62 179.25 192.78" style="fill: #f2f2f2"/>
        <polygon points="143.06 191.59 141.68 194.77 142.78 195.28 143.06 191.59" style="fill: #f2f2f2"/>
        <polygon points="230.36 152.48 229.83 152 230.1 156.41 233.46 149 233.97 157.35 237.04 150.6 229.36 143.69 230.36 152.48" style="fill: #f2f2f2"/>
        <polygon points="160.36 150.9 160.11 153.27 161.28 153.84 160.36 150.9" style="fill: #f2f2f2"/>
        <polygon points="160.55 149.06 160.07 149.97 160.36 150.9 160.55 149.06" style="fill: #f2f2f2"/>
        <polygon points="187.15 157.4 185.37 160.78 186.72 161.54 187.15 157.4" style="fill: #f2f2f2"/>
        <polygon points="137.88 190.13 135.34 195.96 137.32 197.34 137.88 190.13" style="fill: #f2f2f2"/>
        <polygon points="114.65 216.26 105.89 210.11 108.84 215.41 108.98 213.03 118.03 220.06 118.39 213.85 110.05 208.01 114.65 216.26" style="fill: #f2f2f2"/>
        <polygon points="182.31 187.25 182.93 187.71 183.19 185.67 182.31 187.25" style="fill: #f2f2f2"/>
        <polygon points="237.34 150.87 237.25 150.14 237.04 150.6 237.34 150.87" style="fill: #f2f2f2"/>
        <polygon points="225.21 153.22 224.21 150.43 222.36 154.51 225.21 153.22" style="fill: #f2f2f2"/>
        <polygon points="179.88 185.41 180.15 185.62 180.26 184.72 179.88 185.41" style="fill: #f2f2f2"/>
        <polygon points="177.34 183.77 175.93 186.32 176.66 189.26 177.34 183.77" style="fill: #f2f2f2"/>
        <polygon points="175.93 186.32 173.42 190.87 176.55 190.1 176.66 189.26 175.93 186.32" style="fill: #f2f2f2"/>
        <polygon points="225.33 147.96 225.8 148.38 225.72 147.11 225.33 147.96" style="fill: #f2f2f2"/>
        <polygon points="292.29 126.02 288.83 133.6 286.17 125 282.72 132.57 280.06 123.98 276.6 131.55 273.95 122.95 270.49 130.53 267.84 121.93 264.38 129.51 261.73 120.91 258.28 128.49 255.63 119.89 252.17 127.47 249.52 118.87 246.06 126.45 243.41 117.85 239.95 125.43 237.3 116.83 233.85 124.4 229.25 115.77 227.4 126.34 218.01 120.25 220.78 129.1 211.4 123 214.17 131.85 204.78 125.75 207.56 134.6 198.17 128.5 200.94 137.35 191.56 131.25 194.33 140.1 184.94 134 187.72 142.85 178.34 136.75 181.12 145.6 171.73 139.5 174.5 148.35 165.12 142.25 167.89 151.1 158.51 145 160.3 150.72 160.11 153.27 159.71 157.16 163.51 149.99 162.67 158.08 166.46 150.92 165.63 159.01 169.42 151.84 168.59 159.94 172.38 152.77 171.54 160.86 175.34 153.7 174.5 161.79 178.29 154.62 177.49 162.39 177.59 162.47 181.25 155.55 180.41 163.64 184.2 156.47 183.85 159.92 187.15 157.4 193.15 165.16 186.32 165.49 186.72 161.54 185.26 168.21 177.59 162.47 177.46 162.72 177.49 162.39 176.5 161.65 178.81 170.44 170.05 163.88 172.37 172.67 163.61 166.1 165.92 174.9 157.16 168.33 159.48 177.13 150.72 170.56 153.03 179.36 144.28 172.79 146.59 181.58 137.84 175.01 140.16 183.81 131.41 177.24 133.72 186.03 124.97 179.47 124.41 191.12 127.51 187.19 126.88 195.31 130.1 187.93 129.47 196.04 132.7 188.66 132.07 196.77 135.29 189.39 134.66 197.5 135.26 196.12 135.07 195.77 135.34 195.96 137.88 190.13 137.32 197.34 137.57 197.52 140.47 190.86 140.22 194.1 141.68 194.77 143.06 191.59 142.78 195.28 149.55 198.39 142.6 199.67 143.84 201.91 137.57 197.52 137.25 198.24 137.32 197.34 135.34 195.96 135.26 196.12 139.66 204.02 130.89 197.88 135.49 206.14 126.72 199.99 131.32 208.25 122.55 202.1 127.14 210.35 118.37 204.21 122.97 212.47 114.2 206.32 118.39 213.85 118.53 211.46 127.58 218.5 128.11 209.47 137.15 216.51 137.69 207.48 146.72 214.52 147.26 205.49 156.29 212.53 156.83 203.5 165.87 210.54 166.4 201.51 175.44 208.55 175.97 199.52 185.02 206.56 185.55 197.53 194.59 204.57 195.12 195.54 193.87 197.54 194.88 189.48 190.94 196.59 191.95 188.53 188.02 195.63 189.03 187.58 185.1 194.68 186.1 186.62 182.17 193.73 182.93 187.71 182.31 187.25 179.25 192.78 180.15 185.62 179.88 185.41 176.33 191.82 176.55 190.1 173.42 190.87 175.93 186.32 174.76 181.56 179.88 185.41 180.26 184.72 180.15 185.62 182.31 187.25 183.19 185.67 182.93 187.71 183.72 188.31 182.82 179.33 191.77 186.08 190.87 177.1 199.82 183.85 198.92 174.87 207.87 181.63 206.97 172.64 215.92 179.4 215.01 170.42 223.96 177.17 223.05 168.19 232 174.95 231.09 165.97 240.05 172.72 239.14 163.74 248.09 170.49 247.19 161.51 256.14 168.27 255.23 159.28 257.11 160.7 256.73 154.68 253.37 162.09 252.86 153.74 249.49 161.14 248.97 152.79 245.61 160.19 245.09 151.84 241.73 159.24 241.22 150.89 237.85 158.3 237.34 149.95 237.25 150.14 237.34 150.87 237.04 150.6 233.97 157.35 233.46 149 230.1 156.41 229.83 152 228.39 150.7 226.23 155.46 225.8 148.38 225.33 147.96 224.21 150.43 225.21 153.22 222.36 154.51 224.21 150.43 222.38 145.31 225.33 147.96 225.72 147.11 225.8 148.38 228.39 150.7 229.59 148.06 229.83 152 230.36 152.48 229.36 143.69 237.04 150.6 237.25 150.14 236.33 142.09 244.3 149.26 243.3 140.48 251.28 147.65 250.27 138.87 258.24 146.04 257.24 137.26 265.21 144.43 264.2 135.65 272.17 142.83 271.17 134.04 279.13 141.22 278.13 132.43 286.1 139.61 285.1 130.83 293.07 138 292.29 126.02" style="fill: #f2f2f2"/>
        <polygon points="137.57 197.52 137.32 197.34 137.25 198.24 137.57 197.52" style="fill: #f2f2f2"/>
        <polygon points="228.39 150.7 229.83 152 229.59 148.06 228.39 150.7" style="fill: #f2f2f2"/>
        <polygon points="183.99 163.38 187.21 157.3 183.85 159.92 183.63 162 183.99 163.38" style="fill: #f2f2f2"/>
        <polygon points="183.37 164.57 183.99 163.38 183.63 162 183.37 164.57" style="fill: #f2f2f2"/>
        <polygon points="177.59 162.47 177.49 162.39 177.46 162.72 177.59 162.47" style="fill: #f2f2f2"/>
        <polygon points="193.15 165.16 186.72 161.54 186.32 165.49 193.15 165.16" style="fill: #f2f2f2"/>
        <polygon points="142.6 199.67 149.55 198.39 142.78 195.28 142.45 199.41 142.6 199.67" style="fill: #f2f2f2"/>
        <polygon points="139.84 198.97 140.88 196.59 140.13 195.24 139.84 198.97" style="fill: #f2f2f2"/>
        <polygon points="135.07 195.77 135.26 196.12 135.34 195.96 135.07 195.77" style="fill: #f2f2f2"/>
        <polygon points="140.88 196.59 141.68 194.77 140.22 194.1 140.13 195.24 140.88 196.59" style="fill: #f2f2f2"/>
      </g>
      <line x1="72.64" y1="89.03" x2="89.06" y2="57.92" style="fill: none;stroke: #fff;stroke-miterlimit: 10"/>
      <g>
        <line x1="9.84" y1="117.27" x2="17.72" y2="82.99" style="fill: none;stroke: #fff;stroke-miterlimit: 10"/>
        <line x1="0.49" y1="162.5" x2="8.36" y2="128.22" style="fill: none;stroke: #fff;stroke-miterlimit: 10"/>
      </g>
    </g>
  </g>
</svg>
