<svg xmlns="http://www.w3.org/2000/svg" width="164.73" height="150.97" viewBox="0 0 164.73 150.97">
  <g id="圖層_2" data-name="圖層 2">
    <g id="說明">
      <g>
        <path d="M99.41.08C96.73-.18,88.45-.31,86,7.64a14.32,14.32,0,0,0-.56,2.76,16.28,16.28,0,0,0,4,11c2.94,3.45,7.42,6,13.3,7.57a75.51,75.51,0,0,0,13.35,2c2.18.19,4.34.38,6.46.67l.51.08.25,0c6,.92,11.78,2.83,17.11,8.27h0l.43.21,1,.51.72.36,1,.51.67.37c.5.28,1,.57,1.52.88.22.12.44.26.65.39l1.1.68.69.43,1.41.94.53.35c.52.35,1,.71,1.56,1.09l.65.46c.44.32.89.64,1.34,1l.57.42c.62.46,1.24.93,1.87,1.42l.14.11h0v-.14c0-.26,0-.53,0-.79V49a18.86,18.86,0,0,0-.75-4.17c0-.09-.05-.18-.08-.26l-.18-.53c-.05-.12-.09-.24-.13-.36s-.13-.31-.19-.46-.11-.28-.17-.42-.13-.27-.19-.41l-.22-.45-.2-.37q-.12-.24-.27-.48a3.37,3.37,0,0,0-.19-.32,5.69,5.69,0,0,0-.33-.52l-.17-.27c-.14-.2-.27-.39-.41-.57l-.15-.21-.51-.65-.09-.11c-.44-.52-.9-1-1.4-1.53C140.6,27,119.27,24.28,109,23c-2.41-.3-4.31-.54-5.56-.8C97.29,20.9,92.18,15.13,92,12a5.24,5.24,0,0,1,2-4.51c1.42-1.1,5.71.36,8.44.81,2.3.38,4.09.06,5.1-.89.06-.06.13-.11.19-.18A3.31,3.31,0,0,0,108,3.55c-.42-1-3.75-3-8.62-3.47" style="fill: #fff"/>
        <path d="M22.12,121.44a.36.36,0,0,1,0,.09l.16.37.1.21.12.25c.09.18.19.36.29.54l.05.09c.07.12.14.24.22.36l0,.05a9.65,9.65,0,0,0,.76,1l.09.1.24.27.29.28.08.08c.16-1.21.42-4.65.54-6.44a15,15,0,0,1-3.72.61,17.88,17.88,0,0,0,.71,2.09" style="fill: #fff"/>
        <path d="M48,111.51c1.13,1.39,3.31,4.06,4.14,5a1.36,1.36,0,0,0,0-.17c0-.12,0-.24.06-.36a2.51,2.51,0,0,0,0-.27l0-.31c0-.09,0-.18,0-.26s0-.33,0-.5,0-.2,0-.3a2.35,2.35,0,0,0,0-.26c0-.1,0-.21,0-.31l0-.23c0-.2,0-.4-.08-.61a.59.59,0,0,0,0-.13c0-.13,0-.25-.07-.37s0-.06,0-.1a17.93,17.93,0,0,0-.69-2.43A15.09,15.09,0,0,1,48,111.51" style="fill: #fff"/>
        <path d="M4.56,104.39c0,.41.07.82.13,1.23a.77.77,0,0,1,0,.15c.19,1.22.35,2.6.53,4.06.07.6.15,1.22.22,1.85h0l-.1-.07a6.16,6.16,0,0,1-.55-.33l-.18-.13-.44-.31-.2-.16-.39-.33-.19-.16c-.14-.12-.26-.24-.39-.37l-.16-.16a5.33,5.33,0,0,1-.4-.42.69.69,0,0,1-.11-.13c-.16-.18-.32-.36-.46-.55v0A9.11,9.11,0,0,1,1,107.28l0,0c-.1-.18-.2-.37-.29-.56l-.06-.12c-.07-.17-.15-.34-.21-.51s0-.09,0-.14-.11-.32-.16-.48,0-.1,0-.14-.07-.33-.1-.49a.5.5,0,0,1,0-.12,3.39,3.39,0,0,1,0-.54s0,0,0-.06a5.52,5.52,0,0,1,0-.58.7.7,0,0,0,0-.14,1.34,1.34,0,0,0,.15-.48s0,0,0,0A4.27,4.27,0,0,1,2,101.05l.08,0,.28-.16.12-.06.44-.21.2-.09.22-.09.34-.13.21-.08.28-.09.17-.06.36-.1a18.61,18.61,0,0,0-.15,4.24,1.49,1.49,0,0,0,0,.21" style="fill: #fff"/>
        <path d="M61.48,87c0,.07,0,.14,0,.2s.06.32.08.48l0,.2c0,.17,0,.33,0,.5s0,.13,0,.2,0,.35,0,.53v.18c0,.19,0,.38,0,.56s0,.1,0,.15c0,.2,0,.41-.06.61a.36.36,0,0,1,0,.1c0,.22-.06.44-.1.65v0a11.66,11.66,0,0,1-1.22,3.44h0l-1.11-2.06c-.69-1.29-1.35-2.51-1.9-3.62a19.51,19.51,0,0,0-3.31-4.75l.06,0,.3-.12.18-.07.24-.08.21-.07.24-.07a3.6,3.6,0,0,1,.44-.12l.14,0,.33-.07.07,0a5.29,5.29,0,0,1,3.65.3h0a1.43,1.43,0,0,0,.37.29h0a.81.81,0,0,1,.1.09,4,4,0,0,1,.56.82l.08.13c.06.13.12.26.17.4a.89.89,0,0,1,.08.17,4.13,4.13,0,0,1,.14.42l.06.19c0,.14.07.29.11.44" style="fill: #fff"/>
        <path d="M8.14,109.48c.91,7.58,2.16,18,8.3,22.59.35.26.7.49,1,.71A14.47,14.47,0,0,0,24.43,135l.22,0h1.17a13.05,13.05,0,0,0,2.56-.36l.1,0,.44-.12.13,0,.16-.06.27-.09c.2-.07.39-.15.57-.23h0l.26-.13.36-.17.21-.11.37-.19.38-.21.18-.1c.91-.51,1.71-1.05,2.5-1.57l.6-.4.15-.1.45-.29.25-.15.38-.24.28-.16.37-.22.31-.17.38-.2.33-.17.41-.19.34-.15.51-.21.28-.11h0l-1.7-5.37a1.45,1.45,0,0,1,.95-1.83h0a1.45,1.45,0,0,1,1.83.95l1.7,5.37.38-.09.44-.1.44-.09.36-.06.45-.07.32,0,.46,0,.29,0,.47,0,.23,0,.52,0h0l1.31,0a30,30,0,0,0,4.92-.42h0l.54-.13.3-.08.15-.05.12,0,.43-.15.11,0a13,13,0,0,0,2.22-1.14L57,125l.25-.18c.18-.13.35-.25.52-.39l.08,0a14.51,14.51,0,0,0,4.92-7c2.37-7.31-2.58-16.53-6.2-23.26-.7-1.31-1.37-2.55-1.94-3.7l-.13-.23c-.16-.31-.33-.61-.5-.91l-.29-.45c-.14-.23-.29-.44-.43-.66L53,87.77c-.19-.25-.38-.49-.58-.72l-.45-.5c-.18-.19-.35-.37-.53-.54s-.29-.26-.43-.39l-.48-.41L50,84.86l-.66-.44-.22-.15h0l0,.14a6.52,6.52,0,0,1-3.67,3.69h0A4.67,4.67,0,0,1,41.85,88a1.64,1.64,0,0,0-1.24-.14,1.08,1.08,0,0,0-.58.51,4.67,4.67,0,0,1-2.18,2.14,4.08,4.08,0,0,1-2.91.07,1.67,1.67,0,0,0-1.39,0s0,0,0,0a.43.43,0,0,0-.18.36,1.38,1.38,0,0,0,1,.92c1.09.38,2.19,1.51,1.19,4.7a6.93,6.93,0,0,0-.2.75.13.13,0,0,1,0,.06c0,.21-.07.43-.1.64a1.77,1.77,0,0,1,0,.23c0,.14,0,.28,0,.42s0,.22,0,.32,0,.19,0,.28,0,.25.07.37a.85.85,0,0,0,0,.17,3.59,3.59,0,0,0,.12.39.36.36,0,0,1,0,.09,2.08,2.08,0,0,0,.2.36l0,0a1.52,1.52,0,0,0,.26.3h0a5,5,0,0,1,2.83.7h0a4,4,0,0,1,.43.28h0a4.35,4.35,0,0,1,.42.33,3.76,3.76,0,0,1,1.44,2.77,2.9,2.9,0,0,1-.81,2.12,2.86,2.86,0,0,1-1.07.68,3.33,3.33,0,0,1-2.16,0h0a2.52,2.52,0,0,0-.49.38,6,6,0,0,1-1,.76l1,3.08a18.52,18.52,0,0,0,6.26-.67l.09,0c.23-.07.46-.14.7-.23l1.88-.67A25.11,25.11,0,0,0,50,108.62a3.83,3.83,0,0,0,1.42-1.37,11.23,11.23,0,0,0,.7-1.64,5.76,5.76,0,0,1,2.06-3.17,4.15,4.15,0,0,1,1.45-.58,3.63,3.63,0,0,1,3.5,1.11,4.75,4.75,0,0,1,.74,4.75l-.09.21c0,.08-.06.17-.1.26a2.39,2.39,0,0,1-.12.22l-.13.23-.14.21-.16.21-.17.21-.18.2-.18.18-.21.2-.19.17-.24.19-.19.15-.29.2-.16.11-.45.29-.16.09-.32.18-.19.1-.29.15-.19.09-.28.13-.18.08-.28.12-.17.07-.28.12-.13,0-.33.12-.06,0h0a.13.13,0,0,0,0,.06c0,.16,0,.32.08.49l0,.25a1.64,1.64,0,0,1,0,.23q0,.32.06.66h0c0,.4,0,.8,0,1.2h0c0,.24,0,.48-.06.73,0,0,0,.07,0,.11s0,.22,0,.33l-.09.47c0,.05,0,.09,0,.13a6.29,6.29,0,0,1-.17.62,1.56,1.56,0,0,1-.41.69h0a.69.69,0,0,1-.13.11l0,0-.14.09h0l-.17.07h0l-.06,0a1.82,1.82,0,0,1-1.79-.71c-.53-.55-1.82-2.09-3-3.49h0l-.66.38-.13.07c-.21.12-.41.22-.63.33l-.24.13-.57.27-.37.17-.47.22-.53.22-.33.14-.76.31-.09,0c-.61.23-1.19.44-1.71.6l-.72.21-.32.09h0l-5.67,1.79,0,0-.31.12-.08,0a3.19,3.19,0,0,1-.33.11l-.1,0-.35.11-.12,0-.36.11-.14,0-.36.1-.18,0-.35.09-.21,0-.33.08-.24.06-.3.07-.29.06-.23,0c-.66.14-1.34.26-2,.36h-.07l-.45.06h-.11l-.43.05h-.13l-.4,0h-.08c-.13,1.8-.3,3.8-.42,4.55a1.83,1.83,0,0,1-1.06,1.62h0l0,0a1.49,1.49,0,0,1-1.33-.28s0,0,0,0-.26-.2-.38-.3l-.16-.14c-.13-.12-.25-.23-.37-.36l-.15-.15-.3-.34-.13-.15c-.1-.12-.2-.25-.29-.38A1.13,1.13,0,0,1,22,125c-.11-.15-.22-.3-.32-.46l-.06-.1a12.73,12.73,0,0,1-.9-1.65h-.09l-.36.1-.09,0-.36.08-.11,0-.38.08-.11,0-.42.07-.1,0-.48.07h-.06a12,12,0,0,1-1.7.09h-.08a3.59,3.59,0,0,1-.47,0h-.13l-.42-.06-.14,0-.39-.08-.14,0-.39-.13-.12-.05a3.75,3.75,0,0,1-.41-.19l-.06,0a4.17,4.17,0,0,1-.44-.29,4.75,4.75,0,0,1-2.14-4.31,3.66,3.66,0,0,1,1.79-2.7,3.61,3.61,0,0,1,.44-.22l.24-.09a3.92,3.92,0,0,1,1.28-.27,5.77,5.77,0,0,1,3.51,1.4,11.26,11.26,0,0,0,1.51.95c1.45.71,3.65.1,6.68-.76l1.92-.54.71-.2.09,0a18.26,18.26,0,0,0,5.33-2.92l.12-.09.05,0h0l-1-3.08h0a3.25,3.25,0,0,1-.62,0H32.9l-.32,0a4,4,0,0,0-.61,0h0a4,4,0,0,1-.66.69,2.83,2.83,0,0,1-4.26-.63,3.77,3.77,0,0,1-.42-3.08c0-.09.05-.17.07-.25a1.87,1.87,0,0,1,.07-.22l.07-.21.11-.27.07-.15a2.55,2.55,0,0,1,.17-.33l0-.07a4.73,4.73,0,0,1,1.66-1.72h0a2.39,2.39,0,0,0-.17-1.39v0a5.24,5.24,0,0,0-.23-.48l0-.06a3.68,3.68,0,0,0-.28-.45.39.39,0,0,0-.08-.1q-.15-.21-.33-.42l-.11-.11c-.12-.13-.24-.26-.38-.39l0,0c-.16-.14-.33-.29-.51-.43-2.65-2-2.4-3.58-1.73-4.53a1.38,1.38,0,0,0,.28-1.32.51.51,0,0,0-.35-.19.49.49,0,0,0-.26,0,2.16,2.16,0,0,0-.91.77A4.25,4.25,0,0,1,22,95.5a4.38,4.38,0,0,1-3.69-.28,1.06,1.06,0,0,0-1,0,1.8,1.8,0,0,0-.69.73,4.28,4.28,0,0,1-.82,1,5,5,0,0,1-2.05,1.12h0a6.5,6.5,0,0,1-5.12-.9l0,0-.09-.06q-.21.51-.39,1.05c0,.12-.08.24-.11.36-.09.28-.16.56-.23.84s-.06.25-.08.38a10.79,10.79,0,0,0-.19,1.16.43.43,0,0,0,0,0c0,.42-.08.86-.09,1.3v.29c0,.36,0,.72,0,1.09,0,.1,0,.19,0,.29,0,.46.08.92.15,1.39.19,1.27.36,2.67.54,4.15m12.16,2.8a7.1,7.1,0,1,1,4.62-8.91,7.1,7.1,0,0,1-4.62,8.91M44,89.92a7.09,7.09,0,1,1-4.62,8.9A7.1,7.1,0,0,1,44,89.92" style="fill: #fff"/>
        <path d="M47.45,83.65a4.85,4.85,0,0,1-2.62,2.73,2.89,2.89,0,0,1-2.18,0,3.06,3.06,0,0,0-4.22,1.13c-1,1.74-2.14,1.6-2.94,1.35a3.13,3.13,0,0,0-3.17.38,2.28,2.28,0,0,0-.77,2A2.82,2.82,0,0,0,32.6,93a3.73,3.73,0,0,0,1.13.62.42.42,0,0,1,.21.16c.34.44.06,1.57-.16,2.28a7,7,0,0,0,.33,5.56,6,6,0,0,0-.52.36.92.92,0,0,0-.12,1.29.8.8,0,0,0,.17.15.92.92,0,0,0,1.12,0,2.87,2.87,0,0,1,3.73.33.46.46,0,0,0,.07.07,2,2,0,0,1,.74,1.37,1.13,1.13,0,0,1-.25.78,1.33,1.33,0,0,1-1.46.22,2.22,2.22,0,0,0-2.21.76,3,3,0,0,1-1.19.75,3.06,3.06,0,0,1-1.41.07,2.22,2.22,0,0,0-2.24.65,1.3,1.3,0,0,1-1.32.65.85.85,0,0,1-.37-.19,1.11,1.11,0,0,1-.28-.29,2.07,2.07,0,0,1-.17-1.64,2.87,2.87,0,0,1,2.87-2.43.91.91,0,0,0,1-.83.92.92,0,0,0-.25-.7.9.9,0,0,0-.59-.29,4.69,4.69,0,0,0-.53,0h-.11a6.53,6.53,0,0,0-2.31-4.23c-.2-.18-.41-.35-.62-.52s-.3-.23-.46-.37c-.6-.52-1.21-1.21-.89-1.65a3.13,3.13,0,0,0,.43-3.17,2,2,0,0,0-.41-.56,2.28,2.28,0,0,0-1.39-.66A3.13,3.13,0,0,0,22.32,93c-.52.67-1.4,1.45-3.19.59a3.06,3.06,0,0,0-4.1,1.5,2.85,2.85,0,0,1-1.76,1.28,4.8,4.8,0,0,1-3.71-.72l-.07,0a.52.52,0,0,0-.16-.06c2-3.34,5.52-5.92,10.38-7.46L34.8,83.32c4.87-1.54,9.23-1.46,12.79.13a.08.08,0,0,0,0,0,.54.54,0,0,0-.1.16" style="fill: #fff"/>
        <path d="M46.33,101.24a4.78,4.78,0,1,1,3.12-6,4.78,4.78,0,0,1-3.12,6" style="fill: #fff"/>
        <path d="M15.52,101a4.78,4.78,0,1,1-3.12,6,4.79,4.79,0,0,1,3.12-6" style="fill: #fff"/>
        <path d="M101.61,101.1c-4.89-9.94-22.47-6.65-27.19,0S68.34,117.23,68,126.67s-8.72,9-14.72,12.62a11.92,11.92,0,0,1,10.95,6.49c3.48,6.66,14.39-3.19,17.28-6.55S79.84,131,84.64,125.4s21.92-14.22,17-24.3" style="fill: #fff"/>
        <path d="M160.46,67.69c-10.73-8.61-29.16,2.17-30.57,12-1.61,11.24,1.22,24.4,9.76,33.89,7.91,8.78-4.05,14.58-8.31,21.69a13.8,13.8,0,0,1,15.13,1.62c7.41,5.66,13.29-11,14.42-16.21s-6.4-8.35-4.52-17.08,15-27.17,4.09-35.9" style="fill: #fff"/>
        <path d="M63.52,150s-1.68-8.23-5.83-7.92-6.8,6.8-6.65,8.88Z" style="fill: #fff"/>
        <path d="M54.49,141.29s-4.48-3.84-8.32.64-2.48,8.55-2.48,8.55l6.23-.47s-1.35-4.08,4.57-8.72" style="fill: #fff"/>
        <path d="M45.05,141s-7.27.55-7.76,7.91l4.16-.32s-.24-3.12,3.6-7.59" style="fill: #fff"/>
        <path d="M150,145.51s-1.68-8.24-5.84-7.92-6.8,6.79-6.64,8.87Z" style="fill: #fff"/>
        <path d="M140.93,136.79s-4.48-3.84-8.32.63-2.48,8.56-2.48,8.56l6.23-.48s-1.35-4.08,4.57-8.71" style="fill: #fff"/>
        <path d="M131.49,136.46s-7.28.56-7.76,7.91l4.16-.31s-.24-3.12,3.6-7.6" style="fill: #fff"/>
        <path d="M107.22,125.56a14.26,14.26,0,0,1,9.36,3.14c7.4,5.67,13.28-11,14.41-16.2s-6-8.19-4.65-16.43c-4.69,6.43-10.61,20.41-14.75,26.23a10.44,10.44,0,0,1-4.37,3.26" style="fill: #fff"/>
        <path d="M120.06,137.34s-1.68-8.24-5.84-7.92-6.8,6.79-6.64,8.87Z" style="fill: #fff"/>
        <path d="M111,128.61s-4.48-3.84-8.32.64-2.48,8.55-2.48,8.55l6.23-.47s-1.35-4.08,4.57-8.72" style="fill: #fff"/>
        <path d="M101.59,128.29s-7.28.55-7.76,7.91l4.16-.32s-.24-3.12,3.6-7.59" style="fill: #fff"/>
        <path d="M28.82,147.43s-1.68-8.23-5.84-7.92-6.8,6.8-6.64,8.88Z" style="fill: #fff"/>
        <path d="M19.79,138.71s-4.48-3.84-8.32.64S9,147.9,9,147.9l6.23-.47s-1.35-4.08,4.57-8.72" style="fill: #fff"/>
        <path d="M10.35,138.39s-7.27.55-7.76,7.91L6.75,146s-.24-3.12,3.6-7.59" style="fill: #fff"/>
        <path d="M67.32,76.53c-7.2,1.6-16.47,3.35-15.27,5.35,0,0,8.07-3.75,11.59,1.21s-1,13.67-1,13.67A23.34,23.34,0,0,1,66.83,111c.24-1,4.37-17,18.39-19.12,14.48-2.15,20.31,5.77,20.78,12s-5.36,11.92-10.32,15.43-9.92,7-9.76,9.11c0,0,17.83.73,22.55-5.9s11.77-23.9,16.65-28.46-2.23-15.51,4.57-22.3,19.84-14.07,33.11-4.62c2.48-8.56-17.9-29-35.57-27.61s-31.35,13.89-38,22.77A36.34,36.34,0,0,1,67.32,76.53m25,47.24a1.56,1.56,0,1,1-1.44,1.67,1.56,1.56,0,0,1,1.44-1.67m6.16-1.52a1.56,1.56,0,1,1-1.44,1.68,1.57,1.57,0,0,1,1.44-1.68m5-2.48a1.56,1.56,0,1,1-1.44,1.68,1.56,1.56,0,0,1,1.44-1.68M106,117a1.56,1.56,0,1,1,1.68,1.44A1.55,1.55,0,0,1,106,117" style="fill: #fff"/>
      </g>
    </g>
  </g>
</svg>
