<?xml version="1.0" encoding="UTF-8"?>
<svg id="b" data-name="圖層 2" xmlns="http://www.w3.org/2000/svg" width="78.09" height="78.09" viewBox="0 0 78.09 78.09">
  <defs>
    <style>
      .d {
        fill: #fff;
      }

      .e {
        fill: #302725;
      }
    </style>
  </defs>
  <g id="c" data-name="圖層 2">
    <circle class="e" cx="39.05" cy="39.05" r="39.05"/>
    <path class="d" d="M65.37,49.72h-9.54v7.16h-6.34v-7.16h-10.38v-4.43h10.38v-3.91h-4.66c-.67,1.26-1.4,2.39-2.24,3.34-.95-.52-2.97-1.35-4.38-1.82v9.16c0,2.04-.45,3.34-2.13,4.08-1.74,.74-4.04,.87-7.46,.87-.17-1.26-1.07-3.21-1.91-4.38,2.24,.09,4.43,.09,5.11,.09s.95-.17,.95-.74v-6.25h-11.17c-.56,4.08-1.85,8.29-4.43,11.41-.95-.69-3.37-1.87-4.6-2.3,3.76-4.47,4.04-10.94,4.04-15.8v-6.42c-1.12-.87-3.2-2.17-4.38-2.78,3.82-3.17,6.79-8.25,8.31-13.32l5.89,.96c-.34,1.04-.73,2.08-1.18,3.08h5.11l.84-.22,3.82,1.82c-.79,1.69-1.91,3.69-3.09,5.47h6.29v2.65c4.66-1.65,6.34-4.17,7.13-7.33h-6.29v-4.21h24.92s-.06,1.08-.11,1.65c-.28,6.9-.73,9.89-1.96,11.02-.95,.91-2.02,1.26-3.42,1.43-1.23,.13-3.42,.17-5.67,.13-.11-1.34-.67-3.08-1.52-4.17,1.74,.13,3.26,.17,4.04,.17,.67,0,1.12-.09,1.52-.48,.51-.48,.79-1.95,1.01-5.55h-6.51c-.95,4.51-3.09,8.12-8.81,10.54l4.99,.78c-.22,.91-.45,1.87-.79,2.78h2.75v-3.91h6.34v3.91h8.42v4.34h-8.42v3.91h9.54v4.43ZM23.39,24.46c-.62,1.08-1.23,2.17-1.91,3.17h4.83c.56-.95,1.07-2.08,1.57-3.17h-4.49Zm-1.4,14.58c0,.91,0,1.87-.06,2.86h3.25v-3.6h-3.2v.74Zm0-4.38h3.2v-3.25h-3.2v3.25Zm7.58,0h3.2v-3.25h-3.2v3.25Zm3.2,7.25v-3.6h-3.2v3.6h3.2Zm5.44,.26c1.85-2.21,3.2-5.38,3.87-8.46-.39,.13-.79,.3-1.18,.43-.5-.87-1.63-2.08-2.69-2.95v10.98Z"/>
  </g>
</svg>