<?xml version="1.0" encoding="UTF-8"?>
<svg id="b" data-name="圖層 2" xmlns="http://www.w3.org/2000/svg" width="55.04" height="50.44" viewBox="0 0 55.04 50.44">
  <defs>
    <style>
      .d {
        fill: #333;
      }
    </style>
  </defs>
  <g id="c" data-name="圖層 2">
    <g>
      <path class="d" d="M33.21,.03c-.9-.09-3.66-.13-4.48,2.52-.08,.28-.15,.58-.19,.92,0,.01-.15,1.92,1.34,3.66,.98,1.15,2.48,2,4.44,2.53,1.54,.41,3.03,.54,4.46,.66,.73,.06,1.45,.13,2.16,.22,.06,0,.11,.02,.17,.02h.09c2.02,.32,3.93,.96,5.72,2.77h0s.1,.05,.14,.07c.12,.05,.23,.11,.35,.17,.08,.04,.16,.08,.24,.12,.11,.06,.21,.11,.32,.17,.07,.04,.15,.08,.22,.12,.17,.09,.34,.19,.51,.29,.07,.04,.14,.09,.22,.13,.12,.07,.24,.15,.37,.23,.08,.05,.15,.1,.23,.15,.16,.1,.31,.2,.47,.31,.06,.04,.12,.08,.18,.12,.17,.12,.35,.24,.52,.36,.07,.05,.14,.1,.22,.15,.15,.11,.3,.22,.45,.33,.06,.05,.13,.09,.19,.14,.21,.15,.41,.31,.62,.47l.05,.04h0v-.05c0-.09,0-.18-.01-.26v-.04c-.04-.49-.12-.95-.25-1.39,0-.03-.02-.06-.03-.09-.02-.06-.04-.12-.06-.18-.01-.04-.03-.08-.04-.12-.02-.05-.04-.1-.06-.15-.02-.05-.04-.09-.06-.14-.02-.05-.04-.09-.06-.14-.02-.05-.05-.1-.07-.15-.02-.04-.04-.08-.06-.12-.03-.05-.06-.11-.09-.16-.02-.04-.04-.07-.06-.11-.04-.06-.07-.12-.11-.17-.02-.03-.04-.06-.06-.09-.04-.06-.09-.13-.14-.19-.02-.02-.03-.05-.05-.07-.06-.07-.11-.15-.17-.22l-.03-.04c-.14-.17-.3-.34-.47-.51-3.35-3.33-10.47-4.23-13.9-4.66-.8-.1-1.44-.18-1.86-.27-2.06-.43-3.77-2.36-3.83-3.41-.03-.59,.21-1.14,.68-1.51,.47-.37,1.91,.12,2.82,.27,.77,.13,1.37,.02,1.7-.3,.02-.02,.04-.04,.06-.06,.27-.3,.3-.75,.09-1.22-.14-.32-1.25-.99-2.88-1.16"/>
      <path class="d" d="M7.39,40.57v.03s.05,.08,.07,.13l.03,.07s.03,.06,.04,.08c.03,.06,.06,.12,.1,.18v.03s.06,.08,.09,.12v.02c.09,.12,.17,.24,.27,.35l.03,.03s.05,.06,.08,.09c.03,.03,.06,.06,.1,.09l.03,.03c.05-.41,.14-1.56,.18-2.15-.47,.12-.88,.2-1.24,.2,.05,.19,.13,.43,.24,.7"/>
      <path class="d" d="M16.04,37.26c.38,.46,1.11,1.36,1.39,1.66v-.06s.03-.08,.03-.12c0-.03,0-.06,.01-.09,0-.03,0-.07,0-.1,0-.03,0-.06,0-.09,0-.06,0-.11,0-.17,0-.03,0-.07,0-.1,0-.03,0-.06,0-.09,0-.03,0-.07,0-.1,0-.03,0-.05,0-.08,0-.07-.02-.14-.03-.2v-.05s-.02-.08-.03-.12v-.03c-.07-.32-.16-.61-.24-.81-.3,.21-.68,.38-1.13,.55"/>
      <path class="d" d="M1.52,34.88c.01,.14,.03,.27,.05,.41v.05c.07,.41,.12,.87,.18,1.36,.02,.2,.05,.41,.08,.62h0l-.03-.03c-.06-.04-.12-.07-.18-.11-.02-.01-.04-.03-.06-.04-.05-.03-.1-.07-.14-.1-.02-.02-.04-.03-.07-.05-.04-.04-.09-.07-.13-.11-.02-.02-.04-.04-.06-.06-.04-.04-.09-.08-.13-.12-.02-.02-.04-.03-.05-.05-.05-.05-.09-.09-.13-.14-.01-.01-.03-.03-.04-.04-.05-.06-.1-.12-.15-.19h0c-.1-.14-.2-.28-.28-.42v-.02c-.04-.06-.08-.13-.11-.19l-.02-.04c-.03-.06-.05-.11-.07-.17,0-.02-.01-.03-.02-.05-.02-.05-.04-.11-.05-.16,0-.02,0-.03-.01-.05-.01-.06-.03-.11-.03-.16,0-.01,0-.03,0-.04,0-.06-.01-.12-.02-.18v-.02c0-.07,0-.13,0-.2,0-.02,0-.03,.01-.05,.02-.05,.04-.1,.05-.16h0c.1-.25,.33-.45,.6-.61l.03-.02s.06-.03,.09-.05l.04-.02s.1-.05,.15-.07c.02-.01,.04-.02,.07-.03,.03-.01,.05-.02,.07-.03,.04-.01,.08-.03,.11-.04l.07-.02s.06-.02,.09-.03l.06-.02s.08-.02,.12-.03c-.07,.45-.09,.93-.05,1.42,0,.02,0,.05,0,.07"/>
      <path class="d" d="M20.54,29.06s.01,.05,.01,.07c0,.05,.02,.1,.03,.16,0,.02,0,.04,0,.07,0,.06,.01,.11,.02,.17v.07c0,.06,0,.12,0,.18v.06c0,.06,0,.13,0,.19v.05c0,.07-.02,.13-.02,.2v.04c-.01,.07-.03,.14-.04,.22h0c-.08,.42-.21,.81-.41,1.16h0c-.13-.24-.25-.47-.37-.69-.23-.43-.45-.84-.64-1.21-.31-.61-.68-1.14-1.11-1.59h.02s.07-.04,.1-.05l.06-.02s.05-.02,.08-.03c.02,0,.05-.02,.07-.02,.03,0,.05-.02,.08-.02,.05-.01,.1-.03,.15-.04h.05s.07-.03,.11-.04h.02c.44-.09,.91-.1,1.22,.09h0s.08,.08,.13,.1h0s.02,.02,.03,.03c.07,.08,.13,.17,.19,.27,0,.02,.02,.03,.03,.04,.02,.04,.04,.09,.06,.13,0,.02,.02,.04,.02,.06,.02,.04,.03,.09,.05,.14,0,.02,.01,.04,.02,.06,.01,.05,.03,.1,.04,.15"/>
      <path class="d" d="M2.72,36.58c.3,2.53,.72,6,2.77,7.55,.12,.09,.23,.16,.35,.24,.77,.48,1.58,.69,2.32,.73,.02,0,.05,0,.07,0,.06,0,.12,0,.17,0,.05,0,.09,0,.14,0,.03,0,.05,0,.08,0,.31-.01,.6-.05,.85-.12h.04s.1-.04,.14-.05c.01,0,.03,0,.05-.01,.02,0,.03-.01,.05-.02,.03-.01,.06-.02,.09-.03,.07-.02,.13-.05,.19-.08h0s.06-.03,.09-.04c.04-.02,.08-.04,.12-.06,.02-.01,.05-.02,.07-.04,.04-.02,.08-.04,.13-.06,.04-.02,.08-.05,.12-.07l.06-.03c.3-.17,.57-.35,.84-.53,.07-.04,.13-.09,.2-.13l.05-.03c.05-.03,.1-.07,.15-.1,.03-.02,.05-.03,.08-.05,.04-.03,.08-.05,.13-.08,.03-.02,.06-.04,.09-.06,.04-.02,.08-.05,.12-.07,.03-.02,.07-.04,.1-.06,.04-.02,.08-.04,.13-.07,.04-.02,.07-.04,.11-.06,.04-.02,.09-.04,.14-.06,.04-.02,.07-.03,.11-.05,.06-.02,.11-.05,.17-.07,.03-.01,.06-.03,.1-.04h0l-.57-1.79c-.08-.26,.06-.53,.32-.61h0c.26-.08,.53,.06,.61,.32l.57,1.79s.08-.02,.13-.03c.05-.01,.1-.02,.15-.03,.05-.01,.1-.02,.15-.03,.04,0,.08-.01,.12-.02,.05,0,.1-.01,.15-.02,.04,0,.07-.01,.11-.01,.05,0,.1-.01,.15-.02h.1c.05-.01,.1-.02,.16-.02h.08c.06,0,.12-.01,.17-.01h.01c.15,0,.29-.01,.44-.02,.51-.01,1.03-.03,1.64-.14h.02c.06-.01,.12-.03,.18-.05,.03,0,.07-.02,.1-.03,.02,0,.03,0,.05-.01,.01,0,.03-.01,.04-.01,.05-.02,.1-.03,.14-.05h.04c.24-.11,.49-.23,.74-.4,.03-.02,.07-.04,.1-.06,.03-.02,.06-.04,.08-.06,.06-.04,.12-.08,.17-.13l.02-.02c.67-.53,1.31-1.3,1.65-2.34,.79-2.44-.86-5.52-2.07-7.77-.24-.44-.46-.85-.65-1.24-.01-.03-.03-.05-.04-.08-.05-.1-.11-.21-.17-.3-.03-.05-.06-.1-.1-.15-.05-.07-.1-.15-.15-.22-.03-.05-.07-.1-.1-.15-.06-.08-.13-.16-.2-.24-.05-.06-.1-.11-.15-.17-.06-.06-.12-.12-.18-.18-.05-.04-.09-.09-.14-.13-.05-.05-.11-.09-.16-.14-.05-.04-.1-.08-.15-.12-.07-.05-.15-.1-.22-.15-.02-.02-.05-.03-.07-.05h0s0,.03-.02,.05c-.36,.79-.86,1.1-1.22,1.23h0c-.41,.15-.86,.13-1.2-.04-.13-.06-.28-.09-.41-.05-.08,.03-.14,.08-.19,.17-.19,.35-.44,.59-.73,.71-.29,.12-.62,.13-.97,.02-.21-.07-.38-.07-.46,0h0c-.05,.05-.06,.11-.06,.13,.02,.13,.15,.24,.33,.31,.37,.13,.73,.51,.4,1.57-.03,.08-.05,.17-.07,.25v.02c-.02,.07-.03,.14-.04,.21,0,.03,0,.05,0,.08,0,.05,0,.1,0,.14,0,.04,0,.07,0,.11,0,.03,0,.06,0,.09,0,.04,.01,.08,.02,.13,0,.02,0,.04,.01,.06,.01,.04,.03,.09,.04,.13v.03s.05,.08,.08,.12h0c.03,.05,.06,.09,.09,.12h0c.31-.02,.64,.06,.94,.23h0s.1,.06,.14,.1h0s.1,.07,.14,.11c.38,.34,.47,.69,.48,.92,0,.27-.09,.54-.27,.71-.11,.1-.23,.18-.36,.23-.21,.08-.46,.08-.72,0h0s-.11,.08-.16,.13c-.09,.08-.2,.17-.34,.25l.33,1.03c.42,.03,1.24,.03,2.09-.23h.03c.08-.03,.16-.06,.23-.09,.22-.08,.43-.15,.63-.22,.62-.22,1.13-.4,1.49-.62,.22-.13,.38-.28,.47-.46,.09-.17,.16-.36,.23-.55,.14-.38,.29-.81,.69-1.06,.13-.09,.29-.15,.48-.19,.44-.09,.88,.05,1.17,.37,.35,.39,.44,.97,.25,1.59,0,.02-.02,.05-.03,.07-.01,.03-.02,.06-.03,.09-.01,.03-.03,.05-.04,.08-.01,.02-.03,.05-.04,.07-.02,.02-.03,.05-.05,.07-.02,.02-.03,.05-.05,.07-.02,.02-.04,.05-.06,.07-.02,.02-.04,.05-.06,.07-.02,.02-.04,.04-.06,.06-.02,.02-.05,.04-.07,.06-.02,.02-.04,.04-.06,.06-.03,.02-.05,.04-.08,.06-.02,.02-.04,.03-.06,.05-.03,.02-.06,.05-.1,.07-.02,.01-.04,.03-.05,.04-.05,.03-.1,.06-.15,.1-.02,.01-.04,.02-.05,.03-.03,.02-.07,.04-.11,.06-.02,.01-.04,.02-.06,.03-.03,.02-.06,.03-.1,.05-.02,.01-.04,.02-.06,.03-.03,.01-.06,.03-.09,.04l-.06,.03s-.06,.03-.09,.04c-.02,0-.04,.02-.05,.02-.03,.01-.06,.03-.1,.04-.01,0-.03,.01-.04,.02-.04,.01-.07,.03-.11,.04h-.03v.03c.01,.05,.02,.11,.03,.16,0,.03,0,.06,.01,.08,0,.03,0,.05,0,.08,0,.07,.01,.15,.02,.22h0c0,.13,0,.27,0,.4h0c0,.08-.01,.16-.02,.24v.04s-.01,.07-.02,.11c0,.05-.02,.11-.03,.16v.04c-.03,.07-.05,.14-.07,.21-.02,.07-.07,.16-.14,.23h0s-.03,.03-.04,.04h0s-.03,.02-.05,.03h0s-.04,.02-.06,.03h-.02c-.19,.06-.4-.02-.6-.23-.18-.18-.61-.7-.99-1.16h0c-.07,.04-.14,.08-.22,.13l-.05,.03c-.07,.04-.14,.07-.21,.11l-.08,.04c-.06,.03-.13,.06-.19,.09-.04,.02-.08,.04-.12,.06-.05,.02-.11,.05-.16,.07-.06,.03-.12,.05-.18,.08-.04,.02-.07,.03-.11,.05-.09,.04-.17,.07-.26,.1h-.03c-.2,.09-.4,.16-.57,.21-.09,.03-.17,.05-.24,.07-.04,.01-.07,.02-.11,.03h0l-1.89,.6h-.01s-.07,.03-.1,.04h-.03s-.07,.03-.11,.05h-.03s-.08,.04-.12,.05h-.04s-.08,.04-.12,.05h-.05s-.08,.04-.12,.05c-.02,0-.04,.01-.06,.02-.04,.01-.08,.02-.12,.03-.02,0-.05,.01-.07,.02-.04,0-.07,.02-.11,.03-.03,0-.05,.01-.08,.02-.03,0-.07,.02-.1,.02l-.1,.02-.08,.02c-.22,.05-.45,.09-.67,.12h-.02c-.05,.01-.1,.02-.15,.02h-.04s-.1,.02-.14,.02h-.04s-.09,.01-.13,.02h-.03c-.05,.6-.1,1.27-.14,1.52-.05,.29-.17,.47-.35,.54h-.02c-.17,.06-.34,0-.44-.09h-.02s-.09-.08-.13-.12l-.05-.05s-.08-.08-.12-.12c-.02-.02-.03-.03-.05-.05-.03-.04-.07-.08-.1-.11l-.04-.05s-.07-.08-.1-.13c-.01-.01-.02-.03-.03-.04-.04-.05-.07-.1-.11-.15l-.02-.03c-.12-.18-.22-.37-.3-.55h-.03s-.08,.03-.12,.04h-.03s-.08,.03-.12,.04h-.04s-.08,.03-.13,.03h-.04s-.09,.02-.14,.03h-.03c-.05,.01-.11,.02-.16,.03h-.02c-.19,.02-.38,.04-.57,.03h-.03c-.05,0-.1,0-.16-.01-.01,0-.03,0-.04,0-.05,0-.09-.01-.14-.02-.02,0-.03,0-.05,0-.04,0-.09-.02-.13-.03-.02,0-.03,0-.05-.01-.04-.01-.09-.03-.13-.04-.01,0-.03,0-.04-.01-.05-.02-.09-.04-.14-.07h-.02c-.05-.04-.1-.07-.15-.11-.52-.39-.78-.92-.71-1.44,.05-.38,.27-.71,.6-.9,.05-.03,.1-.05,.15-.08,.03-.01,.05-.02,.08-.03,.15-.06,.29-.09,.43-.09,.47-.02,.84,.24,1.17,.47,.16,.11,.33,.23,.5,.32,.48,.24,1.22,.03,2.23-.25,.2-.06,.42-.12,.64-.18,.08-.02,.16-.04,.23-.07h.03c.79-.27,1.43-.71,1.78-.98l.04-.03h.02l-.33-1.04h-.01c-.07,0-.14,0-.21,0h-.02s-.05,0-.08,0c-.04,0-.07,0-.11-.01-.07,0-.18-.02-.2-.01h0c-.07,.09-.14,.17-.22,.23-.23,.19-.5,.26-.79,.22-.24-.04-.48-.2-.63-.43-.13-.2-.26-.53-.14-1.03,0-.03,.02-.05,.02-.08,0-.03,.01-.05,.02-.08,0-.02,.02-.05,.03-.07,.01-.03,.02-.06,.04-.09,0-.02,.02-.03,.02-.05,.02-.04,.04-.07,.06-.11v-.02c.15-.24,.34-.44,.57-.57h0c.03-.14,.01-.3-.05-.47h0c-.02-.06-.05-.11-.08-.17v-.02c-.04-.05-.07-.1-.11-.15,0-.01-.02-.02-.02-.03-.04-.05-.07-.09-.11-.14-.01-.01-.03-.03-.04-.04-.04-.04-.08-.09-.13-.13h-.02c-.05-.06-.11-.11-.17-.16-.89-.68-.8-1.2-.58-1.51,.11-.16,.15-.33,.09-.44,0-.02-.05-.06-.12-.07-.03,0-.06,0-.09,.01-.09,.03-.2,.12-.3,.26-.17,.22-.37,.38-.58,.47-.36,.15-.78,.12-1.23-.1-.13-.06-.24-.05-.34,0-.1,.05-.18,.14-.23,.24-.07,.13-.16,.24-.28,.35-.19,.17-.42,.3-.68,.38h0c-.37,.1-.97,.13-1.71-.3h-.01s-.02-.02-.03-.03c-.05,.11-.09,.23-.13,.35-.01,.04-.02,.08-.04,.12-.03,.09-.05,.19-.08,.28,0,.04-.02,.08-.03,.12-.03,.13-.05,.26-.06,.39v.02c-.02,.14-.03,.29-.03,.43,0,.03,0,.06,0,.1,0,.12,0,.24,0,.37,0,.03,0,.06,0,.09,.01,.15,.03,.31,.05,.47,.06,.42,.12,.89,.18,1.39m4.06,.93c-1.25,.39-2.58-.3-2.97-1.54-.39-1.25,.3-2.58,1.54-2.97,1.25-.39,2.58,.3,2.97,1.54,.39,1.25-.3,2.58-1.54,2.97m7.9-7.47c1.25-.39,2.58,.3,2.97,1.54,.39,1.25-.3,2.58-1.54,2.97-1.25,.39-2.58-.3-2.97-1.54-.39-1.25,.3-2.58,1.55-2.97"/>
      <path class="d" d="M15.85,27.95c-.21,.47-.52,.78-.88,.91-.3,.11-.57,.06-.73-.01-.56-.27-1.14-.12-1.41,.38-.32,.58-.72,.54-.98,.45-.56-.17-.88-.03-1.06,.13-.24,.21-.29,.49-.26,.68,.04,.22,.16,.42,.35,.58,.11,.09,.24,.16,.38,.21,.03,.01,.05,.03,.07,.05,.11,.15,.02,.53-.05,.76-.19,.62-.21,1.36,.11,1.86-.06,.04-.12,.08-.17,.12-.13,.11-.15,.3-.04,.43,.02,.02,.04,.04,.06,.05,.11,.08,.26,.08,.37-.01,.34-.28,.85-.24,1.25,.11,0,0,.01,.01,.02,.02,.16,.15,.24,.3,.25,.46,0,.14-.05,.23-.09,.26-.12,.12-.26,.14-.49,.07-.34-.1-.57,.1-.74,.25-.12,.11-.23,.21-.4,.25-.16,.06-.31,.04-.47,.02-.23-.03-.53-.06-.75,.22-.14,.18-.27,.25-.44,.22-.03,0-.07-.02-.12-.06-.03-.02-.06-.05-.09-.1-.09-.14-.11-.33-.06-.55,.12-.51,.52-.84,.96-.81,.17,.01,.31-.11,.33-.28,0-.09-.03-.17-.08-.23-.05-.05-.12-.09-.2-.1-.06,0-.12,0-.18,0h-.04c-.03-.51-.35-1.02-.77-1.41-.07-.06-.13-.12-.21-.17-.05-.04-.1-.08-.15-.13-.2-.17-.4-.4-.3-.55,.25-.34,.3-.74,.15-1.06-.03-.06-.08-.13-.14-.19-.11-.11-.26-.2-.46-.22-.23-.02-.59,.05-.94,.51-.17,.22-.47,.49-1.06,.2-.51-.25-1.07-.04-1.37,.5-.08,.15-.28,.34-.59,.43-.37,.1-.8,.02-1.24-.24h-.02s-.04-.03-.05-.03c.67-1.12,1.84-1.98,3.47-2.49l5.04-1.59c1.63-.51,3.08-.49,4.27,.04h-.01s-.02,.05-.03,.07"/>
      <path class="d" d="M15.48,33.82c-.84,.27-1.74-.2-2.01-1.04-.27-.84,.2-1.74,1.04-2.01,.84-.27,1.74,.2,2.01,1.04,.27,.84-.2,1.74-1.04,2.01"/>
      <path class="d" d="M5.18,33.73c.84-.27,1.74,.2,2.01,1.04,.27,.84-.2,1.74-1.04,2.01-.84,.27-1.74-.2-2.01-1.04-.27-.84,.2-1.74,1.04-2.01"/>
      <path class="d" d="M33.95,33.78c-1.63-3.32-7.51-2.22-9.08,0-1.58,2.22-2.03,5.4-2.14,8.55-.11,3.15-2.91,3.02-4.92,4.22,0,0,2.43-.19,3.66,2.17,1.16,2.23,4.81-1.07,5.77-2.19,.96-1.12-.56-2.75,1.04-4.62,1.6-1.87,7.32-4.75,5.67-8.12"/>
      <path class="d" d="M53.61,22.62c-3.58-2.88-9.74,.72-10.21,4.01-.54,3.75,.41,8.15,3.26,11.32,2.64,2.94-1.35,4.87-2.78,7.25,0,0,2.44-1.46,5.06,.54,2.47,1.89,4.44-3.66,4.82-5.41,.38-1.75-2.14-2.79-1.51-5.71,.63-2.91,5-9.08,1.37-11.99"/>
      <path class="d" d="M21.22,50.12s-.56-2.75-1.95-2.65c-1.39,.11-2.27,2.27-2.22,2.96l4.17-.32Z"/>
      <path class="d" d="M18.2,47.21s-1.5-1.28-2.78,.21c-1.28,1.49-.83,2.86-.83,2.86l2.08-.16s-.45-1.36,1.52-2.91"/>
      <path class="d" d="M15.05,47.1s-2.43,.19-2.59,2.64l1.39-.11s-.08-1.04,1.2-2.54"/>
      <path class="d" d="M50.1,48.61s-.56-2.75-1.95-2.65c-1.39,.11-2.27,2.27-2.22,2.96l4.17-.32Z"/>
      <path class="d" d="M47.08,45.7s-1.49-1.28-2.78,.21c-1.28,1.5-.83,2.86-.83,2.86l2.08-.16s-.45-1.36,1.52-2.91"/>
      <path class="d" d="M43.93,45.59s-2.43,.19-2.59,2.64l1.39-.11s-.08-1.04,1.2-2.54"/>
      <path class="d" d="M35.82,41.95c.88-.03,1.99,.18,3.13,1.05,2.47,1.89,4.44-3.66,4.82-5.42,.37-1.71-2.01-2.74-1.55-5.49-1.57,2.15-3.55,6.82-4.93,8.76-.33,.46-.85,.82-1.46,1.09"/>
      <path class="d" d="M40.11,45.88s-.56-2.75-1.95-2.65c-1.39,.11-2.27,2.27-2.22,2.96l4.17-.32Z"/>
      <path class="d" d="M37.09,42.97s-1.49-1.28-2.78,.21c-1.28,1.5-.83,2.86-.83,2.86l2.08-.16s-.45-1.36,1.52-2.91"/>
      <path class="d" d="M33.94,42.86s-2.43,.19-2.59,2.64l1.39-.11s-.08-1.04,1.2-2.54"/>
      <path class="d" d="M9.63,49.26s-.56-2.75-1.95-2.65c-1.39,.11-2.27,2.27-2.22,2.96l4.17-.32Z"/>
      <path class="d" d="M6.61,46.34s-1.5-1.28-2.78,.21c-1.28,1.5-.83,2.86-.83,2.86l2.08-.16s-.45-1.36,1.52-2.91"/>
      <path class="d" d="M3.46,46.24s-2.43,.19-2.59,2.64l1.39-.11s-.08-1.04,1.2-2.54"/>
      <path class="d" d="M22.49,25.57c-2.4,.53-5.5,1.12-5.1,1.79,0,0,2.7-1.25,3.87,.4,1.17,1.66-.35,4.57-.35,4.57,0,0,1.54,1.97,1.42,4.77,.08-.33,1.46-5.69,6.15-6.39,4.84-.72,6.78,1.93,6.94,4.01,.16,2.08-1.79,3.98-3.45,5.15-1.66,1.17-3.31,2.35-3.26,3.04,0,0,5.96,.24,7.54-1.97,1.58-2.22,3.93-7.99,5.56-9.51,1.63-1.52-.74-5.18,1.53-7.45,2.27-2.27,6.63-4.7,11.06-1.54,.83-2.86-5.98-9.67-11.88-9.22-5.9,.45-10.47,4.64-12.69,7.61-2.22,2.96-4.92,4.22-7.32,4.75m8.37,15.78c.29-.02,.54,.19,.56,.48,.02,.29-.19,.54-.48,.56s-.54-.19-.56-.48c-.02-.29,.19-.54,.48-.56m2.06-.51c.29-.02,.54,.19,.56,.48,.02,.29-.19,.54-.48,.56-.29,.02-.54-.19-.56-.48-.02-.29,.19-.54,.48-.56m1.68-.83c.29-.02,.54,.19,.56,.48,.02,.29-.19,.54-.48,.56-.29,.02-.54-.19-.56-.48-.02-.29,.19-.54,.48-.56m.8-.93c-.02-.29,.19-.54,.48-.56,.29-.02,.54,.19,.56,.48,.02,.29-.19,.54-.48,.56s-.54-.19-.56-.48"/>
    </g>
  </g>
</svg>