<?xml version="1.0" encoding="UTF-8"?>
<svg id="b" data-name="圖層 2" xmlns="http://www.w3.org/2000/svg" width="11.61" height="11.61" viewBox="0 0 11.61 11.61">
  <g id="c" data-name="圖層 2">
    <path class="d" d="M7.04,1.22c-.15-.04-.29-.15-.37-.29-.17-.29-.41-.55-.86-.56-.31,0-.67.11-.86.35-.01.02-.02.05,0,.07.04.05.05.1.03.15-.02.09-.13.14-.21.19-.06.03-.12.06-.19.07-.15.04-.33.02-.46-.06-.29-.17-.64-.27-1.02-.05-.27.15-.53.43-.57.73,0,.02,0,.05.04.06.06.03.09.06.1.12.02.09-.04.19-.09.27-.04.06-.08.11-.13.16-.11.11-.28.18-.43.18-.33,0-.69.08-.91.47-.16.27-.24.64-.13.92,0,.02.03.04.06.04.06,0,.11.01.15.05.07.07.06.18.06.28,0,.07-.01.13-.03.2-.04.15-.15.29-.29.37-.29.17-.55.41-.56.86,0,.31.11.67.35.86.02.01.05.02.07,0,.05-.04.1-.05.15-.03.09.02.14.13.19.21.03.06.06.12.07.19.04.15.02.33-.06.46-.16.29-.27.64-.05,1.02.15.27.43.53.73.57.02,0,.05,0,.06-.04.03-.06.06-.09.12-.11.09-.02.19.04.27.09.06.04.11.08.16.13.11.11.18.28.18.43,0,.33.08.69.47.91.27.16.64.24.92.12.02,0,.04-.03.04-.06,0-.06,0-.11.05-.15.07-.07.18-.06.28-.06.07,0,.13.01.2.03.15.04.29.15.37.28.17.29.41.55.86.56.31,0,.67-.11.86-.35.01-.02.02-.05,0-.07-.04-.05-.05-.1-.03-.15.02-.09.13-.14.21-.19.06-.03.12-.06.19-.07.15-.04.33-.02.46.06.29.16.64.27,1.02.05.27-.15.52-.43.57-.73,0-.02,0-.05-.04-.06-.06-.03-.09-.06-.1-.12-.02-.09.04-.19.09-.27.04-.06.08-.11.13-.16.11-.11.28-.18.43-.18.33,0,.69-.08.91-.47.16-.27.24-.64.12-.92,0-.02-.03-.04-.06-.04-.06,0-.11,0-.15-.05-.07-.07-.06-.18-.06-.28,0-.07.01-.13.03-.2.04-.15.15-.29.29-.37.29-.17.55-.41.56-.86,0-.31-.11-.67-.35-.86-.02-.01-.05-.02-.07,0-.05.04-.1.05-.15.03-.09-.02-.14-.13-.19-.21-.03-.06-.06-.12-.07-.19-.04-.15-.02-.33.06-.46.17-.29.27-.64.05-1.02-.15-.27-.43-.52-.73-.57-.02,0-.05,0-.06.04-.03.06-.06.09-.12.11-.09.02-.19-.04-.27-.09-.06-.04-.11-.08-.16-.13-.11-.11-.18-.28-.18-.43,0-.33-.08-.69-.47-.91-.27-.16-.64-.24-.92-.12-.02,0-.04.03-.04.06,0,.07-.01.11-.05.15-.07.07-.18.06-.28.06-.07,0-.13-.01-.2-.03Z"/>
  </g>
</svg>